<?xml version="1.0" encoding="UTF-8" standalone="no"?><svg xmlns="http://www.w3.org/2000/svg" xmlns:xlink="http://www.w3.org/1999/xlink" contentScriptType="application/ecmascript" contentStyleType="text/css" height="357px" preserveAspectRatio="none" style="width:259px;height:357px;" version="1.1" viewBox="0 0 259 357" width="259px" zoomAndPan="magnify"><defs><filter height="300%" id="f13ms3hz348hdk" width="300%" x="-1" y="-1"><feGaussianBlur result="blurOut" stdDeviation="2.0"/><feColorMatrix in="blurOut" result="blurOut2" type="matrix" values="0 0 0 0 0 0 0 0 0 0 0 0 0 0 0 0 0 0 .4 0"/><feOffset dx="4.0" dy="4.0" in="blurOut2" result="blurOut3"/><feBlend in="SourceGraphic" in2="blurOut3" mode="normal"/></filter></defs><g><!--MD5=[03960189e81aa2c066c762ffabbee709]
class Receptionist--><rect codeLine="4" fill="#FEFECE" filter="url(#f13ms3hz348hdk)" height="129.6328" id="Receptionist" style="stroke:#A80036;stroke-width:1.5;" width="238" x="7" y="7"/><ellipse cx="84.75" cy="23" fill="#ADD1B2" rx="11" ry="11" style="stroke:#A80036;stroke-width:1.0;"/><path d="M87.0938,18.6719 C86.1563,18.2344 85.5625,18.0938 84.6875,18.0938 C82.0625,18.0938 80.0625,20.1719 80.0625,22.8906 L80.0625,24.0156 C80.0625,26.5938 82.1719,28.4844 85.0625,28.4844 C86.2813,28.4844 87.4375,28.1875 88.1875,27.6406 C88.7656,27.2344 89.0938,26.7813 89.0938,26.3906 C89.0938,25.9375 88.7031,25.5469 88.2344,25.5469 C88.0156,25.5469 87.8125,25.625 87.625,25.8125 C87.1719,26.2969 87.1719,26.2969 86.9844,26.3906 C86.5625,26.6563 85.875,26.7813 85.1094,26.7813 C83.0625,26.7813 81.7656,25.6875 81.7656,23.9844 L81.7656,22.8906 C81.7656,21.1094 83.0156,19.7969 84.75,19.7969 C85.3281,19.7969 85.9375,19.9531 86.4063,20.2031 C86.8906,20.4844 87.0625,20.7031 87.1563,21.1094 C87.2188,21.5156 87.25,21.6406 87.3906,21.7656 C87.5313,21.9063 87.7656,22.0156 87.9844,22.0156 C88.25,22.0156 88.5156,21.875 88.6875,21.6563 C88.7969,21.5 88.8281,21.3125 88.8281,20.8906 L88.8281,19.4688 C88.8281,19.0313 88.8125,18.9063 88.7188,18.75 C88.5625,18.4844 88.2813,18.3438 87.9844,18.3438 C87.6875,18.3438 87.4844,18.4375 87.2656,18.75 L87.0938,18.6719 Z " fill="#000000"/><text fill="#000000" font-family="sans-serif" font-size="12" lengthAdjust="spacing" textLength="74" x="105.25" y="27.1543">Receptionist</text><line style="stroke:#A80036;stroke-width:1.5;" x1="8" x2="244" y1="39" y2="39"/><text fill="#000000" font-family="sans-serif" font-size="11" lengthAdjust="spacing" textLength="75" x="13" y="53.2104">-employeeID</text><text fill="#000000" font-family="sans-serif" font-size="11" lengthAdjust="spacing" textLength="99" x="13" y="66.0151">-organizationRole</text><text fill="#000000" font-family="sans-serif" font-size="11" lengthAdjust="spacing" textLength="37" x="13" y="78.8198">-name</text><text fill="#000000" font-family="sans-serif" font-size="11" lengthAdjust="spacing" textLength="42" x="13" y="91.6245">-adress</text><text fill="#000000" font-family="sans-serif" font-size="11" lengthAdjust="spacing" textLength="85" x="13" y="104.4292">-phoneNumber</text><text fill="#000000" font-family="sans-serif" font-size="11" lengthAdjust="spacing" textLength="34" x="13" y="117.2339">-eMail</text><text fill="#000000" font-family="sans-serif" font-size="11" lengthAdjust="spacing" textLength="226" x="13" y="130.0386">-StandardOcupationalClassificationCode</text><!--MD5=[ed6624c6556d5e7b1bd23032162d20b7]
class Client--><rect codeLine="14" fill="#FEFECE" filter="url(#f13ms3hz348hdk)" height="129.6328" id="Client" style="stroke:#A80036;stroke-width:1.5;" width="100" x="76" y="214"/><ellipse cx="106.75" cy="230" fill="#ADD1B2" rx="11" ry="11" style="stroke:#A80036;stroke-width:1.0;"/><path d="M109.0938,225.6719 C108.1563,225.2344 107.5625,225.0938 106.6875,225.0938 C104.0625,225.0938 102.0625,227.1719 102.0625,229.8906 L102.0625,231.0156 C102.0625,233.5938 104.1719,235.4844 107.0625,235.4844 C108.2813,235.4844 109.4375,235.1875 110.1875,234.6406 C110.7656,234.2344 111.0938,233.7813 111.0938,233.3906 C111.0938,232.9375 110.7031,232.5469 110.2344,232.5469 C110.0156,232.5469 109.8125,232.625 109.625,232.8125 C109.1719,233.2969 109.1719,233.2969 108.9844,233.3906 C108.5625,233.6563 107.875,233.7813 107.1094,233.7813 C105.0625,233.7813 103.7656,232.6875 103.7656,230.9844 L103.7656,229.8906 C103.7656,228.1094 105.0156,226.7969 106.75,226.7969 C107.3281,226.7969 107.9375,226.9531 108.4063,227.2031 C108.8906,227.4844 109.0625,227.7031 109.1563,228.1094 C109.2188,228.5156 109.25,228.6406 109.3906,228.7656 C109.5313,228.9063 109.7656,229.0156 109.9844,229.0156 C110.25,229.0156 110.5156,228.875 110.6875,228.6563 C110.7969,228.5 110.8281,228.3125 110.8281,227.8906 L110.8281,226.4688 C110.8281,226.0313 110.8125,225.9063 110.7188,225.75 C110.5625,225.4844 110.2813,225.3438 109.9844,225.3438 C109.6875,225.3438 109.4844,225.4375 109.2656,225.75 L109.0938,225.6719 Z " fill="#000000"/><text fill="#000000" font-family="sans-serif" font-size="12" lengthAdjust="spacing" textLength="33" x="124.25" y="234.1543">Client</text><line style="stroke:#A80036;stroke-width:1.5;" x1="77" x2="175" y1="246" y2="246"/><text fill="#000000" font-family="sans-serif" font-size="11" lengthAdjust="spacing" textLength="25" x="82" y="260.2104">-Ccn</text><text fill="#000000" font-family="sans-serif" font-size="11" lengthAdjust="spacing" textLength="76" x="82" y="273.0151">-NHS number</text><text fill="#000000" font-family="sans-serif" font-size="11" lengthAdjust="spacing" textLength="62" x="82" y="285.8198">-Birth Date</text><text fill="#000000" font-family="sans-serif" font-size="11" lengthAdjust="spacing" textLength="27" x="82" y="298.6245">-Sex</text><text fill="#000000" font-family="sans-serif" font-size="11" lengthAdjust="spacing" textLength="88" x="82" y="311.4292">-Phone Number</text><text fill="#000000" font-family="sans-serif" font-size="11" lengthAdjust="spacing" textLength="39" x="82" y="324.2339">-E-mail</text><text fill="#000000" font-family="sans-serif" font-size="11" lengthAdjust="spacing" textLength="38" x="82" y="337.0386">-Name</text><!--MD5=[6a35157f4c730bda767e7c9f1b8b7f73]
link Receptionist to Client--><path codeLine="24" d="M126,137.02 C126,159.738 126,185.405 126,208.554 " fill="none" id="Receptionist-to-Client" style="stroke:#A80036;stroke-width:1.0;"/><polygon fill="#A80036" points="126,213.761,130,204.761,126,208.761,122,204.761,126,213.761" style="stroke:#A80036;stroke-width:1.0;"/><text fill="#000000" font-family="sans-serif" font-size="13" lengthAdjust="spacing" textLength="56" x="127" y="180.0669">registers</text><text fill="#000000" font-family="sans-serif" font-size="13" lengthAdjust="spacing" textLength="8" x="117.5875" y="156.5913">1</text><text fill="#000000" font-family="sans-serif" font-size="13" lengthAdjust="spacing" textLength="7" x="118.6172" y="202.8994">*</text><!--MD5=[165aed274270bc4116b649ef6a71f03d]
@startuml
skinparam classAttributeIconSize 0
hide methods

class Receptionist {
  -employeeID
  -organizationRole
  -name
  -adress
  -phoneNumber
  -eMail
  -StandardOcupationalClassificationCode
}

class Client {
        - Ccn
	- NHS number
	- Birth Date
	- Sex
	- Tax Identification number(TIF)
	- Phone Number
	- E-mail
	- Name
}
Receptionist "1" - -> "*" Client : registers
@enduml

PlantUML version 1.2021.5(Sun Apr 25 11:20:28 UTC 2021)
(GPL source distribution)
Java Runtime: Java(TM) SE Runtime Environment
JVM: Java HotSpot(TM) 64-Bit Server VM
Default Encoding: UTF-8
Language: en
Country: US
--></g></svg>