<?xml version="1.0" encoding="UTF-8" standalone="no"?><svg xmlns="http://www.w3.org/2000/svg" xmlns:xlink="http://www.w3.org/1999/xlink" contentScriptType="application/ecmascript" contentStyleType="text/css" height="230px" preserveAspectRatio="none" style="width:604px;height:230px;" version="1.1" viewBox="0 0 604 230" width="604px" zoomAndPan="magnify"><defs><filter height="300%" id="f1jxjykxw2k9gi" width="300%" x="-1" y="-1"><feGaussianBlur result="blurOut" stdDeviation="2.0"/><feColorMatrix in="blurOut" result="blurOut2" type="matrix" values="0 0 0 0 0 0 0 0 0 0 0 0 0 0 0 0 0 0 .4 0"/><feOffset dx="4.0" dy="4.0" in="blurOut2" result="blurOut3"/><feBlend in="SourceGraphic" in2="blurOut3" mode="normal"/></filter></defs><g><!--MD5=[02e4b9b7573f1156f41e60aa5b4e25a4]
class Company--><rect codeLine="8" fill="#FEFECE" filter="url(#f1jxjykxw2k9gi)" height="52.8047" id="Company" style="stroke:#A80036;stroke-width:1.5;" width="88" x="7" y="44.5"/><ellipse cx="22" cy="60.5" fill="#ADD1B2" rx="11" ry="11" style="stroke:#A80036;stroke-width:1.0;"/><path d="M24.3438,56.1719 C23.4063,55.7344 22.8125,55.5938 21.9375,55.5938 C19.3125,55.5938 17.3125,57.6719 17.3125,60.3906 L17.3125,61.5156 C17.3125,64.0938 19.4219,65.9844 22.3125,65.9844 C23.5313,65.9844 24.6875,65.6875 25.4375,65.1406 C26.0156,64.7344 26.3438,64.2813 26.3438,63.8906 C26.3438,63.4375 25.9531,63.0469 25.4844,63.0469 C25.2656,63.0469 25.0625,63.125 24.875,63.3125 C24.4219,63.7969 24.4219,63.7969 24.2344,63.8906 C23.8125,64.1563 23.125,64.2813 22.3594,64.2813 C20.3125,64.2813 19.0156,63.1875 19.0156,61.4844 L19.0156,60.3906 C19.0156,58.6094 20.2656,57.2969 22,57.2969 C22.5781,57.2969 23.1875,57.4531 23.6563,57.7031 C24.1406,57.9844 24.3125,58.2031 24.4063,58.6094 C24.4688,59.0156 24.5,59.1406 24.6406,59.2656 C24.7813,59.4063 25.0156,59.5156 25.2344,59.5156 C25.5,59.5156 25.7656,59.375 25.9375,59.1563 C26.0469,59 26.0781,58.8125 26.0781,58.3906 L26.0781,56.9688 C26.0781,56.5313 26.0625,56.4063 25.9688,56.25 C25.8125,55.9844 25.5313,55.8438 25.2344,55.8438 C24.9375,55.8438 24.7344,55.9375 24.5156,56.25 L24.3438,56.1719 Z " fill="#000000"/><text fill="#000000" font-family="sans-serif" font-size="12" lengthAdjust="spacing" textLength="56" x="36" y="64.6543">Company</text><line style="stroke:#A80036;stroke-width:1.5;" x1="8" x2="94" y1="76.5" y2="76.5"/><text fill="#000000" font-family="sans-serif" font-size="11" lengthAdjust="spacing" textLength="37" x="13" y="90.7104">-name</text><!--MD5=[dc8208eb601d74d3ca9af9b23ead8899]
class organizationRole--><rect codeLine="13" fill="#FEFECE" filter="url(#f1jxjykxw2k9gi)" height="65.6094" id="organizationRole" style="stroke:#A80036;stroke-width:1.5;" width="132" x="458" y="7"/><ellipse cx="473" cy="23" fill="#ADD1B2" rx="11" ry="11" style="stroke:#A80036;stroke-width:1.0;"/><path d="M475.3438,18.6719 C474.4063,18.2344 473.8125,18.0938 472.9375,18.0938 C470.3125,18.0938 468.3125,20.1719 468.3125,22.8906 L468.3125,24.0156 C468.3125,26.5938 470.4219,28.4844 473.3125,28.4844 C474.5313,28.4844 475.6875,28.1875 476.4375,27.6406 C477.0156,27.2344 477.3438,26.7813 477.3438,26.3906 C477.3438,25.9375 476.9531,25.5469 476.4844,25.5469 C476.2656,25.5469 476.0625,25.625 475.875,25.8125 C475.4219,26.2969 475.4219,26.2969 475.2344,26.3906 C474.8125,26.6563 474.125,26.7813 473.3594,26.7813 C471.3125,26.7813 470.0156,25.6875 470.0156,23.9844 L470.0156,22.8906 C470.0156,21.1094 471.2656,19.7969 473,19.7969 C473.5781,19.7969 474.1875,19.9531 474.6563,20.2031 C475.1406,20.4844 475.3125,20.7031 475.4063,21.1094 C475.4688,21.5156 475.5,21.6406 475.6406,21.7656 C475.7813,21.9063 476.0156,22.0156 476.2344,22.0156 C476.5,22.0156 476.7656,21.875 476.9375,21.6563 C477.0469,21.5 477.0781,21.3125 477.0781,20.8906 L477.0781,19.4688 C477.0781,19.0313 477.0625,18.9063 476.9688,18.75 C476.8125,18.4844 476.5313,18.3438 476.2344,18.3438 C475.9375,18.3438 475.7344,18.4375 475.5156,18.75 L475.3438,18.6719 Z " fill="#000000"/><text fill="#000000" font-family="sans-serif" font-size="12" lengthAdjust="spacing" textLength="100" x="487" y="27.1543">organizationRole</text><line style="stroke:#A80036;stroke-width:1.5;" x1="459" x2="589" y1="39" y2="39"/><text fill="#000000" font-family="sans-serif" font-size="11" lengthAdjust="spacing" textLength="90" x="464" y="53.2104">-roleDescription</text><text fill="#000000" font-family="sans-serif" font-size="11" lengthAdjust="spacing" textLength="60" x="464" y="66.0151">-roleName</text><!--MD5=[7421f545a0d8420c5bec41e74b387d9c]
class Employee--><rect codeLine="19" fill="#FEFECE" filter="url(#f1jxjykxw2k9gi)" height="116.8281" id="Employee" style="stroke:#A80036;stroke-width:1.5;" width="97" x="225" y="99.5"/><ellipse cx="242.25" cy="115.5" fill="#ADD1B2" rx="11" ry="11" style="stroke:#A80036;stroke-width:1.0;"/><path d="M244.5938,111.1719 C243.6563,110.7344 243.0625,110.5938 242.1875,110.5938 C239.5625,110.5938 237.5625,112.6719 237.5625,115.3906 L237.5625,116.5156 C237.5625,119.0938 239.6719,120.9844 242.5625,120.9844 C243.7813,120.9844 244.9375,120.6875 245.6875,120.1406 C246.2656,119.7344 246.5938,119.2813 246.5938,118.8906 C246.5938,118.4375 246.2031,118.0469 245.7344,118.0469 C245.5156,118.0469 245.3125,118.125 245.125,118.3125 C244.6719,118.7969 244.6719,118.7969 244.4844,118.8906 C244.0625,119.1563 243.375,119.2813 242.6094,119.2813 C240.5625,119.2813 239.2656,118.1875 239.2656,116.4844 L239.2656,115.3906 C239.2656,113.6094 240.5156,112.2969 242.25,112.2969 C242.8281,112.2969 243.4375,112.4531 243.9063,112.7031 C244.3906,112.9844 244.5625,113.2031 244.6563,113.6094 C244.7188,114.0156 244.75,114.1406 244.8906,114.2656 C245.0313,114.4063 245.2656,114.5156 245.4844,114.5156 C245.75,114.5156 246.0156,114.375 246.1875,114.1563 C246.2969,114 246.3281,113.8125 246.3281,113.3906 L246.3281,111.9688 C246.3281,111.5313 246.3125,111.4063 246.2188,111.25 C246.0625,110.9844 245.7813,110.8438 245.4844,110.8438 C245.1875,110.8438 244.9844,110.9375 244.7656,111.25 L244.5938,111.1719 Z " fill="#000000"/><text fill="#000000" font-family="sans-serif" font-size="12" lengthAdjust="spacing" textLength="60" x="256.75" y="119.6543">Employee</text><line style="stroke:#A80036;stroke-width:1.5;" x1="226" x2="321" y1="131.5" y2="131.5"/><text fill="#000000" font-family="sans-serif" font-size="11" lengthAdjust="spacing" textLength="16" x="231" y="145.7104">-ID</text><text fill="#000000" font-family="sans-serif" font-size="11" lengthAdjust="spacing" textLength="37" x="231" y="158.5151">-name</text><text fill="#000000" font-family="sans-serif" font-size="11" lengthAdjust="spacing" textLength="77" x="231" y="171.3198">-postalAdress</text><text fill="#000000" font-family="sans-serif" font-size="11" lengthAdjust="spacing" textLength="85" x="231" y="184.1245">-phoneNumber</text><text fill="#000000" font-family="sans-serif" font-size="11" lengthAdjust="spacing" textLength="36" x="231" y="196.9292">-email</text><text fill="#000000" font-family="sans-serif" font-size="11" lengthAdjust="spacing" textLength="57" x="231" y="209.7339">-SOCcode</text><!--MD5=[3fd616f346a44cd59a91eb10b19e157c]
class User--><rect codeLine="29" fill="#FEFECE" filter="url(#f1jxjykxw2k9gi)" height="78.4141" id="User" style="stroke:#A80036;stroke-width:1.5;" width="69" x="489.5" y="119"/><ellipse cx="508.1" cy="135" fill="#ADD1B2" rx="11" ry="11" style="stroke:#A80036;stroke-width:1.0;"/><path d="M510.4438,130.6719 C509.5063,130.2344 508.9125,130.0938 508.0375,130.0938 C505.4125,130.0938 503.4125,132.1719 503.4125,134.8906 L503.4125,136.0156 C503.4125,138.5938 505.5219,140.4844 508.4125,140.4844 C509.6313,140.4844 510.7875,140.1875 511.5375,139.6406 C512.1156,139.2344 512.4438,138.7813 512.4438,138.3906 C512.4438,137.9375 512.0531,137.5469 511.5844,137.5469 C511.3656,137.5469 511.1625,137.625 510.975,137.8125 C510.5219,138.2969 510.5219,138.2969 510.3344,138.3906 C509.9125,138.6563 509.225,138.7813 508.4594,138.7813 C506.4125,138.7813 505.1156,137.6875 505.1156,135.9844 L505.1156,134.8906 C505.1156,133.1094 506.3656,131.7969 508.1,131.7969 C508.6781,131.7969 509.2875,131.9531 509.7563,132.2031 C510.2406,132.4844 510.4125,132.7031 510.5063,133.1094 C510.5688,133.5156 510.6,133.6406 510.7406,133.7656 C510.8813,133.9063 511.1156,134.0156 511.3344,134.0156 C511.6,134.0156 511.8656,133.875 512.0375,133.6563 C512.1469,133.5 512.1781,133.3125 512.1781,132.8906 L512.1781,131.4688 C512.1781,131.0313 512.1625,130.9063 512.0688,130.75 C511.9125,130.4844 511.6313,130.3438 511.3344,130.3438 C511.0375,130.3438 510.8344,130.4375 510.6156,130.75 L510.4438,130.6719 Z " fill="#000000"/><text fill="#000000" font-family="sans-serif" font-size="12" lengthAdjust="spacing" textLength="29" x="522.9" y="139.1543">User</text><line style="stroke:#A80036;stroke-width:1.5;" x1="490.5" x2="557.5" y1="151" y2="151"/><text fill="#000000" font-family="sans-serif" font-size="11" lengthAdjust="spacing" textLength="37" x="495.5" y="165.2104">-name</text><text fill="#000000" font-family="sans-serif" font-size="11" lengthAdjust="spacing" textLength="36" x="495.5" y="178.0151">-email</text><text fill="#000000" font-family="sans-serif" font-size="11" lengthAdjust="spacing" textLength="57" x="495.5" y="190.8198">-password</text><!--MD5=[09366576ee87d48d594df10cacc83f45]
link Company to Employee--><path codeLine="37" d="M95.0381,87.981 C132.387,102.717 186.376,124.0192 224.983,139.252 " fill="none" id="Company-Employee" style="stroke:#A80036;stroke-width:1.0;"/><polygon fill="#000000" points="134.6511,94.4015,127.3159,88.3479,125.1586,93.8156,134.6511,94.4015" style="stroke:#000000;stroke-width:1.0;"/><text fill="#000000" font-family="sans-serif" font-size="13" lengthAdjust="spacing" textLength="55" x="139" y="97.0669">employs</text><text fill="#000000" font-family="sans-serif" font-size="13" lengthAdjust="spacing" textLength="8" x="102.9944" y="104.1297">1</text><text fill="#000000" font-family="sans-serif" font-size="13" lengthAdjust="spacing" textLength="23" x="193.9182" y="149.8279">1..*</text><!--MD5=[89246474baeb64bacd584e6229799cfb]
link Company to organizationRole--><path codeLine="38" d="M95.0467,68.167 C177.936,62.711 360.135,50.719 457.924,44.283 " fill="none" id="Company-organizationRole" style="stroke:#A80036;stroke-width:1.0;"/><polygon fill="#000000" points="264.4892,45.238,255.2706,42.8995,255.6567,48.7647,264.4892,45.238" style="stroke:#000000;stroke-width:1.0;"/><text fill="#000000" font-family="sans-serif" font-size="13" lengthAdjust="spacing" textLength="23" x="268.5" y="50.0669">has</text><text fill="#000000" font-family="sans-serif" font-size="13" lengthAdjust="spacing" textLength="8" x="103.0044" y="81.034">1</text><text fill="#000000" font-family="sans-serif" font-size="13" lengthAdjust="spacing" textLength="7" x="442.8793" y="57.7426">*</text><!--MD5=[22fb9506fac029fc1d2ae00f0eb8d606]
link Employee to User--><path codeLine="39" d="M322.119,158 C371.163,158 446.34,158 489.468,158 " fill="none" id="Employee-User" style="stroke:#A80036;stroke-width:1.0;"/><polygon fill="#000000" points="369.5,149.5664,360.4549,146.6275,360.4549,152.5053,369.5,149.5664" style="stroke:#000000;stroke-width:1.0;"/><text fill="#000000" font-family="sans-serif" font-size="13" lengthAdjust="spacing" textLength="46" x="373.5" y="154.0669">acts as</text><text fill="#000000" font-family="sans-serif" font-size="13" lengthAdjust="spacing" textLength="24" x="329.8858" y="171.0474">0..1</text><text fill="#000000" font-family="sans-serif" font-size="13" lengthAdjust="spacing" textLength="8" x="473.5208" y="171.5848">1</text><!--MD5=[b2040a3db3266acc4d7abdf09bd9730a]
link Employee to organizationRole--><path codeLine="40" d="M322.119,135.388 C360.593,117.1187 415.15,91.213 457.7,71.008 " fill="none" id="Employee-organizationRole" style="stroke:#A80036;stroke-width:1.0;"/><polygon fill="#000000" points="361.5167,77.4217,352.0853,78.6467,354.6066,83.9563,361.5167,77.4217" style="stroke:#000000;stroke-width:1.0;"/><text fill="#000000" font-family="sans-serif" font-size="13" lengthAdjust="spacing" textLength="61" x="366" y="84.0669">has/plays</text><text fill="#000000" font-family="sans-serif" font-size="13" lengthAdjust="spacing" textLength="8" x="329.8474" y="145.2577">1</text><text fill="#000000" font-family="sans-serif" font-size="13" lengthAdjust="spacing" textLength="8" x="442.0109" y="87.3153">1</text><!--MD5=[0c0569887155e1775dc6278072026830]
@startuml
hide methods
left to right direction
skinparam classAttributeIconSize 0




class Company{
  -name
 
}

class organizationRole {
  -roleDescription
  -roleName
 
}

class Employee {
  -ID
  -name
  -postalAdress
  -phoneNumber
  -email
  -SOCcode
  
}

class User {
  -name
  -email
  -password
}



Company "1" - - "1..*" Employee : employs >
Company "1" - - "*" organizationRole: has >
Employee "0..1" - - "1" User: acts as >
Employee "1" - - "1" organizationRole: has/plays >
@enduml

PlantUML version 1.2021.6beta2(Unknown compile time)
(GPL source distribution)
Java Runtime: Java(TM) SE Runtime Environment
JVM: Java HotSpot(TM) 64-Bit Server VM
Default Encoding: UTF-8
Language: en
Country: US
--></g></svg>