<?xml version="1.0" encoding="UTF-8" standalone="no"?>
<svg xmlns="http://www.w3.org/2000/svg" xmlns:xlink="http://www.w3.org/1999/xlink" contentScriptType="application/ecmascript" contentStyleType="text/css" height="1305px" preserveAspectRatio="none" style="width:645px;height:1305px;" version="1.1" viewBox="0 0 645 1305" width="645px" zoomAndPan="magnify"><defs><filter height="300%" id="f1mqpg60bxb8xo" width="300%" x="-1" y="-1"><feGaussianBlur result="blurOut" stdDeviation="2.0"/><feColorMatrix in="blurOut" result="blurOut2" type="matrix" values="0 0 0 0 0 0 0 0 0 0 0 0 0 0 0 0 0 0 .4 0"/><feOffset dx="4.0" dy="4.0" in="blurOut2" result="blurOut3"/><feBlend in="SourceGraphic" in2="blurOut3" mode="normal"/></filter></defs><g><!--MD5=[e4550532860d4c8a99e0d95bce68a39c]
entity Recepetionist--><ellipse cx="89.5" cy="1228.5" fill="#FEFECE" filter="url(#f1mqpg60bxb8xo)" rx="8" ry="8" style="stroke:#A80036;stroke-width:1.5;"/><path d="M89.5,1236.5 L89.5,1263.5 M76.5,1244.5 L102.5,1244.5 M89.5,1263.5 L76.5,1278.5 M89.5,1263.5 L102.5,1278.5 " fill="none" filter="url(#f1mqpg60bxb8xo)" style="stroke:#A80036;stroke-width:1.5;"/><text fill="#000000" font-family="sans-serif" font-size="14" lengthAdjust="spacing" textLength="102" x="38.5" y="1296.9951">Recepetionist</text><ellipse cx="433.6693" cy="1259.6339" fill="#FEFECE" filter="url(#f1mqpg60bxb8xo)" rx="93.6693" ry="21.1339" style="stroke:#A80036;stroke-width:1.5;"/><text fill="#000000" font-family="sans-serif" font-size="14" lengthAdjust="spacing" textLength="150" x="358.6693" y="1262.4805">UC1 - Register Client</text><ellipse cx="433.5038" cy="931.4008" fill="#FEFECE" filter="url(#f1mqpg60bxb8xo)" rx="125.0038" ry="27.4008" style="stroke:#A80036;stroke-width:1.5;"/><text fill="#000000" font-family="sans-serif" font-size="14" lengthAdjust="spacing" textLength="218" x="324.5038" y="934.2474">UC7 - Check client test results</text><ellipse cx="433.6144" cy="1014.4229" fill="#FEFECE" filter="url(#f1mqpg60bxb8xo)" rx="90.1144" ry="20.4229" style="stroke:#A80036;stroke-width:1.5;"/><text fill="#000000" font-family="sans-serif" font-size="14" lengthAdjust="spacing" textLength="142" x="362.6144" y="1017.2696">UC8 - Consult Client</text><!--MD5=[2b63f547074bd6a145c0620c277963de]
entity MedicalLabTechnician--><ellipse cx="89.5" cy="669.5" fill="#FEFECE" filter="url(#f1mqpg60bxb8xo)" rx="8" ry="8" style="stroke:#A80036;stroke-width:1.5;"/><path d="M89.5,677.5 L89.5,704.5 M76.5,685.5 L102.5,685.5 M89.5,704.5 L76.5,719.5 M89.5,704.5 L102.5,719.5 " fill="none" filter="url(#f1mqpg60bxb8xo)" style="stroke:#A80036;stroke-width:1.5;"/><text fill="#000000" font-family="sans-serif" font-size="14" lengthAdjust="spacing" textLength="157" x="11" y="737.9951">MedicalLabTechnician</text><ellipse cx="433.3518" cy="660.5704" fill="#FEFECE" filter="url(#f1mqpg60bxb8xo)" rx="88.3518" ry="20.0704" style="stroke:#A80036;stroke-width:1.5;"/><text fill="#000000" font-family="sans-serif" font-size="14" lengthAdjust="spacing" textLength="138" x="364.3518" y="663.417">UC2 - Register Test</text><ellipse cx="433.4086" cy="739.5817" fill="#FEFECE" filter="url(#f1mqpg60bxb8xo)" rx="105.9086" ry="23.5817" style="stroke:#A80036;stroke-width:1.5;"/><text fill="#000000" font-family="sans-serif" font-size="14" lengthAdjust="spacing" textLength="177" x="344.9086" y="742.4284">UC11 - Register Samples</text><!--MD5=[b9f22e1f914de05b600b494d477eb3bb]
entity ChemistryTechnologist--><ellipse cx="89.5" cy="983.5" fill="#FEFECE" filter="url(#f1mqpg60bxb8xo)" rx="8" ry="8" style="stroke:#A80036;stroke-width:1.5;"/><path d="M89.5,991.5 L89.5,1018.5 M76.5,999.5 L102.5,999.5 M89.5,1018.5 L76.5,1033.5 M89.5,1018.5 L102.5,1033.5 " fill="none" filter="url(#f1mqpg60bxb8xo)" style="stroke:#A80036;stroke-width:1.5;"/><text fill="#000000" font-family="sans-serif" font-size="14" lengthAdjust="spacing" textLength="167" x="6" y="1051.9951">ChemistryTechnologist</text><ellipse cx="433.3276" cy="1094.2655" fill="#FEFECE" filter="url(#f1mqpg60bxb8xo)" rx="106.8276" ry="23.7655" style="stroke:#A80036;stroke-width:1.5;"/><text fill="#000000" font-family="sans-serif" font-size="14" lengthAdjust="spacing" textLength="179" x="343.8276" y="1097.1122">UC3 - Record test results</text><!--MD5=[ed5cf9b98a04c736a5595d6482b9f19f]
entity SpecialistDoctor--><ellipse cx="89.5" cy="867.5" fill="#FEFECE" filter="url(#f1mqpg60bxb8xo)" rx="8" ry="8" style="stroke:#A80036;stroke-width:1.5;"/><path d="M89.5,875.5 L89.5,902.5 M76.5,883.5 L102.5,883.5 M89.5,902.5 L76.5,917.5 M89.5,902.5 L102.5,917.5 " fill="none" filter="url(#f1mqpg60bxb8xo)" style="stroke:#A80036;stroke-width:1.5;"/><text fill="#000000" font-family="sans-serif" font-size="14" lengthAdjust="spacing" textLength="120" x="29.5" y="935.9951">SpecialistDoctor</text><ellipse cx="433.7325" cy="833.7465" fill="#FEFECE" filter="url(#f1mqpg60bxb8xo)" rx="164.2325" ry="35.2465" style="stroke:#A80036;stroke-width:1.5;"/><text fill="#000000" font-family="sans-serif" font-size="14" lengthAdjust="spacing" textLength="300" x="283.7325" y="836.5932">UC4 - Write a report about the Test result</text><!--MD5=[62529e7d5259bf274c3bf3e446350d88]
entity Administrator--><ellipse cx="89.5" cy="257.5" fill="#FEFECE" filter="url(#f1mqpg60bxb8xo)" rx="8" ry="8" style="stroke:#A80036;stroke-width:1.5;"/><path d="M89.5,265.5 L89.5,292.5 M76.5,273.5 L102.5,273.5 M89.5,292.5 L76.5,307.5 M89.5,292.5 L102.5,307.5 " fill="none" filter="url(#f1mqpg60bxb8xo)" style="stroke:#A80036;stroke-width:1.5;"/><text fill="#000000" font-family="sans-serif" font-size="14" lengthAdjust="spacing" textLength="100" x="39.5" y="325.9951">Administrator</text><ellipse cx="433.3679" cy="29.6736" fill="#FEFECE" filter="url(#f1mqpg60bxb8xo)" rx="106.3679" ry="23.6736" style="stroke:#A80036;stroke-width:1.5;"/><text fill="#000000" font-family="sans-serif" font-size="14" lengthAdjust="spacing" textLength="178" x="344.3679" y="32.5203">UC5 - Change test values</text><ellipse cx="433.4267" cy="125.6853" fill="#FEFECE" filter="url(#f1mqpg60bxb8xo)" rx="173.9267" ry="37.1853" style="stroke:#A80036;stroke-width:1.5;"/><text fill="#000000" font-family="sans-serif" font-size="14" lengthAdjust="spacing" textLength="320" x="273.4267" y="128.532">UC9 - Give the NHS a report of covid-19 data</text><ellipse cx="433.7003" cy="233.4401" fill="#FEFECE" filter="url(#f1mqpg60bxb8xo)" rx="165.2003" ry="35.4401" style="stroke:#A80036;stroke-width:1.5;"/><text fill="#000000" font-family="sans-serif" font-size="14" lengthAdjust="spacing" textLength="302" x="282.7003" y="236.2867">UC10 -Give the NHS a forecast of covid-19</text><ellipse cx="433.6671" cy="343.5334" fill="#FEFECE" filter="url(#f1mqpg60bxb8xo)" rx="183.1671" ry="39.0334" style="stroke:#A80036;stroke-width:1.5;"/><text fill="#000000" font-family="sans-serif" font-size="14" lengthAdjust="spacing" textLength="339" x="264.1671" y="346.3801">UC12 - Create new test and collecting methods</text><ellipse cx="433.2535" cy="460.4507" fill="#FEFECE" filter="url(#f1mqpg60bxb8xo)" rx="200.2535" ry="42.4507" style="stroke:#A80036;stroke-width:1.5;"/><text fill="#000000" font-family="sans-serif" font-size="14" lengthAdjust="spacing" textLength="374" x="246.2535" y="463.2974">UC13 - Create new test parameter and categorize it</text><ellipse cx="433.5598" cy="571.412" fill="#FEFECE" filter="url(#f1mqpg60bxb8xo)" rx="155.0598" ry="33.412" style="stroke:#A80036;stroke-width:1.5;"/><text fill="#000000" font-family="sans-serif" font-size="14" lengthAdjust="spacing" textLength="281" x="293.0598" y="574.2586">UC14 - Create new parameter category</text><!--MD5=[6a38910834749d432318f75987594161]
entity LaboratoryCoordinator--><ellipse cx="89.5" cy="1099.5" fill="#FEFECE" filter="url(#f1mqpg60bxb8xo)" rx="8" ry="8" style="stroke:#A80036;stroke-width:1.5;"/><path d="M89.5,1107.5 L89.5,1134.5 M76.5,1115.5 L102.5,1115.5 M89.5,1134.5 L76.5,1149.5 M89.5,1134.5 L102.5,1149.5 " fill="none" filter="url(#f1mqpg60bxb8xo)" style="stroke:#A80036;stroke-width:1.5;"/><text fill="#000000" font-family="sans-serif" font-size="14" lengthAdjust="spacing" textLength="165" x="7" y="1167.9951">LaboratoryCoordinator</text><ellipse cx="433.4443" cy="1178.6889" fill="#FEFECE" filter="url(#f1mqpg60bxb8xo)" rx="111.4443" ry="24.6889" style="stroke:#A80036;stroke-width:1.5;"/><text fill="#000000" font-family="sans-serif" font-size="14" lengthAdjust="spacing" textLength="189" x="338.9443" y="1181.5355">UC6 - Validate Test results</text><!--MD5=[0b92df516d602bc8012b8d030a4fe094]
link Recepetionist to Register--><path d="M140.596,1259.5 C191.306,1259.5 271.058,1259.5 334.395,1259.5 " fill="none" id="Recepetionist-to-Register" style="stroke:#A80036;stroke-width:1.0;"/><polygon fill="#A80036" points="339.697,1259.5,330.697,1255.5,334.697,1259.5,330.697,1263.5,339.697,1259.5" style="stroke:#A80036;stroke-width:1.0;"/><!--MD5=[0daf7ac90d966487583919254383f5f4]
link MedicalLabTechnician to UC2 - Register Test--><path d="M168.105,691.423 C222.135,685.104 294.111,676.686 349.321,670.228 " fill="none" id="MedicalLabTechnician-to-UC2 - Register Test" style="stroke:#A80036;stroke-width:1.0;"/><polygon fill="#A80036" points="354.611,669.61,345.2069,666.6838,349.6449,670.1915,346.1372,674.6295,354.611,669.61" style="stroke:#A80036;stroke-width:1.0;"/><!--MD5=[bbad96834cc38046a910eb9a01978b32]
link MedicalLabTechnician to UC11 - Register Samples--><path d="M168.105,709.35 C217.172,714.945 281.037,722.228 333.707,728.234 " fill="none" id="MedicalLabTechnician-to-UC11 - Register Samples" style="stroke:#A80036;stroke-width:1.0;"/><polygon fill="#A80036" points="338.768,728.811,330.2784,723.8183,333.8001,728.2452,329.3732,731.7669,338.768,728.811" style="stroke:#A80036;stroke-width:1.0;"/><!--MD5=[bbcb68c5cb5814d61036ef9eedc0d230]
link ChemistryTechnologist to UC3 - Record test results--><path d="M173.199,1037.349 C192.756,1042.531 213.573,1047.868 233,1052.5 C270.41,1061.419 312.003,1070.333 347.489,1077.64 " fill="none" id="ChemistryTechnologist-to-UC3 - Record test results" style="stroke:#A80036;stroke-width:1.0;"/><polygon fill="#A80036" points="352.679,1078.706,344.6677,1072.9773,347.7812,1077.7002,343.0583,1080.8137,352.679,1078.706" style="stroke:#A80036;stroke-width:1.0;"/><!--MD5=[7fa9c6f1af0f96467ae038a90665f693]
link ChemistryTechnologist to Check--><path d="M173.248,991.853 C192.803,986.662 213.607,981.271 233,976.5 C267.504,968.011 305.52,959.282 339.029,951.798 " fill="none" id="ChemistryTechnologist-to-Check" style="stroke:#A80036;stroke-width:1.0;"/><polygon fill="#A80036" points="343.939,950.703,334.284,948.7584,339.0589,951.7916,336.0258,956.5665,343.939,950.703" style="stroke:#A80036;stroke-width:1.0;"/><!--MD5=[5c2e9a92ae83e6187114c86b55acd827]
link ChemistryTechnologist to Sort--><path d="M173.289,1014.5 C222.981,1014.5 286.359,1014.5 338.007,1014.5 " fill="none" id="ChemistryTechnologist-to-Sort" style="stroke:#A80036;stroke-width:1.0;"/><polygon fill="#A80036" points="343.285,1014.5,334.285,1010.5,338.285,1014.5,334.285,1018.5,343.285,1014.5" style="stroke:#A80036;stroke-width:1.0;"/><!--MD5=[30dda68a7c5ee350fb51788d33ba9975]
link SpecialistDoctor to UC4 - Write a report about the Test result--><path d="M149.681,887.252 C192.464,879.121 251.876,867.829 305.208,857.693 " fill="none" id="SpecialistDoctor-to-UC4 - Write a report about the Test result" style="stroke:#A80036;stroke-width:1.0;"/><polygon fill="#A80036" points="310.35,856.716,300.7618,854.4651,305.4378,857.6487,302.2542,862.3247,310.35,856.716" style="stroke:#A80036;stroke-width:1.0;"/><!--MD5=[ac806513720c27c6e920053fd2c926c9]
link SpecialistDoctor to Sort--><path d="M149.567,936.251 C174.489,950.723 204.33,966.212 233,976.5 C269.533,989.609 311.538,998.471 347.552,1004.314 " fill="none" id="SpecialistDoctor-to-Sort" style="stroke:#A80036;stroke-width:1.0;"/><polygon fill="#A80036" points="352.821,1005.154,344.563,999.7869,347.8834,1004.3668,343.3035,1007.6871,352.821,1005.154" style="stroke:#A80036;stroke-width:1.0;"/><!--MD5=[953b589759e628f165a0a3bb213b8a74]
link SpecialistDoctor to Check--><path d="M149.681,904.21 C194.777,908.562 258.349,914.696 313.802,920.047 " fill="none" id="SpecialistDoctor-to-Check" style="stroke:#A80036;stroke-width:1.0;"/><polygon fill="#A80036" points="318.8,920.529,310.2255,915.6835,313.8231,920.049,309.4576,923.6466,318.8,920.529" style="stroke:#A80036;stroke-width:1.0;"/><!--MD5=[8e85e918db2f4828b48320e009da78a2]
link Administrator to UC5 - Change test values--><path d="M105.6878,247.62 C126.472,197.61 168.693,114.24 233,70.5 C259.851,52.24 293.111,41.8 324.727,35.93 " fill="none" id="Administrator-to-UC5 - Change test values" style="stroke:#A80036;stroke-width:1.0;"/><polygon fill="#A80036" points="329.786,35.02,320.223,32.6642,324.8638,35.8989,321.6292,40.5397,329.786,35.02" style="stroke:#A80036;stroke-width:1.0;"/><!--MD5=[9a84fa3e58b7fde8e77b9cbd9053aab0]
link Administrator to UC9 - Give the NHS a report of covid-19 data--><path d="M134.718,247.96 C161.471,225.31 197.236,198.16 233,180.5 C255.347,169.46 280.234,160.37 304.642,152.97 " fill="none" id="Administrator-to-UC9 - Give the NHS a report of covid-19 data" style="stroke:#A80036;stroke-width:1.0;"/><polygon fill="#A80036" points="309.516,151.52,299.7482,150.2588,304.7245,152.9489,302.0344,157.9252,309.516,151.52" style="stroke:#A80036;stroke-width:1.0;"/><!--MD5=[302b5d6ac7a2b0a7402de6f0d8ea1b53]
link Administrator to UC10 -Give the NHS a forecast of covid-19--><path d="M139.5,280.62 C180.378,274.05 240.664,264.35 295.941,255.46 " fill="none" id="Administrator-to-UC10 -Give the NHS a forecast of covid-19" style="stroke:#A80036;stroke-width:1.0;"/><polygon fill="#A80036" points="300.931,254.66,291.4111,252.1359,295.9941,255.4519,292.6781,260.0349,300.931,254.66" style="stroke:#A80036;stroke-width:1.0;"/><!--MD5=[71897472eea7fcd2d6d50e5430a58ff7]
link Administrator to UC12 - Create new test and collecting methods--><path d="M139.5,296.38 C176.986,302.408 230.791,311.061 282.089,319.311 " fill="none" id="Administrator-to-UC12 - Create new test and collecting methods" style="stroke:#A80036;stroke-width:1.0;"/><polygon fill="#A80036" points="287.045,320.108,278.7946,314.7292,282.1085,319.3138,277.5239,322.6277,287.045,320.108" style="stroke:#A80036;stroke-width:1.0;"/><!--MD5=[112ffb2570b12fa0db7b911dbe8e5c03]
link Administrator to UC13 - Create new test parameter and categorize it--><path d="M133.791,329.038 C160.644,352.371 196.826,380.702 233,399.5 C253.093,409.942 275.271,418.921 297.317,426.531 " fill="none" id="Administrator-to-UC13 - Create new test parameter and categorize it" style="stroke:#A80036;stroke-width:1.0;"/><polygon fill="#A80036" points="302.316,428.234,295.0855,421.5467,297.5828,426.6225,292.5071,429.1198,302.316,428.234" style="stroke:#A80036;stroke-width:1.0;"/><!--MD5=[cbd33bd754610f46b4b5f82b62cdb55b]
link Administrator to UC14 - Create new parameter category--><path d="M104.4431,329.19 C124.512,381.546 166.601,471.564 233,520.5 C252.008,534.509 274.489,544.684 297.384,552.071 " fill="none" id="Administrator-to-UC14 - Create new parameter category" style="stroke:#A80036;stroke-width:1.0;"/><polygon fill="#A80036" points="302.275,553.606,294.8835,547.0971,297.5039,552.1104,292.4906,554.7308,302.275,553.606" style="stroke:#A80036;stroke-width:1.0;"/><!--MD5=[06b9fb997648cbc1e0d1efbb5ea552aa]
link LaboratoryCoordinator to UC6 - Validate Test results--><path d="M172.418,1141.997 C220.945,1148.808 282.751,1157.483 333.936,1164.666 " fill="none" id="LaboratoryCoordinator-to-UC6 - Validate Test results" style="stroke:#A80036;stroke-width:1.0;"/><polygon fill="#A80036" points="339.171,1165.401,330.8136,1160.19,334.2194,1164.7067,329.7027,1168.1125,339.171,1165.401" style="stroke:#A80036;stroke-width:1.0;"/><!--MD5=[255919a2f4172bab02925304e84b9d20]
link LaboratoryCoordinator to Check--><path d="M153.94,1089.936 C160.708,1084.454 167.221,1078.601 173,1072.5 C207.601,1035.972 191.963,1005.613 233,976.5 C256.104,960.109 284.185,949.564 311.896,942.813 " fill="none" id="LaboratoryCoordinator-to-Check" style="stroke:#A80036;stroke-width:1.0;"/><polygon fill="#A80036" points="317.064,941.596,307.3864,939.7673,312.1973,942.743,309.2216,947.554,317.064,941.596" style="stroke:#A80036;stroke-width:1.0;"/><!--MD5=[b9fea5526f2ff482584ba557bd5ed475]
link LaboratoryCoordinator to Sort--><path d="M155.624,1089.941 C179.27,1076.677 206.662,1062.942 233,1053.5 C269.888,1040.276 312.309,1031.186 348.523,1025.132 " fill="none" id="LaboratoryCoordinator-to-Sort" style="stroke:#A80036;stroke-width:1.0;"/><polygon fill="#A80036" points="353.82,1024.261,344.2901,1021.7749,348.8863,1025.0726,345.5886,1029.6688,353.82,1024.261" style="stroke:#A80036;stroke-width:1.0;"/><!--MD5=[2b0c1034aceff80c06dadf4b47d2afca]
@startuml
left to right direction

Recepetionist - -> (Register)
"UC7 - Check client test results" as (Check)
"UC1 - Register Client" as (Register)
"UC8 - Consult Client" as (Sort)

MedicalLabTechnician - -> (UC2 - Register Test)
MedicalLabTechnician - -> (UC11 - Register Samples)

ChemistryTechnologist - -> (UC3 - Record test results)
ChemistryTechnologist - -> (Check)
ChemistryTechnologist - -> (Sort)

SpecialistDoctor - -> (UC4 - Write a report about the Test result)
SpecialistDoctor - -> (Sort)
SpecialistDoctor - -> (Check)

Administrator - -> (UC5 - Change test values)
Administrator - -> (UC9 - Give the NHS a report of covid-19 data)
Administrator - -> (UC10 -Give the NHS a forecast of covid-19)
Administrator - -> (UC12 - Create new test and collecting methods)
Administrator - -> (UC13 - Create new test parameter and categorize it)
Administrator - -> (UC14 - Create new parameter category)

LaboratoryCoordinator - -> (UC6 - Validate Test results)
LaboratoryCoordinator - -> (Check)
LaboratoryCoordinator - -> (Sort)
@enduml

PlantUML version 1.2021.5beta3(Unknown compile time)
(GPL source distribution)
Java Runtime: Java(TM) SE Runtime Environment
JVM: Java HotSpot(TM) 64-Bit Server VM
Default Encoding: UTF-8
Language: en
Country: US
--></g></svg>