<?xml version="1.0" encoding="UTF-8" standalone="no"?><svg xmlns="http://www.w3.org/2000/svg" xmlns:xlink="http://www.w3.org/1999/xlink" contentScriptType="application/ecmascript" contentStyleType="text/css" height="1828px" preserveAspectRatio="none" style="width:787px;height:1828px;" version="1.1" viewBox="0 0 787 1828" width="787px" zoomAndPan="magnify"><defs><filter height="300%" id="f11ed9eg64wi3p" width="300%" x="-1" y="-1"><feGaussianBlur result="blurOut" stdDeviation="2.0"/><feColorMatrix in="blurOut" result="blurOut2" type="matrix" values="0 0 0 0 0 0 0 0 0 0 0 0 0 0 0 0 0 0 .4 0"/><feOffset dx="4.0" dy="4.0" in="blurOut2" result="blurOut3"/><feBlend in="SourceGraphic" in2="blurOut3" mode="normal"/></filter></defs><g><!--MD5=[e4550532860d4c8a99e0d95bce68a39c]
entity Recepetionist--><ellipse cx="89.5" cy="1751.5" fill="#FEFECE" filter="url(#f11ed9eg64wi3p)" rx="8" ry="8" style="stroke:#A80036;stroke-width:1.5;"/><path d="M89.5,1759.5 L89.5,1786.5 M76.5,1767.5 L102.5,1767.5 M89.5,1786.5 L76.5,1801.5 M89.5,1786.5 L102.5,1801.5 " fill="none" filter="url(#f11ed9eg64wi3p)" style="stroke:#A80036;stroke-width:1.5;"/><text fill="#000000" font-family="sans-serif" font-size="14" lengthAdjust="spacing" textLength="102" x="38.5" y="1819.9951">Recepetionist</text><ellipse cx="504.1693" cy="1782.6339" fill="#FEFECE" filter="url(#f11ed9eg64wi3p)" rx="93.6693" ry="21.1339" style="stroke:#A80036;stroke-width:1.5;"/><text fill="#000000" font-family="sans-serif" font-size="14" lengthAdjust="spacing" textLength="150" x="429.1693" y="1785.4805">UC1 - Register Client</text><ellipse cx="503.8991" cy="1417.5798" fill="#FEFECE" filter="url(#f11ed9eg64wi3p)" rx="135.8991" ry="29.5798" style="stroke:#A80036;stroke-width:1.5;"/><text fill="#000000" font-family="sans-serif" font-size="14" lengthAdjust="spacing" textLength="241" x="383.3991" y="1420.4265">UC9 - Check a client's test results</text><ellipse cx="504.1339" cy="1515.5268" fill="#FEFECE" filter="url(#f11ed9eg64wi3p)" rx="153.1339" ry="33.0268" style="stroke:#A80036;stroke-width:1.5;"/><text fill="#000000" font-family="sans-serif" font-size="14" lengthAdjust="spacing" textLength="277" x="365.6339" y="1518.3735">UC10 - Sort clients by TIF and by name</text><!--MD5=[2b63f547074bd6a145c0620c277963de]
entity MedicalLabTechnician--><ellipse cx="89.5" cy="1058.5" fill="#FEFECE" filter="url(#f11ed9eg64wi3p)" rx="8" ry="8" style="stroke:#A80036;stroke-width:1.5;"/><path d="M89.5,1066.5 L89.5,1093.5 M76.5,1074.5 L102.5,1074.5 M89.5,1093.5 L76.5,1108.5 M89.5,1093.5 L102.5,1108.5 " fill="none" filter="url(#f11ed9eg64wi3p)" style="stroke:#A80036;stroke-width:1.5;"/><text fill="#000000" font-family="sans-serif" font-size="14" lengthAdjust="spacing" textLength="157" x="11" y="1126.9951">MedicalLabTechnician</text><ellipse cx="504.0234" cy="939.6047" fill="#FEFECE" filter="url(#f11ed9eg64wi3p)" rx="156.0234" ry="33.6047" style="stroke:#A80036;stroke-width:1.5;"/><text fill="#000000" font-family="sans-serif" font-size="14" lengthAdjust="spacing" textLength="283" x="362.5234" y="942.4514">UC2 - Register test that was performed</text><ellipse cx="504.0139" cy="1039.7028" fill="#FEFECE" filter="url(#f11ed9eg64wi3p)" rx="144.0139" ry="31.2028" style="stroke:#A80036;stroke-width:1.5;"/><text fill="#000000" font-family="sans-serif" font-size="14" lengthAdjust="spacing" textLength="258" x="375.0139" y="1042.5495">UC3 - Identify sample using barcode</text><ellipse cx="503.7683" cy="1138.3537" fill="#FEFECE" filter="url(#f11ed9eg64wi3p)" rx="149.7683" ry="32.3537" style="stroke:#A80036;stroke-width:1.5;"/><text fill="#000000" font-family="sans-serif" font-size="14" lengthAdjust="spacing" textLength="270" x="368.7683" y="1141.2003">UC14 - Register test to be performed</text><ellipse cx="504.2488" cy="1241.6498" fill="#FEFECE" filter="url(#f11ed9eg64wi3p)" rx="163.7488" ry="35.1498" style="stroke:#A80036;stroke-width:1.5;"/><text fill="#000000" font-family="sans-serif" font-size="14" lengthAdjust="spacing" textLength="299" x="354.7488" y="1244.4964">UC15 - Record samples collected in a test</text><!--MD5=[b9f22e1f914de05b600b494d477eb3bb]
entity ChemistryTechnologist--><ellipse cx="89.5" cy="1484.5" fill="#FEFECE" filter="url(#f11ed9eg64wi3p)" rx="8" ry="8" style="stroke:#A80036;stroke-width:1.5;"/><path d="M89.5,1492.5 L89.5,1519.5 M76.5,1500.5 L102.5,1500.5 M89.5,1519.5 L76.5,1534.5 M89.5,1519.5 L102.5,1534.5 " fill="none" filter="url(#f11ed9eg64wi3p)" style="stroke:#A80036;stroke-width:1.5;"/><text fill="#000000" font-family="sans-serif" font-size="14" lengthAdjust="spacing" textLength="167" x="6" y="1552.9951">ChemistryTechnologist</text><ellipse cx="503.8679" cy="1607.6736" fill="#FEFECE" filter="url(#f11ed9eg64wi3p)" rx="106.3679" ry="23.6736" style="stroke:#A80036;stroke-width:1.5;"/><text fill="#000000" font-family="sans-serif" font-size="14" lengthAdjust="spacing" textLength="178" x="414.8679" y="1610.5203">UC4 - Record test results</text><!--MD5=[ed5cf9b98a04c736a5595d6482b9f19f]
entity SpecialistDoctor--><ellipse cx="89.5" cy="1368.5" fill="#FEFECE" filter="url(#f11ed9eg64wi3p)" rx="8" ry="8" style="stroke:#A80036;stroke-width:1.5;"/><path d="M89.5,1376.5 L89.5,1403.5 M76.5,1384.5 L102.5,1384.5 M89.5,1403.5 L76.5,1418.5 M89.5,1403.5 L102.5,1418.5 " fill="none" filter="url(#f11ed9eg64wi3p)" style="stroke:#A80036;stroke-width:1.5;"/><text fill="#000000" font-family="sans-serif" font-size="14" lengthAdjust="spacing" textLength="120" x="29.5" y="1436.9951">SpecialistDoctor</text><ellipse cx="503.9431" cy="1332.6886" fill="#FEFECE" filter="url(#f11ed9eg64wi3p)" rx="91.4431" ry="20.6886" style="stroke:#A80036;stroke-width:1.5;"/><text fill="#000000" font-family="sans-serif" font-size="14" lengthAdjust="spacing" textLength="145" x="431.4431" y="1335.5353">UC5 - Write a report</text><!--MD5=[62529e7d5259bf274c3bf3e446350d88]
entity Administrator--><ellipse cx="89.5" cy="377.5" fill="#FEFECE" filter="url(#f11ed9eg64wi3p)" rx="8" ry="8" style="stroke:#A80036;stroke-width:1.5;"/><path d="M89.5,385.5 L89.5,412.5 M76.5,393.5 L102.5,393.5 M89.5,412.5 L76.5,427.5 M89.5,412.5 L102.5,427.5 " fill="none" filter="url(#f11ed9eg64wi3p)" style="stroke:#A80036;stroke-width:1.5;"/><text fill="#000000" font-family="sans-serif" font-size="14" lengthAdjust="spacing" textLength="100" x="39.5" y="445.9951">Administrator</text><ellipse cx="504.1224" cy="36.7245" fill="#FEFECE" filter="url(#f11ed9eg64wi3p)" rx="141.6224" ry="30.7245" style="stroke:#A80036;stroke-width:1.5;"/><text fill="#000000" font-family="sans-serif" font-size="14" lengthAdjust="spacing" textLength="253" x="377.6224" y="39.5712">UC6 - Change test reference values</text><ellipse cx="503.9079" cy="127.2816" fill="#FEFECE" filter="url(#f11ed9eg64wi3p)" rx="111.9079" ry="24.7816" style="stroke:#A80036;stroke-width:1.5;"/><text fill="#000000" font-family="sans-serif" font-size="14" lengthAdjust="spacing" textLength="190" x="408.9079" y="130.1283">UC8 - Send e-mail and SMS</text><ellipse cx="503.8002" cy="225.56" fill="#FEFECE" filter="url(#f11ed9eg64wi3p)" rx="178.3002" ry="38.06" style="stroke:#A80036;stroke-width:1.5;"/><text fill="#000000" font-family="sans-serif" font-size="14" lengthAdjust="spacing" textLength="329" x="339.3002" y="228.4067">UC11 - Give the NHS a report of covid-19 data</text><ellipse cx="504.232" cy="341.6464" fill="#FEFECE" filter="url(#f11ed9eg64wi3p)" rx="201.232" ry="42.6464" style="stroke:#A80036;stroke-width:1.5;"/><text fill="#000000" font-family="sans-serif" font-size="14" lengthAdjust="spacing" textLength="376" x="316.232" y="344.4931">UC12 -Give the NHS an accurate forecast of covid-19</text><ellipse cx="504.1136" cy="475.6227" fill="#FEFECE" filter="url(#f11ed9eg64wi3p)" rx="271.1136" ry="56.6227" style="stroke:#A80036;stroke-width:1.5;"/><text fill="#000000" font-family="sans-serif" font-size="14" lengthAdjust="spacing" textLength="518" x="245.1136" y="478.4694">UC13 - Configure linear regression algorithm through a configuration file</text><ellipse cx="504.0906" cy="606.6181" fill="#FEFECE" filter="url(#f11ed9eg64wi3p)" rx="186.0906" ry="39.6181" style="stroke:#A80036;stroke-width:1.5;"/><text fill="#000000" font-family="sans-serif" font-size="14" lengthAdjust="spacing" textLength="345" x="331.5906" y="609.4648">UC16 - Specify new test and collecting methods</text><ellipse cx="503.9522" cy="715.4904" fill="#FEFECE" filter="url(#f11ed9eg64wi3p)" rx="157.9522" ry="33.9904" style="stroke:#A80036;stroke-width:1.5;"/><text fill="#000000" font-family="sans-serif" font-size="14" lengthAdjust="spacing" textLength="287" x="360.4522" y="718.3371">UC17 - Specify new parameter category</text><ellipse cx="504.2108" cy="827.3422" fill="#FEFECE" filter="url(#f11ed9eg64wi3p)" rx="202.2108" ry="42.8422" style="stroke:#A80036;stroke-width:1.5;"/><text fill="#000000" font-family="sans-serif" font-size="14" lengthAdjust="spacing" textLength="378" x="315.2108" y="830.1888">UC18 - Specify new test parameter and categorize it</text><!--MD5=[6a38910834749d432318f75987594161]
entity LaboratoryCoordinator--><ellipse cx="89.5" cy="1600.5" fill="#FEFECE" filter="url(#f11ed9eg64wi3p)" rx="8" ry="8" style="stroke:#A80036;stroke-width:1.5;"/><path d="M89.5,1608.5 L89.5,1635.5 M76.5,1616.5 L102.5,1616.5 M89.5,1635.5 L76.5,1650.5 M89.5,1635.5 L102.5,1650.5 " fill="none" filter="url(#f11ed9eg64wi3p)" style="stroke:#A80036;stroke-width:1.5;"/><text fill="#000000" font-family="sans-serif" font-size="14" lengthAdjust="spacing" textLength="165" x="7" y="1668.9951">LaboratoryCoordinator</text><ellipse cx="503.7578" cy="1696.6516" fill="#FEFECE" filter="url(#f11ed9eg64wi3p)" rx="138.7578" ry="30.1516" style="stroke:#A80036;stroke-width:1.5;"/><text fill="#000000" font-family="sans-serif" font-size="14" lengthAdjust="spacing" textLength="247" x="380.2578" y="1699.4982">UC7 - Validate the results of a test</text><!--MD5=[0b92df516d602bc8012b8d030a4fe094]
link Recepetionist to Register--><path d="M140.668,1782.5 C206.009,1782.5 321.68,1782.5 404.768,1782.5 " fill="none" id="Recepetionist-to-Register" style="stroke:#A80036;stroke-width:1.0;"/><polygon fill="#A80036" points="410.193,1782.5,401.193,1778.5,405.193,1782.5,401.193,1786.5,410.193,1782.5" style="stroke:#A80036;stroke-width:1.0;"/><!--MD5=[319293b9e8e1140a798100f6e7f5a172]
link MedicalLabTechnician to UC2 - Register test that was performed--><path d="M138.658,1048.928 C164.983,1028.749 199.07,1005.699 233,991.5 C272.777,974.854 318.098,963.48 360.099,955.732 " fill="none" id="MedicalLabTechnician-to-UC2 - Register test that was performed" style="stroke:#A80036;stroke-width:1.0;"/><polygon fill="#A80036" points="365.204,954.805,355.6337,952.479,360.2846,955.6992,357.0644,960.35,365.204,954.805" style="stroke:#A80036;stroke-width:1.0;"/><!--MD5=[1d6e9ab44b6c6ca836d470b3e06aa118]
link MedicalLabTechnician to UC3 - Identify sample using barcode--><path d="M168.088,1080.095 C225.634,1073.12 305.43,1063.448 372.697,1055.294 " fill="none" id="MedicalLabTechnician-to-UC3 - Identify sample using barcode" style="stroke:#A80036;stroke-width:1.0;"/><polygon fill="#A80036" points="377.929,1054.66,368.5123,1051.7745,372.9655,1055.2629,369.477,1059.7161,377.929,1054.66" style="stroke:#A80036;stroke-width:1.0;"/><!--MD5=[b1097d1065bf194c081b01b2007957cd]
link MedicalLabTechnician to UC14 - Register test to be performed--><path d="M168.088,1098.717 C224.042,1105.363 301.031,1114.509 367.086,1122.355 " fill="none" id="MedicalLabTechnician-to-UC14 - Register test to be performed" style="stroke:#A80036;stroke-width:1.0;"/><polygon fill="#A80036" points="372.226,1122.966,363.761,1117.9318,367.2609,1122.3759,362.8168,1125.8759,372.226,1122.966" style="stroke:#A80036;stroke-width:1.0;"/><!--MD5=[a1648e0f64d4aab78e87abeba9354ea8]
link MedicalLabTechnician to UC15 - Record samples collected in a test--><path d="M138.294,1130.201 C164.651,1150.635 198.88,1174.054 233,1188.5 C271.149,1204.652 314.438,1215.943 355.004,1223.813 " fill="none" id="MedicalLabTechnician-to-UC15 - Record samples collected in a test" style="stroke:#A80036;stroke-width:1.0;"/><polygon fill="#A80036" points="359.938,1224.756,351.8488,1219.1378,355.0269,1223.8175,350.3472,1226.9956,359.938,1224.756" style="stroke:#A80036;stroke-width:1.0;"/><!--MD5=[61299a5a2f44595c634e9dbf2acafb9e]
link ChemistryTechnologist to UC4 - Record test results--><path d="M173.306,1548.173 C192.674,1554.963 213.382,1561.549 233,1566.5 C288.223,1580.436 351.07,1590.321 402.227,1596.888 " fill="none" id="ChemistryTechnologist-to-UC4 - Record test results" style="stroke:#A80036;stroke-width:1.0;"/><polygon fill="#A80036" points="407.455,1597.553,399.0322,1592.4485,402.495,1596.9216,398.0219,1600.3844,407.455,1597.553" style="stroke:#A80036;stroke-width:1.0;"/><!--MD5=[7fa9c6f1af0f96467ae038a90665f693]
link ChemistryTechnologist to Check--><path d="M173.063,1483.997 C192.533,1477.277 213.347,1470.659 233,1465.5 C281.985,1452.642 336.88,1442.182 384.314,1434.347 " fill="none" id="ChemistryTechnologist-to-Check" style="stroke:#A80036;stroke-width:1.0;"/><polygon fill="#A80036" points="389.469,1433.501,379.9399,1431.0117,384.535,1434.3109,381.2358,1438.9061,389.469,1433.501" style="stroke:#A80036;stroke-width:1.0;"/><!--MD5=[5c2e9a92ae83e6187114c86b55acd827]
link ChemistryTechnologist to Sort--><path d="M173.479,1515.5 C222.808,1515.5 286.997,1515.5 345.602,1515.5 " fill="none" id="ChemistryTechnologist-to-Sort" style="stroke:#A80036;stroke-width:1.0;"/><polygon fill="#A80036" points="350.892,1515.5,341.892,1511.5,345.892,1515.5,341.892,1519.5,350.892,1515.5" style="stroke:#A80036;stroke-width:1.0;"/><!--MD5=[da5a25f5eca1f2b882603b18896a2f71]
link SpecialistDoctor to UC5 - Write a report--><path d="M149.626,1386.627 C175.197,1381.277 205.506,1375.228 233,1370.5 C294.916,1359.853 365.202,1350.032 418.538,1343.042 " fill="none" id="SpecialistDoctor-to-UC5 - Write a report" style="stroke:#A80036;stroke-width:1.0;"/><polygon fill="#A80036" points="423.646,1342.375,414.2031,1339.5764,418.6883,1343.0237,415.241,1347.5088,423.646,1342.375" style="stroke:#A80036;stroke-width:1.0;"/><!--MD5=[ac806513720c27c6e920053fd2c926c9]
link SpecialistDoctor to Sort--><path d="M149.553,1430.314 C174.722,1442.419 204.75,1455.534 233,1464.5 C276.672,1478.36 325.581,1488.999 369.649,1496.883 " fill="none" id="SpecialistDoctor-to-Sort" style="stroke:#A80036;stroke-width:1.0;"/><polygon fill="#A80036" points="374.722,1497.782,366.5583,1492.2726,369.7987,1496.9093,365.162,1500.1498,374.722,1497.782" style="stroke:#A80036;stroke-width:1.0;"/><!--MD5=[953b589759e628f165a0a3bb213b8a74]
link SpecialistDoctor to Check--><path d="M149.601,1402.079 C205.621,1404.523 291.86,1408.287 365.122,1411.484 " fill="none" id="SpecialistDoctor-to-Check" style="stroke:#A80036;stroke-width:1.0;"/><polygon fill="#A80036" points="370.374,1411.713,361.5574,1407.3234,365.3788,1411.4945,361.2078,1415.3158,370.374,1411.713" style="stroke:#A80036;stroke-width:1.0;"/><!--MD5=[1bdfad7afc04c1ea25d21f7ee876b0ae]
link Administrator to UC6 - Change test reference values--><path d="M96.0031,367.73 C107.716,297.92 141.934,156.08 233,84.5 C268.05,56.95 313.584,43.13 357.243,36.68 " fill="none" id="Administrator-to-UC6 - Change test reference values" style="stroke:#A80036;stroke-width:1.0;"/><polygon fill="#A80036" points="362.282,35.97,352.8111,33.2677,357.3311,36.6691,353.9297,41.1891,362.282,35.97" style="stroke:#A80036;stroke-width:1.0;"/><!--MD5=[4c61ea31707c7d482b1109476f41d783]
link Administrator to UC8 - Send e-mail and SMS--><path d="M102.5879,367.93 C121.137,313.28 162.128,217.34 233,169.5 C278.047,139.09 336.849,127.49 388.074,123.95 " fill="none" id="Administrator-to-UC8 - Send e-mail and SMS" style="stroke:#A80036;stroke-width:1.0;"/><polygon fill="#A80036" points="393.324,123.61,384.0863,120.1947,388.3343,123.9303,384.5987,128.1783,393.324,123.61" style="stroke:#A80036;stroke-width:1.0;"/><!--MD5=[e8712e66f2b38881f9da8dd848d237f4]
link Administrator to UC11 - Give the NHS a report of covid-19 data--><path d="M125.1,367.96 C151.719,339.41 190.965,302.65 233,281.5 C266.457,264.66 304.682,252.89 341.636,244.65 " fill="none" id="Administrator-to-UC11 - Give the NHS a report of covid-19 data" style="stroke:#A80036;stroke-width:1.0;"/><polygon fill="#A80036" points="346.605,243.56,336.9576,241.578,341.7208,244.6297,338.6691,249.3928,346.605,243.56" style="stroke:#A80036;stroke-width:1.0;"/><!--MD5=[1c0feb240f426f041e0d531b562021ee]
link Administrator to UC12 -Give the NHS an accurate forecast of covid-19--><path d="M139.847,400.48 C189.133,392.48 267.631,379.73 339.055,368.13 " fill="none" id="Administrator-to-UC12 -Give the NHS an accurate forecast of covid-19" style="stroke:#A80036;stroke-width:1.0;"/><polygon fill="#A80036" points="344.185,367.3,334.6597,364.7964,339.2498,368.1025,335.9437,372.6926,344.185,367.3" style="stroke:#A80036;stroke-width:1.0;"/><!--MD5=[3fb964ae2f87d0375ad7054571bbc680]
link Administrator to UC13 - Configure linear regression algorithm through a configuration file--><path d="M139.847,416.52 C176.797,422.52 230.166,431.19 284.665,440.04 " fill="none" id="Administrator-to-UC13 - Configure linear regression algorithm through a configuration file" style="stroke:#A80036;stroke-width:1.0;"/><polygon fill="#A80036" points="289.602,440.84,281.3607,435.4474,284.6668,440.0375,280.0767,443.3436,289.602,440.84" style="stroke:#A80036;stroke-width:1.0;"/><!--MD5=[2e9384953d3cb70f76e786a9350b5623]
link Administrator to UC16 - Specify new test and collecting methods--><path d="M120.709,449.24 C146.836,481.47 187.498,524.99 233,549.5 C264.156,566.28 299.812,578.13 334.777,586.48 " fill="none" id="Administrator-to-UC16 - Specify new test and collecting methods" style="stroke:#A80036;stroke-width:1.0;"/><polygon fill="#A80036" points="339.93,587.69,332.0799,581.7423,335.0618,586.5493,330.2548,589.5313,339.93,587.69" style="stroke:#A80036;stroke-width:1.0;"/><!--MD5=[3fa68a6bafdeb852bab7248f02b388ca]
link Administrator to UC17 - Specify new parameter category--><path d="M101.4504,449.4 C119.068,506.84 159.421,610.33 233,663.5 C265.03,686.65 304.579,700.26 343.434,708.09 " fill="none" id="Administrator-to-UC17 - Specify new parameter category" style="stroke:#A80036;stroke-width:1.0;"/><polygon fill="#A80036" points="348.663,709.11,340.5937,703.4632,343.7552,708.1541,339.0643,711.3156,348.663,709.11" style="stroke:#A80036;stroke-width:1.0;"/><!--MD5=[dc4d2f74c3a691232ee13f44e336fed6]
link Administrator to UC18 - Specify new test parameter and categorize it--><path d="M94.4943,449.08 C104.1019,523.82 135.48,683.17 233,766.5 C255.881,786.05 283.726,799.69 312.736,809.13 " fill="none" id="Administrator-to-UC18 - Specify new test parameter and categorize it" style="stroke:#A80036;stroke-width:1.0;"/><polygon fill="#A80036" points="317.782,810.73,310.4065,804.203,313.0146,809.2227,307.9949,811.8308,317.782,810.73" style="stroke:#A80036;stroke-width:1.0;"/><!--MD5=[4ba05da0f3e2cec9e3c0582d05d54c24]
link LaboratoryCoordinator to UC7 - Validate the results of a test--><path d="M172.49,1644.42 C233.516,1654.036 317.681,1667.298 385.804,1678.033 " fill="none" id="LaboratoryCoordinator-to-UC7 - Validate the results of a test" style="stroke:#A80036;stroke-width:1.0;"/><polygon fill="#A80036" points="391.095,1678.866,382.8275,1673.5136,386.156,1678.0876,381.582,1681.4161,391.095,1678.866" style="stroke:#A80036;stroke-width:1.0;"/><!--MD5=[255919a2f4172bab02925304e84b9d20]
link LaboratoryCoordinator to Check--><path d="M154.674,1590.88 C161.233,1585.444 167.497,1579.618 173,1573.5 C209.723,1532.677 188.304,1497.397 233,1465.5 C270.409,1438.804 317.995,1425.415 362.765,1419.095 " fill="none" id="LaboratoryCoordinator-to-Check" style="stroke:#A80036;stroke-width:1.0;"/><polygon fill="#A80036" points="367.928,1418.395,358.4724,1415.6395,362.9733,1419.0663,359.5465,1423.5671,367.928,1418.395" style="stroke:#A80036;stroke-width:1.0;"/><!--MD5=[b9fea5526f2ff482584ba557bd5ed475]
link LaboratoryCoordinator to Sort--><path d="M170.549,1590.907 C190.574,1581.896 212.266,1573.08 233,1566.5 C276.672,1552.64 325.581,1542.001 369.649,1534.117 " fill="none" id="LaboratoryCoordinator-to-Sort" style="stroke:#A80036;stroke-width:1.0;"/><polygon fill="#A80036" points="374.722,1533.218,365.162,1530.8502,369.7987,1534.0907,366.5583,1538.7274,374.722,1533.218" style="stroke:#A80036;stroke-width:1.0;"/><!--MD5=[04f6d0d8fb39c05d4c2301bd0eb2fb95]
@startuml
left to right direction

Recepetionist - -> (Register)
"UC9 - Check a client's test results" as (Check)
"UC1 - Register Client" as (Register)
"UC10 - Sort clients by TIF and by name" as (Sort)

MedicalLabTechnician - -> (UC2 - Register test that was performed)
MedicalLabTechnician - -> (UC3 - Identify sample using barcode)
MedicalLabTechnician - -> (UC14 - Register test to be performed)
MedicalLabTechnician - -> (UC15 - Record samples collected in a test)

ChemistryTechnologist - -> (UC4 - Record test results)
ChemistryTechnologist - -> (Check)
ChemistryTechnologist - -> (Sort)

SpecialistDoctor - -> (UC5 - Write a report)
SpecialistDoctor - -> (Sort)
SpecialistDoctor - -> (Check)

Administrator - -> (UC6 - Change test reference values)
Administrator - -> (UC8 - Send e-mail and SMS)
Administrator - -> (UC11 - Give the NHS a report of covid-19 data)
Administrator - -> (UC12 -Give the NHS an accurate forecast of covid-19)
Administrator - -> (UC13 - Configure linear regression algorithm through a configuration file)
Administrator - -> (UC16 - Specify new test and collecting methods)
Administrator - -> (UC17 - Specify new parameter category)
Administrator - -> (UC18 - Specify new test parameter and categorize it)

LaboratoryCoordinator - -> (UC7 - Validate the results of a test)
LaboratoryCoordinator - -> (Check)
LaboratoryCoordinator - -> (Sort)
@enduml

PlantUML version 1.2021.5beta3(Unknown compile time)
(GPL source distribution)
Java Runtime: Java(TM) SE Runtime Environment
JVM: Java HotSpot(TM) 64-Bit Server VM
Default Encoding: UTF-8
Language: en
Country: US
--></g></svg>