<?xml version="1.0" encoding="UTF-8" standalone="no"?><svg xmlns="http://www.w3.org/2000/svg" xmlns:xlink="http://www.w3.org/1999/xlink" contentScriptType="application/ecmascript" contentStyleType="text/css" height="1322px" preserveAspectRatio="none" style="width:651px;height:1322px;" version="1.1" viewBox="0 0 651 1322" width="651px" zoomAndPan="magnify"><defs><filter height="300%" id="fbl6vgjazbu7c" width="300%" x="-1" y="-1"><feGaussianBlur result="blurOut" stdDeviation="2.0"/><feColorMatrix in="blurOut" result="blurOut2" type="matrix" values="0 0 0 0 0 0 0 0 0 0 0 0 0 0 0 0 0 0 .4 0"/><feOffset dx="4.0" dy="4.0" in="blurOut2" result="blurOut3"/><feBlend in="SourceGraphic" in2="blurOut3" mode="normal"/></filter></defs><g><!--MD5=[e4550532860d4c8a99e0d95bce68a39c]
entity Recepetionist--><ellipse cx="89.5" cy="1245.5" fill="#FEFECE" filter="url(#fbl6vgjazbu7c)" rx="8" ry="8" style="stroke:#A80036;stroke-width:1.5;"/><path d="M89.5,1253.5 L89.5,1280.5 M76.5,1261.5 L102.5,1261.5 M89.5,1280.5 L76.5,1295.5 M89.5,1280.5 L102.5,1295.5 " fill="none" filter="url(#fbl6vgjazbu7c)" style="stroke:#A80036;stroke-width:1.5;"/><text fill="#000000" font-family="sans-serif" font-size="14" lengthAdjust="spacing" textLength="102" x="38.5" y="1313.9951">Recepetionist</text><ellipse cx="436.1693" cy="1276.6339" fill="#FEFECE" filter="url(#fbl6vgjazbu7c)" rx="93.6693" ry="21.1339" style="stroke:#A80036;stroke-width:1.5;"/><text fill="#000000" font-family="sans-serif" font-size="14" lengthAdjust="spacing" textLength="150" x="361.1693" y="1279.4805">UC1 - Register Client</text><ellipse cx="436.2013" cy="925.4403" fill="#FEFECE" filter="url(#fbl6vgjazbu7c)" rx="130.2013" ry="28.4403" style="stroke:#A80036;stroke-width:1.5;"/><text fill="#000000" font-family="sans-serif" font-size="14" lengthAdjust="spacing" textLength="229" x="321.7013" y="928.2869">UC7 - Check client's test results</text><ellipse cx="436.1144" cy="1115.4229" fill="#FEFECE" filter="url(#fbl6vgjazbu7c)" rx="90.1144" ry="20.4229" style="stroke:#A80036;stroke-width:1.5;"/><text fill="#000000" font-family="sans-serif" font-size="14" lengthAdjust="spacing" textLength="142" x="365.1144" y="1118.2696">UC8 - Consult Client</text><!--MD5=[2b63f547074bd6a145c0620c277963de]
entity MedicalLabTechnician--><ellipse cx="89.5" cy="653.5" fill="#FEFECE" filter="url(#fbl6vgjazbu7c)" rx="8" ry="8" style="stroke:#A80036;stroke-width:1.5;"/><path d="M89.5,661.5 L89.5,688.5 M76.5,669.5 L102.5,669.5 M89.5,688.5 L76.5,703.5 M89.5,688.5 L102.5,703.5 " fill="none" filter="url(#fbl6vgjazbu7c)" style="stroke:#A80036;stroke-width:1.5;"/><text fill="#000000" font-family="sans-serif" font-size="14" lengthAdjust="spacing" textLength="157" x="11" y="721.9951">MedicalLabTechnician</text><ellipse cx="435.9744" cy="675.3949" fill="#FEFECE" filter="url(#fbl6vgjazbu7c)" rx="87.4744" ry="19.8949" style="stroke:#A80036;stroke-width:1.5;"/><text fill="#000000" font-family="sans-serif" font-size="14" lengthAdjust="spacing" textLength="136" x="367.9744" y="678.2416">UC2 - Register test</text><ellipse cx="435.9911" cy="754.3982" fill="#FEFECE" filter="url(#fbl6vgjazbu7c)" rx="104.9911" ry="23.3982" style="stroke:#A80036;stroke-width:1.5;"/><text fill="#000000" font-family="sans-serif" font-size="14" lengthAdjust="spacing" textLength="175" x="348.4911" y="757.2449">UC11 - Register samples</text><!--MD5=[b9f22e1f914de05b600b494d477eb3bb]
entity ChemistryTechnologist--><ellipse cx="89.5" cy="890.5" fill="#FEFECE" filter="url(#fbl6vgjazbu7c)" rx="8" ry="8" style="stroke:#A80036;stroke-width:1.5;"/><path d="M89.5,898.5 L89.5,925.5 M76.5,906.5 L102.5,906.5 M89.5,925.5 L76.5,940.5 M89.5,925.5 L102.5,940.5 " fill="none" filter="url(#fbl6vgjazbu7c)" style="stroke:#A80036;stroke-width:1.5;"/><text fill="#000000" font-family="sans-serif" font-size="14" lengthAdjust="spacing" textLength="167" x="6" y="958.9951">ChemistryTechnologist</text><ellipse cx="435.8276" cy="837.2655" fill="#FEFECE" filter="url(#fbl6vgjazbu7c)" rx="106.8276" ry="23.7655" style="stroke:#A80036;stroke-width:1.5;"/><text fill="#000000" font-family="sans-serif" font-size="14" lengthAdjust="spacing" textLength="179" x="346.3276" y="840.1122">UC3 - Record test results</text><!--MD5=[ed5cf9b98a04c736a5595d6482b9f19f]
entity SpecialistDoctor--><ellipse cx="89.5" cy="1006.5" fill="#FEFECE" filter="url(#fbl6vgjazbu7c)" rx="8" ry="8" style="stroke:#A80036;stroke-width:1.5;"/><path d="M89.5,1014.5 L89.5,1041.5 M76.5,1022.5 L102.5,1022.5 M89.5,1041.5 L76.5,1056.5 M89.5,1041.5 L102.5,1056.5 " fill="none" filter="url(#fbl6vgjazbu7c)" style="stroke:#A80036;stroke-width:1.5;"/><text fill="#000000" font-family="sans-serif" font-size="14" lengthAdjust="spacing" textLength="120" x="29.5" y="1074.9951">SpecialistDoctor</text><ellipse cx="435.7652" cy="1024.553" fill="#FEFECE" filter="url(#fbl6vgjazbu7c)" rx="163.2652" ry="35.053" style="stroke:#A80036;stroke-width:1.5;"/><text fill="#000000" font-family="sans-serif" font-size="14" lengthAdjust="spacing" textLength="298" x="286.7652" y="1027.3997">UC4 - Write a report about the test result</text><!--MD5=[62529e7d5259bf274c3bf3e446350d88]
entity Administrator--><ellipse cx="89.5" cy="269.5" fill="#FEFECE" filter="url(#fbl6vgjazbu7c)" rx="8" ry="8" style="stroke:#A80036;stroke-width:1.5;"/><path d="M89.5,277.5 L89.5,304.5 M76.5,285.5 L102.5,285.5 M89.5,304.5 L76.5,319.5 M89.5,304.5 L102.5,319.5 " fill="none" filter="url(#fbl6vgjazbu7c)" style="stroke:#A80036;stroke-width:1.5;"/><text fill="#000000" font-family="sans-serif" font-size="14" lengthAdjust="spacing" textLength="100" x="39.5" y="337.9951">Administrator</text><ellipse cx="435.8679" cy="29.6736" fill="#FEFECE" filter="url(#fbl6vgjazbu7c)" rx="106.3679" ry="23.6736" style="stroke:#A80036;stroke-width:1.5;"/><text fill="#000000" font-family="sans-serif" font-size="14" lengthAdjust="spacing" textLength="178" x="346.8679" y="32.5203">UC5 - Change test values</text><ellipse cx="435.8556" cy="125.6711" fill="#FEFECE" filter="url(#fbl6vgjazbu7c)" rx="176.3556" ry="37.6711" style="stroke:#A80036;stroke-width:1.5;"/><text fill="#000000" font-family="sans-serif" font-size="14" lengthAdjust="spacing" textLength="325" x="273.3556" y="128.5178">UC9 - Give the NHS a report on Covid-19 data</text><ellipse cx="436.1897" cy="241.5379" fill="#FEFECE" filter="url(#fbl6vgjazbu7c)" rx="203.1897" ry="43.0379" style="stroke:#A80036;stroke-width:1.5;"/><text fill="#000000" font-family="sans-serif" font-size="14" lengthAdjust="spacing" textLength="380" x="246.1897" y="244.3846">UC10 -Give the NHS an accurate forecast on covid-19</text><ellipse cx="436.1671" cy="358.5334" fill="#FEFECE" filter="url(#fbl6vgjazbu7c)" rx="183.1671" ry="39.0334" style="stroke:#A80036;stroke-width:1.5;"/><text fill="#000000" font-family="sans-serif" font-size="14" lengthAdjust="spacing" textLength="339" x="266.6671" y="361.3801">UC12 - Create new test and collecting methods</text><ellipse cx="435.7535" cy="475.4507" fill="#FEFECE" filter="url(#fbl6vgjazbu7c)" rx="200.2535" ry="42.4507" style="stroke:#A80036;stroke-width:1.5;"/><text fill="#000000" font-family="sans-serif" font-size="14" lengthAdjust="spacing" textLength="374" x="248.7535" y="478.2974">UC13 - Create new test parameter and categorize it</text><ellipse cx="436.0598" cy="586.412" fill="#FEFECE" filter="url(#fbl6vgjazbu7c)" rx="155.0598" ry="33.412" style="stroke:#A80036;stroke-width:1.5;"/><text fill="#000000" font-family="sans-serif" font-size="14" lengthAdjust="spacing" textLength="281" x="295.5598" y="589.2586">UC14 - Create new parameter category</text><!--MD5=[6a38910834749d432318f75987594161]
entity LaboratoryCoordinator--><ellipse cx="89.5" cy="1122.5" fill="#FEFECE" filter="url(#fbl6vgjazbu7c)" rx="8" ry="8" style="stroke:#A80036;stroke-width:1.5;"/><path d="M89.5,1130.5 L89.5,1157.5 M76.5,1138.5 L102.5,1138.5 M89.5,1157.5 L76.5,1172.5 M89.5,1157.5 L102.5,1172.5 " fill="none" filter="url(#fbl6vgjazbu7c)" style="stroke:#A80036;stroke-width:1.5;"/><text fill="#000000" font-family="sans-serif" font-size="14" lengthAdjust="spacing" textLength="165" x="7" y="1190.9951">LaboratoryCoordinator</text><ellipse cx="436.0183" cy="1195.5037" fill="#FEFECE" filter="url(#fbl6vgjazbu7c)" rx="110.5183" ry="24.5037" style="stroke:#A80036;stroke-width:1.5;"/><text fill="#000000" font-family="sans-serif" font-size="14" lengthAdjust="spacing" textLength="187" x="342.5183" y="1198.3503">UC6 - Validate test results</text><!--MD5=[0ba5ee7700168656dc1b457c6fe9fdac]
entity Client--><ellipse cx="89.5" cy="774.5" fill="#FEFECE" filter="url(#fbl6vgjazbu7c)" rx="8" ry="8" style="stroke:#A80036;stroke-width:1.5;"/><path d="M89.5,782.5 L89.5,809.5 M76.5,790.5 L102.5,790.5 M89.5,809.5 L76.5,824.5 M89.5,809.5 L102.5,824.5 " fill="none" filter="url(#fbl6vgjazbu7c)" style="stroke:#A80036;stroke-width:1.5;"/><text fill="#000000" font-family="sans-serif" font-size="14" lengthAdjust="spacing" textLength="43" x="68" y="842.9951">Client</text><!--MD5=[0b92df516d602bc8012b8d030a4fe094]
link Recepetionist to Register--><path d="M140.593,1276.5 C191.87,1276.5 272.903,1276.5 336.985,1276.5 " fill="none" id="Recepetionist-to-Register" style="stroke:#A80036;stroke-width:1.0;"/><polygon fill="#A80036" points="342.348,1276.5,333.348,1272.5,337.348,1276.5,333.348,1280.5,342.348,1276.5" style="stroke:#A80036;stroke-width:1.0;"/><!--MD5=[3bbaf630be75e516470be71d4e6f2010]
link MedicalLabTechnician to UC2 - Register test--><path d="M168.242,682.469 C220.245,681.11 288.894,679.317 343.528,677.89 " fill="none" id="MedicalLabTechnician-to-UC2 - Register test" style="stroke:#A80036;stroke-width:1.0;"/><polygon fill="#A80036" points="348.77,677.753,339.669,673.9883,343.7717,677.883,339.877,681.9856,348.77,677.753" style="stroke:#A80036;stroke-width:1.0;"/><!--MD5=[6be0e4c864ec68b4b7c34a7c54636ced]
link MedicalLabTechnician to UC11 - Register samples--><path d="M168.153,700.311 C189.196,704.593 211.97,709.226 233,713.5 C272.106,721.448 315.472,730.251 351.967,737.657 " fill="none" id="MedicalLabTechnician-to-UC11 - Register samples" style="stroke:#A80036;stroke-width:1.0;"/><polygon fill="#A80036" points="357.301,738.739,349.2762,733.0291,352.4009,737.7447,347.6853,740.8693,357.301,738.739" style="stroke:#A80036;stroke-width:1.0;"/><!--MD5=[bbcb68c5cb5814d61036ef9eedc0d230]
link ChemistryTechnologist to UC3 - Record test results--><path d="M173.074,895.921 C192.636,890.207 213.487,884.395 233,879.5 C270.585,870.071 312.476,861.111 348.322,853.907 " fill="none" id="ChemistryTechnologist-to-UC3 - Record test results" style="stroke:#A80036;stroke-width:1.0;"/><polygon fill="#A80036" points="353.566,852.857,343.9559,850.7013,348.6633,853.8384,345.5262,858.5457,353.566,852.857" style="stroke:#A80036;stroke-width:1.0;"/><!--MD5=[7fa9c6f1af0f96467ae038a90665f693]
link ChemistryTechnologist to Check--><path d="M173.016,922.458 C211.273,922.902 257.722,923.442 300.824,923.942 " fill="none" id="ChemistryTechnologist-to-Check" style="stroke:#A80036;stroke-width:1.0;"/><polygon fill="#A80036" points="306.063,924.003,297.1093,919.9004,301.0633,923.9459,297.0179,927.8999,306.063,924.003" style="stroke:#A80036;stroke-width:1.0;"/><!--MD5=[067a1689f4ed3cfdb2ed689d1487ecb0]
link ChemistryTechnologist to Consult--><path d="M153.996,962.012 C160.754,967.503 167.249,973.372 173,979.5 C207.95,1016.738 190.956,1048.508 233,1077.5 C264.22,1099.028 304.331,1109.231 340.57,1113.802 " fill="none" id="ChemistryTechnologist-to-Consult" style="stroke:#A80036;stroke-width:1.0;"/><polygon fill="#A80036" points="345.888,1114.436,337.4258,1109.397,340.9233,1113.8431,336.4772,1117.3405,345.888,1114.436" style="stroke:#A80036;stroke-width:1.0;"/><!--MD5=[746c4fa12db09b77156713171d3fd1a5]
link SpecialistDoctor to UC4 - Write a report about the test result--><path d="M149.722,1035.265 C183.09,1034.006 226.589,1032.365 269.526,1030.744 " fill="none" id="SpecialistDoctor-to-UC4 - Write a report about the test result" style="stroke:#A80036;stroke-width:1.0;"/><polygon fill="#A80036" points="274.759,1030.547,265.6145,1026.8893,269.7626,1030.7356,265.9163,1034.8836,274.759,1030.547" style="stroke:#A80036;stroke-width:1.0;"/><!--MD5=[953b589759e628f165a0a3bb213b8a74]
link SpecialistDoctor to Check--><path d="M149.745,1007.269 C174.945,995.258 204.944,982.056 233,972.5 C264.706,961.701 300.041,952.544 332.183,945.262 " fill="none" id="SpecialistDoctor-to-Check" style="stroke:#A80036;stroke-width:1.0;"/><polygon fill="#A80036" points="337.313,944.11,327.6552,942.1795,332.4345,945.2057,329.4083,949.985,337.313,944.11" style="stroke:#A80036;stroke-width:1.0;"/><!--MD5=[3b521f650b6a40e09687e73e4d46f47e]
link SpecialistDoctor to Consult--><path d="M149.825,1055.409 C175.297,1062.771 205.478,1071.062 233,1077.5 C273.902,1087.068 319.899,1095.872 357.657,1102.591 " fill="none" id="SpecialistDoctor-to-Consult" style="stroke:#A80036;stroke-width:1.0;"/><polygon fill="#A80036" points="362.692,1103.483,354.5283,1097.9736,357.7687,1102.6103,353.132,1105.8508,362.692,1103.483" style="stroke:#A80036;stroke-width:1.0;"/><!--MD5=[8e85e918db2f4828b48320e009da78a2]
link Administrator to UC5 - Change test values--><path d="M104.1781,259.65 C123.957,207.19 165.729,117.33 233,70.5 C260.18,51.58 294.108,40.98 326.353,35.16 " fill="none" id="Administrator-to-UC5 - Change test values" style="stroke:#A80036;stroke-width:1.0;"/><polygon fill="#A80036" points="331.513,34.26,321.9621,31.8558,326.5865,35.1139,323.3284,39.7383,331.513,34.26" style="stroke:#A80036;stroke-width:1.0;"/><!--MD5=[106ed2628a9d0131249da532ad9706f4]
link Administrator to UC9 - Give the NHS a report on Covid-19 data--><path d="M129.103,259.87 C155.982,233.75 193.899,201 233,180.5 C254.488,169.23 278.504,160.11 302.269,152.76 " fill="none" id="Administrator-to-UC9 - Give the NHS a report on Covid-19 data" style="stroke:#A80036;stroke-width:1.0;"/><polygon fill="#A80036" points="307.335,151.22,297.5608,150.0096,302.551,152.6738,299.8868,157.664,307.335,151.22" style="stroke:#A80036;stroke-width:1.0;"/><!--MD5=[7843e155713fe2ae9168b2d232b728e9]
link Administrator to UC10 -Give the NHS an accurate forecast on covid-19--><path d="M139.858,292.05 C174.933,286.04 224.194,277.6 272.438,269.34 " fill="none" id="Administrator-to-UC10 -Give the NHS an accurate forecast on covid-19" style="stroke:#A80036;stroke-width:1.0;"/><polygon fill="#A80036" points="277.404,268.49,267.8585,266.0643,272.4755,269.3328,269.2071,273.9499,277.404,268.49" style="stroke:#A80036;stroke-width:1.0;"/><!--MD5=[71897472eea7fcd2d6d50e5430a58ff7]
link Administrator to UC12 - Create new test and collecting methods--><path d="M139.858,308.81 C178.429,315.3 234.153,324.685 286.815,333.552 " fill="none" id="Administrator-to-UC12 - Create new test and collecting methods" style="stroke:#A80036;stroke-width:1.0;"/><polygon fill="#A80036" points="291.902,334.408,283.6925,328.967,286.9716,333.5765,282.3621,336.8556,291.902,334.408" style="stroke:#A80036;stroke-width:1.0;"/><!--MD5=[112ffb2570b12fa0db7b911dbe8e5c03]
link Administrator to UC13 - Create new test parameter and categorize it--><path d="M132.357,341.132 C159.254,365.339 195.983,395.04 233,414.5 C253.358,425.203 275.881,434.325 298.281,441.998 " fill="none" id="Administrator-to-UC13 - Create new test parameter and categorize it" style="stroke:#A80036;stroke-width:1.0;"/><polygon fill="#A80036" points="303.058,443.613,295.813,436.9414,298.3213,442.0117,293.251,444.5201,303.058,443.613" style="stroke:#A80036;stroke-width:1.0;"/><!--MD5=[cbd33bd754610f46b4b5f82b62cdb55b]
link Administrator to UC14 - Create new parameter category--><path d="M104.1034,341.286 C123.918,394.278 165.852,485.87 233,535.5 C252.28,549.751 275.119,560.041 298.381,567.466 " fill="none" id="Administrator-to-UC14 - Create new parameter category" style="stroke:#A80036;stroke-width:1.0;"/><polygon fill="#A80036" points="303.35,569.007,295.9392,562.5201,298.5745,567.5256,293.569,570.161,303.35,569.007" style="stroke:#A80036;stroke-width:1.0;"/><!--MD5=[6fe47bebae6cd84a1a3596c600e8ea1d]
link LaboratoryCoordinator to UC6 - Validate test results--><path d="M172.142,1163.453 C220.425,1169.34 281.987,1176.845 333.395,1183.113 " fill="none" id="LaboratoryCoordinator-to-UC6 - Validate test results" style="stroke:#A80036;stroke-width:1.0;"/><polygon fill="#A80036" points="338.655,1183.754,330.2045,1178.6955,333.6917,1183.1497,329.2375,1186.6369,338.655,1183.754" style="stroke:#A80036;stroke-width:1.0;"/><!--MD5=[255919a2f4172bab02925304e84b9d20]
link LaboratoryCoordinator to Check--><path d="M155.418,1112.818 C161.764,1107.428 167.775,1101.629 173,1095.5 C212.46,1049.213 185.43,1010.403 233,972.5 C254.805,955.126 281.899,943.963 309.088,936.842 " fill="none" id="LaboratoryCoordinator-to-Check" style="stroke:#A80036;stroke-width:1.0;"/><polygon fill="#A80036" points="314.165,935.559,304.4591,933.8868,309.3175,936.7844,306.4198,941.6428,314.165,935.559" style="stroke:#A80036;stroke-width:1.0;"/><!--MD5=[b5b07ae9cb6918dedd86e520374d58ca]
link LaboratoryCoordinator to Consult--><path d="M172.142,1144.495 C225.534,1138.605 295.165,1130.925 349.345,1124.948 " fill="none" id="LaboratoryCoordinator-to-Consult" style="stroke:#A80036;stroke-width:1.0;"/><polygon fill="#A80036" points="354.539,1124.375,345.1545,1121.3865,349.5692,1124.9236,346.0322,1129.3382,354.539,1124.375" style="stroke:#A80036;stroke-width:1.0;"/><!--MD5=[6f12dbbec8aa9a325b88729a5a6689c3]
link Client to Check--><path d="M111.446,818.557 C138.563,834.94 187.721,862.898 233,879.5 C263.451,890.665 297.514,899.672 328.865,906.656 " fill="none" id="Client-to-Check" style="stroke:#A80036;stroke-width:1.0;"/><polygon fill="#A80036" points="333.872,907.76,325.9433,901.9174,328.9891,906.6843,324.2222,909.73,333.872,907.76" style="stroke:#A80036;stroke-width:1.0;"/><!--MD5=[9698532217c82e7cd885589f5e5f146c]
@startuml
left to right direction

Recepetionist - -> (Register)
"UC7 - Check client's test results" as (Check)
"UC1 - Register Client" as (Register)
"UC8 - Consult Client" as (Consult)

MedicalLabTechnician - -> (UC2 - Register test)
MedicalLabTechnician - -> (UC11 - Register samples)

ChemistryTechnologist - -> (UC3 - Record test results)
ChemistryTechnologist - -> (Check)
ChemistryTechnologist - -> (Consult)

SpecialistDoctor - -> (UC4 - Write a report about the test result)
SpecialistDoctor - -> (Check)
SpecialistDoctor - -> (Consult)

Administrator - -> (UC5 - Change test values)
Administrator - -> (UC9 - Give the NHS a report on Covid-19 data)
Administrator - -> (UC10 -Give the NHS an accurate forecast on covid-19)
Administrator - -> (UC12 - Create new test and collecting methods)
Administrator - -> (UC13 - Create new test parameter and categorize it)
Administrator - -> (UC14 - Create new parameter category)

LaboratoryCoordinator - -> (UC6 - Validate test results)
LaboratoryCoordinator - -> (Check)
LaboratoryCoordinator - -> (Consult)

Client - -> (Check)
@enduml

PlantUML version 1.2021.5beta3(Unknown compile time)
(GPL source distribution)
Java Runtime: Java(TM) SE Runtime Environment
JVM: Java HotSpot(TM) 64-Bit Server VM
Default Encoding: UTF-8
Language: en
Country: US
--></g></svg>