<?xml version="1.0" encoding="UTF-8" standalone="no"?><svg xmlns="http://www.w3.org/2000/svg" xmlns:xlink="http://www.w3.org/1999/xlink" contentScriptType="application/ecmascript" contentStyleType="text/css" height="193px" preserveAspectRatio="none" style="width:1098px;height:193px;background:#FFFFFF;" version="1.1" viewBox="0 0 1098 193" width="1098px" zoomAndPan="magnify"><defs><filter height="300%" id="f1n7idx78dv0k1" width="300%" x="-1" y="-1"><feGaussianBlur result="blurOut" stdDeviation="2.0"/><feColorMatrix in="blurOut" result="blurOut2" type="matrix" values="0 0 0 0 0 0 0 0 0 0 0 0 0 0 0 0 0 0 .4 0"/><feOffset dx="4.0" dy="4.0" in="blurOut2" result="blurOut3"/><feBlend in="SourceGraphic" in2="blurOut3" mode="normal"/></filter></defs><g><!--MD5=[02e4b9b7573f1156f41e60aa5b4e25a4]
class Company--><rect codeLine="8" fill="#FEFECE" filter="url(#f1n7idx78dv0k1)" height="52.8047" id="Company" style="stroke:#A80036;stroke-width:1.5;" width="88" x="7" y="45"/><ellipse cx="22" cy="61" fill="#ADD1B2" rx="11" ry="11" style="stroke:#A80036;stroke-width:1.0;"/><path d="M24.3438,56.6719 C23.4063,56.2344 22.8125,56.0938 21.9375,56.0938 C19.3125,56.0938 17.3125,58.1719 17.3125,60.8906 L17.3125,62.0156 C17.3125,64.5938 19.4219,66.4844 22.3125,66.4844 C23.5313,66.4844 24.6875,66.1875 25.4375,65.6406 C26.0156,65.2344 26.3438,64.7813 26.3438,64.3906 C26.3438,63.9375 25.9531,63.5469 25.4844,63.5469 C25.2656,63.5469 25.0625,63.625 24.875,63.8125 C24.4219,64.2969 24.4219,64.2969 24.2344,64.3906 C23.8125,64.6563 23.125,64.7813 22.3594,64.7813 C20.3125,64.7813 19.0156,63.6875 19.0156,61.9844 L19.0156,60.8906 C19.0156,59.1094 20.2656,57.7969 22,57.7969 C22.5781,57.7969 23.1875,57.9531 23.6563,58.2031 C24.1406,58.4844 24.3125,58.7031 24.4063,59.1094 C24.4688,59.5156 24.5,59.6406 24.6406,59.7656 C24.7813,59.9063 25.0156,60.0156 25.2344,60.0156 C25.5,60.0156 25.7656,59.875 25.9375,59.6563 C26.0469,59.5 26.0781,59.3125 26.0781,58.8906 L26.0781,57.4688 C26.0781,57.0313 26.0625,56.9063 25.9688,56.75 C25.8125,56.4844 25.5313,56.3438 25.2344,56.3438 C24.9375,56.3438 24.7344,56.4375 24.5156,56.75 L24.3438,56.6719 Z " fill="#000000"/><text fill="#000000" font-family="sans-serif" font-size="12" lengthAdjust="spacing" textLength="56" x="36" y="65.1543">Company</text><line style="stroke:#A80036;stroke-width:1.5;" x1="8" x2="94" y1="77" y2="77"/><text fill="#000000" font-family="sans-serif" font-size="11" lengthAdjust="spacing" textLength="37" x="13" y="91.2104">-name</text><!--MD5=[df38be88ccee13e832d6fafd6288a4ca]
class Test--><rect codeLine="11" fill="#FEFECE" filter="url(#f1n7idx78dv0k1)" height="78.4141" id="Test" style="stroke:#A80036;stroke-width:1.5;" width="99" x="451.5" y="101.5"/><ellipse cx="484.95" cy="117.5" fill="#ADD1B2" rx="11" ry="11" style="stroke:#A80036;stroke-width:1.0;"/><path d="M487.2938,113.1719 C486.3563,112.7344 485.7625,112.5938 484.8875,112.5938 C482.2625,112.5938 480.2625,114.6719 480.2625,117.3906 L480.2625,118.5156 C480.2625,121.0938 482.3719,122.9844 485.2625,122.9844 C486.4813,122.9844 487.6375,122.6875 488.3875,122.1406 C488.9656,121.7344 489.2938,121.2813 489.2938,120.8906 C489.2938,120.4375 488.9031,120.0469 488.4344,120.0469 C488.2156,120.0469 488.0125,120.125 487.825,120.3125 C487.3719,120.7969 487.3719,120.7969 487.1844,120.8906 C486.7625,121.1563 486.075,121.2813 485.3094,121.2813 C483.2625,121.2813 481.9656,120.1875 481.9656,118.4844 L481.9656,117.3906 C481.9656,115.6094 483.2156,114.2969 484.95,114.2969 C485.5281,114.2969 486.1375,114.4531 486.6063,114.7031 C487.0906,114.9844 487.2625,115.2031 487.3563,115.6094 C487.4188,116.0156 487.45,116.1406 487.5906,116.2656 C487.7313,116.4063 487.9656,116.5156 488.1844,116.5156 C488.45,116.5156 488.7156,116.375 488.8875,116.1563 C488.9969,116 489.0281,115.8125 489.0281,115.3906 L489.0281,113.9688 C489.0281,113.5313 489.0125,113.4063 488.9188,113.25 C488.7625,112.9844 488.4813,112.8438 488.1844,112.8438 C487.8875,112.8438 487.6844,112.9375 487.4656,113.25 L487.2938,113.1719 Z " fill="#000000"/><text fill="#000000" font-family="sans-serif" font-size="12" lengthAdjust="spacing" textLength="26" x="503.05" y="121.6543">Test</text><line style="stroke:#A80036;stroke-width:1.5;" x1="452.5" x2="549.5" y1="133.5" y2="133.5"/><text fill="#000000" font-family="sans-serif" font-size="11" lengthAdjust="spacing" textLength="87" x="457.5" y="147.7104">-validationDate</text><text fill="#000000" font-family="sans-serif" font-size="11" lengthAdjust="spacing" textLength="55" x="457.5" y="160.5151">-testType</text><text fill="#000000" font-family="sans-serif" font-size="11" lengthAdjust="spacing" textLength="61" x="457.5" y="173.3198">-testResult</text><!--MD5=[da547346deef918ea16944ba046651ef]
class Administrator--><rect codeLine="16" fill="#FEFECE" filter="url(#f1n7idx78dv0k1)" height="52.8047" id="Administrator" style="stroke:#A80036;stroke-width:1.5;" width="112" x="306" y="7"/><ellipse cx="321" cy="23" fill="#ADD1B2" rx="11" ry="11" style="stroke:#A80036;stroke-width:1.0;"/><path d="M323.3438,18.6719 C322.4063,18.2344 321.8125,18.0938 320.9375,18.0938 C318.3125,18.0938 316.3125,20.1719 316.3125,22.8906 L316.3125,24.0156 C316.3125,26.5938 318.4219,28.4844 321.3125,28.4844 C322.5313,28.4844 323.6875,28.1875 324.4375,27.6406 C325.0156,27.2344 325.3438,26.7813 325.3438,26.3906 C325.3438,25.9375 324.9531,25.5469 324.4844,25.5469 C324.2656,25.5469 324.0625,25.625 323.875,25.8125 C323.4219,26.2969 323.4219,26.2969 323.2344,26.3906 C322.8125,26.6563 322.125,26.7813 321.3594,26.7813 C319.3125,26.7813 318.0156,25.6875 318.0156,23.9844 L318.0156,22.8906 C318.0156,21.1094 319.2656,19.7969 321,19.7969 C321.5781,19.7969 322.1875,19.9531 322.6563,20.2031 C323.1406,20.4844 323.3125,20.7031 323.4063,21.1094 C323.4688,21.5156 323.5,21.6406 323.6406,21.7656 C323.7813,21.9063 324.0156,22.0156 324.2344,22.0156 C324.5,22.0156 324.7656,21.875 324.9375,21.6563 C325.0469,21.5 325.0781,21.3125 325.0781,20.8906 L325.0781,19.4688 C325.0781,19.0313 325.0625,18.9063 324.9688,18.75 C324.8125,18.4844 324.5313,18.3438 324.2344,18.3438 C323.9375,18.3438 323.7344,18.4375 323.5156,18.75 L323.3438,18.6719 Z " fill="#000000"/><text fill="#000000" font-family="sans-serif" font-size="12" lengthAdjust="spacing" textLength="80" x="335" y="27.1543">Administrator</text><line style="stroke:#A80036;stroke-width:1.5;" x1="307" x2="417" y1="39" y2="39"/><text fill="#000000" font-family="sans-serif" font-size="11" lengthAdjust="spacing" textLength="16" x="312" y="53.2104">-ID</text><!--MD5=[74783ec010d186752c4ffd5c6de5633a]
class NHSReport--><rect codeLine="20" fill="#FEFECE" filter="url(#f1n7idx78dv0k1)" height="52.8047" id="NHSReport" style="stroke:#A80036;stroke-width:1.5;" width="118" x="747" y="42"/><ellipse cx="771.45" cy="58" fill="#ADD1B2" rx="11" ry="11" style="stroke:#A80036;stroke-width:1.0;"/><path d="M773.7938,53.6719 C772.8563,53.2344 772.2625,53.0938 771.3875,53.0938 C768.7625,53.0938 766.7625,55.1719 766.7625,57.8906 L766.7625,59.0156 C766.7625,61.5938 768.8719,63.4844 771.7625,63.4844 C772.9813,63.4844 774.1375,63.1875 774.8875,62.6406 C775.4656,62.2344 775.7938,61.7813 775.7938,61.3906 C775.7938,60.9375 775.4031,60.5469 774.9344,60.5469 C774.7156,60.5469 774.5125,60.625 774.325,60.8125 C773.8719,61.2969 773.8719,61.2969 773.6844,61.3906 C773.2625,61.6563 772.575,61.7813 771.8094,61.7813 C769.7625,61.7813 768.4656,60.6875 768.4656,58.9844 L768.4656,57.8906 C768.4656,56.1094 769.7156,54.7969 771.45,54.7969 C772.0281,54.7969 772.6375,54.9531 773.1063,55.2031 C773.5906,55.4844 773.7625,55.7031 773.8563,56.1094 C773.9188,56.5156 773.95,56.6406 774.0906,56.7656 C774.2313,56.9063 774.4656,57.0156 774.6844,57.0156 C774.95,57.0156 775.2156,56.875 775.3875,56.6563 C775.4969,56.5 775.5281,56.3125 775.5281,55.8906 L775.5281,54.4688 C775.5281,54.0313 775.5125,53.9063 775.4188,53.75 C775.2625,53.4844 774.9813,53.3438 774.6844,53.3438 C774.3875,53.3438 774.1844,53.4375 773.9656,53.75 L773.7938,53.6719 Z " fill="#000000"/><text fill="#000000" font-family="sans-serif" font-size="12" lengthAdjust="spacing" textLength="65" x="787.55" y="62.1543">NHSReport</text><line style="stroke:#A80036;stroke-width:1.5;" x1="748" x2="864" y1="74" y2="74"/><text fill="#000000" font-family="sans-serif" font-size="11" lengthAdjust="spacing" textLength="106" x="753" y="88.2104">-nhsReportContent</text><!--MD5=[9c64c6fd7df3fbd5382787c5df2d256e]
class NHSReportAPI--><rect codeLine="24" fill="#FEFECE" filter="url(#f1n7idx78dv0k1)" height="40" id="NHSReportAPI" style="stroke:#A80036;stroke-width:1.5;" width="114" x="970" y="48.5"/><ellipse cx="985" cy="64.5" fill="#ADD1B2" rx="11" ry="11" style="stroke:#A80036;stroke-width:1.0;"/><path d="M987.3438,60.1719 C986.4063,59.7344 985.8125,59.5938 984.9375,59.5938 C982.3125,59.5938 980.3125,61.6719 980.3125,64.3906 L980.3125,65.5156 C980.3125,68.0938 982.4219,69.9844 985.3125,69.9844 C986.5313,69.9844 987.6875,69.6875 988.4375,69.1406 C989.0156,68.7344 989.3438,68.2813 989.3438,67.8906 C989.3438,67.4375 988.9531,67.0469 988.4844,67.0469 C988.2656,67.0469 988.0625,67.125 987.875,67.3125 C987.4219,67.7969 987.4219,67.7969 987.2344,67.8906 C986.8125,68.1563 986.125,68.2813 985.3594,68.2813 C983.3125,68.2813 982.0156,67.1875 982.0156,65.4844 L982.0156,64.3906 C982.0156,62.6094 983.2656,61.2969 985,61.2969 C985.5781,61.2969 986.1875,61.4531 986.6563,61.7031 C987.1406,61.9844 987.3125,62.2031 987.4063,62.6094 C987.4688,63.0156 987.5,63.1406 987.6406,63.2656 C987.7813,63.4063 988.0156,63.5156 988.2344,63.5156 C988.5,63.5156 988.7656,63.375 988.9375,63.1563 C989.0469,63 989.0781,62.8125 989.0781,62.3906 L989.0781,60.9688 C989.0781,60.5313 989.0625,60.4063 988.9688,60.25 C988.8125,59.9844 988.5313,59.8438 988.2344,59.8438 C987.9375,59.8438 987.7344,59.9375 987.5156,60.25 L987.3438,60.1719 Z " fill="#000000"/><text fill="#000000" font-family="sans-serif" font-size="12" lengthAdjust="spacing" textLength="82" x="999" y="68.6543">NHSReportAPI</text><line style="stroke:#A80036;stroke-width:1.5;" x1="971" x2="1083" y1="80.5" y2="80.5"/><!--MD5=[ed6624c6556d5e7b1bd23032162d20b7]
class Client--><rect codeLine="27" fill="#FEFECE" filter="url(#f1n7idx78dv0k1)" height="52.8047" id="Client" style="stroke:#A80036;stroke-width:1.5;" width="65" x="211" y="105"/><ellipse cx="226" cy="121" fill="#ADD1B2" rx="11" ry="11" style="stroke:#A80036;stroke-width:1.0;"/><path d="M228.3438,116.6719 C227.4063,116.2344 226.8125,116.0938 225.9375,116.0938 C223.3125,116.0938 221.3125,118.1719 221.3125,120.8906 L221.3125,122.0156 C221.3125,124.5938 223.4219,126.4844 226.3125,126.4844 C227.5313,126.4844 228.6875,126.1875 229.4375,125.6406 C230.0156,125.2344 230.3438,124.7813 230.3438,124.3906 C230.3438,123.9375 229.9531,123.5469 229.4844,123.5469 C229.2656,123.5469 229.0625,123.625 228.875,123.8125 C228.4219,124.2969 228.4219,124.2969 228.2344,124.3906 C227.8125,124.6563 227.125,124.7813 226.3594,124.7813 C224.3125,124.7813 223.0156,123.6875 223.0156,121.9844 L223.0156,120.8906 C223.0156,119.1094 224.2656,117.7969 226,117.7969 C226.5781,117.7969 227.1875,117.9531 227.6563,118.2031 C228.1406,118.4844 228.3125,118.7031 228.4063,119.1094 C228.4688,119.5156 228.5,119.6406 228.6406,119.7656 C228.7813,119.9063 229.0156,120.0156 229.2344,120.0156 C229.5,120.0156 229.7656,119.875 229.9375,119.6563 C230.0469,119.5 230.0781,119.3125 230.0781,118.8906 L230.0781,117.4688 C230.0781,117.0313 230.0625,116.9063 229.9688,116.75 C229.8125,116.4844 229.5313,116.3438 229.2344,116.3438 C228.9375,116.3438 228.7344,116.4375 228.5156,116.75 L228.3438,116.6719 Z " fill="#000000"/><text fill="#000000" font-family="sans-serif" font-size="12" lengthAdjust="spacing" textLength="33" x="240" y="125.1543">Client</text><line style="stroke:#A80036;stroke-width:1.5;" x1="212" x2="275" y1="137" y2="137"/><text fill="#000000" font-family="sans-serif" font-size="11" lengthAdjust="spacing" textLength="37" x="217" y="151.2104">-name</text><!--MD5=[502b51bc079239060389dab43b7d3470]
link Client to Test--><path codeLine="31" d="M276.086,132.6126 C320.012,134.1599 399.942,136.9754 451.467,138.7904 " fill="none" id="Client-Test" style="stroke:#A80036;stroke-width:1.0;"/><polygon fill="#000000" points="347.4969,125.2424,338.5609,121.9869,338.354,127.8611,347.4969,125.2424" style="stroke:#000000;stroke-width:1.0;"/><text fill="#000000" font-family="sans-serif" font-size="13" lengthAdjust="spacing" textLength="34" x="351.5" y="129.5669">owns</text><text fill="#000000" font-family="sans-serif" font-size="13" lengthAdjust="spacing" textLength="8" x="284.0892" y="146.5994">1</text><text fill="#000000" font-family="sans-serif" font-size="13" lengthAdjust="spacing" textLength="8" x="435.6043" y="151.6871">1</text><!--MD5=[6eee883fdf517d3604e8bd0f2058e9aa]
link Company to Client--><path codeLine="32" d="M95.0856,87.3323 C104.8816,90.7961 115.269,94.3623 125,97.5 C153.902,106.8192 187.179,116.336 210.924,122.9219 " fill="none" id="Company-Client" style="stroke:#A80036;stroke-width:1.0;"/><polygon fill="#000000" points="134.7795,90.5348,126.9964,85.0691,125.2702,90.6877,134.7795,90.5348" style="stroke:#000000;stroke-width:1.0;"/><text fill="#000000" font-family="sans-serif" font-size="13" lengthAdjust="spacing" textLength="41" x="139" y="93.5669">knows</text><text fill="#000000" font-family="sans-serif" font-size="13" lengthAdjust="spacing" textLength="8" x="103.0498" y="103.2908">1</text><text fill="#000000" font-family="sans-serif" font-size="13" lengthAdjust="spacing" textLength="7" x="196.0324" y="134.7888">*</text><!--MD5=[eaea43e34e45c5b9d20b595fc78f1f20]
link Company to Administrator--><path codeLine="33" d="M95.2905,66.176 C150.351,59.405 245.5,47.704 305.743,40.295 " fill="none" id="Company-Administrator" style="stroke:#A80036;stroke-width:1.0;"/><polygon fill="#000000" points="143.9626,47.4561,134.6264,45.6432,135.3439,51.4771,143.9626,47.4561" style="stroke:#000000;stroke-width:1.0;"/><text fill="#000000" font-family="sans-serif" font-size="13" lengthAdjust="spacing" textLength="23" x="148" y="52.5669">has</text><text fill="#000000" font-family="sans-serif" font-size="13" lengthAdjust="spacing" textLength="8" x="102.9868" y="78.6158">1</text><text fill="#000000" font-family="sans-serif" font-size="13" lengthAdjust="spacing" textLength="8" x="290.0226" y="54.2145">1</text><!--MD5=[8ab086dc2d99d892dc6fd5d865ad098e]
link Administrator to NHSReport--><path codeLine="34" d="M418.086,37.862 C501.975,44.505 661.026,57.099 746.757,63.888 " fill="none" id="Administrator-NHSReport" style="stroke:#A80036;stroke-width:1.0;"/><polygon fill="#000000" points="457.9844,32.4611,449.1995,28.8173,448.7355,34.6768,457.9844,32.4611" style="stroke:#000000;stroke-width:1.0;"/><text fill="#000000" font-family="sans-serif" font-size="13" lengthAdjust="spacing" textLength="91" x="462" y="36.5669">wants to send</text><text fill="#000000" font-family="sans-serif" font-size="13" lengthAdjust="spacing" textLength="8" x="426.1601" y="51.5449">1</text><text fill="#000000" font-family="sans-serif" font-size="13" lengthAdjust="spacing" textLength="7" x="732.1102" y="76.3269">*</text><!--MD5=[cbdc139709b50dbcce8075ec01de81a0]
link NHSReport to NHSReportAPI--><path codeLine="35" d="M865.113,68.5 C897.553,68.5 937.775,68.5 969.886,68.5 " fill="none" id="NHSReport-NHSReportAPI" style="stroke:#A80036;stroke-width:1.0;"/><polygon fill="#000000" points="905,60.0664,895.9549,57.1275,895.9549,63.0053,905,60.0664" style="stroke:#000000;stroke-width:1.0;"/><text fill="#000000" font-family="sans-serif" font-size="13" lengthAdjust="spacing" textLength="30" x="909" y="64.5669">uses</text><text fill="#000000" font-family="sans-serif" font-size="13" lengthAdjust="spacing" textLength="7" x="873.1353" y="81.5489">*</text><text fill="#000000" font-family="sans-serif" font-size="13" lengthAdjust="spacing" textLength="8" x="954.0558" y="81.5363">1</text><!--MD5=[da61729d7618e67e49ddfa5122106f2f]
link Test to NHSReport--><path codeLine="36" d="M550.682,128.932 C604.13,116.2314 689.905,95.8492 746.849,82.3181 " fill="none" id="Test-NHSReport" style="stroke:#A80036;stroke-width:1.0;"/><polygon fill="#000000" points="593.8645,79.9105,584.3851,79.1423,585.7439,84.8609,593.8645,79.9105" style="stroke:#000000;stroke-width:1.0;"/><text fill="#000000" font-family="sans-serif" font-size="13" lengthAdjust="spacing" textLength="118" x="598" y="85.5669">are used to create</text><text fill="#000000" font-family="sans-serif" font-size="13" lengthAdjust="spacing" textLength="7" x="558.4931" y="140.3808">*</text><text fill="#000000" font-family="sans-serif" font-size="13" lengthAdjust="spacing" textLength="8" x="731.1525" y="97.0031">1</text><!--MD5=[eb98b273dfc793e6b5c91fd6f0b07b6c]
@startuml
hide methods
left to right direction
skinparam classAttributeIconSize 0




class Company{
  -name
}
class Test{
  -validationDate
  -testType
  -testResult
}
class Administrator{
  -ID
}

class NHSReport {
  -nhsReportContent
}

class NHSReportAPI {
}

class Client{
-name
}

Client "1" - -  "1" Test : owns >
Company "1" - - "*" Client : knows >
Company "1" - - "1" Administrator : has >
Administrator "1" - - "*" NHSReport : wants to send >
NHSReport "*" - - "1" NHSReportAPI : uses >
Test "*" - - "1" NHSReport : are used to create >
@enduml

PlantUML version 1.2021.7(Sun May 23 12:40:07 UTC 2021)
(GPL source distribution)
Java Runtime: Java(TM) SE Runtime Environment
JVM: Java HotSpot(TM) 64-Bit Server VM
Default Encoding: UTF-8
Language: en
Country: US
--></g></svg>