<?xml version="1.0" encoding="UTF-8" standalone="no"?><svg xmlns="http://www.w3.org/2000/svg" xmlns:xlink="http://www.w3.org/1999/xlink" contentScriptType="application/ecmascript" contentStyleType="text/css" height="389px" preserveAspectRatio="none" style="width:765px;height:389px;background:#FFFFFF;" version="1.1" viewBox="0 0 765 389" width="765px" zoomAndPan="magnify"><defs><filter height="300%" id="f6s2wqwebjhg6" width="300%" x="-1" y="-1"><feGaussianBlur result="blurOut" stdDeviation="2.0"/><feColorMatrix in="blurOut" result="blurOut2" type="matrix" values="0 0 0 0 0 0 0 0 0 0 0 0 0 0 0 0 0 0 .4 0"/><feOffset dx="4.0" dy="4.0" in="blurOut2" result="blurOut3"/><feBlend in="SourceGraphic" in2="blurOut3" mode="normal"/></filter></defs><g><!--MD5=[ef340af6512c03d5eeac92509be9c66b]
class LinearRegression--><rect codeLine="3" fill="#FEFECE" filter="url(#f6s2wqwebjhg6)" height="368.1172" id="LinearRegression" style="stroke:#A80036;stroke-width:1.5;" width="262" x="7" y="7"/><ellipse cx="81.75" cy="23" fill="#ADD1B2" rx="11" ry="11" style="stroke:#A80036;stroke-width:1.0;"/><path d="M84.0938,18.6719 C83.1563,18.2344 82.5625,18.0938 81.6875,18.0938 C79.0625,18.0938 77.0625,20.1719 77.0625,22.8906 L77.0625,24.0156 C77.0625,26.5938 79.1719,28.4844 82.0625,28.4844 C83.2813,28.4844 84.4375,28.1875 85.1875,27.6406 C85.7656,27.2344 86.0938,26.7813 86.0938,26.3906 C86.0938,25.9375 85.7031,25.5469 85.2344,25.5469 C85.0156,25.5469 84.8125,25.625 84.625,25.8125 C84.1719,26.2969 84.1719,26.2969 83.9844,26.3906 C83.5625,26.6563 82.875,26.7813 82.1094,26.7813 C80.0625,26.7813 78.7656,25.6875 78.7656,23.9844 L78.7656,22.8906 C78.7656,21.1094 80.0156,19.7969 81.75,19.7969 C82.3281,19.7969 82.9375,19.9531 83.4063,20.2031 C83.8906,20.4844 84.0625,20.7031 84.1563,21.1094 C84.2188,21.5156 84.25,21.6406 84.3906,21.7656 C84.5313,21.9063 84.7656,22.0156 84.9844,22.0156 C85.25,22.0156 85.5156,21.875 85.6875,21.6563 C85.7969,21.5 85.8281,21.3125 85.8281,20.8906 L85.8281,19.4688 C85.8281,19.0313 85.8125,18.9063 85.7188,18.75 C85.5625,18.4844 85.2813,18.3438 84.9844,18.3438 C84.6875,18.3438 84.4844,18.4375 84.2656,18.75 L84.0938,18.6719 Z " fill="#000000"/><text fill="#000000" font-family="sans-serif" font-size="12" lengthAdjust="spacing" textLength="104" x="102.25" y="27.1543">LinearRegression</text><line style="stroke:#A80036;stroke-width:1.5;" x1="8" x2="268" y1="39" y2="39"/><text fill="#000000" font-family="sans-serif" font-size="11" lengthAdjust="spacing" textLength="41" x="13" y="53.2104">-arrayX</text><text fill="#000000" font-family="sans-serif" font-size="11" lengthAdjust="spacing" textLength="40" x="13" y="66.0151">-arrayY</text><line style="stroke:#A80036;stroke-width:1.5;" x1="8" x2="268" y1="72.6094" y2="72.6094"/><text fill="#000000" font-family="sans-serif" font-size="11" lengthAdjust="spacing" textLength="68" x="13" y="86.8198">+intercept()</text><text fill="#000000" font-family="sans-serif" font-size="11" lengthAdjust="spacing" textLength="48" x="13" y="99.6245">+slope()</text><text fill="#000000" font-family="sans-serif" font-size="11" lengthAdjust="spacing" textLength="28" x="13" y="112.4292">+r2()</text><text fill="#000000" font-family="sans-serif" font-size="11" lengthAdjust="spacing" textLength="102" x="13" y="125.2339">+interceptStdErr()</text><text fill="#000000" font-family="sans-serif" font-size="11" lengthAdjust="spacing" textLength="82" x="13" y="138.0386">+slopeStdErr()</text><text fill="#000000" font-family="sans-serif" font-size="11" lengthAdjust="spacing" textLength="63" x="13" y="150.8433">+predict(x)</text><text fill="#000000" font-family="sans-serif" font-size="11" lengthAdjust="spacing" textLength="61" x="13" y="163.6479">+toString()</text><text fill="#000000" font-family="sans-serif" font-size="11" lengthAdjust="spacing" textLength="78" x="13" y="176.4526">+r2Adjusted()</text><text fill="#000000" font-family="sans-serif" font-size="11" lengthAdjust="spacing" textLength="21" x="13" y="189.2573">+r()</text><text fill="#000000" font-family="sans-serif" font-size="11" lengthAdjust="spacing" textLength="250" x="13" y="202.062">+testCalculationforAparameter(aParameter)</text><text fill="#000000" font-family="sans-serif" font-size="11" lengthAdjust="spacing" textLength="250" x="13" y="214.8667">+testCalculationforBparameter(bParameter)</text><text fill="#000000" font-family="sans-serif" font-size="11" lengthAdjust="spacing" textLength="211" x="13" y="227.6714">+getTStudenFromTable(significance)</text><text fill="#000000" font-family="sans-serif" font-size="11" lengthAdjust="spacing" textLength="119" x="13" y="240.4761">+calculateAnovaSR()</text><text fill="#000000" font-family="sans-serif" font-size="11" lengthAdjust="spacing" textLength="119" x="13" y="253.2808">+calculateAnovaSE()</text><text fill="#000000" font-family="sans-serif" font-size="11" lengthAdjust="spacing" textLength="119" x="13" y="266.0854">+calculateAnovaST()</text><text fill="#000000" font-family="sans-serif" font-size="11" lengthAdjust="spacing" textLength="128" x="13" y="278.8901">+calculateAnovaMSR()</text><text fill="#000000" font-family="sans-serif" font-size="11" lengthAdjust="spacing" textLength="128" x="13" y="291.6948">+calculateAnovaMSE()</text><text fill="#000000" font-family="sans-serif" font-size="11" lengthAdjust="spacing" textLength="128" x="13" y="304.4995">+calculateAnovaMST()</text><text fill="#000000" font-family="sans-serif" font-size="11" lengthAdjust="spacing" textLength="99" x="13" y="317.3042">+calculateTestF()</text><text fill="#000000" font-family="sans-serif" font-size="11" lengthAdjust="spacing" textLength="216" x="13" y="330.1089">+getFSnedcorFromTable(significance)</text><text fill="#000000" font-family="sans-serif" font-size="11" lengthAdjust="spacing" textLength="99" x="13" y="342.9136">+getResidualDF()</text><text fill="#000000" font-family="sans-serif" font-size="11" lengthAdjust="spacing" textLength="123" x="13" y="355.7183">+delta(significance,x)</text><text fill="#000000" font-family="sans-serif" font-size="11" lengthAdjust="spacing" textLength="114" x="13" y="368.5229">+getRegressionDF()</text><!--MD5=[6f57bde7dde74de5002c105391146556]
class MultiLinearRegression--><rect codeLine="31" fill="#FEFECE" filter="url(#f6s2wqwebjhg6)" height="329.7031" id="MultiLinearRegression" style="stroke:#A80036;stroke-width:1.5;" width="447" x="304.5" y="26"/><ellipse cx="458.25" cy="42" fill="#ADD1B2" rx="11" ry="11" style="stroke:#A80036;stroke-width:1.0;"/><path d="M460.5938,37.6719 C459.6563,37.2344 459.0625,37.0938 458.1875,37.0938 C455.5625,37.0938 453.5625,39.1719 453.5625,41.8906 L453.5625,43.0156 C453.5625,45.5938 455.6719,47.4844 458.5625,47.4844 C459.7813,47.4844 460.9375,47.1875 461.6875,46.6406 C462.2656,46.2344 462.5938,45.7813 462.5938,45.3906 C462.5938,44.9375 462.2031,44.5469 461.7344,44.5469 C461.5156,44.5469 461.3125,44.625 461.125,44.8125 C460.6719,45.2969 460.6719,45.2969 460.4844,45.3906 C460.0625,45.6563 459.375,45.7813 458.6094,45.7813 C456.5625,45.7813 455.2656,44.6875 455.2656,42.9844 L455.2656,41.8906 C455.2656,40.1094 456.5156,38.7969 458.25,38.7969 C458.8281,38.7969 459.4375,38.9531 459.9063,39.2031 C460.3906,39.4844 460.5625,39.7031 460.6563,40.1094 C460.7188,40.5156 460.75,40.6406 460.8906,40.7656 C461.0313,40.9063 461.2656,41.0156 461.4844,41.0156 C461.75,41.0156 462.0156,40.875 462.1875,40.6563 C462.2969,40.5 462.3281,40.3125 462.3281,39.8906 L462.3281,38.4688 C462.3281,38.0313 462.3125,37.9063 462.2188,37.75 C462.0625,37.4844 461.7813,37.3438 461.4844,37.3438 C461.1875,37.3438 460.9844,37.4375 460.7656,37.75 L460.5938,37.6719 Z " fill="#000000"/><text fill="#000000" font-family="sans-serif" font-size="12" lengthAdjust="spacing" textLength="131" x="478.75" y="46.1543">MultiLinearRegression</text><line style="stroke:#A80036;stroke-width:1.5;" x1="305.5" x2="750.5" y1="58" y2="58"/><text fill="#000000" font-family="sans-serif" font-size="11" lengthAdjust="spacing" textLength="48" x="310.5" y="72.2104">-arrayX1</text><text fill="#000000" font-family="sans-serif" font-size="11" lengthAdjust="spacing" textLength="48" x="310.5" y="85.0151">-arrayX2</text><text fill="#000000" font-family="sans-serif" font-size="11" lengthAdjust="spacing" textLength="40" x="310.5" y="97.8198">-arrayY</text><text fill="#000000" font-family="sans-serif" font-size="11" lengthAdjust="spacing" textLength="13" x="310.5" y="110.6245">+r</text><line style="stroke:#A80036;stroke-width:1.5;" x1="305.5" x2="750.5" y1="117.2188" y2="117.2188"/><text fill="#000000" font-family="sans-serif" font-size="11" lengthAdjust="spacing" textLength="34" x="310.5" y="131.4292">+sqr()</text><text fill="#000000" font-family="sans-serif" font-size="11" lengthAdjust="spacing" textLength="38" x="310.5" y="144.2339">+sqe()</text><text fill="#000000" font-family="sans-serif" font-size="11" lengthAdjust="spacing" textLength="34" x="310.5" y="157.0386">+sqt()</text><text fill="#000000" font-family="sans-serif" font-size="11" lengthAdjust="spacing" textLength="191" x="310.5" y="169.8433">+regressionDegreesOfFreedom()</text><text fill="#000000" font-family="sans-serif" font-size="11" lengthAdjust="spacing" textLength="158" x="310.5" y="182.6479">+errorDegreesOfFreedom()</text><text fill="#000000" font-family="sans-serif" font-size="11" lengthAdjust="spacing" textLength="156" x="310.5" y="195.4526">+totalDegreesOfFreedom()</text><text fill="#000000" font-family="sans-serif" font-size="11" lengthAdjust="spacing" textLength="39" x="310.5" y="208.2573">+mqr()</text><text fill="#000000" font-family="sans-serif" font-size="11" lengthAdjust="spacing" textLength="43" x="310.5" y="221.062">+mqe()</text><text fill="#000000" font-family="sans-serif" font-size="11" lengthAdjust="spacing" textLength="90" x="310.5" y="233.8667">+testStatisticF()</text><text fill="#000000" font-family="sans-serif" font-size="11" lengthAdjust="spacing" textLength="213" x="310.5" y="246.6714">+getFSnedcorFromTable(signficance)</text><text fill="#000000" font-family="sans-serif" font-size="11" lengthAdjust="spacing" textLength="28" x="310.5" y="259.4761">+r2()</text><text fill="#000000" font-family="sans-serif" font-size="11" lengthAdjust="spacing" textLength="78" x="310.5" y="272.2808">+r2Adjusted()</text><text fill="#000000" font-family="sans-serif" font-size="11" lengthAdjust="spacing" textLength="213" x="310.5" y="285.0854">+getTstudentFromTable(significance)</text><text fill="#000000" font-family="sans-serif" font-size="11" lengthAdjust="spacing" textLength="87" x="310.5" y="297.8901">+predict(x1,x2)</text><text fill="#000000" font-family="sans-serif" font-size="11" lengthAdjust="spacing" textLength="435" x="310.5" y="310.6948">+expectedValueTestConfidenceIntervalAuxiliaryCalculus(significance,x1,x2)</text><text fill="#000000" font-family="sans-serif" font-size="11" lengthAdjust="spacing" textLength="94" x="310.5" y="323.4995">+hypothesisB0()</text><text fill="#000000" font-family="sans-serif" font-size="11" lengthAdjust="spacing" textLength="94" x="310.5" y="336.3042">+hypothesisB1()</text><text fill="#000000" font-family="sans-serif" font-size="11" lengthAdjust="spacing" textLength="94" x="310.5" y="349.1089">+hypothesisB2()</text><!--MD5=[32deff468e33e501a1a3b5ccc89f6c7b]
@startuml
skinparam classAttributeIconSize 0
'left to right direction
class LinearRegression{
-arrayX
-arrayY
+intercept()
+slope()
+r2()
+interceptStdErr()
+slopeStdErr()
+predict(x)
+toString()
+r2Adjusted()
+r()
+testCalculationforAparameter(aParameter)
+testCalculationforBparameter(bParameter)
+getTStudenFromTable(significance)
+calculateAnovaSR()
+calculateAnovaSE()
+calculateAnovaST()
+calculateAnovaMSR()
+calculateAnovaMSE()
+calculateAnovaMST()
+calculateTestF()
+getFSnedcorFromTable(significance)
+getResidualDF()
+delta(significance,x)
+getRegressionDF()
}

class MultiLinearRegression{
-arrayX1
-arrayX2
-arrayY
+sqr()
+sqe()
+sqt()
+regressionDegreesOfFreedom()
+errorDegreesOfFreedom()
+totalDegreesOfFreedom()
+mqr()
+mqe()
+testStatisticF()
+getFSnedcorFromTable(signficance)
+r2()
+r2Adjusted()
+getTstudentFromTable(significance)
+predict(x1,x2)
+expectedValueTestConfidenceIntervalAuxiliaryCalculus(significance,x1,x2)
+hypothesisB0()
+hypothesisB1()
+hypothesisB2()
+r
}
@enduml

@startuml
skinparam classAttributeIconSize 0
class LinearRegression{
-arrayX
-arrayY
+intercept()
+slope()
+r2()
+interceptStdErr()
+slopeStdErr()
+predict(x)
+toString()
+r2Adjusted()
+r()
+testCalculationforAparameter(aParameter)
+testCalculationforBparameter(bParameter)
+getTStudenFromTable(significance)
+calculateAnovaSR()
+calculateAnovaSE()
+calculateAnovaST()
+calculateAnovaMSR()
+calculateAnovaMSE()
+calculateAnovaMST()
+calculateTestF()
+getFSnedcorFromTable(significance)
+getResidualDF()
+delta(significance,x)
+getRegressionDF()
}

class MultiLinearRegression{
-arrayX1
-arrayX2
-arrayY
+sqr()
+sqe()
+sqt()
+regressionDegreesOfFreedom()
+errorDegreesOfFreedom()
+totalDegreesOfFreedom()
+mqr()
+mqe()
+testStatisticF()
+getFSnedcorFromTable(signficance)
+r2()
+r2Adjusted()
+getTstudentFromTable(significance)
+predict(x1,x2)
+expectedValueTestConfidenceIntervalAuxiliaryCalculus(significance,x1,x2)
+hypothesisB0()
+hypothesisB1()
+hypothesisB2()
+r
}
@enduml

PlantUML version 1.2021.7(Sun May 23 12:40:07 UTC 2021)
(GPL source distribution)
Java Runtime: Java(TM) SE Runtime Environment
JVM: Java HotSpot(TM) 64-Bit Server VM
Default Encoding: UTF-8
Language: en
Country: US
--></g></svg>