<?xml version="1.0" encoding="UTF-8" standalone="no"?><svg xmlns="http://www.w3.org/2000/svg" xmlns:xlink="http://www.w3.org/1999/xlink" contentScriptType="application/ecmascript" contentStyleType="text/css" height="779px" preserveAspectRatio="none" style="width:2005px;height:779px;background:#FFFFFF;" version="1.1" viewBox="0 0 2005 779" width="2005px" zoomAndPan="magnify"><defs><filter height="300%" id="fe8bim2nncl22" width="300%" x="-1" y="-1"><feGaussianBlur result="blurOut" stdDeviation="2.0"/><feColorMatrix in="blurOut" result="blurOut2" type="matrix" values="0 0 0 0 0 0 0 0 0 0 0 0 0 0 0 0 0 0 .4 0"/><feOffset dx="4.0" dy="4.0" in="blurOut2" result="blurOut3"/><feBlend in="SourceGraphic" in2="blurOut3" mode="normal"/></filter></defs><g><!--MD5=[a2ec65a4846cfc4ac41d6a5f4cdce235]
class GenerateSimpleLinearNHSReportController--><rect codeLine="4" fill="#FEFECE" filter="url(#fe8bim2nncl22)" height="48" id="GenerateSimpleLinearNHSReportController" style="stroke:#A80036;stroke-width:1.5;" width="289" x="636" y="7"/><ellipse cx="651" cy="23" fill="#ADD1B2" rx="11" ry="11" style="stroke:#A80036;stroke-width:1.0;"/><path d="M653.3438,18.6719 C652.4063,18.2344 651.8125,18.0938 650.9375,18.0938 C648.3125,18.0938 646.3125,20.1719 646.3125,22.8906 L646.3125,24.0156 C646.3125,26.5938 648.4219,28.4844 651.3125,28.4844 C652.5313,28.4844 653.6875,28.1875 654.4375,27.6406 C655.0156,27.2344 655.3438,26.7813 655.3438,26.3906 C655.3438,25.9375 654.9531,25.5469 654.4844,25.5469 C654.2656,25.5469 654.0625,25.625 653.875,25.8125 C653.4219,26.2969 653.4219,26.2969 653.2344,26.3906 C652.8125,26.6563 652.125,26.7813 651.3594,26.7813 C649.3125,26.7813 648.0156,25.6875 648.0156,23.9844 L648.0156,22.8906 C648.0156,21.1094 649.2656,19.7969 651,19.7969 C651.5781,19.7969 652.1875,19.9531 652.6563,20.2031 C653.1406,20.4844 653.3125,20.7031 653.4063,21.1094 C653.4688,21.5156 653.5,21.6406 653.6406,21.7656 C653.7813,21.9063 654.0156,22.0156 654.2344,22.0156 C654.5,22.0156 654.7656,21.875 654.9375,21.6563 C655.0469,21.5 655.0781,21.3125 655.0781,20.8906 L655.0781,19.4688 C655.0781,19.0313 655.0625,18.9063 654.9688,18.75 C654.8125,18.4844 654.5313,18.3438 654.2344,18.3438 C653.9375,18.3438 653.7344,18.4375 653.5156,18.75 L653.3438,18.6719 Z " fill="#000000"/><text fill="#000000" font-family="sans-serif" font-size="12" lengthAdjust="spacing" textLength="257" x="665" y="27.1543">GenerateSimpleLinearNHSReportController</text><line style="stroke:#A80036;stroke-width:1.5;" x1="637" x2="924" y1="39" y2="39"/><line style="stroke:#A80036;stroke-width:1.5;" x1="637" x2="924" y1="47" y2="47"/><!--MD5=[d3ebdabf7d03338f16ca5ce5e7de4476]
class GenerateMultiLinearNHSReportController--><rect codeLine="6" fill="#FEFECE" filter="url(#fe8bim2nncl22)" height="48" id="GenerateMultiLinearNHSReportController" style="stroke:#A80036;stroke-width:1.5;" width="275" x="304" y="7"/><ellipse cx="319" cy="23" fill="#ADD1B2" rx="11" ry="11" style="stroke:#A80036;stroke-width:1.0;"/><path d="M321.3438,18.6719 C320.4063,18.2344 319.8125,18.0938 318.9375,18.0938 C316.3125,18.0938 314.3125,20.1719 314.3125,22.8906 L314.3125,24.0156 C314.3125,26.5938 316.4219,28.4844 319.3125,28.4844 C320.5313,28.4844 321.6875,28.1875 322.4375,27.6406 C323.0156,27.2344 323.3438,26.7813 323.3438,26.3906 C323.3438,25.9375 322.9531,25.5469 322.4844,25.5469 C322.2656,25.5469 322.0625,25.625 321.875,25.8125 C321.4219,26.2969 321.4219,26.2969 321.2344,26.3906 C320.8125,26.6563 320.125,26.7813 319.3594,26.7813 C317.3125,26.7813 316.0156,25.6875 316.0156,23.9844 L316.0156,22.8906 C316.0156,21.1094 317.2656,19.7969 319,19.7969 C319.5781,19.7969 320.1875,19.9531 320.6563,20.2031 C321.1406,20.4844 321.3125,20.7031 321.4063,21.1094 C321.4688,21.5156 321.5,21.6406 321.6406,21.7656 C321.7813,21.9063 322.0156,22.0156 322.2344,22.0156 C322.5,22.0156 322.7656,21.875 322.9375,21.6563 C323.0469,21.5 323.0781,21.3125 323.0781,20.8906 L323.0781,19.4688 C323.0781,19.0313 323.0625,18.9063 322.9688,18.75 C322.8125,18.4844 322.5313,18.3438 322.2344,18.3438 C321.9375,18.3438 321.7344,18.4375 321.5156,18.75 L321.3438,18.6719 Z " fill="#000000"/><text fill="#000000" font-family="sans-serif" font-size="12" lengthAdjust="spacing" textLength="243" x="333" y="27.1543">GenerateMultiLinearNHSReportController</text><line style="stroke:#A80036;stroke-width:1.5;" x1="305" x2="578" y1="39" y2="39"/><line style="stroke:#A80036;stroke-width:1.5;" x1="305" x2="578" y1="47" y2="47"/><!--MD5=[02e4b9b7573f1156f41e60aa5b4e25a4]
class Company--><rect codeLine="9" fill="#FEFECE" filter="url(#fe8bim2nncl22)" height="150.4375" id="Company" style="stroke:#A80036;stroke-width:1.5;" width="583" x="82" y="116"/><ellipse cx="341.25" cy="132" fill="#ADD1B2" rx="11" ry="11" style="stroke:#A80036;stroke-width:1.0;"/><path d="M343.5938,127.6719 C342.6563,127.2344 342.0625,127.0938 341.1875,127.0938 C338.5625,127.0938 336.5625,129.1719 336.5625,131.8906 L336.5625,133.0156 C336.5625,135.5938 338.6719,137.4844 341.5625,137.4844 C342.7813,137.4844 343.9375,137.1875 344.6875,136.6406 C345.2656,136.2344 345.5938,135.7813 345.5938,135.3906 C345.5938,134.9375 345.2031,134.5469 344.7344,134.5469 C344.5156,134.5469 344.3125,134.625 344.125,134.8125 C343.6719,135.2969 343.6719,135.2969 343.4844,135.3906 C343.0625,135.6563 342.375,135.7813 341.6094,135.7813 C339.5625,135.7813 338.2656,134.6875 338.2656,132.9844 L338.2656,131.8906 C338.2656,130.1094 339.5156,128.7969 341.25,128.7969 C341.8281,128.7969 342.4375,128.9531 342.9063,129.2031 C343.3906,129.4844 343.5625,129.7031 343.6563,130.1094 C343.7188,130.5156 343.75,130.6406 343.8906,130.7656 C344.0313,130.9063 344.2656,131.0156 344.4844,131.0156 C344.75,131.0156 345.0156,130.875 345.1875,130.6563 C345.2969,130.5 345.3281,130.3125 345.3281,129.8906 L345.3281,128.4688 C345.3281,128.0313 345.3125,127.9063 345.2188,127.75 C345.0625,127.4844 344.7813,127.3438 344.4844,127.3438 C344.1875,127.3438 343.9844,127.4375 343.7656,127.75 L343.5938,127.6719 Z " fill="#000000"/><text fill="#000000" font-family="sans-serif" font-size="12" lengthAdjust="spacing" textLength="56" x="361.75" y="136.1543">Company</text><line style="stroke:#A80036;stroke-width:1.5;" x1="83" x2="664" y1="148" y2="148"/><line style="stroke:#A80036;stroke-width:1.5;" x1="83" x2="664" y1="156" y2="156"/><text fill="#000000" font-family="sans-serif" font-size="11" lengthAdjust="spacing" textLength="453" x="88" y="170.2104">+generateSimpleNHSReportTestsPerformedWeeks(currentDate,historicalPoints,</text><text fill="#000000" font-family="sans-serif" font-size="11" lengthAdjust="spacing" textLength="571" x="88" y="183.0151">newerRegressionIntervalDate,olderRegressionIntervalDate,aParameterSignificance,aTestParameter,</text><text fill="#000000" font-family="sans-serif" font-size="11" lengthAdjust="spacing" textLength="511" x="88" y="195.8198">bParamaterSignificance,bTestParameter,fTestSignificance,confidenceIntervalSignificance)</text><text fill="#000000" font-family="sans-serif" font-size="11" lengthAdjust="spacing" textLength="348" x="88" y="208.6245">+generateSimpleNHSReportMeanAgeWeeks(currentDate, ...)</text><text fill="#000000" font-family="sans-serif" font-size="11" lengthAdjust="spacing" textLength="306" x="88" y="221.4292">+generateSimpleNhsReportMeanAge(currentDate, ...)</text><text fill="#000000" font-family="sans-serif" font-size="11" lengthAdjust="spacing" textLength="342" x="88" y="234.2339">+generateSimpleNhsReportTestsPerformed(currentDate, ...)</text><text fill="#000000" font-family="sans-serif" font-size="11" lengthAdjust="spacing" textLength="302" x="88" y="247.0386">+generateMultilinearNHSReportDays(currentDate, ...)</text><text fill="#000000" font-family="sans-serif" font-size="11" lengthAdjust="spacing" textLength="312" x="88" y="259.8433">+generateMultilinearNHSReportWeeks(currentDate, ...)</text><path d="M960,18.5 L960,43.6328 L1591,43.6328 L1591,28.5 L1581,18.5 L960,18.5 " fill="#FBFB77" filter="url(#fe8bim2nncl22)" style="stroke:#A80036;stroke-width:1.0;"/><path d="M1581,18.5 L1581,28.5 L1591,28.5 L1581,18.5 " fill="#FBFB77" style="stroke:#A80036;stroke-width:1.0;"/><text fill="#000000" font-family="sans-serif" font-size="13" lengthAdjust="spacing" textLength="610" x="966" y="35.5669">The other generate methods in the Company Class have the same parameters as the first one</text><!--MD5=[0f6f7964b844a64b0496af0dda7914bd]
class TestStore--><rect codeLine="18" fill="#FEFECE" filter="url(#fe8bim2nncl22)" height="124.8281" id="TestStore" style="stroke:#A80036;stroke-width:1.5;" width="313" x="7" y="343"/><ellipse cx="129.75" cy="359" fill="#ADD1B2" rx="11" ry="11" style="stroke:#A80036;stroke-width:1.0;"/><path d="M132.0938,354.6719 C131.1563,354.2344 130.5625,354.0938 129.6875,354.0938 C127.0625,354.0938 125.0625,356.1719 125.0625,358.8906 L125.0625,360.0156 C125.0625,362.5938 127.1719,364.4844 130.0625,364.4844 C131.2813,364.4844 132.4375,364.1875 133.1875,363.6406 C133.7656,363.2344 134.0938,362.7813 134.0938,362.3906 C134.0938,361.9375 133.7031,361.5469 133.2344,361.5469 C133.0156,361.5469 132.8125,361.625 132.625,361.8125 C132.1719,362.2969 132.1719,362.2969 131.9844,362.3906 C131.5625,362.6563 130.875,362.7813 130.1094,362.7813 C128.0625,362.7813 126.7656,361.6875 126.7656,359.9844 L126.7656,358.8906 C126.7656,357.1094 128.0156,355.7969 129.75,355.7969 C130.3281,355.7969 130.9375,355.9531 131.4063,356.2031 C131.8906,356.4844 132.0625,356.7031 132.1563,357.1094 C132.2188,357.5156 132.25,357.6406 132.3906,357.7656 C132.5313,357.9063 132.7656,358.0156 132.9844,358.0156 C133.25,358.0156 133.5156,357.875 133.6875,357.6563 C133.7969,357.5 133.8281,357.3125 133.8281,356.8906 L133.8281,355.4688 C133.8281,355.0313 133.8125,354.9063 133.7188,354.75 C133.5625,354.4844 133.2813,354.3438 132.9844,354.3438 C132.6875,354.3438 132.4844,354.4375 132.2656,354.75 L132.0938,354.6719 Z " fill="#000000"/><text fill="#000000" font-family="sans-serif" font-size="12" lengthAdjust="spacing" textLength="59" x="150.25" y="363.1543">TestStore</text><line style="stroke:#A80036;stroke-width:1.5;" x1="8" x2="319" y1="375" y2="375"/><line style="stroke:#A80036;stroke-width:1.5;" x1="8" x2="319" y1="383" y2="383"/><text fill="#000000" font-family="sans-serif" font-size="11" lengthAdjust="spacing" textLength="291" x="13" y="397.2104">+getTestsPerformedPerDay(olderDate,newerDate)</text><text fill="#000000" font-family="sans-serif" font-size="11" lengthAdjust="spacing" textLength="301" x="13" y="410.0151">+getTestsPerformedPerWeek(olderDate,newerDate)</text><text fill="#000000" font-family="sans-serif" font-size="11" lengthAdjust="spacing" textLength="276" x="13" y="422.8198">+getTestsPositivePerDay(olderDate,newerDate)</text><text fill="#000000" font-family="sans-serif" font-size="11" lengthAdjust="spacing" textLength="286" x="13" y="435.6245">+getTestsPositivePerWeek(olderDate,newerDate)</text><text fill="#000000" font-family="sans-serif" font-size="11" lengthAdjust="spacing" textLength="255" x="13" y="448.4292">+getMeanAgePerDay(olderDate,newerDate)</text><text fill="#000000" font-family="sans-serif" font-size="11" lengthAdjust="spacing" textLength="265" x="13" y="461.2339">+getMeanAgePerWeek(olderDate,newerDate)</text><!--MD5=[74783ec010d186752c4ffd5c6de5633a]
class NHSReport--><rect codeLine="27" fill="#FEFECE" filter="url(#fe8bim2nncl22)" height="99.2188" id="NHSReport" style="stroke:#A80036;stroke-width:1.5;" width="547" x="427" y="545"/><ellipse cx="663.75" cy="561" fill="#ADD1B2" rx="11" ry="11" style="stroke:#A80036;stroke-width:1.0;"/><path d="M666.0938,556.6719 C665.1563,556.2344 664.5625,556.0938 663.6875,556.0938 C661.0625,556.0938 659.0625,558.1719 659.0625,560.8906 L659.0625,562.0156 C659.0625,564.5938 661.1719,566.4844 664.0625,566.4844 C665.2813,566.4844 666.4375,566.1875 667.1875,565.6406 C667.7656,565.2344 668.0938,564.7813 668.0938,564.3906 C668.0938,563.9375 667.7031,563.5469 667.2344,563.5469 C667.0156,563.5469 666.8125,563.625 666.625,563.8125 C666.1719,564.2969 666.1719,564.2969 665.9844,564.3906 C665.5625,564.6563 664.875,564.7813 664.1094,564.7813 C662.0625,564.7813 660.7656,563.6875 660.7656,561.9844 L660.7656,560.8906 C660.7656,559.1094 662.0156,557.7969 663.75,557.7969 C664.3281,557.7969 664.9375,557.9531 665.4063,558.2031 C665.8906,558.4844 666.0625,558.7031 666.1563,559.1094 C666.2188,559.5156 666.25,559.6406 666.3906,559.7656 C666.5313,559.9063 666.7656,560.0156 666.9844,560.0156 C667.25,560.0156 667.5156,559.875 667.6875,559.6563 C667.7969,559.5 667.8281,559.3125 667.8281,558.8906 L667.8281,557.4688 C667.8281,557.0313 667.8125,556.9063 667.7188,556.75 C667.5625,556.4844 667.2813,556.3438 666.9844,556.3438 C666.6875,556.3438 666.4844,556.4375 666.2656,556.75 L666.0938,556.6719 Z " fill="#000000"/><text fill="#000000" font-family="sans-serif" font-size="12" lengthAdjust="spacing" textLength="65" x="684.25" y="565.1543">NHSReport</text><line style="stroke:#A80036;stroke-width:1.5;" x1="428" x2="973" y1="577" y2="577"/><text fill="#000000" font-family="sans-serif" font-size="11" lengthAdjust="spacing" textLength="99" x="433" y="591.2104">-linearRegression</text><text fill="#000000" font-family="sans-serif" font-size="11" lengthAdjust="spacing" textLength="130" x="433" y="604.0151">-multiLinearRegression</text><line style="stroke:#A80036;stroke-width:1.5;" x1="428" x2="973" y1="610.6094" y2="610.6094"/><text fill="#000000" font-family="sans-serif" font-size="11" lengthAdjust="spacing" textLength="458" x="433" y="624.8198">+getReportString(olderDate,newerDate,aParameterSignificance,aTestParameter</text><text fill="#000000" font-family="sans-serif" font-size="11" lengthAdjust="spacing" textLength="535" x="433" y="637.6245">,bTestSignificance,bTestParameter,fTestSignificance,confidenceIntervalSignificance,identifier)</text><!--MD5=[fde5bf5e32ebd91aaa37566c2946746b]
class Report2NHS--><rect codeLine="33" fill="#FEFECE" filter="url(#fe8bim2nncl22)" height="60.8047" id="Report2NHS" style="stroke:#A80036;stroke-width:1.5;" width="213" x="359" y="705"/><ellipse cx="424.75" cy="721" fill="#ADD1B2" rx="11" ry="11" style="stroke:#A80036;stroke-width:1.0;"/><path d="M427.0938,716.6719 C426.1563,716.2344 425.5625,716.0938 424.6875,716.0938 C422.0625,716.0938 420.0625,718.1719 420.0625,720.8906 L420.0625,722.0156 C420.0625,724.5938 422.1719,726.4844 425.0625,726.4844 C426.2813,726.4844 427.4375,726.1875 428.1875,725.6406 C428.7656,725.2344 429.0938,724.7813 429.0938,724.3906 C429.0938,723.9375 428.7031,723.5469 428.2344,723.5469 C428.0156,723.5469 427.8125,723.625 427.625,723.8125 C427.1719,724.2969 427.1719,724.2969 426.9844,724.3906 C426.5625,724.6563 425.875,724.7813 425.1094,724.7813 C423.0625,724.7813 421.7656,723.6875 421.7656,721.9844 L421.7656,720.8906 C421.7656,719.1094 423.0156,717.7969 424.75,717.7969 C425.3281,717.7969 425.9375,717.9531 426.4063,718.2031 C426.8906,718.4844 427.0625,718.7031 427.1563,719.1094 C427.2188,719.5156 427.25,719.6406 427.3906,719.7656 C427.5313,719.9063 427.7656,720.0156 427.9844,720.0156 C428.25,720.0156 428.5156,719.875 428.6875,719.6563 C428.7969,719.5 428.8281,719.3125 428.8281,718.8906 L428.8281,717.4688 C428.8281,717.0313 428.8125,716.9063 428.7188,716.75 C428.5625,716.4844 428.2813,716.3438 427.9844,716.3438 C427.6875,716.3438 427.4844,716.4375 427.2656,716.75 L427.0938,716.6719 Z " fill="#000000"/><text fill="#000000" font-family="sans-serif" font-size="12" lengthAdjust="spacing" textLength="73" x="445.25" y="725.1543">Report2NHS</text><line style="stroke:#A80036;stroke-width:1.5;" x1="360" x2="571" y1="737" y2="737"/><line style="stroke:#A80036;stroke-width:1.5;" x1="360" x2="571" y1="745" y2="745"/><text fill="#000000" font-family="sans-serif" font-size="11" lengthAdjust="spacing" textLength="201" x="365" y="759.2104">+writeUsingFileWriter(String report)</text><!--MD5=[ef340af6512c03d5eeac92509be9c66b]
class LinearRegression--><rect codeLine="36" fill="#FEFECE" filter="url(#fe8bim2nncl22)" height="48" id="LinearRegression" style="stroke:#A80036;stroke-width:1.5;" width="136" x="714.5" y="381.5"/><ellipse cx="729.5" cy="397.5" fill="#ADD1B2" rx="11" ry="11" style="stroke:#A80036;stroke-width:1.0;"/><path d="M731.8438,393.1719 C730.9063,392.7344 730.3125,392.5938 729.4375,392.5938 C726.8125,392.5938 724.8125,394.6719 724.8125,397.3906 L724.8125,398.5156 C724.8125,401.0938 726.9219,402.9844 729.8125,402.9844 C731.0313,402.9844 732.1875,402.6875 732.9375,402.1406 C733.5156,401.7344 733.8438,401.2813 733.8438,400.8906 C733.8438,400.4375 733.4531,400.0469 732.9844,400.0469 C732.7656,400.0469 732.5625,400.125 732.375,400.3125 C731.9219,400.7969 731.9219,400.7969 731.7344,400.8906 C731.3125,401.1563 730.625,401.2813 729.8594,401.2813 C727.8125,401.2813 726.5156,400.1875 726.5156,398.4844 L726.5156,397.3906 C726.5156,395.6094 727.7656,394.2969 729.5,394.2969 C730.0781,394.2969 730.6875,394.4531 731.1563,394.7031 C731.6406,394.9844 731.8125,395.2031 731.9063,395.6094 C731.9688,396.0156 732,396.1406 732.1406,396.2656 C732.2813,396.4063 732.5156,396.5156 732.7344,396.5156 C733,396.5156 733.2656,396.375 733.4375,396.1563 C733.5469,396 733.5781,395.8125 733.5781,395.3906 L733.5781,393.9688 C733.5781,393.5313 733.5625,393.4063 733.4688,393.25 C733.3125,392.9844 733.0313,392.8438 732.7344,392.8438 C732.4375,392.8438 732.2344,392.9375 732.0156,393.25 L731.8438,393.1719 Z " fill="#000000"/><text fill="#000000" font-family="sans-serif" font-size="12" lengthAdjust="spacing" textLength="104" x="743.5" y="401.6543">LinearRegression</text><line style="stroke:#A80036;stroke-width:1.5;" x1="715.5" x2="849.5" y1="413.5" y2="413.5"/><line style="stroke:#A80036;stroke-width:1.5;" x1="715.5" x2="849.5" y1="421.5" y2="421.5"/><path d="M1626.5,11 L1626.5,51.2656 L1996.5,51.2656 L1996.5,21 L1986.5,11 L1626.5,11 " fill="#FBFB77" filter="url(#fe8bim2nncl22)" style="stroke:#A80036;stroke-width:1.0;"/><path d="M1986.5,11 L1986.5,21 L1996.5,21 L1986.5,11 " fill="#FBFB77" style="stroke:#A80036;stroke-width:1.0;"/><text fill="#000000" font-family="sans-serif" font-size="13" lengthAdjust="spacing" textLength="345" x="1632.5" y="28.0669">Linear Regression classes contain a lot of methods so</text><text fill="#000000" font-family="sans-serif" font-size="13" lengthAdjust="spacing" textLength="245" x="1636.5" y="43.1997">I'll be putting them in another diagram</text><!--MD5=[6f57bde7dde74de5002c105391146556]
class MultiLinearRegression--><rect codeLine="38" fill="#FEFECE" filter="url(#fe8bim2nncl22)" height="48" id="MultiLinearRegression" style="stroke:#A80036;stroke-width:1.5;" width="163" x="516" y="381.5"/><ellipse cx="531" cy="397.5" fill="#ADD1B2" rx="11" ry="11" style="stroke:#A80036;stroke-width:1.0;"/><path d="M533.3438,393.1719 C532.4063,392.7344 531.8125,392.5938 530.9375,392.5938 C528.3125,392.5938 526.3125,394.6719 526.3125,397.3906 L526.3125,398.5156 C526.3125,401.0938 528.4219,402.9844 531.3125,402.9844 C532.5313,402.9844 533.6875,402.6875 534.4375,402.1406 C535.0156,401.7344 535.3438,401.2813 535.3438,400.8906 C535.3438,400.4375 534.9531,400.0469 534.4844,400.0469 C534.2656,400.0469 534.0625,400.125 533.875,400.3125 C533.4219,400.7969 533.4219,400.7969 533.2344,400.8906 C532.8125,401.1563 532.125,401.2813 531.3594,401.2813 C529.3125,401.2813 528.0156,400.1875 528.0156,398.4844 L528.0156,397.3906 C528.0156,395.6094 529.2656,394.2969 531,394.2969 C531.5781,394.2969 532.1875,394.4531 532.6563,394.7031 C533.1406,394.9844 533.3125,395.2031 533.4063,395.6094 C533.4688,396.0156 533.5,396.1406 533.6406,396.2656 C533.7813,396.4063 534.0156,396.5156 534.2344,396.5156 C534.5,396.5156 534.7656,396.375 534.9375,396.1563 C535.0469,396 535.0781,395.8125 535.0781,395.3906 L535.0781,393.9688 C535.0781,393.5313 535.0625,393.4063 534.9688,393.25 C534.8125,392.9844 534.5313,392.8438 534.2344,392.8438 C533.9375,392.8438 533.7344,392.9375 533.5156,393.25 L533.3438,393.1719 Z " fill="#000000"/><text fill="#000000" font-family="sans-serif" font-size="12" lengthAdjust="spacing" textLength="131" x="545" y="401.6543">MultiLinearRegression</text><line style="stroke:#A80036;stroke-width:1.5;" x1="517" x2="678" y1="413.5" y2="413.5"/><line style="stroke:#A80036;stroke-width:1.5;" x1="517" x2="678" y1="421.5" y2="421.5"/><!--MD5=[df38be88ccee13e832d6fafd6288a4ca]
class Test--><rect codeLine="40" fill="#FEFECE" filter="url(#fe8bim2nncl22)" height="86.4141" id="Test" style="stroke:#A80036;stroke-width:1.5;" width="103" x="112" y="551.5"/><ellipse cx="147.25" cy="567.5" fill="#ADD1B2" rx="11" ry="11" style="stroke:#A80036;stroke-width:1.0;"/><path d="M149.5938,563.1719 C148.6563,562.7344 148.0625,562.5938 147.1875,562.5938 C144.5625,562.5938 142.5625,564.6719 142.5625,567.3906 L142.5625,568.5156 C142.5625,571.0938 144.6719,572.9844 147.5625,572.9844 C148.7813,572.9844 149.9375,572.6875 150.6875,572.1406 C151.2656,571.7344 151.5938,571.2813 151.5938,570.8906 C151.5938,570.4375 151.2031,570.0469 150.7344,570.0469 C150.5156,570.0469 150.3125,570.125 150.125,570.3125 C149.6719,570.7969 149.6719,570.7969 149.4844,570.8906 C149.0625,571.1563 148.375,571.2813 147.6094,571.2813 C145.5625,571.2813 144.2656,570.1875 144.2656,568.4844 L144.2656,567.3906 C144.2656,565.6094 145.5156,564.2969 147.25,564.2969 C147.8281,564.2969 148.4375,564.4531 148.9063,564.7031 C149.3906,564.9844 149.5625,565.2031 149.6563,565.6094 C149.7188,566.0156 149.75,566.1406 149.8906,566.2656 C150.0313,566.4063 150.2656,566.5156 150.4844,566.5156 C150.75,566.5156 151.0156,566.375 151.1875,566.1563 C151.2969,566 151.3281,565.8125 151.3281,565.3906 L151.3281,563.9688 C151.3281,563.5313 151.3125,563.4063 151.2188,563.25 C151.0625,562.9844 150.7813,562.8438 150.4844,562.8438 C150.1875,562.8438 149.9844,562.9375 149.7656,563.25 L149.5938,563.1719 Z " fill="#000000"/><text fill="#000000" font-family="sans-serif" font-size="12" lengthAdjust="spacing" textLength="26" x="165.75" y="571.6543">Test</text><line style="stroke:#A80036;stroke-width:1.5;" x1="113" x2="214" y1="583.5" y2="583.5"/><text fill="#000000" font-family="sans-serif" font-size="11" lengthAdjust="spacing" textLength="35" x="118" y="597.7104">-client</text><text fill="#000000" font-family="sans-serif" font-size="11" lengthAdjust="spacing" textLength="55" x="118" y="610.5151">-testType</text><line style="stroke:#A80036;stroke-width:1.5;" x1="113" x2="214" y1="617.1094" y2="617.1094"/><text fill="#000000" font-family="sans-serif" font-size="11" lengthAdjust="spacing" textLength="91" x="118" y="631.3198">+calculateAge()</text><!--MD5=[d5360055e06dd062e409c2b28b5f3a5e]
link GenerateSimpleLinearNHSReportController to Company--><path codeLine="48" d="M720.883,55.144 C680.482,70.828 624.59,92.525 569.44,113.935 " fill="none" id="GenerateSimpleLinearNHSReportController-to-Company" style="stroke:#A80036;stroke-width:1.0;stroke-dasharray:7.0,7.0;"/><polygon fill="#A80036" points="564.449,115.872,574.2866,116.3431,569.11,114.0622,571.3909,108.8856,564.449,115.872" style="stroke:#A80036;stroke-width:1.0;"/><!--MD5=[02a222e3b8a597018c4382095bcf7749]
link GenerateMultiLinearNHSReportController to Company--><path codeLine="49" d="M431.466,55.313 C425.009,70.317 416.206,90.772 407.41,111.209 " fill="none" id="GenerateMultiLinearNHSReportController-to-Company" style="stroke:#A80036;stroke-width:1.0;stroke-dasharray:7.0,7.0;"/><polygon fill="#A80036" points="405.416,115.843,412.6469,109.1561,407.3918,111.2499,405.298,105.9948,405.416,115.843" style="stroke:#A80036;stroke-width:1.0;"/><!--MD5=[21b5c5286f3673043f80c084ff2a7f44]
link GenerateMultiLinearNHSReportController to MultiLinearRegression--><path codeLine="50" d="M579.271,49.357 C619.062,61.486 658.249,81.866 682.5,116 C741.447,198.971 661.349,322.85 619.773,377.238 " fill="none" id="GenerateMultiLinearNHSReportController-to-MultiLinearRegression" style="stroke:#A80036;stroke-width:1.0;stroke-dasharray:7.0,7.0;"/><polygon fill="#A80036" points="616.605,381.345,625.2689,376.6614,619.6587,377.3858,618.9342,371.7755,616.605,381.345" style="stroke:#A80036;stroke-width:1.0;"/><!--MD5=[7c2dd944393ea79e597db7e2402a5eaf]
link GenerateSimpleLinearNHSReportController to LinearRegression--><path codeLine="51" d="M780.624,55.02 C780.972,119.949 781.963,304.438 782.346,375.813 " fill="none" id="GenerateSimpleLinearNHSReportController-to-LinearRegression" style="stroke:#A80036;stroke-width:1.0;stroke-dasharray:7.0,7.0;"/><polygon fill="#A80036" points="782.375,381.157,786.3261,372.1354,782.3479,376.1571,778.3262,372.1788,782.375,381.157" style="stroke:#A80036;stroke-width:1.0;"/><!--MD5=[9c2fa21166b68a92b3a01cce85814a16]
link Company to MultiLinearRegression--><path codeLine="53" d="M451.53,266.024 C492.373,304.77 539.873,349.831 569.315,377.762 " fill="none" id="Company-to-MultiLinearRegression" style="stroke:#A80036;stroke-width:1.0;stroke-dasharray:7.0,7.0;"/><polygon fill="#A80036" points="573.169,381.418,569.3933,372.3216,569.5418,377.9765,563.8869,378.1251,573.169,381.418" style="stroke:#A80036;stroke-width:1.0;"/><!--MD5=[4c29a3f31288984ead6b3ca29bc41e03]
link Company to LinearRegression--><path codeLine="54" d="M547.063,266.022 C596.311,288.922 649.34,315.428 696.5,343 C714.46,353.5 733.375,366.758 748.879,378.274 " fill="none" id="Company-to-LinearRegression" style="stroke:#A80036;stroke-width:1.0;stroke-dasharray:7.0,7.0;"/><polygon fill="#A80036" points="753.157,381.472,748.3428,372.88,749.152,378.4786,743.5534,379.2879,753.157,381.472" style="stroke:#A80036;stroke-width:1.0;"/><!--MD5=[1a29efac474ed00332939ff55dd5f4e3]
link Company to NHSReport--><path codeLine="55" d="M393.864,266.066 C413.178,325.81 446.989,409.277 498.5,468 C524.491,497.63 559.187,522.613 592.482,542.295 " fill="none" id="Company-to-NHSReport" style="stroke:#A80036;stroke-width:1.0;stroke-dasharray:7.0,7.0;"/><polygon fill="#A80036" points="596.958,544.914,591.2108,536.9159,592.6427,542.3885,587.17,543.8204,596.958,544.914" style="stroke:#A80036;stroke-width:1.0;"/><!--MD5=[7f6cf7f175eae0af66201860de5de971]
link Company to TestStore--><path codeLine="56" d="M300.347,266.024 C276.864,289.787 251.033,315.925 228.2,339.03 " fill="none" id="Company-to-TestStore" style="stroke:#A80036;stroke-width:1.0;"/><polygon fill="#A80036" points="224.562,342.711,233.7335,339.1217,228.0768,339.1548,228.0436,333.4981,224.562,342.711" style="stroke:#A80036;stroke-width:1.0;"/><polygon fill="#000000" points="269.9855,308.1228,278.4337,303.755,274.2529,299.6234,269.9855,308.1228" style="stroke:#000000;stroke-width:1.0;"/><text fill="#000000" font-family="sans-serif" font-size="13" lengthAdjust="spacing" textLength="34" x="282.5" y="309.0669">owns</text><text fill="#000000" font-family="sans-serif" font-size="13" lengthAdjust="spacing" textLength="8" x="284.3906" y="286.5855">1</text><text fill="#000000" font-family="sans-serif" font-size="13" lengthAdjust="spacing" textLength="8" x="222.8032" y="332.1067">1</text><!--MD5=[b0f4f6db8206580012ef9cd998ed01c5]
link TestStore to Test--><path codeLine="57" d="M163.5,468.249 C163.5,493.569 163.5,522.413 163.5,546.034 " fill="none" id="TestStore-to-Test" style="stroke:#A80036;stroke-width:1.0;"/><polygon fill="#A80036" points="163.5,551.3,167.5,542.3,163.5,546.3,159.5,542.3,163.5,551.3" style="stroke:#A80036;stroke-width:1.0;"/><polygon fill="#000000" points="168.5,511.5664,171.4389,502.5213,165.5611,502.5213,168.5,511.5664" style="stroke:#000000;stroke-width:1.0;"/><text fill="#000000" font-family="sans-serif" font-size="13" lengthAdjust="spacing" textLength="41" x="177.5" y="511.0669">knows</text><text fill="#000000" font-family="sans-serif" font-size="13" lengthAdjust="spacing" textLength="8" x="155.0625" y="488.016">1</text><text fill="#000000" font-family="sans-serif" font-size="13" lengthAdjust="spacing" textLength="7" x="155.9641" y="540.5819">*</text><!--MD5=[255db2bf65bd998769cbc7c7bbe52655]
link LinearRegression to NHSReport--><path codeLine="58" d="M772.28,429.806 C760.283,457.166 739.998,503.425 724.047,539.802 " fill="none" id="LinearRegression-to-NHSReport" style="stroke:#A80036;stroke-width:1.0;stroke-dasharray:7.0,7.0;"/><polygon fill="#A80036" points="721.926,544.639,729.2046,538.0041,723.9347,540.0602,721.8786,534.7903,721.926,544.639" style="stroke:#A80036;stroke-width:1.0;"/><!--MD5=[62b6dc05f0824895af8773234f3a501e]
link MultiLinearRegression to NHSReport--><path codeLine="59" d="M610.337,429.806 C625.469,457.278 651.095,503.803 671.168,540.246 " fill="none" id="MultiLinearRegression-to-NHSReport" style="stroke:#A80036;stroke-width:1.0;stroke-dasharray:7.0,7.0;"/><polygon fill="#A80036" points="673.587,544.639,672.748,534.8259,671.1744,540.2595,665.7408,538.686,673.587,544.639" style="stroke:#A80036;stroke-width:1.0;"/><!--MD5=[85cdbbe63cc34aae8e92936050ff8139]
link Company to Report2NHS--><path codeLine="60" d="M368.901,266.096 C365.59,357.383 367.565,516.086 409.5,644 C416.077,664.06 427.938,684.2418 439.057,700.4401 " fill="none" id="Company-to-Report2NHS" style="stroke:#A80036;stroke-width:1.0;stroke-dasharray:7.0,7.0;"/><polygon fill="#A80036" points="442.168,704.8999,440.298,695.2302,439.3067,700.7995,433.7374,699.8082,442.168,704.8999" style="stroke:#A80036;stroke-width:1.0;"/><!--MD5=[dc9f1f22e62da1359ca450d43aa7c07a]
link NHSReport to Report2NHS--><path codeLine="61" d="M618.308,644.115 C585.769,663.362 549.246,684.9652 520.068,702.2237 " fill="none" id="NHSReport-to-Report2NHS" style="stroke:#A80036;stroke-width:1.0;stroke-dasharray:7.0,7.0;"/><polygon fill="#A80036" points="515.45,704.9552,525.2327,703.8157,519.7534,702.4095,521.1596,696.9302,515.45,704.9552" style="stroke:#A80036;stroke-width:1.0;"/><!--MD5=[73c9fe34f4461808ee0a0bd17b2cc307]
@startuml
skinparam classAttributeIconSize 0
'left to right direction

class GenerateSimpleLinearNHSReportController{
}
class GenerateMultiLinearNHSReportController{
}

class Company {
+generateSimpleNHSReportTestsPerformedWeeks(currentDate,historicalPoints,\nnewerRegressionIntervalDate,olderRegressionIntervalDate,aParameterSignificance,aTestParameter,\nbParamaterSignificance,bTestParameter,fTestSignificance,confidenceIntervalSignificance)
+generateSimpleNHSReportMeanAgeWeeks(currentDate, ...)
+generateSimpleNhsReportMeanAge(currentDate, ...)
+generateSimpleNhsReportTestsPerformed(currentDate, ...)
+generateMultilinearNHSReportDays(currentDate, ...)
+generateMultilinearNHSReportWeeks(currentDate, ...)
}
note "The other generate methods in the Company Class have the same parameters as the first one" as N1
class TestStore {
+getTestsPerformedPerDay(olderDate,newerDate)
+getTestsPerformedPerWeek(olderDate,newerDate)
+getTestsPositivePerDay(olderDate,newerDate)
+getTestsPositivePerWeek(olderDate,newerDate)
+getMeanAgePerDay(olderDate,newerDate)
+getMeanAgePerWeek(olderDate,newerDate)
}

class NHSReport {
-linearRegression
-multiLinearRegression
+getReportString(olderDate,newerDate,aParameterSignificance,aTestParameter\n,bTestSignificance,bTestParameter,fTestSignificance,confidenceIntervalSignificance,identifier)
}

class Report2NHS {
+writeUsingFileWriter(String report)
}
class LinearRegression
note "Linear Regression classes contain a lot of methods so \n I'll be putting them in another diagram" as N2
class MultiLinearRegression{
}
class Test{
-client
-testType
+calculateAge()
}



GenerateSimpleLinearNHSReportController ..> Company
GenerateMultiLinearNHSReportController ..> Company
GenerateMultiLinearNHSReportController ..> MultiLinearRegression
GenerateSimpleLinearNHSReportController ..> LinearRegression

Company ..> MultiLinearRegression
Company ..> LinearRegression
Company ..> NHSReport
Company "1" - -> "1" TestStore : owns >
TestStore "1" - -> "*" Test : knows >
LinearRegression ..> NHSReport
MultiLinearRegression ..> NHSReport
Company ..> Report2NHS
NHSReport ..> Report2NHS
@enduml

@startuml
skinparam classAttributeIconSize 0

class GenerateSimpleLinearNHSReportController{
}
class GenerateMultiLinearNHSReportController{
}

class Company {
+generateSimpleNHSReportTestsPerformedWeeks(currentDate,historicalPoints,\nnewerRegressionIntervalDate,olderRegressionIntervalDate,aParameterSignificance,aTestParameter,\nbParamaterSignificance,bTestParameter,fTestSignificance,confidenceIntervalSignificance)
+generateSimpleNHSReportMeanAgeWeeks(currentDate, ...)
+generateSimpleNhsReportMeanAge(currentDate, ...)
+generateSimpleNhsReportTestsPerformed(currentDate, ...)
+generateMultilinearNHSReportDays(currentDate, ...)
+generateMultilinearNHSReportWeeks(currentDate, ...)
}
note "The other generate methods in the Company Class have the same parameters as the first one" as N1
class TestStore {
+getTestsPerformedPerDay(olderDate,newerDate)
+getTestsPerformedPerWeek(olderDate,newerDate)
+getTestsPositivePerDay(olderDate,newerDate)
+getTestsPositivePerWeek(olderDate,newerDate)
+getMeanAgePerDay(olderDate,newerDate)
+getMeanAgePerWeek(olderDate,newerDate)
}

class NHSReport {
-linearRegression
-multiLinearRegression
+getReportString(olderDate,newerDate,aParameterSignificance,aTestParameter\n,bTestSignificance,bTestParameter,fTestSignificance,confidenceIntervalSignificance,identifier)
}

class Report2NHS {
+writeUsingFileWriter(String report)
}
class LinearRegression
note "Linear Regression classes contain a lot of methods so \n I'll be putting them in another diagram" as N2
class MultiLinearRegression{
}
class Test{
-client
-testType
+calculateAge()
}



GenerateSimpleLinearNHSReportController ..> Company
GenerateMultiLinearNHSReportController ..> Company
GenerateMultiLinearNHSReportController ..> MultiLinearRegression
GenerateSimpleLinearNHSReportController ..> LinearRegression

Company ..> MultiLinearRegression
Company ..> LinearRegression
Company ..> NHSReport
Company "1" - -> "1" TestStore : owns >
TestStore "1" - -> "*" Test : knows >
LinearRegression ..> NHSReport
MultiLinearRegression ..> NHSReport
Company ..> Report2NHS
NHSReport ..> Report2NHS
@enduml

PlantUML version 1.2021.7(Sun May 23 12:40:07 UTC 2021)
(GPL source distribution)
Java Runtime: Java(TM) SE Runtime Environment
JVM: Java HotSpot(TM) 64-Bit Server VM
Default Encoding: UTF-8
Language: en
Country: US
--></g></svg>