<?xml version="1.0" encoding="UTF-8" standalone="no"?><svg xmlns="http://www.w3.org/2000/svg" xmlns:xlink="http://www.w3.org/1999/xlink" contentScriptType="application/ecmascript" contentStyleType="text/css" height="1069px" preserveAspectRatio="none" style="width:3374px;height:1069px;background:#FFFFFF;" version="1.1" viewBox="0 0 3374 1069" width="3374px" zoomAndPan="magnify"><defs><filter height="300%" id="f1eae4p80um9je" width="300%" x="-1" y="-1"><feGaussianBlur result="blurOut" stdDeviation="2.0"/><feColorMatrix in="blurOut" result="blurOut2" type="matrix" values="0 0 0 0 0 0 0 0 0 0 0 0 0 0 0 0 0 0 .4 0"/><feOffset dx="4.0" dy="4.0" in="blurOut2" result="blurOut3"/><feBlend in="SourceGraphic" in2="blurOut3" mode="normal"/></filter></defs><g><rect fill="#FFFFFF" filter="url(#f1eae4p80um9je)" height="877.8516" style="stroke:#A80036;stroke-width:1.0;" width="10" x="131" y="98.2969"/><rect fill="#FFFFFF" filter="url(#f1eae4p80um9je)" height="29.1328" style="stroke:#A80036;stroke-width:1.0;" width="10" x="754" y="119.4297"/><rect fill="#FFFFFF" filter="url(#f1eae4p80um9je)" height="448.125" style="stroke:#A80036;stroke-width:1.0;" width="10" x="754" y="177.6953"/><rect fill="#FFFFFF" filter="url(#f1eae4p80um9je)" height="29.1328" style="stroke:#A80036;stroke-width:1.0;" width="10" x="754" y="684.0859"/><rect fill="#FFFFFF" filter="url(#f1eae4p80um9je)" height="87.3984" style="stroke:#A80036;stroke-width:1.0;" width="10" x="1071" y="206.8281"/><rect fill="#FFFFFF" filter="url(#f1eae4p80um9je)" height="29.1328" style="stroke:#A80036;stroke-width:1.0;" width="10" x="1071" y="464.0234"/><rect fill="#FFFFFF" filter="url(#f1eae4p80um9je)" height="174.5313" style="stroke:#A80036;stroke-width:1.0;" width="10" x="1071" y="713.2188"/><rect fill="#FFFFFF" filter="url(#f1eae4p80um9je)" height="34.1328" style="stroke:#A80036;stroke-width:1.0;" width="10" x="1341.5" y="809.4844"/><rect fill="#FFFFFF" filter="url(#f1eae4p80um9je)" height="130.3984" style="stroke:#A80036;stroke-width:1.0;" width="10" x="1657.5" y="742.3516"/><rect fill="#FFFFFF" filter="url(#f1eae4p80um9je)" height="132.6641" style="stroke:#A80036;stroke-width:1.0;" width="10" x="1994.5" y="464.0234"/><rect fill="#FFFFFF" filter="url(#f1eae4p80um9je)" height="571.5234" style="stroke:#000000;stroke-width:2.0;" width="2027" x="10" y="309.2266"/><line style="stroke:#A80036;stroke-width:1.0;stroke-dasharray:5.0,5.0;" x1="136" x2="136" y1="88.2969" y2="985.1484"/><line style="stroke:#A80036;stroke-width:1.0;stroke-dasharray:5.0,5.0;" x1="759" x2="759" y1="88.2969" y2="985.1484"/><line style="stroke:#A80036;stroke-width:1.0;stroke-dasharray:5.0,5.0;" x1="1076" x2="1076" y1="88.2969" y2="985.1484"/><line style="stroke:#A80036;stroke-width:1.0;stroke-dasharray:5.0,5.0;" x1="1243" x2="1243" y1="88.2969" y2="985.1484"/><line style="stroke:#A80036;stroke-width:1.0;stroke-dasharray:5.0,5.0;" x1="1346" x2="1346" y1="88.2969" y2="985.1484"/><line style="stroke:#A80036;stroke-width:1.0;stroke-dasharray:5.0,5.0;" x1="1662" x2="1662" y1="88.2969" y2="985.1484"/><line style="stroke:#A80036;stroke-width:1.0;stroke-dasharray:5.0,5.0;" x1="1999" x2="1999" y1="88.2969" y2="985.1484"/><line style="stroke:#A80036;stroke-width:1.0;stroke-dasharray:5.0,5.0;" x1="2229" x2="2229" y1="88.2969" y2="985.1484"/><line style="stroke:#A80036;stroke-width:1.0;stroke-dasharray:5.0,5.0;" x1="2452" x2="2452" y1="88.2969" y2="985.1484"/><line style="stroke:#A80036;stroke-width:1.0;stroke-dasharray:5.0,5.0;" x1="2612" x2="2612" y1="88.2969" y2="985.1484"/><line style="stroke:#A80036;stroke-width:1.0;stroke-dasharray:5.0,5.0;" x1="2783" x2="2783" y1="88.2969" y2="985.1484"/><line style="stroke:#A80036;stroke-width:1.0;stroke-dasharray:5.0,5.0;" x1="3091" x2="3091" y1="88.2969" y2="985.1484"/><line style="stroke:#A80036;stroke-width:1.0;stroke-dasharray:5.0,5.0;" x1="3332" x2="3332" y1="88.2969" y2="985.1484"/><text fill="#000000" font-family="sans-serif" font-size="14" lengthAdjust="spacing" textLength="226" x="20" y="84.9951">Clinical Chemistry Technologist</text><ellipse cx="136" cy="15" fill="#FEFECE" filter="url(#f1eae4p80um9je)" rx="8" ry="8" style="stroke:#A80036;stroke-width:2.0;"/><path d="M136,23 L136,50 M123,31 L149,31 M136,50 L123,65 M136,50 L149,65 " fill="none" filter="url(#f1eae4p80um9je)" style="stroke:#A80036;stroke-width:2.0;"/><text fill="#000000" font-family="sans-serif" font-size="14" lengthAdjust="spacing" textLength="226" x="20" y="997.1436">Clinical Chemistry Technologist</text><ellipse cx="136" cy="1010.4453" fill="#FEFECE" filter="url(#f1eae4p80um9je)" rx="8" ry="8" style="stroke:#A80036;stroke-width:2.0;"/><path d="M136,1018.4453 L136,1045.4453 M123,1026.4453 L149,1026.4453 M136,1045.4453 L123,1060.4453 M136,1045.4453 L149,1060.4453 " fill="none" filter="url(#f1eae4p80um9je)" style="stroke:#A80036;stroke-width:2.0;"/><rect fill="#FEFECE" filter="url(#f1eae4p80um9je)" height="30.2969" style="stroke:#A80036;stroke-width:1.5;" width="160" x="677" y="53"/><text fill="#000000" font-family="sans-serif" font-size="14" lengthAdjust="spacing" textLength="146" x="684" y="72.9951">:RecordTestResultUI</text><rect fill="#FEFECE" filter="url(#f1eae4p80um9je)" height="30.2969" style="stroke:#A80036;stroke-width:1.5;" width="160" x="677" y="984.1484"/><text fill="#000000" font-family="sans-serif" font-size="14" lengthAdjust="spacing" textLength="146" x="684" y="1004.1436">:RecordTestResultUI</text><rect fill="#FEFECE" filter="url(#f1eae4p80um9je)" height="30.2969" style="stroke:#A80036;stroke-width:1.5;" width="220" x="964" y="53"/><text fill="#000000" font-family="sans-serif" font-size="14" lengthAdjust="spacing" textLength="206" x="971" y="72.9951">:RecordTestResultController</text><rect fill="#FEFECE" filter="url(#f1eae4p80um9je)" height="30.2969" style="stroke:#A80036;stroke-width:1.5;" width="220" x="964" y="984.1484"/><text fill="#000000" font-family="sans-serif" font-size="14" lengthAdjust="spacing" textLength="206" x="971" y="1004.1436">:RecordTestResultController</text><rect fill="#FEFECE" filter="url(#f1eae4p80um9je)" height="30.2969" style="stroke:#A80036;stroke-width:1.5;" width="87" x="1198" y="53"/><text fill="#000000" font-family="sans-serif" font-size="14" lengthAdjust="spacing" textLength="73" x="1205" y="72.9951">:Company</text><rect fill="#FEFECE" filter="url(#f1eae4p80um9je)" height="30.2969" style="stroke:#A80036;stroke-width:1.5;" width="87" x="1198" y="984.1484"/><text fill="#000000" font-family="sans-serif" font-size="14" lengthAdjust="spacing" textLength="73" x="1205" y="1004.1436">:Company</text><rect fill="#FEFECE" filter="url(#f1eae4p80um9je)" height="30.2969" style="stroke:#A80036;stroke-width:1.5;" width="91" x="1299" y="53"/><text fill="#000000" font-family="sans-serif" font-size="14" lengthAdjust="spacing" textLength="77" x="1306" y="72.9951">:TestStore</text><rect fill="#FEFECE" filter="url(#f1eae4p80um9je)" height="30.2969" style="stroke:#A80036;stroke-width:1.5;" width="91" x="1299" y="984.1484"/><text fill="#000000" font-family="sans-serif" font-size="14" lengthAdjust="spacing" textLength="77" x="1306" y="1004.1436">:TestStore</text><rect fill="#FEFECE" filter="url(#f1eae4p80um9je)" height="30.2969" style="stroke:#A80036;stroke-width:1.5;" width="251" x="1535" y="53"/><text fill="#000000" font-family="sans-serif" font-size="14" lengthAdjust="spacing" textLength="237" x="1542" y="72.9951">testResultStore:TestResultStore</text><rect fill="#FEFECE" filter="url(#f1eae4p80um9je)" height="30.2969" style="stroke:#A80036;stroke-width:1.5;" width="251" x="1535" y="984.1484"/><text fill="#000000" font-family="sans-serif" font-size="14" lengthAdjust="spacing" textLength="237" x="1542" y="1004.1436">testResultStore:TestResultStore</text><rect fill="#FEFECE" filter="url(#f1eae4p80um9je)" height="30.2969" style="stroke:#A80036;stroke-width:1.5;" width="51" x="1972" y="53"/><text fill="#000000" font-family="sans-serif" font-size="14" lengthAdjust="spacing" textLength="37" x="1979" y="72.9951">:Test</text><rect fill="#FEFECE" filter="url(#f1eae4p80um9je)" height="30.2969" style="stroke:#A80036;stroke-width:1.5;" width="51" x="1972" y="984.1484"/><text fill="#000000" font-family="sans-serif" font-size="14" lengthAdjust="spacing" textLength="37" x="1979" y="1004.1436">:Test</text><rect fill="#FEFECE" filter="url(#f1eae4p80um9je)" height="30.2969" style="stroke:#A80036;stroke-width:1.5;" width="247" x="2104" y="53"/><text fill="#000000" font-family="sans-serif" font-size="14" lengthAdjust="spacing" textLength="233" x="2111" y="72.9951">testResult:TestParameterResult</text><rect fill="#FEFECE" filter="url(#f1eae4p80um9je)" height="30.2969" style="stroke:#A80036;stroke-width:1.5;" width="247" x="2104" y="984.1484"/><text fill="#000000" font-family="sans-serif" font-size="14" lengthAdjust="spacing" textLength="233" x="2111" y="1004.1436">testResult:TestParameterResult</text><rect fill="#FEFECE" filter="url(#f1eae4p80um9je)" height="30.2969" style="stroke:#A80036;stroke-width:1.5;" width="171" x="2365" y="53"/><text fill="#000000" font-family="sans-serif" font-size="14" lengthAdjust="spacing" textLength="157" x="2372" y="72.9951">testParam:TestParam</text><rect fill="#FEFECE" filter="url(#f1eae4p80um9je)" height="30.2969" style="stroke:#A80036;stroke-width:1.5;" width="171" x="2365" y="984.1484"/><text fill="#000000" font-family="sans-serif" font-size="14" lengthAdjust="spacing" textLength="157" x="2372" y="1004.1436">testParam:TestParam</text><rect fill="#FEFECE" filter="url(#f1eae4p80um9je)" height="30.2969" style="stroke:#A80036;stroke-width:1.5;" width="121" x="2550" y="53"/><text fill="#000000" font-family="sans-serif" font-size="14" lengthAdjust="spacing" textLength="107" x="2557" y="72.9951">type:TypeTest</text><rect fill="#FEFECE" filter="url(#f1eae4p80um9je)" height="30.2969" style="stroke:#A80036;stroke-width:1.5;" width="121" x="2550" y="984.1484"/><text fill="#000000" font-family="sans-serif" font-size="14" lengthAdjust="spacing" textLength="107" x="2557" y="1004.1436">type:TypeTest</text><rect fill="#FEFECE" filter="url(#f1eae4p80um9je)" height="30.2969" style="stroke:#A80036;stroke-width:1.5;" width="193" x="2685" y="53"/><text fill="#000000" font-family="sans-serif" font-size="14" lengthAdjust="spacing" textLength="179" x="2692" y="72.9951">refValue:ReferenceValue</text><rect fill="#FEFECE" filter="url(#f1eae4p80um9je)" height="30.2969" style="stroke:#A80036;stroke-width:1.5;" width="193" x="2685" y="984.1484"/><text fill="#000000" font-family="sans-serif" font-size="14" lengthAdjust="spacing" textLength="179" x="2692" y="1004.1436">refValue:ReferenceValue</text><rect fill="#FEFECE" filter="url(#f1eae4p80um9je)" height="30.2969" style="stroke:#A80036;stroke-width:1.5;" width="394" x="2892" y="53"/><text fill="#000000" font-family="sans-serif" font-size="14" lengthAdjust="spacing" textLength="380" x="2899" y="72.9951">automaticValidation:AutomaticValidationParameters</text><rect fill="#FEFECE" filter="url(#f1eae4p80um9je)" height="30.2969" style="stroke:#A80036;stroke-width:1.5;" width="394" x="2892" y="984.1484"/><text fill="#000000" font-family="sans-serif" font-size="14" lengthAdjust="spacing" textLength="380" x="2899" y="1004.1436">automaticValidation:AutomaticValidationParameters</text><rect fill="#FEFECE" filter="url(#f1eae4p80um9je)" height="30.2969" style="stroke:#A80036;stroke-width:1.5;" width="60" x="3300" y="53"/><text fill="#000000" font-family="sans-serif" font-size="14" lengthAdjust="spacing" textLength="46" x="3307" y="72.9951">CTRLT</text><rect fill="#FEFECE" filter="url(#f1eae4p80um9je)" height="30.2969" style="stroke:#A80036;stroke-width:1.5;" width="60" x="3300" y="984.1484"/><text fill="#000000" font-family="sans-serif" font-size="14" lengthAdjust="spacing" textLength="46" x="3307" y="1004.1436">CTRLT</text><rect fill="#FFFFFF" filter="url(#f1eae4p80um9je)" height="877.8516" style="stroke:#A80036;stroke-width:1.0;" width="10" x="131" y="98.2969"/><rect fill="#FFFFFF" filter="url(#f1eae4p80um9je)" height="29.1328" style="stroke:#A80036;stroke-width:1.0;" width="10" x="754" y="119.4297"/><rect fill="#FFFFFF" filter="url(#f1eae4p80um9je)" height="448.125" style="stroke:#A80036;stroke-width:1.0;" width="10" x="754" y="177.6953"/><rect fill="#FFFFFF" filter="url(#f1eae4p80um9je)" height="29.1328" style="stroke:#A80036;stroke-width:1.0;" width="10" x="754" y="684.0859"/><rect fill="#FFFFFF" filter="url(#f1eae4p80um9je)" height="87.3984" style="stroke:#A80036;stroke-width:1.0;" width="10" x="1071" y="206.8281"/><rect fill="#FFFFFF" filter="url(#f1eae4p80um9je)" height="29.1328" style="stroke:#A80036;stroke-width:1.0;" width="10" x="1071" y="464.0234"/><rect fill="#FFFFFF" filter="url(#f1eae4p80um9je)" height="174.5313" style="stroke:#A80036;stroke-width:1.0;" width="10" x="1071" y="713.2188"/><rect fill="#FFFFFF" filter="url(#f1eae4p80um9je)" height="34.1328" style="stroke:#A80036;stroke-width:1.0;" width="10" x="1341.5" y="809.4844"/><rect fill="#FFFFFF" filter="url(#f1eae4p80um9je)" height="130.3984" style="stroke:#A80036;stroke-width:1.0;" width="10" x="1657.5" y="742.3516"/><rect fill="#FFFFFF" filter="url(#f1eae4p80um9je)" height="132.6641" style="stroke:#A80036;stroke-width:1.0;" width="10" x="1994.5" y="464.0234"/><polygon fill="#A80036" points="742,115.4297,752,119.4297,742,123.4297,746,119.4297" style="stroke:#A80036;stroke-width:1.0;"/><line style="stroke:#A80036;stroke-width:1.0;" x1="141" x2="748" y1="119.4297" y2="119.4297"/><text fill="#000000" font-family="sans-serif" font-size="13" font-weight="bold" lengthAdjust="spacing" textLength="9" x="148" y="114.3638">1</text><text fill="#000000" font-family="sans-serif" font-size="13" lengthAdjust="spacing" textLength="329" x="161" y="114.3638">selects to start recording the results of a given test</text><polygon fill="#A80036" points="152,144.5625,142,148.5625,152,152.5625,148,148.5625" style="stroke:#A80036;stroke-width:1.0;"/><line style="stroke:#A80036;stroke-width:1.0;stroke-dasharray:2.0,2.0;" x1="146" x2="758" y1="148.5625" y2="148.5625"/><text fill="#000000" font-family="sans-serif" font-size="13" font-weight="bold" lengthAdjust="spacing" textLength="9" x="158" y="143.4966">2</text><text fill="#000000" font-family="sans-serif" font-size="13" lengthAdjust="spacing" textLength="576" x="171" y="143.4966">request to introduce barcode from a sample of the test where the results will be recorded</text><polygon fill="#A80036" points="742,173.6953,752,177.6953,742,181.6953,746,177.6953" style="stroke:#A80036;stroke-width:1.0;"/><line style="stroke:#A80036;stroke-width:1.0;" x1="141" x2="748" y1="177.6953" y2="177.6953"/><text fill="#000000" font-family="sans-serif" font-size="13" font-weight="bold" lengthAdjust="spacing" textLength="8" x="148" y="172.6294">3</text><text fill="#000000" font-family="sans-serif" font-size="13" lengthAdjust="spacing" textLength="138" x="160" y="172.6294">types requested data</text><polygon fill="#A80036" points="1059,202.8281,1069,206.8281,1059,210.8281,1063,206.8281" style="stroke:#A80036;stroke-width:1.0;"/><line style="stroke:#A80036;stroke-width:1.0;" x1="764" x2="1065" y1="206.8281" y2="206.8281"/><text fill="#000000" font-family="sans-serif" font-size="13" font-weight="bold" lengthAdjust="spacing" textLength="9" x="771" y="201.7622">4</text><text fill="#000000" font-family="sans-serif" font-size="13" lengthAdjust="spacing" textLength="125" x="784" y="201.7622">testExists(barcode)</text><polygon fill="#A80036" points="1334.5,231.9609,1344.5,235.9609,1334.5,239.9609,1338.5,235.9609" style="stroke:#A80036;stroke-width:1.0;"/><line style="stroke:#A80036;stroke-width:1.0;" x1="1081" x2="1340.5" y1="235.9609" y2="235.9609"/><text fill="#000000" font-family="sans-serif" font-size="13" font-weight="bold" lengthAdjust="spacing" textLength="9" x="1088" y="230.895">5</text><text fill="#000000" font-family="sans-serif" font-size="13" lengthAdjust="spacing" textLength="125" x="1101" y="230.895">testExists(barcode)</text><polygon fill="#A80036" points="1334.5,261.0938,1344.5,265.0938,1334.5,269.0938,1338.5,265.0938" style="stroke:#A80036;stroke-width:1.0;"/><line style="stroke:#A80036;stroke-width:1.0;" x1="1081" x2="1340.5" y1="265.0938" y2="265.0938"/><text fill="#000000" font-family="sans-serif" font-size="13" font-weight="bold" lengthAdjust="spacing" textLength="9" x="1088" y="260.0278">6</text><text fill="#000000" font-family="sans-serif" font-size="13" lengthAdjust="spacing" textLength="154" x="1101" y="260.0278">test = getTest(barcode)</text><polygon fill="#A80036" points="1334.5,290.2266,1344.5,294.2266,1334.5,298.2266,1338.5,294.2266" style="stroke:#A80036;stroke-width:1.0;"/><line style="stroke:#A80036;stroke-width:1.0;" x1="1076" x2="1340.5" y1="294.2266" y2="294.2266"/><text fill="#000000" font-family="sans-serif" font-size="13" font-weight="bold" lengthAdjust="spacing" textLength="9" x="1083" y="289.1606">7</text><text fill="#000000" font-family="sans-serif" font-size="13" lengthAdjust="spacing" textLength="186" x="1096" y="289.1606">parameterList = getList(test)</text><path d="M10,309.2266 L88,309.2266 L88,316.2266 L78,326.2266 L10,326.2266 L10,309.2266 " fill="#EEEEEE" style="stroke:#000000;stroke-width:1.0;"/><rect fill="none" height="571.5234" style="stroke:#000000;stroke-width:2.0;" width="2027" x="10" y="309.2266"/><text fill="#000000" font-family="sans-serif" font-size="13" font-weight="bold" lengthAdjust="spacing" textLength="33" x="25" y="322.2935">loop</text><text fill="#000000" font-family="sans-serif" font-size="11" font-weight="bold" lengthAdjust="spacing" textLength="277" x="103" y="321.437">[for each test parameter being analysed]</text><polygon fill="#A80036" points="152,343.4922,142,347.4922,152,351.4922,148,347.4922" style="stroke:#A80036;stroke-width:1.0;"/><line style="stroke:#A80036;stroke-width:1.0;stroke-dasharray:2.0,2.0;" x1="146" x2="753" y1="347.4922" y2="347.4922"/><text fill="#000000" font-family="sans-serif" font-size="13" font-weight="bold" lengthAdjust="spacing" textLength="9" x="158" y="342.4263">8</text><text fill="#000000" font-family="sans-serif" font-size="13" lengthAdjust="spacing" textLength="312" x="171" y="342.4263">shows test parameter list and asks to select one</text><polygon fill="#A80036" points="742,372.625,752,376.625,742,380.625,746,376.625" style="stroke:#A80036;stroke-width:1.0;"/><line style="stroke:#A80036;stroke-width:1.0;" x1="141" x2="748" y1="376.625" y2="376.625"/><text fill="#000000" font-family="sans-serif" font-size="13" font-weight="bold" lengthAdjust="spacing" textLength="9" x="148" y="371.5591">9</text><text fill="#000000" font-family="sans-serif" font-size="13" lengthAdjust="spacing" textLength="146" x="161" y="371.5591">selects test parameter</text><polygon fill="#A80036" points="152,401.7578,142,405.7578,152,409.7578,148,405.7578" style="stroke:#A80036;stroke-width:1.0;"/><line style="stroke:#A80036;stroke-width:1.0;stroke-dasharray:2.0,2.0;" x1="146" x2="753" y1="405.7578" y2="405.7578"/><text fill="#000000" font-family="sans-serif" font-size="13" font-weight="bold" lengthAdjust="spacing" textLength="19" x="158" y="400.6919">10</text><text fill="#000000" font-family="sans-serif" font-size="13" lengthAdjust="spacing" textLength="153" x="181" y="400.6919">request the result value</text><polygon fill="#A80036" points="742,430.8906,752,434.8906,742,438.8906,746,434.8906" style="stroke:#A80036;stroke-width:1.0;"/><line style="stroke:#A80036;stroke-width:1.0;" x1="141" x2="748" y1="434.8906" y2="434.8906"/><text fill="#000000" font-family="sans-serif" font-size="13" font-weight="bold" lengthAdjust="spacing" textLength="18" x="148" y="429.8247">11</text><text fill="#000000" font-family="sans-serif" font-size="13" lengthAdjust="spacing" textLength="138" x="170" y="429.8247">types requested data</text><polygon fill="#A80036" points="1059,460.0234,1069,464.0234,1059,468.0234,1063,464.0234" style="stroke:#A80036;stroke-width:1.0;"/><line style="stroke:#A80036;stroke-width:1.0;" x1="764" x2="1065" y1="464.0234" y2="464.0234"/><text fill="#000000" font-family="sans-serif" font-size="13" font-weight="bold" lengthAdjust="spacing" textLength="18" x="771" y="458.9575">12</text><text fill="#000000" font-family="sans-serif" font-size="13" lengthAdjust="spacing" textLength="266" x="793" y="458.9575">r = addTestResult(parameterCode,result)</text><polygon fill="#A80036" points="1650.5,489.1563,1660.5,493.1563,1650.5,497.1563,1654.5,493.1563" style="stroke:#A80036;stroke-width:1.0;"/><line style="stroke:#A80036;stroke-width:1.0;" x1="1076" x2="1656.5" y1="493.1563" y2="493.1563"/><text fill="#000000" font-family="sans-serif" font-size="13" font-weight="bold" lengthAdjust="spacing" textLength="17" x="1083" y="488.0903">13</text><text fill="#000000" font-family="sans-serif" font-size="13" lengthAdjust="spacing" textLength="266" x="1104" y="488.0903">r = addTestResult(parameterCode,result)</text><polygon fill="#A80036" points="1982.5,518.2891,1992.5,522.2891,1982.5,526.2891,1986.5,522.2891" style="stroke:#A80036;stroke-width:1.0;"/><line style="stroke:#A80036;stroke-width:1.0;" x1="1662.5" x2="1988.5" y1="522.2891" y2="522.2891"/><text fill="#000000" font-family="sans-serif" font-size="13" font-weight="bold" lengthAdjust="spacing" textLength="18" x="1669.5" y="517.2231">14</text><text fill="#000000" font-family="sans-serif" font-size="13" lengthAdjust="spacing" textLength="266" x="1691.5" y="517.2231">r = addTestResult(parameterCode,result)</text><rect fill="#FFFFFF" filter="url(#f1eae4p80um9je)" height="40.2656" style="stroke:#000000;stroke-width:2.0;" width="277" x="1969" y="530.2891"/><polygon fill="#EEEEEE" points="1969,530.2891,2037,530.2891,2037,537.2891,2027,547.2891,1969,547.2891,1969,530.2891" style="stroke:#000000;stroke-width:2.0;"/><text fill="#000000" font-family="sans-serif" font-size="13" font-weight="bold" lengthAdjust="spacing" textLength="23" x="1982" y="544.356">ref</text><text fill="#000000" font-family="sans-serif" font-size="13" lengthAdjust="spacing" textLength="269" x="1975" y="563.356">SD_AddTestResult(parameterCode,result)</text><polygon fill="#A80036" points="1087,592.6875,1077,596.6875,1087,600.6875,1083,596.6875" style="stroke:#A80036;stroke-width:1.0;"/><line style="stroke:#A80036;stroke-width:1.0;stroke-dasharray:2.0,2.0;" x1="1081" x2="1998.5" y1="596.6875" y2="596.6875"/><text fill="#000000" font-family="sans-serif" font-size="13" font-weight="bold" lengthAdjust="spacing" textLength="18" x="1093" y="591.6216">15</text><text fill="#000000" font-family="sans-serif" font-size="13" lengthAdjust="spacing" textLength="15" x="1115" y="591.6216">ok</text><polygon fill="#A80036" points="770,621.8203,760,625.8203,770,629.8203,766,625.8203" style="stroke:#A80036;stroke-width:1.0;"/><line style="stroke:#A80036;stroke-width:1.0;stroke-dasharray:2.0,2.0;" x1="764" x2="1075" y1="625.8203" y2="625.8203"/><text fill="#000000" font-family="sans-serif" font-size="13" font-weight="bold" lengthAdjust="spacing" textLength="18" x="776" y="620.7544">16</text><text fill="#000000" font-family="sans-serif" font-size="13" lengthAdjust="spacing" textLength="15" x="798" y="620.7544">ok</text><polygon fill="#A80036" points="152,650.9531,142,654.9531,152,658.9531,148,654.9531" style="stroke:#A80036;stroke-width:1.0;"/><line style="stroke:#A80036;stroke-width:1.0;stroke-dasharray:2.0,2.0;" x1="146" x2="758" y1="654.9531" y2="654.9531"/><text fill="#000000" font-family="sans-serif" font-size="13" font-weight="bold" lengthAdjust="spacing" textLength="18" x="158" y="649.8872">17</text><text fill="#000000" font-family="sans-serif" font-size="13" lengthAdjust="spacing" textLength="277" x="180" y="649.8872">shows the data and request a confirmation</text><polygon fill="#A80036" points="742,680.0859,752,684.0859,742,688.0859,746,684.0859" style="stroke:#A80036;stroke-width:1.0;"/><line style="stroke:#A80036;stroke-width:1.0;" x1="141" x2="748" y1="684.0859" y2="684.0859"/><text fill="#000000" font-family="sans-serif" font-size="13" font-weight="bold" lengthAdjust="spacing" textLength="18" x="148" y="679.02">18</text><text fill="#000000" font-family="sans-serif" font-size="13" lengthAdjust="spacing" textLength="114" x="170" y="679.02">confirms the data</text><polygon fill="#A80036" points="1059,709.2188,1069,713.2188,1059,717.2188,1063,713.2188" style="stroke:#A80036;stroke-width:1.0;"/><line style="stroke:#A80036;stroke-width:1.0;" x1="759" x2="1065" y1="713.2188" y2="713.2188"/><text fill="#000000" font-family="sans-serif" font-size="13" font-weight="bold" lengthAdjust="spacing" textLength="18" x="766" y="708.1528">19</text><text fill="#000000" font-family="sans-serif" font-size="13" lengthAdjust="spacing" textLength="234" x="788" y="708.1528">saveResultForParameter(testResult)</text><polygon fill="#A80036" points="1645.5,738.3516,1655.5,742.3516,1645.5,746.3516,1649.5,742.3516" style="stroke:#A80036;stroke-width:1.0;"/><line style="stroke:#A80036;stroke-width:1.0;" x1="1081" x2="1651.5" y1="742.3516" y2="742.3516"/><text fill="#000000" font-family="sans-serif" font-size="13" font-weight="bold" lengthAdjust="spacing" textLength="19" x="1088" y="737.2856">20</text><text fill="#000000" font-family="sans-serif" font-size="13" lengthAdjust="spacing" textLength="234" x="1111" y="737.2856">saveResultForParameter(testResult)</text><line style="stroke:#A80036;stroke-width:1.0;" x1="1667.5" x2="1714.5" y1="796.4844" y2="796.4844"/><line style="stroke:#A80036;stroke-width:1.0;" x1="1714.5" x2="1714.5" y1="796.4844" y2="809.4844"/><line style="stroke:#A80036;stroke-width:1.0;" x1="1673.5" x2="1714.5" y1="809.4844" y2="809.4844"/><polygon fill="#A80036" points="1683.5,805.4844,1673.5,809.4844,1683.5,813.4844,1679.5,809.4844" style="stroke:#A80036;stroke-width:1.0;"/><text fill="#000000" font-family="sans-serif" font-size="13" font-weight="bold" lengthAdjust="spacing" textLength="18" x="1679.5" y="791.4185">21</text><text fill="#000000" font-family="sans-serif" font-size="13" lengthAdjust="spacing" textLength="291" x="1701.5" y="791.4185">automaticValidationForParameter(testResult)</text><polygon fill="#A80036" points="1357.5,839.6172,1347.5,843.6172,1357.5,847.6172,1353.5,843.6172" style="stroke:#A80036;stroke-width:1.0;"/><line style="stroke:#A80036;stroke-width:1.0;" x1="1351.5" x2="1656.5" y1="843.6172" y2="843.6172"/><text fill="#000000" font-family="sans-serif" font-size="13" font-weight="bold" lengthAdjust="spacing" textLength="18" x="1363.5" y="838.5513">22</text><text fill="#000000" font-family="sans-serif" font-size="13" lengthAdjust="spacing" textLength="260" x="1385.5" y="838.5513">associateResultToParameter(testResult)</text><polygon fill="#A80036" points="152,868.75,142,872.75,152,876.75,148,872.75" style="stroke:#A80036;stroke-width:1.0;"/><line style="stroke:#A80036;stroke-width:1.0;stroke-dasharray:2.0,2.0;" x1="146" x2="758" y1="872.75" y2="872.75"/><text fill="#000000" font-family="sans-serif" font-size="13" font-weight="bold" lengthAdjust="spacing" textLength="17" x="158" y="867.6841">23</text><text fill="#000000" font-family="sans-serif" font-size="13" lengthAdjust="spacing" textLength="183" x="179" y="867.6841">informs operation in(sucess)</text><polygon fill="#A80036" points="1064,904.8828,1074,908.8828,1064,912.8828,1068,908.8828" style="stroke:#A80036;stroke-width:1.0;"/><line style="stroke:#A80036;stroke-width:1.0;" x1="759" x2="1070" y1="908.8828" y2="908.8828"/><text fill="#000000" font-family="sans-serif" font-size="13" font-weight="bold" lengthAdjust="spacing" textLength="18" x="766" y="903.8169">24</text><text fill="#000000" font-family="sans-serif" font-size="13" lengthAdjust="spacing" textLength="167" x="788" y="903.8169">changeStateOfTest(state)</text><polygon fill="#A80036" points="1987.5,934.0156,1997.5,938.0156,1987.5,942.0156,1991.5,938.0156" style="stroke:#A80036;stroke-width:1.0;"/><line style="stroke:#A80036;stroke-width:1.0;" x1="1076" x2="1993.5" y1="938.0156" y2="938.0156"/><text fill="#000000" font-family="sans-serif" font-size="13" font-weight="bold" lengthAdjust="spacing" textLength="18" x="1083" y="932.9497">25</text><text fill="#000000" font-family="sans-serif" font-size="13" lengthAdjust="spacing" textLength="167" x="1105" y="932.9497">changeStateOfTest(state)</text><polygon fill="#A80036" points="152,963.1484,142,967.1484,152,971.1484,148,967.1484" style="stroke:#A80036;stroke-width:1.0;"/><line style="stroke:#A80036;stroke-width:1.0;stroke-dasharray:2.0,2.0;" x1="146" x2="758" y1="967.1484" y2="967.1484"/><text fill="#000000" font-family="sans-serif" font-size="13" font-weight="bold" lengthAdjust="spacing" textLength="18" x="158" y="962.0825">26</text><text fill="#000000" font-family="sans-serif" font-size="13" lengthAdjust="spacing" textLength="216" x="180" y="962.0825">informs operation was completed</text><!--MD5=[811c8201a40adfa13e86c48b292d9040]
@startuml
autonumber
actor "Clinical Chemistry Technologist" as TECH

participant ":RecordTestResultUI" as UI
participant ":RecordTestResultController" as CTRL
participant ":Company" as CMP
participant ":TestStore" as TSTSTR
participant "testResultStore:TestResultStore" as TSTRESSTR
participant ":Test" as TST
participant "testResult:TestParameterResult" as TSTPARAMRES
participant "testParam:TestParam" as TSTPARAM
participant "type:TypeTest" as TYPTST
participant "refValue:ReferenceValue" as RFRVAL

participant "automaticValidation:AutomaticValidationParameters" as AVP





activate TECH
TECH-> UI : selects to start recording the results of a given test 

activate UI
UI - -> TECH: request to introduce barcode from a sample of the test where the results will be recorded
deactivate UI

TECH-> UI : types requested data
activate UI

UI -> CTRL : testExists(barcode)
activate CTRL
CTRL -> TSTSTR : testExists(barcode)

CTRL -> TSTSTR : test = getTest(barcode)
CTRL -> TSTSTR : parameterList = getList(test)





deactivate CTRL

loop for each test parameter being analysed

UI - -> TECH : shows test parameter list and asks to select one
TECH -> UI : selects test parameter
UI - -> TECH : request the result value
TECH -> UI : types requested data
UI -> CTRL : r = addTestResult(parameterCode,result)
activate CTRL
activate TST
CTRL -> TSTRESSTR : r = addTestResult(parameterCode,result)
deactivate CTRL
TSTRESSTR -> TST  : r = addTestResult(parameterCode,result)


deactivate CTRL
ref over TST
SD_AddTestResult(parameterCode,result)
end ref

TST - -> CTRL : ok
deactivate TST
CTRL - -> UI : ok
deactivate UI

UI - -> TECH: shows the data and request a confirmation




TECH -> UI : confirms the data
activate UI
UI -> CTRL : saveResultForParameter(testResult)
deactivate UI
activate CTRL

CTRL -> TSTRESSTR: saveResultForParameter(testResult)
activate TSTRESSTR
deactivate CTRLT






TSTRESSTR-> TSTRESSTR: automaticValidationForParameter(testResult)

activate TSTSTR


TSTRESSTR-> TSTSTR   : associateResultToParameter(testResult)

deactivate TSTSTR

UI - -> TECH : informs operation in(sucess)
deactivate TSTRESSTR


deactivate CMP


end

deactivate CTRL

UI -> CTRL : changeStateOfTest(state)

CTRL -> TST : changeStateOfTest(state)

UI - -> TECH : informs operation was completed


deactivate UI
@enduml

PlantUML version 1.2021.7beta2(Unknown compile time)
(GPL source distribution)
Java Runtime: Java(TM) SE Runtime Environment
JVM: Java HotSpot(TM) 64-Bit Server VM
Default Encoding: UTF-8
Language: en
Country: US
--></g></svg>