<?xml version="1.0" encoding="UTF-8" standalone="no"?><svg xmlns="http://www.w3.org/2000/svg" xmlns:xlink="http://www.w3.org/1999/xlink" contentScriptType="application/ecmascript" contentStyleType="text/css" height="985px" preserveAspectRatio="none" style="width:2118px;height:985px;background:#FFFFFF;" version="1.1" viewBox="0 0 2118 985" width="2118px" zoomAndPan="magnify"><defs><filter height="300%" id="f1r6oas03osrdy" width="300%" x="-1" y="-1"><feGaussianBlur result="blurOut" stdDeviation="2.0"/><feColorMatrix in="blurOut" result="blurOut2" type="matrix" values="0 0 0 0 0 0 0 0 0 0 0 0 0 0 0 0 0 0 .4 0"/><feOffset dx="4.0" dy="4.0" in="blurOut2" result="blurOut3"/><feBlend in="SourceGraphic" in2="blurOut3" mode="normal"/></filter></defs><g><!--MD5=[1f6362a5c8f21d8d6a0fce68f3a92a4e]
class Parameter--><rect codeLine="3" fill="#FEFECE" filter="url(#f1r6oas03osrdy)" height="86.4141" id="Parameter" style="stroke:#A80036;stroke-width:1.5;" width="93" x="176" y="878.5"/><ellipse cx="191" cy="894.5" fill="#ADD1B2" rx="11" ry="11" style="stroke:#A80036;stroke-width:1.0;"/><path d="M193.3438,890.1719 C192.4063,889.7344 191.8125,889.5938 190.9375,889.5938 C188.3125,889.5938 186.3125,891.6719 186.3125,894.3906 L186.3125,895.5156 C186.3125,898.0938 188.4219,899.9844 191.3125,899.9844 C192.5313,899.9844 193.6875,899.6875 194.4375,899.1406 C195.0156,898.7344 195.3438,898.2813 195.3438,897.8906 C195.3438,897.4375 194.9531,897.0469 194.4844,897.0469 C194.2656,897.0469 194.0625,897.125 193.875,897.3125 C193.4219,897.7969 193.4219,897.7969 193.2344,897.8906 C192.8125,898.1563 192.125,898.2813 191.3594,898.2813 C189.3125,898.2813 188.0156,897.1875 188.0156,895.4844 L188.0156,894.3906 C188.0156,892.6094 189.2656,891.2969 191,891.2969 C191.5781,891.2969 192.1875,891.4531 192.6563,891.7031 C193.1406,891.9844 193.3125,892.2031 193.4063,892.6094 C193.4688,893.0156 193.5,893.1406 193.6406,893.2656 C193.7813,893.4063 194.0156,893.5156 194.2344,893.5156 C194.5,893.5156 194.7656,893.375 194.9375,893.1563 C195.0469,893 195.0781,892.8125 195.0781,892.3906 L195.0781,890.9688 C195.0781,890.5313 195.0625,890.4063 194.9688,890.25 C194.8125,889.9844 194.5313,889.8438 194.2344,889.8438 C193.9375,889.8438 193.7344,889.9375 193.5156,890.25 L193.3438,890.1719 Z " fill="#000000"/><text fill="#000000" font-family="sans-serif" font-size="12" lengthAdjust="spacing" textLength="61" x="205" y="898.6543">Parameter</text><line style="stroke:#A80036;stroke-width:1.5;" x1="177" x2="268" y1="910.5" y2="910.5"/><text fill="#000000" font-family="sans-serif" font-size="11" lengthAdjust="spacing" textLength="32" x="182" y="924.7104">-code</text><text fill="#000000" font-family="sans-serif" font-size="11" lengthAdjust="spacing" textLength="66" x="182" y="937.5151">-shortName</text><text fill="#000000" font-family="sans-serif" font-size="11" lengthAdjust="spacing" textLength="66" x="182" y="950.3198">-description</text><line style="stroke:#A80036;stroke-width:1.5;" x1="177" x2="268" y1="956.9141" y2="956.9141"/><!--MD5=[62bdb6435f21fcc181756dc3392fb99a]
class RecordTestResultUI--><rect codeLine="9" fill="#FEFECE" filter="url(#f1r6oas03osrdy)" height="48" id="RecordTestResultUI" style="stroke:#A80036;stroke-width:1.5;" width="149" x="245" y="7"/><ellipse cx="260" cy="23" fill="#ADD1B2" rx="11" ry="11" style="stroke:#A80036;stroke-width:1.0;"/><path d="M262.3438,18.6719 C261.4063,18.2344 260.8125,18.0938 259.9375,18.0938 C257.3125,18.0938 255.3125,20.1719 255.3125,22.8906 L255.3125,24.0156 C255.3125,26.5938 257.4219,28.4844 260.3125,28.4844 C261.5313,28.4844 262.6875,28.1875 263.4375,27.6406 C264.0156,27.2344 264.3438,26.7813 264.3438,26.3906 C264.3438,25.9375 263.9531,25.5469 263.4844,25.5469 C263.2656,25.5469 263.0625,25.625 262.875,25.8125 C262.4219,26.2969 262.4219,26.2969 262.2344,26.3906 C261.8125,26.6563 261.125,26.7813 260.3594,26.7813 C258.3125,26.7813 257.0156,25.6875 257.0156,23.9844 L257.0156,22.8906 C257.0156,21.1094 258.2656,19.7969 260,19.7969 C260.5781,19.7969 261.1875,19.9531 261.6563,20.2031 C262.1406,20.4844 262.3125,20.7031 262.4063,21.1094 C262.4688,21.5156 262.5,21.6406 262.6406,21.7656 C262.7813,21.9063 263.0156,22.0156 263.2344,22.0156 C263.5,22.0156 263.7656,21.875 263.9375,21.6563 C264.0469,21.5 264.0781,21.3125 264.0781,20.8906 L264.0781,19.4688 C264.0781,19.0313 264.0625,18.9063 263.9688,18.75 C263.8125,18.4844 263.5313,18.3438 263.2344,18.3438 C262.9375,18.3438 262.7344,18.4375 262.5156,18.75 L262.3438,18.6719 Z " fill="#000000"/><text fill="#000000" font-family="sans-serif" font-size="12" lengthAdjust="spacing" textLength="117" x="274" y="27.1543">RecordTestResultUI</text><line style="stroke:#A80036;stroke-width:1.5;" x1="246" x2="393" y1="39" y2="39"/><line style="stroke:#A80036;stroke-width:1.5;" x1="246" x2="393" y1="47" y2="47"/><!--MD5=[ef30bcd9a8851b2fb15fb683dae6a22f]
class RecordTestResultController--><rect codeLine="12" fill="#FEFECE" filter="url(#f1r6oas03osrdy)" height="112.0234" id="RecordTestResultController" style="stroke:#A80036;stroke-width:1.5;" width="272" x="183.5" y="116"/><ellipse cx="233.25" cy="132" fill="#ADD1B2" rx="11" ry="11" style="stroke:#A80036;stroke-width:1.0;"/><path d="M235.5938,127.6719 C234.6563,127.2344 234.0625,127.0938 233.1875,127.0938 C230.5625,127.0938 228.5625,129.1719 228.5625,131.8906 L228.5625,133.0156 C228.5625,135.5938 230.6719,137.4844 233.5625,137.4844 C234.7813,137.4844 235.9375,137.1875 236.6875,136.6406 C237.2656,136.2344 237.5938,135.7813 237.5938,135.3906 C237.5938,134.9375 237.2031,134.5469 236.7344,134.5469 C236.5156,134.5469 236.3125,134.625 236.125,134.8125 C235.6719,135.2969 235.6719,135.2969 235.4844,135.3906 C235.0625,135.6563 234.375,135.7813 233.6094,135.7813 C231.5625,135.7813 230.2656,134.6875 230.2656,132.9844 L230.2656,131.8906 C230.2656,130.1094 231.5156,128.7969 233.25,128.7969 C233.8281,128.7969 234.4375,128.9531 234.9063,129.2031 C235.3906,129.4844 235.5625,129.7031 235.6563,130.1094 C235.7188,130.5156 235.75,130.6406 235.8906,130.7656 C236.0313,130.9063 236.2656,131.0156 236.4844,131.0156 C236.75,131.0156 237.0156,130.875 237.1875,130.6563 C237.2969,130.5 237.3281,130.3125 237.3281,129.8906 L237.3281,128.4688 C237.3281,128.0313 237.3125,127.9063 237.2188,127.75 C237.0625,127.4844 236.7813,127.3438 236.4844,127.3438 C236.1875,127.3438 235.9844,127.4375 235.7656,127.75 L235.5938,127.6719 Z " fill="#000000"/><text fill="#000000" font-family="sans-serif" font-size="12" lengthAdjust="spacing" textLength="164" x="253.75" y="136.1543">RecordTestResultController</text><line style="stroke:#A80036;stroke-width:1.5;" x1="184.5" x2="454.5" y1="148" y2="148"/><line style="stroke:#A80036;stroke-width:1.5;" x1="184.5" x2="454.5" y1="156" y2="156"/><text fill="#000000" font-family="sans-serif" font-size="11" lengthAdjust="spacing" textLength="118" x="189.5" y="170.2104">+testExists(barcode)</text><text fill="#000000" font-family="sans-serif" font-size="11" lengthAdjust="spacing" textLength="107" x="189.5" y="183.0151">+getTest(barcode)</text><text fill="#000000" font-family="sans-serif" font-size="11" lengthAdjust="spacing" textLength="207" x="189.5" y="195.8198">+getListOfParametersSelected(test)</text><text fill="#000000" font-family="sans-serif" font-size="11" lengthAdjust="spacing" textLength="223" x="189.5" y="208.6245">+addTestResult(parameterCode,result)</text><text fill="#000000" font-family="sans-serif" font-size="11" lengthAdjust="spacing" textLength="260" x="189.5" y="221.4292">+getTestResultByParameter(parameterCode)</text><!--MD5=[0f07739f46effee96e095e9c408da841]
class TestParameter--><rect codeLine="20" fill="#FEFECE" filter="url(#f1r6oas03osrdy)" height="73.6094" id="TestParameter" style="stroke:#A80036;stroke-width:1.5;" width="249" x="361" y="884.5"/><ellipse cx="437.75" cy="900.5" fill="#ADD1B2" rx="11" ry="11" style="stroke:#A80036;stroke-width:1.0;"/><path d="M440.0938,896.1719 C439.1563,895.7344 438.5625,895.5938 437.6875,895.5938 C435.0625,895.5938 433.0625,897.6719 433.0625,900.3906 L433.0625,901.5156 C433.0625,904.0938 435.1719,905.9844 438.0625,905.9844 C439.2813,905.9844 440.4375,905.6875 441.1875,905.1406 C441.7656,904.7344 442.0938,904.2813 442.0938,903.8906 C442.0938,903.4375 441.7031,903.0469 441.2344,903.0469 C441.0156,903.0469 440.8125,903.125 440.625,903.3125 C440.1719,903.7969 440.1719,903.7969 439.9844,903.8906 C439.5625,904.1563 438.875,904.2813 438.1094,904.2813 C436.0625,904.2813 434.7656,903.1875 434.7656,901.4844 L434.7656,900.3906 C434.7656,898.6094 436.0156,897.2969 437.75,897.2969 C438.3281,897.2969 438.9375,897.4531 439.4063,897.7031 C439.8906,897.9844 440.0625,898.2031 440.1563,898.6094 C440.2188,899.0156 440.25,899.1406 440.3906,899.2656 C440.5313,899.4063 440.7656,899.5156 440.9844,899.5156 C441.25,899.5156 441.5156,899.375 441.6875,899.1563 C441.7969,899 441.8281,898.8125 441.8281,898.3906 L441.8281,896.9688 C441.8281,896.5313 441.8125,896.4063 441.7188,896.25 C441.5625,895.9844 441.2813,895.8438 440.9844,895.8438 C440.6875,895.8438 440.4844,895.9375 440.2656,896.25 L440.0938,896.1719 Z " fill="#000000"/><text fill="#000000" font-family="sans-serif" font-size="12" lengthAdjust="spacing" textLength="87" x="458.25" y="904.6543">TestParameter</text><line style="stroke:#A80036;stroke-width:1.5;" x1="362" x2="609" y1="916.5" y2="916.5"/><line style="stroke:#A80036;stroke-width:1.5;" x1="362" x2="609" y1="924.5" y2="924.5"/><text fill="#000000" font-family="sans-serif" font-size="11" lengthAdjust="spacing" textLength="95" x="367" y="938.7104">+getParameter()</text><text fill="#000000" font-family="sans-serif" font-size="11" lengthAdjust="spacing" textLength="237" x="367" y="951.5151">+addResult(result,metric,referenceValue)</text><!--MD5=[df38be88ccee13e832d6fafd6288a4ca]
class Test--><rect codeLine="25" fill="#FEFECE" filter="url(#f1r6oas03osrdy)" height="240.0703" id="Test" style="stroke:#A80036;stroke-width:1.5;" width="621" x="175" y="555"/><ellipse cx="468.25" cy="571" fill="#ADD1B2" rx="11" ry="11" style="stroke:#A80036;stroke-width:1.0;"/><path d="M470.5938,566.6719 C469.6563,566.2344 469.0625,566.0938 468.1875,566.0938 C465.5625,566.0938 463.5625,568.1719 463.5625,570.8906 L463.5625,572.0156 C463.5625,574.5938 465.6719,576.4844 468.5625,576.4844 C469.7813,576.4844 470.9375,576.1875 471.6875,575.6406 C472.2656,575.2344 472.5938,574.7813 472.5938,574.3906 C472.5938,573.9375 472.2031,573.5469 471.7344,573.5469 C471.5156,573.5469 471.3125,573.625 471.125,573.8125 C470.6719,574.2969 470.6719,574.2969 470.4844,574.3906 C470.0625,574.6563 469.375,574.7813 468.6094,574.7813 C466.5625,574.7813 465.2656,573.6875 465.2656,571.9844 L465.2656,570.8906 C465.2656,569.1094 466.5156,567.7969 468.25,567.7969 C468.8281,567.7969 469.4375,567.9531 469.9063,568.2031 C470.3906,568.4844 470.5625,568.7031 470.6563,569.1094 C470.7188,569.5156 470.75,569.6406 470.8906,569.7656 C471.0313,569.9063 471.2656,570.0156 471.4844,570.0156 C471.75,570.0156 472.0156,569.875 472.1875,569.6563 C472.2969,569.5 472.3281,569.3125 472.3281,568.8906 L472.3281,567.4688 C472.3281,567.0313 472.3125,566.9063 472.2188,566.75 C472.0625,566.4844 471.7813,566.3438 471.4844,566.3438 C471.1875,566.3438 470.9844,566.4375 470.7656,566.75 L470.5938,566.6719 Z " fill="#000000"/><text fill="#000000" font-family="sans-serif" font-size="12" lengthAdjust="spacing" textLength="26" x="488.75" y="575.1543">Test</text><line style="stroke:#A80036;stroke-width:1.5;" x1="176" x2="795" y1="587" y2="587"/><text fill="#000000" font-family="sans-serif" font-size="11" lengthAdjust="spacing" textLength="94" x="181" y="601.2104">-String nhsCode;</text><text fill="#000000" font-family="sans-serif" font-size="11" lengthAdjust="spacing" textLength="117" x="181" y="614.0151">-String internalCode;</text><text fill="#000000" font-family="sans-serif" font-size="11" lengthAdjust="spacing" textLength="75" x="181" y="626.8198">-Client client;</text><text fill="#000000" font-family="sans-serif" font-size="11" lengthAdjust="spacing" textLength="116" x="181" y="639.6245">-TestType testType;</text><text fill="#000000" font-family="sans-serif" font-size="11" lengthAdjust="spacing" textLength="184" x="181" y="652.4292">-String sampleCollectionMethod;</text><text fill="#000000" font-family="sans-serif" font-size="11" lengthAdjust="spacing" textLength="279" x="181" y="665.2339">-List &lt;ParameterCategory&gt;  parameterCategory;</text><text fill="#000000" font-family="sans-serif" font-size="11" lengthAdjust="spacing" textLength="171" x="181" y="678.0386">-List &lt;Parameter&gt; parameter;</text><text fill="#000000" font-family="sans-serif" font-size="11" lengthAdjust="spacing" textLength="131" x="181" y="690.8433">-Date registrationDate;</text><text fill="#000000" font-family="sans-serif" font-size="11" lengthAdjust="spacing" textLength="171" x="181" y="703.6479">-Date samplesCollectionDate;</text><text fill="#000000" font-family="sans-serif" font-size="11" lengthAdjust="spacing" textLength="165" x="181" y="716.4526">-Date chemicalAnalysisDate;</text><text fill="#000000" font-family="sans-serif" font-size="11" lengthAdjust="spacing" textLength="120" x="181" y="729.2573">-Date diagnosisDate;</text><text fill="#000000" font-family="sans-serif" font-size="11" lengthAdjust="spacing" textLength="122" x="181" y="742.062">-Date validationDate;</text><line style="stroke:#A80036;stroke-width:1.5;" x1="176" x2="795" y1="748.6563" y2="748.6563"/><text fill="#000000" font-family="sans-serif" font-size="11" lengthAdjust="spacing" textLength="609" x="181" y="762.8667">+Test(nhsCode, internalCode, client, testType, sCM,category, parameter, rD, sCD, cAD, diagnosisDate, vD)</text><text fill="#000000" font-family="sans-serif" font-size="11" lengthAdjust="spacing" textLength="268" x="181" y="775.6714">+addTestResults(parameterCode,result,metric)</text><text fill="#000000" font-family="sans-serif" font-size="11" lengthAdjust="spacing" textLength="222" x="181" y="788.4761">-getTestParameterFor(parameterCode)</text><!--MD5=[8f188b89eff49accb0f38c057b38a9f2]
class ExternalModule--><rect codeLine="43" fill="#FEFECE" filter="url(#f1r6oas03osrdy)" height="60.8047" id="ExternalModule" style="stroke:#A80036;stroke-width:1.5;" width="337" x="1395" y="644.5"/><ellipse cx="1512.75" cy="660.5" fill="#B4A7E5" rx="11" ry="11" style="stroke:#A80036;stroke-width:1.0;"/><path d="M1513.7031,657.2813 L1515.4219,657.2813 C1515.8125,657.2813 1516,657.25 1516.125,657.1719 C1516.3906,657.0156 1516.5313,656.7344 1516.5313,656.4375 C1516.5313,656.1719 1516.4219,655.9063 1516.1875,655.7344 C1516.0156,655.625 1515.875,655.5938 1515.4219,655.5938 L1510.2813,655.5938 C1509.8438,655.5938 1509.7188,655.6094 1509.5625,655.7031 C1509.3125,655.8594 1509.1563,656.1563 1509.1563,656.4375 C1509.1563,656.7188 1509.2969,656.9688 1509.5156,657.1406 C1509.6719,657.25 1509.8594,657.2813 1510.2813,657.2813 L1512,657.2813 L1512,663.7969 L1510.2813,663.7969 C1509.8438,663.7969 1509.7188,663.8125 1509.5625,663.9219 C1509.3125,664.0781 1509.1563,664.3594 1509.1563,664.6563 C1509.1563,664.9063 1509.2969,665.1719 1509.5156,665.3281 C1509.6719,665.4531 1509.875,665.5 1510.2813,665.5 L1515.4219,665.5 C1516.1719,665.5 1516.5313,665.2188 1516.5313,664.6563 C1516.5313,664.375 1516.4219,664.125 1516.1875,663.9531 C1516.0156,663.8281 1515.875,663.7969 1515.4219,663.7969 L1513.7031,663.7969 L1513.7031,657.2813 Z " fill="#000000"/><text fill="#000000" font-family="sans-serif" font-size="12" font-style="italic" lengthAdjust="spacing" textLength="93" x="1533.25" y="664.6543">ExternalModule</text><line style="stroke:#A80036;stroke-width:1.5;" x1="1396" x2="1731" y1="676.5" y2="676.5"/><line style="stroke:#A80036;stroke-width:1.5;" x1="1396" x2="1731" y1="684.5" y2="684.5"/><text fill="#000000" font-family="sans-serif" font-size="11" lengthAdjust="spacing" textLength="325" x="1401" y="698.7104">+ReferenceValue getReferenceValue(Parameter param)</text><!--MD5=[0f11f0f60ee567100a99d4d7b98e8e2f]
class ExternalModuleAdapter1--><rect codeLine="47" fill="#FEFECE" filter="url(#f1r6oas03osrdy)" height="60.8047" id="ExternalModuleAdapter1" style="stroke:#A80036;stroke-width:1.5;" width="337" x="1023" y="353"/><ellipse cx="1113.75" cy="369" fill="#ADD1B2" rx="11" ry="11" style="stroke:#A80036;stroke-width:1.0;"/><path d="M1116.0938,364.6719 C1115.1563,364.2344 1114.5625,364.0938 1113.6875,364.0938 C1111.0625,364.0938 1109.0625,366.1719 1109.0625,368.8906 L1109.0625,370.0156 C1109.0625,372.5938 1111.1719,374.4844 1114.0625,374.4844 C1115.2813,374.4844 1116.4375,374.1875 1117.1875,373.6406 C1117.7656,373.2344 1118.0938,372.7813 1118.0938,372.3906 C1118.0938,371.9375 1117.7031,371.5469 1117.2344,371.5469 C1117.0156,371.5469 1116.8125,371.625 1116.625,371.8125 C1116.1719,372.2969 1116.1719,372.2969 1115.9844,372.3906 C1115.5625,372.6563 1114.875,372.7813 1114.1094,372.7813 C1112.0625,372.7813 1110.7656,371.6875 1110.7656,369.9844 L1110.7656,368.8906 C1110.7656,367.1094 1112.0156,365.7969 1113.75,365.7969 C1114.3281,365.7969 1114.9375,365.9531 1115.4063,366.2031 C1115.8906,366.4844 1116.0625,366.7031 1116.1563,367.1094 C1116.2188,367.5156 1116.25,367.6406 1116.3906,367.7656 C1116.5313,367.9063 1116.7656,368.0156 1116.9844,368.0156 C1117.25,368.0156 1117.5156,367.875 1117.6875,367.6563 C1117.7969,367.5 1117.8281,367.3125 1117.8281,366.8906 L1117.8281,365.4688 C1117.8281,365.0313 1117.8125,364.9063 1117.7188,364.75 C1117.5625,364.4844 1117.2813,364.3438 1116.9844,364.3438 C1116.6875,364.3438 1116.4844,364.4375 1116.2656,364.75 L1116.0938,364.6719 Z " fill="#000000"/><text fill="#000000" font-family="sans-serif" font-size="12" lengthAdjust="spacing" textLength="147" x="1134.25" y="373.1543">ExternalModuleAdapter1</text><line style="stroke:#A80036;stroke-width:1.5;" x1="1024" x2="1359" y1="385" y2="385"/><line style="stroke:#A80036;stroke-width:1.5;" x1="1024" x2="1359" y1="393" y2="393"/><text fill="#000000" font-family="sans-serif" font-size="11" lengthAdjust="spacing" textLength="325" x="1029" y="407.2104">+ReferenceValue getReferenceValue(Parameter param)</text><!--MD5=[2191233c03d1d98f88ead7aa4dd76da0]
class ExternalModuleAdapter2--><rect codeLine="51" fill="#FEFECE" filter="url(#f1r6oas03osrdy)" height="60.8047" id="ExternalModuleAdapter2" style="stroke:#A80036;stroke-width:1.5;" width="337" x="1395" y="353"/><ellipse cx="1485.25" cy="369" fill="#ADD1B2" rx="11" ry="11" style="stroke:#A80036;stroke-width:1.0;"/><path d="M1487.5938,364.6719 C1486.6563,364.2344 1486.0625,364.0938 1485.1875,364.0938 C1482.5625,364.0938 1480.5625,366.1719 1480.5625,368.8906 L1480.5625,370.0156 C1480.5625,372.5938 1482.6719,374.4844 1485.5625,374.4844 C1486.7813,374.4844 1487.9375,374.1875 1488.6875,373.6406 C1489.2656,373.2344 1489.5938,372.7813 1489.5938,372.3906 C1489.5938,371.9375 1489.2031,371.5469 1488.7344,371.5469 C1488.5156,371.5469 1488.3125,371.625 1488.125,371.8125 C1487.6719,372.2969 1487.6719,372.2969 1487.4844,372.3906 C1487.0625,372.6563 1486.375,372.7813 1485.6094,372.7813 C1483.5625,372.7813 1482.2656,371.6875 1482.2656,369.9844 L1482.2656,368.8906 C1482.2656,367.1094 1483.5156,365.7969 1485.25,365.7969 C1485.8281,365.7969 1486.4375,365.9531 1486.9063,366.2031 C1487.3906,366.4844 1487.5625,366.7031 1487.6563,367.1094 C1487.7188,367.5156 1487.75,367.6406 1487.8906,367.7656 C1488.0313,367.9063 1488.2656,368.0156 1488.4844,368.0156 C1488.75,368.0156 1489.0156,367.875 1489.1875,367.6563 C1489.2969,367.5 1489.3281,367.3125 1489.3281,366.8906 L1489.3281,365.4688 C1489.3281,365.0313 1489.3125,364.9063 1489.2188,364.75 C1489.0625,364.4844 1488.7813,364.3438 1488.4844,364.3438 C1488.1875,364.3438 1487.9844,364.4375 1487.7656,364.75 L1487.5938,364.6719 Z " fill="#000000"/><text fill="#000000" font-family="sans-serif" font-size="12" lengthAdjust="spacing" textLength="148" x="1505.75" y="373.1543">ExternalModuleAdapter2</text><line style="stroke:#A80036;stroke-width:1.5;" x1="1396" x2="1731" y1="385" y2="385"/><line style="stroke:#A80036;stroke-width:1.5;" x1="1396" x2="1731" y1="393" y2="393"/><text fill="#000000" font-family="sans-serif" font-size="11" lengthAdjust="spacing" textLength="325" x="1401" y="407.2104">+ReferenceValue getReferenceValue(Parameter param)</text><!--MD5=[63386ce01156be326996be41135b9514]
class ExternalModuleAdapter3--><rect codeLine="55" fill="#FEFECE" filter="url(#f1r6oas03osrdy)" height="60.8047" id="ExternalModuleAdapter3" style="stroke:#A80036;stroke-width:1.5;" width="337" x="1767" y="353"/><ellipse cx="1857.25" cy="369" fill="#ADD1B2" rx="11" ry="11" style="stroke:#A80036;stroke-width:1.0;"/><path d="M1859.5938,364.6719 C1858.6563,364.2344 1858.0625,364.0938 1857.1875,364.0938 C1854.5625,364.0938 1852.5625,366.1719 1852.5625,368.8906 L1852.5625,370.0156 C1852.5625,372.5938 1854.6719,374.4844 1857.5625,374.4844 C1858.7813,374.4844 1859.9375,374.1875 1860.6875,373.6406 C1861.2656,373.2344 1861.5938,372.7813 1861.5938,372.3906 C1861.5938,371.9375 1861.2031,371.5469 1860.7344,371.5469 C1860.5156,371.5469 1860.3125,371.625 1860.125,371.8125 C1859.6719,372.2969 1859.6719,372.2969 1859.4844,372.3906 C1859.0625,372.6563 1858.375,372.7813 1857.6094,372.7813 C1855.5625,372.7813 1854.2656,371.6875 1854.2656,369.9844 L1854.2656,368.8906 C1854.2656,367.1094 1855.5156,365.7969 1857.25,365.7969 C1857.8281,365.7969 1858.4375,365.9531 1858.9063,366.2031 C1859.3906,366.4844 1859.5625,366.7031 1859.6563,367.1094 C1859.7188,367.5156 1859.75,367.6406 1859.8906,367.7656 C1860.0313,367.9063 1860.2656,368.0156 1860.4844,368.0156 C1860.75,368.0156 1861.0156,367.875 1861.1875,367.6563 C1861.2969,367.5 1861.3281,367.3125 1861.3281,366.8906 L1861.3281,365.4688 C1861.3281,365.0313 1861.3125,364.9063 1861.2188,364.75 C1861.0625,364.4844 1860.7813,364.3438 1860.4844,364.3438 C1860.1875,364.3438 1859.9844,364.4375 1859.7656,364.75 L1859.5938,364.6719 Z " fill="#000000"/><text fill="#000000" font-family="sans-serif" font-size="12" lengthAdjust="spacing" textLength="148" x="1877.75" y="373.1543">ExternalModuleAdapter3</text><line style="stroke:#A80036;stroke-width:1.5;" x1="1768" x2="2103" y1="385" y2="385"/><line style="stroke:#A80036;stroke-width:1.5;" x1="1768" x2="2103" y1="393" y2="393"/><text fill="#000000" font-family="sans-serif" font-size="11" lengthAdjust="spacing" textLength="325" x="1773" y="407.2104">+ReferenceValue getReferenceValue(Parameter param)</text><!--MD5=[aeb3272166074d8737a70b61b1e71682]
class TestType--><rect codeLine="59" fill="#FEFECE" filter="url(#f1r6oas03osrdy)" height="124.8281" id="TestType" style="stroke:#A80036;stroke-width:1.5;" width="412" x="859.5" y="612.5"/><ellipse cx="1033.25" cy="628.5" fill="#ADD1B2" rx="11" ry="11" style="stroke:#A80036;stroke-width:1.0;"/><path d="M1035.5938,624.1719 C1034.6563,623.7344 1034.0625,623.5938 1033.1875,623.5938 C1030.5625,623.5938 1028.5625,625.6719 1028.5625,628.3906 L1028.5625,629.5156 C1028.5625,632.0938 1030.6719,633.9844 1033.5625,633.9844 C1034.7813,633.9844 1035.9375,633.6875 1036.6875,633.1406 C1037.2656,632.7344 1037.5938,632.2813 1037.5938,631.8906 C1037.5938,631.4375 1037.2031,631.0469 1036.7344,631.0469 C1036.5156,631.0469 1036.3125,631.125 1036.125,631.3125 C1035.6719,631.7969 1035.6719,631.7969 1035.4844,631.8906 C1035.0625,632.1563 1034.375,632.2813 1033.6094,632.2813 C1031.5625,632.2813 1030.2656,631.1875 1030.2656,629.4844 L1030.2656,628.3906 C1030.2656,626.6094 1031.5156,625.2969 1033.25,625.2969 C1033.8281,625.2969 1034.4375,625.4531 1034.9063,625.7031 C1035.3906,625.9844 1035.5625,626.2031 1035.6563,626.6094 C1035.7188,627.0156 1035.75,627.1406 1035.8906,627.2656 C1036.0313,627.4063 1036.2656,627.5156 1036.4844,627.5156 C1036.75,627.5156 1037.0156,627.375 1037.1875,627.1563 C1037.2969,627 1037.3281,626.8125 1037.3281,626.3906 L1037.3281,624.9688 C1037.3281,624.5313 1037.3125,624.4063 1037.2188,624.25 C1037.0625,623.9844 1036.7813,623.8438 1036.4844,623.8438 C1036.1875,623.8438 1035.9844,623.9375 1035.7656,624.25 L1035.5938,624.1719 Z " fill="#000000"/><text fill="#000000" font-family="sans-serif" font-size="12" lengthAdjust="spacing" textLength="56" x="1053.75" y="632.6543">TestType</text><line style="stroke:#A80036;stroke-width:1.5;" x1="860.5" x2="1270.5" y1="644.5" y2="644.5"/><text fill="#000000" font-family="sans-serif" font-size="11" lengthAdjust="spacing" textLength="69" x="865.5" y="658.7104">-String code</text><text fill="#000000" font-family="sans-serif" font-size="11" lengthAdjust="spacing" textLength="103" x="865.5" y="671.5151">-String description</text><text fill="#000000" font-family="sans-serif" font-size="11" lengthAdjust="spacing" textLength="137" x="865.5" y="684.3198">-String collectingMethod</text><text fill="#000000" font-family="sans-serif" font-size="11" lengthAdjust="spacing" textLength="278" x="865.5" y="697.1245">-List&lt;ParameterCategory&gt; parameterCategories</text><line style="stroke:#A80036;stroke-width:1.5;" x1="860.5" x2="1270.5" y1="703.7188" y2="703.7188"/><text fill="#000000" font-family="sans-serif" font-size="11" lengthAdjust="spacing" textLength="400" x="865.5" y="717.9292">+TestType(code, description, collectingMethod, parameterCategories)</text><text fill="#000000" font-family="sans-serif" font-size="11" lengthAdjust="spacing" textLength="124" x="865.5" y="730.7339">+getExternalModule()</text><!--MD5=[e27cb01a39563223b22d42504ec96d07]
class TestResult--><rect codeLine="69" fill="#FEFECE" filter="url(#f1r6oas03osrdy)" height="99.2188" id="TestResult" style="stroke:#A80036;stroke-width:1.5;" width="173" x="701" y="872"/><ellipse cx="752.25" cy="888" fill="#ADD1B2" rx="11" ry="11" style="stroke:#A80036;stroke-width:1.0;"/><path d="M754.5938,883.6719 C753.6563,883.2344 753.0625,883.0938 752.1875,883.0938 C749.5625,883.0938 747.5625,885.1719 747.5625,887.8906 L747.5625,889.0156 C747.5625,891.5938 749.6719,893.4844 752.5625,893.4844 C753.7813,893.4844 754.9375,893.1875 755.6875,892.6406 C756.2656,892.2344 756.5938,891.7813 756.5938,891.3906 C756.5938,890.9375 756.2031,890.5469 755.7344,890.5469 C755.5156,890.5469 755.3125,890.625 755.125,890.8125 C754.6719,891.2969 754.6719,891.2969 754.4844,891.3906 C754.0625,891.6563 753.375,891.7813 752.6094,891.7813 C750.5625,891.7813 749.2656,890.6875 749.2656,888.9844 L749.2656,887.8906 C749.2656,886.1094 750.5156,884.7969 752.25,884.7969 C752.8281,884.7969 753.4375,884.9531 753.9063,885.2031 C754.3906,885.4844 754.5625,885.7031 754.6563,886.1094 C754.7188,886.5156 754.75,886.6406 754.8906,886.7656 C755.0313,886.9063 755.2656,887.0156 755.4844,887.0156 C755.75,887.0156 756.0156,886.875 756.1875,886.6563 C756.2969,886.5 756.3281,886.3125 756.3281,885.8906 L756.3281,884.4688 C756.3281,884.0313 756.3125,883.9063 756.2188,883.75 C756.0625,883.4844 755.7813,883.3438 755.4844,883.3438 C755.1875,883.3438 754.9844,883.4375 754.7656,883.75 L754.5938,883.6719 Z " fill="#000000"/><text fill="#000000" font-family="sans-serif" font-size="12" lengthAdjust="spacing" textLength="62" x="772.75" y="892.1543">TestResult</text><line style="stroke:#A80036;stroke-width:1.5;" x1="702" x2="873" y1="904" y2="904"/><text fill="#000000" font-family="sans-serif" font-size="11" lengthAdjust="spacing" textLength="60" x="707" y="918.2104">-createdAt</text><text fill="#000000" font-family="sans-serif" font-size="11" lengthAdjust="spacing" textLength="36" x="707" y="931.0151">-value</text><text fill="#000000" font-family="sans-serif" font-size="11" lengthAdjust="spacing" textLength="40" x="707" y="943.8198">-metric</text><line style="stroke:#A80036;stroke-width:1.5;" x1="702" x2="873" y1="950.4141" y2="950.4141"/><text fill="#000000" font-family="sans-serif" font-size="11" lengthAdjust="spacing" textLength="161" x="707" y="964.6245">+TestResult(value,refValue)</text><!--MD5=[0f6f7964b844a64b0496af0dda7914bd]
class TestStore--><rect codeLine="76" fill="#FEFECE" filter="url(#f1r6oas03osrdy)" height="188.8516" id="TestStore" style="stroke:#A80036;stroke-width:1.5;" width="621" x="271" y="289"/><ellipse cx="547.75" cy="305" fill="#ADD1B2" rx="11" ry="11" style="stroke:#A80036;stroke-width:1.0;"/><path d="M550.0938,300.6719 C549.1563,300.2344 548.5625,300.0938 547.6875,300.0938 C545.0625,300.0938 543.0625,302.1719 543.0625,304.8906 L543.0625,306.0156 C543.0625,308.5938 545.1719,310.4844 548.0625,310.4844 C549.2813,310.4844 550.4375,310.1875 551.1875,309.6406 C551.7656,309.2344 552.0938,308.7813 552.0938,308.3906 C552.0938,307.9375 551.7031,307.5469 551.2344,307.5469 C551.0156,307.5469 550.8125,307.625 550.625,307.8125 C550.1719,308.2969 550.1719,308.2969 549.9844,308.3906 C549.5625,308.6563 548.875,308.7813 548.1094,308.7813 C546.0625,308.7813 544.7656,307.6875 544.7656,305.9844 L544.7656,304.8906 C544.7656,303.1094 546.0156,301.7969 547.75,301.7969 C548.3281,301.7969 548.9375,301.9531 549.4063,302.2031 C549.8906,302.4844 550.0625,302.7031 550.1563,303.1094 C550.2188,303.5156 550.25,303.6406 550.3906,303.7656 C550.5313,303.9063 550.7656,304.0156 550.9844,304.0156 C551.25,304.0156 551.5156,303.875 551.6875,303.6563 C551.7969,303.5 551.8281,303.3125 551.8281,302.8906 L551.8281,301.4688 C551.8281,301.0313 551.8125,300.9063 551.7188,300.75 C551.5625,300.4844 551.2813,300.3438 550.9844,300.3438 C550.6875,300.3438 550.4844,300.4375 550.2656,300.75 L550.0938,300.6719 Z " fill="#000000"/><text fill="#000000" font-family="sans-serif" font-size="12" lengthAdjust="spacing" textLength="59" x="568.25" y="309.1543">TestStore</text><line style="stroke:#A80036;stroke-width:1.5;" x1="272" x2="891" y1="321" y2="321"/><line style="stroke:#A80036;stroke-width:1.5;" x1="272" x2="891" y1="329" y2="329"/><text fill="#000000" font-family="sans-serif" font-size="11" lengthAdjust="spacing" textLength="609" x="277" y="343.2104">+Test(nhsCode, internalCode, client, testType, sCM,category, parameter, rD, sCD, cAD, diagnosisDate, vD)</text><text fill="#000000" font-family="sans-serif" font-size="11" lengthAdjust="spacing" textLength="89" x="277" y="356.0151">-addTests(test);</text><text fill="#000000" font-family="sans-serif" font-size="11" lengthAdjust="spacing" textLength="126" x="277" y="368.8198">+validateParameter(t)</text><text fill="#000000" font-family="sans-serif" font-size="11" lengthAdjust="spacing" textLength="108" x="277" y="381.6245">+saveParameter(t)</text><text fill="#000000" font-family="sans-serif" font-size="11" lengthAdjust="spacing" textLength="96" x="277" y="394.4292">+addTestType(t)</text><text fill="#000000" font-family="sans-serif" font-size="11" lengthAdjust="spacing" textLength="269" x="277" y="407.2339">+findParameterInTestStore(parameters, name)</text><text fill="#000000" font-family="sans-serif" font-size="11" lengthAdjust="spacing" textLength="227" x="277" y="420.0386">+addTestResult(parameterCode, result)</text><text fill="#000000" font-family="sans-serif" font-size="11" lengthAdjust="spacing" textLength="76" x="277" y="432.8433">+testExists(t)</text><text fill="#000000" font-family="sans-serif" font-size="11" lengthAdjust="spacing" textLength="118" x="277" y="445.6479">+testExists(barcode)</text><text fill="#000000" font-family="sans-serif" font-size="11" lengthAdjust="spacing" textLength="65" x="277" y="458.4526">+getTest(t)</text><text fill="#000000" font-family="sans-serif" font-size="11" lengthAdjust="spacing" textLength="107" x="277" y="471.2573">+getTest(barcode)</text><!--MD5=[1c357e7e7fdba398bcadd6e61afe49f5]
class ReferenceValue--><rect codeLine="92" fill="#FEFECE" filter="url(#f1r6oas03osrdy)" height="73.6094" id="ReferenceValue" style="stroke:#A80036;stroke-width:1.5;" width="407" x="959" y="884.5"/><ellipse cx="1110.75" cy="900.5" fill="#ADD1B2" rx="11" ry="11" style="stroke:#A80036;stroke-width:1.0;"/><path d="M1113.0938,896.1719 C1112.1563,895.7344 1111.5625,895.5938 1110.6875,895.5938 C1108.0625,895.5938 1106.0625,897.6719 1106.0625,900.3906 L1106.0625,901.5156 C1106.0625,904.0938 1108.1719,905.9844 1111.0625,905.9844 C1112.2813,905.9844 1113.4375,905.6875 1114.1875,905.1406 C1114.7656,904.7344 1115.0938,904.2813 1115.0938,903.8906 C1115.0938,903.4375 1114.7031,903.0469 1114.2344,903.0469 C1114.0156,903.0469 1113.8125,903.125 1113.625,903.3125 C1113.1719,903.7969 1113.1719,903.7969 1112.9844,903.8906 C1112.5625,904.1563 1111.875,904.2813 1111.1094,904.2813 C1109.0625,904.2813 1107.7656,903.1875 1107.7656,901.4844 L1107.7656,900.3906 C1107.7656,898.6094 1109.0156,897.2969 1110.75,897.2969 C1111.3281,897.2969 1111.9375,897.4531 1112.4063,897.7031 C1112.8906,897.9844 1113.0625,898.2031 1113.1563,898.6094 C1113.2188,899.0156 1113.25,899.1406 1113.3906,899.2656 C1113.5313,899.4063 1113.7656,899.5156 1113.9844,899.5156 C1114.25,899.5156 1114.5156,899.375 1114.6875,899.1563 C1114.7969,899 1114.8281,898.8125 1114.8281,898.3906 L1114.8281,896.9688 C1114.8281,896.5313 1114.8125,896.4063 1114.7188,896.25 C1114.5625,895.9844 1114.2813,895.8438 1113.9844,895.8438 C1113.6875,895.8438 1113.4844,895.9375 1113.2656,896.25 L1113.0938,896.1719 Z " fill="#000000"/><text fill="#000000" font-family="sans-serif" font-size="12" lengthAdjust="spacing" textLength="95" x="1131.25" y="904.6543">ReferenceValue</text><line style="stroke:#A80036;stroke-width:1.5;" x1="960" x2="1365" y1="916.5" y2="916.5"/><line style="stroke:#A80036;stroke-width:1.5;" x1="960" x2="1365" y1="924.5" y2="924.5"/><text fill="#000000" font-family="sans-serif" font-size="11" lengthAdjust="spacing" textLength="395" x="965" y="938.7104">+ReferenceValue(String metric, double maxValue, double minValue)</text><text fill="#000000" font-family="sans-serif" font-size="11" lengthAdjust="spacing" textLength="110" x="965" y="951.5151">+ReferenceValue()</text><!--MD5=[5c34e247bdc718c2aaa7fe06d704a57f]
class CovidReferenceValues1API--><rect codeLine="98" fill="#FEFECE" filter="url(#f1r6oas03osrdy)" height="86.4141" id="CovidReferenceValues1API" style="stroke:#A80036;stroke-width:1.5;" width="302" x="1040.5" y="129"/><ellipse cx="1107.25" cy="145" fill="#ADD1B2" rx="11" ry="11" style="stroke:#A80036;stroke-width:1.0;"/><path d="M1109.5938,140.6719 C1108.6563,140.2344 1108.0625,140.0938 1107.1875,140.0938 C1104.5625,140.0938 1102.5625,142.1719 1102.5625,144.8906 L1102.5625,146.0156 C1102.5625,148.5938 1104.6719,150.4844 1107.5625,150.4844 C1108.7813,150.4844 1109.9375,150.1875 1110.6875,149.6406 C1111.2656,149.2344 1111.5938,148.7813 1111.5938,148.3906 C1111.5938,147.9375 1111.2031,147.5469 1110.7344,147.5469 C1110.5156,147.5469 1110.3125,147.625 1110.125,147.8125 C1109.6719,148.2969 1109.6719,148.2969 1109.4844,148.3906 C1109.0625,148.6563 1108.375,148.7813 1107.6094,148.7813 C1105.5625,148.7813 1104.2656,147.6875 1104.2656,145.9844 L1104.2656,144.8906 C1104.2656,143.1094 1105.5156,141.7969 1107.25,141.7969 C1107.8281,141.7969 1108.4375,141.9531 1108.9063,142.2031 C1109.3906,142.4844 1109.5625,142.7031 1109.6563,143.1094 C1109.7188,143.5156 1109.75,143.6406 1109.8906,143.7656 C1110.0313,143.9063 1110.2656,144.0156 1110.4844,144.0156 C1110.75,144.0156 1111.0156,143.875 1111.1875,143.6563 C1111.2969,143.5 1111.3281,143.3125 1111.3281,142.8906 L1111.3281,141.4688 C1111.3281,141.0313 1111.3125,140.9063 1111.2188,140.75 C1111.0625,140.4844 1110.7813,140.3438 1110.4844,140.3438 C1110.1875,140.3438 1109.9844,140.4375 1109.7656,140.75 L1109.5938,140.6719 Z " fill="#000000"/><text fill="#000000" font-family="sans-serif" font-size="12" lengthAdjust="spacing" textLength="160" x="1127.75" y="149.1543">CovidReferenceValues1API</text><line style="stroke:#A80036;stroke-width:1.5;" x1="1041.5" x2="1341.5" y1="161" y2="161"/><line style="stroke:#A80036;stroke-width:1.5;" x1="1041.5" x2="1341.5" y1="169" y2="169"/><text fill="#000000" font-family="sans-serif" font-size="11" lengthAdjust="spacing" textLength="290" x="1046.5" y="183.2104">+getMaxReferenceValue​(parameterId, accessKey)</text><text fill="#000000" font-family="sans-serif" font-size="11" lengthAdjust="spacing" textLength="286" x="1046.5" y="196.0151">+getMinReferenceValue​(parameterId, accessKey)</text><text fill="#000000" font-family="sans-serif" font-size="11" lengthAdjust="spacing" textLength="219" x="1046.5" y="208.8198">+usedMetric​(parameterID, accessKey)</text><!--MD5=[c2db872d8177dd5e15eeb53e86d83378]
class ExternalModule2API--><rect codeLine="104" fill="#FEFECE" filter="url(#f1r6oas03osrdy)" height="86.4141" id="ExternalModule2API" style="stroke:#A80036;stroke-width:1.5;" width="246" x="1440.5" y="129"/><ellipse cx="1500.75" cy="145" fill="#ADD1B2" rx="11" ry="11" style="stroke:#A80036;stroke-width:1.0;"/><path d="M1503.0938,140.6719 C1502.1563,140.2344 1501.5625,140.0938 1500.6875,140.0938 C1498.0625,140.0938 1496.0625,142.1719 1496.0625,144.8906 L1496.0625,146.0156 C1496.0625,148.5938 1498.1719,150.4844 1501.0625,150.4844 C1502.2813,150.4844 1503.4375,150.1875 1504.1875,149.6406 C1504.7656,149.2344 1505.0938,148.7813 1505.0938,148.3906 C1505.0938,147.9375 1504.7031,147.5469 1504.2344,147.5469 C1504.0156,147.5469 1503.8125,147.625 1503.625,147.8125 C1503.1719,148.2969 1503.1719,148.2969 1502.9844,148.3906 C1502.5625,148.6563 1501.875,148.7813 1501.1094,148.7813 C1499.0625,148.7813 1497.7656,147.6875 1497.7656,145.9844 L1497.7656,144.8906 C1497.7656,143.1094 1499.0156,141.7969 1500.75,141.7969 C1501.3281,141.7969 1501.9375,141.9531 1502.4063,142.2031 C1502.8906,142.4844 1503.0625,142.7031 1503.1563,143.1094 C1503.2188,143.5156 1503.25,143.6406 1503.3906,143.7656 C1503.5313,143.9063 1503.7656,144.0156 1503.9844,144.0156 C1504.25,144.0156 1504.5156,143.875 1504.6875,143.6563 C1504.7969,143.5 1504.8281,143.3125 1504.8281,142.8906 L1504.8281,141.4688 C1504.8281,141.0313 1504.8125,140.9063 1504.7188,140.75 C1504.5625,140.4844 1504.2813,140.3438 1503.9844,140.3438 C1503.6875,140.3438 1503.4844,140.4375 1503.2656,140.75 L1503.0938,140.6719 Z " fill="#000000"/><text fill="#000000" font-family="sans-serif" font-size="12" lengthAdjust="spacing" textLength="117" x="1521.25" y="149.1543">ExternalModule2API</text><line style="stroke:#A80036;stroke-width:1.5;" x1="1441.5" x2="1685.5" y1="161" y2="161"/><line style="stroke:#A80036;stroke-width:1.5;" x1="1441.5" x2="1685.5" y1="169" y2="169"/><text fill="#000000" font-family="sans-serif" font-size="11" lengthAdjust="spacing" textLength="165" x="1446.5" y="183.2104">+getMetricsFor​(parameterID)</text><text fill="#000000" font-family="sans-serif" font-size="11" lengthAdjust="spacing" textLength="185" x="1446.5" y="196.0151">+getReferenceFor​(parameterID)</text><text fill="#000000" font-family="sans-serif" font-size="11" lengthAdjust="spacing" textLength="234" x="1446.5" y="208.8198">+getReferenceFor​(parameterID, onDate)</text><!--MD5=[684eca265d68b7682ab3f1c4bd898418]
class ExternalModule3API--><rect codeLine="110" fill="#FEFECE" filter="url(#f1r6oas03osrdy)" height="86.4141" id="ExternalModule3API" style="stroke:#A80036;stroke-width:1.5;" width="302" x="1784.5" y="129"/><ellipse cx="1872.75" cy="145" fill="#ADD1B2" rx="11" ry="11" style="stroke:#A80036;stroke-width:1.0;"/><path d="M1875.0938,140.6719 C1874.1563,140.2344 1873.5625,140.0938 1872.6875,140.0938 C1870.0625,140.0938 1868.0625,142.1719 1868.0625,144.8906 L1868.0625,146.0156 C1868.0625,148.5938 1870.1719,150.4844 1873.0625,150.4844 C1874.2813,150.4844 1875.4375,150.1875 1876.1875,149.6406 C1876.7656,149.2344 1877.0938,148.7813 1877.0938,148.3906 C1877.0938,147.9375 1876.7031,147.5469 1876.2344,147.5469 C1876.0156,147.5469 1875.8125,147.625 1875.625,147.8125 C1875.1719,148.2969 1875.1719,148.2969 1874.9844,148.3906 C1874.5625,148.6563 1873.875,148.7813 1873.1094,148.7813 C1871.0625,148.7813 1869.7656,147.6875 1869.7656,145.9844 L1869.7656,144.8906 C1869.7656,143.1094 1871.0156,141.7969 1872.75,141.7969 C1873.3281,141.7969 1873.9375,141.9531 1874.4063,142.2031 C1874.8906,142.4844 1875.0625,142.7031 1875.1563,143.1094 C1875.2188,143.5156 1875.25,143.6406 1875.3906,143.7656 C1875.5313,143.9063 1875.7656,144.0156 1875.9844,144.0156 C1876.25,144.0156 1876.5156,143.875 1876.6875,143.6563 C1876.7969,143.5 1876.8281,143.3125 1876.8281,142.8906 L1876.8281,141.4688 C1876.8281,141.0313 1876.8125,140.9063 1876.7188,140.75 C1876.5625,140.4844 1876.2813,140.3438 1875.9844,140.3438 C1875.6875,140.3438 1875.4844,140.4375 1875.2656,140.75 L1875.0938,140.6719 Z " fill="#000000"/><text fill="#000000" font-family="sans-serif" font-size="12" lengthAdjust="spacing" textLength="117" x="1893.25" y="149.1543">ExternalModule3API</text><line style="stroke:#A80036;stroke-width:1.5;" x1="1785.5" x2="2085.5" y1="161" y2="161"/><line style="stroke:#A80036;stroke-width:1.5;" x1="1785.5" x2="2085.5" y1="169" y2="169"/><text fill="#000000" font-family="sans-serif" font-size="11" lengthAdjust="spacing" textLength="290" x="1790.5" y="183.2104">+getMaxReferenceValue​(parameterId, accessKey)</text><text fill="#000000" font-family="sans-serif" font-size="11" lengthAdjust="spacing" textLength="286" x="1790.5" y="196.0151">+getMinReferenceValue​(parameterId, accessKey)</text><text fill="#000000" font-family="sans-serif" font-size="11" lengthAdjust="spacing" textLength="219" x="1790.5" y="208.8198">+usedMetric​(parameterID, accessKey)</text><!--MD5=[9681492165142af2a4a3a169d90ee8d4]
class Sample--><rect codeLine="116" fill="#FEFECE" filter="url(#f1r6oas03osrdy)" height="60.8047" id="Sample" style="stroke:#A80036;stroke-width:1.5;" width="77" x="7" y="644.5"/><ellipse cx="22" cy="660.5" fill="#ADD1B2" rx="11" ry="11" style="stroke:#A80036;stroke-width:1.0;"/><path d="M24.3438,656.1719 C23.4063,655.7344 22.8125,655.5938 21.9375,655.5938 C19.3125,655.5938 17.3125,657.6719 17.3125,660.3906 L17.3125,661.5156 C17.3125,664.0938 19.4219,665.9844 22.3125,665.9844 C23.5313,665.9844 24.6875,665.6875 25.4375,665.1406 C26.0156,664.7344 26.3438,664.2813 26.3438,663.8906 C26.3438,663.4375 25.9531,663.0469 25.4844,663.0469 C25.2656,663.0469 25.0625,663.125 24.875,663.3125 C24.4219,663.7969 24.4219,663.7969 24.2344,663.8906 C23.8125,664.1563 23.125,664.2813 22.3594,664.2813 C20.3125,664.2813 19.0156,663.1875 19.0156,661.4844 L19.0156,660.3906 C19.0156,658.6094 20.2656,657.2969 22,657.2969 C22.5781,657.2969 23.1875,657.4531 23.6563,657.7031 C24.1406,657.9844 24.3125,658.2031 24.4063,658.6094 C24.4688,659.0156 24.5,659.1406 24.6406,659.2656 C24.7813,659.4063 25.0156,659.5156 25.2344,659.5156 C25.5,659.5156 25.7656,659.375 25.9375,659.1563 C26.0469,659 26.0781,658.8125 26.0781,658.3906 L26.0781,656.9688 C26.0781,656.5313 26.0625,656.4063 25.9688,656.25 C25.8125,655.9844 25.5313,655.8438 25.2344,655.8438 C24.9375,655.8438 24.7344,655.9375 24.5156,656.25 L24.3438,656.1719 Z " fill="#000000"/><text fill="#000000" font-family="sans-serif" font-size="12" lengthAdjust="spacing" textLength="45" x="36" y="664.6543">Sample</text><line style="stroke:#A80036;stroke-width:1.5;" x1="8" x2="83" y1="676.5" y2="676.5"/><text fill="#000000" font-family="sans-serif" font-size="11" lengthAdjust="spacing" textLength="50" x="13" y="690.7104">-barcode</text><line style="stroke:#A80036;stroke-width:1.5;" x1="8" x2="83" y1="697.3047" y2="697.3047"/><!--MD5=[ad334d1782af96659f761ffdd3e3c1a7]
reverse link Parameter to TestParameter--><path codeLine="120" d="M274.43,921.5 C299.308,921.5 330.274,921.5 360.756,921.5 " fill="none" id="Parameter-backto-TestParameter" style="stroke:#A80036;stroke-width:1.0;"/><polygon fill="#A80036" points="269.216,921.5,278.216,925.5,274.216,921.5,278.216,917.5,269.216,921.5" style="stroke:#A80036;stroke-width:1.0;"/><text fill="#000000" font-family="sans-serif" font-size="13" lengthAdjust="spacing" textLength="55" x="287.5" y="914.5669">refers to</text><text fill="#000000" font-family="sans-serif" font-size="13" lengthAdjust="spacing" textLength="8" x="276.9819" y="917.3969">1</text><text fill="#000000" font-family="sans-serif" font-size="13" lengthAdjust="spacing" textLength="7" x="345.9411" y="918.1258">*</text><!--MD5=[1ae83efc6d1967ce5bc17dfe294d00c2]
link Sample to Test--><path codeLine="121" d="M84.1614,675 C106.1569,675 135.984,675 169.51,675 " fill="none" id="Sample-to-Test" style="stroke:#A80036;stroke-width:1.0;"/><polygon fill="#A80036" points="174.922,675,165.922,671,169.922,675,165.922,679,174.922,675" style="stroke:#A80036;stroke-width:1.0;"/><text fill="#000000" font-family="sans-serif" font-size="13" lengthAdjust="spacing" textLength="54" x="102.5" y="668.0669">contains</text><text fill="#000000" font-family="sans-serif" font-size="13" lengthAdjust="spacing" textLength="23" x="92.1559" y="688.2884">1..*</text><text fill="#000000" font-family="sans-serif" font-size="13" lengthAdjust="spacing" textLength="8" x="158.566" y="671.8685">1</text><!--MD5=[8ac6355e00c3d970b1dc94580ed59b1b]
link TestParameter to TestResult--><path codeLine="122" d="M610.079,921.5 C638.835,921.5 668.911,921.5 695.958,921.5 " fill="none" id="TestParameter-to-TestResult" style="stroke:#A80036;stroke-width:1.0;"/><polygon fill="#A80036" points="700.972,921.5,691.972,917.5,695.972,921.5,691.972,925.5,700.972,921.5" style="stroke:#A80036;stroke-width:1.0;"/><text fill="#000000" font-family="sans-serif" font-size="13" lengthAdjust="spacing" textLength="54" x="628.5" y="914.5669">contains</text><text fill="#000000" font-family="sans-serif" font-size="13" lengthAdjust="spacing" textLength="8" x="617.9143" y="918.1258">1</text><text fill="#000000" font-family="sans-serif" font-size="13" lengthAdjust="spacing" textLength="24" x="669.1206" y="934.1611">0..1</text><!--MD5=[1cbb74854461cb3141e8c8daf2dccf5e]
link TestResult to ReferenceValue--><path codeLine="123" d="M874.003,921.5 C898.133,921.5 925.444,921.5 953.404,921.5 " fill="none" id="TestResult-to-ReferenceValue" style="stroke:#A80036;stroke-width:1.0;"/><polygon fill="#A80036" points="958.632,921.5,949.632,917.5,953.632,921.5,949.632,925.5,958.632,921.5" style="stroke:#A80036;stroke-width:1.0;"/><text fill="#000000" font-family="sans-serif" font-size="13" lengthAdjust="spacing" textLength="48" x="892.5" y="914.5669">records</text><text fill="#000000" font-family="sans-serif" font-size="13" lengthAdjust="spacing" textLength="8" x="882.0634" y="917.8951">1</text><text fill="#000000" font-family="sans-serif" font-size="13" lengthAdjust="spacing" textLength="8" x="943.1617" y="918.3068">1</text><!--MD5=[e981d4f96c4342412d1e68160b30cf70]
link Test to TestType--><path codeLine="124" d="M796.3,675 C815.727,675 835.029,675 853.855,675 " fill="none" id="Test-to-TestType" style="stroke:#A80036;stroke-width:1.0;"/><polygon fill="#A80036" points="859.152,675,850.152,671,854.152,675,850.152,679,859.152,675" style="stroke:#A80036;stroke-width:1.0;"/><text fill="#000000" font-family="sans-serif" font-size="13" lengthAdjust="spacing" textLength="27" x="814.25" y="668.0669">is of</text><text fill="#000000" font-family="sans-serif" font-size="13" lengthAdjust="spacing" textLength="7" x="803.6664" y="671.8918">*</text><text fill="#000000" font-family="sans-serif" font-size="13" lengthAdjust="spacing" textLength="8" x="843.5926" y="671.8028">1</text><!--MD5=[f24c888dadeb846430474fe80a58922b]
link Test to TestParameter--><path codeLine="125" d="M485.5,795.027 C485.5,827.574 485.5,860.427 485.5,884.3471 " fill="none" id="Test-TestParameter" style="stroke:#A80036;stroke-width:1.0;"/><polygon fill="#000000" points="490.5,838.5664,493.4389,829.5213,487.5611,829.5213,490.5,838.5664" style="stroke:#000000;stroke-width:1.0;"/><text fill="#000000" font-family="sans-serif" font-size="13" lengthAdjust="spacing" textLength="133" x="499.5" y="838.0669">Requests analysis of</text><text fill="#000000" font-family="sans-serif" font-size="13" lengthAdjust="spacing" textLength="8" x="477.2438" y="815.2656">1</text><text fill="#000000" font-family="sans-serif" font-size="13" lengthAdjust="spacing" textLength="23" x="460.4516" y="873.5067">1..*</text><!--MD5=[71e6920dcc27afae8f25537cd5357b5f]
link TestType to ExternalModule--><path codeLine="126" d="M1271.65,675 C1310.83,675 1351.47,675 1389.53,675 " fill="none" id="TestType-to-ExternalModule" style="stroke:#A80036;stroke-width:1.0;"/><polygon fill="#A80036" points="1394.64,675,1385.64,671,1389.64,675,1385.64,679,1394.64,675" style="stroke:#A80036;stroke-width:1.0;"/><text fill="#000000" font-family="sans-serif" font-size="13" lengthAdjust="spacing" textLength="87" x="1289.75" y="668.0669">makes use of</text><text fill="#000000" font-family="sans-serif" font-size="13" lengthAdjust="spacing" textLength="7" x="1279.1843" y="671.8028">*</text><text fill="#000000" font-family="sans-serif" font-size="13" lengthAdjust="spacing" textLength="8" x="1378.8073" y="671.7345">1</text><!--MD5=[4583d935403064ae9badefc9a5fb28e7]
link ExternalModuleAdapter1 to ExternalModule--><path codeLine="127" d="M1229.56,414.121 C1295.93,465.769 1433.01,572.448 1509.29,631.809 " fill="none" id="ExternalModuleAdapter1-to-ExternalModule" style="stroke:#A80036;stroke-width:1.0;"/><polygon fill="none" points="1514.01,626.613,1525.49,644.421,1505.41,637.662,1514.01,626.613" style="stroke:#A80036;stroke-width:1.0;"/><!--MD5=[96b97b575a021f78c1d69f4902851f2b]
link ExternalModuleAdapter2 to ExternalModule--><path codeLine="128" d="M1563.5,414.121 C1563.5,463.535 1563.5,563.321 1563.5,623.847 " fill="none" id="ExternalModuleAdapter2-to-ExternalModule" style="stroke:#A80036;stroke-width:1.0;"/><polygon fill="none" points="1570.5,624.204,1563.5,644.204,1556.5,624.204,1570.5,624.204" style="stroke:#A80036;stroke-width:1.0;"/><!--MD5=[c32bf7eabb548ed73c6516299a5e5c81]
link ExternalModuleAdapter3 to ExternalModule--><path codeLine="129" d="M1897.44,414.121 C1831.07,465.769 1693.99,572.448 1617.71,631.809 " fill="none" id="ExternalModuleAdapter3-to-ExternalModule" style="stroke:#A80036;stroke-width:1.0;"/><polygon fill="none" points="1621.59,637.662,1601.51,644.421,1612.99,626.613,1621.59,637.662" style="stroke:#A80036;stroke-width:1.0;"/><!--MD5=[53ad5ab26910f5706d4104e2824914be]
reverse link CovidReferenceValues1API to ExternalModuleAdapter1--><path codeLine="130" d="M1191.5,220.519 C1191.5,261.199 1191.5,318.497 1191.5,352.917 " fill="none" id="CovidReferenceValues1API-backto-ExternalModuleAdapter1" style="stroke:#A80036;stroke-width:1.0;"/><polygon fill="#A80036" points="1191.5,215.143,1187.5,224.143,1191.5,220.143,1195.5,224.143,1191.5,215.143" style="stroke:#A80036;stroke-width:1.0;"/><!--MD5=[8d43cbbee982b030c98dabd546e192a7]
reverse link ExternalModule2API to ExternalModuleAdapter2--><path codeLine="131" d="M1563.5,220.519 C1563.5,261.199 1563.5,318.497 1563.5,352.917 " fill="none" id="ExternalModule2API-backto-ExternalModuleAdapter2" style="stroke:#A80036;stroke-width:1.0;"/><polygon fill="#A80036" points="1563.5,215.143,1559.5,224.143,1563.5,220.143,1567.5,224.143,1563.5,215.143" style="stroke:#A80036;stroke-width:1.0;"/><!--MD5=[9afc9ffc600df316c6a8b6d66acf592a]
reverse link ExternalModule3API to ExternalModuleAdapter3--><path codeLine="132" d="M1935.5,220.519 C1935.5,261.199 1935.5,318.497 1935.5,352.917 " fill="none" id="ExternalModule3API-backto-ExternalModuleAdapter3" style="stroke:#A80036;stroke-width:1.0;"/><polygon fill="#A80036" points="1935.5,215.143,1931.5,224.143,1935.5,220.143,1939.5,224.143,1935.5,215.143" style="stroke:#A80036;stroke-width:1.0;"/><!--MD5=[e0fe53a4cfb5eba193304877d6f3c961]
link RecordTestResultUI to RecordTestResultController--><path codeLine="133" d="M319.5,55.265 C319.5,70.448 319.5,91.017 319.5,110.605 " fill="none" id="RecordTestResultUI-to-RecordTestResultController" style="stroke:#A80036;stroke-width:1.0;stroke-dasharray:7.0,7.0;"/><polygon fill="#A80036" points="319.5,115.828,323.5,106.828,319.5,110.828,315.5,106.828,319.5,115.828" style="stroke:#A80036;stroke-width:1.0;"/><!--MD5=[f4d8d40e61e78bc4f8ae97bf8db7bc12]
link RecordTestResultController to Test--><path codeLine="134" d="M280.353,228.27 C269.449,246.711 259.071,267.944 253.5,289 C232.015,370.206 218.128,401.811 253.5,478 C265.936,504.786 284.036,529.234 304.726,551.084 " fill="none" id="RecordTestResultController-to-Test" style="stroke:#A80036;stroke-width:1.0;stroke-dasharray:7.0,7.0;"/><polygon fill="#A80036" points="308.342,554.85,304.9929,545.588,304.8786,551.2437,299.2229,551.1294,308.342,554.85" style="stroke:#A80036;stroke-width:1.0;"/><!--MD5=[ed726c1234fa7e1782d1ad4890aa3b36]
link RecordTestResultController to TestStore--><path codeLine="135" d="M388.337,228.044 C410.5,245.765 435.753,265.958 460.525,285.766 " fill="none" id="RecordTestResultController-to-TestStore" style="stroke:#A80036;stroke-width:1.0;stroke-dasharray:7.0,7.0;"/><polygon fill="#A80036" points="464.497,288.942,459.9656,280.1975,460.5918,285.8196,454.9697,286.4458,464.497,288.942" style="stroke:#A80036;stroke-width:1.0;"/><!--MD5=[b0f4f6db8206580012ef9cd998ed01c5]
link TestStore to Test--><path codeLine="136" d="M550.464,478.093 C542.863,501.014 534.611,525.899 526.619,550.001 " fill="none" id="TestStore-to-Test" style="stroke:#A80036;stroke-width:1.0;"/><polygon fill="#A80036" points="525.024,554.81,531.6543,547.5272,526.5983,550.0643,524.0611,545.0083,525.024,554.81" style="stroke:#A80036;stroke-width:1.0;"/><text fill="#000000" font-family="sans-serif" font-size="13" lengthAdjust="spacing" textLength="54" x="540.5" y="521.0669">contains</text><text fill="#000000" font-family="sans-serif" font-size="13" lengthAdjust="spacing" textLength="8" x="539.7816" y="497.9872">1</text><text fill="#000000" font-family="sans-serif" font-size="13" lengthAdjust="spacing" textLength="7" x="520.2192" y="544.0977">*</text><!--MD5=[c8a8c0f56a78cb27aaf172141969bb62]
@startuml
skinparam classAttributeIconSize 0

Class "Parameter"{
-code
-shortName
-description
}

Class "RecordTestResultUI"{
}

Class "RecordTestResultController"{
+testExists(barcode)
+getTest(barcode)
+getListOfParametersSelected(test)
+addTestResult(parameterCode,result)
+getTestResultByParameter(parameterCode)
}

Class "TestParameter"{
+getParameter()
+addResult(result,metric,referenceValue)
}

Class "Test"{
-String nhsCode;
   -String internalCode;
   -Client client;
    -TestType testType;
   -String sampleCollectionMethod;
     -List <ParameterCategory>  parameterCategory;
   -List <Parameter> parameter;
    -Date registrationDate;
     -Date samplesCollectionDate;
     -Date chemicalAnalysisDate;
     -Date diagnosisDate;
    -Date validationDate;
  +Test(nhsCode, internalCode, client, testType, sCM,category, parameter, rD, sCD, cAD, diagnosisDate, vD)
+addTestResults(parameterCode,result,metric)
-getTestParameterFor(parameterCode)
}

Interface "ExternalModule"{
+ReferenceValue getReferenceValue(Parameter param)
}

Class "ExternalModuleAdapter1"{
+ReferenceValue getReferenceValue(Parameter param)
}

Class "ExternalModuleAdapter2"{
+ReferenceValue getReferenceValue(Parameter param)
}

Class "ExternalModuleAdapter3"{
+ReferenceValue getReferenceValue(Parameter param)
}

Class "TestType"{

-String code
-String description
-String collectingMethod
-List<ParameterCategory> parameterCategories
+TestType(code, description, collectingMethod, parameterCategories)
+getExternalModule()
}

Class "TestResult"{
-createdAt
-value
-metric
+TestResult(value,refValue)
}

class TestStore {
  +Test(nhsCode, internalCode, client, testType, sCM,category, parameter, rD, sCD, cAD, diagnosisDate, vD)
-addTests(test);
+validateParameter(t)
  +saveParameter(t)
  +addTestType(t)
+findParameterInTestStore(parameters, name)
+addTestResult(parameterCode, result)
+testExists(t)
+testExists(barcode)
+getTest(t)
+getTest(barcode)

}


Class "ReferenceValue"{
+ReferenceValue(String metric, double maxValue, double minValue)
+ReferenceValue()

}

Class "CovidReferenceValues1API"{
+getMaxReferenceValue​(parameterId, accessKey)
+getMinReferenceValue​(parameterId, accessKey)
+usedMetric​(parameterID, accessKey)
}

Class "ExternalModule2API"{
+getMetricsFor​(parameterID)
+getReferenceFor​(parameterID)
+getReferenceFor​(parameterID, onDate)
}

Class "ExternalModule3API"{
+getMaxReferenceValue​(parameterId, accessKey)
+getMinReferenceValue​(parameterId, accessKey)
+usedMetric​(parameterID, accessKey)
}

Class "Sample"{
-barcode
}

TestParameter "*"  -l> "1" Parameter : refers to
Sample "1..*"  -r> "1" Test : contains
TestParameter "1" -> "0..1" TestResult : contains
TestResult "1" -> "1" ReferenceValue  : records
Test "*" -> "1" TestType  : is of
Test "1" -d- "1..*" TestParameter  :> Requests analysis of
TestType "*" -> "1" ExternalModule  :makes use of
ExternalModuleAdapter1  -d-|>  ExternalModule
ExternalModuleAdapter2  -d-|>  ExternalModule
ExternalModuleAdapter3  -d-|>  ExternalModule
CovidReferenceValues1API  <-d- ExternalModuleAdapter1
ExternalModule2API <-d- ExternalModuleAdapter2
ExternalModule3API <-d- ExternalModuleAdapter3
RecordTestResultUI ..> RecordTestResultController
RecordTestResultController ..> Test
RecordTestResultController ..> TestStore
TestStore "1" - -> "*" Test : contains
@enduml

PlantUML version 1.2021.7beta4(Unknown compile time)
(GPL source distribution)
Java Runtime: Java(TM) SE Runtime Environment
JVM: Java HotSpot(TM) 64-Bit Server VM
Default Encoding: UTF-8
Language: en
Country: US
--></g></svg>