<?xml version="1.0" encoding="UTF-8" standalone="no"?><svg xmlns="http://www.w3.org/2000/svg" xmlns:xlink="http://www.w3.org/1999/xlink" contentScriptType="application/ecmascript" contentStyleType="text/css" height="669px" preserveAspectRatio="none" style="width:745px;height:669px;background:#FFFFFF;" version="1.1" viewBox="0 0 745 669" width="745px" zoomAndPan="magnify"><defs><filter height="300%" id="f12smest4cu5bd" width="300%" x="-1" y="-1"><feGaussianBlur result="blurOut" stdDeviation="2.0"/><feColorMatrix in="blurOut" result="blurOut2" type="matrix" values="0 0 0 0 0 0 0 0 0 0 0 0 0 0 0 0 0 0 .4 0"/><feOffset dx="4.0" dy="4.0" in="blurOut2" result="blurOut3"/><feBlend in="SourceGraphic" in2="blurOut3" mode="normal"/></filter></defs><g><!--MD5=[02e4b9b7573f1156f41e60aa5b4e25a4]
class Company--><rect codeLine="4" fill="#FEFECE" filter="url(#f12smest4cu5bd)" height="52.8047" id="Company" style="stroke:#A80036;stroke-width:1.5;" width="88" x="270.5" y="13.5"/><ellipse cx="285.5" cy="29.5" fill="#ADD1B2" rx="11" ry="11" style="stroke:#A80036;stroke-width:1.0;"/><path d="M287.8438,25.1719 C286.9063,24.7344 286.3125,24.5938 285.4375,24.5938 C282.8125,24.5938 280.8125,26.6719 280.8125,29.3906 L280.8125,30.5156 C280.8125,33.0938 282.9219,34.9844 285.8125,34.9844 C287.0313,34.9844 288.1875,34.6875 288.9375,34.1406 C289.5156,33.7344 289.8438,33.2813 289.8438,32.8906 C289.8438,32.4375 289.4531,32.0469 288.9844,32.0469 C288.7656,32.0469 288.5625,32.125 288.375,32.3125 C287.9219,32.7969 287.9219,32.7969 287.7344,32.8906 C287.3125,33.1563 286.625,33.2813 285.8594,33.2813 C283.8125,33.2813 282.5156,32.1875 282.5156,30.4844 L282.5156,29.3906 C282.5156,27.6094 283.7656,26.2969 285.5,26.2969 C286.0781,26.2969 286.6875,26.4531 287.1563,26.7031 C287.6406,26.9844 287.8125,27.2031 287.9063,27.6094 C287.9688,28.0156 288,28.1406 288.1406,28.2656 C288.2813,28.4063 288.5156,28.5156 288.7344,28.5156 C289,28.5156 289.2656,28.375 289.4375,28.1563 C289.5469,28 289.5781,27.8125 289.5781,27.3906 L289.5781,25.9688 C289.5781,25.5313 289.5625,25.4063 289.4688,25.25 C289.3125,24.9844 289.0313,24.8438 288.7344,24.8438 C288.4375,24.8438 288.2344,24.9375 288.0156,25.25 L287.8438,25.1719 Z " fill="#000000"/><text fill="#000000" font-family="sans-serif" font-size="12" lengthAdjust="spacing" textLength="56" x="299.5" y="33.6543">Company</text><line style="stroke:#A80036;stroke-width:1.5;" x1="271.5" x2="357.5" y1="45.5" y2="45.5"/><text fill="#000000" font-family="sans-serif" font-size="11" lengthAdjust="spacing" textLength="70" x="276.5" y="59.7104">-designation</text><!--MD5=[1c357e7e7fdba398bcadd6e61afe49f5]
class ReferenceValue--><rect codeLine="9" fill="#FEFECE" filter="url(#f12smest4cu5bd)" height="40" id="ReferenceValue" style="stroke:#A80036;stroke-width:1.5;" width="127" x="463" y="324"/><ellipse cx="478" cy="340" fill="#ADD1B2" rx="11" ry="11" style="stroke:#A80036;stroke-width:1.0;"/><path d="M480.3438,335.6719 C479.4063,335.2344 478.8125,335.0938 477.9375,335.0938 C475.3125,335.0938 473.3125,337.1719 473.3125,339.8906 L473.3125,341.0156 C473.3125,343.5938 475.4219,345.4844 478.3125,345.4844 C479.5313,345.4844 480.6875,345.1875 481.4375,344.6406 C482.0156,344.2344 482.3438,343.7813 482.3438,343.3906 C482.3438,342.9375 481.9531,342.5469 481.4844,342.5469 C481.2656,342.5469 481.0625,342.625 480.875,342.8125 C480.4219,343.2969 480.4219,343.2969 480.2344,343.3906 C479.8125,343.6563 479.125,343.7813 478.3594,343.7813 C476.3125,343.7813 475.0156,342.6875 475.0156,340.9844 L475.0156,339.8906 C475.0156,338.1094 476.2656,336.7969 478,336.7969 C478.5781,336.7969 479.1875,336.9531 479.6563,337.2031 C480.1406,337.4844 480.3125,337.7031 480.4063,338.1094 C480.4688,338.5156 480.5,338.6406 480.6406,338.7656 C480.7813,338.9063 481.0156,339.0156 481.2344,339.0156 C481.5,339.0156 481.7656,338.875 481.9375,338.6563 C482.0469,338.5 482.0781,338.3125 482.0781,337.8906 L482.0781,336.4688 C482.0781,336.0313 482.0625,335.9063 481.9688,335.75 C481.8125,335.4844 481.5313,335.3438 481.2344,335.3438 C480.9375,335.3438 480.7344,335.4375 480.5156,335.75 L480.3438,335.6719 Z " fill="#000000"/><text fill="#000000" font-family="sans-serif" font-size="12" lengthAdjust="spacing" textLength="95" x="492" y="344.1543">ReferenceValue</text><line style="stroke:#A80036;stroke-width:1.5;" x1="464" x2="589" y1="356" y2="356"/><!--MD5=[4e608140b854dae633589343bce77383]
class TestParameterResult--><rect codeLine="13" fill="#FEFECE" filter="url(#f12smest4cu5bd)" height="78.4141" id="TestParameterResult" style="stroke:#A80036;stroke-width:1.5;" width="155" x="262" y="460"/><ellipse cx="277" cy="476" fill="#ADD1B2" rx="11" ry="11" style="stroke:#A80036;stroke-width:1.0;"/><path d="M279.3438,471.6719 C278.4063,471.2344 277.8125,471.0938 276.9375,471.0938 C274.3125,471.0938 272.3125,473.1719 272.3125,475.8906 L272.3125,477.0156 C272.3125,479.5938 274.4219,481.4844 277.3125,481.4844 C278.5313,481.4844 279.6875,481.1875 280.4375,480.6406 C281.0156,480.2344 281.3438,479.7813 281.3438,479.3906 C281.3438,478.9375 280.9531,478.5469 280.4844,478.5469 C280.2656,478.5469 280.0625,478.625 279.875,478.8125 C279.4219,479.2969 279.4219,479.2969 279.2344,479.3906 C278.8125,479.6563 278.125,479.7813 277.3594,479.7813 C275.3125,479.7813 274.0156,478.6875 274.0156,476.9844 L274.0156,475.8906 C274.0156,474.1094 275.2656,472.7969 277,472.7969 C277.5781,472.7969 278.1875,472.9531 278.6563,473.2031 C279.1406,473.4844 279.3125,473.7031 279.4063,474.1094 C279.4688,474.5156 279.5,474.6406 279.6406,474.7656 C279.7813,474.9063 280.0156,475.0156 280.2344,475.0156 C280.5,475.0156 280.7656,474.875 280.9375,474.6563 C281.0469,474.5 281.0781,474.3125 281.0781,473.8906 L281.0781,472.4688 C281.0781,472.0313 281.0625,471.9063 280.9688,471.75 C280.8125,471.4844 280.5313,471.3438 280.2344,471.3438 C279.9375,471.3438 279.7344,471.4375 279.5156,471.75 L279.3438,471.6719 Z " fill="#000000"/><text fill="#000000" font-family="sans-serif" font-size="12" lengthAdjust="spacing" textLength="123" x="291" y="480.1543">TestParameterResult</text><line style="stroke:#A80036;stroke-width:1.5;" x1="263" x2="416" y1="492" y2="492"/><text fill="#000000" font-family="sans-serif" font-size="11" lengthAdjust="spacing" textLength="60" x="268" y="506.2104">-createdAt</text><text fill="#000000" font-family="sans-serif" font-size="11" lengthAdjust="spacing" textLength="36" x="268" y="519.0151">-value</text><text fill="#000000" font-family="sans-serif" font-size="11" lengthAdjust="spacing" textLength="40" x="268" y="531.8198">-metric</text><!--MD5=[0f07739f46effee96e095e9c408da841]
class TestParameter--><rect codeLine="19" fill="#FEFECE" filter="url(#f12smest4cu5bd)" height="40" id="TestParameter" style="stroke:#A80036;stroke-width:1.5;" width="119" x="143" y="615"/><ellipse cx="158" cy="631" fill="#ADD1B2" rx="11" ry="11" style="stroke:#A80036;stroke-width:1.0;"/><path d="M160.3438,626.6719 C159.4063,626.2344 158.8125,626.0938 157.9375,626.0938 C155.3125,626.0938 153.3125,628.1719 153.3125,630.8906 L153.3125,632.0156 C153.3125,634.5938 155.4219,636.4844 158.3125,636.4844 C159.5313,636.4844 160.6875,636.1875 161.4375,635.6406 C162.0156,635.2344 162.3438,634.7813 162.3438,634.3906 C162.3438,633.9375 161.9531,633.5469 161.4844,633.5469 C161.2656,633.5469 161.0625,633.625 160.875,633.8125 C160.4219,634.2969 160.4219,634.2969 160.2344,634.3906 C159.8125,634.6563 159.125,634.7813 158.3594,634.7813 C156.3125,634.7813 155.0156,633.6875 155.0156,631.9844 L155.0156,630.8906 C155.0156,629.1094 156.2656,627.7969 158,627.7969 C158.5781,627.7969 159.1875,627.9531 159.6563,628.2031 C160.1406,628.4844 160.3125,628.7031 160.4063,629.1094 C160.4688,629.5156 160.5,629.6406 160.6406,629.7656 C160.7813,629.9063 161.0156,630.0156 161.2344,630.0156 C161.5,630.0156 161.7656,629.875 161.9375,629.6563 C162.0469,629.5 162.0781,629.3125 162.0781,628.8906 L162.0781,627.4688 C162.0781,627.0313 162.0625,626.9063 161.9688,626.75 C161.8125,626.4844 161.5313,626.3438 161.2344,626.3438 C160.9375,626.3438 160.7344,626.4375 160.5156,626.75 L160.3438,626.6719 Z " fill="#000000"/><text fill="#000000" font-family="sans-serif" font-size="12" lengthAdjust="spacing" textLength="87" x="172" y="635.1543">TestParameter</text><line style="stroke:#A80036;stroke-width:1.5;" x1="144" x2="261" y1="647" y2="647"/><!--MD5=[1f6362a5c8f21d8d6a0fce68f3a92a4e]
class Parameter--><rect codeLine="23" fill="#FEFECE" filter="url(#f12smest4cu5bd)" height="78.4141" id="Parameter" style="stroke:#A80036;stroke-width:1.5;" width="93" x="285" y="305"/><ellipse cx="300" cy="321" fill="#ADD1B2" rx="11" ry="11" style="stroke:#A80036;stroke-width:1.0;"/><path d="M302.3438,316.6719 C301.4063,316.2344 300.8125,316.0938 299.9375,316.0938 C297.3125,316.0938 295.3125,318.1719 295.3125,320.8906 L295.3125,322.0156 C295.3125,324.5938 297.4219,326.4844 300.3125,326.4844 C301.5313,326.4844 302.6875,326.1875 303.4375,325.6406 C304.0156,325.2344 304.3438,324.7813 304.3438,324.3906 C304.3438,323.9375 303.9531,323.5469 303.4844,323.5469 C303.2656,323.5469 303.0625,323.625 302.875,323.8125 C302.4219,324.2969 302.4219,324.2969 302.2344,324.3906 C301.8125,324.6563 301.125,324.7813 300.3594,324.7813 C298.3125,324.7813 297.0156,323.6875 297.0156,321.9844 L297.0156,320.8906 C297.0156,319.1094 298.2656,317.7969 300,317.7969 C300.5781,317.7969 301.1875,317.9531 301.6563,318.2031 C302.1406,318.4844 302.3125,318.7031 302.4063,319.1094 C302.4688,319.5156 302.5,319.6406 302.6406,319.7656 C302.7813,319.9063 303.0156,320.0156 303.2344,320.0156 C303.5,320.0156 303.7656,319.875 303.9375,319.6563 C304.0469,319.5 304.0781,319.3125 304.0781,318.8906 L304.0781,317.4688 C304.0781,317.0313 304.0625,316.9063 303.9688,316.75 C303.8125,316.4844 303.5313,316.3438 303.2344,316.3438 C302.9375,316.3438 302.7344,316.4375 302.5156,316.75 L302.3438,316.6719 Z " fill="#000000"/><text fill="#000000" font-family="sans-serif" font-size="12" lengthAdjust="spacing" textLength="61" x="314" y="325.1543">Parameter</text><line style="stroke:#A80036;stroke-width:1.5;" x1="286" x2="377" y1="337" y2="337"/><text fill="#000000" font-family="sans-serif" font-size="11" lengthAdjust="spacing" textLength="32" x="291" y="351.2104">-code</text><text fill="#000000" font-family="sans-serif" font-size="11" lengthAdjust="spacing" textLength="66" x="291" y="364.0151">-shortName</text><text fill="#000000" font-family="sans-serif" font-size="11" lengthAdjust="spacing" textLength="66" x="291" y="376.8198">-description</text><!--MD5=[df38be88ccee13e832d6fafd6288a4ca]
class Test--><rect codeLine="30" fill="#FEFECE" filter="url(#f12smest4cu5bd)" height="78.4141" id="Test" style="stroke:#A80036;stroke-width:1.5;" width="72" x="34.5" y="150"/><ellipse cx="55.8" cy="166" fill="#ADD1B2" rx="11" ry="11" style="stroke:#A80036;stroke-width:1.0;"/><path d="M58.1438,161.6719 C57.2063,161.2344 56.6125,161.0938 55.7375,161.0938 C53.1125,161.0938 51.1125,163.1719 51.1125,165.8906 L51.1125,167.0156 C51.1125,169.5938 53.2219,171.4844 56.1125,171.4844 C57.3313,171.4844 58.4875,171.1875 59.2375,170.6406 C59.8156,170.2344 60.1438,169.7813 60.1438,169.3906 C60.1438,168.9375 59.7531,168.5469 59.2844,168.5469 C59.0656,168.5469 58.8625,168.625 58.675,168.8125 C58.2219,169.2969 58.2219,169.2969 58.0344,169.3906 C57.6125,169.6563 56.925,169.7813 56.1594,169.7813 C54.1125,169.7813 52.8156,168.6875 52.8156,166.9844 L52.8156,165.8906 C52.8156,164.1094 54.0656,162.7969 55.8,162.7969 C56.3781,162.7969 56.9875,162.9531 57.4563,163.2031 C57.9406,163.4844 58.1125,163.7031 58.2063,164.1094 C58.2688,164.5156 58.3,164.6406 58.4406,164.7656 C58.5813,164.9063 58.8156,165.0156 59.0344,165.0156 C59.3,165.0156 59.5656,164.875 59.7375,164.6563 C59.8469,164.5 59.8781,164.3125 59.8781,163.8906 L59.8781,162.4688 C59.8781,162.0313 59.8625,161.9063 59.7688,161.75 C59.6125,161.4844 59.3313,161.3438 59.0344,161.3438 C58.7375,161.3438 58.5344,161.4375 58.3156,161.75 L58.1438,161.6719 Z " fill="#000000"/><text fill="#000000" font-family="sans-serif" font-size="12" lengthAdjust="spacing" textLength="26" x="71.2" y="170.1543">Test</text><line style="stroke:#A80036;stroke-width:1.5;" x1="35.5" x2="105.5" y1="182" y2="182"/><text fill="#000000" font-family="sans-serif" font-size="11" lengthAdjust="spacing" textLength="50" x="40.5" y="196.2104">-barcode</text><text fill="#000000" font-family="sans-serif" font-size="11" lengthAdjust="spacing" textLength="56" x="40.5" y="209.0151">-NHScode</text><text fill="#000000" font-family="sans-serif" font-size="11" lengthAdjust="spacing" textLength="60" x="40.5" y="221.8198">-createdAt</text><!--MD5=[aeb3272166074d8737a70b61b1e71682]
class TestType--><rect codeLine="36" fill="#FEFECE" filter="url(#f12smest4cu5bd)" height="78.4141" id="TestType" style="stroke:#A80036;stroke-width:1.5;" width="112" x="243.5" y="150"/><ellipse cx="269.3" cy="166" fill="#ADD1B2" rx="11" ry="11" style="stroke:#A80036;stroke-width:1.0;"/><path d="M271.6438,161.6719 C270.7063,161.2344 270.1125,161.0938 269.2375,161.0938 C266.6125,161.0938 264.6125,163.1719 264.6125,165.8906 L264.6125,167.0156 C264.6125,169.5938 266.7219,171.4844 269.6125,171.4844 C270.8313,171.4844 271.9875,171.1875 272.7375,170.6406 C273.3156,170.2344 273.6438,169.7813 273.6438,169.3906 C273.6438,168.9375 273.2531,168.5469 272.7844,168.5469 C272.5656,168.5469 272.3625,168.625 272.175,168.8125 C271.7219,169.2969 271.7219,169.2969 271.5344,169.3906 C271.1125,169.6563 270.425,169.7813 269.6594,169.7813 C267.6125,169.7813 266.3156,168.6875 266.3156,166.9844 L266.3156,165.8906 C266.3156,164.1094 267.5656,162.7969 269.3,162.7969 C269.8781,162.7969 270.4875,162.9531 270.9563,163.2031 C271.4406,163.4844 271.6125,163.7031 271.7063,164.1094 C271.7688,164.5156 271.8,164.6406 271.9406,164.7656 C272.0813,164.9063 272.3156,165.0156 272.5344,165.0156 C272.8,165.0156 273.0656,164.875 273.2375,164.6563 C273.3469,164.5 273.3781,164.3125 273.3781,163.8906 L273.3781,162.4688 C273.3781,162.0313 273.3625,161.9063 273.2688,161.75 C273.1125,161.4844 272.8313,161.3438 272.5344,161.3438 C272.2375,161.3438 272.0344,161.4375 271.8156,161.75 L271.6438,161.6719 Z " fill="#000000"/><text fill="#000000" font-family="sans-serif" font-size="12" lengthAdjust="spacing" textLength="56" x="285.7" y="170.1543">TestType</text><line style="stroke:#A80036;stroke-width:1.5;" x1="244.5" x2="354.5" y1="182" y2="182"/><text fill="#000000" font-family="sans-serif" font-size="11" lengthAdjust="spacing" textLength="32" x="249.5" y="196.2104">-code</text><text fill="#000000" font-family="sans-serif" font-size="11" lengthAdjust="spacing" textLength="66" x="249.5" y="209.0151">-description</text><text fill="#000000" font-family="sans-serif" font-size="11" lengthAdjust="spacing" textLength="100" x="249.5" y="221.8198">-collectionMethod</text><!--MD5=[9681492165142af2a4a3a169d90ee8d4]
class Sample--><rect codeLine="43" fill="#FEFECE" filter="url(#f12smest4cu5bd)" height="65.6094" id="Sample" style="stroke:#A80036;stroke-width:1.5;" width="77" x="7" y="7"/><ellipse cx="22" cy="23" fill="#ADD1B2" rx="11" ry="11" style="stroke:#A80036;stroke-width:1.0;"/><path d="M24.3438,18.6719 C23.4063,18.2344 22.8125,18.0938 21.9375,18.0938 C19.3125,18.0938 17.3125,20.1719 17.3125,22.8906 L17.3125,24.0156 C17.3125,26.5938 19.4219,28.4844 22.3125,28.4844 C23.5313,28.4844 24.6875,28.1875 25.4375,27.6406 C26.0156,27.2344 26.3438,26.7813 26.3438,26.3906 C26.3438,25.9375 25.9531,25.5469 25.4844,25.5469 C25.2656,25.5469 25.0625,25.625 24.875,25.8125 C24.4219,26.2969 24.4219,26.2969 24.2344,26.3906 C23.8125,26.6563 23.125,26.7813 22.3594,26.7813 C20.3125,26.7813 19.0156,25.6875 19.0156,23.9844 L19.0156,22.8906 C19.0156,21.1094 20.2656,19.7969 22,19.7969 C22.5781,19.7969 23.1875,19.9531 23.6563,20.2031 C24.1406,20.4844 24.3125,20.7031 24.4063,21.1094 C24.4688,21.5156 24.5,21.6406 24.6406,21.7656 C24.7813,21.9063 25.0156,22.0156 25.2344,22.0156 C25.5,22.0156 25.7656,21.875 25.9375,21.6563 C26.0469,21.5 26.0781,21.3125 26.0781,20.8906 L26.0781,19.4688 C26.0781,19.0313 26.0625,18.9063 25.9688,18.75 C25.8125,18.4844 25.5313,18.3438 25.2344,18.3438 C24.9375,18.3438 24.7344,18.4375 24.5156,18.75 L24.3438,18.6719 Z " fill="#000000"/><text fill="#000000" font-family="sans-serif" font-size="12" lengthAdjust="spacing" textLength="45" x="36" y="27.1543">Sample</text><line style="stroke:#A80036;stroke-width:1.5;" x1="8" x2="83" y1="39" y2="39"/><text fill="#000000" font-family="sans-serif" font-size="11" lengthAdjust="spacing" textLength="50" x="13" y="53.2104">-barcode</text><text fill="#000000" font-family="sans-serif" font-size="11" lengthAdjust="spacing" textLength="30" x="13" y="66.0151">-date</text><!--MD5=[8f188b89eff49accb0f38c057b38a9f2]
class ExternalModule--><rect codeLine="48" fill="#FEFECE" filter="url(#f12smest4cu5bd)" height="40" id="ExternalModule" style="stroke:#A80036;stroke-width:1.5;" width="124" x="607.5" y="169"/><ellipse cx="622.5" cy="185" fill="#ADD1B2" rx="11" ry="11" style="stroke:#A80036;stroke-width:1.0;"/><path d="M624.8438,180.6719 C623.9063,180.2344 623.3125,180.0938 622.4375,180.0938 C619.8125,180.0938 617.8125,182.1719 617.8125,184.8906 L617.8125,186.0156 C617.8125,188.5938 619.9219,190.4844 622.8125,190.4844 C624.0313,190.4844 625.1875,190.1875 625.9375,189.6406 C626.5156,189.2344 626.8438,188.7813 626.8438,188.3906 C626.8438,187.9375 626.4531,187.5469 625.9844,187.5469 C625.7656,187.5469 625.5625,187.625 625.375,187.8125 C624.9219,188.2969 624.9219,188.2969 624.7344,188.3906 C624.3125,188.6563 623.625,188.7813 622.8594,188.7813 C620.8125,188.7813 619.5156,187.6875 619.5156,185.9844 L619.5156,184.8906 C619.5156,183.1094 620.7656,181.7969 622.5,181.7969 C623.0781,181.7969 623.6875,181.9531 624.1563,182.2031 C624.6406,182.4844 624.8125,182.7031 624.9063,183.1094 C624.9688,183.5156 625,183.6406 625.1406,183.7656 C625.2813,183.9063 625.5156,184.0156 625.7344,184.0156 C626,184.0156 626.2656,183.875 626.4375,183.6563 C626.5469,183.5 626.5781,183.3125 626.5781,182.8906 L626.5781,181.4688 C626.5781,181.0313 626.5625,180.9063 626.4688,180.75 C626.3125,180.4844 626.0313,180.3438 625.7344,180.3438 C625.4375,180.3438 625.2344,180.4375 625.0156,180.75 L624.8438,180.6719 Z " fill="#000000"/><text fill="#000000" font-family="sans-serif" font-size="12" lengthAdjust="spacing" textLength="92" x="636.5" y="189.1543">ExternalModule</text><line style="stroke:#A80036;stroke-width:1.5;" x1="608.5" x2="730.5" y1="201" y2="201"/><!--MD5=[86b2982ced9a310f9b4ad491674c42e1]
class ResultsValidation--><rect codeLine="52" fill="#FEFECE" filter="url(#f12smest4cu5bd)" height="65.6094" id="ResultsValidation" style="stroke:#A80036;stroke-width:1.5;" width="133" x="394" y="7"/><ellipse cx="409" cy="23" fill="#ADD1B2" rx="11" ry="11" style="stroke:#A80036;stroke-width:1.0;"/><path d="M411.3438,18.6719 C410.4063,18.2344 409.8125,18.0938 408.9375,18.0938 C406.3125,18.0938 404.3125,20.1719 404.3125,22.8906 L404.3125,24.0156 C404.3125,26.5938 406.4219,28.4844 409.3125,28.4844 C410.5313,28.4844 411.6875,28.1875 412.4375,27.6406 C413.0156,27.2344 413.3438,26.7813 413.3438,26.3906 C413.3438,25.9375 412.9531,25.5469 412.4844,25.5469 C412.2656,25.5469 412.0625,25.625 411.875,25.8125 C411.4219,26.2969 411.4219,26.2969 411.2344,26.3906 C410.8125,26.6563 410.125,26.7813 409.3594,26.7813 C407.3125,26.7813 406.0156,25.6875 406.0156,23.9844 L406.0156,22.8906 C406.0156,21.1094 407.2656,19.7969 409,19.7969 C409.5781,19.7969 410.1875,19.9531 410.6563,20.2031 C411.1406,20.4844 411.3125,20.7031 411.4063,21.1094 C411.4688,21.5156 411.5,21.6406 411.6406,21.7656 C411.7813,21.9063 412.0156,22.0156 412.2344,22.0156 C412.5,22.0156 412.7656,21.875 412.9375,21.6563 C413.0469,21.5 413.0781,21.3125 413.0781,20.8906 L413.0781,19.4688 C413.0781,19.0313 413.0625,18.9063 412.9688,18.75 C412.8125,18.4844 412.5313,18.3438 412.2344,18.3438 C411.9375,18.3438 411.7344,18.4375 411.5156,18.75 L411.3438,18.6719 Z " fill="#000000"/><text fill="#000000" font-family="sans-serif" font-size="12" lengthAdjust="spacing" textLength="101" x="423" y="27.1543">ResultsValidation</text><line style="stroke:#A80036;stroke-width:1.5;" x1="395" x2="526" y1="39" y2="39"/><text fill="#000000" font-family="sans-serif" font-size="11" lengthAdjust="spacing" textLength="40" x="400" y="53.2104">-param</text><text fill="#000000" font-family="sans-serif" font-size="11" lengthAdjust="spacing" textLength="41" x="400" y="66.0151">-isValid</text><!--MD5=[7e4bc624457760b649895ff2ead938fa]
link Company to Test--><path codeLine="57" d="M271.998,66.605 C225.166,94.82 150.65,139.713 106.5605,166.275 " fill="none" id="Company-Test" style="stroke:#A80036;stroke-width:1.0;"/><polygon fill="#000000" points="208.2172,114.1466,217.4815,111.9963,214.4482,106.9616,208.2172,114.1466" style="stroke:#000000;stroke-width:1.0;"/><text fill="#000000" font-family="sans-serif" font-size="13" lengthAdjust="spacing" textLength="59" x="221.5" y="116.0669">performs</text><text fill="#000000" font-family="sans-serif" font-size="13" lengthAdjust="spacing" textLength="8" x="254.407" y="85.7399">1</text><text fill="#000000" font-family="sans-serif" font-size="13" lengthAdjust="spacing" textLength="7" x="114.7199" y="157.079">*</text><!--MD5=[742a261f27a3dcd734c626287d811acd]
link Company to TestType--><path codeLine="58" d="M311.887,66.605 C309.545,89.556 306.077,123.541 303.406,149.719 " fill="none" id="Company-TestType" style="stroke:#A80036;stroke-width:1.0;"/><polygon fill="#000000" points="312.9924,116.5406,316.8344,107.8406,310.9869,107.2439,312.9924,116.5406" style="stroke:#000000;stroke-width:1.0;"/><text fill="#000000" font-family="sans-serif" font-size="13" lengthAdjust="spacing" textLength="58" x="322.5" y="116.0669">conducts</text><text fill="#000000" font-family="sans-serif" font-size="13" lengthAdjust="spacing" textLength="8" x="302.4404" y="86.1683">1</text><text fill="#000000" font-family="sans-serif" font-size="13" lengthAdjust="spacing" textLength="8" x="295.3904" y="139.0145">1</text><!--MD5=[12d76240d3c3c66074d4ec2ea8bf469c]
link Company to Parameter--><path codeLine="59" d="M358.464,66.8 C370.827,76.457 382.736,88.632 389.5,103 C421.087,170.095 383.495,256.11 355.798,304.833 " fill="none" id="Company-Parameter" style="stroke:#A80036;stroke-width:1.0;"/><polygon fill="#000000" points="407.444,194.0661,410.484,185.0545,404.6066,184.9887,407.444,194.0661" style="stroke:#000000;stroke-width:1.0;"/><text fill="#000000" font-family="sans-serif" font-size="13" lengthAdjust="spacing" textLength="132" x="416.5" y="193.5669">capable of analysing</text><text fill="#000000" font-family="sans-serif" font-size="13" lengthAdjust="spacing" textLength="8" x="359.2061" y="86.4059">1</text><text fill="#000000" font-family="sans-serif" font-size="13" lengthAdjust="spacing" textLength="7" x="352.3727" y="293.8548">*</text><!--MD5=[e981d4f96c4342412d1e68160b30cf70]
link Test to TestType--><path codeLine="60" d="M106.5332,189 C143.186,189 200.51,189 243.167,189 " fill="none" id="Test-TestType" style="stroke:#A80036;stroke-width:1.0;"/><polygon fill="#000000" points="134,177.5664,124.9549,174.6275,124.9549,180.5053,134,177.5664" style="stroke:#000000;stroke-width:1.0;"/><text fill="#000000" font-family="sans-serif" font-size="13" lengthAdjust="spacing" textLength="87" x="138" y="182.0669">makes use of</text><text fill="#000000" font-family="sans-serif" font-size="13" lengthAdjust="spacing" textLength="8" x="114.4147" y="184.5626">1</text><text fill="#000000" font-family="sans-serif" font-size="13" lengthAdjust="spacing" textLength="7" x="228.5009" y="185.0879">*</text><!--MD5=[f24c888dadeb846430474fe80a58922b]
link Test to TestParameter--><path codeLine="61" d="M81.8685,228.239 C109.009,319.531 176.814,547.602 196.844,614.9741 " fill="none" id="Test-TestParameter" style="stroke:#A80036;stroke-width:1.0;"/><polygon fill="#000000" points="147.9249,426.3591,148.1643,416.8515,142.5302,418.5266,147.9249,426.3591" style="stroke:#000000;stroke-width:1.0;"/><text fill="#000000" font-family="sans-serif" font-size="13" lengthAdjust="spacing" textLength="105" x="155.5" y="426.0669">request analysis</text><text fill="#000000" font-family="sans-serif" font-size="13" lengthAdjust="spacing" textLength="7" x="76.2701" y="248.6062">*</text><text fill="#000000" font-family="sans-serif" font-size="13" lengthAdjust="spacing" textLength="7" x="187.1544" y="603.9748">*</text><!--MD5=[c23963f6e403fc3ebec8dae22c30ade6]
link Test to Parameter--><path codeLine="62" d="M106.5169,211.113 C152.944,238.33 233.76,285.704 284.845,315.651 " fill="none" id="Test-Parameter" style="stroke:#A80036;stroke-width:1.0;"/><polygon fill="#000000" points="218.8135,269.095,212.4966,261.9853,209.524,267.0561,218.8135,269.095" style="stroke:#000000;stroke-width:1.0;"/><text fill="#000000" font-family="sans-serif" font-size="13" lengthAdjust="spacing" textLength="105" x="223.5" y="271.0669">request analysis</text><text fill="#000000" font-family="sans-serif" font-size="13" lengthAdjust="spacing" textLength="7" x="114.6673" y="211.1648">*</text><text fill="#000000" font-family="sans-serif" font-size="13" lengthAdjust="spacing" textLength="7" x="269.8515" y="306.982">*</text><!--MD5=[71e6920dcc27afae8f25537cd5357b5f]
link TestType to ExternalModule--><path codeLine="63" d="M355.637,154.405 C412.569,123.886 502.829,88.116 578.5,115 C608.433,125.634 635.677,150.787 652.394,168.815 " fill="none" id="TestType-ExternalModule" style="stroke:#A80036;stroke-width:1.0;"/><polygon fill="#000000" points="486.4941,111.8089,477.6022,108.4347,477.3171,114.3057,486.4941,111.8089" style="stroke:#000000;stroke-width:1.0;"/><text fill="#000000" font-family="sans-serif" font-size="13" lengthAdjust="spacing" textLength="87" x="490.5" y="116.0669">makes use of</text><text fill="#000000" font-family="sans-serif" font-size="13" lengthAdjust="spacing" textLength="8" x="363.3421" y="146.0605">1</text><text fill="#000000" font-family="sans-serif" font-size="13" lengthAdjust="spacing" textLength="7" x="639.341" y="157.7689">*</text><!--MD5=[47cc88f3c536b52a6cee7e6f2da83dc0]
link ExternalModule to ReferenceValue--><path codeLine="64" d="M651.678,209.068 C624.276,238.387 572.084,294.228 544.547,323.691 " fill="none" id="ExternalModule-ReferenceValue" style="stroke:#A80036;stroke-width:1.0;"/><polygon fill="#000000" points="609.9141,262.9135,601.5908,267.5149,605.885,271.5284,609.9141,262.9135" style="stroke:#000000;stroke-width:1.0;"/><text fill="#000000" font-family="sans-serif" font-size="13" lengthAdjust="spacing" textLength="76" x="615.5" y="271.0669">provided by</text><text fill="#000000" font-family="sans-serif" font-size="13" lengthAdjust="spacing" textLength="8" x="637.5406" y="228.9071">1</text><text fill="#000000" font-family="sans-serif" font-size="13" lengthAdjust="spacing" textLength="7" x="541.6383" y="312.9553">*</text><!--MD5=[166b32c017035243ed8780a05e3f542e]
link TestParameterResult to TestParameter--><path codeLine="65" d="M300.608,538.041 C274.977,563.1103 242.498,594.8782 222.101,614.8278 " fill="none" id="TestParameterResult-TestParameter" style="stroke:#A80036;stroke-width:1.0;"/><polygon fill="#000000" points="276.0745,573.0703,267.5532,577.2938,271.6632,581.4959,276.0745,573.0703" style="stroke:#000000;stroke-width:1.0;"/><text fill="#000000" font-family="sans-serif" font-size="13" lengthAdjust="spacing" textLength="54" x="281.5" y="581.0669">contains</text><text fill="#000000" font-family="sans-serif" font-size="13" lengthAdjust="spacing" textLength="8" x="284.9679" y="558.373">1</text><text fill="#000000" font-family="sans-serif" font-size="13" lengthAdjust="spacing" textLength="8" x="218.6838" y="603.7855">1</text><!--MD5=[2fc0f4084f299b8e83a57524f584a65e]
link ReferenceValue to TestParameterResult--><path codeLine="66" d="M503.194,364.068 C474.018,387.94 423.352,429.394 386.095,459.877 " fill="none" id="ReferenceValue-TestParameterResult" style="stroke:#A80036;stroke-width:1.0;"/><polygon fill="#000000" points="448.3698,418.4002,439.5082,421.8533,443.2303,426.4025,448.3698,418.4002" style="stroke:#000000;stroke-width:1.0;"/><text fill="#000000" font-family="sans-serif" font-size="13" lengthAdjust="spacing" textLength="76" x="453.5" y="426.0669">provided by</text><text fill="#000000" font-family="sans-serif" font-size="13" lengthAdjust="spacing" textLength="8" x="487.5142" y="383.9071">1</text><text fill="#000000" font-family="sans-serif" font-size="13" lengthAdjust="spacing" textLength="7" x="386.502" y="448.9064">*</text><!--MD5=[1ae83efc6d1967ce5bc17dfe294d00c2]
link Sample to Test--><path codeLine="67" d="M40.9201,73.169 C39.722,87.61 39.4902,104.785 42.5,120 C44.4821,130.02 47.9598,140.418 51.8047,149.979 " fill="none" id="Sample-Test" style="stroke:#A80036;stroke-width:1.0;"/><polygon fill="#000000" points="48.2015,116.5169,49.8423,107.149,44.0226,107.9737,48.2015,116.5169" style="stroke:#000000;stroke-width:1.0;"/><text fill="#000000" font-family="sans-serif" font-size="13" lengthAdjust="spacing" textLength="100" x="56.5" y="116.0669">is associated to</text><text fill="#000000" font-family="sans-serif" font-size="13" lengthAdjust="spacing" textLength="7" x="32.4304" y="92.7825">*</text><text fill="#000000" font-family="sans-serif" font-size="13" lengthAdjust="spacing" textLength="23" x="23.6149" y="139.0259">1..*</text><!--MD5=[b6a304edf0d643beb130509f11bc35f1]
@startuml
hide methods
skinparam classAttributeIconSize 0

class Company {
-designation
}


class ReferenceValue {

}

class TestParameterResult {
  -createdAt
  -value
  -metric 
}

class TestParameter {
  
}

class Parameter {
  -code
  -shortName
  -description
}


class Test {
  -barcode
  -NHScode
  -createdAt
}

class TestType {
  -code
  -description
  -collectionMethod

}

class Sample {
-barcode
-date
}

class ExternalModule {

}

class ResultsValidation {
-param
-isValid
}

Company "1" -d- "*" Test :> performs
Company "1" -d- "1" TestType :> conducts
Company "1" -d- "*" Parameter :> capable of analysing
Test "1" -r- "*" TestType :> makes use of
Test "*" -d- "*" TestParameter :> request analysis
Test "*" -d- "*" Parameter :> request analysis
TestType "1" -r- "*" ExternalModule :> makes use of
ReferenceValue "*" -u- "1" ExternalModule :> provided by
TestParameter "1" -u- "1" TestParameterResult:> contains
TestParameterResult "*" -u- "1" ReferenceValue:> provided by
Sample "*" - - "1..*" Test: is associated to >
@enduml

PlantUML version 1.2021.7beta1(Unknown compile time)
(GPL source distribution)
Java Runtime: Java(TM) SE Runtime Environment
JVM: Java HotSpot(TM) 64-Bit Server VM
Default Encoding: UTF-8
Language: en
Country: US
--></g></svg>