<?xml version="1.0" encoding="UTF-8" standalone="no"?><svg xmlns="http://www.w3.org/2000/svg" xmlns:xlink="http://www.w3.org/1999/xlink" contentScriptType="application/ecmascript" contentStyleType="text/css" height="617px" preserveAspectRatio="none" style="width:1977px;height:617px;background:#FFFFFF;" version="1.1" viewBox="0 0 1977 617" width="1977px" zoomAndPan="magnify"><defs><filter height="300%" id="f1kt1fnayfzv9j" width="300%" x="-1" y="-1"><feGaussianBlur result="blurOut" stdDeviation="2.0"/><feColorMatrix in="blurOut" result="blurOut2" type="matrix" values="0 0 0 0 0 0 0 0 0 0 0 0 0 0 0 0 0 0 .4 0"/><feOffset dx="4.0" dy="4.0" in="blurOut2" result="blurOut3"/><feBlend in="SourceGraphic" in2="blurOut3" mode="normal"/></filter></defs><g><!--MD5=[1f6362a5c8f21d8d6a0fce68f3a92a4e]
class Parameter--><rect codeLine="3" fill="#FEFECE" filter="url(#f1kt1fnayfzv9j)" height="86.4141" id="Parameter" style="stroke:#A80036;stroke-width:1.5;" width="93" x="213.5" y="510.5"/><ellipse cx="228.5" cy="526.5" fill="#ADD1B2" rx="11" ry="11" style="stroke:#A80036;stroke-width:1.0;"/><path d="M230.8438,522.1719 C229.9063,521.7344 229.3125,521.5938 228.4375,521.5938 C225.8125,521.5938 223.8125,523.6719 223.8125,526.3906 L223.8125,527.5156 C223.8125,530.0938 225.9219,531.9844 228.8125,531.9844 C230.0313,531.9844 231.1875,531.6875 231.9375,531.1406 C232.5156,530.7344 232.8438,530.2813 232.8438,529.8906 C232.8438,529.4375 232.4531,529.0469 231.9844,529.0469 C231.7656,529.0469 231.5625,529.125 231.375,529.3125 C230.9219,529.7969 230.9219,529.7969 230.7344,529.8906 C230.3125,530.1563 229.625,530.2813 228.8594,530.2813 C226.8125,530.2813 225.5156,529.1875 225.5156,527.4844 L225.5156,526.3906 C225.5156,524.6094 226.7656,523.2969 228.5,523.2969 C229.0781,523.2969 229.6875,523.4531 230.1563,523.7031 C230.6406,523.9844 230.8125,524.2031 230.9063,524.6094 C230.9688,525.0156 231,525.1406 231.1406,525.2656 C231.2813,525.4063 231.5156,525.5156 231.7344,525.5156 C232,525.5156 232.2656,525.375 232.4375,525.1563 C232.5469,525 232.5781,524.8125 232.5781,524.3906 L232.5781,522.9688 C232.5781,522.5313 232.5625,522.4063 232.4688,522.25 C232.3125,521.9844 232.0313,521.8438 231.7344,521.8438 C231.4375,521.8438 231.2344,521.9375 231.0156,522.25 L230.8438,522.1719 Z " fill="#000000"/><text fill="#000000" font-family="sans-serif" font-size="12" lengthAdjust="spacing" textLength="61" x="242.5" y="530.6543">Parameter</text><line style="stroke:#A80036;stroke-width:1.5;" x1="214.5" x2="305.5" y1="542.5" y2="542.5"/><text fill="#000000" font-family="sans-serif" font-size="11" lengthAdjust="spacing" textLength="32" x="219.5" y="556.7104">-code</text><text fill="#000000" font-family="sans-serif" font-size="11" lengthAdjust="spacing" textLength="66" x="219.5" y="569.5151">-shortName</text><text fill="#000000" font-family="sans-serif" font-size="11" lengthAdjust="spacing" textLength="66" x="219.5" y="582.3198">-description</text><line style="stroke:#A80036;stroke-width:1.5;" x1="214.5" x2="305.5" y1="588.9141" y2="588.9141"/><!--MD5=[62bdb6435f21fcc181756dc3392fb99a]
class RecordTestResultUI--><rect codeLine="9" fill="#FEFECE" filter="url(#f1kt1fnayfzv9j)" height="48" id="RecordTestResultUI" style="stroke:#A80036;stroke-width:1.5;" width="149" x="176.5" y="39"/><ellipse cx="191.5" cy="55" fill="#ADD1B2" rx="11" ry="11" style="stroke:#A80036;stroke-width:1.0;"/><path d="M193.8438,50.6719 C192.9063,50.2344 192.3125,50.0938 191.4375,50.0938 C188.8125,50.0938 186.8125,52.1719 186.8125,54.8906 L186.8125,56.0156 C186.8125,58.5938 188.9219,60.4844 191.8125,60.4844 C193.0313,60.4844 194.1875,60.1875 194.9375,59.6406 C195.5156,59.2344 195.8438,58.7813 195.8438,58.3906 C195.8438,57.9375 195.4531,57.5469 194.9844,57.5469 C194.7656,57.5469 194.5625,57.625 194.375,57.8125 C193.9219,58.2969 193.9219,58.2969 193.7344,58.3906 C193.3125,58.6563 192.625,58.7813 191.8594,58.7813 C189.8125,58.7813 188.5156,57.6875 188.5156,55.9844 L188.5156,54.8906 C188.5156,53.1094 189.7656,51.7969 191.5,51.7969 C192.0781,51.7969 192.6875,51.9531 193.1563,52.2031 C193.6406,52.4844 193.8125,52.7031 193.9063,53.1094 C193.9688,53.5156 194,53.6406 194.1406,53.7656 C194.2813,53.9063 194.5156,54.0156 194.7344,54.0156 C195,54.0156 195.2656,53.875 195.4375,53.6563 C195.5469,53.5 195.5781,53.3125 195.5781,52.8906 L195.5781,51.4688 C195.5781,51.0313 195.5625,50.9063 195.4688,50.75 C195.3125,50.4844 195.0313,50.3438 194.7344,50.3438 C194.4375,50.3438 194.2344,50.4375 194.0156,50.75 L193.8438,50.6719 Z " fill="#000000"/><text fill="#000000" font-family="sans-serif" font-size="12" lengthAdjust="spacing" textLength="117" x="205.5" y="59.1543">RecordTestResultUI</text><line style="stroke:#A80036;stroke-width:1.5;" x1="177.5" x2="324.5" y1="71" y2="71"/><line style="stroke:#A80036;stroke-width:1.5;" x1="177.5" x2="324.5" y1="79" y2="79"/><!--MD5=[ef30bcd9a8851b2fb15fb683dae6a22f]
class RecordTestResultController--><rect codeLine="12" fill="#FEFECE" filter="url(#f1kt1fnayfzv9j)" height="73.6094" id="RecordTestResultController" style="stroke:#A80036;stroke-width:1.5;" width="280" x="111" y="180"/><ellipse cx="164.75" cy="196" fill="#ADD1B2" rx="11" ry="11" style="stroke:#A80036;stroke-width:1.0;"/><path d="M167.0938,191.6719 C166.1563,191.2344 165.5625,191.0938 164.6875,191.0938 C162.0625,191.0938 160.0625,193.1719 160.0625,195.8906 L160.0625,197.0156 C160.0625,199.5938 162.1719,201.4844 165.0625,201.4844 C166.2813,201.4844 167.4375,201.1875 168.1875,200.6406 C168.7656,200.2344 169.0938,199.7813 169.0938,199.3906 C169.0938,198.9375 168.7031,198.5469 168.2344,198.5469 C168.0156,198.5469 167.8125,198.625 167.625,198.8125 C167.1719,199.2969 167.1719,199.2969 166.9844,199.3906 C166.5625,199.6563 165.875,199.7813 165.1094,199.7813 C163.0625,199.7813 161.7656,198.6875 161.7656,196.9844 L161.7656,195.8906 C161.7656,194.1094 163.0156,192.7969 164.75,192.7969 C165.3281,192.7969 165.9375,192.9531 166.4063,193.2031 C166.8906,193.4844 167.0625,193.7031 167.1563,194.1094 C167.2188,194.5156 167.25,194.6406 167.3906,194.7656 C167.5313,194.9063 167.7656,195.0156 167.9844,195.0156 C168.25,195.0156 168.5156,194.875 168.6875,194.6563 C168.7969,194.5 168.8281,194.3125 168.8281,193.8906 L168.8281,192.4688 C168.8281,192.0313 168.8125,191.9063 168.7188,191.75 C168.5625,191.4844 168.2813,191.3438 167.9844,191.3438 C167.6875,191.3438 167.4844,191.4375 167.2656,191.75 L167.0938,191.6719 Z " fill="#000000"/><text fill="#000000" font-family="sans-serif" font-size="12" lengthAdjust="spacing" textLength="164" x="185.25" y="200.1543">RecordTestResultController</text><line style="stroke:#A80036;stroke-width:1.5;" x1="112" x2="390" y1="212" y2="212"/><line style="stroke:#A80036;stroke-width:1.5;" x1="112" x2="390" y1="220" y2="220"/><text fill="#000000" font-family="sans-serif" font-size="11" lengthAdjust="spacing" textLength="109" x="117" y="234.2104">testExists(barcode)</text><text fill="#000000" font-family="sans-serif" font-size="11" lengthAdjust="spacing" textLength="268" x="117" y="247.0151">+addTestResults(parameterCode,result,metric)</text><!--MD5=[0f07739f46effee96e095e9c408da841]
class TestParameter--><rect codeLine="17" fill="#FEFECE" filter="url(#f1kt1fnayfzv9j)" height="73.6094" id="TestParameter" style="stroke:#A80036;stroke-width:1.5;" width="208" x="398" y="516.5"/><ellipse cx="454.25" cy="532.5" fill="#ADD1B2" rx="11" ry="11" style="stroke:#A80036;stroke-width:1.0;"/><path d="M456.5938,528.1719 C455.6563,527.7344 455.0625,527.5938 454.1875,527.5938 C451.5625,527.5938 449.5625,529.6719 449.5625,532.3906 L449.5625,533.5156 C449.5625,536.0938 451.6719,537.9844 454.5625,537.9844 C455.7813,537.9844 456.9375,537.6875 457.6875,537.1406 C458.2656,536.7344 458.5938,536.2813 458.5938,535.8906 C458.5938,535.4375 458.2031,535.0469 457.7344,535.0469 C457.5156,535.0469 457.3125,535.125 457.125,535.3125 C456.6719,535.7969 456.6719,535.7969 456.4844,535.8906 C456.0625,536.1563 455.375,536.2813 454.6094,536.2813 C452.5625,536.2813 451.2656,535.1875 451.2656,533.4844 L451.2656,532.3906 C451.2656,530.6094 452.5156,529.2969 454.25,529.2969 C454.8281,529.2969 455.4375,529.4531 455.9063,529.7031 C456.3906,529.9844 456.5625,530.2031 456.6563,530.6094 C456.7188,531.0156 456.75,531.1406 456.8906,531.2656 C457.0313,531.4063 457.2656,531.5156 457.4844,531.5156 C457.75,531.5156 458.0156,531.375 458.1875,531.1563 C458.2969,531 458.3281,530.8125 458.3281,530.3906 L458.3281,528.9688 C458.3281,528.5313 458.3125,528.4063 458.2188,528.25 C458.0625,527.9844 457.7813,527.8438 457.4844,527.8438 C457.1875,527.8438 456.9844,527.9375 456.7656,528.25 L456.5938,528.1719 Z " fill="#000000"/><text fill="#000000" font-family="sans-serif" font-size="12" lengthAdjust="spacing" textLength="87" x="474.75" y="536.6543">TestParameter</text><line style="stroke:#A80036;stroke-width:1.5;" x1="399" x2="605" y1="548.5" y2="548.5"/><line style="stroke:#A80036;stroke-width:1.5;" x1="399" x2="605" y1="556.5" y2="556.5"/><text fill="#000000" font-family="sans-serif" font-size="11" lengthAdjust="spacing" textLength="95" x="404" y="570.7104">+getParameter()</text><text fill="#000000" font-family="sans-serif" font-size="11" lengthAdjust="spacing" textLength="196" x="404" y="583.5151">+addResult(result,metric,refValue)</text><!--MD5=[df38be88ccee13e832d6fafd6288a4ca]
class Test--><rect codeLine="22" fill="#FEFECE" filter="url(#f1kt1fnayfzv9j)" height="112.0234" id="Test" style="stroke:#A80036;stroke-width:1.5;" width="280" x="362" y="315"/><ellipse cx="484.75" cy="331" fill="#ADD1B2" rx="11" ry="11" style="stroke:#A80036;stroke-width:1.0;"/><path d="M487.0938,326.6719 C486.1563,326.2344 485.5625,326.0938 484.6875,326.0938 C482.0625,326.0938 480.0625,328.1719 480.0625,330.8906 L480.0625,332.0156 C480.0625,334.5938 482.1719,336.4844 485.0625,336.4844 C486.2813,336.4844 487.4375,336.1875 488.1875,335.6406 C488.7656,335.2344 489.0938,334.7813 489.0938,334.3906 C489.0938,333.9375 488.7031,333.5469 488.2344,333.5469 C488.0156,333.5469 487.8125,333.625 487.625,333.8125 C487.1719,334.2969 487.1719,334.2969 486.9844,334.3906 C486.5625,334.6563 485.875,334.7813 485.1094,334.7813 C483.0625,334.7813 481.7656,333.6875 481.7656,331.9844 L481.7656,330.8906 C481.7656,329.1094 483.0156,327.7969 484.75,327.7969 C485.3281,327.7969 485.9375,327.9531 486.4063,328.2031 C486.8906,328.4844 487.0625,328.7031 487.1563,329.1094 C487.2188,329.5156 487.25,329.6406 487.3906,329.7656 C487.5313,329.9063 487.7656,330.0156 487.9844,330.0156 C488.25,330.0156 488.5156,329.875 488.6875,329.6563 C488.7969,329.5 488.8281,329.3125 488.8281,328.8906 L488.8281,327.4688 C488.8281,327.0313 488.8125,326.9063 488.7188,326.75 C488.5625,326.4844 488.2813,326.3438 487.9844,326.3438 C487.6875,326.3438 487.4844,326.4375 487.2656,326.75 L487.0938,326.6719 Z " fill="#000000"/><text fill="#000000" font-family="sans-serif" font-size="12" lengthAdjust="spacing" textLength="26" x="505.25" y="335.1543">Test</text><line style="stroke:#A80036;stroke-width:1.5;" x1="363" x2="641" y1="347" y2="347"/><text fill="#000000" font-family="sans-serif" font-size="11" lengthAdjust="spacing" textLength="32" x="368" y="361.2104">-code</text><text fill="#000000" font-family="sans-serif" font-size="11" lengthAdjust="spacing" textLength="55" x="368" y="374.0151">-NhsCode</text><text fill="#000000" font-family="sans-serif" font-size="11" lengthAdjust="spacing" textLength="60" x="368" y="386.8198">-createdAt</text><line style="stroke:#A80036;stroke-width:1.5;" x1="363" x2="641" y1="393.4141" y2="393.4141"/><text fill="#000000" font-family="sans-serif" font-size="11" lengthAdjust="spacing" textLength="268" x="368" y="407.6245">+addTestResults(parameterCode,result,metric)</text><text fill="#000000" font-family="sans-serif" font-size="11" lengthAdjust="spacing" textLength="222" x="368" y="420.4292">-getTestParameterFor(parameterCode)</text><!--MD5=[8f188b89eff49accb0f38c057b38a9f2]
class ExternalModule--><rect codeLine="30" fill="#FEFECE" filter="url(#f1kt1fnayfzv9j)" height="60.8047" id="ExternalModule" style="stroke:#A80036;stroke-width:1.5;" width="337" x="965.5" y="340.5"/><ellipse cx="1083.25" cy="356.5" fill="#B4A7E5" rx="11" ry="11" style="stroke:#A80036;stroke-width:1.0;"/><path d="M1084.2031,353.2813 L1085.9219,353.2813 C1086.3125,353.2813 1086.5,353.25 1086.625,353.1719 C1086.8906,353.0156 1087.0313,352.7344 1087.0313,352.4375 C1087.0313,352.1719 1086.9219,351.9063 1086.6875,351.7344 C1086.5156,351.625 1086.375,351.5938 1085.9219,351.5938 L1080.7813,351.5938 C1080.3438,351.5938 1080.2188,351.6094 1080.0625,351.7031 C1079.8125,351.8594 1079.6563,352.1563 1079.6563,352.4375 C1079.6563,352.7188 1079.7969,352.9688 1080.0156,353.1406 C1080.1719,353.25 1080.3594,353.2813 1080.7813,353.2813 L1082.5,353.2813 L1082.5,359.7969 L1080.7813,359.7969 C1080.3438,359.7969 1080.2188,359.8125 1080.0625,359.9219 C1079.8125,360.0781 1079.6563,360.3594 1079.6563,360.6563 C1079.6563,360.9063 1079.7969,361.1719 1080.0156,361.3281 C1080.1719,361.4531 1080.375,361.5 1080.7813,361.5 L1085.9219,361.5 C1086.6719,361.5 1087.0313,361.2188 1087.0313,360.6563 C1087.0313,360.375 1086.9219,360.125 1086.6875,359.9531 C1086.5156,359.8281 1086.375,359.7969 1085.9219,359.7969 L1084.2031,359.7969 L1084.2031,353.2813 Z " fill="#000000"/><text fill="#000000" font-family="sans-serif" font-size="12" font-style="italic" lengthAdjust="spacing" textLength="93" x="1103.75" y="360.6543">ExternalModule</text><line style="stroke:#A80036;stroke-width:1.5;" x1="966.5" x2="1301.5" y1="372.5" y2="372.5"/><line style="stroke:#A80036;stroke-width:1.5;" x1="966.5" x2="1301.5" y1="380.5" y2="380.5"/><text fill="#000000" font-family="sans-serif" font-size="11" lengthAdjust="spacing" textLength="325" x="971.5" y="394.7104">+ReferenceValue getReferenceValue(Parameter param)</text><!--MD5=[0f11f0f60ee567100a99d4d7b98e8e2f]
class ExternalModuleAdapter1--><rect codeLine="34" fill="#FEFECE" filter="url(#f1kt1fnayfzv9j)" height="60.8047" id="ExternalModuleAdapter1" style="stroke:#A80036;stroke-width:1.5;" width="337" x="593.5" y="186.5"/><ellipse cx="684.25" cy="202.5" fill="#ADD1B2" rx="11" ry="11" style="stroke:#A80036;stroke-width:1.0;"/><path d="M686.5938,198.1719 C685.6563,197.7344 685.0625,197.5938 684.1875,197.5938 C681.5625,197.5938 679.5625,199.6719 679.5625,202.3906 L679.5625,203.5156 C679.5625,206.0938 681.6719,207.9844 684.5625,207.9844 C685.7813,207.9844 686.9375,207.6875 687.6875,207.1406 C688.2656,206.7344 688.5938,206.2813 688.5938,205.8906 C688.5938,205.4375 688.2031,205.0469 687.7344,205.0469 C687.5156,205.0469 687.3125,205.125 687.125,205.3125 C686.6719,205.7969 686.6719,205.7969 686.4844,205.8906 C686.0625,206.1563 685.375,206.2813 684.6094,206.2813 C682.5625,206.2813 681.2656,205.1875 681.2656,203.4844 L681.2656,202.3906 C681.2656,200.6094 682.5156,199.2969 684.25,199.2969 C684.8281,199.2969 685.4375,199.4531 685.9063,199.7031 C686.3906,199.9844 686.5625,200.2031 686.6563,200.6094 C686.7188,201.0156 686.75,201.1406 686.8906,201.2656 C687.0313,201.4063 687.2656,201.5156 687.4844,201.5156 C687.75,201.5156 688.0156,201.375 688.1875,201.1563 C688.2969,201 688.3281,200.8125 688.3281,200.3906 L688.3281,198.9688 C688.3281,198.5313 688.3125,198.4063 688.2188,198.25 C688.0625,197.9844 687.7813,197.8438 687.4844,197.8438 C687.1875,197.8438 686.9844,197.9375 686.7656,198.25 L686.5938,198.1719 Z " fill="#000000"/><text fill="#000000" font-family="sans-serif" font-size="12" lengthAdjust="spacing" textLength="147" x="704.75" y="206.6543">ExternalModuleAdapter1</text><line style="stroke:#A80036;stroke-width:1.5;" x1="594.5" x2="929.5" y1="218.5" y2="218.5"/><line style="stroke:#A80036;stroke-width:1.5;" x1="594.5" x2="929.5" y1="226.5" y2="226.5"/><text fill="#000000" font-family="sans-serif" font-size="11" lengthAdjust="spacing" textLength="325" x="599.5" y="240.7104">+ReferenceValue getReferenceValue(Parameter param)</text><!--MD5=[2191233c03d1d98f88ead7aa4dd76da0]
class ExternalModuleAdapter2--><rect codeLine="38" fill="#FEFECE" filter="url(#f1kt1fnayfzv9j)" height="60.8047" id="ExternalModuleAdapter2" style="stroke:#A80036;stroke-width:1.5;" width="337" x="965.5" y="186.5"/><ellipse cx="1055.75" cy="202.5" fill="#ADD1B2" rx="11" ry="11" style="stroke:#A80036;stroke-width:1.0;"/><path d="M1058.0938,198.1719 C1057.1563,197.7344 1056.5625,197.5938 1055.6875,197.5938 C1053.0625,197.5938 1051.0625,199.6719 1051.0625,202.3906 L1051.0625,203.5156 C1051.0625,206.0938 1053.1719,207.9844 1056.0625,207.9844 C1057.2813,207.9844 1058.4375,207.6875 1059.1875,207.1406 C1059.7656,206.7344 1060.0938,206.2813 1060.0938,205.8906 C1060.0938,205.4375 1059.7031,205.0469 1059.2344,205.0469 C1059.0156,205.0469 1058.8125,205.125 1058.625,205.3125 C1058.1719,205.7969 1058.1719,205.7969 1057.9844,205.8906 C1057.5625,206.1563 1056.875,206.2813 1056.1094,206.2813 C1054.0625,206.2813 1052.7656,205.1875 1052.7656,203.4844 L1052.7656,202.3906 C1052.7656,200.6094 1054.0156,199.2969 1055.75,199.2969 C1056.3281,199.2969 1056.9375,199.4531 1057.4063,199.7031 C1057.8906,199.9844 1058.0625,200.2031 1058.1563,200.6094 C1058.2188,201.0156 1058.25,201.1406 1058.3906,201.2656 C1058.5313,201.4063 1058.7656,201.5156 1058.9844,201.5156 C1059.25,201.5156 1059.5156,201.375 1059.6875,201.1563 C1059.7969,201 1059.8281,200.8125 1059.8281,200.3906 L1059.8281,198.9688 C1059.8281,198.5313 1059.8125,198.4063 1059.7188,198.25 C1059.5625,197.9844 1059.2813,197.8438 1058.9844,197.8438 C1058.6875,197.8438 1058.4844,197.9375 1058.2656,198.25 L1058.0938,198.1719 Z " fill="#000000"/><text fill="#000000" font-family="sans-serif" font-size="12" lengthAdjust="spacing" textLength="148" x="1076.25" y="206.6543">ExternalModuleAdapter2</text><line style="stroke:#A80036;stroke-width:1.5;" x1="966.5" x2="1301.5" y1="218.5" y2="218.5"/><line style="stroke:#A80036;stroke-width:1.5;" x1="966.5" x2="1301.5" y1="226.5" y2="226.5"/><text fill="#000000" font-family="sans-serif" font-size="11" lengthAdjust="spacing" textLength="325" x="971.5" y="240.7104">+ReferenceValue getReferenceValue(Parameter param)</text><!--MD5=[63386ce01156be326996be41135b9514]
class ExternalModuleAdapter3--><rect codeLine="42" fill="#FEFECE" filter="url(#f1kt1fnayfzv9j)" height="60.8047" id="ExternalModuleAdapter3" style="stroke:#A80036;stroke-width:1.5;" width="337" x="1337.5" y="186.5"/><ellipse cx="1427.75" cy="202.5" fill="#ADD1B2" rx="11" ry="11" style="stroke:#A80036;stroke-width:1.0;"/><path d="M1430.0938,198.1719 C1429.1563,197.7344 1428.5625,197.5938 1427.6875,197.5938 C1425.0625,197.5938 1423.0625,199.6719 1423.0625,202.3906 L1423.0625,203.5156 C1423.0625,206.0938 1425.1719,207.9844 1428.0625,207.9844 C1429.2813,207.9844 1430.4375,207.6875 1431.1875,207.1406 C1431.7656,206.7344 1432.0938,206.2813 1432.0938,205.8906 C1432.0938,205.4375 1431.7031,205.0469 1431.2344,205.0469 C1431.0156,205.0469 1430.8125,205.125 1430.625,205.3125 C1430.1719,205.7969 1430.1719,205.7969 1429.9844,205.8906 C1429.5625,206.1563 1428.875,206.2813 1428.1094,206.2813 C1426.0625,206.2813 1424.7656,205.1875 1424.7656,203.4844 L1424.7656,202.3906 C1424.7656,200.6094 1426.0156,199.2969 1427.75,199.2969 C1428.3281,199.2969 1428.9375,199.4531 1429.4063,199.7031 C1429.8906,199.9844 1430.0625,200.2031 1430.1563,200.6094 C1430.2188,201.0156 1430.25,201.1406 1430.3906,201.2656 C1430.5313,201.4063 1430.7656,201.5156 1430.9844,201.5156 C1431.25,201.5156 1431.5156,201.375 1431.6875,201.1563 C1431.7969,201 1431.8281,200.8125 1431.8281,200.3906 L1431.8281,198.9688 C1431.8281,198.5313 1431.8125,198.4063 1431.7188,198.25 C1431.5625,197.9844 1431.2813,197.8438 1430.9844,197.8438 C1430.6875,197.8438 1430.4844,197.9375 1430.2656,198.25 L1430.0938,198.1719 Z " fill="#000000"/><text fill="#000000" font-family="sans-serif" font-size="12" lengthAdjust="spacing" textLength="148" x="1448.25" y="206.6543">ExternalModuleAdapter3</text><line style="stroke:#A80036;stroke-width:1.5;" x1="1338.5" x2="1673.5" y1="218.5" y2="218.5"/><line style="stroke:#A80036;stroke-width:1.5;" x1="1338.5" x2="1673.5" y1="226.5" y2="226.5"/><text fill="#000000" font-family="sans-serif" font-size="11" lengthAdjust="spacing" textLength="325" x="1343.5" y="240.7104">+ReferenceValue getReferenceValue(Parameter param)</text><!--MD5=[aeb3272166074d8737a70b61b1e71682]
class TestType--><rect codeLine="46" fill="#FEFECE" filter="url(#f1kt1fnayfzv9j)" height="99.2188" id="TestType" style="stroke:#A80036;stroke-width:1.5;" width="136" x="706" y="321.5"/><ellipse cx="742.6" cy="337.5" fill="#ADD1B2" rx="11" ry="11" style="stroke:#A80036;stroke-width:1.0;"/><path d="M744.9438,333.1719 C744.0063,332.7344 743.4125,332.5938 742.5375,332.5938 C739.9125,332.5938 737.9125,334.6719 737.9125,337.3906 L737.9125,338.5156 C737.9125,341.0938 740.0219,342.9844 742.9125,342.9844 C744.1313,342.9844 745.2875,342.6875 746.0375,342.1406 C746.6156,341.7344 746.9438,341.2813 746.9438,340.8906 C746.9438,340.4375 746.5531,340.0469 746.0844,340.0469 C745.8656,340.0469 745.6625,340.125 745.475,340.3125 C745.0219,340.7969 745.0219,340.7969 744.8344,340.8906 C744.4125,341.1563 743.725,341.2813 742.9594,341.2813 C740.9125,341.2813 739.6156,340.1875 739.6156,338.4844 L739.6156,337.3906 C739.6156,335.6094 740.8656,334.2969 742.6,334.2969 C743.1781,334.2969 743.7875,334.4531 744.2563,334.7031 C744.7406,334.9844 744.9125,335.2031 745.0063,335.6094 C745.0688,336.0156 745.1,336.1406 745.2406,336.2656 C745.3813,336.4063 745.6156,336.5156 745.8344,336.5156 C746.1,336.5156 746.3656,336.375 746.5375,336.1563 C746.6469,336 746.6781,335.8125 746.6781,335.3906 L746.6781,333.9688 C746.6781,333.5313 746.6625,333.4063 746.5688,333.25 C746.4125,332.9844 746.1313,332.8438 745.8344,332.8438 C745.5375,332.8438 745.3344,332.9375 745.1156,333.25 L744.9438,333.1719 Z " fill="#000000"/><text fill="#000000" font-family="sans-serif" font-size="12" lengthAdjust="spacing" textLength="56" x="761.4" y="341.6543">TestType</text><line style="stroke:#A80036;stroke-width:1.5;" x1="707" x2="841" y1="353.5" y2="353.5"/><text fill="#000000" font-family="sans-serif" font-size="11" lengthAdjust="spacing" textLength="32" x="712" y="367.7104">-code</text><text fill="#000000" font-family="sans-serif" font-size="11" lengthAdjust="spacing" textLength="66" x="712" y="380.5151">-description</text><text fill="#000000" font-family="sans-serif" font-size="11" lengthAdjust="spacing" textLength="100" x="712" y="393.3198">-collectionMethod</text><line style="stroke:#A80036;stroke-width:1.5;" x1="707" x2="841" y1="399.9141" y2="399.9141"/><text fill="#000000" font-family="sans-serif" font-size="11" lengthAdjust="spacing" textLength="124" x="712" y="414.1245">+getExternalModule()</text><!--MD5=[4e608140b854dae633589343bce77383]
class TestParameterResult--><rect codeLine="53" fill="#FEFECE" filter="url(#f1kt1fnayfzv9j)" height="99.2188" id="TestParameterResult" style="stroke:#A80036;stroke-width:1.5;" width="271" x="696.5" y="504"/><ellipse cx="766.25" cy="520" fill="#ADD1B2" rx="11" ry="11" style="stroke:#A80036;stroke-width:1.0;"/><path d="M768.5938,515.6719 C767.6563,515.2344 767.0625,515.0938 766.1875,515.0938 C763.5625,515.0938 761.5625,517.1719 761.5625,519.8906 L761.5625,521.0156 C761.5625,523.5938 763.6719,525.4844 766.5625,525.4844 C767.7813,525.4844 768.9375,525.1875 769.6875,524.6406 C770.2656,524.2344 770.5938,523.7813 770.5938,523.3906 C770.5938,522.9375 770.2031,522.5469 769.7344,522.5469 C769.5156,522.5469 769.3125,522.625 769.125,522.8125 C768.6719,523.2969 768.6719,523.2969 768.4844,523.3906 C768.0625,523.6563 767.375,523.7813 766.6094,523.7813 C764.5625,523.7813 763.2656,522.6875 763.2656,520.9844 L763.2656,519.8906 C763.2656,518.1094 764.5156,516.7969 766.25,516.7969 C766.8281,516.7969 767.4375,516.9531 767.9063,517.2031 C768.3906,517.4844 768.5625,517.7031 768.6563,518.1094 C768.7188,518.5156 768.75,518.6406 768.8906,518.7656 C769.0313,518.9063 769.2656,519.0156 769.4844,519.0156 C769.75,519.0156 770.0156,518.875 770.1875,518.6563 C770.2969,518.5 770.3281,518.3125 770.3281,517.8906 L770.3281,516.4688 C770.3281,516.0313 770.3125,515.9063 770.2188,515.75 C770.0625,515.4844 769.7813,515.3438 769.4844,515.3438 C769.1875,515.3438 768.9844,515.4375 768.7656,515.75 L768.5938,515.6719 Z " fill="#000000"/><text fill="#000000" font-family="sans-serif" font-size="12" lengthAdjust="spacing" textLength="123" x="786.75" y="524.1543">TestParameterResult</text><line style="stroke:#A80036;stroke-width:1.5;" x1="697.5" x2="966.5" y1="536" y2="536"/><text fill="#000000" font-family="sans-serif" font-size="11" lengthAdjust="spacing" textLength="60" x="702.5" y="550.2104">-createdAt</text><text fill="#000000" font-family="sans-serif" font-size="11" lengthAdjust="spacing" textLength="36" x="702.5" y="563.0151">-value</text><text fill="#000000" font-family="sans-serif" font-size="11" lengthAdjust="spacing" textLength="40" x="702.5" y="575.8198">-metric</text><line style="stroke:#A80036;stroke-width:1.5;" x1="697.5" x2="966.5" y1="582.4141" y2="582.4141"/><text fill="#000000" font-family="sans-serif" font-size="11" lengthAdjust="spacing" textLength="259" x="702.5" y="596.6245">+TestParameterResult(value,metric,refValue)</text><!--MD5=[ced94f7cdcbb8a57022a623199f6da4c]
class Validation--><rect codeLine="60" fill="#FEFECE" filter="url(#f1kt1fnayfzv9j)" height="112.0234" id="Validation" style="stroke:#A80036;stroke-width:1.5;" width="271" x="1692.5" y="7"/><ellipse cx="1794.75" cy="23" fill="#ADD1B2" rx="11" ry="11" style="stroke:#A80036;stroke-width:1.0;"/><path d="M1797.0938,18.6719 C1796.1563,18.2344 1795.5625,18.0938 1794.6875,18.0938 C1792.0625,18.0938 1790.0625,20.1719 1790.0625,22.8906 L1790.0625,24.0156 C1790.0625,26.5938 1792.1719,28.4844 1795.0625,28.4844 C1796.2813,28.4844 1797.4375,28.1875 1798.1875,27.6406 C1798.7656,27.2344 1799.0938,26.7813 1799.0938,26.3906 C1799.0938,25.9375 1798.7031,25.5469 1798.2344,25.5469 C1798.0156,25.5469 1797.8125,25.625 1797.625,25.8125 C1797.1719,26.2969 1797.1719,26.2969 1796.9844,26.3906 C1796.5625,26.6563 1795.875,26.7813 1795.1094,26.7813 C1793.0625,26.7813 1791.7656,25.6875 1791.7656,23.9844 L1791.7656,22.8906 C1791.7656,21.1094 1793.0156,19.7969 1794.75,19.7969 C1795.3281,19.7969 1795.9375,19.9531 1796.4063,20.2031 C1796.8906,20.4844 1797.0625,20.7031 1797.1563,21.1094 C1797.2188,21.5156 1797.25,21.6406 1797.3906,21.7656 C1797.5313,21.9063 1797.7656,22.0156 1797.9844,22.0156 C1798.25,22.0156 1798.5156,21.875 1798.6875,21.6563 C1798.7969,21.5 1798.8281,21.3125 1798.8281,20.8906 L1798.8281,19.4688 C1798.8281,19.0313 1798.8125,18.9063 1798.7188,18.75 C1798.5625,18.4844 1798.2813,18.3438 1797.9844,18.3438 C1797.6875,18.3438 1797.4844,18.4375 1797.2656,18.75 L1797.0938,18.6719 Z " fill="#000000"/><text fill="#000000" font-family="sans-serif" font-size="12" lengthAdjust="spacing" textLength="58" x="1815.25" y="27.1543">Validation</text><line style="stroke:#A80036;stroke-width:1.5;" x1="1693.5" x2="1962.5" y1="39" y2="39"/><text fill="#000000" font-family="sans-serif" font-size="11" lengthAdjust="spacing" textLength="60" x="1698.5" y="53.2104">-createdAt</text><text fill="#000000" font-family="sans-serif" font-size="11" lengthAdjust="spacing" textLength="36" x="1698.5" y="66.0151">-value</text><text fill="#000000" font-family="sans-serif" font-size="11" lengthAdjust="spacing" textLength="40" x="1698.5" y="78.8198">-metric</text><text fill="#000000" font-family="sans-serif" font-size="11" lengthAdjust="spacing" textLength="53" x="1698.5" y="91.6245">-refValue</text><line style="stroke:#A80036;stroke-width:1.5;" x1="1693.5" x2="1962.5" y1="98.2188" y2="98.2188"/><text fill="#000000" font-family="sans-serif" font-size="11" lengthAdjust="spacing" textLength="259" x="1698.5" y="112.4292">+TestParameterResult(value,metric,refValue)</text><!--MD5=[1c357e7e7fdba398bcadd6e61afe49f5]
class ReferenceValue--><rect codeLine="68" fill="#FEFECE" filter="url(#f1kt1fnayfzv9j)" height="48" id="ReferenceValue" style="stroke:#A80036;stroke-width:1.5;" width="127" x="1052.5" y="529.5"/><ellipse cx="1067.5" cy="545.5" fill="#ADD1B2" rx="11" ry="11" style="stroke:#A80036;stroke-width:1.0;"/><path d="M1069.8438,541.1719 C1068.9063,540.7344 1068.3125,540.5938 1067.4375,540.5938 C1064.8125,540.5938 1062.8125,542.6719 1062.8125,545.3906 L1062.8125,546.5156 C1062.8125,549.0938 1064.9219,550.9844 1067.8125,550.9844 C1069.0313,550.9844 1070.1875,550.6875 1070.9375,550.1406 C1071.5156,549.7344 1071.8438,549.2813 1071.8438,548.8906 C1071.8438,548.4375 1071.4531,548.0469 1070.9844,548.0469 C1070.7656,548.0469 1070.5625,548.125 1070.375,548.3125 C1069.9219,548.7969 1069.9219,548.7969 1069.7344,548.8906 C1069.3125,549.1563 1068.625,549.2813 1067.8594,549.2813 C1065.8125,549.2813 1064.5156,548.1875 1064.5156,546.4844 L1064.5156,545.3906 C1064.5156,543.6094 1065.7656,542.2969 1067.5,542.2969 C1068.0781,542.2969 1068.6875,542.4531 1069.1563,542.7031 C1069.6406,542.9844 1069.8125,543.2031 1069.9063,543.6094 C1069.9688,544.0156 1070,544.1406 1070.1406,544.2656 C1070.2813,544.4063 1070.5156,544.5156 1070.7344,544.5156 C1071,544.5156 1071.2656,544.375 1071.4375,544.1563 C1071.5469,544 1071.5781,543.8125 1071.5781,543.3906 L1071.5781,541.9688 C1071.5781,541.5313 1071.5625,541.4063 1071.4688,541.25 C1071.3125,540.9844 1071.0313,540.8438 1070.7344,540.8438 C1070.4375,540.8438 1070.2344,540.9375 1070.0156,541.25 L1069.8438,541.1719 Z " fill="#000000"/><text fill="#000000" font-family="sans-serif" font-size="12" lengthAdjust="spacing" textLength="95" x="1081.5" y="549.6543">ReferenceValue</text><line style="stroke:#A80036;stroke-width:1.5;" x1="1053.5" x2="1178.5" y1="561.5" y2="561.5"/><line style="stroke:#A80036;stroke-width:1.5;" x1="1053.5" x2="1178.5" y1="569.5" y2="569.5"/><!--MD5=[5c34e247bdc718c2aaa7fe06d704a57f]
class CovidReferenceValues1API--><rect codeLine="72" fill="#FEFECE" filter="url(#f1kt1fnayfzv9j)" height="86.4141" id="CovidReferenceValues1API" style="stroke:#A80036;stroke-width:1.5;" width="302" x="611" y="20"/><ellipse cx="677.75" cy="36" fill="#ADD1B2" rx="11" ry="11" style="stroke:#A80036;stroke-width:1.0;"/><path d="M680.0938,31.6719 C679.1563,31.2344 678.5625,31.0938 677.6875,31.0938 C675.0625,31.0938 673.0625,33.1719 673.0625,35.8906 L673.0625,37.0156 C673.0625,39.5938 675.1719,41.4844 678.0625,41.4844 C679.2813,41.4844 680.4375,41.1875 681.1875,40.6406 C681.7656,40.2344 682.0938,39.7813 682.0938,39.3906 C682.0938,38.9375 681.7031,38.5469 681.2344,38.5469 C681.0156,38.5469 680.8125,38.625 680.625,38.8125 C680.1719,39.2969 680.1719,39.2969 679.9844,39.3906 C679.5625,39.6563 678.875,39.7813 678.1094,39.7813 C676.0625,39.7813 674.7656,38.6875 674.7656,36.9844 L674.7656,35.8906 C674.7656,34.1094 676.0156,32.7969 677.75,32.7969 C678.3281,32.7969 678.9375,32.9531 679.4063,33.2031 C679.8906,33.4844 680.0625,33.7031 680.1563,34.1094 C680.2188,34.5156 680.25,34.6406 680.3906,34.7656 C680.5313,34.9063 680.7656,35.0156 680.9844,35.0156 C681.25,35.0156 681.5156,34.875 681.6875,34.6563 C681.7969,34.5 681.8281,34.3125 681.8281,33.8906 L681.8281,32.4688 C681.8281,32.0313 681.8125,31.9063 681.7188,31.75 C681.5625,31.4844 681.2813,31.3438 680.9844,31.3438 C680.6875,31.3438 680.4844,31.4375 680.2656,31.75 L680.0938,31.6719 Z " fill="#000000"/><text fill="#000000" font-family="sans-serif" font-size="12" lengthAdjust="spacing" textLength="160" x="698.25" y="40.1543">CovidReferenceValues1API</text><line style="stroke:#A80036;stroke-width:1.5;" x1="612" x2="912" y1="52" y2="52"/><line style="stroke:#A80036;stroke-width:1.5;" x1="612" x2="912" y1="60" y2="60"/><text fill="#000000" font-family="sans-serif" font-size="11" lengthAdjust="spacing" textLength="290" x="617" y="74.2104">+getMaxReferenceValue​(parameterId, accessKey)</text><text fill="#000000" font-family="sans-serif" font-size="11" lengthAdjust="spacing" textLength="286" x="617" y="87.0151">+getMinReferenceValue​(parameterId, accessKey)</text><text fill="#000000" font-family="sans-serif" font-size="11" lengthAdjust="spacing" textLength="219" x="617" y="99.8198">+usedMetric​(parameterID, accessKey)</text><!--MD5=[c2db872d8177dd5e15eeb53e86d83378]
class ExternalModule2API--><rect codeLine="78" fill="#FEFECE" filter="url(#f1kt1fnayfzv9j)" height="86.4141" id="ExternalModule2API" style="stroke:#A80036;stroke-width:1.5;" width="246" x="1011" y="20"/><ellipse cx="1071.25" cy="36" fill="#ADD1B2" rx="11" ry="11" style="stroke:#A80036;stroke-width:1.0;"/><path d="M1073.5938,31.6719 C1072.6563,31.2344 1072.0625,31.0938 1071.1875,31.0938 C1068.5625,31.0938 1066.5625,33.1719 1066.5625,35.8906 L1066.5625,37.0156 C1066.5625,39.5938 1068.6719,41.4844 1071.5625,41.4844 C1072.7813,41.4844 1073.9375,41.1875 1074.6875,40.6406 C1075.2656,40.2344 1075.5938,39.7813 1075.5938,39.3906 C1075.5938,38.9375 1075.2031,38.5469 1074.7344,38.5469 C1074.5156,38.5469 1074.3125,38.625 1074.125,38.8125 C1073.6719,39.2969 1073.6719,39.2969 1073.4844,39.3906 C1073.0625,39.6563 1072.375,39.7813 1071.6094,39.7813 C1069.5625,39.7813 1068.2656,38.6875 1068.2656,36.9844 L1068.2656,35.8906 C1068.2656,34.1094 1069.5156,32.7969 1071.25,32.7969 C1071.8281,32.7969 1072.4375,32.9531 1072.9063,33.2031 C1073.3906,33.4844 1073.5625,33.7031 1073.6563,34.1094 C1073.7188,34.5156 1073.75,34.6406 1073.8906,34.7656 C1074.0313,34.9063 1074.2656,35.0156 1074.4844,35.0156 C1074.75,35.0156 1075.0156,34.875 1075.1875,34.6563 C1075.2969,34.5 1075.3281,34.3125 1075.3281,33.8906 L1075.3281,32.4688 C1075.3281,32.0313 1075.3125,31.9063 1075.2188,31.75 C1075.0625,31.4844 1074.7813,31.3438 1074.4844,31.3438 C1074.1875,31.3438 1073.9844,31.4375 1073.7656,31.75 L1073.5938,31.6719 Z " fill="#000000"/><text fill="#000000" font-family="sans-serif" font-size="12" lengthAdjust="spacing" textLength="117" x="1091.75" y="40.1543">ExternalModule2API</text><line style="stroke:#A80036;stroke-width:1.5;" x1="1012" x2="1256" y1="52" y2="52"/><line style="stroke:#A80036;stroke-width:1.5;" x1="1012" x2="1256" y1="60" y2="60"/><text fill="#000000" font-family="sans-serif" font-size="11" lengthAdjust="spacing" textLength="165" x="1017" y="74.2104">+getMetricsFor​(parameterID)</text><text fill="#000000" font-family="sans-serif" font-size="11" lengthAdjust="spacing" textLength="185" x="1017" y="87.0151">+getReferenceFor​(parameterID)</text><text fill="#000000" font-family="sans-serif" font-size="11" lengthAdjust="spacing" textLength="234" x="1017" y="99.8198">+getReferenceFor​(parameterID, onDate)</text><!--MD5=[684eca265d68b7682ab3f1c4bd898418]
class ExternalModule3API--><rect codeLine="84" fill="#FEFECE" filter="url(#f1kt1fnayfzv9j)" height="86.4141" id="ExternalModule3API" style="stroke:#A80036;stroke-width:1.5;" width="302" x="1355" y="20"/><ellipse cx="1443.25" cy="36" fill="#ADD1B2" rx="11" ry="11" style="stroke:#A80036;stroke-width:1.0;"/><path d="M1445.5938,31.6719 C1444.6563,31.2344 1444.0625,31.0938 1443.1875,31.0938 C1440.5625,31.0938 1438.5625,33.1719 1438.5625,35.8906 L1438.5625,37.0156 C1438.5625,39.5938 1440.6719,41.4844 1443.5625,41.4844 C1444.7813,41.4844 1445.9375,41.1875 1446.6875,40.6406 C1447.2656,40.2344 1447.5938,39.7813 1447.5938,39.3906 C1447.5938,38.9375 1447.2031,38.5469 1446.7344,38.5469 C1446.5156,38.5469 1446.3125,38.625 1446.125,38.8125 C1445.6719,39.2969 1445.6719,39.2969 1445.4844,39.3906 C1445.0625,39.6563 1444.375,39.7813 1443.6094,39.7813 C1441.5625,39.7813 1440.2656,38.6875 1440.2656,36.9844 L1440.2656,35.8906 C1440.2656,34.1094 1441.5156,32.7969 1443.25,32.7969 C1443.8281,32.7969 1444.4375,32.9531 1444.9063,33.2031 C1445.3906,33.4844 1445.5625,33.7031 1445.6563,34.1094 C1445.7188,34.5156 1445.75,34.6406 1445.8906,34.7656 C1446.0313,34.9063 1446.2656,35.0156 1446.4844,35.0156 C1446.75,35.0156 1447.0156,34.875 1447.1875,34.6563 C1447.2969,34.5 1447.3281,34.3125 1447.3281,33.8906 L1447.3281,32.4688 C1447.3281,32.0313 1447.3125,31.9063 1447.2188,31.75 C1447.0625,31.4844 1446.7813,31.3438 1446.4844,31.3438 C1446.1875,31.3438 1445.9844,31.4375 1445.7656,31.75 L1445.5938,31.6719 Z " fill="#000000"/><text fill="#000000" font-family="sans-serif" font-size="12" lengthAdjust="spacing" textLength="117" x="1463.75" y="40.1543">ExternalModule3API</text><line style="stroke:#A80036;stroke-width:1.5;" x1="1356" x2="1656" y1="52" y2="52"/><line style="stroke:#A80036;stroke-width:1.5;" x1="1356" x2="1656" y1="60" y2="60"/><text fill="#000000" font-family="sans-serif" font-size="11" lengthAdjust="spacing" textLength="290" x="1361" y="74.2104">+getMaxReferenceValue​(parameterId, accessKey)</text><text fill="#000000" font-family="sans-serif" font-size="11" lengthAdjust="spacing" textLength="286" x="1361" y="87.0151">+getMinReferenceValue​(parameterId, accessKey)</text><text fill="#000000" font-family="sans-serif" font-size="11" lengthAdjust="spacing" textLength="219" x="1361" y="99.8198">+usedMetric​(parameterID, accessKey)</text><!--MD5=[9681492165142af2a4a3a169d90ee8d4]
class Sample--><rect codeLine="90" fill="#FEFECE" filter="url(#f1kt1fnayfzv9j)" height="60.8047" id="Sample" style="stroke:#A80036;stroke-width:1.5;" width="77" x="194.5" y="340.5"/><ellipse cx="209.5" cy="356.5" fill="#ADD1B2" rx="11" ry="11" style="stroke:#A80036;stroke-width:1.0;"/><path d="M211.8438,352.1719 C210.9063,351.7344 210.3125,351.5938 209.4375,351.5938 C206.8125,351.5938 204.8125,353.6719 204.8125,356.3906 L204.8125,357.5156 C204.8125,360.0938 206.9219,361.9844 209.8125,361.9844 C211.0313,361.9844 212.1875,361.6875 212.9375,361.1406 C213.5156,360.7344 213.8438,360.2813 213.8438,359.8906 C213.8438,359.4375 213.4531,359.0469 212.9844,359.0469 C212.7656,359.0469 212.5625,359.125 212.375,359.3125 C211.9219,359.7969 211.9219,359.7969 211.7344,359.8906 C211.3125,360.1563 210.625,360.2813 209.8594,360.2813 C207.8125,360.2813 206.5156,359.1875 206.5156,357.4844 L206.5156,356.3906 C206.5156,354.6094 207.7656,353.2969 209.5,353.2969 C210.0781,353.2969 210.6875,353.4531 211.1563,353.7031 C211.6406,353.9844 211.8125,354.2031 211.9063,354.6094 C211.9688,355.0156 212,355.1406 212.1406,355.2656 C212.2813,355.4063 212.5156,355.5156 212.7344,355.5156 C213,355.5156 213.2656,355.375 213.4375,355.1563 C213.5469,355 213.5781,354.8125 213.5781,354.3906 L213.5781,352.9688 C213.5781,352.5313 213.5625,352.4063 213.4688,352.25 C213.3125,351.9844 213.0313,351.8438 212.7344,351.8438 C212.4375,351.8438 212.2344,351.9375 212.0156,352.25 L211.8438,352.1719 Z " fill="#000000"/><text fill="#000000" font-family="sans-serif" font-size="12" lengthAdjust="spacing" textLength="45" x="223.5" y="360.6543">Sample</text><line style="stroke:#A80036;stroke-width:1.5;" x1="195.5" x2="270.5" y1="372.5" y2="372.5"/><text fill="#000000" font-family="sans-serif" font-size="11" lengthAdjust="spacing" textLength="50" x="200.5" y="386.7104">-barcode</text><line style="stroke:#A80036;stroke-width:1.5;" x1="195.5" x2="270.5" y1="393.3047" y2="393.3047"/><!--MD5=[b4c3a2e7af4284028e3bd90f56e1eb1c]
class ParameterTestStore--><rect fill="#FEFECE" filter="url(#f1kt1fnayfzv9j)" height="48" id="ParameterTestStore" style="stroke:#A80036;stroke-width:1.5;" width="152" x="7" y="347"/><ellipse cx="22" cy="363" fill="#ADD1B2" rx="11" ry="11" style="stroke:#A80036;stroke-width:1.0;"/><path d="M24.3438,358.6719 C23.4063,358.2344 22.8125,358.0938 21.9375,358.0938 C19.3125,358.0938 17.3125,360.1719 17.3125,362.8906 L17.3125,364.0156 C17.3125,366.5938 19.4219,368.4844 22.3125,368.4844 C23.5313,368.4844 24.6875,368.1875 25.4375,367.6406 C26.0156,367.2344 26.3438,366.7813 26.3438,366.3906 C26.3438,365.9375 25.9531,365.5469 25.4844,365.5469 C25.2656,365.5469 25.0625,365.625 24.875,365.8125 C24.4219,366.2969 24.4219,366.2969 24.2344,366.3906 C23.8125,366.6563 23.125,366.7813 22.3594,366.7813 C20.3125,366.7813 19.0156,365.6875 19.0156,363.9844 L19.0156,362.8906 C19.0156,361.1094 20.2656,359.7969 22,359.7969 C22.5781,359.7969 23.1875,359.9531 23.6563,360.2031 C24.1406,360.4844 24.3125,360.7031 24.4063,361.1094 C24.4688,361.5156 24.5,361.6406 24.6406,361.7656 C24.7813,361.9063 25.0156,362.0156 25.2344,362.0156 C25.5,362.0156 25.7656,361.875 25.9375,361.6563 C26.0469,361.5 26.0781,361.3125 26.0781,360.8906 L26.0781,359.4688 C26.0781,359.0313 26.0625,358.9063 25.9688,358.75 C25.8125,358.4844 25.5313,358.3438 25.2344,358.3438 C24.9375,358.3438 24.7344,358.4375 24.5156,358.75 L24.3438,358.6719 Z " fill="#000000"/><text fill="#000000" font-family="sans-serif" font-size="12" lengthAdjust="spacing" textLength="120" x="36" y="367.1543">ParameterTestStore</text><line style="stroke:#A80036;stroke-width:1.5;" x1="8" x2="158" y1="379" y2="379"/><line style="stroke:#A80036;stroke-width:1.5;" x1="8" x2="158" y1="387" y2="387"/><!--MD5=[ad334d1782af96659f761ffdd3e3c1a7]
reverse link Parameter to TestParameter--><path codeLine="94" d="M311.927,553.5 C337.049,553.5 368.144,553.5 397.856,553.5 " fill="none" id="Parameter-backto-TestParameter" style="stroke:#A80036;stroke-width:1.0;"/><polygon fill="#A80036" points="306.66,553.5,315.66,557.5,311.66,553.5,315.66,549.5,306.66,553.5" style="stroke:#A80036;stroke-width:1.0;"/><text fill="#000000" font-family="sans-serif" font-size="13" lengthAdjust="spacing" textLength="55" x="324.75" y="546.5669">refers to</text><text fill="#000000" font-family="sans-serif" font-size="13" lengthAdjust="spacing" textLength="8" x="314.4173" y="549.3969">1</text><text fill="#000000" font-family="sans-serif" font-size="13" lengthAdjust="spacing" textLength="7" x="382.9509" y="550.0353">*</text><!--MD5=[1ae83efc6d1967ce5bc17dfe294d00c2]
link Sample to Test--><path codeLine="95" d="M271.541,371 C294.501,371 325.246,371 356.781,371 " fill="none" id="Sample-to-Test" style="stroke:#A80036;stroke-width:1.0;"/><polygon fill="#A80036" points="361.848,371,352.848,367,356.848,371,352.848,375,361.848,371" style="stroke:#A80036;stroke-width:1.0;"/><text fill="#000000" font-family="sans-serif" font-size="13" lengthAdjust="spacing" textLength="54" x="289.75" y="364.0669">contains</text><text fill="#000000" font-family="sans-serif" font-size="13" lengthAdjust="spacing" textLength="23" x="279.5163" y="384.2884">1..*</text><text fill="#000000" font-family="sans-serif" font-size="13" lengthAdjust="spacing" textLength="8" x="345.9647" y="367.6597">1</text><!--MD5=[0e00e25ac6b8c14659aaff2cf7e5df08]
link TestParameter to TestParameterResult--><path codeLine="96" d="M606.414,553.5 C633.256,553.5 662.583,553.5 690.945,553.5 " fill="none" id="TestParameter-to-TestParameterResult" style="stroke:#A80036;stroke-width:1.0;"/><polygon fill="#A80036" points="696.229,553.5,687.229,549.5,691.229,553.5,687.229,557.5,696.229,553.5" style="stroke:#A80036;stroke-width:1.0;"/><text fill="#000000" font-family="sans-serif" font-size="13" lengthAdjust="spacing" textLength="54" x="624.25" y="546.5669">contains</text><text fill="#000000" font-family="sans-serif" font-size="13" lengthAdjust="spacing" textLength="8" x="614.0369" y="550.058">1</text><text fill="#000000" font-family="sans-serif" font-size="13" lengthAdjust="spacing" textLength="24" x="664.6096" y="565.9514">0..1</text><!--MD5=[52200cc2361fa0ac0481dd6ffcdb824b]
link TestParameterResult to ReferenceValue--><path codeLine="97" d="M967.762,553.5 C995.322,553.5 1023.2,553.5 1047.22,553.5 " fill="none" id="TestParameterResult-to-ReferenceValue" style="stroke:#A80036;stroke-width:1.0;"/><polygon fill="#A80036" points="1052.29,553.5,1043.29,549.5,1047.29,553.5,1043.29,557.5,1052.29,553.5" style="stroke:#A80036;stroke-width:1.0;"/><text fill="#000000" font-family="sans-serif" font-size="13" lengthAdjust="spacing" textLength="48" x="986" y="546.5669">records</text><text fill="#000000" font-family="sans-serif" font-size="13" lengthAdjust="spacing" textLength="8" x="975.4052" y="550.1544">1</text><text fill="#000000" font-family="sans-serif" font-size="13" lengthAdjust="spacing" textLength="8" x="1036.461" y="549.7074">1</text><!--MD5=[e981d4f96c4342412d1e68160b30cf70]
link Test to TestType--><path codeLine="98" d="M642.382,371 C662.567,371 682.624,371 700.77,371 " fill="none" id="Test-to-TestType" style="stroke:#A80036;stroke-width:1.0;"/><polygon fill="#A80036" points="705.836,371,696.836,367,700.836,371,696.836,375,705.836,371" style="stroke:#A80036;stroke-width:1.0;"/><text fill="#000000" font-family="sans-serif" font-size="13" lengthAdjust="spacing" textLength="27" x="660.5" y="364.0669">is of</text><text fill="#000000" font-family="sans-serif" font-size="13" lengthAdjust="spacing" textLength="7" x="649.8009" y="367.683">*</text><text fill="#000000" font-family="sans-serif" font-size="13" lengthAdjust="spacing" textLength="8" x="689.9431" y="367.2419">1</text><!--MD5=[f24c888dadeb846430474fe80a58922b]
link Test to TestParameter--><path codeLine="99" d="M502,427.137 C502,456.166 502,490.937 502,516.4881 " fill="none" id="Test-TestParameter" style="stroke:#A80036;stroke-width:1.0;"/><polygon fill="#000000" points="507,470.5664,509.9389,461.5213,504.0611,461.5213,507,470.5664" style="stroke:#000000;stroke-width:1.0;"/><text fill="#000000" font-family="sans-serif" font-size="13" lengthAdjust="spacing" textLength="133" x="516" y="470.0669">Requests analysis of</text><text fill="#000000" font-family="sans-serif" font-size="13" lengthAdjust="spacing" textLength="8" x="493.5125" y="446.9663">1</text><text fill="#000000" font-family="sans-serif" font-size="13" lengthAdjust="spacing" textLength="23" x="476.8797" y="505.3962">1..*</text><!--MD5=[71e6920dcc27afae8f25537cd5357b5f]
link TestType to ExternalModule--><path codeLine="100" d="M842.136,371 C875.828,371 918.182,371 960.095,371 " fill="none" id="TestType-to-ExternalModule" style="stroke:#A80036;stroke-width:1.0;"/><polygon fill="#A80036" points="965.204,371,956.204,367,960.204,371,956.204,375,965.204,371" style="stroke:#A80036;stroke-width:1.0;"/><text fill="#000000" font-family="sans-serif" font-size="13" lengthAdjust="spacing" textLength="87" x="860.25" y="364.0669">makes use of</text><text fill="#000000" font-family="sans-serif" font-size="13" lengthAdjust="spacing" textLength="7" x="849.9712" y="367.2419">*</text><text fill="#000000" font-family="sans-serif" font-size="13" lengthAdjust="spacing" textLength="8" x="949.3742" y="367.7345">1</text><!--MD5=[4583d935403064ae9badefc9a5fb28e7]
link ExternalModuleAdapter1 to ExternalModule--><path codeLine="101" d="M834.608,247.668 C894.139,271.992 978.728,306.556 1042.82,332.742 " fill="none" id="ExternalModuleAdapter1-to-ExternalModule" style="stroke:#A80036;stroke-width:1.0;"/><polygon fill="none" points="1045.71,326.362,1061.57,340.407,1040.41,339.322,1045.71,326.362" style="stroke:#A80036;stroke-width:1.0;"/><!--MD5=[96b97b575a021f78c1d69f4902851f2b]
link ExternalModuleAdapter2 to ExternalModule--><path codeLine="102" d="M1134,247.668 C1134,268.278 1134,296.239 1134,320.228 " fill="none" id="ExternalModuleAdapter2-to-ExternalModule" style="stroke:#A80036;stroke-width:1.0;"/><polygon fill="none" points="1141,320.407,1134,340.407,1127,320.407,1141,320.407" style="stroke:#A80036;stroke-width:1.0;"/><!--MD5=[c32bf7eabb548ed73c6516299a5e5c81]
link ExternalModuleAdapter3 to ExternalModule--><path codeLine="103" d="M1433.39,247.668 C1373.86,271.992 1289.27,306.556 1225.18,332.742 " fill="none" id="ExternalModuleAdapter3-to-ExternalModule" style="stroke:#A80036;stroke-width:1.0;"/><polygon fill="none" points="1227.59,339.322,1206.43,340.407,1222.29,326.362,1227.59,339.322" style="stroke:#A80036;stroke-width:1.0;"/><!--MD5=[add08c8ea7dbfc172d7a32ce44faa6da]
link CovidReferenceValues1API to ExternalModuleAdapter1--><path codeLine="104" d="M762,106.34 C762,129.924 762,158.927 762,181.181 " fill="none" id="CovidReferenceValues1API-to-ExternalModuleAdapter1" style="stroke:#A80036;stroke-width:1.0;"/><polygon fill="#A80036" points="762,186.397,766,177.397,762,181.397,758,177.397,762,186.397" style="stroke:#A80036;stroke-width:1.0;"/><!--MD5=[97049005dc01d2008e558632279099be]
link ExternalModule2API to ExternalModuleAdapter2--><path codeLine="105" d="M1134,106.34 C1134,129.924 1134,158.927 1134,181.181 " fill="none" id="ExternalModule2API-to-ExternalModuleAdapter2" style="stroke:#A80036;stroke-width:1.0;"/><polygon fill="#A80036" points="1134,186.397,1138,177.397,1134,181.397,1130,177.397,1134,186.397" style="stroke:#A80036;stroke-width:1.0;"/><!--MD5=[b6d9225da14e1a24d85777b44f56a3ed]
link ExternalModule3API to ExternalModuleAdapter3--><path codeLine="106" d="M1506,106.34 C1506,129.924 1506,158.927 1506,181.181 " fill="none" id="ExternalModule3API-to-ExternalModuleAdapter3" style="stroke:#A80036;stroke-width:1.0;"/><polygon fill="#A80036" points="1506,186.397,1510,177.397,1506,181.397,1502,177.397,1506,186.397" style="stroke:#A80036;stroke-width:1.0;"/><!--MD5=[e0fe53a4cfb5eba193304877d6f3c961]
link RecordTestResultUI to RecordTestResultController--><path codeLine="107" d="M251,87.086 C251,110.306 251,146.61 251,174.783 " fill="none" id="RecordTestResultUI-to-RecordTestResultController" style="stroke:#A80036;stroke-width:1.0;stroke-dasharray:7.0,7.0;"/><polygon fill="#A80036" points="251,179.944,255,170.944,251,174.944,247,170.944,251,179.944" style="stroke:#A80036;stroke-width:1.0;"/><!--MD5=[f4d8d40e61e78bc4f8ae97bf8db7bc12]
link RecordTestResultController to Test--><path codeLine="108" d="M310.483,254.022 C339.203,271.414 374.37,292.71 406.695,312.285 " fill="none" id="RecordTestResultController-to-Test" style="stroke:#A80036;stroke-width:1.0;stroke-dasharray:7.0,7.0;"/><polygon fill="#A80036" points="411.031,314.911,405.4044,306.8276,406.754,312.3211,401.2605,313.6708,411.031,314.911" style="stroke:#A80036;stroke-width:1.0;"/><!--MD5=[3d47ec4666170d057293abd930371384]
link RecordTestResultController to ParameterTestStore--><path codeLine="109" d="M211.186,254.022 C180.852,281.467 139.77,318.636 112.375,343.422 " fill="none" id="RecordTestResultController-to-ParameterTestStore" style="stroke:#A80036;stroke-width:1.0;stroke-dasharray:7.0,7.0;"/><polygon fill="#A80036" points="108.436,346.987,117.7933,343.9145,112.1435,343.6322,112.4257,337.9824,108.436,346.987" style="stroke:#A80036;stroke-width:1.0;"/><!--MD5=[94e6346f746fae70218332dfeb27790a]
@startuml
skinparam classAttributeIconSize 0

Class "Parameter"{
-code
-shortName
-description
}

Class "RecordTestResultUI"{
}

Class "RecordTestResultController"{
testExists(barcode)
+addTestResults(parameterCode,result,metric)
}

Class "TestParameter"{
+getParameter()
+addResult(result,metric,refValue)
}

Class "Test"{
-code
-NhsCode
-createdAt
+addTestResults(parameterCode,result,metric)
-getTestParameterFor(parameterCode)
}

Interface "ExternalModule"{
+ReferenceValue getReferenceValue(Parameter param)
}

Class "ExternalModuleAdapter1"{
+ReferenceValue getReferenceValue(Parameter param)
}

Class "ExternalModuleAdapter2"{
+ReferenceValue getReferenceValue(Parameter param)
}

Class "ExternalModuleAdapter3"{
+ReferenceValue getReferenceValue(Parameter param)
}

Class "TestType"{
-code
-description
-collectionMethod
+getExternalModule()
}

Class "TestParameterResult"{
-createdAt
-value
-metric
+TestParameterResult(value,metric,refValue)
}

Class "Validation"{
-createdAt
-value
-metric
-refValue
+TestParameterResult(value,metric,refValue)
}

Class "ReferenceValue"{

}

Class "CovidReferenceValues1API"{
+getMaxReferenceValue​(parameterId, accessKey)
+getMinReferenceValue​(parameterId, accessKey)
+usedMetric​(parameterID, accessKey)
}

Class "ExternalModule2API"{
+getMetricsFor​(parameterID)
+getReferenceFor​(parameterID)
+getReferenceFor​(parameterID, onDate)
}

Class "ExternalModule3API"{
+getMaxReferenceValue​(parameterId, accessKey)
+getMinReferenceValue​(parameterId, accessKey)
+usedMetric​(parameterID, accessKey)
}

Class "Sample"{
-barcode
}

TestParameter "*"  -l> "1" Parameter : refers to
Sample "1..*"  -r> "1" Test : contains
TestParameter "1" -> "0..1" TestParameterResult : contains
TestParameterResult "1" -> "1" ReferenceValue  : records
Test "*" -> "1" TestType  : is of
Test "1" -d- "1..*" TestParameter  :> Requests analysis of
TestType "*" -> "1" ExternalModule  :makes use of
ExternalModuleAdapter1  -d-|>  ExternalModule
ExternalModuleAdapter2  -d-|>  ExternalModule
ExternalModuleAdapter3  -d-|>  ExternalModule
CovidReferenceValues1API  -d-> ExternalModuleAdapter1
ExternalModule2API -d-> ExternalModuleAdapter2
ExternalModule3API -d-> ExternalModuleAdapter3
RecordTestResultUI ..> RecordTestResultController
RecordTestResultController ..> Test
RecordTestResultController ..> ParameterTestStore
@enduml

PlantUML version 1.2021.7beta2(Unknown compile time)
(GPL source distribution)
Java Runtime: Java(TM) SE Runtime Environment
JVM: Java HotSpot(TM) 64-Bit Server VM
Default Encoding: UTF-8
Language: en
Country: US
--></g></svg>