<?xml version="1.0" encoding="UTF-8" standalone="no"?><svg xmlns="http://www.w3.org/2000/svg" xmlns:xlink="http://www.w3.org/1999/xlink" contentScriptType="application/ecmascript" contentStyleType="text/css" height="1477px" preserveAspectRatio="none" style="width:3616px;height:1477px;background:#FFFFFF;" version="1.1" viewBox="0 0 3616 1477" width="3616px" zoomAndPan="magnify"><defs><filter height="300%" id="f76gelxt7vjuu" width="300%" x="-1" y="-1"><feGaussianBlur result="blurOut" stdDeviation="2.0"/><feColorMatrix in="blurOut" result="blurOut2" type="matrix" values="0 0 0 0 0 0 0 0 0 0 0 0 0 0 0 0 0 0 .4 0"/><feOffset dx="4.0" dy="4.0" in="blurOut2" result="blurOut3"/><feBlend in="SourceGraphic" in2="blurOut3" mode="normal"/></filter></defs><g><rect fill="#FFFFFF" filter="url(#f76gelxt7vjuu)" height="1285.6406" style="stroke:#A80036;stroke-width:1.0;" width="10" x="131" y="98.2969"/><rect fill="#FFFFFF" filter="url(#f76gelxt7vjuu)" height="29.1328" style="stroke:#A80036;stroke-width:1.0;" width="10" x="754" y="119.4297"/><rect fill="#FFFFFF" filter="url(#f76gelxt7vjuu)" height="914.1797" style="stroke:#A80036;stroke-width:1.0;" width="10" x="754" y="177.6953"/><rect fill="#FFFFFF" filter="url(#f76gelxt7vjuu)" height="29.1328" style="stroke:#A80036;stroke-width:1.0;" width="10" x="754" y="1150.1406"/><rect fill="#FFFFFF" filter="url(#f76gelxt7vjuu)" height="116.5313" style="stroke:#A80036;stroke-width:1.0;" width="10" x="1116" y="206.8281"/><rect fill="#FFFFFF" filter="url(#f76gelxt7vjuu)" height="29.1328" style="stroke:#A80036;stroke-width:1.0;" width="10" x="1116" y="466.0547"/><rect fill="#FFFFFF" filter="url(#f76gelxt7vjuu)" height="59.1328" style="stroke:#A80036;stroke-width:1.0;" width="10" x="1116" y="730.2813"/><rect fill="#FFFFFF" filter="url(#f76gelxt7vjuu)" height="59.1328" style="stroke:#A80036;stroke-width:1.0;" width="10" x="1116" y="1179.2734"/><rect fill="#FFFFFF" filter="url(#f76gelxt7vjuu)" height="103.5313" style="stroke:#A80036;stroke-width:1.0;" width="10" x="1478" y="959.2109"/><rect fill="#FFFFFF" filter="url(#f76gelxt7vjuu)" height="34.1328" style="stroke:#A80036;stroke-width:1.0;" width="10" x="2501" y="1275.5391"/><rect fill="#FFFFFF" filter="url(#f76gelxt7vjuu)" height="65.1328" style="stroke:#A80036;stroke-width:1.0;" width="10" x="2717" y="1208.4063"/><rect fill="#FFFFFF" filter="url(#f76gelxt7vjuu)" height="265.0938" style="stroke:#A80036;stroke-width:1.0;" width="10" x="2956" y="495.1875"/><rect fill="#FFFFFF" filter="url(#f76gelxt7vjuu)" height="146.6641" style="stroke:#000000;stroke-width:2.0;" width="704" x="2898.5" y="555.4844"/><rect fill="#FFFFFF" filter="url(#f76gelxt7vjuu)" height="542.3906" style="stroke:#000000;stroke-width:2.0;" width="2956" x="10" y="804.4141"/><line style="stroke:#A80036;stroke-width:1.0;stroke-dasharray:5.0,5.0;" x1="136" x2="136" y1="88.2969" y2="1392.9375"/><line style="stroke:#A80036;stroke-width:1.0;stroke-dasharray:5.0,5.0;" x1="759" x2="759" y1="88.2969" y2="1392.9375"/><line style="stroke:#A80036;stroke-width:1.0;stroke-dasharray:5.0,5.0;" x1="1121" x2="1121" y1="88.2969" y2="1392.9375"/><line style="stroke:#A80036;stroke-width:1.0;stroke-dasharray:5.0,5.0;" x1="1362.5" x2="1362.5" y1="88.2969" y2="1392.9375"/><line style="stroke:#A80036;stroke-width:1.0;stroke-dasharray:5.0,5.0;" x1="1482.5" x2="1482.5" y1="88.2969" y2="1392.9375"/><line style="stroke:#A80036;stroke-width:1.0;stroke-dasharray:5.0,5.0;" x1="1757.5" x2="1757.5" y1="88.2969" y2="1392.9375"/><line style="stroke:#A80036;stroke-width:1.0;stroke-dasharray:5.0,5.0;" x1="1917.5" x2="1917.5" y1="88.2969" y2="1392.9375"/><line style="stroke:#A80036;stroke-width:1.0;stroke-dasharray:5.0,5.0;" x1="2088.5" x2="2088.5" y1="88.2969" y2="1392.9375"/><line style="stroke:#A80036;stroke-width:1.0;stroke-dasharray:5.0,5.0;" x1="2322.5" x2="2322.5" y1="88.2969" y2="1392.9375"/><line style="stroke:#A80036;stroke-width:1.0;stroke-dasharray:5.0,5.0;" x1="2505.5" x2="2505.5" y1="88.2969" y2="1392.9375"/><line style="stroke:#A80036;stroke-width:1.0;stroke-dasharray:5.0,5.0;" x1="2721.5" x2="2721.5" y1="88.2969" y2="1392.9375"/><line style="stroke:#A80036;stroke-width:1.0;stroke-dasharray:5.0,5.0;" x1="2960.5" x2="2960.5" y1="88.2969" y2="1392.9375"/><line style="stroke:#A80036;stroke-width:1.0;stroke-dasharray:5.0,5.0;" x1="3136.5" x2="3136.5" y1="364.0078" y2="1392.9375"/><line style="stroke:#A80036;stroke-width:1.0;stroke-dasharray:5.0,5.0;" x1="3420.5" x2="3420.5" y1="535.8359" y2="1392.9375"/><text fill="#000000" font-family="sans-serif" font-size="14" lengthAdjust="spacing" textLength="226" x="20" y="84.9951">Clinical Chemistry Technologist</text><ellipse cx="136" cy="15" fill="#FEFECE" filter="url(#f76gelxt7vjuu)" rx="8" ry="8" style="stroke:#A80036;stroke-width:2.0;"/><path d="M136,23 L136,50 M123,31 L149,31 M136,50 L123,65 M136,50 L149,65 " fill="none" filter="url(#f76gelxt7vjuu)" style="stroke:#A80036;stroke-width:2.0;"/><text fill="#000000" font-family="sans-serif" font-size="14" lengthAdjust="spacing" textLength="226" x="20" y="1404.9326">Clinical Chemistry Technologist</text><ellipse cx="136" cy="1418.2344" fill="#FEFECE" filter="url(#f76gelxt7vjuu)" rx="8" ry="8" style="stroke:#A80036;stroke-width:2.0;"/><path d="M136,1426.2344 L136,1453.2344 M123,1434.2344 L149,1434.2344 M136,1453.2344 L123,1468.2344 M136,1453.2344 L149,1468.2344 " fill="none" filter="url(#f76gelxt7vjuu)" style="stroke:#A80036;stroke-width:2.0;"/><rect fill="#FEFECE" filter="url(#f76gelxt7vjuu)" height="30.2969" style="stroke:#A80036;stroke-width:1.5;" width="160" x="677" y="53"/><text fill="#000000" font-family="sans-serif" font-size="14" lengthAdjust="spacing" textLength="146" x="684" y="72.9951">:RecordTestResultUI</text><rect fill="#FEFECE" filter="url(#f76gelxt7vjuu)" height="30.2969" style="stroke:#A80036;stroke-width:1.5;" width="160" x="677" y="1391.9375"/><text fill="#000000" font-family="sans-serif" font-size="14" lengthAdjust="spacing" textLength="146" x="684" y="1411.9326">:RecordTestResultUI</text><rect fill="#FEFECE" filter="url(#f76gelxt7vjuu)" height="30.2969" style="stroke:#A80036;stroke-width:1.5;" width="220" x="1009" y="53"/><text fill="#000000" font-family="sans-serif" font-size="14" lengthAdjust="spacing" textLength="206" x="1016" y="72.9951">:RecordTestResultController</text><rect fill="#FEFECE" filter="url(#f76gelxt7vjuu)" height="30.2969" style="stroke:#A80036;stroke-width:1.5;" width="220" x="1009" y="1391.9375"/><text fill="#000000" font-family="sans-serif" font-size="14" lengthAdjust="spacing" textLength="206" x="1016" y="1411.9326">:RecordTestResultController</text><rect fill="#FEFECE" filter="url(#f76gelxt7vjuu)" height="30.2969" style="stroke:#A80036;stroke-width:1.5;" width="87" x="1317.5" y="53"/><text fill="#000000" font-family="sans-serif" font-size="14" lengthAdjust="spacing" textLength="73" x="1324.5" y="72.9951">:Company</text><rect fill="#FEFECE" filter="url(#f76gelxt7vjuu)" height="30.2969" style="stroke:#A80036;stroke-width:1.5;" width="87" x="1317.5" y="1391.9375"/><text fill="#000000" font-family="sans-serif" font-size="14" lengthAdjust="spacing" textLength="73" x="1324.5" y="1411.9326">:Company</text><rect fill="#FEFECE" filter="url(#f76gelxt7vjuu)" height="30.2969" style="stroke:#A80036;stroke-width:1.5;" width="51" x="1455.5" y="53"/><text fill="#000000" font-family="sans-serif" font-size="14" lengthAdjust="spacing" textLength="37" x="1462.5" y="72.9951">:Test</text><rect fill="#FEFECE" filter="url(#f76gelxt7vjuu)" height="30.2969" style="stroke:#A80036;stroke-width:1.5;" width="51" x="1455.5" y="1391.9375"/><text fill="#000000" font-family="sans-serif" font-size="14" lengthAdjust="spacing" textLength="37" x="1462.5" y="1411.9326">:Test</text><rect fill="#FEFECE" filter="url(#f76gelxt7vjuu)" height="30.2969" style="stroke:#A80036;stroke-width:1.5;" width="171" x="1670.5" y="53"/><text fill="#000000" font-family="sans-serif" font-size="14" lengthAdjust="spacing" textLength="157" x="1677.5" y="72.9951">testParam:TestParam</text><rect fill="#FEFECE" filter="url(#f76gelxt7vjuu)" height="30.2969" style="stroke:#A80036;stroke-width:1.5;" width="171" x="1670.5" y="1391.9375"/><text fill="#000000" font-family="sans-serif" font-size="14" lengthAdjust="spacing" textLength="157" x="1677.5" y="1411.9326">testParam:TestParam</text><rect fill="#FEFECE" filter="url(#f76gelxt7vjuu)" height="30.2969" style="stroke:#A80036;stroke-width:1.5;" width="121" x="1855.5" y="53"/><text fill="#000000" font-family="sans-serif" font-size="14" lengthAdjust="spacing" textLength="107" x="1862.5" y="72.9951">type:TypeTest</text><rect fill="#FEFECE" filter="url(#f76gelxt7vjuu)" height="30.2969" style="stroke:#A80036;stroke-width:1.5;" width="121" x="1855.5" y="1391.9375"/><text fill="#000000" font-family="sans-serif" font-size="14" lengthAdjust="spacing" textLength="107" x="1862.5" y="1411.9326">type:TypeTest</text><rect fill="#FEFECE" filter="url(#f76gelxt7vjuu)" height="30.2969" style="stroke:#A80036;stroke-width:1.5;" width="193" x="1990.5" y="53"/><text fill="#000000" font-family="sans-serif" font-size="14" lengthAdjust="spacing" textLength="179" x="1997.5" y="72.9951">refValue:ReferenceValue</text><rect fill="#FEFECE" filter="url(#f76gelxt7vjuu)" height="30.2969" style="stroke:#A80036;stroke-width:1.5;" width="193" x="1990.5" y="1391.9375"/><text fill="#000000" font-family="sans-serif" font-size="14" lengthAdjust="spacing" textLength="179" x="1997.5" y="1411.9326">refValue:ReferenceValue</text><rect fill="#FEFECE" filter="url(#f76gelxt7vjuu)" height="30.2969" style="stroke:#A80036;stroke-width:1.5;" width="247" x="2197.5" y="53"/><text fill="#000000" font-family="sans-serif" font-size="14" lengthAdjust="spacing" textLength="233" x="2204.5" y="72.9951">testResult:TestParameterResult</text><rect fill="#FEFECE" filter="url(#f76gelxt7vjuu)" height="30.2969" style="stroke:#A80036;stroke-width:1.5;" width="247" x="2197.5" y="1391.9375"/><text fill="#000000" font-family="sans-serif" font-size="14" lengthAdjust="spacing" textLength="233" x="2204.5" y="1411.9326">testResult:TestParameterResult</text><rect fill="#FEFECE" filter="url(#f76gelxt7vjuu)" height="30.2969" style="stroke:#A80036;stroke-width:1.5;" width="91" x="2458.5" y="53"/><text fill="#000000" font-family="sans-serif" font-size="14" lengthAdjust="spacing" textLength="77" x="2465.5" y="72.9951">:TestStore</text><rect fill="#FEFECE" filter="url(#f76gelxt7vjuu)" height="30.2969" style="stroke:#A80036;stroke-width:1.5;" width="91" x="2458.5" y="1391.9375"/><text fill="#000000" font-family="sans-serif" font-size="14" lengthAdjust="spacing" textLength="77" x="2465.5" y="1411.9326">:TestStore</text><rect fill="#FEFECE" filter="url(#f76gelxt7vjuu)" height="30.2969" style="stroke:#A80036;stroke-width:1.5;" width="167" x="2636.5" y="53"/><text fill="#000000" font-family="sans-serif" font-size="14" lengthAdjust="spacing" textLength="153" x="2643.5" y="72.9951">TestParameterResult</text><rect fill="#FEFECE" filter="url(#f76gelxt7vjuu)" height="30.2969" style="stroke:#A80036;stroke-width:1.5;" width="167" x="2636.5" y="1391.9375"/><text fill="#000000" font-family="sans-serif" font-size="14" lengthAdjust="spacing" textLength="153" x="2643.5" y="1411.9326">TestParameterResult</text><rect fill="#FEFECE" filter="url(#f76gelxt7vjuu)" height="30.2969" style="stroke:#A80036;stroke-width:1.5;" width="101" x="2908.5" y="53"/><text fill="#000000" font-family="sans-serif" font-size="14" lengthAdjust="spacing" textLength="87" x="2915.5" y="72.9951">TestMapper</text><rect fill="#FEFECE" filter="url(#f76gelxt7vjuu)" height="30.2969" style="stroke:#A80036;stroke-width:1.5;" width="101" x="2908.5" y="1391.9375"/><text fill="#000000" font-family="sans-serif" font-size="14" lengthAdjust="spacing" textLength="87" x="2915.5" y="1411.9326">TestMapper</text><rect fill="#FEFECE" filter="url(#f76gelxt7vjuu)" height="30.2969" style="stroke:#A80036;stroke-width:1.5;" width="201" x="3034.5" y="1391.9375"/><text fill="#000000" font-family="sans-serif" font-size="14" lengthAdjust="spacing" textLength="187" x="3041.5" y="1411.9326">ListParameter:List&lt;Test&gt;</text><rect fill="#FEFECE" filter="url(#f76gelxt7vjuu)" height="30.2969" style="stroke:#A80036;stroke-width:1.5;" width="339" x="3249.5" y="1391.9375"/><text fill="#000000" font-family="sans-serif" font-size="14" lengthAdjust="spacing" textLength="325" x="3256.5" y="1411.9326">ListParametertoDTO:List&lt;ParametertoDTO&gt;</text><rect fill="#FFFFFF" filter="url(#f76gelxt7vjuu)" height="1285.6406" style="stroke:#A80036;stroke-width:1.0;" width="10" x="131" y="98.2969"/><rect fill="#FFFFFF" filter="url(#f76gelxt7vjuu)" height="29.1328" style="stroke:#A80036;stroke-width:1.0;" width="10" x="754" y="119.4297"/><rect fill="#FFFFFF" filter="url(#f76gelxt7vjuu)" height="914.1797" style="stroke:#A80036;stroke-width:1.0;" width="10" x="754" y="177.6953"/><rect fill="#FFFFFF" filter="url(#f76gelxt7vjuu)" height="29.1328" style="stroke:#A80036;stroke-width:1.0;" width="10" x="754" y="1150.1406"/><rect fill="#FFFFFF" filter="url(#f76gelxt7vjuu)" height="116.5313" style="stroke:#A80036;stroke-width:1.0;" width="10" x="1116" y="206.8281"/><rect fill="#FFFFFF" filter="url(#f76gelxt7vjuu)" height="29.1328" style="stroke:#A80036;stroke-width:1.0;" width="10" x="1116" y="466.0547"/><rect fill="#FFFFFF" filter="url(#f76gelxt7vjuu)" height="59.1328" style="stroke:#A80036;stroke-width:1.0;" width="10" x="1116" y="730.2813"/><rect fill="#FFFFFF" filter="url(#f76gelxt7vjuu)" height="59.1328" style="stroke:#A80036;stroke-width:1.0;" width="10" x="1116" y="1179.2734"/><rect fill="#FFFFFF" filter="url(#f76gelxt7vjuu)" height="103.5313" style="stroke:#A80036;stroke-width:1.0;" width="10" x="1478" y="959.2109"/><rect fill="#FFFFFF" filter="url(#f76gelxt7vjuu)" height="34.1328" style="stroke:#A80036;stroke-width:1.0;" width="10" x="2501" y="1275.5391"/><rect fill="#FFFFFF" filter="url(#f76gelxt7vjuu)" height="65.1328" style="stroke:#A80036;stroke-width:1.0;" width="10" x="2717" y="1208.4063"/><rect fill="#FFFFFF" filter="url(#f76gelxt7vjuu)" height="265.0938" style="stroke:#A80036;stroke-width:1.0;" width="10" x="2956" y="495.1875"/><polygon fill="#A80036" points="742,115.4297,752,119.4297,742,123.4297,746,119.4297" style="stroke:#A80036;stroke-width:1.0;"/><line style="stroke:#A80036;stroke-width:1.0;" x1="141" x2="748" y1="119.4297" y2="119.4297"/><text fill="#000000" font-family="sans-serif" font-size="13" font-weight="bold" lengthAdjust="spacing" textLength="9" x="148" y="114.3638">1</text><text fill="#000000" font-family="sans-serif" font-size="13" lengthAdjust="spacing" textLength="329" x="161" y="114.3638">selects to start recording the results of a given test</text><polygon fill="#A80036" points="152,144.5625,142,148.5625,152,152.5625,148,148.5625" style="stroke:#A80036;stroke-width:1.0;"/><line style="stroke:#A80036;stroke-width:1.0;stroke-dasharray:2.0,2.0;" x1="146" x2="758" y1="148.5625" y2="148.5625"/><text fill="#000000" font-family="sans-serif" font-size="13" font-weight="bold" lengthAdjust="spacing" textLength="9" x="158" y="143.4966">2</text><text fill="#000000" font-family="sans-serif" font-size="13" lengthAdjust="spacing" textLength="576" x="171" y="143.4966">request to introduce barcode from a sample of the test where the results will be recorded</text><polygon fill="#A80036" points="742,173.6953,752,177.6953,742,181.6953,746,177.6953" style="stroke:#A80036;stroke-width:1.0;"/><line style="stroke:#A80036;stroke-width:1.0;" x1="141" x2="748" y1="177.6953" y2="177.6953"/><text fill="#000000" font-family="sans-serif" font-size="13" font-weight="bold" lengthAdjust="spacing" textLength="8" x="148" y="172.6294">3</text><text fill="#000000" font-family="sans-serif" font-size="13" lengthAdjust="spacing" textLength="138" x="160" y="172.6294">types requested data</text><polygon fill="#A80036" points="1104,202.8281,1114,206.8281,1104,210.8281,1108,206.8281" style="stroke:#A80036;stroke-width:1.0;"/><line style="stroke:#A80036;stroke-width:1.0;" x1="764" x2="1110" y1="206.8281" y2="206.8281"/><text fill="#000000" font-family="sans-serif" font-size="13" font-weight="bold" lengthAdjust="spacing" textLength="9" x="771" y="201.7622">4</text><text fill="#000000" font-family="sans-serif" font-size="13" lengthAdjust="spacing" textLength="125" x="784" y="201.7622">testExists(barcode)</text><polygon fill="#A80036" points="2494,231.9609,2504,235.9609,2494,239.9609,2498,235.9609" style="stroke:#A80036;stroke-width:1.0;"/><line style="stroke:#A80036;stroke-width:1.0;" x1="1126" x2="2500" y1="235.9609" y2="235.9609"/><text fill="#000000" font-family="sans-serif" font-size="13" font-weight="bold" lengthAdjust="spacing" textLength="9" x="1133" y="230.895">5</text><text fill="#000000" font-family="sans-serif" font-size="13" lengthAdjust="spacing" textLength="125" x="1146" y="230.895">testExists(barcode)</text><polygon fill="#A80036" points="2494,261.0938,2504,265.0938,2494,269.0938,2498,265.0938" style="stroke:#A80036;stroke-width:1.0;"/><line style="stroke:#A80036;stroke-width:1.0;" x1="1126" x2="2500" y1="265.0938" y2="265.0938"/><text fill="#000000" font-family="sans-serif" font-size="13" font-weight="bold" lengthAdjust="spacing" textLength="9" x="1133" y="260.0278">6</text><text fill="#000000" font-family="sans-serif" font-size="13" lengthAdjust="spacing" textLength="154" x="1146" y="260.0278">test = getTest(barcode)</text><polygon fill="#A80036" points="2494,290.2266,2504,294.2266,2494,298.2266,2498,294.2266" style="stroke:#A80036;stroke-width:1.0;"/><line style="stroke:#A80036;stroke-width:1.0;" x1="1126" x2="2500" y1="294.2266" y2="294.2266"/><text fill="#000000" font-family="sans-serif" font-size="13" font-weight="bold" lengthAdjust="spacing" textLength="9" x="1133" y="289.1606">7</text><text fill="#000000" font-family="sans-serif" font-size="13" lengthAdjust="spacing" textLength="191" x="1146" y="289.1606">typeTest = getTypeTest(test)</text><polygon fill="#A80036" points="1351,319.3594,1361,323.3594,1351,327.3594,1355,323.3594" style="stroke:#A80036;stroke-width:1.0;"/><line style="stroke:#A80036;stroke-width:1.0;" x1="1121" x2="1357" y1="323.3594" y2="323.3594"/><text fill="#000000" font-family="sans-serif" font-size="13" font-weight="bold" lengthAdjust="spacing" textLength="9" x="1128" y="318.2935">8</text><text fill="#000000" font-family="sans-serif" font-size="13" lengthAdjust="spacing" textLength="200" x="1141" y="318.2935">getListOfParameters(typeTest)</text><polygon fill="#A80036" points="3022.5,348.4922,3032.5,352.4922,3022.5,356.4922,3026.5,352.4922" style="stroke:#A80036;stroke-width:1.0;"/><line style="stroke:#A80036;stroke-width:1.0;" x1="1363" x2="3028.5" y1="352.4922" y2="352.4922"/><text fill="#000000" font-family="sans-serif" font-size="13" font-weight="bold" lengthAdjust="spacing" textLength="9" x="1370" y="347.4263">9</text><text fill="#000000" font-family="sans-serif" font-size="13" lengthAdjust="spacing" textLength="51" x="1383" y="347.4263">create()</text><rect fill="#FEFECE" filter="url(#f76gelxt7vjuu)" height="30.2969" style="stroke:#A80036;stroke-width:1.5;" width="201" x="3034.5" y="331.3594"/><text fill="#000000" font-family="sans-serif" font-size="14" lengthAdjust="spacing" textLength="187" x="3041.5" y="351.3545">ListParameter:List&lt;Test&gt;</text><path d="M1448,381.6563 L1448,406.6563 L2541,406.6563 L2541,391.6563 L2531,381.6563 L1448,381.6563 " fill="#FBFB77" filter="url(#f76gelxt7vjuu)" style="stroke:#A80036;stroke-width:1.0;"/><path d="M2531,381.6563 L2531,391.6563 L2541,391.6563 L2531,381.6563 " fill="#FBFB77" style="stroke:#A80036;stroke-width:1.0;"/><text fill="#000000" font-family="sans-serif" font-size="13" lengthAdjust="spacing" textLength="198" x="1889" y="398.7231">loop to populate List is omitted</text><polygon fill="#A80036" points="1374,432.9219,1364,436.9219,1374,440.9219,1370,436.9219" style="stroke:#A80036;stroke-width:1.0;"/><line style="stroke:#A80036;stroke-width:1.0;stroke-dasharray:2.0,2.0;" x1="1368" x2="3136" y1="436.9219" y2="436.9219"/><text fill="#000000" font-family="sans-serif" font-size="13" font-weight="bold" lengthAdjust="spacing" textLength="19" x="1380" y="431.856">10</text><text fill="#000000" font-family="sans-serif" font-size="13" lengthAdjust="spacing" textLength="121" x="1403" y="431.856">getParameterList()</text><polygon fill="#A80036" points="1137,462.0547,1127,466.0547,1137,470.0547,1133,466.0547" style="stroke:#A80036;stroke-width:1.0;"/><line style="stroke:#A80036;stroke-width:1.0;stroke-dasharray:2.0,2.0;" x1="1131" x2="1362" y1="466.0547" y2="466.0547"/><text fill="#000000" font-family="sans-serif" font-size="13" font-weight="bold" lengthAdjust="spacing" textLength="18" x="1143" y="460.9888">11</text><text fill="#000000" font-family="sans-serif" font-size="13" lengthAdjust="spacing" textLength="86" x="1165" y="460.9888">listParameter</text><polygon fill="#A80036" points="2944,491.1875,2954,495.1875,2944,499.1875,2948,495.1875" style="stroke:#A80036;stroke-width:1.0;"/><line style="stroke:#A80036;stroke-width:1.0;stroke-dasharray:2.0,2.0;" x1="1121" x2="2950" y1="495.1875" y2="495.1875"/><text fill="#000000" font-family="sans-serif" font-size="13" font-weight="bold" lengthAdjust="spacing" textLength="18" x="1128" y="490.1216">12</text><text fill="#000000" font-family="sans-serif" font-size="13" lengthAdjust="spacing" textLength="137" x="1150" y="490.1216">toDTO(listParameter)</text><polygon fill="#A80036" points="3237.5,520.3203,3247.5,524.3203,3237.5,528.3203,3241.5,524.3203" style="stroke:#A80036;stroke-width:1.0;"/><line style="stroke:#A80036;stroke-width:1.0;" x1="2966" x2="3243.5" y1="524.3203" y2="524.3203"/><text fill="#000000" font-family="sans-serif" font-size="13" font-weight="bold" lengthAdjust="spacing" textLength="17" x="2973" y="519.2544">13</text><text fill="#000000" font-family="sans-serif" font-size="13" lengthAdjust="spacing" textLength="51" x="2994" y="519.2544">create()</text><rect fill="#FEFECE" filter="url(#f76gelxt7vjuu)" height="30.2969" style="stroke:#A80036;stroke-width:1.5;" width="339" x="3249.5" y="503.1875"/><text fill="#000000" font-family="sans-serif" font-size="14" lengthAdjust="spacing" textLength="325" x="3256.5" y="523.1826">ListParametertoDTO:List&lt;ParametertoDTO&gt;</text><path d="M2898.5,555.4844 L2976.5,555.4844 L2976.5,562.4844 L2966.5,572.4844 L2898.5,572.4844 L2898.5,555.4844 " fill="#EEEEEE" style="stroke:#000000;stroke-width:1.0;"/><rect fill="none" height="146.6641" style="stroke:#000000;stroke-width:2.0;" width="704" x="2898.5" y="555.4844"/><text fill="#000000" font-family="sans-serif" font-size="13" font-weight="bold" lengthAdjust="spacing" textLength="33" x="2913.5" y="568.5513">loop</text><text fill="#000000" font-family="sans-serif" font-size="11" font-weight="bold" lengthAdjust="spacing" textLength="228" x="2991.5" y="567.6948">[for each object in listParameter]</text><polygon fill="#A80036" points="3125,589.75,3135,593.75,3125,597.75,3129,593.75" style="stroke:#A80036;stroke-width:1.0;"/><line style="stroke:#A80036;stroke-width:1.0;" x1="2966" x2="3131" y1="593.75" y2="593.75"/><text fill="#000000" font-family="sans-serif" font-size="13" font-weight="bold" lengthAdjust="spacing" textLength="18" x="2973" y="588.6841">14</text><text fill="#000000" font-family="sans-serif" font-size="13" lengthAdjust="spacing" textLength="63" x="2995" y="588.6841">obj=get(i)</text><line style="stroke:#A80036;stroke-width:1.0;" x1="2966" x2="3008" y1="622.8828" y2="622.8828"/><line style="stroke:#A80036;stroke-width:1.0;" x1="3008" x2="3008" y1="622.8828" y2="635.8828"/><line style="stroke:#A80036;stroke-width:1.0;" x1="2967" x2="3008" y1="635.8828" y2="635.8828"/><polygon fill="#A80036" points="2977,631.8828,2967,635.8828,2977,639.8828,2973,635.8828" style="stroke:#A80036;stroke-width:1.0;"/><text fill="#000000" font-family="sans-serif" font-size="13" font-weight="bold" lengthAdjust="spacing" textLength="18" x="2973" y="617.8169">15</text><text fill="#000000" font-family="sans-serif" font-size="13" lengthAdjust="spacing" textLength="130" x="2995" y="617.8169">objDto = toDTO(obj)</text><polygon fill="#A80036" points="3409,661.0156,3419,665.0156,3409,669.0156,3413,665.0156" style="stroke:#A80036;stroke-width:1.0;"/><line style="stroke:#A80036;stroke-width:1.0;" x1="2966" x2="3415" y1="665.0156" y2="665.0156"/><text fill="#000000" font-family="sans-serif" font-size="13" font-weight="bold" lengthAdjust="spacing" textLength="18" x="2973" y="659.9497">16</text><text fill="#000000" font-family="sans-serif" font-size="13" lengthAdjust="spacing" textLength="63" x="2995" y="659.9497">create(...)</text><polygon fill="#A80036" points="3125,690.1484,3135,694.1484,3125,698.1484,3129,694.1484" style="stroke:#A80036;stroke-width:1.0;"/><line style="stroke:#A80036;stroke-width:1.0;" x1="2966" x2="3131" y1="694.1484" y2="694.1484"/><text fill="#000000" font-family="sans-serif" font-size="13" font-weight="bold" lengthAdjust="spacing" textLength="18" x="2973" y="689.0825">17</text><text fill="#000000" font-family="sans-serif" font-size="13" lengthAdjust="spacing" textLength="78" x="2995" y="689.0825">add(objDtO)</text><polygon fill="#A80036" points="1137,726.2813,1127,730.2813,1137,734.2813,1133,730.2813" style="stroke:#A80036;stroke-width:1.0;"/><line style="stroke:#A80036;stroke-width:1.0;" x1="1131" x2="2955" y1="730.2813" y2="730.2813"/><text fill="#000000" font-family="sans-serif" font-size="13" font-weight="bold" lengthAdjust="spacing" textLength="18" x="1143" y="725.2153">18</text><text fill="#000000" font-family="sans-serif" font-size="13" lengthAdjust="spacing" textLength="109" x="1165" y="725.2153">listParameterDto</text><polygon fill="#A80036" points="775,785.4141,765,789.4141,775,793.4141,771,789.4141" style="stroke:#A80036;stroke-width:1.0;"/><line style="stroke:#A80036;stroke-width:1.0;" x1="769" x2="1120" y1="789.4141" y2="789.4141"/><text fill="#000000" font-family="sans-serif" font-size="13" font-weight="bold" lengthAdjust="spacing" textLength="18" x="781" y="784.3481">19</text><text fill="#000000" font-family="sans-serif" font-size="13" lengthAdjust="spacing" textLength="109" x="803" y="784.3481">listParameterDto</text><path d="M10,804.4141 L88,804.4141 L88,811.4141 L78,821.4141 L10,821.4141 L10,804.4141 " fill="#EEEEEE" style="stroke:#000000;stroke-width:1.0;"/><rect fill="none" height="542.3906" style="stroke:#000000;stroke-width:2.0;" width="2956" x="10" y="804.4141"/><text fill="#000000" font-family="sans-serif" font-size="13" font-weight="bold" lengthAdjust="spacing" textLength="33" x="25" y="817.481">loop</text><text fill="#000000" font-family="sans-serif" font-size="11" font-weight="bold" lengthAdjust="spacing" textLength="277" x="103" y="816.6245">[for each test parameter being analysed]</text><polygon fill="#A80036" points="152,838.6797,142,842.6797,152,846.6797,148,842.6797" style="stroke:#A80036;stroke-width:1.0;"/><line style="stroke:#A80036;stroke-width:1.0;stroke-dasharray:2.0,2.0;" x1="146" x2="753" y1="842.6797" y2="842.6797"/><text fill="#000000" font-family="sans-serif" font-size="13" font-weight="bold" lengthAdjust="spacing" textLength="19" x="158" y="837.6138">20</text><text fill="#000000" font-family="sans-serif" font-size="13" lengthAdjust="spacing" textLength="312" x="181" y="837.6138">shows test parameter list and asks to select one</text><polygon fill="#A80036" points="742,867.8125,752,871.8125,742,875.8125,746,871.8125" style="stroke:#A80036;stroke-width:1.0;"/><line style="stroke:#A80036;stroke-width:1.0;" x1="141" x2="748" y1="871.8125" y2="871.8125"/><text fill="#000000" font-family="sans-serif" font-size="13" font-weight="bold" lengthAdjust="spacing" textLength="18" x="148" y="866.7466">21</text><text fill="#000000" font-family="sans-serif" font-size="13" lengthAdjust="spacing" textLength="146" x="170" y="866.7466">selects test parameter</text><polygon fill="#A80036" points="152,896.9453,142,900.9453,152,904.9453,148,900.9453" style="stroke:#A80036;stroke-width:1.0;"/><line style="stroke:#A80036;stroke-width:1.0;stroke-dasharray:2.0,2.0;" x1="146" x2="753" y1="900.9453" y2="900.9453"/><text fill="#000000" font-family="sans-serif" font-size="13" font-weight="bold" lengthAdjust="spacing" textLength="18" x="158" y="895.8794">22</text><text fill="#000000" font-family="sans-serif" font-size="13" lengthAdjust="spacing" textLength="226" x="180" y="895.8794">request the result value and metric</text><polygon fill="#A80036" points="742,926.0781,752,930.0781,742,934.0781,746,930.0781" style="stroke:#A80036;stroke-width:1.0;"/><line style="stroke:#A80036;stroke-width:1.0;" x1="141" x2="748" y1="930.0781" y2="930.0781"/><text fill="#000000" font-family="sans-serif" font-size="13" font-weight="bold" lengthAdjust="spacing" textLength="17" x="148" y="925.0122">23</text><text fill="#000000" font-family="sans-serif" font-size="13" lengthAdjust="spacing" textLength="138" x="169" y="925.0122">types requested data</text><polygon fill="#A80036" points="1109,955.2109,1119,959.2109,1109,963.2109,1113,959.2109" style="stroke:#A80036;stroke-width:1.0;"/><line style="stroke:#A80036;stroke-width:1.0;" x1="764" x2="1115" y1="959.2109" y2="959.2109"/><text fill="#000000" font-family="sans-serif" font-size="13" font-weight="bold" lengthAdjust="spacing" textLength="18" x="771" y="954.145">24</text><text fill="#000000" font-family="sans-serif" font-size="13" lengthAdjust="spacing" textLength="311" x="793" y="954.145">r = addTestResult(parameterCode,result,metric)</text><polygon fill="#A80036" points="1466,984.3438,1476,988.3438,1466,992.3438,1470,988.3438" style="stroke:#A80036;stroke-width:1.0;"/><line style="stroke:#A80036;stroke-width:1.0;" x1="1121" x2="1472" y1="988.3438" y2="988.3438"/><text fill="#000000" font-family="sans-serif" font-size="13" font-weight="bold" lengthAdjust="spacing" textLength="18" x="1128" y="983.2778">25</text><text fill="#000000" font-family="sans-serif" font-size="13" lengthAdjust="spacing" textLength="311" x="1150" y="983.2778">r = addTestResult(parameterCode,result,metric)</text><rect fill="#FFFFFF" filter="url(#f76gelxt7vjuu)" height="40.2656" style="stroke:#000000;stroke-width:2.0;" width="322" x="1452.5" y="996.3438"/><polygon fill="#EEEEEE" points="1452.5,996.3438,1520.5,996.3438,1520.5,1003.3438,1510.5,1013.3438,1452.5,1013.3438,1452.5,996.3438" style="stroke:#000000;stroke-width:2.0;"/><text fill="#000000" font-family="sans-serif" font-size="13" font-weight="bold" lengthAdjust="spacing" textLength="23" x="1465.5" y="1010.4106">ref</text><text fill="#000000" font-family="sans-serif" font-size="13" lengthAdjust="spacing" textLength="314" x="1458.5" y="1029.4106">SD_AddTestResult(parameterCode,result,metric)</text><polygon fill="#A80036" points="1132,1058.7422,1122,1062.7422,1132,1066.7422,1128,1062.7422" style="stroke:#A80036;stroke-width:1.0;"/><line style="stroke:#A80036;stroke-width:1.0;stroke-dasharray:2.0,2.0;" x1="1126" x2="1482" y1="1062.7422" y2="1062.7422"/><text fill="#000000" font-family="sans-serif" font-size="13" font-weight="bold" lengthAdjust="spacing" textLength="18" x="1138" y="1057.6763">26</text><text fill="#000000" font-family="sans-serif" font-size="13" lengthAdjust="spacing" textLength="15" x="1160" y="1057.6763">ok</text><polygon fill="#A80036" points="770,1087.875,760,1091.875,770,1095.875,766,1091.875" style="stroke:#A80036;stroke-width:1.0;"/><line style="stroke:#A80036;stroke-width:1.0;stroke-dasharray:2.0,2.0;" x1="764" x2="1120" y1="1091.875" y2="1091.875"/><text fill="#000000" font-family="sans-serif" font-size="13" font-weight="bold" lengthAdjust="spacing" textLength="18" x="776" y="1086.8091">27</text><text fill="#000000" font-family="sans-serif" font-size="13" lengthAdjust="spacing" textLength="15" x="798" y="1086.8091">ok</text><polygon fill="#A80036" points="152,1117.0078,142,1121.0078,152,1125.0078,148,1121.0078" style="stroke:#A80036;stroke-width:1.0;"/><line style="stroke:#A80036;stroke-width:1.0;stroke-dasharray:2.0,2.0;" x1="146" x2="758" y1="1121.0078" y2="1121.0078"/><text fill="#000000" font-family="sans-serif" font-size="13" font-weight="bold" lengthAdjust="spacing" textLength="18" x="158" y="1115.9419">28</text><text fill="#000000" font-family="sans-serif" font-size="13" lengthAdjust="spacing" textLength="277" x="180" y="1115.9419">shows the data and request a confirmation</text><polygon fill="#A80036" points="742,1146.1406,752,1150.1406,742,1154.1406,746,1150.1406" style="stroke:#A80036;stroke-width:1.0;"/><line style="stroke:#A80036;stroke-width:1.0;" x1="141" x2="748" y1="1150.1406" y2="1150.1406"/><text fill="#000000" font-family="sans-serif" font-size="13" font-weight="bold" lengthAdjust="spacing" textLength="18" x="148" y="1145.0747">29</text><text fill="#000000" font-family="sans-serif" font-size="13" lengthAdjust="spacing" textLength="114" x="170" y="1145.0747">confirms the data</text><polygon fill="#A80036" points="1104,1175.2734,1114,1179.2734,1104,1183.2734,1108,1179.2734" style="stroke:#A80036;stroke-width:1.0;"/><line style="stroke:#A80036;stroke-width:1.0;" x1="759" x2="1110" y1="1179.2734" y2="1179.2734"/><text fill="#000000" font-family="sans-serif" font-size="13" font-weight="bold" lengthAdjust="spacing" textLength="18" x="766" y="1174.2075">30</text><text fill="#000000" font-family="sans-serif" font-size="13" lengthAdjust="spacing" textLength="174" x="788" y="1174.2075">saveResultForParameter(r)</text><polygon fill="#A80036" points="2705,1204.4063,2715,1208.4063,2705,1212.4063,2709,1208.4063" style="stroke:#A80036;stroke-width:1.0;"/><line style="stroke:#A80036;stroke-width:1.0;" x1="1126" x2="2711" y1="1208.4063" y2="1208.4063"/><text fill="#000000" font-family="sans-serif" font-size="13" font-weight="bold" lengthAdjust="spacing" textLength="17" x="1133" y="1203.3403">31</text><text fill="#000000" font-family="sans-serif" font-size="13" lengthAdjust="spacing" textLength="174" x="1154" y="1203.3403">saveResultForParameter(r)</text><line style="stroke:#A80036;stroke-width:1.0;" x1="2732" x2="2774" y1="1267.5391" y2="1267.5391"/><line style="stroke:#A80036;stroke-width:1.0;" x1="2774" x2="2774" y1="1267.5391" y2="1280.5391"/><line style="stroke:#A80036;stroke-width:1.0;" x1="2733" x2="2774" y1="1280.5391" y2="1280.5391"/><polygon fill="#A80036" points="2743,1276.5391,2733,1280.5391,2743,1284.5391,2739,1280.5391" style="stroke:#A80036;stroke-width:1.0;"/><text fill="#000000" font-family="sans-serif" font-size="13" font-weight="bold" lengthAdjust="spacing" textLength="17" x="2739" y="1262.4731">32</text><text fill="#000000" font-family="sans-serif" font-size="13" lengthAdjust="spacing" textLength="194" x="2760" y="1262.4731">validateResultForParameter(r)</text><polygon fill="#A80036" points="2517,1305.6719,2507,1309.6719,2517,1313.6719,2513,1309.6719" style="stroke:#A80036;stroke-width:1.0;"/><line style="stroke:#A80036;stroke-width:1.0;" x1="2511" x2="2721" y1="1309.6719" y2="1309.6719"/><text fill="#000000" font-family="sans-serif" font-size="13" font-weight="bold" lengthAdjust="spacing" textLength="16" x="2523" y="1304.606">33</text><text fill="#000000" font-family="sans-serif" font-size="13" lengthAdjust="spacing" textLength="167" x="2543" y="1304.606">addResultForParameter(r)</text><polygon fill="#A80036" points="152,1334.8047,142,1338.8047,152,1342.8047,148,1338.8047" style="stroke:#A80036;stroke-width:1.0;"/><line style="stroke:#A80036;stroke-width:1.0;stroke-dasharray:2.0,2.0;" x1="146" x2="758" y1="1338.8047" y2="1338.8047"/><text fill="#000000" font-family="sans-serif" font-size="13" font-weight="bold" lengthAdjust="spacing" textLength="17" x="158" y="1333.7388">34</text><text fill="#000000" font-family="sans-serif" font-size="13" lengthAdjust="spacing" textLength="183" x="179" y="1333.7388">informs operation in(sucess)</text><polygon fill="#A80036" points="152,1370.9375,142,1374.9375,152,1378.9375,148,1374.9375" style="stroke:#A80036;stroke-width:1.0;"/><line style="stroke:#A80036;stroke-width:1.0;stroke-dasharray:2.0,2.0;" x1="146" x2="758" y1="1374.9375" y2="1374.9375"/><text fill="#000000" font-family="sans-serif" font-size="13" font-weight="bold" lengthAdjust="spacing" textLength="17" x="158" y="1369.8716">35</text><text fill="#000000" font-family="sans-serif" font-size="13" lengthAdjust="spacing" textLength="216" x="179" y="1369.8716">informs operation was completed</text><!--MD5=[6c6f2b4c5c23cfa8d6e4435abd4c6662]
@startuml
autonumber
actor "Clinical Chemistry Technologist" as TECH

participant ":RecordTestResultUI" as UI
participant ":RecordTestResultController" as CTRL
participant ":Company" as CMP
participant ":Test" as TST
participant "testParam:TestParam" as TSTPARAM
participant "type:TypeTest" as TYPTST
participant "refValue:ReferenceValue" as RFRVAL
participant "testResult:TestParameterResult" as TSTPARAMRES
participant ":TestStore" as TSTSTR
participant "TestParameterResult" as RSTS

participant "TestMapper" as TSTMAP
participant "ListParameter:List<Test>" as LSTTST
participant "ListParametertoDTO:List<ParametertoDTO>" as TSTDTOLST




activate TECH
TECH-> UI : selects to start recording the results of a given test 

activate UI
UI - -> TECH: request to introduce barcode from a sample of the test where the results will be recorded
deactivate UI

TECH-> UI : types requested data
activate UI

UI -> CTRL : testExists(barcode)
activate CTRL
CTRL -> TSTSTR : testExists(barcode)
CTRL -> TSTSTR : test = getTest(barcode)
CTRL -> TSTSTR : typeTest = getTypeTest(test)



CTRL -> CMP : getListOfParameters(typeTest)
deactivate CTRL
CMP->LSTTST** : create()
note over TST, TSTSTR: loop to populate List is omitted
LSTTST- ->CMP : getParameterList()

CMP- -> CTRL: listParameter
activate CTRL

CTRL- -> TSTMAP: toDTO(listParameter)
deactivate CTRL

activate TSTMAP
TSTMAP->TSTDTOLST**:create()
loop for each object in listParameter
TSTMAP -> LSTTST:obj=get(i)
TSTMAP -> TSTMAP : objDto = toDTO(obj)
TSTMAP -> TSTDTOLST : create(...)
TSTMAP -> LSTTST : add(objDtO)
deactivate CTRL
end

TSTMAP->CTRL:listParameterDto
activate CTRL
deactivate TSTMAP
CTRL->UI:listParameterDto
deactivate CTRL


loop for each test parameter being analysed

UI - -> TECH : shows test parameter list and asks to select one
TECH -> UI : selects test parameter
UI - -> TECH : request the result value and metric
TECH -> UI : types requested data
UI -> CTRL : r = addTestResult(parameterCode,result,metric)
activate TST
CTRL -> TST : r = addTestResult(parameterCode,result,metric)
ref over TST
SD_AddTestResult(parameterCode,result,metric)
end ref

TST - -> CTRL : ok
deactivate TST
CTRL - -> UI : ok
deactivate UI

UI - -> TECH: shows the data and request a confirmation




TECH -> UI : confirms the data
activate UI
UI -> CTRL : saveResultForParameter(r)
deactivate UI
activate CTRL

CTRL -> RSTS : saveResultForParameter(r)
activate RSTS
deactivate CTRL






RSTS -> RSTS : validateResultForParameter(r)
deactivate RSTS
activate TSTSTR

RSTS -> TSTSTR : addResultForParameter(r)


deactivate TSTSTR

UI - -> TECH : informs operation in(sucess)
deactivate RSTS


deactivate CMP


end

deactivate CTRL
UI - -> TECH : informs operation was completed

deactivate UI
@enduml

PlantUML version 1.2021.7beta2(Unknown compile time)
(GPL source distribution)
Java Runtime: Java(TM) SE Runtime Environment
JVM: Java HotSpot(TM) 64-Bit Server VM
Default Encoding: UTF-8
Language: en
Country: US
--></g></svg>