<?xml version="1.0" encoding="UTF-8" standalone="no"?>
<svg xmlns="http://www.w3.org/2000/svg" xmlns:xlink="http://www.w3.org/1999/xlink" contentScriptType="application/ecmascript" contentStyleType="text/css" height="284px" preserveAspectRatio="none" style="width:810px;height:284px;background:#FFFFFF;" version="1.1" viewBox="0 0 810 284" width="810px" zoomAndPan="magnify"><defs><filter height="300%" id="f1wtsfi46vhi0u" width="300%" x="-1" y="-1"><feGaussianBlur result="blurOut" stdDeviation="2.0"/><feColorMatrix in="blurOut" result="blurOut2" type="matrix" values="0 0 0 0 0 0 0 0 0 0 0 0 0 0 0 0 0 0 .4 0"/><feOffset dx="4.0" dy="4.0" in="blurOut2" result="blurOut3"/><feBlend in="SourceGraphic" in2="blurOut3" mode="normal"/></filter></defs><g><!--MD5=[02e4b9b7573f1156f41e60aa5b4e25a4]
class Company--><rect codeLine="5" fill="#FEFECE" filter="url(#f1wtsfi46vhi0u)" height="52.8047" id="Company" style="stroke:#A80036;stroke-width:1.5;" width="88" x="7" y="83.5"/><ellipse cx="22" cy="99.5" fill="#ADD1B2" rx="11" ry="11" style="stroke:#A80036;stroke-width:1.0;"/><path d="M24.3438,95.1719 C23.4063,94.7344 22.8125,94.5938 21.9375,94.5938 C19.3125,94.5938 17.3125,96.6719 17.3125,99.3906 L17.3125,100.5156 C17.3125,103.0938 19.4219,104.9844 22.3125,104.9844 C23.5313,104.9844 24.6875,104.6875 25.4375,104.1406 C26.0156,103.7344 26.3438,103.2813 26.3438,102.8906 C26.3438,102.4375 25.9531,102.0469 25.4844,102.0469 C25.2656,102.0469 25.0625,102.125 24.875,102.3125 C24.4219,102.7969 24.4219,102.7969 24.2344,102.8906 C23.8125,103.1563 23.125,103.2813 22.3594,103.2813 C20.3125,103.2813 19.0156,102.1875 19.0156,100.4844 L19.0156,99.3906 C19.0156,97.6094 20.2656,96.2969 22,96.2969 C22.5781,96.2969 23.1875,96.4531 23.6563,96.7031 C24.1406,96.9844 24.3125,97.2031 24.4063,97.6094 C24.4688,98.0156 24.5,98.1406 24.6406,98.2656 C24.7813,98.4063 25.0156,98.5156 25.2344,98.5156 C25.5,98.5156 25.7656,98.375 25.9375,98.1563 C26.0469,98 26.0781,97.8125 26.0781,97.3906 L26.0781,95.9688 C26.0781,95.5313 26.0625,95.4063 25.9688,95.25 C25.8125,94.9844 25.5313,94.8438 25.2344,94.8438 C24.9375,94.8438 24.7344,94.9375 24.5156,95.25 L24.3438,95.1719 Z " fill="#000000"/><text fill="#000000" font-family="sans-serif" font-size="12" lengthAdjust="spacing" textLength="56" x="36" y="103.6543">Company</text><line style="stroke:#A80036;stroke-width:1.5;" x1="8" x2="94" y1="115.5" y2="115.5"/><text fill="#000000" font-family="sans-serif" font-size="11" lengthAdjust="spacing" textLength="70" x="13" y="129.7104">-designation</text><!--MD5=[0f6f7964b844a64b0496af0dda7914bd]
class TestStore--><rect codeLine="9" fill="#FEFECE" filter="url(#f1wtsfi46vhi0u)" height="65.6094" id="TestStore" style="stroke:#A80036;stroke-width:1.5;" width="91" x="196" y="14"/><ellipse cx="211" cy="30" fill="#ADD1B2" rx="11" ry="11" style="stroke:#A80036;stroke-width:1.0;"/><path d="M213.3438,25.6719 C212.4063,25.2344 211.8125,25.0938 210.9375,25.0938 C208.3125,25.0938 206.3125,27.1719 206.3125,29.8906 L206.3125,31.0156 C206.3125,33.5938 208.4219,35.4844 211.3125,35.4844 C212.5313,35.4844 213.6875,35.1875 214.4375,34.6406 C215.0156,34.2344 215.3438,33.7813 215.3438,33.3906 C215.3438,32.9375 214.9531,32.5469 214.4844,32.5469 C214.2656,32.5469 214.0625,32.625 213.875,32.8125 C213.4219,33.2969 213.4219,33.2969 213.2344,33.3906 C212.8125,33.6563 212.125,33.7813 211.3594,33.7813 C209.3125,33.7813 208.0156,32.6875 208.0156,30.9844 L208.0156,29.8906 C208.0156,28.1094 209.2656,26.7969 211,26.7969 C211.5781,26.7969 212.1875,26.9531 212.6563,27.2031 C213.1406,27.4844 213.3125,27.7031 213.4063,28.1094 C213.4688,28.5156 213.5,28.6406 213.6406,28.7656 C213.7813,28.9063 214.0156,29.0156 214.2344,29.0156 C214.5,29.0156 214.7656,28.875 214.9375,28.6563 C215.0469,28.5 215.0781,28.3125 215.0781,27.8906 L215.0781,26.4688 C215.0781,26.0313 215.0625,25.9063 214.9688,25.75 C214.8125,25.4844 214.5313,25.3438 214.2344,25.3438 C213.9375,25.3438 213.7344,25.4375 213.5156,25.75 L213.3438,25.6719 Z " fill="#000000"/><text fill="#000000" font-family="sans-serif" font-size="12" lengthAdjust="spacing" textLength="59" x="225" y="34.1543">TestStore</text><line style="stroke:#A80036;stroke-width:1.5;" x1="197" x2="286" y1="46" y2="46"/><text fill="#000000" font-family="sans-serif" font-size="11" lengthAdjust="spacing" textLength="61" x="202" y="60.2104">-testParam</text><text fill="#000000" font-family="sans-serif" font-size="11" lengthAdjust="spacing" textLength="64" x="202" y="73.0151">-parameter</text><!--MD5=[df38be88ccee13e832d6fafd6288a4ca]
class Test--><rect codeLine="14" fill="#FEFECE" filter="url(#f1wtsfi46vhi0u)" height="206.4609" id="Test" style="stroke:#A80036;stroke-width:1.5;" width="159" x="424" y="7"/><ellipse cx="486.25" cy="23" fill="#ADD1B2" rx="11" ry="11" style="stroke:#A80036;stroke-width:1.0;"/><path d="M488.5938,18.6719 C487.6563,18.2344 487.0625,18.0938 486.1875,18.0938 C483.5625,18.0938 481.5625,20.1719 481.5625,22.8906 L481.5625,24.0156 C481.5625,26.5938 483.6719,28.4844 486.5625,28.4844 C487.7813,28.4844 488.9375,28.1875 489.6875,27.6406 C490.2656,27.2344 490.5938,26.7813 490.5938,26.3906 C490.5938,25.9375 490.2031,25.5469 489.7344,25.5469 C489.5156,25.5469 489.3125,25.625 489.125,25.8125 C488.6719,26.2969 488.6719,26.2969 488.4844,26.3906 C488.0625,26.6563 487.375,26.7813 486.6094,26.7813 C484.5625,26.7813 483.2656,25.6875 483.2656,23.9844 L483.2656,22.8906 C483.2656,21.1094 484.5156,19.7969 486.25,19.7969 C486.8281,19.7969 487.4375,19.9531 487.9063,20.2031 C488.3906,20.4844 488.5625,20.7031 488.6563,21.1094 C488.7188,21.5156 488.75,21.6406 488.8906,21.7656 C489.0313,21.9063 489.2656,22.0156 489.4844,22.0156 C489.75,22.0156 490.0156,21.875 490.1875,21.6563 C490.2969,21.5 490.3281,21.3125 490.3281,20.8906 L490.3281,19.4688 C490.3281,19.0313 490.3125,18.9063 490.2188,18.75 C490.0625,18.4844 489.7813,18.3438 489.4844,18.3438 C489.1875,18.3438 488.9844,18.4375 488.7656,18.75 L488.5938,18.6719 Z " fill="#000000"/><text fill="#000000" font-family="sans-serif" font-size="12" lengthAdjust="spacing" textLength="26" x="506.75" y="27.1543">Test</text><line style="stroke:#A80036;stroke-width:1.5;" x1="425" x2="582" y1="39" y2="39"/><text fill="#000000" font-family="sans-serif" font-size="11" lengthAdjust="spacing" textLength="57" x="430" y="53.2104">-nhsCode;</text><text fill="#000000" font-family="sans-serif" font-size="11" lengthAdjust="spacing" textLength="80" x="430" y="66.0151">-internalCode;</text><text fill="#000000" font-family="sans-serif" font-size="11" lengthAdjust="spacing" textLength="38" x="430" y="78.8198">-client;</text><text fill="#000000" font-family="sans-serif" font-size="11" lengthAdjust="spacing" textLength="58" x="430" y="91.6245">-testType;</text><text fill="#000000" font-family="sans-serif" font-size="11" lengthAdjust="spacing" textLength="147" x="430" y="104.4292">-sampleCollectionMethod;</text><text fill="#000000" font-family="sans-serif" font-size="11" lengthAdjust="spacing" textLength="119" x="430" y="117.2339">-parameterCategory;</text><text fill="#000000" font-family="sans-serif" font-size="11" lengthAdjust="spacing" textLength="67" x="430" y="130.0386">-parameter;</text><text fill="#000000" font-family="sans-serif" font-size="11" lengthAdjust="spacing" textLength="52" x="430" y="142.8433">-samples</text><text fill="#000000" font-family="sans-serif" font-size="11" lengthAdjust="spacing" textLength="99" x="430" y="155.6479">-registrationDate;</text><text fill="#000000" font-family="sans-serif" font-size="11" lengthAdjust="spacing" textLength="139" x="430" y="168.4526">-samplesCollectionDate;</text><text fill="#000000" font-family="sans-serif" font-size="11" lengthAdjust="spacing" textLength="133" x="430" y="181.2573">-chemicalAnalysisDate;</text><text fill="#000000" font-family="sans-serif" font-size="11" lengthAdjust="spacing" textLength="88" x="430" y="194.062">-diagnosisDate;</text><text fill="#000000" font-family="sans-serif" font-size="11" lengthAdjust="spacing" textLength="90" x="430" y="206.8667">-validationDate;</text><!--MD5=[ed6624c6556d5e7b1bd23032162d20b7]
class Client--><rect codeLine="30" fill="#FEFECE" filter="url(#f1wtsfi46vhi0u)" height="155.2422" id="Client" style="stroke:#A80036;stroke-width:1.5;" width="97" x="193" y="115.5"/><ellipse cx="222.4" cy="131.5" fill="#ADD1B2" rx="11" ry="11" style="stroke:#A80036;stroke-width:1.0;"/><path d="M224.7438,127.1719 C223.8063,126.7344 223.2125,126.5938 222.3375,126.5938 C219.7125,126.5938 217.7125,128.6719 217.7125,131.3906 L217.7125,132.5156 C217.7125,135.0938 219.8219,136.9844 222.7125,136.9844 C223.9313,136.9844 225.0875,136.6875 225.8375,136.1406 C226.4156,135.7344 226.7438,135.2813 226.7438,134.8906 C226.7438,134.4375 226.3531,134.0469 225.8844,134.0469 C225.6656,134.0469 225.4625,134.125 225.275,134.3125 C224.8219,134.7969 224.8219,134.7969 224.6344,134.8906 C224.2125,135.1563 223.525,135.2813 222.7594,135.2813 C220.7125,135.2813 219.4156,134.1875 219.4156,132.4844 L219.4156,131.3906 C219.4156,129.6094 220.6656,128.2969 222.4,128.2969 C222.9781,128.2969 223.5875,128.4531 224.0563,128.7031 C224.5406,128.9844 224.7125,129.2031 224.8063,129.6094 C224.8688,130.0156 224.9,130.1406 225.0406,130.2656 C225.1813,130.4063 225.4156,130.5156 225.6344,130.5156 C225.9,130.5156 226.1656,130.375 226.3375,130.1563 C226.4469,130 226.4781,129.8125 226.4781,129.3906 L226.4781,127.9688 C226.4781,127.5313 226.4625,127.4063 226.3688,127.25 C226.2125,126.9844 225.9313,126.8438 225.6344,126.8438 C225.3375,126.8438 225.1344,126.9375 224.9156,127.25 L224.7438,127.1719 Z " fill="#000000"/><text fill="#000000" font-family="sans-serif" font-size="12" lengthAdjust="spacing" textLength="33" x="239.6" y="135.6543">Client</text><line style="stroke:#A80036;stroke-width:1.5;" x1="194" x2="289" y1="147.5" y2="147.5"/><text fill="#000000" font-family="sans-serif" font-size="11" lengthAdjust="spacing" textLength="37" x="199" y="161.7104">-name</text><text fill="#000000" font-family="sans-serif" font-size="11" lengthAdjust="spacing" textLength="49" x="199" y="174.5151">-address</text><text fill="#000000" font-family="sans-serif" font-size="11" lengthAdjust="spacing" textLength="85" x="199" y="187.3198">-phoneNumber</text><text fill="#000000" font-family="sans-serif" font-size="11" lengthAdjust="spacing" textLength="34" x="199" y="200.1245">-eMail</text><text fill="#000000" font-family="sans-serif" font-size="11" lengthAdjust="spacing" textLength="25" x="199" y="212.9292">-sex</text><text fill="#000000" font-family="sans-serif" font-size="11" lengthAdjust="spacing" textLength="24" x="199" y="225.7339">-cnn</text><text fill="#000000" font-family="sans-serif" font-size="11" lengthAdjust="spacing" textLength="69" x="199" y="238.5386">-nhsNumber</text><text fill="#000000" font-family="sans-serif" font-size="11" lengthAdjust="spacing" textLength="57" x="199" y="251.3433">-birthDate</text><text fill="#000000" font-family="sans-serif" font-size="11" lengthAdjust="spacing" textLength="18" x="199" y="264.1479">-tin</text><!--MD5=[e27cb01a39563223b22d42504ec96d07]
class TestResult--><rect codeLine="42" fill="#FEFECE" filter="url(#f1wtsfi46vhi0u)" height="78.4141" id="TestResult" style="stroke:#A80036;stroke-width:1.5;" width="106" x="690" y="20"/><ellipse cx="710.4" cy="36" fill="#ADD1B2" rx="11" ry="11" style="stroke:#A80036;stroke-width:1.0;"/><path d="M712.7438,31.6719 C711.8063,31.2344 711.2125,31.0938 710.3375,31.0938 C707.7125,31.0938 705.7125,33.1719 705.7125,35.8906 L705.7125,37.0156 C705.7125,39.5938 707.8219,41.4844 710.7125,41.4844 C711.9313,41.4844 713.0875,41.1875 713.8375,40.6406 C714.4156,40.2344 714.7438,39.7813 714.7438,39.3906 C714.7438,38.9375 714.3531,38.5469 713.8844,38.5469 C713.6656,38.5469 713.4625,38.625 713.275,38.8125 C712.8219,39.2969 712.8219,39.2969 712.6344,39.3906 C712.2125,39.6563 711.525,39.7813 710.7594,39.7813 C708.7125,39.7813 707.4156,38.6875 707.4156,36.9844 L707.4156,35.8906 C707.4156,34.1094 708.6656,32.7969 710.4,32.7969 C710.9781,32.7969 711.5875,32.9531 712.0563,33.2031 C712.5406,33.4844 712.7125,33.7031 712.8063,34.1094 C712.8688,34.5156 712.9,34.6406 713.0406,34.7656 C713.1813,34.9063 713.4156,35.0156 713.6344,35.0156 C713.9,35.0156 714.1656,34.875 714.3375,34.6563 C714.4469,34.5 714.4781,34.3125 714.4781,33.8906 L714.4781,32.4688 C714.4781,32.0313 714.4625,31.9063 714.3688,31.75 C714.2125,31.4844 713.9313,31.3438 713.6344,31.3438 C713.3375,31.3438 713.1344,31.4375 712.9156,31.75 L712.7438,31.6719 Z " fill="#000000"/><text fill="#000000" font-family="sans-serif" font-size="12" lengthAdjust="spacing" textLength="62" x="725.6" y="40.1543">TestResult</text><line style="stroke:#A80036;stroke-width:1.5;" x1="691" x2="795" y1="52" y2="52"/><text fill="#000000" font-family="sans-serif" font-size="11" lengthAdjust="spacing" textLength="94" x="696" y="66.2104">-referenceValue</text><text fill="#000000" font-family="sans-serif" font-size="11" lengthAdjust="spacing" textLength="36" x="696" y="79.0151">-result</text><text fill="#000000" font-family="sans-serif" font-size="11" lengthAdjust="spacing" textLength="64" x="696" y="91.8198">-parameter</text><!--MD5=[f00dbe8c0302c6aec2cb26b3c659c8fc]
class Report--><rect codeLine="48" fill="#FEFECE" filter="url(#f1wtsfi46vhi0u)" height="52.8047" id="Report" style="stroke:#A80036;stroke-width:1.5;" width="76" x="705" y="133.5"/><ellipse cx="721.8" cy="149.5" fill="#ADD1B2" rx="11" ry="11" style="stroke:#A80036;stroke-width:1.0;"/><path d="M724.1438,145.1719 C723.2063,144.7344 722.6125,144.5938 721.7375,144.5938 C719.1125,144.5938 717.1125,146.6719 717.1125,149.3906 L717.1125,150.5156 C717.1125,153.0938 719.2219,154.9844 722.1125,154.9844 C723.3313,154.9844 724.4875,154.6875 725.2375,154.1406 C725.8156,153.7344 726.1438,153.2813 726.1438,152.8906 C726.1438,152.4375 725.7531,152.0469 725.2844,152.0469 C725.0656,152.0469 724.8625,152.125 724.675,152.3125 C724.2219,152.7969 724.2219,152.7969 724.0344,152.8906 C723.6125,153.1563 722.925,153.2813 722.1594,153.2813 C720.1125,153.2813 718.8156,152.1875 718.8156,150.4844 L718.8156,149.3906 C718.8156,147.6094 720.0656,146.2969 721.8,146.2969 C722.3781,146.2969 722.9875,146.4531 723.4563,146.7031 C723.9406,146.9844 724.1125,147.2031 724.2063,147.6094 C724.2688,148.0156 724.3,148.1406 724.4406,148.2656 C724.5813,148.4063 724.8156,148.5156 725.0344,148.5156 C725.3,148.5156 725.5656,148.375 725.7375,148.1563 C725.8469,148 725.8781,147.8125 725.8781,147.3906 L725.8781,145.9688 C725.8781,145.5313 725.8625,145.4063 725.7688,145.25 C725.6125,144.9844 725.3313,144.8438 725.0344,144.8438 C724.7375,144.8438 724.5344,144.9375 724.3156,145.25 L724.1438,145.1719 Z " fill="#000000"/><text fill="#000000" font-family="sans-serif" font-size="12" lengthAdjust="spacing" textLength="40" x="736.2" y="153.6543">Report</text><line style="stroke:#A80036;stroke-width:1.5;" x1="706" x2="780" y1="165.5" y2="165.5"/><text fill="#000000" font-family="sans-serif" font-size="11" lengthAdjust="spacing" textLength="64" x="711" y="179.7104">-reportText</text><!--MD5=[7f6cf7f175eae0af66201860de5de971]
link Company to TestStore--><path codeLine="52" d="M95.2457,95.547 C125.354,85.484 165.4,72.1 195.818,61.934 " fill="none" id="Company-TestStore" style="stroke:#A80036;stroke-width:1.0;"/><polygon fill="#000000" points="134.7422,64.9815,125.2319,65.0613,127.0951,70.636,134.7422,64.9815" style="stroke:#000000;stroke-width:1.0;"/><text fill="#000000" font-family="sans-serif" font-size="13" lengthAdjust="spacing" textLength="23" x="139" y="71.0669">has</text><text fill="#000000" font-family="sans-serif" font-size="13" lengthAdjust="spacing" textLength="8" x="102.9349" y="106.5319">1</text><text fill="#000000" font-family="sans-serif" font-size="13" lengthAdjust="spacing" textLength="23" x="165.1342" y="77.0506">1..*</text><!--MD5=[6eee883fdf517d3604e8bd0f2058e9aa]
link Company to Client--><path codeLine="53" d="M95.2457,129.042 C124.376,141.868 162.808,158.791 192.823,172.007 " fill="none" id="Company-Client" style="stroke:#A80036;stroke-width:1.0;"/><polygon fill="#000000" points="134.576,137.5813,127.4822,131.2466,125.1136,136.626,134.576,137.5813" style="stroke:#000000;stroke-width:1.0;"/><text fill="#000000" font-family="sans-serif" font-size="13" lengthAdjust="spacing" textLength="23" x="139" y="140.0669">has</text><text fill="#000000" font-family="sans-serif" font-size="13" lengthAdjust="spacing" textLength="8" x="102.9349" y="145.3652">1</text><text fill="#000000" font-family="sans-serif" font-size="13" lengthAdjust="spacing" textLength="7" x="178.1595" y="182.0841">*</text><!--MD5=[b0f4f6db8206580012ef9cd998ed01c5]
link TestStore to Test--><path codeLine="54" d="M287.196,57.83 C324.655,66.907 379.033,80.083 423.767,90.922 " fill="none" id="TestStore-Test" style="stroke:#A80036;stroke-width:1.0;"/><polygon fill="#000000" points="347.8594,60.7439,339.7608,55.7575,338.3766,61.4701,347.8594,60.7439" style="stroke:#000000;stroke-width:1.0;"/><text fill="#000000" font-family="sans-serif" font-size="13" lengthAdjust="spacing" textLength="23" x="352" y="64.0669">has</text><text fill="#000000" font-family="sans-serif" font-size="13" lengthAdjust="spacing" textLength="8" x="295.1163" y="72.8599">1</text><text fill="#000000" font-family="sans-serif" font-size="13" lengthAdjust="spacing" textLength="7" x="409.094" y="101.9064">*</text><!--MD5=[502b51bc079239060389dab43b7d3470]
link Client to Test--><path codeLine="55" d="M290.188,177.7765 C327.571,165.843 380.381,148.984 423.979,135.066 " fill="none" id="Client-Test" style="stroke:#A80036;stroke-width:1.0;"/><polygon fill="#000000" points="329.7632,136.0458,320.2527,135.9968,322.0403,141.5963,329.7632,136.0458" style="stroke:#000000;stroke-width:1.0;"/><text fill="#000000" font-family="sans-serif" font-size="13" lengthAdjust="spacing" textLength="59" x="334" y="142.0669">performs</text><text fill="#000000" font-family="sans-serif" font-size="13" lengthAdjust="spacing" textLength="8" x="297.9265" y="188.701">1</text><text fill="#000000" font-family="sans-serif" font-size="13" lengthAdjust="spacing" textLength="23" x="392.8724" y="150.0187">1..*</text><!--MD5=[73dffd3648c374487b6d8c6733c5b5e0]
link Test to TestResult--><path codeLine="56" d="M583.254,93.089 C618.226,85.579 658.439,76.944 689.64,70.244 " fill="none" id="Test-TestResult" style="stroke:#A80036;stroke-width:1.0;"/><polygon fill="#000000" points="622.8886,67.5167,613.428,66.5423,614.6621,72.2891,622.8886,67.5167" style="stroke:#000000;stroke-width:1.0;"/><text fill="#000000" font-family="sans-serif" font-size="13" lengthAdjust="spacing" textLength="32" x="627" y="73.0669">have</text><text fill="#000000" font-family="sans-serif" font-size="13" lengthAdjust="spacing" textLength="8" x="590.9751" y="104.2732">1</text><text fill="#000000" font-family="sans-serif" font-size="13" lengthAdjust="spacing" textLength="8" x="673.9323" y="84.8107">1</text><!--MD5=[72163acd41df4db10e2bb78c0e4b52d4]
link Test to Report--><path codeLine="57" d="M583.254,126.58 C624.167,135.193 672.253,145.316 704.692,152.146 " fill="none" id="Test-Report" style="stroke:#A80036;stroke-width:1.0;"/><polygon fill="#000000" points="622.8927,126.5965,614.6471,121.8572,613.4362,127.609,622.8927,126.5965" style="stroke:#000000;stroke-width:1.0;"/><text fill="#000000" font-family="sans-serif" font-size="13" lengthAdjust="spacing" textLength="32" x="627" y="130.0669">have</text><text fill="#000000" font-family="sans-serif" font-size="13" lengthAdjust="spacing" textLength="8" x="590.9751" y="140.8516">1</text><text fill="#000000" font-family="sans-serif" font-size="13" lengthAdjust="spacing" textLength="8" x="688.8915" y="164.1779">1</text><!--MD5=[5a454f099f1a02ee4b01c8dd983eae21]
@startuml
skinparam classAttributeIconSize 0
hide methods
left to right direction

class Company {
  -designation
}

Class TestStore {
  -testParam
  -parameter
}

class Test {
  -nhsCode;
  -internalCode;
  -client;
  -testType;
  -sampleCollectionMethod;
  -parameterCategory;
  -parameter;
  -samples
  -registrationDate;
  -samplesCollectionDate;
  -chemicalAnalysisDate;
  -diagnosisDate;
  -validationDate;
}

class Client {
  -name
  -address
  -phoneNumber
  -eMail
  -sex
  -cnn
  -nhsNumber
  -birthDate
  -tin
}

Class TestResult {
  -referenceValue
  -result
  -parameter
}

Class Report {
  -reportText
}

Company "1" - - "1..*" TestStore : has >
Company "1" - - "*" Client : has >
TestStore "1" - - "*" Test : has >
Client "1" - - "1..*" Test : performs >
Test "1" - - "1" TestResult : have >
Test "1" - - "1" Report : have >
@enduml

PlantUML version 1.2021.7(Sun May 23 12:40:07 UTC 2021)
(GPL source distribution)
Java Runtime: Java(TM) SE Runtime Environment
JVM: Java HotSpot(TM) 64-Bit Server VM
Default Encoding: UTF-8
Language: en
Country: US
--></g></svg>