<?xml version="1.0" encoding="UTF-8" standalone="no"?>
<svg xmlns="http://www.w3.org/2000/svg" xmlns:xlink="http://www.w3.org/1999/xlink" contentScriptType="application/ecmascript" contentStyleType="text/css" height="1133px" preserveAspectRatio="none" style="width:482px;height:1133px;background:#FFFFFF;" version="1.1" viewBox="0 0 482 1133" width="482px" zoomAndPan="magnify"><defs><filter height="300%" id="f17b3t25sdr371" width="300%" x="-1" y="-1"><feGaussianBlur result="blurOut" stdDeviation="2.0"/><feColorMatrix in="blurOut" result="blurOut2" type="matrix" values="0 0 0 0 0 0 0 0 0 0 0 0 0 0 0 0 0 0 .4 0"/><feOffset dx="4.0" dy="4.0" in="blurOut2" result="blurOut3"/><feBlend in="SourceGraphic" in2="blurOut3" mode="normal"/></filter></defs><g><!--MD5=[02e4b9b7573f1156f41e60aa5b4e25a4]
class Company--><rect codeLine="3" fill="#FEFECE" filter="url(#f17b3t25sdr371)" height="99.2188" id="Company" style="stroke:#A80036;stroke-width:1.5;" width="122" x="111" y="251"/><ellipse cx="141.3" cy="267" fill="#ADD1B2" rx="11" ry="11" style="stroke:#A80036;stroke-width:1.0;"/><path d="M143.6438,262.6719 C142.7063,262.2344 142.1125,262.0938 141.2375,262.0938 C138.6125,262.0938 136.6125,264.1719 136.6125,266.8906 L136.6125,268.0156 C136.6125,270.5938 138.7219,272.4844 141.6125,272.4844 C142.8313,272.4844 143.9875,272.1875 144.7375,271.6406 C145.3156,271.2344 145.6438,270.7813 145.6438,270.3906 C145.6438,269.9375 145.2531,269.5469 144.7844,269.5469 C144.5656,269.5469 144.3625,269.625 144.175,269.8125 C143.7219,270.2969 143.7219,270.2969 143.5344,270.3906 C143.1125,270.6563 142.425,270.7813 141.6594,270.7813 C139.6125,270.7813 138.3156,269.6875 138.3156,267.9844 L138.3156,266.8906 C138.3156,265.1094 139.5656,263.7969 141.3,263.7969 C141.8781,263.7969 142.4875,263.9531 142.9563,264.2031 C143.4406,264.4844 143.6125,264.7031 143.7063,265.1094 C143.7688,265.5156 143.8,265.6406 143.9406,265.7656 C144.0813,265.9063 144.3156,266.0156 144.5344,266.0156 C144.8,266.0156 145.0656,265.875 145.2375,265.6563 C145.3469,265.5 145.3781,265.3125 145.3781,264.8906 L145.3781,263.4688 C145.3781,263.0313 145.3625,262.9063 145.2688,262.75 C145.1125,262.4844 144.8313,262.3438 144.5344,262.3438 C144.2375,262.3438 144.0344,262.4375 143.8156,262.75 L143.6438,262.6719 Z " fill="#000000"/><text fill="#000000" font-family="sans-serif" font-size="12" lengthAdjust="spacing" textLength="56" x="158.7" y="271.1543">Company</text><line style="stroke:#A80036;stroke-width:1.5;" x1="112" x2="232" y1="283" y2="283"/><text fill="#000000" font-family="sans-serif" font-size="11" lengthAdjust="spacing" textLength="107" x="117" y="297.2104">-String designation</text><line style="stroke:#A80036;stroke-width:1.5;" x1="112" x2="232" y1="303.8047" y2="303.8047"/><text fill="#000000" font-family="sans-serif" font-size="11" lengthAdjust="spacing" textLength="57" x="117" y="318.0151">+setCLA()</text><text fill="#000000" font-family="sans-serif" font-size="11" lengthAdjust="spacing" textLength="92" x="117" y="330.8198">+getTestStore()</text><text fill="#000000" font-family="sans-serif" font-size="11" lengthAdjust="spacing" textLength="110" x="117" y="343.6245">+getNextBarcode()</text><!--MD5=[1934a092c0e7d4da7dc7075b6f4b6b03]
class ClinicalAnalysisLaboratory--><rect codeLine="11" fill="#FEFECE" filter="url(#f17b3t25sdr371)" height="124.8281" id="ClinicalAnalysisLaboratory" style="stroke:#A80036;stroke-width:1.5;" width="187" x="53.5" y="427"/><ellipse cx="68.5" cy="443" fill="#ADD1B2" rx="11" ry="11" style="stroke:#A80036;stroke-width:1.0;"/><path d="M70.8438,438.6719 C69.9063,438.2344 69.3125,438.0938 68.4375,438.0938 C65.8125,438.0938 63.8125,440.1719 63.8125,442.8906 L63.8125,444.0156 C63.8125,446.5938 65.9219,448.4844 68.8125,448.4844 C70.0313,448.4844 71.1875,448.1875 71.9375,447.6406 C72.5156,447.2344 72.8438,446.7813 72.8438,446.3906 C72.8438,445.9375 72.4531,445.5469 71.9844,445.5469 C71.7656,445.5469 71.5625,445.625 71.375,445.8125 C70.9219,446.2969 70.9219,446.2969 70.7344,446.3906 C70.3125,446.6563 69.625,446.7813 68.8594,446.7813 C66.8125,446.7813 65.5156,445.6875 65.5156,443.9844 L65.5156,442.8906 C65.5156,441.1094 66.7656,439.7969 68.5,439.7969 C69.0781,439.7969 69.6875,439.9531 70.1563,440.2031 C70.6406,440.4844 70.8125,440.7031 70.9063,441.1094 C70.9688,441.5156 71,441.6406 71.1406,441.7656 C71.2813,441.9063 71.5156,442.0156 71.7344,442.0156 C72,442.0156 72.2656,441.875 72.4375,441.6563 C72.5469,441.5 72.5781,441.3125 72.5781,440.8906 L72.5781,439.4688 C72.5781,439.0313 72.5625,438.9063 72.4688,438.75 C72.3125,438.4844 72.0313,438.3438 71.7344,438.3438 C71.4375,438.3438 71.2344,438.4375 71.0156,438.75 L70.8438,438.6719 Z " fill="#000000"/><text fill="#000000" font-family="sans-serif" font-size="12" lengthAdjust="spacing" textLength="155" x="82.5" y="447.1543">ClinicalAnalysisLaboratory</text><line style="stroke:#A80036;stroke-width:1.5;" x1="54.5" x2="239.5" y1="459" y2="459"/><text fill="#000000" font-family="sans-serif" font-size="11" lengthAdjust="spacing" textLength="74" x="59.5" y="473.2104">-String name</text><text fill="#000000" font-family="sans-serif" font-size="11" lengthAdjust="spacing" textLength="79" x="59.5" y="486.0151">-String adress</text><text fill="#000000" font-family="sans-serif" font-size="11" lengthAdjust="spacing" textLength="113" x="59.5" y="498.8198">-long phoneNumber</text><text fill="#000000" font-family="sans-serif" font-size="11" lengthAdjust="spacing" textLength="46" x="59.5" y="511.6245">-long tin</text><text fill="#000000" font-family="sans-serif" font-size="11" lengthAdjust="spacing" textLength="117" x="59.5" y="524.4292">-TestStore testStore</text><line style="stroke:#A80036;stroke-width:1.5;" x1="54.5" x2="239.5" y1="531.0234" y2="531.0234"/><text fill="#000000" font-family="sans-serif" font-size="11" lengthAdjust="spacing" textLength="92" x="59.5" y="545.2339">+getTestStore()</text><!--MD5=[df38be88ccee13e832d6fafd6288a4ca]
class Test--><rect codeLine="20" fill="#FEFECE" filter="url(#f17b3t25sdr371)" height="137.6328" id="Test" style="stroke:#A80036;stroke-width:1.5;" width="280" x="7" y="831"/><ellipse cx="129.75" cy="847" fill="#ADD1B2" rx="11" ry="11" style="stroke:#A80036;stroke-width:1.0;"/><path d="M132.0938,842.6719 C131.1563,842.2344 130.5625,842.0938 129.6875,842.0938 C127.0625,842.0938 125.0625,844.1719 125.0625,846.8906 L125.0625,848.0156 C125.0625,850.5938 127.1719,852.4844 130.0625,852.4844 C131.2813,852.4844 132.4375,852.1875 133.1875,851.6406 C133.7656,851.2344 134.0938,850.7813 134.0938,850.3906 C134.0938,849.9375 133.7031,849.5469 133.2344,849.5469 C133.0156,849.5469 132.8125,849.625 132.625,849.8125 C132.1719,850.2969 132.1719,850.2969 131.9844,850.3906 C131.5625,850.6563 130.875,850.7813 130.1094,850.7813 C128.0625,850.7813 126.7656,849.6875 126.7656,847.9844 L126.7656,846.8906 C126.7656,845.1094 128.0156,843.7969 129.75,843.7969 C130.3281,843.7969 130.9375,843.9531 131.4063,844.2031 C131.8906,844.4844 132.0625,844.7031 132.1563,845.1094 C132.2188,845.5156 132.25,845.6406 132.3906,845.7656 C132.5313,845.9063 132.7656,846.0156 132.9844,846.0156 C133.25,846.0156 133.5156,845.875 133.6875,845.6563 C133.7969,845.5 133.8281,845.3125 133.8281,844.8906 L133.8281,843.4688 C133.8281,843.0313 133.8125,842.9063 133.7188,842.75 C133.5625,842.4844 133.2813,842.3438 132.9844,842.3438 C132.6875,842.3438 132.4844,842.4375 132.2656,842.75 L132.0938,842.6719 Z " fill="#000000"/><text fill="#000000" font-family="sans-serif" font-size="12" lengthAdjust="spacing" textLength="26" x="150.25" y="851.1543">Test</text><line style="stroke:#A80036;stroke-width:1.5;" x1="8" x2="286" y1="863" y2="863"/><text fill="#000000" font-family="sans-serif" font-size="11" lengthAdjust="spacing" textLength="91" x="13" y="877.2104">-String nhsCode</text><text fill="#000000" font-family="sans-serif" font-size="11" lengthAdjust="spacing" textLength="114" x="13" y="890.0151">-String internalCode</text><text fill="#000000" font-family="sans-serif" font-size="11" lengthAdjust="spacing" textLength="72" x="13" y="902.8198">-Client client</text><text fill="#000000" font-family="sans-serif" font-size="11" lengthAdjust="spacing" textLength="113" x="13" y="915.6245">-TestType testType</text><text fill="#000000" font-family="sans-serif" font-size="11" lengthAdjust="spacing" textLength="268" x="13" y="928.4292">-List&lt;ParameterCategory&gt; parameterCategory</text><text fill="#000000" font-family="sans-serif" font-size="11" lengthAdjust="spacing" textLength="164" x="13" y="941.2339">-List&lt;Parameter&gt; parameter</text><text fill="#000000" font-family="sans-serif" font-size="11" lengthAdjust="spacing" textLength="128" x="13" y="954.0386">-Date registrationDate</text><line style="stroke:#A80036;stroke-width:1.5;" x1="8" x2="286" y1="960.6328" y2="960.6328"/><!--MD5=[9681492165142af2a4a3a169d90ee8d4]
class Sample--><rect codeLine="30" fill="#FEFECE" filter="url(#f17b3t25sdr371)" height="73.6094" id="Sample" style="stroke:#A80036;stroke-width:1.5;" width="119" x="87.5" y="1046"/><ellipse cx="121.4" cy="1062" fill="#ADD1B2" rx="11" ry="11" style="stroke:#A80036;stroke-width:1.0;"/><path d="M123.7438,1057.6719 C122.8063,1057.2344 122.2125,1057.0938 121.3375,1057.0938 C118.7125,1057.0938 116.7125,1059.1719 116.7125,1061.8906 L116.7125,1063.0156 C116.7125,1065.5938 118.8219,1067.4844 121.7125,1067.4844 C122.9313,1067.4844 124.0875,1067.1875 124.8375,1066.6406 C125.4156,1066.2344 125.7438,1065.7813 125.7438,1065.3906 C125.7438,1064.9375 125.3531,1064.5469 124.8844,1064.5469 C124.6656,1064.5469 124.4625,1064.625 124.275,1064.8125 C123.8219,1065.2969 123.8219,1065.2969 123.6344,1065.3906 C123.2125,1065.6563 122.525,1065.7813 121.7594,1065.7813 C119.7125,1065.7813 118.4156,1064.6875 118.4156,1062.9844 L118.4156,1061.8906 C118.4156,1060.1094 119.6656,1058.7969 121.4,1058.7969 C121.9781,1058.7969 122.5875,1058.9531 123.0563,1059.2031 C123.5406,1059.4844 123.7125,1059.7031 123.8063,1060.1094 C123.8688,1060.5156 123.9,1060.6406 124.0406,1060.7656 C124.1813,1060.9063 124.4156,1061.0156 124.6344,1061.0156 C124.9,1061.0156 125.1656,1060.875 125.3375,1060.6563 C125.4469,1060.5 125.4781,1060.3125 125.4781,1059.8906 L125.4781,1058.4688 C125.4781,1058.0313 125.4625,1057.9063 125.3688,1057.75 C125.2125,1057.4844 124.9313,1057.3438 124.6344,1057.3438 C124.3375,1057.3438 124.1344,1057.4375 123.9156,1057.75 L123.7438,1057.6719 Z " fill="#000000"/><text fill="#000000" font-family="sans-serif" font-size="12" lengthAdjust="spacing" textLength="45" x="139.6" y="1066.1543">Sample</text><line style="stroke:#A80036;stroke-width:1.5;" x1="88.5" x2="205.5" y1="1078" y2="1078"/><text fill="#000000" font-family="sans-serif" font-size="11" lengthAdjust="spacing" textLength="87" x="93.5" y="1092.2104">-String barcode</text><line style="stroke:#A80036;stroke-width:1.5;" x1="88.5" x2="205.5" y1="1098.8047" y2="1098.8047"/><text fill="#000000" font-family="sans-serif" font-size="11" lengthAdjust="spacing" textLength="107" x="93.5" y="1113.0151">+Sample(barcode)</text><!--MD5=[0f6f7964b844a64b0496af0dda7914bd]
class TestStore--><rect codeLine="35" fill="#FEFECE" filter="url(#f17b3t25sdr371)" height="124.8281" id="TestStore" style="stroke:#A80036;stroke-width:1.5;" width="213" x="40.5" y="629"/><ellipse cx="113.25" cy="645" fill="#ADD1B2" rx="11" ry="11" style="stroke:#A80036;stroke-width:1.0;"/><path d="M115.5938,640.6719 C114.6563,640.2344 114.0625,640.0938 113.1875,640.0938 C110.5625,640.0938 108.5625,642.1719 108.5625,644.8906 L108.5625,646.0156 C108.5625,648.5938 110.6719,650.4844 113.5625,650.4844 C114.7813,650.4844 115.9375,650.1875 116.6875,649.6406 C117.2656,649.2344 117.5938,648.7813 117.5938,648.3906 C117.5938,647.9375 117.2031,647.5469 116.7344,647.5469 C116.5156,647.5469 116.3125,647.625 116.125,647.8125 C115.6719,648.2969 115.6719,648.2969 115.4844,648.3906 C115.0625,648.6563 114.375,648.7813 113.6094,648.7813 C111.5625,648.7813 110.2656,647.6875 110.2656,645.9844 L110.2656,644.8906 C110.2656,643.1094 111.5156,641.7969 113.25,641.7969 C113.8281,641.7969 114.4375,641.9531 114.9063,642.2031 C115.3906,642.4844 115.5625,642.7031 115.6563,643.1094 C115.7188,643.5156 115.75,643.6406 115.8906,643.7656 C116.0313,643.9063 116.2656,644.0156 116.4844,644.0156 C116.75,644.0156 117.0156,643.875 117.1875,643.6563 C117.2969,643.5 117.3281,643.3125 117.3281,642.8906 L117.3281,641.4688 C117.3281,641.0313 117.3125,640.9063 117.2188,640.75 C117.0625,640.4844 116.7813,640.3438 116.4844,640.3438 C116.1875,640.3438 115.9844,640.4375 115.7656,640.75 L115.5938,640.6719 Z " fill="#000000"/><text fill="#000000" font-family="sans-serif" font-size="12" lengthAdjust="spacing" textLength="59" x="133.75" y="649.1543">TestStore</text><line style="stroke:#A80036;stroke-width:1.5;" x1="41.5" x2="252.5" y1="661" y2="661"/><line style="stroke:#A80036;stroke-width:1.5;" x1="41.5" x2="252.5" y1="669" y2="669"/><text fill="#000000" font-family="sans-serif" font-size="11" lengthAdjust="spacing" textLength="160" x="46.5" y="683.2104">+getTestsWithoutSamples()</text><text fill="#000000" font-family="sans-serif" font-size="11" lengthAdjust="spacing" textLength="201" x="46.5" y="696.0151">+getTestByInternalCode(testCode)</text><text fill="#000000" font-family="sans-serif" font-size="11" lengthAdjust="spacing" textLength="144" x="46.5" y="708.8198">+createSample(barcode)</text><text fill="#000000" font-family="sans-serif" font-size="11" lengthAdjust="spacing" textLength="106" x="46.5" y="721.6245">+saveSample(t, s)</text><text fill="#000000" font-family="sans-serif" font-size="11" lengthAdjust="spacing" textLength="108" x="46.5" y="734.4292">-validateSample(s)</text><text fill="#000000" font-family="sans-serif" font-size="11" lengthAdjust="spacing" textLength="94" x="46.5" y="747.2339">-addSample(t, s)</text><!--MD5=[aa9ff557d7a8b875328f15671cf978a3]
class BarcodeController--><rect codeLine="44" fill="#FEFECE" filter="url(#f17b3t25sdr371)" height="60.8047" id="BarcodeController" style="stroke:#A80036;stroke-width:1.5;" width="175" x="274.5" y="270"/><ellipse cx="304.35" cy="286" fill="#ADD1B2" rx="11" ry="11" style="stroke:#A80036;stroke-width:1.0;"/><path d="M306.6938,281.6719 C305.7563,281.2344 305.1625,281.0938 304.2875,281.0938 C301.6625,281.0938 299.6625,283.1719 299.6625,285.8906 L299.6625,287.0156 C299.6625,289.5938 301.7719,291.4844 304.6625,291.4844 C305.8813,291.4844 307.0375,291.1875 307.7875,290.6406 C308.3656,290.2344 308.6938,289.7813 308.6938,289.3906 C308.6938,288.9375 308.3031,288.5469 307.8344,288.5469 C307.6156,288.5469 307.4125,288.625 307.225,288.8125 C306.7719,289.2969 306.7719,289.2969 306.5844,289.3906 C306.1625,289.6563 305.475,289.7813 304.7094,289.7813 C302.6625,289.7813 301.3656,288.6875 301.3656,286.9844 L301.3656,285.8906 C301.3656,284.1094 302.6156,282.7969 304.35,282.7969 C304.9281,282.7969 305.5375,282.9531 306.0063,283.2031 C306.4906,283.4844 306.6625,283.7031 306.7563,284.1094 C306.8188,284.5156 306.85,284.6406 306.9906,284.7656 C307.1313,284.9063 307.3656,285.0156 307.5844,285.0156 C307.85,285.0156 308.1156,284.875 308.2875,284.6563 C308.3969,284.5 308.4281,284.3125 308.4281,283.8906 L308.4281,282.4688 C308.4281,282.0313 308.4125,281.9063 308.3188,281.75 C308.1625,281.4844 307.8813,281.3438 307.5844,281.3438 C307.2875,281.3438 307.0844,281.4375 306.8656,281.75 L306.6938,281.6719 Z " fill="#000000"/><text fill="#000000" font-family="sans-serif" font-size="12" lengthAdjust="spacing" textLength="110" x="321.65" y="290.1543">BarcodeController</text><line style="stroke:#A80036;stroke-width:1.5;" x1="275.5" x2="448.5" y1="302" y2="302"/><line style="stroke:#A80036;stroke-width:1.5;" x1="275.5" x2="448.5" y1="310" y2="310"/><text fill="#000000" font-family="sans-serif" font-size="11" lengthAdjust="spacing" textLength="163" x="280.5" y="324.2104">+generateBarcode(barcode)</text><!--MD5=[68767c78be08caa96780c014af9fbeaa]
class API--><rect codeLine="48" fill="#FEFECE" filter="url(#f17b3t25sdr371)" height="86.4141" id="API" style="stroke:#A80036;stroke-width:1.5;" width="192" x="276" y="446.5"/><ellipse cx="359.25" cy="462.5" fill="#ADD1B2" rx="11" ry="11" style="stroke:#A80036;stroke-width:1.0;"/><path d="M361.5938,458.1719 C360.6563,457.7344 360.0625,457.5938 359.1875,457.5938 C356.5625,457.5938 354.5625,459.6719 354.5625,462.3906 L354.5625,463.5156 C354.5625,466.0938 356.6719,467.9844 359.5625,467.9844 C360.7813,467.9844 361.9375,467.6875 362.6875,467.1406 C363.2656,466.7344 363.5938,466.2813 363.5938,465.8906 C363.5938,465.4375 363.2031,465.0469 362.7344,465.0469 C362.5156,465.0469 362.3125,465.125 362.125,465.3125 C361.6719,465.7969 361.6719,465.7969 361.4844,465.8906 C361.0625,466.1563 360.375,466.2813 359.6094,466.2813 C357.5625,466.2813 356.2656,465.1875 356.2656,463.4844 L356.2656,462.3906 C356.2656,460.6094 357.5156,459.2969 359.25,459.2969 C359.8281,459.2969 360.4375,459.4531 360.9063,459.7031 C361.3906,459.9844 361.5625,460.2031 361.6563,460.6094 C361.7188,461.0156 361.75,461.1406 361.8906,461.2656 C362.0313,461.4063 362.2656,461.5156 362.4844,461.5156 C362.75,461.5156 363.0156,461.375 363.1875,461.1563 C363.2969,461 363.3281,460.8125 363.3281,460.3906 L363.3281,458.9688 C363.3281,458.5313 363.3125,458.4063 363.2188,458.25 C363.0625,457.9844 362.7813,457.8438 362.4844,457.8438 C362.1875,457.8438 361.9844,457.9375 361.7656,458.25 L361.5938,458.1719 Z " fill="#000000"/><text fill="#000000" font-family="sans-serif" font-size="12" lengthAdjust="spacing" textLength="17" x="379.75" y="466.6543">API</text><line style="stroke:#A80036;stroke-width:1.5;" x1="277" x2="467" y1="478.5" y2="478.5"/><line style="stroke:#A80036;stroke-width:1.5;" x1="277" x2="467" y1="486.5" y2="486.5"/><text fill="#000000" font-family="sans-serif" font-size="11" lengthAdjust="spacing" textLength="130" x="282" y="500.7104">+createUPCA(barcode)</text><text fill="#000000" font-family="sans-serif" font-size="11" lengthAdjust="spacing" textLength="180" x="282" y="513.5151">+setPrefferedBarHeight(height)</text><text fill="#000000" font-family="sans-serif" font-size="11" lengthAdjust="spacing" textLength="102" x="282" y="526.3198">+savePNG(bc,file)</text><!--MD5=[fbffc6fb6c01b218952513d92b49a429]
class GenerateSampleUI--><rect codeLine="54" fill="#FEFECE" filter="url(#f17b3t25sdr371)" height="48" id="GenerateSampleUI" style="stroke:#A80036;stroke-width:1.5;" width="145" x="165.5" y="7"/><ellipse cx="180.5" cy="23" fill="#ADD1B2" rx="11" ry="11" style="stroke:#A80036;stroke-width:1.0;"/><path d="M182.8438,18.6719 C181.9063,18.2344 181.3125,18.0938 180.4375,18.0938 C177.8125,18.0938 175.8125,20.1719 175.8125,22.8906 L175.8125,24.0156 C175.8125,26.5938 177.9219,28.4844 180.8125,28.4844 C182.0313,28.4844 183.1875,28.1875 183.9375,27.6406 C184.5156,27.2344 184.8438,26.7813 184.8438,26.3906 C184.8438,25.9375 184.4531,25.5469 183.9844,25.5469 C183.7656,25.5469 183.5625,25.625 183.375,25.8125 C182.9219,26.2969 182.9219,26.2969 182.7344,26.3906 C182.3125,26.6563 181.625,26.7813 180.8594,26.7813 C178.8125,26.7813 177.5156,25.6875 177.5156,23.9844 L177.5156,22.8906 C177.5156,21.1094 178.7656,19.7969 180.5,19.7969 C181.0781,19.7969 181.6875,19.9531 182.1563,20.2031 C182.6406,20.4844 182.8125,20.7031 182.9063,21.1094 C182.9688,21.5156 183,21.6406 183.1406,21.7656 C183.2813,21.9063 183.5156,22.0156 183.7344,22.0156 C184,22.0156 184.2656,21.875 184.4375,21.6563 C184.5469,21.5 184.5781,21.3125 184.5781,20.8906 L184.5781,19.4688 C184.5781,19.0313 184.5625,18.9063 184.4688,18.75 C184.3125,18.4844 184.0313,18.3438 183.7344,18.3438 C183.4375,18.3438 183.2344,18.4375 183.0156,18.75 L182.8438,18.6719 Z " fill="#000000"/><text fill="#000000" font-family="sans-serif" font-size="12" lengthAdjust="spacing" textLength="113" x="194.5" y="27.1543">GenerateSampleUI</text><line style="stroke:#A80036;stroke-width:1.5;" x1="166.5" x2="309.5" y1="39" y2="39"/><line style="stroke:#A80036;stroke-width:1.5;" x1="166.5" x2="309.5" y1="47" y2="47"/><!--MD5=[20a488812d41cfc2934fab7f685acd8d]
class GenerateSampleController--><rect codeLine="57" fill="#FEFECE" filter="url(#f17b3t25sdr371)" height="73.6094" id="GenerateSampleController" style="stroke:#A80036;stroke-width:1.5;" width="282" x="97" y="116"/><ellipse cx="153.75" cy="132" fill="#ADD1B2" rx="11" ry="11" style="stroke:#A80036;stroke-width:1.0;"/><path d="M156.0938,127.6719 C155.1563,127.2344 154.5625,127.0938 153.6875,127.0938 C151.0625,127.0938 149.0625,129.1719 149.0625,131.8906 L149.0625,133.0156 C149.0625,135.5938 151.1719,137.4844 154.0625,137.4844 C155.2813,137.4844 156.4375,137.1875 157.1875,136.6406 C157.7656,136.2344 158.0938,135.7813 158.0938,135.3906 C158.0938,134.9375 157.7031,134.5469 157.2344,134.5469 C157.0156,134.5469 156.8125,134.625 156.625,134.8125 C156.1719,135.2969 156.1719,135.2969 155.9844,135.3906 C155.5625,135.6563 154.875,135.7813 154.1094,135.7813 C152.0625,135.7813 150.7656,134.6875 150.7656,132.9844 L150.7656,131.8906 C150.7656,130.1094 152.0156,128.7969 153.75,128.7969 C154.3281,128.7969 154.9375,128.9531 155.4063,129.2031 C155.8906,129.4844 156.0625,129.7031 156.1563,130.1094 C156.2188,130.5156 156.25,130.6406 156.3906,130.7656 C156.5313,130.9063 156.7656,131.0156 156.9844,131.0156 C157.25,131.0156 157.5156,130.875 157.6875,130.6563 C157.7969,130.5 157.8281,130.3125 157.8281,129.8906 L157.8281,128.4688 C157.8281,128.0313 157.8125,127.9063 157.7188,127.75 C157.5625,127.4844 157.2813,127.3438 156.9844,127.3438 C156.6875,127.3438 156.4844,127.4375 156.2656,127.75 L156.0938,127.6719 Z " fill="#000000"/><text fill="#000000" font-family="sans-serif" font-size="12" lengthAdjust="spacing" textLength="160" x="174.25" y="136.1543">GenerateSampleController</text><line style="stroke:#A80036;stroke-width:1.5;" x1="98" x2="378" y1="148" y2="148"/><line style="stroke:#A80036;stroke-width:1.5;" x1="98" x2="378" y1="156" y2="156"/><text fill="#000000" font-family="sans-serif" font-size="11" lengthAdjust="spacing" textLength="160" x="103" y="170.2104">+getTestsWithoutSamples()</text><text fill="#000000" font-family="sans-serif" font-size="11" lengthAdjust="spacing" textLength="270" x="103" y="183.0151">+createSamples(testCode, numberOfSamples)</text><!--MD5=[d4287132ce060f55f63eb715e84c69c7]
link GenerateSampleUI to GenerateSampleController--><path codeLine="62" d="M238,55.14 C238,70.83 238,92 238,110.55 " fill="none" id="GenerateSampleUI-to-GenerateSampleController" style="stroke:#A80036;stroke-width:1.0;stroke-dasharray:7.0,7.0;"/><polygon fill="#A80036" points="238,115.71,242,106.71,238,110.71,234,106.71,238,115.71" style="stroke:#A80036;stroke-width:1.0;"/><!--MD5=[9cfc19f8912cc96c209b58a5234cd750]
link GenerateSampleController to Company--><path codeLine="63" d="M221.516,190.34 C213.878,207.179 204.649,227.523 196.239,246.064 " fill="none" id="GenerateSampleController-to-Company" style="stroke:#A80036;stroke-width:1.0;stroke-dasharray:7.0,7.0;"/><polygon fill="#A80036" points="194.12,250.735,201.4812,244.1919,196.1859,246.1817,194.196,240.8864,194.12,250.735" style="stroke:#A80036;stroke-width:1.0;"/><!--MD5=[60af5afc3cb83003574afac87f61e4fc]
link GenerateSampleController to BarcodeController--><path codeLine="64" d="M268.971,190.34 C288.771,213.575 314.261,243.484 333.551,266.118 " fill="none" id="GenerateSampleController-to-BarcodeController" style="stroke:#A80036;stroke-width:1.0;stroke-dasharray:7.0,7.0;"/><polygon fill="#A80036" points="336.834,269.971,334.0394,260.527,333.5903,266.166,327.9513,265.7169,336.834,269.971" style="stroke:#A80036;stroke-width:1.0;"/><!--MD5=[aafc5d8a5829a6a8d6dc892cb1ff5d24]
link Company to ClinicalAnalysisLaboratory--><path codeLine="65" d="M165.497,350.144 C162.579,371.967 159.091,398.062 155.933,421.678 " fill="none" id="Company-to-ClinicalAnalysisLaboratory" style="stroke:#A80036;stroke-width:1.0;"/><polygon fill="#A80036" points="155.265,426.678,160.4229,418.2877,155.9279,421.7221,152.4935,417.2271,155.265,426.678" style="stroke:#A80036;stroke-width:1.0;"/><text fill="#000000" font-family="sans-serif" font-size="13" lengthAdjust="spacing" textLength="23" x="162" y="393.0669">has</text><text fill="#000000" font-family="sans-serif" font-size="13" lengthAdjust="spacing" textLength="8" x="156.02" y="370.2407">1</text><text fill="#000000" font-family="sans-serif" font-size="13" lengthAdjust="spacing" textLength="23" x="131.9112" y="416.0701">1..*</text><!--MD5=[8effbd4a063e161420bf6bcaa854f649]
link ClinicalAnalysisLaboratory to TestStore--><path codeLine="66" d="M147,552.139 C147,574.76 147,600.468 147,623.535 " fill="none" id="ClinicalAnalysisLaboratory-to-TestStore" style="stroke:#A80036;stroke-width:1.0;"/><polygon fill="#A80036" points="147,628.721,151,619.721,147,623.721,143,619.721,147,628.721" style="stroke:#A80036;stroke-width:1.0;"/><text fill="#000000" font-family="sans-serif" font-size="13" lengthAdjust="spacing" textLength="23" x="148" y="595.0669">has</text><text fill="#000000" font-family="sans-serif" font-size="13" lengthAdjust="spacing" textLength="8" x="138.5625" y="571.894">1</text><text fill="#000000" font-family="sans-serif" font-size="13" lengthAdjust="spacing" textLength="8" x="138.5625" y="618.1178">1</text><!--MD5=[b0f4f6db8206580012ef9cd998ed01c5]
link TestStore to Test--><path codeLine="67" d="M147,754.177 C147,776.606 147,802.178 147,825.527 " fill="none" id="TestStore-to-Test" style="stroke:#A80036;stroke-width:1.0;"/><polygon fill="#A80036" points="147,830.784,151,821.784,147,825.784,143,821.784,147,830.784" style="stroke:#A80036;stroke-width:1.0;"/><text fill="#000000" font-family="sans-serif" font-size="13" lengthAdjust="spacing" textLength="58" x="148" y="797.0669">conducts</text><text fill="#000000" font-family="sans-serif" font-size="13" lengthAdjust="spacing" textLength="8" x="138.5625" y="773.9362">1</text><text fill="#000000" font-family="sans-serif" font-size="13" lengthAdjust="spacing" textLength="7" x="139.6391" y="819.9653">*</text><!--MD5=[b72ac8ab7fb5921fceb5036a3902baea]
link Test to Sample--><path codeLine="68" d="M147,969.17 C147,993.19 147,1019.447 147,1040.5837 " fill="none" id="Test-to-Sample" style="stroke:#A80036;stroke-width:1.0;"/><polygon fill="#A80036" points="147,1045.8426,151,1036.8426,147,1040.8426,143,1036.8426,147,1045.8426" style="stroke:#A80036;stroke-width:1.0;"/><text fill="#000000" font-family="sans-serif" font-size="13" lengthAdjust="spacing" textLength="52" x="148" y="1012.0669">requires</text><text fill="#000000" font-family="sans-serif" font-size="13" lengthAdjust="spacing" textLength="8" x="138.6063" y="988.8087">1</text><text fill="#000000" font-family="sans-serif" font-size="13" lengthAdjust="spacing" textLength="7" x="139.3766" y="1035.0015">*</text><!--MD5=[45fcf2ad676b32ef1e1d45698ffa5c32]
link BarcodeController to API--><path codeLine="69" d="M363.585,331.131 C365.17,360.775 367.632,406.826 369.485,441.467 " fill="none" id="BarcodeController-to-API" style="stroke:#A80036;stroke-width:1.0;"/><polygon fill="#A80036" points="369.754,446.492,373.2674,437.2911,369.4869,441.4991,365.2789,437.7186,369.754,446.492" style="stroke:#A80036;stroke-width:1.0;"/><text fill="#000000" font-family="sans-serif" font-size="13" lengthAdjust="spacing" textLength="30" x="368" y="393.0669">uses</text><text fill="#000000" font-family="sans-serif" font-size="13" lengthAdjust="spacing" textLength="8" x="355.0869" y="351.0963">1</text><text fill="#000000" font-family="sans-serif" font-size="13" lengthAdjust="spacing" textLength="8" x="360.7585" y="435.4868">1</text><!--MD5=[12f5f9a486f11b65f3edaa51b1b084c6]
@startuml
skinparam classAttributeIconSize 0

class Company
{
  -String designation
  +setCLA()
  +getTestStore()
  +getNextBarcode()
}

class ClinicalAnalysisLaboratory {
  -String name
  -String adress
  -long phoneNumber
  -long tin
  -TestStore testStore
  +getTestStore()
}

class Test {
  -String nhsCode
  -String internalCode
  -Client client
  -TestType testType
  -List<ParameterCategory> parameterCategory
  -List<Parameter> parameter
  -Date registrationDate
}

class Sample {
  -String barcode
  +Sample(barcode)
}

class TestStore {
  +getTestsWithoutSamples()
  +getTestByInternalCode(testCode)
  +createSample(barcode)
  +saveSample(t, s)
  -validateSample(s)
  -addSample(t, s)
}

class BarcodeController {
  +generateBarcode(barcode)
}

class API {
  +createUPCA(barcode)
  +setPrefferedBarHeight(height)
  +savePNG(bc,file)
}

class GenerateSampleUI {
}

class GenerateSampleController {
  +getTestsWithoutSamples()
  +createSamples(testCode, numberOfSamples)
}

GenerateSampleUI ..> GenerateSampleController
GenerateSampleController ..> Company
GenerateSampleController ..> BarcodeController
Company "1" - -> "1..*" ClinicalAnalysisLaboratory : has
ClinicalAnalysisLaboratory "1" - -> "1" TestStore : has
TestStore "1" - -> "*" Test : conducts
Test "1" - -> "*" Sample : requires
BarcodeController "1" - -> "1" API : uses
@enduml

PlantUML version 1.2021.7(Sun May 23 12:40:07 UTC 2021)
(GPL source distribution)
Java Runtime: Java(TM) SE Runtime Environment
JVM: Java HotSpot(TM) 64-Bit Server VM
Default Encoding: UTF-8
Language: en
Country: US
--></g></svg>