<?xml version="1.0" encoding="UTF-8" standalone="no"?>
<svg xmlns="http://www.w3.org/2000/svg" xmlns:xlink="http://www.w3.org/1999/xlink" contentScriptType="application/ecmascript" contentStyleType="text/css" height="367px" preserveAspectRatio="none" style="width:586px;height:367px;background:#FFFFFF;" version="1.1" viewBox="0 0 586 367" width="586px" zoomAndPan="magnify"><defs><filter height="300%" id="f1wqi1scup4mdl" width="300%" x="-1" y="-1"><feGaussianBlur result="blurOut" stdDeviation="2.0"/><feColorMatrix in="blurOut" result="blurOut2" type="matrix" values="0 0 0 0 0 0 0 0 0 0 0 0 0 0 0 0 0 0 .4 0"/><feOffset dx="4.0" dy="4.0" in="blurOut2" result="blurOut3"/><feBlend in="SourceGraphic" in2="blurOut3" mode="normal"/></filter></defs><g><rect fill="#FFFFFF" filter="url(#f1wqi1scup4mdl)" height="166.7969" style="stroke:#A80036;stroke-width:1.0;" width="10" x="85.5" y="98.2969"/><rect fill="#FFFFFF" filter="url(#f1wqi1scup4mdl)" height="29.1328" style="stroke:#A80036;stroke-width:1.0;" width="10" x="532.5" y="119.4297"/><rect fill="#FFFFFF" filter="url(#f1wqi1scup4mdl)" height="29.1328" style="stroke:#A80036;stroke-width:1.0;" width="10" x="532.5" y="177.6953"/><rect fill="#FFFFFF" filter="url(#f1wqi1scup4mdl)" height="29.1328" style="stroke:#A80036;stroke-width:1.0;" width="10" x="532.5" y="235.9609"/><line style="stroke:#A80036;stroke-width:1.0;stroke-dasharray:5.0,5.0;" x1="90" x2="90" y1="88.2969" y2="283.0938"/><line style="stroke:#A80036;stroke-width:1.0;stroke-dasharray:5.0,5.0;" x1="537" x2="537" y1="88.2969" y2="283.0938"/><text fill="#000000" font-family="sans-serif" font-size="14" lengthAdjust="spacing" textLength="165" x="5" y="84.9951">Medical Lab Technician</text><ellipse cx="90.5" cy="15" fill="#FEFECE" filter="url(#f1wqi1scup4mdl)" rx="8" ry="8" style="stroke:#A80036;stroke-width:2.0;"/><path d="M90.5,23 L90.5,50 M77.5,31 L103.5,31 M90.5,50 L77.5,65 M90.5,50 L103.5,65 " fill="none" filter="url(#f1wqi1scup4mdl)" style="stroke:#A80036;stroke-width:2.0;"/><text fill="#000000" font-family="sans-serif" font-size="14" lengthAdjust="spacing" textLength="165" x="5" y="295.0889">Medical Lab Technician</text><ellipse cx="90.5" cy="308.3906" fill="#FEFECE" filter="url(#f1wqi1scup4mdl)" rx="8" ry="8" style="stroke:#A80036;stroke-width:2.0;"/><path d="M90.5,316.3906 L90.5,343.3906 M77.5,324.3906 L103.5,324.3906 M90.5,343.3906 L77.5,358.3906 M90.5,343.3906 L103.5,358.3906 " fill="none" filter="url(#f1wqi1scup4mdl)" style="stroke:#A80036;stroke-width:2.0;"/><rect fill="#FEFECE" filter="url(#f1wqi1scup4mdl)" height="30.2969" style="stroke:#A80036;stroke-width:1.5;" width="73" x="499" y="53"/><text fill="#000000" font-family="sans-serif" font-size="14" lengthAdjust="spacing" textLength="59" x="506" y="72.9951">:System</text><rect fill="#FEFECE" filter="url(#f1wqi1scup4mdl)" height="30.2969" style="stroke:#A80036;stroke-width:1.5;" width="73" x="499" y="282.0938"/><text fill="#000000" font-family="sans-serif" font-size="14" lengthAdjust="spacing" textLength="59" x="506" y="302.0889">:System</text><rect fill="#FFFFFF" filter="url(#f1wqi1scup4mdl)" height="166.7969" style="stroke:#A80036;stroke-width:1.0;" width="10" x="85.5" y="98.2969"/><rect fill="#FFFFFF" filter="url(#f1wqi1scup4mdl)" height="29.1328" style="stroke:#A80036;stroke-width:1.0;" width="10" x="532.5" y="119.4297"/><rect fill="#FFFFFF" filter="url(#f1wqi1scup4mdl)" height="29.1328" style="stroke:#A80036;stroke-width:1.0;" width="10" x="532.5" y="177.6953"/><rect fill="#FFFFFF" filter="url(#f1wqi1scup4mdl)" height="29.1328" style="stroke:#A80036;stroke-width:1.0;" width="10" x="532.5" y="235.9609"/><polygon fill="#A80036" points="520.5,115.4297,530.5,119.4297,520.5,123.4297,524.5,119.4297" style="stroke:#A80036;stroke-width:1.0;"/><line style="stroke:#A80036;stroke-width:1.0;" x1="95.5" x2="526.5" y1="119.4297" y2="119.4297"/><text fill="#000000" font-family="sans-serif" font-size="13" font-weight="bold" lengthAdjust="spacing" textLength="9" x="102.5" y="114.3638">1</text><text fill="#000000" font-family="sans-serif" font-size="13" lengthAdjust="spacing" textLength="148" x="115.5" y="114.3638">registing new samples.</text><polygon fill="#A80036" points="106.5,144.5625,96.5,148.5625,106.5,152.5625,102.5,148.5625" style="stroke:#A80036;stroke-width:1.0;"/><line style="stroke:#A80036;stroke-width:1.0;stroke-dasharray:2.0,2.0;" x1="100.5" x2="536.5" y1="148.5625" y2="148.5625"/><text fill="#000000" font-family="sans-serif" font-size="13" font-weight="bold" lengthAdjust="spacing" textLength="9" x="112.5" y="143.4966">2</text><text fill="#000000" font-family="sans-serif" font-size="13" lengthAdjust="spacing" textLength="385" x="125.5" y="143.4966">shows list of tests for which there are no samples collected.</text><polygon fill="#A80036" points="520.5,173.6953,530.5,177.6953,520.5,181.6953,524.5,177.6953" style="stroke:#A80036;stroke-width:1.0;"/><line style="stroke:#A80036;stroke-width:1.0;" x1="95.5" x2="526.5" y1="177.6953" y2="177.6953"/><text fill="#000000" font-family="sans-serif" font-size="13" font-weight="bold" lengthAdjust="spacing" textLength="8" x="102.5" y="172.6294">3</text><text fill="#000000" font-family="sans-serif" font-size="13" lengthAdjust="spacing" textLength="78" x="114.5" y="172.6294">selects test.</text><polygon fill="#A80036" points="106.5,202.8281,96.5,206.8281,106.5,210.8281,102.5,206.8281" style="stroke:#A80036;stroke-width:1.0;"/><line style="stroke:#A80036;stroke-width:1.0;stroke-dasharray:2.0,2.0;" x1="100.5" x2="536.5" y1="206.8281" y2="206.8281"/><text fill="#000000" font-family="sans-serif" font-size="13" font-weight="bold" lengthAdjust="spacing" textLength="9" x="112.5" y="201.7622">4</text><text fill="#000000" font-family="sans-serif" font-size="13" lengthAdjust="spacing" textLength="264" x="125.5" y="201.7622">ask for the number of samples to collect.</text><polygon fill="#A80036" points="520.5,231.9609,530.5,235.9609,520.5,239.9609,524.5,235.9609" style="stroke:#A80036;stroke-width:1.0;"/><line style="stroke:#A80036;stroke-width:1.0;" x1="95.5" x2="526.5" y1="235.9609" y2="235.9609"/><text fill="#000000" font-family="sans-serif" font-size="13" font-weight="bold" lengthAdjust="spacing" textLength="9" x="102.5" y="230.895">5</text><text fill="#000000" font-family="sans-serif" font-size="13" lengthAdjust="spacing" textLength="265" x="115.5" y="230.895">selects the number of samples to collect.</text><polygon fill="#A80036" points="101.5,261.0938,91.5,265.0938,101.5,269.0938,97.5,265.0938" style="stroke:#A80036;stroke-width:1.0;"/><line style="stroke:#A80036;stroke-width:1.0;stroke-dasharray:2.0,2.0;" x1="95.5" x2="536.5" y1="265.0938" y2="265.0938"/><text fill="#000000" font-family="sans-serif" font-size="13" font-weight="bold" lengthAdjust="spacing" textLength="9" x="107.5" y="260.0278">6</text><text fill="#000000" font-family="sans-serif" font-size="13" lengthAdjust="spacing" textLength="400" x="120.5" y="260.0278">generates the barcodes and informs of the operation success.</text><!--MD5=[2e21555456584f30e6ecccadd605fc27]
@startuml
autonumber
actor "Medical Lab Technician" as MEDLT

activate MEDLT
MEDLT-> ":System" : registing new samples. 
activate ":System"
":System" - -> MEDLT : shows list of tests for which there are no samples collected.
deactivate ":System"

MEDLT -> ":System" : selects test.
activate ":System"
":System" - -> MEDLT : ask for the number of samples to collect.
deactivate ":System"

MEDLT -> ":System" : selects the number of samples to collect.
activate ":System"
":System" - -> MEDLT : generates the barcodes and informs of the operation success.
deactivate ":System"

deactivate MEDLT
@enduml

PlantUML version 1.2021.7(Sun May 23 12:40:07 UTC 2021)
(GPL source distribution)
Java Runtime: Java(TM) SE Runtime Environment
JVM: Java HotSpot(TM) 64-Bit Server VM
Default Encoding: UTF-8
Language: en
Country: US
--></g></svg>