<?xml version="1.0" encoding="UTF-8" standalone="no"?>
<svg xmlns="http://www.w3.org/2000/svg" xmlns:xlink="http://www.w3.org/1999/xlink" contentScriptType="application/ecmascript" contentStyleType="text/css" height="909px" preserveAspectRatio="none" style="width:406px;height:909px;background:#FFFFFF;" version="1.1" viewBox="0 0 406 909" width="406px" zoomAndPan="magnify"><defs><filter height="300%" id="f1xxmppl5nu4a" width="300%" x="-1" y="-1"><feGaussianBlur result="blurOut" stdDeviation="2.0"/><feColorMatrix in="blurOut" result="blurOut2" type="matrix" values="0 0 0 0 0 0 0 0 0 0 0 0 0 0 0 0 0 0 .4 0"/><feOffset dx="4.0" dy="4.0" in="blurOut2" result="blurOut3"/><feBlend in="SourceGraphic" in2="blurOut3" mode="normal"/></filter></defs><g><!--MD5=[02e4b9b7573f1156f41e60aa5b4e25a4]
class Company--><rect codeLine="3" fill="#FEFECE" filter="url(#f1xxmppl5nu4a)" height="73.6094" id="Company" style="stroke:#A80036;stroke-width:1.5;" width="119" x="87.5" y="469"/><ellipse cx="116.45" cy="485" fill="#ADD1B2" rx="11" ry="11" style="stroke:#A80036;stroke-width:1.0;"/><path d="M118.7938,480.6719 C117.8563,480.2344 117.2625,480.0938 116.3875,480.0938 C113.7625,480.0938 111.7625,482.1719 111.7625,484.8906 L111.7625,486.0156 C111.7625,488.5938 113.8719,490.4844 116.7625,490.4844 C117.9813,490.4844 119.1375,490.1875 119.8875,489.6406 C120.4656,489.2344 120.7938,488.7813 120.7938,488.3906 C120.7938,487.9375 120.4031,487.5469 119.9344,487.5469 C119.7156,487.5469 119.5125,487.625 119.325,487.8125 C118.8719,488.2969 118.8719,488.2969 118.6844,488.3906 C118.2625,488.6563 117.575,488.7813 116.8094,488.7813 C114.7625,488.7813 113.4656,487.6875 113.4656,485.9844 L113.4656,484.8906 C113.4656,483.1094 114.7156,481.7969 116.45,481.7969 C117.0281,481.7969 117.6375,481.9531 118.1063,482.2031 C118.5906,482.4844 118.7625,482.7031 118.8563,483.1094 C118.9188,483.5156 118.95,483.6406 119.0906,483.7656 C119.2313,483.9063 119.4656,484.0156 119.6844,484.0156 C119.95,484.0156 120.2156,483.875 120.3875,483.6563 C120.4969,483.5 120.5281,483.3125 120.5281,482.8906 L120.5281,481.4688 C120.5281,481.0313 120.5125,480.9063 120.4188,480.75 C120.2625,480.4844 119.9813,480.3438 119.6844,480.3438 C119.3875,480.3438 119.1844,480.4375 118.9656,480.75 L118.7938,480.6719 Z " fill="#000000"/><text fill="#000000" font-family="sans-serif" font-size="12" lengthAdjust="spacing" textLength="56" x="133.55" y="489.1543">Company</text><line style="stroke:#A80036;stroke-width:1.5;" x1="88.5" x2="205.5" y1="501" y2="501"/><text fill="#000000" font-family="sans-serif" font-size="11" lengthAdjust="spacing" textLength="107" x="93.5" y="515.2104">-String designation</text><line style="stroke:#A80036;stroke-width:1.5;" x1="88.5" x2="205.5" y1="521.8047" y2="521.8047"/><text fill="#000000" font-family="sans-serif" font-size="11" lengthAdjust="spacing" textLength="92" x="93.5" y="536.0151">+getTestStore()</text><!--MD5=[df38be88ccee13e832d6fafd6288a4ca]
class Test--><rect codeLine="10" fill="#FEFECE" filter="url(#f1xxmppl5nu4a)" height="137.6328" id="Test" style="stroke:#A80036;stroke-width:1.5;" width="280" x="7" y="758"/><ellipse cx="129.75" cy="774" fill="#ADD1B2" rx="11" ry="11" style="stroke:#A80036;stroke-width:1.0;"/><path d="M132.0938,769.6719 C131.1563,769.2344 130.5625,769.0938 129.6875,769.0938 C127.0625,769.0938 125.0625,771.1719 125.0625,773.8906 L125.0625,775.0156 C125.0625,777.5938 127.1719,779.4844 130.0625,779.4844 C131.2813,779.4844 132.4375,779.1875 133.1875,778.6406 C133.7656,778.2344 134.0938,777.7813 134.0938,777.3906 C134.0938,776.9375 133.7031,776.5469 133.2344,776.5469 C133.0156,776.5469 132.8125,776.625 132.625,776.8125 C132.1719,777.2969 132.1719,777.2969 131.9844,777.3906 C131.5625,777.6563 130.875,777.7813 130.1094,777.7813 C128.0625,777.7813 126.7656,776.6875 126.7656,774.9844 L126.7656,773.8906 C126.7656,772.1094 128.0156,770.7969 129.75,770.7969 C130.3281,770.7969 130.9375,770.9531 131.4063,771.2031 C131.8906,771.4844 132.0625,771.7031 132.1563,772.1094 C132.2188,772.5156 132.25,772.6406 132.3906,772.7656 C132.5313,772.9063 132.7656,773.0156 132.9844,773.0156 C133.25,773.0156 133.5156,772.875 133.6875,772.6563 C133.7969,772.5 133.8281,772.3125 133.8281,771.8906 L133.8281,770.4688 C133.8281,770.0313 133.8125,769.9063 133.7188,769.75 C133.5625,769.4844 133.2813,769.3438 132.9844,769.3438 C132.6875,769.3438 132.4844,769.4375 132.2656,769.75 L132.0938,769.6719 Z " fill="#000000"/><text fill="#000000" font-family="sans-serif" font-size="12" lengthAdjust="spacing" textLength="26" x="150.25" y="778.1543">Test</text><line style="stroke:#A80036;stroke-width:1.5;" x1="8" x2="286" y1="790" y2="790"/><text fill="#000000" font-family="sans-serif" font-size="11" lengthAdjust="spacing" textLength="91" x="13" y="804.2104">-String nhsCode</text><text fill="#000000" font-family="sans-serif" font-size="11" lengthAdjust="spacing" textLength="114" x="13" y="817.0151">-String internalCode</text><text fill="#000000" font-family="sans-serif" font-size="11" lengthAdjust="spacing" textLength="72" x="13" y="829.8198">-Client client</text><text fill="#000000" font-family="sans-serif" font-size="11" lengthAdjust="spacing" textLength="113" x="13" y="842.6245">-TestType testType</text><text fill="#000000" font-family="sans-serif" font-size="11" lengthAdjust="spacing" textLength="268" x="13" y="855.4292">-List&lt;ParameterCategory&gt; parameterCategory</text><text fill="#000000" font-family="sans-serif" font-size="11" lengthAdjust="spacing" textLength="164" x="13" y="868.2339">-List&lt;Parameter&gt; parameter</text><text fill="#000000" font-family="sans-serif" font-size="11" lengthAdjust="spacing" textLength="128" x="13" y="881.0386">-Date registrationDate</text><line style="stroke:#A80036;stroke-width:1.5;" x1="8" x2="286" y1="887.6328" y2="887.6328"/><!--MD5=[0f6f7964b844a64b0496af0dda7914bd]
class TestStore--><rect codeLine="20" fill="#FEFECE" filter="url(#f1xxmppl5nu4a)" height="60.8047" id="TestStore" style="stroke:#A80036;stroke-width:1.5;" width="225" x="34.5" y="620"/><ellipse cx="113.25" cy="636" fill="#ADD1B2" rx="11" ry="11" style="stroke:#A80036;stroke-width:1.0;"/><path d="M115.5938,631.6719 C114.6563,631.2344 114.0625,631.0938 113.1875,631.0938 C110.5625,631.0938 108.5625,633.1719 108.5625,635.8906 L108.5625,637.0156 C108.5625,639.5938 110.6719,641.4844 113.5625,641.4844 C114.7813,641.4844 115.9375,641.1875 116.6875,640.6406 C117.2656,640.2344 117.5938,639.7813 117.5938,639.3906 C117.5938,638.9375 117.2031,638.5469 116.7344,638.5469 C116.5156,638.5469 116.3125,638.625 116.125,638.8125 C115.6719,639.2969 115.6719,639.2969 115.4844,639.3906 C115.0625,639.6563 114.375,639.7813 113.6094,639.7813 C111.5625,639.7813 110.2656,638.6875 110.2656,636.9844 L110.2656,635.8906 C110.2656,634.1094 111.5156,632.7969 113.25,632.7969 C113.8281,632.7969 114.4375,632.9531 114.9063,633.2031 C115.3906,633.4844 115.5625,633.7031 115.6563,634.1094 C115.7188,634.5156 115.75,634.6406 115.8906,634.7656 C116.0313,634.9063 116.2656,635.0156 116.4844,635.0156 C116.75,635.0156 117.0156,634.875 117.1875,634.6563 C117.2969,634.5 117.3281,634.3125 117.3281,633.8906 L117.3281,632.4688 C117.3281,632.0313 117.3125,631.9063 117.2188,631.75 C117.0625,631.4844 116.7813,631.3438 116.4844,631.3438 C116.1875,631.3438 115.9844,631.4375 115.7656,631.75 L115.5938,631.6719 Z " fill="#000000"/><text fill="#000000" font-family="sans-serif" font-size="12" lengthAdjust="spacing" textLength="59" x="133.75" y="640.1543">TestStore</text><line style="stroke:#A80036;stroke-width:1.5;" x1="35.5" x2="258.5" y1="652" y2="652"/><line style="stroke:#A80036;stroke-width:1.5;" x1="35.5" x2="258.5" y1="660" y2="660"/><text fill="#000000" font-family="sans-serif" font-size="11" lengthAdjust="spacing" textLength="213" x="40.5" y="674.2104">+getValidatedTestsFromClient(client)</text><!--MD5=[53c73ab6e8aa4a60c2e5f64618ce50b7]
class ViewTestsGUIScene--><rect codeLine="24" fill="#FEFECE" filter="url(#f1xxmppl5nu4a)" height="48" id="ViewTestsGUIScene" style="stroke:#A80036;stroke-width:1.5;" width="153" x="36.5" y="7"/><ellipse cx="51.5" cy="23" fill="#ADD1B2" rx="11" ry="11" style="stroke:#A80036;stroke-width:1.0;"/><path d="M53.8438,18.6719 C52.9063,18.2344 52.3125,18.0938 51.4375,18.0938 C48.8125,18.0938 46.8125,20.1719 46.8125,22.8906 L46.8125,24.0156 C46.8125,26.5938 48.9219,28.4844 51.8125,28.4844 C53.0313,28.4844 54.1875,28.1875 54.9375,27.6406 C55.5156,27.2344 55.8438,26.7813 55.8438,26.3906 C55.8438,25.9375 55.4531,25.5469 54.9844,25.5469 C54.7656,25.5469 54.5625,25.625 54.375,25.8125 C53.9219,26.2969 53.9219,26.2969 53.7344,26.3906 C53.3125,26.6563 52.625,26.7813 51.8594,26.7813 C49.8125,26.7813 48.5156,25.6875 48.5156,23.9844 L48.5156,22.8906 C48.5156,21.1094 49.7656,19.7969 51.5,19.7969 C52.0781,19.7969 52.6875,19.9531 53.1563,20.2031 C53.6406,20.4844 53.8125,20.7031 53.9063,21.1094 C53.9688,21.5156 54,21.6406 54.1406,21.7656 C54.2813,21.9063 54.5156,22.0156 54.7344,22.0156 C55,22.0156 55.2656,21.875 55.4375,21.6563 C55.5469,21.5 55.5781,21.3125 55.5781,20.8906 L55.5781,19.4688 C55.5781,19.0313 55.5625,18.9063 55.4688,18.75 C55.3125,18.4844 55.0313,18.3438 54.7344,18.3438 C54.4375,18.3438 54.2344,18.4375 54.0156,18.75 L53.8438,18.6719 Z " fill="#000000"/><text fill="#000000" font-family="sans-serif" font-size="12" lengthAdjust="spacing" textLength="121" x="65.5" y="27.1543">ViewTestsGUIScene</text><line style="stroke:#A80036;stroke-width:1.5;" x1="37.5" x2="188.5" y1="39" y2="39"/><line style="stroke:#A80036;stroke-width:1.5;" x1="37.5" x2="188.5" y1="47" y2="47"/><!--MD5=[ec348204ecee82e7658ec01523612cb9]
class ViewTestsGUISceneController--><rect codeLine="27" fill="#FEFECE" filter="url(#f1xxmppl5nu4a)" height="60.8047" id="ViewTestsGUISceneController" style="stroke:#A80036;stroke-width:1.5;" width="212" x="7" y="116"/><ellipse cx="22" cy="132" fill="#ADD1B2" rx="11" ry="11" style="stroke:#A80036;stroke-width:1.0;"/><path d="M24.3438,127.6719 C23.4063,127.2344 22.8125,127.0938 21.9375,127.0938 C19.3125,127.0938 17.3125,129.1719 17.3125,131.8906 L17.3125,133.0156 C17.3125,135.5938 19.4219,137.4844 22.3125,137.4844 C23.5313,137.4844 24.6875,137.1875 25.4375,136.6406 C26.0156,136.2344 26.3438,135.7813 26.3438,135.3906 C26.3438,134.9375 25.9531,134.5469 25.4844,134.5469 C25.2656,134.5469 25.0625,134.625 24.875,134.8125 C24.4219,135.2969 24.4219,135.2969 24.2344,135.3906 C23.8125,135.6563 23.125,135.7813 22.3594,135.7813 C20.3125,135.7813 19.0156,134.6875 19.0156,132.9844 L19.0156,131.8906 C19.0156,130.1094 20.2656,128.7969 22,128.7969 C22.5781,128.7969 23.1875,128.9531 23.6563,129.2031 C24.1406,129.4844 24.3125,129.7031 24.4063,130.1094 C24.4688,130.5156 24.5,130.6406 24.6406,130.7656 C24.7813,130.9063 25.0156,131.0156 25.2344,131.0156 C25.5,131.0156 25.7656,130.875 25.9375,130.6563 C26.0469,130.5 26.0781,130.3125 26.0781,129.8906 L26.0781,128.4688 C26.0781,128.0313 26.0625,127.9063 25.9688,127.75 C25.8125,127.4844 25.5313,127.3438 25.2344,127.3438 C24.9375,127.3438 24.7344,127.4375 24.5156,127.75 L24.3438,127.6719 Z " fill="#000000"/><text fill="#000000" font-family="sans-serif" font-size="12" lengthAdjust="spacing" textLength="180" x="36" y="136.1543">ViewTestsGUISceneController</text><line style="stroke:#A80036;stroke-width:1.5;" x1="8" x2="218" y1="148" y2="148"/><line style="stroke:#A80036;stroke-width:1.5;" x1="8" x2="218" y1="156" y2="156"/><text fill="#000000" font-family="sans-serif" font-size="11" lengthAdjust="spacing" textLength="63" x="13" y="170.2104">-loadData()</text><!--MD5=[7cbeaa73227f2eb4f52cc1d623df3eb3]
class ViewTestDetailsGUIScene--><rect codeLine="31" fill="#FEFECE" filter="url(#f1xxmppl5nu4a)" height="48" id="ViewTestDetailsGUIScene" style="stroke:#A80036;stroke-width:1.5;" width="187" x="160.5" y="238"/><ellipse cx="175.5" cy="254" fill="#ADD1B2" rx="11" ry="11" style="stroke:#A80036;stroke-width:1.0;"/><path d="M177.8438,249.6719 C176.9063,249.2344 176.3125,249.0938 175.4375,249.0938 C172.8125,249.0938 170.8125,251.1719 170.8125,253.8906 L170.8125,255.0156 C170.8125,257.5938 172.9219,259.4844 175.8125,259.4844 C177.0313,259.4844 178.1875,259.1875 178.9375,258.6406 C179.5156,258.2344 179.8438,257.7813 179.8438,257.3906 C179.8438,256.9375 179.4531,256.5469 178.9844,256.5469 C178.7656,256.5469 178.5625,256.625 178.375,256.8125 C177.9219,257.2969 177.9219,257.2969 177.7344,257.3906 C177.3125,257.6563 176.625,257.7813 175.8594,257.7813 C173.8125,257.7813 172.5156,256.6875 172.5156,254.9844 L172.5156,253.8906 C172.5156,252.1094 173.7656,250.7969 175.5,250.7969 C176.0781,250.7969 176.6875,250.9531 177.1563,251.2031 C177.6406,251.4844 177.8125,251.7031 177.9063,252.1094 C177.9688,252.5156 178,252.6406 178.1406,252.7656 C178.2813,252.9063 178.5156,253.0156 178.7344,253.0156 C179,253.0156 179.2656,252.875 179.4375,252.6563 C179.5469,252.5 179.5781,252.3125 179.5781,251.8906 L179.5781,250.4688 C179.5781,250.0313 179.5625,249.9063 179.4688,249.75 C179.3125,249.4844 179.0313,249.3438 178.7344,249.3438 C178.4375,249.3438 178.2344,249.4375 178.0156,249.75 L177.8438,249.6719 Z " fill="#000000"/><text fill="#000000" font-family="sans-serif" font-size="12" lengthAdjust="spacing" textLength="155" x="189.5" y="258.1543">ViewTestDetailsGUIScene</text><line style="stroke:#A80036;stroke-width:1.5;" x1="161.5" x2="346.5" y1="270" y2="270"/><line style="stroke:#A80036;stroke-width:1.5;" x1="161.5" x2="346.5" y1="278" y2="278"/><!--MD5=[e5ae8da3b5b455fea38240e4bfe9f007]
class ViewTestDetailsGUISceneController--><rect codeLine="34" fill="#FEFECE" filter="url(#f1xxmppl5nu4a)" height="60.8047" id="ViewTestDetailsGUISceneController" style="stroke:#A80036;stroke-width:1.5;" width="246" x="146" y="347"/><ellipse cx="161" cy="363" fill="#ADD1B2" rx="11" ry="11" style="stroke:#A80036;stroke-width:1.0;"/><path d="M163.3438,358.6719 C162.4063,358.2344 161.8125,358.0938 160.9375,358.0938 C158.3125,358.0938 156.3125,360.1719 156.3125,362.8906 L156.3125,364.0156 C156.3125,366.5938 158.4219,368.4844 161.3125,368.4844 C162.5313,368.4844 163.6875,368.1875 164.4375,367.6406 C165.0156,367.2344 165.3438,366.7813 165.3438,366.3906 C165.3438,365.9375 164.9531,365.5469 164.4844,365.5469 C164.2656,365.5469 164.0625,365.625 163.875,365.8125 C163.4219,366.2969 163.4219,366.2969 163.2344,366.3906 C162.8125,366.6563 162.125,366.7813 161.3594,366.7813 C159.3125,366.7813 158.0156,365.6875 158.0156,363.9844 L158.0156,362.8906 C158.0156,361.1094 159.2656,359.7969 161,359.7969 C161.5781,359.7969 162.1875,359.9531 162.6563,360.2031 C163.1406,360.4844 163.3125,360.7031 163.4063,361.1094 C163.4688,361.5156 163.5,361.6406 163.6406,361.7656 C163.7813,361.9063 164.0156,362.0156 164.2344,362.0156 C164.5,362.0156 164.7656,361.875 164.9375,361.6563 C165.0469,361.5 165.0781,361.3125 165.0781,360.8906 L165.0781,359.4688 C165.0781,359.0313 165.0625,358.9063 164.9688,358.75 C164.8125,358.4844 164.5313,358.3438 164.2344,358.3438 C163.9375,358.3438 163.7344,358.4375 163.5156,358.75 L163.3438,358.6719 Z " fill="#000000"/><text fill="#000000" font-family="sans-serif" font-size="12" lengthAdjust="spacing" textLength="214" x="175" y="367.1543">ViewTestDetailsGUISceneController</text><line style="stroke:#A80036;stroke-width:1.5;" x1="147" x2="391" y1="379" y2="379"/><line style="stroke:#A80036;stroke-width:1.5;" x1="147" x2="391" y1="387" y2="387"/><text fill="#000000" font-family="sans-serif" font-size="11" lengthAdjust="spacing" textLength="63" x="152" y="401.2104">-loadData()</text><!--MD5=[101d87ef40f51ca0489b1d415332ab4b]
link ViewTestsGUIScene to ViewTestsGUISceneController--><path codeLine="38" d="M113,55.242 C113,71.112 113,92.427 113,110.359 " fill="none" id="ViewTestsGUIScene-to-ViewTestsGUISceneController" style="stroke:#A80036;stroke-width:1.0;stroke-dasharray:7.0,7.0;"/><polygon fill="#A80036" points="113,115.805,117,106.805,113,110.805,109,106.805,113,115.805" style="stroke:#A80036;stroke-width:1.0;"/><!--MD5=[a77adecaab765f99b6739158239ff474]
link ViewTestsGUISceneController to ViewTestDetailsGUIScene--><path codeLine="39" d="M149.678,177.024 C171.801,194.833 199.747,217.328 221.146,234.554 " fill="none" id="ViewTestsGUISceneController-to-ViewTestDetailsGUIScene" style="stroke:#A80036;stroke-width:1.0;stroke-dasharray:7.0,7.0;"/><polygon fill="#A80036" points="225.062,237.706,220.5607,228.946,221.1676,234.5702,215.5434,235.1771,225.062,237.706" style="stroke:#A80036;stroke-width:1.0;"/><!--MD5=[fc8674871bfb859d4346b071a7f360fa]
link ViewTestDetailsGUIScene to ViewTestDetailsGUISceneController--><path codeLine="40" d="M257.072,286.242 C259.187,302.248 262.035,323.795 264.417,341.822 " fill="none" id="ViewTestDetailsGUIScene-to-ViewTestDetailsGUISceneController" style="stroke:#A80036;stroke-width:1.0;stroke-dasharray:7.0,7.0;"/><polygon fill="#A80036" points="265.076,346.805,267.8609,337.3581,264.4201,341.8482,259.93,338.4074,265.076,346.805" style="stroke:#A80036;stroke-width:1.0;"/><!--MD5=[4d5b9c1ac33f340d2322afa0d64257c1]
link ViewTestsGUISceneController to Company--><path codeLine="41" d="M113.401,177.311 C114.349,225.838 117.512,324.853 128,408 C130.316,426.361 134.052,446.466 137.602,463.588 " fill="none" id="ViewTestsGUISceneController-to-Company" style="stroke:#A80036;stroke-width:1.0;stroke-dasharray:7.0,7.0;"/><polygon fill="#A80036" points="138.695,468.8,140.7606,459.1702,137.6678,463.9067,132.9313,460.8138,138.695,468.8" style="stroke:#A80036;stroke-width:1.0;"/><!--MD5=[7ba2591e521fbe8d138adac39f71bb4f]
link ViewTestDetailsGUISceneController to Company--><path codeLine="42" d="M240.396,408.159 C224.022,425.137 203.259,446.665 185.471,465.11 " fill="none" id="ViewTestDetailsGUISceneController-to-Company" style="stroke:#A80036;stroke-width:1.0;stroke-dasharray:7.0,7.0;"/><polygon fill="#A80036" points="181.955,468.755,191.0816,465.0529,185.4257,465.1558,185.3228,459.4998,181.955,468.755" style="stroke:#A80036;stroke-width:1.0;"/><!--MD5=[7f6cf7f175eae0af66201860de5de971]
link Company to TestStore--><path codeLine="43" d="M147,543.327 C147,565.313 147,593.193 147,614.866 " fill="none" id="Company-to-TestStore" style="stroke:#A80036;stroke-width:1.0;"/><polygon fill="#A80036" points="147,619.952,151,610.952,147,614.952,143,610.952,147,619.952" style="stroke:#A80036;stroke-width:1.0;"/><text fill="#000000" font-family="sans-serif" font-size="13" lengthAdjust="spacing" textLength="23" x="148" y="586.0669">has</text><text fill="#000000" font-family="sans-serif" font-size="13" lengthAdjust="spacing" textLength="8" x="138.3625" y="562.5799">1</text><text fill="#000000" font-family="sans-serif" font-size="13" lengthAdjust="spacing" textLength="23" x="121.4844" y="608.7318">1..*</text><!--MD5=[b0f4f6db8206580012ef9cd998ed01c5]
link TestStore to Test--><path codeLine="44" d="M147,681.102 C147,700.792 147,727.573 147,752.756 " fill="none" id="TestStore-to-Test" style="stroke:#A80036;stroke-width:1.0;"/><polygon fill="#A80036" points="147,757.768,151,748.768,147,752.768,143,748.768,147,757.768" style="stroke:#A80036;stroke-width:1.0;"/><text fill="#000000" font-family="sans-serif" font-size="13" lengthAdjust="spacing" textLength="58" x="148" y="724.0669">conducts</text><text fill="#000000" font-family="sans-serif" font-size="13" lengthAdjust="spacing" textLength="8" x="138.175" y="701.0613">1</text><text fill="#000000" font-family="sans-serif" font-size="13" lengthAdjust="spacing" textLength="7" x="139.6391" y="746.9477">*</text><!--MD5=[938923f7e0454f8ad57f8947aae68125]
@startuml
skinparam classAttributeIconSize 0

class Company
{
  -String designation
  +getTestStore()
}


class Test {
  -String nhsCode
  -String internalCode
  -Client client
  -TestType testType
  -List<ParameterCategory> parameterCategory
  -List<Parameter> parameter
  -Date registrationDate
}

class TestStore {
  +getValidatedTestsFromClient(client)
}

class ViewTestsGUIScene {
}

class ViewTestsGUISceneController {
  -loadData()
}

class ViewTestDetailsGUIScene {
}

class ViewTestDetailsGUISceneController {
  -loadData()
}

ViewTestsGUIScene ..> ViewTestsGUISceneController
ViewTestsGUISceneController ..> ViewTestDetailsGUIScene
ViewTestDetailsGUIScene ..> ViewTestDetailsGUISceneController
ViewTestsGUISceneController ..> Company
ViewTestDetailsGUISceneController ..> Company
Company "1" - -> "1..*" TestStore : has
TestStore "1" - -> "*" Test : conducts
@enduml

PlantUML version 1.2021.7(Sun May 23 12:40:07 UTC 2021)
(GPL source distribution)
Java Runtime: Java(TM) SE Runtime Environment
JVM: Java HotSpot(TM) 64-Bit Server VM
Default Encoding: UTF-8
Language: en
Country: US
--></g></svg>