<?xml version="1.0" encoding="UTF-8" standalone="no"?>
<svg xmlns="http://www.w3.org/2000/svg" xmlns:xlink="http://www.w3.org/1999/xlink" contentScriptType="application/ecmascript" contentStyleType="text/css" height="309px" preserveAspectRatio="none" style="width:484px;height:309px;background:#FFFFFF;" version="1.1" viewBox="0 0 484 309" width="484px" zoomAndPan="magnify"><defs><filter height="300%" id="f1l4smk6rwkbtk" width="300%" x="-1" y="-1"><feGaussianBlur result="blurOut" stdDeviation="2.0"/><feColorMatrix in="blurOut" result="blurOut2" type="matrix" values="0 0 0 0 0 0 0 0 0 0 0 0 0 0 0 0 0 0 .4 0"/><feOffset dx="4.0" dy="4.0" in="blurOut2" result="blurOut3"/><feBlend in="SourceGraphic" in2="blurOut3" mode="normal"/></filter></defs><g><rect fill="#FFFFFF" filter="url(#f1l4smk6rwkbtk)" height="108.5313" style="stroke:#A80036;stroke-width:1.0;" width="10" x="24.5" y="98.2969"/><rect fill="#FFFFFF" filter="url(#f1l4smk6rwkbtk)" height="29.1328" style="stroke:#A80036;stroke-width:1.0;" width="10" x="430.5" y="119.4297"/><rect fill="#FFFFFF" filter="url(#f1l4smk6rwkbtk)" height="29.1328" style="stroke:#A80036;stroke-width:1.0;" width="10" x="430.5" y="177.6953"/><line style="stroke:#A80036;stroke-width:1.0;stroke-dasharray:5.0,5.0;" x1="29" x2="29" y1="88.2969" y2="224.8281"/><line style="stroke:#A80036;stroke-width:1.0;stroke-dasharray:5.0,5.0;" x1="435" x2="435" y1="88.2969" y2="224.8281"/><text fill="#000000" font-family="sans-serif" font-size="14" lengthAdjust="spacing" textLength="43" x="5" y="84.9951">Client</text><ellipse cx="29.5" cy="15" fill="#FEFECE" filter="url(#f1l4smk6rwkbtk)" rx="8" ry="8" style="stroke:#A80036;stroke-width:2.0;"/><path d="M29.5,23 L29.5,50 M16.5,31 L42.5,31 M29.5,50 L16.5,65 M29.5,50 L42.5,65 " fill="none" filter="url(#f1l4smk6rwkbtk)" style="stroke:#A80036;stroke-width:2.0;"/><text fill="#000000" font-family="sans-serif" font-size="14" lengthAdjust="spacing" textLength="43" x="5" y="236.8232">Client</text><ellipse cx="29.5" cy="250.125" fill="#FEFECE" filter="url(#f1l4smk6rwkbtk)" rx="8" ry="8" style="stroke:#A80036;stroke-width:2.0;"/><path d="M29.5,258.125 L29.5,285.125 M16.5,266.125 L42.5,266.125 M29.5,285.125 L16.5,300.125 M29.5,285.125 L42.5,300.125 " fill="none" filter="url(#f1l4smk6rwkbtk)" style="stroke:#A80036;stroke-width:2.0;"/><rect fill="#FEFECE" filter="url(#f1l4smk6rwkbtk)" height="30.2969" style="stroke:#A80036;stroke-width:1.5;" width="73" x="397" y="53"/><text fill="#000000" font-family="sans-serif" font-size="14" lengthAdjust="spacing" textLength="59" x="404" y="72.9951">:System</text><rect fill="#FEFECE" filter="url(#f1l4smk6rwkbtk)" height="30.2969" style="stroke:#A80036;stroke-width:1.5;" width="73" x="397" y="223.8281"/><text fill="#000000" font-family="sans-serif" font-size="14" lengthAdjust="spacing" textLength="59" x="404" y="243.8232">:System</text><rect fill="#FFFFFF" filter="url(#f1l4smk6rwkbtk)" height="108.5313" style="stroke:#A80036;stroke-width:1.0;" width="10" x="24.5" y="98.2969"/><rect fill="#FFFFFF" filter="url(#f1l4smk6rwkbtk)" height="29.1328" style="stroke:#A80036;stroke-width:1.0;" width="10" x="430.5" y="119.4297"/><rect fill="#FFFFFF" filter="url(#f1l4smk6rwkbtk)" height="29.1328" style="stroke:#A80036;stroke-width:1.0;" width="10" x="430.5" y="177.6953"/><polygon fill="#A80036" points="418.5,115.4297,428.5,119.4297,418.5,123.4297,422.5,119.4297" style="stroke:#A80036;stroke-width:1.0;"/><line style="stroke:#A80036;stroke-width:1.0;" x1="34.5" x2="424.5" y1="119.4297" y2="119.4297"/><text fill="#000000" font-family="sans-serif" font-size="13" font-weight="bold" lengthAdjust="spacing" textLength="9" x="41.5" y="114.3638">1</text><text fill="#000000" font-family="sans-serif" font-size="13" lengthAdjust="spacing" textLength="152" x="54.5" y="114.3638">updating personal data.</text><polygon fill="#A80036" points="45.5,144.5625,35.5,148.5625,45.5,152.5625,41.5,148.5625" style="stroke:#A80036;stroke-width:1.0;"/><line style="stroke:#A80036;stroke-width:1.0;stroke-dasharray:2.0,2.0;" x1="39.5" x2="434.5" y1="148.5625" y2="148.5625"/><text fill="#000000" font-family="sans-serif" font-size="13" font-weight="bold" lengthAdjust="spacing" textLength="9" x="51.5" y="143.4966">2</text><text fill="#000000" font-family="sans-serif" font-size="13" lengthAdjust="spacing" textLength="322" x="64.5" y="143.4966">shows the clients data and let the client change it.</text><polygon fill="#A80036" points="418.5,173.6953,428.5,177.6953,418.5,181.6953,422.5,177.6953" style="stroke:#A80036;stroke-width:1.0;"/><line style="stroke:#A80036;stroke-width:1.0;" x1="34.5" x2="424.5" y1="177.6953" y2="177.6953"/><text fill="#000000" font-family="sans-serif" font-size="13" font-weight="bold" lengthAdjust="spacing" textLength="8" x="41.5" y="172.6294">3</text><text fill="#000000" font-family="sans-serif" font-size="13" lengthAdjust="spacing" textLength="125" x="53.5" y="172.6294">write the new data.</text><polygon fill="#A80036" points="40.5,202.8281,30.5,206.8281,40.5,210.8281,36.5,206.8281" style="stroke:#A80036;stroke-width:1.0;"/><line style="stroke:#A80036;stroke-width:1.0;stroke-dasharray:2.0,2.0;" x1="34.5" x2="434.5" y1="206.8281" y2="206.8281"/><text fill="#000000" font-family="sans-serif" font-size="13" font-weight="bold" lengthAdjust="spacing" textLength="9" x="46.5" y="201.7622">4</text><text fill="#000000" font-family="sans-serif" font-size="13" lengthAdjust="spacing" textLength="359" x="59.5" y="201.7622">changes the data and informs of the operation success.</text><!--MD5=[b11a4a8a12280eccb7daa054784e19cd]
@startuml
autonumber
actor "Client" as CLT

activate CLT
CLT -> ":System" : updating personal data. 
activate ":System"
":System" - -> CLT: shows the clients data and let the client change it.
deactivate ":System"

CLT -> ":System" : write the new data.
activate ":System"
":System" - -> CLT: changes the data and informs of the operation success.
deactivate ":System"

deactivate CLT
@enduml

PlantUML version 1.2021.7(Sun May 23 12:40:07 UTC 2021)
(GPL source distribution)
Java Runtime: Java(TM) SE Runtime Environment
JVM: Java HotSpot(TM) 64-Bit Server VM
Default Encoding: UTF-8
Language: en
Country: US
--></g></svg>