<?xml version="1.0" encoding="UTF-8" standalone="no"?><svg xmlns="http://www.w3.org/2000/svg" xmlns:xlink="http://www.w3.org/1999/xlink" contentScriptType="application/ecmascript" contentStyleType="text/css" height="690px" preserveAspectRatio="none" style="width:1255px;height:690px;background:#FFFFFF;" version="1.1" viewBox="0 0 1255 690" width="1255px" zoomAndPan="magnify"><defs><filter height="300%" id="f1y08o4j0k4zei" width="300%" x="-1" y="-1"><feGaussianBlur result="blurOut" stdDeviation="2.0"/><feColorMatrix in="blurOut" result="blurOut2" type="matrix" values="0 0 0 0 0 0 0 0 0 0 0 0 0 0 0 0 0 0 .4 0"/><feOffset dx="4.0" dy="4.0" in="blurOut2" result="blurOut3"/><feBlend in="SourceGraphic" in2="blurOut3" mode="normal"/></filter></defs><g><rect fill="#FFFFFF" filter="url(#f1y08o4j0k4zei)" height="489.8594" style="stroke:#A80036;stroke-width:1.0;" width="10" x="24.5" y="98.2969"/><rect fill="#FFFFFF" filter="url(#f1y08o4j0k4zei)" height="176.5313" style="stroke:#A80036;stroke-width:1.0;" width="10" x="341.5" y="119.4297"/><rect fill="#FFFFFF" filter="url(#f1y08o4j0k4zei)" height="233.9297" style="stroke:#A80036;stroke-width:1.0;" width="10" x="341.5" y="325.0938"/><rect fill="#FFFFFF" filter="url(#f1y08o4j0k4zei)" height="118.2656" style="stroke:#A80036;stroke-width:1.0;" width="10" x="599.5" y="148.5625"/><rect fill="#FFFFFF" filter="url(#f1y08o4j0k4zei)" height="175.6641" style="stroke:#A80036;stroke-width:1.0;" width="10" x="599.5" y="354.2266"/><rect fill="#FFFFFF" filter="url(#f1y08o4j0k4zei)" height="30" style="stroke:#A80036;stroke-width:1.0;" width="10" x="768.5" y="177.6953"/><rect fill="#FFFFFF" filter="url(#f1y08o4j0k4zei)" height="30" style="stroke:#A80036;stroke-width:1.0;" width="10" x="867.5" y="236.8281"/><rect fill="#FFFFFF" filter="url(#f1y08o4j0k4zei)" height="30" style="stroke:#A80036;stroke-width:1.0;" width="10" x="867.5" y="499.8906"/><rect fill="#FFFFFF" filter="url(#f1y08o4j0k4zei)" height="175.6641" style="stroke:#A80036;stroke-width:1.0;" width="10" x="1002.5" y="354.2266"/><rect fill="#FFFFFF" filter="url(#f1y08o4j0k4zei)" height="29.1328" style="stroke:#A80036;stroke-width:1.0;" width="10" x="1141.5" y="559.0234"/><line style="stroke:#A80036;stroke-width:1.0;stroke-dasharray:5.0,5.0;" x1="29" x2="29" y1="88.2969" y2="606.1563"/><line style="stroke:#A80036;stroke-width:1.0;stroke-dasharray:5.0,5.0;" x1="346.5" x2="346.5" y1="88.2969" y2="606.1563"/><line style="stroke:#A80036;stroke-width:1.0;stroke-dasharray:5.0,5.0;" x1="604" x2="604" y1="88.2969" y2="606.1563"/><line style="stroke:#A80036;stroke-width:1.0;stroke-dasharray:5.0,5.0;" x1="773" x2="773" y1="88.2969" y2="606.1563"/><line style="stroke:#A80036;stroke-width:1.0;stroke-dasharray:5.0,5.0;" x1="872" x2="872" y1="88.2969" y2="606.1563"/><line style="stroke:#A80036;stroke-width:1.0;stroke-dasharray:5.0,5.0;" x1="1007" x2="1007" y1="88.2969" y2="606.1563"/><line style="stroke:#A80036;stroke-width:1.0;stroke-dasharray:5.0,5.0;" x1="1146" x2="1146" y1="88.2969" y2="606.1563"/><text fill="#000000" font-family="sans-serif" font-size="14" lengthAdjust="spacing" textLength="43" x="5" y="84.9951">Client</text><ellipse cx="29.5" cy="15" fill="#FEFECE" filter="url(#f1y08o4j0k4zei)" rx="8" ry="8" style="stroke:#A80036;stroke-width:2.0;"/><path d="M29.5,23 L29.5,50 M16.5,31 L42.5,31 M29.5,50 L16.5,65 M29.5,50 L42.5,65 " fill="none" filter="url(#f1y08o4j0k4zei)" style="stroke:#A80036;stroke-width:2.0;"/><text fill="#000000" font-family="sans-serif" font-size="14" lengthAdjust="spacing" textLength="43" x="5" y="618.1514">Client</text><ellipse cx="29.5" cy="631.4531" fill="#FEFECE" filter="url(#f1y08o4j0k4zei)" rx="8" ry="8" style="stroke:#A80036;stroke-width:2.0;"/><path d="M29.5,639.4531 L29.5,666.4531 M16.5,647.4531 L42.5,647.4531 M29.5,666.4531 L16.5,681.4531 M29.5,666.4531 L42.5,681.4531 " fill="none" filter="url(#f1y08o4j0k4zei)" style="stroke:#A80036;stroke-width:2.0;"/><rect fill="#FEFECE" filter="url(#f1y08o4j0k4zei)" height="30.2969" style="stroke:#A80036;stroke-width:1.5;" width="192" x="248.5" y="53"/><text fill="#000000" font-family="sans-serif" font-size="14" lengthAdjust="spacing" textLength="178" x="255.5" y="72.9951">:UpdateClientDataScene</text><rect fill="#FEFECE" filter="url(#f1y08o4j0k4zei)" height="30.2969" style="stroke:#A80036;stroke-width:1.5;" width="192" x="248.5" y="605.1563"/><text fill="#000000" font-family="sans-serif" font-size="14" lengthAdjust="spacing" textLength="178" x="255.5" y="625.1514">:UpdateClientDataScene</text><rect fill="#FEFECE" filter="url(#f1y08o4j0k4zei)" height="30.2969" style="stroke:#A80036;stroke-width:1.5;" width="221" x="492" y="53"/><text fill="#000000" font-family="sans-serif" font-size="14" lengthAdjust="spacing" textLength="207" x="499" y="72.9951">:UpdateClientDataController</text><rect fill="#FEFECE" filter="url(#f1y08o4j0k4zei)" height="30.2969" style="stroke:#A80036;stroke-width:1.5;" width="221" x="492" y="605.1563"/><text fill="#000000" font-family="sans-serif" font-size="14" lengthAdjust="spacing" textLength="207" x="499" y="625.1514">:UpdateClientDataController</text><rect fill="#FEFECE" filter="url(#f1y08o4j0k4zei)" height="30.2969" style="stroke:#A80036;stroke-width:1.5;" width="87" x="728" y="53"/><text fill="#000000" font-family="sans-serif" font-size="14" lengthAdjust="spacing" textLength="73" x="735" y="72.9951">:Company</text><rect fill="#FEFECE" filter="url(#f1y08o4j0k4zei)" height="30.2969" style="stroke:#A80036;stroke-width:1.5;" width="87" x="728" y="605.1563"/><text fill="#000000" font-family="sans-serif" font-size="14" lengthAdjust="spacing" textLength="73" x="735" y="625.1514">:Company</text><rect fill="#FEFECE" filter="url(#f1y08o4j0k4zei)" height="46.5938" style="stroke:#A80036;stroke-width:1.5;" width="83" x="829" y="36.7031"/><text fill="#000000" font-family="sans-serif" font-size="14" lengthAdjust="spacing" textLength="39" x="851" y="56.6982">cList:</text><text fill="#000000" font-family="sans-serif" font-size="14" lengthAdjust="spacing" textLength="69" x="836" y="72.9951">ClientList</text><rect fill="#FEFECE" filter="url(#f1y08o4j0k4zei)" height="46.5938" style="stroke:#A80036;stroke-width:1.5;" width="83" x="829" y="605.1563"/><text fill="#000000" font-family="sans-serif" font-size="14" lengthAdjust="spacing" textLength="39" x="851" y="625.1514">cList:</text><text fill="#000000" font-family="sans-serif" font-size="14" lengthAdjust="spacing" textLength="69" x="836" y="641.4482">ClientList</text><rect fill="#FEFECE" filter="url(#f1y08o4j0k4zei)" height="46.5938" style="stroke:#A80036;stroke-width:1.5;" width="57" x="977" y="36.7031"/><text fill="#000000" font-family="sans-serif" font-size="14" lengthAdjust="spacing" textLength="13" x="999" y="56.6982">c:</text><text fill="#000000" font-family="sans-serif" font-size="14" lengthAdjust="spacing" textLength="43" x="984" y="72.9951">Client</text><rect fill="#FEFECE" filter="url(#f1y08o4j0k4zei)" height="46.5938" style="stroke:#A80036;stroke-width:1.5;" width="57" x="977" y="605.1563"/><text fill="#000000" font-family="sans-serif" font-size="14" lengthAdjust="spacing" textLength="13" x="999" y="625.1514">c:</text><text fill="#000000" font-family="sans-serif" font-size="14" lengthAdjust="spacing" textLength="43" x="984" y="641.4482">Client</text><rect fill="#FEFECE" filter="url(#f1y08o4j0k4zei)" height="46.5938" style="stroke:#A80036;stroke-width:1.5;" width="193" x="1048" y="36.7031"/><text fill="#000000" font-family="sans-serif" font-size="14" lengthAdjust="spacing" textLength="30" x="1131.5" y="56.6982">ens:</text><text fill="#000000" font-family="sans-serif" font-size="14" lengthAdjust="spacing" textLength="175" x="1059" y="72.9951">EmailNotificationSender</text><rect fill="#FEFECE" filter="url(#f1y08o4j0k4zei)" height="46.5938" style="stroke:#A80036;stroke-width:1.5;" width="193" x="1048" y="605.1563"/><text fill="#000000" font-family="sans-serif" font-size="14" lengthAdjust="spacing" textLength="30" x="1131.5" y="625.1514">ens:</text><text fill="#000000" font-family="sans-serif" font-size="14" lengthAdjust="spacing" textLength="175" x="1059" y="641.4482">EmailNotificationSender</text><rect fill="#FFFFFF" filter="url(#f1y08o4j0k4zei)" height="489.8594" style="stroke:#A80036;stroke-width:1.0;" width="10" x="24.5" y="98.2969"/><rect fill="#FFFFFF" filter="url(#f1y08o4j0k4zei)" height="176.5313" style="stroke:#A80036;stroke-width:1.0;" width="10" x="341.5" y="119.4297"/><rect fill="#FFFFFF" filter="url(#f1y08o4j0k4zei)" height="233.9297" style="stroke:#A80036;stroke-width:1.0;" width="10" x="341.5" y="325.0938"/><rect fill="#FFFFFF" filter="url(#f1y08o4j0k4zei)" height="118.2656" style="stroke:#A80036;stroke-width:1.0;" width="10" x="599.5" y="148.5625"/><rect fill="#FFFFFF" filter="url(#f1y08o4j0k4zei)" height="175.6641" style="stroke:#A80036;stroke-width:1.0;" width="10" x="599.5" y="354.2266"/><rect fill="#FFFFFF" filter="url(#f1y08o4j0k4zei)" height="30" style="stroke:#A80036;stroke-width:1.0;" width="10" x="768.5" y="177.6953"/><rect fill="#FFFFFF" filter="url(#f1y08o4j0k4zei)" height="30" style="stroke:#A80036;stroke-width:1.0;" width="10" x="867.5" y="236.8281"/><rect fill="#FFFFFF" filter="url(#f1y08o4j0k4zei)" height="30" style="stroke:#A80036;stroke-width:1.0;" width="10" x="867.5" y="499.8906"/><rect fill="#FFFFFF" filter="url(#f1y08o4j0k4zei)" height="175.6641" style="stroke:#A80036;stroke-width:1.0;" width="10" x="1002.5" y="354.2266"/><rect fill="#FFFFFF" filter="url(#f1y08o4j0k4zei)" height="29.1328" style="stroke:#A80036;stroke-width:1.0;" width="10" x="1141.5" y="559.0234"/><polygon fill="#A80036" points="329.5,115.4297,339.5,119.4297,329.5,123.4297,333.5,119.4297" style="stroke:#A80036;stroke-width:1.0;"/><line style="stroke:#A80036;stroke-width:1.0;" x1="34.5" x2="335.5" y1="119.4297" y2="119.4297"/><text fill="#000000" font-family="sans-serif" font-size="13" font-weight="bold" lengthAdjust="spacing" textLength="9" x="41.5" y="114.3638">1</text><text fill="#000000" font-family="sans-serif" font-size="13" lengthAdjust="spacing" textLength="144" x="54.5" y="114.3638">Update Personal Data.</text><polygon fill="#A80036" points="587.5,144.5625,597.5,148.5625,587.5,152.5625,591.5,148.5625" style="stroke:#A80036;stroke-width:1.0;"/><line style="stroke:#A80036;stroke-width:1.0;" x1="351.5" x2="593.5" y1="148.5625" y2="148.5625"/><text fill="#000000" font-family="sans-serif" font-size="13" font-weight="bold" lengthAdjust="spacing" textLength="9" x="358.5" y="143.4966">2</text><text fill="#000000" font-family="sans-serif" font-size="13" lengthAdjust="spacing" textLength="68" x="371.5" y="143.4966">loadData()</text><polygon fill="#A80036" points="756.5,173.6953,766.5,177.6953,756.5,181.6953,760.5,177.6953" style="stroke:#A80036;stroke-width:1.0;"/><line style="stroke:#A80036;stroke-width:1.0;" x1="609.5" x2="762.5" y1="177.6953" y2="177.6953"/><text fill="#000000" font-family="sans-serif" font-size="13" font-weight="bold" lengthAdjust="spacing" textLength="8" x="616.5" y="172.6294">3</text><text fill="#000000" font-family="sans-serif" font-size="13" lengthAdjust="spacing" textLength="128" x="628.5" y="172.6294">cList=getClientList()</text><polygon fill="#A80036" points="855.5,232.8281,865.5,236.8281,855.5,240.8281,859.5,236.8281" style="stroke:#A80036;stroke-width:1.0;"/><line style="stroke:#A80036;stroke-width:1.0;" x1="609.5" x2="861.5" y1="236.8281" y2="236.8281"/><text fill="#000000" font-family="sans-serif" font-size="13" font-weight="bold" lengthAdjust="spacing" textLength="9" x="616.5" y="231.7622">4</text><text fill="#000000" font-family="sans-serif" font-size="13" lengthAdjust="spacing" textLength="181" x="629.5" y="231.7622">cl = getClientByEmail(email)</text><polygon fill="#A80036" points="45.5,291.9609,35.5,295.9609,45.5,299.9609,41.5,295.9609" style="stroke:#A80036;stroke-width:1.0;"/><line style="stroke:#A80036;stroke-width:1.0;stroke-dasharray:2.0,2.0;" x1="39.5" x2="345.5" y1="295.9609" y2="295.9609"/><text fill="#000000" font-family="sans-serif" font-size="13" font-weight="bold" lengthAdjust="spacing" textLength="9" x="51.5" y="290.895">5</text><text fill="#000000" font-family="sans-serif" font-size="13" lengthAdjust="spacing" textLength="270" x="64.5" y="290.895">shows client data with spaces to update it</text><polygon fill="#A80036" points="329.5,321.0938,339.5,325.0938,329.5,329.0938,333.5,325.0938" style="stroke:#A80036;stroke-width:1.0;"/><line style="stroke:#A80036;stroke-width:1.0;" x1="34.5" x2="335.5" y1="325.0938" y2="325.0938"/><text fill="#000000" font-family="sans-serif" font-size="13" font-weight="bold" lengthAdjust="spacing" textLength="9" x="41.5" y="320.0278">6</text><text fill="#000000" font-family="sans-serif" font-size="13" lengthAdjust="spacing" textLength="89" x="54.5" y="320.0278">updates data.</text><polygon fill="#A80036" points="587.5,350.2266,597.5,354.2266,587.5,358.2266,591.5,354.2266" style="stroke:#A80036;stroke-width:1.0;"/><line style="stroke:#A80036;stroke-width:1.0;" x1="351.5" x2="593.5" y1="354.2266" y2="354.2266"/><text fill="#000000" font-family="sans-serif" font-size="13" font-weight="bold" lengthAdjust="spacing" textLength="9" x="358.5" y="349.1606">7</text><text fill="#000000" font-family="sans-serif" font-size="13" lengthAdjust="spacing" textLength="216" x="371.5" y="349.1606">setData(name , pn, address, sex)</text><polygon fill="#A80036" points="990.5,379.3594,1000.5,383.3594,990.5,387.3594,994.5,383.3594" style="stroke:#A80036;stroke-width:1.0;"/><line style="stroke:#A80036;stroke-width:1.0;" x1="609.5" x2="996.5" y1="383.3594" y2="383.3594"/><text fill="#000000" font-family="sans-serif" font-size="13" font-weight="bold" lengthAdjust="spacing" textLength="9" x="616.5" y="378.2935">8</text><text fill="#000000" font-family="sans-serif" font-size="13" lengthAdjust="spacing" textLength="119" x="629.5" y="378.2935">cl.setName(name)</text><polygon fill="#A80036" points="990.5,408.4922,1000.5,412.4922,990.5,416.4922,994.5,412.4922" style="stroke:#A80036;stroke-width:1.0;"/><line style="stroke:#A80036;stroke-width:1.0;" x1="609.5" x2="996.5" y1="412.4922" y2="412.4922"/><text fill="#000000" font-family="sans-serif" font-size="13" font-weight="bold" lengthAdjust="spacing" textLength="9" x="616.5" y="407.4263">9</text><text fill="#000000" font-family="sans-serif" font-size="13" lengthAdjust="spacing" textLength="151" x="629.5" y="407.4263">cl.setPhoneNumber(pn)</text><polygon fill="#A80036" points="990.5,437.625,1000.5,441.625,990.5,445.625,994.5,441.625" style="stroke:#A80036;stroke-width:1.0;"/><line style="stroke:#A80036;stroke-width:1.0;" x1="609.5" x2="996.5" y1="441.625" y2="441.625"/><text fill="#000000" font-family="sans-serif" font-size="13" font-weight="bold" lengthAdjust="spacing" textLength="19" x="616.5" y="436.5591">10</text><text fill="#000000" font-family="sans-serif" font-size="13" lengthAdjust="spacing" textLength="135" x="639.5" y="436.5591">cl.setAdress (adress)</text><polygon fill="#A80036" points="990.5,466.7578,1000.5,470.7578,990.5,474.7578,994.5,470.7578" style="stroke:#A80036;stroke-width:1.0;"/><line style="stroke:#A80036;stroke-width:1.0;" x1="609.5" x2="996.5" y1="470.7578" y2="470.7578"/><text fill="#000000" font-family="sans-serif" font-size="13" font-weight="bold" lengthAdjust="spacing" textLength="18" x="616.5" y="465.6919">11</text><text fill="#000000" font-family="sans-serif" font-size="13" lengthAdjust="spacing" textLength="95" x="638.5" y="465.6919">cl.setSex (sex)</text><polygon fill="#A80036" points="888.5,495.8906,878.5,499.8906,888.5,503.8906,884.5,499.8906" style="stroke:#A80036;stroke-width:1.0;"/><line style="stroke:#A80036;stroke-width:1.0;" x1="882.5" x2="1001.5" y1="499.8906" y2="499.8906"/><text fill="#000000" font-family="sans-serif" font-size="13" font-weight="bold" lengthAdjust="spacing" textLength="18" x="894.5" y="494.8247">12</text><text fill="#000000" font-family="sans-serif" font-size="13" lengthAdjust="spacing" textLength="84" x="916.5" y="494.8247">saveClient(c)</text><polygon fill="#A80036" points="45.5,555.0234,35.5,559.0234,45.5,563.0234,41.5,559.0234" style="stroke:#A80036;stroke-width:1.0;"/><line style="stroke:#A80036;stroke-width:1.0;" x1="39.5" x2="345.5" y1="559.0234" y2="559.0234"/><text fill="#000000" font-family="sans-serif" font-size="13" font-weight="bold" lengthAdjust="spacing" textLength="17" x="51.5" y="553.9575">13</text><text fill="#000000" font-family="sans-serif" font-size="13" lengthAdjust="spacing" textLength="176" x="72.5" y="553.9575">Informs operations success</text><polygon fill="#A80036" points="40.5,584.1563,30.5,588.1563,40.5,592.1563,36.5,588.1563" style="stroke:#A80036;stroke-width:1.0;"/><line style="stroke:#A80036;stroke-width:1.0;" x1="34.5" x2="1145.5" y1="588.1563" y2="588.1563"/><text fill="#000000" font-family="sans-serif" font-size="13" font-weight="bold" lengthAdjust="spacing" textLength="18" x="46.5" y="583.0903">14</text><text fill="#000000" font-family="sans-serif" font-size="13" lengthAdjust="spacing" textLength="351" x="68.5" y="583.0903">Sends an email informating that data as been updated</text><!--MD5=[0f92467349fb0b197a92d91a74ad8982]
@startuml
autonumber
actor "Client" as CLT

participant ":UpdateClientDataScene" as UI1
participant ":UpdateClientDataController" as CTRL
participant ":Company" as CMP
participant "cList:\nClientList" as cList
participant "c:\nClient" as c
participant " ens:\n EmailNotificationSender" as ens

activate CLT
CLT -> UI1 : Update Personal Data.
activate UI1
UI1 -> CTRL : loadData()
activate CTRL
CTRL -> CMP : cList=getClientList()
activate CMP
deactivate CMP
CTRL -> cList : cl = getClientByEmail(email)
activate cList
deactivate cList
deactivate CTRL
UI1 - -> CLT : shows client data with spaces to update it
deactivate UI1

CLT -> UI1 : updates data.
activate UI1
UI1 -> CTRL : setData(name , pn, address, sex)
activate CTRL
activate c
CTRL -> c : cl.setName(name)
CTRL -> c : cl.setPhoneNumber(pn)
CTRL -> c : cl.setAdress (adress)
CTRL -> c : cl.setSex (sex)

c -> cList : saveClient(c)
activate cList
deactivate cList
deactivate c
deactivate CTRL
UI1 -> CLT : Informs operations success
deactivate UI1
activate ens
ens -> CLT : Sends an email informating that data as been updated
deactivate ens

deactivate CLT
@enduml

PlantUML version 1.2021.7(Sun May 23 12:40:07 UTC 2021)
(GPL source distribution)
Java Runtime: Java(TM) SE Runtime Environment
JVM: Java HotSpot(TM) 64-Bit Server VM
Default Encoding: UTF-8
Language: en
Country: US
--></g></svg>