<?xml version="1.0" encoding="UTF-8" standalone="no"?>
<svg xmlns="http://www.w3.org/2000/svg" xmlns:xlink="http://www.w3.org/1999/xlink" contentScriptType="application/ecmascript" contentStyleType="text/css" height="176px" preserveAspectRatio="none" style="width:304px;height:176px;background:#FFFFFF;" version="1.1" viewBox="0 0 304 176" width="304px" zoomAndPan="magnify"><defs><filter height="300%" id="fhks4ydvk2qjs" width="300%" x="-1" y="-1"><feGaussianBlur result="blurOut" stdDeviation="2.0"/><feColorMatrix in="blurOut" result="blurOut2" type="matrix" values="0 0 0 0 0 0 0 0 0 0 0 0 0 0 0 0 0 0 .4 0"/><feOffset dx="4.0" dy="4.0" in="blurOut2" result="blurOut3"/><feBlend in="SourceGraphic" in2="blurOut3" mode="normal"/></filter></defs><g><!--MD5=[02e4b9b7573f1156f41e60aa5b4e25a4]
class Company--><rect codeLine="5" fill="#FEFECE" filter="url(#fhks4ydvk2qjs)" height="52.8047" id="Company" style="stroke:#A80036;stroke-width:1.5;" width="88" x="7" y="58"/><ellipse cx="22" cy="74" fill="#ADD1B2" rx="11" ry="11" style="stroke:#A80036;stroke-width:1.0;"/><path d="M24.3438,69.6719 C23.4063,69.2344 22.8125,69.0938 21.9375,69.0938 C19.3125,69.0938 17.3125,71.1719 17.3125,73.8906 L17.3125,75.0156 C17.3125,77.5938 19.4219,79.4844 22.3125,79.4844 C23.5313,79.4844 24.6875,79.1875 25.4375,78.6406 C26.0156,78.2344 26.3438,77.7813 26.3438,77.3906 C26.3438,76.9375 25.9531,76.5469 25.4844,76.5469 C25.2656,76.5469 25.0625,76.625 24.875,76.8125 C24.4219,77.2969 24.4219,77.2969 24.2344,77.3906 C23.8125,77.6563 23.125,77.7813 22.3594,77.7813 C20.3125,77.7813 19.0156,76.6875 19.0156,74.9844 L19.0156,73.8906 C19.0156,72.1094 20.2656,70.7969 22,70.7969 C22.5781,70.7969 23.1875,70.9531 23.6563,71.2031 C24.1406,71.4844 24.3125,71.7031 24.4063,72.1094 C24.4688,72.5156 24.5,72.6406 24.6406,72.7656 C24.7813,72.9063 25.0156,73.0156 25.2344,73.0156 C25.5,73.0156 25.7656,72.875 25.9375,72.6563 C26.0469,72.5 26.0781,72.3125 26.0781,71.8906 L26.0781,70.4688 C26.0781,70.0313 26.0625,69.9063 25.9688,69.75 C25.8125,69.4844 25.5313,69.3438 25.2344,69.3438 C24.9375,69.3438 24.7344,69.4375 24.5156,69.75 L24.3438,69.6719 Z " fill="#000000"/><text fill="#000000" font-family="sans-serif" font-size="12" lengthAdjust="spacing" textLength="56" x="36" y="78.1543">Company</text><line style="stroke:#A80036;stroke-width:1.5;" x1="8" x2="94" y1="90" y2="90"/><text fill="#000000" font-family="sans-serif" font-size="11" lengthAdjust="spacing" textLength="70" x="13" y="104.2104">-designation</text><!--MD5=[ed6624c6556d5e7b1bd23032162d20b7]
class Client--><rect codeLine="9" fill="#FEFECE" filter="url(#fhks4ydvk2qjs)" height="155.2422" id="Client" style="stroke:#A80036;stroke-width:1.5;" width="97" x="193" y="7"/><ellipse cx="222.4" cy="23" fill="#ADD1B2" rx="11" ry="11" style="stroke:#A80036;stroke-width:1.0;"/><path d="M224.7438,18.6719 C223.8063,18.2344 223.2125,18.0938 222.3375,18.0938 C219.7125,18.0938 217.7125,20.1719 217.7125,22.8906 L217.7125,24.0156 C217.7125,26.5938 219.8219,28.4844 222.7125,28.4844 C223.9313,28.4844 225.0875,28.1875 225.8375,27.6406 C226.4156,27.2344 226.7438,26.7813 226.7438,26.3906 C226.7438,25.9375 226.3531,25.5469 225.8844,25.5469 C225.6656,25.5469 225.4625,25.625 225.275,25.8125 C224.8219,26.2969 224.8219,26.2969 224.6344,26.3906 C224.2125,26.6563 223.525,26.7813 222.7594,26.7813 C220.7125,26.7813 219.4156,25.6875 219.4156,23.9844 L219.4156,22.8906 C219.4156,21.1094 220.6656,19.7969 222.4,19.7969 C222.9781,19.7969 223.5875,19.9531 224.0563,20.2031 C224.5406,20.4844 224.7125,20.7031 224.8063,21.1094 C224.8688,21.5156 224.9,21.6406 225.0406,21.7656 C225.1813,21.9063 225.4156,22.0156 225.6344,22.0156 C225.9,22.0156 226.1656,21.875 226.3375,21.6563 C226.4469,21.5 226.4781,21.3125 226.4781,20.8906 L226.4781,19.4688 C226.4781,19.0313 226.4625,18.9063 226.3688,18.75 C226.2125,18.4844 225.9313,18.3438 225.6344,18.3438 C225.3375,18.3438 225.1344,18.4375 224.9156,18.75 L224.7438,18.6719 Z " fill="#000000"/><text fill="#000000" font-family="sans-serif" font-size="12" lengthAdjust="spacing" textLength="33" x="239.6" y="27.1543">Client</text><line style="stroke:#A80036;stroke-width:1.5;" x1="194" x2="289" y1="39" y2="39"/><text fill="#000000" font-family="sans-serif" font-size="11" lengthAdjust="spacing" textLength="37" x="199" y="53.2104">-name</text><text fill="#000000" font-family="sans-serif" font-size="11" lengthAdjust="spacing" textLength="49" x="199" y="66.0151">-address</text><text fill="#000000" font-family="sans-serif" font-size="11" lengthAdjust="spacing" textLength="85" x="199" y="78.8198">-phoneNumber</text><text fill="#000000" font-family="sans-serif" font-size="11" lengthAdjust="spacing" textLength="34" x="199" y="91.6245">-eMail</text><text fill="#000000" font-family="sans-serif" font-size="11" lengthAdjust="spacing" textLength="25" x="199" y="104.4292">-sex</text><text fill="#000000" font-family="sans-serif" font-size="11" lengthAdjust="spacing" textLength="24" x="199" y="117.2339">-cnn</text><text fill="#000000" font-family="sans-serif" font-size="11" lengthAdjust="spacing" textLength="69" x="199" y="130.0386">-nhsNumber</text><text fill="#000000" font-family="sans-serif" font-size="11" lengthAdjust="spacing" textLength="57" x="199" y="142.8433">-birthDate</text><text fill="#000000" font-family="sans-serif" font-size="11" lengthAdjust="spacing" textLength="18" x="199" y="155.6479">-tin</text><!--MD5=[6eee883fdf517d3604e8bd0f2058e9aa]
link Company to Client--><path codeLine="21" d="M95.2457,84.5 C124.376,84.5 162.808,84.5 192.823,84.5 " fill="none" id="Company-Client" style="stroke:#A80036;stroke-width:1.0;"/><polygon fill="#000000" points="135,76.0664,125.9549,73.1275,125.9549,79.0053,135,76.0664" style="stroke:#000000;stroke-width:1.0;"/><text fill="#000000" font-family="sans-serif" font-size="13" lengthAdjust="spacing" textLength="23" x="139" y="80.5669">has</text><text fill="#000000" font-family="sans-serif" font-size="13" lengthAdjust="spacing" textLength="8" x="102.9349" y="97.7884">1</text><text fill="#000000" font-family="sans-serif" font-size="13" lengthAdjust="spacing" textLength="23" x="162.1128" y="97.5208">1..*</text><!--MD5=[c6d307c280fde25295def4765d27d69b]
@startuml
skinparam classAttributeIconSize 0
hide methods
left to right direction

class Company {
  -designation
}

class Client {  
  -name
  -address
  -phoneNumber
  -eMail
  -sex
  -cnn
  -nhsNumber
  -birthDate
  -tin
}

Company "1" - - "1..*" Client : has >
@enduml

PlantUML version 1.2021.7(Sun May 23 12:40:07 UTC 2021)
(GPL source distribution)
Java Runtime: Java(TM) SE Runtime Environment
JVM: Java HotSpot(TM) 64-Bit Server VM
Default Encoding: UTF-8
Language: en
Country: US
--></g></svg>