<?xml version="1.0" encoding="UTF-8" standalone="no"?>
<svg xmlns="http://www.w3.org/2000/svg" xmlns:xlink="http://www.w3.org/1999/xlink" contentScriptType="application/ecmascript" contentStyleType="text/css" height="553px" preserveAspectRatio="none" style="width:216px;height:553px;background:#FFFFFF;" version="1.1" viewBox="0 0 216 553" width="216px" zoomAndPan="magnify"><defs><filter height="300%" id="f113rxmn8hrgg3" width="300%" x="-1" y="-1"><feGaussianBlur result="blurOut" stdDeviation="2.0"/><feColorMatrix in="blurOut" result="blurOut2" type="matrix" values="0 0 0 0 0 0 0 0 0 0 0 0 0 0 0 0 0 0 .4 0"/><feOffset dx="4.0" dy="4.0" in="blurOut2" result="blurOut3"/><feBlend in="SourceGraphic" in2="blurOut3" mode="normal"/></filter></defs><g><!--MD5=[02e4b9b7573f1156f41e60aa5b4e25a4]
class Company--><rect codeLine="3" fill="#FEFECE" filter="url(#f113rxmn8hrgg3)" height="60.8047" id="Company" style="stroke:#A80036;stroke-width:1.5;" width="119" x="45" y="238"/><ellipse cx="73.95" cy="254" fill="#ADD1B2" rx="11" ry="11" style="stroke:#A80036;stroke-width:1.0;"/><path d="M76.2938,249.6719 C75.3563,249.2344 74.7625,249.0938 73.8875,249.0938 C71.2625,249.0938 69.2625,251.1719 69.2625,253.8906 L69.2625,255.0156 C69.2625,257.5938 71.3719,259.4844 74.2625,259.4844 C75.4813,259.4844 76.6375,259.1875 77.3875,258.6406 C77.9656,258.2344 78.2938,257.7813 78.2938,257.3906 C78.2938,256.9375 77.9031,256.5469 77.4344,256.5469 C77.2156,256.5469 77.0125,256.625 76.825,256.8125 C76.3719,257.2969 76.3719,257.2969 76.1844,257.3906 C75.7625,257.6563 75.075,257.7813 74.3094,257.7813 C72.2625,257.7813 70.9656,256.6875 70.9656,254.9844 L70.9656,253.8906 C70.9656,252.1094 72.2156,250.7969 73.95,250.7969 C74.5281,250.7969 75.1375,250.9531 75.6063,251.2031 C76.0906,251.4844 76.2625,251.7031 76.3563,252.1094 C76.4188,252.5156 76.45,252.6406 76.5906,252.7656 C76.7313,252.9063 76.9656,253.0156 77.1844,253.0156 C77.45,253.0156 77.7156,252.875 77.8875,252.6563 C77.9969,252.5 78.0281,252.3125 78.0281,251.8906 L78.0281,250.4688 C78.0281,250.0313 78.0125,249.9063 77.9188,249.75 C77.7625,249.4844 77.4813,249.3438 77.1844,249.3438 C76.8875,249.3438 76.6844,249.4375 76.4656,249.75 L76.2938,249.6719 Z " fill="#000000"/><text fill="#000000" font-family="sans-serif" font-size="12" lengthAdjust="spacing" textLength="56" x="91.05" y="258.1543">Company</text><line style="stroke:#A80036;stroke-width:1.5;" x1="46" x2="163" y1="270" y2="270"/><text fill="#000000" font-family="sans-serif" font-size="11" lengthAdjust="spacing" textLength="107" x="51" y="284.2104">-String designation</text><line style="stroke:#A80036;stroke-width:1.5;" x1="46" x2="163" y1="290.8047" y2="290.8047"/><!--MD5=[ed6624c6556d5e7b1bd23032162d20b7]
class Client--><rect codeLine="8" fill="#FEFECE" filter="url(#f113rxmn8hrgg3)" height="163.2422" id="Client" style="stroke:#A80036;stroke-width:1.5;" width="134" x="37.5" y="376"/><ellipse cx="83.75" cy="392" fill="#ADD1B2" rx="11" ry="11" style="stroke:#A80036;stroke-width:1.0;"/><path d="M86.0938,387.6719 C85.1563,387.2344 84.5625,387.0938 83.6875,387.0938 C81.0625,387.0938 79.0625,389.1719 79.0625,391.8906 L79.0625,393.0156 C79.0625,395.5938 81.1719,397.4844 84.0625,397.4844 C85.2813,397.4844 86.4375,397.1875 87.1875,396.6406 C87.7656,396.2344 88.0938,395.7813 88.0938,395.3906 C88.0938,394.9375 87.7031,394.5469 87.2344,394.5469 C87.0156,394.5469 86.8125,394.625 86.625,394.8125 C86.1719,395.2969 86.1719,395.2969 85.9844,395.3906 C85.5625,395.6563 84.875,395.7813 84.1094,395.7813 C82.0625,395.7813 80.7656,394.6875 80.7656,392.9844 L80.7656,391.8906 C80.7656,390.1094 82.0156,388.7969 83.75,388.7969 C84.3281,388.7969 84.9375,388.9531 85.4063,389.2031 C85.8906,389.4844 86.0625,389.7031 86.1563,390.1094 C86.2188,390.5156 86.25,390.6406 86.3906,390.7656 C86.5313,390.9063 86.7656,391.0156 86.9844,391.0156 C87.25,391.0156 87.5156,390.875 87.6875,390.6563 C87.7969,390.5 87.8281,390.3125 87.8281,389.8906 L87.8281,388.4688 C87.8281,388.0313 87.8125,387.9063 87.7188,387.75 C87.5625,387.4844 87.2813,387.3438 86.9844,387.3438 C86.6875,387.3438 86.4844,387.4375 86.2656,387.75 L86.0938,387.6719 Z " fill="#000000"/><text fill="#000000" font-family="sans-serif" font-size="12" lengthAdjust="spacing" textLength="33" x="104.25" y="396.1543">Client</text><line style="stroke:#A80036;stroke-width:1.5;" x1="38.5" x2="170.5" y1="408" y2="408"/><text fill="#000000" font-family="sans-serif" font-size="11" lengthAdjust="spacing" textLength="74" x="43.5" y="422.2104">-String name</text><text fill="#000000" font-family="sans-serif" font-size="11" lengthAdjust="spacing" textLength="86" x="43.5" y="435.0151">-String address</text><text fill="#000000" font-family="sans-serif" font-size="11" lengthAdjust="spacing" textLength="122" x="43.5" y="447.8198">-String phoneNumber</text><text fill="#000000" font-family="sans-serif" font-size="11" lengthAdjust="spacing" textLength="71" x="43.5" y="460.6245">-String eMail</text><text fill="#000000" font-family="sans-serif" font-size="11" lengthAdjust="spacing" textLength="62" x="43.5" y="473.4292">-String sex</text><text fill="#000000" font-family="sans-serif" font-size="11" lengthAdjust="spacing" textLength="61" x="43.5" y="486.2339">-String cnn</text><text fill="#000000" font-family="sans-serif" font-size="11" lengthAdjust="spacing" textLength="106" x="43.5" y="499.0386">-String nhsNumber</text><text fill="#000000" font-family="sans-serif" font-size="11" lengthAdjust="spacing" textLength="94" x="43.5" y="511.8433">-String birthDate</text><text fill="#000000" font-family="sans-serif" font-size="11" lengthAdjust="spacing" textLength="55" x="43.5" y="524.6479">-String tin</text><line style="stroke:#A80036;stroke-width:1.5;" x1="38.5" x2="170.5" y1="531.2422" y2="531.2422"/><!--MD5=[e36a2c212d7d2d48ac79e8136dd7cfaa]
class UpdateClientDataController--><rect codeLine="20" fill="#FEFECE" filter="url(#f113rxmn8hrgg3)" height="60.8047" id="UpdateClientDataController" style="stroke:#A80036;stroke-width:1.5;" width="195" x="7" y="116"/><ellipse cx="22" cy="132" fill="#ADD1B2" rx="11" ry="11" style="stroke:#A80036;stroke-width:1.0;"/><path d="M24.3438,127.6719 C23.4063,127.2344 22.8125,127.0938 21.9375,127.0938 C19.3125,127.0938 17.3125,129.1719 17.3125,131.8906 L17.3125,133.0156 C17.3125,135.5938 19.4219,137.4844 22.3125,137.4844 C23.5313,137.4844 24.6875,137.1875 25.4375,136.6406 C26.0156,136.2344 26.3438,135.7813 26.3438,135.3906 C26.3438,134.9375 25.9531,134.5469 25.4844,134.5469 C25.2656,134.5469 25.0625,134.625 24.875,134.8125 C24.4219,135.2969 24.4219,135.2969 24.2344,135.3906 C23.8125,135.6563 23.125,135.7813 22.3594,135.7813 C20.3125,135.7813 19.0156,134.6875 19.0156,132.9844 L19.0156,131.8906 C19.0156,130.1094 20.2656,128.7969 22,128.7969 C22.5781,128.7969 23.1875,128.9531 23.6563,129.2031 C24.1406,129.4844 24.3125,129.7031 24.4063,130.1094 C24.4688,130.5156 24.5,130.6406 24.6406,130.7656 C24.7813,130.9063 25.0156,131.0156 25.2344,131.0156 C25.5,131.0156 25.7656,130.875 25.9375,130.6563 C26.0469,130.5 26.0781,130.3125 26.0781,129.8906 L26.0781,128.4688 C26.0781,128.0313 26.0625,127.9063 25.9688,127.75 C25.8125,127.4844 25.5313,127.3438 25.2344,127.3438 C24.9375,127.3438 24.7344,127.4375 24.5156,127.75 L24.3438,127.6719 Z " fill="#000000"/><text fill="#000000" font-family="sans-serif" font-size="12" lengthAdjust="spacing" textLength="163" x="36" y="136.1543">UpdateClientDataController</text><line style="stroke:#A80036;stroke-width:1.5;" x1="8" x2="201" y1="148" y2="148"/><line style="stroke:#A80036;stroke-width:1.5;" x1="8" x2="201" y1="156" y2="156"/><text fill="#000000" font-family="sans-serif" font-size="11" lengthAdjust="spacing" textLength="78" x="13" y="170.2104">+updateInfo()</text><!--MD5=[f8334c0facb9b967f12ecd6256b90dde]
class UpdateClientDataScene--><rect codeLine="24" fill="#FEFECE" filter="url(#f113rxmn8hrgg3)" height="48" id="UpdateClientDataScene" style="stroke:#A80036;stroke-width:1.5;" width="174" x="17.5" y="7"/><ellipse cx="32.5" cy="23" fill="#ADD1B2" rx="11" ry="11" style="stroke:#A80036;stroke-width:1.0;"/><path d="M34.8438,18.6719 C33.9063,18.2344 33.3125,18.0938 32.4375,18.0938 C29.8125,18.0938 27.8125,20.1719 27.8125,22.8906 L27.8125,24.0156 C27.8125,26.5938 29.9219,28.4844 32.8125,28.4844 C34.0313,28.4844 35.1875,28.1875 35.9375,27.6406 C36.5156,27.2344 36.8438,26.7813 36.8438,26.3906 C36.8438,25.9375 36.4531,25.5469 35.9844,25.5469 C35.7656,25.5469 35.5625,25.625 35.375,25.8125 C34.9219,26.2969 34.9219,26.2969 34.7344,26.3906 C34.3125,26.6563 33.625,26.7813 32.8594,26.7813 C30.8125,26.7813 29.5156,25.6875 29.5156,23.9844 L29.5156,22.8906 C29.5156,21.1094 30.7656,19.7969 32.5,19.7969 C33.0781,19.7969 33.6875,19.9531 34.1563,20.2031 C34.6406,20.4844 34.8125,20.7031 34.9063,21.1094 C34.9688,21.5156 35,21.6406 35.1406,21.7656 C35.2813,21.9063 35.5156,22.0156 35.7344,22.0156 C36,22.0156 36.2656,21.875 36.4375,21.6563 C36.5469,21.5 36.5781,21.3125 36.5781,20.8906 L36.5781,19.4688 C36.5781,19.0313 36.5625,18.9063 36.4688,18.75 C36.3125,18.4844 36.0313,18.3438 35.7344,18.3438 C35.4375,18.3438 35.2344,18.4375 35.0156,18.75 L34.8438,18.6719 Z " fill="#000000"/><text fill="#000000" font-family="sans-serif" font-size="12" lengthAdjust="spacing" textLength="142" x="46.5" y="27.1543">UpdateClientDataScene</text><line style="stroke:#A80036;stroke-width:1.5;" x1="18.5" x2="190.5" y1="39" y2="39"/><line style="stroke:#A80036;stroke-width:1.5;" x1="18.5" x2="190.5" y1="47" y2="47"/><!--MD5=[7dc450e5d859101ac615cbd65655991e]
link UpdateClientDataScene to UpdateClientDataController--><path codeLine="27" d="M104.5,55.242 C104.5,71.112 104.5,92.427 104.5,110.359 " fill="none" id="UpdateClientDataScene-to-UpdateClientDataController" style="stroke:#A80036;stroke-width:1.0;stroke-dasharray:7.0,7.0;"/><polygon fill="#A80036" points="104.5,115.805,108.5,106.805,104.5,110.805,100.5,106.805,104.5,115.805" style="stroke:#A80036;stroke-width:1.0;"/><!--MD5=[cf8c151e5875d79d17ae5fa254c6e19b]
link UpdateClientDataController to Company--><path codeLine="28" d="M104.5,177.163 C104.5,193.894 104.5,214.896 104.5,232.438 " fill="none" id="UpdateClientDataController-to-Company" style="stroke:#A80036;stroke-width:1.0;stroke-dasharray:7.0,7.0;"/><polygon fill="#A80036" points="104.5,237.762,108.5,228.762,104.5,232.762,100.5,228.762,104.5,237.762" style="stroke:#A80036;stroke-width:1.0;"/><!--MD5=[6eee883fdf517d3604e8bd0f2058e9aa]
link Company to Client--><path codeLine="29" d="M104.5,299.131 C104.5,318.537 104.5,344.975 104.5,370.64 " fill="none" id="Company-to-Client" style="stroke:#A80036;stroke-width:1.0;"/><polygon fill="#A80036" points="104.5,375.761,108.5,366.761,104.5,370.761,100.5,366.761,104.5,375.761" style="stroke:#A80036;stroke-width:1.0;"/><text fill="#000000" font-family="sans-serif" font-size="13" lengthAdjust="spacing" textLength="23" x="105.5" y="342.0669">has</text><text fill="#000000" font-family="sans-serif" font-size="13" lengthAdjust="spacing" textLength="8" x="95.675" y="319.0963">1</text><text fill="#000000" font-family="sans-serif" font-size="13" lengthAdjust="spacing" textLength="23" x="80.4758" y="364.8752">1..*</text><!--MD5=[51026cd6fb8e8986a4912b87ce30e4fd]
@startuml
skinparam classAttributeIconSize 0

class Company
{
  -String designation
}

class Client {  
  -String name
  -String address
  -String phoneNumber
  -String eMail
  -String sex
  -String cnn
  -String nhsNumber
  -String birthDate
  -String tin
}

class UpdateClientDataController {
  +updateInfo()
}

class UpdateClientDataScene {
}

UpdateClientDataScene ..> UpdateClientDataController 
UpdateClientDataController ..> Company
Company "1" - -> "1..*" Client: has
@enduml

PlantUML version 1.2021.7(Sun May 23 12:40:07 UTC 2021)
(GPL source distribution)
Java Runtime: Java(TM) SE Runtime Environment
JVM: Java HotSpot(TM) 64-Bit Server VM
Default Encoding: UTF-8
Language: en
Country: US
--></g></svg>