<?xml version="1.0" encoding="UTF-8" standalone="no"?><svg xmlns="http://www.w3.org/2000/svg" xmlns:xlink="http://www.w3.org/1999/xlink" contentScriptType="application/ecmascript" contentStyleType="text/css" height="1747px" preserveAspectRatio="none" style="width:1066px;height:1747px;" version="1.1" viewBox="0 0 1066 1747" width="1066px" zoomAndPan="magnify"><defs><filter height="300%" id="f1ttuql37044sf" width="300%" x="-1" y="-1"><feGaussianBlur result="blurOut" stdDeviation="2.0"/><feColorMatrix in="blurOut" result="blurOut2" type="matrix" values="0 0 0 0 0 0 0 0 0 0 0 0 0 0 0 0 0 0 .4 0"/><feOffset dx="4.0" dy="4.0" in="blurOut2" result="blurOut3"/><feBlend in="SourceGraphic" in2="blurOut3" mode="normal"/></filter></defs><g><!--MD5=[02e4b9b7573f1156f41e60aa5b4e25a4]
class Company--><rect codeLine="1" fill="#FEFECE" filter="url(#f1ttuql37044sf)" height="60.8047" id="Company" style="stroke:#A80036;stroke-width:1.5;" width="88" x="81" y="1198.5"/><ellipse cx="96" cy="1214.5" fill="#ADD1B2" rx="11" ry="11" style="stroke:#A80036;stroke-width:1.0;"/><path d="M98.3438,1210.1719 C97.4063,1209.7344 96.8125,1209.5938 95.9375,1209.5938 C93.3125,1209.5938 91.3125,1211.6719 91.3125,1214.3906 L91.3125,1215.5156 C91.3125,1218.0938 93.4219,1219.9844 96.3125,1219.9844 C97.5313,1219.9844 98.6875,1219.6875 99.4375,1219.1406 C100.0156,1218.7344 100.3438,1218.2813 100.3438,1217.8906 C100.3438,1217.4375 99.9531,1217.0469 99.4844,1217.0469 C99.2656,1217.0469 99.0625,1217.125 98.875,1217.3125 C98.4219,1217.7969 98.4219,1217.7969 98.2344,1217.8906 C97.8125,1218.1563 97.125,1218.2813 96.3594,1218.2813 C94.3125,1218.2813 93.0156,1217.1875 93.0156,1215.4844 L93.0156,1214.3906 C93.0156,1212.6094 94.2656,1211.2969 96,1211.2969 C96.5781,1211.2969 97.1875,1211.4531 97.6563,1211.7031 C98.1406,1211.9844 98.3125,1212.2031 98.4063,1212.6094 C98.4688,1213.0156 98.5,1213.1406 98.6406,1213.2656 C98.7813,1213.4063 99.0156,1213.5156 99.2344,1213.5156 C99.5,1213.5156 99.7656,1213.375 99.9375,1213.1563 C100.0469,1213 100.0781,1212.8125 100.0781,1212.3906 L100.0781,1210.9688 C100.0781,1210.5313 100.0625,1210.4063 99.9688,1210.25 C99.8125,1209.9844 99.5313,1209.8438 99.2344,1209.8438 C98.9375,1209.8438 98.7344,1209.9375 98.5156,1210.25 L98.3438,1210.1719 Z " fill="#000000"/><text fill="#000000" font-family="sans-serif" font-size="12" lengthAdjust="spacing" textLength="56" x="110" y="1218.6543">Company</text><line style="stroke:#A80036;stroke-width:1.5;" x1="82" x2="168" y1="1230.5" y2="1230.5"/><text fill="#000000" font-family="sans-serif" font-size="11" lengthAdjust="spacing" textLength="70" x="87" y="1244.7104">-designation</text><line style="stroke:#A80036;stroke-width:1.5;" x1="82" x2="168" y1="1251.3047" y2="1251.3047"/><!--MD5=[6a75aabe243bf57969b899a1c4169ff1]
class ClinicalAnalysisLaboratories--><rect codeLine="4" fill="#FEFECE" filter="url(#f1ttuql37044sf)" height="112.0234" id="ClinicalAnalysisLaboratories" style="stroke:#A80036;stroke-width:1.5;" width="198" x="148" y="965"/><ellipse cx="163" cy="981" fill="#ADD1B2" rx="11" ry="11" style="stroke:#A80036;stroke-width:1.0;"/><path d="M165.3438,976.6719 C164.4063,976.2344 163.8125,976.0938 162.9375,976.0938 C160.3125,976.0938 158.3125,978.1719 158.3125,980.8906 L158.3125,982.0156 C158.3125,984.5938 160.4219,986.4844 163.3125,986.4844 C164.5313,986.4844 165.6875,986.1875 166.4375,985.6406 C167.0156,985.2344 167.3438,984.7813 167.3438,984.3906 C167.3438,983.9375 166.9531,983.5469 166.4844,983.5469 C166.2656,983.5469 166.0625,983.625 165.875,983.8125 C165.4219,984.2969 165.4219,984.2969 165.2344,984.3906 C164.8125,984.6563 164.125,984.7813 163.3594,984.7813 C161.3125,984.7813 160.0156,983.6875 160.0156,981.9844 L160.0156,980.8906 C160.0156,979.1094 161.2656,977.7969 163,977.7969 C163.5781,977.7969 164.1875,977.9531 164.6563,978.2031 C165.1406,978.4844 165.3125,978.7031 165.4063,979.1094 C165.4688,979.5156 165.5,979.6406 165.6406,979.7656 C165.7813,979.9063 166.0156,980.0156 166.2344,980.0156 C166.5,980.0156 166.7656,979.875 166.9375,979.6563 C167.0469,979.5 167.0781,979.3125 167.0781,978.8906 L167.0781,977.4688 C167.0781,977.0313 167.0625,976.9063 166.9688,976.75 C166.8125,976.4844 166.5313,976.3438 166.2344,976.3438 C165.9375,976.3438 165.7344,976.4375 165.5156,976.75 L165.3438,976.6719 Z " fill="#000000"/><text fill="#000000" font-family="sans-serif" font-size="12" lengthAdjust="spacing" textLength="166" x="177" y="985.1543">ClinicalAnalysisLaboratories</text><line style="stroke:#A80036;stroke-width:1.5;" x1="149" x2="345" y1="997" y2="997"/><text fill="#000000" font-family="sans-serif" font-size="11" lengthAdjust="spacing" textLength="73" x="154" y="1011.2104">-laboratoryID</text><text fill="#000000" font-family="sans-serif" font-size="11" lengthAdjust="spacing" textLength="49" x="154" y="1024.0151">-address</text><text fill="#000000" font-family="sans-serif" font-size="11" lengthAdjust="spacing" textLength="37" x="154" y="1036.8198">-name</text><text fill="#000000" font-family="sans-serif" font-size="11" lengthAdjust="spacing" textLength="85" x="154" y="1049.6245">-phoneNumber</text><text fill="#000000" font-family="sans-serif" font-size="11" lengthAdjust="spacing" textLength="63" x="154" y="1062.4292">-tinNumber</text><line style="stroke:#A80036;stroke-width:1.5;" x1="149" x2="345" y1="1069.0234" y2="1069.0234"/><!--MD5=[a64badb107d3691f2dc6af242cdbeb21]
class ChemicalLaboratory--><rect codeLine="12" fill="#FEFECE" filter="url(#f1ttuql37044sf)" height="99.2188" id="ChemicalLaboratory" style="stroke:#A80036;stroke-width:1.5;" width="151" x="139.5" y="423"/><ellipse cx="154.5" cy="439" fill="#ADD1B2" rx="11" ry="11" style="stroke:#A80036;stroke-width:1.0;"/><path d="M156.8438,434.6719 C155.9063,434.2344 155.3125,434.0938 154.4375,434.0938 C151.8125,434.0938 149.8125,436.1719 149.8125,438.8906 L149.8125,440.0156 C149.8125,442.5938 151.9219,444.4844 154.8125,444.4844 C156.0313,444.4844 157.1875,444.1875 157.9375,443.6406 C158.5156,443.2344 158.8438,442.7813 158.8438,442.3906 C158.8438,441.9375 158.4531,441.5469 157.9844,441.5469 C157.7656,441.5469 157.5625,441.625 157.375,441.8125 C156.9219,442.2969 156.9219,442.2969 156.7344,442.3906 C156.3125,442.6563 155.625,442.7813 154.8594,442.7813 C152.8125,442.7813 151.5156,441.6875 151.5156,439.9844 L151.5156,438.8906 C151.5156,437.1094 152.7656,435.7969 154.5,435.7969 C155.0781,435.7969 155.6875,435.9531 156.1563,436.2031 C156.6406,436.4844 156.8125,436.7031 156.9063,437.1094 C156.9688,437.5156 157,437.6406 157.1406,437.7656 C157.2813,437.9063 157.5156,438.0156 157.7344,438.0156 C158,438.0156 158.2656,437.875 158.4375,437.6563 C158.5469,437.5 158.5781,437.3125 158.5781,436.8906 L158.5781,435.4688 C158.5781,435.0313 158.5625,434.9063 158.4688,434.75 C158.3125,434.4844 158.0313,434.3438 157.7344,434.3438 C157.4375,434.3438 157.2344,434.4375 157.0156,434.75 L156.8438,434.6719 Z " fill="#000000"/><text fill="#000000" font-family="sans-serif" font-size="12" lengthAdjust="spacing" textLength="119" x="168.5" y="443.1543">ChemicalLaboratory</text><line style="stroke:#A80036;stroke-width:1.5;" x1="140.5" x2="289.5" y1="455" y2="455"/><text fill="#000000" font-family="sans-serif" font-size="11" lengthAdjust="spacing" textLength="49" x="145.5" y="469.2104">-address</text><text fill="#000000" font-family="sans-serif" font-size="11" lengthAdjust="spacing" textLength="37" x="145.5" y="482.0151">-name</text><text fill="#000000" font-family="sans-serif" font-size="11" lengthAdjust="spacing" textLength="85" x="145.5" y="494.8198">-phoneNumber</text><text fill="#000000" font-family="sans-serif" font-size="11" lengthAdjust="spacing" textLength="63" x="145.5" y="507.6245">-tinNumber</text><line style="stroke:#A80036;stroke-width:1.5;" x1="140.5" x2="289.5" y1="514.2188" y2="514.2188"/><!--MD5=[ed6624c6556d5e7b1bd23032162d20b7]
class Client--><rect codeLine="18" fill="#FEFECE" filter="url(#f1ttuql37044sf)" height="150.4375" id="Client" style="stroke:#A80036;stroke-width:1.5;" width="97" x="633.5" y="1154"/><ellipse cx="662.9" cy="1170" fill="#ADD1B2" rx="11" ry="11" style="stroke:#A80036;stroke-width:1.0;"/><path d="M665.2438,1165.6719 C664.3063,1165.2344 663.7125,1165.0938 662.8375,1165.0938 C660.2125,1165.0938 658.2125,1167.1719 658.2125,1169.8906 L658.2125,1171.0156 C658.2125,1173.5938 660.3219,1175.4844 663.2125,1175.4844 C664.4313,1175.4844 665.5875,1175.1875 666.3375,1174.6406 C666.9156,1174.2344 667.2438,1173.7813 667.2438,1173.3906 C667.2438,1172.9375 666.8531,1172.5469 666.3844,1172.5469 C666.1656,1172.5469 665.9625,1172.625 665.775,1172.8125 C665.3219,1173.2969 665.3219,1173.2969 665.1344,1173.3906 C664.7125,1173.6563 664.025,1173.7813 663.2594,1173.7813 C661.2125,1173.7813 659.9156,1172.6875 659.9156,1170.9844 L659.9156,1169.8906 C659.9156,1168.1094 661.1656,1166.7969 662.9,1166.7969 C663.4781,1166.7969 664.0875,1166.9531 664.5563,1167.2031 C665.0406,1167.4844 665.2125,1167.7031 665.3063,1168.1094 C665.3688,1168.5156 665.4,1168.6406 665.5406,1168.7656 C665.6813,1168.9063 665.9156,1169.0156 666.1344,1169.0156 C666.4,1169.0156 666.6656,1168.875 666.8375,1168.6563 C666.9469,1168.5 666.9781,1168.3125 666.9781,1167.8906 L666.9781,1166.4688 C666.9781,1166.0313 666.9625,1165.9063 666.8688,1165.75 C666.7125,1165.4844 666.4313,1165.3438 666.1344,1165.3438 C665.8375,1165.3438 665.6344,1165.4375 665.4156,1165.75 L665.2438,1165.6719 Z " fill="#000000"/><text fill="#000000" font-family="sans-serif" font-size="12" lengthAdjust="spacing" textLength="33" x="680.1" y="1174.1543">Client</text><line style="stroke:#A80036;stroke-width:1.5;" x1="634.5" x2="729.5" y1="1186" y2="1186"/><text fill="#000000" font-family="sans-serif" font-size="11" lengthAdjust="spacing" textLength="23" x="639.5" y="1200.2104">-ccn</text><text fill="#000000" font-family="sans-serif" font-size="11" lengthAdjust="spacing" textLength="37" x="639.5" y="1213.0151">-name</text><text fill="#000000" font-family="sans-serif" font-size="11" lengthAdjust="spacing" textLength="69" x="639.5" y="1225.8198">-nhsNumber</text><text fill="#000000" font-family="sans-serif" font-size="11" lengthAdjust="spacing" textLength="57" x="639.5" y="1238.6245">-birthDate</text><text fill="#000000" font-family="sans-serif" font-size="11" lengthAdjust="spacing" textLength="25" x="639.5" y="1251.4292">-sex</text><text fill="#000000" font-family="sans-serif" font-size="11" lengthAdjust="spacing" textLength="15" x="639.5" y="1264.2339">-tif</text><text fill="#000000" font-family="sans-serif" font-size="11" lengthAdjust="spacing" textLength="85" x="639.5" y="1277.0386">-phoneNumber</text><text fill="#000000" font-family="sans-serif" font-size="11" lengthAdjust="spacing" textLength="34" x="639.5" y="1289.8433">-eMail</text><line style="stroke:#A80036;stroke-width:1.5;" x1="634.5" x2="729.5" y1="1296.4375" y2="1296.4375"/><!--MD5=[03960189e81aa2c066c762ffabbee709]
class Receptionist--><rect codeLine="28" fill="#FEFECE" filter="url(#f1ttuql37044sf)" height="137.6328" id="Receptionist" style="stroke:#A80036;stroke-width:1.5;" width="236" x="308" y="1381"/><ellipse cx="384.75" cy="1397" fill="#ADD1B2" rx="11" ry="11" style="stroke:#A80036;stroke-width:1.0;"/><path d="M387.0938,1392.6719 C386.1563,1392.2344 385.5625,1392.0938 384.6875,1392.0938 C382.0625,1392.0938 380.0625,1394.1719 380.0625,1396.8906 L380.0625,1398.0156 C380.0625,1400.5938 382.1719,1402.4844 385.0625,1402.4844 C386.2813,1402.4844 387.4375,1402.1875 388.1875,1401.6406 C388.7656,1401.2344 389.0938,1400.7813 389.0938,1400.3906 C389.0938,1399.9375 388.7031,1399.5469 388.2344,1399.5469 C388.0156,1399.5469 387.8125,1399.625 387.625,1399.8125 C387.1719,1400.2969 387.1719,1400.2969 386.9844,1400.3906 C386.5625,1400.6563 385.875,1400.7813 385.1094,1400.7813 C383.0625,1400.7813 381.7656,1399.6875 381.7656,1397.9844 L381.7656,1396.8906 C381.7656,1395.1094 383.0156,1393.7969 384.75,1393.7969 C385.3281,1393.7969 385.9375,1393.9531 386.4063,1394.2031 C386.8906,1394.4844 387.0625,1394.7031 387.1563,1395.1094 C387.2188,1395.5156 387.25,1395.6406 387.3906,1395.7656 C387.5313,1395.9063 387.7656,1396.0156 387.9844,1396.0156 C388.25,1396.0156 388.5156,1395.875 388.6875,1395.6563 C388.7969,1395.5 388.8281,1395.3125 388.8281,1394.8906 L388.8281,1393.4688 C388.8281,1393.0313 388.8125,1392.9063 388.7188,1392.75 C388.5625,1392.4844 388.2813,1392.3438 387.9844,1392.3438 C387.6875,1392.3438 387.4844,1392.4375 387.2656,1392.75 L387.0938,1392.6719 Z " fill="#000000"/><text fill="#000000" font-family="sans-serif" font-size="12" lengthAdjust="spacing" textLength="74" x="405.25" y="1401.1543">Receptionist</text><line style="stroke:#A80036;stroke-width:1.5;" x1="309" x2="543" y1="1413" y2="1413"/><text fill="#000000" font-family="sans-serif" font-size="11" lengthAdjust="spacing" textLength="75" x="314" y="1427.2104">-employeeID</text><text fill="#000000" font-family="sans-serif" font-size="11" lengthAdjust="spacing" textLength="99" x="314" y="1440.0151">-organizationRole</text><text fill="#000000" font-family="sans-serif" font-size="11" lengthAdjust="spacing" textLength="37" x="314" y="1452.8198">-name</text><text fill="#000000" font-family="sans-serif" font-size="11" lengthAdjust="spacing" textLength="49" x="314" y="1465.6245">-address</text><text fill="#000000" font-family="sans-serif" font-size="11" lengthAdjust="spacing" textLength="85" x="314" y="1478.4292">-phoneNumber</text><text fill="#000000" font-family="sans-serif" font-size="11" lengthAdjust="spacing" textLength="34" x="314" y="1491.2339">-eMail</text><text fill="#000000" font-family="sans-serif" font-size="11" lengthAdjust="spacing" textLength="224" x="314" y="1504.0386">-standardOcupationalClassificationCode</text><line style="stroke:#A80036;stroke-width:1.5;" x1="309" x2="543" y1="1510.6328" y2="1510.6328"/><!--MD5=[9681492165142af2a4a3a169d90ee8d4]
class Sample--><rect codeLine="37" fill="#FEFECE" filter="url(#f1ttuql37044sf)" height="73.6094" id="Sample" style="stroke:#A80036;stroke-width:1.5;" width="77" x="377.5" y="814"/><ellipse cx="392.5" cy="830" fill="#ADD1B2" rx="11" ry="11" style="stroke:#A80036;stroke-width:1.0;"/><path d="M394.8438,825.6719 C393.9063,825.2344 393.3125,825.0938 392.4375,825.0938 C389.8125,825.0938 387.8125,827.1719 387.8125,829.8906 L387.8125,831.0156 C387.8125,833.5938 389.9219,835.4844 392.8125,835.4844 C394.0313,835.4844 395.1875,835.1875 395.9375,834.6406 C396.5156,834.2344 396.8438,833.7813 396.8438,833.3906 C396.8438,832.9375 396.4531,832.5469 395.9844,832.5469 C395.7656,832.5469 395.5625,832.625 395.375,832.8125 C394.9219,833.2969 394.9219,833.2969 394.7344,833.3906 C394.3125,833.6563 393.625,833.7813 392.8594,833.7813 C390.8125,833.7813 389.5156,832.6875 389.5156,830.9844 L389.5156,829.8906 C389.5156,828.1094 390.7656,826.7969 392.5,826.7969 C393.0781,826.7969 393.6875,826.9531 394.1563,827.2031 C394.6406,827.4844 394.8125,827.7031 394.9063,828.1094 C394.9688,828.5156 395,828.6406 395.1406,828.7656 C395.2813,828.9063 395.5156,829.0156 395.7344,829.0156 C396,829.0156 396.2656,828.875 396.4375,828.6563 C396.5469,828.5 396.5781,828.3125 396.5781,827.8906 L396.5781,826.4688 C396.5781,826.0313 396.5625,825.9063 396.4688,825.75 C396.3125,825.4844 396.0313,825.3438 395.7344,825.3438 C395.4375,825.3438 395.2344,825.4375 395.0156,825.75 L394.8438,825.6719 Z " fill="#000000"/><text fill="#000000" font-family="sans-serif" font-size="12" lengthAdjust="spacing" textLength="45" x="406.5" y="834.1543">Sample</text><line style="stroke:#A80036;stroke-width:1.5;" x1="378.5" x2="453.5" y1="846" y2="846"/><text fill="#000000" font-family="sans-serif" font-size="11" lengthAdjust="spacing" textLength="54" x="383.5" y="860.2104">-category</text><text fill="#000000" font-family="sans-serif" font-size="11" lengthAdjust="spacing" textLength="58" x="383.5" y="873.0151">-sampleID</text><line style="stroke:#A80036;stroke-width:1.5;" x1="378.5" x2="453.5" y1="879.6094" y2="879.6094"/><!--MD5=[da547346deef918ea16944ba046651ef]
class Administrator--><rect codeLine="41" fill="#FEFECE" filter="url(#f1ttuql37044sf)" height="137.6328" id="Administrator" style="stroke:#A80036;stroke-width:1.5;" width="236" x="7" y="1381"/><ellipse cx="80.75" cy="1397" fill="#ADD1B2" rx="11" ry="11" style="stroke:#A80036;stroke-width:1.0;"/><path d="M83.0938,1392.6719 C82.1563,1392.2344 81.5625,1392.0938 80.6875,1392.0938 C78.0625,1392.0938 76.0625,1394.1719 76.0625,1396.8906 L76.0625,1398.0156 C76.0625,1400.5938 78.1719,1402.4844 81.0625,1402.4844 C82.2813,1402.4844 83.4375,1402.1875 84.1875,1401.6406 C84.7656,1401.2344 85.0938,1400.7813 85.0938,1400.3906 C85.0938,1399.9375 84.7031,1399.5469 84.2344,1399.5469 C84.0156,1399.5469 83.8125,1399.625 83.625,1399.8125 C83.1719,1400.2969 83.1719,1400.2969 82.9844,1400.3906 C82.5625,1400.6563 81.875,1400.7813 81.1094,1400.7813 C79.0625,1400.7813 77.7656,1399.6875 77.7656,1397.9844 L77.7656,1396.8906 C77.7656,1395.1094 79.0156,1393.7969 80.75,1393.7969 C81.3281,1393.7969 81.9375,1393.9531 82.4063,1394.2031 C82.8906,1394.4844 83.0625,1394.7031 83.1563,1395.1094 C83.2188,1395.5156 83.25,1395.6406 83.3906,1395.7656 C83.5313,1395.9063 83.7656,1396.0156 83.9844,1396.0156 C84.25,1396.0156 84.5156,1395.875 84.6875,1395.6563 C84.7969,1395.5 84.8281,1395.3125 84.8281,1394.8906 L84.8281,1393.4688 C84.8281,1393.0313 84.8125,1392.9063 84.7188,1392.75 C84.5625,1392.4844 84.2813,1392.3438 83.9844,1392.3438 C83.6875,1392.3438 83.4844,1392.4375 83.2656,1392.75 L83.0938,1392.6719 Z " fill="#000000"/><text fill="#000000" font-family="sans-serif" font-size="12" lengthAdjust="spacing" textLength="80" x="101.25" y="1401.1543">Administrator</text><line style="stroke:#A80036;stroke-width:1.5;" x1="8" x2="242" y1="1413" y2="1413"/><text fill="#000000" font-family="sans-serif" font-size="11" lengthAdjust="spacing" textLength="75" x="13" y="1427.2104">-employeeID</text><text fill="#000000" font-family="sans-serif" font-size="11" lengthAdjust="spacing" textLength="99" x="13" y="1440.0151">-organizationRole</text><text fill="#000000" font-family="sans-serif" font-size="11" lengthAdjust="spacing" textLength="37" x="13" y="1452.8198">-name</text><text fill="#000000" font-family="sans-serif" font-size="11" lengthAdjust="spacing" textLength="49" x="13" y="1465.6245">-address</text><text fill="#000000" font-family="sans-serif" font-size="11" lengthAdjust="spacing" textLength="85" x="13" y="1478.4292">-phoneNumber</text><text fill="#000000" font-family="sans-serif" font-size="11" lengthAdjust="spacing" textLength="34" x="13" y="1491.2339">-eMail</text><text fill="#000000" font-family="sans-serif" font-size="11" lengthAdjust="spacing" textLength="224" x="13" y="1504.0386">-standardOcupationalClassificationCode</text><line style="stroke:#A80036;stroke-width:1.5;" x1="8" x2="242" y1="1510.6328" y2="1510.6328"/><!--MD5=[01931d41e78f8996acd44f6f0fd8de28]
class MedicalLabTechnician--><rect codeLine="50" fill="#FEFECE" filter="url(#f1ttuql37044sf)" height="137.6328" id="MedicalLabTechnician" style="stroke:#A80036;stroke-width:1.5;" width="236" x="362" y="1160"/><ellipse cx="410.75" cy="1176" fill="#ADD1B2" rx="11" ry="11" style="stroke:#A80036;stroke-width:1.0;"/><path d="M413.0938,1171.6719 C412.1563,1171.2344 411.5625,1171.0938 410.6875,1171.0938 C408.0625,1171.0938 406.0625,1173.1719 406.0625,1175.8906 L406.0625,1177.0156 C406.0625,1179.5938 408.1719,1181.4844 411.0625,1181.4844 C412.2813,1181.4844 413.4375,1181.1875 414.1875,1180.6406 C414.7656,1180.2344 415.0938,1179.7813 415.0938,1179.3906 C415.0938,1178.9375 414.7031,1178.5469 414.2344,1178.5469 C414.0156,1178.5469 413.8125,1178.625 413.625,1178.8125 C413.1719,1179.2969 413.1719,1179.2969 412.9844,1179.3906 C412.5625,1179.6563 411.875,1179.7813 411.1094,1179.7813 C409.0625,1179.7813 407.7656,1178.6875 407.7656,1176.9844 L407.7656,1175.8906 C407.7656,1174.1094 409.0156,1172.7969 410.75,1172.7969 C411.3281,1172.7969 411.9375,1172.9531 412.4063,1173.2031 C412.8906,1173.4844 413.0625,1173.7031 413.1563,1174.1094 C413.2188,1174.5156 413.25,1174.6406 413.3906,1174.7656 C413.5313,1174.9063 413.7656,1175.0156 413.9844,1175.0156 C414.25,1175.0156 414.5156,1174.875 414.6875,1174.6563 C414.7969,1174.5 414.8281,1174.3125 414.8281,1173.8906 L414.8281,1172.4688 C414.8281,1172.0313 414.8125,1171.9063 414.7188,1171.75 C414.5625,1171.4844 414.2813,1171.3438 413.9844,1171.3438 C413.6875,1171.3438 413.4844,1171.4375 413.2656,1171.75 L413.0938,1171.6719 Z " fill="#000000"/><text fill="#000000" font-family="sans-serif" font-size="12" lengthAdjust="spacing" textLength="130" x="431.25" y="1180.1543">MedicalLabTechnician</text><line style="stroke:#A80036;stroke-width:1.5;" x1="363" x2="597" y1="1192" y2="1192"/><text fill="#000000" font-family="sans-serif" font-size="11" lengthAdjust="spacing" textLength="75" x="368" y="1206.2104">-employeeID</text><text fill="#000000" font-family="sans-serif" font-size="11" lengthAdjust="spacing" textLength="99" x="368" y="1219.0151">-organizationRole</text><text fill="#000000" font-family="sans-serif" font-size="11" lengthAdjust="spacing" textLength="37" x="368" y="1231.8198">-name</text><text fill="#000000" font-family="sans-serif" font-size="11" lengthAdjust="spacing" textLength="49" x="368" y="1244.6245">-address</text><text fill="#000000" font-family="sans-serif" font-size="11" lengthAdjust="spacing" textLength="85" x="368" y="1257.4292">-phoneNumber</text><text fill="#000000" font-family="sans-serif" font-size="11" lengthAdjust="spacing" textLength="34" x="368" y="1270.2339">-eMail</text><text fill="#000000" font-family="sans-serif" font-size="11" lengthAdjust="spacing" textLength="224" x="368" y="1283.0386">-standardOcupationalClassificationCode</text><line style="stroke:#A80036;stroke-width:1.5;" x1="363" x2="597" y1="1289.6328" y2="1289.6328"/><!--MD5=[371a79cf93e6b0f3b7c16edd206e96ed]
class ClinicalChemistTechnologist--><rect codeLine="59" fill="#FEFECE" filter="url(#f1ttuql37044sf)" height="137.6328" id="ClinicalChemistTechnologist" style="stroke:#A80036;stroke-width:1.5;" width="236" x="322" y="599"/><ellipse cx="354.1" cy="615" fill="#ADD1B2" rx="11" ry="11" style="stroke:#A80036;stroke-width:1.0;"/><path d="M356.4438,610.6719 C355.5063,610.2344 354.9125,610.0938 354.0375,610.0938 C351.4125,610.0938 349.4125,612.1719 349.4125,614.8906 L349.4125,616.0156 C349.4125,618.5938 351.5219,620.4844 354.4125,620.4844 C355.6313,620.4844 356.7875,620.1875 357.5375,619.6406 C358.1156,619.2344 358.4438,618.7813 358.4438,618.3906 C358.4438,617.9375 358.0531,617.5469 357.5844,617.5469 C357.3656,617.5469 357.1625,617.625 356.975,617.8125 C356.5219,618.2969 356.5219,618.2969 356.3344,618.3906 C355.9125,618.6563 355.225,618.7813 354.4594,618.7813 C352.4125,618.7813 351.1156,617.6875 351.1156,615.9844 L351.1156,614.8906 C351.1156,613.1094 352.3656,611.7969 354.1,611.7969 C354.6781,611.7969 355.2875,611.9531 355.7563,612.2031 C356.2406,612.4844 356.4125,612.7031 356.5063,613.1094 C356.5688,613.5156 356.6,613.6406 356.7406,613.7656 C356.8813,613.9063 357.1156,614.0156 357.3344,614.0156 C357.6,614.0156 357.8656,613.875 358.0375,613.6563 C358.1469,613.5 358.1781,613.3125 358.1781,612.8906 L358.1781,611.4688 C358.1781,611.0313 358.1625,610.9063 358.0688,610.75 C357.9125,610.4844 357.6313,610.3438 357.3344,610.3438 C357.0375,610.3438 356.8344,610.4375 356.6156,610.75 L356.4438,610.6719 Z " fill="#000000"/><text fill="#000000" font-family="sans-serif" font-size="12" lengthAdjust="spacing" textLength="166" x="371.9" y="619.1543">ClinicalChemistTechnologist</text><line style="stroke:#A80036;stroke-width:1.5;" x1="323" x2="557" y1="631" y2="631"/><text fill="#000000" font-family="sans-serif" font-size="11" lengthAdjust="spacing" textLength="75" x="328" y="645.2104">-employeeID</text><text fill="#000000" font-family="sans-serif" font-size="11" lengthAdjust="spacing" textLength="99" x="328" y="658.0151">-organizationRole</text><text fill="#000000" font-family="sans-serif" font-size="11" lengthAdjust="spacing" textLength="37" x="328" y="670.8198">-name</text><text fill="#000000" font-family="sans-serif" font-size="11" lengthAdjust="spacing" textLength="49" x="328" y="683.6245">-address</text><text fill="#000000" font-family="sans-serif" font-size="11" lengthAdjust="spacing" textLength="85" x="328" y="696.4292">-phoneNumber</text><text fill="#000000" font-family="sans-serif" font-size="11" lengthAdjust="spacing" textLength="34" x="328" y="709.2339">-eMail</text><text fill="#000000" font-family="sans-serif" font-size="11" lengthAdjust="spacing" textLength="224" x="328" y="722.0386">-standardOcupationalClassificationCode</text><line style="stroke:#A80036;stroke-width:1.5;" x1="323" x2="557" y1="728.6328" y2="728.6328"/><!--MD5=[7d96fd15f3014691d2fcaf89c5791e2a]
class SpecialistDoctor--><rect codeLine="68" fill="#FEFECE" filter="url(#f1ttuql37044sf)" height="137.6328" id="SpecialistDoctor" style="stroke:#A80036;stroke-width:1.5;" width="236" x="730" y="1596"/><ellipse cx="794.25" cy="1612" fill="#ADD1B2" rx="11" ry="11" style="stroke:#A80036;stroke-width:1.0;"/><path d="M796.5938,1607.6719 C795.6563,1607.2344 795.0625,1607.0938 794.1875,1607.0938 C791.5625,1607.0938 789.5625,1609.1719 789.5625,1611.8906 L789.5625,1613.0156 C789.5625,1615.5938 791.6719,1617.4844 794.5625,1617.4844 C795.7813,1617.4844 796.9375,1617.1875 797.6875,1616.6406 C798.2656,1616.2344 798.5938,1615.7813 798.5938,1615.3906 C798.5938,1614.9375 798.2031,1614.5469 797.7344,1614.5469 C797.5156,1614.5469 797.3125,1614.625 797.125,1614.8125 C796.6719,1615.2969 796.6719,1615.2969 796.4844,1615.3906 C796.0625,1615.6563 795.375,1615.7813 794.6094,1615.7813 C792.5625,1615.7813 791.2656,1614.6875 791.2656,1612.9844 L791.2656,1611.8906 C791.2656,1610.1094 792.5156,1608.7969 794.25,1608.7969 C794.8281,1608.7969 795.4375,1608.9531 795.9063,1609.2031 C796.3906,1609.4844 796.5625,1609.7031 796.6563,1610.1094 C796.7188,1610.5156 796.75,1610.6406 796.8906,1610.7656 C797.0313,1610.9063 797.2656,1611.0156 797.4844,1611.0156 C797.75,1611.0156 798.0156,1610.875 798.1875,1610.6563 C798.2969,1610.5 798.3281,1610.3125 798.3281,1609.8906 L798.3281,1608.4688 C798.3281,1608.0313 798.3125,1607.9063 798.2188,1607.75 C798.0625,1607.4844 797.7813,1607.3438 797.4844,1607.3438 C797.1875,1607.3438 796.9844,1607.4375 796.7656,1607.75 L796.5938,1607.6719 Z " fill="#000000"/><text fill="#000000" font-family="sans-serif" font-size="12" lengthAdjust="spacing" textLength="99" x="814.75" y="1616.1543">SpecialistDoctor</text><line style="stroke:#A80036;stroke-width:1.5;" x1="731" x2="965" y1="1628" y2="1628"/><text fill="#000000" font-family="sans-serif" font-size="11" lengthAdjust="spacing" textLength="75" x="736" y="1642.2104">-employeeID</text><text fill="#000000" font-family="sans-serif" font-size="11" lengthAdjust="spacing" textLength="99" x="736" y="1655.0151">-organizationRole</text><text fill="#000000" font-family="sans-serif" font-size="11" lengthAdjust="spacing" textLength="37" x="736" y="1667.8198">-name</text><text fill="#000000" font-family="sans-serif" font-size="11" lengthAdjust="spacing" textLength="49" x="736" y="1680.6245">-address</text><text fill="#000000" font-family="sans-serif" font-size="11" lengthAdjust="spacing" textLength="85" x="736" y="1693.4292">-phoneNumber</text><text fill="#000000" font-family="sans-serif" font-size="11" lengthAdjust="spacing" textLength="34" x="736" y="1706.2339">-eMail</text><text fill="#000000" font-family="sans-serif" font-size="11" lengthAdjust="spacing" textLength="224" x="736" y="1719.0386">-standardOcupationalClassificationCode</text><line style="stroke:#A80036;stroke-width:1.5;" x1="731" x2="965" y1="1725.6328" y2="1725.6328"/><!--MD5=[052425de1c0eb6cc1c1b48342b0bb88f]
class LaboratoryCoordinator--><rect codeLine="77" fill="#FEFECE" filter="url(#f1ttuql37044sf)" height="137.6328" id="LaboratoryCoordinator" style="stroke:#A80036;stroke-width:1.5;" width="236" x="493" y="195.5"/><ellipse cx="538.75" cy="211.5" fill="#ADD1B2" rx="11" ry="11" style="stroke:#A80036;stroke-width:1.0;"/><path d="M541.0938,207.1719 C540.1563,206.7344 539.5625,206.5938 538.6875,206.5938 C536.0625,206.5938 534.0625,208.6719 534.0625,211.3906 L534.0625,212.5156 C534.0625,215.0938 536.1719,216.9844 539.0625,216.9844 C540.2813,216.9844 541.4375,216.6875 542.1875,216.1406 C542.7656,215.7344 543.0938,215.2813 543.0938,214.8906 C543.0938,214.4375 542.7031,214.0469 542.2344,214.0469 C542.0156,214.0469 541.8125,214.125 541.625,214.3125 C541.1719,214.7969 541.1719,214.7969 540.9844,214.8906 C540.5625,215.1563 539.875,215.2813 539.1094,215.2813 C537.0625,215.2813 535.7656,214.1875 535.7656,212.4844 L535.7656,211.3906 C535.7656,209.6094 537.0156,208.2969 538.75,208.2969 C539.3281,208.2969 539.9375,208.4531 540.4063,208.7031 C540.8906,208.9844 541.0625,209.2031 541.1563,209.6094 C541.2188,210.0156 541.25,210.1406 541.3906,210.2656 C541.5313,210.4063 541.7656,210.5156 541.9844,210.5156 C542.25,210.5156 542.5156,210.375 542.6875,210.1563 C542.7969,210 542.8281,209.8125 542.8281,209.3906 L542.8281,207.9688 C542.8281,207.5313 542.8125,207.4063 542.7188,207.25 C542.5625,206.9844 542.2813,206.8438 541.9844,206.8438 C541.6875,206.8438 541.4844,206.9375 541.2656,207.25 L541.0938,207.1719 Z " fill="#000000"/><text fill="#000000" font-family="sans-serif" font-size="12" lengthAdjust="spacing" textLength="136" x="559.25" y="215.6543">LaboratoryCoordinator</text><line style="stroke:#A80036;stroke-width:1.5;" x1="494" x2="728" y1="227.5" y2="227.5"/><text fill="#000000" font-family="sans-serif" font-size="11" lengthAdjust="spacing" textLength="75" x="499" y="241.7104">-employeeID</text><text fill="#000000" font-family="sans-serif" font-size="11" lengthAdjust="spacing" textLength="99" x="499" y="254.5151">-organizationRole</text><text fill="#000000" font-family="sans-serif" font-size="11" lengthAdjust="spacing" textLength="37" x="499" y="267.3198">-name</text><text fill="#000000" font-family="sans-serif" font-size="11" lengthAdjust="spacing" textLength="49" x="499" y="280.1245">-address</text><text fill="#000000" font-family="sans-serif" font-size="11" lengthAdjust="spacing" textLength="85" x="499" y="292.9292">-phoneNumber</text><text fill="#000000" font-family="sans-serif" font-size="11" lengthAdjust="spacing" textLength="34" x="499" y="305.7339">-eMail</text><text fill="#000000" font-family="sans-serif" font-size="11" lengthAdjust="spacing" textLength="224" x="499" y="318.5386">-standardOcupationalClassificationCode</text><line style="stroke:#A80036;stroke-width:1.5;" x1="494" x2="728" y1="325.1328" y2="325.1328"/><!--MD5=[86b2982ced9a310f9b4ad491674c42e1]
class ResultsValidation--><rect codeLine="86" fill="#FEFECE" filter="url(#f1ttuql37044sf)" height="60.8047" id="ResultsValidation" style="stroke:#A80036;stroke-width:1.5;" width="137" x="579.5" y="1419.5"/><ellipse cx="596.3" cy="1435.5" fill="#ADD1B2" rx="11" ry="11" style="stroke:#A80036;stroke-width:1.0;"/><path d="M598.6438,1431.1719 C597.7063,1430.7344 597.1125,1430.5938 596.2375,1430.5938 C593.6125,1430.5938 591.6125,1432.6719 591.6125,1435.3906 L591.6125,1436.5156 C591.6125,1439.0938 593.7219,1440.9844 596.6125,1440.9844 C597.8313,1440.9844 598.9875,1440.6875 599.7375,1440.1406 C600.3156,1439.7344 600.6438,1439.2813 600.6438,1438.8906 C600.6438,1438.4375 600.2531,1438.0469 599.7844,1438.0469 C599.5656,1438.0469 599.3625,1438.125 599.175,1438.3125 C598.7219,1438.7969 598.7219,1438.7969 598.5344,1438.8906 C598.1125,1439.1563 597.425,1439.2813 596.6594,1439.2813 C594.6125,1439.2813 593.3156,1438.1875 593.3156,1436.4844 L593.3156,1435.3906 C593.3156,1433.6094 594.5656,1432.2969 596.3,1432.2969 C596.8781,1432.2969 597.4875,1432.4531 597.9563,1432.7031 C598.4406,1432.9844 598.6125,1433.2031 598.7063,1433.6094 C598.7688,1434.0156 598.8,1434.1406 598.9406,1434.2656 C599.0813,1434.4063 599.3156,1434.5156 599.5344,1434.5156 C599.8,1434.5156 600.0656,1434.375 600.2375,1434.1563 C600.3469,1434 600.3781,1433.8125 600.3781,1433.3906 L600.3781,1431.9688 C600.3781,1431.5313 600.3625,1431.4063 600.2688,1431.25 C600.1125,1430.9844 599.8313,1430.8438 599.5344,1430.8438 C599.2375,1430.8438 599.0344,1430.9375 598.8156,1431.25 L598.6438,1431.1719 Z " fill="#000000"/><text fill="#000000" font-family="sans-serif" font-size="12" lengthAdjust="spacing" textLength="101" x="610.7" y="1439.6543">ResultsValidation</text><line style="stroke:#A80036;stroke-width:1.5;" x1="580.5" x2="715.5" y1="1451.5" y2="1451.5"/><text fill="#000000" font-family="sans-serif" font-size="11" lengthAdjust="spacing" textLength="125" x="585.5" y="1465.7104">-testReferenceValues</text><line style="stroke:#A80036;stroke-width:1.5;" x1="580.5" x2="715.5" y1="1472.3047" y2="1472.3047"/><!--MD5=[a999c1570c205a2156b04a15307bc1ff]
class LabOrder--><rect codeLine="89" fill="#FEFECE" filter="url(#f1ttuql37044sf)" height="73.6094" id="LabOrder" style="stroke:#A80036;stroke-width:1.5;" width="89" x="654.5" y="984"/><ellipse cx="669.5" cy="1000" fill="#ADD1B2" rx="11" ry="11" style="stroke:#A80036;stroke-width:1.0;"/><path d="M671.8438,995.6719 C670.9063,995.2344 670.3125,995.0938 669.4375,995.0938 C666.8125,995.0938 664.8125,997.1719 664.8125,999.8906 L664.8125,1001.0156 C664.8125,1003.5938 666.9219,1005.4844 669.8125,1005.4844 C671.0313,1005.4844 672.1875,1005.1875 672.9375,1004.6406 C673.5156,1004.2344 673.8438,1003.7813 673.8438,1003.3906 C673.8438,1002.9375 673.4531,1002.5469 672.9844,1002.5469 C672.7656,1002.5469 672.5625,1002.625 672.375,1002.8125 C671.9219,1003.2969 671.9219,1003.2969 671.7344,1003.3906 C671.3125,1003.6563 670.625,1003.7813 669.8594,1003.7813 C667.8125,1003.7813 666.5156,1002.6875 666.5156,1000.9844 L666.5156,999.8906 C666.5156,998.1094 667.7656,996.7969 669.5,996.7969 C670.0781,996.7969 670.6875,996.9531 671.1563,997.2031 C671.6406,997.4844 671.8125,997.7031 671.9063,998.1094 C671.9688,998.5156 672,998.6406 672.1406,998.7656 C672.2813,998.9063 672.5156,999.0156 672.7344,999.0156 C673,999.0156 673.2656,998.875 673.4375,998.6563 C673.5469,998.5 673.5781,998.3125 673.5781,997.8906 L673.5781,996.4688 C673.5781,996.0313 673.5625,995.9063 673.4688,995.75 C673.3125,995.4844 673.0313,995.3438 672.7344,995.3438 C672.4375,995.3438 672.2344,995.4375 672.0156,995.75 L671.8438,995.6719 Z " fill="#000000"/><text fill="#000000" font-family="sans-serif" font-size="12" lengthAdjust="spacing" textLength="57" x="683.5" y="1004.1543">LabOrder</text><line style="stroke:#A80036;stroke-width:1.5;" x1="655.5" x2="742.5" y1="1016" y2="1016"/><text fill="#000000" font-family="sans-serif" font-size="11" lengthAdjust="spacing" textLength="68" x="660.5" y="1030.2104">-typeOfTest</text><text fill="#000000" font-family="sans-serif" font-size="11" lengthAdjust="spacing" textLength="70" x="660.5" y="1043.0151">-parameters</text><line style="stroke:#A80036;stroke-width:1.5;" x1="655.5" x2="742.5" y1="1049.6094" y2="1049.6094"/><!--MD5=[f00dbe8c0302c6aec2cb26b3c659c8fc]
class Report--><rect codeLine="93" fill="#FEFECE" filter="url(#f1ttuql37044sf)" height="60.8047" id="Report" style="stroke:#A80036;stroke-width:1.5;" width="83" x="751.5" y="1419.5"/><ellipse cx="771.45" cy="1435.5" fill="#ADD1B2" rx="11" ry="11" style="stroke:#A80036;stroke-width:1.0;"/><path d="M773.7938,1431.1719 C772.8563,1430.7344 772.2625,1430.5938 771.3875,1430.5938 C768.7625,1430.5938 766.7625,1432.6719 766.7625,1435.3906 L766.7625,1436.5156 C766.7625,1439.0938 768.8719,1440.9844 771.7625,1440.9844 C772.9813,1440.9844 774.1375,1440.6875 774.8875,1440.1406 C775.4656,1439.7344 775.7938,1439.2813 775.7938,1438.8906 C775.7938,1438.4375 775.4031,1438.0469 774.9344,1438.0469 C774.7156,1438.0469 774.5125,1438.125 774.325,1438.3125 C773.8719,1438.7969 773.8719,1438.7969 773.6844,1438.8906 C773.2625,1439.1563 772.575,1439.2813 771.8094,1439.2813 C769.7625,1439.2813 768.4656,1438.1875 768.4656,1436.4844 L768.4656,1435.3906 C768.4656,1433.6094 769.7156,1432.2969 771.45,1432.2969 C772.0281,1432.2969 772.6375,1432.4531 773.1063,1432.7031 C773.5906,1432.9844 773.7625,1433.2031 773.8563,1433.6094 C773.9188,1434.0156 773.95,1434.1406 774.0906,1434.2656 C774.2313,1434.4063 774.4656,1434.5156 774.6844,1434.5156 C774.95,1434.5156 775.2156,1434.375 775.3875,1434.1563 C775.4969,1434 775.5281,1433.8125 775.5281,1433.3906 L775.5281,1431.9688 C775.5281,1431.5313 775.5125,1431.4063 775.4188,1431.25 C775.2625,1430.9844 774.9813,1430.8438 774.6844,1430.8438 C774.3875,1430.8438 774.1844,1430.9375 773.9656,1431.25 L773.7938,1431.1719 Z " fill="#000000"/><text fill="#000000" font-family="sans-serif" font-size="12" lengthAdjust="spacing" textLength="40" x="786.55" y="1439.6543">Report</text><line style="stroke:#A80036;stroke-width:1.5;" x1="752.5" x2="833.5" y1="1451.5" y2="1451.5"/><text fill="#000000" font-family="sans-serif" font-size="11" lengthAdjust="spacing" textLength="71" x="757.5" y="1465.7104">-bodyOfText</text><line style="stroke:#A80036;stroke-width:1.5;" x1="752.5" x2="833.5" y1="1472.3047" y2="1472.3047"/><!--MD5=[f7818c679476ac0017dcae1dd49d4d3d]
class TestResultList--><rect codeLine="96" fill="#FEFECE" filter="url(#f1ttuql37044sf)" height="99.2188" id="TestResultList" style="stroke:#A80036;stroke-width:1.5;" width="157" x="532.5" y="7"/><ellipse cx="566.85" cy="23" fill="#ADD1B2" rx="11" ry="11" style="stroke:#A80036;stroke-width:1.0;"/><path d="M569.1938,18.6719 C568.2563,18.2344 567.6625,18.0938 566.7875,18.0938 C564.1625,18.0938 562.1625,20.1719 562.1625,22.8906 L562.1625,24.0156 C562.1625,26.5938 564.2719,28.4844 567.1625,28.4844 C568.3813,28.4844 569.5375,28.1875 570.2875,27.6406 C570.8656,27.2344 571.1938,26.7813 571.1938,26.3906 C571.1938,25.9375 570.8031,25.5469 570.3344,25.5469 C570.1156,25.5469 569.9125,25.625 569.725,25.8125 C569.2719,26.2969 569.2719,26.2969 569.0844,26.3906 C568.6625,26.6563 567.975,26.7813 567.2094,26.7813 C565.1625,26.7813 563.8656,25.6875 563.8656,23.9844 L563.8656,22.8906 C563.8656,21.1094 565.1156,19.7969 566.85,19.7969 C567.4281,19.7969 568.0375,19.9531 568.5063,20.2031 C568.9906,20.4844 569.1625,20.7031 569.2563,21.1094 C569.3188,21.5156 569.35,21.6406 569.4906,21.7656 C569.6313,21.9063 569.8656,22.0156 570.0844,22.0156 C570.35,22.0156 570.6156,21.875 570.7875,21.6563 C570.8969,21.5 570.9281,21.3125 570.9281,20.8906 L570.9281,19.4688 C570.9281,19.0313 570.9125,18.9063 570.8188,18.75 C570.6625,18.4844 570.3813,18.3438 570.0844,18.3438 C569.7875,18.3438 569.5844,18.4375 569.3656,18.75 L569.1938,18.6719 Z " fill="#000000"/><text fill="#000000" font-family="sans-serif" font-size="12" lengthAdjust="spacing" textLength="82" x="585.15" y="27.1543">TestResultList</text><line style="stroke:#A80036;stroke-width:1.5;" x1="533.5" x2="688.5" y1="39" y2="39"/><text fill="#000000" font-family="sans-serif" font-size="11" lengthAdjust="spacing" textLength="112" x="538.5" y="53.2104">-listOfPositiveCases</text><text fill="#000000" font-family="sans-serif" font-size="11" lengthAdjust="spacing" textLength="120" x="538.5" y="66.0151">-listOfNegativeCases</text><text fill="#000000" font-family="sans-serif" font-size="11" lengthAdjust="spacing" textLength="127" x="538.5" y="78.8198">-sortingAlgorithmByTIF</text><text fill="#000000" font-family="sans-serif" font-size="11" lengthAdjust="spacing" textLength="145" x="538.5" y="91.6245">-sortingAlgorithmByName</text><line style="stroke:#A80036;stroke-width:1.5;" x1="533.5" x2="688.5" y1="98.2188" y2="98.2188"/><!--MD5=[74783ec010d186752c4ffd5c6de5633a]
class NHSReport--><rect codeLine="102" fill="#FEFECE" filter="url(#f1ttuql37044sf)" height="163.2422" id="NHSReport" style="stroke:#A80036;stroke-width:1.5;" width="175" x="764.5" y="183"/><ellipse cx="815.25" cy="199" fill="#ADD1B2" rx="11" ry="11" style="stroke:#A80036;stroke-width:1.0;"/><path d="M817.5938,194.6719 C816.6563,194.2344 816.0625,194.0938 815.1875,194.0938 C812.5625,194.0938 810.5625,196.1719 810.5625,198.8906 L810.5625,200.0156 C810.5625,202.5938 812.6719,204.4844 815.5625,204.4844 C816.7813,204.4844 817.9375,204.1875 818.6875,203.6406 C819.2656,203.2344 819.5938,202.7813 819.5938,202.3906 C819.5938,201.9375 819.2031,201.5469 818.7344,201.5469 C818.5156,201.5469 818.3125,201.625 818.125,201.8125 C817.6719,202.2969 817.6719,202.2969 817.4844,202.3906 C817.0625,202.6563 816.375,202.7813 815.6094,202.7813 C813.5625,202.7813 812.2656,201.6875 812.2656,199.9844 L812.2656,198.8906 C812.2656,197.1094 813.5156,195.7969 815.25,195.7969 C815.8281,195.7969 816.4375,195.9531 816.9063,196.2031 C817.3906,196.4844 817.5625,196.7031 817.6563,197.1094 C817.7188,197.5156 817.75,197.6406 817.8906,197.7656 C818.0313,197.9063 818.2656,198.0156 818.4844,198.0156 C818.75,198.0156 819.0156,197.875 819.1875,197.6563 C819.2969,197.5 819.3281,197.3125 819.3281,196.8906 L819.3281,195.4688 C819.3281,195.0313 819.3125,194.9063 819.2188,194.75 C819.0625,194.4844 818.7813,194.3438 818.4844,194.3438 C818.1875,194.3438 817.9844,194.4375 817.7656,194.75 L817.5938,194.6719 Z " fill="#000000"/><text fill="#000000" font-family="sans-serif" font-size="12" lengthAdjust="spacing" textLength="65" x="835.75" y="203.1543">NHSReport</text><line style="stroke:#A80036;stroke-width:1.5;" x1="765.5" x2="938.5" y1="215" y2="215"/><text fill="#000000" font-family="sans-serif" font-size="11" lengthAdjust="spacing" textLength="155" x="770.5" y="229.2104">-numberCovidTestsPositive</text><text fill="#000000" font-family="sans-serif" font-size="11" lengthAdjust="spacing" textLength="163" x="770.5" y="242.0151">-numberCovidTestsNegative</text><text fill="#000000" font-family="sans-serif" font-size="11" lengthAdjust="spacing" textLength="106" x="770.5" y="254.8198">-covidTestsPerDay</text><text fill="#000000" font-family="sans-serif" font-size="11" lengthAdjust="spacing" textLength="131" x="770.5" y="267.6245">-positiveResultsPerDay</text><text fill="#000000" font-family="sans-serif" font-size="11" lengthAdjust="spacing" textLength="116" x="770.5" y="280.4292">-covidTestsPerWeek</text><text fill="#000000" font-family="sans-serif" font-size="11" lengthAdjust="spacing" textLength="141" x="770.5" y="293.2339">-positiveResultsPerWeek</text><text fill="#000000" font-family="sans-serif" font-size="11" lengthAdjust="spacing" textLength="117" x="770.5" y="306.0386">-covidTestsPerMonth</text><text fill="#000000" font-family="sans-serif" font-size="11" lengthAdjust="spacing" textLength="143" x="770.5" y="318.8433">-positiveResultsperMonth</text><text fill="#000000" font-family="sans-serif" font-size="11" lengthAdjust="spacing" textLength="50" x="770.5" y="331.6479">-forecast</text><line style="stroke:#A80036;stroke-width:1.5;" x1="765.5" x2="938.5" y1="338.2422" y2="338.2422"/><!--MD5=[df38be88ccee13e832d6fafd6288a4ca]
class Test--><rect codeLine="113" fill="#FEFECE" filter="url(#f1ttuql37044sf)" height="60.8047" id="Test" style="stroke:#A80036;stroke-width:1.5;" width="58" x="559" y="990.5"/><ellipse cx="574" cy="1006.5" fill="#ADD1B2" rx="11" ry="11" style="stroke:#A80036;stroke-width:1.0;"/><path d="M576.3438,1002.1719 C575.4063,1001.7344 574.8125,1001.5938 573.9375,1001.5938 C571.3125,1001.5938 569.3125,1003.6719 569.3125,1006.3906 L569.3125,1007.5156 C569.3125,1010.0938 571.4219,1011.9844 574.3125,1011.9844 C575.5313,1011.9844 576.6875,1011.6875 577.4375,1011.1406 C578.0156,1010.7344 578.3438,1010.2813 578.3438,1009.8906 C578.3438,1009.4375 577.9531,1009.0469 577.4844,1009.0469 C577.2656,1009.0469 577.0625,1009.125 576.875,1009.3125 C576.4219,1009.7969 576.4219,1009.7969 576.2344,1009.8906 C575.8125,1010.1563 575.125,1010.2813 574.3594,1010.2813 C572.3125,1010.2813 571.0156,1009.1875 571.0156,1007.4844 L571.0156,1006.3906 C571.0156,1004.6094 572.2656,1003.2969 574,1003.2969 C574.5781,1003.2969 575.1875,1003.4531 575.6563,1003.7031 C576.1406,1003.9844 576.3125,1004.2031 576.4063,1004.6094 C576.4688,1005.0156 576.5,1005.1406 576.6406,1005.2656 C576.7813,1005.4063 577.0156,1005.5156 577.2344,1005.5156 C577.5,1005.5156 577.7656,1005.375 577.9375,1005.1563 C578.0469,1005 578.0781,1004.8125 578.0781,1004.3906 L578.0781,1002.9688 C578.0781,1002.5313 578.0625,1002.4063 577.9688,1002.25 C577.8125,1001.9844 577.5313,1001.8438 577.2344,1001.8438 C576.9375,1001.8438 576.7344,1001.9375 576.5156,1002.25 L576.3438,1002.1719 Z " fill="#000000"/><text fill="#000000" font-family="sans-serif" font-size="12" lengthAdjust="spacing" textLength="26" x="588" y="1010.6543">Test</text><line style="stroke:#A80036;stroke-width:1.5;" x1="560" x2="616" y1="1022.5" y2="1022.5"/><text fill="#000000" font-family="sans-serif" font-size="11" lengthAdjust="spacing" textLength="30" x="565" y="1036.7104">-date</text><line style="stroke:#A80036;stroke-width:1.5;" x1="560" x2="616" y1="1043.3047" y2="1043.3047"/><!--MD5=[f69a48f7b38bde3533dca6607cc4e94a]
class TypeOfTest--><rect codeLine="116" fill="#FEFECE" filter="url(#f1ttuql37044sf)" height="73.6094" id="TypeOfTest" style="stroke:#A80036;stroke-width:1.5;" width="139" x="518.5" y="814"/><ellipse cx="550.15" cy="830" fill="#ADD1B2" rx="11" ry="11" style="stroke:#A80036;stroke-width:1.0;"/><path d="M552.4938,825.6719 C551.5563,825.2344 550.9625,825.0938 550.0875,825.0938 C547.4625,825.0938 545.4625,827.1719 545.4625,829.8906 L545.4625,831.0156 C545.4625,833.5938 547.5719,835.4844 550.4625,835.4844 C551.6813,835.4844 552.8375,835.1875 553.5875,834.6406 C554.1656,834.2344 554.4938,833.7813 554.4938,833.3906 C554.4938,832.9375 554.1031,832.5469 553.6344,832.5469 C553.4156,832.5469 553.2125,832.625 553.025,832.8125 C552.5719,833.2969 552.5719,833.2969 552.3844,833.3906 C551.9625,833.6563 551.275,833.7813 550.5094,833.7813 C548.4625,833.7813 547.1656,832.6875 547.1656,830.9844 L547.1656,829.8906 C547.1656,828.1094 548.4156,826.7969 550.15,826.7969 C550.7281,826.7969 551.3375,826.9531 551.8063,827.2031 C552.2906,827.4844 552.4625,827.7031 552.5563,828.1094 C552.6188,828.5156 552.65,828.6406 552.7906,828.7656 C552.9313,828.9063 553.1656,829.0156 553.3844,829.0156 C553.65,829.0156 553.9156,828.875 554.0875,828.6563 C554.1969,828.5 554.2281,828.3125 554.2281,827.8906 L554.2281,826.4688 C554.2281,826.0313 554.2125,825.9063 554.1188,825.75 C553.9625,825.4844 553.6813,825.3438 553.3844,825.3438 C553.0875,825.3438 552.8844,825.4375 552.6656,825.75 L552.4938,825.6719 Z " fill="#000000"/><text fill="#000000" font-family="sans-serif" font-size="12" lengthAdjust="spacing" textLength="70" x="567.85" y="834.1543">TypeOfTest</text><line style="stroke:#A80036;stroke-width:1.5;" x1="519.5" x2="656.5" y1="846" y2="846"/><text fill="#000000" font-family="sans-serif" font-size="11" lengthAdjust="spacing" textLength="54" x="524.5" y="860.2104">-category</text><text fill="#000000" font-family="sans-serif" font-size="11" lengthAdjust="spacing" textLength="127" x="524.5" y="873.0151">-measuredParameters</text><line style="stroke:#A80036;stroke-width:1.5;" x1="519.5" x2="656.5" y1="879.6094" y2="879.6094"/><!--MD5=[5e6ae5ca2322ea7d8c17b0187d1bbc44]
class TestResults--><rect codeLine="120" fill="#FEFECE" filter="url(#f1ttuql37044sf)" height="60.8047" id="TestResults" style="stroke:#A80036;stroke-width:1.5;" width="117" x="738.5" y="442"/><ellipse cx="760.7" cy="458" fill="#ADD1B2" rx="11" ry="11" style="stroke:#A80036;stroke-width:1.0;"/><path d="M763.0438,453.6719 C762.1063,453.2344 761.5125,453.0938 760.6375,453.0938 C758.0125,453.0938 756.0125,455.1719 756.0125,457.8906 L756.0125,459.0156 C756.0125,461.5938 758.1219,463.4844 761.0125,463.4844 C762.2313,463.4844 763.3875,463.1875 764.1375,462.6406 C764.7156,462.2344 765.0438,461.7813 765.0438,461.3906 C765.0438,460.9375 764.6531,460.5469 764.1844,460.5469 C763.9656,460.5469 763.7625,460.625 763.575,460.8125 C763.1219,461.2969 763.1219,461.2969 762.9344,461.3906 C762.5125,461.6563 761.825,461.7813 761.0594,461.7813 C759.0125,461.7813 757.7156,460.6875 757.7156,458.9844 L757.7156,457.8906 C757.7156,456.1094 758.9656,454.7969 760.7,454.7969 C761.2781,454.7969 761.8875,454.9531 762.3563,455.2031 C762.8406,455.4844 763.0125,455.7031 763.1063,456.1094 C763.1688,456.5156 763.2,456.6406 763.3406,456.7656 C763.4813,456.9063 763.7156,457.0156 763.9344,457.0156 C764.2,457.0156 764.4656,456.875 764.6375,456.6563 C764.7469,456.5 764.7781,456.3125 764.7781,455.8906 L764.7781,454.4688 C764.7781,454.0313 764.7625,453.9063 764.6688,453.75 C764.5125,453.4844 764.2313,453.3438 763.9344,453.3438 C763.6375,453.3438 763.4344,453.4375 763.2156,453.75 L763.0438,453.6719 Z " fill="#000000"/><text fill="#000000" font-family="sans-serif" font-size="12" lengthAdjust="spacing" textLength="69" x="776.3" y="462.1543">TestResults</text><line style="stroke:#A80036;stroke-width:1.5;" x1="739.5" x2="854.5" y1="474" y2="474"/><text fill="#000000" font-family="sans-serif" font-size="11" lengthAdjust="spacing" textLength="105" x="744.5" y="488.2104">-parameterResults</text><line style="stroke:#A80036;stroke-width:1.5;" x1="739.5" x2="854.5" y1="494.8047" y2="494.8047"/><!--MD5=[978e6476bbbd7a7548766fd3b1b86795]
reverse link ClinicalAnalysisLaboratories to Company--><path codeLine="11" d="M211.571,1081.823 C188.897,1120.108 160.469,1168.11 142.513,1198.429 " fill="none" id="ClinicalAnalysisLaboratories-backto-Company" style="stroke:#A80036;stroke-width:1.0;"/><polygon fill="#A80036" points="214.306,1077.204,206.2784,1082.91,211.7584,1081.5063,213.1621,1086.9862,214.306,1077.204" style="stroke:#A80036;stroke-width:1.0;"/><text fill="#000000" font-family="sans-serif" font-size="13" lengthAdjust="spacing" textLength="34" x="195" y="1120.0669">owns</text><text fill="#000000" font-family="sans-serif" font-size="13" lengthAdjust="spacing" textLength="7" x="202.8949" y="1097.0415">*</text><text fill="#000000" font-family="sans-serif" font-size="13" lengthAdjust="spacing" textLength="8" x="137.469" y="1187.2038">1</text><!--MD5=[cadc0906c01d6c65e975e16d992338c9]
reverse link Sample to ClinicalAnalysisLaboratories--><path codeLine="123" d="M373.292,887.557 C362.219,897.187 350.469,907.781 340,918 C324.909,932.73 309.204,949.386 295.09,964.903 " fill="none" id="Sample-backto-ClinicalAnalysisLaboratories" style="stroke:#A80036;stroke-width:1.0;"/><polygon fill="#A80036" points="377.338,884.055,367.9157,886.9221,373.558,887.3279,373.1523,892.9701,377.338,884.055" style="stroke:#A80036;stroke-width:1.0;"/><text fill="#000000" font-family="sans-serif" font-size="13" lengthAdjust="spacing" textLength="48" x="341" y="931.0669">collects</text><text fill="#000000" font-family="sans-serif" font-size="13" lengthAdjust="spacing" textLength="7" x="362.5644" y="885.8819">*</text><text fill="#000000" font-family="sans-serif" font-size="13" lengthAdjust="spacing" textLength="8" x="292.739" y="953.8285">1</text><!--MD5=[83999087262e3f95ecaa1d42f873aabe]
reverse link Client to Receptionist--><path codeLine="124" d="M629.62,1289.786 C624.788,1294.705 619.874,1299.507 615,1304 C586.112,1330.628 552.636,1357.461 521.957,1380.68 " fill="none" id="Client-backto-Receptionist" style="stroke:#A80036;stroke-width:1.0;"/><polygon fill="#A80036" points="633.297,1286.005,624.1548,1289.6683,629.8111,1289.5895,629.89,1295.2458,633.297,1286.005" style="stroke:#A80036;stroke-width:1.0;"/><text fill="#000000" font-family="sans-serif" font-size="13" lengthAdjust="spacing" textLength="56" x="582" y="1347.0669">registers</text><text fill="#000000" font-family="sans-serif" font-size="13" lengthAdjust="spacing" textLength="7" x="618.6297" y="1290.3206">*</text><text fill="#000000" font-family="sans-serif" font-size="13" lengthAdjust="spacing" textLength="8" x="523.4401" y="1369.8506">1</text><!--MD5=[ee42d507f3e937b1221f31a32b8112fb]
reverse link ChemicalLaboratory to Company--><path codeLine="125" d="M160.31,526.11 C128.649,562.32 95,613.41 95,667 C95,667 95,667 95,1022 C95,1085.247 109.019,1158.287 117.89,1198.176 " fill="none" id="ChemicalLaboratory-backto-Company" style="stroke:#A80036;stroke-width:1.0;"/><polygon fill="#A80036" points="163.761,522.21,154.7998,526.2962,160.4463,525.9533,160.7892,531.5998,163.761,522.21" style="stroke:#A80036;stroke-width:1.0;"/><text fill="#000000" font-family="sans-serif" font-size="13" lengthAdjust="spacing" textLength="34" x="96" y="855.5669">owns</text><text fill="#000000" font-family="sans-serif" font-size="13" lengthAdjust="spacing" textLength="8" x="147.993" y="542.316">1</text><text fill="#000000" font-family="sans-serif" font-size="13" lengthAdjust="spacing" textLength="8" x="107.5986" y="1187.3724">1</text><!--MD5=[eb8806e8ccd17218cdd0339154bf9e5c]
reverse link Client to Sample--><path codeLine="126" d="M629.563,1164.895 C624.881,1160.918 620.009,1157.225 615,1154 C541.149,1106.459 480.974,1150.571 433,1077 C395.555,1019.576 401.36,935.519 408.783,888.075 " fill="none" id="Client-backto-Sample" style="stroke:#A80036;stroke-width:1.0;"/><polygon fill="#A80036" points="633.449,1168.299,629.3139,1159.3603,629.6876,1165.0048,624.0431,1165.3785,633.449,1168.299" style="stroke:#A80036;stroke-width:1.0;"/><text fill="#000000" font-family="sans-serif" font-size="13" lengthAdjust="spacing" textLength="106" x="434" y="1025.5669">is collected from</text><text fill="#000000" font-family="sans-serif" font-size="13" lengthAdjust="spacing" textLength="8" x="617.4021" y="1172.1962">1</text><text fill="#000000" font-family="sans-serif" font-size="13" lengthAdjust="spacing" textLength="8" x="398.9252" y="907.568">1</text><!--MD5=[65c5b509916ed9c0531bcd26c55dbd83]
reverse link LabOrder to Client--><path codeLine="127" d="M695.583,1063.408 C693.451,1089.239 690.645,1123.237 688.138,1153.625 " fill="none" id="LabOrder-backto-Client" style="stroke:#A80036;stroke-width:1.0;"/><polygon fill="#A80036" points="696,1058.354,691.2756,1066.9958,695.5901,1063.3372,699.2487,1067.6516,696,1058.354" style="stroke:#A80036;stroke-width:1.0;"/><text fill="#000000" font-family="sans-serif" font-size="13" lengthAdjust="spacing" textLength="39" x="693" y="1120.0669">brings</text><text fill="#000000" font-family="sans-serif" font-size="13" lengthAdjust="spacing" textLength="24" x="669.6094" y="1077.6112">1..2</text><text fill="#000000" font-family="sans-serif" font-size="13" lengthAdjust="spacing" textLength="8" x="680.3351" y="1143.0378">1</text><!--MD5=[eff94aa5a24ddcc1df337b0804773a55]
reverse link Test to MedicalLabTechnician--><path codeLine="128" d="M566.226,1056.505 C556.87,1071.776 546.034,1090.077 537,1107 C527.978,1123.9 518.852,1142.474 510.625,1159.888 " fill="none" id="Test-backto-MedicalLabTechnician" style="stroke:#A80036;stroke-width:1.0;"/><polygon fill="#A80036" points="569.078,1051.868,560.9551,1057.4374,566.458,1056.1266,567.7689,1061.6295,569.078,1051.868" style="stroke:#A80036;stroke-width:1.0;"/><text fill="#000000" font-family="sans-serif" font-size="13" lengthAdjust="spacing" textLength="58" x="538" y="1120.0669">conducts</text><text fill="#000000" font-family="sans-serif" font-size="13" lengthAdjust="spacing" textLength="7" x="557.8038" y="1071.2801">*</text><text fill="#000000" font-family="sans-serif" font-size="13" lengthAdjust="spacing" textLength="8" x="505.3707" y="1149.0801">1</text><!--MD5=[6dba24dc0f16d673b4663f61de2d8959]
reverse link Test to Client--><path codeLine="129" d="M592.536,1056.954 C595.967,1077.138 601.719,1102.67 611,1124 C617.018,1137.832 624.95,1151.763 633.327,1164.735 " fill="none" id="Test-backto-Client" style="stroke:#A80036;stroke-width:1.0;"/><polygon fill="#A80036" points="591.713,1051.943,589.2237,1061.4721,592.5229,1056.877,597.1181,1060.1762,591.713,1051.943" style="stroke:#A80036;stroke-width:1.0;"/><text fill="#000000" font-family="sans-serif" font-size="13" lengthAdjust="spacing" textLength="71" x="612" y="1120.0669">performs a</text><text fill="#000000" font-family="sans-serif" font-size="13" lengthAdjust="spacing" textLength="8" x="583.6583" y="1071.3694">1</text><text fill="#000000" font-family="sans-serif" font-size="13" lengthAdjust="spacing" textLength="8" x="617.5907" y="1151.239">1</text><!--MD5=[b38022c943dcc2196c953f0d3c4be53e]
reverse link TypeOfTest to Test--><path codeLine="130" d="M588,893.164 C588,923.295 588,963.467 588,990.456 " fill="none" id="TypeOfTest-backto-Test" style="stroke:#A80036;stroke-width:1.0;"/><polygon fill="#A80036" points="588,888.04,584,897.04,588,893.04,592,897.04,588,888.04" style="stroke:#A80036;stroke-width:1.0;"/><text fill="#000000" font-family="sans-serif" font-size="13" lengthAdjust="spacing" textLength="22" x="589" y="931.0669">is a</text><text fill="#000000" font-family="sans-serif" font-size="13" lengthAdjust="spacing" textLength="8" x="579.3125" y="907.8072">1</text><text fill="#000000" font-family="sans-serif" font-size="13" lengthAdjust="spacing" textLength="8" x="579.125" y="979.2367">1</text><!--MD5=[ca43670e89bace4a7eb33bc55e976959]
reverse link ChemicalLaboratory to Sample--><path codeLine="131" d="M204.845,527.14 C197.095,583.59 193.421,672.97 232,737 C264.501,790.945 333.586,822.752 377.242,838.245 " fill="none" id="ChemicalLaboratory-backto-Sample" style="stroke:#A80036;stroke-width:1.0;"/><polygon fill="#A80036" points="205.557,522.12,200.3362,530.4713,204.8569,527.0707,208.2574,531.5914,205.557,522.12" style="stroke:#A80036;stroke-width:1.0;"/><text fill="#000000" font-family="sans-serif" font-size="13" lengthAdjust="spacing" textLength="70" x="233" y="672.5669">are sent to</text><text fill="#000000" font-family="sans-serif" font-size="13" lengthAdjust="spacing" textLength="8" x="195.6666" y="542.2134">1</text><text fill="#000000" font-family="sans-serif" font-size="13" lengthAdjust="spacing" textLength="7" x="362.4507" y="831.6256">*</text><!--MD5=[655f63077aed01c40b57658640a9dadc]
reverse link Sample to Test--><path codeLine="132" d="M456.928,891.79 C479.157,913.421 507.111,940.655 532,965 C540.768,973.576 550.292,982.92 558.957,991.431 " fill="none" id="Sample-backto-Test" style="stroke:#A80036;stroke-width:1.0;"/><polygon fill="#A80036" points="453.129,888.094,456.7905,897.237,456.7128,891.5806,462.3691,891.5029,453.129,888.094" style="stroke:#A80036;stroke-width:1.0;"/><text fill="#000000" font-family="sans-serif" font-size="13" lengthAdjust="spacing" textLength="71" x="502" y="931.0669">produces a</text><text fill="#000000" font-family="sans-serif" font-size="13" lengthAdjust="spacing" textLength="8" x="450.616" y="907.5901">1</text><text fill="#000000" font-family="sans-serif" font-size="13" lengthAdjust="spacing" textLength="8" x="542.9028" y="979.5023">1</text><!--MD5=[cd338187eb4caa6e8a540c01e5ca8adb]
reverse link TestResults to ClinicalChemistTechnologist--><path codeLine="133" d="M737.742,505.62 C688.993,532.04 618.377,570.32 558.15,602.96 " fill="none" id="TestResults-backto-ClinicalChemistTechnologist" style="stroke:#A80036;stroke-width:1.0;"/><polygon fill="#A80036" points="742.391,503.1,732.5722,503.8686,737.9943,505.481,736.3819,510.9032,742.391,503.1" style="stroke:#A80036;stroke-width:1.0;"/><text fill="#000000" font-family="sans-serif" font-size="13" lengthAdjust="spacing" textLength="59" x="652" y="565.0669">produces</text><text fill="#000000" font-family="sans-serif" font-size="13" lengthAdjust="spacing" textLength="7" x="723.406" y="523.0589">*</text><text fill="#000000" font-family="sans-serif" font-size="13" lengthAdjust="spacing" textLength="8" x="565.9752" y="595.3958">1</text><!--MD5=[0cd951db9f1d51bb36afa2b16ff8bd1d]
reverse link Client to Report--><path codeLine="134" d="M694.59,1309.115 C698.458,1323.481 703.484,1338.014 710,1351 C711.994,1354.973 743.723,1392.038 767.36,1419.416 " fill="none" id="Client-backto-Report" style="stroke:#A80036;stroke-width:1.0;"/><polygon fill="#A80036" points="693.322,1304.252,691.7218,1313.97,694.5834,1309.0903,699.4631,1311.9518,693.322,1304.252" style="stroke:#A80036;stroke-width:1.0;"/><text fill="#000000" font-family="sans-serif" font-size="13" lengthAdjust="spacing" textLength="59" x="711" y="1347.0669">is sent to</text><text fill="#000000" font-family="sans-serif" font-size="13" lengthAdjust="spacing" textLength="8" x="686.0428" y="1324.4498">1</text><text fill="#000000" font-family="sans-serif" font-size="13" lengthAdjust="spacing" textLength="8" x="753.2468" y="1408.6619">1</text><!--MD5=[71e06e850df568e3a85eeae5483d740b]
reverse link ChemicalLaboratory to ClinicalChemistTechnologist--><path codeLine="135" d="M275.313,525.37 C301.491,547.88 332.513,574.56 360.534,598.66 " fill="none" id="ChemicalLaboratory-backto-ClinicalChemistTechnologist" style="stroke:#A80036;stroke-width:1.0;"/><polygon fill="#A80036" points="271.487,522.08,275.7114,530.9769,275.2812,525.3364,280.9216,524.9062,271.487,522.08" style="stroke:#A80036;stroke-width:1.0;"/><text fill="#000000" font-family="sans-serif" font-size="13" lengthAdjust="spacing" textLength="57" x="322" y="565.0669">is part of</text><text fill="#000000" font-family="sans-serif" font-size="13" lengthAdjust="spacing" textLength="8" x="270.868" y="542.1677">1</text><text fill="#000000" font-family="sans-serif" font-size="13" lengthAdjust="spacing" textLength="7" x="344.9781" y="587.8286">*</text><!--MD5=[e338bddaa604d724810bf423a2ed97dc]
reverse link ClinicalChemistTechnologist to Sample--><path codeLine="136" d="M430.268,742.393 C427.005,767.006 423.509,793.37 420.794,813.843 " fill="none" id="ClinicalChemistTechnologist-backto-Sample" style="stroke:#A80036;stroke-width:1.0;"/><polygon fill="#A80036" points="430.961,737.17,425.8126,745.5661,430.3037,742.1266,433.7432,746.6177,430.961,737.17" style="stroke:#A80036;stroke-width:1.0;"/><text fill="#000000" font-family="sans-serif" font-size="13" lengthAdjust="spacing" textLength="100" x="428" y="780.0669">are received by</text><text fill="#000000" font-family="sans-serif" font-size="13" lengthAdjust="spacing" textLength="8" x="421.6775" y="756.8087">1</text><text fill="#000000" font-family="sans-serif" font-size="13" lengthAdjust="spacing" textLength="7" x="414.0245" y="803.002">*</text><!--MD5=[b49e42cafe8eb2e974897e6c33ae447b]
reverse link TestResults to SpecialistDoctor--><path codeLine="137" d="M824.363,507.68 C851.162,544.68 888,606.53 888,667 C888,667 888,667 888,1451 C888,1499.913 877.685,1554.076 867.531,1595.543 " fill="none" id="TestResults-backto-SpecialistDoctor" style="stroke:#A80036;stroke-width:1.0;"/><polygon fill="#A80036" points="821.147,503.29,823.2432,512.9132,824.1036,507.3222,829.6947,508.1826,821.147,503.29" style="stroke:#A80036;stroke-width:1.0;"/><text fill="#000000" font-family="sans-serif" font-size="13" lengthAdjust="spacing" textLength="50" x="889" y="1025.5669">reviews</text><text fill="#000000" font-family="sans-serif" font-size="13" lengthAdjust="spacing" textLength="7" x="818.2119" y="522.9275">*</text><text fill="#000000" font-family="sans-serif" font-size="13" lengthAdjust="spacing" textLength="8" x="861.1326" y="1584.6995">1</text><!--MD5=[0d5ea959d23f129ef827e28702304be9]
reverse link Report to SpecialistDoctor--><path codeLine="138" d="M801.208,1485.891 C806.65,1508.725 814.044,1539.187 821,1566 C823.504,1575.652 826.218,1585.816 828.927,1595.798 " fill="none" id="Report-backto-SpecialistDoctor" style="stroke:#A80036;stroke-width:1.0;"/><polygon fill="#A80036" points="800.007,1480.846,798.1984,1490.5274,801.1641,1485.7103,805.9813,1488.676,800.007,1480.846" style="stroke:#A80036;stroke-width:1.0;"/><text fill="#000000" font-family="sans-serif" font-size="13" lengthAdjust="spacing" textLength="39" x="822" y="1562.0669">writes</text><text fill="#000000" font-family="sans-serif" font-size="13" lengthAdjust="spacing" textLength="7" x="793.6755" y="1500.2539">*</text><text fill="#000000" font-family="sans-serif" font-size="13" lengthAdjust="spacing" textLength="8" x="818.5476" y="1584.9808">1</text><!--MD5=[361f35bee47b6613c9fbe5027fb8bf9f]
reverse link Company to Administrator--><path codeLine="139" d="M125,1264.775 C125,1295.881 125,1342.369 125,1380.863 " fill="none" id="Company-backto-Administrator" style="stroke:#A80036;stroke-width:1.0;"/><polygon fill="#A80036" points="125,1259.535,121,1268.535,125,1264.535,129,1268.535,125,1259.535" style="stroke:#A80036;stroke-width:1.0;"/><text fill="#000000" font-family="sans-serif" font-size="13" lengthAdjust="spacing" textLength="57" x="126" y="1347.0669">is part of</text><text fill="#000000" font-family="sans-serif" font-size="13" lengthAdjust="spacing" textLength="8" x="116.175" y="1279.4805">1</text><text fill="#000000" font-family="sans-serif" font-size="13" lengthAdjust="spacing" textLength="8" x="116.5875" y="1370.0525">1</text><!--MD5=[34570443c17dd3b44adb3e7cf65f3a20]
reverse link ResultsValidation to SpecialistDoctor--><path codeLine="140" d="M676.56,1484.755 C696.464,1507.97 723.853,1539.306 749,1566 C758.204,1575.77 768.07,1585.91 777.879,1595.8 " fill="none" id="ResultsValidation-backto-SpecialistDoctor" style="stroke:#A80036;stroke-width:1.0;"/><polygon fill="#A80036" points="673.183,1480.81,675.9967,1490.2484,676.4344,1484.6085,682.0743,1485.0462,673.183,1480.81" style="stroke:#A80036;stroke-width:1.0;"/><text fill="#000000" font-family="sans-serif" font-size="13" lengthAdjust="spacing" textLength="59" x="750" y="1562.0669">performs</text><text fill="#000000" font-family="sans-serif" font-size="13" lengthAdjust="spacing" textLength="7" x="670.4518" y="1500.4515">*</text><text fill="#000000" font-family="sans-serif" font-size="13" lengthAdjust="spacing" textLength="8" x="762.2353" y="1584.983">1</text><!--MD5=[e20cf370ddc2b1ec2ca5c1d1877380c6]
reverse link TestResults to Report--><path codeLine="141" d="M797,508.06 C797,546.77 797,611.38 797,667 C797,667 797,667 797,1230 C797,1297.688 795.066,1377.125 793.888,1419.248 " fill="none" id="TestResults-backto-Report" style="stroke:#A80036;stroke-width:1.0;"/><polygon fill="#A80036" points="797,503,793,512,797,508,801,512,797,503" style="stroke:#A80036;stroke-width:1.0;"/><text fill="#000000" font-family="sans-serif" font-size="13" lengthAdjust="spacing" textLength="54" x="798" y="931.0669">contains</text><text fill="#000000" font-family="sans-serif" font-size="13" lengthAdjust="spacing" textLength="8" x="788.175" y="522.9382">1</text><text fill="#000000" font-family="sans-serif" font-size="13" lengthAdjust="spacing" textLength="8" x="785.2462" y="1408.4593">1</text><!--MD5=[51d0562c2a403e0525091be1411745cf]
reverse link NHSReport to TestResults--><path codeLine="142" d="M829.12,351.19 C820.492,383.51 811.24,418.17 804.892,441.94 " fill="none" id="NHSReport-backto-TestResults" style="stroke:#A80036;stroke-width:1.0;"/><polygon fill="#A80036" points="830.499,346.03,824.3185,353.6982,829.2128,350.8617,832.0493,355.7561,830.499,346.03" style="stroke:#A80036;stroke-width:1.0;"/><text fill="#000000" font-family="sans-serif" font-size="13" lengthAdjust="spacing" textLength="71" x="823" y="389.0669">are used in</text><text fill="#000000" font-family="sans-serif" font-size="13" lengthAdjust="spacing" textLength="8" x="820.1481" y="366.2993">1</text><text fill="#000000" font-family="sans-serif" font-size="13" lengthAdjust="spacing" textLength="7" x="798.8528" y="430.7172">*</text><!--MD5=[5e380585e4d51dea2ec34604655e12a6]
reverse link LaboratoryCoordinator to TestResults--><path codeLine="143" d="M638.633,338.45 C648.013,357.52 659.794,377.15 674,393 C691.924,412.99 716.093,429.89 738.262,442.82 " fill="none" id="LaboratoryCoordinator-backto-TestResults" style="stroke:#A80036;stroke-width:1.0;"/><polygon fill="#A80036" points="636.3,333.62,636.6063,343.4641,638.4718,338.1237,643.8122,339.9892,636.3,333.62" style="stroke:#A80036;stroke-width:1.0;"/><text fill="#000000" font-family="sans-serif" font-size="13" lengthAdjust="spacing" textLength="136" x="675" y="389.0669">must be validated by</text><text fill="#000000" font-family="sans-serif" font-size="13" lengthAdjust="spacing" textLength="8" x="630.3967" y="353.2538">1</text><text fill="#000000" font-family="sans-serif" font-size="13" lengthAdjust="spacing" textLength="7" x="723.6767" y="435.3756">*</text><!--MD5=[8345a230a66c91578d736fe7097173e6]
reverse link TestResultList to SpecialistDoctor--><path codeLine="144" d="M694.652,65.7 C807.082,81.86 993,128.93 993,263.5 C993,263.5 993,263.5 993,1451 C993,1506.023 959.527,1557.344 924.746,1595.817 " fill="none" id="TestResultList-backto-SpecialistDoctor" style="stroke:#A80036;stroke-width:1.0;"/><polygon fill="#A80036" points="689.687,65,698.0387,70.2201,694.6378,65.6997,699.1582,62.2988,689.687,65" style="stroke:#A80036;stroke-width:1.0;"/><text fill="#000000" font-family="sans-serif" font-size="13" lengthAdjust="spacing" textLength="64" x="994" y="855.5669">can check</text><text fill="#000000" font-family="sans-serif" font-size="13" lengthAdjust="spacing" textLength="8" x="697.5681" y="62.1581">1</text><text fill="#000000" font-family="sans-serif" font-size="13" lengthAdjust="spacing" textLength="7" x="925.2995" y="1585.0017">*</text><!--MD5=[c56424ecf038915b4cf243fb461ddc19]
reverse link TestResultList to ClinicalChemistTechnologist--><path codeLine="145" d="M535.03,109.59 C511.72,129.68 488.64,154.68 475,183 C409.561,318.86 418.523,501.36 429.834,598.85 " fill="none" id="TestResultList-backto-ClinicalChemistTechnologist" style="stroke:#A80036;stroke-width:1.0;"/><polygon fill="#A80036" points="539.076,106.15,529.6304,108.9393,535.2691,109.3916,534.8169,115.0303,539.076,106.15" style="stroke:#A80036;stroke-width:1.0;"/><text fill="#000000" font-family="sans-serif" font-size="13" lengthAdjust="spacing" textLength="64" x="427" y="389.0669">can check</text><text fill="#000000" font-family="sans-serif" font-size="13" lengthAdjust="spacing" textLength="8" x="520.3992" y="126.2476">1</text><text fill="#000000" font-family="sans-serif" font-size="13" lengthAdjust="spacing" textLength="7" x="421.4247" y="588.0381">*</text><!--MD5=[30bf558d4af4018b9bd557ad89f27a18]
reverse link TestResultList to LaboratoryCoordinator--><path codeLine="146" d="M611,111.13 C611,136.87 611,168 611,195.39 " fill="none" id="TestResultList-backto-LaboratoryCoordinator" style="stroke:#A80036;stroke-width:1.0;"/><polygon fill="#A80036" points="611,106.06,607,115.06,611,111.06,615,115.06,611,106.06" style="stroke:#A80036;stroke-width:1.0;"/><text fill="#000000" font-family="sans-serif" font-size="13" lengthAdjust="spacing" textLength="64" x="612" y="149.0669">can check</text><text fill="#000000" font-family="sans-serif" font-size="13" lengthAdjust="spacing" textLength="8" x="602.4375" y="126.1449">1</text><text fill="#000000" font-family="sans-serif" font-size="13" lengthAdjust="spacing" textLength="7" x="603.6391" y="184.5823">*</text><!--MD5=[72168b6403437b45c434d8a29efaa5fb]
@startuml
class Company
skinparam classAttributeIconSize 0
Company : -designation
Class ClinicalAnalysisLaboratories{
-laboratoryID
-address
-name
-phoneNumber
-tinNumber
}
ClinicalAnalysisLaboratories "*" <- - "1" Company : owns
Class ChemicalLaboratory{
-address
-name
-phoneNumber
-tinNumber
}
Class Client{
-ccn
-name
-nhsNumber
-birthDate
-sex
-tif
-phoneNumber
-eMail
}
Class Receptionist{
-employeeID
-organizationRole
-name
-address
-phoneNumber
-eMail
-standardOcupationalClassificationCode
}
Class Sample{
-category
-sampleID
}
Class Administrator{
-employeeID
-organizationRole
-name
-address
-phoneNumber
-eMail
-standardOcupationalClassificationCode
}
Class MedicalLabTechnician{
-employeeID
-organizationRole
-name
-address
-phoneNumber
-eMail
-standardOcupationalClassificationCode
}
Class ClinicalChemistTechnologist{
-employeeID
-organizationRole
-name
-address
-phoneNumber
-eMail
-standardOcupationalClassificationCode
}
Class SpecialistDoctor{
-employeeID
-organizationRole
-name
-address
-phoneNumber
-eMail
-standardOcupationalClassificationCode
}
Class LaboratoryCoordinator{
-employeeID
-organizationRole
-name
-address
-phoneNumber
-eMail
-standardOcupationalClassificationCode
}
Class ResultsValidation{
-testReferenceValues
}
Class LabOrder{
-typeOfTest
-parameters
}
Class Report{
-bodyOfText
}
Class TestResultList{
-listOfPositiveCases
-listOfNegativeCases
-sortingAlgorithmByTIF
-sortingAlgorithmByName
}
Class NHSReport{
-numberCovidTestsPositive
-numberCovidTestsNegative
-covidTestsPerDay
-positiveResultsPerDay
-covidTestsPerWeek
-positiveResultsPerWeek
-covidTestsPerMonth
-positiveResultsperMonth
-forecast
}
Class Test{
-date
}
Class TypeOfTest{
-category
-measuredParameters
}
Class TestResults{
-parameterResults
}
Sample "*" <- - "1" ClinicalAnalysisLaboratories : collects
Client "*" <- - "1" Receptionist : registers
ChemicalLaboratory "1" <- - "1" Company : owns
Client "1" <- - "1" Sample: is collected from
LabOrder "1..2" <- - "1" Client: brings
Test "*" <- - "1" MedicalLabTechnician : conducts
Test "1" <- - "1" Client: performs a
TypeOfTest "1" <- - "1" Test: is a
ChemicalLaboratory "1" <- - "*" Sample: are sent to
Sample "1" <- - "1" Test: produces a
TestResults "*" <- - "1" ClinicalChemistTechnologist: produces
Client "1" <- - "1" Report: is sent to
ChemicalLaboratory "1" <- - "*" ClinicalChemistTechnologist: is part of
ClinicalChemistTechnologist "1" <- - "*" Sample : are received by
TestResults "*" <- - "1" SpecialistDoctor: reviews
Report "*" <- - "1" SpecialistDoctor: writes
Company "1" <- - "1" Administrator: is part of
ResultsValidation "*" <- - "1" SpecialistDoctor: performs
TestResults "1" <- - "1" Report: contains
NHSReport"1" <- - "*" TestResults: are used in
LaboratoryCoordinator "1" <- - "*" TestResults : must be validated by
TestResultList "1" <- - "*" SpecialistDoctor : can check
TestResultList "1" <- - "*" ClinicalChemistTechnologist : can check
TestResultList "1" <- - "*" LaboratoryCoordinator : can check
@enduml

PlantUML version 1.2021.5beta3(Unknown compile time)
(GPL source distribution)
Java Runtime: Java(TM) SE Runtime Environment
JVM: Java HotSpot(TM) 64-Bit Server VM
Default Encoding: UTF-8
Language: en
Country: US
--></g></svg>