<?xml version="1.0" encoding="UTF-8" standalone="no"?>
<svg xmlns="http://www.w3.org/2000/svg" xmlns:xlink="http://www.w3.org/1999/xlink" contentScriptType="application/ecmascript" contentStyleType="text/css" height="1703px" preserveAspectRatio="none" style="width:853px;height:1703px;" version="1.1" viewBox="0 0 853 1703" width="853px" zoomAndPan="magnify"><defs><filter height="300%" id="f1xmgo1oyegkwq" width="300%" x="-1" y="-1"><feGaussianBlur result="blurOut" stdDeviation="2.0"/><feColorMatrix in="blurOut" result="blurOut2" type="matrix" values="0 0 0 0 0 0 0 0 0 0 0 0 0 0 0 0 0 0 .4 0"/><feOffset dx="4.0" dy="4.0" in="blurOut2" result="blurOut3"/><feBlend in="SourceGraphic" in2="blurOut3" mode="normal"/></filter></defs><g><!--MD5=[87a04b683345c3cce94ac9a6e159ab2f]
entity Receptionist--><ellipse cx="89.5" cy="1544.5" fill="#FEFECE" filter="url(#f1xmgo1oyegkwq)" rx="8" ry="8" style="stroke:#A80036;stroke-width:1.5;"/><path d="M89.5,1552.5 L89.5,1579.5 M76.5,1560.5 L102.5,1560.5 M89.5,1579.5 L76.5,1594.5 M89.5,1579.5 L102.5,1594.5 " fill="none" filter="url(#f1xmgo1oyegkwq)" style="stroke:#A80036;stroke-width:1.5;"/><text fill="#000000" font-family="sans-serif" font-size="14" lengthAdjust="spacing" textLength="93" x="43" y="1612.9951">Receptionist</text><ellipse cx="537.6693" cy="1487.6339" fill="#FEFECE" filter="url(#f1xmgo1oyegkwq)" rx="93.6693" ry="21.1339" style="stroke:#A80036;stroke-width:1.5;"/><text fill="#000000" font-family="sans-serif" font-size="14" lengthAdjust="spacing" textLength="150" x="462.6693" y="1490.4805">UC3 - Register Client</text><ellipse cx="537.4298" cy="1575.586" fill="#FEFECE" filter="url(#f1xmgo1oyegkwq)" rx="145.9298" ry="31.586" style="stroke:#A80036;stroke-width:1.5;"/><text fill="#000000" font-family="sans-serif" font-size="14" lengthAdjust="spacing" textLength="262" x="406.4298" y="1578.4326">UC1 - Register test to be performed</text><ellipse cx="537.4443" cy="1666.6889" fill="#FEFECE" filter="url(#f1xmgo1oyegkwq)" rx="111.4443" ry="24.6889" style="stroke:#A80036;stroke-width:1.5;"/><text fill="#000000" font-family="sans-serif" font-size="14" lengthAdjust="spacing" textLength="189" x="442.9443" y="1669.5355">UC2 - Register a Lab Order</text><ellipse cx="537.4969" cy="1182.6994" fill="#FEFECE" filter="url(#f1xmgo1oyegkwq)" rx="133.9969" ry="29.1994" style="stroke:#A80036;stroke-width:1.5;"/><text fill="#000000" font-family="sans-serif" font-size="14" lengthAdjust="spacing" textLength="237" x="418.9969" y="1185.5461">UC14 - Check client's test results</text><!--MD5=[2b63f547074bd6a145c0620c277963de]
entity MedicalLabTechnician--><ellipse cx="89.5" cy="888.5" fill="#FEFECE" filter="url(#f1xmgo1oyegkwq)" rx="8" ry="8" style="stroke:#A80036;stroke-width:1.5;"/><path d="M89.5,896.5 L89.5,923.5 M76.5,904.5 L102.5,904.5 M89.5,923.5 L76.5,938.5 M89.5,923.5 L102.5,938.5 " fill="none" filter="url(#f1xmgo1oyegkwq)" style="stroke:#A80036;stroke-width:1.5;"/><text fill="#000000" font-family="sans-serif" font-size="14" lengthAdjust="spacing" textLength="157" x="11" y="956.9951">MedicalLabTechnician</text><ellipse cx="537.4744" cy="868.3949" fill="#FEFECE" filter="url(#f1xmgo1oyegkwq)" rx="87.4744" ry="19.8949" style="stroke:#A80036;stroke-width:1.5;"/><text fill="#000000" font-family="sans-serif" font-size="14" lengthAdjust="spacing" textLength="136" x="469.4744" y="871.2416">UC4 - Register test</text><ellipse cx="537.4911" cy="947.3982" fill="#FEFECE" filter="url(#f1xmgo1oyegkwq)" rx="104.9911" ry="23.3982" style="stroke:#A80036;stroke-width:1.5;"/><text fill="#000000" font-family="sans-serif" font-size="14" lengthAdjust="spacing" textLength="175" x="449.9911" y="950.2449">UC13 - Register samples</text><!--MD5=[b9f22e1f914de05b600b494d477eb3bb]
entity ChemistryTechnologist--><ellipse cx="89.5" cy="1027.5" fill="#FEFECE" filter="url(#f1xmgo1oyegkwq)" rx="8" ry="8" style="stroke:#A80036;stroke-width:1.5;"/><path d="M89.5,1035.5 L89.5,1062.5 M76.5,1043.5 L102.5,1043.5 M89.5,1062.5 L76.5,1077.5 M89.5,1062.5 L102.5,1077.5 " fill="none" filter="url(#f1xmgo1oyegkwq)" style="stroke:#A80036;stroke-width:1.5;"/><text fill="#000000" font-family="sans-serif" font-size="14" lengthAdjust="spacing" textLength="167" x="6" y="1095.9951">ChemistryTechnologist</text><ellipse cx="537.3276" cy="1058.2655" fill="#FEFECE" filter="url(#f1xmgo1oyegkwq)" rx="106.8276" ry="23.7655" style="stroke:#A80036;stroke-width:1.5;"/><text fill="#000000" font-family="sans-serif" font-size="14" lengthAdjust="spacing" textLength="179" x="447.8276" y="1061.1122">UC5 - Record test results</text><!--MD5=[ed5cf9b98a04c736a5595d6482b9f19f]
entity SpecialistDoctor--><ellipse cx="89.5" cy="1259.5" fill="#FEFECE" filter="url(#f1xmgo1oyegkwq)" rx="8" ry="8" style="stroke:#A80036;stroke-width:1.5;"/><path d="M89.5,1267.5 L89.5,1294.5 M76.5,1275.5 L102.5,1275.5 M89.5,1294.5 L76.5,1309.5 M89.5,1294.5 L102.5,1309.5 " fill="none" filter="url(#f1xmgo1oyegkwq)" style="stroke:#A80036;stroke-width:1.5;"/><text fill="#000000" font-family="sans-serif" font-size="14" lengthAdjust="spacing" textLength="120" x="29.5" y="1327.9951">SpecialistDoctor</text><ellipse cx="537.7488" cy="1290.6498" fill="#FEFECE" filter="url(#f1xmgo1oyegkwq)" rx="163.7488" ry="35.1498" style="stroke:#A80036;stroke-width:1.5;"/><text fill="#000000" font-family="sans-serif" font-size="14" lengthAdjust="spacing" textLength="299" x="388.2488" y="1293.4964">UC6 - Write a report about the test result</text><!--MD5=[62529e7d5259bf274c3bf3e446350d88]
entity Administrator--><ellipse cx="89.5" cy="508.5" fill="#FEFECE" filter="url(#f1xmgo1oyegkwq)" rx="8" ry="8" style="stroke:#A80036;stroke-width:1.5;"/><path d="M89.5,516.5 L89.5,543.5 M76.5,524.5 L102.5,524.5 M89.5,543.5 L76.5,558.5 M89.5,543.5 L102.5,558.5 " fill="none" filter="url(#f1xmgo1oyegkwq)" style="stroke:#A80036;stroke-width:1.5;"/><text fill="#000000" font-family="sans-serif" font-size="14" lengthAdjust="spacing" textLength="100" x="39.5" y="576.9951">Administrator</text><ellipse cx="537.5937" cy="265.6187" fill="#FEFECE" filter="url(#f1xmgo1oyegkwq)" rx="116.0937" ry="25.6187" style="stroke:#A80036;stroke-width:1.5;"/><text fill="#000000" font-family="sans-serif" font-size="14" lengthAdjust="spacing" textLength="199" x="438.0937" y="268.4654">UC8 - Register an employee</text><ellipse cx="537.2676" cy="389.2535" fill="#FEFECE" filter="url(#f1xmgo1oyegkwq)" rx="304.2676" ry="63.2535" style="stroke:#A80036;stroke-width:1.5;"/><text fill="#000000" font-family="sans-serif" font-size="14" lengthAdjust="spacing" textLength="585" x="244.7676" y="392.1002">UC9 - Register a new clinical analysis laboratory with the type of tests it operates</text><ellipse cx="537.4837" cy="539.4967" fill="#FEFECE" filter="url(#f1xmgo1oyegkwq)" rx="242.9837" ry="50.9967" style="stroke:#A80036;stroke-width:1.5;"/><text fill="#000000" font-family="sans-serif" font-size="14" lengthAdjust="spacing" textLength="461" x="306.9837" y="542.3434">UC10 - Create new type of test and state its collecting methods</text><ellipse cx="537.2535" cy="668.4507" fill="#FEFECE" filter="url(#f1xmgo1oyegkwq)" rx="200.2535" ry="42.4507" style="stroke:#A80036;stroke-width:1.5;"/><text fill="#000000" font-family="sans-serif" font-size="14" lengthAdjust="spacing" textLength="374" x="350.2535" y="671.2974">UC11 - Create new test parameter and categorize it</text><ellipse cx="537.5598" cy="779.412" fill="#FEFECE" filter="url(#f1xmgo1oyegkwq)" rx="155.0598" ry="33.412" style="stroke:#A80036;stroke-width:1.5;"/><text fill="#000000" font-family="sans-serif" font-size="14" lengthAdjust="spacing" textLength="281" x="397.0598" y="782.2586">UC12 - Create new parameter category</text><!--MD5=[6a38910834749d432318f75987594161]
entity LaboratoryCoordinator--><ellipse cx="89.5" cy="1375.5" fill="#FEFECE" filter="url(#f1xmgo1oyegkwq)" rx="8" ry="8" style="stroke:#A80036;stroke-width:1.5;"/><path d="M89.5,1383.5 L89.5,1410.5 M76.5,1391.5 L102.5,1391.5 M89.5,1410.5 L76.5,1425.5 M89.5,1410.5 L102.5,1425.5 " fill="none" filter="url(#f1xmgo1oyegkwq)" style="stroke:#A80036;stroke-width:1.5;"/><text fill="#000000" font-family="sans-serif" font-size="14" lengthAdjust="spacing" textLength="165" x="7" y="1443.9951">LaboratoryCoordinator</text><ellipse cx="537.5183" cy="1406.5037" fill="#FEFECE" filter="url(#f1xmgo1oyegkwq)" rx="110.5183" ry="24.5037" style="stroke:#A80036;stroke-width:1.5;"/><text fill="#000000" font-family="sans-serif" font-size="14" lengthAdjust="spacing" textLength="187" x="444.0183" y="1409.3503">UC7 - Validate test results</text><!--MD5=[d9d97fb087edb23fa2cf69ae7cf5153c]
entity Company--><ellipse cx="89.5" cy="72.5" fill="#FEFECE" filter="url(#f1xmgo1oyegkwq)" rx="8" ry="8" style="stroke:#A80036;stroke-width:1.5;"/><path d="M89.5,80.5 L89.5,107.5 M76.5,88.5 L102.5,88.5 M89.5,107.5 L76.5,122.5 M89.5,107.5 L102.5,122.5 " fill="none" filter="url(#f1xmgo1oyegkwq)" style="stroke:#A80036;stroke-width:1.5;"/><text fill="#000000" font-family="sans-serif" font-size="14" lengthAdjust="spacing" textLength="68" x="55.5" y="140.9951">Company</text><ellipse cx="537.7327" cy="44.5465" fill="#FEFECE" filter="url(#f1xmgo1oyegkwq)" rx="180.7327" ry="38.5465" style="stroke:#A80036;stroke-width:1.5;"/><text fill="#000000" font-family="sans-serif" font-size="14" lengthAdjust="spacing" textLength="334" x="370.7327" y="47.3932">UC15 - Give the NHS a report on Covid-19 data</text><ellipse cx="537.6483" cy="161.4297" fill="#FEFECE" filter="url(#f1xmgo1oyegkwq)" rx="205.1483" ry="43.4297" style="stroke:#A80036;stroke-width:1.5;"/><text fill="#000000" font-family="sans-serif" font-size="14" lengthAdjust="spacing" textLength="384" x="345.6483" y="164.2763">UC16 - Give the NHS an accurate forecast on covid-19</text><!--MD5=[0ba5ee7700168656dc1b457c6fe9fdac]
entity Client--><ellipse cx="89.5" cy="1143.5" fill="#FEFECE" filter="url(#f1xmgo1oyegkwq)" rx="8" ry="8" style="stroke:#A80036;stroke-width:1.5;"/><path d="M89.5,1151.5 L89.5,1178.5 M76.5,1159.5 L102.5,1159.5 M89.5,1178.5 L76.5,1193.5 M89.5,1178.5 L102.5,1193.5 " fill="none" filter="url(#f1xmgo1oyegkwq)" style="stroke:#A80036;stroke-width:1.5;"/><text fill="#000000" font-family="sans-serif" font-size="14" lengthAdjust="spacing" textLength="43" x="68" y="1211.9951">Client</text><!--MD5=[c5d5a0f3230eeec008b77b3e419b2923]
link Receptionist to Register--><path d="M136.012,1557.197 C163.652,1546.752 199.882,1534.237 233,1526.5 C302.563,1510.249 382.786,1500.31 443.277,1494.536 " fill="none" id="Receptionist-to-Register" style="stroke:#A80036;stroke-width:1.0;"/><polygon fill="#A80036" points="448.331,1494.058,438.9949,1490.9216,443.3531,1494.5279,439.7468,1498.8862,448.331,1494.058" style="stroke:#A80036;stroke-width:1.0;"/><!--MD5=[6e4f44a5437f093f1b68cb6fb2742327]
link Receptionist to UC1 - Register test to be performed--><path d="M136.134,1575.5 C194.58,1575.5 298.769,1575.5 386.21,1575.5 " fill="none" id="Receptionist-to-UC1 - Register test to be performed" style="stroke:#A80036;stroke-width:1.0;"/><polygon fill="#A80036" points="391.415,1575.5,382.415,1571.5,386.415,1575.5,382.415,1579.5,391.415,1575.5" style="stroke:#A80036;stroke-width:1.0;"/><!--MD5=[e5dbc83a1ea00ae569853b10ceca4cc7]
link Receptionist to UC2 - Register a Lab Order--><path d="M136.039,1593.6863 C163.69,1604.0901 199.92,1616.6025 233,1624.5 C297.16,1639.8176 370.377,1650.1506 428.821,1656.7338 " fill="none" id="Receptionist-to-UC2 - Register a Lab Order" style="stroke:#A80036;stroke-width:1.0;"/><polygon fill="#A80036" points="434.072,1657.3197,425.5723,1652.3442,429.103,1656.764,424.6832,1660.2947,434.072,1657.3197" style="stroke:#A80036;stroke-width:1.0;"/><!--MD5=[c530aab41e34afa6c213ecb14ea7a359]
link MedicalLabTechnician to UC4 - Register test--><path d="M168.187,910.616 C248.045,901.485 371.938,887.318 453.637,877.975 " fill="none" id="MedicalLabTechnician-to-UC4 - Register test" style="stroke:#A80036;stroke-width:1.0;"/><polygon fill="#A80036" points="458.956,877.367,449.5603,874.4138,453.9883,877.9342,450.4679,882.3622,458.956,877.367" style="stroke:#A80036;stroke-width:1.0;"/><!--MD5=[22f08da2809772e32170f1aef0f288d2]
link MedicalLabTechnician to UC13 - Register samples--><path d="M168.187,924.377 C240.963,928.946 350.309,935.811 430.965,940.874 " fill="none" id="MedicalLabTechnician-to-UC13 - Register samples" style="stroke:#A80036;stroke-width:1.0;"/><polygon fill="#A80036" points="436.235,941.205,427.5042,936.6473,431.2449,940.8908,427.0014,944.6315,436.235,941.205" style="stroke:#A80036;stroke-width:1.0;"/><!--MD5=[923b74290bbcbc609b11b52a19ec6246]
link ChemistryTechnologist to UC5 - Record test results--><path d="M173.083,1058.5 C244.045,1058.5 346.99,1058.5 425.211,1058.5 " fill="none" id="ChemistryTechnologist-to-UC5 - Record test results" style="stroke:#A80036;stroke-width:1.0;"/><polygon fill="#A80036" points="430.327,1058.5,421.327,1054.5,425.327,1058.5,421.327,1062.5,430.327,1058.5" style="stroke:#A80036;stroke-width:1.0;"/><!--MD5=[7fa9c6f1af0f96467ae038a90665f693]
link ChemistryTechnologist to Check--><path d="M173.295,1083.249 C192.848,1088.997 213.64,1095.032 233,1100.5 C304.653,1120.736 386.122,1142.69 446.599,1158.785 " fill="none" id="ChemistryTechnologist-to-Check" style="stroke:#A80036;stroke-width:1.0;"/><polygon fill="#A80036" points="451.649,1160.128,443.9799,1153.9486,446.8171,1158.8425,441.9231,1161.6797,451.649,1160.128" style="stroke:#A80036;stroke-width:1.0;"/><!--MD5=[d7bd80d763b7667839a023d0ba8284e8]
link SpecialistDoctor to UC6 - Write a report about the test result--><path d="M149.725,1290.5 C205.489,1290.5 291.702,1290.5 368.593,1290.5 " fill="none" id="SpecialistDoctor-to-UC6 - Write a report about the test result" style="stroke:#A80036;stroke-width:1.0;"/><polygon fill="#A80036" points="373.644,1290.5,364.644,1286.5,368.644,1290.5,364.644,1294.5,373.644,1290.5" style="stroke:#A80036;stroke-width:1.0;"/><!--MD5=[953b589759e628f165a0a3bb213b8a74]
link SpecialistDoctor to Check--><path d="M149.756,1266.355 C175.086,1256.696 205.178,1246.086 233,1238.5 C293.967,1221.877 363.176,1208.685 420.093,1199.29 " fill="none" id="SpecialistDoctor-to-Check" style="stroke:#A80036;stroke-width:1.0;"/><polygon fill="#A80036" points="425.212,1198.45,415.6829,1195.9607,420.278,1199.2599,416.9788,1203.8551,425.212,1198.45" style="stroke:#A80036;stroke-width:1.0;"/><!--MD5=[2101266dbd10758b19f6a2d4c11a6258]
link Administrator to UC8 - Register an employee--><path d="M103.3821,498.77 C122.508,445.54 163.8,353.78 233,308.5 C287.684,272.72 359.739,261.37 419.918,259.25 " fill="none" id="Administrator-to-UC8 - Register an employee" style="stroke:#A80036;stroke-width:1.0;"/><polygon fill="#A80036" points="424.965,259.09,415.8449,255.3721,419.9674,259.2456,416.0939,263.3682,424.965,259.09" style="stroke:#A80036;stroke-width:1.0;"/><!--MD5=[12a47c3b8dff0ae45737f91bcf6c70a5]
link Administrator to UC9 - Register a new clinical analysis laboratory with the type of tests it operates--><path d="M139.664,513.32 C166.694,499.62 201.123,483.3 233,471.5 C264.955,459.67 299.374,448.73 333.154,438.96 " fill="none" id="Administrator-to-UC9 - Register a new clinical analysis laboratory with the type of tests it operates" style="stroke:#A80036;stroke-width:1.0;"/><polygon fill="#A80036" points="338.133,437.52,328.377,436.1705,333.3288,438.9055,330.5938,443.8573,338.133,437.52" style="stroke:#A80036;stroke-width:1.0;"/><!--MD5=[894c6e256fb45c71daa303de7baad702]
link Administrator to UC10 - Create new type of test and state its collecting methods--><path d="M139.506,539.5 C177.067,539.5 232,539.5 289.093,539.5 " fill="none" id="Administrator-to-UC10 - Create new type of test and state its collecting methods" style="stroke:#A80036;stroke-width:1.0;"/><polygon fill="#A80036" points="294.267,539.5,285.267,535.5,289.267,539.5,285.267,543.5,294.267,539.5" style="stroke:#A80036;stroke-width:1.0;"/><!--MD5=[9fa1822fe2281df627d5c13c77bb4d47]
link Administrator to UC11 - Create new test parameter and categorize it--><path d="M139.635,567.16 C166.514,581.29 200.809,597.72 233,608.5 C275.912,622.87 323.452,634.28 367.925,643.12 " fill="none" id="Administrator-to-UC11 - Create new test parameter and categorize it" style="stroke:#A80036;stroke-width:1.0;"/><polygon fill="#A80036" points="373.053,644.13,364.9948,638.4674,368.1471,643.1645,363.45,646.3168,373.053,644.13" style="stroke:#A80036;stroke-width:1.0;"/><!--MD5=[1cad4abb59de425dfbb2d6208ddf2cc2]
link Administrator to UC12 - Create new parameter category--><path d="M109.332,580.03 C132.083,624.14 174.689,693.099 233,728.5 C276.162,754.704 328.817,768.511 378.074,775.503 " fill="none" id="Administrator-to-UC12 - Create new parameter category" style="stroke:#A80036;stroke-width:1.0;"/><polygon fill="#A80036" points="383.137,776.2,374.766,771.011,378.1836,775.5187,373.6759,778.9363,383.137,776.2" style="stroke:#A80036;stroke-width:1.0;"/><!--MD5=[d4cceef68ea1deaae3e71c27869e2187]
link LaboratoryCoordinator to UC7 - Validate test results--><path d="M172.044,1406.5 C242.021,1406.5 343.648,1406.5 421.82,1406.5 " fill="none" id="LaboratoryCoordinator-to-UC7 - Validate test results" style="stroke:#A80036;stroke-width:1.0;"/><polygon fill="#A80036" points="426.935,1406.5,417.935,1402.5,421.935,1406.5,417.935,1410.5,426.935,1406.5" style="stroke:#A80036;stroke-width:1.0;"/><!--MD5=[255919a2f4172bab02925304e84b9d20]
link LaboratoryCoordinator to Check--><path d="M154.722,1365.923 C161.272,1360.479 167.52,1354.639 173,1348.5 C210.083,1306.954 187.902,1271.172 233,1238.5 C280.384,1204.172 342.57,1188.941 398.306,1182.761 " fill="none" id="LaboratoryCoordinator-to-Check" style="stroke:#A80036;stroke-width:1.0;"/><polygon fill="#A80036" points="403.335,1182.226,393.9625,1179.2,398.363,1182.7546,394.8083,1187.1551,403.335,1182.226" style="stroke:#A80036;stroke-width:1.0;"/><!--MD5=[da0ec4c617ccca6acd1cb1628eed8485]
link Company to UC15 - Give the NHS a report on Covid-19 data--><path d="M123.658,99.11 C177.203,92.03 286.063,77.63 378.558,65.39 " fill="none" id="Company-to-UC15 - Give the NHS a report on Covid-19 data" style="stroke:#A80036;stroke-width:1.0;"/><polygon fill="#A80036" points="383.786,64.7,374.3392,61.9148,378.8292,65.3557,375.3883,69.8457,383.786,64.7" style="stroke:#A80036;stroke-width:1.0;"/><!--MD5=[5fa571d2673c0aad903b4571d4d4e70e]
link Company to UC16 - Give the NHS an accurate forecast on covid-19--><path d="M123.658,107.81 C173.092,114.24 269.674,126.8 356.997,138.16 " fill="none" id="Company-to-UC16 - Give the NHS an accurate forecast on covid-19" style="stroke:#A80036;stroke-width:1.0;"/><polygon fill="#A80036" points="362.204,138.83,353.7961,133.701,357.2459,138.1842,352.7627,141.634,362.204,138.83" style="stroke:#A80036;stroke-width:1.0;"/><!--MD5=[6f12dbbec8aa9a325b88729a5a6689c3]
link Client to Check--><path d="M111.117,1174.87 C161.533,1175.774 294.523,1178.16 398.51,1180.025 " fill="none" id="Client-to-Check" style="stroke:#A80036;stroke-width:1.0;"/><polygon fill="#A80036" points="403.751,1180.119,394.8233,1175.9602,398.7518,1180.0304,394.6816,1183.959,403.751,1180.119" style="stroke:#A80036;stroke-width:1.0;"/><!--MD5=[cffa89b2a31f6ed5a6a38190e6107270]
@startuml
left to right direction

Receptionist - -> (Register)
Receptionist - -> (UC1 - Register test to be performed)
Receptionist - -> (UC2 - Register a Lab Order)
"UC14 - Check client's test results" as (Check)
"UC3 - Register Client" as (Register)

MedicalLabTechnician - -> (UC4 - Register test)
MedicalLabTechnician - -> (UC13 - Register samples)

ChemistryTechnologist - -> (UC5 - Record test results)
ChemistryTechnologist - -> (Check)

SpecialistDoctor - -> (UC6 - Write a report about the test result)
SpecialistDoctor - -> (Check)


Administrator - -> (UC8 - Register an employee)
Administrator - -> (UC9 - Register a new clinical analysis laboratory with the type of tests it operates)
Administrator - -> (UC10 - Create new type of test and state its collecting methods)
Administrator - -> (UC11 - Create new test parameter and categorize it)
Administrator - -> (UC12 - Create new parameter category)

LaboratoryCoordinator - -> (UC7 - Validate test results)
LaboratoryCoordinator - -> (Check)


Company - -> (UC15 - Give the NHS a report on Covid-19 data)
Company - -> (UC16 - Give the NHS an accurate forecast on covid-19)

Client - -> (Check)
@enduml

PlantUML version 1.2021.6beta4(Unknown compile time)
(GPL source distribution)
Java Runtime: Java(TM) SE Runtime Environment
JVM: Java HotSpot(TM) 64-Bit Server VM
Default Encoding: UTF-8
Language: en
Country: US
--></g></svg>