<?xml version="1.0" encoding="UTF-8" standalone="no"?><svg xmlns="http://www.w3.org/2000/svg" xmlns:xlink="http://www.w3.org/1999/xlink" contentScriptType="application/ecmascript" contentStyleType="text/css" height="1625px" preserveAspectRatio="none" style="width:852px;height:1625px;" version="1.1" viewBox="0 0 852 1625" width="852px" zoomAndPan="magnify"><defs><filter height="300%" id="f1mh4hzlucwqre" width="300%" x="-1" y="-1"><feGaussianBlur result="blurOut" stdDeviation="2.0"/><feColorMatrix in="blurOut" result="blurOut2" type="matrix" values="0 0 0 0 0 0 0 0 0 0 0 0 0 0 0 0 0 0 .4 0"/><feOffset dx="4.0" dy="4.0" in="blurOut2" result="blurOut3"/><feBlend in="SourceGraphic" in2="blurOut3" mode="normal"/></filter></defs><g><!--MD5=[e4550532860d4c8a99e0d95bce68a39c]
entity Recepetionist--><ellipse cx="89.5" cy="1525" fill="#FEFECE" filter="url(#f1mh4hzlucwqre)" rx="8" ry="8" style="stroke:#A80036;stroke-width:1.5;"/><path d="M89.5,1533 L89.5,1560 M76.5,1541 L102.5,1541 M89.5,1560 L76.5,1575 M89.5,1560 L102.5,1575 " fill="none" filter="url(#f1mh4hzlucwqre)" style="stroke:#A80036;stroke-width:1.5;"/><text fill="#000000" font-family="sans-serif" font-size="14" lengthAdjust="spacing" textLength="102" x="38.5" y="1593.4951">Recepetionist</text><ellipse cx="537.1693" cy="1494.1339" fill="#FEFECE" filter="url(#f1mh4hzlucwqre)" rx="93.6693" ry="21.1339" style="stroke:#A80036;stroke-width:1.5;"/><text fill="#000000" font-family="sans-serif" font-size="14" lengthAdjust="spacing" textLength="150" x="462.1693" y="1496.9805">UC3 - Register Client</text><ellipse cx="536.9298" cy="1582.086" fill="#FEFECE" filter="url(#f1mh4hzlucwqre)" rx="145.9298" ry="31.586" style="stroke:#A80036;stroke-width:1.5;"/><text fill="#000000" font-family="sans-serif" font-size="14" lengthAdjust="spacing" textLength="262" x="405.9298" y="1584.9326">UC1 - Register test to be performed</text><ellipse cx="536.9721" cy="1217.7944" fill="#FEFECE" filter="url(#f1mh4hzlucwqre)" rx="134.4721" ry="29.2944" style="stroke:#A80036;stroke-width:1.5;"/><text fill="#000000" font-family="sans-serif" font-size="14" lengthAdjust="spacing" textLength="238" x="417.9721" y="1220.6411">UC13 - Check client's test results</text><!--MD5=[2b63f547074bd6a145c0620c277963de]
entity MedicalLabTechnician--><ellipse cx="89.5" cy="978" fill="#FEFECE" filter="url(#f1mh4hzlucwqre)" rx="8" ry="8" style="stroke:#A80036;stroke-width:1.5;"/><path d="M89.5,986 L89.5,1013 M76.5,994 L102.5,994 M89.5,1013 L76.5,1028 M89.5,1013 L102.5,1028 " fill="none" filter="url(#f1mh4hzlucwqre)" style="stroke:#A80036;stroke-width:1.5;"/><text fill="#000000" font-family="sans-serif" font-size="14" lengthAdjust="spacing" textLength="157" x="11" y="1046.4951">MedicalLabTechnician</text><ellipse cx="536.9744" cy="968.8949" fill="#FEFECE" filter="url(#f1mh4hzlucwqre)" rx="87.4744" ry="19.8949" style="stroke:#A80036;stroke-width:1.5;"/><text fill="#000000" font-family="sans-serif" font-size="14" lengthAdjust="spacing" textLength="136" x="468.9744" y="971.7416">UC2 - Register test</text><ellipse cx="537.0329" cy="1047.8066" fill="#FEFECE" filter="url(#f1mh4hzlucwqre)" rx="104.5329" ry="23.3066" style="stroke:#A80036;stroke-width:1.5;"/><text fill="#000000" font-family="sans-serif" font-size="14" lengthAdjust="spacing" textLength="174" x="450.0329" y="1050.6533">UC12 - Register samples</text><!--MD5=[b9f22e1f914de05b600b494d477eb3bb]
entity ChemistryTechnologist--><ellipse cx="89.5" cy="1136" fill="#FEFECE" filter="url(#f1mh4hzlucwqre)" rx="8" ry="8" style="stroke:#A80036;stroke-width:1.5;"/><path d="M89.5,1144 L89.5,1171 M76.5,1152 L102.5,1152 M89.5,1171 L76.5,1186 M89.5,1171 L102.5,1186 " fill="none" filter="url(#f1mh4hzlucwqre)" style="stroke:#A80036;stroke-width:1.5;"/><text fill="#000000" font-family="sans-serif" font-size="14" lengthAdjust="spacing" textLength="167" x="6" y="1204.4951">ChemistryTechnologist</text><ellipse cx="536.8679" cy="1130.1736" fill="#FEFECE" filter="url(#f1mh4hzlucwqre)" rx="106.3679" ry="23.6736" style="stroke:#A80036;stroke-width:1.5;"/><text fill="#000000" font-family="sans-serif" font-size="14" lengthAdjust="spacing" textLength="178" x="447.8679" y="1133.0203">UC4 - Record test results</text><!--MD5=[ed5cf9b98a04c736a5595d6482b9f19f]
entity SpecialistDoctor--><ellipse cx="89.5" cy="1260" fill="#FEFECE" filter="url(#f1mh4hzlucwqre)" rx="8" ry="8" style="stroke:#A80036;stroke-width:1.5;"/><path d="M89.5,1268 L89.5,1295 M76.5,1276 L102.5,1276 M89.5,1295 L76.5,1310 M89.5,1295 L102.5,1310 " fill="none" filter="url(#f1mh4hzlucwqre)" style="stroke:#A80036;stroke-width:1.5;"/><text fill="#000000" font-family="sans-serif" font-size="14" lengthAdjust="spacing" textLength="120" x="29.5" y="1328.4951">SpecialistDoctor</text><ellipse cx="537.2488" cy="1318.1498" fill="#FEFECE" filter="url(#f1mh4hzlucwqre)" rx="163.7488" ry="35.1498" style="stroke:#A80036;stroke-width:1.5;"/><text fill="#000000" font-family="sans-serif" font-size="14" lengthAdjust="spacing" textLength="299" x="387.7488" y="1320.9964">UC5 - Write a report about the test result</text><!--MD5=[62529e7d5259bf274c3bf3e446350d88]
entity Administrator--><ellipse cx="89.5" cy="610" fill="#FEFECE" filter="url(#f1mh4hzlucwqre)" rx="8" ry="8" style="stroke:#A80036;stroke-width:1.5;"/><path d="M89.5,618 L89.5,645 M76.5,626 L102.5,626 M89.5,645 L76.5,660 M89.5,645 L102.5,660 " fill="none" filter="url(#f1mh4hzlucwqre)" style="stroke:#A80036;stroke-width:1.5;"/><text fill="#000000" font-family="sans-serif" font-size="14" lengthAdjust="spacing" textLength="100" x="39.5" y="678.4951">Administrator</text><ellipse cx="537.0602" cy="369.212" fill="#FEFECE" filter="url(#f1mh4hzlucwqre)" rx="116.5602" ry="25.712" style="stroke:#A80036;stroke-width:1.5;"/><text fill="#000000" font-family="sans-serif" font-size="14" lengthAdjust="spacing" textLength="200" x="437.0602" y="372.0587">UC7 - Register an employee</text><ellipse cx="536.7722" cy="493.1544" fill="#FEFECE" filter="url(#f1mh4hzlucwqre)" rx="303.7722" ry="63.1544" style="stroke:#A80036;stroke-width:1.5;"/><text fill="#000000" font-family="sans-serif" font-size="14" lengthAdjust="spacing" textLength="584" x="244.7722" y="496.0011">UC8 - Register a new clinical analysis laboratory with the type of tests it operates</text><ellipse cx="537.0503" cy="641.1101" fill="#FEFECE" filter="url(#f1mh4hzlucwqre)" rx="238.5503" ry="50.1101" style="stroke:#A80036;stroke-width:1.5;"/><text fill="#000000" font-family="sans-serif" font-size="14" lengthAdjust="spacing" textLength="452" x="311.0503" y="643.9567">UC9 - Create new type of test and state its collecting methods</text><ellipse cx="536.7535" cy="768.9507" fill="#FEFECE" filter="url(#f1mh4hzlucwqre)" rx="200.2535" ry="42.4507" style="stroke:#A80036;stroke-width:1.5;"/><text fill="#000000" font-family="sans-serif" font-size="14" lengthAdjust="spacing" textLength="374" x="349.7535" y="771.7974">UC10 - Create new test parameter and categorize it</text><ellipse cx="537.0416" cy="880.0083" fill="#FEFECE" filter="url(#f1mh4hzlucwqre)" rx="155.5416" ry="33.5083" style="stroke:#A80036;stroke-width:1.5;"/><text fill="#000000" font-family="sans-serif" font-size="14" lengthAdjust="spacing" textLength="282" x="396.0416" y="882.855">UC11 - Create new parameter category</text><!--MD5=[6a38910834749d432318f75987594161]
entity LaboratoryCoordinator--><ellipse cx="89.5" cy="1380" fill="#FEFECE" filter="url(#f1mh4hzlucwqre)" rx="8" ry="8" style="stroke:#A80036;stroke-width:1.5;"/><path d="M89.5,1388 L89.5,1415 M76.5,1396 L102.5,1396 M89.5,1415 L76.5,1430 M89.5,1415 L102.5,1430 " fill="none" filter="url(#f1mh4hzlucwqre)" style="stroke:#A80036;stroke-width:1.5;"/><text fill="#000000" font-family="sans-serif" font-size="14" lengthAdjust="spacing" textLength="165" x="7" y="1448.4951">LaboratoryCoordinator</text><ellipse cx="537.0183" cy="1413.0037" fill="#FEFECE" filter="url(#f1mh4hzlucwqre)" rx="110.5183" ry="24.5037" style="stroke:#A80036;stroke-width:1.5;"/><text fill="#000000" font-family="sans-serif" font-size="14" lengthAdjust="spacing" textLength="187" x="443.5183" y="1415.8503">UC6 - Validate test results</text><!--MD5=[d9d97fb087edb23fa2cf69ae7cf5153c]
entity Company--><ellipse cx="89.5" cy="182" fill="#FEFECE" filter="url(#f1mh4hzlucwqre)" rx="8" ry="8" style="stroke:#A80036;stroke-width:1.5;"/><path d="M89.5,190 L89.5,217 M76.5,198 L102.5,198 M89.5,217 L76.5,232 M89.5,217 L102.5,232 " fill="none" filter="url(#f1mh4hzlucwqre)" style="stroke:#A80036;stroke-width:1.5;"/><text fill="#000000" font-family="sans-serif" font-size="14" lengthAdjust="spacing" textLength="68" x="55.5" y="250.4951">Company</text><ellipse cx="537.2327" cy="148.0465" fill="#FEFECE" filter="url(#f1mh4hzlucwqre)" rx="180.7327" ry="38.5465" style="stroke:#A80036;stroke-width:1.5;"/><text fill="#000000" font-family="sans-serif" font-size="14" lengthAdjust="spacing" textLength="334" x="370.2327" y="150.8932">UC15 - Give the NHS a report on Covid-19 data</text><ellipse cx="537.1483" cy="264.9297" fill="#FEFECE" filter="url(#f1mh4hzlucwqre)" rx="205.1483" ry="43.4297" style="stroke:#A80036;stroke-width:1.5;"/><text fill="#000000" font-family="sans-serif" font-size="14" lengthAdjust="spacing" textLength="384" x="345.1483" y="267.7763">UC16 - Give the NHS an accurate forecast on covid-19</text><!--MD5=[0ba5ee7700168656dc1b457c6fe9fdac]
entity Client--><ellipse cx="89.5" cy="14" fill="#FEFECE" filter="url(#f1mh4hzlucwqre)" rx="8" ry="8" style="stroke:#A80036;stroke-width:1.5;"/><path d="M89.5,22 L89.5,49 M76.5,30 L102.5,30 M89.5,49 L76.5,64 M89.5,49 L102.5,64 " fill="none" filter="url(#f1mh4hzlucwqre)" style="stroke:#A80036;stroke-width:1.5;"/><text fill="#000000" font-family="sans-serif" font-size="14" lengthAdjust="spacing" textLength="43" x="68" y="82.4951">Client</text><ellipse cx="536.9721" cy="44.7944" fill="#FEFECE" filter="url(#f1mh4hzlucwqre)" rx="134.4721" ry="29.2944" style="stroke:#A80036;stroke-width:1.5;"/><text fill="#000000" font-family="sans-serif" font-size="14" lengthAdjust="spacing" textLength="238" x="417.9721" y="47.6411">UC14 - Check his own test results</text><!--MD5=[0b92df516d602bc8012b8d030a4fe094]
link Recepetionist to Register--><path d="M140.56,1547.5182 C167.853,1542.9953 202.248,1537.4597 233,1533 C305.752,1522.4495 388.545,1511.891 449.18,1504.426 " fill="none" id="Recepetionist-to-Register" style="stroke:#A80036;stroke-width:1.0;"/><polygon fill="#A80036" points="454.241,1503.804,444.8202,1500.9318,449.2783,1504.414,445.7962,1508.8721,454.241,1503.804" style="stroke:#A80036;stroke-width:1.0;"/><!--MD5=[81ad418ae3afa942a0a428bd5ef4c6ee]
link Recepetionist to UC1 - Register test to be performed--><path d="M140.739,1558.932 C200.979,1562.4477 304.593,1568.4947 390.623,1573.5156 " fill="none" id="Recepetionist-to-UC1 - Register test to be performed" style="stroke:#A80036;stroke-width:1.0;"/><polygon fill="#A80036" points="395.743,1573.8144,386.9914,1569.2966,390.7515,1573.523,386.5252,1577.283,395.743,1573.8144" style="stroke:#A80036;stroke-width:1.0;"/><!--MD5=[3bbaf630be75e516470be71d4e6f2010]
link MedicalLabTechnician to UC2 - Register test--><path d="M168.1,1002.033 C246.77,994.969 368.224,984.064 449.837,976.736 " fill="none" id="MedicalLabTechnician-to-UC2 - Register test" style="stroke:#A80036;stroke-width:1.0;"/><polygon fill="#A80036" points="455.154,976.259,445.8323,973.0799,450.174,976.7061,446.5478,981.0478,455.154,976.259" style="stroke:#A80036;stroke-width:1.0;"/><!--MD5=[df2092a07f3417f5ff2db7a8d89ff911]
link MedicalLabTechnician to UC12 - Register samples--><path d="M168.1,1015.793 C241.77,1022.242 352.957,1031.976 433.812,1039.054 " fill="none" id="MedicalLabTechnician-to-UC12 - Register samples" style="stroke:#A80036;stroke-width:1.0;"/><polygon fill="#A80036" points="439.093,1039.517,430.4771,1034.7455,434.1121,1039.0799,429.7778,1042.7149,439.093,1039.517" style="stroke:#A80036;stroke-width:1.0;"/><!--MD5=[61299a5a2f44595c634e9dbf2acafb9e]
link ChemistryTechnologist to UC4 - Record test results--><path d="M173.251,1160.127 C246.257,1154.064 353.004,1145.198 431.81,1138.653 " fill="none" id="ChemistryTechnologist-to-UC4 - Record test results" style="stroke:#A80036;stroke-width:1.0;"/><polygon fill="#A80036" points="436.959,1138.226,427.6585,1134.9855,431.9762,1138.6403,428.3214,1142.958,436.959,1138.226" style="stroke:#A80036;stroke-width:1.0;"/><!--MD5=[7fa9c6f1af0f96467ae038a90665f693]
link ChemistryTechnologist to Check--><path d="M173.251,1176.473 C240.347,1184.154 335.944,1195.098 412.157,1203.823 " fill="none" id="ChemistryTechnologist-to-Check" style="stroke:#A80036;stroke-width:1.0;"/><polygon fill="#A80036" points="417.148,1204.394,408.6627,1199.394,412.1806,1203.824,407.7507,1207.3419,417.148,1204.394" style="stroke:#A80036;stroke-width:1.0;"/><!--MD5=[3be32478c239b057930263878f805554]
link SpecialistDoctor to UC5 - Write a report about the test result--><path d="M149.659,1294.585 C206.749,1298.045 295.792,1303.442 374.011,1308.183 " fill="none" id="SpecialistDoctor-to-UC5 - Write a report about the test result" style="stroke:#A80036;stroke-width:1.0;"/><polygon fill="#A80036" points="379.148,1308.494,370.4068,1303.9563,374.1572,1308.1912,369.9223,1311.9416,379.148,1308.494" style="stroke:#A80036;stroke-width:1.0;"/><!--MD5=[953b589759e628f165a0a3bb213b8a74]
link SpecialistDoctor to Check--><path d="M149.741,1280.381 C175.331,1275.852 205.624,1270.569 233,1266 C295.213,1255.616 364.708,1244.567 421.435,1235.691 " fill="none" id="SpecialistDoctor-to-Check" style="stroke:#A80036;stroke-width:1.0;"/><polygon fill="#A80036" points="426.535,1234.893,417.0249,1232.3322,421.5951,1235.6658,418.2614,1240.236,426.535,1234.893" style="stroke:#A80036;stroke-width:1.0;"/><!--MD5=[2c6c509ac6c1acb079d4d47198666766]
link Administrator to UC7 - Register an employee--><path d="M103.7247,600.38 C123.12,547.8 164.591,457.64 233,413 C287.231,377.61 358.465,365.94 418.238,363.42 " fill="none" id="Administrator-to-UC7 - Register an employee" style="stroke:#A80036;stroke-width:1.0;"/><polygon fill="#A80036" points="423.251,363.23,414.1052,359.5756,418.2546,363.4204,414.4099,367.5698,423.251,363.23" style="stroke:#A80036;stroke-width:1.0;"/><!--MD5=[733f674a9c3b0165df4a47ca4e03f3b8]
link Administrator to UC8 - Register a new clinical analysis laboratory with the type of tests it operates--><path d="M139.693,615.211 C166.732,601.72 201.161,585.64 233,574 C264.807,562.38 299.042,551.62 332.648,542 " fill="none" id="Administrator-to-UC8 - Register a new clinical analysis laboratory with the type of tests it operates" style="stroke:#A80036;stroke-width:1.0;"/><polygon fill="#A80036" points="337.602,540.58,327.8509,539.1961,332.7929,541.9485,330.0405,546.8906,337.602,540.58" style="stroke:#A80036;stroke-width:1.0;"/><!--MD5=[0bcc9b419c7b899eb0ff7e71b1f07119]
link Administrator to UC9 - Create new type of test and state its collecting methods--><path d="M139.878,641 C178.307,641 234.753,641 293.06,641 " fill="none" id="Administrator-to-UC9 - Create new type of test and state its collecting methods" style="stroke:#A80036;stroke-width:1.0;"/><polygon fill="#A80036" points="298.343,641,289.343,637,293.343,641,289.343,645,298.343,641" style="stroke:#A80036;stroke-width:1.0;"/><!--MD5=[3dcdd3bef7d37153d72171c850d46c44]
link Administrator to UC10 - Create new test parameter and categorize it--><path d="M139.683,668.224 C166.575,682.139 200.869,698.339 233,709 C275.882,723.228 323.358,734.59 367.759,743.431 " fill="none" id="Administrator-to-UC10 - Create new test parameter and categorize it" style="stroke:#A80036;stroke-width:1.0;"/><polygon fill="#A80036" points="372.878,744.442,364.8232,738.7745,367.9727,743.4735,363.2737,746.623,372.878,744.442" style="stroke:#A80036;stroke-width:1.0;"/><!--MD5=[a571584b16aa73dfe49d5c2cec6b35ce]
link Administrator to UC11 - Create new parameter category--><path d="M109.597,681.71 C132.45,725.604 175.02,793.891 233,829 C275.902,854.979 328.162,868.754 377.118,875.786 " fill="none" id="Administrator-to-UC11 - Create new parameter category" style="stroke:#A80036;stroke-width:1.0;"/><polygon fill="#A80036" points="382.15,876.487,373.7865,871.2858,377.1976,875.7985,372.6849,879.2096,382.15,876.487" style="stroke:#A80036;stroke-width:1.0;"/><!--MD5=[6fe47bebae6cd84a1a3596c600e8ea1d]
link LaboratoryCoordinator to UC6 - Validate test results--><path d="M172.212,1411.367 C242.018,1411.68 343.219,1412.135 421.169,1412.484 " fill="none" id="LaboratoryCoordinator-to-UC6 - Validate test results" style="stroke:#A80036;stroke-width:1.0;"/><polygon fill="#A80036" points="426.269,1412.507,417.2862,1408.4685,421.269,1412.4856,417.2519,1416.4684,426.269,1412.507" style="stroke:#A80036;stroke-width:1.0;"/><!--MD5=[255919a2f4172bab02925304e84b9d20]
link LaboratoryCoordinator to Check--><path d="M149.151,1370.414 C157.505,1363.654 165.72,1356.416 173,1349 C204.886,1316.517 194.218,1289.83 233,1266 C281.576,1236.152 342.507,1222.873 396.968,1217.525 " fill="none" id="LaboratoryCoordinator-to-Check" style="stroke:#A80036;stroke-width:1.0;"/><polygon fill="#A80036" points="402.217,1217.032,392.8826,1213.8905,397.2389,1217.4992,393.6302,1221.8555,402.217,1217.032" style="stroke:#A80036;stroke-width:1.0;"/><!--MD5=[da0ec4c617ccca6acd1cb1628eed8485]
link Company to UC15 - Give the NHS a report on Covid-19 data--><path d="M123.621,208.17 C177.952,200.24 289.296,183.99 382.605,170.38 " fill="none" id="Company-to-UC15 - Give the NHS a report on Covid-19 data" style="stroke:#A80036;stroke-width:1.0;"/><polygon fill="#A80036" points="387.596,169.65,378.1138,166.9878,382.6481,170.3701,379.2659,174.9044,387.596,169.65" style="stroke:#A80036;stroke-width:1.0;"/><!--MD5=[5fa571d2673c0aad903b4571d4d4e70e]
link Company to UC16 - Give the NHS an accurate forecast on covid-19--><path d="M123.621,216.87 C172.11,222.53 266.012,233.49 351.975,243.52 " fill="none" id="Company-to-UC16 - Give the NHS an accurate forecast on covid-19" style="stroke:#A80036;stroke-width:1.0;"/><polygon fill="#A80036" points="357.102,244.12,348.6262,239.104,352.1357,243.5406,347.6991,247.0501,357.102,244.12" style="stroke:#A80036;stroke-width:1.0;"/><!--MD5=[d153707541da38f2fbcbdcaa84c97b92]
link Client to UC14 - Check his own test results--><path d="M111.094,45 C161.285,45 293.407,45 397.122,45 " fill="none" id="Client-to-UC14 - Check his own test results" style="stroke:#A80036;stroke-width:1.0;"/><polygon fill="#A80036" points="402.35,45,393.35,41,397.35,45,393.35,49,402.35,45" style="stroke:#A80036;stroke-width:1.0;"/><!--MD5=[35411cd51370eca04dbca892834cf793]
@startuml
left to right direction

Recepetionist - -> (Register)
Recepetionist - -> (UC1 - Register test to be performed)
"UC13 - Check client's test results" as (Check)
"UC3 - Register Client" as (Register)

MedicalLabTechnician - -> (UC2 - Register test)
MedicalLabTechnician - -> (UC12 - Register samples)

ChemistryTechnologist - -> (UC4 - Record test results)
ChemistryTechnologist - -> (Check)

SpecialistDoctor - -> (UC5 - Write a report about the test result)
SpecialistDoctor - -> (Check)


Administrator - -> (UC7 - Register an employee)
Administrator - -> (UC8 - Register a new clinical analysis laboratory with the type of tests it operates)
Administrator - -> (UC9 - Create new type of test and state its collecting methods)
Administrator - -> (UC10 - Create new test parameter and categorize it)
Administrator - -> (UC11 - Create new parameter category)

LaboratoryCoordinator - -> (UC6 - Validate test results)
LaboratoryCoordinator - -> (Check)


Company - -> (UC15 - Give the NHS a report on Covid-19 data)
Company - -> (UC16 - Give the NHS an accurate forecast on covid-19)

Client - -> (UC14 - Check his own test results)
@enduml

PlantUML version 1.2021.6beta2(Unknown compile time)
(GPL source distribution)
Java Runtime: Java(TM) SE Runtime Environment
JVM: Java HotSpot(TM) 64-Bit Server VM
Default Encoding: UTF-8
Language: en
Country: US
--></g></svg>