<?xml version="1.0" encoding="UTF-8" standalone="no"?><svg xmlns="http://www.w3.org/2000/svg" xmlns:xlink="http://www.w3.org/1999/xlink" contentScriptType="application/ecmascript" contentStyleType="text/css" height="456px" preserveAspectRatio="none" style="width:523px;height:456px;background:#FFFFFF;" version="1.1" viewBox="0 0 523 456" width="523px" zoomAndPan="magnify"><defs><filter height="300%" id="fmca9u5hl1s66" width="300%" x="-1" y="-1"><feGaussianBlur result="blurOut" stdDeviation="2.0"/><feColorMatrix in="blurOut" result="blurOut2" type="matrix" values="0 0 0 0 0 0 0 0 0 0 0 0 0 0 0 0 0 0 .4 0"/><feOffset dx="4.0" dy="4.0" in="blurOut2" result="blurOut3"/><feBlend in="SourceGraphic" in2="blurOut3" mode="normal"/></filter></defs><g><rect fill="#FFFFFF" filter="url(#fmca9u5hl1s66)" height="256.1953" style="stroke:#A80036;stroke-width:1.0;" width="10" x="78" y="98.2969"/><rect fill="#FFFFFF" filter="url(#fmca9u5hl1s66)" height="53.2656" style="stroke:#A80036;stroke-width:1.0;" width="10" x="456" y="119.4297"/><rect fill="#FFFFFF" filter="url(#fmca9u5hl1s66)" height="29.1328" style="stroke:#A80036;stroke-width:1.0;" width="10" x="456" y="201.8281"/><rect fill="#FFFFFF" filter="url(#fmca9u5hl1s66)" height="29.1328" style="stroke:#A80036;stroke-width:1.0;" width="10" x="456" y="260.0938"/><rect fill="#FFFFFF" filter="url(#fmca9u5hl1s66)" height="36.1328" style="stroke:#A80036;stroke-width:1.0;" width="10" x="456" y="318.3594"/><rect fill="#FFFFFF" filter="url(#fmca9u5hl1s66)" height="191.9297" style="stroke:#000000;stroke-width:2.0;" width="499.5" x="10" y="134.4297"/><line style="stroke:#A80036;stroke-width:1.0;stroke-dasharray:5.0,5.0;" x1="83" x2="83" y1="88.2969" y2="372.4922"/><line style="stroke:#A80036;stroke-width:1.0;stroke-dasharray:5.0,5.0;" x1="460.5" x2="460.5" y1="88.2969" y2="372.4922"/><text fill="#000000" font-family="sans-serif" font-size="14" lengthAdjust="spacing" textLength="120" x="20" y="84.9951">SpecialistDoctor</text><ellipse cx="83" cy="15" fill="#FEFECE" filter="url(#fmca9u5hl1s66)" rx="8" ry="8" style="stroke:#A80036;stroke-width:2.0;"/><path d="M83,23 L83,50 M70,31 L96,31 M83,50 L70,65 M83,50 L96,65 " fill="none" filter="url(#fmca9u5hl1s66)" style="stroke:#A80036;stroke-width:2.0;"/><text fill="#000000" font-family="sans-serif" font-size="14" lengthAdjust="spacing" textLength="120" x="20" y="384.4873">SpecialistDoctor</text><ellipse cx="83" cy="397.7891" fill="#FEFECE" filter="url(#fmca9u5hl1s66)" rx="8" ry="8" style="stroke:#A80036;stroke-width:2.0;"/><path d="M83,405.7891 L83,432.7891 M70,413.7891 L96,413.7891 M83,432.7891 L70,447.7891 M83,432.7891 L96,447.7891 " fill="none" filter="url(#fmca9u5hl1s66)" style="stroke:#A80036;stroke-width:2.0;"/><rect fill="#FEFECE" filter="url(#fmca9u5hl1s66)" height="30.2969" style="stroke:#A80036;stroke-width:1.5;" width="73" x="422.5" y="53"/><text fill="#000000" font-family="sans-serif" font-size="14" lengthAdjust="spacing" textLength="59" x="429.5" y="72.9951">:System</text><rect fill="#FEFECE" filter="url(#fmca9u5hl1s66)" height="30.2969" style="stroke:#A80036;stroke-width:1.5;" width="73" x="422.5" y="371.4922"/><text fill="#000000" font-family="sans-serif" font-size="14" lengthAdjust="spacing" textLength="59" x="429.5" y="391.4873">:System</text><rect fill="#FFFFFF" filter="url(#fmca9u5hl1s66)" height="256.1953" style="stroke:#A80036;stroke-width:1.0;" width="10" x="78" y="98.2969"/><rect fill="#FFFFFF" filter="url(#fmca9u5hl1s66)" height="53.2656" style="stroke:#A80036;stroke-width:1.0;" width="10" x="456" y="119.4297"/><rect fill="#FFFFFF" filter="url(#fmca9u5hl1s66)" height="29.1328" style="stroke:#A80036;stroke-width:1.0;" width="10" x="456" y="201.8281"/><rect fill="#FFFFFF" filter="url(#fmca9u5hl1s66)" height="29.1328" style="stroke:#A80036;stroke-width:1.0;" width="10" x="456" y="260.0938"/><rect fill="#FFFFFF" filter="url(#fmca9u5hl1s66)" height="36.1328" style="stroke:#A80036;stroke-width:1.0;" width="10" x="456" y="318.3594"/><polygon fill="#A80036" points="444,115.4297,454,119.4297,444,123.4297,448,119.4297" style="stroke:#A80036;stroke-width:1.0;"/><line style="stroke:#A80036;stroke-width:1.0;" x1="88" x2="450" y1="119.4297" y2="119.4297"/><text fill="#000000" font-family="sans-serif" font-size="13" font-weight="bold" lengthAdjust="spacing" textLength="9" x="95" y="114.3638">1</text><text fill="#000000" font-family="sans-serif" font-size="13" lengthAdjust="spacing" textLength="336" x="108" y="114.3638">asks to make a dignosis and write a report for a test</text><path d="M10,134.4297 L88,134.4297 L88,141.4297 L78,151.4297 L10,151.4297 L10,134.4297 " fill="#EEEEEE" style="stroke:#000000;stroke-width:1.0;"/><rect fill="none" height="191.9297" style="stroke:#000000;stroke-width:2.0;" width="499.5" x="10" y="134.4297"/><text fill="#000000" font-family="sans-serif" font-size="13" font-weight="bold" lengthAdjust="spacing" textLength="33" x="25" y="147.4966">loop</text><text fill="#000000" font-family="sans-serif" font-size="11" font-weight="bold" lengthAdjust="spacing" textLength="362" x="103" y="146.6401">[until the doctor doesn't want to analyze more tests]</text><polygon fill="#A80036" points="99,168.6953,89,172.6953,99,176.6953,95,172.6953" style="stroke:#A80036;stroke-width:1.0;"/><line style="stroke:#A80036;stroke-width:1.0;stroke-dasharray:2.0,2.0;" x1="93" x2="460" y1="172.6953" y2="172.6953"/><text fill="#000000" font-family="sans-serif" font-size="13" font-weight="bold" lengthAdjust="spacing" textLength="9" x="105" y="167.6294">2</text><text fill="#000000" font-family="sans-serif" font-size="13" lengthAdjust="spacing" textLength="235" x="118" y="167.6294">shows all tests ready to be analysed</text><polygon fill="#A80036" points="444,197.8281,454,201.8281,444,205.8281,448,201.8281" style="stroke:#A80036;stroke-width:1.0;"/><line style="stroke:#A80036;stroke-width:1.0;" x1="88" x2="450" y1="201.8281" y2="201.8281"/><text fill="#000000" font-family="sans-serif" font-size="13" font-weight="bold" lengthAdjust="spacing" textLength="8" x="95" y="196.7622">3</text><text fill="#000000" font-family="sans-serif" font-size="13" lengthAdjust="spacing" textLength="110" x="107" y="196.7622">chooses one test</text><polygon fill="#A80036" points="99,226.9609,89,230.9609,99,234.9609,95,230.9609" style="stroke:#A80036;stroke-width:1.0;"/><line style="stroke:#A80036;stroke-width:1.0;stroke-dasharray:2.0,2.0;" x1="93" x2="460" y1="230.9609" y2="230.9609"/><text fill="#000000" font-family="sans-serif" font-size="13" font-weight="bold" lengthAdjust="spacing" textLength="9" x="105" y="225.895">4</text><text fill="#000000" font-family="sans-serif" font-size="13" lengthAdjust="spacing" textLength="315" x="118" y="225.895">shows the chosen test and requests data(report)</text><polygon fill="#A80036" points="444,256.0938,454,260.0938,444,264.0938,448,260.0938" style="stroke:#A80036;stroke-width:1.0;"/><line style="stroke:#A80036;stroke-width:1.0;" x1="88" x2="450" y1="260.0938" y2="260.0938"/><text fill="#000000" font-family="sans-serif" font-size="13" font-weight="bold" lengthAdjust="spacing" textLength="9" x="95" y="255.0278">5</text><text fill="#000000" font-family="sans-serif" font-size="13" lengthAdjust="spacing" textLength="138" x="108" y="255.0278">types requested data</text><polygon fill="#A80036" points="99,285.2266,89,289.2266,99,293.2266,95,289.2266" style="stroke:#A80036;stroke-width:1.0;"/><line style="stroke:#A80036;stroke-width:1.0;stroke-dasharray:2.0,2.0;" x1="93" x2="460" y1="289.2266" y2="289.2266"/><text fill="#000000" font-family="sans-serif" font-size="13" font-weight="bold" lengthAdjust="spacing" textLength="9" x="105" y="284.1606">6</text><text fill="#000000" font-family="sans-serif" font-size="13" lengthAdjust="spacing" textLength="284" x="118" y="284.1606">shows the data and requests a confirmation</text><polygon fill="#A80036" points="444,314.3594,454,318.3594,444,322.3594,448,318.3594" style="stroke:#A80036;stroke-width:1.0;"/><line style="stroke:#A80036;stroke-width:1.0;" x1="88" x2="450" y1="318.3594" y2="318.3594"/><text fill="#000000" font-family="sans-serif" font-size="13" font-weight="bold" lengthAdjust="spacing" textLength="9" x="95" y="313.2935">7</text><text fill="#000000" font-family="sans-serif" font-size="13" lengthAdjust="spacing" textLength="114" x="108" y="313.2935">confirms the data</text><polygon fill="#A80036" points="94,350.4922,84,354.4922,94,358.4922,90,354.4922" style="stroke:#A80036;stroke-width:1.0;"/><line style="stroke:#A80036;stroke-width:1.0;stroke-dasharray:2.0,2.0;" x1="88" x2="460" y1="354.4922" y2="354.4922"/><text fill="#000000" font-family="sans-serif" font-size="13" font-weight="bold" lengthAdjust="spacing" textLength="9" x="100" y="349.4263">8</text><text fill="#000000" font-family="sans-serif" font-size="13" lengthAdjust="spacing" textLength="169" x="113" y="349.4263">informs operation success</text><!--MD5=[8463f35e8ff396b262adfb60ab6f2541]
@startuml
autonumber
actor "SpecialistDoctor" as SD

activate SD
SD-> ":System" : asks to make a dignosis and write a report for a test
activate ":System"
loop until the doctor doesn't want to analyze more tests
":System" - -> SD: shows all tests ready to be analysed
deactivate ":System"


SD-> ":System" : chooses one test
activate ":System"
":System" - -> SD: shows the chosen test and requests data(report)
deactivate ":System"

SD-> ":System" : types requested data 
activate ":System"
":System" - -> SD: shows the data and requests a confirmation
deactivate ":System"

SD-> ":System" : confirms the data
activate ":System"
end
":System" - -> SD: informs operation success
deactivate ":System"

deactivate SD
@enduml

PlantUML version 1.2021.7(Sun May 23 12:40:07 UTC 2021)
(GPL source distribution)
Java Runtime: Java(TM) SE Runtime Environment
JVM: Java HotSpot(TM) 64-Bit Server VM
Default Encoding: UTF-8
Language: en
Country: US
--></g></svg>