<?xml version="1.0" encoding="UTF-8" standalone="no"?><svg xmlns="http://www.w3.org/2000/svg" xmlns:xlink="http://www.w3.org/1999/xlink" contentScriptType="application/ecmascript" contentStyleType="text/css" height="1165px" preserveAspectRatio="none" style="width:581px;height:1165px;background:#FFFFFF;" version="1.1" viewBox="0 0 581 1165" width="581px" zoomAndPan="magnify"><defs><filter height="300%" id="f1sssgw1g1j9i3" width="300%" x="-1" y="-1"><feGaussianBlur result="blurOut" stdDeviation="2.0"/><feColorMatrix in="blurOut" result="blurOut2" type="matrix" values="0 0 0 0 0 0 0 0 0 0 0 0 0 0 0 0 0 0 .4 0"/><feOffset dx="4.0" dy="4.0" in="blurOut2" result="blurOut3"/><feBlend in="SourceGraphic" in2="blurOut3" mode="normal"/></filter></defs><g><!--MD5=[02e4b9b7573f1156f41e60aa5b4e25a4]
class Company--><rect codeLine="1" fill="#FEFECE" filter="url(#f1sssgw1g1j9i3)" height="60.8047" id="Company" style="stroke:#A80036;stroke-width:1.5;" width="88" x="340.2364" y="7"/><ellipse cx="355.2364" cy="23" fill="#ADD1B2" rx="11" ry="11" style="stroke:#A80036;stroke-width:1.0;"/><path d="M357.5802,18.6719 C356.6427,18.2344 356.0489,18.0938 355.1739,18.0938 C352.5489,18.0938 350.5489,20.1719 350.5489,22.8906 L350.5489,24.0156 C350.5489,26.5938 352.6583,28.4844 355.5489,28.4844 C356.7677,28.4844 357.9239,28.1875 358.6739,27.6406 C359.252,27.2344 359.5802,26.7813 359.5802,26.3906 C359.5802,25.9375 359.1895,25.5469 358.7208,25.5469 C358.502,25.5469 358.2989,25.625 358.1114,25.8125 C357.6583,26.2969 357.6583,26.2969 357.4708,26.3906 C357.0489,26.6563 356.3614,26.7813 355.5958,26.7813 C353.5489,26.7813 352.252,25.6875 352.252,23.9844 L352.252,22.8906 C352.252,21.1094 353.502,19.7969 355.2364,19.7969 C355.8145,19.7969 356.4239,19.9531 356.8927,20.2031 C357.377,20.4844 357.5489,20.7031 357.6427,21.1094 C357.7052,21.5156 357.7364,21.6406 357.877,21.7656 C358.0177,21.9063 358.252,22.0156 358.4708,22.0156 C358.7364,22.0156 359.002,21.875 359.1739,21.6563 C359.2833,21.5 359.3145,21.3125 359.3145,20.8906 L359.3145,19.4688 C359.3145,19.0313 359.2989,18.9063 359.2052,18.75 C359.0489,18.4844 358.7677,18.3438 358.4708,18.3438 C358.1739,18.3438 357.9708,18.4375 357.752,18.75 L357.5802,18.6719 Z " fill="#000000"/><text fill="#000000" font-family="sans-serif" font-size="12" lengthAdjust="spacing" textLength="56" x="369.2364" y="27.1543">Company</text><line style="stroke:#A80036;stroke-width:1.5;" x1="341.2364" x2="427.2364" y1="39" y2="39"/><text fill="#000000" font-family="sans-serif" font-size="11" lengthAdjust="spacing" textLength="70" x="346.2364" y="53.2104">-designation</text><line style="stroke:#A80036;stroke-width:1.5;" x1="341.2364" x2="427.2364" y1="59.8047" y2="59.8047"/><!--MD5=[da547346deef918ea16944ba046651ef]
class Administrator--><rect codeLine="5" fill="#FEFECE" filter="url(#f1sssgw1g1j9i3)" height="137.6328" id="Administrator" style="stroke:#A80036;stroke-width:1.5;" width="236" x="266.2364" y="145"/><ellipse cx="339.9864" cy="161" fill="#ADD1B2" rx="11" ry="11" style="stroke:#A80036;stroke-width:1.0;"/><path d="M342.3302,156.6719 C341.3927,156.2344 340.7989,156.0938 339.9239,156.0938 C337.2989,156.0938 335.2989,158.1719 335.2989,160.8906 L335.2989,162.0156 C335.2989,164.5938 337.4083,166.4844 340.2989,166.4844 C341.5177,166.4844 342.6739,166.1875 343.4239,165.6406 C344.002,165.2344 344.3302,164.7813 344.3302,164.3906 C344.3302,163.9375 343.9395,163.5469 343.4708,163.5469 C343.252,163.5469 343.0489,163.625 342.8614,163.8125 C342.4083,164.2969 342.4083,164.2969 342.2208,164.3906 C341.7989,164.6563 341.1114,164.7813 340.3458,164.7813 C338.2989,164.7813 337.002,163.6875 337.002,161.9844 L337.002,160.8906 C337.002,159.1094 338.252,157.7969 339.9864,157.7969 C340.5645,157.7969 341.1739,157.9531 341.6427,158.2031 C342.127,158.4844 342.2989,158.7031 342.3927,159.1094 C342.4552,159.5156 342.4864,159.6406 342.627,159.7656 C342.7677,159.9063 343.002,160.0156 343.2208,160.0156 C343.4864,160.0156 343.752,159.875 343.9239,159.6563 C344.0333,159.5 344.0645,159.3125 344.0645,158.8906 L344.0645,157.4688 C344.0645,157.0313 344.0489,156.9063 343.9552,156.75 C343.7989,156.4844 343.5177,156.3438 343.2208,156.3438 C342.9239,156.3438 342.7208,156.4375 342.502,156.75 L342.3302,156.6719 Z " fill="#000000"/><text fill="#000000" font-family="sans-serif" font-size="12" lengthAdjust="spacing" textLength="80" x="360.4864" y="165.1543">Administrator</text><line style="stroke:#A80036;stroke-width:1.5;" x1="267.2364" x2="501.2364" y1="177" y2="177"/><text fill="#000000" font-family="sans-serif" font-size="11" lengthAdjust="spacing" textLength="75" x="272.2364" y="191.2104">-employeeID</text><text fill="#000000" font-family="sans-serif" font-size="11" lengthAdjust="spacing" textLength="99" x="272.2364" y="204.0151">-organizationRole</text><text fill="#000000" font-family="sans-serif" font-size="11" lengthAdjust="spacing" textLength="37" x="272.2364" y="216.8198">-name</text><text fill="#000000" font-family="sans-serif" font-size="11" lengthAdjust="spacing" textLength="49" x="272.2364" y="229.6245">-address</text><text fill="#000000" font-family="sans-serif" font-size="11" lengthAdjust="spacing" textLength="85" x="272.2364" y="242.4292">-phoneNumber</text><text fill="#000000" font-family="sans-serif" font-size="11" lengthAdjust="spacing" textLength="34" x="272.2364" y="255.2339">-eMail</text><text fill="#000000" font-family="sans-serif" font-size="11" lengthAdjust="spacing" textLength="224" x="272.2364" y="268.0386">-standardOcupationalClassificationCode</text><line style="stroke:#A80036;stroke-width:1.5;" x1="267.2364" x2="501.2364" y1="274.6328" y2="274.6328"/><!--MD5=[371a79cf93e6b0f3b7c16edd206e96ed]
class ClinicalChemistTechnologist--><rect codeLine="15" fill="#FEFECE" filter="url(#f1sssgw1g1j9i3)" height="137.6328" id="ClinicalChemistTechnologist" style="stroke:#A80036;stroke-width:1.5;" width="236" x="117.2368" y="876"/><ellipse cx="149.3368" cy="892" fill="#ADD1B2" rx="11" ry="11" style="stroke:#A80036;stroke-width:1.0;"/><path d="M151.6806,887.6719 C150.7431,887.2344 150.1493,887.0938 149.2743,887.0938 C146.6493,887.0938 144.6493,889.1719 144.6493,891.8906 L144.6493,893.0156 C144.6493,895.5938 146.7587,897.4844 149.6493,897.4844 C150.8681,897.4844 152.0243,897.1875 152.7743,896.6406 C153.3524,896.2344 153.6806,895.7813 153.6806,895.3906 C153.6806,894.9375 153.2899,894.5469 152.8212,894.5469 C152.6024,894.5469 152.3993,894.625 152.2118,894.8125 C151.7587,895.2969 151.7587,895.2969 151.5712,895.3906 C151.1493,895.6563 150.4618,895.7813 149.6962,895.7813 C147.6493,895.7813 146.3524,894.6875 146.3524,892.9844 L146.3524,891.8906 C146.3524,890.1094 147.6024,888.7969 149.3368,888.7969 C149.9149,888.7969 150.5243,888.9531 150.9931,889.2031 C151.4774,889.4844 151.6493,889.7031 151.7431,890.1094 C151.8056,890.5156 151.8368,890.6406 151.9774,890.7656 C152.1181,890.9063 152.3524,891.0156 152.5712,891.0156 C152.8368,891.0156 153.1024,890.875 153.2743,890.6563 C153.3837,890.5 153.4149,890.3125 153.4149,889.8906 L153.4149,888.4688 C153.4149,888.0313 153.3993,887.9063 153.3056,887.75 C153.1493,887.4844 152.8681,887.3438 152.5712,887.3438 C152.2743,887.3438 152.0712,887.4375 151.8524,887.75 L151.6806,887.6719 Z " fill="#000000"/><text fill="#000000" font-family="sans-serif" font-size="12" lengthAdjust="spacing" textLength="166" x="167.1368" y="896.1543">ClinicalChemistTechnologist</text><line style="stroke:#A80036;stroke-width:1.5;" x1="118.2368" x2="352.2368" y1="908" y2="908"/><text fill="#000000" font-family="sans-serif" font-size="11" lengthAdjust="spacing" textLength="75" x="123.2368" y="922.2104">-employeeID</text><text fill="#000000" font-family="sans-serif" font-size="11" lengthAdjust="spacing" textLength="99" x="123.2368" y="935.0151">-organizationRole</text><text fill="#000000" font-family="sans-serif" font-size="11" lengthAdjust="spacing" textLength="37" x="123.2368" y="947.8198">-name</text><text fill="#000000" font-family="sans-serif" font-size="11" lengthAdjust="spacing" textLength="49" x="123.2368" y="960.6245">-address</text><text fill="#000000" font-family="sans-serif" font-size="11" lengthAdjust="spacing" textLength="85" x="123.2368" y="973.4292">-phoneNumber</text><text fill="#000000" font-family="sans-serif" font-size="11" lengthAdjust="spacing" textLength="34" x="123.2368" y="986.2339">-eMail</text><text fill="#000000" font-family="sans-serif" font-size="11" lengthAdjust="spacing" textLength="224" x="123.2368" y="999.0386">-standardOcupationalClassificationCode</text><line style="stroke:#A80036;stroke-width:1.5;" x1="118.2368" x2="352.2368" y1="1005.6328" y2="1005.6328"/><!--MD5=[7d96fd15f3014691d2fcaf89c5791e2a]
class SpecialistDoctor--><rect codeLine="24" fill="#FEFECE" filter="url(#f1sssgw1g1j9i3)" height="137.6328" id="SpecialistDoctor" style="stroke:#A80036;stroke-width:1.5;" width="236" x="266.2364" y="360"/><ellipse cx="330.4864" cy="376" fill="#ADD1B2" rx="11" ry="11" style="stroke:#A80036;stroke-width:1.0;"/><path d="M332.8302,371.6719 C331.8927,371.2344 331.2989,371.0938 330.4239,371.0938 C327.7989,371.0938 325.7989,373.1719 325.7989,375.8906 L325.7989,377.0156 C325.7989,379.5938 327.9083,381.4844 330.7989,381.4844 C332.0177,381.4844 333.1739,381.1875 333.9239,380.6406 C334.502,380.2344 334.8302,379.7813 334.8302,379.3906 C334.8302,378.9375 334.4395,378.5469 333.9708,378.5469 C333.752,378.5469 333.5489,378.625 333.3614,378.8125 C332.9083,379.2969 332.9083,379.2969 332.7208,379.3906 C332.2989,379.6563 331.6114,379.7813 330.8458,379.7813 C328.7989,379.7813 327.502,378.6875 327.502,376.9844 L327.502,375.8906 C327.502,374.1094 328.752,372.7969 330.4864,372.7969 C331.0645,372.7969 331.6739,372.9531 332.1427,373.2031 C332.627,373.4844 332.7989,373.7031 332.8927,374.1094 C332.9552,374.5156 332.9864,374.6406 333.127,374.7656 C333.2677,374.9063 333.502,375.0156 333.7208,375.0156 C333.9864,375.0156 334.252,374.875 334.4239,374.6563 C334.5333,374.5 334.5645,374.3125 334.5645,373.8906 L334.5645,372.4688 C334.5645,372.0313 334.5489,371.9063 334.4552,371.75 C334.2989,371.4844 334.0177,371.3438 333.7208,371.3438 C333.4239,371.3438 333.2208,371.4375 333.002,371.75 L332.8302,371.6719 Z " fill="#000000"/><text fill="#000000" font-family="sans-serif" font-size="12" lengthAdjust="spacing" textLength="99" x="350.9864" y="380.1543">SpecialistDoctor</text><line style="stroke:#A80036;stroke-width:1.5;" x1="267.2364" x2="501.2364" y1="392" y2="392"/><text fill="#000000" font-family="sans-serif" font-size="11" lengthAdjust="spacing" textLength="75" x="272.2364" y="406.2104">-employeeID</text><text fill="#000000" font-family="sans-serif" font-size="11" lengthAdjust="spacing" textLength="99" x="272.2364" y="419.0151">-organizationRole</text><text fill="#000000" font-family="sans-serif" font-size="11" lengthAdjust="spacing" textLength="37" x="272.2364" y="431.8198">-name</text><text fill="#000000" font-family="sans-serif" font-size="11" lengthAdjust="spacing" textLength="49" x="272.2364" y="444.6245">-address</text><text fill="#000000" font-family="sans-serif" font-size="11" lengthAdjust="spacing" textLength="85" x="272.2364" y="457.4292">-phoneNumber</text><text fill="#000000" font-family="sans-serif" font-size="11" lengthAdjust="spacing" textLength="34" x="272.2364" y="470.2339">-eMail</text><text fill="#000000" font-family="sans-serif" font-size="11" lengthAdjust="spacing" textLength="224" x="272.2364" y="483.0386">-standardOcupationalClassificationCode</text><line style="stroke:#A80036;stroke-width:1.5;" x1="267.2364" x2="501.2364" y1="489.6328" y2="489.6328"/><!--MD5=[f00dbe8c0302c6aec2cb26b3c659c8fc]
class Report--><rect codeLine="34" fill="#FEFECE" filter="url(#f1sssgw1g1j9i3)" height="60.8047" id="Report" style="stroke:#A80036;stroke-width:1.5;" width="83" x="392.7364" y="1091"/><ellipse cx="412.6864" cy="1107" fill="#ADD1B2" rx="11" ry="11" style="stroke:#A80036;stroke-width:1.0;"/><path d="M415.0302,1102.6719 C414.0927,1102.2344 413.4989,1102.0938 412.6239,1102.0938 C409.9989,1102.0938 407.9989,1104.1719 407.9989,1106.8906 L407.9989,1108.0156 C407.9989,1110.5938 410.1083,1112.4844 412.9989,1112.4844 C414.2177,1112.4844 415.3739,1112.1875 416.1239,1111.6406 C416.702,1111.2344 417.0302,1110.7813 417.0302,1110.3906 C417.0302,1109.9375 416.6395,1109.5469 416.1708,1109.5469 C415.952,1109.5469 415.7489,1109.625 415.5614,1109.8125 C415.1083,1110.2969 415.1083,1110.2969 414.9208,1110.3906 C414.4989,1110.6563 413.8114,1110.7813 413.0458,1110.7813 C410.9989,1110.7813 409.702,1109.6875 409.702,1107.9844 L409.702,1106.8906 C409.702,1105.1094 410.952,1103.7969 412.6864,1103.7969 C413.2645,1103.7969 413.8739,1103.9531 414.3427,1104.2031 C414.827,1104.4844 414.9989,1104.7031 415.0927,1105.1094 C415.1552,1105.5156 415.1864,1105.6406 415.327,1105.7656 C415.4677,1105.9063 415.702,1106.0156 415.9208,1106.0156 C416.1864,1106.0156 416.452,1105.875 416.6239,1105.6563 C416.7333,1105.5 416.7645,1105.3125 416.7645,1104.8906 L416.7645,1103.4688 C416.7645,1103.0313 416.7489,1102.9063 416.6552,1102.75 C416.4989,1102.4844 416.2177,1102.3438 415.9208,1102.3438 C415.6239,1102.3438 415.4208,1102.4375 415.202,1102.75 L415.0302,1102.6719 Z " fill="#000000"/><text fill="#000000" font-family="sans-serif" font-size="12" lengthAdjust="spacing" textLength="40" x="427.7864" y="1111.1543">Report</text><line style="stroke:#A80036;stroke-width:1.5;" x1="393.7364" x2="474.7364" y1="1123" y2="1123"/><text fill="#000000" font-family="sans-serif" font-size="11" lengthAdjust="spacing" textLength="71" x="398.7364" y="1137.2104">-bodyOfText</text><line style="stroke:#A80036;stroke-width:1.5;" x1="393.7364" x2="474.7364" y1="1143.8047" y2="1143.8047"/><!--MD5=[df38be88ccee13e832d6fafd6288a4ca]
class Test--><rect codeLine="38" fill="#FEFECE" filter="url(#f1sssgw1g1j9i3)" height="86.4141" id="Test" style="stroke:#A80036;stroke-width:1.5;" width="68" x="194.2364" y="575"/><ellipse cx="213.7364" cy="591" fill="#ADD1B2" rx="11" ry="11" style="stroke:#A80036;stroke-width:1.0;"/><path d="M216.0802,586.6719 C215.1427,586.2344 214.5489,586.0938 213.6739,586.0938 C211.0489,586.0938 209.0489,588.1719 209.0489,590.8906 L209.0489,592.0156 C209.0489,594.5938 211.1583,596.4844 214.0489,596.4844 C215.2677,596.4844 216.4239,596.1875 217.1739,595.6406 C217.752,595.2344 218.0802,594.7813 218.0802,594.3906 C218.0802,593.9375 217.6895,593.5469 217.2208,593.5469 C217.002,593.5469 216.7989,593.625 216.6114,593.8125 C216.1583,594.2969 216.1583,594.2969 215.9708,594.3906 C215.5489,594.6563 214.8614,594.7813 214.0958,594.7813 C212.0489,594.7813 210.752,593.6875 210.752,591.9844 L210.752,590.8906 C210.752,589.1094 212.002,587.7969 213.7364,587.7969 C214.3145,587.7969 214.9239,587.9531 215.3927,588.2031 C215.877,588.4844 216.0489,588.7031 216.1427,589.1094 C216.2052,589.5156 216.2364,589.6406 216.377,589.7656 C216.5177,589.9063 216.752,590.0156 216.9708,590.0156 C217.2364,590.0156 217.502,589.875 217.6739,589.6563 C217.7833,589.5 217.8145,589.3125 217.8145,588.8906 L217.8145,587.4688 C217.8145,587.0313 217.7989,586.9063 217.7052,586.75 C217.5489,586.4844 217.2677,586.3438 216.9708,586.3438 C216.6739,586.3438 216.4708,586.4375 216.252,586.75 L216.0802,586.6719 Z " fill="#000000"/><text fill="#000000" font-family="sans-serif" font-size="12" lengthAdjust="spacing" textLength="26" x="228.7364" y="595.1543">Test</text><line style="stroke:#A80036;stroke-width:1.5;" x1="195.2364" x2="261.2364" y1="607" y2="607"/><text fill="#000000" font-family="sans-serif" font-size="11" lengthAdjust="spacing" textLength="56" x="200.2364" y="621.2104">-testCode</text><text fill="#000000" font-family="sans-serif" font-size="11" lengthAdjust="spacing" textLength="54" x="200.2364" y="634.0151">-nhsCode</text><text fill="#000000" font-family="sans-serif" font-size="11" lengthAdjust="spacing" textLength="36" x="200.2364" y="646.8198">-dates</text><line style="stroke:#A80036;stroke-width:1.5;" x1="195.2364" x2="261.2364" y1="653.4141" y2="653.4141"/><!--MD5=[5e6ae5ca2322ea7d8c17b0187d1bbc44]
class TestResults--><rect codeLine="44" fill="#FEFECE" filter="url(#f1sssgw1g1j9i3)" height="60.8047" id="TestResults" style="stroke:#A80036;stroke-width:1.5;" width="117" x="176.7364" y="738"/><ellipse cx="198.9364" cy="754" fill="#ADD1B2" rx="11" ry="11" style="stroke:#A80036;stroke-width:1.0;"/><path d="M201.2802,749.6719 C200.3427,749.2344 199.7489,749.0938 198.8739,749.0938 C196.2489,749.0938 194.2489,751.1719 194.2489,753.8906 L194.2489,755.0156 C194.2489,757.5938 196.3583,759.4844 199.2489,759.4844 C200.4677,759.4844 201.6239,759.1875 202.3739,758.6406 C202.952,758.2344 203.2802,757.7813 203.2802,757.3906 C203.2802,756.9375 202.8895,756.5469 202.4208,756.5469 C202.202,756.5469 201.9989,756.625 201.8114,756.8125 C201.3583,757.2969 201.3583,757.2969 201.1708,757.3906 C200.7489,757.6563 200.0614,757.7813 199.2958,757.7813 C197.2489,757.7813 195.952,756.6875 195.952,754.9844 L195.952,753.8906 C195.952,752.1094 197.202,750.7969 198.9364,750.7969 C199.5145,750.7969 200.1239,750.9531 200.5927,751.2031 C201.077,751.4844 201.2489,751.7031 201.3427,752.1094 C201.4052,752.5156 201.4364,752.6406 201.577,752.7656 C201.7177,752.9063 201.952,753.0156 202.1708,753.0156 C202.4364,753.0156 202.702,752.875 202.8739,752.6563 C202.9833,752.5 203.0145,752.3125 203.0145,751.8906 L203.0145,750.4688 C203.0145,750.0313 202.9989,749.9063 202.9052,749.75 C202.7489,749.4844 202.4677,749.3438 202.1708,749.3438 C201.8739,749.3438 201.6708,749.4375 201.452,749.75 L201.2802,749.6719 Z " fill="#000000"/><text fill="#000000" font-family="sans-serif" font-size="12" lengthAdjust="spacing" textLength="69" x="214.5364" y="758.1543">TestResults</text><line style="stroke:#A80036;stroke-width:1.5;" x1="177.7364" x2="292.7364" y1="770" y2="770"/><text fill="#000000" font-family="sans-serif" font-size="11" lengthAdjust="spacing" textLength="105" x="182.7364" y="784.2104">-parameterResults</text><line style="stroke:#A80036;stroke-width:1.5;" x1="177.7364" x2="292.7364" y1="790.8047" y2="790.8047"/><!--MD5=[10d06bcee75aaf74ab8f6040820ceef2]
class Diagnosis--><rect fill="#FEFECE" filter="url(#f1sssgw1g1j9i3)" height="48" id="Diagnosis" style="stroke:#A80036;stroke-width:1.5;" width="91" x="388.7364" y="921"/><ellipse cx="403.7364" cy="937" fill="#ADD1B2" rx="11" ry="11" style="stroke:#A80036;stroke-width:1.0;"/><path d="M406.0802,932.6719 C405.1427,932.2344 404.5489,932.0938 403.6739,932.0938 C401.0489,932.0938 399.0489,934.1719 399.0489,936.8906 L399.0489,938.0156 C399.0489,940.5938 401.1583,942.4844 404.0489,942.4844 C405.2677,942.4844 406.4239,942.1875 407.1739,941.6406 C407.752,941.2344 408.0802,940.7813 408.0802,940.3906 C408.0802,939.9375 407.6895,939.5469 407.2208,939.5469 C407.002,939.5469 406.7989,939.625 406.6114,939.8125 C406.1583,940.2969 406.1583,940.2969 405.9708,940.3906 C405.5489,940.6563 404.8614,940.7813 404.0958,940.7813 C402.0489,940.7813 400.752,939.6875 400.752,937.9844 L400.752,936.8906 C400.752,935.1094 402.002,933.7969 403.7364,933.7969 C404.3145,933.7969 404.9239,933.9531 405.3927,934.2031 C405.877,934.4844 406.0489,934.7031 406.1427,935.1094 C406.2052,935.5156 406.2364,935.6406 406.377,935.7656 C406.5177,935.9063 406.752,936.0156 406.9708,936.0156 C407.2364,936.0156 407.502,935.875 407.6739,935.6563 C407.7833,935.5 407.8145,935.3125 407.8145,934.8906 L407.8145,933.4688 C407.8145,933.0313 407.7989,932.9063 407.7052,932.75 C407.5489,932.4844 407.2677,932.3438 406.9708,932.3438 C406.6739,932.3438 406.4708,932.4375 406.252,932.75 L406.0802,932.6719 Z " fill="#000000"/><text fill="#000000" font-family="sans-serif" font-size="12" lengthAdjust="spacing" textLength="59" x="417.7364" y="941.1543">Diagnosis</text><line style="stroke:#A80036;stroke-width:1.5;" x1="389.7364" x2="478.7364" y1="953" y2="953"/><line style="stroke:#A80036;stroke-width:1.5;" x1="389.7364" x2="478.7364" y1="961" y2="961"/><!--MD5=[faf5152e1cff85ecceb53a0e430bfe48]
link Test to TestResults--><path codeLine="48" d="M230.2244,661.157 C231.2944,683.861 232.5984,711.522 233.6074,732.942 " fill="none" id="Test-to-TestResults" style="stroke:#A80036;stroke-width:1.0;"/><polygon fill="#A80036" points="233.8444,737.967,237.4157,728.7884,233.6087,732.9726,229.4245,729.1656,233.8444,737.967" style="stroke:#A80036;stroke-width:1.0;"/><text fill="#000000" font-family="sans-serif" font-size="13" lengthAdjust="spacing" textLength="54" x="234.2364" y="704.0669">contains</text><text fill="#000000" font-family="sans-serif" font-size="13" lengthAdjust="spacing" textLength="8" x="221.8912" y="681.5907">1</text><text fill="#000000" font-family="sans-serif" font-size="13" lengthAdjust="spacing" textLength="7" x="225.7743" y="726.7501">*</text><!--MD5=[314a253aad72a26024b6c8da1dd928d1]
link SpecialistDoctor to Test--><path codeLine="49" d="M265.9294,497.025 C256.0774,506.359 247.2324,516.682 240.2364,528 C232.6434,540.284 228.9744,555.33 227.3834,569.531 " fill="none" id="SpecialistDoctor-to-Test" style="stroke:#A80036;stroke-width:1.0;"/><polygon fill="#A80036" points="226.8884,574.718,231.7266,566.1394,227.3641,569.7407,223.7629,565.3782,226.8884,574.718" style="stroke:#A80036;stroke-width:1.0;"/><text fill="#000000" font-family="sans-serif" font-size="13" lengthAdjust="spacing" textLength="64" x="241.2364" y="541.0669">can check</text><text fill="#000000" font-family="sans-serif" font-size="13" lengthAdjust="spacing" textLength="8" x="250.0941" y="497.9853">1</text><text fill="#000000" font-family="sans-serif" font-size="13" lengthAdjust="spacing" textLength="7" x="219.1461" y="563.9874">*</text><!--MD5=[50424c5ff64a87835a3f4dba1db2c883]
reverse link Diagnosis to Report--><path codeLine="50" d="M434.2364,974.526 C434.2364,1006.559 434.2364,1058.3008 434.2364,1090.8042 " fill="none" id="Diagnosis-backto-Report" style="stroke:#A80036;stroke-width:1.0;"/><polygon fill="#A80036" points="434.2364,969.172,430.2364,978.172,434.2364,974.172,438.2364,978.172,434.2364,969.172" style="stroke:#A80036;stroke-width:1.0;"/><text fill="#000000" font-family="sans-serif" font-size="13" lengthAdjust="spacing" textLength="54" x="435.2364" y="1057.0669">contains</text><text fill="#000000" font-family="sans-serif" font-size="13" lengthAdjust="spacing" textLength="8" x="425.2614" y="988.9751">1</text><text fill="#000000" font-family="sans-serif" font-size="13" lengthAdjust="spacing" textLength="8" x="425.4114" y="1080.027">1</text><!--MD5=[e5130ffff11de51b8d2878a0a724816b]
link Administrator to SpecialistDoctor--><path codeLine="51" d="M384.2364,283.273 C384.2364,306.012 384.2364,331.431 384.2364,354.545 " fill="none" id="Administrator-to-SpecialistDoctor" style="stroke:#A80036;stroke-width:1.0;"/><polygon fill="#A80036" points="384.2364,359.748,388.2364,350.748,384.2364,354.748,380.2364,350.748,384.2364,359.748" style="stroke:#A80036;stroke-width:1.0;"/><text fill="#000000" font-family="sans-serif" font-size="13" lengthAdjust="spacing" textLength="56" x="385.2364" y="326.0669">registers</text><text fill="#000000" font-family="sans-serif" font-size="13" lengthAdjust="spacing" textLength="8" x="375.8552" y="302.6811">1</text><text fill="#000000" font-family="sans-serif" font-size="13" lengthAdjust="spacing" textLength="7" x="376.8755" y="348.9256">*</text><!--MD5=[cd338187eb4caa6e8a540c01e5ca8adb]
reverse link TestResults to ClinicalChemistTechnologist--><path codeLine="52" d="M235.2364,804.167 C235.2364,824.632 235.2364,851.253 235.2364,875.768 " fill="none" id="TestResults-backto-ClinicalChemistTechnologist" style="stroke:#A80036;stroke-width:1.0;"/><polygon fill="#A80036" points="235.2364,799.102,231.2364,808.102,235.2364,804.102,239.2364,808.102,235.2364,799.102" style="stroke:#A80036;stroke-width:1.0;"/><text fill="#000000" font-family="sans-serif" font-size="13" lengthAdjust="spacing" textLength="59" x="236.2364" y="842.0669">produces</text><text fill="#000000" font-family="sans-serif" font-size="13" lengthAdjust="spacing" textLength="7" x="227.5145" y="819.0613">*</text><text fill="#000000" font-family="sans-serif" font-size="13" lengthAdjust="spacing" textLength="8" x="226.8239" y="864.9477">1</text><!--MD5=[b49e42cafe8eb2e974897e6c33ae447b]
reverse link TestResults to SpecialistDoctor--><path codeLine="53" d="M276.1804,733.963 C283.9864,726.086 291.4974,717.264 297.2364,708 C337.7184,642.654 360.7994,556.9 372.8714,498.01 " fill="none" id="TestResults-backto-SpecialistDoctor" style="stroke:#A80036;stroke-width:1.0;"/><polygon fill="#A80036" points="272.3314,737.752,281.5514,734.289,275.8947,734.2444,275.9392,728.5877,272.3314,737.752" style="stroke:#A80036;stroke-width:1.0;"/><text fill="#000000" font-family="sans-serif" font-size="13" lengthAdjust="spacing" textLength="50" x="354.2364" y="622.5669">reviews</text><text fill="#000000" font-family="sans-serif" font-size="13" lengthAdjust="spacing" textLength="7" x="272.2604" y="726.9641">*</text><text fill="#000000" font-family="sans-serif" font-size="13" lengthAdjust="spacing" textLength="8" x="363.3589" y="517.633">1</text><!--MD5=[0d5ea959d23f129ef827e28702304be9]
reverse link Report to SpecialistDoctor--><path codeLine="54" d="M476.5784,1087.1674 C484.6304,1079.2763 492.3634,1070.3974 498.2364,1061 C526.5534,1015.696 533.2364,999.426 533.2364,946 C533.2364,617 533.2364,617 533.2364,617 C533.2364,571.131 505.4764,530.019 473.9204,498.103 " fill="none" id="Report-backto-SpecialistDoctor" style="stroke:#A80036;stroke-width:1.0;"/><polygon fill="#A80036" points="472.6064,1090.9599,481.8781,1087.638,476.2228,1087.5071,476.3536,1081.8518,472.6064,1090.9599" style="stroke:#A80036;stroke-width:1.0;"/><text fill="#000000" font-family="sans-serif" font-size="13" lengthAdjust="spacing" textLength="39" x="534.2364" y="773.0669">writes</text><text fill="#000000" font-family="sans-serif" font-size="13" lengthAdjust="spacing" textLength="7" x="473.2342" y="1079.7414">*</text><text fill="#000000" font-family="sans-serif" font-size="13" lengthAdjust="spacing" textLength="8" x="474.3549" y="517.7351">1</text><!--MD5=[281adf2a79a4f08303afdaadf5b6fddb]
reverse link Diagnosis to SpecialistDoctor--><path codeLine="55" d="M433.9774,915.563 C433.1134,853.489 429.3784,701.292 413.2364,575 C410.0144,549.79 404.9474,522.393 399.9444,498.271 " fill="none" id="Diagnosis-backto-SpecialistDoctor" style="stroke:#A80036;stroke-width:1.0;"/><polygon fill="#A80036" points="434.0434,920.582,437.9248,911.5302,433.9777,915.5824,429.9255,911.6353,434.0434,920.582" style="stroke:#A80036;stroke-width:1.0;"/><text fill="#000000" font-family="sans-serif" font-size="13" lengthAdjust="spacing" textLength="59" x="427.2364" y="704.0669">performs</text><text fill="#000000" font-family="sans-serif" font-size="13" lengthAdjust="spacing" textLength="7" x="426.1432" y="909.8851">*</text><text fill="#000000" font-family="sans-serif" font-size="13" lengthAdjust="spacing" textLength="8" x="393.0603" y="517.679">1</text><!--MD5=[e20cf370ddc2b1ec2ca5c1d1877380c6]
reverse link TestResults to Report--><path codeLine="56" d="M171.5584,786.199 C127.0204,801.57 70.7627,829.255 43.2368,876 C12.1155,928.851 6,965.264 43.2368,1014 C85.9509,1069.9046 300.5714,1103.4607 392.4244,1115.4664 " fill="none" id="TestResults-backto-Report" style="stroke:#A80036;stroke-width:1.0;"/><polygon fill="#A80036" points="176.3784,784.567,166.5711,783.6635,171.6423,786.17,169.1358,791.2412,176.3784,784.567" style="stroke:#A80036;stroke-width:1.0;"/><text fill="#000000" font-family="sans-serif" font-size="13" lengthAdjust="spacing" textLength="54" x="44.2368" y="949.5669">contains</text><text fill="#000000" font-family="sans-serif" font-size="13" lengthAdjust="spacing" textLength="8" x="160.7176" y="782.698">1</text><text fill="#000000" font-family="sans-serif" font-size="13" lengthAdjust="spacing" textLength="8" x="376.8368" y="1110.319">1</text><!--MD5=[57e67419d38b144e3b26184e223c2ab7]
reverse link TestResults to Diagnosis--><path codeLine="57" d="M280.0404,802.205 C306.9854,822.511 341.5114,849.676 370.2364,876 C385.6554,890.13 401.7854,907.286 413.9954,920.831 " fill="none" id="TestResults-backto-Diagnosis" style="stroke:#A80036;stroke-width:1.0;"/><polygon fill="#A80036" points="275.7834,799.006,280.5746,807.6109,279.7803,802.0101,285.3811,801.2159,275.7834,799.006" style="stroke:#A80036;stroke-width:1.0;"/><text fill="#000000" font-family="sans-serif" font-size="13" lengthAdjust="spacing" textLength="13" x="336.2364" y="842.0669">to</text><text fill="#000000" font-family="sans-serif" font-size="13" lengthAdjust="spacing" textLength="7" x="276.4243" y="818.9455">*</text><text fill="#000000" font-family="sans-serif" font-size="13" lengthAdjust="spacing" textLength="8" x="399.7836" y="909.7997">1</text><!--MD5=[eaea43e34e45c5b9d20b595fc78f1f20]
link Company to Administrator--><path codeLine="58" d="M384.2364,68.1 C384.2364,87.79 384.2364,114.57 384.2364,139.76 " fill="none" id="Company-to-Administrator" style="stroke:#A80036;stroke-width:1.0;"/><polygon fill="#A80036" points="384.2364,144.77,388.2364,135.77,384.2364,139.77,380.2364,135.77,384.2364,144.77" style="stroke:#A80036;stroke-width:1.0;"/><text fill="#000000" font-family="sans-serif" font-size="13" lengthAdjust="spacing" textLength="41" x="385.2364" y="111.0669">knows</text><text fill="#000000" font-family="sans-serif" font-size="13" lengthAdjust="spacing" textLength="8" x="375.4114" y="88.0589">1</text><text fill="#000000" font-family="sans-serif" font-size="13" lengthAdjust="spacing" textLength="8" x="375.8239" y="133.9499">1</text><!--MD5=[56591d857fd77d5f264833cf1d495d43]
@startuml
class Company
skinparam classAttributeIconSize 0
Company : -designation

Class Administrator{
-employeeID
-organizationRole
-name
-address
-phoneNumber
-eMail
-standardOcupationalClassificationCode
}

Class ClinicalChemistTechnologist{
-employeeID
-organizationRole
-name
-address
-phoneNumber
-eMail
-standardOcupationalClassificationCode
}
Class SpecialistDoctor{
-employeeID
-organizationRole
-name
-address
-phoneNumber
-eMail
-standardOcupationalClassificationCode
}

Class Report{
-bodyOfText
}

Class Test{
-testCode
-nhsCode
-dates
}

Class TestResults{
-parameterResults
}

Test "1" - -> "*" TestResults : contains
SpecialistDoctor "1" - -> "*" Test : can check
Diagnosis "1" <- - "1" Report: contains
Administrator "1" - -> "*" SpecialistDoctor: registers
TestResults "*" <- - "1" ClinicalChemistTechnologist: produces
TestResults "*" <- - "1" SpecialistDoctor: reviews
Report "*" <- - "1" SpecialistDoctor: writes
Diagnosis "*" <- - "1" SpecialistDoctor: performs
TestResults "1" <- - "1" Report: contains
TestResults "*" <- - "1" Diagnosis: to
Company "1" - -> "1" Administrator : knows
@enduml

PlantUML version 1.2021.7(Sun May 23 12:40:07 UTC 2021)
(GPL source distribution)
Java Runtime: Java(TM) SE Runtime Environment
JVM: Java HotSpot(TM) 64-Bit Server VM
Default Encoding: UTF-8
Language: en
Country: US
--></g></svg>