<?xml version="1.0" encoding="UTF-8" standalone="no"?><svg xmlns="http://www.w3.org/2000/svg" xmlns:xlink="http://www.w3.org/1999/xlink" contentScriptType="application/ecmascript" contentStyleType="text/css" height="805px" preserveAspectRatio="none" style="width:471px;height:805px;background:#FFFFFF;" version="1.1" viewBox="0 0 471 805" width="471px" zoomAndPan="magnify"><defs><filter height="300%" id="fn43hramjqwdc" width="300%" x="-1" y="-1"><feGaussianBlur result="blurOut" stdDeviation="2.0"/><feColorMatrix in="blurOut" result="blurOut2" type="matrix" values="0 0 0 0 0 0 0 0 0 0 0 0 0 0 0 0 0 0 .4 0"/><feOffset dx="4.0" dy="4.0" in="blurOut2" result="blurOut3"/><feBlend in="SourceGraphic" in2="blurOut3" mode="normal"/></filter></defs><g><!--MD5=[71fba8c2abd557a2f7006580273aba3e]
class WriteReportUI--><rect codeLine="3" fill="#FEFECE" filter="url(#fn43hramjqwdc)" height="48" id="WriteReportUI" style="stroke:#A80036;stroke-width:1.5;" width="116" x="231.5" y="7"/><ellipse cx="246.5" cy="23" fill="#ADD1B2" rx="11" ry="11" style="stroke:#A80036;stroke-width:1.0;"/><path d="M248.8438,18.6719 C247.9063,18.2344 247.3125,18.0938 246.4375,18.0938 C243.8125,18.0938 241.8125,20.1719 241.8125,22.8906 L241.8125,24.0156 C241.8125,26.5938 243.9219,28.4844 246.8125,28.4844 C248.0313,28.4844 249.1875,28.1875 249.9375,27.6406 C250.5156,27.2344 250.8438,26.7813 250.8438,26.3906 C250.8438,25.9375 250.4531,25.5469 249.9844,25.5469 C249.7656,25.5469 249.5625,25.625 249.375,25.8125 C248.9219,26.2969 248.9219,26.2969 248.7344,26.3906 C248.3125,26.6563 247.625,26.7813 246.8594,26.7813 C244.8125,26.7813 243.5156,25.6875 243.5156,23.9844 L243.5156,22.8906 C243.5156,21.1094 244.7656,19.7969 246.5,19.7969 C247.0781,19.7969 247.6875,19.9531 248.1563,20.2031 C248.6406,20.4844 248.8125,20.7031 248.9063,21.1094 C248.9688,21.5156 249,21.6406 249.1406,21.7656 C249.2813,21.9063 249.5156,22.0156 249.7344,22.0156 C250,22.0156 250.2656,21.875 250.4375,21.6563 C250.5469,21.5 250.5781,21.3125 250.5781,20.8906 L250.5781,19.4688 C250.5781,19.0313 250.5625,18.9063 250.4688,18.75 C250.3125,18.4844 250.0313,18.3438 249.7344,18.3438 C249.4375,18.3438 249.2344,18.4375 249.0156,18.75 L248.8438,18.6719 Z " fill="#000000"/><text fill="#000000" font-family="sans-serif" font-size="12" lengthAdjust="spacing" textLength="84" x="260.5" y="27.1543">WriteReportUI</text><line style="stroke:#A80036;stroke-width:1.5;" x1="232.5" x2="346.5" y1="39" y2="39"/><line style="stroke:#A80036;stroke-width:1.5;" x1="232.5" x2="346.5" y1="47" y2="47"/><!--MD5=[d7b8916e3117ca4a3ffdab4f31ea783a]
class WriteReportController--><rect codeLine="6" fill="#FEFECE" filter="url(#fn43hramjqwdc)" height="86.4141" id="WriteReportController" style="stroke:#A80036;stroke-width:1.5;" width="177" x="201" y="116"/><ellipse cx="222.3" cy="132" fill="#ADD1B2" rx="11" ry="11" style="stroke:#A80036;stroke-width:1.0;"/><path d="M224.6438,127.6719 C223.7063,127.2344 223.1125,127.0938 222.2375,127.0938 C219.6125,127.0938 217.6125,129.1719 217.6125,131.8906 L217.6125,133.0156 C217.6125,135.5938 219.7219,137.4844 222.6125,137.4844 C223.8313,137.4844 224.9875,137.1875 225.7375,136.6406 C226.3156,136.2344 226.6438,135.7813 226.6438,135.3906 C226.6438,134.9375 226.2531,134.5469 225.7844,134.5469 C225.5656,134.5469 225.3625,134.625 225.175,134.8125 C224.7219,135.2969 224.7219,135.2969 224.5344,135.3906 C224.1125,135.6563 223.425,135.7813 222.6594,135.7813 C220.6125,135.7813 219.3156,134.6875 219.3156,132.9844 L219.3156,131.8906 C219.3156,130.1094 220.5656,128.7969 222.3,128.7969 C222.8781,128.7969 223.4875,128.9531 223.9563,129.2031 C224.4406,129.4844 224.6125,129.7031 224.7063,130.1094 C224.7688,130.5156 224.8,130.6406 224.9406,130.7656 C225.0813,130.9063 225.3156,131.0156 225.5344,131.0156 C225.8,131.0156 226.0656,130.875 226.2375,130.6563 C226.3469,130.5 226.3781,130.3125 226.3781,129.8906 L226.3781,128.4688 C226.3781,128.0313 226.3625,127.9063 226.2688,127.75 C226.1125,127.4844 225.8313,127.3438 225.5344,127.3438 C225.2375,127.3438 225.0344,127.4375 224.8156,127.75 L224.6438,127.6719 Z " fill="#000000"/><text fill="#000000" font-family="sans-serif" font-size="12" lengthAdjust="spacing" textLength="131" x="237.7" y="136.1543">WriteReportController</text><line style="stroke:#A80036;stroke-width:1.5;" x1="202" x2="377" y1="148" y2="148"/><line style="stroke:#A80036;stroke-width:1.5;" x1="202" x2="377" y1="156" y2="156"/><text fill="#000000" font-family="sans-serif" font-size="11" lengthAdjust="spacing" textLength="116" x="207" y="170.2104">+writeReport(report)</text><text fill="#000000" font-family="sans-serif" font-size="11" lengthAdjust="spacing" textLength="82" x="207" y="183.0151">+saveReport()</text><text fill="#000000" font-family="sans-serif" font-size="11" lengthAdjust="spacing" textLength="165" x="207" y="195.8198">+getTestsWithoutDiagnosis()</text><!--MD5=[02e4b9b7573f1156f41e60aa5b4e25a4]
class Company--><rect codeLine="12" fill="#FEFECE" filter="url(#fn43hramjqwdc)" height="73.6094" id="Company" style="stroke:#A80036;stroke-width:1.5;" width="116" x="231.5" y="263"/><ellipse cx="259.1" cy="279" fill="#ADD1B2" rx="11" ry="11" style="stroke:#A80036;stroke-width:1.0;"/><path d="M261.4438,274.6719 C260.5063,274.2344 259.9125,274.0938 259.0375,274.0938 C256.4125,274.0938 254.4125,276.1719 254.4125,278.8906 L254.4125,280.0156 C254.4125,282.5938 256.5219,284.4844 259.4125,284.4844 C260.6313,284.4844 261.7875,284.1875 262.5375,283.6406 C263.1156,283.2344 263.4438,282.7813 263.4438,282.3906 C263.4438,281.9375 263.0531,281.5469 262.5844,281.5469 C262.3656,281.5469 262.1625,281.625 261.975,281.8125 C261.5219,282.2969 261.5219,282.2969 261.3344,282.3906 C260.9125,282.6563 260.225,282.7813 259.4594,282.7813 C257.4125,282.7813 256.1156,281.6875 256.1156,279.9844 L256.1156,278.8906 C256.1156,277.1094 257.3656,275.7969 259.1,275.7969 C259.6781,275.7969 260.2875,275.9531 260.7563,276.2031 C261.2406,276.4844 261.4125,276.7031 261.5063,277.1094 C261.5688,277.5156 261.6,277.6406 261.7406,277.7656 C261.8813,277.9063 262.1156,278.0156 262.3344,278.0156 C262.6,278.0156 262.8656,277.875 263.0375,277.6563 C263.1469,277.5 263.1781,277.3125 263.1781,276.8906 L263.1781,275.4688 C263.1781,275.0313 263.1625,274.9063 263.0688,274.75 C262.9125,274.4844 262.6313,274.3438 262.3344,274.3438 C262.0375,274.3438 261.8344,274.4375 261.6156,274.75 L261.4438,274.6719 Z " fill="#000000"/><text fill="#000000" font-family="sans-serif" font-size="12" lengthAdjust="spacing" textLength="56" x="275.9" y="283.1543">Company</text><line style="stroke:#A80036;stroke-width:1.5;" x1="232.5" x2="346.5" y1="295" y2="295"/><line style="stroke:#A80036;stroke-width:1.5;" x1="232.5" x2="346.5" y1="303" y2="303"/><text fill="#000000" font-family="sans-serif" font-size="11" lengthAdjust="spacing" textLength="104" x="237.5" y="317.2104">+getReportStore()</text><text fill="#000000" font-family="sans-serif" font-size="11" lengthAdjust="spacing" textLength="92" x="237.5" y="330.0151">+getTestStore()</text><!--MD5=[0f6f7964b844a64b0496af0dda7914bd]
class TestStore--><rect codeLine="18" fill="#FEFECE" filter="url(#fn43hramjqwdc)" height="73.6094" id="TestStore" style="stroke:#A80036;stroke-width:1.5;" width="177" x="76" y="426.5"/><ellipse cx="130.75" cy="442.5" fill="#ADD1B2" rx="11" ry="11" style="stroke:#A80036;stroke-width:1.0;"/><path d="M133.0938,438.1719 C132.1563,437.7344 131.5625,437.5938 130.6875,437.5938 C128.0625,437.5938 126.0625,439.6719 126.0625,442.3906 L126.0625,443.5156 C126.0625,446.0938 128.1719,447.9844 131.0625,447.9844 C132.2813,447.9844 133.4375,447.6875 134.1875,447.1406 C134.7656,446.7344 135.0938,446.2813 135.0938,445.8906 C135.0938,445.4375 134.7031,445.0469 134.2344,445.0469 C134.0156,445.0469 133.8125,445.125 133.625,445.3125 C133.1719,445.7969 133.1719,445.7969 132.9844,445.8906 C132.5625,446.1563 131.875,446.2813 131.1094,446.2813 C129.0625,446.2813 127.7656,445.1875 127.7656,443.4844 L127.7656,442.3906 C127.7656,440.6094 129.0156,439.2969 130.75,439.2969 C131.3281,439.2969 131.9375,439.4531 132.4063,439.7031 C132.8906,439.9844 133.0625,440.2031 133.1563,440.6094 C133.2188,441.0156 133.25,441.1406 133.3906,441.2656 C133.5313,441.4063 133.7656,441.5156 133.9844,441.5156 C134.25,441.5156 134.5156,441.375 134.6875,441.1563 C134.7969,441 134.8281,440.8125 134.8281,440.3906 L134.8281,438.9688 C134.8281,438.5313 134.8125,438.4063 134.7188,438.25 C134.5625,437.9844 134.2813,437.8438 133.9844,437.8438 C133.6875,437.8438 133.4844,437.9375 133.2656,438.25 L133.0938,438.1719 Z " fill="#000000"/><text fill="#000000" font-family="sans-serif" font-size="12" lengthAdjust="spacing" textLength="59" x="151.25" y="446.6543">TestStore</text><line style="stroke:#A80036;stroke-width:1.5;" x1="77" x2="252" y1="458.5" y2="458.5"/><line style="stroke:#A80036;stroke-width:1.5;" x1="77" x2="252" y1="466.5" y2="466.5"/><text fill="#000000" font-family="sans-serif" font-size="11" lengthAdjust="spacing" textLength="165" x="82" y="480.7104">+getTestsWithoutDiagnosis()</text><text fill="#000000" font-family="sans-serif" font-size="11" lengthAdjust="spacing" textLength="149" x="82" y="493.5151">+getTestByInternalCode()</text><!--MD5=[df38be88ccee13e832d6fafd6288a4ca]
class Test--><rect codeLine="23" fill="#FEFECE" filter="url(#fn43hramjqwdc)" height="201.6563" id="Test" style="stroke:#A80036;stroke-width:1.5;" width="287" x="7" y="590"/><ellipse cx="133.25" cy="606" fill="#ADD1B2" rx="11" ry="11" style="stroke:#A80036;stroke-width:1.0;"/><path d="M135.5938,601.6719 C134.6563,601.2344 134.0625,601.0938 133.1875,601.0938 C130.5625,601.0938 128.5625,603.1719 128.5625,605.8906 L128.5625,607.0156 C128.5625,609.5938 130.6719,611.4844 133.5625,611.4844 C134.7813,611.4844 135.9375,611.1875 136.6875,610.6406 C137.2656,610.2344 137.5938,609.7813 137.5938,609.3906 C137.5938,608.9375 137.2031,608.5469 136.7344,608.5469 C136.5156,608.5469 136.3125,608.625 136.125,608.8125 C135.6719,609.2969 135.6719,609.2969 135.4844,609.3906 C135.0625,609.6563 134.375,609.7813 133.6094,609.7813 C131.5625,609.7813 130.2656,608.6875 130.2656,606.9844 L130.2656,605.8906 C130.2656,604.1094 131.5156,602.7969 133.25,602.7969 C133.8281,602.7969 134.4375,602.9531 134.9063,603.2031 C135.3906,603.4844 135.5625,603.7031 135.6563,604.1094 C135.7188,604.5156 135.75,604.6406 135.8906,604.7656 C136.0313,604.9063 136.2656,605.0156 136.4844,605.0156 C136.75,605.0156 137.0156,604.875 137.1875,604.6563 C137.2969,604.5 137.3281,604.3125 137.3281,603.8906 L137.3281,602.4688 C137.3281,602.0313 137.3125,601.9063 137.2188,601.75 C137.0625,601.4844 136.7813,601.3438 136.4844,601.3438 C136.1875,601.3438 135.9844,601.4375 135.7656,601.75 L135.5938,601.6719 Z " fill="#000000"/><text fill="#000000" font-family="sans-serif" font-size="12" lengthAdjust="spacing" textLength="26" x="153.75" y="610.1543">Test</text><line style="stroke:#A80036;stroke-width:1.5;" x1="8" x2="293" y1="622" y2="622"/><text fill="#000000" font-family="sans-serif" font-size="11" lengthAdjust="spacing" textLength="94" x="13" y="636.2104">-String nhsCode;</text><text fill="#000000" font-family="sans-serif" font-size="11" lengthAdjust="spacing" textLength="117" x="13" y="649.0151">-String internalCode;</text><text fill="#000000" font-family="sans-serif" font-size="11" lengthAdjust="spacing" textLength="75" x="13" y="661.8198">-Client client;</text><text fill="#000000" font-family="sans-serif" font-size="11" lengthAdjust="spacing" textLength="116" x="13" y="674.6245">-TestType testType;</text><text fill="#000000" font-family="sans-serif" font-size="11" lengthAdjust="spacing" textLength="184" x="13" y="687.4292">-String sampleCollectionMethod;</text><text fill="#000000" font-family="sans-serif" font-size="11" lengthAdjust="spacing" textLength="275" x="13" y="700.2339">-List &lt;ParameterCategory&gt; parameterCategory;</text><text fill="#000000" font-family="sans-serif" font-size="11" lengthAdjust="spacing" textLength="171" x="13" y="713.0386">-List &lt;Parameter&gt; parameter;</text><text fill="#000000" font-family="sans-serif" font-size="11" lengthAdjust="spacing" textLength="131" x="13" y="725.8433">-Date registrationDate;</text><text fill="#000000" font-family="sans-serif" font-size="11" lengthAdjust="spacing" textLength="171" x="13" y="738.6479">-Date samplesCollectionDate;</text><text fill="#000000" font-family="sans-serif" font-size="11" lengthAdjust="spacing" textLength="165" x="13" y="751.4526">-Date chemicalAnalysisDate;</text><text fill="#000000" font-family="sans-serif" font-size="11" lengthAdjust="spacing" textLength="120" x="13" y="764.2573">-Date diagnosisDate;</text><text fill="#000000" font-family="sans-serif" font-size="11" lengthAdjust="spacing" textLength="122" x="13" y="777.062">-Date validationDate;</text><line style="stroke:#A80036;stroke-width:1.5;" x1="8" x2="293" y1="783.6563" y2="783.6563"/><!--MD5=[f00dbe8c0302c6aec2cb26b3c659c8fc]
class Report--><rect codeLine="39" fill="#FEFECE" filter="url(#fn43hramjqwdc)" height="73.6094" id="Report" style="stroke:#A80036;stroke-width:1.5;" width="128" x="329.5" y="654"/><ellipse cx="369.7" cy="670" fill="#ADD1B2" rx="11" ry="11" style="stroke:#A80036;stroke-width:1.0;"/><path d="M372.0438,665.6719 C371.1063,665.2344 370.5125,665.0938 369.6375,665.0938 C367.0125,665.0938 365.0125,667.1719 365.0125,669.8906 L365.0125,671.0156 C365.0125,673.5938 367.1219,675.4844 370.0125,675.4844 C371.2313,675.4844 372.3875,675.1875 373.1375,674.6406 C373.7156,674.2344 374.0438,673.7813 374.0438,673.3906 C374.0438,672.9375 373.6531,672.5469 373.1844,672.5469 C372.9656,672.5469 372.7625,672.625 372.575,672.8125 C372.1219,673.2969 372.1219,673.2969 371.9344,673.3906 C371.5125,673.6563 370.825,673.7813 370.0594,673.7813 C368.0125,673.7813 366.7156,672.6875 366.7156,670.9844 L366.7156,669.8906 C366.7156,668.1094 367.9656,666.7969 369.7,666.7969 C370.2781,666.7969 370.8875,666.9531 371.3563,667.2031 C371.8406,667.4844 372.0125,667.7031 372.1063,668.1094 C372.1688,668.5156 372.2,668.6406 372.3406,668.7656 C372.4813,668.9063 372.7156,669.0156 372.9344,669.0156 C373.2,669.0156 373.4656,668.875 373.6375,668.6563 C373.7469,668.5 373.7781,668.3125 373.7781,667.8906 L373.7781,666.4688 C373.7781,666.0313 373.7625,665.9063 373.6688,665.75 C373.5125,665.4844 373.2313,665.3438 372.9344,665.3438 C372.6375,665.3438 372.4344,665.4375 372.2156,665.75 L372.0438,665.6719 Z " fill="#000000"/><text fill="#000000" font-family="sans-serif" font-size="12" lengthAdjust="spacing" textLength="40" x="389.3" y="674.1543">Report</text><line style="stroke:#A80036;stroke-width:1.5;" x1="330.5" x2="456.5" y1="686" y2="686"/><text fill="#000000" font-family="sans-serif" font-size="11" lengthAdjust="spacing" textLength="75" x="335.5" y="700.2104">-String report</text><line style="stroke:#A80036;stroke-width:1.5;" x1="330.5" x2="456.5" y1="706.8047" y2="706.8047"/><text fill="#000000" font-family="sans-serif" font-size="11" lengthAdjust="spacing" textLength="116" x="335.5" y="721.0151">+writeReport(report)</text><!--MD5=[ce0f71fbf4d9f9eefe0e2007e85cc947]
class ReportStore--><rect codeLine="44" fill="#FEFECE" filter="url(#fn43hramjqwdc)" height="99.2188" id="ReportStore" style="stroke:#A80036;stroke-width:1.5;" width="128" x="315.5" y="414"/><ellipse cx="340.85" cy="430" fill="#ADD1B2" rx="11" ry="11" style="stroke:#A80036;stroke-width:1.0;"/><path d="M343.1938,425.6719 C342.2563,425.2344 341.6625,425.0938 340.7875,425.0938 C338.1625,425.0938 336.1625,427.1719 336.1625,429.8906 L336.1625,431.0156 C336.1625,433.5938 338.2719,435.4844 341.1625,435.4844 C342.3813,435.4844 343.5375,435.1875 344.2875,434.6406 C344.8656,434.2344 345.1938,433.7813 345.1938,433.3906 C345.1938,432.9375 344.8031,432.5469 344.3344,432.5469 C344.1156,432.5469 343.9125,432.625 343.725,432.8125 C343.2719,433.2969 343.2719,433.2969 343.0844,433.3906 C342.6625,433.6563 341.975,433.7813 341.2094,433.7813 C339.1625,433.7813 337.8656,432.6875 337.8656,430.9844 L337.8656,429.8906 C337.8656,428.1094 339.1156,426.7969 340.85,426.7969 C341.4281,426.7969 342.0375,426.9531 342.5063,427.2031 C342.9906,427.4844 343.1625,427.7031 343.2563,428.1094 C343.3188,428.5156 343.35,428.6406 343.4906,428.7656 C343.6313,428.9063 343.8656,429.0156 344.0844,429.0156 C344.35,429.0156 344.6156,428.875 344.7875,428.6563 C344.8969,428.5 344.9281,428.3125 344.9281,427.8906 L344.9281,426.4688 C344.9281,426.0313 344.9125,425.9063 344.8188,425.75 C344.6625,425.4844 344.3813,425.3438 344.0844,425.3438 C343.7875,425.3438 343.5844,425.4375 343.3656,425.75 L343.1938,425.6719 Z " fill="#000000"/><text fill="#000000" font-family="sans-serif" font-size="12" lengthAdjust="spacing" textLength="73" x="357.15" y="434.1543">ReportStore</text><line style="stroke:#A80036;stroke-width:1.5;" x1="316.5" x2="442.5" y1="446" y2="446"/><line style="stroke:#A80036;stroke-width:1.5;" x1="316.5" x2="442.5" y1="454" y2="454"/><text fill="#000000" font-family="sans-serif" font-size="11" lengthAdjust="spacing" textLength="100" x="321.5" y="468.2104">+validateReport()</text><text fill="#000000" font-family="sans-serif" font-size="11" lengthAdjust="spacing" textLength="82" x="321.5" y="481.0151">+saveReport()</text><text fill="#000000" font-family="sans-serif" font-size="11" lengthAdjust="spacing" textLength="75" x="321.5" y="493.8198">+addReport()</text><text fill="#000000" font-family="sans-serif" font-size="11" lengthAdjust="spacing" textLength="116" x="321.5" y="506.6245">+writeReport(report)</text><!--MD5=[4ff913b72b026e4c95390310e4df5ddd]
link WriteReportUI to WriteReportController--><path codeLine="51" d="M289.5,55.11 C289.5,70.631 289.5,91.639 289.5,110.625 " fill="none" id="WriteReportUI-to-WriteReportController" style="stroke:#A80036;stroke-width:1.0;stroke-dasharray:7.0,7.0;"/><polygon fill="#A80036" points="289.5,115.921,293.5,106.921,289.5,110.921,285.5,106.921,289.5,115.921" style="stroke:#A80036;stroke-width:1.0;"/><!--MD5=[a3405a5a29c0a1359ce5b85a18cd6043]
link WriteReportController to Company--><path codeLine="52" d="M289.5,202.082 C289.5,219.606 289.5,239.9 289.5,257.375 " fill="none" id="WriteReportController-to-Company" style="stroke:#A80036;stroke-width:1.0;stroke-dasharray:7.0,7.0;"/><polygon fill="#A80036" points="289.5,262.702,293.5,253.702,289.5,257.702,285.5,253.702,289.5,262.702" style="stroke:#A80036;stroke-width:1.0;"/><!--MD5=[b4f89d3e2517c5a3530ae423bd30fbb1]
link Company to ReportStore--><path codeLine="53" d="M309.698,337.244 C321.554,358.518 336.75,385.787 349.934,409.446 " fill="none" id="Company-to-ReportStore" style="stroke:#A80036;stroke-width:1.0;"/><polygon fill="#A80036" points="352.372,413.82,351.484,404.0113,349.9376,409.4527,344.4962,407.9063,352.372,413.82" style="stroke:#A80036;stroke-width:1.0;"/><text fill="#000000" font-family="sans-serif" font-size="13" lengthAdjust="spacing" textLength="30" x="335.5" y="380.0669">uses</text><text fill="#000000" font-family="sans-serif" font-size="13" lengthAdjust="spacing" textLength="8" x="304.3808" y="356.765">1</text><text fill="#000000" font-family="sans-serif" font-size="13" lengthAdjust="spacing" textLength="8" x="339.9946" y="402.8399">1</text><!--MD5=[7f6cf7f175eae0af66201860de5de971]
link Company to TestStore--><path codeLine="54" d="M261.448,337.244 C241.906,362.491 215.832,396.179 195.646,422.259 " fill="none" id="Company-to-TestStore" style="stroke:#A80036;stroke-width:1.0;"/><polygon fill="#A80036" points="192.459,426.377,201.1304,421.7073,195.519,422.4227,194.8036,416.8113,192.459,426.377" style="stroke:#A80036;stroke-width:1.0;"/><text fill="#000000" font-family="sans-serif" font-size="13" lengthAdjust="spacing" textLength="30" x="239.5" y="380.0669">uses</text><text fill="#000000" font-family="sans-serif" font-size="13" lengthAdjust="spacing" textLength="8" x="248.1394" y="356.765">1</text><text fill="#000000" font-family="sans-serif" font-size="13" lengthAdjust="spacing" textLength="8" x="188.7267" y="415.542">1</text><!--MD5=[7fbcfdf360a6c7ad60791099063bc3b1]
link ReportStore to Report--><path codeLine="55" d="M382.521,513.153 C385.028,553.547 388.557,610.379 390.931,648.616 " fill="none" id="ReportStore-to-Report" style="stroke:#A80036;stroke-width:1.0;"/><polygon fill="#A80036" points="391.243,653.651,394.6773,644.4203,390.933,648.6606,386.6927,644.9163,391.243,653.651" style="stroke:#A80036;stroke-width:1.0;"/><text fill="#000000" font-family="sans-serif" font-size="13" lengthAdjust="spacing" textLength="58" x="386.5" y="556.0669">conducts</text><text fill="#000000" font-family="sans-serif" font-size="13" lengthAdjust="spacing" textLength="8" x="374.3833" y="533.251">1</text><text fill="#000000" font-family="sans-serif" font-size="13" lengthAdjust="spacing" textLength="7" x="383.2535" y="643.0545">*</text><!--MD5=[b0f4f6db8206580012ef9cd998ed01c5]
link TestStore to Test--><path codeLine="56" d="M162.251,500.73 C160.833,523.562 158.924,554.321 157.056,584.398 " fill="none" id="TestStore-to-Test" style="stroke:#A80036;stroke-width:1.0;"/><polygon fill="#A80036" points="156.733,589.61,161.2833,580.8753,157.043,584.6196,153.2987,580.3793,156.733,589.61" style="stroke:#A80036;stroke-width:1.0;"/><text fill="#000000" font-family="sans-serif" font-size="13" lengthAdjust="spacing" textLength="58" x="161.5" y="556.0669">conducts</text><text fill="#000000" font-family="sans-serif" font-size="13" lengthAdjust="spacing" textLength="8" x="153.216" y="520.2486">1</text><text fill="#000000" font-family="sans-serif" font-size="13" lengthAdjust="spacing" textLength="7" x="149.9252" y="579.0373">*</text><!--MD5=[311ff43c1f4e227c045c858afb96bf20]
@startuml
skinparam classAttributeIconSize 0

class WriteReportUI {
}

class WriteReportController {
  +writeReport(report)
  +saveReport()
  +getTestsWithoutDiagnosis()
}

class Company
{
  +getReportStore()
  +getTestStore()
}

class TestStore{
  +getTestsWithoutDiagnosis()
  +getTestByInternalCode()
}

class Test{
  -String nhsCode;
  -String internalCode;
  -Client client;
  -TestType testType;
  -String sampleCollectionMethod;
  -List <ParameterCategory> parameterCategory;
  -List <Parameter> parameter;
  -Date registrationDate;
  -Date samplesCollectionDate;
  -Date chemicalAnalysisDate;
  -Date diagnosisDate;
  -Date validationDate;
}


class Report {
  -String report
  +writeReport(report)
}

class ReportStore{
  +validateReport()
  +saveReport()
  +addReport()
  +writeReport(report)
}

WriteReportUI ..> WriteReportController
WriteReportController..> Company
Company "1" - -> "1" ReportStore: uses
Company "1" - -> "1" TestStore: uses
ReportStore"1" - -> "*" Report: conducts
TestStore"1" - -> "*" Test : conducts
@enduml

PlantUML version 1.2021.7(Sun May 23 12:40:07 UTC 2021)
(GPL source distribution)
Java Runtime: Java(TM) SE Runtime Environment
JVM: Java HotSpot(TM) 64-Bit Server VM
Default Encoding: UTF-8
Language: en
Country: US
--></g></svg>