<?xml version="1.0" encoding="UTF-8" standalone="no"?><svg xmlns="http://www.w3.org/2000/svg" xmlns:xlink="http://www.w3.org/1999/xlink" contentScriptType="application/ecmascript" contentStyleType="text/css" height="838px" preserveAspectRatio="none" style="width:620px;height:838px;" version="1.1" viewBox="0 0 620 838" width="620px" zoomAndPan="magnify"><defs><filter height="300%" id="f1gu02fppuasmq" width="300%" x="-1" y="-1"><feGaussianBlur result="blurOut" stdDeviation="2.0"/><feColorMatrix in="blurOut" result="blurOut2" type="matrix" values="0 0 0 0 0 0 0 0 0 0 0 0 0 0 0 0 0 0 .4 0"/><feOffset dx="4.0" dy="4.0" in="blurOut2" result="blurOut3"/><feBlend in="SourceGraphic" in2="blurOut3" mode="normal"/></filter></defs><g><!--MD5=[02e4b9b7573f1156f41e60aa5b4e25a4]
class Company--><rect codeLine="3" fill="#FEFECE" filter="url(#f1gu02fppuasmq)" height="86.4141" id="Company" style="stroke:#A80036;stroke-width:1.5;" width="190" x="202" y="261"/><ellipse cx="264.75" cy="277" fill="#ADD1B2" rx="11" ry="11" style="stroke:#A80036;stroke-width:1.0;"/><path d="M267.0938,272.6719 C266.1563,272.2344 265.5625,272.0938 264.6875,272.0938 C262.0625,272.0938 260.0625,274.1719 260.0625,276.8906 L260.0625,278.0156 C260.0625,280.5938 262.1719,282.4844 265.0625,282.4844 C266.2813,282.4844 267.4375,282.1875 268.1875,281.6406 C268.7656,281.2344 269.0938,280.7813 269.0938,280.3906 C269.0938,279.9375 268.7031,279.5469 268.2344,279.5469 C268.0156,279.5469 267.8125,279.625 267.625,279.8125 C267.1719,280.2969 267.1719,280.2969 266.9844,280.3906 C266.5625,280.6563 265.875,280.7813 265.1094,280.7813 C263.0625,280.7813 261.7656,279.6875 261.7656,277.9844 L261.7656,276.8906 C261.7656,275.1094 263.0156,273.7969 264.75,273.7969 C265.3281,273.7969 265.9375,273.9531 266.4063,274.2031 C266.8906,274.4844 267.0625,274.7031 267.1563,275.1094 C267.2188,275.5156 267.25,275.6406 267.3906,275.7656 C267.5313,275.9063 267.7656,276.0156 267.9844,276.0156 C268.25,276.0156 268.5156,275.875 268.6875,275.6563 C268.7969,275.5 268.8281,275.3125 268.8281,274.8906 L268.8281,273.4688 C268.8281,273.0313 268.8125,272.9063 268.7188,272.75 C268.5625,272.4844 268.2813,272.3438 267.9844,272.3438 C267.6875,272.3438 267.4844,272.4375 267.2656,272.75 L267.0938,272.6719 Z " fill="#000000"/><text fill="#000000" font-family="sans-serif" font-size="12" lengthAdjust="spacing" textLength="56" x="285.25" y="281.1543">Company</text><line style="stroke:#A80036;stroke-width:1.5;" x1="203" x2="391" y1="293" y2="293"/><text fill="#000000" font-family="sans-serif" font-size="11" lengthAdjust="spacing" textLength="107" x="208" y="307.2104">-String designation</text><line style="stroke:#A80036;stroke-width:1.5;" x1="203" x2="391" y1="313.8047" y2="313.8047"/><text fill="#000000" font-family="sans-serif" font-size="11" lengthAdjust="spacing" textLength="178" x="208" y="328.0151">+getParameterCategoryStore()</text><text fill="#000000" font-family="sans-serif" font-size="11" lengthAdjust="spacing" textLength="126" x="208" y="340.8198">+getParameterStore()</text><!--MD5=[be7802b157a16874d39c59ca0e2b25be]
class ParameterStore--><rect codeLine="10" fill="#FEFECE" filter="url(#f1gu02fppuasmq)" height="99.2188" id="ParameterStore" style="stroke:#A80036;stroke-width:1.5;" width="347" x="10.5" y="407"/><ellipse cx="132.75" cy="423" fill="#ADD1B2" rx="11" ry="11" style="stroke:#A80036;stroke-width:1.0;"/><path d="M135.0938,418.6719 C134.1563,418.2344 133.5625,418.0938 132.6875,418.0938 C130.0625,418.0938 128.0625,420.1719 128.0625,422.8906 L128.0625,424.0156 C128.0625,426.5938 130.1719,428.4844 133.0625,428.4844 C134.2813,428.4844 135.4375,428.1875 136.1875,427.6406 C136.7656,427.2344 137.0938,426.7813 137.0938,426.3906 C137.0938,425.9375 136.7031,425.5469 136.2344,425.5469 C136.0156,425.5469 135.8125,425.625 135.625,425.8125 C135.1719,426.2969 135.1719,426.2969 134.9844,426.3906 C134.5625,426.6563 133.875,426.7813 133.1094,426.7813 C131.0625,426.7813 129.7656,425.6875 129.7656,423.9844 L129.7656,422.8906 C129.7656,421.1094 131.0156,419.7969 132.75,419.7969 C133.3281,419.7969 133.9375,419.9531 134.4063,420.2031 C134.8906,420.4844 135.0625,420.7031 135.1563,421.1094 C135.2188,421.5156 135.25,421.6406 135.3906,421.7656 C135.5313,421.9063 135.7656,422.0156 135.9844,422.0156 C136.25,422.0156 136.5156,421.875 136.6875,421.6563 C136.7969,421.5 136.8281,421.3125 136.8281,420.8906 L136.8281,419.4688 C136.8281,419.0313 136.8125,418.9063 136.7188,418.75 C136.5625,418.4844 136.2813,418.3438 135.9844,418.3438 C135.6875,418.3438 135.4844,418.4375 135.2656,418.75 L135.0938,418.6719 Z " fill="#000000"/><text fill="#000000" font-family="sans-serif" font-size="12" lengthAdjust="spacing" textLength="94" x="153.25" y="427.1543">ParameterStore</text><line style="stroke:#A80036;stroke-width:1.5;" x1="11.5" x2="356.5" y1="439" y2="439"/><line style="stroke:#A80036;stroke-width:1.5;" x1="11.5" x2="356.5" y1="447" y2="447"/><text fill="#000000" font-family="sans-serif" font-size="11" lengthAdjust="spacing" textLength="335" x="16.5" y="461.2104">+createParameter(code, shortname, description, category)</text><text fill="#000000" font-family="sans-serif" font-size="11" lengthAdjust="spacing" textLength="129" x="16.5" y="474.0151">+validateParameter(p)</text><text fill="#000000" font-family="sans-serif" font-size="11" lengthAdjust="spacing" textLength="111" x="16.5" y="486.8198">+saveParameter(p)</text><text fill="#000000" font-family="sans-serif" font-size="11" lengthAdjust="spacing" textLength="94" x="16.5" y="499.6245">-addTestType(p)</text><!--MD5=[d802db621b5b215a6f0466f93cefcb42]
class ParameterCategoryStore--><rect codeLine="17" fill="#FEFECE" filter="url(#f1gu02fppuasmq)" height="73.6094" id="ParameterCategoryStore" style="stroke:#A80036;stroke-width:1.5;" width="254" x="352" y="585"/><ellipse cx="400.25" cy="601" fill="#ADD1B2" rx="11" ry="11" style="stroke:#A80036;stroke-width:1.0;"/><path d="M402.5938,596.6719 C401.6563,596.2344 401.0625,596.0938 400.1875,596.0938 C397.5625,596.0938 395.5625,598.1719 395.5625,600.8906 L395.5625,602.0156 C395.5625,604.5938 397.6719,606.4844 400.5625,606.4844 C401.7813,606.4844 402.9375,606.1875 403.6875,605.6406 C404.2656,605.2344 404.5938,604.7813 404.5938,604.3906 C404.5938,603.9375 404.2031,603.5469 403.7344,603.5469 C403.5156,603.5469 403.3125,603.625 403.125,603.8125 C402.6719,604.2969 402.6719,604.2969 402.4844,604.3906 C402.0625,604.6563 401.375,604.7813 400.6094,604.7813 C398.5625,604.7813 397.2656,603.6875 397.2656,601.9844 L397.2656,600.8906 C397.2656,599.1094 398.5156,597.7969 400.25,597.7969 C400.8281,597.7969 401.4375,597.9531 401.9063,598.2031 C402.3906,598.4844 402.5625,598.7031 402.6563,599.1094 C402.7188,599.5156 402.75,599.6406 402.8906,599.7656 C403.0313,599.9063 403.2656,600.0156 403.4844,600.0156 C403.75,600.0156 404.0156,599.875 404.1875,599.6563 C404.2969,599.5 404.3281,599.3125 404.3281,598.8906 L404.3281,597.4688 C404.3281,597.0313 404.3125,596.9063 404.2188,596.75 C404.0625,596.4844 403.7813,596.3438 403.4844,596.3438 C403.1875,596.3438 402.9844,596.4375 402.7656,596.75 L402.5938,596.6719 Z " fill="#000000"/><text fill="#000000" font-family="sans-serif" font-size="12" lengthAdjust="spacing" textLength="149" x="420.75" y="605.1543">ParameterCategoryStore</text><line style="stroke:#A80036;stroke-width:1.5;" x1="353" x2="605" y1="617" y2="617"/><line style="stroke:#A80036;stroke-width:1.5;" x1="353" x2="605" y1="625" y2="625"/><text fill="#000000" font-family="sans-serif" font-size="11" lengthAdjust="spacing" textLength="157" x="358" y="639.2104">+getParameterCategories()</text><text fill="#000000" font-family="sans-serif" font-size="11" lengthAdjust="spacing" textLength="242" x="358" y="652.0151">+getParameterCategoryByCode(category)</text><!--MD5=[1f6362a5c8f21d8d6a0fce68f3a92a4e]
class Parameter--><rect codeLine="22" fill="#FEFECE" filter="url(#f1gu02fppuasmq)" height="112.0234" id="Parameter" style="stroke:#A80036;stroke-width:1.5;" width="310" x="7" y="566"/><ellipse cx="127.25" cy="582" fill="#ADD1B2" rx="11" ry="11" style="stroke:#A80036;stroke-width:1.0;"/><path d="M129.5938,577.6719 C128.6563,577.2344 128.0625,577.0938 127.1875,577.0938 C124.5625,577.0938 122.5625,579.1719 122.5625,581.8906 L122.5625,583.0156 C122.5625,585.5938 124.6719,587.4844 127.5625,587.4844 C128.7813,587.4844 129.9375,587.1875 130.6875,586.6406 C131.2656,586.2344 131.5938,585.7813 131.5938,585.3906 C131.5938,584.9375 131.2031,584.5469 130.7344,584.5469 C130.5156,584.5469 130.3125,584.625 130.125,584.8125 C129.6719,585.2969 129.6719,585.2969 129.4844,585.3906 C129.0625,585.6563 128.375,585.7813 127.6094,585.7813 C125.5625,585.7813 124.2656,584.6875 124.2656,582.9844 L124.2656,581.8906 C124.2656,580.1094 125.5156,578.7969 127.25,578.7969 C127.8281,578.7969 128.4375,578.9531 128.9063,579.2031 C129.3906,579.4844 129.5625,579.7031 129.6563,580.1094 C129.7188,580.5156 129.75,580.6406 129.8906,580.7656 C130.0313,580.9063 130.2656,581.0156 130.4844,581.0156 C130.75,581.0156 131.0156,580.875 131.1875,580.6563 C131.2969,580.5 131.3281,580.3125 131.3281,579.8906 L131.3281,578.4688 C131.3281,578.0313 131.3125,577.9063 131.2188,577.75 C131.0625,577.4844 130.7813,577.3438 130.4844,577.3438 C130.1875,577.3438 129.9844,577.4375 129.7656,577.75 L129.5938,577.6719 Z " fill="#000000"/><text fill="#000000" font-family="sans-serif" font-size="12" lengthAdjust="spacing" textLength="61" x="147.75" y="586.1543">Parameter</text><line style="stroke:#A80036;stroke-width:1.5;" x1="8" x2="316" y1="598" y2="598"/><text fill="#000000" font-family="sans-serif" font-size="11" lengthAdjust="spacing" textLength="69" x="13" y="612.2104">-String code</text><text fill="#000000" font-family="sans-serif" font-size="11" lengthAdjust="spacing" textLength="102" x="13" y="625.0151">-String shortname</text><text fill="#000000" font-family="sans-serif" font-size="11" lengthAdjust="spacing" textLength="103" x="13" y="637.8198">-String description</text><text fill="#000000" font-family="sans-serif" font-size="11" lengthAdjust="spacing" textLength="206" x="13" y="650.6245">-List&lt;ParameterCategory&gt; category</text><line style="stroke:#A80036;stroke-width:1.5;" x1="8" x2="316" y1="657.2188" y2="657.2188"/><text fill="#000000" font-family="sans-serif" font-size="11" lengthAdjust="spacing" textLength="298" x="13" y="671.4292">+Parameter(code, shortname, description, category)</text><!--MD5=[36afb6bbd95a8ac778c4537c55a683d5]
class ParameterCategory--><rect codeLine="30" fill="#FEFECE" filter="url(#f1gu02fppuasmq)" height="86.4141" id="ParameterCategory" style="stroke:#A80036;stroke-width:1.5;" width="208" x="216" y="738"/><ellipse cx="258" cy="754" fill="#ADD1B2" rx="11" ry="11" style="stroke:#A80036;stroke-width:1.0;"/><path d="M260.3438,749.6719 C259.4063,749.2344 258.8125,749.0938 257.9375,749.0938 C255.3125,749.0938 253.3125,751.1719 253.3125,753.8906 L253.3125,755.0156 C253.3125,757.5938 255.4219,759.4844 258.3125,759.4844 C259.5313,759.4844 260.6875,759.1875 261.4375,758.6406 C262.0156,758.2344 262.3438,757.7813 262.3438,757.3906 C262.3438,756.9375 261.9531,756.5469 261.4844,756.5469 C261.2656,756.5469 261.0625,756.625 260.875,756.8125 C260.4219,757.2969 260.4219,757.2969 260.2344,757.3906 C259.8125,757.6563 259.125,757.7813 258.3594,757.7813 C256.3125,757.7813 255.0156,756.6875 255.0156,754.9844 L255.0156,753.8906 C255.0156,752.1094 256.2656,750.7969 258,750.7969 C258.5781,750.7969 259.1875,750.9531 259.6563,751.2031 C260.1406,751.4844 260.3125,751.7031 260.4063,752.1094 C260.4688,752.5156 260.5,752.6406 260.6406,752.7656 C260.7813,752.9063 261.0156,753.0156 261.2344,753.0156 C261.5,753.0156 261.7656,752.875 261.9375,752.6563 C262.0469,752.5 262.0781,752.3125 262.0781,751.8906 L262.0781,750.4688 C262.0781,750.0313 262.0625,749.9063 261.9688,749.75 C261.8125,749.4844 261.5313,749.3438 261.2344,749.3438 C260.9375,749.3438 260.7344,749.4375 260.5156,749.75 L260.3438,749.6719 Z " fill="#000000"/><text fill="#000000" font-family="sans-serif" font-size="12" lengthAdjust="spacing" textLength="116" x="278" y="758.1543">ParameterCategory</text><line style="stroke:#A80036;stroke-width:1.5;" x1="217" x2="423" y1="770" y2="770"/><text fill="#000000" font-family="sans-serif" font-size="11" lengthAdjust="spacing" textLength="69" x="222" y="784.2104">-String code</text><text fill="#000000" font-family="sans-serif" font-size="11" lengthAdjust="spacing" textLength="74" x="222" y="797.0151">-String name</text><line style="stroke:#A80036;stroke-width:1.5;" x1="217" x2="423" y1="803.6094" y2="803.6094"/><text fill="#000000" font-family="sans-serif" font-size="11" lengthAdjust="spacing" textLength="196" x="222" y="817.8198">+ParameterCategory(code, name)</text><!--MD5=[e1b41b3fc58e9cb8545f27dd5c581fe2]
class ParameterUI--><rect codeLine="36" fill="#FEFECE" filter="url(#f1gu02fppuasmq)" height="48" id="ParameterUI" style="stroke:#A80036;stroke-width:1.5;" width="105" x="244.5" y="7"/><ellipse cx="259.5" cy="23" fill="#ADD1B2" rx="11" ry="11" style="stroke:#A80036;stroke-width:1.0;"/><path d="M261.8438,18.6719 C260.9063,18.2344 260.3125,18.0938 259.4375,18.0938 C256.8125,18.0938 254.8125,20.1719 254.8125,22.8906 L254.8125,24.0156 C254.8125,26.5938 256.9219,28.4844 259.8125,28.4844 C261.0313,28.4844 262.1875,28.1875 262.9375,27.6406 C263.5156,27.2344 263.8438,26.7813 263.8438,26.3906 C263.8438,25.9375 263.4531,25.5469 262.9844,25.5469 C262.7656,25.5469 262.5625,25.625 262.375,25.8125 C261.9219,26.2969 261.9219,26.2969 261.7344,26.3906 C261.3125,26.6563 260.625,26.7813 259.8594,26.7813 C257.8125,26.7813 256.5156,25.6875 256.5156,23.9844 L256.5156,22.8906 C256.5156,21.1094 257.7656,19.7969 259.5,19.7969 C260.0781,19.7969 260.6875,19.9531 261.1563,20.2031 C261.6406,20.4844 261.8125,20.7031 261.9063,21.1094 C261.9688,21.5156 262,21.6406 262.1406,21.7656 C262.2813,21.9063 262.5156,22.0156 262.7344,22.0156 C263,22.0156 263.2656,21.875 263.4375,21.6563 C263.5469,21.5 263.5781,21.3125 263.5781,20.8906 L263.5781,19.4688 C263.5781,19.0313 263.5625,18.9063 263.4688,18.75 C263.3125,18.4844 263.0313,18.3438 262.7344,18.3438 C262.4375,18.3438 262.2344,18.4375 262.0156,18.75 L261.8438,18.6719 Z " fill="#000000"/><text fill="#000000" font-family="sans-serif" font-size="12" lengthAdjust="spacing" textLength="73" x="273.5" y="27.1543">ParameterUI</text><line style="stroke:#A80036;stroke-width:1.5;" x1="245.5" x2="348.5" y1="39" y2="39"/><line style="stroke:#A80036;stroke-width:1.5;" x1="245.5" x2="348.5" y1="47" y2="47"/><!--MD5=[cd5b66ee2c7ebaf8497cd667e51e1038]
class ParameterController--><rect codeLine="39" fill="#FEFECE" filter="url(#f1gu02fppuasmq)" height="86.4141" id="ParameterController" style="stroke:#A80036;stroke-width:1.5;" width="347" x="123.5" y="115"/><ellipse cx="232.75" cy="131" fill="#ADD1B2" rx="11" ry="11" style="stroke:#A80036;stroke-width:1.0;"/><path d="M235.0938,126.6719 C234.1563,126.2344 233.5625,126.0938 232.6875,126.0938 C230.0625,126.0938 228.0625,128.1719 228.0625,130.8906 L228.0625,132.0156 C228.0625,134.5938 230.1719,136.4844 233.0625,136.4844 C234.2813,136.4844 235.4375,136.1875 236.1875,135.6406 C236.7656,135.2344 237.0938,134.7813 237.0938,134.3906 C237.0938,133.9375 236.7031,133.5469 236.2344,133.5469 C236.0156,133.5469 235.8125,133.625 235.625,133.8125 C235.1719,134.2969 235.1719,134.2969 234.9844,134.3906 C234.5625,134.6563 233.875,134.7813 233.1094,134.7813 C231.0625,134.7813 229.7656,133.6875 229.7656,131.9844 L229.7656,130.8906 C229.7656,129.1094 231.0156,127.7969 232.75,127.7969 C233.3281,127.7969 233.9375,127.9531 234.4063,128.2031 C234.8906,128.4844 235.0625,128.7031 235.1563,129.1094 C235.2188,129.5156 235.25,129.6406 235.3906,129.7656 C235.5313,129.9063 235.7656,130.0156 235.9844,130.0156 C236.25,130.0156 236.5156,129.875 236.6875,129.6563 C236.7969,129.5 236.8281,129.3125 236.8281,128.8906 L236.8281,127.4688 C236.8281,127.0313 236.8125,126.9063 236.7188,126.75 C236.5625,126.4844 236.2813,126.3438 235.9844,126.3438 C235.6875,126.3438 235.4844,126.4375 235.2656,126.75 L235.0938,126.6719 Z " fill="#000000"/><text fill="#000000" font-family="sans-serif" font-size="12" lengthAdjust="spacing" textLength="120" x="253.25" y="135.1543">ParameterController</text><line style="stroke:#A80036;stroke-width:1.5;" x1="124.5" x2="469.5" y1="147" y2="147"/><line style="stroke:#A80036;stroke-width:1.5;" x1="124.5" x2="469.5" y1="155" y2="155"/><text fill="#000000" font-family="sans-serif" font-size="11" lengthAdjust="spacing" textLength="335" x="129.5" y="169.2104">+createParameter(code, shortname, description, category)</text><text fill="#000000" font-family="sans-serif" font-size="11" lengthAdjust="spacing" textLength="104" x="129.5" y="182.0151">+saveParameter()</text><text fill="#000000" font-family="sans-serif" font-size="11" lengthAdjust="spacing" textLength="157" x="129.5" y="194.8198">+getParameterCategories()</text><!--MD5=[35e319238dbee58b19037977ffd8d6ce]
link ParameterUI to ParameterController--><path codeLine="45" d="M297,55.219 C297,70.514 297,91.087 297,109.734 " fill="none" id="ParameterUI-to-ParameterController" style="stroke:#A80036;stroke-width:1.0;stroke-dasharray:7.0,7.0;"/><polygon fill="#A80036" points="297,114.936,301,105.936,297,109.936,293,105.936,297,114.936" style="stroke:#A80036;stroke-width:1.0;"/><!--MD5=[64cef91866c4e96c4d10322ac0455123]
link ParameterController to Company--><path codeLine="46" d="M297,201.038 C297,218.04 297,237.756 297,255.293 " fill="none" id="ParameterController-to-Company" style="stroke:#A80036;stroke-width:1.0;stroke-dasharray:7.0,7.0;"/><polygon fill="#A80036" points="297,260.661,301,251.661,297,255.661,293,251.661,297,260.661" style="stroke:#A80036;stroke-width:1.0;"/><!--MD5=[daf3d7412afa2c7651483be0b6e971d1]
link Company to ParameterStore--><path codeLine="47" d="M265.222,347.323 C252.296,364.54 237.218,384.621 223.588,402.775 " fill="none" id="Company-to-ParameterStore" style="stroke:#A80036;stroke-width:1.0;"/><polygon fill="#A80036" points="220.521,406.859,229.124,402.0644,223.5235,402.8609,222.727,397.2604,220.521,406.859" style="stroke:#A80036;stroke-width:1.0;"/><text fill="#000000" font-family="sans-serif" font-size="13" lengthAdjust="spacing" textLength="8" x="251.5199" y="367.4674">1</text><text fill="#000000" font-family="sans-serif" font-size="13" lengthAdjust="spacing" textLength="8" x="217.0943" y="395.8844">1</text><!--MD5=[d53d7490e5836ca5709858d7326f212b]
link Company to ParameterCategoryStore--><path codeLine="48" d="M332.395,347.308 C346.505,365.152 362.362,386.507 375,407 C410.46,464.5 443.057,535.869 461.978,579.921 " fill="none" id="Company-to-ParameterCategoryStore" style="stroke:#A80036;stroke-width:1.0;"/><polygon fill="#A80036" points="463.991,584.626,464.1278,574.7781,462.024,580.0292,456.7729,577.9253,463.991,584.626" style="stroke:#A80036;stroke-width:1.0;"/><text fill="#000000" font-family="sans-serif" font-size="13" lengthAdjust="spacing" textLength="8" x="329.3986" y="367.45">1</text><text fill="#000000" font-family="sans-serif" font-size="13" lengthAdjust="spacing" textLength="8" x="452.7238" y="574.0252">1</text><!--MD5=[a0992dda039fed1bb57aff5aacace800]
link ParameterStore to Parameter--><path codeLine="49" d="M177.459,506.113 C175.143,523.321 172.511,542.888 170.082,560.934 " fill="none" id="ParameterStore-to-Parameter" style="stroke:#A80036;stroke-width:1.0;"/><polygon fill="#A80036" points="169.403,565.981,174.5683,557.5953,170.0703,561.0257,166.6399,556.5277,169.403,565.981" style="stroke:#A80036;stroke-width:1.0;"/><text fill="#000000" font-family="sans-serif" font-size="13" lengthAdjust="spacing" textLength="8" x="167.9767" y="526.2054">1</text><text fill="#000000" font-family="sans-serif" font-size="13" lengthAdjust="spacing" textLength="7" x="162.9031" y="554.9165">*</text><!--MD5=[d6274e3b73b5bc8f467c6cfbf5bf003e]
link ParameterCategoryStore to ParameterCategory--><path codeLine="50" d="M442.522,659.019 C419.982,681.276 390.839,710.052 366.631,733.9558 " fill="none" id="ParameterCategoryStore-to-ParameterCategory" style="stroke:#A80036;stroke-width:1.0;"/><polygon fill="#A80036" points="362.79,737.7486,372.0047,734.2716,366.348,734.2356,366.384,728.5789,362.79,737.7486" style="stroke:#A80036;stroke-width:1.0;"/><text fill="#000000" font-family="sans-serif" font-size="13" lengthAdjust="spacing" textLength="8" x="427.5648" y="678.7826">1</text><text fill="#000000" font-family="sans-serif" font-size="13" lengthAdjust="spacing" textLength="8" x="360.7297" y="727.0231">1</text><!--MD5=[6df8849671cb880f6936e94aa30db6f9]
link Parameter to ParameterCategory--><path codeLine="51" d="M217.705,678.352 C236.042,696.573 256.218,716.621 273.77,734.063 " fill="none" id="Parameter-to-ParameterCategory" style="stroke:#A80036;stroke-width:1.0;"/><polygon fill="#A80036" points="277.706,737.9736,274.1411,728.7925,274.1592,734.4494,268.5024,734.4674,277.706,737.9736" style="stroke:#A80036;stroke-width:1.0;"/><text fill="#000000" font-family="sans-serif" font-size="13" lengthAdjust="spacing" textLength="7" x="217.0675" y="698.2075">*</text><text fill="#000000" font-family="sans-serif" font-size="13" lengthAdjust="spacing" textLength="23" x="246.1326" y="726.9659">1..*</text><!--MD5=[a498aaa442b73e95f93af785cbf6e05b]
@startuml
skinparam classAttributeIconSize 0

class Company
{
  -String designation
  +getParameterCategoryStore()
  +getParameterStore()
}

class ParameterStore {
  +createParameter(code, shortname, description, category)
  +validateParameter(p)
  +saveParameter(p)
  -addTestType(p)
}

class ParameterCategoryStore {
  +getParameterCategories()
  +getParameterCategoryByCode(category)
}

class Parameter {
  -String code
  -String shortname
  -String description
  -List<ParameterCategory> category
  +Parameter(code, shortname, description, category)
}

class ParameterCategory {
  -String code
  -String name
  +ParameterCategory(code, name)
}

class ParameterUI {
}

class ParameterController {
  +createParameter(code, shortname, description, category)
  +saveParameter()
  +getParameterCategories()
}

ParameterUI ..> ParameterController
ParameterController ..> Company
Company "1" - -> "1" ParameterStore
Company "1" - -> "1" ParameterCategoryStore
ParameterStore "1" - -> "*" Parameter 
ParameterCategoryStore "1" - -> "1" ParameterCategory
Parameter "*" - -> "1..*" ParameterCategory
@enduml

PlantUML version 1.2021.6beta4(Unknown compile time)
(GPL source distribution)
Java Runtime: Java(TM) SE Runtime Environment
JVM: Java HotSpot(TM) 64-Bit Server VM
Default Encoding: UTF-8
Language: en
Country: US
--></g></svg>