<?xml version="1.0" encoding="UTF-8" standalone="no"?><svg xmlns="http://www.w3.org/2000/svg" xmlns:xlink="http://www.w3.org/1999/xlink" contentScriptType="application/ecmascript" contentStyleType="text/css" height="761px" preserveAspectRatio="none" style="width:1653px;height:761px;" version="1.1" viewBox="0 0 1653 761" width="1653px" zoomAndPan="magnify"><defs><filter height="300%" id="f1tm8g733asuiv" width="300%" x="-1" y="-1"><feGaussianBlur result="blurOut" stdDeviation="2.0"/><feColorMatrix in="blurOut" result="blurOut2" type="matrix" values="0 0 0 0 0 0 0 0 0 0 0 0 0 0 0 0 0 0 .4 0"/><feOffset dx="4.0" dy="4.0" in="blurOut2" result="blurOut3"/><feBlend in="SourceGraphic" in2="blurOut3" mode="normal"/></filter></defs><g><rect fill="#FFFFFF" filter="url(#f1tm8g733asuiv)" height="561.1563" style="stroke:#A80036;stroke-width:1.0;" width="10" x="53" y="98.2969"/><rect fill="#FFFFFF" filter="url(#f1tm8g733asuiv)" height="29.1328" style="stroke:#A80036;stroke-width:1.0;" width="10" x="536" y="119.4297"/><rect fill="#FFFFFF" filter="url(#f1tm8g733asuiv)" height="87.3984" style="stroke:#A80036;stroke-width:1.0;" width="10" x="536" y="177.6953"/><rect fill="#FFFFFF" filter="url(#f1tm8g733asuiv)" height="231.6641" style="stroke:#A80036;stroke-width:1.0;" width="10" x="536" y="427.7891"/><rect fill="#FFFFFF" filter="url(#f1tm8g733asuiv)" height="162.6953" style="stroke:#A80036;stroke-width:1.0;" width="10" x="884" y="206.8281"/><rect fill="#FFFFFF" filter="url(#f1tm8g733asuiv)" height="166.3984" style="stroke:#A80036;stroke-width:1.0;" width="10" x="884" y="456.9219"/><rect fill="#FFFFFF" filter="url(#f1tm8g733asuiv)" height="30" style="stroke:#A80036;stroke-width:1.0;" width="10" x="1110" y="339.5234"/><rect fill="#FFFFFF" filter="url(#f1tm8g733asuiv)" height="65.1328" style="stroke:#A80036;stroke-width:1.0;" width="10" x="1110" y="486.0547"/><rect fill="#FFFFFF" filter="url(#f1tm8g733asuiv)" height="145.2656" style="stroke:#A80036;stroke-width:1.0;" width="10" x="1262" y="523.1875"/><rect fill="#FFFFFF" filter="url(#f1tm8g733asuiv)" height="73.1328" style="stroke:#A80036;stroke-width:1.0;" width="10" x="1267" y="595.3203"/><line style="stroke:#A80036;stroke-width:1.0;stroke-dasharray:5.0,5.0;" x1="58" x2="58" y1="88.2969" y2="677.4531"/><line style="stroke:#A80036;stroke-width:1.0;stroke-dasharray:5.0,5.0;" x1="541" x2="541" y1="88.2969" y2="677.4531"/><line style="stroke:#A80036;stroke-width:1.0;stroke-dasharray:5.0,5.0;" x1="889" x2="889" y1="88.2969" y2="677.4531"/><line style="stroke:#A80036;stroke-width:1.0;stroke-dasharray:5.0,5.0;" x1="1114.5" x2="1114.5" y1="88.2969" y2="677.4531"/><line style="stroke:#A80036;stroke-width:1.0;stroke-dasharray:5.0,5.0;" x1="1266.5" x2="1266.5" y1="88.2969" y2="677.4531"/><line style="stroke:#A80036;stroke-width:1.0;stroke-dasharray:5.0,5.0;" x1="1588" x2="1588" y1="305.7422" y2="677.4531"/><text fill="#000000" font-family="sans-serif" font-size="14" lengthAdjust="spacing" textLength="100" x="5" y="84.9951">Administrator</text><ellipse cx="58" cy="15" fill="#FEFECE" filter="url(#f1tm8g733asuiv)" rx="8" ry="8" style="stroke:#A80036;stroke-width:2.0;"/><path d="M58,23 L58,50 M45,31 L71,31 M58,50 L45,65 M58,50 L71,65 " fill="none" filter="url(#f1tm8g733asuiv)" style="stroke:#A80036;stroke-width:2.0;"/><text fill="#000000" font-family="sans-serif" font-size="14" lengthAdjust="spacing" textLength="100" x="5" y="689.4482">Administrator</text><ellipse cx="58" cy="702.75" fill="#FEFECE" filter="url(#f1tm8g733asuiv)" rx="8" ry="8" style="stroke:#A80036;stroke-width:2.0;"/><path d="M58,710.75 L58,737.75 M45,718.75 L71,718.75 M58,737.75 L45,752.75 M58,737.75 L71,752.75 " fill="none" filter="url(#f1tm8g733asuiv)" style="stroke:#A80036;stroke-width:2.0;"/><rect fill="#FEFECE" filter="url(#f1tm8g733asuiv)" height="30.2969" style="stroke:#A80036;stroke-width:1.5;" width="108" x="485" y="53"/><text fill="#000000" font-family="sans-serif" font-size="14" lengthAdjust="spacing" textLength="94" x="492" y="72.9951">:ParameterUI</text><rect fill="#FEFECE" filter="url(#f1tm8g733asuiv)" height="30.2969" style="stroke:#A80036;stroke-width:1.5;" width="108" x="485" y="676.4531"/><text fill="#000000" font-family="sans-serif" font-size="14" lengthAdjust="spacing" textLength="94" x="492" y="696.4482">:ParameterUI</text><rect fill="#FEFECE" filter="url(#f1tm8g733asuiv)" height="30.2969" style="stroke:#A80036;stroke-width:1.5;" width="168" x="803" y="53"/><text fill="#000000" font-family="sans-serif" font-size="14" lengthAdjust="spacing" textLength="154" x="810" y="72.9951">:ParameterController</text><rect fill="#FEFECE" filter="url(#f1tm8g733asuiv)" height="30.2969" style="stroke:#A80036;stroke-width:1.5;" width="168" x="803" y="676.4531"/><text fill="#000000" font-family="sans-serif" font-size="14" lengthAdjust="spacing" textLength="154" x="810" y="696.4482">:ParameterController</text><rect fill="#FEFECE" filter="url(#f1tm8g733asuiv)" height="30.2969" style="stroke:#A80036;stroke-width:1.5;" width="87" x="1069.5" y="53"/><text fill="#000000" font-family="sans-serif" font-size="14" lengthAdjust="spacing" textLength="73" x="1076.5" y="72.9951">:Company</text><rect fill="#FEFECE" filter="url(#f1tm8g733asuiv)" height="30.2969" style="stroke:#A80036;stroke-width:1.5;" width="87" x="1069.5" y="676.4531"/><text fill="#000000" font-family="sans-serif" font-size="14" lengthAdjust="spacing" textLength="73" x="1076.5" y="696.4482">:Company</text><rect fill="#FEFECE" filter="url(#f1tm8g733asuiv)" height="30.2969" style="stroke:#A80036;stroke-width:1.5;" width="177" x="1176.5" y="53"/><text fill="#000000" font-family="sans-serif" font-size="14" lengthAdjust="spacing" textLength="163" x="1183.5" y="72.9951">store :ParameterStore</text><rect fill="#FEFECE" filter="url(#f1tm8g733asuiv)" height="30.2969" style="stroke:#A80036;stroke-width:1.5;" width="177" x="1176.5" y="676.4531"/><text fill="#000000" font-family="sans-serif" font-size="14" lengthAdjust="spacing" textLength="163" x="1183.5" y="696.4482">store :ParameterStore</text><rect fill="#FEFECE" filter="url(#f1tm8g733asuiv)" height="30.2969" style="stroke:#A80036;stroke-width:1.5;" width="105" x="1534" y="676.4531"/><text fill="#000000" font-family="sans-serif" font-size="14" lengthAdjust="spacing" textLength="91" x="1541" y="696.4482">p:Parameter</text><rect fill="#FFFFFF" filter="url(#f1tm8g733asuiv)" height="561.1563" style="stroke:#A80036;stroke-width:1.0;" width="10" x="53" y="98.2969"/><rect fill="#FFFFFF" filter="url(#f1tm8g733asuiv)" height="29.1328" style="stroke:#A80036;stroke-width:1.0;" width="10" x="536" y="119.4297"/><rect fill="#FFFFFF" filter="url(#f1tm8g733asuiv)" height="87.3984" style="stroke:#A80036;stroke-width:1.0;" width="10" x="536" y="177.6953"/><rect fill="#FFFFFF" filter="url(#f1tm8g733asuiv)" height="231.6641" style="stroke:#A80036;stroke-width:1.0;" width="10" x="536" y="427.7891"/><rect fill="#FFFFFF" filter="url(#f1tm8g733asuiv)" height="162.6953" style="stroke:#A80036;stroke-width:1.0;" width="10" x="884" y="206.8281"/><rect fill="#FFFFFF" filter="url(#f1tm8g733asuiv)" height="166.3984" style="stroke:#A80036;stroke-width:1.0;" width="10" x="884" y="456.9219"/><rect fill="#FFFFFF" filter="url(#f1tm8g733asuiv)" height="30" style="stroke:#A80036;stroke-width:1.0;" width="10" x="1110" y="339.5234"/><rect fill="#FFFFFF" filter="url(#f1tm8g733asuiv)" height="65.1328" style="stroke:#A80036;stroke-width:1.0;" width="10" x="1110" y="486.0547"/><rect fill="#FFFFFF" filter="url(#f1tm8g733asuiv)" height="145.2656" style="stroke:#A80036;stroke-width:1.0;" width="10" x="1262" y="523.1875"/><rect fill="#FFFFFF" filter="url(#f1tm8g733asuiv)" height="73.1328" style="stroke:#A80036;stroke-width:1.0;" width="10" x="1267" y="595.3203"/><polygon fill="#A80036" points="524,115.4297,534,119.4297,524,123.4297,528,119.4297" style="stroke:#A80036;stroke-width:1.0;"/><line style="stroke:#A80036;stroke-width:1.0;" x1="63" x2="530" y1="119.4297" y2="119.4297"/><text fill="#000000" font-family="sans-serif" font-size="13" font-weight="bold" lengthAdjust="spacing" textLength="9" x="70" y="114.3638">1</text><text fill="#000000" font-family="sans-serif" font-size="13" lengthAdjust="spacing" textLength="282" x="83" y="114.3638">specifies a new parameter and categorize it</text><polygon fill="#A80036" points="74,144.5625,64,148.5625,74,152.5625,70,148.5625" style="stroke:#A80036;stroke-width:1.0;"/><line style="stroke:#A80036;stroke-width:1.0;stroke-dasharray:2.0,2.0;" x1="68" x2="540" y1="148.5625" y2="148.5625"/><text fill="#000000" font-family="sans-serif" font-size="13" font-weight="bold" lengthAdjust="spacing" textLength="9" x="80" y="143.4966">2</text><text fill="#000000" font-family="sans-serif" font-size="13" lengthAdjust="spacing" textLength="436" x="93" y="143.4966">request data(code, shortname, description) and parametercategory</text><polygon fill="#A80036" points="524,173.6953,534,177.6953,524,181.6953,528,177.6953" style="stroke:#A80036;stroke-width:1.0;"/><line style="stroke:#A80036;stroke-width:1.0;" x1="63" x2="530" y1="177.6953" y2="177.6953"/><text fill="#000000" font-family="sans-serif" font-size="13" font-weight="bold" lengthAdjust="spacing" textLength="8" x="70" y="172.6294">3</text><text fill="#000000" font-family="sans-serif" font-size="13" lengthAdjust="spacing" textLength="187" x="82" y="172.6294">types/selects requested data</text><polygon fill="#A80036" points="872,202.8281,882,206.8281,872,210.8281,876,206.8281" style="stroke:#A80036;stroke-width:1.0;"/><line style="stroke:#A80036;stroke-width:1.0;" x1="546" x2="878" y1="206.8281" y2="206.8281"/><text fill="#000000" font-family="sans-serif" font-size="13" font-weight="bold" lengthAdjust="spacing" textLength="9" x="553" y="201.7622">4</text><text fill="#000000" font-family="sans-serif" font-size="13" lengthAdjust="spacing" textLength="306" x="566" y="201.7622">createParameter(code, shortname, description)</text><polygon fill="#A80036" points="1103,231.9609,1113,235.9609,1103,239.9609,1107,235.9609" style="stroke:#A80036;stroke-width:1.0;"/><line style="stroke:#A80036;stroke-width:1.0;" x1="894" x2="1109" y1="235.9609" y2="235.9609"/><text fill="#000000" font-family="sans-serif" font-size="13" font-weight="bold" lengthAdjust="spacing" textLength="9" x="901" y="230.895">5</text><text fill="#000000" font-family="sans-serif" font-size="13" lengthAdjust="spacing" textLength="184" x="914" y="230.895">store = getParameterStore()</text><polygon fill="#A80036" points="1255,261.0938,1265,265.0938,1255,269.0938,1259,265.0938" style="stroke:#A80036;stroke-width:1.0;"/><line style="stroke:#A80036;stroke-width:1.0;" x1="894" x2="1261" y1="265.0938" y2="265.0938"/><text fill="#000000" font-family="sans-serif" font-size="13" font-weight="bold" lengthAdjust="spacing" textLength="9" x="901" y="260.0278">6</text><text fill="#000000" font-family="sans-serif" font-size="13" lengthAdjust="spacing" textLength="336" x="914" y="260.0278">P = createParameter (code, shortname, description)</text><polygon fill="#A80036" points="1522,290.2266,1532,294.2266,1522,298.2266,1526,294.2266" style="stroke:#A80036;stroke-width:1.0;"/><line style="stroke:#A80036;stroke-width:1.0;stroke-dasharray:2.0,2.0;" x1="1267" x2="1528" y1="294.2266" y2="294.2266"/><text fill="#000000" font-family="sans-serif" font-size="13" font-weight="bold" lengthAdjust="spacing" textLength="9" x="1274" y="289.1606">7</text><text fill="#000000" font-family="sans-serif" font-size="13" lengthAdjust="spacing" textLength="230" x="1287" y="289.1606">create(code,shortname,description)</text><rect fill="#FEFECE" filter="url(#f1tm8g733asuiv)" height="30.2969" style="stroke:#A80036;stroke-width:1.5;" width="105" x="1534" y="273.0938"/><text fill="#000000" font-family="sans-serif" font-size="14" lengthAdjust="spacing" textLength="91" x="1541" y="293.0889">p:Parameter</text><polygon fill="#A80036" points="1255,335.5234,1265,339.5234,1255,343.5234,1259,339.5234" style="stroke:#A80036;stroke-width:1.0;"/><line style="stroke:#A80036;stroke-width:1.0;" x1="894" x2="1261" y1="339.5234" y2="339.5234"/><text fill="#000000" font-family="sans-serif" font-size="13" font-weight="bold" lengthAdjust="spacing" textLength="9" x="901" y="334.4575">8</text><text fill="#000000" font-family="sans-serif" font-size="13" lengthAdjust="spacing" textLength="137" x="914" y="334.4575">validateParameter(p)</text><polygon fill="#A80036" points="74,394.6563,64,398.6563,74,402.6563,70,398.6563" style="stroke:#A80036;stroke-width:1.0;"/><line style="stroke:#A80036;stroke-width:1.0;stroke-dasharray:2.0,2.0;" x1="68" x2="540" y1="398.6563" y2="398.6563"/><text fill="#000000" font-family="sans-serif" font-size="13" font-weight="bold" lengthAdjust="spacing" textLength="9" x="80" y="393.5903">9</text><text fill="#000000" font-family="sans-serif" font-size="13" lengthAdjust="spacing" textLength="277" x="93" y="393.5903">shows the data and request a confirmation</text><polygon fill="#A80036" points="524,423.7891,534,427.7891,524,431.7891,528,427.7891" style="stroke:#A80036;stroke-width:1.0;"/><line style="stroke:#A80036;stroke-width:1.0;" x1="63" x2="530" y1="427.7891" y2="427.7891"/><text fill="#000000" font-family="sans-serif" font-size="13" font-weight="bold" lengthAdjust="spacing" textLength="19" x="70" y="422.7231">10</text><text fill="#000000" font-family="sans-serif" font-size="13" lengthAdjust="spacing" textLength="114" x="93" y="422.7231">confirms the data</text><polygon fill="#A80036" points="872,452.9219,882,456.9219,872,460.9219,876,456.9219" style="stroke:#A80036;stroke-width:1.0;"/><line style="stroke:#A80036;stroke-width:1.0;" x1="546" x2="878" y1="456.9219" y2="456.9219"/><text fill="#000000" font-family="sans-serif" font-size="13" font-weight="bold" lengthAdjust="spacing" textLength="18" x="553" y="451.856">11</text><text fill="#000000" font-family="sans-serif" font-size="13" lengthAdjust="spacing" textLength="109" x="575" y="451.856">saveParameter()</text><polygon fill="#A80036" points="1255,482.0547,1265,486.0547,1255,490.0547,1259,486.0547" style="stroke:#A80036;stroke-width:1.0;"/><line style="stroke:#A80036;stroke-width:1.0;" x1="894" x2="1261" y1="486.0547" y2="486.0547"/><text fill="#000000" font-family="sans-serif" font-size="13" font-weight="bold" lengthAdjust="spacing" textLength="18" x="901" y="480.9888">12</text><text fill="#000000" font-family="sans-serif" font-size="13" lengthAdjust="spacing" textLength="117" x="923" y="480.9888">saveParameter(p)</text><line style="stroke:#A80036;stroke-width:1.0;" x1="1272" x2="1314" y1="515.1875" y2="515.1875"/><line style="stroke:#A80036;stroke-width:1.0;" x1="1314" x2="1314" y1="515.1875" y2="528.1875"/><line style="stroke:#A80036;stroke-width:1.0;" x1="1273" x2="1314" y1="528.1875" y2="528.1875"/><polygon fill="#A80036" points="1283,524.1875,1273,528.1875,1283,532.1875,1279,528.1875" style="stroke:#A80036;stroke-width:1.0;"/><text fill="#000000" font-family="sans-serif" font-size="13" font-weight="bold" lengthAdjust="spacing" textLength="17" x="1279" y="510.1216">13</text><text fill="#000000" font-family="sans-serif" font-size="13" lengthAdjust="spacing" textLength="137" x="1300" y="510.1216">validateParameter(p)</text><line style="stroke:#A80036;stroke-width:1.0;" x1="1277" x2="1319" y1="587.3203" y2="587.3203"/><line style="stroke:#A80036;stroke-width:1.0;" x1="1319" x2="1319" y1="587.3203" y2="600.3203"/><line style="stroke:#A80036;stroke-width:1.0;" x1="1278" x2="1319" y1="600.3203" y2="600.3203"/><polygon fill="#A80036" points="1288,596.3203,1278,600.3203,1288,604.3203,1284,600.3203" style="stroke:#A80036;stroke-width:1.0;"/><text fill="#000000" font-family="sans-serif" font-size="13" font-weight="bold" lengthAdjust="spacing" textLength="18" x="1284" y="582.2544">14</text><text fill="#000000" font-family="sans-serif" font-size="13" lengthAdjust="spacing" textLength="145" x="1306" y="582.2544">save.addParameter(p)</text><polygon fill="#A80036" points="69,655.4531,59,659.4531,69,663.4531,65,659.4531" style="stroke:#A80036;stroke-width:1.0;"/><line style="stroke:#A80036;stroke-width:1.0;stroke-dasharray:2.0,2.0;" x1="63" x2="540" y1="659.4531" y2="659.4531"/><text fill="#000000" font-family="sans-serif" font-size="13" font-weight="bold" lengthAdjust="spacing" textLength="18" x="75" y="654.3872">15</text><text fill="#000000" font-family="sans-serif" font-size="13" lengthAdjust="spacing" textLength="169" x="97" y="654.3872">informs operation succecs</text><!--MD5=[0fbe98523ea14d238bc1b0f716e958a6]
@startuml
autonumber
actor "Administrator" as ADMIN

participant ":ParameterUI" as UI
participant ":ParameterController" as CTRL
participant ":Company" as CMP
participant "store :ParameterStore" as STORE
participant "p:Parameter" as TET

activate ADMIN
ADMIN -> UI : specifies a new parameter and categorize it
activate UI
UI - -> ADMIN : request data(code, shortname, description) and parametercategory
deactivate UI

ADMIN -> UI : types/selects requested data
activate UI
UI -> CTRL: createParameter(code, shortname, description)
activate CTRL
CTRL -> CMP : store = getParameterStore()
deactivate CMP
CTRL -> STORE : P = createParameter (code, shortname, description)
deactivate 
 STORE - -> TET** : create(code,shortname,description)
deactivate CMP
CTRL -> STORE : validateParameter(p)
activate CMP
deactivate CMP
deactivate CTRL

UI - -> ADMIN : shows the data and request a confirmation
deactivate UI

ADMIN -> UI : confirms the data
activate UI

UI -> CTRL : saveParameter()
activate CTRL

CTRL -> STORE : saveParameter(p)
activate CMP

STORE -> STORE++ : validateParameter(p)
CMP- -
STORE -> STORE++ : save.addParameter(p)
CMP- -
deactivate CMP
deactivate CTRL
UI - -> ADMIN : informs operation succecs
deactivate UI

deactivate ADMIN
@enduml

PlantUML version 1.2021.6beta2(Unknown compile time)
(GPL source distribution)
Java Runtime: Java(TM) SE Runtime Environment
JVM: Java HotSpot(TM) 64-Bit Server VM
Default Encoding: UTF-8
Language: en
Country: US
--></g></svg>