<?xml version="1.0" encoding="UTF-8" standalone="no"?><svg xmlns="http://www.w3.org/2000/svg" xmlns:xlink="http://www.w3.org/1999/xlink" contentScriptType="application/ecmascript" contentStyleType="text/css" height="501px" preserveAspectRatio="none" style="width:273px;height:501px;" version="1.1" viewBox="0 0 273 501" width="273px" zoomAndPan="magnify"><defs><filter height="300%" id="f71s5nhpw6rgd" width="300%" x="-1" y="-1"><feGaussianBlur result="blurOut" stdDeviation="2.0"/><feColorMatrix in="blurOut" result="blurOut2" type="matrix" values="0 0 0 0 0 0 0 0 0 0 0 0 0 0 0 0 0 0 .4 0"/><feOffset dx="4.0" dy="4.0" in="blurOut2" result="blurOut3"/><feBlend in="SourceGraphic" in2="blurOut3" mode="normal"/></filter></defs><g><!--MD5=[36afb6bbd95a8ac778c4537c55a683d5]
class ParameterCategory--><rect codeLine="4" fill="#FEFECE" filter="url(#f71s5nhpw6rgd)" height="78.4141" id="ParameterCategory" style="stroke:#A80036;stroke-width:1.5;" width="148" x="7" y="292"/><ellipse cx="22" cy="308" fill="#ADD1B2" rx="11" ry="11" style="stroke:#A80036;stroke-width:1.0;"/><path d="M24.3438,303.6719 C23.4063,303.2344 22.8125,303.0938 21.9375,303.0938 C19.3125,303.0938 17.3125,305.1719 17.3125,307.8906 L17.3125,309.0156 C17.3125,311.5938 19.4219,313.4844 22.3125,313.4844 C23.5313,313.4844 24.6875,313.1875 25.4375,312.6406 C26.0156,312.2344 26.3438,311.7813 26.3438,311.3906 C26.3438,310.9375 25.9531,310.5469 25.4844,310.5469 C25.2656,310.5469 25.0625,310.625 24.875,310.8125 C24.4219,311.2969 24.4219,311.2969 24.2344,311.3906 C23.8125,311.6563 23.125,311.7813 22.3594,311.7813 C20.3125,311.7813 19.0156,310.6875 19.0156,308.9844 L19.0156,307.8906 C19.0156,306.1094 20.2656,304.7969 22,304.7969 C22.5781,304.7969 23.1875,304.9531 23.6563,305.2031 C24.1406,305.4844 24.3125,305.7031 24.4063,306.1094 C24.4688,306.5156 24.5,306.6406 24.6406,306.7656 C24.7813,306.9063 25.0156,307.0156 25.2344,307.0156 C25.5,307.0156 25.7656,306.875 25.9375,306.6563 C26.0469,306.5 26.0781,306.3125 26.0781,305.8906 L26.0781,304.4688 C26.0781,304.0313 26.0625,303.9063 25.9688,303.75 C25.8125,303.4844 25.5313,303.3438 25.2344,303.3438 C24.9375,303.3438 24.7344,303.4375 24.5156,303.75 L24.3438,303.6719 Z " fill="#000000"/><text fill="#000000" font-family="sans-serif" font-size="12" lengthAdjust="spacing" textLength="116" x="36" y="312.1543">ParameterCategory</text><line style="stroke:#A80036;stroke-width:1.5;" x1="8" x2="154" y1="324" y2="324"/><text fill="#000000" font-family="sans-serif" font-size="11" lengthAdjust="spacing" textLength="32" x="13" y="338.2104">-code</text><text fill="#000000" font-family="sans-serif" font-size="11" lengthAdjust="spacing" textLength="66" x="13" y="351.0151">-description</text><text fill="#000000" font-family="sans-serif" font-size="11" lengthAdjust="spacing" textLength="34" x="13" y="363.8198">-nhsId</text><!--MD5=[02e4b9b7573f1156f41e60aa5b4e25a4]
class Company--><rect codeLine="10" fill="#FEFECE" filter="url(#f71s5nhpw6rgd)" height="52.8047" id="Company" style="stroke:#A80036;stroke-width:1.5;" width="88" x="85" y="7"/><ellipse cx="100" cy="23" fill="#ADD1B2" rx="11" ry="11" style="stroke:#A80036;stroke-width:1.0;"/><path d="M102.3438,18.6719 C101.4063,18.2344 100.8125,18.0938 99.9375,18.0938 C97.3125,18.0938 95.3125,20.1719 95.3125,22.8906 L95.3125,24.0156 C95.3125,26.5938 97.4219,28.4844 100.3125,28.4844 C101.5313,28.4844 102.6875,28.1875 103.4375,27.6406 C104.0156,27.2344 104.3438,26.7813 104.3438,26.3906 C104.3438,25.9375 103.9531,25.5469 103.4844,25.5469 C103.2656,25.5469 103.0625,25.625 102.875,25.8125 C102.4219,26.2969 102.4219,26.2969 102.2344,26.3906 C101.8125,26.6563 101.125,26.7813 100.3594,26.7813 C98.3125,26.7813 97.0156,25.6875 97.0156,23.9844 L97.0156,22.8906 C97.0156,21.1094 98.2656,19.7969 100,19.7969 C100.5781,19.7969 101.1875,19.9531 101.6563,20.2031 C102.1406,20.4844 102.3125,20.7031 102.4063,21.1094 C102.4688,21.5156 102.5,21.6406 102.6406,21.7656 C102.7813,21.9063 103.0156,22.0156 103.2344,22.0156 C103.5,22.0156 103.7656,21.875 103.9375,21.6563 C104.0469,21.5 104.0781,21.3125 104.0781,20.8906 L104.0781,19.4688 C104.0781,19.0313 104.0625,18.9063 103.9688,18.75 C103.8125,18.4844 103.5313,18.3438 103.2344,18.3438 C102.9375,18.3438 102.7344,18.4375 102.5156,18.75 L102.3438,18.6719 Z " fill="#000000"/><text fill="#000000" font-family="sans-serif" font-size="12" lengthAdjust="spacing" textLength="56" x="114" y="27.1543">Company</text><line style="stroke:#A80036;stroke-width:1.5;" x1="86" x2="172" y1="39" y2="39"/><text fill="#000000" font-family="sans-serif" font-size="11" lengthAdjust="spacing" textLength="70" x="91" y="53.2104">-designation</text><!--MD5=[1f6362a5c8f21d8d6a0fce68f3a92a4e]
class Parameter--><rect codeLine="14" fill="#FEFECE" filter="url(#f71s5nhpw6rgd)" height="78.4141" id="Parameter" style="stroke:#A80036;stroke-width:1.5;" width="93" x="82.5" y="137"/><ellipse cx="97.5" cy="153" fill="#ADD1B2" rx="11" ry="11" style="stroke:#A80036;stroke-width:1.0;"/><path d="M99.8438,148.6719 C98.9063,148.2344 98.3125,148.0938 97.4375,148.0938 C94.8125,148.0938 92.8125,150.1719 92.8125,152.8906 L92.8125,154.0156 C92.8125,156.5938 94.9219,158.4844 97.8125,158.4844 C99.0313,158.4844 100.1875,158.1875 100.9375,157.6406 C101.5156,157.2344 101.8438,156.7813 101.8438,156.3906 C101.8438,155.9375 101.4531,155.5469 100.9844,155.5469 C100.7656,155.5469 100.5625,155.625 100.375,155.8125 C99.9219,156.2969 99.9219,156.2969 99.7344,156.3906 C99.3125,156.6563 98.625,156.7813 97.8594,156.7813 C95.8125,156.7813 94.5156,155.6875 94.5156,153.9844 L94.5156,152.8906 C94.5156,151.1094 95.7656,149.7969 97.5,149.7969 C98.0781,149.7969 98.6875,149.9531 99.1563,150.2031 C99.6406,150.4844 99.8125,150.7031 99.9063,151.1094 C99.9688,151.5156 100,151.6406 100.1406,151.7656 C100.2813,151.9063 100.5156,152.0156 100.7344,152.0156 C101,152.0156 101.2656,151.875 101.4375,151.6563 C101.5469,151.5 101.5781,151.3125 101.5781,150.8906 L101.5781,149.4688 C101.5781,149.0313 101.5625,148.9063 101.4688,148.75 C101.3125,148.4844 101.0313,148.3438 100.7344,148.3438 C100.4375,148.3438 100.2344,148.4375 100.0156,148.75 L99.8438,148.6719 Z " fill="#000000"/><text fill="#000000" font-family="sans-serif" font-size="12" lengthAdjust="spacing" textLength="61" x="111.5" y="157.1543">Parameter</text><line style="stroke:#A80036;stroke-width:1.5;" x1="83.5" x2="174.5" y1="169" y2="169"/><text fill="#000000" font-family="sans-serif" font-size="11" lengthAdjust="spacing" textLength="32" x="88.5" y="183.2104">-code</text><text fill="#000000" font-family="sans-serif" font-size="11" lengthAdjust="spacing" textLength="65" x="88.5" y="196.0151">-shortname</text><text fill="#000000" font-family="sans-serif" font-size="11" lengthAdjust="spacing" textLength="66" x="88.5" y="208.8198">-description</text><!--MD5=[da547346deef918ea16944ba046651ef]
class Administrator--><rect codeLine="20" fill="#FEFECE" filter="url(#f71s5nhpw6rgd)" height="40" id="Administrator" style="stroke:#A80036;stroke-width:1.5;" width="112" x="112" y="447"/><ellipse cx="127" cy="463" fill="#ADD1B2" rx="11" ry="11" style="stroke:#A80036;stroke-width:1.0;"/><path d="M129.3438,458.6719 C128.4063,458.2344 127.8125,458.0938 126.9375,458.0938 C124.3125,458.0938 122.3125,460.1719 122.3125,462.8906 L122.3125,464.0156 C122.3125,466.5938 124.4219,468.4844 127.3125,468.4844 C128.5313,468.4844 129.6875,468.1875 130.4375,467.6406 C131.0156,467.2344 131.3438,466.7813 131.3438,466.3906 C131.3438,465.9375 130.9531,465.5469 130.4844,465.5469 C130.2656,465.5469 130.0625,465.625 129.875,465.8125 C129.4219,466.2969 129.4219,466.2969 129.2344,466.3906 C128.8125,466.6563 128.125,466.7813 127.3594,466.7813 C125.3125,466.7813 124.0156,465.6875 124.0156,463.9844 L124.0156,462.8906 C124.0156,461.1094 125.2656,459.7969 127,459.7969 C127.5781,459.7969 128.1875,459.9531 128.6563,460.2031 C129.1406,460.4844 129.3125,460.7031 129.4063,461.1094 C129.4688,461.5156 129.5,461.6406 129.6406,461.7656 C129.7813,461.9063 130.0156,462.0156 130.2344,462.0156 C130.5,462.0156 130.7656,461.875 130.9375,461.6563 C131.0469,461.5 131.0781,461.3125 131.0781,460.8906 L131.0781,459.4688 C131.0781,459.0313 131.0625,458.9063 130.9688,458.75 C130.8125,458.4844 130.5313,458.3438 130.2344,458.3438 C129.9375,458.3438 129.7344,458.4375 129.5156,458.75 L129.3438,458.6719 Z " fill="#000000"/><text fill="#000000" font-family="sans-serif" font-size="12" lengthAdjust="spacing" textLength="80" x="141" y="467.1543">Administrator</text><line style="stroke:#A80036;stroke-width:1.5;" x1="113" x2="223" y1="479" y2="479"/><!--MD5=[12d76240d3c3c66074d4ec2ea8bf469c]
link Company to Parameter--><path codeLine="23" d="M129,60.27 C129,80.229 129,108.327 129,131.72 " fill="none" id="Company-to-Parameter" style="stroke:#A80036;stroke-width:1.0;"/><polygon fill="#A80036" points="129,136.941,133,127.941,129,131.941,125,127.941,129,136.941" style="stroke:#A80036;stroke-width:1.0;"/><text fill="#000000" font-family="sans-serif" font-size="13" lengthAdjust="spacing" textLength="56" x="130" y="103.0669">specifies</text><text fill="#000000" font-family="sans-serif" font-size="13" lengthAdjust="spacing" textLength="8" x="120.125" y="79.8693">1</text><text fill="#000000" font-family="sans-serif" font-size="13" lengthAdjust="spacing" textLength="7" x="121.3984" y="125.9814">*</text><!--MD5=[93b4f25fb503a8e0e9a46b1d30ff3f44]
link Company to ParameterCategory--><path codeLine="24" d="M96.9584,60.337 C76.3543,79.129 51.3811,106.534 40,137 C21.397,186.799 40.4163,247.147 58.28,286.953 " fill="none" id="Company-to-ParameterCategory" style="stroke:#A80036;stroke-width:1.0;"/><polygon fill="#A80036" points="60.4502,291.704,60.3496,281.8557,58.373,287.1559,53.0727,285.1792,60.4502,291.704" style="stroke:#A80036;stroke-width:1.0;"/><text fill="#000000" font-family="sans-serif" font-size="13" lengthAdjust="spacing" textLength="23" x="41" y="180.5669">has</text><text fill="#000000" font-family="sans-serif" font-size="13" lengthAdjust="spacing" textLength="8" x="81.0743" y="79.951">1</text><text fill="#000000" font-family="sans-serif" font-size="13" lengthAdjust="spacing" textLength="7" x="49.467" y="280.997">*</text><!--MD5=[6df8849671cb880f6936e94aa30db6f9]
link Parameter to ParameterCategory--><path codeLine="25" d="M93.816,215.164 C87.3265,224.316 81.4999,234.5 78,245 C73.6304,258.109 72.8562,272.992 73.6327,286.6 " fill="none" id="Parameter-to-ParameterCategory" style="stroke:#A80036;stroke-width:1.0;"/><polygon fill="#A80036" points="74.0191,291.945,77.3607,282.6804,73.6591,286.958,69.3815,283.2564,74.0191,291.945" style="stroke:#A80036;stroke-width:1.0;"/><text fill="#000000" font-family="sans-serif" font-size="13" lengthAdjust="spacing" textLength="106" x="79" y="258.0669">presented under</text><text fill="#000000" font-family="sans-serif" font-size="13" lengthAdjust="spacing" textLength="7" x="79.9254" y="235.5179">*</text><text fill="#000000" font-family="sans-serif" font-size="13" lengthAdjust="spacing" textLength="8" x="64.1318" y="280.9861">1</text><!--MD5=[8fed49cf12a674e36a1de475622ee091]
link ParameterCategory to Administrator--><path codeLine="26" d="M102.8525,370.129 C111.613,384.952 121.991,401.9552 132,417 C137.624,425.4538 144.104,434.4725 150.003,442.438 " fill="none" id="ParameterCategory-to-Administrator" style="stroke:#A80036;stroke-width:1.0;"/><polygon fill="#A80036" points="153.211,446.7447,151.0409,437.1379,150.2235,442.7354,144.626,441.918,153.211,446.7447" style="stroke:#A80036;stroke-width:1.0;"/><text fill="#000000" font-family="sans-serif" font-size="13" lengthAdjust="spacing" textLength="69" x="133" y="413.0669">created by</text><text fill="#000000" font-family="sans-serif" font-size="13" lengthAdjust="spacing" textLength="7" x="99.1215" y="390.4766">*</text><text fill="#000000" font-family="sans-serif" font-size="13" lengthAdjust="spacing" textLength="8" x="139.9266" y="436.0241">1</text><!--MD5=[eaea43e34e45c5b9d20b595fc78f1f20]
link Company to Administrator--><path codeLine="27" d="M170.172,60.119 C180.035,68.378 189.34,78.436 195,90 C255.612,213.844 204.333,262.145 207,400 C207.146,407.5541 209.492,409.8673 207,417 C203.732,426.3532 197.849,435.2563 191.627,442.8446 " fill="none" id="Company-to-Administrator" style="stroke:#A80036;stroke-width:1.0;"/><polygon fill="#A80036" points="188.15,446.9196,197.0343,442.6689,191.3952,443.1158,190.9482,437.4766,188.15,446.9196" style="stroke:#A80036;stroke-width:1.0;"/><text fill="#000000" font-family="sans-serif" font-size="13" lengthAdjust="spacing" textLength="41" x="224" y="258.0669">knows</text><text fill="#000000" font-family="sans-serif" font-size="13" lengthAdjust="spacing" textLength="7" x="171.4128" y="79.6853">*</text><text fill="#000000" font-family="sans-serif" font-size="13" lengthAdjust="spacing" textLength="8" x="184.8941" y="435.9043">1</text><!--MD5=[96f6c268dc128f7194718cef9ae5e13a]
@startuml
skinparam classAttributeIconSize 0
hide methods

class ParameterCategory {
  -code
  -description
  -nhsId
}

class Company {
  -designation
}

class Parameter {
 -code
 -shortname
 -description
}

class Administrator {
}

Company "1" - -> "*" Parameter : specifies
Company "1" - -> "*" ParameterCategory : has
Parameter "*" - -> "1" ParameterCategory : presented under
ParameterCategory "*" - -> "1" Administrator : created by
Company "*" - -> "1" Administrator : knows
@enduml

PlantUML version 1.2021.5(Sun Apr 25 11:20:28 UTC 2021)
(GPL source distribution)
Java Runtime: Java(TM) SE Runtime Environment
JVM: Java HotSpot(TM) 64-Bit Server VM
Default Encoding: UTF-8
Language: en
Country: US
--></g></svg>