<?xml version="1.0" encoding="UTF-8" standalone="no"?><svg xmlns="http://www.w3.org/2000/svg" xmlns:xlink="http://www.w3.org/1999/xlink" contentScriptType="application/ecmascript" contentStyleType="text/css" height="489px" preserveAspectRatio="none" style="width:283px;height:489px;" version="1.1" viewBox="0 0 283 489" width="283px" zoomAndPan="magnify"><defs><filter height="300%" id="f1xgsurk6tixq6" width="300%" x="-1" y="-1"><feGaussianBlur result="blurOut" stdDeviation="2.0"/><feColorMatrix in="blurOut" result="blurOut2" type="matrix" values="0 0 0 0 0 0 0 0 0 0 0 0 0 0 0 0 0 0 .4 0"/><feOffset dx="4.0" dy="4.0" in="blurOut2" result="blurOut3"/><feBlend in="SourceGraphic" in2="blurOut3" mode="normal"/></filter></defs><g><!--MD5=[36afb6bbd95a8ac778c4537c55a683d5]
class ParameterCategory--><rect codeLine="4" fill="#FEFECE" filter="url(#f1xgsurk6tixq6)" height="65.6094" id="ParameterCategory" style="stroke:#A80036;stroke-width:1.5;" width="148" x="19.5423" y="292"/><ellipse cx="34.5423" cy="308" fill="#ADD1B2" rx="11" ry="11" style="stroke:#A80036;stroke-width:1.0;"/><path d="M36.8861,303.6719 C35.9486,303.2344 35.3548,303.0938 34.4798,303.0938 C31.8548,303.0938 29.8548,305.1719 29.8548,307.8906 L29.8548,309.0156 C29.8548,311.5938 31.9642,313.4844 34.8548,313.4844 C36.0736,313.4844 37.2298,313.1875 37.9798,312.6406 C38.5579,312.2344 38.8861,311.7813 38.8861,311.3906 C38.8861,310.9375 38.4954,310.5469 38.0267,310.5469 C37.8079,310.5469 37.6048,310.625 37.4173,310.8125 C36.9642,311.2969 36.9642,311.2969 36.7767,311.3906 C36.3548,311.6563 35.6673,311.7813 34.9017,311.7813 C32.8548,311.7813 31.5579,310.6875 31.5579,308.9844 L31.5579,307.8906 C31.5579,306.1094 32.8079,304.7969 34.5423,304.7969 C35.1204,304.7969 35.7298,304.9531 36.1986,305.2031 C36.6829,305.4844 36.8548,305.7031 36.9486,306.1094 C37.0111,306.5156 37.0423,306.6406 37.1829,306.7656 C37.3236,306.9063 37.5579,307.0156 37.7767,307.0156 C38.0423,307.0156 38.3079,306.875 38.4798,306.6563 C38.5892,306.5 38.6204,306.3125 38.6204,305.8906 L38.6204,304.4688 C38.6204,304.0313 38.6048,303.9063 38.5111,303.75 C38.3548,303.4844 38.0736,303.3438 37.7767,303.3438 C37.4798,303.3438 37.2767,303.4375 37.0579,303.75 L36.8861,303.6719 Z " fill="#000000"/><text fill="#000000" font-family="sans-serif" font-size="12" lengthAdjust="spacing" textLength="116" x="48.5423" y="312.1543">ParameterCategory</text><line style="stroke:#A80036;stroke-width:1.5;" x1="20.5423" x2="166.5423" y1="324" y2="324"/><text fill="#000000" font-family="sans-serif" font-size="11" lengthAdjust="spacing" textLength="37" x="25.5423" y="338.2104">-name</text><text fill="#000000" font-family="sans-serif" font-size="11" lengthAdjust="spacing" textLength="32" x="25.5423" y="351.0151">-code</text><!--MD5=[02e4b9b7573f1156f41e60aa5b4e25a4]
class Company--><rect codeLine="9" fill="#FEFECE" filter="url(#f1xgsurk6tixq6)" height="52.8047" id="Company" style="stroke:#A80036;stroke-width:1.5;" width="88" x="97.5423" y="7"/><ellipse cx="112.5423" cy="23" fill="#ADD1B2" rx="11" ry="11" style="stroke:#A80036;stroke-width:1.0;"/><path d="M114.8861,18.6719 C113.9486,18.2344 113.3548,18.0938 112.4798,18.0938 C109.8548,18.0938 107.8548,20.1719 107.8548,22.8906 L107.8548,24.0156 C107.8548,26.5938 109.9642,28.4844 112.8548,28.4844 C114.0736,28.4844 115.2298,28.1875 115.9798,27.6406 C116.5579,27.2344 116.8861,26.7813 116.8861,26.3906 C116.8861,25.9375 116.4954,25.5469 116.0267,25.5469 C115.8079,25.5469 115.6048,25.625 115.4173,25.8125 C114.9642,26.2969 114.9642,26.2969 114.7767,26.3906 C114.3548,26.6563 113.6673,26.7813 112.9017,26.7813 C110.8548,26.7813 109.5579,25.6875 109.5579,23.9844 L109.5579,22.8906 C109.5579,21.1094 110.8079,19.7969 112.5423,19.7969 C113.1204,19.7969 113.7298,19.9531 114.1986,20.2031 C114.6829,20.4844 114.8548,20.7031 114.9486,21.1094 C115.0111,21.5156 115.0423,21.6406 115.1829,21.7656 C115.3236,21.9063 115.5579,22.0156 115.7767,22.0156 C116.0423,22.0156 116.3079,21.875 116.4798,21.6563 C116.5892,21.5 116.6204,21.3125 116.6204,20.8906 L116.6204,19.4688 C116.6204,19.0313 116.6048,18.9063 116.5111,18.75 C116.3548,18.4844 116.0736,18.3438 115.7767,18.3438 C115.4798,18.3438 115.2767,18.4375 115.0579,18.75 L114.8861,18.6719 Z " fill="#000000"/><text fill="#000000" font-family="sans-serif" font-size="12" lengthAdjust="spacing" textLength="56" x="126.5423" y="27.1543">Company</text><line style="stroke:#A80036;stroke-width:1.5;" x1="98.5423" x2="184.5423" y1="39" y2="39"/><text fill="#000000" font-family="sans-serif" font-size="11" lengthAdjust="spacing" textLength="70" x="103.5423" y="53.2104">-designation</text><!--MD5=[1f6362a5c8f21d8d6a0fce68f3a92a4e]
class Parameter--><rect codeLine="13" fill="#FEFECE" filter="url(#f1xgsurk6tixq6)" height="78.4141" id="Parameter" style="stroke:#A80036;stroke-width:1.5;" width="93" x="95.0423" y="137"/><ellipse cx="110.0423" cy="153" fill="#ADD1B2" rx="11" ry="11" style="stroke:#A80036;stroke-width:1.0;"/><path d="M112.3861,148.6719 C111.4486,148.2344 110.8548,148.0938 109.9798,148.0938 C107.3548,148.0938 105.3548,150.1719 105.3548,152.8906 L105.3548,154.0156 C105.3548,156.5938 107.4642,158.4844 110.3548,158.4844 C111.5736,158.4844 112.7298,158.1875 113.4798,157.6406 C114.0579,157.2344 114.3861,156.7813 114.3861,156.3906 C114.3861,155.9375 113.9954,155.5469 113.5267,155.5469 C113.3079,155.5469 113.1048,155.625 112.9173,155.8125 C112.4642,156.2969 112.4642,156.2969 112.2767,156.3906 C111.8548,156.6563 111.1673,156.7813 110.4017,156.7813 C108.3548,156.7813 107.0579,155.6875 107.0579,153.9844 L107.0579,152.8906 C107.0579,151.1094 108.3079,149.7969 110.0423,149.7969 C110.6204,149.7969 111.2298,149.9531 111.6986,150.2031 C112.1829,150.4844 112.3548,150.7031 112.4486,151.1094 C112.5111,151.5156 112.5423,151.6406 112.6829,151.7656 C112.8236,151.9063 113.0579,152.0156 113.2767,152.0156 C113.5423,152.0156 113.8079,151.875 113.9798,151.6563 C114.0892,151.5 114.1204,151.3125 114.1204,150.8906 L114.1204,149.4688 C114.1204,149.0313 114.1048,148.9063 114.0111,148.75 C113.8548,148.4844 113.5736,148.3438 113.2767,148.3438 C112.9798,148.3438 112.7767,148.4375 112.5579,148.75 L112.3861,148.6719 Z " fill="#000000"/><text fill="#000000" font-family="sans-serif" font-size="12" lengthAdjust="spacing" textLength="61" x="124.0423" y="157.1543">Parameter</text><line style="stroke:#A80036;stroke-width:1.5;" x1="96.0423" x2="187.0423" y1="169" y2="169"/><text fill="#000000" font-family="sans-serif" font-size="11" lengthAdjust="spacing" textLength="32" x="101.0423" y="183.2104">-code</text><text fill="#000000" font-family="sans-serif" font-size="11" lengthAdjust="spacing" textLength="65" x="101.0423" y="196.0151">-shortname</text><text fill="#000000" font-family="sans-serif" font-size="11" lengthAdjust="spacing" textLength="66" x="101.0423" y="208.8198">-description</text><!--MD5=[da547346deef918ea16944ba046651ef]
class Administrator--><rect codeLine="19" fill="#FEFECE" filter="url(#f1xgsurk6tixq6)" height="40" id="Administrator" style="stroke:#A80036;stroke-width:1.5;" width="112" x="124.5423" y="435"/><ellipse cx="139.5423" cy="451" fill="#ADD1B2" rx="11" ry="11" style="stroke:#A80036;stroke-width:1.0;"/><path d="M141.8861,446.6719 C140.9486,446.2344 140.3548,446.0938 139.4798,446.0938 C136.8548,446.0938 134.8548,448.1719 134.8548,450.8906 L134.8548,452.0156 C134.8548,454.5938 136.9642,456.4844 139.8548,456.4844 C141.0736,456.4844 142.2298,456.1875 142.9798,455.6406 C143.5579,455.2344 143.8861,454.7813 143.8861,454.3906 C143.8861,453.9375 143.4954,453.5469 143.0267,453.5469 C142.8079,453.5469 142.6048,453.625 142.4173,453.8125 C141.9642,454.2969 141.9642,454.2969 141.7767,454.3906 C141.3548,454.6563 140.6673,454.7813 139.9017,454.7813 C137.8548,454.7813 136.5579,453.6875 136.5579,451.9844 L136.5579,450.8906 C136.5579,449.1094 137.8079,447.7969 139.5423,447.7969 C140.1204,447.7969 140.7298,447.9531 141.1986,448.2031 C141.6829,448.4844 141.8548,448.7031 141.9486,449.1094 C142.0111,449.5156 142.0423,449.6406 142.1829,449.7656 C142.3236,449.9063 142.5579,450.0156 142.7767,450.0156 C143.0423,450.0156 143.3079,449.875 143.4798,449.6563 C143.5892,449.5 143.6204,449.3125 143.6204,448.8906 L143.6204,447.4688 C143.6204,447.0313 143.6048,446.9063 143.5111,446.75 C143.3548,446.4844 143.0736,446.3438 142.7767,446.3438 C142.4798,446.3438 142.2767,446.4375 142.0579,446.75 L141.8861,446.6719 Z " fill="#000000"/><text fill="#000000" font-family="sans-serif" font-size="12" lengthAdjust="spacing" textLength="80" x="153.5423" y="455.1543">Administrator</text><line style="stroke:#A80036;stroke-width:1.5;" x1="125.5423" x2="235.5423" y1="467" y2="467"/><!--MD5=[12d76240d3c3c66074d4ec2ea8bf469c]
link Company to Parameter--><path codeLine="22" d="M141.5423,60.27 C141.5423,80.229 141.5423,108.327 141.5423,131.72 " fill="none" id="Company-to-Parameter" style="stroke:#A80036;stroke-width:1.0;"/><polygon fill="#A80036" points="141.5423,136.941,145.5423,127.941,141.5423,131.941,137.5423,127.941,141.5423,136.941" style="stroke:#A80036;stroke-width:1.0;"/><text fill="#000000" font-family="sans-serif" font-size="13" lengthAdjust="spacing" textLength="56" x="142.5423" y="103.0669">specifies</text><text fill="#000000" font-family="sans-serif" font-size="13" lengthAdjust="spacing" textLength="8" x="132.6673" y="79.8693">1</text><text fill="#000000" font-family="sans-serif" font-size="13" lengthAdjust="spacing" textLength="7" x="133.9407" y="125.9814">*</text><!--MD5=[93b4f25fb503a8e0e9a46b1d30ff3f44]
link Company to ParameterCategory--><path codeLine="23" d="M98.8071,60.04 C73.2052,77.987 42.9186,104.55 28.5423,137 C6,187.882 37.9763,249.208 64.5241,287.411 " fill="none" id="Company-to-ParameterCategory" style="stroke:#A80036;stroke-width:1.0;"/><polygon fill="#A80036" points="67.7307,291.953,65.8069,282.2939,64.8466,287.8686,59.2719,286.9083,67.7307,291.953" style="stroke:#A80036;stroke-width:1.0;"/><text fill="#000000" font-family="sans-serif" font-size="13" lengthAdjust="spacing" textLength="47" x="29.5423" y="180.5669">defines</text><text fill="#000000" font-family="sans-serif" font-size="13" lengthAdjust="spacing" textLength="8" x="81.6061" y="78.8408">1</text><text fill="#000000" font-family="sans-serif" font-size="13" lengthAdjust="spacing" textLength="7" x="54.6852" y="280.7111">*</text><!--MD5=[6df8849671cb880f6936e94aa30db6f9]
link Parameter to ParameterCategory--><path codeLine="24" d="M106.3583,215.164 C99.8688,224.316 94.0422,234.5 90.5423,245 C86.1742,258.104 85.7042,273.115 86.7425,286.507 " fill="none" id="Parameter-to-ParameterCategory" style="stroke:#A80036;stroke-width:1.0;"/><polygon fill="#A80036" points="87.2301,291.747,90.3798,282.4154,86.7672,286.7685,82.4141,283.1559,87.2301,291.747" style="stroke:#A80036;stroke-width:1.0;"/><text fill="#000000" font-family="sans-serif" font-size="13" lengthAdjust="spacing" textLength="106" x="91.5423" y="258.0669">presented under</text><text fill="#000000" font-family="sans-serif" font-size="13" lengthAdjust="spacing" textLength="7" x="92.4677" y="235.5179">*</text><text fill="#000000" font-family="sans-serif" font-size="13" lengthAdjust="spacing" textLength="8" x="77.1999" y="280.8422">1</text><!--MD5=[8fed49cf12a674e36a1de475622ee091]
link ParameterCategory to Administrator--><path codeLine="25" d="M113.7049,358.193 C122.9103,372.638 134.0743,389.8108 144.5423,405 C150.3043,413.3604 156.8183,422.3558 162.7063,430.3287 " fill="none" id="ParameterCategory-to-Administrator" style="stroke:#A80036;stroke-width:1.0;"/><polygon fill="#A80036" points="165.9043,434.6424,163.7569,425.0305,162.9262,430.626,157.3307,429.7954,165.9043,434.6424" style="stroke:#A80036;stroke-width:1.0;"/><text fill="#000000" font-family="sans-serif" font-size="13" lengthAdjust="spacing" textLength="69" x="145.5423" y="401.0669">created by</text><text fill="#000000" font-family="sans-serif" font-size="13" lengthAdjust="spacing" textLength="7" x="109.6729" y="377.555">*</text><text fill="#000000" font-family="sans-serif" font-size="13" lengthAdjust="spacing" textLength="8" x="152.6624" y="423.893">1</text><!--MD5=[eaea43e34e45c5b9d20b595fc78f1f20]
link Company to Administrator--><path codeLine="26" d="M182.7023,60.125 C192.5653,68.383 201.8733,78.44 207.5423,90 C265.9043,209.012 216.8753,255.475 219.5423,388 C219.6943,395.554 222.0343,397.8673 219.5423,405 C216.2743,414.3532 210.3913,423.2563 204.1693,430.8446 " fill="none" id="Company-to-Administrator" style="stroke:#A80036;stroke-width:1.0;"/><polygon fill="#A80036" points="200.6923,434.9196,209.5766,430.6689,203.9375,431.1158,203.4905,425.4766,200.6923,434.9196" style="stroke:#A80036;stroke-width:1.0;"/><text fill="#000000" font-family="sans-serif" font-size="13" lengthAdjust="spacing" textLength="41" x="234.5423" y="258.0669">knows</text><text fill="#000000" font-family="sans-serif" font-size="13" lengthAdjust="spacing" textLength="7" x="183.9404" y="79.6926">*</text><text fill="#000000" font-family="sans-serif" font-size="13" lengthAdjust="spacing" textLength="8" x="197.4364" y="423.9043">1</text><!--MD5=[09ee796d2aaf45cfd21e11405e8ee7e5]
@startuml
skinparam classAttributeIconSize 0
hide methods

class ParameterCategory {
  -name
  -code
}

class Company {
  -designation
}

class Parameter {
 -code
 -shortname
 -description
}

class Administrator {
}

Company "1" - -> "*" Parameter : specifies
Company "1" - -> "*" ParameterCategory : defines
Parameter "*" - -> "1" ParameterCategory : presented under
ParameterCategory "*" - -> "1" Administrator : created by
Company "*" - -> "1" Administrator : knows
@enduml

PlantUML version 1.2021.6beta4(Unknown compile time)
(GPL source distribution)
Java Runtime: Java(TM) SE Runtime Environment
JVM: Java HotSpot(TM) 64-Bit Server VM
Default Encoding: UTF-8
Language: en
Country: US
--></g></svg>