<?xml version="1.0" encoding="UTF-8" standalone="no"?><svg xmlns="http://www.w3.org/2000/svg" xmlns:xlink="http://www.w3.org/1999/xlink" contentScriptType="application/ecmascript" contentStyleType="text/css" height="693px" preserveAspectRatio="none" style="width:423px;height:693px;" version="1.1" viewBox="0 0 423 693" width="423px" zoomAndPan="magnify"><defs><filter height="300%" id="fp2eysqt8reg0" width="300%" x="-1" y="-1"><feGaussianBlur result="blurOut" stdDeviation="2.0"/><feColorMatrix in="blurOut" result="blurOut2" type="matrix" values="0 0 0 0 0 0 0 0 0 0 0 0 0 0 0 0 0 0 .4 0"/><feOffset dx="4.0" dy="4.0" in="blurOut2" result="blurOut3"/><feBlend in="SourceGraphic" in2="blurOut3" mode="normal"/></filter></defs><g><!--MD5=[02e4b9b7573f1156f41e60aa5b4e25a4]
class Company--><rect codeLine="1" fill="#FEFECE" filter="url(#fp2eysqt8reg0)" height="60.8047" id="Company" style="stroke:#A80036;stroke-width:1.5;" width="143" x="74.5" y="7"/><ellipse cx="114.25" cy="23" fill="#ADD1B2" rx="11" ry="11" style="stroke:#A80036;stroke-width:1.0;"/><path d="M116.5938,18.6719 C115.6563,18.2344 115.0625,18.0938 114.1875,18.0938 C111.5625,18.0938 109.5625,20.1719 109.5625,22.8906 L109.5625,24.0156 C109.5625,26.5938 111.6719,28.4844 114.5625,28.4844 C115.7813,28.4844 116.9375,28.1875 117.6875,27.6406 C118.2656,27.2344 118.5938,26.7813 118.5938,26.3906 C118.5938,25.9375 118.2031,25.5469 117.7344,25.5469 C117.5156,25.5469 117.3125,25.625 117.125,25.8125 C116.6719,26.2969 116.6719,26.2969 116.4844,26.3906 C116.0625,26.6563 115.375,26.7813 114.6094,26.7813 C112.5625,26.7813 111.2656,25.6875 111.2656,23.9844 L111.2656,22.8906 C111.2656,21.1094 112.5156,19.7969 114.25,19.7969 C114.8281,19.7969 115.4375,19.9531 115.9063,20.2031 C116.3906,20.4844 116.5625,20.7031 116.6563,21.1094 C116.7188,21.5156 116.75,21.6406 116.8906,21.7656 C117.0313,21.9063 117.2656,22.0156 117.4844,22.0156 C117.75,22.0156 118.0156,21.875 118.1875,21.6563 C118.2969,21.5 118.3281,21.3125 118.3281,20.8906 L118.3281,19.4688 C118.3281,19.0313 118.3125,18.9063 118.2188,18.75 C118.0625,18.4844 117.7813,18.3438 117.4844,18.3438 C117.1875,18.3438 116.9844,18.4375 116.7656,18.75 L116.5938,18.6719 Z " fill="#000000"/><text fill="#000000" font-family="sans-serif" font-size="12" lengthAdjust="spacing" textLength="56" x="133.75" y="27.1543">Company</text><line style="stroke:#A80036;stroke-width:1.5;" x1="75.5" x2="216.5" y1="39" y2="39"/><line style="stroke:#A80036;stroke-width:1.5;" x1="75.5" x2="216.5" y1="47" y2="47"/><ellipse cx="85.5" cy="58" fill="#84BE84" rx="3" ry="3" style="stroke:#038048;stroke-width:1.0;"/><text fill="#000000" font-family="sans-serif" font-size="11" lengthAdjust="spacing" textLength="117" x="94.5" y="61.2104">getParameterStore()</text><!--MD5=[1f6362a5c8f21d8d6a0fce68f3a92a4e]
class Parameter--><rect codeLine="4" fill="#FEFECE" filter="url(#fp2eysqt8reg0)" height="176.0469" id="Parameter" style="stroke:#A80036;stroke-width:1.5;" width="278" x="7" y="503"/><ellipse cx="111.25" cy="519" fill="#ADD1B2" rx="11" ry="11" style="stroke:#A80036;stroke-width:1.0;"/><path d="M113.5938,514.6719 C112.6563,514.2344 112.0625,514.0938 111.1875,514.0938 C108.5625,514.0938 106.5625,516.1719 106.5625,518.8906 L106.5625,520.0156 C106.5625,522.5938 108.6719,524.4844 111.5625,524.4844 C112.7813,524.4844 113.9375,524.1875 114.6875,523.6406 C115.2656,523.2344 115.5938,522.7813 115.5938,522.3906 C115.5938,521.9375 115.2031,521.5469 114.7344,521.5469 C114.5156,521.5469 114.3125,521.625 114.125,521.8125 C113.6719,522.2969 113.6719,522.2969 113.4844,522.3906 C113.0625,522.6563 112.375,522.7813 111.6094,522.7813 C109.5625,522.7813 108.2656,521.6875 108.2656,519.9844 L108.2656,518.8906 C108.2656,517.1094 109.5156,515.7969 111.25,515.7969 C111.8281,515.7969 112.4375,515.9531 112.9063,516.2031 C113.3906,516.4844 113.5625,516.7031 113.6563,517.1094 C113.7188,517.5156 113.75,517.6406 113.8906,517.7656 C114.0313,517.9063 114.2656,518.0156 114.4844,518.0156 C114.75,518.0156 115.0156,517.875 115.1875,517.6563 C115.2969,517.5 115.3281,517.3125 115.3281,516.8906 L115.3281,515.4688 C115.3281,515.0313 115.3125,514.9063 115.2188,514.75 C115.0625,514.4844 114.7813,514.3438 114.4844,514.3438 C114.1875,514.3438 113.9844,514.4375 113.7656,514.75 L113.5938,514.6719 Z " fill="#000000"/><text fill="#000000" font-family="sans-serif" font-size="12" lengthAdjust="spacing" textLength="61" x="131.75" y="523.1543">Parameter</text><line style="stroke:#A80036;stroke-width:1.5;" x1="8" x2="284" y1="535" y2="535"/><rect fill="none" height="6" style="stroke:#C82930;stroke-width:1.0;" width="6" x="15" y="543"/><text fill="#000000" font-family="sans-serif" font-size="11" lengthAdjust="spacing" textLength="65" x="27" y="549.2104">String code</text><rect fill="none" height="6" style="stroke:#C82930;stroke-width:1.0;" width="6" x="15" y="555.8047"/><text fill="#000000" font-family="sans-serif" font-size="11" lengthAdjust="spacing" textLength="98" x="27" y="562.0151">String shortname</text><rect fill="none" height="6" style="stroke:#C82930;stroke-width:1.0;" width="6" x="15" y="568.6094"/><text fill="#000000" font-family="sans-serif" font-size="11" lengthAdjust="spacing" textLength="99" x="27" y="574.8198">String description</text><rect fill="none" height="6" style="stroke:#C82930;stroke-width:1.0;" width="6" x="15" y="581.4141"/><text fill="#000000" font-family="sans-serif" font-size="11" lengthAdjust="spacing" textLength="128" x="27" y="587.6245">ParameterCategory pc</text><line style="stroke:#A80036;stroke-width:1.5;" x1="8" x2="284" y1="594.2188" y2="594.2188"/><ellipse cx="18" cy="605.2188" fill="#84BE84" rx="3" ry="3" style="stroke:#038048;stroke-width:1.0;"/><text fill="#000000" font-family="sans-serif" font-size="11" lengthAdjust="spacing" textLength="67" x="27" y="608.4292">Parameter()</text><ellipse cx="18" cy="618.0234" fill="#84BE84" rx="3" ry="3" style="stroke:#038048;stroke-width:1.0;"/><text fill="#000000" font-family="sans-serif" font-size="11" lengthAdjust="spacing" textLength="252" x="27" y="621.2339">Parameter(code, shortname, description, pc)</text><ellipse cx="18" cy="630.8281" fill="#84BE84" rx="3" ry="3" style="stroke:#038048;stroke-width:1.0;"/><text fill="#000000" font-family="sans-serif" font-size="11" lengthAdjust="spacing" textLength="125" x="27" y="634.0386">checkcoderules(code)</text><ellipse cx="18" cy="643.6328" fill="#84BE84" rx="3" ry="3" style="stroke:#038048;stroke-width:1.0;"/><text fill="#000000" font-family="sans-serif" font-size="11" lengthAdjust="spacing" textLength="191" x="27" y="646.8433">checkshortnamerules(shortname)</text><ellipse cx="18" cy="656.4375" fill="#84BE84" rx="3" ry="3" style="stroke:#038048;stroke-width:1.0;"/><text fill="#000000" font-family="sans-serif" font-size="11" lengthAdjust="spacing" textLength="193" x="27" y="659.6479">checkdescriptionrules(description)</text><ellipse cx="18" cy="669.2422" fill="#84BE84" rx="3" ry="3" style="stroke:#038048;stroke-width:1.0;"/><text fill="#000000" font-family="sans-serif" font-size="11" lengthAdjust="spacing" textLength="52" x="27" y="672.4526">toString()</text><!--MD5=[be7802b157a16874d39c59ca0e2b25be]
class ParameterStore--><rect codeLine="16" fill="#FEFECE" filter="url(#fp2eysqt8reg0)" height="86.4141" id="ParameterStore" style="stroke:#A80036;stroke-width:1.5;" width="315" x="94.5" y="357"/><ellipse cx="200.75" cy="373" fill="#ADD1B2" rx="11" ry="11" style="stroke:#A80036;stroke-width:1.0;"/><path d="M203.0938,368.6719 C202.1563,368.2344 201.5625,368.0938 200.6875,368.0938 C198.0625,368.0938 196.0625,370.1719 196.0625,372.8906 L196.0625,374.0156 C196.0625,376.5938 198.1719,378.4844 201.0625,378.4844 C202.2813,378.4844 203.4375,378.1875 204.1875,377.6406 C204.7656,377.2344 205.0938,376.7813 205.0938,376.3906 C205.0938,375.9375 204.7031,375.5469 204.2344,375.5469 C204.0156,375.5469 203.8125,375.625 203.625,375.8125 C203.1719,376.2969 203.1719,376.2969 202.9844,376.3906 C202.5625,376.6563 201.875,376.7813 201.1094,376.7813 C199.0625,376.7813 197.7656,375.6875 197.7656,373.9844 L197.7656,372.8906 C197.7656,371.1094 199.0156,369.7969 200.75,369.7969 C201.3281,369.7969 201.9375,369.9531 202.4063,370.2031 C202.8906,370.4844 203.0625,370.7031 203.1563,371.1094 C203.2188,371.5156 203.25,371.6406 203.3906,371.7656 C203.5313,371.9063 203.7656,372.0156 203.9844,372.0156 C204.25,372.0156 204.5156,371.875 204.6875,371.6563 C204.7969,371.5 204.8281,371.3125 204.8281,370.8906 L204.8281,369.4688 C204.8281,369.0313 204.8125,368.9063 204.7188,368.75 C204.5625,368.4844 204.2813,368.3438 203.9844,368.3438 C203.6875,368.3438 203.4844,368.4375 203.2656,368.75 L203.0938,368.6719 Z " fill="#000000"/><text fill="#000000" font-family="sans-serif" font-size="12" lengthAdjust="spacing" textLength="94" x="221.25" y="377.1543">ParameterStore</text><line style="stroke:#A80036;stroke-width:1.5;" x1="95.5" x2="408.5" y1="389" y2="389"/><line style="stroke:#A80036;stroke-width:1.5;" x1="95.5" x2="408.5" y1="397" y2="397"/><ellipse cx="105.5" cy="408" fill="#84BE84" rx="3" ry="3" style="stroke:#038048;stroke-width:1.0;"/><text fill="#000000" font-family="sans-serif" font-size="11" lengthAdjust="spacing" textLength="289" x="114.5" y="411.2104">createParameter(code, shortname, description, pc)</text><ellipse cx="105.5" cy="420.8047" fill="#84BE84" rx="3" ry="3" style="stroke:#038048;stroke-width:1.0;"/><text fill="#000000" font-family="sans-serif" font-size="11" lengthAdjust="spacing" textLength="102" x="114.5" y="424.0151">saveParameter(p)</text><ellipse cx="105.5" cy="433.6094" fill="#84BE84" rx="3" ry="3" style="stroke:#038048;stroke-width:1.0;"/><text fill="#000000" font-family="sans-serif" font-size="11" lengthAdjust="spacing" textLength="120" x="114.5" y="436.8198">validateParameter(p)</text><!--MD5=[cd5b66ee2c7ebaf8497cd667e51e1038]
class ParameterController--><rect codeLine="22" fill="#FEFECE" filter="url(#fp2eysqt8reg0)" height="60.8047" id="ParameterController" style="stroke:#A80036;stroke-width:1.5;" width="152" x="70" y="236"/><ellipse cx="85" cy="252" fill="#ADD1B2" rx="11" ry="11" style="stroke:#A80036;stroke-width:1.0;"/><path d="M87.3438,247.6719 C86.4063,247.2344 85.8125,247.0938 84.9375,247.0938 C82.3125,247.0938 80.3125,249.1719 80.3125,251.8906 L80.3125,253.0156 C80.3125,255.5938 82.4219,257.4844 85.3125,257.4844 C86.5313,257.4844 87.6875,257.1875 88.4375,256.6406 C89.0156,256.2344 89.3438,255.7813 89.3438,255.3906 C89.3438,254.9375 88.9531,254.5469 88.4844,254.5469 C88.2656,254.5469 88.0625,254.625 87.875,254.8125 C87.4219,255.2969 87.4219,255.2969 87.2344,255.3906 C86.8125,255.6563 86.125,255.7813 85.3594,255.7813 C83.3125,255.7813 82.0156,254.6875 82.0156,252.9844 L82.0156,251.8906 C82.0156,250.1094 83.2656,248.7969 85,248.7969 C85.5781,248.7969 86.1875,248.9531 86.6563,249.2031 C87.1406,249.4844 87.3125,249.7031 87.4063,250.1094 C87.4688,250.5156 87.5,250.6406 87.6406,250.7656 C87.7813,250.9063 88.0156,251.0156 88.2344,251.0156 C88.5,251.0156 88.7656,250.875 88.9375,250.6563 C89.0469,250.5 89.0781,250.3125 89.0781,249.8906 L89.0781,248.4688 C89.0781,248.0313 89.0625,247.9063 88.9688,247.75 C88.8125,247.4844 88.5313,247.3438 88.2344,247.3438 C87.9375,247.3438 87.7344,247.4375 87.5156,247.75 L87.3438,247.6719 Z " fill="#000000"/><text fill="#000000" font-family="sans-serif" font-size="12" lengthAdjust="spacing" textLength="120" x="99" y="256.1543">ParameterController</text><line style="stroke:#A80036;stroke-width:1.5;" x1="71" x2="221" y1="268" y2="268"/><line style="stroke:#A80036;stroke-width:1.5;" x1="71" x2="221" y1="276" y2="276"/><ellipse cx="81" cy="287" fill="#84BE84" rx="3" ry="3" style="stroke:#038048;stroke-width:1.0;"/><text fill="#000000" font-family="sans-serif" font-size="11" lengthAdjust="spacing" textLength="122" x="90" y="290.2104">ParameterController()</text><!--MD5=[e1b41b3fc58e9cb8545f27dd5c581fe2]
class ParameterUI--><rect codeLine="26" fill="#FEFECE" filter="url(#fp2eysqt8reg0)" height="48" id="ParameterUI" style="stroke:#A80036;stroke-width:1.5;" width="105" x="93.5" y="128"/><ellipse cx="108.5" cy="144" fill="#ADD1B2" rx="11" ry="11" style="stroke:#A80036;stroke-width:1.0;"/><path d="M110.8438,139.6719 C109.9063,139.2344 109.3125,139.0938 108.4375,139.0938 C105.8125,139.0938 103.8125,141.1719 103.8125,143.8906 L103.8125,145.0156 C103.8125,147.5938 105.9219,149.4844 108.8125,149.4844 C110.0313,149.4844 111.1875,149.1875 111.9375,148.6406 C112.5156,148.2344 112.8438,147.7813 112.8438,147.3906 C112.8438,146.9375 112.4531,146.5469 111.9844,146.5469 C111.7656,146.5469 111.5625,146.625 111.375,146.8125 C110.9219,147.2969 110.9219,147.2969 110.7344,147.3906 C110.3125,147.6563 109.625,147.7813 108.8594,147.7813 C106.8125,147.7813 105.5156,146.6875 105.5156,144.9844 L105.5156,143.8906 C105.5156,142.1094 106.7656,140.7969 108.5,140.7969 C109.0781,140.7969 109.6875,140.9531 110.1563,141.2031 C110.6406,141.4844 110.8125,141.7031 110.9063,142.1094 C110.9688,142.5156 111,142.6406 111.1406,142.7656 C111.2813,142.9063 111.5156,143.0156 111.7344,143.0156 C112,143.0156 112.2656,142.875 112.4375,142.6563 C112.5469,142.5 112.5781,142.3125 112.5781,141.8906 L112.5781,140.4688 C112.5781,140.0313 112.5625,139.9063 112.4688,139.75 C112.3125,139.4844 112.0313,139.3438 111.7344,139.3438 C111.4375,139.3438 111.2344,139.4375 111.0156,139.75 L110.8438,139.6719 Z " fill="#000000"/><text fill="#000000" font-family="sans-serif" font-size="12" lengthAdjust="spacing" textLength="73" x="122.5" y="148.1543">ParameterUI</text><line style="stroke:#A80036;stroke-width:1.5;" x1="94.5" x2="197.5" y1="160" y2="160"/><line style="stroke:#A80036;stroke-width:1.5;" x1="94.5" x2="197.5" y1="168" y2="168"/><!--MD5=[698ab2dc5e10e46a24d31fada0be8dd5]
link Company to ParameterUI--><path codeLine="28" d="M146,68.058 C146,80.131 146,94.34 146,107.554 " fill="none" id="Company-to-ParameterUI" style="stroke:#A80036;stroke-width:1.0;stroke-dasharray:7.0,7.0;"/><polygon fill="none" points="153,107.669,146,127.669,139,107.669,153,107.669" style="stroke:#A80036;stroke-width:1.0;"/><!--MD5=[35e319238dbee58b19037977ffd8d6ce]
link ParameterUI to ParameterController--><path codeLine="29" d="M146,176.038 C146,187.478 146,201.774 146,215.559 " fill="none" id="ParameterUI-to-ParameterController" style="stroke:#A80036;stroke-width:1.0;stroke-dasharray:7.0,7.0;"/><polygon fill="none" points="153,215.65,146,235.65,139,215.65,153,215.65" style="stroke:#A80036;stroke-width:1.0;"/><!--MD5=[b78cac2483e996021b82b9bb0817f97e]
link ParameterController to ParameterStore--><path codeLine="30" d="M169.788,297.011 C180.344,310.106 193.148,325.99 205.477,341.285 " fill="none" id="ParameterController-to-ParameterStore" style="stroke:#A80036;stroke-width:1.0;stroke-dasharray:7.0,7.0;"/><polygon fill="none" points="210.937,336.905,218.039,356.869,200.037,345.691,210.937,336.905" style="stroke:#A80036;stroke-width:1.0;"/><!--MD5=[c03a8a1e78abf8560250505093bdefc2]
link ParameterController to Parameter--><path codeLine="31" d="M115.06,297.17 C100.4901,313.305 84.6565,334.529 77,357 C62.9341,398.282 71.4802,444.219 86.6698,484.319 " fill="none" id="ParameterController-to-Parameter" style="stroke:#A80036;stroke-width:1.0;stroke-dasharray:7.0,7.0;"/><polygon fill="none" points="93.1746,481.731,94.323,502.89,80.2306,487.066,93.1746,481.731" style="stroke:#A80036;stroke-width:1.0;"/><!--MD5=[a0992dda039fed1bb57aff5aacace800]
link ParameterStore to Parameter--><path codeLine="32" d="M228.212,443.415 C221.104,456.088 212.978,470.577 204.663,485.403 " fill="none" id="ParameterStore-to-Parameter" style="stroke:#A80036;stroke-width:1.0;stroke-dasharray:7.0,7.0;"/><polygon fill="none" points="210.755,488.851,194.866,502.871,198.544,482.003,210.755,488.851" style="stroke:#A80036;stroke-width:1.0;"/><text fill="#000000" font-family="sans-serif" font-size="13" lengthAdjust="spacing" textLength="8" x="215.7833" y="463.5741">1</text><text fill="#000000" font-family="sans-serif" font-size="13" lengthAdjust="spacing" textLength="7" x="191.6229" y="492.0222">*</text><!--MD5=[62950f991e5374cd1fe732ee190d3f80]
@startuml
Class "Company"{
+getParameterStore()
}
Class "Parameter"{
-String code
-String shortname
-String description
-ParameterCategory pc
+Parameter()
+Parameter(code, shortname, description, pc)
+checkcoderules(code)
+checkshortnamerules(shortname)
+checkdescriptionrules(description)
+toString()
}
Class "ParameterStore"{
+createParameter(code, shortname, description, pc)
+saveParameter(p)
+validateParameter(p)
}

Class "ParameterController"{
+ParameterController()
}

Class "ParameterUI"

Company ..|> ParameterUI
ParameterUI ..|> ParameterController
ParameterController ..|> ParameterStore
ParameterController ..|> Parameter
ParameterStore "1" ..|> "*"Parameter
@enduml

PlantUML version 1.2021.6beta2(Unknown compile time)
(GPL source distribution)
Java Runtime: Java(TM) SE Runtime Environment
JVM: Java HotSpot(TM) 64-Bit Server VM
Default Encoding: UTF-8
Language: en
Country: US
--></g></svg>