<?xml version="1.0" encoding="UTF-8" standalone="no"?><svg xmlns="http://www.w3.org/2000/svg" xmlns:xlink="http://www.w3.org/1999/xlink" contentScriptType="application/ecmascript" contentStyleType="text/css" height="813px" preserveAspectRatio="none" style="width:794px;height:813px;" version="1.1" viewBox="0 0 794 813" width="794px" zoomAndPan="magnify"><defs><filter height="300%" id="fo7h1v8dbl5k0" width="300%" x="-1" y="-1"><feGaussianBlur result="blurOut" stdDeviation="2.0"/><feColorMatrix in="blurOut" result="blurOut2" type="matrix" values="0 0 0 0 0 0 0 0 0 0 0 0 0 0 0 0 0 0 .4 0"/><feOffset dx="4.0" dy="4.0" in="blurOut2" result="blurOut3"/><feBlend in="SourceGraphic" in2="blurOut3" mode="normal"/></filter></defs><g><!--MD5=[02e4b9b7573f1156f41e60aa5b4e25a4]
class Company--><rect codeLine="1" fill="#FEFECE" filter="url(#fo7h1v8dbl5k0)" height="86.4141" id="Company" style="stroke:#A80036;stroke-width:1.5;" width="195" x="256" y="236"/><ellipse cx="321.25" cy="252" fill="#ADD1B2" rx="11" ry="11" style="stroke:#A80036;stroke-width:1.0;"/><path d="M323.5938,247.6719 C322.6563,247.2344 322.0625,247.0938 321.1875,247.0938 C318.5625,247.0938 316.5625,249.1719 316.5625,251.8906 L316.5625,253.0156 C316.5625,255.5938 318.6719,257.4844 321.5625,257.4844 C322.7813,257.4844 323.9375,257.1875 324.6875,256.6406 C325.2656,256.2344 325.5938,255.7813 325.5938,255.3906 C325.5938,254.9375 325.2031,254.5469 324.7344,254.5469 C324.5156,254.5469 324.3125,254.625 324.125,254.8125 C323.6719,255.2969 323.6719,255.2969 323.4844,255.3906 C323.0625,255.6563 322.375,255.7813 321.6094,255.7813 C319.5625,255.7813 318.2656,254.6875 318.2656,252.9844 L318.2656,251.8906 C318.2656,250.1094 319.5156,248.7969 321.25,248.7969 C321.8281,248.7969 322.4375,248.9531 322.9063,249.2031 C323.3906,249.4844 323.5625,249.7031 323.6563,250.1094 C323.7188,250.5156 323.75,250.6406 323.8906,250.7656 C324.0313,250.9063 324.2656,251.0156 324.4844,251.0156 C324.75,251.0156 325.0156,250.875 325.1875,250.6563 C325.2969,250.5 325.3281,250.3125 325.3281,249.8906 L325.3281,248.4688 C325.3281,248.0313 325.3125,247.9063 325.2188,247.75 C325.0625,247.4844 324.7813,247.3438 324.4844,247.3438 C324.1875,247.3438 323.9844,247.4375 323.7656,247.75 L323.5938,247.6719 Z " fill="#000000"/><text fill="#000000" font-family="sans-serif" font-size="12" lengthAdjust="spacing" textLength="56" x="341.75" y="256.1543">Company</text><line style="stroke:#A80036;stroke-width:1.5;" x1="257" x2="450" y1="268" y2="268"/><rect fill="none" height="6" style="stroke:#C82930;stroke-width:1.0;" width="6" x="264" y="276"/><text fill="#000000" font-family="sans-serif" font-size="11" lengthAdjust="spacing" textLength="103" x="276" y="282.2104">String designation</text><line style="stroke:#A80036;stroke-width:1.5;" x1="257" x2="450" y1="288.8047" y2="288.8047"/><ellipse cx="267" cy="299.8047" fill="#84BE84" rx="3" ry="3" style="stroke:#038048;stroke-width:1.0;"/><text fill="#000000" font-family="sans-serif" font-size="11" lengthAdjust="spacing" textLength="169" x="276" y="303.0151">getParameterCategoryStore()</text><ellipse cx="267" cy="312.6094" fill="#84BE84" rx="3" ry="3" style="stroke:#038048;stroke-width:1.0;"/><text fill="#000000" font-family="sans-serif" font-size="11" lengthAdjust="spacing" textLength="138" x="276" y="315.8198">getParameterCategory()</text><!--MD5=[1f6362a5c8f21d8d6a0fce68f3a92a4e]
class Parameter--><rect codeLine="6" fill="#FEFECE" filter="url(#fo7h1v8dbl5k0)" height="112.0234" id="Parameter" style="stroke:#A80036;stroke-width:1.5;" width="387" x="7" y="541"/><ellipse cx="165.75" cy="557" fill="#ADD1B2" rx="11" ry="11" style="stroke:#A80036;stroke-width:1.0;"/><path d="M168.0938,552.6719 C167.1563,552.2344 166.5625,552.0938 165.6875,552.0938 C163.0625,552.0938 161.0625,554.1719 161.0625,556.8906 L161.0625,558.0156 C161.0625,560.5938 163.1719,562.4844 166.0625,562.4844 C167.2813,562.4844 168.4375,562.1875 169.1875,561.6406 C169.7656,561.2344 170.0938,560.7813 170.0938,560.3906 C170.0938,559.9375 169.7031,559.5469 169.2344,559.5469 C169.0156,559.5469 168.8125,559.625 168.625,559.8125 C168.1719,560.2969 168.1719,560.2969 167.9844,560.3906 C167.5625,560.6563 166.875,560.7813 166.1094,560.7813 C164.0625,560.7813 162.7656,559.6875 162.7656,557.9844 L162.7656,556.8906 C162.7656,555.1094 164.0156,553.7969 165.75,553.7969 C166.3281,553.7969 166.9375,553.9531 167.4063,554.2031 C167.8906,554.4844 168.0625,554.7031 168.1563,555.1094 C168.2188,555.5156 168.25,555.6406 168.3906,555.7656 C168.5313,555.9063 168.7656,556.0156 168.9844,556.0156 C169.25,556.0156 169.5156,555.875 169.6875,555.6563 C169.7969,555.5 169.8281,555.3125 169.8281,554.8906 L169.8281,553.4688 C169.8281,553.0313 169.8125,552.9063 169.7188,552.75 C169.5625,552.4844 169.2813,552.3438 168.9844,552.3438 C168.6875,552.3438 168.4844,552.4375 168.2656,552.75 L168.0938,552.6719 Z " fill="#000000"/><text fill="#000000" font-family="sans-serif" font-size="12" lengthAdjust="spacing" textLength="61" x="186.25" y="561.1543">Parameter</text><line style="stroke:#A80036;stroke-width:1.5;" x1="8" x2="393" y1="573" y2="573"/><rect fill="none" height="6" style="stroke:#C82930;stroke-width:1.0;" width="6" x="15" y="581"/><text fill="#000000" font-family="sans-serif" font-size="11" lengthAdjust="spacing" textLength="65" x="27" y="587.2104">String code</text><rect fill="none" height="6" style="stroke:#C82930;stroke-width:1.0;" width="6" x="15" y="593.8047"/><text fill="#000000" font-family="sans-serif" font-size="11" lengthAdjust="spacing" textLength="98" x="27" y="600.0151">String shortname</text><rect fill="none" height="6" style="stroke:#C82930;stroke-width:1.0;" width="6" x="15" y="606.6094"/><text fill="#000000" font-family="sans-serif" font-size="11" lengthAdjust="spacing" textLength="99" x="27" y="612.8198">String description</text><rect fill="none" height="6" style="stroke:#C82930;stroke-width:1.0;" width="6" x="15" y="619.4141"/><text fill="#000000" font-family="sans-serif" font-size="11" lengthAdjust="spacing" textLength="274" x="27" y="625.6245">List&lt;ParameterCategory&gt; parameterCategories</text><line style="stroke:#A80036;stroke-width:1.5;" x1="8" x2="393" y1="632.2188" y2="632.2188"/><ellipse cx="18" cy="643.2188" fill="#84BE84" rx="3" ry="3" style="stroke:#038048;stroke-width:1.0;"/><text fill="#000000" font-family="sans-serif" font-size="11" lengthAdjust="spacing" textLength="361" x="27" y="646.4292">Parameter(code, shortname, description, parameterCategories)</text><!--MD5=[be7802b157a16874d39c59ca0e2b25be]
class ParameterStore--><rect codeLine="13" fill="#FEFECE" filter="url(#fo7h1v8dbl5k0)" height="99.2188" id="ParameterStore" style="stroke:#A80036;stroke-width:1.5;" width="315" x="91" y="382"/><ellipse cx="197.25" cy="398" fill="#ADD1B2" rx="11" ry="11" style="stroke:#A80036;stroke-width:1.0;"/><path d="M199.5938,393.6719 C198.6563,393.2344 198.0625,393.0938 197.1875,393.0938 C194.5625,393.0938 192.5625,395.1719 192.5625,397.8906 L192.5625,399.0156 C192.5625,401.5938 194.6719,403.4844 197.5625,403.4844 C198.7813,403.4844 199.9375,403.1875 200.6875,402.6406 C201.2656,402.2344 201.5938,401.7813 201.5938,401.3906 C201.5938,400.9375 201.2031,400.5469 200.7344,400.5469 C200.5156,400.5469 200.3125,400.625 200.125,400.8125 C199.6719,401.2969 199.6719,401.2969 199.4844,401.3906 C199.0625,401.6563 198.375,401.7813 197.6094,401.7813 C195.5625,401.7813 194.2656,400.6875 194.2656,398.9844 L194.2656,397.8906 C194.2656,396.1094 195.5156,394.7969 197.25,394.7969 C197.8281,394.7969 198.4375,394.9531 198.9063,395.2031 C199.3906,395.4844 199.5625,395.7031 199.6563,396.1094 C199.7188,396.5156 199.75,396.6406 199.8906,396.7656 C200.0313,396.9063 200.2656,397.0156 200.4844,397.0156 C200.75,397.0156 201.0156,396.875 201.1875,396.6563 C201.2969,396.5 201.3281,396.3125 201.3281,395.8906 L201.3281,394.4688 C201.3281,394.0313 201.3125,393.9063 201.2188,393.75 C201.0625,393.4844 200.7813,393.3438 200.4844,393.3438 C200.1875,393.3438 199.9844,393.4375 199.7656,393.75 L199.5938,393.6719 Z " fill="#000000"/><text fill="#000000" font-family="sans-serif" font-size="12" lengthAdjust="spacing" textLength="94" x="217.75" y="402.1543">ParameterStore</text><line style="stroke:#A80036;stroke-width:1.5;" x1="92" x2="405" y1="414" y2="414"/><line style="stroke:#A80036;stroke-width:1.5;" x1="92" x2="405" y1="422" y2="422"/><ellipse cx="102" cy="433" fill="#84BE84" rx="3" ry="3" style="stroke:#038048;stroke-width:1.0;"/><text fill="#000000" font-family="sans-serif" font-size="11" lengthAdjust="spacing" textLength="289" x="111" y="436.2104">createParameter(code, shortname, description, pc)</text><ellipse cx="102" cy="445.8047" fill="#84BE84" rx="3" ry="3" style="stroke:#038048;stroke-width:1.0;"/><text fill="#000000" font-family="sans-serif" font-size="11" lengthAdjust="spacing" textLength="102" x="111" y="449.0151">saveParameter(p)</text><ellipse cx="102" cy="458.6094" fill="#84BE84" rx="3" ry="3" style="stroke:#038048;stroke-width:1.0;"/><text fill="#000000" font-family="sans-serif" font-size="11" lengthAdjust="spacing" textLength="120" x="111" y="461.8198">validateParameter(p)</text><rect fill="#F24D5C" height="6" style="stroke:#C82930;stroke-width:1.0;" width="6" x="99" y="468.4141"/><text fill="#000000" font-family="sans-serif" font-size="11" lengthAdjust="spacing" textLength="95" x="111" y="474.6245">addParameter(p)</text><!--MD5=[cd5b66ee2c7ebaf8497cd667e51e1038]
class ParameterController--><rect codeLine="20" fill="#FEFECE" filter="url(#fo7h1v8dbl5k0)" height="60.8047" id="ParameterController" style="stroke:#A80036;stroke-width:1.5;" width="152" x="277.5" y="115"/><ellipse cx="292.5" cy="131" fill="#ADD1B2" rx="11" ry="11" style="stroke:#A80036;stroke-width:1.0;"/><path d="M294.8438,126.6719 C293.9063,126.2344 293.3125,126.0938 292.4375,126.0938 C289.8125,126.0938 287.8125,128.1719 287.8125,130.8906 L287.8125,132.0156 C287.8125,134.5938 289.9219,136.4844 292.8125,136.4844 C294.0313,136.4844 295.1875,136.1875 295.9375,135.6406 C296.5156,135.2344 296.8438,134.7813 296.8438,134.3906 C296.8438,133.9375 296.4531,133.5469 295.9844,133.5469 C295.7656,133.5469 295.5625,133.625 295.375,133.8125 C294.9219,134.2969 294.9219,134.2969 294.7344,134.3906 C294.3125,134.6563 293.625,134.7813 292.8594,134.7813 C290.8125,134.7813 289.5156,133.6875 289.5156,131.9844 L289.5156,130.8906 C289.5156,129.1094 290.7656,127.7969 292.5,127.7969 C293.0781,127.7969 293.6875,127.9531 294.1563,128.2031 C294.6406,128.4844 294.8125,128.7031 294.9063,129.1094 C294.9688,129.5156 295,129.6406 295.1406,129.7656 C295.2813,129.9063 295.5156,130.0156 295.7344,130.0156 C296,130.0156 296.2656,129.875 296.4375,129.6563 C296.5469,129.5 296.5781,129.3125 296.5781,128.8906 L296.5781,127.4688 C296.5781,127.0313 296.5625,126.9063 296.4688,126.75 C296.3125,126.4844 296.0313,126.3438 295.7344,126.3438 C295.4375,126.3438 295.2344,126.4375 295.0156,126.75 L294.8438,126.6719 Z " fill="#000000"/><text fill="#000000" font-family="sans-serif" font-size="12" lengthAdjust="spacing" textLength="120" x="306.5" y="135.1543">ParameterController</text><line style="stroke:#A80036;stroke-width:1.5;" x1="278.5" x2="428.5" y1="147" y2="147"/><line style="stroke:#A80036;stroke-width:1.5;" x1="278.5" x2="428.5" y1="155" y2="155"/><ellipse cx="288.5" cy="166" fill="#84BE84" rx="3" ry="3" style="stroke:#038048;stroke-width:1.0;"/><text fill="#000000" font-family="sans-serif" font-size="11" lengthAdjust="spacing" textLength="122" x="297.5" y="169.2104">ParameterController()</text><!--MD5=[36afb6bbd95a8ac778c4537c55a683d5]
class ParameterCategory--><rect codeLine="23" fill="#FEFECE" filter="url(#fo7h1v8dbl5k0)" height="86.4141" id="ParameterCategory" style="stroke:#A80036;stroke-width:1.5;" width="213" x="296" y="713"/><ellipse cx="340.25" cy="729" fill="#ADD1B2" rx="11" ry="11" style="stroke:#A80036;stroke-width:1.0;"/><path d="M342.5938,724.6719 C341.6563,724.2344 341.0625,724.0938 340.1875,724.0938 C337.5625,724.0938 335.5625,726.1719 335.5625,728.8906 L335.5625,730.0156 C335.5625,732.5938 337.6719,734.4844 340.5625,734.4844 C341.7813,734.4844 342.9375,734.1875 343.6875,733.6406 C344.2656,733.2344 344.5938,732.7813 344.5938,732.3906 C344.5938,731.9375 344.2031,731.5469 343.7344,731.5469 C343.5156,731.5469 343.3125,731.625 343.125,731.8125 C342.6719,732.2969 342.6719,732.2969 342.4844,732.3906 C342.0625,732.6563 341.375,732.7813 340.6094,732.7813 C338.5625,732.7813 337.2656,731.6875 337.2656,729.9844 L337.2656,728.8906 C337.2656,727.1094 338.5156,725.7969 340.25,725.7969 C340.8281,725.7969 341.4375,725.9531 341.9063,726.2031 C342.3906,726.4844 342.5625,726.7031 342.6563,727.1094 C342.7188,727.5156 342.75,727.6406 342.8906,727.7656 C343.0313,727.9063 343.2656,728.0156 343.4844,728.0156 C343.75,728.0156 344.0156,727.875 344.1875,727.6563 C344.2969,727.5 344.3281,727.3125 344.3281,726.8906 L344.3281,725.4688 C344.3281,725.0313 344.3125,724.9063 344.2188,724.75 C344.0625,724.4844 343.7813,724.3438 343.4844,724.3438 C343.1875,724.3438 342.9844,724.4375 342.7656,724.75 L342.5938,724.6719 Z " fill="#000000"/><text fill="#000000" font-family="sans-serif" font-size="12" lengthAdjust="spacing" textLength="116" x="360.75" y="733.1543">ParameterCategory</text><line style="stroke:#A80036;stroke-width:1.5;" x1="297" x2="508" y1="745" y2="745"/><rect fill="none" height="6" style="stroke:#C82930;stroke-width:1.0;" width="6" x="304" y="753"/><text fill="#000000" font-family="sans-serif" font-size="11" lengthAdjust="spacing" textLength="65" x="316" y="759.2104">String code</text><rect fill="none" height="6" style="stroke:#C82930;stroke-width:1.0;" width="6" x="304" y="765.8047"/><text fill="#000000" font-family="sans-serif" font-size="11" lengthAdjust="spacing" textLength="70" x="316" y="772.0151">String name</text><line style="stroke:#A80036;stroke-width:1.5;" x1="297" x2="508" y1="778.6094" y2="778.6094"/><ellipse cx="307" cy="789.6094" fill="#84BE84" rx="3" ry="3" style="stroke:#038048;stroke-width:1.0;"/><text fill="#000000" font-family="sans-serif" font-size="11" lengthAdjust="spacing" textLength="187" x="316" y="792.8198">ParameterCategory(code, name)</text><!--MD5=[d802db621b5b215a6f0466f93cefcb42]
class ParameterCategoryStore--><rect codeLine="29" fill="#FEFECE" filter="url(#fo7h1v8dbl5k0)" height="73.6094" id="ParameterCategoryStore" style="stroke:#A80036;stroke-width:1.5;" width="351" x="429" y="560"/><ellipse cx="525.75" cy="576" fill="#ADD1B2" rx="11" ry="11" style="stroke:#A80036;stroke-width:1.0;"/><path d="M528.0938,571.6719 C527.1563,571.2344 526.5625,571.0938 525.6875,571.0938 C523.0625,571.0938 521.0625,573.1719 521.0625,575.8906 L521.0625,577.0156 C521.0625,579.5938 523.1719,581.4844 526.0625,581.4844 C527.2813,581.4844 528.4375,581.1875 529.1875,580.6406 C529.7656,580.2344 530.0938,579.7813 530.0938,579.3906 C530.0938,578.9375 529.7031,578.5469 529.2344,578.5469 C529.0156,578.5469 528.8125,578.625 528.625,578.8125 C528.1719,579.2969 528.1719,579.2969 527.9844,579.3906 C527.5625,579.6563 526.875,579.7813 526.1094,579.7813 C524.0625,579.7813 522.7656,578.6875 522.7656,576.9844 L522.7656,575.8906 C522.7656,574.1094 524.0156,572.7969 525.75,572.7969 C526.3281,572.7969 526.9375,572.9531 527.4063,573.2031 C527.8906,573.4844 528.0625,573.7031 528.1563,574.1094 C528.2188,574.5156 528.25,574.6406 528.3906,574.7656 C528.5313,574.9063 528.7656,575.0156 528.9844,575.0156 C529.25,575.0156 529.5156,574.875 529.6875,574.6563 C529.7969,574.5 529.8281,574.3125 529.8281,573.8906 L529.8281,572.4688 C529.8281,572.0313 529.8125,571.9063 529.7188,571.75 C529.5625,571.4844 529.2813,571.3438 528.9844,571.3438 C528.6875,571.3438 528.4844,571.4375 528.2656,571.75 L528.0938,571.6719 Z " fill="#000000"/><text fill="#000000" font-family="sans-serif" font-size="12" lengthAdjust="spacing" textLength="149" x="546.25" y="580.1543">ParameterCategoryStore</text><line style="stroke:#A80036;stroke-width:1.5;" x1="430" x2="779" y1="592" y2="592"/><line style="stroke:#A80036;stroke-width:1.5;" x1="430" x2="779" y1="600" y2="600"/><ellipse cx="440" cy="611" fill="#84BE84" rx="3" ry="3" style="stroke:#038048;stroke-width:1.0;"/><text fill="#000000" font-family="sans-serif" font-size="11" lengthAdjust="spacing" textLength="148" x="449" y="614.2104">getParameterCategories()</text><ellipse cx="440" cy="623.8047" fill="#84BE84" rx="3" ry="3" style="stroke:#038048;stroke-width:1.0;"/><text fill="#000000" font-family="sans-serif" font-size="11" lengthAdjust="spacing" textLength="325" x="449" y="627.0151">getParameterCategoryByCode(parameterCategoryCode)</text><!--MD5=[e1b41b3fc58e9cb8545f27dd5c581fe2]
class ParameterUI--><rect fill="#FEFECE" filter="url(#fo7h1v8dbl5k0)" height="48" id="ParameterUI" style="stroke:#A80036;stroke-width:1.5;" width="105" x="301" y="7"/><ellipse cx="316" cy="23" fill="#ADD1B2" rx="11" ry="11" style="stroke:#A80036;stroke-width:1.0;"/><path d="M318.3438,18.6719 C317.4063,18.2344 316.8125,18.0938 315.9375,18.0938 C313.3125,18.0938 311.3125,20.1719 311.3125,22.8906 L311.3125,24.0156 C311.3125,26.5938 313.4219,28.4844 316.3125,28.4844 C317.5313,28.4844 318.6875,28.1875 319.4375,27.6406 C320.0156,27.2344 320.3438,26.7813 320.3438,26.3906 C320.3438,25.9375 319.9531,25.5469 319.4844,25.5469 C319.2656,25.5469 319.0625,25.625 318.875,25.8125 C318.4219,26.2969 318.4219,26.2969 318.2344,26.3906 C317.8125,26.6563 317.125,26.7813 316.3594,26.7813 C314.3125,26.7813 313.0156,25.6875 313.0156,23.9844 L313.0156,22.8906 C313.0156,21.1094 314.2656,19.7969 316,19.7969 C316.5781,19.7969 317.1875,19.9531 317.6563,20.2031 C318.1406,20.4844 318.3125,20.7031 318.4063,21.1094 C318.4688,21.5156 318.5,21.6406 318.6406,21.7656 C318.7813,21.9063 319.0156,22.0156 319.2344,22.0156 C319.5,22.0156 319.7656,21.875 319.9375,21.6563 C320.0469,21.5 320.0781,21.3125 320.0781,20.8906 L320.0781,19.4688 C320.0781,19.0313 320.0625,18.9063 319.9688,18.75 C319.8125,18.4844 319.5313,18.3438 319.2344,18.3438 C318.9375,18.3438 318.7344,18.4375 318.5156,18.75 L318.3438,18.6719 Z " fill="#000000"/><text fill="#000000" font-family="sans-serif" font-size="12" lengthAdjust="spacing" textLength="73" x="330" y="27.1543">ParameterUI</text><line style="stroke:#A80036;stroke-width:1.5;" x1="302" x2="405" y1="39" y2="39"/><line style="stroke:#A80036;stroke-width:1.5;" x1="302" x2="405" y1="47" y2="47"/><!--MD5=[35e319238dbee58b19037977ffd8d6ce]
link ParameterUI to ParameterController--><path codeLine="34" d="M353.5,55.038 C353.5,70.65 353.5,91.582 353.5,109.273 " fill="none" id="ParameterUI-to-ParameterController" style="stroke:#A80036;stroke-width:1.0;stroke-dasharray:7.0,7.0;"/><polygon fill="#A80036" points="353.5,114.65,357.5,105.65,353.5,109.65,349.5,105.65,353.5,114.65" style="stroke:#A80036;stroke-width:1.0;"/><!--MD5=[64cef91866c4e96c4d10322ac0455123]
link ParameterController to Company--><path codeLine="35" d="M353.5,176.011 C353.5,192.139 353.5,212.496 353.5,230.774 " fill="none" id="ParameterController-to-Company" style="stroke:#A80036;stroke-width:1.0;stroke-dasharray:7.0,7.0;"/><polygon fill="#A80036" points="353.5,235.869,357.5,226.869,353.5,230.869,349.5,226.869,353.5,235.869" style="stroke:#A80036;stroke-width:1.0;"/><!--MD5=[daf3d7412afa2c7651483be0b6e971d1]
link Company to ParameterStore--><path codeLine="36" d="M323.972,322.323 C312.062,339.395 298.186,359.283 285.605,377.317 " fill="none" id="Company-to-ParameterStore" style="stroke:#A80036;stroke-width:1.0;"/><polygon fill="#A80036" points="282.436,381.859,290.8658,376.7659,285.2966,377.7581,284.3044,372.189,282.436,381.859" style="stroke:#A80036;stroke-width:1.0;"/><text fill="#000000" font-family="sans-serif" font-size="13" lengthAdjust="spacing" textLength="8" x="310.6285" y="342.4674">1</text><text fill="#000000" font-family="sans-serif" font-size="13" lengthAdjust="spacing" textLength="8" x="278.6457" y="370.8844">1</text><!--MD5=[a0992dda039fed1bb57aff5aacace800]
link ParameterStore to Parameter--><path codeLine="37" d="M234.228,481.113 C229.176,498.321 223.432,517.888 218.134,535.934 " fill="none" id="ParameterStore-to-Parameter" style="stroke:#A80036;stroke-width:1.0;"/><polygon fill="#A80036" points="216.652,540.981,223.0256,533.4725,218.0607,536.1835,215.3496,531.2186,216.652,540.981" style="stroke:#A80036;stroke-width:1.0;"/><text fill="#000000" font-family="sans-serif" font-size="13" lengthAdjust="spacing" textLength="8" x="223.6585" y="501.2054">1</text><text fill="#000000" font-family="sans-serif" font-size="13" lengthAdjust="spacing" textLength="7" x="211.273" y="529.9165">*</text><!--MD5=[d53d7490e5836ca5709858d7326f212b]
link Company to ParameterCategoryStore--><path codeLine="38" d="M387.091,322.289 C435.619,383.385 524.735,495.578 572.41,555.6 " fill="none" id="Company-to-ParameterCategoryStore" style="stroke:#A80036;stroke-width:1.0;"/><polygon fill="#A80036" points="575.77,559.83,573.3069,550.2941,572.6612,555.914,567.0413,555.2682,575.77,559.83" style="stroke:#A80036;stroke-width:1.0;"/><text fill="#000000" font-family="sans-serif" font-size="13" lengthAdjust="spacing" textLength="8" x="383.8071" y="342.428">1</text><text fill="#000000" font-family="sans-serif" font-size="13" lengthAdjust="spacing" textLength="8" x="561.94" y="548.9867">1</text><!--MD5=[d6274e3b73b5bc8f467c6cfbf5bf003e]
link ParameterCategoryStore to ParameterCategory--><path codeLine="39" d="M558.157,634.019 C529.285,656.459 491.886,685.526 460.983,709.545 " fill="none" id="ParameterCategoryStore-to-ParameterCategory" style="stroke:#A80036;stroke-width:1.0;"/><polygon fill="#A80036" points="456.862,712.7486,466.4232,710.3857,460.8104,709.681,461.5151,704.0682,456.862,712.7486" style="stroke:#A80036;stroke-width:1.0;"/><text fill="#000000" font-family="sans-serif" font-size="13" lengthAdjust="spacing" textLength="8" x="541.5043" y="653.7826">1</text><text fill="#000000" font-family="sans-serif" font-size="13" lengthAdjust="spacing" textLength="8" x="456.5737" y="702.0231">1</text><!--MD5=[6df8849671cb880f6936e94aa30db6f9]
link Parameter to ParameterCategory--><path codeLine="40" d="M271.434,653.132 C295.192,671.597 321.392,691.961 344.083,709.5966 " fill="none" id="Parameter-to-ParameterCategory" style="stroke:#A80036;stroke-width:1.0;"/><polygon fill="#A80036" points="348.277,712.8567,343.6259,704.1753,344.3293,709.7882,338.7163,710.4916,348.277,712.8567" style="stroke:#A80036;stroke-width:1.0;"/><text fill="#000000" font-family="sans-serif" font-size="13" lengthAdjust="spacing" textLength="7" x="272.6525" y="672.9607">*</text><text fill="#000000" font-family="sans-serif" font-size="13" lengthAdjust="spacing" textLength="23" x="314.8024" y="701.8303">1..*</text><!--MD5=[ab721e3a69191bd511f2c4c734c64b19]
@startuml
Class "Company"{
-String designation
+getParameterCategoryStore()
+getParameterCategory()
}
Class "Parameter"{
-String code
-String shortname
-String description
-List<ParameterCategory> parameterCategories
+Parameter(code, shortname, description, parameterCategories)
}
Class "ParameterStore"{
+createParameter(code, shortname, description, pc)
+saveParameter(p)
+validateParameter(p)
-addParameter(p)
}

Class "ParameterController"{
+ParameterController()
}
class ParameterCategory {
  -String code
  -String name
  +ParameterCategory(code, name)
}

class ParameterCategoryStore {
  +getParameterCategories()
  +getParameterCategoryByCode(parameterCategoryCode)
}

ParameterUI ..> ParameterController
ParameterController ..> Company
Company"1"- ->"1" ParameterStore
ParameterStore "1" - -> "*"Parameter
Company "1"- ->"1" ParameterCategoryStore
ParameterCategoryStore "1" - -> "1"ParameterCategory 
Parameter"*" - -> "1..*"ParameterCategory
@enduml

PlantUML version 1.2021.6beta4(Unknown compile time)
(GPL source distribution)
Java Runtime: Java(TM) SE Runtime Environment
JVM: Java HotSpot(TM) 64-Bit Server VM
Default Encoding: UTF-8
Language: en
Country: US
--></g></svg>