<?xml version="1.0" encoding="UTF-8" standalone="no"?><svg xmlns="http://www.w3.org/2000/svg" xmlns:xlink="http://www.w3.org/1999/xlink" contentScriptType="application/ecmascript" contentStyleType="text/css" height="515px" preserveAspectRatio="none" style="width:815px;height:515px;background:#FFFFFF;" version="1.1" viewBox="0 0 815 515" width="815px" zoomAndPan="magnify"><defs><filter height="300%" id="fiu46nwrnw4l7" width="300%" x="-1" y="-1"><feGaussianBlur result="blurOut" stdDeviation="2.0"/><feColorMatrix in="blurOut" result="blurOut2" type="matrix" values="0 0 0 0 0 0 0 0 0 0 0 0 0 0 0 0 0 0 .4 0"/><feOffset dx="4.0" dy="4.0" in="blurOut2" result="blurOut3"/><feBlend in="SourceGraphic" in2="blurOut3" mode="normal"/></filter></defs><g><rect fill="#FFFFFF" filter="url(#fiu46nwrnw4l7)" height="314.4609" style="stroke:#A80036;stroke-width:1.0;" width="10" x="131" y="98.2969"/><rect fill="#FFFFFF" filter="url(#fiu46nwrnw4l7)" height="29.1328" style="stroke:#A80036;stroke-width:1.0;" width="10" x="754" y="119.4297"/><rect fill="#FFFFFF" filter="url(#fiu46nwrnw4l7)" height="53.2656" style="stroke:#A80036;stroke-width:1.0;" width="10" x="754" y="177.6953"/><rect fill="#FFFFFF" filter="url(#fiu46nwrnw4l7)" height="29.1328" style="stroke:#A80036;stroke-width:1.0;" width="10" x="754" y="260.0938"/><rect fill="#FFFFFF" filter="url(#fiu46nwrnw4l7)" height="29.1328" style="stroke:#A80036;stroke-width:1.0;" width="10" x="754" y="318.3594"/><rect fill="#FFFFFF" filter="url(#fiu46nwrnw4l7)" height="191.9297" style="stroke:#000000;stroke-width:2.0;" width="791.5" x="10" y="192.6953"/><line style="stroke:#A80036;stroke-width:1.0;stroke-dasharray:5.0,5.0;" x1="136" x2="136" y1="88.2969" y2="430.7578"/><line style="stroke:#A80036;stroke-width:1.0;stroke-dasharray:5.0,5.0;" x1="758.5" x2="758.5" y1="88.2969" y2="430.7578"/><text fill="#000000" font-family="sans-serif" font-size="14" lengthAdjust="spacing" textLength="226" x="20" y="84.9951">Clinical Chemistry Technologist</text><ellipse cx="136" cy="15" fill="#FEFECE" filter="url(#fiu46nwrnw4l7)" rx="8" ry="8" style="stroke:#A80036;stroke-width:2.0;"/><path d="M136,23 L136,50 M123,31 L149,31 M136,50 L123,65 M136,50 L149,65 " fill="none" filter="url(#fiu46nwrnw4l7)" style="stroke:#A80036;stroke-width:2.0;"/><text fill="#000000" font-family="sans-serif" font-size="14" lengthAdjust="spacing" textLength="226" x="20" y="442.7529">Clinical Chemistry Technologist</text><ellipse cx="136" cy="456.0547" fill="#FEFECE" filter="url(#fiu46nwrnw4l7)" rx="8" ry="8" style="stroke:#A80036;stroke-width:2.0;"/><path d="M136,464.0547 L136,491.0547 M123,472.0547 L149,472.0547 M136,491.0547 L123,506.0547 M136,491.0547 L149,506.0547 " fill="none" filter="url(#fiu46nwrnw4l7)" style="stroke:#A80036;stroke-width:2.0;"/><text fill="#000000" font-family="sans-serif" font-size="14" lengthAdjust="spacing" textLength="59" x="726.5" y="84.9951">:System</text><ellipse cx="759" cy="15" fill="#FEFECE" filter="url(#fiu46nwrnw4l7)" rx="8" ry="8" style="stroke:#A80036;stroke-width:2.0;"/><path d="M759,23 L759,50 M746,31 L772,31 M759,50 L746,65 M759,50 L772,65 " fill="none" filter="url(#fiu46nwrnw4l7)" style="stroke:#A80036;stroke-width:2.0;"/><text fill="#000000" font-family="sans-serif" font-size="14" lengthAdjust="spacing" textLength="59" x="726.5" y="442.7529">:System</text><ellipse cx="759" cy="456.0547" fill="#FEFECE" filter="url(#fiu46nwrnw4l7)" rx="8" ry="8" style="stroke:#A80036;stroke-width:2.0;"/><path d="M759,464.0547 L759,491.0547 M746,472.0547 L772,472.0547 M759,491.0547 L746,506.0547 M759,491.0547 L772,506.0547 " fill="none" filter="url(#fiu46nwrnw4l7)" style="stroke:#A80036;stroke-width:2.0;"/><rect fill="#FFFFFF" filter="url(#fiu46nwrnw4l7)" height="314.4609" style="stroke:#A80036;stroke-width:1.0;" width="10" x="131" y="98.2969"/><rect fill="#FFFFFF" filter="url(#fiu46nwrnw4l7)" height="29.1328" style="stroke:#A80036;stroke-width:1.0;" width="10" x="754" y="119.4297"/><rect fill="#FFFFFF" filter="url(#fiu46nwrnw4l7)" height="53.2656" style="stroke:#A80036;stroke-width:1.0;" width="10" x="754" y="177.6953"/><rect fill="#FFFFFF" filter="url(#fiu46nwrnw4l7)" height="29.1328" style="stroke:#A80036;stroke-width:1.0;" width="10" x="754" y="260.0938"/><rect fill="#FFFFFF" filter="url(#fiu46nwrnw4l7)" height="29.1328" style="stroke:#A80036;stroke-width:1.0;" width="10" x="754" y="318.3594"/><polygon fill="#A80036" points="742,115.4297,752,119.4297,742,123.4297,746,119.4297" style="stroke:#A80036;stroke-width:1.0;"/><line style="stroke:#A80036;stroke-width:1.0;" x1="141" x2="748" y1="119.4297" y2="119.4297"/><text fill="#000000" font-family="sans-serif" font-size="13" font-weight="bold" lengthAdjust="spacing" textLength="9" x="148" y="114.3638">1</text><text fill="#000000" font-family="sans-serif" font-size="13" lengthAdjust="spacing" textLength="329" x="161" y="114.3638">selects to start recording the results of a given test</text><polygon fill="#A80036" points="152,144.5625,142,148.5625,152,152.5625,148,148.5625" style="stroke:#A80036;stroke-width:1.0;"/><line style="stroke:#A80036;stroke-width:1.0;stroke-dasharray:2.0,2.0;" x1="146" x2="758" y1="148.5625" y2="148.5625"/><text fill="#000000" font-family="sans-serif" font-size="13" font-weight="bold" lengthAdjust="spacing" textLength="9" x="158" y="143.4966">2</text><text fill="#000000" font-family="sans-serif" font-size="13" lengthAdjust="spacing" textLength="576" x="171" y="143.4966">request to introduce barcode from a sample of the test where the results will be recorded</text><polygon fill="#A80036" points="742,173.6953,752,177.6953,742,181.6953,746,177.6953" style="stroke:#A80036;stroke-width:1.0;"/><line style="stroke:#A80036;stroke-width:1.0;" x1="141" x2="748" y1="177.6953" y2="177.6953"/><text fill="#000000" font-family="sans-serif" font-size="13" font-weight="bold" lengthAdjust="spacing" textLength="8" x="148" y="172.6294">3</text><text fill="#000000" font-family="sans-serif" font-size="13" lengthAdjust="spacing" textLength="138" x="160" y="172.6294">types requested data</text><path d="M10,192.6953 L88,192.6953 L88,199.6953 L78,209.6953 L10,209.6953 L10,192.6953 " fill="#EEEEEE" style="stroke:#000000;stroke-width:1.0;"/><rect fill="none" height="191.9297" style="stroke:#000000;stroke-width:2.0;" width="791.5" x="10" y="192.6953"/><text fill="#000000" font-family="sans-serif" font-size="13" font-weight="bold" lengthAdjust="spacing" textLength="33" x="25" y="205.7622">loop</text><text fill="#000000" font-family="sans-serif" font-size="11" font-weight="bold" lengthAdjust="spacing" textLength="277" x="103" y="204.9058">[for each test parameter being analysed]</text><polygon fill="#A80036" points="152,226.9609,142,230.9609,152,234.9609,148,230.9609" style="stroke:#A80036;stroke-width:1.0;"/><line style="stroke:#A80036;stroke-width:1.0;stroke-dasharray:2.0,2.0;" x1="146" x2="758" y1="230.9609" y2="230.9609"/><text fill="#000000" font-family="sans-serif" font-size="13" font-weight="bold" lengthAdjust="spacing" textLength="9" x="158" y="225.895">4</text><text fill="#000000" font-family="sans-serif" font-size="13" lengthAdjust="spacing" textLength="312" x="171" y="225.895">shows test parameter list and asks to select one</text><polygon fill="#A80036" points="742,256.0938,752,260.0938,742,264.0938,746,260.0938" style="stroke:#A80036;stroke-width:1.0;"/><line style="stroke:#A80036;stroke-width:1.0;" x1="141" x2="748" y1="260.0938" y2="260.0938"/><text fill="#000000" font-family="sans-serif" font-size="13" font-weight="bold" lengthAdjust="spacing" textLength="9" x="148" y="255.0278">5</text><text fill="#000000" font-family="sans-serif" font-size="13" lengthAdjust="spacing" textLength="288" x="161" y="255.0278">selects test parameter from the list provided</text><polygon fill="#A80036" points="152,285.2266,142,289.2266,152,293.2266,148,289.2266" style="stroke:#A80036;stroke-width:1.0;"/><line style="stroke:#A80036;stroke-width:1.0;stroke-dasharray:2.0,2.0;" x1="146" x2="758" y1="289.2266" y2="289.2266"/><text fill="#000000" font-family="sans-serif" font-size="13" font-weight="bold" lengthAdjust="spacing" textLength="9" x="158" y="284.1606">6</text><text fill="#000000" font-family="sans-serif" font-size="13" lengthAdjust="spacing" textLength="272" x="171" y="284.1606">request the result value for the parameter</text><polygon fill="#A80036" points="742,314.3594,752,318.3594,742,322.3594,746,318.3594" style="stroke:#A80036;stroke-width:1.0;"/><line style="stroke:#A80036;stroke-width:1.0;" x1="141" x2="748" y1="318.3594" y2="318.3594"/><text fill="#000000" font-family="sans-serif" font-size="13" font-weight="bold" lengthAdjust="spacing" textLength="9" x="148" y="313.2935">7</text><text fill="#000000" font-family="sans-serif" font-size="13" lengthAdjust="spacing" textLength="138" x="161" y="313.2935">types requested data</text><polygon fill="#A80036" points="152,343.4922,142,347.4922,152,351.4922,148,347.4922" style="stroke:#A80036;stroke-width:1.0;"/><line style="stroke:#A80036;stroke-width:1.0;stroke-dasharray:2.0,2.0;" x1="146" x2="758" y1="347.4922" y2="347.4922"/><text fill="#000000" font-family="sans-serif" font-size="13" font-weight="bold" lengthAdjust="spacing" textLength="9" x="158" y="342.4263">8</text><text fill="#000000" font-family="sans-serif" font-size="13" lengthAdjust="spacing" textLength="258" x="171" y="342.4263">shows all data and request confirmation</text><polygon fill="#A80036" points="747,372.625,757,376.625,747,380.625,751,376.625" style="stroke:#A80036;stroke-width:1.0;"/><line style="stroke:#A80036;stroke-width:1.0;" x1="141" x2="753" y1="376.625" y2="376.625"/><text fill="#000000" font-family="sans-serif" font-size="13" font-weight="bold" lengthAdjust="spacing" textLength="9" x="148" y="371.5591">9</text><text fill="#000000" font-family="sans-serif" font-size="13" lengthAdjust="spacing" textLength="114" x="161" y="371.5591">confirms the data</text><polygon fill="#A80036" points="147,408.7578,137,412.7578,147,416.7578,143,412.7578" style="stroke:#A80036;stroke-width:1.0;"/><line style="stroke:#A80036;stroke-width:1.0;stroke-dasharray:2.0,2.0;" x1="141" x2="758" y1="412.7578" y2="412.7578"/><text fill="#000000" font-family="sans-serif" font-size="13" font-weight="bold" lengthAdjust="spacing" textLength="19" x="153" y="407.6919">10</text><text fill="#000000" font-family="sans-serif" font-size="13" lengthAdjust="spacing" textLength="169" x="176" y="407.6919">informs operation success</text><!--MD5=[e1afaae100b309a539a5a01373c153e7]
@startuml
autonumber
actor "Clinical Chemistry Technologist" as TECH
actor ":System" as SYS

activate TECH

TECH-> SYS : selects to start recording the results of a given test 
activate SYS
SYS - -> TECH: request to introduce barcode from a sample of the test where the results will be recorded
deactivate SYS

TECH -> SYS : types requested data 
activate SYS
loop for each test parameter being analysed
	SYS - -> TECH: shows test parameter list and asks to select one
	deactivate SYS

	TECH-> SYS : selects test parameter from the list provided
	activate SYS

        SYS - -> TECH: request the result value for the parameter

	deactivate SYS

        TECH-> SYS : types requested data
	activate SYS

        SYS - -> TECH: shows all data and request confirmation 
        deactivate SYS

        TECH-> SYS : confirms the data
end

activate SYS
SYS - -> TECH : informs operation success 
deactivate SYS

deactivate TECH
@enduml

PlantUML version 1.2021.7beta4(Unknown compile time)
(GPL source distribution)
Java Runtime: Java(TM) SE Runtime Environment
JVM: Java HotSpot(TM) 64-Bit Server VM
Default Encoding: UTF-8
Language: en
Country: US
--></g></svg>