<?xml version="1.0" encoding="UTF-8" standalone="no"?><svg xmlns="http://www.w3.org/2000/svg" xmlns:xlink="http://www.w3.org/1999/xlink" contentScriptType="application/ecmascript" contentStyleType="text/css" height="1291px" preserveAspectRatio="none" style="width:3152px;height:1291px;background:#FFFFFF;" version="1.1" viewBox="0 0 3152 1291" width="3152px" zoomAndPan="magnify"><defs><filter height="300%" id="f94h5csw8aphj" width="300%" x="-1" y="-1"><feGaussianBlur result="blurOut" stdDeviation="2.0"/><feColorMatrix in="blurOut" result="blurOut2" type="matrix" values="0 0 0 0 0 0 0 0 0 0 0 0 0 0 0 0 0 0 .4 0"/><feOffset dx="4.0" dy="4.0" in="blurOut2" result="blurOut3"/><feBlend in="SourceGraphic" in2="blurOut3" mode="normal"/></filter></defs><g><rect fill="#FFFFFF" filter="url(#f94h5csw8aphj)" height="1099.9844" style="stroke:#A80036;stroke-width:1.0;" width="10" x="131" y="98.2969"/><rect fill="#FFFFFF" filter="url(#f94h5csw8aphj)" height="29.1328" style="stroke:#A80036;stroke-width:1.0;" width="10" x="754" y="119.4297"/><rect fill="#FFFFFF" filter="url(#f94h5csw8aphj)" height="259.7969" style="stroke:#A80036;stroke-width:1.0;" width="10" x="754" y="177.6953"/><rect fill="#FFFFFF" filter="url(#f94h5csw8aphj)" height="29.1328" style="stroke:#A80036;stroke-width:1.0;" width="10" x="754" y="466.625"/><rect fill="#FFFFFF" filter="url(#f94h5csw8aphj)" height="59.1328" style="stroke:#A80036;stroke-width:1.0;" width="10" x="754" y="524.8906"/><rect fill="#FFFFFF" filter="url(#f94h5csw8aphj)" height="29.1328" style="stroke:#A80036;stroke-width:1.0;" width="10" x="754" y="775.8203"/><rect fill="#FFFFFF" filter="url(#f94h5csw8aphj)" height="355.1953" style="stroke:#A80036;stroke-width:1.0;" width="10" x="754" y="834.0859"/><rect fill="#FFFFFF" filter="url(#f94h5csw8aphj)" height="177.3984" style="stroke:#A80036;stroke-width:1.0;" width="10" x="1135" y="206.8281"/><rect fill="#FFFFFF" filter="url(#f94h5csw8aphj)" height="88.2656" style="stroke:#A80036;stroke-width:1.0;" width="10" x="1135" y="554.0234"/><rect fill="#FFFFFF" filter="url(#f94h5csw8aphj)" height="59.1328" style="stroke:#A80036;stroke-width:1.0;" width="10" x="1135" y="716.6875"/><rect fill="#FFFFFF" filter="url(#f94h5csw8aphj)" height="29.1328" style="stroke:#A80036;stroke-width:1.0;" width="10" x="1135" y="863.2188"/><rect fill="#FFFFFF" filter="url(#f94h5csw8aphj)" height="29.1328" style="stroke:#A80036;stroke-width:1.0;" width="10" x="1135" y="1131.0156"/><rect fill="#FFFFFF" filter="url(#f94h5csw8aphj)" height="30" style="stroke:#A80036;stroke-width:1.0;" width="10" x="1556" y="235.9609"/><rect fill="#FFFFFF" filter="url(#f94h5csw8aphj)" height="30" style="stroke:#A80036;stroke-width:1.0;" width="10" x="1556" y="295.0938"/><rect fill="#FFFFFF" filter="url(#f94h5csw8aphj)" height="30" style="stroke:#A80036;stroke-width:1.0;" width="10" x="1556" y="354.2266"/><rect fill="#FFFFFF" filter="url(#f94h5csw8aphj)" height="29.1328" style="stroke:#A80036;stroke-width:1.0;" width="10" x="1556" y="613.1563"/><rect fill="#FFFFFF" filter="url(#f94h5csw8aphj)" height="202.5313" style="stroke:#A80036;stroke-width:1.0;" width="10" x="1556" y="892.3516"/><rect fill="#FFFFFF" filter="url(#f94h5csw8aphj)" height="28" style="stroke:#A80036;stroke-width:1.0;" width="10" x="1561" y="929.4844"/><rect fill="#FFFFFF" filter="url(#f94h5csw8aphj)" height="28" style="stroke:#A80036;stroke-width:1.0;" width="10" x="1561" y="1001.6172"/><rect fill="#FFFFFF" filter="url(#f94h5csw8aphj)" height="104.3984" style="stroke:#A80036;stroke-width:1.0;" width="10" x="1902" y="642.2891"/><rect fill="#FFFFFF" filter="url(#f94h5csw8aphj)" height="38.1328" style="stroke:#A80036;stroke-width:1.0;" width="10" x="1902" y="1160.1484"/><rect fill="#FFFFFF" filter="url(#f94h5csw8aphj)" height="703.6563" style="stroke:#000000;stroke-width:2.0;" width="2800.5" x="10" y="399.2266"/><line style="stroke:#A80036;stroke-width:1.0;stroke-dasharray:5.0,5.0;" x1="136" x2="136" y1="88.2969" y2="1207.2813"/><line style="stroke:#A80036;stroke-width:1.0;stroke-dasharray:5.0,5.0;" x1="759" x2="759" y1="88.2969" y2="1207.2813"/><line style="stroke:#A80036;stroke-width:1.0;stroke-dasharray:5.0,5.0;" x1="1140" x2="1140" y1="88.2969" y2="1207.2813"/><line style="stroke:#A80036;stroke-width:1.0;stroke-dasharray:5.0,5.0;" x1="1307" x2="1307" y1="88.2969" y2="1207.2813"/><line style="stroke:#A80036;stroke-width:1.0;stroke-dasharray:5.0,5.0;" x1="1560.5" x2="1560.5" y1="88.2969" y2="1207.2813"/><line style="stroke:#A80036;stroke-width:1.0;stroke-dasharray:5.0,5.0;" x1="1906.5" x2="1906.5" y1="88.2969" y2="1207.2813"/><line style="stroke:#A80036;stroke-width:1.0;stroke-dasharray:5.0,5.0;" x1="2071.5" x2="2071.5" y1="88.2969" y2="1207.2813"/><line style="stroke:#A80036;stroke-width:1.0;stroke-dasharray:5.0,5.0;" x1="2334.5" x2="2334.5" y1="88.2969" y2="1207.2813"/><line style="stroke:#A80036;stroke-width:1.0;stroke-dasharray:5.0,5.0;" x1="2542.5" x2="2542.5" y1="88.2969" y2="1207.2813"/><line style="stroke:#A80036;stroke-width:1.0;stroke-dasharray:5.0,5.0;" x1="2712.5" x2="2712.5" y1="88.2969" y2="1207.2813"/><line style="stroke:#A80036;stroke-width:1.0;stroke-dasharray:5.0,5.0;" x1="2872.5" x2="2872.5" y1="88.2969" y2="1207.2813"/><line style="stroke:#A80036;stroke-width:1.0;stroke-dasharray:5.0,5.0;" x1="3043.5" x2="3043.5" y1="88.2969" y2="1207.2813"/><text fill="#000000" font-family="sans-serif" font-size="14" lengthAdjust="spacing" textLength="226" x="20" y="84.9951">Clinical Chemistry Technologist</text><ellipse cx="136" cy="15" fill="#FEFECE" filter="url(#f94h5csw8aphj)" rx="8" ry="8" style="stroke:#A80036;stroke-width:2.0;"/><path d="M136,23 L136,50 M123,31 L149,31 M136,50 L123,65 M136,50 L149,65 " fill="none" filter="url(#f94h5csw8aphj)" style="stroke:#A80036;stroke-width:2.0;"/><text fill="#000000" font-family="sans-serif" font-size="14" lengthAdjust="spacing" textLength="226" x="20" y="1219.2764">Clinical Chemistry Technologist</text><ellipse cx="136" cy="1232.5781" fill="#FEFECE" filter="url(#f94h5csw8aphj)" rx="8" ry="8" style="stroke:#A80036;stroke-width:2.0;"/><path d="M136,1240.5781 L136,1267.5781 M123,1248.5781 L149,1248.5781 M136,1267.5781 L123,1282.5781 M136,1267.5781 L149,1282.5781 " fill="none" filter="url(#f94h5csw8aphj)" style="stroke:#A80036;stroke-width:2.0;"/><rect fill="#FEFECE" filter="url(#f94h5csw8aphj)" height="30.2969" style="stroke:#A80036;stroke-width:1.5;" width="160" x="677" y="53"/><text fill="#000000" font-family="sans-serif" font-size="14" lengthAdjust="spacing" textLength="146" x="684" y="72.9951">:RecordTestResultUI</text><rect fill="#FEFECE" filter="url(#f94h5csw8aphj)" height="30.2969" style="stroke:#A80036;stroke-width:1.5;" width="160" x="677" y="1206.2813"/><text fill="#000000" font-family="sans-serif" font-size="14" lengthAdjust="spacing" textLength="146" x="684" y="1226.2764">:RecordTestResultUI</text><rect fill="#FEFECE" filter="url(#f94h5csw8aphj)" height="30.2969" style="stroke:#A80036;stroke-width:1.5;" width="220" x="1028" y="53"/><text fill="#000000" font-family="sans-serif" font-size="14" lengthAdjust="spacing" textLength="206" x="1035" y="72.9951">:RecordTestResultController</text><rect fill="#FEFECE" filter="url(#f94h5csw8aphj)" height="30.2969" style="stroke:#A80036;stroke-width:1.5;" width="220" x="1028" y="1206.2813"/><text fill="#000000" font-family="sans-serif" font-size="14" lengthAdjust="spacing" textLength="206" x="1035" y="1226.2764">:RecordTestResultController</text><rect fill="#FEFECE" filter="url(#f94h5csw8aphj)" height="30.2969" style="stroke:#A80036;stroke-width:1.5;" width="87" x="1262" y="53"/><text fill="#000000" font-family="sans-serif" font-size="14" lengthAdjust="spacing" textLength="73" x="1269" y="72.9951">:Company</text><rect fill="#FEFECE" filter="url(#f94h5csw8aphj)" height="30.2969" style="stroke:#A80036;stroke-width:1.5;" width="87" x="1262" y="1206.2813"/><text fill="#000000" font-family="sans-serif" font-size="14" lengthAdjust="spacing" textLength="73" x="1269" y="1226.2764">:Company</text><rect fill="#FEFECE" filter="url(#f94h5csw8aphj)" height="30.2969" style="stroke:#A80036;stroke-width:1.5;" width="91" x="1513.5" y="53"/><text fill="#000000" font-family="sans-serif" font-size="14" lengthAdjust="spacing" textLength="77" x="1520.5" y="72.9951">:TestStore</text><rect fill="#FEFECE" filter="url(#f94h5csw8aphj)" height="30.2969" style="stroke:#A80036;stroke-width:1.5;" width="91" x="1513.5" y="1206.2813"/><text fill="#000000" font-family="sans-serif" font-size="14" lengthAdjust="spacing" textLength="77" x="1520.5" y="1226.2764">:TestStore</text><rect fill="#FEFECE" filter="url(#f94h5csw8aphj)" height="30.2969" style="stroke:#A80036;stroke-width:1.5;" width="51" x="1879.5" y="53"/><text fill="#000000" font-family="sans-serif" font-size="14" lengthAdjust="spacing" textLength="37" x="1886.5" y="72.9951">:Test</text><rect fill="#FEFECE" filter="url(#f94h5csw8aphj)" height="30.2969" style="stroke:#A80036;stroke-width:1.5;" width="51" x="1879.5" y="1206.2813"/><text fill="#000000" font-family="sans-serif" font-size="14" lengthAdjust="spacing" textLength="37" x="1886.5" y="1226.2764">:Test</text><rect fill="#FEFECE" filter="url(#f94h5csw8aphj)" height="30.2969" style="stroke:#A80036;stroke-width:1.5;" width="251" x="1944.5" y="53"/><text fill="#000000" font-family="sans-serif" font-size="14" lengthAdjust="spacing" textLength="237" x="1951.5" y="72.9951">testResultStore:TestResultStore</text><rect fill="#FEFECE" filter="url(#f94h5csw8aphj)" height="30.2969" style="stroke:#A80036;stroke-width:1.5;" width="251" x="1944.5" y="1206.2813"/><text fill="#000000" font-family="sans-serif" font-size="14" lengthAdjust="spacing" textLength="237" x="1951.5" y="1226.2764">testResultStore:TestResultStore</text><rect fill="#FEFECE" filter="url(#f94h5csw8aphj)" height="30.2969" style="stroke:#A80036;stroke-width:1.5;" width="247" x="2209.5" y="53"/><text fill="#000000" font-family="sans-serif" font-size="14" lengthAdjust="spacing" textLength="233" x="2216.5" y="72.9951">testResult:TestParameterResult</text><rect fill="#FEFECE" filter="url(#f94h5csw8aphj)" height="30.2969" style="stroke:#A80036;stroke-width:1.5;" width="247" x="2209.5" y="1206.2813"/><text fill="#000000" font-family="sans-serif" font-size="14" lengthAdjust="spacing" textLength="233" x="2216.5" y="1226.2764">testResult:TestParameterResult</text><rect fill="#FEFECE" filter="url(#f94h5csw8aphj)" height="30.2969" style="stroke:#A80036;stroke-width:1.5;" width="141" x="2470.5" y="53"/><text fill="#000000" font-family="sans-serif" font-size="14" lengthAdjust="spacing" textLength="127" x="2477.5" y="72.9951">param:Parameter</text><rect fill="#FEFECE" filter="url(#f94h5csw8aphj)" height="30.2969" style="stroke:#A80036;stroke-width:1.5;" width="141" x="2470.5" y="1206.2813"/><text fill="#000000" font-family="sans-serif" font-size="14" lengthAdjust="spacing" textLength="127" x="2477.5" y="1226.2764">param:Parameter</text><rect fill="#FEFECE" filter="url(#f94h5csw8aphj)" height="30.2969" style="stroke:#A80036;stroke-width:1.5;" width="171" x="2625.5" y="53"/><text fill="#000000" font-family="sans-serif" font-size="14" lengthAdjust="spacing" textLength="157" x="2632.5" y="72.9951">testParam:TestParam</text><rect fill="#FEFECE" filter="url(#f94h5csw8aphj)" height="30.2969" style="stroke:#A80036;stroke-width:1.5;" width="171" x="2625.5" y="1206.2813"/><text fill="#000000" font-family="sans-serif" font-size="14" lengthAdjust="spacing" textLength="157" x="2632.5" y="1226.2764">testParam:TestParam</text><rect fill="#FEFECE" filter="url(#f94h5csw8aphj)" height="30.2969" style="stroke:#A80036;stroke-width:1.5;" width="121" x="2810.5" y="53"/><text fill="#000000" font-family="sans-serif" font-size="14" lengthAdjust="spacing" textLength="107" x="2817.5" y="72.9951">type:TypeTest</text><rect fill="#FEFECE" filter="url(#f94h5csw8aphj)" height="30.2969" style="stroke:#A80036;stroke-width:1.5;" width="121" x="2810.5" y="1206.2813"/><text fill="#000000" font-family="sans-serif" font-size="14" lengthAdjust="spacing" textLength="107" x="2817.5" y="1226.2764">type:TypeTest</text><rect fill="#FEFECE" filter="url(#f94h5csw8aphj)" height="30.2969" style="stroke:#A80036;stroke-width:1.5;" width="193" x="2945.5" y="53"/><text fill="#000000" font-family="sans-serif" font-size="14" lengthAdjust="spacing" textLength="179" x="2952.5" y="72.9951">refValue:ReferenceValue</text><rect fill="#FEFECE" filter="url(#f94h5csw8aphj)" height="30.2969" style="stroke:#A80036;stroke-width:1.5;" width="193" x="2945.5" y="1206.2813"/><text fill="#000000" font-family="sans-serif" font-size="14" lengthAdjust="spacing" textLength="179" x="2952.5" y="1226.2764">refValue:ReferenceValue</text><rect fill="#FFFFFF" filter="url(#f94h5csw8aphj)" height="1099.9844" style="stroke:#A80036;stroke-width:1.0;" width="10" x="131" y="98.2969"/><rect fill="#FFFFFF" filter="url(#f94h5csw8aphj)" height="29.1328" style="stroke:#A80036;stroke-width:1.0;" width="10" x="754" y="119.4297"/><rect fill="#FFFFFF" filter="url(#f94h5csw8aphj)" height="259.7969" style="stroke:#A80036;stroke-width:1.0;" width="10" x="754" y="177.6953"/><rect fill="#FFFFFF" filter="url(#f94h5csw8aphj)" height="29.1328" style="stroke:#A80036;stroke-width:1.0;" width="10" x="754" y="466.625"/><rect fill="#FFFFFF" filter="url(#f94h5csw8aphj)" height="59.1328" style="stroke:#A80036;stroke-width:1.0;" width="10" x="754" y="524.8906"/><rect fill="#FFFFFF" filter="url(#f94h5csw8aphj)" height="29.1328" style="stroke:#A80036;stroke-width:1.0;" width="10" x="754" y="775.8203"/><rect fill="#FFFFFF" filter="url(#f94h5csw8aphj)" height="355.1953" style="stroke:#A80036;stroke-width:1.0;" width="10" x="754" y="834.0859"/><rect fill="#FFFFFF" filter="url(#f94h5csw8aphj)" height="177.3984" style="stroke:#A80036;stroke-width:1.0;" width="10" x="1135" y="206.8281"/><rect fill="#FFFFFF" filter="url(#f94h5csw8aphj)" height="88.2656" style="stroke:#A80036;stroke-width:1.0;" width="10" x="1135" y="554.0234"/><rect fill="#FFFFFF" filter="url(#f94h5csw8aphj)" height="59.1328" style="stroke:#A80036;stroke-width:1.0;" width="10" x="1135" y="716.6875"/><rect fill="#FFFFFF" filter="url(#f94h5csw8aphj)" height="29.1328" style="stroke:#A80036;stroke-width:1.0;" width="10" x="1135" y="863.2188"/><rect fill="#FFFFFF" filter="url(#f94h5csw8aphj)" height="29.1328" style="stroke:#A80036;stroke-width:1.0;" width="10" x="1135" y="1131.0156"/><rect fill="#FFFFFF" filter="url(#f94h5csw8aphj)" height="30" style="stroke:#A80036;stroke-width:1.0;" width="10" x="1556" y="235.9609"/><rect fill="#FFFFFF" filter="url(#f94h5csw8aphj)" height="30" style="stroke:#A80036;stroke-width:1.0;" width="10" x="1556" y="295.0938"/><rect fill="#FFFFFF" filter="url(#f94h5csw8aphj)" height="30" style="stroke:#A80036;stroke-width:1.0;" width="10" x="1556" y="354.2266"/><rect fill="#FFFFFF" filter="url(#f94h5csw8aphj)" height="29.1328" style="stroke:#A80036;stroke-width:1.0;" width="10" x="1556" y="613.1563"/><rect fill="#FFFFFF" filter="url(#f94h5csw8aphj)" height="202.5313" style="stroke:#A80036;stroke-width:1.0;" width="10" x="1556" y="892.3516"/><rect fill="#FFFFFF" filter="url(#f94h5csw8aphj)" height="28" style="stroke:#A80036;stroke-width:1.0;" width="10" x="1561" y="929.4844"/><rect fill="#FFFFFF" filter="url(#f94h5csw8aphj)" height="28" style="stroke:#A80036;stroke-width:1.0;" width="10" x="1561" y="1001.6172"/><rect fill="#FFFFFF" filter="url(#f94h5csw8aphj)" height="104.3984" style="stroke:#A80036;stroke-width:1.0;" width="10" x="1902" y="642.2891"/><rect fill="#FFFFFF" filter="url(#f94h5csw8aphj)" height="38.1328" style="stroke:#A80036;stroke-width:1.0;" width="10" x="1902" y="1160.1484"/><polygon fill="#A80036" points="742,115.4297,752,119.4297,742,123.4297,746,119.4297" style="stroke:#A80036;stroke-width:1.0;"/><line style="stroke:#A80036;stroke-width:1.0;" x1="141" x2="748" y1="119.4297" y2="119.4297"/><text fill="#000000" font-family="sans-serif" font-size="13" font-weight="bold" lengthAdjust="spacing" textLength="9" x="148" y="114.3638">1</text><text fill="#000000" font-family="sans-serif" font-size="13" lengthAdjust="spacing" textLength="329" x="161" y="114.3638">selects to start recording the results of a given test</text><polygon fill="#A80036" points="152,144.5625,142,148.5625,152,152.5625,148,148.5625" style="stroke:#A80036;stroke-width:1.0;"/><line style="stroke:#A80036;stroke-width:1.0;stroke-dasharray:2.0,2.0;" x1="146" x2="758" y1="148.5625" y2="148.5625"/><text fill="#000000" font-family="sans-serif" font-size="13" font-weight="bold" lengthAdjust="spacing" textLength="9" x="158" y="143.4966">2</text><text fill="#000000" font-family="sans-serif" font-size="13" lengthAdjust="spacing" textLength="576" x="171" y="143.4966">request to introduce barcode from a sample of the test where the results will be recorded</text><polygon fill="#A80036" points="742,173.6953,752,177.6953,742,181.6953,746,177.6953" style="stroke:#A80036;stroke-width:1.0;"/><line style="stroke:#A80036;stroke-width:1.0;" x1="141" x2="748" y1="177.6953" y2="177.6953"/><text fill="#000000" font-family="sans-serif" font-size="13" font-weight="bold" lengthAdjust="spacing" textLength="8" x="148" y="172.6294">3</text><text fill="#000000" font-family="sans-serif" font-size="13" lengthAdjust="spacing" textLength="138" x="160" y="172.6294">types requested data</text><polygon fill="#A80036" points="1123,202.8281,1133,206.8281,1123,210.8281,1127,206.8281" style="stroke:#A80036;stroke-width:1.0;"/><line style="stroke:#A80036;stroke-width:1.0;" x1="764" x2="1129" y1="206.8281" y2="206.8281"/><text fill="#000000" font-family="sans-serif" font-size="13" font-weight="bold" lengthAdjust="spacing" textLength="9" x="771" y="201.7622">4</text><text fill="#000000" font-family="sans-serif" font-size="13" lengthAdjust="spacing" textLength="125" x="784" y="201.7622">testExists(barcode)</text><polygon fill="#A80036" points="1544,231.9609,1554,235.9609,1544,239.9609,1548,235.9609" style="stroke:#A80036;stroke-width:1.0;"/><line style="stroke:#A80036;stroke-width:1.0;" x1="1145" x2="1550" y1="235.9609" y2="235.9609"/><text fill="#000000" font-family="sans-serif" font-size="13" font-weight="bold" lengthAdjust="spacing" textLength="9" x="1152" y="230.895">5</text><text fill="#000000" font-family="sans-serif" font-size="13" lengthAdjust="spacing" textLength="125" x="1165" y="230.895">testExists(barcode)</text><polygon fill="#A80036" points="1544,291.0938,1554,295.0938,1544,299.0938,1548,295.0938" style="stroke:#A80036;stroke-width:1.0;"/><line style="stroke:#A80036;stroke-width:1.0;" x1="1145" x2="1550" y1="295.0938" y2="295.0938"/><text fill="#000000" font-family="sans-serif" font-size="13" font-weight="bold" lengthAdjust="spacing" textLength="9" x="1152" y="290.0278">6</text><text fill="#000000" font-family="sans-serif" font-size="13" lengthAdjust="spacing" textLength="154" x="1165" y="290.0278">test = getTest(barcode)</text><polygon fill="#A80036" points="1544,350.2266,1554,354.2266,1544,358.2266,1548,354.2266" style="stroke:#A80036;stroke-width:1.0;"/><line style="stroke:#A80036;stroke-width:1.0;" x1="1145" x2="1550" y1="354.2266" y2="354.2266"/><text fill="#000000" font-family="sans-serif" font-size="13" font-weight="bold" lengthAdjust="spacing" textLength="9" x="1152" y="349.1606">7</text><text fill="#000000" font-family="sans-serif" font-size="13" lengthAdjust="spacing" textLength="379" x="1165" y="349.1606">parametersSelectedList = getParameterStoreToShow(test)</text><path d="M10,399.2266 L88,399.2266 L88,406.2266 L78,416.2266 L10,416.2266 L10,399.2266 " fill="#EEEEEE" style="stroke:#000000;stroke-width:1.0;"/><rect fill="none" height="703.6563" style="stroke:#000000;stroke-width:2.0;" width="2800.5" x="10" y="399.2266"/><text fill="#000000" font-family="sans-serif" font-size="13" font-weight="bold" lengthAdjust="spacing" textLength="33" x="25" y="412.2935">loop</text><text fill="#000000" font-family="sans-serif" font-size="11" font-weight="bold" lengthAdjust="spacing" textLength="277" x="103" y="411.437">[for each test parameter being analysed]</text><polygon fill="#A80036" points="152,433.4922,142,437.4922,152,441.4922,148,437.4922" style="stroke:#A80036;stroke-width:1.0;"/><line style="stroke:#A80036;stroke-width:1.0;stroke-dasharray:2.0,2.0;" x1="146" x2="758" y1="437.4922" y2="437.4922"/><text fill="#000000" font-family="sans-serif" font-size="13" font-weight="bold" lengthAdjust="spacing" textLength="9" x="158" y="432.4263">8</text><text fill="#000000" font-family="sans-serif" font-size="13" lengthAdjust="spacing" textLength="312" x="171" y="432.4263">shows test parameter list and asks to select one</text><polygon fill="#A80036" points="742,462.625,752,466.625,742,470.625,746,466.625" style="stroke:#A80036;stroke-width:1.0;"/><line style="stroke:#A80036;stroke-width:1.0;" x1="141" x2="748" y1="466.625" y2="466.625"/><text fill="#000000" font-family="sans-serif" font-size="13" font-weight="bold" lengthAdjust="spacing" textLength="9" x="148" y="461.5591">9</text><text fill="#000000" font-family="sans-serif" font-size="13" lengthAdjust="spacing" textLength="288" x="161" y="461.5591">selects test parameter from the list provided</text><polygon fill="#A80036" points="152,491.7578,142,495.7578,152,499.7578,148,495.7578" style="stroke:#A80036;stroke-width:1.0;"/><line style="stroke:#A80036;stroke-width:1.0;stroke-dasharray:2.0,2.0;" x1="146" x2="758" y1="495.7578" y2="495.7578"/><text fill="#000000" font-family="sans-serif" font-size="13" font-weight="bold" lengthAdjust="spacing" textLength="19" x="158" y="490.6919">10</text><text fill="#000000" font-family="sans-serif" font-size="13" lengthAdjust="spacing" textLength="153" x="181" y="490.6919">request the result value</text><polygon fill="#A80036" points="742,520.8906,752,524.8906,742,528.8906,746,524.8906" style="stroke:#A80036;stroke-width:1.0;"/><line style="stroke:#A80036;stroke-width:1.0;" x1="141" x2="748" y1="524.8906" y2="524.8906"/><text fill="#000000" font-family="sans-serif" font-size="13" font-weight="bold" lengthAdjust="spacing" textLength="18" x="148" y="519.8247">11</text><text fill="#000000" font-family="sans-serif" font-size="13" lengthAdjust="spacing" textLength="138" x="170" y="519.8247">types requested data</text><polygon fill="#A80036" points="1123,550.0234,1133,554.0234,1123,558.0234,1127,554.0234" style="stroke:#A80036;stroke-width:1.0;"/><line style="stroke:#A80036;stroke-width:1.0;" x1="764" x2="1129" y1="554.0234" y2="554.0234"/><text fill="#000000" font-family="sans-serif" font-size="13" font-weight="bold" lengthAdjust="spacing" textLength="18" x="771" y="548.9575">12</text><text fill="#000000" font-family="sans-serif" font-size="13" lengthAdjust="spacing" textLength="295" x="793" y="548.9575">r = addTestResult(parameterCode,result,test)</text><polygon fill="#A80036" points="1544,609.1563,1554,613.1563,1544,617.1563,1548,613.1563" style="stroke:#A80036;stroke-width:1.0;"/><line style="stroke:#A80036;stroke-width:1.0;" x1="1145" x2="1550" y1="613.1563" y2="613.1563"/><text fill="#000000" font-family="sans-serif" font-size="13" font-weight="bold" lengthAdjust="spacing" textLength="17" x="1152" y="608.0903">13</text><text fill="#000000" font-family="sans-serif" font-size="13" lengthAdjust="spacing" textLength="295" x="1173" y="608.0903">r = addTestResult(parameterCode,result,test)</text><polygon fill="#A80036" points="1890,638.2891,1900,642.2891,1890,646.2891,1894,642.2891" style="stroke:#A80036;stroke-width:1.0;"/><line style="stroke:#A80036;stroke-width:1.0;" x1="1561" x2="1896" y1="642.2891" y2="642.2891"/><text fill="#000000" font-family="sans-serif" font-size="13" font-weight="bold" lengthAdjust="spacing" textLength="18" x="1568" y="637.2231">14</text><text fill="#000000" font-family="sans-serif" font-size="13" lengthAdjust="spacing" textLength="295" x="1590" y="637.2231">r = addTestResult(parameterCode,result,test)</text><rect fill="#FFFFFF" filter="url(#f94h5csw8aphj)" height="40.2656" style="stroke:#000000;stroke-width:2.0;" width="583" x="1876.5" y="650.2891"/><polygon fill="#EEEEEE" points="1876.5,650.2891,1944.5,650.2891,1944.5,657.2891,1934.5,667.2891,1876.5,667.2891,1876.5,650.2891" style="stroke:#000000;stroke-width:2.0;"/><text fill="#000000" font-family="sans-serif" font-size="13" font-weight="bold" lengthAdjust="spacing" textLength="23" x="1889.5" y="664.356">ref</text><text fill="#000000" font-family="sans-serif" font-size="13" lengthAdjust="spacing" textLength="269" x="2035.5" y="683.356">SD_AddTestResult(parameterCode,result)</text><polygon fill="#A80036" points="1156,712.6875,1146,716.6875,1156,720.6875,1152,716.6875" style="stroke:#A80036;stroke-width:1.0;"/><line style="stroke:#A80036;stroke-width:1.0;stroke-dasharray:2.0,2.0;" x1="1150" x2="1901" y1="716.6875" y2="716.6875"/><text fill="#000000" font-family="sans-serif" font-size="13" font-weight="bold" lengthAdjust="spacing" textLength="18" x="1162" y="711.6216">15</text><text fill="#000000" font-family="sans-serif" font-size="13" lengthAdjust="spacing" textLength="15" x="1184" y="711.6216">ok</text><polygon fill="#A80036" points="775,771.8203,765,775.8203,775,779.8203,771,775.8203" style="stroke:#A80036;stroke-width:1.0;"/><line style="stroke:#A80036;stroke-width:1.0;stroke-dasharray:2.0,2.0;" x1="769" x2="1139" y1="775.8203" y2="775.8203"/><text fill="#000000" font-family="sans-serif" font-size="13" font-weight="bold" lengthAdjust="spacing" textLength="18" x="781" y="770.7544">16</text><text fill="#000000" font-family="sans-serif" font-size="13" lengthAdjust="spacing" textLength="15" x="803" y="770.7544">ok</text><polygon fill="#A80036" points="152,800.9531,142,804.9531,152,808.9531,148,804.9531" style="stroke:#A80036;stroke-width:1.0;"/><line style="stroke:#A80036;stroke-width:1.0;stroke-dasharray:2.0,2.0;" x1="146" x2="758" y1="804.9531" y2="804.9531"/><text fill="#000000" font-family="sans-serif" font-size="13" font-weight="bold" lengthAdjust="spacing" textLength="18" x="158" y="799.8872">17</text><text fill="#000000" font-family="sans-serif" font-size="13" lengthAdjust="spacing" textLength="277" x="180" y="799.8872">shows the data and request a confirmation</text><polygon fill="#A80036" points="742,830.0859,752,834.0859,742,838.0859,746,834.0859" style="stroke:#A80036;stroke-width:1.0;"/><line style="stroke:#A80036;stroke-width:1.0;" x1="141" x2="748" y1="834.0859" y2="834.0859"/><text fill="#000000" font-family="sans-serif" font-size="13" font-weight="bold" lengthAdjust="spacing" textLength="18" x="148" y="829.02">18</text><text fill="#000000" font-family="sans-serif" font-size="13" lengthAdjust="spacing" textLength="114" x="170" y="829.02">confirms the data</text><polygon fill="#A80036" points="1123,859.2188,1133,863.2188,1123,867.2188,1127,863.2188" style="stroke:#A80036;stroke-width:1.0;"/><line style="stroke:#A80036;stroke-width:1.0;" x1="764" x2="1129" y1="863.2188" y2="863.2188"/><text fill="#000000" font-family="sans-serif" font-size="13" font-weight="bold" lengthAdjust="spacing" textLength="18" x="771" y="858.1528">19</text><text fill="#000000" font-family="sans-serif" font-size="13" lengthAdjust="spacing" textLength="330" x="793" y="858.1528">saveResultForParameter(parameterCode, barcode)</text><polygon fill="#A80036" points="1544,888.3516,1554,892.3516,1544,896.3516,1548,892.3516" style="stroke:#A80036;stroke-width:1.0;"/><line style="stroke:#A80036;stroke-width:1.0;" x1="1140" x2="1550" y1="892.3516" y2="892.3516"/><text fill="#000000" font-family="sans-serif" font-size="13" font-weight="bold" lengthAdjust="spacing" textLength="19" x="1147" y="887.2856">20</text><text fill="#000000" font-family="sans-serif" font-size="13" lengthAdjust="spacing" textLength="330" x="1170" y="887.2856">saveResultForParameter(parameterCode, barcode)</text><line style="stroke:#A80036;stroke-width:1.0;" x1="1571" x2="1613" y1="921.4844" y2="921.4844"/><line style="stroke:#A80036;stroke-width:1.0;" x1="1613" x2="1613" y1="921.4844" y2="934.4844"/><line style="stroke:#A80036;stroke-width:1.0;" x1="1572" x2="1613" y1="934.4844" y2="934.4844"/><polygon fill="#A80036" points="1582,930.4844,1572,934.4844,1582,938.4844,1578,934.4844" style="stroke:#A80036;stroke-width:1.0;"/><text fill="#000000" font-family="sans-serif" font-size="13" font-weight="bold" lengthAdjust="spacing" textLength="18" x="1578" y="916.4185">21</text><text fill="#000000" font-family="sans-serif" font-size="13" lengthAdjust="spacing" textLength="222" x="1600" y="916.4185">test = getTestByBarcode(barcode)</text><line style="stroke:#A80036;stroke-width:1.0;" x1="1571" x2="1613" y1="993.6172" y2="993.6172"/><line style="stroke:#A80036;stroke-width:1.0;" x1="1613" x2="1613" y1="993.6172" y2="1006.6172"/><line style="stroke:#A80036;stroke-width:1.0;" x1="1572" x2="1613" y1="1006.6172" y2="1006.6172"/><polygon fill="#A80036" points="1582,1002.6172,1572,1006.6172,1582,1010.6172,1578,1006.6172" style="stroke:#A80036;stroke-width:1.0;"/><text fill="#000000" font-family="sans-serif" font-size="13" font-weight="bold" lengthAdjust="spacing" textLength="18" x="1578" y="988.5513">22</text><text fill="#000000" font-family="sans-serif" font-size="13" lengthAdjust="spacing" textLength="283" x="1600" y="988.5513">parameters = test.getParametersSelected()</text><polygon fill="#A80036" points="2701,1061.75,2711,1065.75,2701,1069.75,2705,1065.75" style="stroke:#A80036;stroke-width:1.0;"/><line style="stroke:#A80036;stroke-width:1.0;" x1="1566" x2="2707" y1="1065.75" y2="1065.75"/><text fill="#000000" font-family="sans-serif" font-size="13" font-weight="bold" lengthAdjust="spacing" textLength="17" x="1573" y="1060.6841">23</text><text fill="#000000" font-family="sans-serif" font-size="13" lengthAdjust="spacing" textLength="546" x="1594" y="1060.6841">parameter = testParam.findParameterInTestParameter(parameterCode,parameters)</text><polygon fill="#A80036" points="2531,1090.8828,2541,1094.8828,2531,1098.8828,2535,1094.8828" style="stroke:#A80036;stroke-width:1.0;"/><line style="stroke:#A80036;stroke-width:1.0;" x1="1561" x2="2537" y1="1094.8828" y2="1094.8828"/><text fill="#000000" font-family="sans-serif" font-size="13" font-weight="bold" lengthAdjust="spacing" textLength="18" x="1568" y="1089.8169">24</text><text fill="#000000" font-family="sans-serif" font-size="13" lengthAdjust="spacing" textLength="235" x="1590" y="1089.8169">parameter.setTestResult(testResult)</text><polygon fill="#A80036" points="1123,1127.0156,1133,1131.0156,1123,1135.0156,1127,1131.0156" style="stroke:#A80036;stroke-width:1.0;"/><line style="stroke:#A80036;stroke-width:1.0;" x1="764" x2="1129" y1="1131.0156" y2="1131.0156"/><text fill="#000000" font-family="sans-serif" font-size="13" font-weight="bold" lengthAdjust="spacing" textLength="18" x="771" y="1125.9497">25</text><text fill="#000000" font-family="sans-serif" font-size="13" lengthAdjust="spacing" textLength="198" x="793" y="1125.9497">setChemicalAnalysisDate(test)</text><polygon fill="#A80036" points="1890,1156.1484,1900,1160.1484,1890,1164.1484,1894,1160.1484" style="stroke:#A80036;stroke-width:1.0;"/><line style="stroke:#A80036;stroke-width:1.0;" x1="1140" x2="1896" y1="1160.1484" y2="1160.1484"/><text fill="#000000" font-family="sans-serif" font-size="13" font-weight="bold" lengthAdjust="spacing" textLength="18" x="1147" y="1155.0825">26</text><text fill="#000000" font-family="sans-serif" font-size="13" lengthAdjust="spacing" textLength="233" x="1169" y="1155.0825">test.setChemicalAnalysisDate(Date)</text><polygon fill="#A80036" points="152,1185.2813,142,1189.2813,152,1193.2813,148,1189.2813" style="stroke:#A80036;stroke-width:1.0;"/><line style="stroke:#A80036;stroke-width:1.0;stroke-dasharray:2.0,2.0;" x1="146" x2="758" y1="1189.2813" y2="1189.2813"/><text fill="#000000" font-family="sans-serif" font-size="13" font-weight="bold" lengthAdjust="spacing" textLength="18" x="158" y="1184.2153">27</text><text fill="#000000" font-family="sans-serif" font-size="13" lengthAdjust="spacing" textLength="216" x="180" y="1184.2153">informs operation was completed</text><!--MD5=[c2c420cb198524ce45009b1a2d5531a9]
@startuml
autonumber
actor "Clinical Chemistry Technologist" as TECH

participant ":RecordTestResultUI" as UI
participant ":RecordTestResultController" as CTRL
participant ":Company" as CMP
participant ":TestStore" as TSTSTR
participant ":Test" as TST
participant "testResultStore:TestResultStore" as TSTRESSTR
participant "testResult:TestParameterResult" as TSTPARAMRES
participant "param:Parameter" as TSTPARAM
participant "testParam:TestParam" as TSPARAM
participant "type:TypeTest" as TYPTST
participant "refValue:ReferenceValue" as RFRVAL






activate TECH
TECH-> UI : selects to start recording the results of a given test 

activate UI
UI - -> TECH: request to introduce barcode from a sample of the test where the results will be recorded
deactivate UI

TECH-> UI : types requested data
activate UI

UI -> CTRL : testExists(barcode)
activate CTRL

CTRL -> TSTSTR : testExists(barcode)
activate TSTSTR
deactivate TSTSTR
CTRL -> TSTSTR : test = getTest(barcode)
activate TSTSTR
deactivate TSTSTR
CTRL -> TSTSTR : parametersSelectedList = getParameterStoreToShow(test)
activate TSTSTR
deactivate TSTSTR





deactivate CTRL

loop for each test parameter being analysed

UI - -> TECH : shows test parameter list and asks to select one
deactivate UI
TECH -> UI : selects test parameter from the list provided
activate UI
UI - -> TECH : request the result value
deactivate UI
TECH -> UI : types requested data
activate UI
UI -> CTRL : r = addTestResult(parameterCode,result,test)
activate CTRL
deactivate UI

CTRL -> TSTSTR : r = addTestResult(parameterCode,result,test)
activate TSTSTR
TSTSTR -> TST : r = addTestResult(parameterCode,result,test)
deactivate TSTSTR
deactivate CTRL
activate TST
ref over TST, TSTRESSTR , TSTPARAMRES
SD_AddTestResult(parameterCode,result)
end ref

TST - -> CTRL : ok
activate CTRL
deactivate TST

CTRL - -> UI : ok
deactivate CTRL
activate UI




UI - -> TECH: shows the data and request a confirmation

deactivate UI


TECH -> UI : confirms the data
activate UI
UI -> CTRL : saveResultForParameter(parameterCode, barcode)
activate CTRL

CTRL -> TSTSTR: saveResultForParameter(parameterCode, barcode)
deactivate CTRL
activate TSTSTR
TSTSTR -> TSTSTR : test = getTestByBarcode(barcode)

activate TSTSTR
deactivate TSTSTR
TSTSTR -> TSTSTR : parameters = test.getParametersSelected()
activate TSTSTR
deactivate TSTSTR
TSTSTR-> TSPARAM : parameter = testParam.findParameterInTestParameter(parameterCode,parameters)


TSTSTR -> TSTPARAM : parameter.setTestResult(testResult)
deactivate TSTSTR

deactivate CMP


end

deactivate CTRL
activate TSTSTR
UI -> CTRL : setChemicalAnalysisDate(test)
activate CTRL
CTRL -> TST : test.setChemicalAnalysisDate(Date)
deactivate CTRL
activate TST
deactivate TST

UI - -> TECH : informs operation was completed
deactivate TSTSTR

deactivate UI
@enduml

PlantUML version 1.2021.7(Sun May 23 12:40:07 UTC 2021)
(GPL source distribution)
Java Runtime: Java(TM) SE Runtime Environment
JVM: Java HotSpot(TM) 64-Bit Server VM
Default Encoding: UTF-8
Language: en
Country: US
--></g></svg>