<?xml version="1.0" encoding="UTF-8" standalone="no"?><svg xmlns="http://www.w3.org/2000/svg" xmlns:xlink="http://www.w3.org/1999/xlink" contentScriptType="application/ecmascript" contentStyleType="text/css" height="1197px" preserveAspectRatio="none" style="width:903px;height:1197px;background:#FFFFFF;" version="1.1" viewBox="0 0 903 1197" width="903px" zoomAndPan="magnify"><defs><filter height="300%" id="f1iic52fnpqvr4" width="300%" x="-1" y="-1"><feGaussianBlur result="blurOut" stdDeviation="2.0"/><feColorMatrix in="blurOut" result="blurOut2" type="matrix" values="0 0 0 0 0 0 0 0 0 0 0 0 0 0 0 0 0 0 .4 0"/><feOffset dx="4.0" dy="4.0" in="blurOut2" result="blurOut3"/><feBlend in="SourceGraphic" in2="blurOut3" mode="normal"/></filter></defs><g><!--MD5=[02e4b9b7573f1156f41e60aa5b4e25a4]
class Company--><rect codeLine="4" fill="#FEFECE" filter="url(#f1iic52fnpqvr4)" height="52.8047" id="Company" style="stroke:#A80036;stroke-width:1.5;" width="88" x="362" y="498.5"/><ellipse cx="377" cy="514.5" fill="#ADD1B2" rx="11" ry="11" style="stroke:#A80036;stroke-width:1.0;"/><path d="M379.3438,510.1719 C378.4063,509.7344 377.8125,509.5938 376.9375,509.5938 C374.3125,509.5938 372.3125,511.6719 372.3125,514.3906 L372.3125,515.5156 C372.3125,518.0938 374.4219,519.9844 377.3125,519.9844 C378.5313,519.9844 379.6875,519.6875 380.4375,519.1406 C381.0156,518.7344 381.3438,518.2813 381.3438,517.8906 C381.3438,517.4375 380.9531,517.0469 380.4844,517.0469 C380.2656,517.0469 380.0625,517.125 379.875,517.3125 C379.4219,517.7969 379.4219,517.7969 379.2344,517.8906 C378.8125,518.1563 378.125,518.2813 377.3594,518.2813 C375.3125,518.2813 374.0156,517.1875 374.0156,515.4844 L374.0156,514.3906 C374.0156,512.6094 375.2656,511.2969 377,511.2969 C377.5781,511.2969 378.1875,511.4531 378.6563,511.7031 C379.1406,511.9844 379.3125,512.2031 379.4063,512.6094 C379.4688,513.0156 379.5,513.1406 379.6406,513.2656 C379.7813,513.4063 380.0156,513.5156 380.2344,513.5156 C380.5,513.5156 380.7656,513.375 380.9375,513.1563 C381.0469,513 381.0781,512.8125 381.0781,512.3906 L381.0781,510.9688 C381.0781,510.5313 381.0625,510.4063 380.9688,510.25 C380.8125,509.9844 380.5313,509.8438 380.2344,509.8438 C379.9375,509.8438 379.7344,509.9375 379.5156,510.25 L379.3438,510.1719 Z " fill="#000000"/><text fill="#000000" font-family="sans-serif" font-size="12" lengthAdjust="spacing" textLength="56" x="391" y="518.6543">Company</text><line style="stroke:#A80036;stroke-width:1.5;" x1="363" x2="449" y1="530.5" y2="530.5"/><text fill="#000000" font-family="sans-serif" font-size="11" lengthAdjust="spacing" textLength="70" x="368" y="544.7104">-designation</text><!--MD5=[1c357e7e7fdba398bcadd6e61afe49f5]
class ReferenceValue--><rect codeLine="9" fill="#FEFECE" filter="url(#f1iic52fnpqvr4)" height="40" id="ReferenceValue" style="stroke:#A80036;stroke-width:1.5;" width="127" x="263.5" y="822"/><ellipse cx="278.5" cy="838" fill="#ADD1B2" rx="11" ry="11" style="stroke:#A80036;stroke-width:1.0;"/><path d="M280.8438,833.6719 C279.9063,833.2344 279.3125,833.0938 278.4375,833.0938 C275.8125,833.0938 273.8125,835.1719 273.8125,837.8906 L273.8125,839.0156 C273.8125,841.5938 275.9219,843.4844 278.8125,843.4844 C280.0313,843.4844 281.1875,843.1875 281.9375,842.6406 C282.5156,842.2344 282.8438,841.7813 282.8438,841.3906 C282.8438,840.9375 282.4531,840.5469 281.9844,840.5469 C281.7656,840.5469 281.5625,840.625 281.375,840.8125 C280.9219,841.2969 280.9219,841.2969 280.7344,841.3906 C280.3125,841.6563 279.625,841.7813 278.8594,841.7813 C276.8125,841.7813 275.5156,840.6875 275.5156,838.9844 L275.5156,837.8906 C275.5156,836.1094 276.7656,834.7969 278.5,834.7969 C279.0781,834.7969 279.6875,834.9531 280.1563,835.2031 C280.6406,835.4844 280.8125,835.7031 280.9063,836.1094 C280.9688,836.5156 281,836.6406 281.1406,836.7656 C281.2813,836.9063 281.5156,837.0156 281.7344,837.0156 C282,837.0156 282.2656,836.875 282.4375,836.6563 C282.5469,836.5 282.5781,836.3125 282.5781,835.8906 L282.5781,834.4688 C282.5781,834.0313 282.5625,833.9063 282.4688,833.75 C282.3125,833.4844 282.0313,833.3438 281.7344,833.3438 C281.4375,833.3438 281.2344,833.4375 281.0156,833.75 L280.8438,833.6719 Z " fill="#000000"/><text fill="#000000" font-family="sans-serif" font-size="12" lengthAdjust="spacing" textLength="95" x="292.5" y="842.1543">ReferenceValue</text><line style="stroke:#A80036;stroke-width:1.5;" x1="264.5" x2="389.5" y1="854" y2="854"/><!--MD5=[4e608140b854dae633589343bce77383]
class TestParameterResult--><rect codeLine="13" fill="#FEFECE" filter="url(#f1iic52fnpqvr4)" height="78.4141" id="TestParameterResult" style="stroke:#A80036;stroke-width:1.5;" width="155" x="238.5" y="988"/><ellipse cx="253.5" cy="1004" fill="#ADD1B2" rx="11" ry="11" style="stroke:#A80036;stroke-width:1.0;"/><path d="M255.8438,999.6719 C254.9063,999.2344 254.3125,999.0938 253.4375,999.0938 C250.8125,999.0938 248.8125,1001.1719 248.8125,1003.8906 L248.8125,1005.0156 C248.8125,1007.5938 250.9219,1009.4844 253.8125,1009.4844 C255.0313,1009.4844 256.1875,1009.1875 256.9375,1008.6406 C257.5156,1008.2344 257.8438,1007.7813 257.8438,1007.3906 C257.8438,1006.9375 257.4531,1006.5469 256.9844,1006.5469 C256.7656,1006.5469 256.5625,1006.625 256.375,1006.8125 C255.9219,1007.2969 255.9219,1007.2969 255.7344,1007.3906 C255.3125,1007.6563 254.625,1007.7813 253.8594,1007.7813 C251.8125,1007.7813 250.5156,1006.6875 250.5156,1004.9844 L250.5156,1003.8906 C250.5156,1002.1094 251.7656,1000.7969 253.5,1000.7969 C254.0781,1000.7969 254.6875,1000.9531 255.1563,1001.2031 C255.6406,1001.4844 255.8125,1001.7031 255.9063,1002.1094 C255.9688,1002.5156 256,1002.6406 256.1406,1002.7656 C256.2813,1002.9063 256.5156,1003.0156 256.7344,1003.0156 C257,1003.0156 257.2656,1002.875 257.4375,1002.6563 C257.5469,1002.5 257.5781,1002.3125 257.5781,1001.8906 L257.5781,1000.4688 C257.5781,1000.0313 257.5625,999.9063 257.4688,999.75 C257.3125,999.4844 257.0313,999.3438 256.7344,999.3438 C256.4375,999.3438 256.2344,999.4375 256.0156,999.75 L255.8438,999.6719 Z " fill="#000000"/><text fill="#000000" font-family="sans-serif" font-size="12" lengthAdjust="spacing" textLength="123" x="267.5" y="1008.1543">TestParameterResult</text><line style="stroke:#A80036;stroke-width:1.5;" x1="239.5" x2="392.5" y1="1020" y2="1020"/><text fill="#000000" font-family="sans-serif" font-size="11" lengthAdjust="spacing" textLength="60" x="244.5" y="1034.2104">-createdAt</text><text fill="#000000" font-family="sans-serif" font-size="11" lengthAdjust="spacing" textLength="36" x="244.5" y="1047.0151">-value</text><text fill="#000000" font-family="sans-serif" font-size="11" lengthAdjust="spacing" textLength="40" x="244.5" y="1059.8198">-metric</text><!--MD5=[0f07739f46effee96e095e9c408da841]
class TestParameter--><rect codeLine="19" fill="#FEFECE" filter="url(#f1iic52fnpqvr4)" height="40" id="TestParameter" style="stroke:#A80036;stroke-width:1.5;" width="119" x="513.5" y="1143"/><ellipse cx="528.5" cy="1159" fill="#ADD1B2" rx="11" ry="11" style="stroke:#A80036;stroke-width:1.0;"/><path d="M530.8438,1154.6719 C529.9063,1154.2344 529.3125,1154.0938 528.4375,1154.0938 C525.8125,1154.0938 523.8125,1156.1719 523.8125,1158.8906 L523.8125,1160.0156 C523.8125,1162.5938 525.9219,1164.4844 528.8125,1164.4844 C530.0313,1164.4844 531.1875,1164.1875 531.9375,1163.6406 C532.5156,1163.2344 532.8438,1162.7813 532.8438,1162.3906 C532.8438,1161.9375 532.4531,1161.5469 531.9844,1161.5469 C531.7656,1161.5469 531.5625,1161.625 531.375,1161.8125 C530.9219,1162.2969 530.9219,1162.2969 530.7344,1162.3906 C530.3125,1162.6563 529.625,1162.7813 528.8594,1162.7813 C526.8125,1162.7813 525.5156,1161.6875 525.5156,1159.9844 L525.5156,1158.8906 C525.5156,1157.1094 526.7656,1155.7969 528.5,1155.7969 C529.0781,1155.7969 529.6875,1155.9531 530.1563,1156.2031 C530.6406,1156.4844 530.8125,1156.7031 530.9063,1157.1094 C530.9688,1157.5156 531,1157.6406 531.1406,1157.7656 C531.2813,1157.9063 531.5156,1158.0156 531.7344,1158.0156 C532,1158.0156 532.2656,1157.875 532.4375,1157.6563 C532.5469,1157.5 532.5781,1157.3125 532.5781,1156.8906 L532.5781,1155.4688 C532.5781,1155.0313 532.5625,1154.9063 532.4688,1154.75 C532.3125,1154.4844 532.0313,1154.3438 531.7344,1154.3438 C531.4375,1154.3438 531.2344,1154.4375 531.0156,1154.75 L530.8438,1154.6719 Z " fill="#000000"/><text fill="#000000" font-family="sans-serif" font-size="12" lengthAdjust="spacing" textLength="87" x="542.5" y="1163.1543">TestParameter</text><line style="stroke:#A80036;stroke-width:1.5;" x1="514.5" x2="631.5" y1="1175" y2="1175"/><!--MD5=[1f6362a5c8f21d8d6a0fce68f3a92a4e]
class Parameter--><rect codeLine="23" fill="#FEFECE" filter="url(#f1iic52fnpqvr4)" height="78.4141" id="Parameter" style="stroke:#A80036;stroke-width:1.5;" width="93" x="603.5" y="667"/><ellipse cx="618.5" cy="683" fill="#ADD1B2" rx="11" ry="11" style="stroke:#A80036;stroke-width:1.0;"/><path d="M620.8438,678.6719 C619.9063,678.2344 619.3125,678.0938 618.4375,678.0938 C615.8125,678.0938 613.8125,680.1719 613.8125,682.8906 L613.8125,684.0156 C613.8125,686.5938 615.9219,688.4844 618.8125,688.4844 C620.0313,688.4844 621.1875,688.1875 621.9375,687.6406 C622.5156,687.2344 622.8438,686.7813 622.8438,686.3906 C622.8438,685.9375 622.4531,685.5469 621.9844,685.5469 C621.7656,685.5469 621.5625,685.625 621.375,685.8125 C620.9219,686.2969 620.9219,686.2969 620.7344,686.3906 C620.3125,686.6563 619.625,686.7813 618.8594,686.7813 C616.8125,686.7813 615.5156,685.6875 615.5156,683.9844 L615.5156,682.8906 C615.5156,681.1094 616.7656,679.7969 618.5,679.7969 C619.0781,679.7969 619.6875,679.9531 620.1563,680.2031 C620.6406,680.4844 620.8125,680.7031 620.9063,681.1094 C620.9688,681.5156 621,681.6406 621.1406,681.7656 C621.2813,681.9063 621.5156,682.0156 621.7344,682.0156 C622,682.0156 622.2656,681.875 622.4375,681.6563 C622.5469,681.5 622.5781,681.3125 622.5781,680.8906 L622.5781,679.4688 C622.5781,679.0313 622.5625,678.9063 622.4688,678.75 C622.3125,678.4844 622.0313,678.3438 621.7344,678.3438 C621.4375,678.3438 621.2344,678.4375 621.0156,678.75 L620.8438,678.6719 Z " fill="#000000"/><text fill="#000000" font-family="sans-serif" font-size="12" lengthAdjust="spacing" textLength="61" x="632.5" y="687.1543">Parameter</text><line style="stroke:#A80036;stroke-width:1.5;" x1="604.5" x2="695.5" y1="699" y2="699"/><text fill="#000000" font-family="sans-serif" font-size="11" lengthAdjust="spacing" textLength="32" x="609.5" y="713.2104">-code</text><text fill="#000000" font-family="sans-serif" font-size="11" lengthAdjust="spacing" textLength="66" x="609.5" y="726.0151">-shortName</text><text fill="#000000" font-family="sans-serif" font-size="11" lengthAdjust="spacing" textLength="66" x="609.5" y="738.8198">-description</text><!--MD5=[df38be88ccee13e832d6fafd6288a4ca]
class Test--><rect codeLine="30" fill="#FEFECE" filter="url(#f1iic52fnpqvr4)" height="78.4141" id="Test" style="stroke:#A80036;stroke-width:1.5;" width="72" x="320" y="150"/><ellipse cx="341.3" cy="166" fill="#ADD1B2" rx="11" ry="11" style="stroke:#A80036;stroke-width:1.0;"/><path d="M343.6438,161.6719 C342.7063,161.2344 342.1125,161.0938 341.2375,161.0938 C338.6125,161.0938 336.6125,163.1719 336.6125,165.8906 L336.6125,167.0156 C336.6125,169.5938 338.7219,171.4844 341.6125,171.4844 C342.8313,171.4844 343.9875,171.1875 344.7375,170.6406 C345.3156,170.2344 345.6438,169.7813 345.6438,169.3906 C345.6438,168.9375 345.2531,168.5469 344.7844,168.5469 C344.5656,168.5469 344.3625,168.625 344.175,168.8125 C343.7219,169.2969 343.7219,169.2969 343.5344,169.3906 C343.1125,169.6563 342.425,169.7813 341.6594,169.7813 C339.6125,169.7813 338.3156,168.6875 338.3156,166.9844 L338.3156,165.8906 C338.3156,164.1094 339.5656,162.7969 341.3,162.7969 C341.8781,162.7969 342.4875,162.9531 342.9563,163.2031 C343.4406,163.4844 343.6125,163.7031 343.7063,164.1094 C343.7688,164.5156 343.8,164.6406 343.9406,164.7656 C344.0813,164.9063 344.3156,165.0156 344.5344,165.0156 C344.8,165.0156 345.0656,164.875 345.2375,164.6563 C345.3469,164.5 345.3781,164.3125 345.3781,163.8906 L345.3781,162.4688 C345.3781,162.0313 345.3625,161.9063 345.2688,161.75 C345.1125,161.4844 344.8313,161.3438 344.5344,161.3438 C344.2375,161.3438 344.0344,161.4375 343.8156,161.75 L343.6438,161.6719 Z " fill="#000000"/><text fill="#000000" font-family="sans-serif" font-size="12" lengthAdjust="spacing" textLength="26" x="356.7" y="170.1543">Test</text><line style="stroke:#A80036;stroke-width:1.5;" x1="321" x2="391" y1="182" y2="182"/><text fill="#000000" font-family="sans-serif" font-size="11" lengthAdjust="spacing" textLength="32" x="326" y="196.2104">-code</text><text fill="#000000" font-family="sans-serif" font-size="11" lengthAdjust="spacing" textLength="56" x="326" y="209.0151">-NHScode</text><text fill="#000000" font-family="sans-serif" font-size="11" lengthAdjust="spacing" textLength="60" x="326" y="221.8198">-createdAt</text><!--MD5=[012ee2a8bf3ae2b319009b06f951c2e5]
class ClinicalChemistryTechnologist--><rect codeLine="36" fill="#FEFECE" filter="url(#f1iic52fnpqvr4)" height="129.6328" id="ClinicalChemistryTechnologist" style="stroke:#A80036;stroke-width:1.5;" width="226" x="7" y="460"/><ellipse cx="29.2" cy="476" fill="#ADD1B2" rx="11" ry="11" style="stroke:#A80036;stroke-width:1.0;"/><path d="M31.5438,471.6719 C30.6063,471.2344 30.0125,471.0938 29.1375,471.0938 C26.5125,471.0938 24.5125,473.1719 24.5125,475.8906 L24.5125,477.0156 C24.5125,479.5938 26.6219,481.4844 29.5125,481.4844 C30.7313,481.4844 31.8875,481.1875 32.6375,480.6406 C33.2156,480.2344 33.5438,479.7813 33.5438,479.3906 C33.5438,478.9375 33.1531,478.5469 32.6844,478.5469 C32.4656,478.5469 32.2625,478.625 32.075,478.8125 C31.6219,479.2969 31.6219,479.2969 31.4344,479.3906 C31.0125,479.6563 30.325,479.7813 29.5594,479.7813 C27.5125,479.7813 26.2156,478.6875 26.2156,476.9844 L26.2156,475.8906 C26.2156,474.1094 27.4656,472.7969 29.2,472.7969 C29.7781,472.7969 30.3875,472.9531 30.8563,473.2031 C31.3406,473.4844 31.5125,473.7031 31.6063,474.1094 C31.6688,474.5156 31.7,474.6406 31.8406,474.7656 C31.9813,474.9063 32.2156,475.0156 32.4344,475.0156 C32.7,475.0156 32.9656,474.875 33.1375,474.6563 C33.2469,474.5 33.2781,474.3125 33.2781,473.8906 L33.2781,472.4688 C33.2781,472.0313 33.2625,471.9063 33.1688,471.75 C33.0125,471.4844 32.7313,471.3438 32.4344,471.3438 C32.1375,471.3438 31.9344,471.4375 31.7156,471.75 L31.5438,471.6719 Z " fill="#000000"/><text fill="#000000" font-family="sans-serif" font-size="12" lengthAdjust="spacing" textLength="178" x="44.8" y="480.1543">ClinicalChemistryTechnologist</text><line style="stroke:#A80036;stroke-width:1.5;" x1="8" x2="232" y1="492" y2="492"/><text fill="#000000" font-family="sans-serif" font-size="11" lengthAdjust="spacing" textLength="63" x="13" y="506.2104">-employee</text><text fill="#000000" font-family="sans-serif" font-size="11" lengthAdjust="spacing" textLength="99" x="13" y="519.0151">-organizationRole</text><text fill="#000000" font-family="sans-serif" font-size="11" lengthAdjust="spacing" textLength="37" x="13" y="531.8198">-name</text><text fill="#000000" font-family="sans-serif" font-size="11" lengthAdjust="spacing" textLength="49" x="13" y="544.6245">-address</text><text fill="#000000" font-family="sans-serif" font-size="11" lengthAdjust="spacing" textLength="85" x="13" y="557.4292">-phoneNumber</text><text fill="#000000" font-family="sans-serif" font-size="11" lengthAdjust="spacing" textLength="36" x="13" y="570.2339">-email</text><text fill="#000000" font-family="sans-serif" font-size="11" lengthAdjust="spacing" textLength="214" x="13" y="583.0386">-standardOcupationClassificationCode</text><!--MD5=[aeb3272166074d8737a70b61b1e71682]
class TestType--><rect codeLine="47" fill="#FEFECE" filter="url(#f1iic52fnpqvr4)" height="78.4141" id="TestType" style="stroke:#A80036;stroke-width:1.5;" width="112" x="177" y="667"/><ellipse cx="202.8" cy="683" fill="#ADD1B2" rx="11" ry="11" style="stroke:#A80036;stroke-width:1.0;"/><path d="M205.1438,678.6719 C204.2063,678.2344 203.6125,678.0938 202.7375,678.0938 C200.1125,678.0938 198.1125,680.1719 198.1125,682.8906 L198.1125,684.0156 C198.1125,686.5938 200.2219,688.4844 203.1125,688.4844 C204.3313,688.4844 205.4875,688.1875 206.2375,687.6406 C206.8156,687.2344 207.1438,686.7813 207.1438,686.3906 C207.1438,685.9375 206.7531,685.5469 206.2844,685.5469 C206.0656,685.5469 205.8625,685.625 205.675,685.8125 C205.2219,686.2969 205.2219,686.2969 205.0344,686.3906 C204.6125,686.6563 203.925,686.7813 203.1594,686.7813 C201.1125,686.7813 199.8156,685.6875 199.8156,683.9844 L199.8156,682.8906 C199.8156,681.1094 201.0656,679.7969 202.8,679.7969 C203.3781,679.7969 203.9875,679.9531 204.4563,680.2031 C204.9406,680.4844 205.1125,680.7031 205.2063,681.1094 C205.2688,681.5156 205.3,681.6406 205.4406,681.7656 C205.5813,681.9063 205.8156,682.0156 206.0344,682.0156 C206.3,682.0156 206.5656,681.875 206.7375,681.6563 C206.8469,681.5 206.8781,681.3125 206.8781,680.8906 L206.8781,679.4688 C206.8781,679.0313 206.8625,678.9063 206.7688,678.75 C206.6125,678.4844 206.3313,678.3438 206.0344,678.3438 C205.7375,678.3438 205.5344,678.4375 205.3156,678.75 L205.1438,678.6719 Z " fill="#000000"/><text fill="#000000" font-family="sans-serif" font-size="12" lengthAdjust="spacing" textLength="56" x="219.2" y="687.1543">TestType</text><line style="stroke:#A80036;stroke-width:1.5;" x1="178" x2="288" y1="699" y2="699"/><text fill="#000000" font-family="sans-serif" font-size="11" lengthAdjust="spacing" textLength="32" x="183" y="713.2104">-code</text><text fill="#000000" font-family="sans-serif" font-size="11" lengthAdjust="spacing" textLength="66" x="183" y="726.0151">-description</text><text fill="#000000" font-family="sans-serif" font-size="11" lengthAdjust="spacing" textLength="100" x="183" y="738.8198">-collectionMethod</text><!--MD5=[9681492165142af2a4a3a169d90ee8d4]
class Sample--><rect codeLine="54" fill="#FEFECE" filter="url(#f1iic52fnpqvr4)" height="65.6094" id="Sample" style="stroke:#A80036;stroke-width:1.5;" width="77" x="137.5" y="7"/><ellipse cx="152.5" cy="23" fill="#ADD1B2" rx="11" ry="11" style="stroke:#A80036;stroke-width:1.0;"/><path d="M154.8438,18.6719 C153.9063,18.2344 153.3125,18.0938 152.4375,18.0938 C149.8125,18.0938 147.8125,20.1719 147.8125,22.8906 L147.8125,24.0156 C147.8125,26.5938 149.9219,28.4844 152.8125,28.4844 C154.0313,28.4844 155.1875,28.1875 155.9375,27.6406 C156.5156,27.2344 156.8438,26.7813 156.8438,26.3906 C156.8438,25.9375 156.4531,25.5469 155.9844,25.5469 C155.7656,25.5469 155.5625,25.625 155.375,25.8125 C154.9219,26.2969 154.9219,26.2969 154.7344,26.3906 C154.3125,26.6563 153.625,26.7813 152.8594,26.7813 C150.8125,26.7813 149.5156,25.6875 149.5156,23.9844 L149.5156,22.8906 C149.5156,21.1094 150.7656,19.7969 152.5,19.7969 C153.0781,19.7969 153.6875,19.9531 154.1563,20.2031 C154.6406,20.4844 154.8125,20.7031 154.9063,21.1094 C154.9688,21.5156 155,21.6406 155.1406,21.7656 C155.2813,21.9063 155.5156,22.0156 155.7344,22.0156 C156,22.0156 156.2656,21.875 156.4375,21.6563 C156.5469,21.5 156.5781,21.3125 156.5781,20.8906 L156.5781,19.4688 C156.5781,19.0313 156.5625,18.9063 156.4688,18.75 C156.3125,18.4844 156.0313,18.3438 155.7344,18.3438 C155.4375,18.3438 155.2344,18.4375 155.0156,18.75 L154.8438,18.6719 Z " fill="#000000"/><text fill="#000000" font-family="sans-serif" font-size="12" lengthAdjust="spacing" textLength="45" x="166.5" y="27.1543">Sample</text><line style="stroke:#A80036;stroke-width:1.5;" x1="138.5" x2="213.5" y1="39" y2="39"/><text fill="#000000" font-family="sans-serif" font-size="11" lengthAdjust="spacing" textLength="50" x="143.5" y="53.2104">-barcode</text><text fill="#000000" font-family="sans-serif" font-size="11" lengthAdjust="spacing" textLength="30" x="143.5" y="66.0151">-date</text><!--MD5=[8f188b89eff49accb0f38c057b38a9f2]
class ExternalModule--><rect codeLine="59" fill="#FEFECE" filter="url(#f1iic52fnpqvr4)" height="40" id="ExternalModule" style="stroke:#A80036;stroke-width:1.5;" width="124" x="426" y="686"/><ellipse cx="441" cy="702" fill="#ADD1B2" rx="11" ry="11" style="stroke:#A80036;stroke-width:1.0;"/><path d="M443.3438,697.6719 C442.4063,697.2344 441.8125,697.0938 440.9375,697.0938 C438.3125,697.0938 436.3125,699.1719 436.3125,701.8906 L436.3125,703.0156 C436.3125,705.5938 438.4219,707.4844 441.3125,707.4844 C442.5313,707.4844 443.6875,707.1875 444.4375,706.6406 C445.0156,706.2344 445.3438,705.7813 445.3438,705.3906 C445.3438,704.9375 444.9531,704.5469 444.4844,704.5469 C444.2656,704.5469 444.0625,704.625 443.875,704.8125 C443.4219,705.2969 443.4219,705.2969 443.2344,705.3906 C442.8125,705.6563 442.125,705.7813 441.3594,705.7813 C439.3125,705.7813 438.0156,704.6875 438.0156,702.9844 L438.0156,701.8906 C438.0156,700.1094 439.2656,698.7969 441,698.7969 C441.5781,698.7969 442.1875,698.9531 442.6563,699.2031 C443.1406,699.4844 443.3125,699.7031 443.4063,700.1094 C443.4688,700.5156 443.5,700.6406 443.6406,700.7656 C443.7813,700.9063 444.0156,701.0156 444.2344,701.0156 C444.5,701.0156 444.7656,700.875 444.9375,700.6563 C445.0469,700.5 445.0781,700.3125 445.0781,699.8906 L445.0781,698.4688 C445.0781,698.0313 445.0625,697.9063 444.9688,697.75 C444.8125,697.4844 444.5313,697.3438 444.2344,697.3438 C443.9375,697.3438 443.7344,697.4375 443.5156,697.75 L443.3438,697.6719 Z " fill="#000000"/><text fill="#000000" font-family="sans-serif" font-size="12" lengthAdjust="spacing" textLength="92" x="455" y="706.1543">ExternalModule</text><line style="stroke:#A80036;stroke-width:1.5;" x1="427" x2="549" y1="718" y2="718"/><!--MD5=[86b2982ced9a310f9b4ad491674c42e1]
class ResultsValidation--><rect codeLine="63" fill="#FEFECE" filter="url(#f1iic52fnpqvr4)" height="65.6094" id="ResultsValidation" style="stroke:#A80036;stroke-width:1.5;" width="133" x="415.5" y="892"/><ellipse cx="430.5" cy="908" fill="#ADD1B2" rx="11" ry="11" style="stroke:#A80036;stroke-width:1.0;"/><path d="M432.8438,903.6719 C431.9063,903.2344 431.3125,903.0938 430.4375,903.0938 C427.8125,903.0938 425.8125,905.1719 425.8125,907.8906 L425.8125,909.0156 C425.8125,911.5938 427.9219,913.4844 430.8125,913.4844 C432.0313,913.4844 433.1875,913.1875 433.9375,912.6406 C434.5156,912.2344 434.8438,911.7813 434.8438,911.3906 C434.8438,910.9375 434.4531,910.5469 433.9844,910.5469 C433.7656,910.5469 433.5625,910.625 433.375,910.8125 C432.9219,911.2969 432.9219,911.2969 432.7344,911.3906 C432.3125,911.6563 431.625,911.7813 430.8594,911.7813 C428.8125,911.7813 427.5156,910.6875 427.5156,908.9844 L427.5156,907.8906 C427.5156,906.1094 428.7656,904.7969 430.5,904.7969 C431.0781,904.7969 431.6875,904.9531 432.1563,905.2031 C432.6406,905.4844 432.8125,905.7031 432.9063,906.1094 C432.9688,906.5156 433,906.6406 433.1406,906.7656 C433.2813,906.9063 433.5156,907.0156 433.7344,907.0156 C434,907.0156 434.2656,906.875 434.4375,906.6563 C434.5469,906.5 434.5781,906.3125 434.5781,905.8906 L434.5781,904.4688 C434.5781,904.0313 434.5625,903.9063 434.4688,903.75 C434.3125,903.4844 434.0313,903.3438 433.7344,903.3438 C433.4375,903.3438 433.2344,903.4375 433.0156,903.75 L432.8438,903.6719 Z " fill="#000000"/><text fill="#000000" font-family="sans-serif" font-size="12" lengthAdjust="spacing" textLength="101" x="444.5" y="912.1543">ResultsValidation</text><line style="stroke:#A80036;stroke-width:1.5;" x1="416.5" x2="547.5" y1="924" y2="924"/><text fill="#000000" font-family="sans-serif" font-size="11" lengthAdjust="spacing" textLength="40" x="421.5" y="938.2104">-param</text><text fill="#000000" font-family="sans-serif" font-size="11" lengthAdjust="spacing" textLength="41" x="421.5" y="951.0151">-isValid</text><!--MD5=[f856f85595ce4f8bf435bc42f531c692]
class Results--><rect codeLine="68" fill="#FEFECE" filter="url(#f1iic52fnpqvr4)" height="78.4141" id="Results" style="stroke:#A80036;stroke-width:1.5;" width="106" x="150" y="305"/><ellipse cx="178.95" cy="321" fill="#ADD1B2" rx="11" ry="11" style="stroke:#A80036;stroke-width:1.0;"/><path d="M181.2938,316.6719 C180.3563,316.2344 179.7625,316.0938 178.8875,316.0938 C176.2625,316.0938 174.2625,318.1719 174.2625,320.8906 L174.2625,322.0156 C174.2625,324.5938 176.3719,326.4844 179.2625,326.4844 C180.4813,326.4844 181.6375,326.1875 182.3875,325.6406 C182.9656,325.2344 183.2938,324.7813 183.2938,324.3906 C183.2938,323.9375 182.9031,323.5469 182.4344,323.5469 C182.2156,323.5469 182.0125,323.625 181.825,323.8125 C181.3719,324.2969 181.3719,324.2969 181.1844,324.3906 C180.7625,324.6563 180.075,324.7813 179.3094,324.7813 C177.2625,324.7813 175.9656,323.6875 175.9656,321.9844 L175.9656,320.8906 C175.9656,319.1094 177.2156,317.7969 178.95,317.7969 C179.5281,317.7969 180.1375,317.9531 180.6063,318.2031 C181.0906,318.4844 181.2625,318.7031 181.3563,319.1094 C181.4188,319.5156 181.45,319.6406 181.5906,319.7656 C181.7313,319.9063 181.9656,320.0156 182.1844,320.0156 C182.45,320.0156 182.7156,319.875 182.8875,319.6563 C182.9969,319.5 183.0281,319.3125 183.0281,318.8906 L183.0281,317.4688 C183.0281,317.0313 183.0125,316.9063 182.9188,316.75 C182.7625,316.4844 182.4813,316.3438 182.1844,316.3438 C181.8875,316.3438 181.6844,316.4375 181.4656,316.75 L181.2938,316.6719 Z " fill="#000000"/><text fill="#000000" font-family="sans-serif" font-size="12" lengthAdjust="spacing" textLength="43" x="196.05" y="325.1543">Results</text><line style="stroke:#A80036;stroke-width:1.5;" x1="151" x2="255" y1="337" y2="337"/><text fill="#000000" font-family="sans-serif" font-size="11" lengthAdjust="spacing" textLength="94" x="156" y="351.2104">-parameterCode</text><text fill="#000000" font-family="sans-serif" font-size="11" lengthAdjust="spacing" textLength="36" x="156" y="364.0151">-result</text><text fill="#000000" font-family="sans-serif" font-size="11" lengthAdjust="spacing" textLength="40" x="156" y="376.8198">-metric</text><!--MD5=[7e4bc624457760b649895ff2ead938fa]
link Company to Test--><path codeLine="74" d="M402.176,498.458 C393.454,440.194 372.047,297.197 361.736,228.314 " fill="none" id="Company-Test" style="stroke:#A80036;stroke-width:1.0;"/><polygon fill="#000000" points="389.2598,339.1215,387.6923,348.502,393.5054,347.6318,389.2598,339.1215" style="stroke:#000000;stroke-width:1.0;"/><text fill="#000000" font-family="sans-serif" font-size="13" lengthAdjust="spacing" textLength="59" x="399" y="348.5669">performs</text><text fill="#000000" font-family="sans-serif" font-size="13" lengthAdjust="spacing" textLength="8" x="392.2689" y="487.2671">1</text><text fill="#000000" font-family="sans-serif" font-size="13" lengthAdjust="spacing" textLength="7" x="355.1203" y="248.4029">*</text><!--MD5=[742a261f27a3dcd734c626287d811acd]
link Company to TestType--><path codeLine="75" d="M391.434,551.635 C377.173,575.396 353.868,610.906 328,637 C316.434,648.668 302.676,659.759 289.271,669.472 " fill="none" id="Company-TestType" style="stroke:#A80036;stroke-width:1.0;"/><polygon fill="#000000" points="344.7247,632.3443,352.8704,627.4353,348.4292,623.5849,344.7247,632.3443" style="stroke:#000000;stroke-width:1.0;"/><text fill="#000000" font-family="sans-serif" font-size="13" lengthAdjust="spacing" textLength="58" x="357" y="633.0669">conducts</text><text fill="#000000" font-family="sans-serif" font-size="13" lengthAdjust="spacing" textLength="8" x="379.3727" y="571.2048">1</text><text fill="#000000" font-family="sans-serif" font-size="13" lengthAdjust="spacing" textLength="8" x="296.9932" y="660.8798">1</text><!--MD5=[12d76240d3c3c66074d4ec2ea8bf469c]
link Company to Parameter--><path codeLine="76" d="M416.283,551.633 C427.609,576.772 448.124,614.509 477,637 C510.264,662.909 527.775,651.535 567,667 C578.942,671.708 591.637,677.242 603.412,682.606 " fill="none" id="Company-Parameter" style="stroke:#A80036;stroke-width:1.0;"/><polygon fill="#000000" points="486.0963,631.4335,480.3712,623.8391,477.0008,628.6547,486.0963,631.4335" style="stroke:#000000;stroke-width:1.0;"/><text fill="#000000" font-family="sans-serif" font-size="13" lengthAdjust="spacing" textLength="132" x="491" y="633.0669">capable of analysing</text><text fill="#000000" font-family="sans-serif" font-size="13" lengthAdjust="spacing" textLength="8" x="409.6574" y="571.2024">1</text><text fill="#000000" font-family="sans-serif" font-size="13" lengthAdjust="spacing" textLength="7" x="588.4292" y="674.7268">*</text><!--MD5=[e981d4f96c4342412d1e68160b30cf70]
link Test to TestType--><path codeLine="77" d="M346.855,228.288 C324.057,323.747 264.895,571.455 242.121,666.81 " fill="none" id="Test-TestType" style="stroke:#A80036;stroke-width:1.0;"/><polygon fill="#000000" points="305.8385,426.4296,310.7982,418.3147,305.0811,416.9493,305.8385,426.4296" style="stroke:#000000;stroke-width:1.0;"/><text fill="#000000" font-family="sans-serif" font-size="13" lengthAdjust="spacing" textLength="54" x="316" y="426.0669">contains</text><text fill="#000000" font-family="sans-serif" font-size="13" lengthAdjust="spacing" textLength="8" x="336.5957" y="248.3724">1</text><text fill="#000000" font-family="sans-serif" font-size="13" lengthAdjust="spacing" textLength="8" x="235.0012" y="655.8279">1</text><!--MD5=[f24c888dadeb846430474fe80a58922b]
link Test to TestParameter--><path codeLine="78" d="M392.172,195.208 C494.049,210.882 776,261.613 776,343 C776,343 776,343 776,1028 C776,1097.361 692.435,1132.8792 632.535,1149.4291 " fill="none" id="Test-TestParameter" style="stroke:#A80036;stroke-width:1.0;"/><polygon fill="#000000" points="782.2213,710.9149,782.8618,701.426,777.162,702.8617,782.2213,710.9149" style="stroke:#000000;stroke-width:1.0;"/><text fill="#000000" font-family="sans-serif" font-size="13" lengthAdjust="spacing" textLength="105" x="790" y="710.5669">request analysis</text><text fill="#000000" font-family="sans-serif" font-size="13" lengthAdjust="spacing" textLength="7" x="399.9824" y="191.9952">*</text><text fill="#000000" font-family="sans-serif" font-size="13" lengthAdjust="spacing" textLength="7" x="640.6114" y="1143.8048">*</text><!--MD5=[c23963f6e403fc3ebec8dae22c30ade6]
link Test to Parameter--><path codeLine="79" d="M392.105,222.113 C415.334,243.976 445.151,274.401 467,305 C558.367,432.954 572.189,473.012 628,620 C633.681,634.963 638.403,651.951 641.997,666.786 " fill="none" id="Test-Parameter" style="stroke:#A80036;stroke-width:1.0;"/><polygon fill="#000000" points="555.4495,425.9253,553.5804,416.6002,548.4562,419.4798,555.4495,425.9253" style="stroke:#000000;stroke-width:1.0;"/><text fill="#000000" font-family="sans-serif" font-size="13" lengthAdjust="spacing" textLength="54" x="562" y="426.0669">contains</text><text fill="#000000" font-family="sans-serif" font-size="13" lengthAdjust="spacing" textLength="7" x="399.9022" y="224.1948">*</text><text fill="#000000" font-family="sans-serif" font-size="13" lengthAdjust="spacing" textLength="7" x="633.0199" y="655.7998">*</text><!--MD5=[71e6920dcc27afae8f25537cd5357b5f]
link TestType to ExternalModule--><path codeLine="80" d="M289.277,706 C329.611,706 383.946,706 425.607,706 " fill="none" id="TestType-ExternalModule" style="stroke:#A80036;stroke-width:1.0;"/><polygon fill="#000000" points="316.5,694.5664,307.4549,691.6275,307.4549,697.5053,316.5,694.5664" style="stroke:#000000;stroke-width:1.0;"/><text fill="#000000" font-family="sans-serif" font-size="13" lengthAdjust="spacing" textLength="87" x="320.5" y="699.0669">makes use of</text><text fill="#000000" font-family="sans-serif" font-size="13" lengthAdjust="spacing" textLength="8" x="297" y="702.0879">1</text><text fill="#000000" font-family="sans-serif" font-size="13" lengthAdjust="spacing" textLength="7" x="410.9881" y="702.2074">*</text><!--MD5=[47cc88f3c536b52a6cee7e6f2da83dc0]
link ExternalModule to ReferenceValue--><path codeLine="81" d="M427.163,726.085 C401.092,736.88 372.083,752.766 352,775 C340.091,788.184 333.652,807.607 330.308,821.972 " fill="none" id="ExternalModule-ReferenceValue" style="stroke:#A80036;stroke-width:1.0;"/><polygon fill="#000000" points="360.5532,780.0487,352.0577,784.3238,356.193,788.5009,360.5532,780.0487" style="stroke:#000000;stroke-width:1.0;"/><text fill="#000000" font-family="sans-serif" font-size="13" lengthAdjust="spacing" textLength="76" x="366" y="788.0669">provided by</text><text fill="#000000" font-family="sans-serif" font-size="13" lengthAdjust="spacing" textLength="8" x="410.0453" y="742.0404">1</text><text fill="#000000" font-family="sans-serif" font-size="13" lengthAdjust="spacing" textLength="7" x="323.2516" y="810.9721">*</text><!--MD5=[166b32c017035243ed8780a05e3f542e]
link TestParameterResult to TestParameter--><path codeLine="82" d="M331.758,1066.311 C340.432,1082.966 352.775,1101.3068 369,1113 C411.108,1143.3477 469.547,1155.0924 513.089,1159.5414 " fill="none" id="TestParameterResult-TestParameter" style="stroke:#A80036;stroke-width:1.0;"/><polygon fill="#000000" points="369.5533,1102.2802,376.2536,1109.0297,378.9413,1103.8023,369.5533,1102.2802" style="stroke:#000000;stroke-width:1.0;"/><text fill="#000000" font-family="sans-serif" font-size="13" lengthAdjust="spacing" textLength="54" x="383" y="1109.0669">contains</text><text fill="#000000" font-family="sans-serif" font-size="13" lengthAdjust="spacing" textLength="8" x="325.7789" y="1086.3994">1</text><text fill="#000000" font-family="sans-serif" font-size="13" lengthAdjust="spacing" textLength="8" x="497.6993" y="1155.3489">1</text><!--MD5=[2fc0f4084f299b8e83a57524f584a65e]
link ReferenceValue to TestParameterResult--><path codeLine="83" d="M317.228,862.016 C313.204,870.88 309.017,881.721 307,892 C300.737,923.918 303.972,960.84 308.214,987.835 " fill="none" id="ReferenceValue-TestParameterResult" style="stroke:#A80036;stroke-width:1.0;"/><polygon fill="#000000" points="312.3573,920.0792,308.7795,928.8911,314.6424,929.3112,312.3573,920.0792" style="stroke:#000000;stroke-width:1.0;"/><text fill="#000000" font-family="sans-serif" font-size="13" lengthAdjust="spacing" textLength="76" x="321" y="929.5669">provided by</text><text fill="#000000" font-family="sans-serif" font-size="13" lengthAdjust="spacing" textLength="8" x="305.1825" y="882.1852">1</text><text fill="#000000" font-family="sans-serif" font-size="13" lengthAdjust="spacing" textLength="7" x="299.2742" y="976.8572">*</text><!--MD5=[7b38da248bc4f4cd3c8485bbdd69e6ec]
link ClinicalChemistryTechnologist to Company--><path codeLine="84" d="M233.035,525 C278.158,525 327.45,525 361.827,525 " fill="none" id="ClinicalChemistryTechnologist-Company" style="stroke:#A80036;stroke-width:1.0;"/><polygon fill="#000000" points="271.5,513.5664,262.4549,510.6275,262.4549,516.5053,271.5,513.5664" style="stroke:#000000;stroke-width:1.0;"/><text fill="#000000" font-family="sans-serif" font-size="13" lengthAdjust="spacing" textLength="57" x="275.5" y="518.0669">is part of</text><text fill="#000000" font-family="sans-serif" font-size="13" lengthAdjust="spacing" textLength="7" x="240.8647" y="521.5798">*</text><text fill="#000000" font-family="sans-serif" font-size="13" lengthAdjust="spacing" textLength="8" x="346.1494" y="520.8977">1</text><!--MD5=[70072a90c7152f1cad78c1f29461c533]
link Results to ClinicalChemistryTechnologist--><path codeLine="85" d="M185.194,383.4 C174.858,405.692 161.572,434.344 149.694,459.96 " fill="none" id="Results-ClinicalChemistryTechnologist" style="stroke:#A80036;stroke-width:1.0;"/><polygon fill="#000000" points="179.1033,417.0303,172.6321,423.9999,177.9646,426.4725,179.1033,417.0303" style="stroke:#000000;stroke-width:1.0;"/><text fill="#000000" font-family="sans-serif" font-size="13" lengthAdjust="spacing" textLength="47" x="186" y="426.0669">defines</text><text fill="#000000" font-family="sans-serif" font-size="13" lengthAdjust="spacing" textLength="8" x="173.4461" y="403.5037">1</text><text fill="#000000" font-family="sans-serif" font-size="13" lengthAdjust="spacing" textLength="7" x="145.559" y="449.1202">*</text><!--MD5=[d26d10da823f6089ca18e653f1cb3d9f]
link Sample to ClinicalChemistryTechnologist--><path codeLine="86" d="M169.422,73.35 C159.603,122.97 141.279,220.943 132,305 C126.276,356.852 123.242,415.926 121.658,459.642 " fill="none" id="Sample-ClinicalChemistryTechnologist" style="stroke:#A80036;stroke-width:1.0;"/><polygon fill="#000000" points="143.6136,261.6042,139.5869,270.2203,145.4203,270.9416,143.6136,261.6042" style="stroke:#000000;stroke-width:1.0;"/><text fill="#000000" font-family="sans-serif" font-size="13" lengthAdjust="spacing" textLength="54" x="152" y="271.0669">receives</text><text fill="#000000" font-family="sans-serif" font-size="13" lengthAdjust="spacing" textLength="7" x="160.6269" y="92.7399">*</text><text fill="#000000" font-family="sans-serif" font-size="13" lengthAdjust="spacing" textLength="23" x="97.5813" y="448.7674">1..*</text><!--MD5=[5e46a666aba77653d8b8c001b9c80f12]
link Test to Results--><path codeLine="87" d="M319.534,209.342 C298.961,221.456 273.711,238.456 255,258 C241.96,271.62 230.597,289.052 221.848,304.58 " fill="none" id="Test-Results" style="stroke:#A80036;stroke-width:1.0;"/><polygon fill="#000000" points="263.5801,263.076,255.052,267.2859,259.1552,271.4945,263.5801,263.076" style="stroke:#000000;stroke-width:1.0;"/><text fill="#000000" font-family="sans-serif" font-size="13" lengthAdjust="spacing" textLength="13" x="269" y="271.0669">to</text><text fill="#000000" font-family="sans-serif" font-size="13" lengthAdjust="spacing" textLength="8" x="304.0731" y="208.7507">1</text><text fill="#000000" font-family="sans-serif" font-size="13" lengthAdjust="spacing" textLength="7" x="217.39" y="293.8525">*</text><!--MD5=[1ae83efc6d1967ce5bc17dfe294d00c2]
link Sample to Test--><path codeLine="88" d="M214.615,72.54 C245.811,98.01 289.396,133.61 319.901,158.52 " fill="none" id="Sample-Test" style="stroke:#A80036;stroke-width:1.0;"/><polygon fill="#000000" points="280.8727,114.729,275.7258,106.7315,272.008,111.2841,280.8727,114.729" style="stroke:#000000;stroke-width:1.0;"/><text fill="#000000" font-family="sans-serif" font-size="13" lengthAdjust="spacing" textLength="100" x="286" y="116.0669">is associated to</text><text fill="#000000" font-family="sans-serif" font-size="13" lengthAdjust="spacing" textLength="7" x="214.8575" y="92.9191">*</text><text fill="#000000" font-family="sans-serif" font-size="13" lengthAdjust="spacing" textLength="23" x="289.0174" y="149.2732">1..*</text><!--MD5=[dab4a90b4cb7e97efbac2bbfae23b642]
link Parameter to TestParameter--><path codeLine="89" d="M654.884,745.073 C664.56,825.175 683.379,1008.467 661,1066 C648.623,1097.8179 620.231,1125.5005 599.022,1142.8563 " fill="none" id="Parameter-TestParameter" style="stroke:#A80036;stroke-width:1.0;"/><polygon fill="#000000" points="675.3047,930.0178,679.4729,921.4693,673.6522,920.6519,675.3047,930.0178" style="stroke:#000000;stroke-width:1.0;"/><text fill="#000000" font-family="sans-serif" font-size="13" lengthAdjust="spacing" textLength="55" x="685" y="929.5669">refers to</text><text fill="#000000" font-family="sans-serif" font-size="13" lengthAdjust="spacing" textLength="8" x="647.0415" y="765.4107">1</text><text fill="#000000" font-family="sans-serif" font-size="13" lengthAdjust="spacing" textLength="8" x="597.491" y="1131.8224">1</text><!--MD5=[a10cd1da086ee972f8187534636efdec]
link ResultsValidation to TestParameter--><path codeLine="90" d="M478.449,958.129 C476.5,987.359 476.849,1031.133 491,1066 C503.612,1097.0743 530.439,1125.2956 549.984,1142.9746 " fill="none" id="ResultsValidation-TestParameter" style="stroke:#A80036;stroke-width:1.0;"/><polygon fill="#000000" points="497.8046,1031.7294,497.2809,1022.2333,491.7992,1024.3547,497.8046,1031.7294" style="stroke:#000000;stroke-width:1.0;"/><text fill="#000000" font-family="sans-serif" font-size="13" lengthAdjust="spacing" textLength="151" x="505" y="1031.5669">which are performed to</text><text fill="#000000" font-family="sans-serif" font-size="13" lengthAdjust="spacing" textLength="8" x="469.0568" y="977.7351">1</text><text fill="#000000" font-family="sans-serif" font-size="13" lengthAdjust="spacing" textLength="16" x="524.8731" y="1131.9754">1..</text><!--MD5=[fdb8d4445d1079c347659737791b9172]
link ExternalModule to ResultsValidation--><path codeLine="91" d="M487.468,726.257 C486.435,763.599 484.151,846.19 482.887,891.937 " fill="none" id="ExternalModule-ResultsValidation" style="stroke:#A80036;stroke-width:1.0;"/><text fill="#000000" font-family="sans-serif" font-size="13" lengthAdjust="spacing" textLength="128" x="488" y="788.0669">is used to perform&gt;</text><text fill="#000000" font-family="sans-serif" font-size="13" lengthAdjust="spacing" textLength="8" x="478.1934" y="746.1492">1</text><text fill="#000000" font-family="sans-serif" font-size="13" lengthAdjust="spacing" textLength="7" x="475.3481" y="880.6918">*</text><!--MD5=[2988be767088a4594dba912f7da786b1]
@startuml
hide methods
skinparam classAttributeIconSize 0

class Company {
-designation
}


class ReferenceValue {

}

class TestParameterResult {
  -createdAt
  -value
  -metric 
}

class TestParameter {
  
}

class Parameter {
  -code
  -shortName
  -description
}


class Test {
  -code
  -NHScode
  -createdAt
}

class ClinicalChemistryTechnologist {
  -employee
  -organizationRole
  -name
  -address
  -phoneNumber
  -email
  -standardOcupationClassificationCode
}


class TestType {
  -code
  -description
  -collectionMethod

}

class Sample {
-barcode
-date
}

class ExternalModule {

}

class ResultsValidation {
-param
-isValid
}

class Results {
-parameterCode
-result
-metric
}

Company "1" -d- "*" Test :> performs
Company "1" -d- "1" TestType :> conducts
Company "1" -d- "*" Parameter :> capable of analysing
Test "1" -r- "1" TestType :> contains
Test "*" -d- "*" TestParameter :> request analysis
Test "*" -d- "*" Parameter :> contains
TestType "1" -r- "*" ExternalModule :> makes use of
ReferenceValue "*" -u- "1" ExternalModule :> provided by
TestParameter "1" -u- "1" TestParameterResult:> contains
TestParameterResult "*" -u- "1" ReferenceValue:> provided by
ClinicalChemistryTechnologist "*" -r- "1" Company :> is part of
ClinicalChemistryTechnologist "*" -u- "1" Results :> defines
ClinicalChemistryTechnologist "1..*" -u- "*" Sample :> receives
Results "*" -u- "1" Test :> to
Sample "*" - - "1..*" Test: is associated to >
Parameter"1" - - "1" TestParameter: refers to >
ResultsValidation "1" - - "1.." TestParameter: which are performed to >
ExternalModule "1" - - "*" ResultsValidation : is used to perform>
@enduml

PlantUML version 1.2021.7(Sun May 23 12:40:07 UTC 2021)
(GPL source distribution)
Java Runtime: Java(TM) SE Runtime Environment
JVM: Java HotSpot(TM) 64-Bit Server VM
Default Encoding: UTF-8
Language: en
Country: US
--></g></svg>