<?xml version="1.0" encoding="UTF-8" standalone="no"?><svg xmlns="http://www.w3.org/2000/svg" xmlns:xlink="http://www.w3.org/1999/xlink" contentScriptType="application/ecmascript" contentStyleType="text/css" height="1151px" preserveAspectRatio="none" style="width:1930px;height:1151px;background:#FFFFFF;" version="1.1" viewBox="0 0 1930 1151" width="1930px" zoomAndPan="magnify"><defs><filter height="300%" id="f3nw0a6q3zsbd" width="300%" x="-1" y="-1"><feGaussianBlur result="blurOut" stdDeviation="2.0"/><feColorMatrix in="blurOut" result="blurOut2" type="matrix" values="0 0 0 0 0 0 0 0 0 0 0 0 0 0 0 0 0 0 .4 0"/><feOffset dx="4.0" dy="4.0" in="blurOut2" result="blurOut3"/><feBlend in="SourceGraphic" in2="blurOut3" mode="normal"/></filter></defs><g><!--MD5=[1f6362a5c8f21d8d6a0fce68f3a92a4e]
class Parameter--><rect codeLine="3" fill="#FEFECE" filter="url(#f3nw0a6q3zsbd)" height="137.6328" id="Parameter" style="stroke:#A80036;stroke-width:1.5;" width="188" x="7" y="993"/><ellipse cx="66.25" cy="1009" fill="#ADD1B2" rx="11" ry="11" style="stroke:#A80036;stroke-width:1.0;"/><path d="M68.5938,1004.6719 C67.6563,1004.2344 67.0625,1004.0938 66.1875,1004.0938 C63.5625,1004.0938 61.5625,1006.1719 61.5625,1008.8906 L61.5625,1010.0156 C61.5625,1012.5938 63.6719,1014.4844 66.5625,1014.4844 C67.7813,1014.4844 68.9375,1014.1875 69.6875,1013.6406 C70.2656,1013.2344 70.5938,1012.7813 70.5938,1012.3906 C70.5938,1011.9375 70.2031,1011.5469 69.7344,1011.5469 C69.5156,1011.5469 69.3125,1011.625 69.125,1011.8125 C68.6719,1012.2969 68.6719,1012.2969 68.4844,1012.3906 C68.0625,1012.6563 67.375,1012.7813 66.6094,1012.7813 C64.5625,1012.7813 63.2656,1011.6875 63.2656,1009.9844 L63.2656,1008.8906 C63.2656,1007.1094 64.5156,1005.7969 66.25,1005.7969 C66.8281,1005.7969 67.4375,1005.9531 67.9063,1006.2031 C68.3906,1006.4844 68.5625,1006.7031 68.6563,1007.1094 C68.7188,1007.5156 68.75,1007.6406 68.8906,1007.7656 C69.0313,1007.9063 69.2656,1008.0156 69.4844,1008.0156 C69.75,1008.0156 70.0156,1007.875 70.1875,1007.6563 C70.2969,1007.5 70.3281,1007.3125 70.3281,1006.8906 L70.3281,1005.4688 C70.3281,1005.0313 70.3125,1004.9063 70.2188,1004.75 C70.0625,1004.4844 69.7813,1004.3438 69.4844,1004.3438 C69.1875,1004.3438 68.9844,1004.4375 68.7656,1004.75 L68.5938,1004.6719 Z " fill="#000000"/><text fill="#000000" font-family="sans-serif" font-size="12" lengthAdjust="spacing" textLength="61" x="86.75" y="1013.1543">Parameter</text><line style="stroke:#A80036;stroke-width:1.5;" x1="8" x2="194" y1="1025" y2="1025"/><text fill="#000000" font-family="sans-serif" font-size="11" lengthAdjust="spacing" textLength="76" x="13" y="1039.2104">-code : String</text><text fill="#000000" font-family="sans-serif" font-size="11" lengthAdjust="spacing" textLength="110" x="13" y="1052.0151">-shortName : String</text><text fill="#000000" font-family="sans-serif" font-size="11" lengthAdjust="spacing" textLength="110" x="13" y="1064.8198">-description : String</text><text fill="#000000" font-family="sans-serif" font-size="11" lengthAdjust="spacing" textLength="132" x="13" y="1077.6245">-testResult : TestResult</text><text fill="#000000" font-family="sans-serif" font-size="11" lengthAdjust="spacing" textLength="176" x="13" y="1090.4292">-pc : List&lt;ParameterCategory&gt;</text><line style="stroke:#A80036;stroke-width:1.5;" x1="8" x2="194" y1="1097.0234" y2="1097.0234"/><text fill="#000000" font-family="sans-serif" font-size="11" lengthAdjust="spacing" textLength="96" x="13" y="1111.2339">+getTestResult()</text><text fill="#000000" font-family="sans-serif" font-size="11" lengthAdjust="spacing" textLength="152" x="13" y="1124.0386">+setTestResult(testResult)</text><!--MD5=[62bdb6435f21fcc181756dc3392fb99a]
class RecordTestResultUI--><rect codeLine="15" fill="#FEFECE" filter="url(#f3nw0a6q3zsbd)" height="48" id="RecordTestResultUI" style="stroke:#A80036;stroke-width:1.5;" width="149" x="374.5" y="7"/><ellipse cx="389.5" cy="23" fill="#ADD1B2" rx="11" ry="11" style="stroke:#A80036;stroke-width:1.0;"/><path d="M391.8438,18.6719 C390.9063,18.2344 390.3125,18.0938 389.4375,18.0938 C386.8125,18.0938 384.8125,20.1719 384.8125,22.8906 L384.8125,24.0156 C384.8125,26.5938 386.9219,28.4844 389.8125,28.4844 C391.0313,28.4844 392.1875,28.1875 392.9375,27.6406 C393.5156,27.2344 393.8438,26.7813 393.8438,26.3906 C393.8438,25.9375 393.4531,25.5469 392.9844,25.5469 C392.7656,25.5469 392.5625,25.625 392.375,25.8125 C391.9219,26.2969 391.9219,26.2969 391.7344,26.3906 C391.3125,26.6563 390.625,26.7813 389.8594,26.7813 C387.8125,26.7813 386.5156,25.6875 386.5156,23.9844 L386.5156,22.8906 C386.5156,21.1094 387.7656,19.7969 389.5,19.7969 C390.0781,19.7969 390.6875,19.9531 391.1563,20.2031 C391.6406,20.4844 391.8125,20.7031 391.9063,21.1094 C391.9688,21.5156 392,21.6406 392.1406,21.7656 C392.2813,21.9063 392.5156,22.0156 392.7344,22.0156 C393,22.0156 393.2656,21.875 393.4375,21.6563 C393.5469,21.5 393.5781,21.3125 393.5781,20.8906 L393.5781,19.4688 C393.5781,19.0313 393.5625,18.9063 393.4688,18.75 C393.3125,18.4844 393.0313,18.3438 392.7344,18.3438 C392.4375,18.3438 392.2344,18.4375 392.0156,18.75 L391.8438,18.6719 Z " fill="#000000"/><text fill="#000000" font-family="sans-serif" font-size="12" lengthAdjust="spacing" textLength="117" x="403.5" y="27.1543">RecordTestResultUI</text><line style="stroke:#A80036;stroke-width:1.5;" x1="375.5" x2="522.5" y1="39" y2="39"/><line style="stroke:#A80036;stroke-width:1.5;" x1="375.5" x2="522.5" y1="47" y2="47"/><!--MD5=[ef30bcd9a8851b2fb15fb683dae6a22f]
class RecordTestResultController--><rect codeLine="18" fill="#FEFECE" filter="url(#f3nw0a6q3zsbd)" height="176.0469" id="RecordTestResultController" style="stroke:#A80036;stroke-width:1.5;" width="310" x="294" y="116"/><ellipse cx="362.75" cy="132" fill="#ADD1B2" rx="11" ry="11" style="stroke:#A80036;stroke-width:1.0;"/><path d="M365.0938,127.6719 C364.1563,127.2344 363.5625,127.0938 362.6875,127.0938 C360.0625,127.0938 358.0625,129.1719 358.0625,131.8906 L358.0625,133.0156 C358.0625,135.5938 360.1719,137.4844 363.0625,137.4844 C364.2813,137.4844 365.4375,137.1875 366.1875,136.6406 C366.7656,136.2344 367.0938,135.7813 367.0938,135.3906 C367.0938,134.9375 366.7031,134.5469 366.2344,134.5469 C366.0156,134.5469 365.8125,134.625 365.625,134.8125 C365.1719,135.2969 365.1719,135.2969 364.9844,135.3906 C364.5625,135.6563 363.875,135.7813 363.1094,135.7813 C361.0625,135.7813 359.7656,134.6875 359.7656,132.9844 L359.7656,131.8906 C359.7656,130.1094 361.0156,128.7969 362.75,128.7969 C363.3281,128.7969 363.9375,128.9531 364.4063,129.2031 C364.8906,129.4844 365.0625,129.7031 365.1563,130.1094 C365.2188,130.5156 365.25,130.6406 365.3906,130.7656 C365.5313,130.9063 365.7656,131.0156 365.9844,131.0156 C366.25,131.0156 366.5156,130.875 366.6875,130.6563 C366.7969,130.5 366.8281,130.3125 366.8281,129.8906 L366.8281,128.4688 C366.8281,128.0313 366.8125,127.9063 366.7188,127.75 C366.5625,127.4844 366.2813,127.3438 365.9844,127.3438 C365.6875,127.3438 365.4844,127.4375 365.2656,127.75 L365.0938,127.6719 Z " fill="#000000"/><text fill="#000000" font-family="sans-serif" font-size="12" lengthAdjust="spacing" textLength="164" x="383.25" y="136.1543">RecordTestResultController</text><line style="stroke:#A80036;stroke-width:1.5;" x1="295" x2="603" y1="148" y2="148"/><line style="stroke:#A80036;stroke-width:1.5;" x1="295" x2="603" y1="156" y2="156"/><text fill="#000000" font-family="sans-serif" font-size="11" lengthAdjust="spacing" textLength="118" x="300" y="170.2104">+testExists(barcode)</text><text fill="#000000" font-family="sans-serif" font-size="11" lengthAdjust="spacing" textLength="169" x="300" y="183.0151">+getTestByBarcode(barcode)</text><text fill="#000000" font-family="sans-serif" font-size="11" lengthAdjust="spacing" textLength="248" x="300" y="195.8198">+addTestResult(parameterCode,result,test)</text><text fill="#000000" font-family="sans-serif" font-size="11" lengthAdjust="spacing" textLength="248" x="300" y="208.6245">+saveTestResult(parameterCode, barcode)</text><text fill="#000000" font-family="sans-serif" font-size="11" lengthAdjust="spacing" textLength="217" x="300" y="221.4292">+getParameterStoreToShow(barcode)</text><text fill="#000000" font-family="sans-serif" font-size="11" lengthAdjust="spacing" textLength="298" x="300" y="234.2339">+getValidatedParameters(parameterCode, barcode)</text><text fill="#000000" font-family="sans-serif" font-size="11" lengthAdjust="spacing" textLength="248" x="300" y="247.0386">+hasTestPassedSampleCollection(barcode)</text><text fill="#000000" font-family="sans-serif" font-size="11" lengthAdjust="spacing" textLength="86" x="300" y="259.8433">+getDate(test)</text><text fill="#000000" font-family="sans-serif" font-size="11" lengthAdjust="spacing" textLength="157" x="300" y="272.6479">+setChemicalAnalysis(test)</text><text fill="#000000" font-family="sans-serif" font-size="11" lengthAdjust="spacing" textLength="140" x="300" y="285.4526">+initializeValidationList()</text><!--MD5=[dfd2424fdb364517a846a876920b2fe2]
class TestParam--><rect codeLine="32" fill="#FEFECE" filter="url(#f3nw0a6q3zsbd)" height="86.4141" id="TestParam" style="stroke:#A80036;stroke-width:1.5;" width="362" x="287" y="1019"/><ellipse cx="432.75" cy="1035" fill="#ADD1B2" rx="11" ry="11" style="stroke:#A80036;stroke-width:1.0;"/><path d="M435.0938,1030.6719 C434.1563,1030.2344 433.5625,1030.0938 432.6875,1030.0938 C430.0625,1030.0938 428.0625,1032.1719 428.0625,1034.8906 L428.0625,1036.0156 C428.0625,1038.5938 430.1719,1040.4844 433.0625,1040.4844 C434.2813,1040.4844 435.4375,1040.1875 436.1875,1039.6406 C436.7656,1039.2344 437.0938,1038.7813 437.0938,1038.3906 C437.0938,1037.9375 436.7031,1037.5469 436.2344,1037.5469 C436.0156,1037.5469 435.8125,1037.625 435.625,1037.8125 C435.1719,1038.2969 435.1719,1038.2969 434.9844,1038.3906 C434.5625,1038.6563 433.875,1038.7813 433.1094,1038.7813 C431.0625,1038.7813 429.7656,1037.6875 429.7656,1035.9844 L429.7656,1034.8906 C429.7656,1033.1094 431.0156,1031.7969 432.75,1031.7969 C433.3281,1031.7969 433.9375,1031.9531 434.4063,1032.2031 C434.8906,1032.4844 435.0625,1032.7031 435.1563,1033.1094 C435.2188,1033.5156 435.25,1033.6406 435.3906,1033.7656 C435.5313,1033.9063 435.7656,1034.0156 435.9844,1034.0156 C436.25,1034.0156 436.5156,1033.875 436.6875,1033.6563 C436.7969,1033.5 436.8281,1033.3125 436.8281,1032.8906 L436.8281,1031.4688 C436.8281,1031.0313 436.8125,1030.9063 436.7188,1030.75 C436.5625,1030.4844 436.2813,1030.3438 435.9844,1030.3438 C435.6875,1030.3438 435.4844,1030.4375 435.2656,1030.75 L435.0938,1030.6719 Z " fill="#000000"/><text fill="#000000" font-family="sans-serif" font-size="12" lengthAdjust="spacing" textLength="62" x="453.25" y="1039.1543">TestParam</text><line style="stroke:#A80036;stroke-width:1.5;" x1="288" x2="648" y1="1051" y2="1051"/><text fill="#000000" font-family="sans-serif" font-size="11" lengthAdjust="spacing" textLength="229" x="293" y="1065.2104">-parametersSelected : List&lt;Parameter&gt;</text><line style="stroke:#A80036;stroke-width:1.5;" x1="288" x2="648" y1="1071.8047" y2="1071.8047"/><text fill="#000000" font-family="sans-serif" font-size="11" lengthAdjust="spacing" textLength="281" x="293" y="1086.0151">+findParameterInTestParameter(parameterCode)</text><text fill="#000000" font-family="sans-serif" font-size="11" lengthAdjust="spacing" textLength="350" x="293" y="1098.8198">+findParameterInTestParameter(parameterCode,parameters)</text><!--MD5=[df38be88ccee13e832d6fafd6288a4ca]
class Test--><rect codeLine="38" fill="#FEFECE" filter="url(#f3nw0a6q3zsbd)" height="240.0703" id="Test" style="stroke:#A80036;stroke-width:1.5;" width="280" x="328" y="670"/><ellipse cx="450.75" cy="686" fill="#ADD1B2" rx="11" ry="11" style="stroke:#A80036;stroke-width:1.0;"/><path d="M453.0938,681.6719 C452.1563,681.2344 451.5625,681.0938 450.6875,681.0938 C448.0625,681.0938 446.0625,683.1719 446.0625,685.8906 L446.0625,687.0156 C446.0625,689.5938 448.1719,691.4844 451.0625,691.4844 C452.2813,691.4844 453.4375,691.1875 454.1875,690.6406 C454.7656,690.2344 455.0938,689.7813 455.0938,689.3906 C455.0938,688.9375 454.7031,688.5469 454.2344,688.5469 C454.0156,688.5469 453.8125,688.625 453.625,688.8125 C453.1719,689.2969 453.1719,689.2969 452.9844,689.3906 C452.5625,689.6563 451.875,689.7813 451.1094,689.7813 C449.0625,689.7813 447.7656,688.6875 447.7656,686.9844 L447.7656,685.8906 C447.7656,684.1094 449.0156,682.7969 450.75,682.7969 C451.3281,682.7969 451.9375,682.9531 452.4063,683.2031 C452.8906,683.4844 453.0625,683.7031 453.1563,684.1094 C453.2188,684.5156 453.25,684.6406 453.3906,684.7656 C453.5313,684.9063 453.7656,685.0156 453.9844,685.0156 C454.25,685.0156 454.5156,684.875 454.6875,684.6563 C454.7969,684.5 454.8281,684.3125 454.8281,683.8906 L454.8281,682.4688 C454.8281,682.0313 454.8125,681.9063 454.7188,681.75 C454.5625,681.4844 454.2813,681.3438 453.9844,681.3438 C453.6875,681.3438 453.4844,681.4375 453.2656,681.75 L453.0938,681.6719 Z " fill="#000000"/><text fill="#000000" font-family="sans-serif" font-size="12" lengthAdjust="spacing" textLength="26" x="471.25" y="690.1543">Test</text><line style="stroke:#A80036;stroke-width:1.5;" x1="329" x2="607" y1="702" y2="702"/><text fill="#000000" font-family="sans-serif" font-size="11" lengthAdjust="spacing" textLength="116" x="334" y="716.2104">-TestType testType;</text><text fill="#000000" font-family="sans-serif" font-size="11" lengthAdjust="spacing" textLength="171" x="334" y="729.0151">-List &lt;Parameter&gt; parameter;</text><text fill="#000000" font-family="sans-serif" font-size="11" lengthAdjust="spacing" textLength="131" x="334" y="741.8198">-Date registrationDate;</text><text fill="#000000" font-family="sans-serif" font-size="11" lengthAdjust="spacing" textLength="171" x="334" y="754.6245">-Date samplesCollectionDate;</text><text fill="#000000" font-family="sans-serif" font-size="11" lengthAdjust="spacing" textLength="165" x="334" y="767.4292">-Date chemicalAnalysisDate;</text><line style="stroke:#A80036;stroke-width:1.5;" x1="329" x2="607" y1="774.0234" y2="774.0234"/><text fill="#000000" font-family="sans-serif" font-size="11" lengthAdjust="spacing" textLength="268" x="334" y="788.2339">+addTestResults(parameterCode,result,metric)</text><text fill="#000000" font-family="sans-serif" font-size="11" lengthAdjust="spacing" textLength="222" x="334" y="801.0386">-getTestParameterFor(parameterCode)</text><text fill="#000000" font-family="sans-serif" font-size="11" lengthAdjust="spacing" textLength="90" x="334" y="813.8433">+getTestType()</text><text fill="#000000" font-family="sans-serif" font-size="11" lengthAdjust="spacing" textLength="95" x="334" y="826.6479">+getParameter()</text><text fill="#000000" font-family="sans-serif" font-size="11" lengthAdjust="spacing" textLength="164" x="334" y="839.4526">+getChemicalAnalysisDate()</text><text fill="#000000" font-family="sans-serif" font-size="11" lengthAdjust="spacing" textLength="197" x="334" y="852.2573">+addTestResult(parameter, result)</text><text fill="#000000" font-family="sans-serif" font-size="11" lengthAdjust="spacing" textLength="96" x="334" y="865.062">+getTestResult()</text><text fill="#000000" font-family="sans-serif" font-size="11" lengthAdjust="spacing" textLength="171" x="334" y="877.8667">+getParameterStoreToShow()</text><text fill="#000000" font-family="sans-serif" font-size="11" lengthAdjust="spacing" textLength="64" x="334" y="890.6714">+getDate()</text><text fill="#000000" font-family="sans-serif" font-size="11" lengthAdjust="spacing" textLength="215" x="334" y="903.4761">+setChemicalAnalysisDate(newDate)</text><!--MD5=[8f188b89eff49accb0f38c057b38a9f2]
class ExternalModule--><rect codeLine="57" fill="#FEFECE" filter="url(#f3nw0a6q3zsbd)" height="73.6094" id="ExternalModule" style="stroke:#A80036;stroke-width:1.5;" width="337" x="1207.5" y="753"/><ellipse cx="1325.25" cy="769" fill="#B4A7E5" rx="11" ry="11" style="stroke:#A80036;stroke-width:1.0;"/><path d="M1326.2031,765.7813 L1327.9219,765.7813 C1328.3125,765.7813 1328.5,765.75 1328.625,765.6719 C1328.8906,765.5156 1329.0313,765.2344 1329.0313,764.9375 C1329.0313,764.6719 1328.9219,764.4063 1328.6875,764.2344 C1328.5156,764.125 1328.375,764.0938 1327.9219,764.0938 L1322.7813,764.0938 C1322.3438,764.0938 1322.2188,764.1094 1322.0625,764.2031 C1321.8125,764.3594 1321.6563,764.6563 1321.6563,764.9375 C1321.6563,765.2188 1321.7969,765.4688 1322.0156,765.6406 C1322.1719,765.75 1322.3594,765.7813 1322.7813,765.7813 L1324.5,765.7813 L1324.5,772.2969 L1322.7813,772.2969 C1322.3438,772.2969 1322.2188,772.3125 1322.0625,772.4219 C1321.8125,772.5781 1321.6563,772.8594 1321.6563,773.1563 C1321.6563,773.4063 1321.7969,773.6719 1322.0156,773.8281 C1322.1719,773.9531 1322.375,774 1322.7813,774 L1327.9219,774 C1328.6719,774 1329.0313,773.7188 1329.0313,773.1563 C1329.0313,772.875 1328.9219,772.625 1328.6875,772.4531 C1328.5156,772.3281 1328.375,772.2969 1327.9219,772.2969 L1326.2031,772.2969 L1326.2031,765.7813 Z " fill="#000000"/><text fill="#000000" font-family="sans-serif" font-size="12" font-style="italic" lengthAdjust="spacing" textLength="93" x="1345.75" y="773.1543">ExternalModule</text><line style="stroke:#A80036;stroke-width:1.5;" x1="1208.5" x2="1543.5" y1="785" y2="785"/><line style="stroke:#A80036;stroke-width:1.5;" x1="1208.5" x2="1543.5" y1="793" y2="793"/><text fill="#000000" font-family="sans-serif" font-size="11" lengthAdjust="spacing" textLength="325" x="1213.5" y="807.2104">+ReferenceValue getReferenceValue(Parameter param)</text><text fill="#000000" font-family="sans-serif" font-size="11" lengthAdjust="spacing" textLength="180" x="1213.5" y="820.0151">+getMetricFor(parameterCode);</text><!--MD5=[0f11f0f60ee567100a99d4d7b98e8e2f]
class ExternalModuleAdapter1--><rect codeLine="62" fill="#FEFECE" filter="url(#f3nw0a6q3zsbd)" height="73.6094" id="ExternalModuleAdapter1" style="stroke:#A80036;stroke-width:1.5;" width="337" x="835.5" y="436"/><ellipse cx="926.25" cy="452" fill="#ADD1B2" rx="11" ry="11" style="stroke:#A80036;stroke-width:1.0;"/><path d="M928.5938,447.6719 C927.6563,447.2344 927.0625,447.0938 926.1875,447.0938 C923.5625,447.0938 921.5625,449.1719 921.5625,451.8906 L921.5625,453.0156 C921.5625,455.5938 923.6719,457.4844 926.5625,457.4844 C927.7813,457.4844 928.9375,457.1875 929.6875,456.6406 C930.2656,456.2344 930.5938,455.7813 930.5938,455.3906 C930.5938,454.9375 930.2031,454.5469 929.7344,454.5469 C929.5156,454.5469 929.3125,454.625 929.125,454.8125 C928.6719,455.2969 928.6719,455.2969 928.4844,455.3906 C928.0625,455.6563 927.375,455.7813 926.6094,455.7813 C924.5625,455.7813 923.2656,454.6875 923.2656,452.9844 L923.2656,451.8906 C923.2656,450.1094 924.5156,448.7969 926.25,448.7969 C926.8281,448.7969 927.4375,448.9531 927.9063,449.2031 C928.3906,449.4844 928.5625,449.7031 928.6563,450.1094 C928.7188,450.5156 928.75,450.6406 928.8906,450.7656 C929.0313,450.9063 929.2656,451.0156 929.4844,451.0156 C929.75,451.0156 930.0156,450.875 930.1875,450.6563 C930.2969,450.5 930.3281,450.3125 930.3281,449.8906 L930.3281,448.4688 C930.3281,448.0313 930.3125,447.9063 930.2188,447.75 C930.0625,447.4844 929.7813,447.3438 929.4844,447.3438 C929.1875,447.3438 928.9844,447.4375 928.7656,447.75 L928.5938,447.6719 Z " fill="#000000"/><text fill="#000000" font-family="sans-serif" font-size="12" lengthAdjust="spacing" textLength="147" x="946.75" y="456.1543">ExternalModuleAdapter1</text><line style="stroke:#A80036;stroke-width:1.5;" x1="836.5" x2="1171.5" y1="468" y2="468"/><line style="stroke:#A80036;stroke-width:1.5;" x1="836.5" x2="1171.5" y1="476" y2="476"/><text fill="#000000" font-family="sans-serif" font-size="11" lengthAdjust="spacing" textLength="325" x="841.5" y="490.2104">+ReferenceValue getReferenceValue(Parameter param)</text><text fill="#000000" font-family="sans-serif" font-size="11" lengthAdjust="spacing" textLength="177" x="841.5" y="503.0151">+getMetricFor(parameterCode)</text><!--MD5=[2191233c03d1d98f88ead7aa4dd76da0]
class ExternalModuleAdapter2--><rect codeLine="67" fill="#FEFECE" filter="url(#f3nw0a6q3zsbd)" height="73.6094" id="ExternalModuleAdapter2" style="stroke:#A80036;stroke-width:1.5;" width="337" x="1207.5" y="436"/><ellipse cx="1297.75" cy="452" fill="#ADD1B2" rx="11" ry="11" style="stroke:#A80036;stroke-width:1.0;"/><path d="M1300.0938,447.6719 C1299.1563,447.2344 1298.5625,447.0938 1297.6875,447.0938 C1295.0625,447.0938 1293.0625,449.1719 1293.0625,451.8906 L1293.0625,453.0156 C1293.0625,455.5938 1295.1719,457.4844 1298.0625,457.4844 C1299.2813,457.4844 1300.4375,457.1875 1301.1875,456.6406 C1301.7656,456.2344 1302.0938,455.7813 1302.0938,455.3906 C1302.0938,454.9375 1301.7031,454.5469 1301.2344,454.5469 C1301.0156,454.5469 1300.8125,454.625 1300.625,454.8125 C1300.1719,455.2969 1300.1719,455.2969 1299.9844,455.3906 C1299.5625,455.6563 1298.875,455.7813 1298.1094,455.7813 C1296.0625,455.7813 1294.7656,454.6875 1294.7656,452.9844 L1294.7656,451.8906 C1294.7656,450.1094 1296.0156,448.7969 1297.75,448.7969 C1298.3281,448.7969 1298.9375,448.9531 1299.4063,449.2031 C1299.8906,449.4844 1300.0625,449.7031 1300.1563,450.1094 C1300.2188,450.5156 1300.25,450.6406 1300.3906,450.7656 C1300.5313,450.9063 1300.7656,451.0156 1300.9844,451.0156 C1301.25,451.0156 1301.5156,450.875 1301.6875,450.6563 C1301.7969,450.5 1301.8281,450.3125 1301.8281,449.8906 L1301.8281,448.4688 C1301.8281,448.0313 1301.8125,447.9063 1301.7188,447.75 C1301.5625,447.4844 1301.2813,447.3438 1300.9844,447.3438 C1300.6875,447.3438 1300.4844,447.4375 1300.2656,447.75 L1300.0938,447.6719 Z " fill="#000000"/><text fill="#000000" font-family="sans-serif" font-size="12" lengthAdjust="spacing" textLength="148" x="1318.25" y="456.1543">ExternalModuleAdapter2</text><line style="stroke:#A80036;stroke-width:1.5;" x1="1208.5" x2="1543.5" y1="468" y2="468"/><line style="stroke:#A80036;stroke-width:1.5;" x1="1208.5" x2="1543.5" y1="476" y2="476"/><text fill="#000000" font-family="sans-serif" font-size="11" lengthAdjust="spacing" textLength="325" x="1213.5" y="490.2104">+ReferenceValue getReferenceValue(Parameter param)</text><text fill="#000000" font-family="sans-serif" font-size="11" lengthAdjust="spacing" textLength="177" x="1213.5" y="503.0151">+getMetricFor(parameterCode)</text><!--MD5=[63386ce01156be326996be41135b9514]
class ExternalModuleAdapter3--><rect codeLine="72" fill="#FEFECE" filter="url(#f3nw0a6q3zsbd)" height="73.6094" id="ExternalModuleAdapter3" style="stroke:#A80036;stroke-width:1.5;" width="337" x="1579.5" y="436"/><ellipse cx="1669.75" cy="452" fill="#ADD1B2" rx="11" ry="11" style="stroke:#A80036;stroke-width:1.0;"/><path d="M1672.0938,447.6719 C1671.1563,447.2344 1670.5625,447.0938 1669.6875,447.0938 C1667.0625,447.0938 1665.0625,449.1719 1665.0625,451.8906 L1665.0625,453.0156 C1665.0625,455.5938 1667.1719,457.4844 1670.0625,457.4844 C1671.2813,457.4844 1672.4375,457.1875 1673.1875,456.6406 C1673.7656,456.2344 1674.0938,455.7813 1674.0938,455.3906 C1674.0938,454.9375 1673.7031,454.5469 1673.2344,454.5469 C1673.0156,454.5469 1672.8125,454.625 1672.625,454.8125 C1672.1719,455.2969 1672.1719,455.2969 1671.9844,455.3906 C1671.5625,455.6563 1670.875,455.7813 1670.1094,455.7813 C1668.0625,455.7813 1666.7656,454.6875 1666.7656,452.9844 L1666.7656,451.8906 C1666.7656,450.1094 1668.0156,448.7969 1669.75,448.7969 C1670.3281,448.7969 1670.9375,448.9531 1671.4063,449.2031 C1671.8906,449.4844 1672.0625,449.7031 1672.1563,450.1094 C1672.2188,450.5156 1672.25,450.6406 1672.3906,450.7656 C1672.5313,450.9063 1672.7656,451.0156 1672.9844,451.0156 C1673.25,451.0156 1673.5156,450.875 1673.6875,450.6563 C1673.7969,450.5 1673.8281,450.3125 1673.8281,449.8906 L1673.8281,448.4688 C1673.8281,448.0313 1673.8125,447.9063 1673.7188,447.75 C1673.5625,447.4844 1673.2813,447.3438 1672.9844,447.3438 C1672.6875,447.3438 1672.4844,447.4375 1672.2656,447.75 L1672.0938,447.6719 Z " fill="#000000"/><text fill="#000000" font-family="sans-serif" font-size="12" lengthAdjust="spacing" textLength="148" x="1690.25" y="456.1543">ExternalModuleAdapter3</text><line style="stroke:#A80036;stroke-width:1.5;" x1="1580.5" x2="1915.5" y1="468" y2="468"/><line style="stroke:#A80036;stroke-width:1.5;" x1="1580.5" x2="1915.5" y1="476" y2="476"/><text fill="#000000" font-family="sans-serif" font-size="11" lengthAdjust="spacing" textLength="325" x="1585.5" y="490.2104">+ReferenceValue getReferenceValue(Parameter param)</text><text fill="#000000" font-family="sans-serif" font-size="11" lengthAdjust="spacing" textLength="177" x="1585.5" y="503.0151">+getMetricFor(parameterCode)</text><!--MD5=[aeb3272166074d8737a70b61b1e71682]
class TestType--><rect codeLine="77" fill="#FEFECE" filter="url(#f3nw0a6q3zsbd)" height="124.8281" id="TestType" style="stroke:#A80036;stroke-width:1.5;" width="412" x="672" y="727.5"/><ellipse cx="845.75" cy="743.5" fill="#ADD1B2" rx="11" ry="11" style="stroke:#A80036;stroke-width:1.0;"/><path d="M848.0938,739.1719 C847.1563,738.7344 846.5625,738.5938 845.6875,738.5938 C843.0625,738.5938 841.0625,740.6719 841.0625,743.3906 L841.0625,744.5156 C841.0625,747.0938 843.1719,748.9844 846.0625,748.9844 C847.2813,748.9844 848.4375,748.6875 849.1875,748.1406 C849.7656,747.7344 850.0938,747.2813 850.0938,746.8906 C850.0938,746.4375 849.7031,746.0469 849.2344,746.0469 C849.0156,746.0469 848.8125,746.125 848.625,746.3125 C848.1719,746.7969 848.1719,746.7969 847.9844,746.8906 C847.5625,747.1563 846.875,747.2813 846.1094,747.2813 C844.0625,747.2813 842.7656,746.1875 842.7656,744.4844 L842.7656,743.3906 C842.7656,741.6094 844.0156,740.2969 845.75,740.2969 C846.3281,740.2969 846.9375,740.4531 847.4063,740.7031 C847.8906,740.9844 848.0625,741.2031 848.1563,741.6094 C848.2188,742.0156 848.25,742.1406 848.3906,742.2656 C848.5313,742.4063 848.7656,742.5156 848.9844,742.5156 C849.25,742.5156 849.5156,742.375 849.6875,742.1563 C849.7969,742 849.8281,741.8125 849.8281,741.3906 L849.8281,739.9688 C849.8281,739.5313 849.8125,739.4063 849.7188,739.25 C849.5625,738.9844 849.2813,738.8438 848.9844,738.8438 C848.6875,738.8438 848.4844,738.9375 848.2656,739.25 L848.0938,739.1719 Z " fill="#000000"/><text fill="#000000" font-family="sans-serif" font-size="12" lengthAdjust="spacing" textLength="56" x="866.25" y="747.6543">TestType</text><line style="stroke:#A80036;stroke-width:1.5;" x1="673" x2="1083" y1="759.5" y2="759.5"/><text fill="#000000" font-family="sans-serif" font-size="11" lengthAdjust="spacing" textLength="69" x="678" y="773.7104">-String code</text><text fill="#000000" font-family="sans-serif" font-size="11" lengthAdjust="spacing" textLength="103" x="678" y="786.5151">-String description</text><text fill="#000000" font-family="sans-serif" font-size="11" lengthAdjust="spacing" textLength="137" x="678" y="799.3198">-String collectingMethod</text><text fill="#000000" font-family="sans-serif" font-size="11" lengthAdjust="spacing" textLength="278" x="678" y="812.1245">-List&lt;ParameterCategory&gt; parameterCategories</text><line style="stroke:#A80036;stroke-width:1.5;" x1="673" x2="1083" y1="818.7188" y2="818.7188"/><text fill="#000000" font-family="sans-serif" font-size="11" lengthAdjust="spacing" textLength="400" x="678" y="832.9292">+TestType(code, description, collectingMethod, parameterCategories)</text><text fill="#000000" font-family="sans-serif" font-size="11" lengthAdjust="spacing" textLength="334" x="678" y="845.7339">+checkExternalModuleBasedOnTestType(parameterCode)</text><!--MD5=[e27cb01a39563223b22d42504ec96d07]
class TestResult--><rect codeLine="87" fill="#FEFECE" filter="url(#f3nw0a6q3zsbd)" height="137.6328" id="TestResult" style="stroke:#A80036;stroke-width:1.5;" width="277" x="739.5" y="993"/><ellipse cx="842.75" cy="1009" fill="#ADD1B2" rx="11" ry="11" style="stroke:#A80036;stroke-width:1.0;"/><path d="M845.0938,1004.6719 C844.1563,1004.2344 843.5625,1004.0938 842.6875,1004.0938 C840.0625,1004.0938 838.0625,1006.1719 838.0625,1008.8906 L838.0625,1010.0156 C838.0625,1012.5938 840.1719,1014.4844 843.0625,1014.4844 C844.2813,1014.4844 845.4375,1014.1875 846.1875,1013.6406 C846.7656,1013.2344 847.0938,1012.7813 847.0938,1012.3906 C847.0938,1011.9375 846.7031,1011.5469 846.2344,1011.5469 C846.0156,1011.5469 845.8125,1011.625 845.625,1011.8125 C845.1719,1012.2969 845.1719,1012.2969 844.9844,1012.3906 C844.5625,1012.6563 843.875,1012.7813 843.1094,1012.7813 C841.0625,1012.7813 839.7656,1011.6875 839.7656,1009.9844 L839.7656,1008.8906 C839.7656,1007.1094 841.0156,1005.7969 842.75,1005.7969 C843.3281,1005.7969 843.9375,1005.9531 844.4063,1006.2031 C844.8906,1006.4844 845.0625,1006.7031 845.1563,1007.1094 C845.2188,1007.5156 845.25,1007.6406 845.3906,1007.7656 C845.5313,1007.9063 845.7656,1008.0156 845.9844,1008.0156 C846.25,1008.0156 846.5156,1007.875 846.6875,1007.6563 C846.7969,1007.5 846.8281,1007.3125 846.8281,1006.8906 L846.8281,1005.4688 C846.8281,1005.0313 846.8125,1004.9063 846.7188,1004.75 C846.5625,1004.4844 846.2813,1004.3438 845.9844,1004.3438 C845.6875,1004.3438 845.4844,1004.4375 845.2656,1004.75 L845.0938,1004.6719 Z " fill="#000000"/><text fill="#000000" font-family="sans-serif" font-size="12" lengthAdjust="spacing" textLength="62" x="863.25" y="1013.1543">TestResult</text><line style="stroke:#A80036;stroke-width:1.5;" x1="740.5" x2="1015.5" y1="1025" y2="1025"/><text fill="#000000" font-family="sans-serif" font-size="11" lengthAdjust="spacing" textLength="94" x="745.5" y="1039.2104">-referenceValue</text><text fill="#000000" font-family="sans-serif" font-size="11" lengthAdjust="spacing" textLength="36" x="745.5" y="1052.0151">-result</text><text fill="#000000" font-family="sans-serif" font-size="11" lengthAdjust="spacing" textLength="64" x="745.5" y="1064.8198">-parameter</text><line style="stroke:#A80036;stroke-width:1.5;" x1="740.5" x2="1015.5" y1="1071.4141" y2="1071.4141"/><text fill="#000000" font-family="sans-serif" font-size="11" lengthAdjust="spacing" textLength="265" x="745.5" y="1085.6245">+TestResult(parameter,value,referenceValue)</text><text fill="#000000" font-family="sans-serif" font-size="11" lengthAdjust="spacing" textLength="71" x="745.5" y="1098.4292">+getResult()</text><text fill="#000000" font-family="sans-serif" font-size="11" lengthAdjust="spacing" textLength="129" x="745.5" y="1111.2339">+getReferenceValue()</text><text fill="#000000" font-family="sans-serif" font-size="11" lengthAdjust="spacing" textLength="61" x="745.5" y="1124.0386">+toString()</text><!--MD5=[0f6f7964b844a64b0496af0dda7914bd]
class TestStore--><rect codeLine="97" fill="#FEFECE" filter="url(#f3nw0a6q3zsbd)" height="240.0703" id="TestStore" style="stroke:#A80036;stroke-width:1.5;" width="310" x="439" y="353"/><ellipse cx="560.25" cy="369" fill="#ADD1B2" rx="11" ry="11" style="stroke:#A80036;stroke-width:1.0;"/><path d="M562.5938,364.6719 C561.6563,364.2344 561.0625,364.0938 560.1875,364.0938 C557.5625,364.0938 555.5625,366.1719 555.5625,368.8906 L555.5625,370.0156 C555.5625,372.5938 557.6719,374.4844 560.5625,374.4844 C561.7813,374.4844 562.9375,374.1875 563.6875,373.6406 C564.2656,373.2344 564.5938,372.7813 564.5938,372.3906 C564.5938,371.9375 564.2031,371.5469 563.7344,371.5469 C563.5156,371.5469 563.3125,371.625 563.125,371.8125 C562.6719,372.2969 562.6719,372.2969 562.4844,372.3906 C562.0625,372.6563 561.375,372.7813 560.6094,372.7813 C558.5625,372.7813 557.2656,371.6875 557.2656,369.9844 L557.2656,368.8906 C557.2656,367.1094 558.5156,365.7969 560.25,365.7969 C560.8281,365.7969 561.4375,365.9531 561.9063,366.2031 C562.3906,366.4844 562.5625,366.7031 562.6563,367.1094 C562.7188,367.5156 562.75,367.6406 562.8906,367.7656 C563.0313,367.9063 563.2656,368.0156 563.4844,368.0156 C563.75,368.0156 564.0156,367.875 564.1875,367.6563 C564.2969,367.5 564.3281,367.3125 564.3281,366.8906 L564.3281,365.4688 C564.3281,365.0313 564.3125,364.9063 564.2188,364.75 C564.0625,364.4844 563.7813,364.3438 563.4844,364.3438 C563.1875,364.3438 562.9844,364.4375 562.7656,364.75 L562.5938,364.6719 Z " fill="#000000"/><text fill="#000000" font-family="sans-serif" font-size="12" lengthAdjust="spacing" textLength="59" x="580.75" y="373.1543">TestStore</text><line style="stroke:#A80036;stroke-width:1.5;" x1="440" x2="748" y1="385" y2="385"/><text fill="#000000" font-family="sans-serif" font-size="11" lengthAdjust="spacing" textLength="105" x="445" y="399.2104">-tests : List&lt;Test&gt;</text><text fill="#000000" font-family="sans-serif" font-size="11" lengthAdjust="spacing" textLength="132" x="445" y="412.0151">-testParam : TestParam</text><text fill="#000000" font-family="sans-serif" font-size="11" lengthAdjust="spacing" textLength="134" x="445" y="424.8198">-parameter : Parameter</text><text fill="#000000" font-family="sans-serif" font-size="11" lengthAdjust="spacing" textLength="132" x="445" y="437.6245">-testResult : TestResult</text><line style="stroke:#A80036;stroke-width:1.5;" x1="440" x2="748" y1="444.2188" y2="444.2188"/><text fill="#000000" font-family="sans-serif" font-size="11" lengthAdjust="spacing" textLength="135" x="445" y="458.4292">-initializeValidationList()</text><text fill="#000000" font-family="sans-serif" font-size="11" lengthAdjust="spacing" textLength="262" x="445" y="471.2339">+addTestResults(parameterCode, result, test)</text><text fill="#000000" font-family="sans-serif" font-size="11" lengthAdjust="spacing" textLength="142" x="445" y="484.0386">+getTestsWithSamples()</text><text fill="#000000" font-family="sans-serif" font-size="11" lengthAdjust="spacing" textLength="211" x="445" y="496.8433">+getParameterTestToShow(barcode)</text><text fill="#000000" font-family="sans-serif" font-size="11" lengthAdjust="spacing" textLength="118" x="445" y="509.6479">+testExists(barcode)</text><text fill="#000000" font-family="sans-serif" font-size="11" lengthAdjust="spacing" textLength="169" x="445" y="522.4526">+getTestByBarcode(barcode)</text><text fill="#000000" font-family="sans-serif" font-size="11" lengthAdjust="spacing" textLength="248" x="445" y="535.2573">+hasTestPassedSampleCollection(barcode)</text><text fill="#000000" font-family="sans-serif" font-size="11" lengthAdjust="spacing" textLength="107" x="445" y="548.062">+getTest(barcode)</text><text fill="#000000" font-family="sans-serif" font-size="11" lengthAdjust="spacing" textLength="241" x="445" y="560.8667">+isTestResultInBetweenReferenceValue()</text><text fill="#000000" font-family="sans-serif" font-size="11" lengthAdjust="spacing" textLength="298" x="445" y="573.6714">+getValidatedParameters(parameterCode, barcode)</text><text fill="#000000" font-family="sans-serif" font-size="11" lengthAdjust="spacing" textLength="248" x="445" y="586.4761">+saveTestResult(parameterCode, barcode)</text><!--MD5=[1c357e7e7fdba398bcadd6e61afe49f5]
class ReferenceValue--><rect codeLine="119" fill="#FEFECE" filter="url(#f3nw0a6q3zsbd)" height="150.4375" id="ReferenceValue" style="stroke:#A80036;stroke-width:1.5;" width="407" x="1101.5" y="987"/><ellipse cx="1253.25" cy="1003" fill="#ADD1B2" rx="11" ry="11" style="stroke:#A80036;stroke-width:1.0;"/><path d="M1255.5938,998.6719 C1254.6563,998.2344 1254.0625,998.0938 1253.1875,998.0938 C1250.5625,998.0938 1248.5625,1000.1719 1248.5625,1002.8906 L1248.5625,1004.0156 C1248.5625,1006.5938 1250.6719,1008.4844 1253.5625,1008.4844 C1254.7813,1008.4844 1255.9375,1008.1875 1256.6875,1007.6406 C1257.2656,1007.2344 1257.5938,1006.7813 1257.5938,1006.3906 C1257.5938,1005.9375 1257.2031,1005.5469 1256.7344,1005.5469 C1256.5156,1005.5469 1256.3125,1005.625 1256.125,1005.8125 C1255.6719,1006.2969 1255.6719,1006.2969 1255.4844,1006.3906 C1255.0625,1006.6563 1254.375,1006.7813 1253.6094,1006.7813 C1251.5625,1006.7813 1250.2656,1005.6875 1250.2656,1003.9844 L1250.2656,1002.8906 C1250.2656,1001.1094 1251.5156,999.7969 1253.25,999.7969 C1253.8281,999.7969 1254.4375,999.9531 1254.9063,1000.2031 C1255.3906,1000.4844 1255.5625,1000.7031 1255.6563,1001.1094 C1255.7188,1001.5156 1255.75,1001.6406 1255.8906,1001.7656 C1256.0313,1001.9063 1256.2656,1002.0156 1256.4844,1002.0156 C1256.75,1002.0156 1257.0156,1001.875 1257.1875,1001.6563 C1257.2969,1001.5 1257.3281,1001.3125 1257.3281,1000.8906 L1257.3281,999.4688 C1257.3281,999.0313 1257.3125,998.9063 1257.2188,998.75 C1257.0625,998.4844 1256.7813,998.3438 1256.4844,998.3438 C1256.1875,998.3438 1255.9844,998.4375 1255.7656,998.75 L1255.5938,998.6719 Z " fill="#000000"/><text fill="#000000" font-family="sans-serif" font-size="12" lengthAdjust="spacing" textLength="95" x="1273.75" y="1007.1543">ReferenceValue</text><line style="stroke:#A80036;stroke-width:1.5;" x1="1102.5" x2="1507.5" y1="1019" y2="1019"/><text fill="#000000" font-family="sans-serif" font-size="11" lengthAdjust="spacing" textLength="84" x="1107.5" y="1033.2104">-metric : String</text><text fill="#000000" font-family="sans-serif" font-size="11" lengthAdjust="spacing" textLength="112" x="1107.5" y="1046.0151">-maxValue : double</text><text fill="#000000" font-family="sans-serif" font-size="11" lengthAdjust="spacing" textLength="108" x="1107.5" y="1058.8198">-minValue : double</text><line style="stroke:#A80036;stroke-width:1.5;" x1="1102.5" x2="1507.5" y1="1065.4141" y2="1065.4141"/><text fill="#000000" font-family="sans-serif" font-size="11" lengthAdjust="spacing" textLength="395" x="1107.5" y="1079.6245">+ReferenceValue(String metric, double maxValue, double minValue)</text><text fill="#000000" font-family="sans-serif" font-size="11" lengthAdjust="spacing" textLength="110" x="1107.5" y="1092.4292">+ReferenceValue()</text><text fill="#000000" font-family="sans-serif" font-size="11" lengthAdjust="spacing" textLength="92" x="1107.5" y="1105.2339">+getMaxValue()</text><text fill="#000000" font-family="sans-serif" font-size="11" lengthAdjust="spacing" textLength="88" x="1107.5" y="1118.0386">+getMinValue()</text><text fill="#000000" font-family="sans-serif" font-size="11" lengthAdjust="spacing" textLength="61" x="1107.5" y="1130.8433">+toString()</text><!--MD5=[5c34e247bdc718c2aaa7fe06d704a57f]
class CovidReferenceValues1API--><rect codeLine="132" fill="#FEFECE" filter="url(#f3nw0a6q3zsbd)" height="86.4141" id="CovidReferenceValues1API" style="stroke:#A80036;stroke-width:1.5;" width="302" x="853" y="161"/><ellipse cx="919.75" cy="177" fill="#ADD1B2" rx="11" ry="11" style="stroke:#A80036;stroke-width:1.0;"/><path d="M922.0938,172.6719 C921.1563,172.2344 920.5625,172.0938 919.6875,172.0938 C917.0625,172.0938 915.0625,174.1719 915.0625,176.8906 L915.0625,178.0156 C915.0625,180.5938 917.1719,182.4844 920.0625,182.4844 C921.2813,182.4844 922.4375,182.1875 923.1875,181.6406 C923.7656,181.2344 924.0938,180.7813 924.0938,180.3906 C924.0938,179.9375 923.7031,179.5469 923.2344,179.5469 C923.0156,179.5469 922.8125,179.625 922.625,179.8125 C922.1719,180.2969 922.1719,180.2969 921.9844,180.3906 C921.5625,180.6563 920.875,180.7813 920.1094,180.7813 C918.0625,180.7813 916.7656,179.6875 916.7656,177.9844 L916.7656,176.8906 C916.7656,175.1094 918.0156,173.7969 919.75,173.7969 C920.3281,173.7969 920.9375,173.9531 921.4063,174.2031 C921.8906,174.4844 922.0625,174.7031 922.1563,175.1094 C922.2188,175.5156 922.25,175.6406 922.3906,175.7656 C922.5313,175.9063 922.7656,176.0156 922.9844,176.0156 C923.25,176.0156 923.5156,175.875 923.6875,175.6563 C923.7969,175.5 923.8281,175.3125 923.8281,174.8906 L923.8281,173.4688 C923.8281,173.0313 923.8125,172.9063 923.7188,172.75 C923.5625,172.4844 923.2813,172.3438 922.9844,172.3438 C922.6875,172.3438 922.4844,172.4375 922.2656,172.75 L922.0938,172.6719 Z " fill="#000000"/><text fill="#000000" font-family="sans-serif" font-size="12" lengthAdjust="spacing" textLength="160" x="940.25" y="181.1543">CovidReferenceValues1API</text><line style="stroke:#A80036;stroke-width:1.5;" x1="854" x2="1154" y1="193" y2="193"/><line style="stroke:#A80036;stroke-width:1.5;" x1="854" x2="1154" y1="201" y2="201"/><text fill="#000000" font-family="sans-serif" font-size="11" lengthAdjust="spacing" textLength="290" x="859" y="215.2104">+getMaxReferenceValue​(parameterId, accessKey)</text><text fill="#000000" font-family="sans-serif" font-size="11" lengthAdjust="spacing" textLength="286" x="859" y="228.0151">+getMinReferenceValue​(parameterId, accessKey)</text><text fill="#000000" font-family="sans-serif" font-size="11" lengthAdjust="spacing" textLength="219" x="859" y="240.8198">+usedMetric​(parameterID, accessKey)</text><!--MD5=[c2db872d8177dd5e15eeb53e86d83378]
class ExternalModule2API--><rect codeLine="138" fill="#FEFECE" filter="url(#f3nw0a6q3zsbd)" height="86.4141" id="ExternalModule2API" style="stroke:#A80036;stroke-width:1.5;" width="246" x="1253" y="161"/><ellipse cx="1313.25" cy="177" fill="#ADD1B2" rx="11" ry="11" style="stroke:#A80036;stroke-width:1.0;"/><path d="M1315.5938,172.6719 C1314.6563,172.2344 1314.0625,172.0938 1313.1875,172.0938 C1310.5625,172.0938 1308.5625,174.1719 1308.5625,176.8906 L1308.5625,178.0156 C1308.5625,180.5938 1310.6719,182.4844 1313.5625,182.4844 C1314.7813,182.4844 1315.9375,182.1875 1316.6875,181.6406 C1317.2656,181.2344 1317.5938,180.7813 1317.5938,180.3906 C1317.5938,179.9375 1317.2031,179.5469 1316.7344,179.5469 C1316.5156,179.5469 1316.3125,179.625 1316.125,179.8125 C1315.6719,180.2969 1315.6719,180.2969 1315.4844,180.3906 C1315.0625,180.6563 1314.375,180.7813 1313.6094,180.7813 C1311.5625,180.7813 1310.2656,179.6875 1310.2656,177.9844 L1310.2656,176.8906 C1310.2656,175.1094 1311.5156,173.7969 1313.25,173.7969 C1313.8281,173.7969 1314.4375,173.9531 1314.9063,174.2031 C1315.3906,174.4844 1315.5625,174.7031 1315.6563,175.1094 C1315.7188,175.5156 1315.75,175.6406 1315.8906,175.7656 C1316.0313,175.9063 1316.2656,176.0156 1316.4844,176.0156 C1316.75,176.0156 1317.0156,175.875 1317.1875,175.6563 C1317.2969,175.5 1317.3281,175.3125 1317.3281,174.8906 L1317.3281,173.4688 C1317.3281,173.0313 1317.3125,172.9063 1317.2188,172.75 C1317.0625,172.4844 1316.7813,172.3438 1316.4844,172.3438 C1316.1875,172.3438 1315.9844,172.4375 1315.7656,172.75 L1315.5938,172.6719 Z " fill="#000000"/><text fill="#000000" font-family="sans-serif" font-size="12" lengthAdjust="spacing" textLength="117" x="1333.75" y="181.1543">ExternalModule2API</text><line style="stroke:#A80036;stroke-width:1.5;" x1="1254" x2="1498" y1="193" y2="193"/><line style="stroke:#A80036;stroke-width:1.5;" x1="1254" x2="1498" y1="201" y2="201"/><text fill="#000000" font-family="sans-serif" font-size="11" lengthAdjust="spacing" textLength="165" x="1259" y="215.2104">+getMetricsFor​(parameterID)</text><text fill="#000000" font-family="sans-serif" font-size="11" lengthAdjust="spacing" textLength="185" x="1259" y="228.0151">+getReferenceFor​(parameterID)</text><text fill="#000000" font-family="sans-serif" font-size="11" lengthAdjust="spacing" textLength="234" x="1259" y="240.8198">+getReferenceFor​(parameterID, onDate)</text><!--MD5=[684eca265d68b7682ab3f1c4bd898418]
class ExternalModule3API--><rect codeLine="144" fill="#FEFECE" filter="url(#f3nw0a6q3zsbd)" height="86.4141" id="ExternalModule3API" style="stroke:#A80036;stroke-width:1.5;" width="302" x="1597" y="161"/><ellipse cx="1685.25" cy="177" fill="#ADD1B2" rx="11" ry="11" style="stroke:#A80036;stroke-width:1.0;"/><path d="M1687.5938,172.6719 C1686.6563,172.2344 1686.0625,172.0938 1685.1875,172.0938 C1682.5625,172.0938 1680.5625,174.1719 1680.5625,176.8906 L1680.5625,178.0156 C1680.5625,180.5938 1682.6719,182.4844 1685.5625,182.4844 C1686.7813,182.4844 1687.9375,182.1875 1688.6875,181.6406 C1689.2656,181.2344 1689.5938,180.7813 1689.5938,180.3906 C1689.5938,179.9375 1689.2031,179.5469 1688.7344,179.5469 C1688.5156,179.5469 1688.3125,179.625 1688.125,179.8125 C1687.6719,180.2969 1687.6719,180.2969 1687.4844,180.3906 C1687.0625,180.6563 1686.375,180.7813 1685.6094,180.7813 C1683.5625,180.7813 1682.2656,179.6875 1682.2656,177.9844 L1682.2656,176.8906 C1682.2656,175.1094 1683.5156,173.7969 1685.25,173.7969 C1685.8281,173.7969 1686.4375,173.9531 1686.9063,174.2031 C1687.3906,174.4844 1687.5625,174.7031 1687.6563,175.1094 C1687.7188,175.5156 1687.75,175.6406 1687.8906,175.7656 C1688.0313,175.9063 1688.2656,176.0156 1688.4844,176.0156 C1688.75,176.0156 1689.0156,175.875 1689.1875,175.6563 C1689.2969,175.5 1689.3281,175.3125 1689.3281,174.8906 L1689.3281,173.4688 C1689.3281,173.0313 1689.3125,172.9063 1689.2188,172.75 C1689.0625,172.4844 1688.7813,172.3438 1688.4844,172.3438 C1688.1875,172.3438 1687.9844,172.4375 1687.7656,172.75 L1687.5938,172.6719 Z " fill="#000000"/><text fill="#000000" font-family="sans-serif" font-size="12" lengthAdjust="spacing" textLength="117" x="1705.75" y="181.1543">ExternalModule3API</text><line style="stroke:#A80036;stroke-width:1.5;" x1="1598" x2="1898" y1="193" y2="193"/><line style="stroke:#A80036;stroke-width:1.5;" x1="1598" x2="1898" y1="201" y2="201"/><text fill="#000000" font-family="sans-serif" font-size="11" lengthAdjust="spacing" textLength="290" x="1603" y="215.2104">+getMaxReferenceValue​(parameterId, accessKey)</text><text fill="#000000" font-family="sans-serif" font-size="11" lengthAdjust="spacing" textLength="286" x="1603" y="228.0151">+getMinReferenceValue​(parameterId, accessKey)</text><text fill="#000000" font-family="sans-serif" font-size="11" lengthAdjust="spacing" textLength="219" x="1603" y="240.8198">+usedMetric​(parameterID, accessKey)</text><!--MD5=[9681492165142af2a4a3a169d90ee8d4]
class Sample--><rect codeLine="150" fill="#FEFECE" filter="url(#f3nw0a6q3zsbd)" height="86.4141" id="Sample" style="stroke:#A80036;stroke-width:1.5;" width="164" x="73" y="747"/><ellipse cx="128.25" cy="763" fill="#ADD1B2" rx="11" ry="11" style="stroke:#A80036;stroke-width:1.0;"/><path d="M130.5938,758.6719 C129.6563,758.2344 129.0625,758.0938 128.1875,758.0938 C125.5625,758.0938 123.5625,760.1719 123.5625,762.8906 L123.5625,764.0156 C123.5625,766.5938 125.6719,768.4844 128.5625,768.4844 C129.7813,768.4844 130.9375,768.1875 131.6875,767.6406 C132.2656,767.2344 132.5938,766.7813 132.5938,766.3906 C132.5938,765.9375 132.2031,765.5469 131.7344,765.5469 C131.5156,765.5469 131.3125,765.625 131.125,765.8125 C130.6719,766.2969 130.6719,766.2969 130.4844,766.3906 C130.0625,766.6563 129.375,766.7813 128.6094,766.7813 C126.5625,766.7813 125.2656,765.6875 125.2656,763.9844 L125.2656,762.8906 C125.2656,761.1094 126.5156,759.7969 128.25,759.7969 C128.8281,759.7969 129.4375,759.9531 129.9063,760.2031 C130.3906,760.4844 130.5625,760.7031 130.6563,761.1094 C130.7188,761.5156 130.75,761.6406 130.8906,761.7656 C131.0313,761.9063 131.2656,762.0156 131.4844,762.0156 C131.75,762.0156 132.0156,761.875 132.1875,761.6563 C132.2969,761.5 132.3281,761.3125 132.3281,760.8906 L132.3281,759.4688 C132.3281,759.0313 132.3125,758.9063 132.2188,758.75 C132.0625,758.4844 131.7813,758.3438 131.4844,758.3438 C131.1875,758.3438 130.9844,758.4375 130.7656,758.75 L130.5938,758.6719 Z " fill="#000000"/><text fill="#000000" font-family="sans-serif" font-size="12" lengthAdjust="spacing" textLength="45" x="148.75" y="767.1543">Sample</text><line style="stroke:#A80036;stroke-width:1.5;" x1="74" x2="236" y1="779" y2="779"/><text fill="#000000" font-family="sans-serif" font-size="11" lengthAdjust="spacing" textLength="139" x="79" y="793.2104">-barcodeNumber : String</text><line style="stroke:#A80036;stroke-width:1.5;" x1="74" x2="236" y1="799.8047" y2="799.8047"/><text fill="#000000" font-family="sans-serif" font-size="11" lengthAdjust="spacing" textLength="152" x="79" y="814.0151">+Sample(barcodeNumber)</text><text fill="#000000" font-family="sans-serif" font-size="11" lengthAdjust="spacing" textLength="83" x="79" y="826.8198">+getBarcode()</text><!--MD5=[fe7c39b792950e83d703ca86c6957d62]
reverse link Parameter to TestParam--><path codeLine="156" d="M200.354,1062 C227.157,1062 257.017,1062 286.796,1062 " fill="none" id="Parameter-backto-TestParam" style="stroke:#A80036;stroke-width:1.0;"/><polygon fill="#A80036" points="195.035,1062,204.035,1066,200.035,1062,204.035,1058,195.035,1062" style="stroke:#A80036;stroke-width:1.0;"/><text fill="#000000" font-family="sans-serif" font-size="13" lengthAdjust="spacing" textLength="55" x="213.5" y="1055.0669">refers to</text><text fill="#000000" font-family="sans-serif" font-size="13" lengthAdjust="spacing" textLength="8" x="202.8472" y="1058.4892">1</text><text fill="#000000" font-family="sans-serif" font-size="13" lengthAdjust="spacing" textLength="7" x="272.0038" y="1058.7446">*</text><!--MD5=[1ae83efc6d1967ce5bc17dfe294d00c2]
link Sample to Test--><path codeLine="157" d="M237.237,790 C263.519,790 293.44,790 322.824,790 " fill="none" id="Sample-to-Test" style="stroke:#A80036;stroke-width:1.0;"/><polygon fill="#A80036" points="327.918,790,318.918,786,322.918,790,318.918,794,327.918,790" style="stroke:#A80036;stroke-width:1.0;"/><text fill="#000000" font-family="sans-serif" font-size="13" lengthAdjust="spacing" textLength="54" x="255.5" y="783.0669">contains</text><text fill="#000000" font-family="sans-serif" font-size="13" lengthAdjust="spacing" textLength="23" x="244.9996" y="802.6763">1..*</text><text fill="#000000" font-family="sans-serif" font-size="13" lengthAdjust="spacing" textLength="8" x="312.0385" y="786.6584">1</text><!--MD5=[fa1609da76fc4a0baf609685af9aba33]
link TestParam to TestResult--><path codeLine="158" d="M649.025,1062 C677.5,1062 706.601,1062 734.088,1062 " fill="none" id="TestParam-to-TestResult" style="stroke:#A80036;stroke-width:1.0;"/><polygon fill="#A80036" points="739.202,1062,730.202,1058,734.202,1062,730.202,1066,739.202,1062" style="stroke:#A80036;stroke-width:1.0;"/><text fill="#000000" font-family="sans-serif" font-size="13" lengthAdjust="spacing" textLength="54" x="667.25" y="1055.0669">contains</text><text fill="#000000" font-family="sans-serif" font-size="13" lengthAdjust="spacing" textLength="8" x="656.8307" y="1058.7446">1</text><text fill="#000000" font-family="sans-serif" font-size="13" lengthAdjust="spacing" textLength="24" x="707.4265" y="1074.4665">0..1</text><!--MD5=[1cbb74854461cb3141e8c8daf2dccf5e]
link TestResult to ReferenceValue--><path codeLine="159" d="M1016.63,1062 C1042.08,1062 1069.15,1062 1096.13,1062 " fill="none" id="TestResult-to-ReferenceValue" style="stroke:#A80036;stroke-width:1.0;"/><polygon fill="#A80036" points="1101.16,1062,1092.16,1058,1096.16,1062,1092.16,1066,1101.16,1062" style="stroke:#A80036;stroke-width:1.0;"/><text fill="#000000" font-family="sans-serif" font-size="13" lengthAdjust="spacing" textLength="48" x="1035" y="1055.0669">records</text><text fill="#000000" font-family="sans-serif" font-size="13" lengthAdjust="spacing" textLength="8" x="1024.4301" y="1058.6704">1</text><text fill="#000000" font-family="sans-serif" font-size="13" lengthAdjust="spacing" textLength="8" x="1085.6908" y="1058.7919">1</text><!--MD5=[e981d4f96c4342412d1e68160b30cf70]
link Test to TestType--><path codeLine="160" d="M608.239,790 C627.158,790 646.897,790 666.715,790 " fill="none" id="Test-to-TestType" style="stroke:#A80036;stroke-width:1.0;"/><polygon fill="#A80036" points="671.755,790,662.755,786,666.755,790,662.755,794,671.755,790" style="stroke:#A80036;stroke-width:1.0;"/><text fill="#000000" font-family="sans-serif" font-size="13" lengthAdjust="spacing" textLength="27" x="626.5" y="783.0669">is of</text><text fill="#000000" font-family="sans-serif" font-size="13" lengthAdjust="spacing" textLength="7" x="616.0997" y="786.6584">*</text><text fill="#000000" font-family="sans-serif" font-size="13" lengthAdjust="spacing" textLength="8" x="656.1993" y="786.8028">1</text><!--MD5=[fc5249f49f03794c6ccbc0f6a8c1aa69]
link Test to TestParam--><path codeLine="161" d="M468,910.212 C468,949.061 468,989.678 468,1018.956 " fill="none" id="Test-TestParam" style="stroke:#A80036;stroke-width:1.0;"/><polygon fill="#000000" points="473,953.5664,475.9389,944.5213,470.0611,944.5213,473,953.5664" style="stroke:#000000;stroke-width:1.0;"/><text fill="#000000" font-family="sans-serif" font-size="13" lengthAdjust="spacing" textLength="133" x="482" y="953.0669">Requests analysis of</text><text fill="#000000" font-family="sans-serif" font-size="13" lengthAdjust="spacing" textLength="8" x="459.7563" y="930.0632">1</text><text fill="#000000" font-family="sans-serif" font-size="13" lengthAdjust="spacing" textLength="23" x="443.1672" y="1007.945">1..*</text><!--MD5=[71e6920dcc27afae8f25537cd5357b5f]
link TestType to ExternalModule--><path codeLine="162" d="M1084.15,790 C1123.33,790 1163.97,790 1202.03,790 " fill="none" id="TestType-to-ExternalModule" style="stroke:#A80036;stroke-width:1.0;"/><polygon fill="#A80036" points="1207.14,790,1198.14,786,1202.14,790,1198.14,794,1207.14,790" style="stroke:#A80036;stroke-width:1.0;"/><text fill="#000000" font-family="sans-serif" font-size="13" lengthAdjust="spacing" textLength="87" x="1102.25" y="783.0669">makes use of</text><text fill="#000000" font-family="sans-serif" font-size="13" lengthAdjust="spacing" textLength="7" x="1091.6843" y="786.8028">*</text><text fill="#000000" font-family="sans-serif" font-size="13" lengthAdjust="spacing" textLength="8" x="1191.3073" y="786.7389">1</text><!--MD5=[4583d935403064ae9badefc9a5fb28e7]
link ExternalModuleAdapter1 to ExternalModule--><path codeLine="163" d="M1046.67,510.135 C1113.35,566.593 1242.37,675.844 1317.61,739.553 " fill="none" id="ExternalModuleAdapter1-to-ExternalModule" style="stroke:#A80036;stroke-width:1.0;"/><polygon fill="none" points="1322.51,734.537,1333.25,752.803,1313.47,745.221,1322.51,734.537" style="stroke:#A80036;stroke-width:1.0;"/><!--MD5=[96b97b575a021f78c1d69f4902851f2b]
link ExternalModuleAdapter2 to ExternalModule--><path codeLine="164" d="M1376,510.135 C1376,564.581 1376,668.123 1376,732.573 " fill="none" id="ExternalModuleAdapter2-to-ExternalModule" style="stroke:#A80036;stroke-width:1.0;"/><polygon fill="none" points="1383,732.803,1376,752.803,1369,732.803,1383,732.803" style="stroke:#A80036;stroke-width:1.0;"/><!--MD5=[c32bf7eabb548ed73c6516299a5e5c81]
link ExternalModuleAdapter3 to ExternalModule--><path codeLine="165" d="M1705.33,510.135 C1638.65,566.593 1509.63,675.844 1434.39,739.553 " fill="none" id="ExternalModuleAdapter3-to-ExternalModule" style="stroke:#A80036;stroke-width:1.0;"/><polygon fill="none" points="1438.53,745.221,1418.75,752.803,1429.49,734.537,1438.53,745.221" style="stroke:#A80036;stroke-width:1.0;"/><!--MD5=[53ad5ab26910f5706d4104e2824914be]
reverse link CovidReferenceValues1API to ExternalModuleAdapter1--><path codeLine="166" d="M1004,252.306 C1004,304.778 1004,388.284 1004,435.799 " fill="none" id="CovidReferenceValues1API-backto-ExternalModuleAdapter1" style="stroke:#A80036;stroke-width:1.0;"/><polygon fill="#A80036" points="1004,247.012,1000,256.012,1004,252.012,1008,256.012,1004,247.012" style="stroke:#A80036;stroke-width:1.0;"/><!--MD5=[8d43cbbee982b030c98dabd546e192a7]
reverse link ExternalModule2API to ExternalModuleAdapter2--><path codeLine="167" d="M1376,252.306 C1376,304.778 1376,388.284 1376,435.799 " fill="none" id="ExternalModule2API-backto-ExternalModuleAdapter2" style="stroke:#A80036;stroke-width:1.0;"/><polygon fill="#A80036" points="1376,247.012,1372,256.012,1376,252.012,1380,256.012,1376,247.012" style="stroke:#A80036;stroke-width:1.0;"/><!--MD5=[9afc9ffc600df316c6a8b6d66acf592a]
reverse link ExternalModule3API to ExternalModuleAdapter3--><path codeLine="168" d="M1748,252.306 C1748,304.778 1748,388.284 1748,435.799 " fill="none" id="ExternalModule3API-backto-ExternalModuleAdapter3" style="stroke:#A80036;stroke-width:1.0;"/><polygon fill="#A80036" points="1748,247.012,1744,256.012,1748,252.012,1752,256.012,1748,247.012" style="stroke:#A80036;stroke-width:1.0;"/><!--MD5=[e0fe53a4cfb5eba193304877d6f3c961]
link RecordTestResultUI to RecordTestResultController--><path codeLine="169" d="M449,55.06 C449,69.83 449,90.07 449,110.83 " fill="none" id="RecordTestResultUI-to-RecordTestResultController" style="stroke:#A80036;stroke-width:1.0;stroke-dasharray:7.0,7.0;"/><polygon fill="#A80036" points="449,115.83,453,106.83,449,110.83,445,106.83,449,115.83" style="stroke:#A80036;stroke-width:1.0;"/><!--MD5=[f4d8d40e61e78bc4f8ae97bf8db7bc12]
link RecordTestResultController to Test--><path codeLine="170" d="M429.69,292.265 C426.077,312.13 422.855,333.213 421,353 C411.042,459.201 408.477,487.071 421,593 C423.771,616.44 428.345,641.135 433.579,664.796 " fill="none" id="RecordTestResultController-to-Test" style="stroke:#A80036;stroke-width:1.0;stroke-dasharray:7.0,7.0;"/><polygon fill="#A80036" points="434.705,669.829,436.6415,660.1724,433.6123,664.9499,428.8349,661.9207,434.705,669.829" style="stroke:#A80036;stroke-width:1.0;"/><!--MD5=[ed726c1234fa7e1782d1ad4890aa3b36]
link RecordTestResultController to TestStore--><path codeLine="171" d="M496.278,292.056 C505.954,309.873 516.314,328.951 526.54,347.781 " fill="none" id="RecordTestResultController-to-TestStore" style="stroke:#A80036;stroke-width:1.0;stroke-dasharray:7.0,7.0;"/><polygon fill="#A80036" points="529.137,352.562,528.3568,342.7441,526.7508,348.1682,521.3267,346.5621,529.137,352.562" style="stroke:#A80036;stroke-width:1.0;"/><!--MD5=[b0f4f6db8206580012ef9cd998ed01c5]
link TestStore to Test--><path codeLine="172" d="M546.365,593.088 C536.957,616.608 527.062,641.346 517.591,665.023 " fill="none" id="TestStore-to-Test" style="stroke:#A80036;stroke-width:1.0;"/><polygon fill="#A80036" points="515.703,669.744,522.7602,662.874,517.5604,665.1018,515.3327,659.9021,515.703,669.744" style="stroke:#A80036;stroke-width:1.0;"/><text fill="#000000" font-family="sans-serif" font-size="13" lengthAdjust="spacing" textLength="54" x="532" y="636.0669">contains</text><text fill="#000000" font-family="sans-serif" font-size="13" lengthAdjust="spacing" textLength="8" x="535.0571" y="613.3305">1</text><text fill="#000000" font-family="sans-serif" font-size="13" lengthAdjust="spacing" textLength="7" x="511.3966" y="659.0277">*</text><!--MD5=[f600850f445a216cf73dad29f28a2a75]
@startuml
skinparam classAttributeIconSize 0

Class "Parameter"{
-code : String
-shortName : String
-description : String
-testResult : TestResult
-pc : List<ParameterCategory> 

+getTestResult()
+setTestResult(testResult)

}

Class "RecordTestResultUI"{
}

Class "RecordTestResultController"{
+testExists(barcode)
+getTestByBarcode(barcode)
+addTestResult(parameterCode,result,test)
+saveTestResult(parameterCode, barcode)
+getParameterStoreToShow(barcode)
+getValidatedParameters(parameterCode, barcode)
+hasTestPassedSampleCollection(barcode)
+getDate(test)
+setChemicalAnalysis(test)
+initializeValidationList()

}

Class "TestParam"{
-parametersSelected : List<Parameter> 
+findParameterInTestParameter(parameterCode)
+findParameterInTestParameter(parameterCode,parameters)
}

Class "Test"{
    -TestType testType;
   -List <Parameter> parameter;
    -Date registrationDate;
     -Date samplesCollectionDate;
     -Date chemicalAnalysisDate;

+addTestResults(parameterCode,result,metric)
-getTestParameterFor(parameterCode)
+getTestType()
+getParameter()
+getChemicalAnalysisDate()
+addTestResult(parameter, result)
+getTestResult()
+getParameterStoreToShow()
+getDate()
+setChemicalAnalysisDate(newDate)
}

Interface "ExternalModule"{
+ReferenceValue getReferenceValue(Parameter param)
+getMetricFor(parameterCode);
}

Class "ExternalModuleAdapter1"{
+ReferenceValue getReferenceValue(Parameter param)
+getMetricFor(parameterCode)
}

Class "ExternalModuleAdapter2"{
+ReferenceValue getReferenceValue(Parameter param)
+getMetricFor(parameterCode)
}

Class "ExternalModuleAdapter3"{
+ReferenceValue getReferenceValue(Parameter param)
+getMetricFor(parameterCode)
}

Class "TestType"{

-String code
-String description
-String collectingMethod
-List<ParameterCategory> parameterCategories
+TestType(code, description, collectingMethod, parameterCategories)
+checkExternalModuleBasedOnTestType(parameterCode)
}

Class "TestResult"{
-referenceValue
-result
-parameter
+TestResult(parameter,value,referenceValue)
+getResult()
+getReferenceValue()
+toString()
}

class TestStore {

-tests : List<Test>
-testParam : TestParam 
-parameter : Parameter
-testResult : TestResult

-initializeValidationList()
+addTestResults(parameterCode, result, test)
+getTestsWithSamples()
+getParameterTestToShow(barcode)
+testExists(barcode)
+getTestByBarcode(barcode)
+hasTestPassedSampleCollection(barcode)
+getTest(barcode)
+isTestResultInBetweenReferenceValue()
+getValidatedParameters(parameterCode, barcode)
+saveTestResult(parameterCode, barcode)

}


Class "ReferenceValue"{
-metric : String
-maxValue : double
-minValue : double
+ReferenceValue(String metric, double maxValue, double minValue)
+ReferenceValue()
+getMaxValue()
+getMinValue()
+toString()


}

Class "CovidReferenceValues1API"{
+getMaxReferenceValue​(parameterId, accessKey)
+getMinReferenceValue​(parameterId, accessKey)
+usedMetric​(parameterID, accessKey)
}

Class "ExternalModule2API"{
+getMetricsFor​(parameterID)
+getReferenceFor​(parameterID)
+getReferenceFor​(parameterID, onDate)
}

Class "ExternalModule3API"{
+getMaxReferenceValue​(parameterId, accessKey)
+getMinReferenceValue​(parameterId, accessKey)
+usedMetric​(parameterID, accessKey)
}

Class "Sample"{
-barcodeNumber : String
+Sample(barcodeNumber)
+getBarcode()
}

TestParam "*"  -l> "1" Parameter : refers to
Sample "1..*"  -r> "1" Test : contains
TestParam "1" -> "0..1" TestResult : contains
TestResult "1" -> "1" ReferenceValue  : records
Test "*" -> "1" TestType  : is of
Test "1" -d- "1..*" TestParam  :> Requests analysis of
TestType "*" -> "1" ExternalModule  :makes use of
ExternalModuleAdapter1  -d-|>  ExternalModule
ExternalModuleAdapter2  -d-|>  ExternalModule
ExternalModuleAdapter3  -d-|>  ExternalModule
CovidReferenceValues1API  <-d- ExternalModuleAdapter1
ExternalModule2API <-d- ExternalModuleAdapter2
ExternalModule3API <-d- ExternalModuleAdapter3
RecordTestResultUI ..> RecordTestResultController
RecordTestResultController ..> Test
RecordTestResultController ..> TestStore
TestStore "1" - -> "*" Test : contains
@enduml

PlantUML version 1.2021.7(Sun May 23 12:40:07 UTC 2021)
(GPL source distribution)
Java Runtime: Java(TM) SE Runtime Environment
JVM: Java HotSpot(TM) 64-Bit Server VM
Default Encoding: UTF-8
Language: en
Country: US
--></g></svg>