<?xml version="1.0" encoding="UTF-8" standalone="no"?><svg xmlns="http://www.w3.org/2000/svg" xmlns:xlink="http://www.w3.org/1999/xlink" contentScriptType="application/ecmascript" contentStyleType="text/css" height="314px" preserveAspectRatio="none" style="width:855px;height:314px;background:#FFFFFF;" version="1.1" viewBox="0 0 855 314" width="855px" zoomAndPan="magnify"><defs><filter height="300%" id="f1i1s5k3c8bax3" width="300%" x="-1" y="-1"><feGaussianBlur result="blurOut" stdDeviation="2.0"/><feColorMatrix in="blurOut" result="blurOut2" type="matrix" values="0 0 0 0 0 0 0 0 0 0 0 0 0 0 0 0 0 0 .4 0"/><feOffset dx="4.0" dy="4.0" in="blurOut2" result="blurOut3"/><feBlend in="SourceGraphic" in2="blurOut3" mode="normal"/></filter></defs><g><!--MD5=[012ee2a8bf3ae2b319009b06f951c2e5]
class ClinicalChemistryTechnologist--><rect codeLine="6" fill="#FEFECE" filter="url(#f1i1s5k3c8bax3)" height="40" id="ClinicalChemistryTechnologist" style="stroke:#A80036;stroke-width:1.5;" width="210" x="7" y="121"/><ellipse cx="22" cy="137" fill="#ADD1B2" rx="11" ry="11" style="stroke:#A80036;stroke-width:1.0;"/><path d="M24.3438,132.6719 C23.4063,132.2344 22.8125,132.0938 21.9375,132.0938 C19.3125,132.0938 17.3125,134.1719 17.3125,136.8906 L17.3125,138.0156 C17.3125,140.5938 19.4219,142.4844 22.3125,142.4844 C23.5313,142.4844 24.6875,142.1875 25.4375,141.6406 C26.0156,141.2344 26.3438,140.7813 26.3438,140.3906 C26.3438,139.9375 25.9531,139.5469 25.4844,139.5469 C25.2656,139.5469 25.0625,139.625 24.875,139.8125 C24.4219,140.2969 24.4219,140.2969 24.2344,140.3906 C23.8125,140.6563 23.125,140.7813 22.3594,140.7813 C20.3125,140.7813 19.0156,139.6875 19.0156,137.9844 L19.0156,136.8906 C19.0156,135.1094 20.2656,133.7969 22,133.7969 C22.5781,133.7969 23.1875,133.9531 23.6563,134.2031 C24.1406,134.4844 24.3125,134.7031 24.4063,135.1094 C24.4688,135.5156 24.5,135.6406 24.6406,135.7656 C24.7813,135.9063 25.0156,136.0156 25.2344,136.0156 C25.5,136.0156 25.7656,135.875 25.9375,135.6563 C26.0469,135.5 26.0781,135.3125 26.0781,134.8906 L26.0781,133.4688 C26.0781,133.0313 26.0625,132.9063 25.9688,132.75 C25.8125,132.4844 25.5313,132.3438 25.2344,132.3438 C24.9375,132.3438 24.7344,132.4375 24.5156,132.75 L24.3438,132.6719 Z " fill="#000000"/><text fill="#000000" font-family="sans-serif" font-size="12" lengthAdjust="spacing" textLength="178" x="36" y="141.1543">ClinicalChemistryTechnologist</text><line style="stroke:#A80036;stroke-width:1.5;" x1="8" x2="216" y1="153" y2="153"/><!--MD5=[e27cb01a39563223b22d42504ec96d07]
class TestResult--><rect codeLine="10" fill="#FEFECE" filter="url(#f1i1s5k3c8bax3)" height="65.6094" id="TestResult" style="stroke:#A80036;stroke-width:1.5;" width="94" x="399" y="108"/><ellipse cx="414" cy="124" fill="#ADD1B2" rx="11" ry="11" style="stroke:#A80036;stroke-width:1.0;"/><path d="M416.3438,119.6719 C415.4063,119.2344 414.8125,119.0938 413.9375,119.0938 C411.3125,119.0938 409.3125,121.1719 409.3125,123.8906 L409.3125,125.0156 C409.3125,127.5938 411.4219,129.4844 414.3125,129.4844 C415.5313,129.4844 416.6875,129.1875 417.4375,128.6406 C418.0156,128.2344 418.3438,127.7813 418.3438,127.3906 C418.3438,126.9375 417.9531,126.5469 417.4844,126.5469 C417.2656,126.5469 417.0625,126.625 416.875,126.8125 C416.4219,127.2969 416.4219,127.2969 416.2344,127.3906 C415.8125,127.6563 415.125,127.7813 414.3594,127.7813 C412.3125,127.7813 411.0156,126.6875 411.0156,124.9844 L411.0156,123.8906 C411.0156,122.1094 412.2656,120.7969 414,120.7969 C414.5781,120.7969 415.1875,120.9531 415.6563,121.2031 C416.1406,121.4844 416.3125,121.7031 416.4063,122.1094 C416.4688,122.5156 416.5,122.6406 416.6406,122.7656 C416.7813,122.9063 417.0156,123.0156 417.2344,123.0156 C417.5,123.0156 417.7656,122.875 417.9375,122.6563 C418.0469,122.5 418.0781,122.3125 418.0781,121.8906 L418.0781,120.4688 C418.0781,120.0313 418.0625,119.9063 417.9688,119.75 C417.8125,119.4844 417.5313,119.3438 417.2344,119.3438 C416.9375,119.3438 416.7344,119.4375 416.5156,119.75 L416.3438,119.6719 Z " fill="#000000"/><text fill="#000000" font-family="sans-serif" font-size="12" lengthAdjust="spacing" textLength="62" x="428" y="128.1543">TestResult</text><line style="stroke:#A80036;stroke-width:1.5;" x1="400" x2="492" y1="140" y2="140"/><text fill="#000000" font-family="sans-serif" font-size="11" lengthAdjust="spacing" textLength="40" x="405" y="154.2104">-param</text><text fill="#000000" font-family="sans-serif" font-size="11" lengthAdjust="spacing" textLength="36" x="405" y="167.0151">-result</text><!--MD5=[df38be88ccee13e832d6fafd6288a4ca]
class Test--><rect codeLine="16" fill="#FEFECE" filter="url(#f1i1s5k3c8bax3)" height="91.2188" id="Test" style="stroke:#A80036;stroke-width:1.5;" width="80" x="734.5" y="45.5"/><ellipse cx="759.4" cy="61.5" fill="#ADD1B2" rx="11" ry="11" style="stroke:#A80036;stroke-width:1.0;"/><path d="M761.7438,57.1719 C760.8063,56.7344 760.2125,56.5938 759.3375,56.5938 C756.7125,56.5938 754.7125,58.6719 754.7125,61.3906 L754.7125,62.5156 C754.7125,65.0938 756.8219,66.9844 759.7125,66.9844 C760.9313,66.9844 762.0875,66.6875 762.8375,66.1406 C763.4156,65.7344 763.7438,65.2813 763.7438,64.8906 C763.7438,64.4375 763.3531,64.0469 762.8844,64.0469 C762.6656,64.0469 762.4625,64.125 762.275,64.3125 C761.8219,64.7969 761.8219,64.7969 761.6344,64.8906 C761.2125,65.1563 760.525,65.2813 759.7594,65.2813 C757.7125,65.2813 756.4156,64.1875 756.4156,62.4844 L756.4156,61.3906 C756.4156,59.6094 757.6656,58.2969 759.4,58.2969 C759.9781,58.2969 760.5875,58.4531 761.0563,58.7031 C761.5406,58.9844 761.7125,59.2031 761.8063,59.6094 C761.8688,60.0156 761.9,60.1406 762.0406,60.2656 C762.1813,60.4063 762.4156,60.5156 762.6344,60.5156 C762.9,60.5156 763.1656,60.375 763.3375,60.1563 C763.4469,60 763.4781,59.8125 763.4781,59.3906 L763.4781,57.9688 C763.4781,57.5313 763.4625,57.4063 763.3688,57.25 C763.2125,56.9844 762.9313,56.8438 762.6344,56.8438 C762.3375,56.8438 762.1344,56.9375 761.9156,57.25 L761.7438,57.1719 Z " fill="#000000"/><text fill="#000000" font-family="sans-serif" font-size="12" lengthAdjust="spacing" textLength="26" x="775.6" y="65.6543">Test</text><line style="stroke:#A80036;stroke-width:1.5;" x1="735.5" x2="813.5" y1="77.5" y2="77.5"/><text fill="#000000" font-family="sans-serif" font-size="11" lengthAdjust="spacing" textLength="40" x="740.5" y="91.7104">-param</text><text fill="#000000" font-family="sans-serif" font-size="11" lengthAdjust="spacing" textLength="50" x="740.5" y="104.5151">-barcode</text><text fill="#000000" font-family="sans-serif" font-size="11" lengthAdjust="spacing" textLength="68" x="740.5" y="117.3198">-typeOfTest</text><text fill="#000000" font-family="sans-serif" font-size="11" lengthAdjust="spacing" textLength="30" x="740.5" y="130.1245">-date</text><!--MD5=[9681492165142af2a4a3a169d90ee8d4]
class Sample--><rect codeLine="24" fill="#FEFECE" filter="url(#f1i1s5k3c8bax3)" height="65.6094" id="Sample" style="stroke:#A80036;stroke-width:1.5;" width="77" x="407.5" y="7"/><ellipse cx="422.5" cy="23" fill="#ADD1B2" rx="11" ry="11" style="stroke:#A80036;stroke-width:1.0;"/><path d="M424.8438,18.6719 C423.9063,18.2344 423.3125,18.0938 422.4375,18.0938 C419.8125,18.0938 417.8125,20.1719 417.8125,22.8906 L417.8125,24.0156 C417.8125,26.5938 419.9219,28.4844 422.8125,28.4844 C424.0313,28.4844 425.1875,28.1875 425.9375,27.6406 C426.5156,27.2344 426.8438,26.7813 426.8438,26.3906 C426.8438,25.9375 426.4531,25.5469 425.9844,25.5469 C425.7656,25.5469 425.5625,25.625 425.375,25.8125 C424.9219,26.2969 424.9219,26.2969 424.7344,26.3906 C424.3125,26.6563 423.625,26.7813 422.8594,26.7813 C420.8125,26.7813 419.5156,25.6875 419.5156,23.9844 L419.5156,22.8906 C419.5156,21.1094 420.7656,19.7969 422.5,19.7969 C423.0781,19.7969 423.6875,19.9531 424.1563,20.2031 C424.6406,20.4844 424.8125,20.7031 424.9063,21.1094 C424.9688,21.5156 425,21.6406 425.1406,21.7656 C425.2813,21.9063 425.5156,22.0156 425.7344,22.0156 C426,22.0156 426.2656,21.875 426.4375,21.6563 C426.5469,21.5 426.5781,21.3125 426.5781,20.8906 L426.5781,19.4688 C426.5781,19.0313 426.5625,18.9063 426.4688,18.75 C426.3125,18.4844 426.0313,18.3438 425.7344,18.3438 C425.4375,18.3438 425.2344,18.4375 425.0156,18.75 L424.8438,18.6719 Z " fill="#000000"/><text fill="#000000" font-family="sans-serif" font-size="12" lengthAdjust="spacing" textLength="45" x="436.5" y="27.1543">Sample</text><line style="stroke:#A80036;stroke-width:1.5;" x1="408.5" x2="483.5" y1="39" y2="39"/><text fill="#000000" font-family="sans-serif" font-size="11" lengthAdjust="spacing" textLength="50" x="413.5" y="53.2104">-barcode</text><text fill="#000000" font-family="sans-serif" font-size="11" lengthAdjust="spacing" textLength="30" x="413.5" y="66.0151">-date</text><!--MD5=[37747fe06e47350df1a9558a26f9def1]
class ValidationAPI--><rect codeLine="29" fill="#FEFECE" filter="url(#f1i1s5k3c8bax3)" height="91.2188" id="ValidationAPI" style="stroke:#A80036;stroke-width:1.5;" width="174" x="359" y="209.5"/><ellipse cx="404.25" cy="225.5" fill="#ADD1B2" rx="11" ry="11" style="stroke:#A80036;stroke-width:1.0;"/><path d="M406.5938,221.1719 C405.6563,220.7344 405.0625,220.5938 404.1875,220.5938 C401.5625,220.5938 399.5625,222.6719 399.5625,225.3906 L399.5625,226.5156 C399.5625,229.0938 401.6719,230.9844 404.5625,230.9844 C405.7813,230.9844 406.9375,230.6875 407.6875,230.1406 C408.2656,229.7344 408.5938,229.2813 408.5938,228.8906 C408.5938,228.4375 408.2031,228.0469 407.7344,228.0469 C407.5156,228.0469 407.3125,228.125 407.125,228.3125 C406.6719,228.7969 406.6719,228.7969 406.4844,228.8906 C406.0625,229.1563 405.375,229.2813 404.6094,229.2813 C402.5625,229.2813 401.2656,228.1875 401.2656,226.4844 L401.2656,225.3906 C401.2656,223.6094 402.5156,222.2969 404.25,222.2969 C404.8281,222.2969 405.4375,222.4531 405.9063,222.7031 C406.3906,222.9844 406.5625,223.2031 406.6563,223.6094 C406.7188,224.0156 406.75,224.1406 406.8906,224.2656 C407.0313,224.4063 407.2656,224.5156 407.4844,224.5156 C407.75,224.5156 408.0156,224.375 408.1875,224.1563 C408.2969,224 408.3281,223.8125 408.3281,223.3906 L408.3281,221.9688 C408.3281,221.5313 408.3125,221.4063 408.2188,221.25 C408.0625,220.9844 407.7813,220.8438 407.4844,220.8438 C407.1875,220.8438 406.9844,220.9375 406.7656,221.25 L406.5938,221.1719 Z " fill="#000000"/><text fill="#000000" font-family="sans-serif" font-size="12" lengthAdjust="spacing" textLength="75" x="424.75" y="229.6543">ValidationAPI</text><line style="stroke:#A80036;stroke-width:1.5;" x1="360" x2="532" y1="241.5" y2="241.5"/><text fill="#000000" font-family="sans-serif" font-size="11" lengthAdjust="spacing" textLength="25" x="365" y="255.7104">-key</text><text fill="#000000" font-family="sans-serif" font-size="11" lengthAdjust="spacing" textLength="115" x="365" y="268.5151">-parameterIdentifier</text><text fill="#000000" font-family="sans-serif" font-size="11" lengthAdjust="spacing" textLength="89" x="365" y="281.3198">-referenceDate</text><text fill="#000000" font-family="sans-serif" font-size="11" lengthAdjust="spacing" textLength="162" x="365" y="294.1245">-referenceMeasurementUnit</text><!--MD5=[86b2982ced9a310f9b4ad491674c42e1]
class ResultsValidation--><rect codeLine="36" fill="#FEFECE" filter="url(#f1i1s5k3c8bax3)" height="65.6094" id="ResultsValidation" style="stroke:#A80036;stroke-width:1.5;" width="133" x="708" y="183"/><ellipse cx="723" cy="199" fill="#ADD1B2" rx="11" ry="11" style="stroke:#A80036;stroke-width:1.0;"/><path d="M725.3438,194.6719 C724.4063,194.2344 723.8125,194.0938 722.9375,194.0938 C720.3125,194.0938 718.3125,196.1719 718.3125,198.8906 L718.3125,200.0156 C718.3125,202.5938 720.4219,204.4844 723.3125,204.4844 C724.5313,204.4844 725.6875,204.1875 726.4375,203.6406 C727.0156,203.2344 727.3438,202.7813 727.3438,202.3906 C727.3438,201.9375 726.9531,201.5469 726.4844,201.5469 C726.2656,201.5469 726.0625,201.625 725.875,201.8125 C725.4219,202.2969 725.4219,202.2969 725.2344,202.3906 C724.8125,202.6563 724.125,202.7813 723.3594,202.7813 C721.3125,202.7813 720.0156,201.6875 720.0156,199.9844 L720.0156,198.8906 C720.0156,197.1094 721.2656,195.7969 723,195.7969 C723.5781,195.7969 724.1875,195.9531 724.6563,196.2031 C725.1406,196.4844 725.3125,196.7031 725.4063,197.1094 C725.4688,197.5156 725.5,197.6406 725.6406,197.7656 C725.7813,197.9063 726.0156,198.0156 726.2344,198.0156 C726.5,198.0156 726.7656,197.875 726.9375,197.6563 C727.0469,197.5 727.0781,197.3125 727.0781,196.8906 L727.0781,195.4688 C727.0781,195.0313 727.0625,194.9063 726.9688,194.75 C726.8125,194.4844 726.5313,194.3438 726.2344,194.3438 C725.9375,194.3438 725.7344,194.4375 725.5156,194.75 L725.3438,194.6719 Z " fill="#000000"/><text fill="#000000" font-family="sans-serif" font-size="12" lengthAdjust="spacing" textLength="101" x="737" y="203.1543">ResultsValidation</text><line style="stroke:#A80036;stroke-width:1.5;" x1="709" x2="840" y1="215" y2="215"/><text fill="#000000" font-family="sans-serif" font-size="11" lengthAdjust="spacing" textLength="40" x="714" y="229.2104">-param</text><text fill="#000000" font-family="sans-serif" font-size="11" lengthAdjust="spacing" textLength="41" x="714" y="242.0151">-isValid</text><!--MD5=[1ae83efc6d1967ce5bc17dfe294d00c2]
link Sample to Test--><path codeLine="41" d="M484.773,45.9 C547.133,55.641 671.006,74.99 734.294,84.876 " fill="none" id="Sample-Test" style="stroke:#A80036;stroke-width:1.0;"/><polygon fill="#000000" points="572.9401,52.3381,564.4569,48.0384,563.5498,53.8458,572.9401,52.3381" style="stroke:#000000;stroke-width:1.0;"/><text fill="#000000" font-family="sans-serif" font-size="13" lengthAdjust="spacing" textLength="100" x="577" y="56.0669">is associated to</text><text fill="#000000" font-family="sans-serif" font-size="13" lengthAdjust="spacing" textLength="7" x="492.5671" y="60.4858">*</text><text fill="#000000" font-family="sans-serif" font-size="13" lengthAdjust="spacing" textLength="23" x="703.3765" y="79.8501">1..*</text><!--MD5=[20675b07f1baf04abd59eb605a4ad598]
link ClinicalChemistryTechnologist to TestResult--><path codeLine="42" d="M217.136,141 C277.989,141 351.785,141 398.575,141 " fill="none" id="ClinicalChemistryTechnologist-TestResult" style="stroke:#A80036;stroke-width:1.0;"/><polygon fill="#000000" points="257,132.5664,247.9549,129.6275,247.9549,135.5053,257,132.5664" style="stroke:#000000;stroke-width:1.0;"/><text fill="#000000" font-family="sans-serif" font-size="13" lengthAdjust="spacing" textLength="67" x="261" y="137.0669">introduces</text><text fill="#000000" font-family="sans-serif" font-size="13" lengthAdjust="spacing" textLength="24" x="225.0061" y="153.5753">1..2</text><text fill="#000000" font-family="sans-serif" font-size="13" lengthAdjust="spacing" textLength="23" x="368.0252" y="154.0614">1..*</text><!--MD5=[c2be6b75ecd41e0f035d28ad1bcdf8da]
link TestResult to Test--><path codeLine="43" d="M493.087,133.942 C557.599,124.063 673.702,106.283 734.29,97.005 " fill="none" id="TestResult-Test" style="stroke:#A80036;stroke-width:1.0;"/><polygon fill="#000000" points="616.4424,95.8095,607.0567,94.2737,607.9464,100.0838,616.4424,95.8095" style="stroke:#000000;stroke-width:1.0;"/><text fill="#000000" font-family="sans-serif" font-size="13" lengthAdjust="spacing" textLength="13" x="620.5" y="101.0669">to</text><text fill="#000000" font-family="sans-serif" font-size="13" lengthAdjust="spacing" textLength="24" x="501.0268" y="146.1035">1..2</text><text fill="#000000" font-family="sans-serif" font-size="13" lengthAdjust="spacing" textLength="23" x="703.3719" y="111.1333">1..*</text><!--MD5=[8c823f5434cb0bd2f28532319f4bd830]
link TestResult to ResultsValidation--><path codeLine="44" d="M493.087,151.587 C549.161,164.467 644.214,186.302 707.908,200.9329 " fill="none" id="TestResult-ResultsValidation" style="stroke:#A80036;stroke-width:1.0;"/><polygon fill="#000000" points="581.6269,159.447,589.7845,164.3363,591.1004,158.6077,581.6269,159.447" style="stroke:#000000;stroke-width:1.0;"/><text fill="#000000" font-family="sans-serif" font-size="13" lengthAdjust="spacing" textLength="63" x="595.5" y="165.0669">is done to</text><text fill="#000000" font-family="sans-serif" font-size="13" lengthAdjust="spacing" textLength="24" x="501.0268" y="166.1195">1..2</text><text fill="#000000" font-family="sans-serif" font-size="13" lengthAdjust="spacing" textLength="23" x="676.8548" y="212.2464">1..*</text><!--MD5=[90d46d58f9f0347b7db72b45a2d1bb0d]
link ValidationAPI to ResultsValidation--><path codeLine="45" d="M533.161,257.6938 C576.854,257.6279 630.575,255.3483 678,247 C687.785,245.2774 697.948,242.7851 707.834,239.9512 " fill="none" id="ValidationAPI-ResultsValidation" style="stroke:#A80036;stroke-width:1.0;"/><polygon fill="#000000" points="596.0256,239.0717,605.3214,241.0815,604.7274,235.2337,596.0256,239.0717" style="stroke:#000000;stroke-width:1.0;"/><text fill="#000000" font-family="sans-serif" font-size="13" lengthAdjust="spacing" textLength="34" x="610" y="243.0669">using</text><text fill="#000000" font-family="sans-serif" font-size="13" lengthAdjust="spacing" textLength="24" x="541.0629" y="270.5696">1..2</text><text fill="#000000" font-family="sans-serif" font-size="13" lengthAdjust="spacing" textLength="23" x="676.7731" y="255.2885">1..*</text><!--MD5=[b3f2747bc98740f21ab7941d0183375f]
@startuml
hide methods
left to right direction
skinparam classAttributeIconSize 0


class ClinicalChemistryTechnologist {

}

class TestResult {
  -param
  -result 
}


class Test {
  -param
  -barcode
  -typeOfTest
  -date

}

class Sample {
-barcode
-date
}

class ValidationAPI {
-key
-parameterIdentifier
-referenceDate
-referenceMeasurementUnit
}

class ResultsValidation {
-param
-isValid
}

Sample "*" - - "1..*" Test: is associated to >
ClinicalChemistryTechnologist "1..2" - - "1..*" TestResult: introduces >
TestResult "1..2" - - "1..*" Test: to >
TestResult "1..2" - - "1..*" ResultsValidation: is done to <
ValidationAPI "1..2" - - "1..*" ResultsValidation: using <
@enduml

PlantUML version 1.2021.7beta1(Unknown compile time)
(GPL source distribution)
Java Runtime: Java(TM) SE Runtime Environment
JVM: Java HotSpot(TM) 64-Bit Server VM
Default Encoding: UTF-8
Language: en
Country: US
--></g></svg>