<?xml version="1.0" encoding="UTF-8" standalone="no"?>
<svg xmlns="http://www.w3.org/2000/svg" xmlns:xlink="http://www.w3.org/1999/xlink" contentScriptType="application/ecmascript" contentStyleType="text/css" height="808px" preserveAspectRatio="none" style="width:1493px;height:808px;background:#FFFFFF;" version="1.1" viewBox="0 0 1493 808" width="1493px" zoomAndPan="magnify"><defs><filter height="300%" id="f1jg6v63fqqbar" width="300%" x="-1" y="-1"><feGaussianBlur result="blurOut" stdDeviation="2.0"/><feColorMatrix in="blurOut" result="blurOut2" type="matrix" values="0 0 0 0 0 0 0 0 0 0 0 0 0 0 0 0 0 0 .4 0"/><feOffset dx="4.0" dy="4.0" in="blurOut2" result="blurOut3"/><feBlend in="SourceGraphic" in2="blurOut3" mode="normal"/></filter></defs><g><rect fill="#FFFFFF" filter="url(#f1jg6v63fqqbar)" height="607.4531" style="stroke:#A80036;stroke-width:1.0;" width="10" x="53" y="98.2969"/><rect fill="#FFFFFF" filter="url(#f1jg6v63fqqbar)" height="267.2578" style="stroke:#A80036;stroke-width:1.0;" width="10" x="355" y="177.6953"/><rect fill="#FFFFFF" filter="url(#f1jg6v63fqqbar)" height="231.6641" style="stroke:#A80036;stroke-width:1.0;" width="10" x="355" y="474.0859"/><rect fill="#FFFFFF" filter="url(#f1jg6v63fqqbar)" height="208.9922" style="stroke:#A80036;stroke-width:1.0;" width="10" x="647" y="206.8281"/><rect fill="#FFFFFF" filter="url(#f1jg6v63fqqbar)" height="166.3984" style="stroke:#A80036;stroke-width:1.0;" width="10" x="647" y="503.2188"/><rect fill="#FFFFFF" filter="url(#f1jg6v63fqqbar)" height="30" style="stroke:#A80036;stroke-width:1.0;" width="10" x="913" y="235.9609"/><rect fill="#FFFFFF" filter="url(#f1jg6v63fqqbar)" height="29.1328" style="stroke:#A80036;stroke-width:1.0;" width="10" x="1071" y="295.0938"/><rect fill="#FFFFFF" filter="url(#f1jg6v63fqqbar)" height="30" style="stroke:#A80036;stroke-width:1.0;" width="10" x="1071" y="385.8203"/><rect fill="#FFFFFF" filter="url(#f1jg6v63fqqbar)" height="137.2656" style="stroke:#A80036;stroke-width:1.0;" width="10" x="1071" y="532.3516"/><rect fill="#FFFFFF" filter="url(#f1jg6v63fqqbar)" height="28" style="stroke:#A80036;stroke-width:1.0;" width="10" x="1076" y="569.4844"/><rect fill="#FFFFFF" filter="url(#f1jg6v63fqqbar)" height="28" style="stroke:#A80036;stroke-width:1.0;" width="10" x="1076" y="641.6172"/><line style="stroke:#A80036;stroke-width:1.0;stroke-dasharray:5.0,5.0;" x1="58" x2="58" y1="88.2969" y2="723.75"/><line style="stroke:#A80036;stroke-width:1.0;stroke-dasharray:5.0,5.0;" x1="360" x2="360" y1="88.2969" y2="723.75"/><line style="stroke:#A80036;stroke-width:1.0;stroke-dasharray:5.0,5.0;" x1="651.5" x2="651.5" y1="88.2969" y2="723.75"/><line style="stroke:#A80036;stroke-width:1.0;stroke-dasharray:5.0,5.0;" x1="917.5" x2="917.5" y1="88.2969" y2="723.75"/><line style="stroke:#A80036;stroke-width:1.0;stroke-dasharray:5.0,5.0;" x1="1075.5" x2="1075.5" y1="88.2969" y2="723.75"/><line style="stroke:#A80036;stroke-width:1.0;stroke-dasharray:5.0,5.0;" x1="1398" x2="1398" y1="343.8906" y2="723.75"/><text fill="#000000" font-family="sans-serif" font-size="14" lengthAdjust="spacing" textLength="100" x="5" y="84.9951">Administrator</text><ellipse cx="58" cy="15" fill="#FEFECE" filter="url(#f1jg6v63fqqbar)" rx="8" ry="8" style="stroke:#A80036;stroke-width:2.0;"/><path d="M58,23 L58,50 M45,31 L71,31 M58,50 L45,65 M58,50 L71,65 " fill="none" filter="url(#f1jg6v63fqqbar)" style="stroke:#A80036;stroke-width:2.0;"/><text fill="#000000" font-family="sans-serif" font-size="14" lengthAdjust="spacing" textLength="100" x="5" y="735.7451">Administrator</text><ellipse cx="58" cy="749.0469" fill="#FEFECE" filter="url(#f1jg6v63fqqbar)" rx="8" ry="8" style="stroke:#A80036;stroke-width:2.0;"/><path d="M58,757.0469 L58,784.0469 M45,765.0469 L71,765.0469 M58,784.0469 L45,799.0469 M58,784.0469 L71,799.0469 " fill="none" filter="url(#f1jg6v63fqqbar)" style="stroke:#A80036;stroke-width:2.0;"/><rect fill="#FEFECE" filter="url(#f1jg6v63fqqbar)" height="46.5938" style="stroke:#A80036;stroke-width:1.5;" width="144" x="286" y="36.7031"/><text fill="#000000" font-family="sans-serif" font-size="14" lengthAdjust="spacing" textLength="130" x="293" y="56.6982">:CreateParameter</text><text fill="#000000" font-family="sans-serif" font-size="14" lengthAdjust="spacing" textLength="79" x="318.5" y="72.9951">CategoryUi</text><rect fill="#FEFECE" filter="url(#f1jg6v63fqqbar)" height="46.5938" style="stroke:#A80036;stroke-width:1.5;" width="144" x="286" y="722.75"/><text fill="#000000" font-family="sans-serif" font-size="14" lengthAdjust="spacing" textLength="130" x="293" y="742.7451">:CreateParameter</text><text fill="#000000" font-family="sans-serif" font-size="14" lengthAdjust="spacing" textLength="79" x="318.5" y="759.042">CategoryUi</text><rect fill="#FEFECE" filter="url(#f1jg6v63fqqbar)" height="46.5938" style="stroke:#A80036;stroke-width:1.5;" width="153" x="573.5" y="36.7031"/><text fill="#000000" font-family="sans-serif" font-size="14" lengthAdjust="spacing" textLength="130" x="585" y="56.6982">:CreateParameter</text><text fill="#000000" font-family="sans-serif" font-size="14" lengthAdjust="spacing" textLength="139" x="580.5" y="72.9951">CategoryController</text><rect fill="#FEFECE" filter="url(#f1jg6v63fqqbar)" height="46.5938" style="stroke:#A80036;stroke-width:1.5;" width="153" x="573.5" y="722.75"/><text fill="#000000" font-family="sans-serif" font-size="14" lengthAdjust="spacing" textLength="130" x="585" y="742.7451">:CreateParameter</text><text fill="#000000" font-family="sans-serif" font-size="14" lengthAdjust="spacing" textLength="139" x="580.5" y="759.042">CategoryController</text><rect fill="#FEFECE" filter="url(#f1jg6v63fqqbar)" height="30.2969" style="stroke:#A80036;stroke-width:1.5;" width="87" x="872.5" y="53"/><text fill="#000000" font-family="sans-serif" font-size="14" lengthAdjust="spacing" textLength="73" x="879.5" y="72.9951">:Company</text><rect fill="#FEFECE" filter="url(#f1jg6v63fqqbar)" height="30.2969" style="stroke:#A80036;stroke-width:1.5;" width="87" x="872.5" y="722.75"/><text fill="#000000" font-family="sans-serif" font-size="14" lengthAdjust="spacing" textLength="73" x="879.5" y="742.7451">:Company</text><rect fill="#FEFECE" filter="url(#f1jg6v63fqqbar)" height="30.2969" style="stroke:#A80036;stroke-width:1.5;" width="201" x="973.5" y="53"/><text fill="#000000" font-family="sans-serif" font-size="14" lengthAdjust="spacing" textLength="187" x="980.5" y="72.9951">:ParameterCategoryStore</text><rect fill="#FEFECE" filter="url(#f1jg6v63fqqbar)" height="30.2969" style="stroke:#A80036;stroke-width:1.5;" width="201" x="973.5" y="722.75"/><text fill="#000000" font-family="sans-serif" font-size="14" lengthAdjust="spacing" textLength="187" x="980.5" y="742.7451">:ParameterCategoryStore</text><rect fill="#FEFECE" filter="url(#f1jg6v63fqqbar)" height="46.5938" style="stroke:#A80036;stroke-width:1.5;" width="165" x="1314" y="722.75"/><text fill="#000000" font-family="sans-serif" font-size="14" lengthAdjust="spacing" textLength="23" x="1385" y="742.7451">pc:</text><text fill="#000000" font-family="sans-serif" font-size="14" lengthAdjust="spacing" textLength="151" x="1321" y="759.042">:Parameter Category</text><rect fill="#FFFFFF" filter="url(#f1jg6v63fqqbar)" height="607.4531" style="stroke:#A80036;stroke-width:1.0;" width="10" x="53" y="98.2969"/><rect fill="#FFFFFF" filter="url(#f1jg6v63fqqbar)" height="267.2578" style="stroke:#A80036;stroke-width:1.0;" width="10" x="355" y="177.6953"/><rect fill="#FFFFFF" filter="url(#f1jg6v63fqqbar)" height="231.6641" style="stroke:#A80036;stroke-width:1.0;" width="10" x="355" y="474.0859"/><rect fill="#FFFFFF" filter="url(#f1jg6v63fqqbar)" height="208.9922" style="stroke:#A80036;stroke-width:1.0;" width="10" x="647" y="206.8281"/><rect fill="#FFFFFF" filter="url(#f1jg6v63fqqbar)" height="166.3984" style="stroke:#A80036;stroke-width:1.0;" width="10" x="647" y="503.2188"/><rect fill="#FFFFFF" filter="url(#f1jg6v63fqqbar)" height="30" style="stroke:#A80036;stroke-width:1.0;" width="10" x="913" y="235.9609"/><rect fill="#FFFFFF" filter="url(#f1jg6v63fqqbar)" height="29.1328" style="stroke:#A80036;stroke-width:1.0;" width="10" x="1071" y="295.0938"/><rect fill="#FFFFFF" filter="url(#f1jg6v63fqqbar)" height="30" style="stroke:#A80036;stroke-width:1.0;" width="10" x="1071" y="385.8203"/><rect fill="#FFFFFF" filter="url(#f1jg6v63fqqbar)" height="137.2656" style="stroke:#A80036;stroke-width:1.0;" width="10" x="1071" y="532.3516"/><rect fill="#FFFFFF" filter="url(#f1jg6v63fqqbar)" height="28" style="stroke:#A80036;stroke-width:1.0;" width="10" x="1076" y="569.4844"/><rect fill="#FFFFFF" filter="url(#f1jg6v63fqqbar)" height="28" style="stroke:#A80036;stroke-width:1.0;" width="10" x="1076" y="641.6172"/><polygon fill="#A80036" points="348,115.4297,358,119.4297,348,123.4297,352,119.4297" style="stroke:#A80036;stroke-width:1.0;"/><line style="stroke:#A80036;stroke-width:1.0;" x1="63" x2="354" y1="119.4297" y2="119.4297"/><text fill="#000000" font-family="sans-serif" font-size="13" font-weight="bold" lengthAdjust="spacing" textLength="9" x="70" y="114.3638">1</text><text fill="#000000" font-family="sans-serif" font-size="13" lengthAdjust="spacing" textLength="203" x="83" y="114.3638">starts new Parameter Category</text><polygon fill="#A80036" points="74,144.5625,64,148.5625,74,152.5625,70,148.5625" style="stroke:#A80036;stroke-width:1.0;"/><line style="stroke:#A80036;stroke-width:1.0;stroke-dasharray:2.0,2.0;" x1="68" x2="359" y1="148.5625" y2="148.5625"/><text fill="#000000" font-family="sans-serif" font-size="13" font-weight="bold" lengthAdjust="spacing" textLength="9" x="80" y="143.4966">2</text><text fill="#000000" font-family="sans-serif" font-size="13" lengthAdjust="spacing" textLength="260" x="93" y="143.4966">requests necessary data(ie.,code,name)</text><polygon fill="#A80036" points="343,173.6953,353,177.6953,343,181.6953,347,177.6953" style="stroke:#A80036;stroke-width:1.0;"/><line style="stroke:#A80036;stroke-width:1.0;" x1="63" x2="349" y1="177.6953" y2="177.6953"/><text fill="#000000" font-family="sans-serif" font-size="13" font-weight="bold" lengthAdjust="spacing" textLength="8" x="70" y="172.6294">3</text><text fill="#000000" font-family="sans-serif" font-size="13" lengthAdjust="spacing" textLength="164" x="82" y="172.6294">types the necessary data</text><polygon fill="#A80036" points="635,202.8281,645,206.8281,635,210.8281,639,206.8281" style="stroke:#A80036;stroke-width:1.0;"/><line style="stroke:#A80036;stroke-width:1.0;" x1="365" x2="641" y1="206.8281" y2="206.8281"/><text fill="#000000" font-family="sans-serif" font-size="13" font-weight="bold" lengthAdjust="spacing" textLength="9" x="372" y="201.7622">4</text><text fill="#000000" font-family="sans-serif" font-size="13" lengthAdjust="spacing" textLength="250" x="385" y="201.7622">createParameterCategory(code,name)</text><polygon fill="#A80036" points="901,231.9609,911,235.9609,901,239.9609,905,235.9609" style="stroke:#A80036;stroke-width:1.0;"/><line style="stroke:#A80036;stroke-width:1.0;" x1="657" x2="907" y1="235.9609" y2="235.9609"/><text fill="#000000" font-family="sans-serif" font-size="13" font-weight="bold" lengthAdjust="spacing" textLength="9" x="664" y="230.895">5</text><text fill="#000000" font-family="sans-serif" font-size="13" lengthAdjust="spacing" textLength="224" x="677" y="230.895">cs = getParamaterCategoryStore()</text><polygon fill="#A80036" points="1059,291.0938,1069,295.0938,1059,299.0938,1063,295.0938" style="stroke:#A80036;stroke-width:1.0;"/><line style="stroke:#A80036;stroke-width:1.0;" x1="657" x2="1065" y1="295.0938" y2="295.0938"/><text fill="#000000" font-family="sans-serif" font-size="13" font-weight="bold" lengthAdjust="spacing" textLength="9" x="664" y="290.0278">6</text><text fill="#000000" font-family="sans-serif" font-size="13" lengthAdjust="spacing" textLength="283" x="677" y="290.0278">pc = createParameterCategory(code,name)</text><polygon fill="#A80036" points="1302,320.2266,1312,324.2266,1302,328.2266,1306,324.2266" style="stroke:#A80036;stroke-width:1.0;"/><line style="stroke:#A80036;stroke-width:1.0;" x1="1076" x2="1308" y1="324.2266" y2="324.2266"/><text fill="#000000" font-family="sans-serif" font-size="13" font-weight="bold" lengthAdjust="spacing" textLength="9" x="1083" y="319.1606">7</text><text fill="#000000" font-family="sans-serif" font-size="13" lengthAdjust="spacing" textLength="196" x="1096" y="319.1606">create(code,description,nhsID)</text><rect fill="#FEFECE" filter="url(#f1jg6v63fqqbar)" height="46.5938" style="stroke:#A80036;stroke-width:1.5;" width="165" x="1314" y="303.0938"/><text fill="#000000" font-family="sans-serif" font-size="14" lengthAdjust="spacing" textLength="23" x="1385" y="323.0889">pc:</text><text fill="#000000" font-family="sans-serif" font-size="14" lengthAdjust="spacing" textLength="151" x="1321" y="339.3857">:Parameter Category</text><polygon fill="#A80036" points="1059,381.8203,1069,385.8203,1059,389.8203,1063,385.8203" style="stroke:#A80036;stroke-width:1.0;"/><line style="stroke:#A80036;stroke-width:1.0;" x1="657" x2="1065" y1="385.8203" y2="385.8203"/><text fill="#000000" font-family="sans-serif" font-size="13" font-weight="bold" lengthAdjust="spacing" textLength="9" x="664" y="380.7544">8</text><text fill="#000000" font-family="sans-serif" font-size="13" lengthAdjust="spacing" textLength="203" x="677" y="380.7544">validateParameterCategory(pc)</text><polygon fill="#A80036" points="74,440.9531,64,444.9531,74,448.9531,70,444.9531" style="stroke:#A80036;stroke-width:1.0;"/><line style="stroke:#A80036;stroke-width:1.0;stroke-dasharray:2.0,2.0;" x1="68" x2="359" y1="444.9531" y2="444.9531"/><text fill="#000000" font-family="sans-serif" font-size="13" font-weight="bold" lengthAdjust="spacing" textLength="9" x="80" y="439.8872">9</text><text fill="#000000" font-family="sans-serif" font-size="13" lengthAdjust="spacing" textLength="247" x="93" y="439.8872">shows data and requests confirmation</text><polygon fill="#A80036" points="343,470.0859,353,474.0859,343,478.0859,347,474.0859" style="stroke:#A80036;stroke-width:1.0;"/><line style="stroke:#A80036;stroke-width:1.0;" x1="63" x2="349" y1="474.0859" y2="474.0859"/><text fill="#000000" font-family="sans-serif" font-size="13" font-weight="bold" lengthAdjust="spacing" textLength="19" x="70" y="469.02">10</text><text fill="#000000" font-family="sans-serif" font-size="13" lengthAdjust="spacing" textLength="114" x="93" y="469.02">confirms the data</text><polygon fill="#A80036" points="635,499.2188,645,503.2188,635,507.2188,639,503.2188" style="stroke:#A80036;stroke-width:1.0;"/><line style="stroke:#A80036;stroke-width:1.0;" x1="365" x2="641" y1="503.2188" y2="503.2188"/><text fill="#000000" font-family="sans-serif" font-size="13" font-weight="bold" lengthAdjust="spacing" textLength="18" x="372" y="498.1528">11</text><text fill="#000000" font-family="sans-serif" font-size="13" lengthAdjust="spacing" textLength="168" x="394" y="498.1528">saveParameterCategory()</text><polygon fill="#A80036" points="1059,528.3516,1069,532.3516,1059,536.3516,1063,532.3516" style="stroke:#A80036;stroke-width:1.0;"/><line style="stroke:#A80036;stroke-width:1.0;" x1="657" x2="1065" y1="532.3516" y2="532.3516"/><text fill="#000000" font-family="sans-serif" font-size="13" font-weight="bold" lengthAdjust="spacing" textLength="18" x="664" y="527.2856">12</text><text fill="#000000" font-family="sans-serif" font-size="13" lengthAdjust="spacing" textLength="183" x="686" y="527.2856">saveParameterCategory(pc)</text><line style="stroke:#A80036;stroke-width:1.0;" x1="1086" x2="1128" y1="561.4844" y2="561.4844"/><line style="stroke:#A80036;stroke-width:1.0;" x1="1128" x2="1128" y1="561.4844" y2="574.4844"/><line style="stroke:#A80036;stroke-width:1.0;" x1="1087" x2="1128" y1="574.4844" y2="574.4844"/><polygon fill="#A80036" points="1097,570.4844,1087,574.4844,1097,578.4844,1093,574.4844" style="stroke:#A80036;stroke-width:1.0;"/><text fill="#000000" font-family="sans-serif" font-size="13" font-weight="bold" lengthAdjust="spacing" textLength="17" x="1093" y="556.4185">13</text><text fill="#000000" font-family="sans-serif" font-size="13" lengthAdjust="spacing" textLength="203" x="1114" y="556.4185">validateParameterCategory(pc)</text><line style="stroke:#A80036;stroke-width:1.0;" x1="1086" x2="1128" y1="633.6172" y2="633.6172"/><line style="stroke:#A80036;stroke-width:1.0;" x1="1128" x2="1128" y1="633.6172" y2="646.6172"/><line style="stroke:#A80036;stroke-width:1.0;" x1="1087" x2="1128" y1="646.6172" y2="646.6172"/><polygon fill="#A80036" points="1097,642.6172,1087,646.6172,1097,650.6172,1093,646.6172" style="stroke:#A80036;stroke-width:1.0;"/><text fill="#000000" font-family="sans-serif" font-size="13" font-weight="bold" lengthAdjust="spacing" textLength="18" x="1093" y="628.5513">14</text><text fill="#000000" font-family="sans-serif" font-size="13" lengthAdjust="spacing" textLength="183" x="1115" y="628.5513">saveParameterCategory(pc)</text><polygon fill="#A80036" points="69,701.75,59,705.75,69,709.75,65,705.75" style="stroke:#A80036;stroke-width:1.0;"/><line style="stroke:#A80036;stroke-width:1.0;stroke-dasharray:2.0,2.0;" x1="63" x2="359" y1="705.75" y2="705.75"/><text fill="#000000" font-family="sans-serif" font-size="13" font-weight="bold" lengthAdjust="spacing" textLength="18" x="75" y="700.6841">15</text><text fill="#000000" font-family="sans-serif" font-size="13" lengthAdjust="spacing" textLength="170" x="97" y="700.6841">informs operation Success</text><!--MD5=[96a0cced6a7f80681566cc24d274239d]
@startuml
autonumber
actor "Administrator" as ADM

participant ":CreateParameter\nCategoryUi" as UI
participant ":CreateParameter\nCategoryController" as CTRL
participant ":Company" as COMP
participant ":ParameterCategoryStore" as PCT



participant "pc:\n:Parameter Category" as PC


activate ADM
ADM -> UI : starts new Parameter Category

UI - -> ADM : requests necessary data(ie.,code,name)
deactivate UI

ADM -> UI : types the necessary data
activate UI
UI -> CTRL: createParameterCategory(code,name)
activate CTRL
CTRL -> COMP : cs = getParamaterCategoryStore()
activate COMP
deactivate COMP
CTRL -> PCT: pc = createParameterCategory(code,name)
activate PCT
PCT -> PC ** : create(code,description,nhsID)
deactivate PCT
CTRL -> PCT : validateParameterCategory(pc)
activate PCT
deactivate PCT
deactivate CTRL
UI - -> ADM : shows data and requests confirmation
deactivate UI

ADM -> UI : confirms the data
activate UI
UI -> CTRL: saveParameterCategory()
activate CTRL
CTRL -> PCT :saveParameterCategory(pc)
activate PCT
PCT -> PCT: validateParameterCategory(pc)
activate PCT
deactivate PCT
PCT -> PCT: saveParameterCategory(pc)
activate PCT
deactivate PCT
deactivate PCT
deactivate CTRL
UI - -> ADM: informs operation Success
deactivate UI
deactivate ADM



deactivate ADM
@enduml

PlantUML version 1.2021.6beta6(Unknown compile time)
(GPL source distribution)
Java Runtime: Java(TM) SE Runtime Environment
JVM: Java HotSpot(TM) 64-Bit Server VM
Default Encoding: UTF-8
Language: en
Country: US
--></g></svg>