<?xml version="1.0" encoding="UTF-8" standalone="no"?><svg xmlns="http://www.w3.org/2000/svg" xmlns:xlink="http://www.w3.org/1999/xlink" contentScriptType="application/ecmascript" contentStyleType="text/css" height="367px" preserveAspectRatio="none" style="width:411px;height:367px;background:#FFFFFF;" version="1.1" viewBox="0 0 411 367" width="411px" zoomAndPan="magnify"><defs><filter height="300%" id="fsyco2m9o9i34" width="300%" x="-1" y="-1"><feGaussianBlur result="blurOut" stdDeviation="2.0"/><feColorMatrix in="blurOut" result="blurOut2" type="matrix" values="0 0 0 0 0 0 0 0 0 0 0 0 0 0 0 0 0 0 .4 0"/><feOffset dx="4.0" dy="4.0" in="blurOut2" result="blurOut3"/><feBlend in="SourceGraphic" in2="blurOut3" mode="normal"/></filter></defs><g><rect fill="#FFFFFF" filter="url(#fsyco2m9o9i34)" height="166.7969" style="stroke:#A80036;stroke-width:1.0;" width="10" x="53" y="98.2969"/><rect fill="#FFFFFF" filter="url(#fsyco2m9o9i34)" height="29.1328" style="stroke:#A80036;stroke-width:1.0;" width="10" x="358" y="119.4297"/><rect fill="#FFFFFF" filter="url(#fsyco2m9o9i34)" height="29.1328" style="stroke:#A80036;stroke-width:1.0;" width="10" x="358" y="177.6953"/><rect fill="#FFFFFF" filter="url(#fsyco2m9o9i34)" height="29.1328" style="stroke:#A80036;stroke-width:1.0;" width="10" x="358" y="235.9609"/><line style="stroke:#A80036;stroke-width:1.0;stroke-dasharray:5.0,5.0;" x1="58" x2="58" y1="88.2969" y2="283.0938"/><line style="stroke:#A80036;stroke-width:1.0;stroke-dasharray:5.0,5.0;" x1="362.5" x2="362.5" y1="88.2969" y2="283.0938"/><text fill="#000000" font-family="sans-serif" font-size="14" lengthAdjust="spacing" textLength="100" x="5" y="84.9951">Administrator</text><ellipse cx="58" cy="15" fill="#FEFECE" filter="url(#fsyco2m9o9i34)" rx="8" ry="8" style="stroke:#A80036;stroke-width:2.0;"/><path d="M58,23 L58,50 M45,31 L71,31 M58,50 L45,65 M58,50 L71,65 " fill="none" filter="url(#fsyco2m9o9i34)" style="stroke:#A80036;stroke-width:2.0;"/><text fill="#000000" font-family="sans-serif" font-size="14" lengthAdjust="spacing" textLength="100" x="5" y="295.0889">Administrator</text><ellipse cx="58" cy="308.3906" fill="#FEFECE" filter="url(#fsyco2m9o9i34)" rx="8" ry="8" style="stroke:#A80036;stroke-width:2.0;"/><path d="M58,316.3906 L58,343.3906 M45,324.3906 L71,324.3906 M58,343.3906 L45,358.3906 M58,343.3906 L71,358.3906 " fill="none" filter="url(#fsyco2m9o9i34)" style="stroke:#A80036;stroke-width:2.0;"/><rect fill="#FEFECE" filter="url(#fsyco2m9o9i34)" height="30.2969" style="stroke:#A80036;stroke-width:1.5;" width="73" x="324.5" y="53"/><text fill="#000000" font-family="sans-serif" font-size="14" lengthAdjust="spacing" textLength="59" x="331.5" y="72.9951">:System</text><rect fill="#FEFECE" filter="url(#fsyco2m9o9i34)" height="30.2969" style="stroke:#A80036;stroke-width:1.5;" width="73" x="324.5" y="282.0938"/><text fill="#000000" font-family="sans-serif" font-size="14" lengthAdjust="spacing" textLength="59" x="331.5" y="302.0889">:System</text><rect fill="#FFFFFF" filter="url(#fsyco2m9o9i34)" height="166.7969" style="stroke:#A80036;stroke-width:1.0;" width="10" x="53" y="98.2969"/><rect fill="#FFFFFF" filter="url(#fsyco2m9o9i34)" height="29.1328" style="stroke:#A80036;stroke-width:1.0;" width="10" x="358" y="119.4297"/><rect fill="#FFFFFF" filter="url(#fsyco2m9o9i34)" height="29.1328" style="stroke:#A80036;stroke-width:1.0;" width="10" x="358" y="177.6953"/><rect fill="#FFFFFF" filter="url(#fsyco2m9o9i34)" height="29.1328" style="stroke:#A80036;stroke-width:1.0;" width="10" x="358" y="235.9609"/><polygon fill="#A80036" points="346,115.4297,356,119.4297,346,123.4297,350,119.4297" style="stroke:#A80036;stroke-width:1.0;"/><line style="stroke:#A80036;stroke-width:1.0;" x1="63" x2="352" y1="119.4297" y2="119.4297"/><text fill="#000000" font-family="sans-serif" font-size="13" font-weight="bold" lengthAdjust="spacing" textLength="9" x="70" y="114.3638">1</text><text fill="#000000" font-family="sans-serif" font-size="13" lengthAdjust="spacing" textLength="201" x="83" y="114.3638">starts new parameter category</text><polygon fill="#A80036" points="74,144.5625,64,148.5625,74,152.5625,70,148.5625" style="stroke:#A80036;stroke-width:1.0;"/><line style="stroke:#A80036;stroke-width:1.0;stroke-dasharray:2.0,2.0;" x1="68" x2="362" y1="148.5625" y2="148.5625"/><text fill="#000000" font-family="sans-serif" font-size="13" font-weight="bold" lengthAdjust="spacing" textLength="9" x="80" y="143.4966">2</text><text fill="#000000" font-family="sans-serif" font-size="13" lengthAdjust="spacing" textLength="179" x="93" y="143.4966">resquest data (name, code)</text><polygon fill="#A80036" points="346,173.6953,356,177.6953,346,181.6953,350,177.6953" style="stroke:#A80036;stroke-width:1.0;"/><line style="stroke:#A80036;stroke-width:1.0;" x1="63" x2="352" y1="177.6953" y2="177.6953"/><text fill="#000000" font-family="sans-serif" font-size="13" font-weight="bold" lengthAdjust="spacing" textLength="8" x="70" y="172.6294">3</text><text fill="#000000" font-family="sans-serif" font-size="13" lengthAdjust="spacing" textLength="138" x="82" y="172.6294">types requested data</text><polygon fill="#A80036" points="74,202.8281,64,206.8281,74,210.8281,70,206.8281" style="stroke:#A80036;stroke-width:1.0;"/><line style="stroke:#A80036;stroke-width:1.0;stroke-dasharray:2.0,2.0;" x1="68" x2="362" y1="206.8281" y2="206.8281"/><text fill="#000000" font-family="sans-serif" font-size="13" font-weight="bold" lengthAdjust="spacing" textLength="9" x="80" y="201.7622">4</text><text fill="#000000" font-family="sans-serif" font-size="13" lengthAdjust="spacing" textLength="258" x="93" y="201.7622">shows all data and request confirmation</text><polygon fill="#A80036" points="346,231.9609,356,235.9609,346,239.9609,350,235.9609" style="stroke:#A80036;stroke-width:1.0;"/><line style="stroke:#A80036;stroke-width:1.0;" x1="63" x2="352" y1="235.9609" y2="235.9609"/><text fill="#000000" font-family="sans-serif" font-size="13" font-weight="bold" lengthAdjust="spacing" textLength="9" x="70" y="230.895">5</text><text fill="#000000" font-family="sans-serif" font-size="13" lengthAdjust="spacing" textLength="114" x="83" y="230.895">confirms the data</text><polygon fill="#A80036" points="69,261.0938,59,265.0938,69,269.0938,65,265.0938" style="stroke:#A80036;stroke-width:1.0;"/><line style="stroke:#A80036;stroke-width:1.0;stroke-dasharray:2.0,2.0;" x1="63" x2="362" y1="265.0938" y2="265.0938"/><text fill="#000000" font-family="sans-serif" font-size="13" font-weight="bold" lengthAdjust="spacing" textLength="9" x="75" y="260.0278">6</text><text fill="#000000" font-family="sans-serif" font-size="13" lengthAdjust="spacing" textLength="169" x="88" y="260.0278">informs operation success</text><!--MD5=[8634703f874c8d0d16e25acf77fe7b24]
@startuml
autonumber
actor "Administrator" as ADMIN

activate ADMIN
ADMIN-> ":System" : starts new parameter category
activate ":System"
":System" - -> ADMIN : resquest data (name, code)
deactivate ":System"

ADMIN -> ":System" : types requested data
activate ":System"

":System" - -> ADMIN : shows all data and request confirmation 
deactivate ":System"

ADMIN -> ":System" : confirms the data
activate ":System"

":System" - -> ADMIN : informs operation success 
deactivate ":System"

deactivate ADMIN
@enduml

PlantUML version 1.2021.6beta6(Unknown compile time)
(GPL source distribution)
Java Runtime: Java(TM) SE Runtime Environment
JVM: Java HotSpot(TM) 64-Bit Server VM
Default Encoding: UTF-8
Language: en
Country: US
--></g></svg>