<?xml version="1.0" encoding="UTF-8" standalone="no"?><svg xmlns="http://www.w3.org/2000/svg" xmlns:xlink="http://www.w3.org/1999/xlink" contentScriptType="application/ecmascript" contentStyleType="text/css" height="768px" preserveAspectRatio="none" style="width:319px;height:768px;background:#FFFFFF;" version="1.1" viewBox="0 0 319 768" width="319px" zoomAndPan="magnify"><defs><filter height="300%" id="f1ky258zq9e8zq" width="300%" x="-1" y="-1"><feGaussianBlur result="blurOut" stdDeviation="2.0"/><feColorMatrix in="blurOut" result="blurOut2" type="matrix" values="0 0 0 0 0 0 0 0 0 0 0 0 0 0 0 0 0 0 .4 0"/><feOffset dx="4.0" dy="4.0" in="blurOut2" result="blurOut3"/><feBlend in="SourceGraphic" in2="blurOut3" mode="normal"/></filter></defs><g><!--MD5=[02e4b9b7573f1156f41e60aa5b4e25a4]
class Company--><rect codeLine="3" fill="#FEFECE" filter="url(#f1ky258zq9e8zq)" height="86.4141" id="Company" style="stroke:#A80036;stroke-width:1.5;" width="190" x="61" y="261"/><ellipse cx="123.75" cy="277" fill="#ADD1B2" rx="11" ry="11" style="stroke:#A80036;stroke-width:1.0;"/><path d="M126.0938,272.6719 C125.1563,272.2344 124.5625,272.0938 123.6875,272.0938 C121.0625,272.0938 119.0625,274.1719 119.0625,276.8906 L119.0625,278.0156 C119.0625,280.5938 121.1719,282.4844 124.0625,282.4844 C125.2813,282.4844 126.4375,282.1875 127.1875,281.6406 C127.7656,281.2344 128.0938,280.7813 128.0938,280.3906 C128.0938,279.9375 127.7031,279.5469 127.2344,279.5469 C127.0156,279.5469 126.8125,279.625 126.625,279.8125 C126.1719,280.2969 126.1719,280.2969 125.9844,280.3906 C125.5625,280.6563 124.875,280.7813 124.1094,280.7813 C122.0625,280.7813 120.7656,279.6875 120.7656,277.9844 L120.7656,276.8906 C120.7656,275.1094 122.0156,273.7969 123.75,273.7969 C124.3281,273.7969 124.9375,273.9531 125.4063,274.2031 C125.8906,274.4844 126.0625,274.7031 126.1563,275.1094 C126.2188,275.5156 126.25,275.6406 126.3906,275.7656 C126.5313,275.9063 126.7656,276.0156 126.9844,276.0156 C127.25,276.0156 127.5156,275.875 127.6875,275.6563 C127.7969,275.5 127.8281,275.3125 127.8281,274.8906 L127.8281,273.4688 C127.8281,273.0313 127.8125,272.9063 127.7188,272.75 C127.5625,272.4844 127.2813,272.3438 126.9844,272.3438 C126.6875,272.3438 126.4844,272.4375 126.2656,272.75 L126.0938,272.6719 Z " fill="#000000"/><text fill="#000000" font-family="sans-serif" font-size="12" lengthAdjust="spacing" textLength="56" x="144.25" y="281.1543">Company</text><line style="stroke:#A80036;stroke-width:1.5;" x1="62" x2="250" y1="293" y2="293"/><text fill="#000000" font-family="sans-serif" font-size="11" lengthAdjust="spacing" textLength="107" x="67" y="307.2104">-String designation</text><line style="stroke:#A80036;stroke-width:1.5;" x1="62" x2="250" y1="313.8047" y2="313.8047"/><text fill="#000000" font-family="sans-serif" font-size="11" lengthAdjust="spacing" textLength="178" x="67" y="328.0151">+getParameterCategoryStore()</text><text fill="#000000" font-family="sans-serif" font-size="11" lengthAdjust="spacing" textLength="126" x="67" y="340.8198">+getParameterStore()</text><!--MD5=[d802db621b5b215a6f0466f93cefcb42]
class ParameterCategoryStore--><rect codeLine="10" fill="#FEFECE" filter="url(#f1ky258zq9e8zq)" height="163.2422" id="ParameterCategoryStore" style="stroke:#A80036;stroke-width:1.5;" width="298" x="7" y="407"/><ellipse cx="77.25" cy="423" fill="#ADD1B2" rx="11" ry="11" style="stroke:#A80036;stroke-width:1.0;"/><path d="M79.5938,418.6719 C78.6563,418.2344 78.0625,418.0938 77.1875,418.0938 C74.5625,418.0938 72.5625,420.1719 72.5625,422.8906 L72.5625,424.0156 C72.5625,426.5938 74.6719,428.4844 77.5625,428.4844 C78.7813,428.4844 79.9375,428.1875 80.6875,427.6406 C81.2656,427.2344 81.5938,426.7813 81.5938,426.3906 C81.5938,425.9375 81.2031,425.5469 80.7344,425.5469 C80.5156,425.5469 80.3125,425.625 80.125,425.8125 C79.6719,426.2969 79.6719,426.2969 79.4844,426.3906 C79.0625,426.6563 78.375,426.7813 77.6094,426.7813 C75.5625,426.7813 74.2656,425.6875 74.2656,423.9844 L74.2656,422.8906 C74.2656,421.1094 75.5156,419.7969 77.25,419.7969 C77.8281,419.7969 78.4375,419.9531 78.9063,420.2031 C79.3906,420.4844 79.5625,420.7031 79.6563,421.1094 C79.7188,421.5156 79.75,421.6406 79.8906,421.7656 C80.0313,421.9063 80.2656,422.0156 80.4844,422.0156 C80.75,422.0156 81.0156,421.875 81.1875,421.6563 C81.2969,421.5 81.3281,421.3125 81.3281,420.8906 L81.3281,419.4688 C81.3281,419.0313 81.3125,418.9063 81.2188,418.75 C81.0625,418.4844 80.7813,418.3438 80.4844,418.3438 C80.1875,418.3438 79.9844,418.4375 79.7656,418.75 L79.5938,418.6719 Z " fill="#000000"/><text fill="#000000" font-family="sans-serif" font-size="12" lengthAdjust="spacing" textLength="149" x="97.75" y="427.1543">ParameterCategoryStore</text><line style="stroke:#A80036;stroke-width:1.5;" x1="8" x2="304" y1="439" y2="439"/><text fill="#000000" font-family="sans-serif" font-size="11" lengthAdjust="spacing" textLength="285" x="13" y="453.2104">-parameterCategories : List&lt;ParameterCategory&gt;</text><line style="stroke:#A80036;stroke-width:1.5;" x1="8" x2="304" y1="459.8047" y2="459.8047"/><text fill="#000000" font-family="sans-serif" font-size="11" lengthAdjust="spacing" textLength="229" x="13" y="474.0151">+createParameterCategory(code,name)</text><text fill="#000000" font-family="sans-serif" font-size="11" lengthAdjust="spacing" textLength="157" x="13" y="486.8198">+getParameterCategories()</text><text fill="#000000" font-family="sans-serif" font-size="11" lengthAdjust="spacing" textLength="286" x="13" y="499.6245">+validateParameterCategory(parameterCategory)</text><text fill="#000000" font-family="sans-serif" font-size="11" lengthAdjust="spacing" textLength="268" x="13" y="512.4292">+saveParameterCategory(parameterCategory)</text><text fill="#000000" font-family="sans-serif" font-size="11" lengthAdjust="spacing" textLength="256" x="13" y="525.2339">-addParameterCategory(parameterCategory)</text><text fill="#000000" font-family="sans-serif" font-size="11" lengthAdjust="spacing" textLength="134" x="13" y="538.0386">-checkCodeRules(code)</text><text fill="#000000" font-family="sans-serif" font-size="11" lengthAdjust="spacing" textLength="143" x="13" y="550.8433">-checkNameRules(name)</text><text fill="#000000" font-family="sans-serif" font-size="11" lengthAdjust="spacing" textLength="242" x="13" y="563.6479">+getParameterCategoryByCode(category)</text><!--MD5=[36afb6bbd95a8ac778c4537c55a683d5]
class ParameterCategory--><rect codeLine="22" fill="#FEFECE" filter="url(#f1ky258zq9e8zq)" height="124.8281" id="ParameterCategory" style="stroke:#A80036;stroke-width:1.5;" width="208" x="52" y="630"/><ellipse cx="94" cy="646" fill="#ADD1B2" rx="11" ry="11" style="stroke:#A80036;stroke-width:1.0;"/><path d="M96.3438,641.6719 C95.4063,641.2344 94.8125,641.0938 93.9375,641.0938 C91.3125,641.0938 89.3125,643.1719 89.3125,645.8906 L89.3125,647.0156 C89.3125,649.5938 91.4219,651.4844 94.3125,651.4844 C95.5313,651.4844 96.6875,651.1875 97.4375,650.6406 C98.0156,650.2344 98.3438,649.7813 98.3438,649.3906 C98.3438,648.9375 97.9531,648.5469 97.4844,648.5469 C97.2656,648.5469 97.0625,648.625 96.875,648.8125 C96.4219,649.2969 96.4219,649.2969 96.2344,649.3906 C95.8125,649.6563 95.125,649.7813 94.3594,649.7813 C92.3125,649.7813 91.0156,648.6875 91.0156,646.9844 L91.0156,645.8906 C91.0156,644.1094 92.2656,642.7969 94,642.7969 C94.5781,642.7969 95.1875,642.9531 95.6563,643.2031 C96.1406,643.4844 96.3125,643.7031 96.4063,644.1094 C96.4688,644.5156 96.5,644.6406 96.6406,644.7656 C96.7813,644.9063 97.0156,645.0156 97.2344,645.0156 C97.5,645.0156 97.7656,644.875 97.9375,644.6563 C98.0469,644.5 98.0781,644.3125 98.0781,643.8906 L98.0781,642.4688 C98.0781,642.0313 98.0625,641.9063 97.9688,641.75 C97.8125,641.4844 97.5313,641.3438 97.2344,641.3438 C96.9375,641.3438 96.7344,641.4375 96.5156,641.75 L96.3438,641.6719 Z " fill="#000000"/><text fill="#000000" font-family="sans-serif" font-size="12" lengthAdjust="spacing" textLength="116" x="114" y="650.1543">ParameterCategory</text><line style="stroke:#A80036;stroke-width:1.5;" x1="53" x2="259" y1="662" y2="662"/><text fill="#000000" font-family="sans-serif" font-size="11" lengthAdjust="spacing" textLength="69" x="58" y="676.2104">-String code</text><text fill="#000000" font-family="sans-serif" font-size="11" lengthAdjust="spacing" textLength="74" x="58" y="689.0151">-String name</text><line style="stroke:#A80036;stroke-width:1.5;" x1="53" x2="259" y1="695.6094" y2="695.6094"/><text fill="#000000" font-family="sans-serif" font-size="11" lengthAdjust="spacing" textLength="196" x="58" y="709.8198">+ParameterCategory(code, name)</text><text fill="#000000" font-family="sans-serif" font-size="11" lengthAdjust="spacing" textLength="70" x="58" y="722.6245">+getName()</text><text fill="#000000" font-family="sans-serif" font-size="11" lengthAdjust="spacing" textLength="66" x="58" y="735.4292">+getCode()</text><text fill="#000000" font-family="sans-serif" font-size="11" lengthAdjust="spacing" textLength="61" x="58" y="748.2339">+toString()</text><!--MD5=[2e424feda2155268d05ff16d31532c4c]
class ParameterCategoryUI--><rect codeLine="31" fill="#FEFECE" filter="url(#f1ky258zq9e8zq)" height="48" id="ParameterCategoryUI" style="stroke:#A80036;stroke-width:1.5;" width="160" x="76" y="7"/><ellipse cx="91" cy="23" fill="#ADD1B2" rx="11" ry="11" style="stroke:#A80036;stroke-width:1.0;"/><path d="M93.3438,18.6719 C92.4063,18.2344 91.8125,18.0938 90.9375,18.0938 C88.3125,18.0938 86.3125,20.1719 86.3125,22.8906 L86.3125,24.0156 C86.3125,26.5938 88.4219,28.4844 91.3125,28.4844 C92.5313,28.4844 93.6875,28.1875 94.4375,27.6406 C95.0156,27.2344 95.3438,26.7813 95.3438,26.3906 C95.3438,25.9375 94.9531,25.5469 94.4844,25.5469 C94.2656,25.5469 94.0625,25.625 93.875,25.8125 C93.4219,26.2969 93.4219,26.2969 93.2344,26.3906 C92.8125,26.6563 92.125,26.7813 91.3594,26.7813 C89.3125,26.7813 88.0156,25.6875 88.0156,23.9844 L88.0156,22.8906 C88.0156,21.1094 89.2656,19.7969 91,19.7969 C91.5781,19.7969 92.1875,19.9531 92.6563,20.2031 C93.1406,20.4844 93.3125,20.7031 93.4063,21.1094 C93.4688,21.5156 93.5,21.6406 93.6406,21.7656 C93.7813,21.9063 94.0156,22.0156 94.2344,22.0156 C94.5,22.0156 94.7656,21.875 94.9375,21.6563 C95.0469,21.5 95.0781,21.3125 95.0781,20.8906 L95.0781,19.4688 C95.0781,19.0313 95.0625,18.9063 94.9688,18.75 C94.8125,18.4844 94.5313,18.3438 94.2344,18.3438 C93.9375,18.3438 93.7344,18.4375 93.5156,18.75 L93.3438,18.6719 Z " fill="#000000"/><text fill="#000000" font-family="sans-serif" font-size="12" lengthAdjust="spacing" textLength="128" x="105" y="27.1543">ParameterCategoryUI</text><line style="stroke:#A80036;stroke-width:1.5;" x1="77" x2="235" y1="39" y2="39"/><line style="stroke:#A80036;stroke-width:1.5;" x1="77" x2="235" y1="47" y2="47"/><!--MD5=[e4805efb471f21888ce917dd7b42e704]
class ParameterCategoryController--><rect codeLine="34" fill="#FEFECE" filter="url(#f1ky258zq9e8zq)" height="86.4141" id="ParameterCategoryController" style="stroke:#A80036;stroke-width:1.5;" width="241" x="35.5" y="115"/><ellipse cx="65.8" cy="131" fill="#ADD1B2" rx="11" ry="11" style="stroke:#A80036;stroke-width:1.0;"/><path d="M68.1438,126.6719 C67.2063,126.2344 66.6125,126.0938 65.7375,126.0938 C63.1125,126.0938 61.1125,128.1719 61.1125,130.8906 L61.1125,132.0156 C61.1125,134.5938 63.2219,136.4844 66.1125,136.4844 C67.3313,136.4844 68.4875,136.1875 69.2375,135.6406 C69.8156,135.2344 70.1438,134.7813 70.1438,134.3906 C70.1438,133.9375 69.7531,133.5469 69.2844,133.5469 C69.0656,133.5469 68.8625,133.625 68.675,133.8125 C68.2219,134.2969 68.2219,134.2969 68.0344,134.3906 C67.6125,134.6563 66.925,134.7813 66.1594,134.7813 C64.1125,134.7813 62.8156,133.6875 62.8156,131.9844 L62.8156,130.8906 C62.8156,129.1094 64.0656,127.7969 65.8,127.7969 C66.3781,127.7969 66.9875,127.9531 67.4563,128.2031 C67.9406,128.4844 68.1125,128.7031 68.2063,129.1094 C68.2688,129.5156 68.3,129.6406 68.4406,129.7656 C68.5813,129.9063 68.8156,130.0156 69.0344,130.0156 C69.3,130.0156 69.5656,129.875 69.7375,129.6563 C69.8469,129.5 69.8781,129.3125 69.8781,128.8906 L69.8781,127.4688 C69.8781,127.0313 69.8625,126.9063 69.7688,126.75 C69.6125,126.4844 69.3313,126.3438 69.0344,126.3438 C68.7375,126.3438 68.5344,126.4375 68.3156,126.75 L68.1438,126.6719 Z " fill="#000000"/><text fill="#000000" font-family="sans-serif" font-size="12" lengthAdjust="spacing" textLength="175" x="83.2" y="135.1543">ParameterCategoryController</text><line style="stroke:#A80036;stroke-width:1.5;" x1="36.5" x2="275.5" y1="147" y2="147"/><line style="stroke:#A80036;stroke-width:1.5;" x1="36.5" x2="275.5" y1="155" y2="155"/><text fill="#000000" font-family="sans-serif" font-size="11" lengthAdjust="spacing" textLength="183" x="41.5" y="169.2104">+ParameterCategoryController()</text><text fill="#000000" font-family="sans-serif" font-size="11" lengthAdjust="spacing" textLength="156" x="41.5" y="182.0151">+saveParameterCategory()</text><text fill="#000000" font-family="sans-serif" font-size="11" lengthAdjust="spacing" textLength="229" x="41.5" y="194.8198">+createParameterCategory(code,name)</text><!--MD5=[e80db5e5f485c9c1c590330c9df9fdd9]
link ParameterCategoryUI to ParameterCategoryController--><path codeLine="40" d="M156,55.219 C156,70.514 156,91.087 156,109.734 " fill="none" id="ParameterCategoryUI-to-ParameterCategoryController" style="stroke:#A80036;stroke-width:1.0;stroke-dasharray:7.0,7.0;"/><polygon fill="#A80036" points="156,114.936,160,105.936,156,109.936,152,105.936,156,114.936" style="stroke:#A80036;stroke-width:1.0;"/><!--MD5=[b243f9c45cc74d25152363bfca133fd7]
link ParameterCategoryController to Company--><path codeLine="41" d="M156,201.038 C156,218.04 156,237.756 156,255.293 " fill="none" id="ParameterCategoryController-to-Company" style="stroke:#A80036;stroke-width:1.0;stroke-dasharray:7.0,7.0;"/><polygon fill="#A80036" points="156,260.661,160,251.661,156,255.661,152,251.661,156,260.661" style="stroke:#A80036;stroke-width:1.0;"/><!--MD5=[d53d7490e5836ca5709858d7326f212b]
link Company to ParameterCategoryStore--><path codeLine="43" d="M156,347.328 C156,363.498 156,382.577 156,401.367 " fill="none" id="Company-to-ParameterCategoryStore" style="stroke:#A80036;stroke-width:1.0;"/><polygon fill="#A80036" points="156,406.656,160,397.656,156,401.656,152,397.656,156,406.656" style="stroke:#A80036;stroke-width:1.0;"/><text fill="#000000" font-family="sans-serif" font-size="13" lengthAdjust="spacing" textLength="8" x="147.3625" y="367.4732">1</text><text fill="#000000" font-family="sans-serif" font-size="13" lengthAdjust="spacing" textLength="8" x="147.6563" y="396.0402">1</text><!--MD5=[d6274e3b73b5bc8f467c6cfbf5bf003e]
link ParameterCategoryStore to ParameterCategory--><path codeLine="44" d="M156,570.207 C156,588.232 156,607.158 156,624.556 " fill="none" id="ParameterCategoryStore-to-ParameterCategory" style="stroke:#A80036;stroke-width:1.0;"/><polygon fill="#A80036" points="156,629.904,160,620.904,156,624.904,152,620.904,156,629.904" style="stroke:#A80036;stroke-width:1.0;"/><text fill="#000000" font-family="sans-serif" font-size="13" lengthAdjust="spacing" textLength="8" x="147.6438" y="590.214">1</text><text fill="#000000" font-family="sans-serif" font-size="13" lengthAdjust="spacing" textLength="8" x="147.5375" y="618.8837">1</text><!--MD5=[09f9cc2e62e9ee543e720d984fabd513]
@startuml
skinparam classAttributeIconSize 0

class Company
{
  -String designation
  +getParameterCategoryStore()
  +getParameterStore()
}

class ParameterCategoryStore {
-parameterCategories : List<ParameterCategory>
+createParameterCategory(code,name)
+getParameterCategories()
+validateParameterCategory(parameterCategory)
+saveParameterCategory(parameterCategory)
-addParameterCategory(parameterCategory)
-checkCodeRules(code)
-checkNameRules(name)
+getParameterCategoryByCode(category)
}

class ParameterCategory {
  -String code
  -String name
  +ParameterCategory(code, name)
  +getName()
  +getCode()
  +toString()
}

class ParameterCategoryUI {
}

class ParameterCategoryController {
  +ParameterCategoryController()
  +saveParameterCategory()
  +createParameterCategory(code,name)
}

ParameterCategoryUI ..> ParameterCategoryController
ParameterCategoryController ..> Company

Company "1" - -> "1" ParameterCategoryStore 
ParameterCategoryStore "1" - -> "1" ParameterCategory
@enduml

PlantUML version 1.2021.6beta6(Unknown compile time)
(GPL source distribution)
Java Runtime: Java(TM) SE Runtime Environment
JVM: Java HotSpot(TM) 64-Bit Server VM
Default Encoding: UTF-8
Language: en
Country: US
--></g></svg>