<?xml version="1.0" encoding="UTF-8" standalone="no"?><svg xmlns="http://www.w3.org/2000/svg" xmlns:xlink="http://www.w3.org/1999/xlink" contentScriptType="application/ecmascript" contentStyleType="text/css" height="629px" preserveAspectRatio="none" style="width:811px;height:629px;background:#FFFFFF;" version="1.1" viewBox="0 0 811 629" width="811px" zoomAndPan="magnify"><defs><filter height="300%" id="f7hba0wak4ysu" width="300%" x="-1" y="-1"><feGaussianBlur result="blurOut" stdDeviation="2.0"/><feColorMatrix in="blurOut" result="blurOut2" type="matrix" values="0 0 0 0 0 0 0 0 0 0 0 0 0 0 0 0 0 0 .4 0"/><feOffset dx="4.0" dy="4.0" in="blurOut2" result="blurOut3"/><feBlend in="SourceGraphic" in2="blurOut3" mode="normal"/></filter></defs><g><!--MD5=[4e608140b854dae633589343bce77383]
class TestParameterResult--><rect codeLine="5" fill="#FEFECE" filter="url(#f7hba0wak4ysu)" height="78.4141" id="TestParameterResult" style="stroke:#A80036;stroke-width:1.5;" width="155" x="467.5" y="537"/><ellipse cx="482.5" cy="553" fill="#ADD1B2" rx="11" ry="11" style="stroke:#A80036;stroke-width:1.0;"/><path d="M484.8438,548.6719 C483.9063,548.2344 483.3125,548.0938 482.4375,548.0938 C479.8125,548.0938 477.8125,550.1719 477.8125,552.8906 L477.8125,554.0156 C477.8125,556.5938 479.9219,558.4844 482.8125,558.4844 C484.0313,558.4844 485.1875,558.1875 485.9375,557.6406 C486.5156,557.2344 486.8438,556.7813 486.8438,556.3906 C486.8438,555.9375 486.4531,555.5469 485.9844,555.5469 C485.7656,555.5469 485.5625,555.625 485.375,555.8125 C484.9219,556.2969 484.9219,556.2969 484.7344,556.3906 C484.3125,556.6563 483.625,556.7813 482.8594,556.7813 C480.8125,556.7813 479.5156,555.6875 479.5156,553.9844 L479.5156,552.8906 C479.5156,551.1094 480.7656,549.7969 482.5,549.7969 C483.0781,549.7969 483.6875,549.9531 484.1563,550.2031 C484.6406,550.4844 484.8125,550.7031 484.9063,551.1094 C484.9688,551.5156 485,551.6406 485.1406,551.7656 C485.2813,551.9063 485.5156,552.0156 485.7344,552.0156 C486,552.0156 486.2656,551.875 486.4375,551.6563 C486.5469,551.5 486.5781,551.3125 486.5781,550.8906 L486.5781,549.4688 C486.5781,549.0313 486.5625,548.9063 486.4688,548.75 C486.3125,548.4844 486.0313,548.3438 485.7344,548.3438 C485.4375,548.3438 485.2344,548.4375 485.0156,548.75 L484.8438,548.6719 Z " fill="#000000"/><text fill="#000000" font-family="sans-serif" font-size="12" lengthAdjust="spacing" textLength="123" x="496.5" y="557.1543">TestParameterResult</text><line style="stroke:#A80036;stroke-width:1.5;" x1="468.5" x2="621.5" y1="569" y2="569"/><text fill="#000000" font-family="sans-serif" font-size="11" lengthAdjust="spacing" textLength="60" x="473.5" y="583.2104">-createdAt</text><text fill="#000000" font-family="sans-serif" font-size="11" lengthAdjust="spacing" textLength="36" x="473.5" y="596.0151">-value</text><text fill="#000000" font-family="sans-serif" font-size="11" lengthAdjust="spacing" textLength="40" x="473.5" y="608.8198">-metric</text><!--MD5=[1f6362a5c8f21d8d6a0fce68f3a92a4e]
class Parameter--><rect codeLine="12" fill="#FEFECE" filter="url(#f7hba0wak4ysu)" height="78.4141" id="Parameter" style="stroke:#A80036;stroke-width:1.5;" width="93" x="498.5" y="382"/><ellipse cx="513.5" cy="398" fill="#ADD1B2" rx="11" ry="11" style="stroke:#A80036;stroke-width:1.0;"/><path d="M515.8438,393.6719 C514.9063,393.2344 514.3125,393.0938 513.4375,393.0938 C510.8125,393.0938 508.8125,395.1719 508.8125,397.8906 L508.8125,399.0156 C508.8125,401.5938 510.9219,403.4844 513.8125,403.4844 C515.0313,403.4844 516.1875,403.1875 516.9375,402.6406 C517.5156,402.2344 517.8438,401.7813 517.8438,401.3906 C517.8438,400.9375 517.4531,400.5469 516.9844,400.5469 C516.7656,400.5469 516.5625,400.625 516.375,400.8125 C515.9219,401.2969 515.9219,401.2969 515.7344,401.3906 C515.3125,401.6563 514.625,401.7813 513.8594,401.7813 C511.8125,401.7813 510.5156,400.6875 510.5156,398.9844 L510.5156,397.8906 C510.5156,396.1094 511.7656,394.7969 513.5,394.7969 C514.0781,394.7969 514.6875,394.9531 515.1563,395.2031 C515.6406,395.4844 515.8125,395.7031 515.9063,396.1094 C515.9688,396.5156 516,396.6406 516.1406,396.7656 C516.2813,396.9063 516.5156,397.0156 516.7344,397.0156 C517,397.0156 517.2656,396.875 517.4375,396.6563 C517.5469,396.5 517.5781,396.3125 517.5781,395.8906 L517.5781,394.4688 C517.5781,394.0313 517.5625,393.9063 517.4688,393.75 C517.3125,393.4844 517.0313,393.3438 516.7344,393.3438 C516.4375,393.3438 516.2344,393.4375 516.0156,393.75 L515.8438,393.6719 Z " fill="#000000"/><text fill="#000000" font-family="sans-serif" font-size="12" lengthAdjust="spacing" textLength="61" x="527.5" y="402.1543">Parameter</text><line style="stroke:#A80036;stroke-width:1.5;" x1="499.5" x2="590.5" y1="414" y2="414"/><text fill="#000000" font-family="sans-serif" font-size="11" lengthAdjust="spacing" textLength="32" x="504.5" y="428.2104">-code</text><text fill="#000000" font-family="sans-serif" font-size="11" lengthAdjust="spacing" textLength="66" x="504.5" y="441.0151">-shortName</text><text fill="#000000" font-family="sans-serif" font-size="11" lengthAdjust="spacing" textLength="66" x="504.5" y="453.8198">-description</text><!--MD5=[df38be88ccee13e832d6fafd6288a4ca]
class Test--><rect codeLine="19" fill="#FEFECE" filter="url(#f7hba0wak4ysu)" height="78.4141" id="Test" style="stroke:#A80036;stroke-width:1.5;" width="72" x="509" y="188.5"/><ellipse cx="530.3" cy="204.5" fill="#ADD1B2" rx="11" ry="11" style="stroke:#A80036;stroke-width:1.0;"/><path d="M532.6438,200.1719 C531.7063,199.7344 531.1125,199.5938 530.2375,199.5938 C527.6125,199.5938 525.6125,201.6719 525.6125,204.3906 L525.6125,205.5156 C525.6125,208.0938 527.7219,209.9844 530.6125,209.9844 C531.8313,209.9844 532.9875,209.6875 533.7375,209.1406 C534.3156,208.7344 534.6438,208.2813 534.6438,207.8906 C534.6438,207.4375 534.2531,207.0469 533.7844,207.0469 C533.5656,207.0469 533.3625,207.125 533.175,207.3125 C532.7219,207.7969 532.7219,207.7969 532.5344,207.8906 C532.1125,208.1563 531.425,208.2813 530.6594,208.2813 C528.6125,208.2813 527.3156,207.1875 527.3156,205.4844 L527.3156,204.3906 C527.3156,202.6094 528.5656,201.2969 530.3,201.2969 C530.8781,201.2969 531.4875,201.4531 531.9563,201.7031 C532.4406,201.9844 532.6125,202.2031 532.7063,202.6094 C532.7688,203.0156 532.8,203.1406 532.9406,203.2656 C533.0813,203.4063 533.3156,203.5156 533.5344,203.5156 C533.8,203.5156 534.0656,203.375 534.2375,203.1563 C534.3469,203 534.3781,202.8125 534.3781,202.3906 L534.3781,200.9688 C534.3781,200.5313 534.3625,200.4063 534.2688,200.25 C534.1125,199.9844 533.8313,199.8438 533.5344,199.8438 C533.2375,199.8438 533.0344,199.9375 532.8156,200.25 L532.6438,200.1719 Z " fill="#000000"/><text fill="#000000" font-family="sans-serif" font-size="12" lengthAdjust="spacing" textLength="26" x="545.7" y="208.6543">Test</text><line style="stroke:#A80036;stroke-width:1.5;" x1="510" x2="580" y1="220.5" y2="220.5"/><text fill="#000000" font-family="sans-serif" font-size="11" lengthAdjust="spacing" textLength="32" x="515" y="234.7104">-code</text><text fill="#000000" font-family="sans-serif" font-size="11" lengthAdjust="spacing" textLength="56" x="515" y="247.5151">-NHScode</text><text fill="#000000" font-family="sans-serif" font-size="11" lengthAdjust="spacing" textLength="60" x="515" y="260.3198">-createdAt</text><!--MD5=[ed6624c6556d5e7b1bd23032162d20b7]
class Client--><rect codeLine="25" fill="#FEFECE" filter="url(#f7hba0wak4ysu)" height="65.6094" id="Client" style="stroke:#A80036;stroke-width:1.5;" width="65" x="268.5" y="194.5"/><ellipse cx="283.5" cy="210.5" fill="#ADD1B2" rx="11" ry="11" style="stroke:#A80036;stroke-width:1.0;"/><path d="M285.8438,206.1719 C284.9063,205.7344 284.3125,205.5938 283.4375,205.5938 C280.8125,205.5938 278.8125,207.6719 278.8125,210.3906 L278.8125,211.5156 C278.8125,214.0938 280.9219,215.9844 283.8125,215.9844 C285.0313,215.9844 286.1875,215.6875 286.9375,215.1406 C287.5156,214.7344 287.8438,214.2813 287.8438,213.8906 C287.8438,213.4375 287.4531,213.0469 286.9844,213.0469 C286.7656,213.0469 286.5625,213.125 286.375,213.3125 C285.9219,213.7969 285.9219,213.7969 285.7344,213.8906 C285.3125,214.1563 284.625,214.2813 283.8594,214.2813 C281.8125,214.2813 280.5156,213.1875 280.5156,211.4844 L280.5156,210.3906 C280.5156,208.6094 281.7656,207.2969 283.5,207.2969 C284.0781,207.2969 284.6875,207.4531 285.1563,207.7031 C285.6406,207.9844 285.8125,208.2031 285.9063,208.6094 C285.9688,209.0156 286,209.1406 286.1406,209.2656 C286.2813,209.4063 286.5156,209.5156 286.7344,209.5156 C287,209.5156 287.2656,209.375 287.4375,209.1563 C287.5469,209 287.5781,208.8125 287.5781,208.3906 L287.5781,206.9688 C287.5781,206.5313 287.5625,206.4063 287.4688,206.25 C287.3125,205.9844 287.0313,205.8438 286.7344,205.8438 C286.4375,205.8438 286.2344,205.9375 286.0156,206.25 L285.8438,206.1719 Z " fill="#000000"/><text fill="#000000" font-family="sans-serif" font-size="12" lengthAdjust="spacing" textLength="33" x="297.5" y="214.6543">Client</text><line style="stroke:#A80036;stroke-width:1.5;" x1="269.5" x2="332.5" y1="226.5" y2="226.5"/><text fill="#000000" font-family="sans-serif" font-size="11" lengthAdjust="spacing" textLength="37" x="274.5" y="240.7104">-name</text><text fill="#000000" font-family="sans-serif" font-size="11" lengthAdjust="spacing" textLength="18" x="274.5" y="253.5151">-tin</text><!--MD5=[7421f545a0d8420c5bec41e74b387d9c]
class Employee--><rect codeLine="30" fill="#FEFECE" filter="url(#f7hba0wak4ysu)" height="155.2422" id="Employee" style="stroke:#A80036;stroke-width:1.5;" width="226" x="7" y="150"/><ellipse cx="85.75" cy="166" fill="#ADD1B2" rx="11" ry="11" style="stroke:#A80036;stroke-width:1.0;"/><path d="M88.0938,161.6719 C87.1563,161.2344 86.5625,161.0938 85.6875,161.0938 C83.0625,161.0938 81.0625,163.1719 81.0625,165.8906 L81.0625,167.0156 C81.0625,169.5938 83.1719,171.4844 86.0625,171.4844 C87.2813,171.4844 88.4375,171.1875 89.1875,170.6406 C89.7656,170.2344 90.0938,169.7813 90.0938,169.3906 C90.0938,168.9375 89.7031,168.5469 89.2344,168.5469 C89.0156,168.5469 88.8125,168.625 88.625,168.8125 C88.1719,169.2969 88.1719,169.2969 87.9844,169.3906 C87.5625,169.6563 86.875,169.7813 86.1094,169.7813 C84.0625,169.7813 82.7656,168.6875 82.7656,166.9844 L82.7656,165.8906 C82.7656,164.1094 84.0156,162.7969 85.75,162.7969 C86.3281,162.7969 86.9375,162.9531 87.4063,163.2031 C87.8906,163.4844 88.0625,163.7031 88.1563,164.1094 C88.2188,164.5156 88.25,164.6406 88.3906,164.7656 C88.5313,164.9063 88.7656,165.0156 88.9844,165.0156 C89.25,165.0156 89.5156,164.875 89.6875,164.6563 C89.7969,164.5 89.8281,164.3125 89.8281,163.8906 L89.8281,162.4688 C89.8281,162.0313 89.8125,161.9063 89.7188,161.75 C89.5625,161.4844 89.2813,161.3438 88.9844,161.3438 C88.6875,161.3438 88.4844,161.4375 88.2656,161.75 L88.0938,161.6719 Z " fill="#000000"/><text fill="#000000" font-family="sans-serif" font-size="12" lengthAdjust="spacing" textLength="60" x="106.25" y="170.1543">Employee</text><line style="stroke:#A80036;stroke-width:1.5;" x1="8" x2="232" y1="182" y2="182"/><text fill="#000000" font-family="sans-serif" font-size="11" lengthAdjust="spacing" textLength="63" x="13" y="196.2104">-userName</text><text fill="#000000" font-family="sans-serif" font-size="11" lengthAdjust="spacing" textLength="57" x="13" y="209.0151">-password</text><text fill="#000000" font-family="sans-serif" font-size="11" lengthAdjust="spacing" textLength="36" x="13" y="221.8198">-email</text><text fill="#000000" font-family="sans-serif" font-size="11" lengthAdjust="spacing" textLength="37" x="13" y="234.6245">-name</text><text fill="#000000" font-family="sans-serif" font-size="11" lengthAdjust="spacing" textLength="14" x="13" y="247.4292">-id</text><text fill="#000000" font-family="sans-serif" font-size="11" lengthAdjust="spacing" textLength="49" x="13" y="260.2339">-address</text><text fill="#000000" font-family="sans-serif" font-size="11" lengthAdjust="spacing" textLength="214" x="13" y="273.0386">-standardOcupationClassificationCode</text><text fill="#000000" font-family="sans-serif" font-size="11" lengthAdjust="spacing" textLength="85" x="13" y="285.8433">-phoneNumber</text><text fill="#000000" font-family="sans-serif" font-size="11" lengthAdjust="spacing" textLength="26" x="13" y="298.6479">-role</text><!--MD5=[aeb3272166074d8737a70b61b1e71682]
class TestType--><rect codeLine="42" fill="#FEFECE" filter="url(#f7hba0wak4ysu)" height="78.4141" id="TestType" style="stroke:#A80036;stroke-width:1.5;" width="112" x="685" y="188.5"/><ellipse cx="710.8" cy="204.5" fill="#ADD1B2" rx="11" ry="11" style="stroke:#A80036;stroke-width:1.0;"/><path d="M713.1438,200.1719 C712.2063,199.7344 711.6125,199.5938 710.7375,199.5938 C708.1125,199.5938 706.1125,201.6719 706.1125,204.3906 L706.1125,205.5156 C706.1125,208.0938 708.2219,209.9844 711.1125,209.9844 C712.3313,209.9844 713.4875,209.6875 714.2375,209.1406 C714.8156,208.7344 715.1438,208.2813 715.1438,207.8906 C715.1438,207.4375 714.7531,207.0469 714.2844,207.0469 C714.0656,207.0469 713.8625,207.125 713.675,207.3125 C713.2219,207.7969 713.2219,207.7969 713.0344,207.8906 C712.6125,208.1563 711.925,208.2813 711.1594,208.2813 C709.1125,208.2813 707.8156,207.1875 707.8156,205.4844 L707.8156,204.3906 C707.8156,202.6094 709.0656,201.2969 710.8,201.2969 C711.3781,201.2969 711.9875,201.4531 712.4563,201.7031 C712.9406,201.9844 713.1125,202.2031 713.2063,202.6094 C713.2688,203.0156 713.3,203.1406 713.4406,203.2656 C713.5813,203.4063 713.8156,203.5156 714.0344,203.5156 C714.3,203.5156 714.5656,203.375 714.7375,203.1563 C714.8469,203 714.8781,202.8125 714.8781,202.3906 L714.8781,200.9688 C714.8781,200.5313 714.8625,200.4063 714.7688,200.25 C714.6125,199.9844 714.3313,199.8438 714.0344,199.8438 C713.7375,199.8438 713.5344,199.9375 713.3156,200.25 L713.1438,200.1719 Z " fill="#000000"/><text fill="#000000" font-family="sans-serif" font-size="12" lengthAdjust="spacing" textLength="56" x="727.2" y="208.6543">TestType</text><line style="stroke:#A80036;stroke-width:1.5;" x1="686" x2="796" y1="220.5" y2="220.5"/><text fill="#000000" font-family="sans-serif" font-size="11" lengthAdjust="spacing" textLength="32" x="691" y="234.7104">-code</text><text fill="#000000" font-family="sans-serif" font-size="11" lengthAdjust="spacing" textLength="66" x="691" y="247.5151">-description</text><text fill="#000000" font-family="sans-serif" font-size="11" lengthAdjust="spacing" textLength="100" x="691" y="260.3198">-collectionMethod</text><!--MD5=[9681492165142af2a4a3a169d90ee8d4]
class Sample--><rect codeLine="49" fill="#FEFECE" filter="url(#f7hba0wak4ysu)" height="65.6094" id="Sample" style="stroke:#A80036;stroke-width:1.5;" width="77" x="506.5" y="7"/><ellipse cx="521.5" cy="23" fill="#ADD1B2" rx="11" ry="11" style="stroke:#A80036;stroke-width:1.0;"/><path d="M523.8438,18.6719 C522.9063,18.2344 522.3125,18.0938 521.4375,18.0938 C518.8125,18.0938 516.8125,20.1719 516.8125,22.8906 L516.8125,24.0156 C516.8125,26.5938 518.9219,28.4844 521.8125,28.4844 C523.0313,28.4844 524.1875,28.1875 524.9375,27.6406 C525.5156,27.2344 525.8438,26.7813 525.8438,26.3906 C525.8438,25.9375 525.4531,25.5469 524.9844,25.5469 C524.7656,25.5469 524.5625,25.625 524.375,25.8125 C523.9219,26.2969 523.9219,26.2969 523.7344,26.3906 C523.3125,26.6563 522.625,26.7813 521.8594,26.7813 C519.8125,26.7813 518.5156,25.6875 518.5156,23.9844 L518.5156,22.8906 C518.5156,21.1094 519.7656,19.7969 521.5,19.7969 C522.0781,19.7969 522.6875,19.9531 523.1563,20.2031 C523.6406,20.4844 523.8125,20.7031 523.9063,21.1094 C523.9688,21.5156 524,21.6406 524.1406,21.7656 C524.2813,21.9063 524.5156,22.0156 524.7344,22.0156 C525,22.0156 525.2656,21.875 525.4375,21.6563 C525.5469,21.5 525.5781,21.3125 525.5781,20.8906 L525.5781,19.4688 C525.5781,19.0313 525.5625,18.9063 525.4688,18.75 C525.3125,18.4844 525.0313,18.3438 524.7344,18.3438 C524.4375,18.3438 524.2344,18.4375 524.0156,18.75 L523.8438,18.6719 Z " fill="#000000"/><text fill="#000000" font-family="sans-serif" font-size="12" lengthAdjust="spacing" textLength="45" x="535.5" y="27.1543">Sample</text><line style="stroke:#A80036;stroke-width:1.5;" x1="507.5" x2="582.5" y1="39" y2="39"/><text fill="#000000" font-family="sans-serif" font-size="11" lengthAdjust="spacing" textLength="50" x="512.5" y="53.2104">-barcode</text><text fill="#000000" font-family="sans-serif" font-size="11" lengthAdjust="spacing" textLength="30" x="512.5" y="66.0151">-date</text><!--MD5=[012ee2a8bf3ae2b319009b06f951c2e5]
class ClinicalChemistryTechnologist--><rect fill="#FEFECE" filter="url(#f7hba0wak4ysu)" height="40" id="ClinicalChemistryTechnologist" style="stroke:#A80036;stroke-width:1.5;" width="210" x="88" y="20"/><ellipse cx="103" cy="36" fill="#ADD1B2" rx="11" ry="11" style="stroke:#A80036;stroke-width:1.0;"/><path d="M105.3438,31.6719 C104.4063,31.2344 103.8125,31.0938 102.9375,31.0938 C100.3125,31.0938 98.3125,33.1719 98.3125,35.8906 L98.3125,37.0156 C98.3125,39.5938 100.4219,41.4844 103.3125,41.4844 C104.5313,41.4844 105.6875,41.1875 106.4375,40.6406 C107.0156,40.2344 107.3438,39.7813 107.3438,39.3906 C107.3438,38.9375 106.9531,38.5469 106.4844,38.5469 C106.2656,38.5469 106.0625,38.625 105.875,38.8125 C105.4219,39.2969 105.4219,39.2969 105.2344,39.3906 C104.8125,39.6563 104.125,39.7813 103.3594,39.7813 C101.3125,39.7813 100.0156,38.6875 100.0156,36.9844 L100.0156,35.8906 C100.0156,34.1094 101.2656,32.7969 103,32.7969 C103.5781,32.7969 104.1875,32.9531 104.6563,33.2031 C105.1406,33.4844 105.3125,33.7031 105.4063,34.1094 C105.4688,34.5156 105.5,34.6406 105.6406,34.7656 C105.7813,34.9063 106.0156,35.0156 106.2344,35.0156 C106.5,35.0156 106.7656,34.875 106.9375,34.6563 C107.0469,34.5 107.0781,34.3125 107.0781,33.8906 L107.0781,32.4688 C107.0781,32.0313 107.0625,31.9063 106.9688,31.75 C106.8125,31.4844 106.5313,31.3438 106.2344,31.3438 C105.9375,31.3438 105.7344,31.4375 105.5156,31.75 L105.3438,31.6719 Z " fill="#000000"/><text fill="#000000" font-family="sans-serif" font-size="12" lengthAdjust="spacing" textLength="178" x="117" y="40.1543">ClinicalChemistryTechnologist</text><line style="stroke:#A80036;stroke-width:1.5;" x1="89" x2="297" y1="52" y2="52"/><!--MD5=[e981d4f96c4342412d1e68160b30cf70]
link Test to TestType--><path codeLine="54" d="M581.407,227.5 C610.412,227.5 651.523,227.5 684.754,227.5 " fill="none" id="Test-TestType" style="stroke:#A80036;stroke-width:1.0;"/><polygon fill="#000000" points="608.5,216.0664,599.4549,213.1275,599.4549,219.0053,608.5,216.0664" style="stroke:#000000;stroke-width:1.0;"/><text fill="#000000" font-family="sans-serif" font-size="13" lengthAdjust="spacing" textLength="54" x="612.5" y="220.5669">contains</text><text fill="#000000" font-family="sans-serif" font-size="13" lengthAdjust="spacing" textLength="8" x="589.1096" y="223.1104">1</text><text fill="#000000" font-family="sans-serif" font-size="13" lengthAdjust="spacing" textLength="8" x="669.035" y="223.5879">1</text><!--MD5=[c23963f6e403fc3ebec8dae22c30ade6]
link Test to Parameter--><path codeLine="55" d="M545,266.793 C545,300.192 545,348.394 545,381.774 " fill="none" id="Test-Parameter" style="stroke:#A80036;stroke-width:1.0;"/><polygon fill="#000000" points="550,348.5664,552.9389,339.5213,547.0611,339.5213,550,348.5664" style="stroke:#000000;stroke-width:1.0;"/><text fill="#000000" font-family="sans-serif" font-size="13" lengthAdjust="spacing" textLength="54" x="559" y="348.0669">contains</text><text fill="#000000" font-family="sans-serif" font-size="13" lengthAdjust="spacing" textLength="8" x="536.3125" y="286.8783">1</text><text fill="#000000" font-family="sans-serif" font-size="13" lengthAdjust="spacing" textLength="23" x="520.0953" y="371.0786">1..*</text><!--MD5=[1ae83efc6d1967ce5bc17dfe294d00c2]
link Sample to Test--><path codeLine="56" d="M545,73.312 C545,105.387 545,154.542 545,188.479 " fill="none" id="Sample-Test" style="stroke:#A80036;stroke-width:1.0;"/><polygon fill="#000000" points="550,116.5664,552.9389,107.5213,547.0611,107.5213,550,116.5664" style="stroke:#000000;stroke-width:1.0;"/><text fill="#000000" font-family="sans-serif" font-size="13" lengthAdjust="spacing" textLength="100" x="559" y="116.0669">is associated to</text><text fill="#000000" font-family="sans-serif" font-size="13" lengthAdjust="spacing" textLength="7" x="537.3766" y="92.6952">*</text><text fill="#000000" font-family="sans-serif" font-size="13" lengthAdjust="spacing" textLength="23" x="520.0234" y="177.5259">1..*</text><!--MD5=[654c20624370ddaa2a203d96342827a5]
link Parameter to TestParameterResult--><path codeLine="57" d="M545,460.214 C545,483.581 545,513.368 545,536.7432 " fill="none" id="Parameter-TestParameterResult" style="stroke:#A80036;stroke-width:1.0;"/><polygon fill="#000000" points="550,503.5664,552.9389,494.5213,547.0611,494.5213,550,503.5664" style="stroke:#000000;stroke-width:1.0;"/><text fill="#000000" font-family="sans-serif" font-size="13" lengthAdjust="spacing" textLength="54" x="559" y="503.0669">contains</text><text fill="#000000" font-family="sans-serif" font-size="13" lengthAdjust="spacing" textLength="8" x="536.2875" y="480.5768">1</text><text fill="#000000" font-family="sans-serif" font-size="13" lengthAdjust="spacing" textLength="8" x="536.3375" y="526.0427">1</text><!--MD5=[502b51bc079239060389dab43b7d3470]
link Client to Test--><path codeLine="58" d="M333.654,227.5 C379.234,227.5 461.647,227.5 508.97,227.5 " fill="none" id="Client-Test" style="stroke:#A80036;stroke-width:1.0;"/><polygon fill="#000000" points="360.75,216.0664,351.7049,213.1275,351.7049,219.0053,360.75,216.0664" style="stroke:#000000;stroke-width:1.0;"/><text fill="#000000" font-family="sans-serif" font-size="13" lengthAdjust="spacing" textLength="126" x="364.75" y="220.5669">who has performed</text><text fill="#000000" font-family="sans-serif" font-size="13" lengthAdjust="spacing" textLength="15" x="341.5593" y="223.1419">1*</text><text fill="#000000" font-family="sans-serif" font-size="13" lengthAdjust="spacing" textLength="23" x="478.0978" y="240.7858">1..*</text><!--MD5=[210cb26c8b1e0069b8005ef22d2cd098]
link ClinicalChemistryTechnologist to Client--><path codeLine="59" d="M204.151,60.153 C222.637,91.904 259.82,155.769 282.352,194.471 " fill="none" id="ClinicalChemistryTechnologist-Client" style="stroke:#A80036;stroke-width:1.0;"/><polygon fill="#000000" points="245.5157,115.8874,243.5046,106.5919,238.4249,109.5493,245.5157,115.8874" style="stroke:#000000;stroke-width:1.0;"/><text fill="#000000" font-family="sans-serif" font-size="13" lengthAdjust="spacing" textLength="45" x="252" y="116.0669">selects</text><text fill="#000000" font-family="sans-serif" font-size="13" lengthAdjust="spacing" textLength="23" x="181.0528" y="80.016">1..*</text><text fill="#000000" font-family="sans-serif" font-size="13" lengthAdjust="spacing" textLength="8" x="269.6808" y="183.2328">1</text><!--MD5=[87a5f0022a2a3a92268bc4ee95033c51]
link ClinicalChemistryTechnologist to Employee--><path codeLine="60" d="M178.99,60.007 C170.773,71.878 160.718,87.756 154,103 C147.498,117.754 141.952,134.056 137.342,149.847 " fill="none" id="ClinicalChemistryTechnologist-Employee" style="stroke:#A80036;stroke-width:1.0;"/><polygon fill="#000000" points="156.8971,116.1027,163.3677,109.1326,158.0349,106.6604,156.8971,116.1027" style="stroke:#000000;stroke-width:1.0;"/><text fill="#000000" font-family="sans-serif" font-size="13" lengthAdjust="spacing" textLength="53" x="168" y="116.0669">plays as</text><text fill="#000000" font-family="sans-serif" font-size="13" lengthAdjust="spacing" textLength="23" x="148.4964" y="80.1736">1..*</text><text fill="#000000" font-family="sans-serif" font-size="13" lengthAdjust="spacing" textLength="8" x="130.572" y="139.0588">1</text><!--MD5=[041db31d86c5a7eaa533d36bfb338638]
@startuml
hide methods
skinparam classAttributeIconSize 0


class TestParameterResult {
  -createdAt
  -value
  -metric 
}


class Parameter {
  -code
  -shortName
  -description
}


class Test {
  -code
  -NHScode
  -createdAt
}

class Client{
 -name
 -tin
}

class Employee {
-userName
-password
-email
-name
-id
-address
-standardOcupationClassificationCode
-phoneNumber
-role
}

class TestType {
  -code
  -description
  -collectionMethod

}

class Sample {
-barcode
-date
}

Test "1" -r- "1" TestType :> contains
Test "1" -d- "1..*" Parameter :> contains
Sample "*" - - "1..*" Test: is associated to >
Parameter "1" - - "1" TestParameterResult: contains >
Client "1*" -r- "1..*" Test: who has performed  >
ClinicalChemistryTechnologist "1..*" - - "1" Client : selects >
ClinicalChemistryTechnologist "1..*" - - "1" Employee : plays as >
@enduml

PlantUML version 1.2021.7(Sun May 23 12:40:07 UTC 2021)
(GPL source distribution)
Java Runtime: Java(TM) SE Runtime Environment
JVM: Java HotSpot(TM) 64-Bit Server VM
Default Encoding: UTF-8
Language: en
Country: US
--></g></svg>