<?xml version="1.0" encoding="UTF-8" standalone="no"?><svg xmlns="http://www.w3.org/2000/svg" xmlns:xlink="http://www.w3.org/1999/xlink" contentScriptType="application/ecmascript" contentStyleType="text/css" height="1309px" preserveAspectRatio="none" style="width:424px;height:1309px;background:#FFFFFF;" version="1.1" viewBox="0 0 424 1309" width="424px" zoomAndPan="magnify"><defs><filter height="300%" id="fwh0ii69gyvj7" width="300%" x="-1" y="-1"><feGaussianBlur result="blurOut" stdDeviation="2.0"/><feColorMatrix in="blurOut" result="blurOut2" type="matrix" values="0 0 0 0 0 0 0 0 0 0 0 0 0 0 0 0 0 0 .4 0"/><feOffset dx="4.0" dy="4.0" in="blurOut2" result="blurOut3"/><feBlend in="SourceGraphic" in2="blurOut3" mode="normal"/></filter></defs><g><!--MD5=[ed6624c6556d5e7b1bd23032162d20b7]
class Client--><rect codeLine="3" fill="#FEFECE" filter="url(#fwh0ii69gyvj7)" height="176.0469" id="Client" style="stroke:#A80036;stroke-width:1.5;" width="127" x="121" y="565"/><ellipse cx="163.9" cy="581" fill="#ADD1B2" rx="11" ry="11" style="stroke:#A80036;stroke-width:1.0;"/><path d="M166.2438,576.6719 C165.3063,576.2344 164.7125,576.0938 163.8375,576.0938 C161.2125,576.0938 159.2125,578.1719 159.2125,580.8906 L159.2125,582.0156 C159.2125,584.5938 161.3219,586.4844 164.2125,586.4844 C165.4313,586.4844 166.5875,586.1875 167.3375,585.6406 C167.9156,585.2344 168.2438,584.7813 168.2438,584.3906 C168.2438,583.9375 167.8531,583.5469 167.3844,583.5469 C167.1656,583.5469 166.9625,583.625 166.775,583.8125 C166.3219,584.2969 166.3219,584.2969 166.1344,584.3906 C165.7125,584.6563 165.025,584.7813 164.2594,584.7813 C162.2125,584.7813 160.9156,583.6875 160.9156,581.9844 L160.9156,580.8906 C160.9156,579.1094 162.1656,577.7969 163.9,577.7969 C164.4781,577.7969 165.0875,577.9531 165.5563,578.2031 C166.0406,578.4844 166.2125,578.7031 166.3063,579.1094 C166.3688,579.5156 166.4,579.6406 166.5406,579.7656 C166.6813,579.9063 166.9156,580.0156 167.1344,580.0156 C167.4,580.0156 167.6656,579.875 167.8375,579.6563 C167.9469,579.5 167.9781,579.3125 167.9781,578.8906 L167.9781,577.4688 C167.9781,577.0313 167.9625,576.9063 167.8688,576.75 C167.7125,576.4844 167.4313,576.3438 167.1344,576.3438 C166.8375,576.3438 166.6344,576.4375 166.4156,576.75 L166.2438,576.6719 Z " fill="#000000"/><text fill="#000000" font-family="sans-serif" font-size="12" lengthAdjust="spacing" textLength="33" x="184.1" y="585.1543">Client</text><line style="stroke:#A80036;stroke-width:1.5;" x1="122" x2="247" y1="597" y2="597"/><text fill="#000000" font-family="sans-serif" font-size="11" lengthAdjust="spacing" textLength="53" x="127" y="611.2104">-ccn:long;</text><text fill="#000000" font-family="sans-serif" font-size="11" lengthAdjust="spacing" textLength="99" x="127" y="624.0151">-nhsNumber:long;</text><text fill="#000000" font-family="sans-serif" font-size="11" lengthAdjust="spacing" textLength="96" x="127" y="636.8198">-birthDate:String;</text><text fill="#000000" font-family="sans-serif" font-size="11" lengthAdjust="spacing" textLength="48" x="127" y="649.6245">-tin:long;</text><text fill="#000000" font-family="sans-serif" font-size="11" lengthAdjust="spacing" textLength="115" x="127" y="662.4292">-phoneNumber:long;</text><text fill="#000000" font-family="sans-serif" font-size="11" lengthAdjust="spacing" textLength="64" x="127" y="675.2339">-sex:String;</text><text fill="#000000" font-family="sans-serif" font-size="11" lengthAdjust="spacing" textLength="75" x="127" y="688.0386">-email:String;</text><text fill="#000000" font-family="sans-serif" font-size="11" lengthAdjust="spacing" textLength="76" x="127" y="700.8433">-name:String;</text><text fill="#000000" font-family="sans-serif" font-size="11" lengthAdjust="spacing" textLength="96" x="127" y="713.6479">-password:String;</text><line style="stroke:#A80036;stroke-width:1.5;" x1="122" x2="247" y1="720.2422" y2="720.2422"/><text fill="#000000" font-family="sans-serif" font-size="11" lengthAdjust="spacing" textLength="61" x="127" y="734.4526">+toString()</text><!--MD5=[594612147f950995a18c1e6474349bc0]
class ClientList--><rect codeLine="18" fill="#FEFECE" filter="url(#fwh0ii69gyvj7)" height="73.6094" id="ClientList" style="stroke:#A80036;stroke-width:1.5;" width="191" x="89" y="414"/><ellipse cx="153.75" cy="430" fill="#ADD1B2" rx="11" ry="11" style="stroke:#A80036;stroke-width:1.0;"/><path d="M156.0938,425.6719 C155.1563,425.2344 154.5625,425.0938 153.6875,425.0938 C151.0625,425.0938 149.0625,427.1719 149.0625,429.8906 L149.0625,431.0156 C149.0625,433.5938 151.1719,435.4844 154.0625,435.4844 C155.2813,435.4844 156.4375,435.1875 157.1875,434.6406 C157.7656,434.2344 158.0938,433.7813 158.0938,433.3906 C158.0938,432.9375 157.7031,432.5469 157.2344,432.5469 C157.0156,432.5469 156.8125,432.625 156.625,432.8125 C156.1719,433.2969 156.1719,433.2969 155.9844,433.3906 C155.5625,433.6563 154.875,433.7813 154.1094,433.7813 C152.0625,433.7813 150.7656,432.6875 150.7656,430.9844 L150.7656,429.8906 C150.7656,428.1094 152.0156,426.7969 153.75,426.7969 C154.3281,426.7969 154.9375,426.9531 155.4063,427.2031 C155.8906,427.4844 156.0625,427.7031 156.1563,428.1094 C156.2188,428.5156 156.25,428.6406 156.3906,428.7656 C156.5313,428.9063 156.7656,429.0156 156.9844,429.0156 C157.25,429.0156 157.5156,428.875 157.6875,428.6563 C157.7969,428.5 157.8281,428.3125 157.8281,427.8906 L157.8281,426.4688 C157.8281,426.0313 157.8125,425.9063 157.7188,425.75 C157.5625,425.4844 157.2813,425.3438 156.9844,425.3438 C156.6875,425.3438 156.4844,425.4375 156.2656,425.75 L156.0938,425.6719 Z " fill="#000000"/><text fill="#000000" font-family="sans-serif" font-size="12" lengthAdjust="spacing" textLength="53" x="174.25" y="434.1543">ClientList</text><line style="stroke:#A80036;stroke-width:1.5;" x1="90" x2="279" y1="446" y2="446"/><line style="stroke:#A80036;stroke-width:1.5;" x1="90" x2="279" y1="454" y2="454"/><text fill="#000000" font-family="sans-serif" font-size="11" lengthAdjust="spacing" textLength="75" x="95" y="468.2104">+getClients()</text><text fill="#000000" font-family="sans-serif" font-size="11" lengthAdjust="spacing" textLength="179" x="95" y="481.0151">+showListOfClientsRegistered()</text><!--MD5=[02e4b9b7573f1156f41e60aa5b4e25a4]
class Company--><rect codeLine="23" fill="#FEFECE" filter="url(#fwh0ii69gyvj7)" height="60.8047" id="Company" style="stroke:#A80036;stroke-width:1.5;" width="100" x="209.5" y="276"/><ellipse cx="229.9" cy="292" fill="#ADD1B2" rx="11" ry="11" style="stroke:#A80036;stroke-width:1.0;"/><path d="M232.2438,287.6719 C231.3063,287.2344 230.7125,287.0938 229.8375,287.0938 C227.2125,287.0938 225.2125,289.1719 225.2125,291.8906 L225.2125,293.0156 C225.2125,295.5938 227.3219,297.4844 230.2125,297.4844 C231.4313,297.4844 232.5875,297.1875 233.3375,296.6406 C233.9156,296.2344 234.2438,295.7813 234.2438,295.3906 C234.2438,294.9375 233.8531,294.5469 233.3844,294.5469 C233.1656,294.5469 232.9625,294.625 232.775,294.8125 C232.3219,295.2969 232.3219,295.2969 232.1344,295.3906 C231.7125,295.6563 231.025,295.7813 230.2594,295.7813 C228.2125,295.7813 226.9156,294.6875 226.9156,292.9844 L226.9156,291.8906 C226.9156,290.1094 228.1656,288.7969 229.9,288.7969 C230.4781,288.7969 231.0875,288.9531 231.5563,289.2031 C232.0406,289.4844 232.2125,289.7031 232.3063,290.1094 C232.3688,290.5156 232.4,290.6406 232.5406,290.7656 C232.6813,290.9063 232.9156,291.0156 233.1344,291.0156 C233.4,291.0156 233.6656,290.875 233.8375,290.6563 C233.9469,290.5 233.9781,290.3125 233.9781,289.8906 L233.9781,288.4688 C233.9781,288.0313 233.9625,287.9063 233.8688,287.75 C233.7125,287.4844 233.4313,287.3438 233.1344,287.3438 C232.8375,287.3438 232.6344,287.4375 232.4156,287.75 L232.2438,287.6719 Z " fill="#000000"/><text fill="#000000" font-family="sans-serif" font-size="12" lengthAdjust="spacing" textLength="56" x="245.1" y="296.1543">Company</text><line style="stroke:#A80036;stroke-width:1.5;" x1="210.5" x2="308.5" y1="308" y2="308"/><line style="stroke:#A80036;stroke-width:1.5;" x1="210.5" x2="308.5" y1="316" y2="316"/><text fill="#000000" font-family="sans-serif" font-size="11" lengthAdjust="spacing" textLength="88" x="215.5" y="330.2104">+getClientList()</text><!--MD5=[6fa060a3f4d7e064010a41e653935bcb]
class SeeTestResultOfSelectedClientController--><rect codeLine="27" fill="#FEFECE" filter="url(#fwh0ii69gyvj7)" height="99.2188" id="SeeTestResultOfSelectedClientController" style="stroke:#A80036;stroke-width:1.5;" width="278" x="120.5" y="116"/><ellipse cx="135.5" cy="132" fill="#ADD1B2" rx="11" ry="11" style="stroke:#A80036;stroke-width:1.0;"/><path d="M137.8438,127.6719 C136.9063,127.2344 136.3125,127.0938 135.4375,127.0938 C132.8125,127.0938 130.8125,129.1719 130.8125,131.8906 L130.8125,133.0156 C130.8125,135.5938 132.9219,137.4844 135.8125,137.4844 C137.0313,137.4844 138.1875,137.1875 138.9375,136.6406 C139.5156,136.2344 139.8438,135.7813 139.8438,135.3906 C139.8438,134.9375 139.4531,134.5469 138.9844,134.5469 C138.7656,134.5469 138.5625,134.625 138.375,134.8125 C137.9219,135.2969 137.9219,135.2969 137.7344,135.3906 C137.3125,135.6563 136.625,135.7813 135.8594,135.7813 C133.8125,135.7813 132.5156,134.6875 132.5156,132.9844 L132.5156,131.8906 C132.5156,130.1094 133.7656,128.7969 135.5,128.7969 C136.0781,128.7969 136.6875,128.9531 137.1563,129.2031 C137.6406,129.4844 137.8125,129.7031 137.9063,130.1094 C137.9688,130.5156 138,130.6406 138.1406,130.7656 C138.2813,130.9063 138.5156,131.0156 138.7344,131.0156 C139,131.0156 139.2656,130.875 139.4375,130.6563 C139.5469,130.5 139.5781,130.3125 139.5781,129.8906 L139.5781,128.4688 C139.5781,128.0313 139.5625,127.9063 139.4688,127.75 C139.3125,127.4844 139.0313,127.3438 138.7344,127.3438 C138.4375,127.3438 138.2344,127.4375 138.0156,127.75 L137.8438,127.6719 Z " fill="#000000"/><text fill="#000000" font-family="sans-serif" font-size="12" lengthAdjust="spacing" textLength="246" x="149.5" y="136.1543">SeeTestResultOfSelectedClientController</text><line style="stroke:#A80036;stroke-width:1.5;" x1="121.5" x2="397.5" y1="148" y2="148"/><line style="stroke:#A80036;stroke-width:1.5;" x1="121.5" x2="397.5" y1="156" y2="156"/><text fill="#000000" font-family="sans-serif" font-size="11" lengthAdjust="spacing" textLength="75" x="126.5" y="170.2104">+getClients()</text><text fill="#000000" font-family="sans-serif" font-size="11" lengthAdjust="spacing" textLength="179" x="126.5" y="183.0151">+showListOfClientsRegistered()</text><text fill="#000000" font-family="sans-serif" font-size="11" lengthAdjust="spacing" textLength="88" x="126.5" y="195.8198">+getClientList()</text><text fill="#000000" font-family="sans-serif" font-size="11" lengthAdjust="spacing" textLength="109" x="126.5" y="208.6245">+getTestByClient()</text><!--MD5=[df38be88ccee13e832d6fafd6288a4ca]
class Test--><rect codeLine="34" fill="#FEFECE" filter="url(#fwh0ii69gyvj7)" height="48" id="Test" style="stroke:#A80036;stroke-width:1.5;" width="58" x="155.5" y="818"/><ellipse cx="170.5" cy="834" fill="#ADD1B2" rx="11" ry="11" style="stroke:#A80036;stroke-width:1.0;"/><path d="M172.8438,829.6719 C171.9063,829.2344 171.3125,829.0938 170.4375,829.0938 C167.8125,829.0938 165.8125,831.1719 165.8125,833.8906 L165.8125,835.0156 C165.8125,837.5938 167.9219,839.4844 170.8125,839.4844 C172.0313,839.4844 173.1875,839.1875 173.9375,838.6406 C174.5156,838.2344 174.8438,837.7813 174.8438,837.3906 C174.8438,836.9375 174.4531,836.5469 173.9844,836.5469 C173.7656,836.5469 173.5625,836.625 173.375,836.8125 C172.9219,837.2969 172.9219,837.2969 172.7344,837.3906 C172.3125,837.6563 171.625,837.7813 170.8594,837.7813 C168.8125,837.7813 167.5156,836.6875 167.5156,834.9844 L167.5156,833.8906 C167.5156,832.1094 168.7656,830.7969 170.5,830.7969 C171.0781,830.7969 171.6875,830.9531 172.1563,831.2031 C172.6406,831.4844 172.8125,831.7031 172.9063,832.1094 C172.9688,832.5156 173,832.6406 173.1406,832.7656 C173.2813,832.9063 173.5156,833.0156 173.7344,833.0156 C174,833.0156 174.2656,832.875 174.4375,832.6563 C174.5469,832.5 174.5781,832.3125 174.5781,831.8906 L174.5781,830.4688 C174.5781,830.0313 174.5625,829.9063 174.4688,829.75 C174.3125,829.4844 174.0313,829.3438 173.7344,829.3438 C173.4375,829.3438 173.2344,829.4375 173.0156,829.75 L172.8438,829.6719 Z " fill="#000000"/><text fill="#000000" font-family="sans-serif" font-size="12" lengthAdjust="spacing" textLength="26" x="184.5" y="838.1543">Test</text><line style="stroke:#A80036;stroke-width:1.5;" x1="156.5" x2="212.5" y1="850" y2="850"/><line style="stroke:#A80036;stroke-width:1.5;" x1="156.5" x2="212.5" y1="858" y2="858"/><!--MD5=[e27cb01a39563223b22d42504ec96d07]
class TestResult--><rect codeLine="38" fill="#FEFECE" filter="url(#fwh0ii69gyvj7)" height="137.6328" id="TestResult" style="stroke:#A80036;stroke-width:1.5;" width="285" x="7" y="1158"/><ellipse cx="114.25" cy="1174" fill="#ADD1B2" rx="11" ry="11" style="stroke:#A80036;stroke-width:1.0;"/><path d="M116.5938,1169.6719 C115.6563,1169.2344 115.0625,1169.0938 114.1875,1169.0938 C111.5625,1169.0938 109.5625,1171.1719 109.5625,1173.8906 L109.5625,1175.0156 C109.5625,1177.5938 111.6719,1179.4844 114.5625,1179.4844 C115.7813,1179.4844 116.9375,1179.1875 117.6875,1178.6406 C118.2656,1178.2344 118.5938,1177.7813 118.5938,1177.3906 C118.5938,1176.9375 118.2031,1176.5469 117.7344,1176.5469 C117.5156,1176.5469 117.3125,1176.625 117.125,1176.8125 C116.6719,1177.2969 116.6719,1177.2969 116.4844,1177.3906 C116.0625,1177.6563 115.375,1177.7813 114.6094,1177.7813 C112.5625,1177.7813 111.2656,1176.6875 111.2656,1174.9844 L111.2656,1173.8906 C111.2656,1172.1094 112.5156,1170.7969 114.25,1170.7969 C114.8281,1170.7969 115.4375,1170.9531 115.9063,1171.2031 C116.3906,1171.4844 116.5625,1171.7031 116.6563,1172.1094 C116.7188,1172.5156 116.75,1172.6406 116.8906,1172.7656 C117.0313,1172.9063 117.2656,1173.0156 117.4844,1173.0156 C117.75,1173.0156 118.0156,1172.875 118.1875,1172.6563 C118.2969,1172.5 118.3281,1172.3125 118.3281,1171.8906 L118.3281,1170.4688 C118.3281,1170.0313 118.3125,1169.9063 118.2188,1169.75 C118.0625,1169.4844 117.7813,1169.3438 117.4844,1169.3438 C117.1875,1169.3438 116.9844,1169.4375 116.7656,1169.75 L116.5938,1169.6719 Z " fill="#000000"/><text fill="#000000" font-family="sans-serif" font-size="12" lengthAdjust="spacing" textLength="62" x="134.75" y="1178.1543">TestResult</text><line style="stroke:#A80036;stroke-width:1.5;" x1="8" x2="291" y1="1190" y2="1190"/><text fill="#000000" font-family="sans-serif" font-size="11" lengthAdjust="spacing" textLength="193" x="13" y="1204.2104">-referenceValue:ReferenceValue;</text><text fill="#000000" font-family="sans-serif" font-size="11" lengthAdjust="spacing" textLength="81" x="13" y="1217.0151">-result:double;</text><text fill="#000000" font-family="sans-serif" font-size="11" lengthAdjust="spacing" textLength="129" x="13" y="1229.8198">-parameter:Parameter;</text><line style="stroke:#A80036;stroke-width:1.5;" x1="8" x2="291" y1="1236.4141" y2="1236.4141"/><text fill="#000000" font-family="sans-serif" font-size="11" lengthAdjust="spacing" textLength="273" x="13" y="1250.6245">+TestResult(parameter, result, referenceValue)</text><text fill="#000000" font-family="sans-serif" font-size="11" lengthAdjust="spacing" textLength="71" x="13" y="1263.4292">+getResult()</text><text fill="#000000" font-family="sans-serif" font-size="11" lengthAdjust="spacing" textLength="129" x="13" y="1276.2339">+getReferenceValue()</text><text fill="#000000" font-family="sans-serif" font-size="11" lengthAdjust="spacing" textLength="61" x="13" y="1289.0386">+toString()</text><!--MD5=[0f6f7964b844a64b0496af0dda7914bd]
class TestStore--><rect codeLine="48" fill="#FEFECE" filter="url(#fwh0ii69gyvj7)" height="60.8047" id="TestStore" style="stroke:#A80036;stroke-width:1.5;" width="121" x="289" y="981.5"/><ellipse cx="317.5" cy="997.5" fill="#ADD1B2" rx="11" ry="11" style="stroke:#A80036;stroke-width:1.0;"/><path d="M319.8438,993.1719 C318.9063,992.7344 318.3125,992.5938 317.4375,992.5938 C314.8125,992.5938 312.8125,994.6719 312.8125,997.3906 L312.8125,998.5156 C312.8125,1001.0938 314.9219,1002.9844 317.8125,1002.9844 C319.0313,1002.9844 320.1875,1002.6875 320.9375,1002.1406 C321.5156,1001.7344 321.8438,1001.2813 321.8438,1000.8906 C321.8438,1000.4375 321.4531,1000.0469 320.9844,1000.0469 C320.7656,1000.0469 320.5625,1000.125 320.375,1000.3125 C319.9219,1000.7969 319.9219,1000.7969 319.7344,1000.8906 C319.3125,1001.1563 318.625,1001.2813 317.8594,1001.2813 C315.8125,1001.2813 314.5156,1000.1875 314.5156,998.4844 L314.5156,997.3906 C314.5156,995.6094 315.7656,994.2969 317.5,994.2969 C318.0781,994.2969 318.6875,994.4531 319.1563,994.7031 C319.6406,994.9844 319.8125,995.2031 319.9063,995.6094 C319.9688,996.0156 320,996.1406 320.1406,996.2656 C320.2813,996.4063 320.5156,996.5156 320.7344,996.5156 C321,996.5156 321.2656,996.375 321.4375,996.1563 C321.5469,996 321.5781,995.8125 321.5781,995.3906 L321.5781,993.9688 C321.5781,993.5313 321.5625,993.4063 321.4688,993.25 C321.3125,992.9844 321.0313,992.8438 320.7344,992.8438 C320.4375,992.8438 320.2344,992.9375 320.0156,993.25 L319.8438,993.1719 Z " fill="#000000"/><text fill="#000000" font-family="sans-serif" font-size="12" lengthAdjust="spacing" textLength="59" x="334.5" y="1001.6543">TestStore</text><line style="stroke:#A80036;stroke-width:1.5;" x1="290" x2="409" y1="1013.5" y2="1013.5"/><line style="stroke:#A80036;stroke-width:1.5;" x1="290" x2="409" y1="1021.5" y2="1021.5"/><text fill="#000000" font-family="sans-serif" font-size="11" lengthAdjust="spacing" textLength="109" x="295" y="1035.7104">+getTestByClient()</text><!--MD5=[1f6362a5c8f21d8d6a0fce68f3a92a4e]
class Parameter--><rect codeLine="52" fill="#FEFECE" filter="url(#fwh0ii69gyvj7)" height="137.6328" id="Parameter" style="stroke:#A80036;stroke-width:1.5;" width="183" x="58" y="943"/><ellipse cx="114.75" cy="959" fill="#ADD1B2" rx="11" ry="11" style="stroke:#A80036;stroke-width:1.0;"/><path d="M117.0938,954.6719 C116.1563,954.2344 115.5625,954.0938 114.6875,954.0938 C112.0625,954.0938 110.0625,956.1719 110.0625,958.8906 L110.0625,960.0156 C110.0625,962.5938 112.1719,964.4844 115.0625,964.4844 C116.2813,964.4844 117.4375,964.1875 118.1875,963.6406 C118.7656,963.2344 119.0938,962.7813 119.0938,962.3906 C119.0938,961.9375 118.7031,961.5469 118.2344,961.5469 C118.0156,961.5469 117.8125,961.625 117.625,961.8125 C117.1719,962.2969 117.1719,962.2969 116.9844,962.3906 C116.5625,962.6563 115.875,962.7813 115.1094,962.7813 C113.0625,962.7813 111.7656,961.6875 111.7656,959.9844 L111.7656,958.8906 C111.7656,957.1094 113.0156,955.7969 114.75,955.7969 C115.3281,955.7969 115.9375,955.9531 116.4063,956.2031 C116.8906,956.4844 117.0625,956.7031 117.1563,957.1094 C117.2188,957.5156 117.25,957.6406 117.3906,957.7656 C117.5313,957.9063 117.7656,958.0156 117.9844,958.0156 C118.25,958.0156 118.5156,957.875 118.6875,957.6563 C118.7969,957.5 118.8281,957.3125 118.8281,956.8906 L118.8281,955.4688 C118.8281,955.0313 118.8125,954.9063 118.7188,954.75 C118.5625,954.4844 118.2813,954.3438 117.9844,954.3438 C117.6875,954.3438 117.4844,954.4375 117.2656,954.75 L117.0938,954.6719 Z " fill="#000000"/><text fill="#000000" font-family="sans-serif" font-size="12" lengthAdjust="spacing" textLength="61" x="135.25" y="963.1543">Parameter</text><line style="stroke:#A80036;stroke-width:1.5;" x1="59" x2="240" y1="975" y2="975"/><text fill="#000000" font-family="sans-serif" font-size="11" lengthAdjust="spacing" textLength="71" x="64" y="989.2104">-code:String;</text><text fill="#000000" font-family="sans-serif" font-size="11" lengthAdjust="spacing" textLength="104" x="64" y="1002.0151">-shortname:String;</text><text fill="#000000" font-family="sans-serif" font-size="11" lengthAdjust="spacing" textLength="109" x="64" y="1014.8198">-description:String ;</text><text fill="#000000" font-family="sans-serif" font-size="11" lengthAdjust="spacing" textLength="131" x="64" y="1027.6245">-testResult:TestResult ;</text><text fill="#000000" font-family="sans-serif" font-size="11" lengthAdjust="spacing" textLength="171" x="64" y="1040.4292">-pc:List&lt;ParameterCategory&gt;;</text><line style="stroke:#A80036;stroke-width:1.5;" x1="59" x2="240" y1="1047.0234" y2="1047.0234"/><text fill="#000000" font-family="sans-serif" font-size="11" lengthAdjust="spacing" textLength="96" x="64" y="1061.2339">+getTestResult()</text><text fill="#000000" font-family="sans-serif" font-size="11" lengthAdjust="spacing" textLength="61" x="64" y="1074.0386">+toString()</text><!--MD5=[193f8c6a89e46d140876edd3095fcfe1]
class SeeTestResultOfSelectedClientUI--><rect codeLine="62" fill="#FEFECE" filter="url(#fwh0ii69gyvj7)" height="48" id="SeeTestResultOfSelectedClientUI" style="stroke:#A80036;stroke-width:1.5;" width="231" x="144" y="7"/><ellipse cx="159" cy="23" fill="#ADD1B2" rx="11" ry="11" style="stroke:#A80036;stroke-width:1.0;"/><path d="M161.3438,18.6719 C160.4063,18.2344 159.8125,18.0938 158.9375,18.0938 C156.3125,18.0938 154.3125,20.1719 154.3125,22.8906 L154.3125,24.0156 C154.3125,26.5938 156.4219,28.4844 159.3125,28.4844 C160.5313,28.4844 161.6875,28.1875 162.4375,27.6406 C163.0156,27.2344 163.3438,26.7813 163.3438,26.3906 C163.3438,25.9375 162.9531,25.5469 162.4844,25.5469 C162.2656,25.5469 162.0625,25.625 161.875,25.8125 C161.4219,26.2969 161.4219,26.2969 161.2344,26.3906 C160.8125,26.6563 160.125,26.7813 159.3594,26.7813 C157.3125,26.7813 156.0156,25.6875 156.0156,23.9844 L156.0156,22.8906 C156.0156,21.1094 157.2656,19.7969 159,19.7969 C159.5781,19.7969 160.1875,19.9531 160.6563,20.2031 C161.1406,20.4844 161.3125,20.7031 161.4063,21.1094 C161.4688,21.5156 161.5,21.6406 161.6406,21.7656 C161.7813,21.9063 162.0156,22.0156 162.2344,22.0156 C162.5,22.0156 162.7656,21.875 162.9375,21.6563 C163.0469,21.5 163.0781,21.3125 163.0781,20.8906 L163.0781,19.4688 C163.0781,19.0313 163.0625,18.9063 162.9688,18.75 C162.8125,18.4844 162.5313,18.3438 162.2344,18.3438 C161.9375,18.3438 161.7344,18.4375 161.5156,18.75 L161.3438,18.6719 Z " fill="#000000"/><text fill="#000000" font-family="sans-serif" font-size="12" lengthAdjust="spacing" textLength="199" x="173" y="27.1543">SeeTestResultOfSelectedClientUI</text><line style="stroke:#A80036;stroke-width:1.5;" x1="145" x2="374" y1="39" y2="39"/><line style="stroke:#A80036;stroke-width:1.5;" x1="145" x2="374" y1="47" y2="47"/><!--MD5=[ab179af0153bf609fe4891204b6ca111]
link ClientList to Client--><path codeLine="64" d="M184.5,488.218 C184.5,508.375 184.5,534.465 184.5,559.874 " fill="none" id="ClientList-to-Client" style="stroke:#A80036;stroke-width:1.0;"/><polygon fill="#A80036" points="184.5,564.944,188.5,555.944,184.5,559.944,180.5,555.944,184.5,564.944" style="stroke:#A80036;stroke-width:1.0;"/><text fill="#000000" font-family="sans-serif" font-size="13" lengthAdjust="spacing" textLength="54" x="185.5" y="531.0669">contains</text><text fill="#000000" font-family="sans-serif" font-size="13" lengthAdjust="spacing" textLength="8" x="175.8375" y="507.7347">1</text><text fill="#000000" font-family="sans-serif" font-size="13" lengthAdjust="spacing" textLength="7" x="177.1992" y="553.8027">*</text><!--MD5=[77f74b0cd0a225eccc0006208e6ad2d6]
link SeeTestResultOfSelectedClientController to Company--><path codeLine="65" d="M259.5,215.12 C259.5,233.42 259.5,253.86 259.5,270.66 " fill="none" id="SeeTestResultOfSelectedClientController-to-Company" style="stroke:#A80036;stroke-width:1.0;stroke-dasharray:7.0,7.0;"/><polygon fill="#A80036" points="259.5,275.75,263.5,266.75,259.5,270.75,255.5,266.75,259.5,275.75" style="stroke:#A80036;stroke-width:1.0;"/><!--MD5=[7afa7c411beeb466dbc1b8258d8c2771]
link SeeTestResultOfSelectedClientController to ClientList--><path codeLine="66" d="M221.84,215.1 C209.883,233.22 198.07,254.61 191.5,276 C178.049,319.798 178.071,372.717 180.327,408.61 " fill="none" id="SeeTestResultOfSelectedClientController-to-ClientList" style="stroke:#A80036;stroke-width:1.0;stroke-dasharray:7.0,7.0;"/><polygon fill="#A80036" points="180.675,413.779,184.0617,404.5307,180.3393,408.7903,176.0797,405.0679,180.675,413.779" style="stroke:#A80036;stroke-width:1.0;"/><!--MD5=[9dec42a3b1fb794d839b2c916f9b8879]
link Company to ClientList--><path codeLine="67" d="M243.96,337.026 C232.938,357.967 218.009,386.332 205.868,409.401 " fill="none" id="Company-to-ClientList" style="stroke:#A80036;stroke-width:1.0;"/><polygon fill="#A80036" points="203.479,413.941,211.2104,407.8397,205.8077,409.5164,204.131,404.1138,203.479,413.941" style="stroke:#A80036;stroke-width:1.0;"/><text fill="#000000" font-family="sans-serif" font-size="13" lengthAdjust="spacing" textLength="30" x="227.5" y="380.0669">uses</text><text fill="#000000" font-family="sans-serif" font-size="13" lengthAdjust="spacing" textLength="8" x="231.9299" y="356.9696">1</text><text fill="#000000" font-family="sans-serif" font-size="13" lengthAdjust="spacing" textLength="8" x="198.2408" y="402.8406">1</text><!--MD5=[8cd2a17daa2f11a32438b34d2dd8c3d2]
link SeeTestResultOfSelectedClientUI to SeeTestResultOfSelectedClientController--><path codeLine="68" d="M259.5,55.08 C259.5,70.4 259.5,91.17 259.5,110.49 " fill="none" id="SeeTestResultOfSelectedClientUI-to-SeeTestResultOfSelectedClientController" style="stroke:#A80036;stroke-width:1.0;stroke-dasharray:7.0,7.0;"/><polygon fill="#A80036" points="259.5,115.9,263.5,106.9,259.5,110.9,255.5,106.9,259.5,115.9" style="stroke:#A80036;stroke-width:1.0;"/><!--MD5=[502b51bc079239060389dab43b7d3470]
link Client to Test--><path codeLine="69" d="M184.5,741.204 C184.5,766.966 184.5,793.369 184.5,812.541 " fill="none" id="Client-to-Test" style="stroke:#A80036;stroke-width:1.0;"/><polygon fill="#A80036" points="184.5,817.75,188.5,808.75,184.5,812.75,180.5,808.75,184.5,817.75" style="stroke:#A80036;stroke-width:1.0;"/><text fill="#000000" font-family="sans-serif" font-size="13" lengthAdjust="spacing" textLength="54" x="185.5" y="784.0669">contains</text><text fill="#000000" font-family="sans-serif" font-size="13" lengthAdjust="spacing" textLength="8" x="176.1688" y="761.1999">1</text><text fill="#000000" font-family="sans-serif" font-size="13" lengthAdjust="spacing" textLength="23" x="158.6969" y="807.094">1..*</text><!--MD5=[c23963f6e403fc3ebec8dae22c30ade6]
link Test to Parameter--><path codeLine="70" d="M163.225,866.049 C156.521,874.776 149.965,885.221 146.5,896 C142.281,909.124 140.556,923.531 140.285,937.575 " fill="none" id="Test-to-Parameter" style="stroke:#A80036;stroke-width:1.0;"/><polygon fill="#A80036" points="140.25,942.73,144.3116,933.7576,140.2843,937.7301,136.3118,933.7028,140.25,942.73" style="stroke:#A80036;stroke-width:1.0;"/><text fill="#000000" font-family="sans-serif" font-size="13" lengthAdjust="spacing" textLength="54" x="147.5" y="909.0669">contains</text><text fill="#000000" font-family="sans-serif" font-size="13" lengthAdjust="spacing" textLength="8" x="148.7483" y="886.2173">1</text><text fill="#000000" font-family="sans-serif" font-size="13" lengthAdjust="spacing" textLength="23" x="115.1102" y="931.9058">1..*</text><!--MD5=[a70ea501a779cc410cf3bc39a4398e2e]
link Parameter to TestResult--><path codeLine="71" d="M149.5,1081.273 C149.5,1104.012 149.5,1129.431 149.5,1152.545 " fill="none" id="Parameter-to-TestResult" style="stroke:#A80036;stroke-width:1.0;"/><polygon fill="#A80036" points="149.5,1157.748,153.5,1148.748,149.5,1152.748,145.5,1148.748,149.5,1157.748" style="stroke:#A80036;stroke-width:1.0;"/><text fill="#000000" font-family="sans-serif" font-size="13" lengthAdjust="spacing" textLength="54" x="150.5" y="1124.0669">contains</text><text fill="#000000" font-family="sans-serif" font-size="13" lengthAdjust="spacing" textLength="8" x="141.1188" y="1100.6811">1</text><text fill="#000000" font-family="sans-serif" font-size="13" lengthAdjust="spacing" textLength="8" x="141.0875" y="1146.9256">1</text><!--MD5=[2e66328b6bcb78d8eb1aae5c93a545fa]
link Test to TestStore--><path codeLine="72" d="M202.287,866.057 C213.394,880.044 228.248,898.023 242.5,913 C264.079,935.677 289.92,959.43 310.802,977.871 " fill="none" id="Test-to-TestStore" style="stroke:#A80036;stroke-width:1.0;"/><polygon fill="#A80036" points="314.641,981.251,310.5276,972.3023,310.8876,977.9477,305.2422,978.3077,314.641,981.251" style="stroke:#A80036;stroke-width:1.0;"/><text fill="#000000" font-family="sans-serif" font-size="13" lengthAdjust="spacing" textLength="92" x="243.5" y="909.0669">is contained in</text><text fill="#000000" font-family="sans-serif" font-size="13" lengthAdjust="spacing" textLength="23" x="180.898" y="886.2274">1..*</text><text fill="#000000" font-family="sans-serif" font-size="13" lengthAdjust="spacing" textLength="8" x="298.6263" y="970.4629">1</text><!--MD5=[8764e6c415a99227f5b19a9931fdf933]
link SeeTestResultOfSelectedClientController to TestStore--><path codeLine="73" d="M318.819,215.12 C341.715,239.4 362.5,270.96 362.5,305.5 C362.5,305.5 362.5,305.5 362.5,843 C362.5,889.095 357.575,942.094 353.788,976.034 " fill="none" id="SeeTestResultOfSelectedClientController-to-TestStore" style="stroke:#A80036;stroke-width:1.0;stroke-dasharray:7.0,7.0;"/><polygon fill="#A80036" points="353.191,981.313,358.1789,972.8206,353.754,976.3448,350.2298,971.9198,353.191,981.313" style="stroke:#A80036;stroke-width:1.0;"/><!--MD5=[885a2c5a27667893e13c13d435251064]
@startuml
skinparam classAttributeIconSize 0

Class "Client"{
- ccn:long;
- nhsNumber:long;
- birthDate:String;
- tin:long;
- phoneNumber:long;
- sex:String;
- email:String;
- name:String;
- password:String;

+toString()

}

Class "ClientList"{
+getClients()
+showListOfClientsRegistered()
}

Class "Company"{
+getClientList()
}

Class "SeeTestResultOfSelectedClientController"{
+getClients()
+showListOfClientsRegistered()
+getClientList()
+getTestByClient()
}

Class "Test"{

}

Class "TestResult"{
-referenceValue:ReferenceValue;
-result:double;
-parameter:Parameter;
+TestResult(parameter, result, referenceValue)
+getResult()
+getReferenceValue()
+toString()
}

Class "TestStore"{
+getTestByClient()
}

Class "Parameter"{
-code:String;
-shortname:String;
-description:String ;
-testResult:TestResult ;
-pc:List<ParameterCategory>;
+getTestResult()
+toString()
}

Class "SeeTestResultOfSelectedClientUI"

ClientList"1"  - -> "*" Client : contains
SeeTestResultOfSelectedClientController..> Company
SeeTestResultOfSelectedClientController..> ClientList
Company "1" - -> "1" ClientList : uses
SeeTestResultOfSelectedClientUI..> SeeTestResultOfSelectedClientController
Client "1"  - -> "1..*" Test : contains
Test"1"  - -> "1..*" Parameter: contains
Parameter"1"  - -> "1" TestResult : contains
Test"1..*"  - -> "1" TestStore : is contained in
SeeTestResultOfSelectedClientController ..> TestStore
@enduml

PlantUML version 1.2021.7(Sun May 23 12:40:07 UTC 2021)
(GPL source distribution)
Java Runtime: Java(TM) SE Runtime Environment
JVM: Java HotSpot(TM) 64-Bit Server VM
Default Encoding: UTF-8
Language: en
Country: US
--></g></svg>