<?xml version="1.0" encoding="UTF-8" standalone="no"?><svg xmlns="http://www.w3.org/2000/svg" xmlns:xlink="http://www.w3.org/1999/xlink" contentScriptType="application/ecmascript" contentStyleType="text/css" height="629px" preserveAspectRatio="none" style="width:606px;height:629px;background:#FFFFFF;" version="1.1" viewBox="0 0 606 629" width="606px" zoomAndPan="magnify"><defs><filter height="300%" id="f18g40kg3k56v" width="300%" x="-1" y="-1"><feGaussianBlur result="blurOut" stdDeviation="2.0"/><feColorMatrix in="blurOut" result="blurOut2" type="matrix" values="0 0 0 0 0 0 0 0 0 0 0 0 0 0 0 0 0 0 .4 0"/><feOffset dx="4.0" dy="4.0" in="blurOut2" result="blurOut3"/><feBlend in="SourceGraphic" in2="blurOut3" mode="normal"/></filter></defs><g><!--MD5=[4e608140b854dae633589343bce77383]
class TestParameterResult--><rect codeLine="5" fill="#FEFECE" filter="url(#f18g40kg3k56v)" height="78.4141" id="TestParameterResult" style="stroke:#A80036;stroke-width:1.5;" width="155" x="203.5" y="537"/><ellipse cx="218.5" cy="553" fill="#ADD1B2" rx="11" ry="11" style="stroke:#A80036;stroke-width:1.0;"/><path d="M220.8438,548.6719 C219.9063,548.2344 219.3125,548.0938 218.4375,548.0938 C215.8125,548.0938 213.8125,550.1719 213.8125,552.8906 L213.8125,554.0156 C213.8125,556.5938 215.9219,558.4844 218.8125,558.4844 C220.0313,558.4844 221.1875,558.1875 221.9375,557.6406 C222.5156,557.2344 222.8438,556.7813 222.8438,556.3906 C222.8438,555.9375 222.4531,555.5469 221.9844,555.5469 C221.7656,555.5469 221.5625,555.625 221.375,555.8125 C220.9219,556.2969 220.9219,556.2969 220.7344,556.3906 C220.3125,556.6563 219.625,556.7813 218.8594,556.7813 C216.8125,556.7813 215.5156,555.6875 215.5156,553.9844 L215.5156,552.8906 C215.5156,551.1094 216.7656,549.7969 218.5,549.7969 C219.0781,549.7969 219.6875,549.9531 220.1563,550.2031 C220.6406,550.4844 220.8125,550.7031 220.9063,551.1094 C220.9688,551.5156 221,551.6406 221.1406,551.7656 C221.2813,551.9063 221.5156,552.0156 221.7344,552.0156 C222,552.0156 222.2656,551.875 222.4375,551.6563 C222.5469,551.5 222.5781,551.3125 222.5781,550.8906 L222.5781,549.4688 C222.5781,549.0313 222.5625,548.9063 222.4688,548.75 C222.3125,548.4844 222.0313,548.3438 221.7344,548.3438 C221.4375,548.3438 221.2344,548.4375 221.0156,548.75 L220.8438,548.6719 Z " fill="#000000"/><text fill="#000000" font-family="sans-serif" font-size="12" lengthAdjust="spacing" textLength="123" x="232.5" y="557.1543">TestParameterResult</text><line style="stroke:#A80036;stroke-width:1.5;" x1="204.5" x2="357.5" y1="569" y2="569"/><text fill="#000000" font-family="sans-serif" font-size="11" lengthAdjust="spacing" textLength="60" x="209.5" y="583.2104">-createdAt</text><text fill="#000000" font-family="sans-serif" font-size="11" lengthAdjust="spacing" textLength="36" x="209.5" y="596.0151">-value</text><text fill="#000000" font-family="sans-serif" font-size="11" lengthAdjust="spacing" textLength="40" x="209.5" y="608.8198">-metric</text><!--MD5=[1f6362a5c8f21d8d6a0fce68f3a92a4e]
class Parameter--><rect codeLine="12" fill="#FEFECE" filter="url(#f18g40kg3k56v)" height="78.4141" id="Parameter" style="stroke:#A80036;stroke-width:1.5;" width="93" x="234.5" y="382"/><ellipse cx="249.5" cy="398" fill="#ADD1B2" rx="11" ry="11" style="stroke:#A80036;stroke-width:1.0;"/><path d="M251.8438,393.6719 C250.9063,393.2344 250.3125,393.0938 249.4375,393.0938 C246.8125,393.0938 244.8125,395.1719 244.8125,397.8906 L244.8125,399.0156 C244.8125,401.5938 246.9219,403.4844 249.8125,403.4844 C251.0313,403.4844 252.1875,403.1875 252.9375,402.6406 C253.5156,402.2344 253.8438,401.7813 253.8438,401.3906 C253.8438,400.9375 253.4531,400.5469 252.9844,400.5469 C252.7656,400.5469 252.5625,400.625 252.375,400.8125 C251.9219,401.2969 251.9219,401.2969 251.7344,401.3906 C251.3125,401.6563 250.625,401.7813 249.8594,401.7813 C247.8125,401.7813 246.5156,400.6875 246.5156,398.9844 L246.5156,397.8906 C246.5156,396.1094 247.7656,394.7969 249.5,394.7969 C250.0781,394.7969 250.6875,394.9531 251.1563,395.2031 C251.6406,395.4844 251.8125,395.7031 251.9063,396.1094 C251.9688,396.5156 252,396.6406 252.1406,396.7656 C252.2813,396.9063 252.5156,397.0156 252.7344,397.0156 C253,397.0156 253.2656,396.875 253.4375,396.6563 C253.5469,396.5 253.5781,396.3125 253.5781,395.8906 L253.5781,394.4688 C253.5781,394.0313 253.5625,393.9063 253.4688,393.75 C253.3125,393.4844 253.0313,393.3438 252.7344,393.3438 C252.4375,393.3438 252.2344,393.4375 252.0156,393.75 L251.8438,393.6719 Z " fill="#000000"/><text fill="#000000" font-family="sans-serif" font-size="12" lengthAdjust="spacing" textLength="61" x="263.5" y="402.1543">Parameter</text><line style="stroke:#A80036;stroke-width:1.5;" x1="235.5" x2="326.5" y1="414" y2="414"/><text fill="#000000" font-family="sans-serif" font-size="11" lengthAdjust="spacing" textLength="32" x="240.5" y="428.2104">-code</text><text fill="#000000" font-family="sans-serif" font-size="11" lengthAdjust="spacing" textLength="66" x="240.5" y="441.0151">-shortName</text><text fill="#000000" font-family="sans-serif" font-size="11" lengthAdjust="spacing" textLength="66" x="240.5" y="453.8198">-description</text><!--MD5=[df38be88ccee13e832d6fafd6288a4ca]
class Test--><rect codeLine="19" fill="#FEFECE" filter="url(#f18g40kg3k56v)" height="78.4141" id="Test" style="stroke:#A80036;stroke-width:1.5;" width="72" x="304" y="188.5"/><ellipse cx="325.3" cy="204.5" fill="#ADD1B2" rx="11" ry="11" style="stroke:#A80036;stroke-width:1.0;"/><path d="M327.6438,200.1719 C326.7063,199.7344 326.1125,199.5938 325.2375,199.5938 C322.6125,199.5938 320.6125,201.6719 320.6125,204.3906 L320.6125,205.5156 C320.6125,208.0938 322.7219,209.9844 325.6125,209.9844 C326.8313,209.9844 327.9875,209.6875 328.7375,209.1406 C329.3156,208.7344 329.6438,208.2813 329.6438,207.8906 C329.6438,207.4375 329.2531,207.0469 328.7844,207.0469 C328.5656,207.0469 328.3625,207.125 328.175,207.3125 C327.7219,207.7969 327.7219,207.7969 327.5344,207.8906 C327.1125,208.1563 326.425,208.2813 325.6594,208.2813 C323.6125,208.2813 322.3156,207.1875 322.3156,205.4844 L322.3156,204.3906 C322.3156,202.6094 323.5656,201.2969 325.3,201.2969 C325.8781,201.2969 326.4875,201.4531 326.9563,201.7031 C327.4406,201.9844 327.6125,202.2031 327.7063,202.6094 C327.7688,203.0156 327.8,203.1406 327.9406,203.2656 C328.0813,203.4063 328.3156,203.5156 328.5344,203.5156 C328.8,203.5156 329.0656,203.375 329.2375,203.1563 C329.3469,203 329.3781,202.8125 329.3781,202.3906 L329.3781,200.9688 C329.3781,200.5313 329.3625,200.4063 329.2688,200.25 C329.1125,199.9844 328.8313,199.8438 328.5344,199.8438 C328.2375,199.8438 328.0344,199.9375 327.8156,200.25 L327.6438,200.1719 Z " fill="#000000"/><text fill="#000000" font-family="sans-serif" font-size="12" lengthAdjust="spacing" textLength="26" x="340.7" y="208.6543">Test</text><line style="stroke:#A80036;stroke-width:1.5;" x1="305" x2="375" y1="220.5" y2="220.5"/><text fill="#000000" font-family="sans-serif" font-size="11" lengthAdjust="spacing" textLength="32" x="310" y="234.7104">-code</text><text fill="#000000" font-family="sans-serif" font-size="11" lengthAdjust="spacing" textLength="56" x="310" y="247.5151">-NHScode</text><text fill="#000000" font-family="sans-serif" font-size="11" lengthAdjust="spacing" textLength="60" x="310" y="260.3198">-createdAt</text><!--MD5=[012ee2a8bf3ae2b319009b06f951c2e5]
class ClinicalChemistryTechnologist--><rect codeLine="25" fill="#FEFECE" filter="url(#f18g40kg3k56v)" height="40" id="ClinicalChemistryTechnologist" style="stroke:#A80036;stroke-width:1.5;" width="210" x="53" y="20"/><ellipse cx="68" cy="36" fill="#ADD1B2" rx="11" ry="11" style="stroke:#A80036;stroke-width:1.0;"/><path d="M70.3438,31.6719 C69.4063,31.2344 68.8125,31.0938 67.9375,31.0938 C65.3125,31.0938 63.3125,33.1719 63.3125,35.8906 L63.3125,37.0156 C63.3125,39.5938 65.4219,41.4844 68.3125,41.4844 C69.5313,41.4844 70.6875,41.1875 71.4375,40.6406 C72.0156,40.2344 72.3438,39.7813 72.3438,39.3906 C72.3438,38.9375 71.9531,38.5469 71.4844,38.5469 C71.2656,38.5469 71.0625,38.625 70.875,38.8125 C70.4219,39.2969 70.4219,39.2969 70.2344,39.3906 C69.8125,39.6563 69.125,39.7813 68.3594,39.7813 C66.3125,39.7813 65.0156,38.6875 65.0156,36.9844 L65.0156,35.8906 C65.0156,34.1094 66.2656,32.7969 68,32.7969 C68.5781,32.7969 69.1875,32.9531 69.6563,33.2031 C70.1406,33.4844 70.3125,33.7031 70.4063,34.1094 C70.4688,34.5156 70.5,34.6406 70.6406,34.7656 C70.7813,34.9063 71.0156,35.0156 71.2344,35.0156 C71.5,35.0156 71.7656,34.875 71.9375,34.6563 C72.0469,34.5 72.0781,34.3125 72.0781,33.8906 L72.0781,32.4688 C72.0781,32.0313 72.0625,31.9063 71.9688,31.75 C71.8125,31.4844 71.5313,31.3438 71.2344,31.3438 C70.9375,31.3438 70.7344,31.4375 70.5156,31.75 L70.3438,31.6719 Z " fill="#000000"/><text fill="#000000" font-family="sans-serif" font-size="12" lengthAdjust="spacing" textLength="178" x="82" y="40.1543">ClinicalChemistryTechnologist</text><line style="stroke:#A80036;stroke-width:1.5;" x1="54" x2="262" y1="52" y2="52"/><!--MD5=[7421f545a0d8420c5bec41e74b387d9c]
class Employee--><rect codeLine="29" fill="#FEFECE" filter="url(#f18g40kg3k56v)" height="155.2422" id="Employee" style="stroke:#A80036;stroke-width:1.5;" width="226" x="7" y="150"/><ellipse cx="85.75" cy="166" fill="#ADD1B2" rx="11" ry="11" style="stroke:#A80036;stroke-width:1.0;"/><path d="M88.0938,161.6719 C87.1563,161.2344 86.5625,161.0938 85.6875,161.0938 C83.0625,161.0938 81.0625,163.1719 81.0625,165.8906 L81.0625,167.0156 C81.0625,169.5938 83.1719,171.4844 86.0625,171.4844 C87.2813,171.4844 88.4375,171.1875 89.1875,170.6406 C89.7656,170.2344 90.0938,169.7813 90.0938,169.3906 C90.0938,168.9375 89.7031,168.5469 89.2344,168.5469 C89.0156,168.5469 88.8125,168.625 88.625,168.8125 C88.1719,169.2969 88.1719,169.2969 87.9844,169.3906 C87.5625,169.6563 86.875,169.7813 86.1094,169.7813 C84.0625,169.7813 82.7656,168.6875 82.7656,166.9844 L82.7656,165.8906 C82.7656,164.1094 84.0156,162.7969 85.75,162.7969 C86.3281,162.7969 86.9375,162.9531 87.4063,163.2031 C87.8906,163.4844 88.0625,163.7031 88.1563,164.1094 C88.2188,164.5156 88.25,164.6406 88.3906,164.7656 C88.5313,164.9063 88.7656,165.0156 88.9844,165.0156 C89.25,165.0156 89.5156,164.875 89.6875,164.6563 C89.7969,164.5 89.8281,164.3125 89.8281,163.8906 L89.8281,162.4688 C89.8281,162.0313 89.8125,161.9063 89.7188,161.75 C89.5625,161.4844 89.2813,161.3438 88.9844,161.3438 C88.6875,161.3438 88.4844,161.4375 88.2656,161.75 L88.0938,161.6719 Z " fill="#000000"/><text fill="#000000" font-family="sans-serif" font-size="12" lengthAdjust="spacing" textLength="60" x="106.25" y="170.1543">Employee</text><line style="stroke:#A80036;stroke-width:1.5;" x1="8" x2="232" y1="182" y2="182"/><text fill="#000000" font-family="sans-serif" font-size="11" lengthAdjust="spacing" textLength="63" x="13" y="196.2104">-userName</text><text fill="#000000" font-family="sans-serif" font-size="11" lengthAdjust="spacing" textLength="57" x="13" y="209.0151">-password</text><text fill="#000000" font-family="sans-serif" font-size="11" lengthAdjust="spacing" textLength="36" x="13" y="221.8198">-email</text><text fill="#000000" font-family="sans-serif" font-size="11" lengthAdjust="spacing" textLength="37" x="13" y="234.6245">-name</text><text fill="#000000" font-family="sans-serif" font-size="11" lengthAdjust="spacing" textLength="14" x="13" y="247.4292">-id</text><text fill="#000000" font-family="sans-serif" font-size="11" lengthAdjust="spacing" textLength="49" x="13" y="260.2339">-address</text><text fill="#000000" font-family="sans-serif" font-size="11" lengthAdjust="spacing" textLength="214" x="13" y="273.0386">-standardOcupationClassificationCode</text><text fill="#000000" font-family="sans-serif" font-size="11" lengthAdjust="spacing" textLength="85" x="13" y="285.8433">-phoneNumber</text><text fill="#000000" font-family="sans-serif" font-size="11" lengthAdjust="spacing" textLength="26" x="13" y="298.6479">-role</text><!--MD5=[aeb3272166074d8737a70b61b1e71682]
class TestType--><rect codeLine="41" fill="#FEFECE" filter="url(#f18g40kg3k56v)" height="78.4141" id="TestType" style="stroke:#A80036;stroke-width:1.5;" width="112" x="480" y="188.5"/><ellipse cx="505.8" cy="204.5" fill="#ADD1B2" rx="11" ry="11" style="stroke:#A80036;stroke-width:1.0;"/><path d="M508.1438,200.1719 C507.2063,199.7344 506.6125,199.5938 505.7375,199.5938 C503.1125,199.5938 501.1125,201.6719 501.1125,204.3906 L501.1125,205.5156 C501.1125,208.0938 503.2219,209.9844 506.1125,209.9844 C507.3313,209.9844 508.4875,209.6875 509.2375,209.1406 C509.8156,208.7344 510.1438,208.2813 510.1438,207.8906 C510.1438,207.4375 509.7531,207.0469 509.2844,207.0469 C509.0656,207.0469 508.8625,207.125 508.675,207.3125 C508.2219,207.7969 508.2219,207.7969 508.0344,207.8906 C507.6125,208.1563 506.925,208.2813 506.1594,208.2813 C504.1125,208.2813 502.8156,207.1875 502.8156,205.4844 L502.8156,204.3906 C502.8156,202.6094 504.0656,201.2969 505.8,201.2969 C506.3781,201.2969 506.9875,201.4531 507.4563,201.7031 C507.9406,201.9844 508.1125,202.2031 508.2063,202.6094 C508.2688,203.0156 508.3,203.1406 508.4406,203.2656 C508.5813,203.4063 508.8156,203.5156 509.0344,203.5156 C509.3,203.5156 509.5656,203.375 509.7375,203.1563 C509.8469,203 509.8781,202.8125 509.8781,202.3906 L509.8781,200.9688 C509.8781,200.5313 509.8625,200.4063 509.7688,200.25 C509.6125,199.9844 509.3313,199.8438 509.0344,199.8438 C508.7375,199.8438 508.5344,199.9375 508.3156,200.25 L508.1438,200.1719 Z " fill="#000000"/><text fill="#000000" font-family="sans-serif" font-size="12" lengthAdjust="spacing" textLength="56" x="522.2" y="208.6543">TestType</text><line style="stroke:#A80036;stroke-width:1.5;" x1="481" x2="591" y1="220.5" y2="220.5"/><text fill="#000000" font-family="sans-serif" font-size="11" lengthAdjust="spacing" textLength="32" x="486" y="234.7104">-code</text><text fill="#000000" font-family="sans-serif" font-size="11" lengthAdjust="spacing" textLength="66" x="486" y="247.5151">-description</text><text fill="#000000" font-family="sans-serif" font-size="11" lengthAdjust="spacing" textLength="100" x="486" y="260.3198">-collectionMethod</text><!--MD5=[9681492165142af2a4a3a169d90ee8d4]
class Sample--><rect codeLine="48" fill="#FEFECE" filter="url(#f18g40kg3k56v)" height="65.6094" id="Sample" style="stroke:#A80036;stroke-width:1.5;" width="77" x="337.5" y="7"/><ellipse cx="352.5" cy="23" fill="#ADD1B2" rx="11" ry="11" style="stroke:#A80036;stroke-width:1.0;"/><path d="M354.8438,18.6719 C353.9063,18.2344 353.3125,18.0938 352.4375,18.0938 C349.8125,18.0938 347.8125,20.1719 347.8125,22.8906 L347.8125,24.0156 C347.8125,26.5938 349.9219,28.4844 352.8125,28.4844 C354.0313,28.4844 355.1875,28.1875 355.9375,27.6406 C356.5156,27.2344 356.8438,26.7813 356.8438,26.3906 C356.8438,25.9375 356.4531,25.5469 355.9844,25.5469 C355.7656,25.5469 355.5625,25.625 355.375,25.8125 C354.9219,26.2969 354.9219,26.2969 354.7344,26.3906 C354.3125,26.6563 353.625,26.7813 352.8594,26.7813 C350.8125,26.7813 349.5156,25.6875 349.5156,23.9844 L349.5156,22.8906 C349.5156,21.1094 350.7656,19.7969 352.5,19.7969 C353.0781,19.7969 353.6875,19.9531 354.1563,20.2031 C354.6406,20.4844 354.8125,20.7031 354.9063,21.1094 C354.9688,21.5156 355,21.6406 355.1406,21.7656 C355.2813,21.9063 355.5156,22.0156 355.7344,22.0156 C356,22.0156 356.2656,21.875 356.4375,21.6563 C356.5469,21.5 356.5781,21.3125 356.5781,20.8906 L356.5781,19.4688 C356.5781,19.0313 356.5625,18.9063 356.4688,18.75 C356.3125,18.4844 356.0313,18.3438 355.7344,18.3438 C355.4375,18.3438 355.2344,18.4375 355.0156,18.75 L354.8438,18.6719 Z " fill="#000000"/><text fill="#000000" font-family="sans-serif" font-size="12" lengthAdjust="spacing" textLength="45" x="366.5" y="27.1543">Sample</text><line style="stroke:#A80036;stroke-width:1.5;" x1="338.5" x2="413.5" y1="39" y2="39"/><text fill="#000000" font-family="sans-serif" font-size="11" lengthAdjust="spacing" textLength="50" x="343.5" y="53.2104">-barcode</text><text fill="#000000" font-family="sans-serif" font-size="11" lengthAdjust="spacing" textLength="30" x="343.5" y="66.0151">-date</text><!--MD5=[ed6624c6556d5e7b1bd23032162d20b7]
class Client--><rect fill="#FEFECE" filter="url(#f18g40kg3k56v)" height="40" id="Client" style="stroke:#A80036;stroke-width:1.5;" width="65" x="362.5" y="401"/><ellipse cx="377.5" cy="417" fill="#ADD1B2" rx="11" ry="11" style="stroke:#A80036;stroke-width:1.0;"/><path d="M379.8438,412.6719 C378.9063,412.2344 378.3125,412.0938 377.4375,412.0938 C374.8125,412.0938 372.8125,414.1719 372.8125,416.8906 L372.8125,418.0156 C372.8125,420.5938 374.9219,422.4844 377.8125,422.4844 C379.0313,422.4844 380.1875,422.1875 380.9375,421.6406 C381.5156,421.2344 381.8438,420.7813 381.8438,420.3906 C381.8438,419.9375 381.4531,419.5469 380.9844,419.5469 C380.7656,419.5469 380.5625,419.625 380.375,419.8125 C379.9219,420.2969 379.9219,420.2969 379.7344,420.3906 C379.3125,420.6563 378.625,420.7813 377.8594,420.7813 C375.8125,420.7813 374.5156,419.6875 374.5156,417.9844 L374.5156,416.8906 C374.5156,415.1094 375.7656,413.7969 377.5,413.7969 C378.0781,413.7969 378.6875,413.9531 379.1563,414.2031 C379.6406,414.4844 379.8125,414.7031 379.9063,415.1094 C379.9688,415.5156 380,415.6406 380.1406,415.7656 C380.2813,415.9063 380.5156,416.0156 380.7344,416.0156 C381,416.0156 381.2656,415.875 381.4375,415.6563 C381.5469,415.5 381.5781,415.3125 381.5781,414.8906 L381.5781,413.4688 C381.5781,413.0313 381.5625,412.9063 381.4688,412.75 C381.3125,412.4844 381.0313,412.3438 380.7344,412.3438 C380.4375,412.3438 380.2344,412.4375 380.0156,412.75 L379.8438,412.6719 Z " fill="#000000"/><text fill="#000000" font-family="sans-serif" font-size="12" lengthAdjust="spacing" textLength="33" x="391.5" y="421.1543">Client</text><line style="stroke:#A80036;stroke-width:1.5;" x1="363.5" x2="426.5" y1="433" y2="433"/><!--MD5=[e981d4f96c4342412d1e68160b30cf70]
link Test to TestType--><path codeLine="53" d="M376.407,227.5 C405.412,227.5 446.523,227.5 479.754,227.5 " fill="none" id="Test-TestType" style="stroke:#A80036;stroke-width:1.0;"/><polygon fill="#000000" points="403.5,216.0664,394.4549,213.1275,394.4549,219.0053,403.5,216.0664" style="stroke:#000000;stroke-width:1.0;"/><text fill="#000000" font-family="sans-serif" font-size="13" lengthAdjust="spacing" textLength="54" x="407.5" y="220.5669">contains</text><text fill="#000000" font-family="sans-serif" font-size="13" lengthAdjust="spacing" textLength="8" x="384.1096" y="223.1104">1</text><text fill="#000000" font-family="sans-serif" font-size="13" lengthAdjust="spacing" textLength="8" x="464.035" y="223.5879">1</text><!--MD5=[c23963f6e403fc3ebec8dae22c30ade6]
link Test to Parameter--><path codeLine="54" d="M320.729,266.573 C311.373,286.504 300.729,311.577 294,335 C289.672,350.066 286.707,367.072 284.716,381.893 " fill="none" id="Test-Parameter" style="stroke:#A80036;stroke-width:1.0;"/><polygon fill="#000000" points="297.5095,348.3391,303.0111,340.5813,297.4005,338.8292,297.5095,348.3391" style="stroke:#000000;stroke-width:1.0;"/><text fill="#000000" font-family="sans-serif" font-size="13" lengthAdjust="spacing" textLength="54" x="308" y="348.0669">contains</text><text fill="#000000" font-family="sans-serif" font-size="13" lengthAdjust="spacing" textLength="8" x="308.5839" y="286.9107">1</text><text fill="#000000" font-family="sans-serif" font-size="13" lengthAdjust="spacing" textLength="23" x="260.3781" y="370.9251">1..*</text><!--MD5=[1ae83efc6d1967ce5bc17dfe294d00c2]
link Sample to Test--><path codeLine="55" d="M369.729,73.312 C363.504,105.387 353.965,154.542 347.379,188.479 " fill="none" id="Sample-Test" style="stroke:#A80036;stroke-width:1.0;"/><polygon fill="#000000" points="368.0474,116.4748,372.6557,108.1553,366.8855,107.0355,368.0474,116.4748" style="stroke:#000000;stroke-width:1.0;"/><text fill="#000000" font-family="sans-serif" font-size="13" lengthAdjust="spacing" textLength="100" x="378" y="116.0669">is associated to</text><text fill="#000000" font-family="sans-serif" font-size="13" lengthAdjust="spacing" textLength="7" x="360.9885" y="92.6952">*</text><text fill="#000000" font-family="sans-serif" font-size="13" lengthAdjust="spacing" textLength="23" x="323.6707" y="177.5259">1..*</text><!--MD5=[654c20624370ddaa2a203d96342827a5]
link Parameter to TestParameterResult--><path codeLine="56" d="M281,460.214 C281,483.581 281,513.368 281,536.7432 " fill="none" id="Parameter-TestParameterResult" style="stroke:#A80036;stroke-width:1.0;"/><polygon fill="#000000" points="286,503.5664,288.9389,494.5213,283.0611,494.5213,286,503.5664" style="stroke:#000000;stroke-width:1.0;"/><text fill="#000000" font-family="sans-serif" font-size="13" lengthAdjust="spacing" textLength="54" x="295" y="503.0669">contains</text><text fill="#000000" font-family="sans-serif" font-size="13" lengthAdjust="spacing" textLength="8" x="272.2875" y="480.5768">1</text><text fill="#000000" font-family="sans-serif" font-size="13" lengthAdjust="spacing" textLength="8" x="272.3375" y="526.0427">1</text><!--MD5=[3994f36c72829dbcddd1cf7021dddf61]
link Test to Client--><path codeLine="57" d="M350.998,266.793 C362.628,307.287 380.507,369.539 389.473,400.755 " fill="none" id="Test-Client" style="stroke:#A80036;stroke-width:1.0;"/><polygon fill="#000000" points="381.3802,348.3721,381.7081,338.8672,376.0586,340.4898,381.3802,348.3721" style="stroke:#000000;stroke-width:1.0;"/><text fill="#000000" font-family="sans-serif" font-size="13" lengthAdjust="spacing" textLength="114" x="389" y="348.0669">is associated with</text><text fill="#000000" font-family="sans-serif" font-size="13" lengthAdjust="spacing" textLength="23" x="327.9117" y="286.8783">1..*</text><text fill="#000000" font-family="sans-serif" font-size="13" lengthAdjust="spacing" textLength="8" x="378.7935" y="390.0373">1</text><!--MD5=[c2cdc35a6c3e9c49df1db829c2169a58]
link ClinicalChemistryTechnologist to Test--><path codeLine="58" d="M176.792,60.153 C206.672,90.608 265.541,150.609 303.806,189.61 " fill="none" id="ClinicalChemistryTechnologist-Test" style="stroke:#A80036;stroke-width:1.0;"/><polygon fill="#000000" points="241.5017,115.1355,237.2649,106.6207,233.0692,110.7372,241.5017,115.1355" style="stroke:#000000;stroke-width:1.0;"/><text fill="#000000" font-family="sans-serif" font-size="13" lengthAdjust="spacing" textLength="93" x="247" y="116.0669">sees details of</text><text fill="#000000" font-family="sans-serif" font-size="13" lengthAdjust="spacing" textLength="23" x="155.8429" y="80.016">1..*</text><text fill="#000000" font-family="sans-serif" font-size="13" lengthAdjust="spacing" textLength="8" x="287.8928" y="177.7131">1</text><!--MD5=[87a5f0022a2a3a92268bc4ee95033c51]
link ClinicalChemistryTechnologist to Employee--><path codeLine="59" d="M141.068,60.136 C132.007,71.682 121.757,87.182 117,103 C112.553,117.788 110.844,134.026 110.686,149.73 " fill="none" id="ClinicalChemistryTechnologist-Employee" style="stroke:#A80036;stroke-width:1.0;"/><polygon fill="#000000" points="120.3943,116.3016,126.0823,108.6794,120.5158,106.7918,120.3943,116.3016" style="stroke:#000000;stroke-width:1.0;"/><text fill="#000000" font-family="sans-serif" font-size="13" lengthAdjust="spacing" textLength="53" x="131" y="116.0669">plays as</text><text fill="#000000" font-family="sans-serif" font-size="13" lengthAdjust="spacing" textLength="23" x="110.0715" y="79.9942">1..*</text><text fill="#000000" font-family="sans-serif" font-size="13" lengthAdjust="spacing" textLength="8" x="101.4586" y="138.931">1</text><!--MD5=[0be08d12c36f9759729fdf9160a6be65]
@startuml
hide methods
skinparam classAttributeIconSize 0


class TestParameterResult {
  -createdAt
  -value
  -metric 
}


class Parameter {
  -code
  -shortName
  -description
}


class Test {
  -code
  -NHScode
  -createdAt
}

class ClinicalChemistryTechnologist {
  
}

class Employee {
-userName
-password
-email
-name
-id
-address
-standardOcupationClassificationCode
-phoneNumber
-role
}

class TestType {
  -code
  -description
  -collectionMethod

}

class Sample {
-barcode
-date
}

Test "1" -r- "1" TestType :> contains
Test "1" -d- "1..*" Parameter :> contains
Sample "*" - - "1..*" Test: is associated to >
Parameter "1" - - "1" TestParameterResult: contains >
Test "1..*" - - "1" Client : is associated with >
ClinicalChemistryTechnologist "1..*" - - "1" Test : sees details of >
ClinicalChemistryTechnologist "1..*" - - "1" Employee : plays as >
@enduml

PlantUML version 1.2021.7(Sun May 23 12:40:07 UTC 2021)
(GPL source distribution)
Java Runtime: Java(TM) SE Runtime Environment
JVM: Java HotSpot(TM) 64-Bit Server VM
Default Encoding: UTF-8
Language: en
Country: US
--></g></svg>