<?xml version="1.0" encoding="UTF-8" standalone="no"?><svg xmlns="http://www.w3.org/2000/svg" xmlns:xlink="http://www.w3.org/1999/xlink" contentScriptType="application/ecmascript" contentStyleType="text/css" height="644px" preserveAspectRatio="none" style="width:750px;height:644px;background:#FFFFFF;" version="1.1" viewBox="0 0 750 644" width="750px" zoomAndPan="magnify"><defs><filter height="300%" id="fx66d7zgg6ccv" width="300%" x="-1" y="-1"><feGaussianBlur result="blurOut" stdDeviation="2.0"/><feColorMatrix in="blurOut" result="blurOut2" type="matrix" values="0 0 0 0 0 0 0 0 0 0 0 0 0 0 0 0 0 0 .4 0"/><feOffset dx="4.0" dy="4.0" in="blurOut2" result="blurOut3"/><feBlend in="SourceGraphic" in2="blurOut3" mode="normal"/></filter></defs><g><rect fill="#FFFFFF" filter="url(#fx66d7zgg6ccv)" height="443.9922" style="stroke:#A80036;stroke-width:1.0;" width="10" x="65" y="98.2969"/><rect fill="#FFFFFF" filter="url(#fx66d7zgg6ccv)" height="29.1328" style="stroke:#A80036;stroke-width:1.0;" width="10" x="516" y="119.4297"/><rect fill="#FFFFFF" filter="url(#fx66d7zgg6ccv)" height="29.1328" style="stroke:#A80036;stroke-width:1.0;" width="10" x="516" y="177.6953"/><rect fill="#FFFFFF" filter="url(#fx66d7zgg6ccv)" height="53.2656" style="stroke:#A80036;stroke-width:1.0;" width="10" x="516" y="265.0938"/><rect fill="#FFFFFF" filter="url(#fx66d7zgg6ccv)" height="29.1328" style="stroke:#A80036;stroke-width:1.0;" width="10" x="516" y="347.4922"/><rect fill="#FFFFFF" filter="url(#fx66d7zgg6ccv)" height="78.2656" style="stroke:#A80036;stroke-width:1.0;" width="10" x="516" y="405.7578"/><rect fill="#FFFFFF" filter="url(#fx66d7zgg6ccv)" height="29.1328" style="stroke:#A80036;stroke-width:1.0;" width="10" x="516" y="513.1563"/><rect fill="#FFFFFF" filter="url(#fx66d7zgg6ccv)" height="133.6641" style="stroke:#000000;stroke-width:2.0;" width="559.5" x="10" y="280.0938"/><line style="stroke:#A80036;stroke-width:1.0;stroke-dasharray:5.0,5.0;" x1="70" x2="70" y1="88.2969" y2="560.2891"/><line style="stroke:#A80036;stroke-width:1.0;stroke-dasharray:5.0,5.0;" x1="520.5" x2="520.5" y1="88.2969" y2="560.2891"/><text fill="#000000" font-family="sans-serif" font-size="14" lengthAdjust="spacing" textLength="94" x="20" y="84.9951">Recepcionist</text><ellipse cx="70" cy="15" fill="#FEFECE" filter="url(#fx66d7zgg6ccv)" rx="8" ry="8" style="stroke:#A80036;stroke-width:2.0;"/><path d="M70,23 L70,50 M57,31 L83,31 M70,50 L57,65 M70,50 L83,65 " fill="none" filter="url(#fx66d7zgg6ccv)" style="stroke:#A80036;stroke-width:2.0;"/><text fill="#000000" font-family="sans-serif" font-size="14" lengthAdjust="spacing" textLength="94" x="20" y="572.2842">Recepcionist</text><ellipse cx="70" cy="585.5859" fill="#FEFECE" filter="url(#fx66d7zgg6ccv)" rx="8" ry="8" style="stroke:#A80036;stroke-width:2.0;"/><path d="M70,593.5859 L70,620.5859 M57,601.5859 L83,601.5859 M70,620.5859 L57,635.5859 M70,620.5859 L83,635.5859 " fill="none" filter="url(#fx66d7zgg6ccv)" style="stroke:#A80036;stroke-width:2.0;"/><rect fill="#FEFECE" filter="url(#fx66d7zgg6ccv)" height="30.2969" style="stroke:#A80036;stroke-width:1.5;" width="73" x="482.5" y="53"/><text fill="#000000" font-family="sans-serif" font-size="14" lengthAdjust="spacing" textLength="59" x="489.5" y="72.9951">:System</text><rect fill="#FEFECE" filter="url(#fx66d7zgg6ccv)" height="30.2969" style="stroke:#A80036;stroke-width:1.5;" width="73" x="482.5" y="559.2891"/><text fill="#000000" font-family="sans-serif" font-size="14" lengthAdjust="spacing" textLength="59" x="489.5" y="579.2842">:System</text><rect fill="#FFFFFF" filter="url(#fx66d7zgg6ccv)" height="443.9922" style="stroke:#A80036;stroke-width:1.0;" width="10" x="65" y="98.2969"/><rect fill="#FFFFFF" filter="url(#fx66d7zgg6ccv)" height="29.1328" style="stroke:#A80036;stroke-width:1.0;" width="10" x="516" y="119.4297"/><rect fill="#FFFFFF" filter="url(#fx66d7zgg6ccv)" height="29.1328" style="stroke:#A80036;stroke-width:1.0;" width="10" x="516" y="177.6953"/><rect fill="#FFFFFF" filter="url(#fx66d7zgg6ccv)" height="53.2656" style="stroke:#A80036;stroke-width:1.0;" width="10" x="516" y="265.0938"/><rect fill="#FFFFFF" filter="url(#fx66d7zgg6ccv)" height="29.1328" style="stroke:#A80036;stroke-width:1.0;" width="10" x="516" y="347.4922"/><rect fill="#FFFFFF" filter="url(#fx66d7zgg6ccv)" height="78.2656" style="stroke:#A80036;stroke-width:1.0;" width="10" x="516" y="405.7578"/><rect fill="#FFFFFF" filter="url(#fx66d7zgg6ccv)" height="29.1328" style="stroke:#A80036;stroke-width:1.0;" width="10" x="516" y="513.1563"/><polygon fill="#A80036" points="504,115.4297,514,119.4297,504,123.4297,508,119.4297" style="stroke:#A80036;stroke-width:1.0;"/><line style="stroke:#A80036;stroke-width:1.0;" x1="75" x2="510" y1="119.4297" y2="119.4297"/><text fill="#000000" font-family="sans-serif" font-size="13" font-weight="bold" lengthAdjust="spacing" textLength="9" x="82" y="114.3638">1</text><text fill="#000000" font-family="sans-serif" font-size="13" lengthAdjust="spacing" textLength="409" x="95" y="114.3638">chooses to register a test to be performed to a registered client</text><polygon fill="#A80036" points="86,144.5625,76,148.5625,86,152.5625,82,148.5625" style="stroke:#A80036;stroke-width:1.0;"/><line style="stroke:#A80036;stroke-width:1.0;stroke-dasharray:2.0,2.0;" x1="80" x2="520" y1="148.5625" y2="148.5625"/><text fill="#000000" font-family="sans-serif" font-size="13" font-weight="bold" lengthAdjust="spacing" textLength="9" x="92" y="143.4966">2</text><text fill="#000000" font-family="sans-serif" font-size="13" lengthAdjust="spacing" textLength="221" x="105" y="143.4966">requests data (nhsCode, clientTIN)</text><polygon fill="#A80036" points="504,173.6953,514,177.6953,504,181.6953,508,177.6953" style="stroke:#A80036;stroke-width:1.0;"/><line style="stroke:#A80036;stroke-width:1.0;" x1="75" x2="510" y1="177.6953" y2="177.6953"/><text fill="#000000" font-family="sans-serif" font-size="13" font-weight="bold" lengthAdjust="spacing" textLength="8" x="82" y="172.6294">3</text><text fill="#000000" font-family="sans-serif" font-size="13" lengthAdjust="spacing" textLength="138" x="94" y="172.6294">types requested data</text><polygon fill="#A80036" points="86,202.8281,76,206.8281,86,210.8281,82,206.8281" style="stroke:#A80036;stroke-width:1.0;"/><line style="stroke:#A80036;stroke-width:1.0;stroke-dasharray:2.0,2.0;" x1="80" x2="520" y1="206.8281" y2="206.8281"/><text fill="#000000" font-family="sans-serif" font-size="13" font-weight="bold" lengthAdjust="spacing" textLength="9" x="92" y="201.7622">4</text><text fill="#000000" font-family="sans-serif" font-size="13" lengthAdjust="spacing" textLength="216" x="105" y="201.7622">shows the client linked to that TIN</text><polygon fill="#A80036" points="86,231.9609,76,235.9609,86,239.9609,82,235.9609" style="stroke:#A80036;stroke-width:1.0;"/><line style="stroke:#A80036;stroke-width:1.0;stroke-dasharray:2.0,2.0;" x1="80" x2="520" y1="235.9609" y2="235.9609"/><text fill="#000000" font-family="sans-serif" font-size="13" font-weight="bold" lengthAdjust="spacing" textLength="9" x="92" y="230.895">5</text><text fill="#000000" font-family="sans-serif" font-size="13" lengthAdjust="spacing" textLength="128" x="105" y="230.895">shows all test types</text><polygon fill="#A80036" points="504,261.0938,514,265.0938,504,269.0938,508,265.0938" style="stroke:#A80036;stroke-width:1.0;"/><line style="stroke:#A80036;stroke-width:1.0;" x1="75" x2="510" y1="265.0938" y2="265.0938"/><text fill="#000000" font-family="sans-serif" font-size="13" font-weight="bold" lengthAdjust="spacing" textLength="9" x="82" y="260.0278">6</text><text fill="#000000" font-family="sans-serif" font-size="13" lengthAdjust="spacing" textLength="140" x="95" y="260.0278">chooses the test type</text><path d="M10,280.0938 L88,280.0938 L88,287.0938 L78,297.0938 L10,297.0938 L10,280.0938 " fill="#EEEEEE" style="stroke:#000000;stroke-width:1.0;"/><rect fill="none" height="133.6641" style="stroke:#000000;stroke-width:2.0;" width="559.5" x="10" y="280.0938"/><text fill="#000000" font-family="sans-serif" font-size="13" font-weight="bold" lengthAdjust="spacing" textLength="33" x="25" y="293.1606">loop</text><text fill="#000000" font-family="sans-serif" font-size="11" font-weight="bold" lengthAdjust="spacing" textLength="264" x="103" y="292.3042">[until no more categories are selected]</text><polygon fill="#A80036" points="86,314.3594,76,318.3594,86,322.3594,82,318.3594" style="stroke:#A80036;stroke-width:1.0;"/><line style="stroke:#A80036;stroke-width:1.0;stroke-dasharray:2.0,2.0;" x1="80" x2="520" y1="318.3594" y2="318.3594"/><text fill="#000000" font-family="sans-serif" font-size="13" font-weight="bold" lengthAdjust="spacing" textLength="9" x="92" y="313.2935">7</text><text fill="#000000" font-family="sans-serif" font-size="13" lengthAdjust="spacing" textLength="165" x="105" y="313.2935">shows a set of categories</text><polygon fill="#A80036" points="504,343.4922,514,347.4922,504,351.4922,508,347.4922" style="stroke:#A80036;stroke-width:1.0;"/><line style="stroke:#A80036;stroke-width:1.0;" x1="75" x2="510" y1="347.4922" y2="347.4922"/><text fill="#000000" font-family="sans-serif" font-size="13" font-weight="bold" lengthAdjust="spacing" textLength="9" x="82" y="342.4263">8</text><text fill="#000000" font-family="sans-serif" font-size="13" lengthAdjust="spacing" textLength="139" x="95" y="342.4263">chooses the category</text><polygon fill="#A80036" points="86,372.625,76,376.625,86,380.625,82,376.625" style="stroke:#A80036;stroke-width:1.0;"/><line style="stroke:#A80036;stroke-width:1.0;stroke-dasharray:2.0,2.0;" x1="80" x2="520" y1="376.625" y2="376.625"/><text fill="#000000" font-family="sans-serif" font-size="13" font-weight="bold" lengthAdjust="spacing" textLength="9" x="92" y="371.5591">9</text><text fill="#000000" font-family="sans-serif" font-size="13" lengthAdjust="spacing" textLength="145" x="105" y="371.5591">shows the parameters</text><polygon fill="#A80036" points="504,401.7578,514,405.7578,504,409.7578,508,405.7578" style="stroke:#A80036;stroke-width:1.0;"/><line style="stroke:#A80036;stroke-width:1.0;" x1="75" x2="510" y1="405.7578" y2="405.7578"/><text fill="#000000" font-family="sans-serif" font-size="13" font-weight="bold" lengthAdjust="spacing" textLength="19" x="82" y="400.6919">10</text><text fill="#000000" font-family="sans-serif" font-size="13" lengthAdjust="spacing" textLength="167" x="105" y="400.6919">chooses the parameter(s)</text><line style="stroke:#A80036;stroke-width:1.0;stroke-dasharray:2.0,2.0;" x1="526" x2="568" y1="441.8906" y2="441.8906"/><line style="stroke:#A80036;stroke-width:1.0;stroke-dasharray:2.0,2.0;" x1="568" x2="568" y1="441.8906" y2="454.8906"/><line style="stroke:#A80036;stroke-width:1.0;stroke-dasharray:2.0,2.0;" x1="527" x2="568" y1="454.8906" y2="454.8906"/><polygon fill="#A80036" points="537,450.8906,527,454.8906,537,458.8906,533,454.8906" style="stroke:#A80036;stroke-width:1.0;"/><text fill="#000000" font-family="sans-serif" font-size="13" font-weight="bold" lengthAdjust="spacing" textLength="18" x="533" y="436.8247">11</text><text fill="#000000" font-family="sans-serif" font-size="13" lengthAdjust="spacing" textLength="188" x="555" y="436.8247">Generate TestCode and Date</text><polygon fill="#A80036" points="86,480.0234,76,484.0234,86,488.0234,82,484.0234" style="stroke:#A80036;stroke-width:1.0;"/><line style="stroke:#A80036;stroke-width:1.0;stroke-dasharray:2.0,2.0;" x1="80" x2="520" y1="484.0234" y2="484.0234"/><text fill="#000000" font-family="sans-serif" font-size="13" font-weight="bold" lengthAdjust="spacing" textLength="18" x="92" y="478.9575">12</text><text fill="#000000" font-family="sans-serif" font-size="13" lengthAdjust="spacing" textLength="280" x="114" y="478.9575">shows the test and requests a confirmation</text><polygon fill="#A80036" points="504,509.1563,514,513.1563,504,517.1563,508,513.1563" style="stroke:#A80036;stroke-width:1.0;"/><line style="stroke:#A80036;stroke-width:1.0;" x1="75" x2="510" y1="513.1563" y2="513.1563"/><text fill="#000000" font-family="sans-serif" font-size="13" font-weight="bold" lengthAdjust="spacing" textLength="17" x="82" y="508.0903">13</text><text fill="#000000" font-family="sans-serif" font-size="13" lengthAdjust="spacing" textLength="146" x="103" y="508.0903">confirms the operation</text><polygon fill="#A80036" points="81,538.2891,71,542.2891,81,546.2891,77,542.2891" style="stroke:#A80036;stroke-width:1.0;"/><line style="stroke:#A80036;stroke-width:1.0;stroke-dasharray:2.0,2.0;" x1="75" x2="520" y1="542.2891" y2="542.2891"/><text fill="#000000" font-family="sans-serif" font-size="13" font-weight="bold" lengthAdjust="spacing" textLength="18" x="87" y="537.2231">14</text><text fill="#000000" font-family="sans-serif" font-size="13" lengthAdjust="spacing" textLength="169" x="109" y="537.2231">informs operation success</text><!--MD5=[f52931f20ba4e8961c5354664d3f6df5]
@startuml
autonumber
actor "Recepcionist" as Rec

activate Rec
Rec-> ":System" : chooses to register a test to be performed to a registered client
activate ":System"
":System" - -> Rec : requests data (nhsCode, clientTIN)

deactivate ":System"

Rec -> ":System" : types requested data
activate ":System"

":System" - -> Rec : shows the client linked to that TIN
deactivate ":System"

":System" - -> Rec : shows all test types
deactivate ":System"

Rec -> ":System" : chooses the test type 
activate ":System"
loop until no more categories are selected
":System" - -> Rec : shows a set of categories
deactivate ":System"

Rec -> ":System" : chooses the category 
activate ":System"

":System" - -> Rec : shows the parameters
deactivate ":System"

Rec -> ":System" : chooses the parameter(s)
activate ":System"
end
":System" - -> ":System" : Generate TestCode and Date
":System" - -> Rec : shows the test and requests a confirmation
deactivate ":System"

Rec -> ":System" : confirms the operation 
activate ":System"

":System" - -> Rec : informs operation success
deactivate ":System"
deactivate Rec
@enduml

PlantUML version 1.2021.7(Sun May 23 12:40:07 UTC 2021)
(GPL source distribution)
Java Runtime: Java(TM) SE Runtime Environment
JVM: Java HotSpot(TM) 64-Bit Server VM
Default Encoding: UTF-8
Language: en
Country: US
--></g></svg>