<?xml version="1.0" encoding="UTF-8" standalone="no"?><svg xmlns="http://www.w3.org/2000/svg" xmlns:xlink="http://www.w3.org/1999/xlink" contentScriptType="application/ecmascript" contentStyleType="text/css" height="513px" preserveAspectRatio="none" style="width:1057px;height:513px;background:#FFFFFF;" version="1.1" viewBox="0 0 1057 513" width="1057px" zoomAndPan="magnify"><defs><filter height="300%" id="f1sjkvls05wqmg" width="300%" x="-1" y="-1"><feGaussianBlur result="blurOut" stdDeviation="2.0"/><feColorMatrix in="blurOut" result="blurOut2" type="matrix" values="0 0 0 0 0 0 0 0 0 0 0 0 0 0 0 0 0 0 .4 0"/><feOffset dx="4.0" dy="4.0" in="blurOut2" result="blurOut3"/><feBlend in="SourceGraphic" in2="blurOut3" mode="normal"/></filter></defs><g><!--MD5=[aeb3272166074d8737a70b61b1e71682]
class TestType--><rect codeLine="5" fill="#FEFECE" filter="url(#f1sjkvls05wqmg)" height="78.4141" id="TestType" style="stroke:#A80036;stroke-width:1.5;" width="112" x="614" y="244"/><ellipse cx="639.8" cy="260" fill="#ADD1B2" rx="11" ry="11" style="stroke:#A80036;stroke-width:1.0;"/><path d="M642.1438,255.6719 C641.2063,255.2344 640.6125,255.0938 639.7375,255.0938 C637.1125,255.0938 635.1125,257.1719 635.1125,259.8906 L635.1125,261.0156 C635.1125,263.5938 637.2219,265.4844 640.1125,265.4844 C641.3313,265.4844 642.4875,265.1875 643.2375,264.6406 C643.8156,264.2344 644.1438,263.7813 644.1438,263.3906 C644.1438,262.9375 643.7531,262.5469 643.2844,262.5469 C643.0656,262.5469 642.8625,262.625 642.675,262.8125 C642.2219,263.2969 642.2219,263.2969 642.0344,263.3906 C641.6125,263.6563 640.925,263.7813 640.1594,263.7813 C638.1125,263.7813 636.8156,262.6875 636.8156,260.9844 L636.8156,259.8906 C636.8156,258.1094 638.0656,256.7969 639.8,256.7969 C640.3781,256.7969 640.9875,256.9531 641.4563,257.2031 C641.9406,257.4844 642.1125,257.7031 642.2063,258.1094 C642.2688,258.5156 642.3,258.6406 642.4406,258.7656 C642.5813,258.9063 642.8156,259.0156 643.0344,259.0156 C643.3,259.0156 643.5656,258.875 643.7375,258.6563 C643.8469,258.5 643.8781,258.3125 643.8781,257.8906 L643.8781,256.4688 C643.8781,256.0313 643.8625,255.9063 643.7688,255.75 C643.6125,255.4844 643.3313,255.3438 643.0344,255.3438 C642.7375,255.3438 642.5344,255.4375 642.3156,255.75 L642.1438,255.6719 Z " fill="#000000"/><text fill="#000000" font-family="sans-serif" font-size="12" lengthAdjust="spacing" textLength="56" x="656.2" y="264.1543">TestType</text><line style="stroke:#A80036;stroke-width:1.5;" x1="615" x2="725" y1="276" y2="276"/><text fill="#000000" font-family="sans-serif" font-size="11" lengthAdjust="spacing" textLength="32" x="620" y="290.2104">-code</text><text fill="#000000" font-family="sans-serif" font-size="11" lengthAdjust="spacing" textLength="66" x="620" y="303.0151">-description</text><text fill="#000000" font-family="sans-serif" font-size="11" lengthAdjust="spacing" textLength="100" x="620" y="315.8198">-collectingMethod</text><!--MD5=[02e4b9b7573f1156f41e60aa5b4e25a4]
class Company--><rect codeLine="11" fill="#FEFECE" filter="url(#f1sjkvls05wqmg)" height="52.8047" id="Company" style="stroke:#A80036;stroke-width:1.5;" width="88" x="7.5" y="189.5"/><ellipse cx="22.5" cy="205.5" fill="#ADD1B2" rx="11" ry="11" style="stroke:#A80036;stroke-width:1.0;"/><path d="M24.8438,201.1719 C23.9063,200.7344 23.3125,200.5938 22.4375,200.5938 C19.8125,200.5938 17.8125,202.6719 17.8125,205.3906 L17.8125,206.5156 C17.8125,209.0938 19.9219,210.9844 22.8125,210.9844 C24.0313,210.9844 25.1875,210.6875 25.9375,210.1406 C26.5156,209.7344 26.8438,209.2813 26.8438,208.8906 C26.8438,208.4375 26.4531,208.0469 25.9844,208.0469 C25.7656,208.0469 25.5625,208.125 25.375,208.3125 C24.9219,208.7969 24.9219,208.7969 24.7344,208.8906 C24.3125,209.1563 23.625,209.2813 22.8594,209.2813 C20.8125,209.2813 19.5156,208.1875 19.5156,206.4844 L19.5156,205.3906 C19.5156,203.6094 20.7656,202.2969 22.5,202.2969 C23.0781,202.2969 23.6875,202.4531 24.1563,202.7031 C24.6406,202.9844 24.8125,203.2031 24.9063,203.6094 C24.9688,204.0156 25,204.1406 25.1406,204.2656 C25.2813,204.4063 25.5156,204.5156 25.7344,204.5156 C26,204.5156 26.2656,204.375 26.4375,204.1563 C26.5469,204 26.5781,203.8125 26.5781,203.3906 L26.5781,201.9688 C26.5781,201.5313 26.5625,201.4063 26.4688,201.25 C26.3125,200.9844 26.0313,200.8438 25.7344,200.8438 C25.4375,200.8438 25.2344,200.9375 25.0156,201.25 L24.8438,201.1719 Z " fill="#000000"/><text fill="#000000" font-family="sans-serif" font-size="12" lengthAdjust="spacing" textLength="56" x="36.5" y="209.6543">Company</text><line style="stroke:#A80036;stroke-width:1.5;" x1="8.5" x2="94.5" y1="221.5" y2="221.5"/><text fill="#000000" font-family="sans-serif" font-size="11" lengthAdjust="spacing" textLength="70" x="13.5" y="235.7104">-designation</text><!--MD5=[df38be88ccee13e832d6fafd6288a4ca]
class Test--><rect codeLine="15" fill="#FEFECE" filter="url(#f1sjkvls05wqmg)" height="78.4141" id="Test" style="stroke:#A80036;stroke-width:1.5;" width="89" x="303" y="177"/><ellipse cx="331.95" cy="193" fill="#ADD1B2" rx="11" ry="11" style="stroke:#A80036;stroke-width:1.0;"/><path d="M334.2938,188.6719 C333.3563,188.2344 332.7625,188.0938 331.8875,188.0938 C329.2625,188.0938 327.2625,190.1719 327.2625,192.8906 L327.2625,194.0156 C327.2625,196.5938 329.3719,198.4844 332.2625,198.4844 C333.4813,198.4844 334.6375,198.1875 335.3875,197.6406 C335.9656,197.2344 336.2938,196.7813 336.2938,196.3906 C336.2938,195.9375 335.9031,195.5469 335.4344,195.5469 C335.2156,195.5469 335.0125,195.625 334.825,195.8125 C334.3719,196.2969 334.3719,196.2969 334.1844,196.3906 C333.7625,196.6563 333.075,196.7813 332.3094,196.7813 C330.2625,196.7813 328.9656,195.6875 328.9656,193.9844 L328.9656,192.8906 C328.9656,191.1094 330.2156,189.7969 331.95,189.7969 C332.5281,189.7969 333.1375,189.9531 333.6063,190.2031 C334.0906,190.4844 334.2625,190.7031 334.3563,191.1094 C334.4188,191.5156 334.45,191.6406 334.5906,191.7656 C334.7313,191.9063 334.9656,192.0156 335.1844,192.0156 C335.45,192.0156 335.7156,191.875 335.8875,191.6563 C335.9969,191.5 336.0281,191.3125 336.0281,190.8906 L336.0281,189.4688 C336.0281,189.0313 336.0125,188.9063 335.9188,188.75 C335.7625,188.4844 335.4813,188.3438 335.1844,188.3438 C334.8875,188.3438 334.6844,188.4375 334.4656,188.75 L334.2938,188.6719 Z " fill="#000000"/><text fill="#000000" font-family="sans-serif" font-size="12" lengthAdjust="spacing" textLength="26" x="349.05" y="197.1543">Test</text><line style="stroke:#A80036;stroke-width:1.5;" x1="304" x2="391" y1="209" y2="209"/><text fill="#000000" font-family="sans-serif" font-size="11" lengthAdjust="spacing" textLength="77" x="309" y="223.2104">-internalCode</text><text fill="#000000" font-family="sans-serif" font-size="11" lengthAdjust="spacing" textLength="54" x="309" y="236.0151">-nhsCode</text><text fill="#000000" font-family="sans-serif" font-size="11" lengthAdjust="spacing" textLength="31" x="309" y="248.8198">-labId</text><!--MD5=[36afb6bbd95a8ac778c4537c55a683d5]
class ParameterCategory--><rect codeLine="21" fill="#FEFECE" filter="url(#f1sjkvls05wqmg)" height="65.6094" id="ParameterCategory" style="stroke:#A80036;stroke-width:1.5;" width="148" x="895" y="55"/><ellipse cx="910" cy="71" fill="#ADD1B2" rx="11" ry="11" style="stroke:#A80036;stroke-width:1.0;"/><path d="M912.3438,66.6719 C911.4063,66.2344 910.8125,66.0938 909.9375,66.0938 C907.3125,66.0938 905.3125,68.1719 905.3125,70.8906 L905.3125,72.0156 C905.3125,74.5938 907.4219,76.4844 910.3125,76.4844 C911.5313,76.4844 912.6875,76.1875 913.4375,75.6406 C914.0156,75.2344 914.3438,74.7813 914.3438,74.3906 C914.3438,73.9375 913.9531,73.5469 913.4844,73.5469 C913.2656,73.5469 913.0625,73.625 912.875,73.8125 C912.4219,74.2969 912.4219,74.2969 912.2344,74.3906 C911.8125,74.6563 911.125,74.7813 910.3594,74.7813 C908.3125,74.7813 907.0156,73.6875 907.0156,71.9844 L907.0156,70.8906 C907.0156,69.1094 908.2656,67.7969 910,67.7969 C910.5781,67.7969 911.1875,67.9531 911.6563,68.2031 C912.1406,68.4844 912.3125,68.7031 912.4063,69.1094 C912.4688,69.5156 912.5,69.6406 912.6406,69.7656 C912.7813,69.9063 913.0156,70.0156 913.2344,70.0156 C913.5,70.0156 913.7656,69.875 913.9375,69.6563 C914.0469,69.5 914.0781,69.3125 914.0781,68.8906 L914.0781,67.4688 C914.0781,67.0313 914.0625,66.9063 913.9688,66.75 C913.8125,66.4844 913.5313,66.3438 913.2344,66.3438 C912.9375,66.3438 912.7344,66.4375 912.5156,66.75 L912.3438,66.6719 Z " fill="#000000"/><text fill="#000000" font-family="sans-serif" font-size="12" lengthAdjust="spacing" textLength="116" x="924" y="75.1543">ParameterCategory</text><line style="stroke:#A80036;stroke-width:1.5;" x1="896" x2="1042" y1="87" y2="87"/><text fill="#000000" font-family="sans-serif" font-size="11" lengthAdjust="spacing" textLength="37" x="901" y="101.2104">-name</text><text fill="#000000" font-family="sans-serif" font-size="11" lengthAdjust="spacing" textLength="32" x="901" y="114.0151">-code</text><!--MD5=[c886e9f626b1f684543f4c5ec86b9c7b]
class LabCoordinator--><rect codeLine="26" fill="#FEFECE" filter="url(#f1sjkvls05wqmg)" height="129.6328" id="LabCoordinator" style="stroke:#A80036;stroke-width:1.5;" width="236" x="552" y="79"/><ellipse cx="619.75" cy="95" fill="#ADD1B2" rx="11" ry="11" style="stroke:#A80036;stroke-width:1.0;"/><path d="M622.0938,90.6719 C621.1563,90.2344 620.5625,90.0938 619.6875,90.0938 C617.0625,90.0938 615.0625,92.1719 615.0625,94.8906 L615.0625,96.0156 C615.0625,98.5938 617.1719,100.4844 620.0625,100.4844 C621.2813,100.4844 622.4375,100.1875 623.1875,99.6406 C623.7656,99.2344 624.0938,98.7813 624.0938,98.3906 C624.0938,97.9375 623.7031,97.5469 623.2344,97.5469 C623.0156,97.5469 622.8125,97.625 622.625,97.8125 C622.1719,98.2969 622.1719,98.2969 621.9844,98.3906 C621.5625,98.6563 620.875,98.7813 620.1094,98.7813 C618.0625,98.7813 616.7656,97.6875 616.7656,95.9844 L616.7656,94.8906 C616.7656,93.1094 618.0156,91.7969 619.75,91.7969 C620.3281,91.7969 620.9375,91.9531 621.4063,92.2031 C621.8906,92.4844 622.0625,92.7031 622.1563,93.1094 C622.2188,93.5156 622.25,93.6406 622.3906,93.7656 C622.5313,93.9063 622.7656,94.0156 622.9844,94.0156 C623.25,94.0156 623.5156,93.875 623.6875,93.6563 C623.7969,93.5 623.8281,93.3125 623.8281,92.8906 L623.8281,91.4688 C623.8281,91.0313 623.8125,90.9063 623.7188,90.75 C623.5625,90.4844 623.2813,90.3438 622.9844,90.3438 C622.6875,90.3438 622.4844,90.4375 622.2656,90.75 L622.0938,90.6719 Z " fill="#000000"/><text fill="#000000" font-family="sans-serif" font-size="12" lengthAdjust="spacing" textLength="92" x="640.25" y="99.1543">LabCoordinator</text><line style="stroke:#A80036;stroke-width:1.5;" x1="553" x2="787" y1="111" y2="111"/><text fill="#000000" font-family="sans-serif" font-size="11" lengthAdjust="spacing" textLength="75" x="558" y="125.2104">-employeeID</text><text fill="#000000" font-family="sans-serif" font-size="11" lengthAdjust="spacing" textLength="99" x="558" y="138.0151">-organizationRole</text><text fill="#000000" font-family="sans-serif" font-size="11" lengthAdjust="spacing" textLength="37" x="558" y="150.8198">-name</text><text fill="#000000" font-family="sans-serif" font-size="11" lengthAdjust="spacing" textLength="49" x="558" y="163.6245">-address</text><text fill="#000000" font-family="sans-serif" font-size="11" lengthAdjust="spacing" textLength="85" x="558" y="176.4292">-phoneNumber</text><text fill="#000000" font-family="sans-serif" font-size="11" lengthAdjust="spacing" textLength="34" x="558" y="189.2339">-eMail</text><text fill="#000000" font-family="sans-serif" font-size="11" lengthAdjust="spacing" textLength="224" x="558" y="202.0386">-standardOcupationalClassificationCode</text><!--MD5=[ed6624c6556d5e7b1bd23032162d20b7]
class Client--><rect codeLine="36" fill="#FEFECE" filter="url(#f1sjkvls05wqmg)" height="142.4375" id="Client" style="stroke:#A80036;stroke-width:1.5;" width="97" x="621.5" y="357"/><ellipse cx="650.9" cy="373" fill="#ADD1B2" rx="11" ry="11" style="stroke:#A80036;stroke-width:1.0;"/><path d="M653.2438,368.6719 C652.3063,368.2344 651.7125,368.0938 650.8375,368.0938 C648.2125,368.0938 646.2125,370.1719 646.2125,372.8906 L646.2125,374.0156 C646.2125,376.5938 648.3219,378.4844 651.2125,378.4844 C652.4313,378.4844 653.5875,378.1875 654.3375,377.6406 C654.9156,377.2344 655.2438,376.7813 655.2438,376.3906 C655.2438,375.9375 654.8531,375.5469 654.3844,375.5469 C654.1656,375.5469 653.9625,375.625 653.775,375.8125 C653.3219,376.2969 653.3219,376.2969 653.1344,376.3906 C652.7125,376.6563 652.025,376.7813 651.2594,376.7813 C649.2125,376.7813 647.9156,375.6875 647.9156,373.9844 L647.9156,372.8906 C647.9156,371.1094 649.1656,369.7969 650.9,369.7969 C651.4781,369.7969 652.0875,369.9531 652.5563,370.2031 C653.0406,370.4844 653.2125,370.7031 653.3063,371.1094 C653.3688,371.5156 653.4,371.6406 653.5406,371.7656 C653.6813,371.9063 653.9156,372.0156 654.1344,372.0156 C654.4,372.0156 654.6656,371.875 654.8375,371.6563 C654.9469,371.5 654.9781,371.3125 654.9781,370.8906 L654.9781,369.4688 C654.9781,369.0313 654.9625,368.9063 654.8688,368.75 C654.7125,368.4844 654.4313,368.3438 654.1344,368.3438 C653.8375,368.3438 653.6344,368.4375 653.4156,368.75 L653.2438,368.6719 Z " fill="#000000"/><text fill="#000000" font-family="sans-serif" font-size="12" lengthAdjust="spacing" textLength="33" x="668.1" y="377.1543">Client</text><line style="stroke:#A80036;stroke-width:1.5;" x1="622.5" x2="717.5" y1="389" y2="389"/><text fill="#000000" font-family="sans-serif" font-size="11" lengthAdjust="spacing" textLength="23" x="627.5" y="403.2104">-ccn</text><text fill="#000000" font-family="sans-serif" font-size="11" lengthAdjust="spacing" textLength="37" x="627.5" y="416.0151">-name</text><text fill="#000000" font-family="sans-serif" font-size="11" lengthAdjust="spacing" textLength="69" x="627.5" y="428.8198">-nhsNumber</text><text fill="#000000" font-family="sans-serif" font-size="11" lengthAdjust="spacing" textLength="57" x="627.5" y="441.6245">-birthDate</text><text fill="#000000" font-family="sans-serif" font-size="11" lengthAdjust="spacing" textLength="25" x="627.5" y="454.4292">-sex</text><text fill="#000000" font-family="sans-serif" font-size="11" lengthAdjust="spacing" textLength="15" x="627.5" y="467.2339">-tif</text><text fill="#000000" font-family="sans-serif" font-size="11" lengthAdjust="spacing" textLength="85" x="627.5" y="480.0386">-phoneNumber</text><text fill="#000000" font-family="sans-serif" font-size="11" lengthAdjust="spacing" textLength="34" x="627.5" y="492.8433">-eMail</text><!--MD5=[a999c1570c205a2156b04a15307bc1ff]
class LabOrder--><rect codeLine="46" fill="#FEFECE" filter="url(#f1sjkvls05wqmg)" height="65.6094" id="LabOrder" style="stroke:#A80036;stroke-width:1.5;" width="89" x="7" y="363"/><ellipse cx="22" cy="379" fill="#ADD1B2" rx="11" ry="11" style="stroke:#A80036;stroke-width:1.0;"/><path d="M24.3438,374.6719 C23.4063,374.2344 22.8125,374.0938 21.9375,374.0938 C19.3125,374.0938 17.3125,376.1719 17.3125,378.8906 L17.3125,380.0156 C17.3125,382.5938 19.4219,384.4844 22.3125,384.4844 C23.5313,384.4844 24.6875,384.1875 25.4375,383.6406 C26.0156,383.2344 26.3438,382.7813 26.3438,382.3906 C26.3438,381.9375 25.9531,381.5469 25.4844,381.5469 C25.2656,381.5469 25.0625,381.625 24.875,381.8125 C24.4219,382.2969 24.4219,382.2969 24.2344,382.3906 C23.8125,382.6563 23.125,382.7813 22.3594,382.7813 C20.3125,382.7813 19.0156,381.6875 19.0156,379.9844 L19.0156,378.8906 C19.0156,377.1094 20.2656,375.7969 22,375.7969 C22.5781,375.7969 23.1875,375.9531 23.6563,376.2031 C24.1406,376.4844 24.3125,376.7031 24.4063,377.1094 C24.4688,377.5156 24.5,377.6406 24.6406,377.7656 C24.7813,377.9063 25.0156,378.0156 25.2344,378.0156 C25.5,378.0156 25.7656,377.875 25.9375,377.6563 C26.0469,377.5 26.0781,377.3125 26.0781,376.8906 L26.0781,375.4688 C26.0781,375.0313 26.0625,374.9063 25.9688,374.75 C25.8125,374.4844 25.5313,374.3438 25.2344,374.3438 C24.9375,374.3438 24.7344,374.4375 24.5156,374.75 L24.3438,374.6719 Z " fill="#000000"/><text fill="#000000" font-family="sans-serif" font-size="12" lengthAdjust="spacing" textLength="57" x="36" y="383.1543">LabOrder</text><line style="stroke:#A80036;stroke-width:1.5;" x1="8" x2="95" y1="395" y2="395"/><text fill="#000000" font-family="sans-serif" font-size="11" lengthAdjust="spacing" textLength="55" x="13" y="409.2104">-testType</text><text fill="#000000" font-family="sans-serif" font-size="11" lengthAdjust="spacing" textLength="70" x="13" y="422.0151">-parameters</text><!--MD5=[1f6362a5c8f21d8d6a0fce68f3a92a4e]
class Parameter--><rect codeLine="51" fill="#FEFECE" filter="url(#f1sjkvls05wqmg)" height="78.4141" id="Parameter" style="stroke:#A80036;stroke-width:1.5;" width="93" x="425.5" y="7"/><ellipse cx="440.5" cy="23" fill="#ADD1B2" rx="11" ry="11" style="stroke:#A80036;stroke-width:1.0;"/><path d="M442.8438,18.6719 C441.9063,18.2344 441.3125,18.0938 440.4375,18.0938 C437.8125,18.0938 435.8125,20.1719 435.8125,22.8906 L435.8125,24.0156 C435.8125,26.5938 437.9219,28.4844 440.8125,28.4844 C442.0313,28.4844 443.1875,28.1875 443.9375,27.6406 C444.5156,27.2344 444.8438,26.7813 444.8438,26.3906 C444.8438,25.9375 444.4531,25.5469 443.9844,25.5469 C443.7656,25.5469 443.5625,25.625 443.375,25.8125 C442.9219,26.2969 442.9219,26.2969 442.7344,26.3906 C442.3125,26.6563 441.625,26.7813 440.8594,26.7813 C438.8125,26.7813 437.5156,25.6875 437.5156,23.9844 L437.5156,22.8906 C437.5156,21.1094 438.7656,19.7969 440.5,19.7969 C441.0781,19.7969 441.6875,19.9531 442.1563,20.2031 C442.6406,20.4844 442.8125,20.7031 442.9063,21.1094 C442.9688,21.5156 443,21.6406 443.1406,21.7656 C443.2813,21.9063 443.5156,22.0156 443.7344,22.0156 C444,22.0156 444.2656,21.875 444.4375,21.6563 C444.5469,21.5 444.5781,21.3125 444.5781,20.8906 L444.5781,19.4688 C444.5781,19.0313 444.5625,18.9063 444.4688,18.75 C444.3125,18.4844 444.0313,18.3438 443.7344,18.3438 C443.4375,18.3438 443.2344,18.4375 443.0156,18.75 L442.8438,18.6719 Z " fill="#000000"/><text fill="#000000" font-family="sans-serif" font-size="12" lengthAdjust="spacing" textLength="61" x="454.5" y="27.1543">Parameter</text><line style="stroke:#A80036;stroke-width:1.5;" x1="426.5" x2="517.5" y1="39" y2="39"/><text fill="#000000" font-family="sans-serif" font-size="11" lengthAdjust="spacing" textLength="32" x="431.5" y="53.2104">-code</text><text fill="#000000" font-family="sans-serif" font-size="11" lengthAdjust="spacing" textLength="65" x="431.5" y="66.0151">-shortname</text><text fill="#000000" font-family="sans-serif" font-size="11" lengthAdjust="spacing" textLength="66" x="431.5" y="78.8198">-description</text><!--MD5=[8aaf0efd5e2f3824be7ea3e488dcc283]
link TestType to ParameterCategory--><path codeLine="57" d="M726.141,259.526 C746.116,250.271 768.538,238.986 788,227 C839.942,195.012 894.75,151.006 930.046,121.14 " fill="none" id="TestType-ParameterCategory" style="stroke:#A80036;stroke-width:1.0;"/><polygon fill="#000000" points="827.1372,161.7586,818.0026,164.4062,821.3033,169.2697,827.1372,161.7586" style="stroke:#000000;stroke-width:1.0;"/><text fill="#000000" font-family="sans-serif" font-size="13" lengthAdjust="spacing" textLength="32" x="832" y="169.0669">have</text><text fill="#000000" font-family="sans-serif" font-size="13" lengthAdjust="spacing" textLength="7" x="734.1553" y="269.4275">*</text><text fill="#000000" font-family="sans-serif" font-size="13" lengthAdjust="spacing" textLength="23" x="897.7435" y="140.7481">1..*</text><!--MD5=[f789004e53b0848475cb46cb46c2a27f]
link Test to LabCoordinator--><path codeLine="58" d="M392.058,206.215 C433.049,197.006 496.289,182.799 551.994,170.285 " fill="none" id="Test-LabCoordinator" style="stroke:#A80036;stroke-width:1.0;"/><polygon fill="#000000" points="440.1216,169.6624,449.5909,170.5472,448.3025,164.8123,440.1216,169.6624" style="stroke:#000000;stroke-width:1.0;"/><text fill="#000000" font-family="sans-serif" font-size="13" lengthAdjust="spacing" textLength="49" x="454" y="173.0669">imports</text><text fill="#000000" font-family="sans-serif" font-size="13" lengthAdjust="spacing" textLength="7" x="400.0176" y="217.8802">*</text><text fill="#000000" font-family="sans-serif" font-size="13" lengthAdjust="spacing" textLength="8" x="536.178" y="184.5323">1</text><!--MD5=[e981d4f96c4342412d1e68160b30cf70]
link Test to TestType--><path codeLine="60" d="M392.24,221.435 C427.471,226.141 478.173,233.657 522,243 C552.653,249.534 586.425,258.59 613.861,266.433 " fill="none" id="Test-TestType" style="stroke:#A80036;stroke-width:1.0;"/><polygon fill="#000000" points="460.9,217.5613,452.6206,212.8814,451.451,218.6417,460.9,217.5613" style="stroke:#000000;stroke-width:1.0;"/><text fill="#000000" font-family="sans-serif" font-size="13" lengthAdjust="spacing" textLength="27" x="465" y="221.0669">is of</text><text fill="#000000" font-family="sans-serif" font-size="13" lengthAdjust="spacing" textLength="7" x="399.9283" y="235.541">*</text><text fill="#000000" font-family="sans-serif" font-size="13" lengthAdjust="spacing" textLength="8" x="598.1557" y="277.3202">1</text><!--MD5=[7e4bc624457760b649895ff2ead938fa]
link Company to Test--><path codeLine="61" d="M95.565,216 C151.069,216 247.048,216 302.84,216 " fill="none" id="Company-Test" style="stroke:#A80036;stroke-width:1.0;"/><polygon fill="#000000" points="172.5,207.5664,163.4549,204.6275,163.4549,210.5053,172.5,207.5664" style="stroke:#000000;stroke-width:1.0;"/><text fill="#000000" font-family="sans-serif" font-size="13" lengthAdjust="spacing" textLength="59" x="176.5" y="212.0669">performs</text><text fill="#000000" font-family="sans-serif" font-size="13" lengthAdjust="spacing" textLength="8" x="103.5258" y="229.3363">1</text><text fill="#000000" font-family="sans-serif" font-size="13" lengthAdjust="spacing" textLength="7" x="287.8635" y="229.2858">*</text><!--MD5=[84a279e28ad6c3248737114c29c49c27]
link LabOrder to Test--><path codeLine="64" d="M96.1973,369.247 C151.703,335.263 246.943,276.953 302.563,242.9 " fill="none" id="LabOrder-Test" style="stroke:#A80036;stroke-width:1.0;"/><polygon fill="#000000" points="178.2643,252.9556,169.0156,255.1721,172.0847,260.185,178.2643,252.9556" style="stroke:#000000;stroke-width:1.0;"/><text fill="#000000" font-family="sans-serif" font-size="13" lengthAdjust="spacing" textLength="46" x="183" y="260.0669">used in</text><text fill="#000000" font-family="sans-serif" font-size="13" lengthAdjust="spacing" textLength="8" x="103.9584" y="378.2872">1</text><text fill="#000000" font-family="sans-serif" font-size="13" lengthAdjust="spacing" textLength="8" x="287.0695" y="260.2129">1</text><!--MD5=[6df8849671cb880f6936e94aa30db6f9]
link Parameter to ParameterCategory--><path codeLine="65" d="M518.75,46.727 C580.141,48.034 692.514,51.59 788,61 C823.221,64.471 862.077,70.073 894.645,75.277 " fill="none" id="Parameter-ParameterCategory" style="stroke:#A80036;stroke-width:1.0;"/><polygon fill="#000000" points="619.4856,39.9451,610.6891,36.3296,610.244,42.1905,619.4856,39.9451" style="stroke:#000000;stroke-width:1.0;"/><text fill="#000000" font-family="sans-serif" font-size="13" lengthAdjust="spacing" textLength="106" x="623.5" y="44.0669">presented under</text><text fill="#000000" font-family="sans-serif" font-size="13" lengthAdjust="spacing" textLength="7" x="526.4445" y="60.0321">*</text><text fill="#000000" font-family="sans-serif" font-size="13" lengthAdjust="spacing" textLength="8" x="878.9319" y="86.8555">1</text><!--MD5=[12d76240d3c3c66074d4ec2ea8bf469c]
link Company to Parameter--><path codeLine="67" d="M95.7106,198.447 C175.279,166.126 344.242,97.491 425.495,64.485 " fill="none" id="Company-Parameter" style="stroke:#A80036;stroke-width:1.0;"/><polygon fill="#000000" points="135.6324,117.6847,126.1463,118.3659,128.3584,123.8116,135.6324,117.6847" style="stroke:#000000;stroke-width:1.0;"/><text fill="#000000" font-family="sans-serif" font-size="13" lengthAdjust="spacing" textLength="132" x="140" y="124.0669">capable of analysing</text><text fill="#000000" font-family="sans-serif" font-size="13" lengthAdjust="spacing" textLength="8" x="103.3942" y="208.9378">1</text><text fill="#000000" font-family="sans-serif" font-size="13" lengthAdjust="spacing" textLength="7" x="410.5255" y="80.6708">*</text><!--MD5=[b097d9d314264888b7dbeddc95343863]
link LabOrder to Client--><path codeLine="68" d="M96.3429,398.276 C208.441,404.0943 504.854,419.4798 621.181,425.5179 " fill="none" id="LabOrder-Client" style="stroke:#A80036;stroke-width:1.0;"/><polygon fill="#000000" points="320.5067,400.3072,329.3873,403.7111,329.692,397.8411,320.5067,400.3072" style="stroke:#000000;stroke-width:1.0;"/><text fill="#000000" font-family="sans-serif" font-size="13" lengthAdjust="spacing" textLength="39" x="334.5" y="405.0669">brings</text><text fill="#000000" font-family="sans-serif" font-size="13" lengthAdjust="spacing" textLength="8" x="104.1272" y="411.9427">1</text><text fill="#000000" font-family="sans-serif" font-size="13" lengthAdjust="spacing" textLength="8" x="605.4232" y="438.2994">1</text><!--MD5=[3994f36c72829dbcddd1cf7021dddf61]
link Test to Client--><path codeLine="69" d="M392.214,247.367 C401.965,254.241 412.293,261.426 422,268 C490.534,314.412 571.241,366.156 621.27,397.898 " fill="none" id="Test-Client" style="stroke:#A80036;stroke-width:1.0;"/><polygon fill="#000000" points="431.1785,262.3124,425.2336,254.8888,422.0055,259.8009,431.1785,262.3124" style="stroke:#000000;stroke-width:1.0;"/><text fill="#000000" font-family="sans-serif" font-size="13" lengthAdjust="spacing" textLength="85" x="436" y="264.0669">requested by</text><text fill="#000000" font-family="sans-serif" font-size="13" lengthAdjust="spacing" textLength="8" x="399.9778" y="265.6059">1</text><text fill="#000000" font-family="sans-serif" font-size="13" lengthAdjust="spacing" textLength="8" x="605.5253" y="406.6229">1</text><!--MD5=[742a261f27a3dcd734c626287d811acd]
link Company to TestType--><path codeLine="70" d="M95.6724,232.044 C145.031,249.61 228.623,277.003 303,290 C398.929,306.763 424.727,301.622 522,297 C552.473,295.552 586.379,292.425 613.942,289.493 " fill="none" id="Company-TestType" style="stroke:#A80036;stroke-width:1.0;"/><polygon fill="#000000" points="320.9696,282.1173,312.3033,278.1997,311.6557,284.0418,320.9696,282.1173" style="stroke:#000000;stroke-width:1.0;"/><text fill="#000000" font-family="sans-serif" font-size="13" lengthAdjust="spacing" textLength="58" x="325" y="286.0669">conducts</text><text fill="#000000" font-family="sans-serif" font-size="13" lengthAdjust="spacing" textLength="8" x="103.3499" y="247.8894">1</text><text fill="#000000" font-family="sans-serif" font-size="13" lengthAdjust="spacing" textLength="7" x="598.9389" y="303.4213">*</text><!--MD5=[89051020012efec1640817ac48689827]
@startuml
skinparam classAttributeIconSize 0
hide methods
left to right direction

class TestType {
  -code
  -description
  -collectingMethod
}

class Company {
  -designation
}

class Test {
-internalCode
-nhsCode
-labId
}

class ParameterCategory {
  -name
  -code
}

Class LabCoordinator{
-employeeID
-organizationRole
-name
-address
-phoneNumber
-eMail
-standardOcupationalClassificationCode
}

Class Client{
-ccn
-name
-nhsNumber
-birthDate
-sex
-tif
-phoneNumber
-eMail
}
Class LabOrder{
-testType
-parameters
}

class Parameter {
 -code
 -shortname
 -description
}

TestType "*" - - "1..*" ParameterCategory : have >
Test "*" - - "1" LabCoordinator : imports <

Test "*" - - "1" TestType : is of >
Company "1" - - "*" Test : performs >


LabOrder "1" - - "1" Test : used in >
Parameter "*" - - "1" ParameterCategory : presented under >

Company "1" - - "*" Parameter : capable of analysing >
LabOrder "1" - - "1" Client: brings <
Test "1" - - "1" Client: requested by >
Company "1" - - "*" TestType : conducts >
@enduml

PlantUML version 1.2021.7(Sun May 23 12:40:07 UTC 2021)
(GPL source distribution)
Java Runtime: Java(TM) SE Runtime Environment
JVM: Java HotSpot(TM) 64-Bit Server VM
Default Encoding: UTF-8
Language: en
Country: US
--></g></svg>