<?xml version="1.0" encoding="UTF-8" standalone="no"?><svg xmlns="http://www.w3.org/2000/svg" xmlns:xlink="http://www.w3.org/1999/xlink" contentScriptType="application/ecmascript" contentStyleType="text/css" height="309px" preserveAspectRatio="none" style="width:482px;height:309px;background:#FFFFFF;" version="1.1" viewBox="0 0 482 309" width="482px" zoomAndPan="magnify"><defs><filter height="300%" id="fy0ei12i7kmdm" width="300%" x="-1" y="-1"><feGaussianBlur result="blurOut" stdDeviation="2.0"/><feColorMatrix in="blurOut" result="blurOut2" type="matrix" values="0 0 0 0 0 0 0 0 0 0 0 0 0 0 0 0 0 0 .4 0"/><feOffset dx="4.0" dy="4.0" in="blurOut2" result="blurOut3"/><feBlend in="SourceGraphic" in2="blurOut3" mode="normal"/></filter></defs><g><rect fill="#FFFFFF" filter="url(#fy0ei12i7kmdm)" height="117.5313" style="stroke:#A80036;stroke-width:1.0;" width="10" x="61" y="98.2969"/><rect fill="#FFFFFF" filter="url(#fy0ei12i7kmdm)" height="29.1328" style="stroke:#A80036;stroke-width:1.0;" width="10" x="429" y="119.4297"/><rect fill="#FFFFFF" filter="url(#fy0ei12i7kmdm)" height="29.1328" style="stroke:#A80036;stroke-width:1.0;" width="10" x="429" y="177.6953"/><line style="stroke:#A80036;stroke-width:1.0;stroke-dasharray:5.0,5.0;" x1="66" x2="66" y1="88.2969" y2="224.8281"/><line style="stroke:#A80036;stroke-width:1.0;stroke-dasharray:5.0,5.0;" x1="433.5" x2="433.5" y1="88.2969" y2="224.8281"/><text fill="#000000" font-family="sans-serif" font-size="14" lengthAdjust="spacing" textLength="116" x="5" y="84.9951">Lab Coordinator</text><ellipse cx="66" cy="15" fill="#FEFECE" filter="url(#fy0ei12i7kmdm)" rx="8" ry="8" style="stroke:#A80036;stroke-width:2.0;"/><path d="M66,23 L66,50 M53,31 L79,31 M66,50 L53,65 M66,50 L79,65 " fill="none" filter="url(#fy0ei12i7kmdm)" style="stroke:#A80036;stroke-width:2.0;"/><text fill="#000000" font-family="sans-serif" font-size="14" lengthAdjust="spacing" textLength="116" x="5" y="236.8232">Lab Coordinator</text><ellipse cx="66" cy="250.125" fill="#FEFECE" filter="url(#fy0ei12i7kmdm)" rx="8" ry="8" style="stroke:#A80036;stroke-width:2.0;"/><path d="M66,258.125 L66,285.125 M53,266.125 L79,266.125 M66,285.125 L53,300.125 M66,285.125 L79,300.125 " fill="none" filter="url(#fy0ei12i7kmdm)" style="stroke:#A80036;stroke-width:2.0;"/><rect fill="#FEFECE" filter="url(#fy0ei12i7kmdm)" height="30.2969" style="stroke:#A80036;stroke-width:1.5;" width="73" x="395.5" y="53"/><text fill="#000000" font-family="sans-serif" font-size="14" lengthAdjust="spacing" textLength="59" x="402.5" y="72.9951">:System</text><rect fill="#FEFECE" filter="url(#fy0ei12i7kmdm)" height="30.2969" style="stroke:#A80036;stroke-width:1.5;" width="73" x="395.5" y="223.8281"/><text fill="#000000" font-family="sans-serif" font-size="14" lengthAdjust="spacing" textLength="59" x="402.5" y="243.8232">:System</text><rect fill="#FFFFFF" filter="url(#fy0ei12i7kmdm)" height="117.5313" style="stroke:#A80036;stroke-width:1.0;" width="10" x="61" y="98.2969"/><rect fill="#FFFFFF" filter="url(#fy0ei12i7kmdm)" height="29.1328" style="stroke:#A80036;stroke-width:1.0;" width="10" x="429" y="119.4297"/><rect fill="#FFFFFF" filter="url(#fy0ei12i7kmdm)" height="29.1328" style="stroke:#A80036;stroke-width:1.0;" width="10" x="429" y="177.6953"/><polygon fill="#A80036" points="417,115.4297,427,119.4297,417,123.4297,421,119.4297" style="stroke:#A80036;stroke-width:1.0;"/><line style="stroke:#A80036;stroke-width:1.0;" x1="71" x2="423" y1="119.4297" y2="119.4297"/><text fill="#000000" font-family="sans-serif" font-size="13" font-weight="bold" lengthAdjust="spacing" textLength="9" x="78" y="114.3638">1</text><text fill="#000000" font-family="sans-serif" font-size="13" lengthAdjust="spacing" textLength="298" x="91" y="114.3638">chooses to import clinical tests from a CSV file</text><polygon fill="#A80036" points="82,144.5625,72,148.5625,82,152.5625,78,148.5625" style="stroke:#A80036;stroke-width:1.0;"/><line style="stroke:#A80036;stroke-width:1.0;stroke-dasharray:2.0,2.0;" x1="76" x2="433" y1="148.5625" y2="148.5625"/><text fill="#000000" font-family="sans-serif" font-size="13" font-weight="bold" lengthAdjust="spacing" textLength="9" x="88" y="143.4966">2</text><text fill="#000000" font-family="sans-serif" font-size="13" lengthAdjust="spacing" textLength="321" x="101" y="143.4966">opens a window, with a button to select a CSV file</text><polygon fill="#A80036" points="417,173.6953,427,177.6953,417,181.6953,421,177.6953" style="stroke:#A80036;stroke-width:1.0;"/><line style="stroke:#A80036;stroke-width:1.0;" x1="71" x2="423" y1="177.6953" y2="177.6953"/><text fill="#000000" font-family="sans-serif" font-size="13" font-weight="bold" lengthAdjust="spacing" textLength="8" x="78" y="172.6294">3</text><text fill="#000000" font-family="sans-serif" font-size="13" lengthAdjust="spacing" textLength="110" x="90" y="172.6294">selects a CSV file</text><polygon fill="#A80036" points="82,202.8281,72,206.8281,82,210.8281,78,206.8281" style="stroke:#A80036;stroke-width:1.0;"/><line style="stroke:#A80036;stroke-width:1.0;stroke-dasharray:2.0,2.0;" x1="76" x2="433" y1="206.8281" y2="206.8281"/><text fill="#000000" font-family="sans-serif" font-size="13" font-weight="bold" lengthAdjust="spacing" textLength="9" x="88" y="201.7622">4</text><text fill="#000000" font-family="sans-serif" font-size="13" lengthAdjust="spacing" textLength="169" x="101" y="201.7622">informs operation success</text><!--MD5=[1c1225ff912af07e20da94774c289217]
@startuml
autonumber
actor "Lab Coordinator" as Rec

activate Rec
Rec-> ":System" : chooses to import clinical tests from a CSV file
activate ":System"
":System" - -> Rec : opens a window, with a button to select a CSV file

deactivate ":System"

Rec -> ":System" : selects a CSV file
activate ":System"

":System" - -> Rec : informs operation success
deactivate ":System"
@enduml

PlantUML version 1.2021.7(Sun May 23 12:40:07 UTC 2021)
(GPL source distribution)
Java Runtime: Java(TM) SE Runtime Environment
JVM: Java HotSpot(TM) 64-Bit Server VM
Default Encoding: UTF-8
Language: en
Country: US
--></g></svg>