<?xml version="1.0" encoding="UTF-8" standalone="no"?><svg xmlns="http://www.w3.org/2000/svg" xmlns:xlink="http://www.w3.org/1999/xlink" contentScriptType="application/ecmascript" contentStyleType="text/css" height="712px" preserveAspectRatio="none" style="width:3532px;height:712px;background:#FFFFFF;" version="1.1" viewBox="0 0 3532 712" width="3532px" zoomAndPan="magnify"><defs><filter height="300%" id="f1p4ip3fhavbs1" width="300%" x="-1" y="-1"><feGaussianBlur result="blurOut" stdDeviation="2.0"/><feColorMatrix in="blurOut" result="blurOut2" type="matrix" values="0 0 0 0 0 0 0 0 0 0 0 0 0 0 0 0 0 0 .4 0"/><feOffset dx="4.0" dy="4.0" in="blurOut2" result="blurOut3"/><feBlend in="SourceGraphic" in2="blurOut3" mode="normal"/></filter></defs><g><!--MD5=[1934a092c0e7d4da7dc7075b6f4b6b03]
class ClinicalAnalysisLaboratory--><rect codeLine="3" fill="#FEFECE" filter="url(#f1p4ip3fhavbs1)" height="112.0234" id="ClinicalAnalysisLaboratory" style="stroke:#A80036;stroke-width:1.5;" width="187" x="1821" y="327"/><ellipse cx="1836" cy="343" fill="#ADD1B2" rx="11" ry="11" style="stroke:#A80036;stroke-width:1.0;"/><path d="M1838.3438,338.6719 C1837.4063,338.2344 1836.8125,338.0938 1835.9375,338.0938 C1833.3125,338.0938 1831.3125,340.1719 1831.3125,342.8906 L1831.3125,344.0156 C1831.3125,346.5938 1833.4219,348.4844 1836.3125,348.4844 C1837.5313,348.4844 1838.6875,348.1875 1839.4375,347.6406 C1840.0156,347.2344 1840.3438,346.7813 1840.3438,346.3906 C1840.3438,345.9375 1839.9531,345.5469 1839.4844,345.5469 C1839.2656,345.5469 1839.0625,345.625 1838.875,345.8125 C1838.4219,346.2969 1838.4219,346.2969 1838.2344,346.3906 C1837.8125,346.6563 1837.125,346.7813 1836.3594,346.7813 C1834.3125,346.7813 1833.0156,345.6875 1833.0156,343.9844 L1833.0156,342.8906 C1833.0156,341.1094 1834.2656,339.7969 1836,339.7969 C1836.5781,339.7969 1837.1875,339.9531 1837.6563,340.2031 C1838.1406,340.4844 1838.3125,340.7031 1838.4063,341.1094 C1838.4688,341.5156 1838.5,341.6406 1838.6406,341.7656 C1838.7813,341.9063 1839.0156,342.0156 1839.2344,342.0156 C1839.5,342.0156 1839.7656,341.875 1839.9375,341.6563 C1840.0469,341.5 1840.0781,341.3125 1840.0781,340.8906 L1840.0781,339.4688 C1840.0781,339.0313 1840.0625,338.9063 1839.9688,338.75 C1839.8125,338.4844 1839.5313,338.3438 1839.2344,338.3438 C1838.9375,338.3438 1838.7344,338.4375 1838.5156,338.75 L1838.3438,338.6719 Z " fill="#000000"/><text fill="#000000" font-family="sans-serif" font-size="12" lengthAdjust="spacing" textLength="155" x="1850" y="347.1543">ClinicalAnalysisLaboratory</text><line style="stroke:#A80036;stroke-width:1.5;" x1="1822" x2="2007" y1="359" y2="359"/><text fill="#000000" font-family="sans-serif" font-size="11" lengthAdjust="spacing" textLength="73" x="1827" y="373.2104">String name;</text><text fill="#000000" font-family="sans-serif" font-size="11" lengthAdjust="spacing" textLength="78" x="1827" y="386.0151">String adress;</text><text fill="#000000" font-family="sans-serif" font-size="11" lengthAdjust="spacing" textLength="112" x="1827" y="398.8198">long phoneNumber;</text><text fill="#000000" font-family="sans-serif" font-size="11" lengthAdjust="spacing" textLength="45" x="1827" y="411.6245">long tin;</text><text fill="#000000" font-family="sans-serif" font-size="11" lengthAdjust="spacing" textLength="155" x="1827" y="424.4292">List&lt;TestType&gt; testTypes;</text><line style="stroke:#A80036;stroke-width:1.5;" x1="1822" x2="2007" y1="431.0234" y2="431.0234"/><!--MD5=[02e4b9b7573f1156f41e60aa5b4e25a4]
class Company--><rect codeLine="11" fill="#FEFECE" filter="url(#f1p4ip3fhavbs1)" height="124.8281" id="Company" style="stroke:#A80036;stroke-width:1.5;" width="190" x="568" y="172.5"/><ellipse cx="630.75" cy="188.5" fill="#ADD1B2" rx="11" ry="11" style="stroke:#A80036;stroke-width:1.0;"/><path d="M633.0938,184.1719 C632.1563,183.7344 631.5625,183.5938 630.6875,183.5938 C628.0625,183.5938 626.0625,185.6719 626.0625,188.3906 L626.0625,189.5156 C626.0625,192.0938 628.1719,193.9844 631.0625,193.9844 C632.2813,193.9844 633.4375,193.6875 634.1875,193.1406 C634.7656,192.7344 635.0938,192.2813 635.0938,191.8906 C635.0938,191.4375 634.7031,191.0469 634.2344,191.0469 C634.0156,191.0469 633.8125,191.125 633.625,191.3125 C633.1719,191.7969 633.1719,191.7969 632.9844,191.8906 C632.5625,192.1563 631.875,192.2813 631.1094,192.2813 C629.0625,192.2813 627.7656,191.1875 627.7656,189.4844 L627.7656,188.3906 C627.7656,186.6094 629.0156,185.2969 630.75,185.2969 C631.3281,185.2969 631.9375,185.4531 632.4063,185.7031 C632.8906,185.9844 633.0625,186.2031 633.1563,186.6094 C633.2188,187.0156 633.25,187.1406 633.3906,187.2656 C633.5313,187.4063 633.7656,187.5156 633.9844,187.5156 C634.25,187.5156 634.5156,187.375 634.6875,187.1563 C634.7969,187 634.8281,186.8125 634.8281,186.3906 L634.8281,184.9688 C634.8281,184.5313 634.8125,184.4063 634.7188,184.25 C634.5625,183.9844 634.2813,183.8438 633.9844,183.8438 C633.6875,183.8438 633.4844,183.9375 633.2656,184.25 L633.0938,184.1719 Z " fill="#000000"/><text fill="#000000" font-family="sans-serif" font-size="12" lengthAdjust="spacing" textLength="56" x="651.25" y="192.6543">Company</text><line style="stroke:#A80036;stroke-width:1.5;" x1="569" x2="757" y1="204.5" y2="204.5"/><text fill="#000000" font-family="sans-serif" font-size="11" lengthAdjust="spacing" textLength="107" x="574" y="218.7104">-String designation</text><line style="stroke:#A80036;stroke-width:1.5;" x1="569" x2="757" y1="225.3047" y2="225.3047"/><text fill="#000000" font-family="sans-serif" font-size="11" lengthAdjust="spacing" textLength="88" x="574" y="239.5151">+getClientList()</text><text fill="#000000" font-family="sans-serif" font-size="11" lengthAdjust="spacing" textLength="121" x="574" y="252.3198">+getTestTypeStore()</text><text fill="#000000" font-family="sans-serif" font-size="11" lengthAdjust="spacing" textLength="178" x="574" y="265.1245">+getParameterCategoryStore()</text><text fill="#000000" font-family="sans-serif" font-size="11" lengthAdjust="spacing" textLength="126" x="574" y="277.9292">+getParameterStore()</text><text fill="#000000" font-family="sans-serif" font-size="11" lengthAdjust="spacing" textLength="92" x="574" y="290.7339">+getTestStore()</text><!--MD5=[ed6624c6556d5e7b1bd23032162d20b7]
class Client--><rect codeLine="21" fill="#FEFECE" filter="url(#f1p4ip3fhavbs1)" height="214.4609" id="Client" style="stroke:#A80036;stroke-width:1.5;" width="429" x="1700" y="7"/><ellipse cx="1893.75" cy="23" fill="#ADD1B2" rx="11" ry="11" style="stroke:#A80036;stroke-width:1.0;"/><path d="M1896.0938,18.6719 C1895.1563,18.2344 1894.5625,18.0938 1893.6875,18.0938 C1891.0625,18.0938 1889.0625,20.1719 1889.0625,22.8906 L1889.0625,24.0156 C1889.0625,26.5938 1891.1719,28.4844 1894.0625,28.4844 C1895.2813,28.4844 1896.4375,28.1875 1897.1875,27.6406 C1897.7656,27.2344 1898.0938,26.7813 1898.0938,26.3906 C1898.0938,25.9375 1897.7031,25.5469 1897.2344,25.5469 C1897.0156,25.5469 1896.8125,25.625 1896.625,25.8125 C1896.1719,26.2969 1896.1719,26.2969 1895.9844,26.3906 C1895.5625,26.6563 1894.875,26.7813 1894.1094,26.7813 C1892.0625,26.7813 1890.7656,25.6875 1890.7656,23.9844 L1890.7656,22.8906 C1890.7656,21.1094 1892.0156,19.7969 1893.75,19.7969 C1894.3281,19.7969 1894.9375,19.9531 1895.4063,20.2031 C1895.8906,20.4844 1896.0625,20.7031 1896.1563,21.1094 C1896.2188,21.5156 1896.25,21.6406 1896.3906,21.7656 C1896.5313,21.9063 1896.7656,22.0156 1896.9844,22.0156 C1897.25,22.0156 1897.5156,21.875 1897.6875,21.6563 C1897.7969,21.5 1897.8281,21.3125 1897.8281,20.8906 L1897.8281,19.4688 C1897.8281,19.0313 1897.8125,18.9063 1897.7188,18.75 C1897.5625,18.4844 1897.2813,18.3438 1896.9844,18.3438 C1896.6875,18.3438 1896.4844,18.4375 1896.2656,18.75 L1896.0938,18.6719 Z " fill="#000000"/><text fill="#000000" font-family="sans-serif" font-size="12" lengthAdjust="spacing" textLength="33" x="1914.25" y="27.1543">Client</text><line style="stroke:#A80036;stroke-width:1.5;" x1="1701" x2="2128" y1="39" y2="39"/><text fill="#000000" font-family="sans-serif" font-size="11" lengthAdjust="spacing" textLength="54" x="1706" y="53.2104">-ccn: long</text><text fill="#000000" font-family="sans-serif" font-size="11" lengthAdjust="spacing" textLength="103" x="1706" y="66.0151">-NHSnumber: long</text><text fill="#000000" font-family="sans-serif" font-size="11" lengthAdjust="spacing" textLength="78" x="1706" y="78.8198">-birthDate: int</text><text fill="#000000" font-family="sans-serif" font-size="11" lengthAdjust="spacing" textLength="65" x="1706" y="91.6245">-sex: String</text><text fill="#000000" font-family="sans-serif" font-size="11" lengthAdjust="spacing" textLength="49" x="1706" y="104.4292">-tin: long</text><text fill="#000000" font-family="sans-serif" font-size="11" lengthAdjust="spacing" textLength="116" x="1706" y="117.2339">-phoneNumber: long</text><text fill="#000000" font-family="sans-serif" font-size="11" lengthAdjust="spacing" textLength="76" x="1706" y="130.0386">-email: String</text><text fill="#000000" font-family="sans-serif" font-size="11" lengthAdjust="spacing" textLength="97" x="1706" y="142.8433">-password: String</text><text fill="#000000" font-family="sans-serif" font-size="11" lengthAdjust="spacing" textLength="68" x="1706" y="155.6479">-client: User</text><text fill="#000000" font-family="sans-serif" font-size="11" lengthAdjust="spacing" textLength="101" x="1706" y="168.4526">+acessorMethods</text><line style="stroke:#A80036;stroke-width:1.5;" x1="1701" x2="2128" y1="175.0469" y2="175.0469"/><text fill="#000000" font-family="sans-serif" font-size="11" lengthAdjust="spacing" textLength="417" x="1706" y="189.2573">+Client(ccn, nhsNumber, birthDate, sex, email, tin, phoneNumber, name)</text><text fill="#000000" font-family="sans-serif" font-size="11" lengthAdjust="spacing" textLength="389" x="1706" y="202.062">+Client(ccn, nhsNumber, birthDate, email, tin, phoneNumber, name)</text><text fill="#000000" font-family="sans-serif" font-size="11" lengthAdjust="spacing" textLength="26" x="1706" y="214.8667">+...()</text><!--MD5=[8f188b89eff49accb0f38c057b38a9f2]
class ExternalModule--><rect codeLine="38" fill="#FEFECE" filter="url(#f1p4ip3fhavbs1)" height="60.8047" id="ExternalModule" style="stroke:#A80036;stroke-width:1.5;" width="245" x="2189" y="500.5"/><ellipse cx="2260.75" cy="516.5" fill="#B4A7E5" rx="11" ry="11" style="stroke:#A80036;stroke-width:1.0;"/><path d="M2261.7031,513.2813 L2263.4219,513.2813 C2263.8125,513.2813 2264,513.25 2264.125,513.1719 C2264.3906,513.0156 2264.5313,512.7344 2264.5313,512.4375 C2264.5313,512.1719 2264.4219,511.9063 2264.1875,511.7344 C2264.0156,511.625 2263.875,511.5938 2263.4219,511.5938 L2258.2813,511.5938 C2257.8438,511.5938 2257.7188,511.6094 2257.5625,511.7031 C2257.3125,511.8594 2257.1563,512.1563 2257.1563,512.4375 C2257.1563,512.7188 2257.2969,512.9688 2257.5156,513.1406 C2257.6719,513.25 2257.8594,513.2813 2258.2813,513.2813 L2260,513.2813 L2260,519.7969 L2258.2813,519.7969 C2257.8438,519.7969 2257.7188,519.8125 2257.5625,519.9219 C2257.3125,520.0781 2257.1563,520.3594 2257.1563,520.6563 C2257.1563,520.9063 2257.2969,521.1719 2257.5156,521.3281 C2257.6719,521.4531 2257.875,521.5 2258.2813,521.5 L2263.4219,521.5 C2264.1719,521.5 2264.5313,521.2188 2264.5313,520.6563 C2264.5313,520.375 2264.4219,520.125 2264.1875,519.9531 C2264.0156,519.8281 2263.875,519.7969 2263.4219,519.7969 L2261.7031,519.7969 L2261.7031,513.2813 Z " fill="#000000"/><text fill="#000000" font-family="sans-serif" font-size="12" font-style="italic" lengthAdjust="spacing" textLength="93" x="2281.25" y="520.6543">ExternalModule</text><line style="stroke:#A80036;stroke-width:1.5;" x1="2190" x2="2433" y1="532.5" y2="532.5"/><line style="stroke:#A80036;stroke-width:1.5;" x1="2190" x2="2433" y1="540.5" y2="540.5"/><text fill="#000000" font-family="sans-serif" font-size="11" lengthAdjust="spacing" textLength="233" x="2195" y="554.7104">+ReferenceValue getReferenceValue(p)</text><!--MD5=[594612147f950995a18c1e6474349bc0]
class ClientList--><rect codeLine="42" fill="#FEFECE" filter="url(#f1p4ip3fhavbs1)" height="112.0234" id="ClientList" style="stroke:#A80036;stroke-width:1.5;" width="462" x="1178" y="84"/><ellipse cx="1378.25" cy="100" fill="#ADD1B2" rx="11" ry="11" style="stroke:#A80036;stroke-width:1.0;"/><path d="M1380.5938,95.6719 C1379.6563,95.2344 1379.0625,95.0938 1378.1875,95.0938 C1375.5625,95.0938 1373.5625,97.1719 1373.5625,99.8906 L1373.5625,101.0156 C1373.5625,103.5938 1375.6719,105.4844 1378.5625,105.4844 C1379.7813,105.4844 1380.9375,105.1875 1381.6875,104.6406 C1382.2656,104.2344 1382.5938,103.7813 1382.5938,103.3906 C1382.5938,102.9375 1382.2031,102.5469 1381.7344,102.5469 C1381.5156,102.5469 1381.3125,102.625 1381.125,102.8125 C1380.6719,103.2969 1380.6719,103.2969 1380.4844,103.3906 C1380.0625,103.6563 1379.375,103.7813 1378.6094,103.7813 C1376.5625,103.7813 1375.2656,102.6875 1375.2656,100.9844 L1375.2656,99.8906 C1375.2656,98.1094 1376.5156,96.7969 1378.25,96.7969 C1378.8281,96.7969 1379.4375,96.9531 1379.9063,97.2031 C1380.3906,97.4844 1380.5625,97.7031 1380.6563,98.1094 C1380.7188,98.5156 1380.75,98.6406 1380.8906,98.7656 C1381.0313,98.9063 1381.2656,99.0156 1381.4844,99.0156 C1381.75,99.0156 1382.0156,98.875 1382.1875,98.6563 C1382.2969,98.5 1382.3281,98.3125 1382.3281,97.8906 L1382.3281,96.4688 C1382.3281,96.0313 1382.3125,95.9063 1382.2188,95.75 C1382.0625,95.4844 1381.7813,95.3438 1381.4844,95.3438 C1381.1875,95.3438 1380.9844,95.4375 1380.7656,95.75 L1380.5938,95.6719 Z " fill="#000000"/><text fill="#000000" font-family="sans-serif" font-size="12" lengthAdjust="spacing" textLength="53" x="1398.75" y="104.1543">ClientList</text><line style="stroke:#A80036;stroke-width:1.5;" x1="1179" x2="1639" y1="116" y2="116"/><text fill="#000000" font-family="sans-serif" font-size="11" lengthAdjust="spacing" textLength="132" x="1184" y="130.2104">-List &lt;Client&gt; clientList</text><line style="stroke:#A80036;stroke-width:1.5;" x1="1179" x2="1639" y1="136.8047" y2="136.8047"/><text fill="#000000" font-family="sans-serif" font-size="11" lengthAdjust="spacing" textLength="450" x="1184" y="151.0151">+createClient(ccn, nhsNumber, birthDate, sex, email,tin, phoneNumber, name)</text><text fill="#000000" font-family="sans-serif" font-size="11" lengthAdjust="spacing" textLength="422" x="1184" y="163.8198">+createClient(ccn, nhsNumber, birthDate, email,tin, phoneNumber, name)</text><text fill="#000000" font-family="sans-serif" font-size="11" lengthAdjust="spacing" textLength="109" x="1184" y="176.6245">+saveClient(client)</text><text fill="#000000" font-family="sans-serif" font-size="11" lengthAdjust="spacing" textLength="75" x="1184" y="189.4292">+getClients()</text><!--MD5=[aeb3272166074d8737a70b61b1e71682]
class TestType--><rect codeLine="49" fill="#FEFECE" filter="url(#f1p4ip3fhavbs1)" height="112.0234" id="TestType" style="stroke:#A80036;stroke-width:1.5;" width="412" x="1708.5" y="474"/><ellipse cx="1882.25" cy="490" fill="#ADD1B2" rx="11" ry="11" style="stroke:#A80036;stroke-width:1.0;"/><path d="M1884.5938,485.6719 C1883.6563,485.2344 1883.0625,485.0938 1882.1875,485.0938 C1879.5625,485.0938 1877.5625,487.1719 1877.5625,489.8906 L1877.5625,491.0156 C1877.5625,493.5938 1879.6719,495.4844 1882.5625,495.4844 C1883.7813,495.4844 1884.9375,495.1875 1885.6875,494.6406 C1886.2656,494.2344 1886.5938,493.7813 1886.5938,493.3906 C1886.5938,492.9375 1886.2031,492.5469 1885.7344,492.5469 C1885.5156,492.5469 1885.3125,492.625 1885.125,492.8125 C1884.6719,493.2969 1884.6719,493.2969 1884.4844,493.3906 C1884.0625,493.6563 1883.375,493.7813 1882.6094,493.7813 C1880.5625,493.7813 1879.2656,492.6875 1879.2656,490.9844 L1879.2656,489.8906 C1879.2656,488.1094 1880.5156,486.7969 1882.25,486.7969 C1882.8281,486.7969 1883.4375,486.9531 1883.9063,487.2031 C1884.3906,487.4844 1884.5625,487.7031 1884.6563,488.1094 C1884.7188,488.5156 1884.75,488.6406 1884.8906,488.7656 C1885.0313,488.9063 1885.2656,489.0156 1885.4844,489.0156 C1885.75,489.0156 1886.0156,488.875 1886.1875,488.6563 C1886.2969,488.5 1886.3281,488.3125 1886.3281,487.8906 L1886.3281,486.4688 C1886.3281,486.0313 1886.3125,485.9063 1886.2188,485.75 C1886.0625,485.4844 1885.7813,485.3438 1885.4844,485.3438 C1885.1875,485.3438 1884.9844,485.4375 1884.7656,485.75 L1884.5938,485.6719 Z " fill="#000000"/><text fill="#000000" font-family="sans-serif" font-size="12" lengthAdjust="spacing" textLength="56" x="1902.75" y="494.1543">TestType</text><line style="stroke:#A80036;stroke-width:1.5;" x1="1709.5" x2="2119.5" y1="506" y2="506"/><text fill="#000000" font-family="sans-serif" font-size="11" lengthAdjust="spacing" textLength="69" x="1714.5" y="520.2104">-String code</text><text fill="#000000" font-family="sans-serif" font-size="11" lengthAdjust="spacing" textLength="103" x="1714.5" y="533.0151">-String description</text><text fill="#000000" font-family="sans-serif" font-size="11" lengthAdjust="spacing" textLength="137" x="1714.5" y="545.8198">-String collectingMethod</text><text fill="#000000" font-family="sans-serif" font-size="11" lengthAdjust="spacing" textLength="278" x="1714.5" y="558.6245">-List&lt;ParameterCategory&gt; parameterCategories</text><line style="stroke:#A80036;stroke-width:1.5;" x1="1709.5" x2="2119.5" y1="565.2188" y2="565.2188"/><text fill="#000000" font-family="sans-serif" font-size="11" lengthAdjust="spacing" textLength="400" x="1714.5" y="579.4292">+TestType(code, description, collectingMethod, parameterCategories)</text><!--MD5=[1f6362a5c8f21d8d6a0fce68f3a92a4e]
class Parameter--><rect codeLine="57" fill="#FEFECE" filter="url(#f1p4ip3fhavbs1)" height="112.0234" id="Parameter" style="stroke:#A80036;stroke-width:1.5;" width="310" x="2940" y="482"/><ellipse cx="3060.25" cy="498" fill="#ADD1B2" rx="11" ry="11" style="stroke:#A80036;stroke-width:1.0;"/><path d="M3062.5938,493.6719 C3061.6563,493.2344 3061.0625,493.0938 3060.1875,493.0938 C3057.5625,493.0938 3055.5625,495.1719 3055.5625,497.8906 L3055.5625,499.0156 C3055.5625,501.5938 3057.6719,503.4844 3060.5625,503.4844 C3061.7813,503.4844 3062.9375,503.1875 3063.6875,502.6406 C3064.2656,502.2344 3064.5938,501.7813 3064.5938,501.3906 C3064.5938,500.9375 3064.2031,500.5469 3063.7344,500.5469 C3063.5156,500.5469 3063.3125,500.625 3063.125,500.8125 C3062.6719,501.2969 3062.6719,501.2969 3062.4844,501.3906 C3062.0625,501.6563 3061.375,501.7813 3060.6094,501.7813 C3058.5625,501.7813 3057.2656,500.6875 3057.2656,498.9844 L3057.2656,497.8906 C3057.2656,496.1094 3058.5156,494.7969 3060.25,494.7969 C3060.8281,494.7969 3061.4375,494.9531 3061.9063,495.2031 C3062.3906,495.4844 3062.5625,495.7031 3062.6563,496.1094 C3062.7188,496.5156 3062.75,496.6406 3062.8906,496.7656 C3063.0313,496.9063 3063.2656,497.0156 3063.4844,497.0156 C3063.75,497.0156 3064.0156,496.875 3064.1875,496.6563 C3064.2969,496.5 3064.3281,496.3125 3064.3281,495.8906 L3064.3281,494.4688 C3064.3281,494.0313 3064.3125,493.9063 3064.2188,493.75 C3064.0625,493.4844 3063.7813,493.3438 3063.4844,493.3438 C3063.1875,493.3438 3062.9844,493.4375 3062.7656,493.75 L3062.5938,493.6719 Z " fill="#000000"/><text fill="#000000" font-family="sans-serif" font-size="12" lengthAdjust="spacing" textLength="61" x="3080.75" y="502.1543">Parameter</text><line style="stroke:#A80036;stroke-width:1.5;" x1="2941" x2="3249" y1="514" y2="514"/><text fill="#000000" font-family="sans-serif" font-size="11" lengthAdjust="spacing" textLength="69" x="2946" y="528.2104">-String code</text><text fill="#000000" font-family="sans-serif" font-size="11" lengthAdjust="spacing" textLength="102" x="2946" y="541.0151">-String shortname</text><text fill="#000000" font-family="sans-serif" font-size="11" lengthAdjust="spacing" textLength="103" x="2946" y="553.8198">-String description</text><text fill="#000000" font-family="sans-serif" font-size="11" lengthAdjust="spacing" textLength="206" x="2946" y="566.6245">-List&lt;ParameterCategory&gt; category</text><line style="stroke:#A80036;stroke-width:1.5;" x1="2941" x2="3249" y1="573.2188" y2="573.2188"/><text fill="#000000" font-family="sans-serif" font-size="11" lengthAdjust="spacing" textLength="298" x="2946" y="587.4292">+Parameter(code, shortname, description, category)</text><!--MD5=[36afb6bbd95a8ac778c4537c55a683d5]
class ParameterCategory--><rect codeLine="65" fill="#FEFECE" filter="url(#f1p4ip3fhavbs1)" height="86.4141" id="ParameterCategory" style="stroke:#A80036;stroke-width:1.5;" width="208" x="3310" y="386"/><ellipse cx="3352" cy="402" fill="#ADD1B2" rx="11" ry="11" style="stroke:#A80036;stroke-width:1.0;"/><path d="M3354.3438,397.6719 C3353.4063,397.2344 3352.8125,397.0938 3351.9375,397.0938 C3349.3125,397.0938 3347.3125,399.1719 3347.3125,401.8906 L3347.3125,403.0156 C3347.3125,405.5938 3349.4219,407.4844 3352.3125,407.4844 C3353.5313,407.4844 3354.6875,407.1875 3355.4375,406.6406 C3356.0156,406.2344 3356.3438,405.7813 3356.3438,405.3906 C3356.3438,404.9375 3355.9531,404.5469 3355.4844,404.5469 C3355.2656,404.5469 3355.0625,404.625 3354.875,404.8125 C3354.4219,405.2969 3354.4219,405.2969 3354.2344,405.3906 C3353.8125,405.6563 3353.125,405.7813 3352.3594,405.7813 C3350.3125,405.7813 3349.0156,404.6875 3349.0156,402.9844 L3349.0156,401.8906 C3349.0156,400.1094 3350.2656,398.7969 3352,398.7969 C3352.5781,398.7969 3353.1875,398.9531 3353.6563,399.2031 C3354.1406,399.4844 3354.3125,399.7031 3354.4063,400.1094 C3354.4688,400.5156 3354.5,400.6406 3354.6406,400.7656 C3354.7813,400.9063 3355.0156,401.0156 3355.2344,401.0156 C3355.5,401.0156 3355.7656,400.875 3355.9375,400.6563 C3356.0469,400.5 3356.0781,400.3125 3356.0781,399.8906 L3356.0781,398.4688 C3356.0781,398.0313 3356.0625,397.9063 3355.9688,397.75 C3355.8125,397.4844 3355.5313,397.3438 3355.2344,397.3438 C3354.9375,397.3438 3354.7344,397.4375 3354.5156,397.75 L3354.3438,397.6719 Z " fill="#000000"/><text fill="#000000" font-family="sans-serif" font-size="12" lengthAdjust="spacing" textLength="116" x="3372" y="406.1543">ParameterCategory</text><line style="stroke:#A80036;stroke-width:1.5;" x1="3311" x2="3517" y1="418" y2="418"/><text fill="#000000" font-family="sans-serif" font-size="11" lengthAdjust="spacing" textLength="69" x="3316" y="432.2104">-String code</text><text fill="#000000" font-family="sans-serif" font-size="11" lengthAdjust="spacing" textLength="74" x="3316" y="445.0151">-String name</text><line style="stroke:#A80036;stroke-width:1.5;" x1="3311" x2="3517" y1="451.6094" y2="451.6094"/><text fill="#000000" font-family="sans-serif" font-size="11" lengthAdjust="spacing" textLength="196" x="3316" y="465.8198">+ParameterCategory(code, name)</text><!--MD5=[8ba6d25d8575ff644db512407b466cac]
class ImportTests--><rect codeLine="71" fill="#FEFECE" filter="url(#f1p4ip3fhavbs1)" height="48" id="ImportTests" style="stroke:#A80036;stroke-width:1.5;" width="104" x="7" y="211"/><ellipse cx="22" cy="227" fill="#ADD1B2" rx="11" ry="11" style="stroke:#A80036;stroke-width:1.0;"/><path d="M24.3438,222.6719 C23.4063,222.2344 22.8125,222.0938 21.9375,222.0938 C19.3125,222.0938 17.3125,224.1719 17.3125,226.8906 L17.3125,228.0156 C17.3125,230.5938 19.4219,232.4844 22.3125,232.4844 C23.5313,232.4844 24.6875,232.1875 25.4375,231.6406 C26.0156,231.2344 26.3438,230.7813 26.3438,230.3906 C26.3438,229.9375 25.9531,229.5469 25.4844,229.5469 C25.2656,229.5469 25.0625,229.625 24.875,229.8125 C24.4219,230.2969 24.4219,230.2969 24.2344,230.3906 C23.8125,230.6563 23.125,230.7813 22.3594,230.7813 C20.3125,230.7813 19.0156,229.6875 19.0156,227.9844 L19.0156,226.8906 C19.0156,225.1094 20.2656,223.7969 22,223.7969 C22.5781,223.7969 23.1875,223.9531 23.6563,224.2031 C24.1406,224.4844 24.3125,224.7031 24.4063,225.1094 C24.4688,225.5156 24.5,225.6406 24.6406,225.7656 C24.7813,225.9063 25.0156,226.0156 25.2344,226.0156 C25.5,226.0156 25.7656,225.875 25.9375,225.6563 C26.0469,225.5 26.0781,225.3125 26.0781,224.8906 L26.0781,223.4688 C26.0781,223.0313 26.0625,222.9063 25.9688,222.75 C25.8125,222.4844 25.5313,222.3438 25.2344,222.3438 C24.9375,222.3438 24.7344,222.4375 24.5156,222.75 L24.3438,222.6719 Z " fill="#000000"/><text fill="#000000" font-family="sans-serif" font-size="12" lengthAdjust="spacing" textLength="72" x="36" y="231.1543">ImportTests</text><line style="stroke:#A80036;stroke-width:1.5;" x1="8" x2="110" y1="243" y2="243"/><line style="stroke:#A80036;stroke-width:1.5;" x1="8" x2="110" y1="251" y2="251"/><!--MD5=[f39222c906a5158620eb4ce0ead49545]
class TestController--><rect codeLine="74" fill="#FEFECE" filter="url(#f1p4ip3fhavbs1)" height="150.4375" id="TestController" style="stroke:#A80036;stroke-width:1.5;" width="337" x="171" y="160"/><ellipse cx="292.75" cy="176" fill="#ADD1B2" rx="11" ry="11" style="stroke:#A80036;stroke-width:1.0;"/><path d="M295.0938,171.6719 C294.1563,171.2344 293.5625,171.0938 292.6875,171.0938 C290.0625,171.0938 288.0625,173.1719 288.0625,175.8906 L288.0625,177.0156 C288.0625,179.5938 290.1719,181.4844 293.0625,181.4844 C294.2813,181.4844 295.4375,181.1875 296.1875,180.6406 C296.7656,180.2344 297.0938,179.7813 297.0938,179.3906 C297.0938,178.9375 296.7031,178.5469 296.2344,178.5469 C296.0156,178.5469 295.8125,178.625 295.625,178.8125 C295.1719,179.2969 295.1719,179.2969 294.9844,179.3906 C294.5625,179.6563 293.875,179.7813 293.1094,179.7813 C291.0625,179.7813 289.7656,178.6875 289.7656,176.9844 L289.7656,175.8906 C289.7656,174.1094 291.0156,172.7969 292.75,172.7969 C293.3281,172.7969 293.9375,172.9531 294.4063,173.2031 C294.8906,173.4844 295.0625,173.7031 295.1563,174.1094 C295.2188,174.5156 295.25,174.6406 295.3906,174.7656 C295.5313,174.9063 295.7656,175.0156 295.9844,175.0156 C296.25,175.0156 296.5156,174.875 296.6875,174.6563 C296.7969,174.5 296.8281,174.3125 296.8281,173.8906 L296.8281,172.4688 C296.8281,172.0313 296.8125,171.9063 296.7188,171.75 C296.5625,171.4844 296.2813,171.3438 295.9844,171.3438 C295.6875,171.3438 295.4844,171.4375 295.2656,171.75 L295.0938,171.6719 Z " fill="#000000"/><text fill="#000000" font-family="sans-serif" font-size="12" lengthAdjust="spacing" textLength="85" x="313.25" y="180.1543">TestController</text><line style="stroke:#A80036;stroke-width:1.5;" x1="172" x2="507" y1="192" y2="192"/><line style="stroke:#A80036;stroke-width:1.5;" x1="172" x2="507" y1="200" y2="200"/><text fill="#000000" font-family="sans-serif" font-size="11" lengthAdjust="spacing" textLength="325" x="177" y="214.2104">+createTest(nhsCode, testCode, client, tt, lcs, lps, rDate)</text><text fill="#000000" font-family="sans-serif" font-size="11" lengthAdjust="spacing" textLength="74" x="177" y="227.0151">+saveTest(t)</text><text fill="#000000" font-family="sans-serif" font-size="11" lengthAdjust="spacing" textLength="48" x="177" y="239.8198">+client()</text><text fill="#000000" font-family="sans-serif" font-size="11" lengthAdjust="spacing" textLength="96" x="177" y="252.6245">+getTestTypes()</text><text fill="#000000" font-family="sans-serif" font-size="11" lengthAdjust="spacing" textLength="98" x="177" y="265.4292">+getCategories()</text><text fill="#000000" font-family="sans-serif" font-size="11" lengthAdjust="spacing" textLength="168" x="177" y="278.2339">+getParameterByCode(code)</text><text fill="#000000" font-family="sans-serif" font-size="11" lengthAdjust="spacing" textLength="184" x="177" y="291.0386">+getCategoriesByName (name)</text><text fill="#000000" font-family="sans-serif" font-size="11" lengthAdjust="spacing" textLength="199" x="177" y="303.8433">+getParametersByHeader(header)</text><!--MD5=[df38be88ccee13e832d6fafd6288a4ca]
class Test--><rect codeLine="85" fill="#FEFECE" filter="url(#f1p4ip3fhavbs1)" height="150.4375" id="Test" style="stroke:#A80036;stroke-width:1.5;" width="300" x="1259" y="282"/><ellipse cx="1391.75" cy="298" fill="#ADD1B2" rx="11" ry="11" style="stroke:#A80036;stroke-width:1.0;"/><path d="M1394.0938,293.6719 C1393.1563,293.2344 1392.5625,293.0938 1391.6875,293.0938 C1389.0625,293.0938 1387.0625,295.1719 1387.0625,297.8906 L1387.0625,299.0156 C1387.0625,301.5938 1389.1719,303.4844 1392.0625,303.4844 C1393.2813,303.4844 1394.4375,303.1875 1395.1875,302.6406 C1395.7656,302.2344 1396.0938,301.7813 1396.0938,301.3906 C1396.0938,300.9375 1395.7031,300.5469 1395.2344,300.5469 C1395.0156,300.5469 1394.8125,300.625 1394.625,300.8125 C1394.1719,301.2969 1394.1719,301.2969 1393.9844,301.3906 C1393.5625,301.6563 1392.875,301.7813 1392.1094,301.7813 C1390.0625,301.7813 1388.7656,300.6875 1388.7656,298.9844 L1388.7656,297.8906 C1388.7656,296.1094 1390.0156,294.7969 1391.75,294.7969 C1392.3281,294.7969 1392.9375,294.9531 1393.4063,295.2031 C1393.8906,295.4844 1394.0625,295.7031 1394.1563,296.1094 C1394.2188,296.5156 1394.25,296.6406 1394.3906,296.7656 C1394.5313,296.9063 1394.7656,297.0156 1394.9844,297.0156 C1395.25,297.0156 1395.5156,296.875 1395.6875,296.6563 C1395.7969,296.5 1395.8281,296.3125 1395.8281,295.8906 L1395.8281,294.4688 C1395.8281,294.0313 1395.8125,293.9063 1395.7188,293.75 C1395.5625,293.4844 1395.2813,293.3438 1394.9844,293.3438 C1394.6875,293.3438 1394.4844,293.4375 1394.2656,293.75 L1394.0938,293.6719 Z " fill="#000000"/><text fill="#000000" font-family="sans-serif" font-size="12" lengthAdjust="spacing" textLength="26" x="1412.25" y="302.1543">Test</text><line style="stroke:#A80036;stroke-width:1.5;" x1="1260" x2="1558" y1="314" y2="314"/><text fill="#000000" font-family="sans-serif" font-size="11" lengthAdjust="spacing" textLength="94" x="1265" y="328.2104">-String nhsCode;</text><text fill="#000000" font-family="sans-serif" font-size="11" lengthAdjust="spacing" textLength="117" x="1265" y="341.0151">-String internalCode;</text><text fill="#000000" font-family="sans-serif" font-size="11" lengthAdjust="spacing" textLength="75" x="1265" y="353.8198">-Client client;</text><text fill="#000000" font-family="sans-serif" font-size="11" lengthAdjust="spacing" textLength="116" x="1265" y="366.6245">-TestType testType;</text><text fill="#000000" font-family="sans-serif" font-size="11" lengthAdjust="spacing" textLength="279" x="1265" y="379.4292">-List &lt;ParameterCategory&gt;  parameterCategory;</text><text fill="#000000" font-family="sans-serif" font-size="11" lengthAdjust="spacing" textLength="171" x="1265" y="392.2339">-List &lt;Parameter&gt; parameter;</text><text fill="#000000" font-family="sans-serif" font-size="11" lengthAdjust="spacing" textLength="131" x="1265" y="405.0386">-Date registrationDate;</text><line style="stroke:#A80036;stroke-width:1.5;" x1="1260" x2="1558" y1="411.6328" y2="411.6328"/><text fill="#000000" font-family="sans-serif" font-size="11" lengthAdjust="spacing" textLength="288" x="1265" y="425.8433">+Test(nhsCode, testCode, client, tt, lcs, lps, rDate)</text><!--MD5=[0f6f7964b844a64b0496af0dda7914bd]
class TestStore--><rect codeLine="96" fill="#FEFECE" filter="url(#f1p4ip3fhavbs1)" height="112.0234" id="TestStore" style="stroke:#A80036;stroke-width:1.5;" width="300" x="818" y="247"/><ellipse cx="934.25" cy="263" fill="#ADD1B2" rx="11" ry="11" style="stroke:#A80036;stroke-width:1.0;"/><path d="M936.5938,258.6719 C935.6563,258.2344 935.0625,258.0938 934.1875,258.0938 C931.5625,258.0938 929.5625,260.1719 929.5625,262.8906 L929.5625,264.0156 C929.5625,266.5938 931.6719,268.4844 934.5625,268.4844 C935.7813,268.4844 936.9375,268.1875 937.6875,267.6406 C938.2656,267.2344 938.5938,266.7813 938.5938,266.3906 C938.5938,265.9375 938.2031,265.5469 937.7344,265.5469 C937.5156,265.5469 937.3125,265.625 937.125,265.8125 C936.6719,266.2969 936.6719,266.2969 936.4844,266.3906 C936.0625,266.6563 935.375,266.7813 934.6094,266.7813 C932.5625,266.7813 931.2656,265.6875 931.2656,263.9844 L931.2656,262.8906 C931.2656,261.1094 932.5156,259.7969 934.25,259.7969 C934.8281,259.7969 935.4375,259.9531 935.9063,260.2031 C936.3906,260.4844 936.5625,260.7031 936.6563,261.1094 C936.7188,261.5156 936.75,261.6406 936.8906,261.7656 C937.0313,261.9063 937.2656,262.0156 937.4844,262.0156 C937.75,262.0156 938.0156,261.875 938.1875,261.6563 C938.2969,261.5 938.3281,261.3125 938.3281,260.8906 L938.3281,259.4688 C938.3281,259.0313 938.3125,258.9063 938.2188,258.75 C938.0625,258.4844 937.7813,258.3438 937.4844,258.3438 C937.1875,258.3438 936.9844,258.4375 936.7656,258.75 L936.5938,258.6719 Z " fill="#000000"/><text fill="#000000" font-family="sans-serif" font-size="12" lengthAdjust="spacing" textLength="59" x="954.75" y="267.1543">TestStore</text><line style="stroke:#A80036;stroke-width:1.5;" x1="819" x2="1117" y1="279" y2="279"/><line style="stroke:#A80036;stroke-width:1.5;" x1="819" x2="1117" y1="287" y2="287"/><text fill="#000000" font-family="sans-serif" font-size="11" lengthAdjust="spacing" textLength="288" x="824" y="301.2104">+Test(nhsCode, testCode, client, tt, lcs, lps, rDate)</text><text fill="#000000" font-family="sans-serif" font-size="11" lengthAdjust="spacing" textLength="74" x="824" y="314.0151">+saveTest(t)</text><text fill="#000000" font-family="sans-serif" font-size="11" lengthAdjust="spacing" textLength="67" x="824" y="326.8198">+addTest(t)</text><text fill="#000000" font-family="sans-serif" font-size="11" lengthAdjust="spacing" textLength="92" x="824" y="339.6245">+validateTest(t)</text><text fill="#000000" font-family="sans-serif" font-size="11" lengthAdjust="spacing" textLength="67" x="824" y="352.4292">+getTests()</text><!--MD5=[1c357e7e7fdba398bcadd6e61afe49f5]
class ReferenceValue--><rect codeLine="103" fill="#FEFECE" filter="url(#f1p4ip3fhavbs1)" height="99.2188" id="ReferenceValue" style="stroke:#A80036;stroke-width:1.5;" width="215" x="2494" y="484.5"/><ellipse cx="2549.75" cy="500.5" fill="#ADD1B2" rx="11" ry="11" style="stroke:#A80036;stroke-width:1.0;"/><path d="M2552.0938,496.1719 C2551.1563,495.7344 2550.5625,495.5938 2549.6875,495.5938 C2547.0625,495.5938 2545.0625,497.6719 2545.0625,500.3906 L2545.0625,501.5156 C2545.0625,504.0938 2547.1719,505.9844 2550.0625,505.9844 C2551.2813,505.9844 2552.4375,505.6875 2553.1875,505.1406 C2553.7656,504.7344 2554.0938,504.2813 2554.0938,503.8906 C2554.0938,503.4375 2553.7031,503.0469 2553.2344,503.0469 C2553.0156,503.0469 2552.8125,503.125 2552.625,503.3125 C2552.1719,503.7969 2552.1719,503.7969 2551.9844,503.8906 C2551.5625,504.1563 2550.875,504.2813 2550.1094,504.2813 C2548.0625,504.2813 2546.7656,503.1875 2546.7656,501.4844 L2546.7656,500.3906 C2546.7656,498.6094 2548.0156,497.2969 2549.75,497.2969 C2550.3281,497.2969 2550.9375,497.4531 2551.4063,497.7031 C2551.8906,497.9844 2552.0625,498.2031 2552.1563,498.6094 C2552.2188,499.0156 2552.25,499.1406 2552.3906,499.2656 C2552.5313,499.4063 2552.7656,499.5156 2552.9844,499.5156 C2553.25,499.5156 2553.5156,499.375 2553.6875,499.1563 C2553.7969,499 2553.8281,498.8125 2553.8281,498.3906 L2553.8281,496.9688 C2553.8281,496.5313 2553.8125,496.4063 2553.7188,496.25 C2553.5625,495.9844 2553.2813,495.8438 2552.9844,495.8438 C2552.6875,495.8438 2552.4844,495.9375 2552.2656,496.25 L2552.0938,496.1719 Z " fill="#000000"/><text fill="#000000" font-family="sans-serif" font-size="12" lengthAdjust="spacing" textLength="95" x="2570.25" y="504.6543">ReferenceValue</text><line style="stroke:#A80036;stroke-width:1.5;" x1="2495" x2="2708" y1="516.5" y2="516.5"/><text fill="#000000" font-family="sans-serif" font-size="11" lengthAdjust="spacing" textLength="40" x="2500" y="530.7104">-metric</text><text fill="#000000" font-family="sans-serif" font-size="11" lengthAdjust="spacing" textLength="62" x="2500" y="543.5151">-maxValue</text><text fill="#000000" font-family="sans-serif" font-size="11" lengthAdjust="spacing" textLength="58" x="2500" y="556.3198">-minValue</text><line style="stroke:#A80036;stroke-width:1.5;" x1="2495" x2="2708" y1="562.9141" y2="562.9141"/><text fill="#000000" font-family="sans-serif" font-size="11" lengthAdjust="spacing" textLength="203" x="2500" y="577.1245">+referenceValue (metric, max,min)</text><!--MD5=[e27cb01a39563223b22d42504ec96d07]
class TestResult--><rect codeLine="109" fill="#FEFECE" filter="url(#f1p4ip3fhavbs1)" height="60.8047" id="TestResult" style="stroke:#A80036;stroke-width:1.5;" width="111" x="2769" y="504.5"/><ellipse cx="2791.65" cy="520.5" fill="#ADD1B2" rx="11" ry="11" style="stroke:#A80036;stroke-width:1.0;"/><path d="M2793.9938,516.1719 C2793.0563,515.7344 2792.4625,515.5938 2791.5875,515.5938 C2788.9625,515.5938 2786.9625,517.6719 2786.9625,520.3906 L2786.9625,521.5156 C2786.9625,524.0938 2789.0719,525.9844 2791.9625,525.9844 C2793.1813,525.9844 2794.3375,525.6875 2795.0875,525.1406 C2795.6656,524.7344 2795.9938,524.2813 2795.9938,523.8906 C2795.9938,523.4375 2795.6031,523.0469 2795.1344,523.0469 C2794.9156,523.0469 2794.7125,523.125 2794.525,523.3125 C2794.0719,523.7969 2794.0719,523.7969 2793.8844,523.8906 C2793.4625,524.1563 2792.775,524.2813 2792.0094,524.2813 C2789.9625,524.2813 2788.6656,523.1875 2788.6656,521.4844 L2788.6656,520.3906 C2788.6656,518.6094 2789.9156,517.2969 2791.65,517.2969 C2792.2281,517.2969 2792.8375,517.4531 2793.3063,517.7031 C2793.7906,517.9844 2793.9625,518.2031 2794.0563,518.6094 C2794.1188,519.0156 2794.15,519.1406 2794.2906,519.2656 C2794.4313,519.4063 2794.6656,519.5156 2794.8844,519.5156 C2795.15,519.5156 2795.4156,519.375 2795.5875,519.1563 C2795.6969,519 2795.7281,518.8125 2795.7281,518.3906 L2795.7281,516.9688 C2795.7281,516.5313 2795.7125,516.4063 2795.6188,516.25 C2795.4625,515.9844 2795.1813,515.8438 2794.8844,515.8438 C2794.5875,515.8438 2794.3844,515.9375 2794.1656,516.25 L2793.9938,516.1719 Z " fill="#000000"/><text fill="#000000" font-family="sans-serif" font-size="12" lengthAdjust="spacing" textLength="62" x="2807.35" y="524.6543">TestResult</text><line style="stroke:#A80036;stroke-width:1.5;" x1="2770" x2="2879" y1="536.5" y2="536.5"/><line style="stroke:#A80036;stroke-width:1.5;" x1="2770" x2="2879" y1="544.5" y2="544.5"/><text fill="#000000" font-family="sans-serif" font-size="11" lengthAdjust="spacing" textLength="99" x="2775" y="558.7104">+setTestResult ()</text><!--MD5=[0ccbad4e472b1b1afb5416edd370a584]
link ImportTests to TestController--><path codeLine="112" d="M111.081,235 C127.222,235 146.049,235 165.831,235 " fill="none" id="ImportTests-to-TestController" style="stroke:#A80036;stroke-width:1.0;stroke-dasharray:7.0,7.0;"/><polygon fill="#A80036" points="170.88,235,161.88,231,165.88,235,161.88,239,170.88,235" style="stroke:#A80036;stroke-width:1.0;"/><!--MD5=[b3e932a0b9ddf5fd0fa9570af6d67299]
link TestController to Company--><path codeLine="113" d="M508.312,235 C526.801,235 545.166,235 562.424,235 " fill="none" id="TestController-to-Company" style="stroke:#A80036;stroke-width:1.0;stroke-dasharray:7.0,7.0;"/><polygon fill="#A80036" points="567.744,235,558.744,231,562.744,235,558.744,239,567.744,235" style="stroke:#A80036;stroke-width:1.0;"/><!--MD5=[ab179af0153bf609fe4891204b6ca111]
link ClientList to Client--><path codeLine="114" d="M1640.02,128.123 C1658.26,127.181 1676.65,126.231 1694.81,125.293 " fill="none" id="ClientList-to-Client" style="stroke:#A80036;stroke-width:1.0;"/><polygon fill="#A80036" points="1699.92,125.029,1690.7262,121.4971,1694.9266,125.2861,1691.1376,129.4865,1699.92,125.029" style="stroke:#A80036;stroke-width:1.0;"/><text fill="#000000" font-family="sans-serif" font-size="13" lengthAdjust="spacing" textLength="8" x="1647.7316" y="140.0481">1</text><text fill="#000000" font-family="sans-serif" font-size="13" lengthAdjust="spacing" textLength="7" x="1685.0828" y="137.7559">*</text><!--MD5=[7f6cf7f175eae0af66201860de5de971]
link Company to TestStore--><path codeLine="115" d="M758.21,256.143 C775.519,260.028 793.997,264.175 812.535,268.335 " fill="none" id="Company-to-TestStore" style="stroke:#A80036;stroke-width:1.0;"/><polygon fill="#A80036" points="817.764,269.508,809.8593,263.633,812.8855,268.4123,808.1062,271.4385,817.764,269.508" style="stroke:#A80036;stroke-width:1.0;"/><text fill="#000000" font-family="sans-serif" font-size="13" lengthAdjust="spacing" textLength="8" x="766.1158" y="270.5045">1</text><text fill="#000000" font-family="sans-serif" font-size="13" lengthAdjust="spacing" textLength="8" x="801.8112" y="280.2375">1</text><!--MD5=[9dec42a3b1fb794d839b2c916f9b8879]
link Company to ClientList--><path codeLine="116" d="M758.228,222.968 C861.889,209.732 1032.41,187.959 1172.75,170.038 " fill="none" id="Company-to-ClientList" style="stroke:#A80036;stroke-width:1.0;"/><polygon fill="#A80036" points="1177.73,169.402,1168.2905,166.592,1172.7715,170.0447,1169.3188,174.5256,1177.73,169.402" style="stroke:#A80036;stroke-width:1.0;"/><text fill="#000000" font-family="sans-serif" font-size="13" lengthAdjust="spacing" textLength="8" x="766.1352" y="234.6859">1</text><text fill="#000000" font-family="sans-serif" font-size="13" lengthAdjust="spacing" textLength="8" x="1162.0102" y="182.6815">1</text><!--MD5=[b0f4f6db8206580012ef9cd998ed01c5]
link TestStore to Test--><path codeLine="117" d="M1118.24,321.357 C1161.92,326.73 1209.75,332.614 1253.73,338.024 " fill="none" id="TestStore-to-Test" style="stroke:#A80036;stroke-width:1.0;"/><polygon fill="#A80036" points="1258.8,338.648,1250.3452,333.5967,1253.8361,338.0479,1249.385,341.5389,1258.8,338.648" style="stroke:#A80036;stroke-width:1.0;"/><text fill="#000000" font-family="sans-serif" font-size="13" lengthAdjust="spacing" textLength="8" x="1126.193" y="334.76">1</text><text fill="#000000" font-family="sans-serif" font-size="13" lengthAdjust="spacing" textLength="7" x="1243.8748" y="350.1475">*</text><!--MD5=[8aaf0efd5e2f3824be7ea3e488dcc283]
link TestType to ParameterCategory--><path codeLine="119" d="M2120.79,483.712 C2256.26,457.139 2438.07,429 2600.5,429 C2600.5,429 2600.5,429 2825.5,429 C2992.71,429 3186.69,429 3304.58,429 " fill="none" id="TestType-to-ParameterCategory" style="stroke:#A80036;stroke-width:1.0;"/><polygon fill="#A80036" points="3309.79,429,3300.79,425,3304.79,429,3300.79,433,3309.79,429" style="stroke:#A80036;stroke-width:1.0;"/><text fill="#000000" font-family="sans-serif" font-size="13" lengthAdjust="spacing" textLength="7" x="2128.3293" y="494.3869">*</text><text fill="#000000" font-family="sans-serif" font-size="13" lengthAdjust="spacing" textLength="23" x="3279.0157" y="441.5614">1..*</text><!--MD5=[6df8849671cb880f6936e94aa30db6f9]
link Parameter to ParameterCategory--><path codeLine="121" d="M3250.32,484.937 C3268.74,478.603 3287.24,472.242 3304.82,466.198 " fill="none" id="Parameter-to-ParameterCategory" style="stroke:#A80036;stroke-width:1.0;"/><polygon fill="#A80036" points="3309.75,464.502,3299.938,463.6508,3305.0225,466.1302,3302.5431,471.2147,3309.75,464.502" style="stroke:#A80036;stroke-width:1.0;"/><text fill="#000000" font-family="sans-serif" font-size="13" lengthAdjust="spacing" textLength="7" x="3258.0128" y="494.7996">*</text><text fill="#000000" font-family="sans-serif" font-size="13" lengthAdjust="spacing" textLength="23" x="3278.973" y="479.4486">1..*</text><!--MD5=[e981d4f96c4342412d1e68160b30cf70]
link Test to TestType--><path codeLine="122" d="M1559.37,408.59 C1604.54,424.17 1654.29,441.304 1700,457 C1714.4,461.944 1729.34,467.068 1744.34,472.205 " fill="none" id="Test-to-TestType" style="stroke:#A80036;stroke-width:1.0;"/><polygon fill="#A80036" points="1749.42,473.947,1742.1937,467.2551,1744.6878,472.3325,1739.6105,474.8266,1749.42,473.947" style="stroke:#A80036;stroke-width:1.0;"/><text fill="#000000" font-family="sans-serif" font-size="13" lengthAdjust="spacing" textLength="8" x="1566.8473" y="423.5117">1</text><text fill="#000000" font-family="sans-serif" font-size="13" lengthAdjust="spacing" textLength="8" x="1719.7566" y="462.8782">1</text><!--MD5=[6dba24dc0f16d673b4663f61de2d8959]
reverse link Test to Client--><path codeLine="123" d="M1563.69,282.826 C1606.55,262.139 1653.91,239.283 1699.57,217.247 " fill="none" id="Test-backto-Client" style="stroke:#A80036;stroke-width:1.0;"/><polygon fill="#A80036" points="1559.02,285.079,1568.8641,284.7727,1563.5237,282.9072,1565.3892,277.5668,1559.02,285.079" style="stroke:#A80036;stroke-width:1.0;"/><text fill="#000000" font-family="sans-serif" font-size="13" lengthAdjust="spacing" textLength="8" x="1566.9617" y="293.8163">1</text><text fill="#000000" font-family="sans-serif" font-size="13" lengthAdjust="spacing" textLength="8" x="1683.7022" y="233.288">1</text><!--MD5=[c23963f6e403fc3ebec8dae22c30ade6]
link Test to Parameter--><path codeLine="124" d="M1472.51,432.043 C1526.14,490.448 1609,567.5081 1700,604.0002 C1952.25,705.157 2038.72,639.0002 2310.5,639.0002 C2310.5,639.0002 2310.5,639.0002 2602.5,639.0002 C2715.15,639.0002 2839.4,613.2302 2934.79,587.7242 " fill="none" id="Test-to-Parameter" style="stroke:#A80036;stroke-width:1.0;"/><polygon fill="#A80036" points="2939.88,586.3555,2930.1496,584.8328,2935.0519,587.6554,2932.2294,592.5577,2939.88,586.3555" style="stroke:#A80036;stroke-width:1.0;"/><text fill="#000000" font-family="sans-serif" font-size="13" lengthAdjust="spacing" textLength="8" x="1470.647" y="452.6064">1</text><text fill="#000000" font-family="sans-serif" font-size="13" lengthAdjust="spacing" textLength="27" x="2905.2394" y="600.9558">1...*</text><!--MD5=[8742b9b07f4ff1e96b776c10733812b1]
link Test to ParameterCategory--><path codeLine="125" d="M1559.34,329.149 C1604.41,321.593 1654.1,314.1 1700,309 C1970.12,278.99 2038.72,274 2310.5,274 C2310.5,274 2310.5,274 2825.5,274 C2999.38,274 3192.92,338.266 3308.71,384.035 " fill="none" id="Test-to-ParameterCategory" style="stroke:#A80036;stroke-width:1.0;"/><polygon fill="#A80036" points="3313.48,385.927,3306.5876,378.8918,3308.8319,384.0843,3303.6393,386.3287,3313.48,385.927" style="stroke:#A80036;stroke-width:1.0;"/><text fill="#000000" font-family="sans-serif" font-size="13" lengthAdjust="spacing" textLength="8" x="1566.8158" y="340.2228">1</text><text fill="#000000" font-family="sans-serif" font-size="13" lengthAdjust="spacing" textLength="27" x="3274.7217" y="377.7641">1...*</text><!--MD5=[ca29482912e344ebd5dc9db2d1c2ccab]
link Test to ClinicalAnalysisLaboratory--><path codeLine="126" d="M1559.02,364.696 C1641.85,368.973 1742.59,374.175 1815.48,377.939 " fill="none" id="Test-to-ClinicalAnalysisLaboratory" style="stroke:#A80036;stroke-width:1.0;"/><polygon fill="#A80036" points="1820.68,378.207,1811.8976,373.7495,1815.6866,377.9499,1811.4862,381.7389,1820.68,378.207" style="stroke:#A80036;stroke-width:1.0;"/><text fill="#000000" font-family="sans-serif" font-size="13" lengthAdjust="spacing" textLength="8" x="1566.9617" y="377.5386">1</text><text fill="#000000" font-family="sans-serif" font-size="13" lengthAdjust="spacing" textLength="8" x="1804.885" y="390.494">1</text><!--MD5=[71e6920dcc27afae8f25537cd5357b5f]
link TestType to ExternalModule--><path codeLine="127" d="M2120.52,530.519 C2142.08,530.574 2163.52,530.628 2183.81,530.679 " fill="none" id="TestType-to-ExternalModule" style="stroke:#A80036;stroke-width:1.0;"/><polygon fill="#A80036" points="2188.95,530.692,2179.9615,526.6663,2183.95,530.6777,2179.9386,534.6663,2188.95,530.692" style="stroke:#A80036;stroke-width:1.0;"/><text fill="#000000" font-family="sans-serif" font-size="13" lengthAdjust="spacing" textLength="7" x="2128.7044" y="542.9013">*</text><text fill="#000000" font-family="sans-serif" font-size="13" lengthAdjust="spacing" textLength="8" x="2172.8429" y="543.2301">1</text><!--MD5=[47cc88f3c536b52a6cee7e6f2da83dc0]
link ExternalModule to ReferenceValue--><path codeLine="128" d="M2434.22,532.268 C2452.32,532.457 2470.91,532.65 2488.79,532.837 " fill="none" id="ExternalModule-to-ReferenceValue" style="stroke:#A80036;stroke-width:1.0;"/><polygon fill="#A80036" points="2493.81,532.889,2484.8446,528.812,2488.8102,532.8461,2484.776,536.8117,2493.81,532.889" style="stroke:#A80036;stroke-width:1.0;"/><text fill="#000000" font-family="sans-serif" font-size="13" lengthAdjust="spacing" textLength="8" x="2441.942" y="544.8792">1</text><text fill="#000000" font-family="sans-serif" font-size="13" lengthAdjust="spacing" textLength="8" x="2477.9568" y="545.4021">1</text><!--MD5=[f3783478e71a4fb9974f843a76799fdd]
link ReferenceValue to TestResult--><path codeLine="129" d="M2709.12,534.483 C2727.92,534.568 2746.88,534.654 2763.8,534.73 " fill="none" id="ReferenceValue-to-TestResult" style="stroke:#A80036;stroke-width:1.0;"/><polygon fill="#A80036" points="2768.99,534.754,2760.0015,530.7283,2763.99,534.7397,2759.9786,538.7283,2768.99,534.754" style="stroke:#A80036;stroke-width:1.0;"/><text fill="#000000" font-family="sans-serif" font-size="13" lengthAdjust="spacing" textLength="8" x="2716.9683" y="547.1082">1</text><text fill="#000000" font-family="sans-serif" font-size="13" lengthAdjust="spacing" textLength="8" x="2752.9933" y="547.8177">1</text><!--MD5=[c99b8bdaa1af91b9feb22e19f7da8950]
link TestResult to Parameter--><path codeLine="130" d="M2880.16,535.611 C2896.35,535.792 2914.95,536 2934.29,536.216 " fill="none" id="TestResult-to-Parameter" style="stroke:#A80036;stroke-width:1.0;"/><polygon fill="#A80036" points="2939.76,536.277,2930.8063,532.1744,2934.7603,536.2199,2930.7149,540.1739,2939.76,536.277" style="stroke:#A80036;stroke-width:1.0;"/><text fill="#000000" font-family="sans-serif" font-size="13" lengthAdjust="spacing" textLength="8" x="2888.1768" y="548.7899">1</text><text fill="#000000" font-family="sans-serif" font-size="13" lengthAdjust="spacing" textLength="8" x="2924.0468" y="548.6264">1</text><!--MD5=[cddb6551b2e398a1bc6008c7ae95e1a3]
@startuml
skinparam classAttributeIconSize 0
left to right direction
class ClinicalAnalysisLaboratory{
String name;
String adress;
long phoneNumber;
long tin;
List<TestType> testTypes;
}

class Company
{
  -String designation
  +getClientList()
  +getTestTypeStore()
  +getParameterCategoryStore()
  +getParameterStore()
  +getTestStore()
}

class Client {
-ccn: long
-NHSnumber: long
-birthDate: int
-sex: String
-tin: long
-phoneNumber: long
-email: String
-password: String
-client: User
+acessorMethods

+Client(ccn, nhsNumber, birthDate, sex, email, tin, phoneNumber, name)
+Client(ccn, nhsNumber, birthDate, email, tin, phoneNumber, name)
+...() 
}

interface ExternalModule {
+ ReferenceValue getReferenceValue(p)
}

class ClientList {
  -List <Client> clientList
  +createClient(ccn, nhsNumber, birthDate, sex, email,tin, phoneNumber, name)
  +createClient(ccn, nhsNumber, birthDate, email,tin, phoneNumber, name)
  +saveClient(client)
  +getClients()
}
class TestType{
-String code
-String description
-String collectingMethod
-List<ParameterCategory> parameterCategories
+TestType(code, description, collectingMethod, parameterCategories)
}

class Parameter {
  -String code
  -String shortname
  -String description
  -List<ParameterCategory> category
  +Parameter(code, shortname, description, category)
}

class ParameterCategory {
  -String code
  -String name
  +ParameterCategory(code, name)
}

class ImportTests {
}

class TestController {
  +createTest(nhsCode, testCode, client, tt, lcs, lps, rDate)
  +saveTest(t)
  +client()
  +getTestTypes()
  +getCategories()
  +getParameterByCode(code)
  +getCategoriesByName (name)
  +getParametersByHeader(header)
}

class Test {
   -String nhsCode;
   -String internalCode;
   -Client client;
   -TestType testType;
   -List <ParameterCategory>  parameterCategory;
   -List <Parameter> parameter;
   -Date registrationDate;
  +Test(nhsCode, testCode, client, tt, lcs, lps, rDate)
}

class TestStore {
  +Test(nhsCode, testCode, client, tt, lcs, lps, rDate)
  +saveTest(t)
  +addTest(t)
  +validateTest(t)
  +getTests()
}
class ReferenceValue {
-metric
-maxValue
-minValue
+referenceValue (metric, max,min)
}
class TestResult {
+setTestResult ()
}
ImportTests ..> TestController
TestController ..> Company
ClientList "1" - -> "*" Client
Company "1" - -> "1" TestStore
Company "1" - -> "1" ClientList
TestStore"1" - -> "*" Test

TestType "*" - -> "1..*" ParameterCategory

Parameter "*" - -> "1..*" ParameterCategory
Test "1" - -> "1" TestType
Test "1" <- - "1" Client
Test "1" - -> "1...*" Parameter
Test "1" - -> "1...*" ParameterCategory
Test "1" - -> "1" ClinicalAnalysisLaboratory
TestType "*" - -> "1" ExternalModule
ExternalModule "1" - -> "1" ReferenceValue
ReferenceValue "1" - -> "1" TestResult
TestResult "1" - -> "1" Parameter
@enduml

PlantUML version 1.2021.7(Sun May 23 12:40:07 UTC 2021)
(GPL source distribution)
Java Runtime: Java(TM) SE Runtime Environment
JVM: Java HotSpot(TM) 64-Bit Server VM
Default Encoding: UTF-8
Language: en
Country: US
--></g></svg>