<?xml version="1.0" encoding="UTF-8" standalone="no"?><svg xmlns="http://www.w3.org/2000/svg" xmlns:xlink="http://www.w3.org/1999/xlink" contentScriptType="application/ecmascript" contentStyleType="text/css" height="1266px" preserveAspectRatio="none" style="width:1535px;height:1266px;background:#FFFFFF;" version="1.1" viewBox="0 0 1535 1266" width="1535px" zoomAndPan="magnify"><defs><filter height="300%" id="f14z2kndnwyo9a" width="300%" x="-1" y="-1"><feGaussianBlur result="blurOut" stdDeviation="2.0"/><feColorMatrix in="blurOut" result="blurOut2" type="matrix" values="0 0 0 0 0 0 0 0 0 0 0 0 0 0 0 0 0 0 .4 0"/><feOffset dx="4.0" dy="4.0" in="blurOut2" result="blurOut3"/><feBlend in="SourceGraphic" in2="blurOut3" mode="normal"/></filter></defs><g><!--MD5=[1934a092c0e7d4da7dc7075b6f4b6b03]
class ClinicalAnalysisLaboratory--><rect codeLine="3" fill="#FEFECE" filter="url(#f14z2kndnwyo9a)" height="112.0234" id="ClinicalAnalysisLaboratory" style="stroke:#A80036;stroke-width:1.5;" width="187" x="471" y="943"/><ellipse cx="486" cy="959" fill="#ADD1B2" rx="11" ry="11" style="stroke:#A80036;stroke-width:1.0;"/><path d="M488.3438,954.6719 C487.4063,954.2344 486.8125,954.0938 485.9375,954.0938 C483.3125,954.0938 481.3125,956.1719 481.3125,958.8906 L481.3125,960.0156 C481.3125,962.5938 483.4219,964.4844 486.3125,964.4844 C487.5313,964.4844 488.6875,964.1875 489.4375,963.6406 C490.0156,963.2344 490.3438,962.7813 490.3438,962.3906 C490.3438,961.9375 489.9531,961.5469 489.4844,961.5469 C489.2656,961.5469 489.0625,961.625 488.875,961.8125 C488.4219,962.2969 488.4219,962.2969 488.2344,962.3906 C487.8125,962.6563 487.125,962.7813 486.3594,962.7813 C484.3125,962.7813 483.0156,961.6875 483.0156,959.9844 L483.0156,958.8906 C483.0156,957.1094 484.2656,955.7969 486,955.7969 C486.5781,955.7969 487.1875,955.9531 487.6563,956.2031 C488.1406,956.4844 488.3125,956.7031 488.4063,957.1094 C488.4688,957.5156 488.5,957.6406 488.6406,957.7656 C488.7813,957.9063 489.0156,958.0156 489.2344,958.0156 C489.5,958.0156 489.7656,957.875 489.9375,957.6563 C490.0469,957.5 490.0781,957.3125 490.0781,956.8906 L490.0781,955.4688 C490.0781,955.0313 490.0625,954.9063 489.9688,954.75 C489.8125,954.4844 489.5313,954.3438 489.2344,954.3438 C488.9375,954.3438 488.7344,954.4375 488.5156,954.75 L488.3438,954.6719 Z " fill="#000000"/><text fill="#000000" font-family="sans-serif" font-size="12" lengthAdjust="spacing" textLength="155" x="500" y="963.1543">ClinicalAnalysisLaboratory</text><line style="stroke:#A80036;stroke-width:1.5;" x1="472" x2="657" y1="975" y2="975"/><text fill="#000000" font-family="sans-serif" font-size="11" lengthAdjust="spacing" textLength="73" x="477" y="989.2104">String name;</text><text fill="#000000" font-family="sans-serif" font-size="11" lengthAdjust="spacing" textLength="78" x="477" y="1002.0151">String adress;</text><text fill="#000000" font-family="sans-serif" font-size="11" lengthAdjust="spacing" textLength="112" x="477" y="1014.8198">long phoneNumber;</text><text fill="#000000" font-family="sans-serif" font-size="11" lengthAdjust="spacing" textLength="45" x="477" y="1027.6245">long tin;</text><text fill="#000000" font-family="sans-serif" font-size="11" lengthAdjust="spacing" textLength="155" x="477" y="1040.4292">List&lt;TestType&gt; testTypes;</text><line style="stroke:#A80036;stroke-width:1.5;" x1="472" x2="657" y1="1047.0234" y2="1047.0234"/><!--MD5=[02e4b9b7573f1156f41e60aa5b4e25a4]
class Company--><rect codeLine="11" fill="#FEFECE" filter="url(#f14z2kndnwyo9a)" height="124.8281" id="Company" style="stroke:#A80036;stroke-width:1.5;" width="190" x="532.5" y="325"/><ellipse cx="595.25" cy="341" fill="#ADD1B2" rx="11" ry="11" style="stroke:#A80036;stroke-width:1.0;"/><path d="M597.5938,336.6719 C596.6563,336.2344 596.0625,336.0938 595.1875,336.0938 C592.5625,336.0938 590.5625,338.1719 590.5625,340.8906 L590.5625,342.0156 C590.5625,344.5938 592.6719,346.4844 595.5625,346.4844 C596.7813,346.4844 597.9375,346.1875 598.6875,345.6406 C599.2656,345.2344 599.5938,344.7813 599.5938,344.3906 C599.5938,343.9375 599.2031,343.5469 598.7344,343.5469 C598.5156,343.5469 598.3125,343.625 598.125,343.8125 C597.6719,344.2969 597.6719,344.2969 597.4844,344.3906 C597.0625,344.6563 596.375,344.7813 595.6094,344.7813 C593.5625,344.7813 592.2656,343.6875 592.2656,341.9844 L592.2656,340.8906 C592.2656,339.1094 593.5156,337.7969 595.25,337.7969 C595.8281,337.7969 596.4375,337.9531 596.9063,338.2031 C597.3906,338.4844 597.5625,338.7031 597.6563,339.1094 C597.7188,339.5156 597.75,339.6406 597.8906,339.7656 C598.0313,339.9063 598.2656,340.0156 598.4844,340.0156 C598.75,340.0156 599.0156,339.875 599.1875,339.6563 C599.2969,339.5 599.3281,339.3125 599.3281,338.8906 L599.3281,337.4688 C599.3281,337.0313 599.3125,336.9063 599.2188,336.75 C599.0625,336.4844 598.7813,336.3438 598.4844,336.3438 C598.1875,336.3438 597.9844,336.4375 597.7656,336.75 L597.5938,336.6719 Z " fill="#000000"/><text fill="#000000" font-family="sans-serif" font-size="12" lengthAdjust="spacing" textLength="56" x="615.75" y="345.1543">Company</text><line style="stroke:#A80036;stroke-width:1.5;" x1="533.5" x2="721.5" y1="357" y2="357"/><text fill="#000000" font-family="sans-serif" font-size="11" lengthAdjust="spacing" textLength="107" x="538.5" y="371.2104">-String designation</text><line style="stroke:#A80036;stroke-width:1.5;" x1="533.5" x2="721.5" y1="377.8047" y2="377.8047"/><text fill="#000000" font-family="sans-serif" font-size="11" lengthAdjust="spacing" textLength="88" x="538.5" y="392.0151">+getClientList()</text><text fill="#000000" font-family="sans-serif" font-size="11" lengthAdjust="spacing" textLength="121" x="538.5" y="404.8198">+getTestTypeStore()</text><text fill="#000000" font-family="sans-serif" font-size="11" lengthAdjust="spacing" textLength="178" x="538.5" y="417.6245">+getParameterCategoryStore()</text><text fill="#000000" font-family="sans-serif" font-size="11" lengthAdjust="spacing" textLength="126" x="538.5" y="430.4292">+getParameterStore()</text><text fill="#000000" font-family="sans-serif" font-size="11" lengthAdjust="spacing" textLength="92" x="538.5" y="443.2339">+getTestStore()</text><!--MD5=[ed6624c6556d5e7b1bd23032162d20b7]
class Client--><rect codeLine="21" fill="#FEFECE" filter="url(#f14z2kndnwyo9a)" height="214.4609" id="Client" style="stroke:#A80036;stroke-width:1.5;" width="429" x="7" y="892"/><ellipse cx="200.75" cy="908" fill="#ADD1B2" rx="11" ry="11" style="stroke:#A80036;stroke-width:1.0;"/><path d="M203.0938,903.6719 C202.1563,903.2344 201.5625,903.0938 200.6875,903.0938 C198.0625,903.0938 196.0625,905.1719 196.0625,907.8906 L196.0625,909.0156 C196.0625,911.5938 198.1719,913.4844 201.0625,913.4844 C202.2813,913.4844 203.4375,913.1875 204.1875,912.6406 C204.7656,912.2344 205.0938,911.7813 205.0938,911.3906 C205.0938,910.9375 204.7031,910.5469 204.2344,910.5469 C204.0156,910.5469 203.8125,910.625 203.625,910.8125 C203.1719,911.2969 203.1719,911.2969 202.9844,911.3906 C202.5625,911.6563 201.875,911.7813 201.1094,911.7813 C199.0625,911.7813 197.7656,910.6875 197.7656,908.9844 L197.7656,907.8906 C197.7656,906.1094 199.0156,904.7969 200.75,904.7969 C201.3281,904.7969 201.9375,904.9531 202.4063,905.2031 C202.8906,905.4844 203.0625,905.7031 203.1563,906.1094 C203.2188,906.5156 203.25,906.6406 203.3906,906.7656 C203.5313,906.9063 203.7656,907.0156 203.9844,907.0156 C204.25,907.0156 204.5156,906.875 204.6875,906.6563 C204.7969,906.5 204.8281,906.3125 204.8281,905.8906 L204.8281,904.4688 C204.8281,904.0313 204.8125,903.9063 204.7188,903.75 C204.5625,903.4844 204.2813,903.3438 203.9844,903.3438 C203.6875,903.3438 203.4844,903.4375 203.2656,903.75 L203.0938,903.6719 Z " fill="#000000"/><text fill="#000000" font-family="sans-serif" font-size="12" lengthAdjust="spacing" textLength="33" x="221.25" y="912.1543">Client</text><line style="stroke:#A80036;stroke-width:1.5;" x1="8" x2="435" y1="924" y2="924"/><text fill="#000000" font-family="sans-serif" font-size="11" lengthAdjust="spacing" textLength="54" x="13" y="938.2104">-ccn: long</text><text fill="#000000" font-family="sans-serif" font-size="11" lengthAdjust="spacing" textLength="103" x="13" y="951.0151">-NHSnumber: long</text><text fill="#000000" font-family="sans-serif" font-size="11" lengthAdjust="spacing" textLength="78" x="13" y="963.8198">-birthDate: int</text><text fill="#000000" font-family="sans-serif" font-size="11" lengthAdjust="spacing" textLength="65" x="13" y="976.6245">-sex: String</text><text fill="#000000" font-family="sans-serif" font-size="11" lengthAdjust="spacing" textLength="49" x="13" y="989.4292">-tin: long</text><text fill="#000000" font-family="sans-serif" font-size="11" lengthAdjust="spacing" textLength="116" x="13" y="1002.2339">-phoneNumber: long</text><text fill="#000000" font-family="sans-serif" font-size="11" lengthAdjust="spacing" textLength="76" x="13" y="1015.0386">-email: String</text><text fill="#000000" font-family="sans-serif" font-size="11" lengthAdjust="spacing" textLength="97" x="13" y="1027.8433">-password: String</text><text fill="#000000" font-family="sans-serif" font-size="11" lengthAdjust="spacing" textLength="68" x="13" y="1040.6479">-client: User</text><text fill="#000000" font-family="sans-serif" font-size="11" lengthAdjust="spacing" textLength="101" x="13" y="1053.4526">+acessorMethods</text><line style="stroke:#A80036;stroke-width:1.5;" x1="8" x2="435" y1="1060.0469" y2="1060.0469"/><text fill="#000000" font-family="sans-serif" font-size="11" lengthAdjust="spacing" textLength="417" x="13" y="1074.2573">+Client(ccn, nhsNumber, birthDate, sex, email, tin, phoneNumber, name)</text><text fill="#000000" font-family="sans-serif" font-size="11" lengthAdjust="spacing" textLength="389" x="13" y="1087.062">+Client(ccn, nhsNumber, birthDate, email, tin, phoneNumber, name)</text><text fill="#000000" font-family="sans-serif" font-size="11" lengthAdjust="spacing" textLength="26" x="13" y="1099.8667">+...()</text><!--MD5=[8f188b89eff49accb0f38c057b38a9f2]
class ExternalModule--><rect codeLine="38" fill="#FEFECE" filter="url(#f14z2kndnwyo9a)" height="60.8047" id="ExternalModule" style="stroke:#A80036;stroke-width:1.5;" width="245" x="777" y="1178.5"/><ellipse cx="848.75" cy="1194.5" fill="#B4A7E5" rx="11" ry="11" style="stroke:#A80036;stroke-width:1.0;"/><path d="M849.7031,1191.2813 L851.4219,1191.2813 C851.8125,1191.2813 852,1191.25 852.125,1191.1719 C852.3906,1191.0156 852.5313,1190.7344 852.5313,1190.4375 C852.5313,1190.1719 852.4219,1189.9063 852.1875,1189.7344 C852.0156,1189.625 851.875,1189.5938 851.4219,1189.5938 L846.2813,1189.5938 C845.8438,1189.5938 845.7188,1189.6094 845.5625,1189.7031 C845.3125,1189.8594 845.1563,1190.1563 845.1563,1190.4375 C845.1563,1190.7188 845.2969,1190.9688 845.5156,1191.1406 C845.6719,1191.25 845.8594,1191.2813 846.2813,1191.2813 L848,1191.2813 L848,1197.7969 L846.2813,1197.7969 C845.8438,1197.7969 845.7188,1197.8125 845.5625,1197.9219 C845.3125,1198.0781 845.1563,1198.3594 845.1563,1198.6563 C845.1563,1198.9063 845.2969,1199.1719 845.5156,1199.3281 C845.6719,1199.4531 845.875,1199.5 846.2813,1199.5 L851.4219,1199.5 C852.1719,1199.5 852.5313,1199.2188 852.5313,1198.6563 C852.5313,1198.375 852.4219,1198.125 852.1875,1197.9531 C852.0156,1197.8281 851.875,1197.7969 851.4219,1197.7969 L849.7031,1197.7969 L849.7031,1191.2813 Z " fill="#000000"/><text fill="#000000" font-family="sans-serif" font-size="12" font-style="italic" lengthAdjust="spacing" textLength="93" x="869.25" y="1198.6543">ExternalModule</text><line style="stroke:#A80036;stroke-width:1.5;" x1="778" x2="1021" y1="1210.5" y2="1210.5"/><line style="stroke:#A80036;stroke-width:1.5;" x1="778" x2="1021" y1="1218.5" y2="1218.5"/><text fill="#000000" font-family="sans-serif" font-size="11" lengthAdjust="spacing" textLength="233" x="783" y="1232.7104">+ReferenceValue getReferenceValue(p)</text><!--MD5=[594612147f950995a18c1e6474349bc0]
class ClientList--><rect codeLine="42" fill="#FEFECE" filter="url(#f14z2kndnwyo9a)" height="112.0234" id="ClientList" style="stroke:#A80036;stroke-width:1.5;" width="462" x="121.5" y="701"/><ellipse cx="321.75" cy="717" fill="#ADD1B2" rx="11" ry="11" style="stroke:#A80036;stroke-width:1.0;"/><path d="M324.0938,712.6719 C323.1563,712.2344 322.5625,712.0938 321.6875,712.0938 C319.0625,712.0938 317.0625,714.1719 317.0625,716.8906 L317.0625,718.0156 C317.0625,720.5938 319.1719,722.4844 322.0625,722.4844 C323.2813,722.4844 324.4375,722.1875 325.1875,721.6406 C325.7656,721.2344 326.0938,720.7813 326.0938,720.3906 C326.0938,719.9375 325.7031,719.5469 325.2344,719.5469 C325.0156,719.5469 324.8125,719.625 324.625,719.8125 C324.1719,720.2969 324.1719,720.2969 323.9844,720.3906 C323.5625,720.6563 322.875,720.7813 322.1094,720.7813 C320.0625,720.7813 318.7656,719.6875 318.7656,717.9844 L318.7656,716.8906 C318.7656,715.1094 320.0156,713.7969 321.75,713.7969 C322.3281,713.7969 322.9375,713.9531 323.4063,714.2031 C323.8906,714.4844 324.0625,714.7031 324.1563,715.1094 C324.2188,715.5156 324.25,715.6406 324.3906,715.7656 C324.5313,715.9063 324.7656,716.0156 324.9844,716.0156 C325.25,716.0156 325.5156,715.875 325.6875,715.6563 C325.7969,715.5 325.8281,715.3125 325.8281,714.8906 L325.8281,713.4688 C325.8281,713.0313 325.8125,712.9063 325.7188,712.75 C325.5625,712.4844 325.2813,712.3438 324.9844,712.3438 C324.6875,712.3438 324.4844,712.4375 324.2656,712.75 L324.0938,712.6719 Z " fill="#000000"/><text fill="#000000" font-family="sans-serif" font-size="12" lengthAdjust="spacing" textLength="53" x="342.25" y="721.1543">ClientList</text><line style="stroke:#A80036;stroke-width:1.5;" x1="122.5" x2="582.5" y1="733" y2="733"/><text fill="#000000" font-family="sans-serif" font-size="11" lengthAdjust="spacing" textLength="132" x="127.5" y="747.2104">-List &lt;Client&gt; clientList</text><line style="stroke:#A80036;stroke-width:1.5;" x1="122.5" x2="582.5" y1="753.8047" y2="753.8047"/><text fill="#000000" font-family="sans-serif" font-size="11" lengthAdjust="spacing" textLength="450" x="127.5" y="768.0151">+createClient(ccn, nhsNumber, birthDate, sex, email,tin, phoneNumber, name)</text><text fill="#000000" font-family="sans-serif" font-size="11" lengthAdjust="spacing" textLength="422" x="127.5" y="780.8198">+createClient(ccn, nhsNumber, birthDate, email,tin, phoneNumber, name)</text><text fill="#000000" font-family="sans-serif" font-size="11" lengthAdjust="spacing" textLength="109" x="127.5" y="793.6245">+saveClient(client)</text><text fill="#000000" font-family="sans-serif" font-size="11" lengthAdjust="spacing" textLength="75" x="127.5" y="806.4292">+getClients()</text><!--MD5=[aeb3272166074d8737a70b61b1e71682]
class TestType--><rect codeLine="49" fill="#FEFECE" filter="url(#f14z2kndnwyo9a)" height="112.0234" id="TestType" style="stroke:#A80036;stroke-width:1.5;" width="412" x="693.5" y="943"/><ellipse cx="867.25" cy="959" fill="#ADD1B2" rx="11" ry="11" style="stroke:#A80036;stroke-width:1.0;"/><path d="M869.5938,954.6719 C868.6563,954.2344 868.0625,954.0938 867.1875,954.0938 C864.5625,954.0938 862.5625,956.1719 862.5625,958.8906 L862.5625,960.0156 C862.5625,962.5938 864.6719,964.4844 867.5625,964.4844 C868.7813,964.4844 869.9375,964.1875 870.6875,963.6406 C871.2656,963.2344 871.5938,962.7813 871.5938,962.3906 C871.5938,961.9375 871.2031,961.5469 870.7344,961.5469 C870.5156,961.5469 870.3125,961.625 870.125,961.8125 C869.6719,962.2969 869.6719,962.2969 869.4844,962.3906 C869.0625,962.6563 868.375,962.7813 867.6094,962.7813 C865.5625,962.7813 864.2656,961.6875 864.2656,959.9844 L864.2656,958.8906 C864.2656,957.1094 865.5156,955.7969 867.25,955.7969 C867.8281,955.7969 868.4375,955.9531 868.9063,956.2031 C869.3906,956.4844 869.5625,956.7031 869.6563,957.1094 C869.7188,957.5156 869.75,957.6406 869.8906,957.7656 C870.0313,957.9063 870.2656,958.0156 870.4844,958.0156 C870.75,958.0156 871.0156,957.875 871.1875,957.6563 C871.2969,957.5 871.3281,957.3125 871.3281,956.8906 L871.3281,955.4688 C871.3281,955.0313 871.3125,954.9063 871.2188,954.75 C871.0625,954.4844 870.7813,954.3438 870.4844,954.3438 C870.1875,954.3438 869.9844,954.4375 869.7656,954.75 L869.5938,954.6719 Z " fill="#000000"/><text fill="#000000" font-family="sans-serif" font-size="12" lengthAdjust="spacing" textLength="56" x="887.75" y="963.1543">TestType</text><line style="stroke:#A80036;stroke-width:1.5;" x1="694.5" x2="1104.5" y1="975" y2="975"/><text fill="#000000" font-family="sans-serif" font-size="11" lengthAdjust="spacing" textLength="69" x="699.5" y="989.2104">-String code</text><text fill="#000000" font-family="sans-serif" font-size="11" lengthAdjust="spacing" textLength="103" x="699.5" y="1002.0151">-String description</text><text fill="#000000" font-family="sans-serif" font-size="11" lengthAdjust="spacing" textLength="137" x="699.5" y="1014.8198">-String collectingMethod</text><text fill="#000000" font-family="sans-serif" font-size="11" lengthAdjust="spacing" textLength="278" x="699.5" y="1027.6245">-List&lt;ParameterCategory&gt; parameterCategories</text><line style="stroke:#A80036;stroke-width:1.5;" x1="694.5" x2="1104.5" y1="1034.2188" y2="1034.2188"/><text fill="#000000" font-family="sans-serif" font-size="11" lengthAdjust="spacing" textLength="400" x="699.5" y="1048.4292">+TestType(code, description, collectingMethod, parameterCategories)</text><!--MD5=[1f6362a5c8f21d8d6a0fce68f3a92a4e]
class Parameter--><rect codeLine="57" fill="#FEFECE" filter="url(#f14z2kndnwyo9a)" height="112.0234" id="Parameter" style="stroke:#A80036;stroke-width:1.5;" width="310" x="1140.5" y="943"/><ellipse cx="1260.75" cy="959" fill="#ADD1B2" rx="11" ry="11" style="stroke:#A80036;stroke-width:1.0;"/><path d="M1263.0938,954.6719 C1262.1563,954.2344 1261.5625,954.0938 1260.6875,954.0938 C1258.0625,954.0938 1256.0625,956.1719 1256.0625,958.8906 L1256.0625,960.0156 C1256.0625,962.5938 1258.1719,964.4844 1261.0625,964.4844 C1262.2813,964.4844 1263.4375,964.1875 1264.1875,963.6406 C1264.7656,963.2344 1265.0938,962.7813 1265.0938,962.3906 C1265.0938,961.9375 1264.7031,961.5469 1264.2344,961.5469 C1264.0156,961.5469 1263.8125,961.625 1263.625,961.8125 C1263.1719,962.2969 1263.1719,962.2969 1262.9844,962.3906 C1262.5625,962.6563 1261.875,962.7813 1261.1094,962.7813 C1259.0625,962.7813 1257.7656,961.6875 1257.7656,959.9844 L1257.7656,958.8906 C1257.7656,957.1094 1259.0156,955.7969 1260.75,955.7969 C1261.3281,955.7969 1261.9375,955.9531 1262.4063,956.2031 C1262.8906,956.4844 1263.0625,956.7031 1263.1563,957.1094 C1263.2188,957.5156 1263.25,957.6406 1263.3906,957.7656 C1263.5313,957.9063 1263.7656,958.0156 1263.9844,958.0156 C1264.25,958.0156 1264.5156,957.875 1264.6875,957.6563 C1264.7969,957.5 1264.8281,957.3125 1264.8281,956.8906 L1264.8281,955.4688 C1264.8281,955.0313 1264.8125,954.9063 1264.7188,954.75 C1264.5625,954.4844 1264.2813,954.3438 1263.9844,954.3438 C1263.6875,954.3438 1263.4844,954.4375 1263.2656,954.75 L1263.0938,954.6719 Z " fill="#000000"/><text fill="#000000" font-family="sans-serif" font-size="12" lengthAdjust="spacing" textLength="61" x="1281.25" y="963.1543">Parameter</text><line style="stroke:#A80036;stroke-width:1.5;" x1="1141.5" x2="1449.5" y1="975" y2="975"/><text fill="#000000" font-family="sans-serif" font-size="11" lengthAdjust="spacing" textLength="69" x="1146.5" y="989.2104">-String code</text><text fill="#000000" font-family="sans-serif" font-size="11" lengthAdjust="spacing" textLength="102" x="1146.5" y="1002.0151">-String shortname</text><text fill="#000000" font-family="sans-serif" font-size="11" lengthAdjust="spacing" textLength="103" x="1146.5" y="1014.8198">-String description</text><text fill="#000000" font-family="sans-serif" font-size="11" lengthAdjust="spacing" textLength="206" x="1146.5" y="1027.6245">-List&lt;ParameterCategory&gt; category</text><line style="stroke:#A80036;stroke-width:1.5;" x1="1141.5" x2="1449.5" y1="1034.2188" y2="1034.2188"/><text fill="#000000" font-family="sans-serif" font-size="11" lengthAdjust="spacing" textLength="298" x="1146.5" y="1048.4292">+Parameter(code, shortname, description, category)</text><!--MD5=[36afb6bbd95a8ac778c4537c55a683d5]
class ParameterCategory--><rect codeLine="65" fill="#FEFECE" filter="url(#f14z2kndnwyo9a)" height="86.4141" id="ParameterCategory" style="stroke:#A80036;stroke-width:1.5;" width="208" x="1191.5" y="1166"/><ellipse cx="1233.5" cy="1182" fill="#ADD1B2" rx="11" ry="11" style="stroke:#A80036;stroke-width:1.0;"/><path d="M1235.8438,1177.6719 C1234.9063,1177.2344 1234.3125,1177.0938 1233.4375,1177.0938 C1230.8125,1177.0938 1228.8125,1179.1719 1228.8125,1181.8906 L1228.8125,1183.0156 C1228.8125,1185.5938 1230.9219,1187.4844 1233.8125,1187.4844 C1235.0313,1187.4844 1236.1875,1187.1875 1236.9375,1186.6406 C1237.5156,1186.2344 1237.8438,1185.7813 1237.8438,1185.3906 C1237.8438,1184.9375 1237.4531,1184.5469 1236.9844,1184.5469 C1236.7656,1184.5469 1236.5625,1184.625 1236.375,1184.8125 C1235.9219,1185.2969 1235.9219,1185.2969 1235.7344,1185.3906 C1235.3125,1185.6563 1234.625,1185.7813 1233.8594,1185.7813 C1231.8125,1185.7813 1230.5156,1184.6875 1230.5156,1182.9844 L1230.5156,1181.8906 C1230.5156,1180.1094 1231.7656,1178.7969 1233.5,1178.7969 C1234.0781,1178.7969 1234.6875,1178.9531 1235.1563,1179.2031 C1235.6406,1179.4844 1235.8125,1179.7031 1235.9063,1180.1094 C1235.9688,1180.5156 1236,1180.6406 1236.1406,1180.7656 C1236.2813,1180.9063 1236.5156,1181.0156 1236.7344,1181.0156 C1237,1181.0156 1237.2656,1180.875 1237.4375,1180.6563 C1237.5469,1180.5 1237.5781,1180.3125 1237.5781,1179.8906 L1237.5781,1178.4688 C1237.5781,1178.0313 1237.5625,1177.9063 1237.4688,1177.75 C1237.3125,1177.4844 1237.0313,1177.3438 1236.7344,1177.3438 C1236.4375,1177.3438 1236.2344,1177.4375 1236.0156,1177.75 L1235.8438,1177.6719 Z " fill="#000000"/><text fill="#000000" font-family="sans-serif" font-size="12" lengthAdjust="spacing" textLength="116" x="1253.5" y="1186.1543">ParameterCategory</text><line style="stroke:#A80036;stroke-width:1.5;" x1="1192.5" x2="1398.5" y1="1198" y2="1198"/><text fill="#000000" font-family="sans-serif" font-size="11" lengthAdjust="spacing" textLength="69" x="1197.5" y="1212.2104">-String code</text><text fill="#000000" font-family="sans-serif" font-size="11" lengthAdjust="spacing" textLength="74" x="1197.5" y="1225.0151">-String name</text><line style="stroke:#A80036;stroke-width:1.5;" x1="1192.5" x2="1398.5" y1="1231.6094" y2="1231.6094"/><text fill="#000000" font-family="sans-serif" font-size="11" lengthAdjust="spacing" textLength="196" x="1197.5" y="1245.8198">+ParameterCategory(code, name)</text><!--MD5=[8ba6d25d8575ff644db512407b466cac]
class ImportTests--><rect codeLine="71" fill="#FEFECE" filter="url(#f14z2kndnwyo9a)" height="48" id="ImportTests" style="stroke:#A80036;stroke-width:1.5;" width="104" x="575.5" y="7"/><ellipse cx="590.5" cy="23" fill="#ADD1B2" rx="11" ry="11" style="stroke:#A80036;stroke-width:1.0;"/><path d="M592.8438,18.6719 C591.9063,18.2344 591.3125,18.0938 590.4375,18.0938 C587.8125,18.0938 585.8125,20.1719 585.8125,22.8906 L585.8125,24.0156 C585.8125,26.5938 587.9219,28.4844 590.8125,28.4844 C592.0313,28.4844 593.1875,28.1875 593.9375,27.6406 C594.5156,27.2344 594.8438,26.7813 594.8438,26.3906 C594.8438,25.9375 594.4531,25.5469 593.9844,25.5469 C593.7656,25.5469 593.5625,25.625 593.375,25.8125 C592.9219,26.2969 592.9219,26.2969 592.7344,26.3906 C592.3125,26.6563 591.625,26.7813 590.8594,26.7813 C588.8125,26.7813 587.5156,25.6875 587.5156,23.9844 L587.5156,22.8906 C587.5156,21.1094 588.7656,19.7969 590.5,19.7969 C591.0781,19.7969 591.6875,19.9531 592.1563,20.2031 C592.6406,20.4844 592.8125,20.7031 592.9063,21.1094 C592.9688,21.5156 593,21.6406 593.1406,21.7656 C593.2813,21.9063 593.5156,22.0156 593.7344,22.0156 C594,22.0156 594.2656,21.875 594.4375,21.6563 C594.5469,21.5 594.5781,21.3125 594.5781,20.8906 L594.5781,19.4688 C594.5781,19.0313 594.5625,18.9063 594.4688,18.75 C594.3125,18.4844 594.0313,18.3438 593.7344,18.3438 C593.4375,18.3438 593.2344,18.4375 593.0156,18.75 L592.8438,18.6719 Z " fill="#000000"/><text fill="#000000" font-family="sans-serif" font-size="12" lengthAdjust="spacing" textLength="72" x="604.5" y="27.1543">ImportTests</text><line style="stroke:#A80036;stroke-width:1.5;" x1="576.5" x2="678.5" y1="39" y2="39"/><line style="stroke:#A80036;stroke-width:1.5;" x1="576.5" x2="678.5" y1="47" y2="47"/><!--MD5=[f39222c906a5158620eb4ce0ead49545]
class TestController--><rect codeLine="74" fill="#FEFECE" filter="url(#f14z2kndnwyo9a)" height="150.4375" id="TestController" style="stroke:#A80036;stroke-width:1.5;" width="337" x="459" y="115"/><ellipse cx="580.75" cy="131" fill="#ADD1B2" rx="11" ry="11" style="stroke:#A80036;stroke-width:1.0;"/><path d="M583.0938,126.6719 C582.1563,126.2344 581.5625,126.0938 580.6875,126.0938 C578.0625,126.0938 576.0625,128.1719 576.0625,130.8906 L576.0625,132.0156 C576.0625,134.5938 578.1719,136.4844 581.0625,136.4844 C582.2813,136.4844 583.4375,136.1875 584.1875,135.6406 C584.7656,135.2344 585.0938,134.7813 585.0938,134.3906 C585.0938,133.9375 584.7031,133.5469 584.2344,133.5469 C584.0156,133.5469 583.8125,133.625 583.625,133.8125 C583.1719,134.2969 583.1719,134.2969 582.9844,134.3906 C582.5625,134.6563 581.875,134.7813 581.1094,134.7813 C579.0625,134.7813 577.7656,133.6875 577.7656,131.9844 L577.7656,130.8906 C577.7656,129.1094 579.0156,127.7969 580.75,127.7969 C581.3281,127.7969 581.9375,127.9531 582.4063,128.2031 C582.8906,128.4844 583.0625,128.7031 583.1563,129.1094 C583.2188,129.5156 583.25,129.6406 583.3906,129.7656 C583.5313,129.9063 583.7656,130.0156 583.9844,130.0156 C584.25,130.0156 584.5156,129.875 584.6875,129.6563 C584.7969,129.5 584.8281,129.3125 584.8281,128.8906 L584.8281,127.4688 C584.8281,127.0313 584.8125,126.9063 584.7188,126.75 C584.5625,126.4844 584.2813,126.3438 583.9844,126.3438 C583.6875,126.3438 583.4844,126.4375 583.2656,126.75 L583.0938,126.6719 Z " fill="#000000"/><text fill="#000000" font-family="sans-serif" font-size="12" lengthAdjust="spacing" textLength="85" x="601.25" y="135.1543">TestController</text><line style="stroke:#A80036;stroke-width:1.5;" x1="460" x2="795" y1="147" y2="147"/><line style="stroke:#A80036;stroke-width:1.5;" x1="460" x2="795" y1="155" y2="155"/><text fill="#000000" font-family="sans-serif" font-size="11" lengthAdjust="spacing" textLength="325" x="465" y="169.2104">+createTest(nhsCode, testCode, client, tt, lcs, lps, rDate)</text><text fill="#000000" font-family="sans-serif" font-size="11" lengthAdjust="spacing" textLength="74" x="465" y="182.0151">+saveTest(t)</text><text fill="#000000" font-family="sans-serif" font-size="11" lengthAdjust="spacing" textLength="48" x="465" y="194.8198">+client()</text><text fill="#000000" font-family="sans-serif" font-size="11" lengthAdjust="spacing" textLength="96" x="465" y="207.6245">+getTestTypes()</text><text fill="#000000" font-family="sans-serif" font-size="11" lengthAdjust="spacing" textLength="98" x="465" y="220.4292">+getCategories()</text><text fill="#000000" font-family="sans-serif" font-size="11" lengthAdjust="spacing" textLength="168" x="465" y="233.2339">+getParameterByCode(code)</text><text fill="#000000" font-family="sans-serif" font-size="11" lengthAdjust="spacing" textLength="184" x="465" y="246.0386">+getCategoriesByName (name)</text><text fill="#000000" font-family="sans-serif" font-size="11" lengthAdjust="spacing" textLength="199" x="465" y="258.8433">+getParametersByHeader(header)</text><!--MD5=[df38be88ccee13e832d6fafd6288a4ca]
class Test--><rect codeLine="85" fill="#FEFECE" filter="url(#f14z2kndnwyo9a)" height="150.4375" id="Test" style="stroke:#A80036;stroke-width:1.5;" width="300" x="683.5" y="682"/><ellipse cx="816.25" cy="698" fill="#ADD1B2" rx="11" ry="11" style="stroke:#A80036;stroke-width:1.0;"/><path d="M818.5938,693.6719 C817.6563,693.2344 817.0625,693.0938 816.1875,693.0938 C813.5625,693.0938 811.5625,695.1719 811.5625,697.8906 L811.5625,699.0156 C811.5625,701.5938 813.6719,703.4844 816.5625,703.4844 C817.7813,703.4844 818.9375,703.1875 819.6875,702.6406 C820.2656,702.2344 820.5938,701.7813 820.5938,701.3906 C820.5938,700.9375 820.2031,700.5469 819.7344,700.5469 C819.5156,700.5469 819.3125,700.625 819.125,700.8125 C818.6719,701.2969 818.6719,701.2969 818.4844,701.3906 C818.0625,701.6563 817.375,701.7813 816.6094,701.7813 C814.5625,701.7813 813.2656,700.6875 813.2656,698.9844 L813.2656,697.8906 C813.2656,696.1094 814.5156,694.7969 816.25,694.7969 C816.8281,694.7969 817.4375,694.9531 817.9063,695.2031 C818.3906,695.4844 818.5625,695.7031 818.6563,696.1094 C818.7188,696.5156 818.75,696.6406 818.8906,696.7656 C819.0313,696.9063 819.2656,697.0156 819.4844,697.0156 C819.75,697.0156 820.0156,696.875 820.1875,696.6563 C820.2969,696.5 820.3281,696.3125 820.3281,695.8906 L820.3281,694.4688 C820.3281,694.0313 820.3125,693.9063 820.2188,693.75 C820.0625,693.4844 819.7813,693.3438 819.4844,693.3438 C819.1875,693.3438 818.9844,693.4375 818.7656,693.75 L818.5938,693.6719 Z " fill="#000000"/><text fill="#000000" font-family="sans-serif" font-size="12" lengthAdjust="spacing" textLength="26" x="836.75" y="702.1543">Test</text><line style="stroke:#A80036;stroke-width:1.5;" x1="684.5" x2="982.5" y1="714" y2="714"/><text fill="#000000" font-family="sans-serif" font-size="11" lengthAdjust="spacing" textLength="94" x="689.5" y="728.2104">-String nhsCode;</text><text fill="#000000" font-family="sans-serif" font-size="11" lengthAdjust="spacing" textLength="117" x="689.5" y="741.0151">-String internalCode;</text><text fill="#000000" font-family="sans-serif" font-size="11" lengthAdjust="spacing" textLength="75" x="689.5" y="753.8198">-Client client;</text><text fill="#000000" font-family="sans-serif" font-size="11" lengthAdjust="spacing" textLength="116" x="689.5" y="766.6245">-TestType testType;</text><text fill="#000000" font-family="sans-serif" font-size="11" lengthAdjust="spacing" textLength="279" x="689.5" y="779.4292">-List &lt;ParameterCategory&gt;  parameterCategory;</text><text fill="#000000" font-family="sans-serif" font-size="11" lengthAdjust="spacing" textLength="171" x="689.5" y="792.2339">-List &lt;Parameter&gt; parameter;</text><text fill="#000000" font-family="sans-serif" font-size="11" lengthAdjust="spacing" textLength="131" x="689.5" y="805.0386">-Date registrationDate;</text><line style="stroke:#A80036;stroke-width:1.5;" x1="684.5" x2="982.5" y1="811.6328" y2="811.6328"/><text fill="#000000" font-family="sans-serif" font-size="11" lengthAdjust="spacing" textLength="288" x="689.5" y="825.8433">+Test(nhsCode, testCode, client, tt, lcs, lps, rDate)</text><!--MD5=[0f6f7964b844a64b0496af0dda7914bd]
class TestStore--><rect codeLine="96" fill="#FEFECE" filter="url(#f14z2kndnwyo9a)" height="112.0234" id="TestStore" style="stroke:#A80036;stroke-width:1.5;" width="300" x="613.5" y="510"/><ellipse cx="729.75" cy="526" fill="#ADD1B2" rx="11" ry="11" style="stroke:#A80036;stroke-width:1.0;"/><path d="M732.0938,521.6719 C731.1563,521.2344 730.5625,521.0938 729.6875,521.0938 C727.0625,521.0938 725.0625,523.1719 725.0625,525.8906 L725.0625,527.0156 C725.0625,529.5938 727.1719,531.4844 730.0625,531.4844 C731.2813,531.4844 732.4375,531.1875 733.1875,530.6406 C733.7656,530.2344 734.0938,529.7813 734.0938,529.3906 C734.0938,528.9375 733.7031,528.5469 733.2344,528.5469 C733.0156,528.5469 732.8125,528.625 732.625,528.8125 C732.1719,529.2969 732.1719,529.2969 731.9844,529.3906 C731.5625,529.6563 730.875,529.7813 730.1094,529.7813 C728.0625,529.7813 726.7656,528.6875 726.7656,526.9844 L726.7656,525.8906 C726.7656,524.1094 728.0156,522.7969 729.75,522.7969 C730.3281,522.7969 730.9375,522.9531 731.4063,523.2031 C731.8906,523.4844 732.0625,523.7031 732.1563,524.1094 C732.2188,524.5156 732.25,524.6406 732.3906,524.7656 C732.5313,524.9063 732.7656,525.0156 732.9844,525.0156 C733.25,525.0156 733.5156,524.875 733.6875,524.6563 C733.7969,524.5 733.8281,524.3125 733.8281,523.8906 L733.8281,522.4688 C733.8281,522.0313 733.8125,521.9063 733.7188,521.75 C733.5625,521.4844 733.2813,521.3438 732.9844,521.3438 C732.6875,521.3438 732.4844,521.4375 732.2656,521.75 L732.0938,521.6719 Z " fill="#000000"/><text fill="#000000" font-family="sans-serif" font-size="12" lengthAdjust="spacing" textLength="59" x="750.25" y="530.1543">TestStore</text><line style="stroke:#A80036;stroke-width:1.5;" x1="614.5" x2="912.5" y1="542" y2="542"/><line style="stroke:#A80036;stroke-width:1.5;" x1="614.5" x2="912.5" y1="550" y2="550"/><text fill="#000000" font-family="sans-serif" font-size="11" lengthAdjust="spacing" textLength="288" x="619.5" y="564.2104">+Test(nhsCode, testCode, client, tt, lcs, lps, rDate)</text><text fill="#000000" font-family="sans-serif" font-size="11" lengthAdjust="spacing" textLength="74" x="619.5" y="577.0151">+saveTest(t)</text><text fill="#000000" font-family="sans-serif" font-size="11" lengthAdjust="spacing" textLength="67" x="619.5" y="589.8198">+addTest(t)</text><text fill="#000000" font-family="sans-serif" font-size="11" lengthAdjust="spacing" textLength="92" x="619.5" y="602.6245">+validateTest(t)</text><text fill="#000000" font-family="sans-serif" font-size="11" lengthAdjust="spacing" textLength="67" x="619.5" y="615.4292">+getTests()</text><!--MD5=[0ccbad4e472b1b1afb5416edd370a584]
link ImportTests to TestController--><path codeLine="104" d="M627.5,55.17 C627.5,69.87 627.5,89.85 627.5,109.87 " fill="none" id="ImportTests-to-TestController" style="stroke:#A80036;stroke-width:1.0;stroke-dasharray:7.0,7.0;"/><polygon fill="#A80036" points="627.5,114.96,631.5,105.96,627.5,109.96,623.5,105.96,627.5,114.96" style="stroke:#A80036;stroke-width:1.0;"/><!--MD5=[b3e932a0b9ddf5fd0fa9570af6d67299]
link TestController to Company--><path codeLine="105" d="M627.5,265.189 C627.5,283.005 627.5,301.932 627.5,319.405 " fill="none" id="TestController-to-Company" style="stroke:#A80036;stroke-width:1.0;stroke-dasharray:7.0,7.0;"/><polygon fill="#A80036" points="627.5,324.778,631.5,315.778,627.5,319.778,623.5,315.778,627.5,324.778" style="stroke:#A80036;stroke-width:1.0;"/><!--MD5=[ab179af0153bf609fe4891204b6ca111]
link ClientList to Client--><path codeLine="106" d="M322.446,813.061 C310.378,835.17 296.013,861.488 281.959,887.235 " fill="none" id="ClientList-to-Client" style="stroke:#A80036;stroke-width:1.0;"/><polygon fill="#A80036" points="279.524,891.697,287.3465,885.713,281.9192,887.308,280.3241,881.8807,279.524,891.697" style="stroke:#A80036;stroke-width:1.0;"/><text fill="#000000" font-family="sans-serif" font-size="13" lengthAdjust="spacing" textLength="8" x="310.0828" y="833.2787">1</text><text fill="#000000" font-family="sans-serif" font-size="13" lengthAdjust="spacing" textLength="7" x="276.1873" y="881.0395">*</text><!--MD5=[7f6cf7f175eae0af66201860de5de971]
link Company to TestStore--><path codeLine="107" d="M675.066,450.231 C688.953,468.253 704.093,487.901 717.857,505.765 " fill="none" id="Company-to-TestStore" style="stroke:#A80036;stroke-width:1.0;"/><polygon fill="#A80036" points="720.955,509.786,718.6318,500.2151,717.9038,505.8249,712.294,505.097,720.955,509.786" style="stroke:#A80036;stroke-width:1.0;"/><text fill="#000000" font-family="sans-serif" font-size="13" lengthAdjust="spacing" textLength="8" x="671.831" y="469.9961">1</text><text fill="#000000" font-family="sans-serif" font-size="13" lengthAdjust="spacing" textLength="8" x="707.2823" y="499.0944">1</text><!--MD5=[9dec42a3b1fb794d839b2c916f9b8879]
link Company to ClientList--><path codeLine="108" d="M581.471,450.011 C530.153,518.592 447.723,628.748 397.023,696.502 " fill="none" id="Company-to-ClientList" style="stroke:#A80036;stroke-width:1.0;"/><polygon fill="#A80036" points="393.73,700.902,402.3251,696.0932,396.7259,696.8989,395.9201,691.2997,393.73,700.902" style="stroke:#A80036;stroke-width:1.0;"/><text fill="#000000" font-family="sans-serif" font-size="13" lengthAdjust="spacing" textLength="8" x="567.9991" y="469.752">1</text><text fill="#000000" font-family="sans-serif" font-size="13" lengthAdjust="spacing" textLength="8" x="390.5001" y="689.8274">1</text><!--MD5=[b0f4f6db8206580012ef9cd998ed01c5]
link TestStore to Test--><path codeLine="109" d="M783.935,622.175 C790.243,639.205 797.318,658.31 804.105,676.635 " fill="none" id="TestStore-to-Test" style="stroke:#A80036;stroke-width:1.0;"/><polygon fill="#A80036" points="806.011,681.78,806.636,671.951,804.2743,677.0913,799.134,674.7297,806.011,681.78" style="stroke:#A80036;stroke-width:1.0;"/><text fill="#000000" font-family="sans-serif" font-size="13" lengthAdjust="spacing" textLength="8" x="777.938" y="642.009">1</text><text fill="#000000" font-family="sans-serif" font-size="13" lengthAdjust="spacing" textLength="7" x="796.0574" y="670.9481">*</text><!--MD5=[8aaf0efd5e2f3824be7ea3e488dcc283]
link TestType to ParameterCategory--><path codeLine="111" d="M1004.322,1055.058 C1068.75,1088.899 1150.23,1131.697 1210.6,1163.4073 " fill="none" id="TestType-to-ParameterCategory" style="stroke:#A80036;stroke-width:1.0;"/><polygon fill="#A80036" points="1215.28,1165.8627,1209.1575,1158.1481,1210.849,1163.5461,1205.451,1165.2376,1215.28,1165.8627" style="stroke:#A80036;stroke-width:1.0;"/><text fill="#000000" font-family="sans-serif" font-size="13" lengthAdjust="spacing" textLength="7" x="1010.3039" y="1075.2753">*</text><text fill="#000000" font-family="sans-serif" font-size="13" lengthAdjust="spacing" textLength="23" x="1177.6621" y="1154.8372">1..*</text><!--MD5=[6df8849671cb880f6936e94aa30db6f9]
link Parameter to ParameterCategory--><path codeLine="113" d="M1295.5,1055.194 C1295.5,1087.96 1295.5,1129.086 1295.5,1160.4159 " fill="none" id="Parameter-to-ParameterCategory" style="stroke:#A80036;stroke-width:1.0;"/><polygon fill="#A80036" points="1295.5,1165.7515,1299.5,1156.7515,1295.5,1160.7515,1291.5,1156.7515,1295.5,1165.7515" style="stroke:#A80036;stroke-width:1.0;"/><text fill="#000000" font-family="sans-serif" font-size="13" lengthAdjust="spacing" textLength="7" x="1288.0734" y="1075.0303">*</text><text fill="#000000" font-family="sans-serif" font-size="13" lengthAdjust="spacing" textLength="23" x="1270.7391" y="1155.0254">1..*</text><!--MD5=[e981d4f96c4342412d1e68160b30cf70]
link Test to TestType--><path codeLine="114" d="M853.931,832.294 C863.238,866.139 874.114,905.687 882.906,937.658 " fill="none" id="Test-to-TestType" style="stroke:#A80036;stroke-width:1.0;"/><polygon fill="#A80036" points="884.299,942.722,885.7697,932.9836,882.9734,937.9009,878.056,935.1046,884.299,942.722" style="stroke:#A80036;stroke-width:1.0;"/><text fill="#000000" font-family="sans-serif" font-size="13" lengthAdjust="spacing" textLength="8" x="847.5484" y="852.4959">1</text><text fill="#000000" font-family="sans-serif" font-size="13" lengthAdjust="spacing" textLength="8" x="873.9589" y="932.0226">1</text><!--MD5=[6dba24dc0f16d673b4663f61de2d8959]
reverse link Test to Client--><path codeLine="115" d="M678.485,809.147 C609.123,832.932 526.663,862.455 453.5,892 C447.751,894.321 441.938,896.706 436.083,899.14 " fill="none" id="Test-backto-Client" style="stroke:#A80036;stroke-width:1.0;"/><polygon fill="#A80036" points="683.456,807.445,673.6453,806.5787,678.726,809.0659,676.2388,814.1466,683.456,807.445" style="stroke:#A80036;stroke-width:1.0;"/><text fill="#000000" font-family="sans-serif" font-size="13" lengthAdjust="spacing" textLength="8" x="667.5131" y="806.7184">1</text><text fill="#000000" font-family="sans-serif" font-size="13" lengthAdjust="spacing" textLength="8" x="443.9383" y="892.3427">1</text><!--MD5=[c23963f6e403fc3ebec8dae22c30ade6]
link Test to Parameter--><path codeLine="116" d="M983.825,823.325 C1029.26,844.171 1078.91,868.067 1123.5,892 C1150.82,906.661 1179.77,923.834 1205.98,940.037 " fill="none" id="Test-to-Parameter" style="stroke:#A80036;stroke-width:1.0;"/><polygon fill="#A80036" points="1210.5,942.838,1204.9695,934.6885,1206.254,940.1976,1200.7449,941.4821,1210.5,942.838" style="stroke:#A80036;stroke-width:1.0;"/><text fill="#000000" font-family="sans-serif" font-size="13" lengthAdjust="spacing" textLength="8" x="991.3001" y="823.2339">1</text><text fill="#000000" font-family="sans-serif" font-size="13" lengthAdjust="spacing" textLength="27" x="1170.8797" y="931.7552">1...*</text><!--MD5=[8742b9b07f4ff1e96b776c10733812b1]
link Test to ParameterCategory--><path codeLine="117" d="M983.637,768.356 C1151.76,783.445 1408.62,818.164 1468.5,892 C1528.41,965.871 1515.68,1023.415 1468.5,1106 C1453.79,1131.757 1429.74,1151.66 1404.2,1166.7544 " fill="none" id="Test-to-ParameterCategory" style="stroke:#A80036;stroke-width:1.0;"/><polygon fill="#A80036" points="1399.75,1169.3261,1409.544,1168.2884,1404.0797,1166.8253,1405.5428,1161.3609,1399.75,1169.3261" style="stroke:#A80036;stroke-width:1.0;"/><text fill="#000000" font-family="sans-serif" font-size="13" lengthAdjust="spacing" textLength="8" x="991.5847" y="765.6139">1</text><text fill="#000000" font-family="sans-serif" font-size="13" lengthAdjust="spacing" textLength="27" x="1407.6613" y="1163.214">1...*</text><!--MD5=[ca29482912e344ebd5dc9db2d1c2ccab]
link Test to ClinicalAnalysisLaboratory--><path codeLine="118" d="M744.128,832.216 C721.51,851.429 697.421,872.269 675.5,892 C658.745,907.082 640.941,923.772 624.612,939.36 " fill="none" id="Test-to-ClinicalAnalysisLaboratory" style="stroke:#A80036;stroke-width:1.0;"/><polygon fill="#A80036" points="620.933,942.877,630.2024,939.5485,624.5469,939.4216,624.6738,933.7662,620.933,942.877" style="stroke:#A80036;stroke-width:1.0;"/><text fill="#000000" font-family="sans-serif" font-size="13" lengthAdjust="spacing" textLength="8" x="726.9367" y="852.4103">1</text><text fill="#000000" font-family="sans-serif" font-size="13" lengthAdjust="spacing" textLength="8" x="619.651" y="931.7992">1</text><!--MD5=[71e6920dcc27afae8f25537cd5357b5f]
link TestType to ExternalModule--><path codeLine="119" d="M899.5,1055.194 C899.5,1092.665 899.5,1141.069 899.5,1173.2528 " fill="none" id="TestType-to-ExternalModule" style="stroke:#A80036;stroke-width:1.0;"/><polygon fill="#A80036" points="899.5,1178.2747,903.5,1169.2747,899.5,1173.2747,895.5,1169.2747,899.5,1178.2747" style="stroke:#A80036;stroke-width:1.0;"/><text fill="#000000" font-family="sans-serif" font-size="13" lengthAdjust="spacing" textLength="7" x="892.0734" y="1075.0303">*</text><text fill="#000000" font-family="sans-serif" font-size="13" lengthAdjust="spacing" textLength="8" x="890.675" y="1167.4915">1</text><!--MD5=[e6b8f03ed0b0cb3ef18843b3334d7180]
@startuml
skinparam classAttributeIconSize 0

class ClinicalAnalysisLaboratory{
String name;
String adress;
long phoneNumber;
long tin;
List<TestType> testTypes;
}

class Company
{
  -String designation
  +getClientList()
  +getTestTypeStore()
  +getParameterCategoryStore()
  +getParameterStore()
  +getTestStore()
}

class Client {
-ccn: long
-NHSnumber: long
-birthDate: int
-sex: String
-tin: long
-phoneNumber: long
-email: String
-password: String
-client: User
+acessorMethods

+Client(ccn, nhsNumber, birthDate, sex, email, tin, phoneNumber, name)
+Client(ccn, nhsNumber, birthDate, email, tin, phoneNumber, name)
+...() 
}

interface ExternalModule {
+ ReferenceValue getReferenceValue(p)
}

class ClientList {
  -List <Client> clientList
  +createClient(ccn, nhsNumber, birthDate, sex, email,tin, phoneNumber, name)
  +createClient(ccn, nhsNumber, birthDate, email,tin, phoneNumber, name)
  +saveClient(client)
  +getClients()
}
class TestType{
-String code
-String description
-String collectingMethod
-List<ParameterCategory> parameterCategories
+TestType(code, description, collectingMethod, parameterCategories)
}

class Parameter {
  -String code
  -String shortname
  -String description
  -List<ParameterCategory> category
  +Parameter(code, shortname, description, category)
}

class ParameterCategory {
  -String code
  -String name
  +ParameterCategory(code, name)
}

class ImportTests {
}

class TestController {
  +createTest(nhsCode, testCode, client, tt, lcs, lps, rDate)
  +saveTest(t)
  +client()
  +getTestTypes()
  +getCategories()
  +getParameterByCode(code)
  +getCategoriesByName (name)
  +getParametersByHeader(header)
}

class Test {
   -String nhsCode;
   -String internalCode;
   -Client client;
   -TestType testType;
   -List <ParameterCategory>  parameterCategory;
   -List <Parameter> parameter;
   -Date registrationDate;
  +Test(nhsCode, testCode, client, tt, lcs, lps, rDate)
}

class TestStore {
  +Test(nhsCode, testCode, client, tt, lcs, lps, rDate)
  +saveTest(t)
  +addTest(t)
  +validateTest(t)
  +getTests()
}

ImportTests ..> TestController
TestController ..> Company
ClientList "1" - -> "*" Client
Company "1" - -> "1" TestStore
Company "1" - -> "1" ClientList
TestStore"1" - -> "*" Test

TestType "*" - -> "1..*" ParameterCategory

Parameter "*" - -> "1..*" ParameterCategory
Test "1" - -> "1" TestType
Test "1" <- - "1" Client
Test "1" - -> "1...*" Parameter
Test "1" - -> "1...*" ParameterCategory
Test "1" - -> "1" ClinicalAnalysisLaboratory
TestType "*" - -> "1" ExternalModule
@enduml

PlantUML version 1.2021.7(Sun May 23 12:40:07 UTC 2021)
(GPL source distribution)
Java Runtime: Java(TM) SE Runtime Environment
JVM: Java HotSpot(TM) 64-Bit Server VM
Default Encoding: UTF-8
Language: en
Country: US
--></g></svg>