<?xml version="1.0" encoding="UTF-8" standalone="no"?><svg xmlns="http://www.w3.org/2000/svg" xmlns:xlink="http://www.w3.org/1999/xlink" contentScriptType="application/ecmascript" contentStyleType="text/css" height="777px" preserveAspectRatio="none" style="width:1591px;height:777px;background:#FFFFFF;" version="1.1" viewBox="0 0 1591 777" width="1591px" zoomAndPan="magnify"><defs><filter height="300%" id="f10jf7e5pilm6o" width="300%" x="-1" y="-1"><feGaussianBlur result="blurOut" stdDeviation="2.0"/><feColorMatrix in="blurOut" result="blurOut2" type="matrix" values="0 0 0 0 0 0 0 0 0 0 0 0 0 0 0 0 0 0 .4 0"/><feOffset dx="4.0" dy="4.0" in="blurOut2" result="blurOut3"/><feBlend in="SourceGraphic" in2="blurOut3" mode="normal"/></filter></defs><g><rect fill="#FFFFFF" filter="url(#f10jf7e5pilm6o)" height="576.4531" style="stroke:#A80036;stroke-width:1.0;" width="10" x="53" y="98.2969"/><rect fill="#FFFFFF" filter="url(#f10jf7e5pilm6o)" height="221.125" style="stroke:#A80036;stroke-width:1.0;" width="10" x="347" y="192.8281"/><rect fill="#FFFFFF" filter="url(#f10jf7e5pilm6o)" height="231.6641" style="stroke:#A80036;stroke-width:1.0;" width="10" x="347" y="443.0859"/><rect fill="#FFFFFF" filter="url(#f10jf7e5pilm6o)" height="130.3984" style="stroke:#A80036;stroke-width:1.0;" width="10" x="753" y="221.9609"/><rect fill="#FFFFFF" filter="url(#f10jf7e5pilm6o)" height="166.3984" style="stroke:#A80036;stroke-width:1.0;" width="10" x="753" y="472.2188"/><rect fill="#FFFFFF" filter="url(#f10jf7e5pilm6o)" height="101.2656" style="stroke:#A80036;stroke-width:1.0;" width="10" x="923" y="221.9609"/><rect fill="#FFFFFF" filter="url(#f10jf7e5pilm6o)" height="28" style="stroke:#A80036;stroke-width:1.0;" width="10" x="928" y="259.0938"/><rect fill="#FFFFFF" filter="url(#f10jf7e5pilm6o)" height="29.1328" style="stroke:#A80036;stroke-width:1.0;" width="10" x="1119" y="323.2266"/><rect fill="#FFFFFF" filter="url(#f10jf7e5pilm6o)" height="137.2656" style="stroke:#A80036;stroke-width:1.0;" width="10" x="1119" y="501.3516"/><rect fill="#FFFFFF" filter="url(#f10jf7e5pilm6o)" height="28" style="stroke:#A80036;stroke-width:1.0;" width="10" x="1124" y="538.4844"/><rect fill="#FFFFFF" filter="url(#f10jf7e5pilm6o)" height="28" style="stroke:#A80036;stroke-width:1.0;" width="10" x="1124" y="610.6172"/><line style="stroke:#A80036;stroke-width:1.0;stroke-dasharray:5.0,5.0;" x1="58" x2="58" y1="88.2969" y2="692.75"/><line style="stroke:#A80036;stroke-width:1.0;stroke-dasharray:5.0,5.0;" x1="351.5" x2="351.5" y1="88.2969" y2="692.75"/><line style="stroke:#A80036;stroke-width:1.0;stroke-dasharray:5.0,5.0;" x1="757.5" x2="757.5" y1="88.2969" y2="692.75"/><line style="stroke:#A80036;stroke-width:1.0;stroke-dasharray:5.0,5.0;" x1="927.5" x2="927.5" y1="88.2969" y2="692.75"/><line style="stroke:#A80036;stroke-width:1.0;stroke-dasharray:5.0,5.0;" x1="1123.5" x2="1123.5" y1="88.2969" y2="692.75"/><line style="stroke:#A80036;stroke-width:1.0;stroke-dasharray:5.0,5.0;" x1="1323.5" x2="1323.5" y1="88.2969" y2="692.75"/><line style="stroke:#A80036;stroke-width:1.0;stroke-dasharray:5.0,5.0;" x1="1444.5" x2="1444.5" y1="372.0234" y2="692.75"/><line style="stroke:#A80036;stroke-width:1.0;stroke-dasharray:5.0,5.0;" x1="1541.5" x2="1541.5" y1="88.2969" y2="692.75"/><text fill="#000000" font-family="sans-serif" font-size="14" lengthAdjust="spacing" textLength="100" x="5" y="84.9951">Administrator</text><ellipse cx="58" cy="15" fill="#FEFECE" filter="url(#f10jf7e5pilm6o)" rx="8" ry="8" style="stroke:#A80036;stroke-width:2.0;"/><path d="M58,23 L58,50 M45,31 L71,31 M58,50 L45,65 M58,50 L71,65 " fill="none" filter="url(#f10jf7e5pilm6o)" style="stroke:#A80036;stroke-width:2.0;"/><text fill="#000000" font-family="sans-serif" font-size="14" lengthAdjust="spacing" textLength="100" x="5" y="704.7451">Administrator</text><ellipse cx="58" cy="718.0469" fill="#FEFECE" filter="url(#f10jf7e5pilm6o)" rx="8" ry="8" style="stroke:#A80036;stroke-width:2.0;"/><path d="M58,726.0469 L58,753.0469 M45,734.0469 L71,734.0469 M58,753.0469 L45,768.0469 M58,753.0469 L71,768.0469 " fill="none" filter="url(#f10jf7e5pilm6o)" style="stroke:#A80036;stroke-width:2.0;"/><rect fill="#FEFECE" filter="url(#f10jf7e5pilm6o)" height="30.2969" style="stroke:#A80036;stroke-width:1.5;" width="165" x="267.5" y="53"/><text fill="#000000" font-family="sans-serif" font-size="14" lengthAdjust="spacing" textLength="151" x="274.5" y="72.9951">:RegisterEmployeeUI</text><rect fill="#FEFECE" filter="url(#f10jf7e5pilm6o)" height="30.2969" style="stroke:#A80036;stroke-width:1.5;" width="165" x="267.5" y="691.75"/><text fill="#000000" font-family="sans-serif" font-size="14" lengthAdjust="spacing" textLength="151" x="274.5" y="711.7451">:RegisterEmployeeUI</text><rect fill="#FEFECE" filter="url(#f10jf7e5pilm6o)" height="30.2969" style="stroke:#A80036;stroke-width:1.5;" width="225" x="643.5" y="53"/><text fill="#000000" font-family="sans-serif" font-size="14" lengthAdjust="spacing" textLength="211" x="650.5" y="72.9951">:RegisterEmployeeController</text><rect fill="#FEFECE" filter="url(#f10jf7e5pilm6o)" height="30.2969" style="stroke:#A80036;stroke-width:1.5;" width="225" x="643.5" y="691.75"/><text fill="#000000" font-family="sans-serif" font-size="14" lengthAdjust="spacing" textLength="211" x="650.5" y="711.7451">:RegisterEmployeeController</text><rect fill="#FEFECE" filter="url(#f10jf7e5pilm6o)" height="30.2969" style="stroke:#A80036;stroke-width:1.5;" width="87" x="882.5" y="53"/><text fill="#000000" font-family="sans-serif" font-size="14" lengthAdjust="spacing" textLength="73" x="889.5" y="72.9951">:Company</text><rect fill="#FEFECE" filter="url(#f10jf7e5pilm6o)" height="30.2969" style="stroke:#A80036;stroke-width:1.5;" width="87" x="882.5" y="691.75"/><text fill="#000000" font-family="sans-serif" font-size="14" lengthAdjust="spacing" textLength="73" x="889.5" y="711.7451">:Company</text><rect fill="#FEFECE" filter="url(#f10jf7e5pilm6o)" height="46.5938" style="stroke:#A80036;stroke-width:1.5;" width="139" x="1052.5" y="36.7031"/><text fill="#000000" font-family="sans-serif" font-size="14" lengthAdjust="spacing" textLength="83" x="1080.5" y="56.6982">lEmployees</text><text fill="#000000" font-family="sans-serif" font-size="14" lengthAdjust="spacing" textLength="125" x="1059.5" y="72.9951">:List&lt;Employee&gt;</text><rect fill="#FEFECE" filter="url(#f10jf7e5pilm6o)" height="46.5938" style="stroke:#A80036;stroke-width:1.5;" width="139" x="1052.5" y="691.75"/><text fill="#000000" font-family="sans-serif" font-size="14" lengthAdjust="spacing" textLength="83" x="1080.5" y="711.7451">lEmployees</text><text fill="#000000" font-family="sans-serif" font-size="14" lengthAdjust="spacing" textLength="125" x="1059.5" y="728.042">:List&lt;Employee&gt;</text><rect fill="#FEFECE" filter="url(#f10jf7e5pilm6o)" height="46.5938" style="stroke:#A80036;stroke-width:1.5;" width="123" x="1260.5" y="36.7031"/><text fill="#000000" font-family="sans-serif" font-size="14" lengthAdjust="spacing" textLength="43" x="1300.5" y="56.6982">lRoles</text><text fill="#000000" font-family="sans-serif" font-size="14" lengthAdjust="spacing" textLength="109" x="1267.5" y="72.9951">:List&lt;orgRole&gt;</text><rect fill="#FEFECE" filter="url(#f10jf7e5pilm6o)" height="46.5938" style="stroke:#A80036;stroke-width:1.5;" width="123" x="1260.5" y="691.75"/><text fill="#000000" font-family="sans-serif" font-size="14" lengthAdjust="spacing" textLength="43" x="1300.5" y="711.7451">lRoles</text><text fill="#000000" font-family="sans-serif" font-size="14" lengthAdjust="spacing" textLength="109" x="1267.5" y="728.042">:List&lt;orgRole&gt;</text><rect fill="#FEFECE" filter="url(#f10jf7e5pilm6o)" height="46.5938" style="stroke:#A80036;stroke-width:1.5;" width="91" x="1397.5" y="691.75"/><text fill="#000000" font-family="sans-serif" font-size="14" lengthAdjust="spacing" textLength="33" x="1426.5" y="711.7451">emp</text><text fill="#000000" font-family="sans-serif" font-size="14" lengthAdjust="spacing" textLength="77" x="1404.5" y="728.042">:Employee</text><rect fill="#FEFECE" filter="url(#f10jf7e5pilm6o)" height="46.5938" style="stroke:#A80036;stroke-width:1.5;" width="75" x="1502.5" y="36.7031"/><text fill="#000000" font-family="sans-serif" font-size="14" lengthAdjust="spacing" textLength="28" x="1526" y="56.6982">role</text><text fill="#000000" font-family="sans-serif" font-size="14" lengthAdjust="spacing" textLength="61" x="1509.5" y="72.9951">:orgRole</text><rect fill="#FEFECE" filter="url(#f10jf7e5pilm6o)" height="46.5938" style="stroke:#A80036;stroke-width:1.5;" width="75" x="1502.5" y="691.75"/><text fill="#000000" font-family="sans-serif" font-size="14" lengthAdjust="spacing" textLength="28" x="1526" y="711.7451">role</text><text fill="#000000" font-family="sans-serif" font-size="14" lengthAdjust="spacing" textLength="61" x="1509.5" y="728.042">:orgRole</text><rect fill="#FFFFFF" filter="url(#f10jf7e5pilm6o)" height="576.4531" style="stroke:#A80036;stroke-width:1.0;" width="10" x="53" y="98.2969"/><rect fill="#FFFFFF" filter="url(#f10jf7e5pilm6o)" height="221.125" style="stroke:#A80036;stroke-width:1.0;" width="10" x="347" y="192.8281"/><rect fill="#FFFFFF" filter="url(#f10jf7e5pilm6o)" height="231.6641" style="stroke:#A80036;stroke-width:1.0;" width="10" x="347" y="443.0859"/><rect fill="#FFFFFF" filter="url(#f10jf7e5pilm6o)" height="130.3984" style="stroke:#A80036;stroke-width:1.0;" width="10" x="753" y="221.9609"/><rect fill="#FFFFFF" filter="url(#f10jf7e5pilm6o)" height="166.3984" style="stroke:#A80036;stroke-width:1.0;" width="10" x="753" y="472.2188"/><rect fill="#FFFFFF" filter="url(#f10jf7e5pilm6o)" height="101.2656" style="stroke:#A80036;stroke-width:1.0;" width="10" x="923" y="221.9609"/><rect fill="#FFFFFF" filter="url(#f10jf7e5pilm6o)" height="28" style="stroke:#A80036;stroke-width:1.0;" width="10" x="928" y="259.0938"/><rect fill="#FFFFFF" filter="url(#f10jf7e5pilm6o)" height="29.1328" style="stroke:#A80036;stroke-width:1.0;" width="10" x="1119" y="323.2266"/><rect fill="#FFFFFF" filter="url(#f10jf7e5pilm6o)" height="137.2656" style="stroke:#A80036;stroke-width:1.0;" width="10" x="1119" y="501.3516"/><rect fill="#FFFFFF" filter="url(#f10jf7e5pilm6o)" height="28" style="stroke:#A80036;stroke-width:1.0;" width="10" x="1124" y="538.4844"/><rect fill="#FFFFFF" filter="url(#f10jf7e5pilm6o)" height="28" style="stroke:#A80036;stroke-width:1.0;" width="10" x="1124" y="610.6172"/><polygon fill="#A80036" points="340,115.4297,350,119.4297,340,123.4297,344,119.4297" style="stroke:#A80036;stroke-width:1.0;"/><line style="stroke:#A80036;stroke-width:1.0;" x1="63" x2="346" y1="119.4297" y2="119.4297"/><text fill="#000000" font-family="sans-serif" font-size="13" font-weight="bold" lengthAdjust="spacing" textLength="9" x="70" y="114.3638">1</text><text fill="#000000" font-family="sans-serif" font-size="13" lengthAdjust="spacing" textLength="220" x="83" y="114.3638">starts registering a new Employee</text><polygon fill="#A80036" points="74,159.6953,64,163.6953,74,167.6953,70,163.6953" style="stroke:#A80036;stroke-width:1.0;"/><line style="stroke:#A80036;stroke-width:1.0;stroke-dasharray:2.0,2.0;" x1="68" x2="351" y1="163.6953" y2="163.6953"/><text fill="#000000" font-family="sans-serif" font-size="13" font-weight="bold" lengthAdjust="spacing" textLength="9" x="80" y="151.063">2</text><text fill="#000000" font-family="sans-serif" font-size="13" lengthAdjust="spacing" textLength="252" x="93" y="143.4966">requests necessary data(name,adress,</text><text fill="#000000" font-family="sans-serif" font-size="13" lengthAdjust="spacing" textLength="178" x="93" y="158.6294">phoneNumber,email,SOC...)</text><polygon fill="#A80036" points="335,188.8281,345,192.8281,335,196.8281,339,192.8281" style="stroke:#A80036;stroke-width:1.0;"/><line style="stroke:#A80036;stroke-width:1.0;" x1="63" x2="341" y1="192.8281" y2="192.8281"/><text fill="#000000" font-family="sans-serif" font-size="13" font-weight="bold" lengthAdjust="spacing" textLength="8" x="70" y="187.7622">3</text><text fill="#000000" font-family="sans-serif" font-size="13" lengthAdjust="spacing" textLength="164" x="82" y="187.7622">types the necessary data</text><polygon fill="#A80036" points="741,217.9609,751,221.9609,741,225.9609,745,221.9609" style="stroke:#A80036;stroke-width:1.0;"/><line style="stroke:#A80036;stroke-width:1.0;" x1="357" x2="747" y1="221.9609" y2="221.9609"/><text fill="#000000" font-family="sans-serif" font-size="13" font-weight="bold" lengthAdjust="spacing" textLength="9" x="364" y="216.895">4</text><text fill="#000000" font-family="sans-serif" font-size="13" lengthAdjust="spacing" textLength="364" x="377" y="216.895">createEmployee(name,adress,phoneNumber,email,SOC)</text><line style="stroke:#A80036;stroke-width:1.0;" x1="938" x2="980" y1="251.0938" y2="251.0938"/><line style="stroke:#A80036;stroke-width:1.0;" x1="980" x2="980" y1="251.0938" y2="264.0938"/><line style="stroke:#A80036;stroke-width:1.0;" x1="939" x2="980" y1="264.0938" y2="264.0938"/><polygon fill="#A80036" points="949,260.0938,939,264.0938,949,268.0938,945,264.0938" style="stroke:#A80036;stroke-width:1.0;"/><text fill="#000000" font-family="sans-serif" font-size="13" font-weight="bold" lengthAdjust="spacing" textLength="9" x="945" y="246.0278">5</text><text fill="#000000" font-family="sans-serif" font-size="13" lengthAdjust="spacing" textLength="159" x="958" y="246.0278">role=getRoleByID(roleID)</text><polygon fill="#A80036" points="1107,319.2266,1117,323.2266,1107,327.2266,1111,323.2266" style="stroke:#A80036;stroke-width:1.0;"/><line style="stroke:#A80036;stroke-width:1.0;" x1="763" x2="1113" y1="323.2266" y2="323.2266"/><text fill="#000000" font-family="sans-serif" font-size="13" font-weight="bold" lengthAdjust="spacing" textLength="9" x="770" y="318.1606">6</text><text fill="#000000" font-family="sans-serif" font-size="13" lengthAdjust="spacing" textLength="186" x="783" y="318.1606">emp =create(role,id,name...)</text><polygon fill="#A80036" points="1385.5,348.3594,1395.5,352.3594,1385.5,356.3594,1389.5,352.3594" style="stroke:#A80036;stroke-width:1.0;"/><line style="stroke:#A80036;stroke-width:1.0;" x1="1124" x2="1391.5" y1="352.3594" y2="352.3594"/><text fill="#000000" font-family="sans-serif" font-size="13" font-weight="bold" lengthAdjust="spacing" textLength="9" x="1131" y="347.2935">7</text><text fill="#000000" font-family="sans-serif" font-size="13" lengthAdjust="spacing" textLength="143" x="1144" y="347.2935">create(role,id,name...)</text><rect fill="#FEFECE" filter="url(#f10jf7e5pilm6o)" height="46.5938" style="stroke:#A80036;stroke-width:1.5;" width="91" x="1397.5" y="331.2266"/><text fill="#000000" font-family="sans-serif" font-size="14" lengthAdjust="spacing" textLength="33" x="1426.5" y="351.2217">emp</text><text fill="#000000" font-family="sans-serif" font-size="14" lengthAdjust="spacing" textLength="77" x="1404.5" y="367.5186">:Employee</text><polygon fill="#A80036" points="74,409.9531,64,413.9531,74,417.9531,70,413.9531" style="stroke:#A80036;stroke-width:1.0;"/><line style="stroke:#A80036;stroke-width:1.0;stroke-dasharray:2.0,2.0;" x1="68" x2="351" y1="413.9531" y2="413.9531"/><text fill="#000000" font-family="sans-serif" font-size="13" font-weight="bold" lengthAdjust="spacing" textLength="9" x="80" y="408.8872">8</text><text fill="#000000" font-family="sans-serif" font-size="13" lengthAdjust="spacing" textLength="247" x="93" y="408.8872">shows data and requests confirmation</text><polygon fill="#A80036" points="335,439.0859,345,443.0859,335,447.0859,339,443.0859" style="stroke:#A80036;stroke-width:1.0;"/><line style="stroke:#A80036;stroke-width:1.0;" x1="63" x2="341" y1="443.0859" y2="443.0859"/><text fill="#000000" font-family="sans-serif" font-size="13" font-weight="bold" lengthAdjust="spacing" textLength="9" x="70" y="438.02">9</text><text fill="#000000" font-family="sans-serif" font-size="13" lengthAdjust="spacing" textLength="114" x="83" y="438.02">confirms the data</text><polygon fill="#A80036" points="741,468.2188,751,472.2188,741,476.2188,745,472.2188" style="stroke:#A80036;stroke-width:1.0;"/><line style="stroke:#A80036;stroke-width:1.0;" x1="357" x2="747" y1="472.2188" y2="472.2188"/><text fill="#000000" font-family="sans-serif" font-size="13" font-weight="bold" lengthAdjust="spacing" textLength="19" x="364" y="467.1528">10</text><text fill="#000000" font-family="sans-serif" font-size="13" lengthAdjust="spacing" textLength="105" x="387" y="467.1528">saveEmployee()</text><polygon fill="#A80036" points="1107,497.3516,1117,501.3516,1107,505.3516,1111,501.3516" style="stroke:#A80036;stroke-width:1.0;"/><line style="stroke:#A80036;stroke-width:1.0;" x1="763" x2="1113" y1="501.3516" y2="501.3516"/><text fill="#000000" font-family="sans-serif" font-size="13" font-weight="bold" lengthAdjust="spacing" textLength="18" x="770" y="496.2856">11</text><text fill="#000000" font-family="sans-serif" font-size="13" lengthAdjust="spacing" textLength="134" x="792" y="496.2856">saveEmployee(emp)</text><line style="stroke:#A80036;stroke-width:1.0;" x1="1134" x2="1176" y1="530.4844" y2="530.4844"/><line style="stroke:#A80036;stroke-width:1.0;" x1="1176" x2="1176" y1="530.4844" y2="543.4844"/><line style="stroke:#A80036;stroke-width:1.0;" x1="1135" x2="1176" y1="543.4844" y2="543.4844"/><polygon fill="#A80036" points="1145,539.4844,1135,543.4844,1145,547.4844,1141,543.4844" style="stroke:#A80036;stroke-width:1.0;"/><text fill="#000000" font-family="sans-serif" font-size="13" font-weight="bold" lengthAdjust="spacing" textLength="18" x="1141" y="525.4185">12</text><text fill="#000000" font-family="sans-serif" font-size="13" lengthAdjust="spacing" textLength="154" x="1163" y="525.4185">validateEmployee(emp)</text><line style="stroke:#A80036;stroke-width:1.0;" x1="1134" x2="1176" y1="602.6172" y2="602.6172"/><line style="stroke:#A80036;stroke-width:1.0;" x1="1176" x2="1176" y1="602.6172" y2="615.6172"/><line style="stroke:#A80036;stroke-width:1.0;" x1="1135" x2="1176" y1="615.6172" y2="615.6172"/><polygon fill="#A80036" points="1145,611.6172,1135,615.6172,1145,619.6172,1141,615.6172" style="stroke:#A80036;stroke-width:1.0;"/><text fill="#000000" font-family="sans-serif" font-size="13" font-weight="bold" lengthAdjust="spacing" textLength="17" x="1141" y="597.5513">13</text><text fill="#000000" font-family="sans-serif" font-size="13" lengthAdjust="spacing" textLength="134" x="1162" y="597.5513">saveEmployee(emp)</text><polygon fill="#A80036" points="69,670.75,59,674.75,69,678.75,65,674.75" style="stroke:#A80036;stroke-width:1.0;"/><line style="stroke:#A80036;stroke-width:1.0;stroke-dasharray:2.0,2.0;" x1="63" x2="351" y1="674.75" y2="674.75"/><text fill="#000000" font-family="sans-serif" font-size="13" font-weight="bold" lengthAdjust="spacing" textLength="18" x="75" y="669.6841">14</text><text fill="#000000" font-family="sans-serif" font-size="13" lengthAdjust="spacing" textLength="170" x="97" y="669.6841">informs operation Success</text><!--MD5=[8ecea894d97cbf4809c15167c9c73d81]
@startuml
autonumber
actor "Administrator" as ADM

participant ":RegisterEmployeeUI" as UI
participant ":RegisterEmployeeController" as CTRL
participant ":Company" as COMP
participant "lEmployees\n:List<Employee>" as LIST_EMP
participant "lRoles\n:List<orgRole>" as LIST_ROLE


participant "emp\n:Employee" as EMP
participant "role\n:orgRole" as ROLE

activate ADM
ADM -> UI : starts registering a new Employee

UI - -> ADM : requests necessary data(name,adress,\nphoneNumber,email,SOC...)
deactivate UI

ADM -> UI : types the necessary data
activate UI
UI -> CTRL: createEmployee(name,adress,phoneNumber,email,SOC)
activate CTRL

activate COMP


COMP -> COMP:role=getRoleByID(roleID)
activate COMP
deactivate COMP
CTRL -> LIST_EMP  : emp =create(role,id,name...)
deactivate COMP





activate LIST_EMP
LIST_EMP -> EMP** : create(role,id,name...)
deactivate LIST_EMP

deactivate CTRL
UI - -> ADM : shows data and requests confirmation
deactivate UI
ADM -> UI : confirms the data
activate UI
UI -> CTRL: saveEmployee()
activate CTRL
CTRL -> LIST_EMP :saveEmployee(emp)
activate LIST_EMP
LIST_EMP -> LIST_EMP: validateEmployee(emp)
activate LIST_EMP
deactivate LIST_EMP
LIST_EMP -> LIST_EMP: saveEmployee(emp)
activate LIST_EMP
deactivate LIST_EMP
deactivate LIST_EMP
deactivate CTRL
UI - -> ADM: informs operation Success
deactivate UI
deactivate ADM



deactivate ADM
@enduml

PlantUML version 1.2021.6beta6(Unknown compile time)
(GPL source distribution)
Java Runtime: Java(TM) SE Runtime Environment
JVM: Java HotSpot(TM) 64-Bit Server VM
Default Encoding: UTF-8
Language: en
Country: US
--></g></svg>