<?xml version="1.0" encoding="UTF-8" standalone="no"?><svg xmlns="http://www.w3.org/2000/svg" xmlns:xlink="http://www.w3.org/1999/xlink" contentScriptType="application/ecmascript" contentStyleType="text/css" height="1018px" preserveAspectRatio="none" style="width:891px;height:1018px;" version="1.1" viewBox="0 0 891 1018" width="891px" zoomAndPan="magnify"><defs><filter height="300%" id="fwuepelmkiv2y" width="300%" x="-1" y="-1"><feGaussianBlur result="blurOut" stdDeviation="2.0"/><feColorMatrix in="blurOut" result="blurOut2" type="matrix" values="0 0 0 0 0 0 0 0 0 0 0 0 0 0 0 0 0 0 .4 0"/><feOffset dx="4.0" dy="4.0" in="blurOut2" result="blurOut3"/><feBlend in="SourceGraphic" in2="blurOut3" mode="normal"/></filter></defs><g><!--MD5=[2b8367ee8a196632b51868e08daef08d]
class Auth--><rect codeLine="3" fill="#FEFECE" filter="url(#fwuepelmkiv2y)" height="73.6094" id="Auth" style="stroke:#A80036;stroke-width:1.5;" width="135" x="7" y="295"/><ellipse cx="57.25" cy="311" fill="#ADD1B2" rx="11" ry="11" style="stroke:#A80036;stroke-width:1.0;"/><path d="M59.5938,306.6719 C58.6563,306.2344 58.0625,306.0938 57.1875,306.0938 C54.5625,306.0938 52.5625,308.1719 52.5625,310.8906 L52.5625,312.0156 C52.5625,314.5938 54.6719,316.4844 57.5625,316.4844 C58.7813,316.4844 59.9375,316.1875 60.6875,315.6406 C61.2656,315.2344 61.5938,314.7813 61.5938,314.3906 C61.5938,313.9375 61.2031,313.5469 60.7344,313.5469 C60.5156,313.5469 60.3125,313.625 60.125,313.8125 C59.6719,314.2969 59.6719,314.2969 59.4844,314.3906 C59.0625,314.6563 58.375,314.7813 57.6094,314.7813 C55.5625,314.7813 54.2656,313.6875 54.2656,311.9844 L54.2656,310.8906 C54.2656,309.1094 55.5156,307.7969 57.25,307.7969 C57.8281,307.7969 58.4375,307.9531 58.9063,308.2031 C59.3906,308.4844 59.5625,308.7031 59.6563,309.1094 C59.7188,309.5156 59.75,309.6406 59.8906,309.7656 C60.0313,309.9063 60.2656,310.0156 60.4844,310.0156 C60.75,310.0156 61.0156,309.875 61.1875,309.6563 C61.2969,309.5 61.3281,309.3125 61.3281,308.8906 L61.3281,307.4688 C61.3281,307.0313 61.3125,306.9063 61.2188,306.75 C61.0625,306.4844 60.7813,306.3438 60.4844,306.3438 C60.1875,306.3438 59.9844,306.4375 59.7656,306.75 L59.5938,306.6719 Z " fill="#000000"/><text fill="#000000" font-family="sans-serif" font-size="12" lengthAdjust="spacing" textLength="26" x="77.75" y="315.1543">Auth</text><line style="stroke:#A80036;stroke-width:1.5;" x1="8" x2="141" y1="327" y2="327"/><line style="stroke:#A80036;stroke-width:1.5;" x1="8" x2="141" y1="335" y2="335"/><text fill="#000000" font-family="sans-serif" font-size="11" lengthAdjust="spacing" textLength="118" x="13" y="349.2104">+static getInstance()</text><text fill="#000000" font-family="sans-serif" font-size="11" lengthAdjust="spacing" textLength="123" x="13" y="362.0151">+getCurrentSession()</text><!--MD5=[c5b08e60048ef1bcd788d24cf324082e]
class UserSession--><rect codeLine="9" fill="#FEFECE" filter="url(#fwuepelmkiv2y)" height="60.8047" id="UserSession" style="stroke:#A80036;stroke-width:1.5;" width="109" x="177" y="301.5"/><ellipse cx="192" cy="317.5" fill="#ADD1B2" rx="11" ry="11" style="stroke:#A80036;stroke-width:1.0;"/><path d="M194.3438,313.1719 C193.4063,312.7344 192.8125,312.5938 191.9375,312.5938 C189.3125,312.5938 187.3125,314.6719 187.3125,317.3906 L187.3125,318.5156 C187.3125,321.0938 189.4219,322.9844 192.3125,322.9844 C193.5313,322.9844 194.6875,322.6875 195.4375,322.1406 C196.0156,321.7344 196.3438,321.2813 196.3438,320.8906 C196.3438,320.4375 195.9531,320.0469 195.4844,320.0469 C195.2656,320.0469 195.0625,320.125 194.875,320.3125 C194.4219,320.7969 194.4219,320.7969 194.2344,320.8906 C193.8125,321.1563 193.125,321.2813 192.3594,321.2813 C190.3125,321.2813 189.0156,320.1875 189.0156,318.4844 L189.0156,317.3906 C189.0156,315.6094 190.2656,314.2969 192,314.2969 C192.5781,314.2969 193.1875,314.4531 193.6563,314.7031 C194.1406,314.9844 194.3125,315.2031 194.4063,315.6094 C194.4688,316.0156 194.5,316.1406 194.6406,316.2656 C194.7813,316.4063 195.0156,316.5156 195.2344,316.5156 C195.5,316.5156 195.7656,316.375 195.9375,316.1563 C196.0469,316 196.0781,315.8125 196.0781,315.3906 L196.0781,313.9688 C196.0781,313.5313 196.0625,313.4063 195.9688,313.25 C195.8125,312.9844 195.5313,312.8438 195.2344,312.8438 C194.9375,312.8438 194.7344,312.9375 194.5156,313.25 L194.3438,313.1719 Z " fill="#000000"/><text fill="#000000" font-family="sans-serif" font-size="12" lengthAdjust="spacing" textLength="77" x="206" y="321.6543">UserSession</text><line style="stroke:#A80036;stroke-width:1.5;" x1="178" x2="285" y1="333.5" y2="333.5"/><line style="stroke:#A80036;stroke-width:1.5;" x1="178" x2="285" y1="341.5" y2="341.5"/><text fill="#000000" font-family="sans-serif" font-size="11" lengthAdjust="spacing" textLength="93" x="183" y="355.7104">+getUserEmail()</text><!--MD5=[7421f545a0d8420c5bec41e74b387d9c]
class Employee--><rect codeLine="14" fill="#FEFECE" filter="url(#fwuepelmkiv2y)" height="137.6328" id="Employee" style="stroke:#A80036;stroke-width:1.5;" width="334" x="203.5" y="509"/><ellipse cx="336.25" cy="525" fill="#ADD1B2" rx="11" ry="11" style="stroke:#A80036;stroke-width:1.0;"/><path d="M338.5938,520.6719 C337.6563,520.2344 337.0625,520.0938 336.1875,520.0938 C333.5625,520.0938 331.5625,522.1719 331.5625,524.8906 L331.5625,526.0156 C331.5625,528.5938 333.6719,530.4844 336.5625,530.4844 C337.7813,530.4844 338.9375,530.1875 339.6875,529.6406 C340.2656,529.2344 340.5938,528.7813 340.5938,528.3906 C340.5938,527.9375 340.2031,527.5469 339.7344,527.5469 C339.5156,527.5469 339.3125,527.625 339.125,527.8125 C338.6719,528.2969 338.6719,528.2969 338.4844,528.3906 C338.0625,528.6563 337.375,528.7813 336.6094,528.7813 C334.5625,528.7813 333.2656,527.6875 333.2656,525.9844 L333.2656,524.8906 C333.2656,523.1094 334.5156,521.7969 336.25,521.7969 C336.8281,521.7969 337.4375,521.9531 337.9063,522.2031 C338.3906,522.4844 338.5625,522.7031 338.6563,523.1094 C338.7188,523.5156 338.75,523.6406 338.8906,523.7656 C339.0313,523.9063 339.2656,524.0156 339.4844,524.0156 C339.75,524.0156 340.0156,523.875 340.1875,523.6563 C340.2969,523.5 340.3281,523.3125 340.3281,522.8906 L340.3281,521.4688 C340.3281,521.0313 340.3125,520.9063 340.2188,520.75 C340.0625,520.4844 339.7813,520.3438 339.4844,520.3438 C339.1875,520.3438 338.9844,520.4375 338.7656,520.75 L338.5938,520.6719 Z " fill="#000000"/><text fill="#000000" font-family="sans-serif" font-size="12" lengthAdjust="spacing" textLength="60" x="356.75" y="529.1543">Employee</text><line style="stroke:#A80036;stroke-width:1.5;" x1="204.5" x2="536.5" y1="541" y2="541"/><text fill="#000000" font-family="sans-serif" font-size="11" lengthAdjust="spacing" textLength="53" x="209.5" y="555.2104">-String ID</text><text fill="#000000" font-family="sans-serif" font-size="11" lengthAdjust="spacing" textLength="74" x="209.5" y="568.0151">-String name</text><text fill="#000000" font-family="sans-serif" font-size="11" lengthAdjust="spacing" textLength="79" x="209.5" y="580.8198">-String adress</text><text fill="#000000" font-family="sans-serif" font-size="11" lengthAdjust="spacing" textLength="72" x="209.5" y="593.6245">-String Email</text><text fill="#000000" font-family="sans-serif" font-size="11" lengthAdjust="spacing" textLength="103" x="209.5" y="606.4292">-int phoneNumber</text><text fill="#000000" font-family="sans-serif" font-size="11" lengthAdjust="spacing" textLength="73" x="209.5" y="619.2339">-int SocCode</text><line style="stroke:#A80036;stroke-width:1.5;" x1="204.5" x2="536.5" y1="625.8281" y2="625.8281"/><text fill="#000000" font-family="sans-serif" font-size="11" lengthAdjust="spacing" textLength="322" x="209.5" y="640.0386">+Employee(name,adress,phoneNumber,email,SocCode)</text><!--MD5=[02e4b9b7573f1156f41e60aa5b4e25a4]
class Company--><rect codeLine="25" fill="#FEFECE" filter="url(#fwuepelmkiv2y)" height="137.6328" id="Company" style="stroke:#A80036;stroke-width:1.5;" width="414" x="321.5" y="263"/><ellipse cx="496.25" cy="279" fill="#ADD1B2" rx="11" ry="11" style="stroke:#A80036;stroke-width:1.0;"/><path d="M498.5938,274.6719 C497.6563,274.2344 497.0625,274.0938 496.1875,274.0938 C493.5625,274.0938 491.5625,276.1719 491.5625,278.8906 L491.5625,280.0156 C491.5625,282.5938 493.6719,284.4844 496.5625,284.4844 C497.7813,284.4844 498.9375,284.1875 499.6875,283.6406 C500.2656,283.2344 500.5938,282.7813 500.5938,282.3906 C500.5938,281.9375 500.2031,281.5469 499.7344,281.5469 C499.5156,281.5469 499.3125,281.625 499.125,281.8125 C498.6719,282.2969 498.6719,282.2969 498.4844,282.3906 C498.0625,282.6563 497.375,282.7813 496.6094,282.7813 C494.5625,282.7813 493.2656,281.6875 493.2656,279.9844 L493.2656,278.8906 C493.2656,277.1094 494.5156,275.7969 496.25,275.7969 C496.8281,275.7969 497.4375,275.9531 497.9063,276.2031 C498.3906,276.4844 498.5625,276.7031 498.6563,277.1094 C498.7188,277.5156 498.75,277.6406 498.8906,277.7656 C499.0313,277.9063 499.2656,278.0156 499.4844,278.0156 C499.75,278.0156 500.0156,277.875 500.1875,277.6563 C500.2969,277.5 500.3281,277.3125 500.3281,276.8906 L500.3281,275.4688 C500.3281,275.0313 500.3125,274.9063 500.2188,274.75 C500.0625,274.4844 499.7813,274.3438 499.4844,274.3438 C499.1875,274.3438 498.9844,274.4375 498.7656,274.75 L498.5938,274.6719 Z " fill="#000000"/><text fill="#000000" font-family="sans-serif" font-size="12" lengthAdjust="spacing" textLength="56" x="516.75" y="283.1543">Company</text><line style="stroke:#A80036;stroke-width:1.5;" x1="322.5" x2="734.5" y1="295" y2="295"/><text fill="#000000" font-family="sans-serif" font-size="11" lengthAdjust="spacing" textLength="107" x="327.5" y="309.2104">-String designation</text><text fill="#000000" font-family="sans-serif" font-size="11" lengthAdjust="spacing" textLength="194" x="327.5" y="322.0151">-ArrayList&lt;Employee&gt; lEmployee</text><line style="stroke:#A80036;stroke-width:1.5;" x1="322.5" x2="734.5" y1="328.6094" y2="328.6094"/><text fill="#000000" font-family="sans-serif" font-size="11" lengthAdjust="spacing" textLength="139" x="327.5" y="342.8198">+Company(Designation)</text><text fill="#000000" font-family="sans-serif" font-size="11" lengthAdjust="spacing" textLength="402" x="327.5" y="355.6245">+createEmployee(name,adress,phoneNumber,emailAdress,SOCCode)</text><text fill="#000000" font-family="sans-serif" font-size="11" lengthAdjust="spacing" textLength="129" x="327.5" y="368.4292">+saveEmployee(emp)</text><text fill="#000000" font-family="sans-serif" font-size="11" lengthAdjust="spacing" textLength="117" x="327.5" y="381.2339">-addEmployee(emp)</text><text fill="#000000" font-family="sans-serif" font-size="11" lengthAdjust="spacing" textLength="142" x="327.5" y="394.0386">-validateEmployee(emp)</text><!--MD5=[a3638c1e5b65d287ecad7f06f5c0f212]
class Role--><rect codeLine="35" fill="#FEFECE" filter="url(#fwuepelmkiv2y)" height="86.4141" id="Role" style="stroke:#A80036;stroke-width:1.5;" width="139" x="569" y="768"/><ellipse cx="621.25" cy="784" fill="#ADD1B2" rx="11" ry="11" style="stroke:#A80036;stroke-width:1.0;"/><path d="M623.5938,779.6719 C622.6563,779.2344 622.0625,779.0938 621.1875,779.0938 C618.5625,779.0938 616.5625,781.1719 616.5625,783.8906 L616.5625,785.0156 C616.5625,787.5938 618.6719,789.4844 621.5625,789.4844 C622.7813,789.4844 623.9375,789.1875 624.6875,788.6406 C625.2656,788.2344 625.5938,787.7813 625.5938,787.3906 C625.5938,786.9375 625.2031,786.5469 624.7344,786.5469 C624.5156,786.5469 624.3125,786.625 624.125,786.8125 C623.6719,787.2969 623.6719,787.2969 623.4844,787.3906 C623.0625,787.6563 622.375,787.7813 621.6094,787.7813 C619.5625,787.7813 618.2656,786.6875 618.2656,784.9844 L618.2656,783.8906 C618.2656,782.1094 619.5156,780.7969 621.25,780.7969 C621.8281,780.7969 622.4375,780.9531 622.9063,781.2031 C623.3906,781.4844 623.5625,781.7031 623.6563,782.1094 C623.7188,782.5156 623.75,782.6406 623.8906,782.7656 C624.0313,782.9063 624.2656,783.0156 624.4844,783.0156 C624.75,783.0156 625.0156,782.875 625.1875,782.6563 C625.2969,782.5 625.3281,782.3125 625.3281,781.8906 L625.3281,780.4688 C625.3281,780.0313 625.3125,779.9063 625.2188,779.75 C625.0625,779.4844 624.7813,779.3438 624.4844,779.3438 C624.1875,779.3438 623.9844,779.4375 623.7656,779.75 L623.5938,779.6719 Z " fill="#000000"/><text fill="#000000" font-family="sans-serif" font-size="12" lengthAdjust="spacing" textLength="26" x="641.75" y="788.1543">Role</text><line style="stroke:#A80036;stroke-width:1.5;" x1="570" x2="707" y1="800" y2="800"/><text fill="#000000" font-family="sans-serif" font-size="11" lengthAdjust="spacing" textLength="127" x="575" y="814.2104">-String roleDescription</text><text fill="#000000" font-family="sans-serif" font-size="11" lengthAdjust="spacing" textLength="73" x="575" y="827.0151">-String roleId</text><line style="stroke:#A80036;stroke-width:1.5;" x1="570" x2="707" y1="833.6094" y2="833.6094"/><text fill="#000000" font-family="sans-serif" font-size="11" lengthAdjust="spacing" textLength="119" x="575" y="847.8198">+role(roleDes,roleId)</text><!--MD5=[0af8f8019f740f778e383a70d6c8693f]
class RolesMapper--><rect codeLine="40" fill="#FEFECE" filter="url(#fwuepelmkiv2y)" height="48" id="RolesMapper" style="stroke:#A80036;stroke-width:1.5;" width="111" x="733" y="431"/><ellipse cx="748" cy="447" fill="#ADD1B2" rx="11" ry="11" style="stroke:#A80036;stroke-width:1.0;"/><path d="M750.3438,442.6719 C749.4063,442.2344 748.8125,442.0938 747.9375,442.0938 C745.3125,442.0938 743.3125,444.1719 743.3125,446.8906 L743.3125,448.0156 C743.3125,450.5938 745.4219,452.4844 748.3125,452.4844 C749.5313,452.4844 750.6875,452.1875 751.4375,451.6406 C752.0156,451.2344 752.3438,450.7813 752.3438,450.3906 C752.3438,449.9375 751.9531,449.5469 751.4844,449.5469 C751.2656,449.5469 751.0625,449.625 750.875,449.8125 C750.4219,450.2969 750.4219,450.2969 750.2344,450.3906 C749.8125,450.6563 749.125,450.7813 748.3594,450.7813 C746.3125,450.7813 745.0156,449.6875 745.0156,447.9844 L745.0156,446.8906 C745.0156,445.1094 746.2656,443.7969 748,443.7969 C748.5781,443.7969 749.1875,443.9531 749.6563,444.2031 C750.1406,444.4844 750.3125,444.7031 750.4063,445.1094 C750.4688,445.5156 750.5,445.6406 750.6406,445.7656 C750.7813,445.9063 751.0156,446.0156 751.2344,446.0156 C751.5,446.0156 751.7656,445.875 751.9375,445.6563 C752.0469,445.5 752.0781,445.3125 752.0781,444.8906 L752.0781,443.4688 C752.0781,443.0313 752.0625,442.9063 751.9688,442.75 C751.8125,442.4844 751.5313,442.3438 751.2344,442.3438 C750.9375,442.3438 750.7344,442.4375 750.5156,442.75 L750.3438,442.6719 Z " fill="#000000"/><text fill="#000000" font-family="sans-serif" font-size="12" lengthAdjust="spacing" textLength="79" x="762" y="451.1543">RolesMapper</text><line style="stroke:#A80036;stroke-width:1.5;" x1="734" x2="843" y1="463" y2="463"/><line style="stroke:#A80036;stroke-width:1.5;" x1="734" x2="843" y1="471" y2="471"/><!--MD5=[6a4e699b59c2ecf8286aba2faa72e4bd]
class RegisterEmployeeController--><rect codeLine="43" fill="#FEFECE" filter="url(#fwuepelmkiv2y)" height="86.4141" id="RegisterEmployeeController" style="stroke:#A80036;stroke-width:1.5;" width="201" x="215" y="116"/><ellipse cx="230" cy="132" fill="#ADD1B2" rx="11" ry="11" style="stroke:#A80036;stroke-width:1.0;"/><path d="M232.3438,127.6719 C231.4063,127.2344 230.8125,127.0938 229.9375,127.0938 C227.3125,127.0938 225.3125,129.1719 225.3125,131.8906 L225.3125,133.0156 C225.3125,135.5938 227.4219,137.4844 230.3125,137.4844 C231.5313,137.4844 232.6875,137.1875 233.4375,136.6406 C234.0156,136.2344 234.3438,135.7813 234.3438,135.3906 C234.3438,134.9375 233.9531,134.5469 233.4844,134.5469 C233.2656,134.5469 233.0625,134.625 232.875,134.8125 C232.4219,135.2969 232.4219,135.2969 232.2344,135.3906 C231.8125,135.6563 231.125,135.7813 230.3594,135.7813 C228.3125,135.7813 227.0156,134.6875 227.0156,132.9844 L227.0156,131.8906 C227.0156,130.1094 228.2656,128.7969 230,128.7969 C230.5781,128.7969 231.1875,128.9531 231.6563,129.2031 C232.1406,129.4844 232.3125,129.7031 232.4063,130.1094 C232.4688,130.5156 232.5,130.6406 232.6406,130.7656 C232.7813,130.9063 233.0156,131.0156 233.2344,131.0156 C233.5,131.0156 233.7656,130.875 233.9375,130.6563 C234.0469,130.5 234.0781,130.3125 234.0781,129.8906 L234.0781,128.4688 C234.0781,128.0313 234.0625,127.9063 233.9688,127.75 C233.8125,127.4844 233.5313,127.3438 233.2344,127.3438 C232.9375,127.3438 232.7344,127.4375 232.5156,127.75 L232.3438,127.6719 Z " fill="#000000"/><text fill="#000000" font-family="sans-serif" font-size="12" lengthAdjust="spacing" textLength="169" x="244" y="136.1543">RegisterEmployeeController</text><line style="stroke:#A80036;stroke-width:1.5;" x1="216" x2="415" y1="148" y2="148"/><line style="stroke:#A80036;stroke-width:1.5;" x1="216" x2="415" y1="156" y2="156"/><text fill="#000000" font-family="sans-serif" font-size="11" lengthAdjust="spacing" textLength="67" x="221" y="170.2104">+getRoles()</text><text fill="#000000" font-family="sans-serif" font-size="11" lengthAdjust="spacing" textLength="158" x="221" y="183.0151">+createEmployee(empDto)</text><text fill="#000000" font-family="sans-serif" font-size="11" lengthAdjust="spacing" textLength="103" x="221" y="195.8198">+saveEmployee()</text><!--MD5=[d72182e047e38bb78a42bb28114ac390]
class lRolesDto--><rect codeLine="48" fill="#FEFECE" filter="url(#fwuepelmkiv2y)" height="60.8047" id="lRolesDto" style="stroke:#A80036;stroke-width:1.5;" width="177" x="700" y="677"/><ellipse cx="755.75" cy="693" fill="#ADD1B2" rx="11" ry="11" style="stroke:#A80036;stroke-width:1.0;"/><path d="M758.0938,688.6719 C757.1563,688.2344 756.5625,688.0938 755.6875,688.0938 C753.0625,688.0938 751.0625,690.1719 751.0625,692.8906 L751.0625,694.0156 C751.0625,696.5938 753.1719,698.4844 756.0625,698.4844 C757.2813,698.4844 758.4375,698.1875 759.1875,697.6406 C759.7656,697.2344 760.0938,696.7813 760.0938,696.3906 C760.0938,695.9375 759.7031,695.5469 759.2344,695.5469 C759.0156,695.5469 758.8125,695.625 758.625,695.8125 C758.1719,696.2969 758.1719,696.2969 757.9844,696.3906 C757.5625,696.6563 756.875,696.7813 756.1094,696.7813 C754.0625,696.7813 752.7656,695.6875 752.7656,693.9844 L752.7656,692.8906 C752.7656,691.1094 754.0156,689.7969 755.75,689.7969 C756.3281,689.7969 756.9375,689.9531 757.4063,690.2031 C757.8906,690.4844 758.0625,690.7031 758.1563,691.1094 C758.2188,691.5156 758.25,691.6406 758.3906,691.7656 C758.5313,691.9063 758.7656,692.0156 758.9844,692.0156 C759.25,692.0156 759.5156,691.875 759.6875,691.6563 C759.7969,691.5 759.8281,691.3125 759.8281,690.8906 L759.8281,689.4688 C759.8281,689.0313 759.8125,688.9063 759.7188,688.75 C759.5625,688.4844 759.2813,688.3438 758.9844,688.3438 C758.6875,688.3438 758.4844,688.4375 758.2656,688.75 L758.0938,688.6719 Z " fill="#000000"/><text fill="#000000" font-family="sans-serif" font-size="12" lengthAdjust="spacing" textLength="57" x="776.25" y="697.1543">lRolesDto</text><line style="stroke:#A80036;stroke-width:1.5;" x1="701" x2="876" y1="709" y2="709"/><text fill="#000000" font-family="sans-serif" font-size="11" lengthAdjust="spacing" textLength="165" x="706" y="723.2104">-ArrayList&lt;roleDto&gt; lRoleDto</text><line style="stroke:#A80036;stroke-width:1.5;" x1="701" x2="876" y1="729.8047" y2="729.8047"/><!--MD5=[c7addef41955b30ef68d706c5d532349]
class roleDto--><rect codeLine="51" fill="#FEFECE" filter="url(#fwuepelmkiv2y)" height="73.6094" id="roleDto" style="stroke:#A80036;stroke-width:1.5;" width="139" x="659" y="931"/><ellipse cx="701.9" cy="947" fill="#ADD1B2" rx="11" ry="11" style="stroke:#A80036;stroke-width:1.0;"/><path d="M704.2438,942.6719 C703.3063,942.2344 702.7125,942.0938 701.8375,942.0938 C699.2125,942.0938 697.2125,944.1719 697.2125,946.8906 L697.2125,948.0156 C697.2125,950.5938 699.3219,952.4844 702.2125,952.4844 C703.4313,952.4844 704.5875,952.1875 705.3375,951.6406 C705.9156,951.2344 706.2438,950.7813 706.2438,950.3906 C706.2438,949.9375 705.8531,949.5469 705.3844,949.5469 C705.1656,949.5469 704.9625,949.625 704.775,949.8125 C704.3219,950.2969 704.3219,950.2969 704.1344,950.3906 C703.7125,950.6563 703.025,950.7813 702.2594,950.7813 C700.2125,950.7813 698.9156,949.6875 698.9156,947.9844 L698.9156,946.8906 C698.9156,945.1094 700.1656,943.7969 701.9,943.7969 C702.4781,943.7969 703.0875,943.9531 703.5563,944.2031 C704.0406,944.4844 704.2125,944.7031 704.3063,945.1094 C704.3688,945.5156 704.4,945.6406 704.5406,945.7656 C704.6813,945.9063 704.9156,946.0156 705.1344,946.0156 C705.4,946.0156 705.6656,945.875 705.8375,945.6563 C705.9469,945.5 705.9781,945.3125 705.9781,944.8906 L705.9781,943.4688 C705.9781,943.0313 705.9625,942.9063 705.8688,942.75 C705.7125,942.4844 705.4313,942.3438 705.1344,942.3438 C704.8375,942.3438 704.6344,942.4375 704.4156,942.75 L704.2438,942.6719 Z " fill="#000000"/><text fill="#000000" font-family="sans-serif" font-size="12" lengthAdjust="spacing" textLength="45" x="722.1" y="951.1543">roleDto</text><line style="stroke:#A80036;stroke-width:1.5;" x1="660" x2="797" y1="963" y2="963"/><text fill="#000000" font-family="sans-serif" font-size="11" lengthAdjust="spacing" textLength="127" x="665" y="977.2104">-String roleDescription</text><line style="stroke:#A80036;stroke-width:1.5;" x1="660" x2="797" y1="983.8047" y2="983.8047"/><text fill="#000000" font-family="sans-serif" font-size="11" lengthAdjust="spacing" textLength="104" x="665" y="998.0151">+roleDto(roleDes)</text><!--MD5=[e0606bd3b8dc31fda2827df8d9b76b7a]
class lRoles--><rect codeLine="55" fill="#FEFECE" filter="url(#fwuepelmkiv2y)" height="99.2188" id="lRoles" style="stroke:#A80036;stroke-width:1.5;" width="141" x="573" y="528.5"/><ellipse cx="621.25" cy="544.5" fill="#ADD1B2" rx="11" ry="11" style="stroke:#A80036;stroke-width:1.0;"/><path d="M623.5938,540.1719 C622.6563,539.7344 622.0625,539.5938 621.1875,539.5938 C618.5625,539.5938 616.5625,541.6719 616.5625,544.3906 L616.5625,545.5156 C616.5625,548.0938 618.6719,549.9844 621.5625,549.9844 C622.7813,549.9844 623.9375,549.6875 624.6875,549.1406 C625.2656,548.7344 625.5938,548.2813 625.5938,547.8906 C625.5938,547.4375 625.2031,547.0469 624.7344,547.0469 C624.5156,547.0469 624.3125,547.125 624.125,547.3125 C623.6719,547.7969 623.6719,547.7969 623.4844,547.8906 C623.0625,548.1563 622.375,548.2813 621.6094,548.2813 C619.5625,548.2813 618.2656,547.1875 618.2656,545.4844 L618.2656,544.3906 C618.2656,542.6094 619.5156,541.2969 621.25,541.2969 C621.8281,541.2969 622.4375,541.4531 622.9063,541.7031 C623.3906,541.9844 623.5625,542.2031 623.6563,542.6094 C623.7188,543.0156 623.75,543.1406 623.8906,543.2656 C624.0313,543.4063 624.2656,543.5156 624.4844,543.5156 C624.75,543.5156 625.0156,543.375 625.1875,543.1563 C625.2969,543 625.3281,542.8125 625.3281,542.3906 L625.3281,540.9688 C625.3281,540.5313 625.3125,540.4063 625.2188,540.25 C625.0625,539.9844 624.7813,539.8438 624.4844,539.8438 C624.1875,539.8438 623.9844,539.9375 623.7656,540.25 L623.5938,540.1719 Z " fill="#000000"/><text fill="#000000" font-family="sans-serif" font-size="12" lengthAdjust="spacing" textLength="36" x="641.75" y="548.6543">lRoles</text><line style="stroke:#A80036;stroke-width:1.5;" x1="574" x2="713" y1="560.5" y2="560.5"/><text fill="#000000" font-family="sans-serif" font-size="11" lengthAdjust="spacing" textLength="129" x="579" y="574.7104">-ArrayList &lt;role&gt; lRole</text><line style="stroke:#A80036;stroke-width:1.5;" x1="574" x2="713" y1="581.3047" y2="581.3047"/><text fill="#000000" font-family="sans-serif" font-size="11" lengthAdjust="spacing" textLength="85" x="579" y="595.5151">+addRole(role)</text><text fill="#000000" font-family="sans-serif" font-size="11" lengthAdjust="spacing" textLength="92" x="579" y="608.3198">+saveRole(role)</text><text fill="#000000" font-family="sans-serif" font-size="11" lengthAdjust="spacing" textLength="110" x="579" y="621.1245">+validateRole(role)</text><!--MD5=[a126dd63c8621c017159ae62771fbe54]
class RegisterEmployeeUI--><rect codeLine="61" fill="#FEFECE" filter="url(#fwuepelmkiv2y)" height="48" id="RegisterEmployeeUI" style="stroke:#A80036;stroke-width:1.5;" width="154" x="238.5" y="7"/><ellipse cx="253.5" cy="23" fill="#ADD1B2" rx="11" ry="11" style="stroke:#A80036;stroke-width:1.0;"/><path d="M255.8438,18.6719 C254.9063,18.2344 254.3125,18.0938 253.4375,18.0938 C250.8125,18.0938 248.8125,20.1719 248.8125,22.8906 L248.8125,24.0156 C248.8125,26.5938 250.9219,28.4844 253.8125,28.4844 C255.0313,28.4844 256.1875,28.1875 256.9375,27.6406 C257.5156,27.2344 257.8438,26.7813 257.8438,26.3906 C257.8438,25.9375 257.4531,25.5469 256.9844,25.5469 C256.7656,25.5469 256.5625,25.625 256.375,25.8125 C255.9219,26.2969 255.9219,26.2969 255.7344,26.3906 C255.3125,26.6563 254.625,26.7813 253.8594,26.7813 C251.8125,26.7813 250.5156,25.6875 250.5156,23.9844 L250.5156,22.8906 C250.5156,21.1094 251.7656,19.7969 253.5,19.7969 C254.0781,19.7969 254.6875,19.9531 255.1563,20.2031 C255.6406,20.4844 255.8125,20.7031 255.9063,21.1094 C255.9688,21.5156 256,21.6406 256.1406,21.7656 C256.2813,21.9063 256.5156,22.0156 256.7344,22.0156 C257,22.0156 257.2656,21.875 257.4375,21.6563 C257.5469,21.5 257.5781,21.3125 257.5781,20.8906 L257.5781,19.4688 C257.5781,19.0313 257.5625,18.9063 257.4688,18.75 C257.3125,18.4844 257.0313,18.3438 256.7344,18.3438 C256.4375,18.3438 256.2344,18.4375 256.0156,18.75 L255.8438,18.6719 Z " fill="#000000"/><text fill="#000000" font-family="sans-serif" font-size="12" lengthAdjust="spacing" textLength="122" x="267.5" y="27.1543">RegisterEmployeeUI</text><line style="stroke:#A80036;stroke-width:1.5;" x1="239.5" x2="391.5" y1="39" y2="39"/><line style="stroke:#A80036;stroke-width:1.5;" x1="239.5" x2="391.5" y1="47" y2="47"/><!--MD5=[3fd241ca11f270f6bde54c00b8a8581a]
link RegisterEmployeeUI to RegisterEmployeeController--><path codeLine="65" d="M315.5,55.11 C315.5,70.631 315.5,91.639 315.5,110.625 " fill="none" id="RegisterEmployeeUI-to-RegisterEmployeeController" style="stroke:#A80036;stroke-width:1.0;stroke-dasharray:7.0,7.0;"/><polygon fill="#A80036" points="315.5,115.921,319.5,106.921,315.5,110.921,311.5,106.921,315.5,115.921" style="stroke:#A80036;stroke-width:1.0;"/><!--MD5=[c381b4a324b26b9090a5b154f0f873f4]
link RegisterEmployeeController to Auth--><path codeLine="66" d="M248.937,202.042 C220.927,220.221 188.233,242.088 159.5,263 C147.145,271.992 134.115,282.088 122.068,291.693 " fill="none" id="RegisterEmployeeController-to-Auth" style="stroke:#A80036;stroke-width:1.0;stroke-dasharray:7.0,7.0;"/><polygon fill="#A80036" points="118.023,294.929,127.5493,292.4289,121.9269,291.805,122.5509,286.1827,118.023,294.929" style="stroke:#A80036;stroke-width:1.0;"/><!--MD5=[05d3f7653ac06d8db0ef91b4517c77fc]
link RegisterEmployeeController to UserSession--><path codeLine="69" d="M294.736,202.27 C280.453,231.346 261.723,269.475 248.362,296.673 " fill="none" id="RegisterEmployeeController-to-UserSession" style="stroke:#A80036;stroke-width:1.0;stroke-dasharray:7.0,7.0;"/><polygon fill="#A80036" points="246.099,301.28,253.6583,294.9667,248.3042,296.7925,246.4783,291.4385,246.099,301.28" style="stroke:#A80036;stroke-width:1.0;"/><!--MD5=[969ee03aa52aee79b0e607297418cbd4]
link RegisterEmployeeController to Company--><path codeLine="70" d="M367.878,202.05 C389.509,219.416 415.197,240.038 439.614,259.641 " fill="none" id="RegisterEmployeeController-to-Company" style="stroke:#A80036;stroke-width:1.0;stroke-dasharray:7.0,7.0;"/><polygon fill="#A80036" points="443.521,262.778,439.0072,254.0244,439.6221,259.6477,433.9988,260.2626,443.521,262.778" style="stroke:#A80036;stroke-width:1.0;"/><!--MD5=[ffab42d7305e6830f0674a21f59219d7]
link Employee to Role--><path codeLine="71" d="M449.234,647.158 C481.792,675.311 519.94,708.257 554.5,738 C564.396,746.517 574.959,755.587 585.138,764.317 " fill="none" id="Employee-to-Role" style="stroke:#A80036;stroke-width:1.0;"/><polygon fill="#A80036" points="589.168,767.773,584.939,758.8783,585.3721,764.5186,579.7319,764.9517,589.168,767.773" style="stroke:#A80036;stroke-width:1.0;"/><text fill="#000000" font-family="sans-serif" font-size="13" lengthAdjust="spacing" textLength="61" x="555.5" y="712.0669">has/plays</text><text fill="#000000" font-family="sans-serif" font-size="13" lengthAdjust="spacing" textLength="8" x="448.5906" y="666.7955">1</text><text fill="#000000" font-family="sans-serif" font-size="13" lengthAdjust="spacing" textLength="8" x="573.0015" y="757.0508">1</text><!--MD5=[09366576ee87d48d594df10cacc83f45]
link Company to Employee--><path codeLine="72" d="M484.278,401.292 C463.484,433.404 438.673,471.719 417.535,504.363 " fill="none" id="Company-to-Employee" style="stroke:#A80036;stroke-width:1.0;"/><polygon fill="#A80036" points="414.711,508.724,422.961,503.3447,417.4292,504.5274,416.2465,498.9956,414.711,508.724" style="stroke:#A80036;stroke-width:1.0;"/><text fill="#000000" font-family="sans-serif" font-size="13" lengthAdjust="spacing" textLength="34" x="465.5" y="459.5669">owns</text><text fill="#000000" font-family="sans-serif" font-size="13" lengthAdjust="spacing" textLength="8" x="471.6818" y="420.702">1</text><text fill="#000000" font-family="sans-serif" font-size="13" lengthAdjust="spacing" textLength="7" x="411.9093" y="497.8992">*</text><!--MD5=[f01afb9b2dd81b1950450cbc6f0313e4]
link RegisterEmployeeController to RolesMapper--><path codeLine="73" d="M416.08,171.008 C530.339,185.618 706.889,215.281 752.5,263 C794.647,307.095 795.222,384.152 791.92,425.634 " fill="none" id="RegisterEmployeeController-to-RolesMapper" style="stroke:#A80036;stroke-width:1.0;stroke-dasharray:7.0,7.0;"/><polygon fill="#A80036" points="791.478,430.756,796.2372,422.1333,791.908,425.7745,788.2668,421.4453,791.478,430.756" style="stroke:#A80036;stroke-width:1.0;"/><!--MD5=[0020bbd99feb4cb7b20989e9ae10c1cc]
link RolesMapper to lRolesDto--><path codeLine="74" d="M788.5,479.117 C788.5,523.264 788.5,619.787 788.5,671.744 " fill="none" id="RolesMapper-to-lRolesDto" style="stroke:#A80036;stroke-width:1.0;"/><polygon fill="#A80036" points="788.5,676.935,792.5,667.935,788.5,671.935,784.5,667.935,788.5,676.935" style="stroke:#A80036;stroke-width:1.0;"/><text fill="#000000" font-family="sans-serif" font-size="13" lengthAdjust="spacing" textLength="34" x="789.5" y="582.5669">owns</text><text fill="#000000" font-family="sans-serif" font-size="13" lengthAdjust="spacing" textLength="8" x="779.525" y="498.9067">1</text><text fill="#000000" font-family="sans-serif" font-size="13" lengthAdjust="spacing" textLength="8" x="779.625" y="665.7111">1</text><!--MD5=[d163f20934b8d8847bfb8ab7ea2a6f26]
link Role to roleDto--><path codeLine="75" d="M663.093,854.354 C676.121,876.791 692.043,904.213 704.916,926.384 " fill="none" id="Role-to-roleDto" style="stroke:#A80036;stroke-width:1.0;"/><polygon fill="#A80036" points="707.449,930.745,706.3878,920.9535,704.9378,926.4213,699.47,924.9714,707.449,930.745" style="stroke:#A80036;stroke-width:1.0;"/><text fill="#000000" font-family="sans-serif" font-size="13" lengthAdjust="spacing" textLength="48" x="690.5" y="897.0669">creates</text><text fill="#000000" font-family="sans-serif" font-size="13" lengthAdjust="spacing" textLength="8" x="658.375" y="874.5033">1</text><text fill="#000000" font-family="sans-serif" font-size="13" lengthAdjust="spacing" textLength="8" x="694.9868" y="919.8865">1</text><!--MD5=[cd3f54bb596f571ed09507bad4a23092]
link lRolesDto to roleDto--><path codeLine="76" d="M782.824,738.329 C775.445,776.294 761.801,843.818 747.5,901 C745.488,909.0466 743.166,917.5934 740.852,925.7744 " fill="none" id="lRolesDto-to-roleDto" style="stroke:#A80036;stroke-width:1.0;"/><polygon fill="#A80036" points="739.414,930.8133,745.729,923.2555,740.7853,926.005,738.0358,921.0613,739.414,930.8133" style="stroke:#A80036;stroke-width:1.0;"/><text fill="#000000" font-family="sans-serif" font-size="13" lengthAdjust="spacing" textLength="54" x="778.5" y="815.5669">contains</text><text fill="#000000" font-family="sans-serif" font-size="13" lengthAdjust="spacing" textLength="8" x="772.919" y="757.9742">1</text><text fill="#000000" font-family="sans-serif" font-size="13" lengthAdjust="spacing" textLength="7" x="733.7346" y="919.967">*</text><!--MD5=[501f865721c91b538b92ae496d625403]
link Company to lRoles--><path codeLine="77" d="M560.687,401.292 C578.938,440.016 601.44,487.759 618.379,523.7 " fill="none" id="Company-to-lRoles" style="stroke:#A80036;stroke-width:1.0;"/><polygon fill="#A80036" points="620.626,528.468,620.4077,518.6216,618.4945,523.9451,613.171,522.0319,620.626,528.468" style="stroke:#A80036;stroke-width:1.0;"/><text fill="#000000" font-family="sans-serif" font-size="13" lengthAdjust="spacing" textLength="34" x="597.5" y="459.5669">owns</text><text fill="#000000" font-family="sans-serif" font-size="13" lengthAdjust="spacing" textLength="8" x="555.3736" y="420.702">1</text><text fill="#000000" font-family="sans-serif" font-size="13" lengthAdjust="spacing" textLength="8" x="608.8468" y="517.5087">1</text><!--MD5=[5c0a9a6d0d345cf9172bf89b95805c73]
link lRoles to Role--><path codeLine="78" d="M633.366,627.636 C630.554,643.319 627.892,660.828 626.5,677 C624.175,704.011 624.264,710.981 626.5,738 C627.166,746.053 628.245,754.562 629.49,762.799 " fill="none" id="lRoles-to-Role" style="stroke:#A80036;stroke-width:1.0;"/><polygon fill="#A80036" points="630.284,767.886,632.8475,758.3766,629.5126,762.9459,624.9433,759.6109,630.284,767.886" style="stroke:#A80036;stroke-width:1.0;"/><text fill="#000000" font-family="sans-serif" font-size="13" lengthAdjust="spacing" textLength="54" x="627.5" y="712.0669">contains</text><text fill="#000000" font-family="sans-serif" font-size="13" lengthAdjust="spacing" textLength="8" x="623.3784" y="647.7316">1</text><text fill="#000000" font-family="sans-serif" font-size="13" lengthAdjust="spacing" textLength="7" x="621.4168" y="756.8639">*</text><!--MD5=[a8c1e16dca75975610d7fe513ec99c9a]
@startuml
skinparam classAttributeIconSize 0

class Auth
{
  +static getInstance()
  +getCurrentSession()
}

class UserSession
{
  +getUserEmail()
}

class Employee {
  -String ID
  -String name
  -String adress
  -String Email
  -int phoneNumber
  -int SocCode
  +Employee(name,adress,phoneNumber,email,SocCode)
}


class Company {
  -String designation
  -ArrayList<Employee> lEmployee
  +Company(Designation)
  +createEmployee(name,adress,phoneNumber,emailAdress,SOCCode)
  +saveEmployee(emp)
  -addEmployee(emp)
  -validateEmployee(emp)
}

class Role {
  -String roleDescription
  -String roleId
  +role(roleDes,roleId)
}
class RolesMapper{
}

class RegisterEmployeeController{
  +getRoles()
  +createEmployee(empDto)
  +saveEmployee()
}
Class lRolesDto{
-ArrayList<roleDto> lRoleDto
}
Class roleDto{
-String roleDescription
+roleDto(roleDes)
}
Class lRoles{
-ArrayList <role> lRole
+addRole(role)
+saveRole(role)
+validateRole(role)
}
class RegisterEmployeeUI {

}

RegisterEmployeeUI ..> RegisterEmployeeController
RegisterEmployeeController ..> Auth


RegisterEmployeeController ..> UserSession
RegisterEmployeeController ..> Company
Employee "1" - -> "1" Role : has/plays
Company "1" - -> "*" Employee : owns
RegisterEmployeeController ..> RolesMapper
RolesMapper "1" - -> "1" lRolesDto: owns
Role "1" - -> "1" roleDto : creates
lRolesDto "1" - -> "*" roleDto: contains
Company "1" - -> "1" lRoles: owns
lRoles "1" - -> "*" Role: contains
@enduml

PlantUML version 1.2021.6beta2(Unknown compile time)
(GPL source distribution)
Java Runtime: Java(TM) SE Runtime Environment
JVM: Java HotSpot(TM) 64-Bit Server VM
Default Encoding: UTF-8
Language: en
Country: US
--></g></svg>