<?xml version="1.0" encoding="UTF-8" standalone="no"?><svg xmlns="http://www.w3.org/2000/svg" xmlns:xlink="http://www.w3.org/1999/xlink" contentScriptType="application/ecmascript" contentStyleType="text/css" height="839px" preserveAspectRatio="none" style="width:2790px;height:839px;" version="1.1" viewBox="0 0 2790 839" width="2790px" zoomAndPan="magnify"><defs><filter height="300%" id="fmetvvdl2kks3" width="300%" x="-1" y="-1"><feGaussianBlur result="blurOut" stdDeviation="2.0"/><feColorMatrix in="blurOut" result="blurOut2" type="matrix" values="0 0 0 0 0 0 0 0 0 0 0 0 0 0 0 0 0 0 .4 0"/><feOffset dx="4.0" dy="4.0" in="blurOut2" result="blurOut3"/><feBlend in="SourceGraphic" in2="blurOut3" mode="normal"/></filter></defs><g><rect fill="#FFFFFF" filter="url(#fmetvvdl2kks3)" height="59.3984" style="stroke:#A80036;stroke-width:1.0;" width="10" x="832" y="179.9609"/><rect fill="#FFFFFF" filter="url(#fmetvvdl2kks3)" height="207.2266" style="stroke:#A80036;stroke-width:1.0;" width="10" x="832" y="283.625"/><rect fill="#FFFFFF" filter="url(#fmetvvdl2kks3)" height="201.9297" style="stroke:#A80036;stroke-width:1.0;" width="10" x="832" y="535.1172"/><rect fill="#FFFFFF" filter="url(#fmetvvdl2kks3)" height="103.5625" style="stroke:#A80036;stroke-width:1.0;" width="10" x="1695" y="312.7578"/><rect fill="#FFFFFF" filter="url(#fmetvvdl2kks3)" height="29.1328" style="stroke:#A80036;stroke-width:1.0;" width="10" x="1695" y="564.25"/><rect fill="#FFFFFF" filter="url(#fmetvvdl2kks3)" height="29.1328" style="stroke:#A80036;stroke-width:1.0;" width="10" x="2568" y="341.8906"/><rect fill="#FFFFFF" filter="url(#fmetvvdl2kks3)" height="77.2656" style="stroke:#A80036;stroke-width:1.0;" width="10" x="2573" y="593.3828"/><rect fill="#FFFFFF" filter="url(#fmetvvdl2kks3)" height="35.1328" style="stroke:#A80036;stroke-width:1.0;" width="10" x="2573" y="593.3828"/><line style="stroke:#A80036;stroke-width:1.0;stroke-dasharray:5.0,5.0;" x1="58" x2="58" y1="88.2969" y2="755.0469"/><line style="stroke:#A80036;stroke-width:1.0;stroke-dasharray:5.0,5.0;" x1="837" x2="837" y1="88.2969" y2="755.0469"/><line style="stroke:#A80036;stroke-width:1.0;stroke-dasharray:5.0,5.0;" x1="1700" x2="1700" y1="88.2969" y2="755.0469"/><line style="stroke:#A80036;stroke-width:1.0;stroke-dasharray:5.0,5.0;" x1="2573" x2="2573" y1="88.2969" y2="755.0469"/><line style="stroke:#A80036;stroke-width:1.0;stroke-dasharray:5.0,5.0;" x1="2735" x2="2735" y1="382.5391" y2="755.0469"/><text fill="#000000" font-family="sans-serif" font-size="14" lengthAdjust="spacing" text-decoration="underline" textLength="100" x="5" y="84.9951">Administrator</text><ellipse cx="58" cy="15" fill="#FEFECE" filter="url(#fmetvvdl2kks3)" rx="8" ry="8" style="stroke:#A80036;stroke-width:2.0;"/><path d="M58,23 L58,50 M45,31 L71,31 M58,50 L45,65 M58,50 L71,65 " fill="none" filter="url(#fmetvvdl2kks3)" style="stroke:#A80036;stroke-width:2.0;"/><text fill="#000000" font-family="sans-serif" font-size="14" lengthAdjust="spacing" text-decoration="underline" textLength="100" x="5" y="767.042">Administrator</text><ellipse cx="58" cy="780.3438" fill="#FEFECE" filter="url(#fmetvvdl2kks3)" rx="8" ry="8" style="stroke:#A80036;stroke-width:2.0;"/><path d="M58,788.3438 L58,815.3438 M45,796.3438 L71,796.3438 M58,815.3438 L45,830.3438 M58,815.3438 L71,830.3438 " fill="none" filter="url(#fmetvvdl2kks3)" style="stroke:#A80036;stroke-width:2.0;"/><rect fill="#FEFECE" filter="url(#fmetvvdl2kks3)" height="30.2969" style="stroke:#A80036;stroke-width:1.5;" width="160" x="755" y="53"/><text fill="#000000" font-family="sans-serif" font-size="14" lengthAdjust="spacing" text-decoration="underline" textLength="146" x="762" y="72.9951">RegisterEmployeeUI</text><rect fill="#FEFECE" filter="url(#fmetvvdl2kks3)" height="30.2969" style="stroke:#A80036;stroke-width:1.5;" width="160" x="755" y="754.0469"/><text fill="#000000" font-family="sans-serif" font-size="14" lengthAdjust="spacing" text-decoration="underline" textLength="146" x="762" y="774.042">RegisterEmployeeUI</text><rect fill="#FEFECE" filter="url(#fmetvvdl2kks3)" height="30.2969" style="stroke:#A80036;stroke-width:1.5;" width="220" x="1588" y="53"/><text fill="#000000" font-family="sans-serif" font-size="14" lengthAdjust="spacing" text-decoration="underline" textLength="206" x="1595" y="72.9951">RegisterEmployeeController</text><rect fill="#FEFECE" filter="url(#fmetvvdl2kks3)" height="30.2969" style="stroke:#A80036;stroke-width:1.5;" width="220" x="1588" y="754.0469"/><text fill="#000000" font-family="sans-serif" font-size="14" lengthAdjust="spacing" text-decoration="underline" textLength="206" x="1595" y="774.042">RegisterEmployeeController</text><rect fill="#FEFECE" filter="url(#fmetvvdl2kks3)" height="30.2969" style="stroke:#A80036;stroke-width:1.5;" width="112" x="2515" y="53"/><text fill="#000000" font-family="sans-serif" font-size="14" lengthAdjust="spacing" text-decoration="underline" textLength="98" x="2522" y="72.9951">EmployeeList</text><rect fill="#FEFECE" filter="url(#fmetvvdl2kks3)" height="30.2969" style="stroke:#A80036;stroke-width:1.5;" width="112" x="2515" y="754.0469"/><text fill="#000000" font-family="sans-serif" font-size="14" lengthAdjust="spacing" text-decoration="underline" textLength="98" x="2522" y="774.042">EmployeeList</text><rect fill="#FEFECE" filter="url(#fmetvvdl2kks3)" height="30.2969" style="stroke:#A80036;stroke-width:1.5;" width="86" x="2690" y="754.0469"/><text fill="#000000" font-family="sans-serif" font-size="14" lengthAdjust="spacing" text-decoration="underline" textLength="72" x="2697" y="774.042">Employee</text><rect fill="#FFFFFF" filter="url(#fmetvvdl2kks3)" height="59.3984" style="stroke:#A80036;stroke-width:1.0;" width="10" x="832" y="179.9609"/><rect fill="#FFFFFF" filter="url(#fmetvvdl2kks3)" height="207.2266" style="stroke:#A80036;stroke-width:1.0;" width="10" x="832" y="283.625"/><rect fill="#FFFFFF" filter="url(#fmetvvdl2kks3)" height="201.9297" style="stroke:#A80036;stroke-width:1.0;" width="10" x="832" y="535.1172"/><rect fill="#FFFFFF" filter="url(#fmetvvdl2kks3)" height="103.5625" style="stroke:#A80036;stroke-width:1.0;" width="10" x="1695" y="312.7578"/><rect fill="#FFFFFF" filter="url(#fmetvvdl2kks3)" height="29.1328" style="stroke:#A80036;stroke-width:1.0;" width="10" x="1695" y="564.25"/><rect fill="#FFFFFF" filter="url(#fmetvvdl2kks3)" height="29.1328" style="stroke:#A80036;stroke-width:1.0;" width="10" x="2568" y="341.8906"/><rect fill="#FFFFFF" filter="url(#fmetvvdl2kks3)" height="77.2656" style="stroke:#A80036;stroke-width:1.0;" width="10" x="2573" y="593.3828"/><rect fill="#FFFFFF" filter="url(#fmetvvdl2kks3)" height="35.1328" style="stroke:#A80036;stroke-width:1.0;" width="10" x="2573" y="593.3828"/><polygon fill="#A80036" points="820,175.9609,830,179.9609,820,183.9609,824,179.9609" style="stroke:#A80036;stroke-width:1.0;"/><line style="stroke:#A80036;stroke-width:2.0;" x1="58" x2="826" y1="179.9609" y2="179.9609"/><text fill="#000000" font-family="sans-serif" font-size="13" lengthAdjust="spacing" textLength="58" x="65" y="114.3638">1. Begins</text><text fill="#000000" font-family="sans-serif" font-size="13" lengthAdjust="spacing" textLength="13" x="65" y="129.4966">to</text><text fill="#000000" font-family="sans-serif" font-size="13" lengthAdjust="spacing" textLength="49" x="65" y="144.6294">register</text><text fill="#000000" font-family="sans-serif" font-size="13" lengthAdjust="spacing" textLength="16" x="65" y="159.7622">an</text><text fill="#000000" font-family="sans-serif" font-size="13" lengthAdjust="spacing" textLength="64" x="65" y="174.895">employee</text><polygon fill="#A80036" points="69,235.3594,59,239.3594,69,243.3594,65,239.3594" style="stroke:#A80036;stroke-width:1.0;"/><line style="stroke:#A80036;stroke-width:2.0;stroke-dasharray:2.0,2.0;" x1="63" x2="836" y1="239.3594" y2="239.3594"/><text fill="#000000" font-family="sans-serif" font-size="13" lengthAdjust="spacing" textLength="49" x="75" y="204.0278">request</text><text fill="#000000" font-family="sans-serif" font-size="13" lengthAdjust="spacing" textLength="64" x="75" y="219.1606">employee</text><text fill="#000000" font-family="sans-serif" font-size="13" lengthAdjust="spacing" textLength="750" x="75" y="234.2935">data(name,adress,tin,sex,dayOfBirth,monthOfBirth,yearOfBirth,phoneNumber,email,password,roleID,roleDescription)</text><polygon fill="#A80036" points="820,279.625,830,283.625,820,287.625,824,283.625" style="stroke:#A80036;stroke-width:1.0;"/><line style="stroke:#A80036;stroke-width:2.0;" x1="58" x2="826" y1="283.625" y2="283.625"/><text fill="#000000" font-family="sans-serif" font-size="13" lengthAdjust="spacing" textLength="48" x="65" y="263.4263">3.types</text><text fill="#000000" font-family="sans-serif" font-size="13" lengthAdjust="spacing" textLength="29" x="65" y="278.5591">data</text><polygon fill="#A80036" points="1683,308.7578,1693,312.7578,1683,316.7578,1687,312.7578" style="stroke:#A80036;stroke-width:1.0;"/><line style="stroke:#A80036;stroke-width:2.0;" x1="842" x2="1689" y1="312.7578" y2="312.7578"/><text fill="#000000" font-family="sans-serif" font-size="13" lengthAdjust="spacing" textLength="834" x="849" y="307.6919">registerEmployee(name,adress,tin,sex,dayOfBirth,monthOfBirth,yearOfBirth,phoneNumber,email,password,roleID,roleDescription)</text><polygon fill="#A80036" points="2556,337.8906,2566,341.8906,2556,345.8906,2560,341.8906" style="stroke:#A80036;stroke-width:1.0;"/><line style="stroke:#A80036;stroke-width:2.0;" x1="1705" x2="2562" y1="341.8906" y2="341.8906"/><text fill="#000000" font-family="sans-serif" font-size="13" lengthAdjust="spacing" textLength="844" x="1712" y="336.8247">e=createEmployee(name,adress,tin,sex,dayOfBirth,monthOfBirth,yearOfBirth,phoneNumber,email,password,roleID,roleDescription)</text><polygon fill="#A80036" points="2678,367.0234,2688,371.0234,2678,375.0234,2682,371.0234" style="stroke:#A80036;stroke-width:1.0;"/><line style="stroke:#A80036;stroke-width:2.0;" x1="2573" x2="2684" y1="371.0234" y2="371.0234"/><text fill="#000000" font-family="sans-serif" font-size="13" lengthAdjust="spacing" textLength="59" x="2580" y="365.9575">create(e)</text><rect fill="#FEFECE" filter="url(#fmetvvdl2kks3)" height="30.2969" style="stroke:#A80036;stroke-width:1.5;" width="86" x="2690" y="349.8906"/><text fill="#000000" font-family="sans-serif" font-size="14" lengthAdjust="spacing" text-decoration="underline" textLength="72" x="2697" y="369.8857">Employee</text><polygon fill="#A80036" points="2561,412.3203,2571,416.3203,2561,420.3203,2565,416.3203" style="stroke:#A80036;stroke-width:1.0;"/><line style="stroke:#A80036;stroke-width:2.0;" x1="1700" x2="2567" y1="416.3203" y2="416.3203"/><text fill="#000000" font-family="sans-serif" font-size="13" lengthAdjust="spacing" textLength="133" x="1707" y="411.2544">validateEmployee(e)</text><polygon fill="#A80036" points="69,486.8516,59,490.8516,69,494.8516,65,490.8516" style="stroke:#A80036;stroke-width:1.0;"/><line style="stroke:#A80036;stroke-width:2.0;" x1="63" x2="836" y1="490.8516" y2="490.8516"/><text fill="#000000" font-family="sans-serif" font-size="13" lengthAdjust="spacing" textLength="41" x="75" y="440.3872">shows</text><text fill="#000000" font-family="sans-serif" font-size="13" lengthAdjust="spacing" textLength="57" x="75" y="455.52">and asks</text><text fill="#000000" font-family="sans-serif" font-size="13" lengthAdjust="spacing" textLength="51" x="75" y="470.6528">for data</text><text fill="#000000" font-family="sans-serif" font-size="13" lengthAdjust="spacing" textLength="81" x="75" y="485.7856">confirmation</text><polygon fill="#A80036" points="820,531.1172,830,535.1172,820,539.1172,824,535.1172" style="stroke:#A80036;stroke-width:1.0;"/><line style="stroke:#A80036;stroke-width:2.0;" x1="58" x2="826" y1="535.1172" y2="535.1172"/><text fill="#000000" font-family="sans-serif" font-size="13" lengthAdjust="spacing" textLength="56" x="65" y="514.9185">confirms</text><text fill="#000000" font-family="sans-serif" font-size="13" lengthAdjust="spacing" textLength="54" x="65" y="530.0513">the data</text><polygon fill="#A80036" points="1683,560.25,1693,564.25,1683,568.25,1687,564.25" style="stroke:#A80036;stroke-width:1.0;"/><line style="stroke:#A80036;stroke-width:2.0;" x1="842" x2="1689" y1="564.25" y2="564.25"/><text fill="#000000" font-family="sans-serif" font-size="13" lengthAdjust="spacing" textLength="105" x="849" y="559.1841">saveEmployee()</text><polygon fill="#A80036" points="2561,589.3828,2571,593.3828,2561,597.3828,2565,593.3828" style="stroke:#A80036;stroke-width:1.0;"/><line style="stroke:#A80036;stroke-width:2.0;" x1="1700" x2="2567" y1="593.3828" y2="593.3828"/><text fill="#000000" font-family="sans-serif" font-size="13" lengthAdjust="spacing" textLength="113" x="1707" y="588.3169">saveEmployee(e)</text><line style="stroke:#A80036;stroke-width:2.0;" x1="2583" x2="2625" y1="627.5156" y2="627.5156"/><line style="stroke:#A80036;stroke-width:2.0;" x1="2625" x2="2625" y1="627.5156" y2="640.5156"/><line style="stroke:#A80036;stroke-width:2.0;" x1="2578" x2="2625" y1="640.5156" y2="640.5156"/><polygon fill="#A80036" points="2588,636.5156,2578,640.5156,2588,644.5156,2584,640.5156" style="stroke:#A80036;stroke-width:1.0;"/><text fill="#000000" font-family="sans-serif" font-size="13" lengthAdjust="spacing" textLength="133" x="2590" y="622.4497">validateEmployee(e)</text><line style="stroke:#A80036;stroke-width:2.0;" x1="2578" x2="2620" y1="669.6484" y2="669.6484"/><line style="stroke:#A80036;stroke-width:2.0;" x1="2620" x2="2620" y1="669.6484" y2="682.6484"/><line style="stroke:#A80036;stroke-width:2.0;" x1="2573" x2="2620" y1="682.6484" y2="682.6484"/><polygon fill="#A80036" points="2583,678.6484,2573,682.6484,2583,686.6484,2579,682.6484" style="stroke:#A80036;stroke-width:1.0;"/><text fill="#000000" font-family="sans-serif" font-size="13" lengthAdjust="spacing" textLength="42" x="2585" y="664.5825">add(e)</text><polygon fill="#A80036" points="69,733.0469,59,737.0469,69,741.0469,65,737.0469" style="stroke:#A80036;stroke-width:1.0;"/><line style="stroke:#A80036;stroke-width:2.0;" x1="63" x2="836" y1="737.0469" y2="737.0469"/><text fill="#000000" font-family="sans-serif" font-size="13" lengthAdjust="spacing" textLength="49" x="75" y="701.7153">informs</text><text fill="#000000" font-family="sans-serif" font-size="13" lengthAdjust="spacing" textLength="61" x="75" y="716.8481">operation</text><text fill="#000000" font-family="sans-serif" font-size="13" lengthAdjust="spacing" textLength="72" x="75" y="731.981">(in)success</text><!--MD5=[58b4e9a0852da9cb4de663f239072b89]
@startuml
skinparam sequenceArrowThickness 2
skinparam maxmessagesize 60
skinparam sequenceParticipant underline

actor Administrator
participant "RegisterEmployeeUI" as A
participant "RegisterEmployeeController" as B
participant "EmployeeList" as C
participant "Employee" as D

Administrator -> A: 1. Begins to register an employee
activate A
A - -> Administrator: request employee data(name,adress,tin,sex,dayOfBirth,monthOfBirth,yearOfBirth,phoneNumber,email,password,roleID,roleDescription)
deactivate A



Administrator-> A: 3.types data
activate A
A -> B: registerEmployee(name,adress,tin,sex,dayOfBirth,monthOfBirth,yearOfBirth,phoneNumber,email,password,roleID,roleDescription)
activate B




B -> C: e=createEmployee(name,adress,tin,sex,dayOfBirth,monthOfBirth,yearOfBirth,phoneNumber,email,password,roleID,roleDescription)

activate C
C -> D**: create(e)
deactivate C
B -> C: validateEmployee(e)
deactivate B






A -> Administrator: shows and asks for data confirmation
deactivate A
Administrator -> A : confirms the data
activate A
A-> B : saveEmployee()
Activate B

B-> C : saveEmployee(e)
deactivate B
Activate C
Activate C
C-> C : validateEmployee(e)

Deactivate C

C-> C : add(e)

Deactivate C


A-> Administrator : informs operation (in)success
deactivate A
@enduml

PlantUML version 1.2021.5(Sun Apr 25 11:20:28 UTC 2021)
(GPL source distribution)
Java Runtime: Java(TM) SE Runtime Environment
JVM: Java HotSpot(TM) 64-Bit Server VM
Default Encoding: UTF-8
Language: en
Country: US
--></g></svg>