<?xml version="1.0" encoding="UTF-8" standalone="no"?><svg xmlns="http://www.w3.org/2000/svg" xmlns:xlink="http://www.w3.org/1999/xlink" contentScriptType="application/ecmascript" contentStyleType="text/css" height="623px" preserveAspectRatio="none" style="width:519px;height:623px;" version="1.1" viewBox="0 0 519 623" width="519px" zoomAndPan="magnify"><defs><filter height="300%" id="f31mujdj5j2s2" width="300%" x="-1" y="-1"><feGaussianBlur result="blurOut" stdDeviation="2.0"/><feColorMatrix in="blurOut" result="blurOut2" type="matrix" values="0 0 0 0 0 0 0 0 0 0 0 0 0 0 0 0 0 0 .4 0"/><feOffset dx="4.0" dy="4.0" in="blurOut2" result="blurOut3"/><feBlend in="SourceGraphic" in2="blurOut3" mode="normal"/></filter></defs><g><!--MD5=[7421f545a0d8420c5bec41e74b387d9c]
class Employee--><rect codeLine="1" fill="#FEFECE" filter="url(#f31mujdj5j2s2)" height="201.6563" id="Employee" style="stroke:#A80036;stroke-width:1.5;" width="138" x="187" y="408"/><ellipse cx="222.7" cy="424" fill="#ADD1B2" rx="11" ry="11" style="stroke:#A80036;stroke-width:1.0;"/><path d="M225.0438,419.6719 C224.1063,419.2344 223.5125,419.0938 222.6375,419.0938 C220.0125,419.0938 218.0125,421.1719 218.0125,423.8906 L218.0125,425.0156 C218.0125,427.5938 220.1219,429.4844 223.0125,429.4844 C224.2313,429.4844 225.3875,429.1875 226.1375,428.6406 C226.7156,428.2344 227.0438,427.7813 227.0438,427.3906 C227.0438,426.9375 226.6531,426.5469 226.1844,426.5469 C225.9656,426.5469 225.7625,426.625 225.575,426.8125 C225.1219,427.2969 225.1219,427.2969 224.9344,427.3906 C224.5125,427.6563 223.825,427.7813 223.0594,427.7813 C221.0125,427.7813 219.7156,426.6875 219.7156,424.9844 L219.7156,423.8906 C219.7156,422.1094 220.9656,420.7969 222.7,420.7969 C223.2781,420.7969 223.8875,420.9531 224.3563,421.2031 C224.8406,421.4844 225.0125,421.7031 225.1063,422.1094 C225.1688,422.5156 225.2,422.6406 225.3406,422.7656 C225.4813,422.9063 225.7156,423.0156 225.9344,423.0156 C226.2,423.0156 226.4656,422.875 226.6375,422.6563 C226.7469,422.5 226.7781,422.3125 226.7781,421.8906 L226.7781,420.4688 C226.7781,420.0313 226.7625,419.9063 226.6688,419.75 C226.5125,419.4844 226.2313,419.3438 225.9344,419.3438 C225.6375,419.3438 225.4344,419.4375 225.2156,419.75 L225.0438,419.6719 Z " fill="#000000"/><text fill="#000000" font-family="sans-serif" font-size="12" lengthAdjust="spacing" textLength="60" x="241.3" y="428.1543">Employee</text><line style="stroke:#A80036;stroke-width:1.5;" x1="188" x2="324" y1="440" y2="440"/><rect fill="none" height="6" style="stroke:#C82930;stroke-width:1.0;" width="6" x="195" y="448"/><text fill="#000000" font-family="sans-serif" font-size="11" lengthAdjust="spacing" textLength="70" x="207" y="454.2104">String name</text><rect fill="none" height="6" style="stroke:#C82930;stroke-width:1.0;" width="6" x="195" y="460.8047"/><text fill="#000000" font-family="sans-serif" font-size="11" lengthAdjust="spacing" textLength="75" x="207" y="467.0151">String adress</text><rect fill="none" height="6" style="stroke:#C82930;stroke-width:1.0;" width="6" x="195" y="473.6094"/><text fill="#000000" font-family="sans-serif" font-size="11" lengthAdjust="spacing" textLength="32" x="207" y="479.8198">int tin</text><rect fill="none" height="6" style="stroke:#C82930;stroke-width:1.0;" width="6" x="195" y="486.4141"/><text fill="#000000" font-family="sans-serif" font-size="11" lengthAdjust="spacing" textLength="39" x="207" y="492.6245">int sex</text><rect fill="none" height="6" style="stroke:#C82930;stroke-width:1.0;" width="6" x="195" y="499.2188"/><text fill="#000000" font-family="sans-serif" font-size="11" lengthAdjust="spacing" textLength="78" x="207" y="505.4292">int dayOfBirth</text><rect fill="none" height="6" style="stroke:#C82930;stroke-width:1.0;" width="6" x="195" y="512.0234"/><text fill="#000000" font-family="sans-serif" font-size="11" lengthAdjust="spacing" textLength="93" x="207" y="518.2339">int monthOfBirth</text><rect fill="none" height="6" style="stroke:#C82930;stroke-width:1.0;" width="6" x="195" y="524.8281"/><text fill="#000000" font-family="sans-serif" font-size="11" lengthAdjust="spacing" textLength="83" x="207" y="531.0386">int yearOfBirth</text><rect fill="none" height="6" style="stroke:#C82930;stroke-width:1.0;" width="6" x="195" y="537.6328"/><text fill="#000000" font-family="sans-serif" font-size="11" lengthAdjust="spacing" textLength="99" x="207" y="543.8433">int phoneNumber</text><rect fill="none" height="6" style="stroke:#C82930;stroke-width:1.0;" width="6" x="195" y="550.4375"/><text fill="#000000" font-family="sans-serif" font-size="11" lengthAdjust="spacing" textLength="89" x="207" y="556.6479">User employee</text><line style="stroke:#A80036;stroke-width:1.5;" x1="188" x2="324" y1="563.2422" y2="563.2422"/><ellipse cx="198" cy="574.2422" fill="#84BE84" rx="3" ry="3" style="stroke:#038048;stroke-width:1.0;"/><text fill="#000000" font-family="sans-serif" font-size="11" lengthAdjust="spacing" textLength="112" x="207" y="577.4526">validateEmployee()</text><ellipse cx="198" cy="587.0469" fill="#84BE84" rx="3" ry="3" style="stroke:#038048;stroke-width:1.0;"/><text fill="#000000" font-family="sans-serif" font-size="11" lengthAdjust="spacing" textLength="66" x="207" y="590.2573">Employee()</text><ellipse cx="198" cy="599.8516" fill="#84BE84" rx="3" ry="3" style="stroke:#038048;stroke-width:1.0;"/><text fill="#000000" font-family="sans-serif" font-size="11" lengthAdjust="spacing" textLength="52" x="207" y="603.062">toString()</text><!--MD5=[9121ef690ad32930c1f4f5c3ecfc457c]
class EmployeeList--><rect codeLine="15" fill="#FEFECE" filter="url(#f31mujdj5j2s2)" height="99.2188" id="EmployeeList" style="stroke:#A80036;stroke-width:1.5;" width="196" x="234" y="249"/><ellipse cx="287.75" cy="265" fill="#ADD1B2" rx="11" ry="11" style="stroke:#A80036;stroke-width:1.0;"/><path d="M290.0938,260.6719 C289.1563,260.2344 288.5625,260.0938 287.6875,260.0938 C285.0625,260.0938 283.0625,262.1719 283.0625,264.8906 L283.0625,266.0156 C283.0625,268.5938 285.1719,270.4844 288.0625,270.4844 C289.2813,270.4844 290.4375,270.1875 291.1875,269.6406 C291.7656,269.2344 292.0938,268.7813 292.0938,268.3906 C292.0938,267.9375 291.7031,267.5469 291.2344,267.5469 C291.0156,267.5469 290.8125,267.625 290.625,267.8125 C290.1719,268.2969 290.1719,268.2969 289.9844,268.3906 C289.5625,268.6563 288.875,268.7813 288.1094,268.7813 C286.0625,268.7813 284.7656,267.6875 284.7656,265.9844 L284.7656,264.8906 C284.7656,263.1094 286.0156,261.7969 287.75,261.7969 C288.3281,261.7969 288.9375,261.9531 289.4063,262.2031 C289.8906,262.4844 290.0625,262.7031 290.1563,263.1094 C290.2188,263.5156 290.25,263.6406 290.3906,263.7656 C290.5313,263.9063 290.7656,264.0156 290.9844,264.0156 C291.25,264.0156 291.5156,263.875 291.6875,263.6563 C291.7969,263.5 291.8281,263.3125 291.8281,262.8906 L291.8281,261.4688 C291.8281,261.0313 291.8125,260.9063 291.7188,260.75 C291.5625,260.4844 291.2813,260.3438 290.9844,260.3438 C290.6875,260.3438 290.4844,260.4375 290.2656,260.75 L290.0938,260.6719 Z " fill="#000000"/><text fill="#000000" font-family="sans-serif" font-size="12" lengthAdjust="spacing" textLength="80" x="308.25" y="269.1543">EmployeeList</text><line style="stroke:#A80036;stroke-width:1.5;" x1="235" x2="429" y1="281" y2="281"/><line style="stroke:#A80036;stroke-width:1.5;" x1="235" x2="429" y1="289" y2="289"/><ellipse cx="245" cy="300" fill="#84BE84" rx="3" ry="3" style="stroke:#038048;stroke-width:1.0;"/><text fill="#000000" font-family="sans-serif" font-size="11" lengthAdjust="spacing" textLength="145" x="254" y="303.2104">addEmployee(Employee)</text><ellipse cx="245" cy="312.8047" fill="#84BE84" rx="3" ry="3" style="stroke:#038048;stroke-width:1.0;"/><text fill="#000000" font-family="sans-serif" font-size="11" lengthAdjust="spacing" textLength="162" x="254" y="316.0151">getEmployee(indexNumber)</text><ellipse cx="245" cy="325.6094" fill="#84BE84" rx="3" ry="3" style="stroke:#038048;stroke-width:1.0;"/><text fill="#000000" font-family="sans-serif" font-size="11" lengthAdjust="spacing" textLength="170" x="254" y="328.8198">validateEmployee(Employee)</text><ellipse cx="245" cy="338.4141" fill="#84BE84" rx="3" ry="3" style="stroke:#038048;stroke-width:1.0;"/><text fill="#000000" font-family="sans-serif" font-size="11" lengthAdjust="spacing" textLength="152" x="254" y="341.6245">saveEmployee(Employee)</text><!--MD5=[6a4e699b59c2ecf8286aba2faa72e4bd]
class RegisterEmployeeController--><rect codeLine="22" fill="#FEFECE" filter="url(#f31mujdj5j2s2)" height="73.6094" id="RegisterEmployeeController" style="stroke:#A80036;stroke-width:1.5;" width="498" x="7" y="115"/><ellipse cx="167.25" cy="131" fill="#ADD1B2" rx="11" ry="11" style="stroke:#A80036;stroke-width:1.0;"/><path d="M169.5938,126.6719 C168.6563,126.2344 168.0625,126.0938 167.1875,126.0938 C164.5625,126.0938 162.5625,128.1719 162.5625,130.8906 L162.5625,132.0156 C162.5625,134.5938 164.6719,136.4844 167.5625,136.4844 C168.7813,136.4844 169.9375,136.1875 170.6875,135.6406 C171.2656,135.2344 171.5938,134.7813 171.5938,134.3906 C171.5938,133.9375 171.2031,133.5469 170.7344,133.5469 C170.5156,133.5469 170.3125,133.625 170.125,133.8125 C169.6719,134.2969 169.6719,134.2969 169.4844,134.3906 C169.0625,134.6563 168.375,134.7813 167.6094,134.7813 C165.5625,134.7813 164.2656,133.6875 164.2656,131.9844 L164.2656,130.8906 C164.2656,129.1094 165.5156,127.7969 167.25,127.7969 C167.8281,127.7969 168.4375,127.9531 168.9063,128.2031 C169.3906,128.4844 169.5625,128.7031 169.6563,129.1094 C169.7188,129.5156 169.75,129.6406 169.8906,129.7656 C170.0313,129.9063 170.2656,130.0156 170.4844,130.0156 C170.75,130.0156 171.0156,129.875 171.1875,129.6563 C171.2969,129.5 171.3281,129.3125 171.3281,128.8906 L171.3281,127.4688 C171.3281,127.0313 171.3125,126.9063 171.2188,126.75 C171.0625,126.4844 170.7813,126.3438 170.4844,126.3438 C170.1875,126.3438 169.9844,126.4375 169.7656,126.75 L169.5938,126.6719 Z " fill="#000000"/><text fill="#000000" font-family="sans-serif" font-size="12" lengthAdjust="spacing" textLength="169" x="187.75" y="135.1543">RegisterEmployeeController</text><line style="stroke:#A80036;stroke-width:1.5;" x1="8" x2="504" y1="147" y2="147"/><line style="stroke:#A80036;stroke-width:1.5;" x1="8" x2="504" y1="155" y2="155"/><ellipse cx="18" cy="166" fill="#84BE84" rx="3" ry="3" style="stroke:#038048;stroke-width:1.0;"/><text fill="#000000" font-family="sans-serif" font-size="11" lengthAdjust="spacing" textLength="472" x="27" y="169.2104">createEmployee(name,adress,sex,dayOfBirth,monthOfBirth,yearOfBirth,employee)</text><ellipse cx="18" cy="178.8047" fill="#84BE84" rx="3" ry="3" style="stroke:#038048;stroke-width:1.0;"/><text fill="#000000" font-family="sans-serif" font-size="11" lengthAdjust="spacing" textLength="94" x="27" y="182.0151">saveEmployee()</text><!--MD5=[a126dd63c8621c017159ae62771fbe54]
class RegisterEmployeeUI--><rect codeLine="26" fill="#FEFECE" filter="url(#f31mujdj5j2s2)" height="48" id="RegisterEmployeeUI" style="stroke:#A80036;stroke-width:1.5;" width="154" x="179" y="7"/><ellipse cx="194" cy="23" fill="#ADD1B2" rx="11" ry="11" style="stroke:#A80036;stroke-width:1.0;"/><path d="M196.3438,18.6719 C195.4063,18.2344 194.8125,18.0938 193.9375,18.0938 C191.3125,18.0938 189.3125,20.1719 189.3125,22.8906 L189.3125,24.0156 C189.3125,26.5938 191.4219,28.4844 194.3125,28.4844 C195.5313,28.4844 196.6875,28.1875 197.4375,27.6406 C198.0156,27.2344 198.3438,26.7813 198.3438,26.3906 C198.3438,25.9375 197.9531,25.5469 197.4844,25.5469 C197.2656,25.5469 197.0625,25.625 196.875,25.8125 C196.4219,26.2969 196.4219,26.2969 196.2344,26.3906 C195.8125,26.6563 195.125,26.7813 194.3594,26.7813 C192.3125,26.7813 191.0156,25.6875 191.0156,23.9844 L191.0156,22.8906 C191.0156,21.1094 192.2656,19.7969 194,19.7969 C194.5781,19.7969 195.1875,19.9531 195.6563,20.2031 C196.1406,20.4844 196.3125,20.7031 196.4063,21.1094 C196.4688,21.5156 196.5,21.6406 196.6406,21.7656 C196.7813,21.9063 197.0156,22.0156 197.2344,22.0156 C197.5,22.0156 197.7656,21.875 197.9375,21.6563 C198.0469,21.5 198.0781,21.3125 198.0781,20.8906 L198.0781,19.4688 C198.0781,19.0313 198.0625,18.9063 197.9688,18.75 C197.8125,18.4844 197.5313,18.3438 197.2344,18.3438 C196.9375,18.3438 196.7344,18.4375 196.5156,18.75 L196.3438,18.6719 Z " fill="#000000"/><text fill="#000000" font-family="sans-serif" font-size="12" lengthAdjust="spacing" textLength="122" x="208" y="27.1543">RegisterEmployeeUI</text><line style="stroke:#A80036;stroke-width:1.5;" x1="180" x2="332" y1="39" y2="39"/><line style="stroke:#A80036;stroke-width:1.5;" x1="180" x2="332" y1="47" y2="47"/><!--MD5=[a92c17cdf5b4c59355f8dca3c0c68833]
link EmployeeList to Employee--><path codeLine="27" d="M314.277,348.121 C309.069,362.408 303.143,378.667 297.111,395.215 " fill="none" id="EmployeeList-to-Employee" style="stroke:#A80036;stroke-width:1.0;"/><polygon fill="#FFFFFF" points="292.488,407.898,298.3007,403.6304,296.597,396.6234,290.7843,400.891,292.488,407.898" style="stroke:#A80036;stroke-width:1.0;"/><text fill="#000000" font-family="sans-serif" font-size="13" lengthAdjust="spacing" textLength="8" x="303.2222" y="368.2145">1</text><text fill="#000000" font-family="sans-serif" font-size="13" lengthAdjust="spacing" textLength="7" x="287.9106" y="397.0069">*</text><!--MD5=[7c63a46d16d075ca7ac66937a2a499f7]
link RegisterEmployeeController to Employee--><path codeLine="28" d="M236.881,189.303 C228.706,206.826 220.108,228.462 216,249 C206.966,294.17 211.334,344.122 219.916,388.008 " fill="none" id="RegisterEmployeeController-to-Employee" style="stroke:#A80036;stroke-width:1.0;stroke-dasharray:7.0,7.0;"/><polygon fill="none" points="226.792,386.685,224.123,407.706,213.1,389.609,226.792,386.685" style="stroke:#A80036;stroke-width:1.0;"/><!--MD5=[d94ce10d1287d5d0e16343627b0be8dc]
link RegisterEmployeeController to EmployeeList--><path codeLine="29" d="M274.982,189.091 C281.659,201.786 289.392,216.489 296.967,230.891 " fill="none" id="RegisterEmployeeController-to-EmployeeList" style="stroke:#A80036;stroke-width:1.0;stroke-dasharray:7.0,7.0;"/><polygon fill="none" points="303.271,227.84,306.386,248.799,290.88,234.357,303.271,227.84" style="stroke:#A80036;stroke-width:1.0;"/><!--MD5=[3fd241ca11f270f6bde54c00b8a8581a]
link RegisterEmployeeUI to RegisterEmployeeController--><path codeLine="30" d="M256,55.227 C256,66.456 256,80.472 256,94.288 " fill="none" id="RegisterEmployeeUI-to-RegisterEmployeeController" style="stroke:#A80036;stroke-width:1.0;stroke-dasharray:7.0,7.0;"/><polygon fill="none" points="263,94.714,256,114.714,249,94.714,263,94.714" style="stroke:#A80036;stroke-width:1.0;"/><!--MD5=[0b72c028231b1ef9283215a74d02d987]
@startuml
Class "Employee"{
-String name
-String adress
-int tin
-int sex
-int dayOfBirth
-int monthOfBirth
-int yearOfBirth
-int phoneNumber
-User employee
+validateEmployee()
+Employee()
+toString()
}
Class "EmployeeList"{
+addEmployee(Employee)
+getEmployee(indexNumber)
+validateEmployee(Employee)
+saveEmployee(Employee)
}

Class "RegisterEmployeeController"{
+createEmployee(name,adress,sex,dayOfBirth,monthOfBirth,yearOfBirth,employee)
+saveEmployee()
}
Class "RegisterEmployeeUI"
EmployeeList"1" - -o "*" Employee
RegisterEmployeeController ..|> Employee 
RegisterEmployeeController ..|> EmployeeList
RegisterEmployeeUI ..|> RegisterEmployeeController
@enduml

PlantUML version 1.2021.5(Sun Apr 25 11:20:28 UTC 2021)
(GPL source distribution)
Java Runtime: Java(TM) SE Runtime Environment
JVM: Java HotSpot(TM) 64-Bit Server VM
Default Encoding: UTF-8
Language: en
Country: US
--></g></svg>