<?xml version="1.0" encoding="UTF-8" standalone="no"?><svg xmlns="http://www.w3.org/2000/svg" xmlns:xlink="http://www.w3.org/1999/xlink" contentScriptType="application/ecmascript" contentStyleType="text/css" height="440px" preserveAspectRatio="none" style="width:501px;height:440px;" version="1.1" viewBox="0 0 501 440" width="501px" zoomAndPan="magnify"><defs><filter height="300%" id="f1cmqr5fybpswk" width="300%" x="-1" y="-1"><feGaussianBlur result="blurOut" stdDeviation="2.0"/><feColorMatrix in="blurOut" result="blurOut2" type="matrix" values="0 0 0 0 0 0 0 0 0 0 0 0 0 0 0 0 0 0 .4 0"/><feOffset dx="4.0" dy="4.0" in="blurOut2" result="blurOut3"/><feBlend in="SourceGraphic" in2="blurOut3" mode="normal"/></filter></defs><g><rect fill="#FFFFFF" filter="url(#f1cmqr5fybpswk)" height="240.1953" style="stroke:#A80036;stroke-width:1.0;" width="10" x="53" y="98.2969"/><rect fill="#FFFFFF" filter="url(#f1cmqr5fybpswk)" height="29.1328" style="stroke:#A80036;stroke-width:1.0;" width="10" x="448" y="119.4297"/><rect fill="#FFFFFF" filter="url(#f1cmqr5fybpswk)" height="44.2656" style="stroke:#A80036;stroke-width:1.0;" width="10" x="448" y="177.6953"/><rect fill="#FFFFFF" filter="url(#f1cmqr5fybpswk)" height="29.1328" style="stroke:#A80036;stroke-width:1.0;" width="10" x="448" y="251.0938"/><rect fill="#FFFFFF" filter="url(#f1cmqr5fybpswk)" height="29.1328" style="stroke:#A80036;stroke-width:1.0;" width="10" x="448" y="309.3594"/><line style="stroke:#A80036;stroke-width:1.0;stroke-dasharray:5.0,5.0;" x1="58" x2="58" y1="88.2969" y2="356.4922"/><line style="stroke:#A80036;stroke-width:1.0;stroke-dasharray:5.0,5.0;" x1="452.5" x2="452.5" y1="88.2969" y2="356.4922"/><text fill="#000000" font-family="sans-serif" font-size="14" lengthAdjust="spacing" textLength="100" x="5" y="84.9951">Administrator</text><ellipse cx="58" cy="15" fill="#FEFECE" filter="url(#f1cmqr5fybpswk)" rx="8" ry="8" style="stroke:#A80036;stroke-width:2.0;"/><path d="M58,23 L58,50 M45,31 L71,31 M58,50 L45,65 M58,50 L71,65 " fill="none" filter="url(#f1cmqr5fybpswk)" style="stroke:#A80036;stroke-width:2.0;"/><text fill="#000000" font-family="sans-serif" font-size="14" lengthAdjust="spacing" textLength="100" x="5" y="368.4873">Administrator</text><ellipse cx="58" cy="381.7891" fill="#FEFECE" filter="url(#f1cmqr5fybpswk)" rx="8" ry="8" style="stroke:#A80036;stroke-width:2.0;"/><path d="M58,389.7891 L58,416.7891 M45,397.7891 L71,397.7891 M58,416.7891 L45,431.7891 M58,416.7891 L71,431.7891 " fill="none" filter="url(#f1cmqr5fybpswk)" style="stroke:#A80036;stroke-width:2.0;"/><rect fill="#FEFECE" filter="url(#f1cmqr5fybpswk)" height="30.2969" style="stroke:#A80036;stroke-width:1.5;" width="73" x="414.5" y="53"/><text fill="#000000" font-family="sans-serif" font-size="14" lengthAdjust="spacing" textLength="59" x="421.5" y="72.9951">:System</text><rect fill="#FEFECE" filter="url(#f1cmqr5fybpswk)" height="30.2969" style="stroke:#A80036;stroke-width:1.5;" width="73" x="414.5" y="355.4922"/><text fill="#000000" font-family="sans-serif" font-size="14" lengthAdjust="spacing" textLength="59" x="421.5" y="375.4873">:System</text><rect fill="#FFFFFF" filter="url(#f1cmqr5fybpswk)" height="240.1953" style="stroke:#A80036;stroke-width:1.0;" width="10" x="53" y="98.2969"/><rect fill="#FFFFFF" filter="url(#f1cmqr5fybpswk)" height="29.1328" style="stroke:#A80036;stroke-width:1.0;" width="10" x="448" y="119.4297"/><rect fill="#FFFFFF" filter="url(#f1cmqr5fybpswk)" height="44.2656" style="stroke:#A80036;stroke-width:1.0;" width="10" x="448" y="177.6953"/><rect fill="#FFFFFF" filter="url(#f1cmqr5fybpswk)" height="29.1328" style="stroke:#A80036;stroke-width:1.0;" width="10" x="448" y="251.0938"/><rect fill="#FFFFFF" filter="url(#f1cmqr5fybpswk)" height="29.1328" style="stroke:#A80036;stroke-width:1.0;" width="10" x="448" y="309.3594"/><polygon fill="#A80036" points="436,115.4297,446,119.4297,436,123.4297,440,119.4297" style="stroke:#A80036;stroke-width:1.0;"/><line style="stroke:#A80036;stroke-width:1.0;" x1="63" x2="442" y1="119.4297" y2="119.4297"/><text fill="#000000" font-family="sans-serif" font-size="13" font-weight="bold" lengthAdjust="spacing" textLength="9" x="70" y="114.3638">1</text><text fill="#000000" font-family="sans-serif" font-size="13" lengthAdjust="spacing" textLength="214" x="83" y="114.3638">asks to Register a new Employee</text><polygon fill="#A80036" points="74,144.5625,64,148.5625,74,152.5625,70,148.5625" style="stroke:#A80036;stroke-width:1.0;"/><line style="stroke:#A80036;stroke-width:1.0;stroke-dasharray:2.0,2.0;" x1="68" x2="452" y1="148.5625" y2="148.5625"/><text fill="#000000" font-family="sans-serif" font-size="13" font-weight="bold" lengthAdjust="spacing" textLength="9" x="80" y="143.4966">2</text><text fill="#000000" font-family="sans-serif" font-size="13" lengthAdjust="spacing" textLength="348" x="93" y="143.4966">shows possible Employee roles and asks to select one</text><polygon fill="#A80036" points="436,173.6953,446,177.6953,436,181.6953,440,177.6953" style="stroke:#A80036;stroke-width:1.0;"/><line style="stroke:#A80036;stroke-width:1.0;" x1="63" x2="442" y1="177.6953" y2="177.6953"/><text fill="#000000" font-family="sans-serif" font-size="13" font-weight="bold" lengthAdjust="spacing" textLength="8" x="70" y="172.6294">3</text><text fill="#000000" font-family="sans-serif" font-size="13" lengthAdjust="spacing" textLength="85" x="82" y="172.6294">selects a role</text><polygon fill="#A80036" points="74,217.9609,64,221.9609,74,225.9609,70,221.9609" style="stroke:#A80036;stroke-width:1.0;"/><line style="stroke:#A80036;stroke-width:1.0;stroke-dasharray:2.0,2.0;" x1="68" x2="452" y1="221.9609" y2="221.9609"/><text fill="#000000" font-family="sans-serif" font-size="13" font-weight="bold" lengthAdjust="spacing" textLength="9" x="80" y="209.3286">4</text><text fill="#000000" font-family="sans-serif" font-size="13" lengthAdjust="spacing" textLength="246" x="93" y="201.7622">requests data (ID, name,postal adress</text><text fill="#000000" font-family="sans-serif" font-size="13" lengthAdjust="spacing" textLength="210" x="97" y="216.895">email adress, SOCcode, orgRole)</text><polygon fill="#A80036" points="436,247.0938,446,251.0938,436,255.0938,440,251.0938" style="stroke:#A80036;stroke-width:1.0;"/><line style="stroke:#A80036;stroke-width:1.0;" x1="63" x2="442" y1="251.0938" y2="251.0938"/><text fill="#000000" font-family="sans-serif" font-size="13" font-weight="bold" lengthAdjust="spacing" textLength="9" x="70" y="246.0278">5</text><text fill="#000000" font-family="sans-serif" font-size="13" lengthAdjust="spacing" textLength="138" x="83" y="246.0278">types requested data</text><polygon fill="#A80036" points="74,276.2266,64,280.2266,74,284.2266,70,280.2266" style="stroke:#A80036;stroke-width:1.0;"/><line style="stroke:#A80036;stroke-width:1.0;stroke-dasharray:2.0,2.0;" x1="68" x2="452" y1="280.2266" y2="280.2266"/><text fill="#000000" font-family="sans-serif" font-size="13" font-weight="bold" lengthAdjust="spacing" textLength="9" x="80" y="275.1606">6</text><text fill="#000000" font-family="sans-serif" font-size="13" lengthAdjust="spacing" textLength="265" x="93" y="275.1606">shows all data and requests confirmation</text><polygon fill="#A80036" points="436,305.3594,446,309.3594,436,313.3594,440,309.3594" style="stroke:#A80036;stroke-width:1.0;"/><line style="stroke:#A80036;stroke-width:1.0;" x1="63" x2="442" y1="309.3594" y2="309.3594"/><text fill="#000000" font-family="sans-serif" font-size="13" font-weight="bold" lengthAdjust="spacing" textLength="9" x="70" y="304.2935">7</text><text fill="#000000" font-family="sans-serif" font-size="13" lengthAdjust="spacing" textLength="114" x="83" y="304.2935">confirms the data</text><polygon fill="#A80036" points="69,334.4922,59,338.4922,69,342.4922,65,338.4922" style="stroke:#A80036;stroke-width:1.0;"/><line style="stroke:#A80036;stroke-width:1.0;stroke-dasharray:2.0,2.0;" x1="63" x2="452" y1="338.4922" y2="338.4922"/><text fill="#000000" font-family="sans-serif" font-size="13" font-weight="bold" lengthAdjust="spacing" textLength="9" x="75" y="333.4263">8</text><text fill="#000000" font-family="sans-serif" font-size="13" lengthAdjust="spacing" textLength="169" x="88" y="333.4263">informs operation success</text><!--MD5=[44ca9efd9898800bb58249edc02362c0]
@startuml
autonumber
actor "Administrator" as A

activate A
A -> ":System" : asks to Register a new Employee
activate ":System"
":System" - -> A : shows possible Employee roles and asks to select one
deactivate ":System"

A -> ":System" : selects a role
activate ":System"
":System" - -> A : requests data (ID, name,postal adress\n email adress, SOCcode, orgRole)
deactivate ":System"

A -> ":System" : types requested data
activate ":System"
":System" - -> A : shows all data and requests confirmation
deactivate ":System"

A -> ":System" : confirms the data
activate ":System"
":System" - -> A : informs operation success
deactivate ":System"

deactivate A
@enduml

PlantUML version 1.2021.6beta2(Unknown compile time)
(GPL source distribution)
Java Runtime: Java(TM) SE Runtime Environment
JVM: Java HotSpot(TM) 64-Bit Server VM
Default Encoding: UTF-8
Language: en
Country: US
--></g></svg>