<?xml version="1.0" encoding="UTF-8" standalone="no"?><svg xmlns="http://www.w3.org/2000/svg" xmlns:xlink="http://www.w3.org/1999/xlink" contentScriptType="application/ecmascript" contentStyleType="text/css" height="1000px" preserveAspectRatio="none" style="width:556px;height:1000px;background:#FFFFFF;" version="1.1" viewBox="0 0 556 1000" width="556px" zoomAndPan="magnify"><defs><filter height="300%" id="f1ee90xdh5lwys" width="300%" x="-1" y="-1"><feGaussianBlur result="blurOut" stdDeviation="2.0"/><feColorMatrix in="blurOut" result="blurOut2" type="matrix" values="0 0 0 0 0 0 0 0 0 0 0 0 0 0 0 0 0 0 .4 0"/><feOffset dx="4.0" dy="4.0" in="blurOut2" result="blurOut3"/><feBlend in="SourceGraphic" in2="blurOut3" mode="normal"/></filter></defs><g><!--MD5=[2b8367ee8a196632b51868e08daef08d]
class Auth--><rect codeLine="3" fill="#FEFECE" filter="url(#f1ee90xdh5lwys)" height="73.6094" id="Auth" style="stroke:#A80036;stroke-width:1.5;" width="135" x="19.5" y="263"/><ellipse cx="69.75" cy="279" fill="#ADD1B2" rx="11" ry="11" style="stroke:#A80036;stroke-width:1.0;"/><path d="M72.0938,274.6719 C71.1563,274.2344 70.5625,274.0938 69.6875,274.0938 C67.0625,274.0938 65.0625,276.1719 65.0625,278.8906 L65.0625,280.0156 C65.0625,282.5938 67.1719,284.4844 70.0625,284.4844 C71.2813,284.4844 72.4375,284.1875 73.1875,283.6406 C73.7656,283.2344 74.0938,282.7813 74.0938,282.3906 C74.0938,281.9375 73.7031,281.5469 73.2344,281.5469 C73.0156,281.5469 72.8125,281.625 72.625,281.8125 C72.1719,282.2969 72.1719,282.2969 71.9844,282.3906 C71.5625,282.6563 70.875,282.7813 70.1094,282.7813 C68.0625,282.7813 66.7656,281.6875 66.7656,279.9844 L66.7656,278.8906 C66.7656,277.1094 68.0156,275.7969 69.75,275.7969 C70.3281,275.7969 70.9375,275.9531 71.4063,276.2031 C71.8906,276.4844 72.0625,276.7031 72.1563,277.1094 C72.2188,277.5156 72.25,277.6406 72.3906,277.7656 C72.5313,277.9063 72.7656,278.0156 72.9844,278.0156 C73.25,278.0156 73.5156,277.875 73.6875,277.6563 C73.7969,277.5 73.8281,277.3125 73.8281,276.8906 L73.8281,275.4688 C73.8281,275.0313 73.8125,274.9063 73.7188,274.75 C73.5625,274.4844 73.2813,274.3438 72.9844,274.3438 C72.6875,274.3438 72.4844,274.4375 72.2656,274.75 L72.0938,274.6719 Z " fill="#000000"/><text fill="#000000" font-family="sans-serif" font-size="12" lengthAdjust="spacing" textLength="26" x="90.25" y="283.1543">Auth</text><line style="stroke:#A80036;stroke-width:1.5;" x1="20.5" x2="153.5" y1="295" y2="295"/><line style="stroke:#A80036;stroke-width:1.5;" x1="20.5" x2="153.5" y1="303" y2="303"/><text fill="#000000" font-family="sans-serif" font-size="11" lengthAdjust="spacing" textLength="118" x="25.5" y="317.2104">+static getInstance()</text><text fill="#000000" font-family="sans-serif" font-size="11" lengthAdjust="spacing" textLength="123" x="25.5" y="330.0151">+getCurrentSession()</text><!--MD5=[c5b08e60048ef1bcd788d24cf324082e]
class UserSession--><rect codeLine="9" fill="#FEFECE" filter="url(#f1ee90xdh5lwys)" height="60.8047" id="UserSession" style="stroke:#A80036;stroke-width:1.5;" width="109" x="189.5" y="269.5"/><ellipse cx="204.5" cy="285.5" fill="#ADD1B2" rx="11" ry="11" style="stroke:#A80036;stroke-width:1.0;"/><path d="M206.8438,281.1719 C205.9063,280.7344 205.3125,280.5938 204.4375,280.5938 C201.8125,280.5938 199.8125,282.6719 199.8125,285.3906 L199.8125,286.5156 C199.8125,289.0938 201.9219,290.9844 204.8125,290.9844 C206.0313,290.9844 207.1875,290.6875 207.9375,290.1406 C208.5156,289.7344 208.8438,289.2813 208.8438,288.8906 C208.8438,288.4375 208.4531,288.0469 207.9844,288.0469 C207.7656,288.0469 207.5625,288.125 207.375,288.3125 C206.9219,288.7969 206.9219,288.7969 206.7344,288.8906 C206.3125,289.1563 205.625,289.2813 204.8594,289.2813 C202.8125,289.2813 201.5156,288.1875 201.5156,286.4844 L201.5156,285.3906 C201.5156,283.6094 202.7656,282.2969 204.5,282.2969 C205.0781,282.2969 205.6875,282.4531 206.1563,282.7031 C206.6406,282.9844 206.8125,283.2031 206.9063,283.6094 C206.9688,284.0156 207,284.1406 207.1406,284.2656 C207.2813,284.4063 207.5156,284.5156 207.7344,284.5156 C208,284.5156 208.2656,284.375 208.4375,284.1563 C208.5469,284 208.5781,283.8125 208.5781,283.3906 L208.5781,281.9688 C208.5781,281.5313 208.5625,281.4063 208.4688,281.25 C208.3125,280.9844 208.0313,280.8438 207.7344,280.8438 C207.4375,280.8438 207.2344,280.9375 207.0156,281.25 L206.8438,281.1719 Z " fill="#000000"/><text fill="#000000" font-family="sans-serif" font-size="12" lengthAdjust="spacing" textLength="77" x="218.5" y="289.6543">UserSession</text><line style="stroke:#A80036;stroke-width:1.5;" x1="190.5" x2="297.5" y1="301.5" y2="301.5"/><line style="stroke:#A80036;stroke-width:1.5;" x1="190.5" x2="297.5" y1="309.5" y2="309.5"/><text fill="#000000" font-family="sans-serif" font-size="11" lengthAdjust="spacing" textLength="93" x="195.5" y="323.7104">+getUserEmail()</text><!--MD5=[7421f545a0d8420c5bec41e74b387d9c]
class Employee--><rect codeLine="14" fill="#FEFECE" filter="url(#f1ee90xdh5lwys)" height="137.6328" id="Employee" style="stroke:#A80036;stroke-width:1.5;" width="334" x="61" y="685"/><ellipse cx="193.75" cy="701" fill="#ADD1B2" rx="11" ry="11" style="stroke:#A80036;stroke-width:1.0;"/><path d="M196.0938,696.6719 C195.1563,696.2344 194.5625,696.0938 193.6875,696.0938 C191.0625,696.0938 189.0625,698.1719 189.0625,700.8906 L189.0625,702.0156 C189.0625,704.5938 191.1719,706.4844 194.0625,706.4844 C195.2813,706.4844 196.4375,706.1875 197.1875,705.6406 C197.7656,705.2344 198.0938,704.7813 198.0938,704.3906 C198.0938,703.9375 197.7031,703.5469 197.2344,703.5469 C197.0156,703.5469 196.8125,703.625 196.625,703.8125 C196.1719,704.2969 196.1719,704.2969 195.9844,704.3906 C195.5625,704.6563 194.875,704.7813 194.1094,704.7813 C192.0625,704.7813 190.7656,703.6875 190.7656,701.9844 L190.7656,700.8906 C190.7656,699.1094 192.0156,697.7969 193.75,697.7969 C194.3281,697.7969 194.9375,697.9531 195.4063,698.2031 C195.8906,698.4844 196.0625,698.7031 196.1563,699.1094 C196.2188,699.5156 196.25,699.6406 196.3906,699.7656 C196.5313,699.9063 196.7656,700.0156 196.9844,700.0156 C197.25,700.0156 197.5156,699.875 197.6875,699.6563 C197.7969,699.5 197.8281,699.3125 197.8281,698.8906 L197.8281,697.4688 C197.8281,697.0313 197.8125,696.9063 197.7188,696.75 C197.5625,696.4844 197.2813,696.3438 196.9844,696.3438 C196.6875,696.3438 196.4844,696.4375 196.2656,696.75 L196.0938,696.6719 Z " fill="#000000"/><text fill="#000000" font-family="sans-serif" font-size="12" lengthAdjust="spacing" textLength="60" x="214.25" y="705.1543">Employee</text><line style="stroke:#A80036;stroke-width:1.5;" x1="62" x2="394" y1="717" y2="717"/><text fill="#000000" font-family="sans-serif" font-size="11" lengthAdjust="spacing" textLength="53" x="67" y="731.2104">-String ID</text><text fill="#000000" font-family="sans-serif" font-size="11" lengthAdjust="spacing" textLength="74" x="67" y="744.0151">-String name</text><text fill="#000000" font-family="sans-serif" font-size="11" lengthAdjust="spacing" textLength="79" x="67" y="756.8198">-String adress</text><text fill="#000000" font-family="sans-serif" font-size="11" lengthAdjust="spacing" textLength="72" x="67" y="769.6245">-String Email</text><text fill="#000000" font-family="sans-serif" font-size="11" lengthAdjust="spacing" textLength="103" x="67" y="782.4292">-int phoneNumber</text><text fill="#000000" font-family="sans-serif" font-size="11" lengthAdjust="spacing" textLength="73" x="67" y="795.2339">-int SocCode</text><line style="stroke:#A80036;stroke-width:1.5;" x1="62" x2="394" y1="801.8281" y2="801.8281"/><text fill="#000000" font-family="sans-serif" font-size="11" lengthAdjust="spacing" textLength="322" x="67" y="816.0386">+Employee(name,adress,phoneNumber,email,SocCode)</text><!--MD5=[02e4b9b7573f1156f41e60aa5b4e25a4]
class Company--><rect codeLine="25" fill="#FEFECE" filter="url(#f1ee90xdh5lwys)" height="73.6094" id="Company" style="stroke:#A80036;stroke-width:1.5;" width="151" x="333.5" y="263"/><ellipse cx="376.85" cy="279" fill="#ADD1B2" rx="11" ry="11" style="stroke:#A80036;stroke-width:1.0;"/><path d="M379.1938,274.6719 C378.2563,274.2344 377.6625,274.0938 376.7875,274.0938 C374.1625,274.0938 372.1625,276.1719 372.1625,278.8906 L372.1625,280.0156 C372.1625,282.5938 374.2719,284.4844 377.1625,284.4844 C378.3813,284.4844 379.5375,284.1875 380.2875,283.6406 C380.8656,283.2344 381.1938,282.7813 381.1938,282.3906 C381.1938,281.9375 380.8031,281.5469 380.3344,281.5469 C380.1156,281.5469 379.9125,281.625 379.725,281.8125 C379.2719,282.2969 379.2719,282.2969 379.0844,282.3906 C378.6625,282.6563 377.975,282.7813 377.2094,282.7813 C375.1625,282.7813 373.8656,281.6875 373.8656,279.9844 L373.8656,278.8906 C373.8656,277.1094 375.1156,275.7969 376.85,275.7969 C377.4281,275.7969 378.0375,275.9531 378.5063,276.2031 C378.9906,276.4844 379.1625,276.7031 379.2563,277.1094 C379.3188,277.5156 379.35,277.6406 379.4906,277.7656 C379.6313,277.9063 379.8656,278.0156 380.0844,278.0156 C380.35,278.0156 380.6156,277.875 380.7875,277.6563 C380.8969,277.5 380.9281,277.3125 380.9281,276.8906 L380.9281,275.4688 C380.9281,275.0313 380.9125,274.9063 380.8188,274.75 C380.6625,274.4844 380.3813,274.3438 380.0844,274.3438 C379.7875,274.3438 379.5844,274.4375 379.3656,274.75 L379.1938,274.6719 Z " fill="#000000"/><text fill="#000000" font-family="sans-serif" font-size="12" lengthAdjust="spacing" textLength="56" x="397.15" y="283.1543">Company</text><line style="stroke:#A80036;stroke-width:1.5;" x1="334.5" x2="483.5" y1="295" y2="295"/><text fill="#000000" font-family="sans-serif" font-size="11" lengthAdjust="spacing" textLength="107" x="339.5" y="309.2104">-String designation</text><line style="stroke:#A80036;stroke-width:1.5;" x1="334.5" x2="483.5" y1="315.8047" y2="315.8047"/><text fill="#000000" font-family="sans-serif" font-size="11" lengthAdjust="spacing" textLength="139" x="339.5" y="330.0151">+Company(Designation)</text><!--MD5=[9121ef690ad32930c1f4f5c3ecfc457c]
class EmployeeList--><rect codeLine="30" fill="#FEFECE" filter="url(#f1ee90xdh5lwys)" height="112.0234" id="EmployeeList" style="stroke:#A80036;stroke-width:1.5;" width="414" x="7" y="414"/><ellipse cx="169.75" cy="430" fill="#ADD1B2" rx="11" ry="11" style="stroke:#A80036;stroke-width:1.0;"/><path d="M172.0938,425.6719 C171.1563,425.2344 170.5625,425.0938 169.6875,425.0938 C167.0625,425.0938 165.0625,427.1719 165.0625,429.8906 L165.0625,431.0156 C165.0625,433.5938 167.1719,435.4844 170.0625,435.4844 C171.2813,435.4844 172.4375,435.1875 173.1875,434.6406 C173.7656,434.2344 174.0938,433.7813 174.0938,433.3906 C174.0938,432.9375 173.7031,432.5469 173.2344,432.5469 C173.0156,432.5469 172.8125,432.625 172.625,432.8125 C172.1719,433.2969 172.1719,433.2969 171.9844,433.3906 C171.5625,433.6563 170.875,433.7813 170.1094,433.7813 C168.0625,433.7813 166.7656,432.6875 166.7656,430.9844 L166.7656,429.8906 C166.7656,428.1094 168.0156,426.7969 169.75,426.7969 C170.3281,426.7969 170.9375,426.9531 171.4063,427.2031 C171.8906,427.4844 172.0625,427.7031 172.1563,428.1094 C172.2188,428.5156 172.25,428.6406 172.3906,428.7656 C172.5313,428.9063 172.7656,429.0156 172.9844,429.0156 C173.25,429.0156 173.5156,428.875 173.6875,428.6563 C173.7969,428.5 173.8281,428.3125 173.8281,427.8906 L173.8281,426.4688 C173.8281,426.0313 173.8125,425.9063 173.7188,425.75 C173.5625,425.4844 173.2813,425.3438 172.9844,425.3438 C172.6875,425.3438 172.4844,425.4375 172.2656,425.75 L172.0938,425.6719 Z " fill="#000000"/><text fill="#000000" font-family="sans-serif" font-size="12" lengthAdjust="spacing" textLength="80" x="190.25" y="434.1543">EmployeeList</text><line style="stroke:#A80036;stroke-width:1.5;" x1="8" x2="420" y1="446" y2="446"/><text fill="#000000" font-family="sans-serif" font-size="11" lengthAdjust="spacing" textLength="194" x="13" y="460.2104">-ArrayList&lt;Employee&gt; lEmployee</text><line style="stroke:#A80036;stroke-width:1.5;" x1="8" x2="420" y1="466.8047" y2="466.8047"/><text fill="#000000" font-family="sans-serif" font-size="11" lengthAdjust="spacing" textLength="402" x="13" y="481.0151">+createEmployee(name,adress,phoneNumber,emailAdress,SOCCode)</text><text fill="#000000" font-family="sans-serif" font-size="11" lengthAdjust="spacing" textLength="129" x="13" y="493.8198">+saveEmployee(emp)</text><text fill="#000000" font-family="sans-serif" font-size="11" lengthAdjust="spacing" textLength="117" x="13" y="506.6245">-addEmployee(emp)</text><text fill="#000000" font-family="sans-serif" font-size="11" lengthAdjust="spacing" textLength="142" x="13" y="519.4292">-validateEmployee(emp)</text><!--MD5=[a3638c1e5b65d287ecad7f06f5c0f212]
class Role--><rect codeLine="39" fill="#FEFECE" filter="url(#f1ee90xdh5lwys)" height="86.4141" id="Role" style="stroke:#A80036;stroke-width:1.5;" width="139" x="315.5" y="900"/><ellipse cx="367.75" cy="916" fill="#ADD1B2" rx="11" ry="11" style="stroke:#A80036;stroke-width:1.0;"/><path d="M370.0938,911.6719 C369.1563,911.2344 368.5625,911.0938 367.6875,911.0938 C365.0625,911.0938 363.0625,913.1719 363.0625,915.8906 L363.0625,917.0156 C363.0625,919.5938 365.1719,921.4844 368.0625,921.4844 C369.2813,921.4844 370.4375,921.1875 371.1875,920.6406 C371.7656,920.2344 372.0938,919.7813 372.0938,919.3906 C372.0938,918.9375 371.7031,918.5469 371.2344,918.5469 C371.0156,918.5469 370.8125,918.625 370.625,918.8125 C370.1719,919.2969 370.1719,919.2969 369.9844,919.3906 C369.5625,919.6563 368.875,919.7813 368.1094,919.7813 C366.0625,919.7813 364.7656,918.6875 364.7656,916.9844 L364.7656,915.8906 C364.7656,914.1094 366.0156,912.7969 367.75,912.7969 C368.3281,912.7969 368.9375,912.9531 369.4063,913.2031 C369.8906,913.4844 370.0625,913.7031 370.1563,914.1094 C370.2188,914.5156 370.25,914.6406 370.3906,914.7656 C370.5313,914.9063 370.7656,915.0156 370.9844,915.0156 C371.25,915.0156 371.5156,914.875 371.6875,914.6563 C371.7969,914.5 371.8281,914.3125 371.8281,913.8906 L371.8281,912.4688 C371.8281,912.0313 371.8125,911.9063 371.7188,911.75 C371.5625,911.4844 371.2813,911.3438 370.9844,911.3438 C370.6875,911.3438 370.4844,911.4375 370.2656,911.75 L370.0938,911.6719 Z " fill="#000000"/><text fill="#000000" font-family="sans-serif" font-size="12" lengthAdjust="spacing" textLength="26" x="388.25" y="920.1543">Role</text><line style="stroke:#A80036;stroke-width:1.5;" x1="316.5" x2="453.5" y1="932" y2="932"/><text fill="#000000" font-family="sans-serif" font-size="11" lengthAdjust="spacing" textLength="127" x="321.5" y="946.2104">-String roleDescription</text><text fill="#000000" font-family="sans-serif" font-size="11" lengthAdjust="spacing" textLength="73" x="321.5" y="959.0151">-String roleId</text><line style="stroke:#A80036;stroke-width:1.5;" x1="316.5" x2="453.5" y1="965.6094" y2="965.6094"/><text fill="#000000" font-family="sans-serif" font-size="11" lengthAdjust="spacing" textLength="119" x="321.5" y="979.8198">+role(roleDes,roleId)</text><!--MD5=[6a4e699b59c2ecf8286aba2faa72e4bd]
class RegisterEmployeeController--><rect codeLine="46" fill="#FEFECE" filter="url(#f1ee90xdh5lwys)" height="86.4141" id="RegisterEmployeeController" style="stroke:#A80036;stroke-width:1.5;" width="201" x="143.5" y="116"/><ellipse cx="158.5" cy="132" fill="#ADD1B2" rx="11" ry="11" style="stroke:#A80036;stroke-width:1.0;"/><path d="M160.8438,127.6719 C159.9063,127.2344 159.3125,127.0938 158.4375,127.0938 C155.8125,127.0938 153.8125,129.1719 153.8125,131.8906 L153.8125,133.0156 C153.8125,135.5938 155.9219,137.4844 158.8125,137.4844 C160.0313,137.4844 161.1875,137.1875 161.9375,136.6406 C162.5156,136.2344 162.8438,135.7813 162.8438,135.3906 C162.8438,134.9375 162.4531,134.5469 161.9844,134.5469 C161.7656,134.5469 161.5625,134.625 161.375,134.8125 C160.9219,135.2969 160.9219,135.2969 160.7344,135.3906 C160.3125,135.6563 159.625,135.7813 158.8594,135.7813 C156.8125,135.7813 155.5156,134.6875 155.5156,132.9844 L155.5156,131.8906 C155.5156,130.1094 156.7656,128.7969 158.5,128.7969 C159.0781,128.7969 159.6875,128.9531 160.1563,129.2031 C160.6406,129.4844 160.8125,129.7031 160.9063,130.1094 C160.9688,130.5156 161,130.6406 161.1406,130.7656 C161.2813,130.9063 161.5156,131.0156 161.7344,131.0156 C162,131.0156 162.2656,130.875 162.4375,130.6563 C162.5469,130.5 162.5781,130.3125 162.5781,129.8906 L162.5781,128.4688 C162.5781,128.0313 162.5625,127.9063 162.4688,127.75 C162.3125,127.4844 162.0313,127.3438 161.7344,127.3438 C161.4375,127.3438 161.2344,127.4375 161.0156,127.75 L160.8438,127.6719 Z " fill="#000000"/><text fill="#000000" font-family="sans-serif" font-size="12" lengthAdjust="spacing" textLength="169" x="172.5" y="136.1543">RegisterEmployeeController</text><line style="stroke:#A80036;stroke-width:1.5;" x1="144.5" x2="343.5" y1="148" y2="148"/><line style="stroke:#A80036;stroke-width:1.5;" x1="144.5" x2="343.5" y1="156" y2="156"/><text fill="#000000" font-family="sans-serif" font-size="11" lengthAdjust="spacing" textLength="67" x="149.5" y="170.2104">+getRoles()</text><text fill="#000000" font-family="sans-serif" font-size="11" lengthAdjust="spacing" textLength="158" x="149.5" y="183.0151">+createEmployee(empDto)</text><text fill="#000000" font-family="sans-serif" font-size="11" lengthAdjust="spacing" textLength="103" x="149.5" y="195.8198">+saveEmployee()</text><!--MD5=[e0606bd3b8dc31fda2827df8d9b76b7a]
class lRoles--><rect codeLine="53" fill="#FEFECE" filter="url(#f1ee90xdh5lwys)" height="99.2188" id="lRoles" style="stroke:#A80036;stroke-width:1.5;" width="141" x="401.5" y="556"/><ellipse cx="449.75" cy="572" fill="#ADD1B2" rx="11" ry="11" style="stroke:#A80036;stroke-width:1.0;"/><path d="M452.0938,567.6719 C451.1563,567.2344 450.5625,567.0938 449.6875,567.0938 C447.0625,567.0938 445.0625,569.1719 445.0625,571.8906 L445.0625,573.0156 C445.0625,575.5938 447.1719,577.4844 450.0625,577.4844 C451.2813,577.4844 452.4375,577.1875 453.1875,576.6406 C453.7656,576.2344 454.0938,575.7813 454.0938,575.3906 C454.0938,574.9375 453.7031,574.5469 453.2344,574.5469 C453.0156,574.5469 452.8125,574.625 452.625,574.8125 C452.1719,575.2969 452.1719,575.2969 451.9844,575.3906 C451.5625,575.6563 450.875,575.7813 450.1094,575.7813 C448.0625,575.7813 446.7656,574.6875 446.7656,572.9844 L446.7656,571.8906 C446.7656,570.1094 448.0156,568.7969 449.75,568.7969 C450.3281,568.7969 450.9375,568.9531 451.4063,569.2031 C451.8906,569.4844 452.0625,569.7031 452.1563,570.1094 C452.2188,570.5156 452.25,570.6406 452.3906,570.7656 C452.5313,570.9063 452.7656,571.0156 452.9844,571.0156 C453.25,571.0156 453.5156,570.875 453.6875,570.6563 C453.7969,570.5 453.8281,570.3125 453.8281,569.8906 L453.8281,568.4688 C453.8281,568.0313 453.8125,567.9063 453.7188,567.75 C453.5625,567.4844 453.2813,567.3438 452.9844,567.3438 C452.6875,567.3438 452.4844,567.4375 452.2656,567.75 L452.0938,567.6719 Z " fill="#000000"/><text fill="#000000" font-family="sans-serif" font-size="12" lengthAdjust="spacing" textLength="36" x="470.25" y="576.1543">lRoles</text><line style="stroke:#A80036;stroke-width:1.5;" x1="402.5" x2="541.5" y1="588" y2="588"/><text fill="#000000" font-family="sans-serif" font-size="11" lengthAdjust="spacing" textLength="129" x="407.5" y="602.2104">-ArrayList &lt;role&gt; lRole</text><line style="stroke:#A80036;stroke-width:1.5;" x1="402.5" x2="541.5" y1="608.8047" y2="608.8047"/><text fill="#000000" font-family="sans-serif" font-size="11" lengthAdjust="spacing" textLength="85" x="407.5" y="623.0151">+addRole(role)</text><text fill="#000000" font-family="sans-serif" font-size="11" lengthAdjust="spacing" textLength="92" x="407.5" y="635.8198">+saveRole(role)</text><text fill="#000000" font-family="sans-serif" font-size="11" lengthAdjust="spacing" textLength="110" x="407.5" y="648.6245">+validateRole(role)</text><!--MD5=[a126dd63c8621c017159ae62771fbe54]
class RegisterEmployeeUI--><rect codeLine="59" fill="#FEFECE" filter="url(#f1ee90xdh5lwys)" height="48" id="RegisterEmployeeUI" style="stroke:#A80036;stroke-width:1.5;" width="154" x="167" y="7"/><ellipse cx="182" cy="23" fill="#ADD1B2" rx="11" ry="11" style="stroke:#A80036;stroke-width:1.0;"/><path d="M184.3438,18.6719 C183.4063,18.2344 182.8125,18.0938 181.9375,18.0938 C179.3125,18.0938 177.3125,20.1719 177.3125,22.8906 L177.3125,24.0156 C177.3125,26.5938 179.4219,28.4844 182.3125,28.4844 C183.5313,28.4844 184.6875,28.1875 185.4375,27.6406 C186.0156,27.2344 186.3438,26.7813 186.3438,26.3906 C186.3438,25.9375 185.9531,25.5469 185.4844,25.5469 C185.2656,25.5469 185.0625,25.625 184.875,25.8125 C184.4219,26.2969 184.4219,26.2969 184.2344,26.3906 C183.8125,26.6563 183.125,26.7813 182.3594,26.7813 C180.3125,26.7813 179.0156,25.6875 179.0156,23.9844 L179.0156,22.8906 C179.0156,21.1094 180.2656,19.7969 182,19.7969 C182.5781,19.7969 183.1875,19.9531 183.6563,20.2031 C184.1406,20.4844 184.3125,20.7031 184.4063,21.1094 C184.4688,21.5156 184.5,21.6406 184.6406,21.7656 C184.7813,21.9063 185.0156,22.0156 185.2344,22.0156 C185.5,22.0156 185.7656,21.875 185.9375,21.6563 C186.0469,21.5 186.0781,21.3125 186.0781,20.8906 L186.0781,19.4688 C186.0781,19.0313 186.0625,18.9063 185.9688,18.75 C185.8125,18.4844 185.5313,18.3438 185.2344,18.3438 C184.9375,18.3438 184.7344,18.4375 184.5156,18.75 L184.3438,18.6719 Z " fill="#000000"/><text fill="#000000" font-family="sans-serif" font-size="12" lengthAdjust="spacing" textLength="122" x="196" y="27.1543">RegisterEmployeeUI</text><line style="stroke:#A80036;stroke-width:1.5;" x1="168" x2="320" y1="39" y2="39"/><line style="stroke:#A80036;stroke-width:1.5;" x1="168" x2="320" y1="47" y2="47"/><!--MD5=[3fd241ca11f270f6bde54c00b8a8581a]
link RegisterEmployeeUI to RegisterEmployeeController--><path codeLine="63" d="M244,55.11 C244,70.631 244,91.639 244,110.625 " fill="none" id="RegisterEmployeeUI-to-RegisterEmployeeController" style="stroke:#A80036;stroke-width:1.0;stroke-dasharray:7.0,7.0;"/><polygon fill="#A80036" points="244,115.921,248,106.921,244,110.921,240,106.921,244,115.921" style="stroke:#A80036;stroke-width:1.0;"/><!--MD5=[c381b4a324b26b9090a5b154f0f873f4]
link RegisterEmployeeController to Auth--><path codeLine="64" d="M196.469,202.082 C175.908,220.285 151.972,241.477 131.735,259.394 " fill="none" id="RegisterEmployeeController-to-Auth" style="stroke:#A80036;stroke-width:1.0;stroke-dasharray:7.0,7.0;"/><polygon fill="#A80036" points="127.739,262.932,137.1294,259.962,131.483,259.618,131.8269,253.9716,127.739,262.932" style="stroke:#A80036;stroke-width:1.0;"/><!--MD5=[05d3f7653ac06d8db0ef91b4517c77fc]
link RegisterEmployeeController to UserSession--><path codeLine="67" d="M244,202.082 C244,221.948 244,245.374 244,264.218 " fill="none" id="RegisterEmployeeController-to-UserSession" style="stroke:#A80036;stroke-width:1.0;stroke-dasharray:7.0,7.0;"/><polygon fill="#A80036" points="244,269.405,248,260.405,244,264.405,240,260.405,244,269.405" style="stroke:#A80036;stroke-width:1.0;"/><!--MD5=[969ee03aa52aee79b0e607297418cbd4]
link RegisterEmployeeController to Company--><path codeLine="68" d="M293.953,202.082 C315.652,220.361 340.927,241.654 362.252,259.618 " fill="none" id="RegisterEmployeeController-to-Company" style="stroke:#A80036;stroke-width:1.0;stroke-dasharray:7.0,7.0;"/><polygon fill="#A80036" points="366.186,262.932,361.8797,254.0745,362.3619,259.7107,356.7257,260.193,366.186,262.932" style="stroke:#A80036;stroke-width:1.0;"/><!--MD5=[ffab42d7305e6830f0674a21f59219d7]
link Employee to Role--><path codeLine="69" d="M285.125,823.04 C305.429,847.225 327.799,873.869 346.212,895.8002 " fill="none" id="Employee-to-Role" style="stroke:#A80036;stroke-width:1.0;"/><polygon fill="#A80036" points="349.603,899.8387,346.8803,890.3737,346.3883,896.0091,340.7529,895.5171,349.603,899.8387" style="stroke:#A80036;stroke-width:1.0;"/><text fill="#000000" font-family="sans-serif" font-size="13" lengthAdjust="spacing" textLength="61" x="322" y="866.0669">has/plays</text><text fill="#000000" font-family="sans-serif" font-size="13" lengthAdjust="spacing" textLength="8" x="282.3545" y="842.6659">1</text><text fill="#000000" font-family="sans-serif" font-size="13" lengthAdjust="spacing" textLength="8" x="335.3241" y="888.8094">1</text><!--MD5=[546bda9e8135c97a36a2cdab053254af]
link Company to EmployeeList--><path codeLine="73" d="M367.168,337.04 C342.32,358.447 310.219,386.104 281.828,410.563 " fill="none" id="Company-to-EmployeeList" style="stroke:#A80036;stroke-width:1.0;"/><polygon fill="#A80036" points="278.028,413.838,287.4572,410.9936,281.8159,410.5743,282.2353,404.933,278.028,413.838" style="stroke:#A80036;stroke-width:1.0;"/><text fill="#000000" font-family="sans-serif" font-size="13" lengthAdjust="spacing" textLength="34" x="330" y="380.0669">owns</text><text fill="#000000" font-family="sans-serif" font-size="13" lengthAdjust="spacing" textLength="8" x="351.2906" y="356.8072">1</text><text fill="#000000" font-family="sans-serif" font-size="13" lengthAdjust="spacing" textLength="8" x="277.7191" y="402.7552">1</text><!--MD5=[a92c17cdf5b4c59355f8dca3c0c68833]
link EmployeeList to Employee--><path codeLine="74" d="M216.733,526.042 C218.909,569.886 221.976,631.661 224.361,679.694 " fill="none" id="EmployeeList-to-Employee" style="stroke:#A80036;stroke-width:1.0;"/><polygon fill="#A80036" points="224.619,684.888,228.1665,675.7002,224.3704,679.8942,220.1764,676.098,224.619,684.888" style="stroke:#A80036;stroke-width:1.0;"/><text fill="#000000" font-family="sans-serif" font-size="13" lengthAdjust="spacing" textLength="54" x="225" y="610.0669">contains</text><text fill="#000000" font-family="sans-serif" font-size="13" lengthAdjust="spacing" textLength="8" x="208.5707" y="546.2572">1</text><text fill="#000000" font-family="sans-serif" font-size="13" lengthAdjust="spacing" textLength="7" x="216.9094" y="674.0801">*</text><!--MD5=[501f865721c91b538b92ae496d625403]
link Company to lRoles--><path codeLine="75" d="M419.03,337.223 C424.963,359.311 432.389,388.171 438,414 C447.965,459.872 457.181,512.42 463.497,550.692 " fill="none" id="Company-to-lRoles" style="stroke:#A80036;stroke-width:1.0;"/><polygon fill="#A80036" points="464.33,555.758,466.8188,546.2288,463.5198,550.8241,458.9245,547.5251,464.33,555.758" style="stroke:#A80036;stroke-width:1.0;"/><text fill="#000000" font-family="sans-serif" font-size="13" lengthAdjust="spacing" textLength="34" x="432" y="380.0669">owns</text><text fill="#000000" font-family="sans-serif" font-size="13" lengthAdjust="spacing" textLength="8" x="412.0287" y="356.7405">1</text><text fill="#000000" font-family="sans-serif" font-size="13" lengthAdjust="spacing" textLength="8" x="454.6889" y="544.7692">1</text><!--MD5=[5c0a9a6d0d345cf9172bf89b95805c73]
link lRoles to Role--><path codeLine="76" d="M459.349,655.285 C442.7,719.492 413.627,831.607 397.203,894.9418 " fill="none" id="lRoles-to-Role" style="stroke:#A80036;stroke-width:1.0;"/><polygon fill="#A80036" points="395.945,899.7908,402.0761,892.0831,397.2001,894.9509,394.3323,890.0749,395.945,899.7908" style="stroke:#A80036;stroke-width:1.0;"/><text fill="#000000" font-family="sans-serif" font-size="13" lengthAdjust="spacing" textLength="54" x="453" y="758.5669">contains</text><text fill="#000000" font-family="sans-serif" font-size="13" lengthAdjust="spacing" textLength="8" x="449.0075" y="675.4016">1</text><text fill="#000000" font-family="sans-serif" font-size="13" lengthAdjust="spacing" textLength="7" x="390.085" y="889.0715">*</text><!--MD5=[838eece5d41c6654847c5c506300d2b8]
@startuml
skinparam classAttributeIconSize 0

class Auth
{
  +static getInstance()
  +getCurrentSession()
}

class UserSession
{
  +getUserEmail()
}

class Employee {
  -String ID
  -String name
  -String adress
  -String Email
  -int phoneNumber
  -int SocCode
  +Employee(name,adress,phoneNumber,email,SocCode)
}


class Company {
  -String designation
  +Company(Designation)
 
}
Class EmployeeList{
-ArrayList<Employee> lEmployee
+createEmployee(name,adress,phoneNumber,emailAdress,SOCCode)
  +saveEmployee(emp)
  -addEmployee(emp)
  -validateEmployee(emp)
}


class Role {
  -String roleDescription
  -String roleId
  +role(roleDes,roleId)
}


class RegisterEmployeeController{
  +getRoles()
  +createEmployee(empDto)
  +saveEmployee()
}


Class lRoles{
-ArrayList <role> lRole
+addRole(role)
+saveRole(role)
+validateRole(role)
}
class RegisterEmployeeUI {

}

RegisterEmployeeUI ..> RegisterEmployeeController
RegisterEmployeeController ..> Auth


RegisterEmployeeController ..> UserSession
RegisterEmployeeController ..> Company
Employee "1" - -> "1" Role : has/plays



Company "1" - -> "1" EmployeeList: owns
EmployeeList "1" - -> "*" Employee: contains
Company "1" - -> "1" lRoles: owns
lRoles "1" - -> "*" Role: contains
@enduml

PlantUML version 1.2021.6beta6(Unknown compile time)
(GPL source distribution)
Java Runtime: Java(TM) SE Runtime Environment
JVM: Java HotSpot(TM) 64-Bit Server VM
Default Encoding: UTF-8
Language: en
Country: US
--></g></svg>