<?xml version="1.0" encoding="UTF-8" standalone="no"?><svg xmlns="http://www.w3.org/2000/svg" xmlns:xlink="http://www.w3.org/1999/xlink" contentScriptType="application/ecmascript" contentStyleType="text/css" height="1041px" preserveAspectRatio="none" style="width:2349px;height:1041px;" version="1.1" viewBox="0 0 2349 1041" width="2349px" zoomAndPan="magnify"><defs><filter height="300%" id="flwjfvol7r5w7" width="300%" x="-1" y="-1"><feGaussianBlur result="blurOut" stdDeviation="2.0"/><feColorMatrix in="blurOut" result="blurOut2" type="matrix" values="0 0 0 0 0 0 0 0 0 0 0 0 0 0 0 0 0 0 .4 0"/><feOffset dx="4.0" dy="4.0" in="blurOut2" result="blurOut3"/><feBlend in="SourceGraphic" in2="blurOut3" mode="normal"/></filter></defs><g><rect fill="#FFFFFF" filter="url(#flwjfvol7r5w7)" height="841.3828" style="stroke:#A80036;stroke-width:1.0;" width="10" x="53" y="98.2969"/><rect fill="#FFFFFF" filter="url(#flwjfvol7r5w7)" height="29.1328" style="stroke:#A80036;stroke-width:1.0;" width="10" x="447" y="119.4297"/><rect fill="#FFFFFF" filter="url(#flwjfvol7r5w7)" height="176.5313" style="stroke:#A80036;stroke-width:1.0;" width="10" x="447" y="177.6953"/><rect fill="#FFFFFF" filter="url(#flwjfvol7r5w7)" height="355.5234" style="stroke:#A80036;stroke-width:1.0;" width="10" x="447" y="383.3594"/><rect fill="#FFFFFF" filter="url(#flwjfvol7r5w7)" height="171.6641" style="stroke:#A80036;stroke-width:1.0;" width="10" x="447" y="768.0156"/><rect fill="#FFFFFF" filter="url(#flwjfvol7r5w7)" height="118.2656" style="stroke:#A80036;stroke-width:1.0;" width="10" x="860" y="206.8281"/><rect fill="#FFFFFF" filter="url(#flwjfvol7r5w7)" height="297.2578" style="stroke:#A80036;stroke-width:1.0;" width="10" x="860" y="412.4922"/><rect fill="#FFFFFF" filter="url(#flwjfvol7r5w7)" height="142.5313" style="stroke:#A80036;stroke-width:1.0;" width="10" x="860" y="797.1484"/><rect fill="#FFFFFF" filter="url(#flwjfvol7r5w7)" height="30" style="stroke:#A80036;stroke-width:1.0;" width="10" x="1118" y="235.9609"/><rect fill="#FFFFFF" filter="url(#flwjfvol7r5w7)" height="30" style="stroke:#A80036;stroke-width:1.0;" width="10" x="1118" y="500.7578"/><rect fill="#FFFFFF" filter="url(#flwjfvol7r5w7)" height="30" style="stroke:#A80036;stroke-width:1.0;" width="10" x="1322" y="295.0938"/><rect fill="#FFFFFF" filter="url(#flwjfvol7r5w7)" height="30" style="stroke:#A80036;stroke-width:1.0;" width="10" x="1322" y="441.625"/><rect fill="#FFFFFF" filter="url(#flwjfvol7r5w7)" height="29.1328" style="stroke:#A80036;stroke-width:1.0;" width="10" x="1499" y="559.8906"/><rect fill="#FFFFFF" filter="url(#flwjfvol7r5w7)" height="30" style="stroke:#A80036;stroke-width:1.0;" width="10" x="1499" y="650.6172"/><rect fill="#FFFFFF" filter="url(#flwjfvol7r5w7)" height="113.3984" style="stroke:#A80036;stroke-width:1.0;" width="10" x="1499" y="826.2813"/><line style="stroke:#A80036;stroke-width:1.0;stroke-dasharray:5.0,5.0;" x1="58" x2="58" y1="88.2969" y2="957.6797"/><line style="stroke:#A80036;stroke-width:1.0;stroke-dasharray:5.0,5.0;" x1="452" x2="452" y1="88.2969" y2="957.6797"/><line style="stroke:#A80036;stroke-width:1.0;stroke-dasharray:5.0,5.0;" x1="865" x2="865" y1="88.2969" y2="957.6797"/><line style="stroke:#A80036;stroke-width:1.0;stroke-dasharray:5.0,5.0;" x1="1122.5" x2="1122.5" y1="88.2969" y2="957.6797"/><line style="stroke:#A80036;stroke-width:1.0;stroke-dasharray:5.0,5.0;" x1="1327" x2="1327" y1="88.2969" y2="957.6797"/><line style="stroke:#A80036;stroke-width:1.0;stroke-dasharray:5.0,5.0;" x1="1504" x2="1504" y1="88.2969" y2="957.6797"/><line style="stroke:#A80036;stroke-width:1.0;stroke-dasharray:5.0,5.0;" x1="1904" x2="1904" y1="608.6875" y2="957.6797"/><line style="stroke:#A80036;stroke-width:1.0;stroke-dasharray:5.0,5.0;" x1="2041" x2="2041" y1="88.2969" y2="957.6797"/><line style="stroke:#A80036;stroke-width:1.0;stroke-dasharray:5.0,5.0;" x1="2235" x2="2235" y1="88.2969" y2="957.6797"/><text fill="#000000" font-family="sans-serif" font-size="14" lengthAdjust="spacing" textLength="100" x="5" y="84.9951">Administrator</text><ellipse cx="58" cy="15" fill="#FEFECE" filter="url(#flwjfvol7r5w7)" rx="8" ry="8" style="stroke:#A80036;stroke-width:2.0;"/><path d="M58,23 L58,50 M45,31 L71,31 M58,50 L45,65 M58,50 L71,65 " fill="none" filter="url(#flwjfvol7r5w7)" style="stroke:#A80036;stroke-width:2.0;"/><text fill="#000000" font-family="sans-serif" font-size="14" lengthAdjust="spacing" textLength="100" x="5" y="969.6748">Administrator</text><ellipse cx="58" cy="982.9766" fill="#FEFECE" filter="url(#flwjfvol7r5w7)" rx="8" ry="8" style="stroke:#A80036;stroke-width:2.0;"/><path d="M58,990.9766 L58,1017.9766 M45,998.9766 L71,998.9766 M58,1017.9766 L45,1032.9766 M58,1017.9766 L71,1032.9766 " fill="none" filter="url(#flwjfvol7r5w7)" style="stroke:#A80036;stroke-width:2.0;"/><rect fill="#FEFECE" filter="url(#flwjfvol7r5w7)" height="30.2969" style="stroke:#A80036;stroke-width:1.5;" width="108" x="396" y="53"/><text fill="#000000" font-family="sans-serif" font-size="14" lengthAdjust="spacing" textLength="94" x="403" y="72.9951">:ParameterUI</text><rect fill="#FEFECE" filter="url(#flwjfvol7r5w7)" height="30.2969" style="stroke:#A80036;stroke-width:1.5;" width="108" x="396" y="956.6797"/><text fill="#000000" font-family="sans-serif" font-size="14" lengthAdjust="spacing" textLength="94" x="403" y="976.6748">:ParameterUI</text><rect fill="#FEFECE" filter="url(#flwjfvol7r5w7)" height="30.2969" style="stroke:#A80036;stroke-width:1.5;" width="168" x="779" y="53"/><text fill="#000000" font-family="sans-serif" font-size="14" lengthAdjust="spacing" textLength="154" x="786" y="72.9951">:ParameterController</text><rect fill="#FEFECE" filter="url(#flwjfvol7r5w7)" height="30.2969" style="stroke:#A80036;stroke-width:1.5;" width="168" x="779" y="956.6797"/><text fill="#000000" font-family="sans-serif" font-size="14" lengthAdjust="spacing" textLength="154" x="786" y="976.6748">:ParameterController</text><rect fill="#FEFECE" filter="url(#flwjfvol7r5w7)" height="30.2969" style="stroke:#A80036;stroke-width:1.5;" width="87" x="1077.5" y="53"/><text fill="#000000" font-family="sans-serif" font-size="14" lengthAdjust="spacing" textLength="73" x="1084.5" y="72.9951">:Company</text><rect fill="#FEFECE" filter="url(#flwjfvol7r5w7)" height="30.2969" style="stroke:#A80036;stroke-width:1.5;" width="87" x="1077.5" y="956.6797"/><text fill="#000000" font-family="sans-serif" font-size="14" lengthAdjust="spacing" textLength="73" x="1084.5" y="976.6748">:Company</text><rect fill="#FEFECE" filter="url(#flwjfvol7r5w7)" height="46.5938" style="stroke:#A80036;stroke-width:1.5;" width="196" x="1227" y="36.7031"/><text fill="#000000" font-family="sans-serif" font-size="14" lengthAdjust="spacing" textLength="63" x="1293.5" y="56.6982">pcStore:</text><text fill="#000000" font-family="sans-serif" font-size="14" lengthAdjust="spacing" textLength="182" x="1234" y="72.9951">ParameterCategoryStore</text><rect fill="#FEFECE" filter="url(#flwjfvol7r5w7)" height="46.5938" style="stroke:#A80036;stroke-width:1.5;" width="196" x="1227" y="956.6797"/><text fill="#000000" font-family="sans-serif" font-size="14" lengthAdjust="spacing" textLength="63" x="1293.5" y="976.6748">pcStore:</text><text fill="#000000" font-family="sans-serif" font-size="14" lengthAdjust="spacing" textLength="182" x="1234" y="992.9717">ParameterCategoryStore</text><rect fill="#FEFECE" filter="url(#flwjfvol7r5w7)" height="46.5938" style="stroke:#A80036;stroke-width:1.5;" width="130" x="1437" y="36.7031"/><text fill="#000000" font-family="sans-serif" font-size="14" lengthAdjust="spacing" textLength="55" x="1474.5" y="56.6982">pStore:</text><text fill="#000000" font-family="sans-serif" font-size="14" lengthAdjust="spacing" textLength="116" x="1444" y="72.9951">ParameterStore</text><rect fill="#FEFECE" filter="url(#flwjfvol7r5w7)" height="46.5938" style="stroke:#A80036;stroke-width:1.5;" width="130" x="1437" y="956.6797"/><text fill="#000000" font-family="sans-serif" font-size="14" lengthAdjust="spacing" textLength="55" x="1474.5" y="976.6748">pStore:</text><text fill="#000000" font-family="sans-serif" font-size="14" lengthAdjust="spacing" textLength="116" x="1444" y="992.9717">ParameterStore</text><rect fill="#FEFECE" filter="url(#flwjfvol7r5w7)" height="46.5938" style="stroke:#A80036;stroke-width:1.5;" width="90" x="1857" y="956.6797"/><text fill="#000000" font-family="sans-serif" font-size="14" lengthAdjust="spacing" textLength="15" x="1894.5" y="976.6748">p:</text><text fill="#000000" font-family="sans-serif" font-size="14" lengthAdjust="spacing" textLength="76" x="1864" y="992.9717">Parameter</text><rect fill="#FEFECE" filter="url(#flwjfvol7r5w7)" height="46.5938" style="stroke:#A80036;stroke-width:1.5;" width="156" x="1961" y="36.7031"/><text fill="#000000" font-family="sans-serif" font-size="14" lengthAdjust="spacing" textLength="23" x="2027.5" y="56.6982">pc:</text><text fill="#000000" font-family="sans-serif" font-size="14" lengthAdjust="spacing" textLength="142" x="1968" y="72.9951">ParameterCategory</text><rect fill="#FEFECE" filter="url(#flwjfvol7r5w7)" height="46.5938" style="stroke:#A80036;stroke-width:1.5;" width="156" x="1961" y="956.6797"/><text fill="#000000" font-family="sans-serif" font-size="14" lengthAdjust="spacing" textLength="23" x="2027.5" y="976.6748">pc:</text><text fill="#000000" font-family="sans-serif" font-size="14" lengthAdjust="spacing" textLength="142" x="1968" y="992.9717">ParameterCategory</text><rect fill="#FEFECE" filter="url(#flwjfvol7r5w7)" height="46.5938" style="stroke:#A80036;stroke-width:1.5;" width="204" x="2131" y="36.7031"/><text fill="#000000" font-family="sans-serif" font-size="14" lengthAdjust="spacing" textLength="17" x="2224.5" y="56.6982">lc:</text><text fill="#000000" font-family="sans-serif" font-size="14" lengthAdjust="spacing" textLength="190" x="2138" y="72.9951">List&lt;ParameterCategory&gt;</text><rect fill="#FEFECE" filter="url(#flwjfvol7r5w7)" height="46.5938" style="stroke:#A80036;stroke-width:1.5;" width="204" x="2131" y="956.6797"/><text fill="#000000" font-family="sans-serif" font-size="14" lengthAdjust="spacing" textLength="17" x="2224.5" y="976.6748">lc:</text><text fill="#000000" font-family="sans-serif" font-size="14" lengthAdjust="spacing" textLength="190" x="2138" y="992.9717">List&lt;ParameterCategory&gt;</text><rect fill="#FFFFFF" filter="url(#flwjfvol7r5w7)" height="841.3828" style="stroke:#A80036;stroke-width:1.0;" width="10" x="53" y="98.2969"/><rect fill="#FFFFFF" filter="url(#flwjfvol7r5w7)" height="29.1328" style="stroke:#A80036;stroke-width:1.0;" width="10" x="447" y="119.4297"/><rect fill="#FFFFFF" filter="url(#flwjfvol7r5w7)" height="176.5313" style="stroke:#A80036;stroke-width:1.0;" width="10" x="447" y="177.6953"/><rect fill="#FFFFFF" filter="url(#flwjfvol7r5w7)" height="355.5234" style="stroke:#A80036;stroke-width:1.0;" width="10" x="447" y="383.3594"/><rect fill="#FFFFFF" filter="url(#flwjfvol7r5w7)" height="171.6641" style="stroke:#A80036;stroke-width:1.0;" width="10" x="447" y="768.0156"/><rect fill="#FFFFFF" filter="url(#flwjfvol7r5w7)" height="118.2656" style="stroke:#A80036;stroke-width:1.0;" width="10" x="860" y="206.8281"/><rect fill="#FFFFFF" filter="url(#flwjfvol7r5w7)" height="297.2578" style="stroke:#A80036;stroke-width:1.0;" width="10" x="860" y="412.4922"/><rect fill="#FFFFFF" filter="url(#flwjfvol7r5w7)" height="142.5313" style="stroke:#A80036;stroke-width:1.0;" width="10" x="860" y="797.1484"/><rect fill="#FFFFFF" filter="url(#flwjfvol7r5w7)" height="30" style="stroke:#A80036;stroke-width:1.0;" width="10" x="1118" y="235.9609"/><rect fill="#FFFFFF" filter="url(#flwjfvol7r5w7)" height="30" style="stroke:#A80036;stroke-width:1.0;" width="10" x="1118" y="500.7578"/><rect fill="#FFFFFF" filter="url(#flwjfvol7r5w7)" height="30" style="stroke:#A80036;stroke-width:1.0;" width="10" x="1322" y="295.0938"/><rect fill="#FFFFFF" filter="url(#flwjfvol7r5w7)" height="30" style="stroke:#A80036;stroke-width:1.0;" width="10" x="1322" y="441.625"/><rect fill="#FFFFFF" filter="url(#flwjfvol7r5w7)" height="29.1328" style="stroke:#A80036;stroke-width:1.0;" width="10" x="1499" y="559.8906"/><rect fill="#FFFFFF" filter="url(#flwjfvol7r5w7)" height="30" style="stroke:#A80036;stroke-width:1.0;" width="10" x="1499" y="650.6172"/><rect fill="#FFFFFF" filter="url(#flwjfvol7r5w7)" height="113.3984" style="stroke:#A80036;stroke-width:1.0;" width="10" x="1499" y="826.2813"/><polygon fill="#A80036" points="435,115.4297,445,119.4297,435,123.4297,439,119.4297" style="stroke:#A80036;stroke-width:1.0;"/><line style="stroke:#A80036;stroke-width:1.0;" x1="63" x2="441" y1="119.4297" y2="119.4297"/><text fill="#000000" font-family="sans-serif" font-size="13" font-weight="bold" lengthAdjust="spacing" textLength="9" x="70" y="114.3638">1</text><text fill="#000000" font-family="sans-serif" font-size="13" lengthAdjust="spacing" textLength="171" x="83" y="114.3638">specifies a new Parameter</text><polygon fill="#A80036" points="74,144.5625,64,148.5625,74,152.5625,70,148.5625" style="stroke:#A80036;stroke-width:1.0;"/><line style="stroke:#A80036;stroke-width:1.0;stroke-dasharray:2.0,2.0;" x1="68" x2="451" y1="148.5625" y2="148.5625"/><text fill="#000000" font-family="sans-serif" font-size="13" font-weight="bold" lengthAdjust="spacing" textLength="9" x="80" y="143.4966">2</text><text fill="#000000" font-family="sans-serif" font-size="13" lengthAdjust="spacing" textLength="279" x="93" y="143.4966">request data(code, shortname, description)</text><polygon fill="#A80036" points="435,173.6953,445,177.6953,435,181.6953,439,177.6953" style="stroke:#A80036;stroke-width:1.0;"/><line style="stroke:#A80036;stroke-width:1.0;" x1="63" x2="441" y1="177.6953" y2="177.6953"/><text fill="#000000" font-family="sans-serif" font-size="13" font-weight="bold" lengthAdjust="spacing" textLength="8" x="70" y="172.6294">3</text><text fill="#000000" font-family="sans-serif" font-size="13" lengthAdjust="spacing" textLength="138" x="82" y="172.6294">types requested data</text><polygon fill="#A80036" points="848,202.8281,858,206.8281,848,210.8281,852,206.8281" style="stroke:#A80036;stroke-width:1.0;"/><line style="stroke:#A80036;stroke-width:1.0;" x1="457" x2="854" y1="206.8281" y2="206.8281"/><text fill="#000000" font-family="sans-serif" font-size="13" font-weight="bold" lengthAdjust="spacing" textLength="9" x="464" y="201.7622">4</text><text fill="#000000" font-family="sans-serif" font-size="13" lengthAdjust="spacing" textLength="188" x="477" y="201.7622">lc=getParameterCategories()</text><polygon fill="#A80036" points="1106,231.9609,1116,235.9609,1106,239.9609,1110,235.9609" style="stroke:#A80036;stroke-width:1.0;"/><line style="stroke:#A80036;stroke-width:1.0;" x1="870" x2="1112" y1="235.9609" y2="235.9609"/><text fill="#000000" font-family="sans-serif" font-size="13" font-weight="bold" lengthAdjust="spacing" textLength="9" x="877" y="230.895">5</text><text fill="#000000" font-family="sans-serif" font-size="13" lengthAdjust="spacing" textLength="216" x="890" y="230.895">cs=getParameterCategoryStore()</text><polygon fill="#A80036" points="1310,291.0938,1320,295.0938,1310,299.0938,1314,295.0938" style="stroke:#A80036;stroke-width:1.0;"/><line style="stroke:#A80036;stroke-width:1.0;" x1="870" x2="1316" y1="295.0938" y2="295.0938"/><text fill="#000000" font-family="sans-serif" font-size="13" font-weight="bold" lengthAdjust="spacing" textLength="9" x="877" y="290.0278">6</text><text fill="#000000" font-family="sans-serif" font-size="13" lengthAdjust="spacing" textLength="206" x="890" y="290.0278">lc=cs.getParameterCategories()</text><polygon fill="#A80036" points="74,350.2266,64,354.2266,74,358.2266,70,354.2266" style="stroke:#A80036;stroke-width:1.0;"/><line style="stroke:#A80036;stroke-width:1.0;stroke-dasharray:2.0,2.0;" x1="68" x2="451" y1="354.2266" y2="354.2266"/><text fill="#000000" font-family="sans-serif" font-size="13" font-weight="bold" lengthAdjust="spacing" textLength="9" x="80" y="349.1606">7</text><text fill="#000000" font-family="sans-serif" font-size="13" lengthAdjust="spacing" textLength="347" x="93" y="349.1606">shows parameter categories list and ask to select one</text><polygon fill="#A80036" points="435,379.3594,445,383.3594,435,387.3594,439,383.3594" style="stroke:#A80036;stroke-width:1.0;"/><line style="stroke:#A80036;stroke-width:1.0;" x1="63" x2="441" y1="383.3594" y2="383.3594"/><text fill="#000000" font-family="sans-serif" font-size="13" font-weight="bold" lengthAdjust="spacing" textLength="9" x="70" y="378.2935">8</text><text fill="#000000" font-family="sans-serif" font-size="13" lengthAdjust="spacing" textLength="190" x="83" y="378.2935">selects a parameter category</text><polygon fill="#A80036" points="848,408.4922,858,412.4922,848,416.4922,852,412.4922" style="stroke:#A80036;stroke-width:1.0;"/><line style="stroke:#A80036;stroke-width:1.0;" x1="457" x2="854" y1="412.4922" y2="412.4922"/><text fill="#000000" font-family="sans-serif" font-size="13" font-weight="bold" lengthAdjust="spacing" textLength="9" x="464" y="407.4263">9</text><text fill="#000000" font-family="sans-serif" font-size="13" lengthAdjust="spacing" textLength="371" x="477" y="407.4263">createParameter(code, shortname, description, category)</text><polygon fill="#A80036" points="1310,437.625,1320,441.625,1310,445.625,1314,441.625" style="stroke:#A80036;stroke-width:1.0;"/><line style="stroke:#A80036;stroke-width:1.0;" x1="870" x2="1316" y1="441.625" y2="441.625"/><text fill="#000000" font-family="sans-serif" font-size="13" font-weight="bold" lengthAdjust="spacing" textLength="19" x="877" y="436.5591">10</text><text fill="#000000" font-family="sans-serif" font-size="13" lengthAdjust="spacing" textLength="410" x="900" y="436.5591">pc=cs.getParameterCategoryByCode(parameterCategoryCode)</text><polygon fill="#A80036" points="1106,496.7578,1116,500.7578,1106,504.7578,1110,500.7578" style="stroke:#A80036;stroke-width:1.0;"/><line style="stroke:#A80036;stroke-width:1.0;" x1="870" x2="1112" y1="500.7578" y2="500.7578"/><text fill="#000000" font-family="sans-serif" font-size="13" font-weight="bold" lengthAdjust="spacing" textLength="18" x="877" y="495.6919">11</text><text fill="#000000" font-family="sans-serif" font-size="13" lengthAdjust="spacing" textLength="158" x="899" y="495.6919">ps=getParameterStore()</text><polygon fill="#A80036" points="1487,555.8906,1497,559.8906,1487,563.8906,1491,559.8906" style="stroke:#A80036;stroke-width:1.0;"/><line style="stroke:#A80036;stroke-width:1.0;" x1="870" x2="1493" y1="559.8906" y2="559.8906"/><text fill="#000000" font-family="sans-serif" font-size="13" font-weight="bold" lengthAdjust="spacing" textLength="18" x="877" y="554.8247">12</text><text fill="#000000" font-family="sans-serif" font-size="13" lengthAdjust="spacing" textLength="408" x="899" y="554.8247">p=ps.createParameter(code, shortname, description, category)</text><polygon fill="#A80036" points="1845,585.0234,1855,589.0234,1845,593.0234,1849,589.0234" style="stroke:#A80036;stroke-width:1.0;"/><line style="stroke:#A80036;stroke-width:1.0;" x1="1504" x2="1851" y1="589.0234" y2="589.0234"/><text fill="#000000" font-family="sans-serif" font-size="13" font-weight="bold" lengthAdjust="spacing" textLength="17" x="1511" y="583.9575">13</text><text fill="#000000" font-family="sans-serif" font-size="13" lengthAdjust="spacing" textLength="303" x="1532" y="583.9575">create(code, shortname, description, category)</text><rect fill="#FEFECE" filter="url(#flwjfvol7r5w7)" height="46.5938" style="stroke:#A80036;stroke-width:1.5;" width="90" x="1857" y="567.8906"/><text fill="#000000" font-family="sans-serif" font-size="14" lengthAdjust="spacing" textLength="15" x="1894.5" y="587.8857">p:</text><text fill="#000000" font-family="sans-serif" font-size="14" lengthAdjust="spacing" textLength="76" x="1864" y="604.1826">Parameter</text><polygon fill="#A80036" points="1487,646.6172,1497,650.6172,1487,654.6172,1491,650.6172" style="stroke:#A80036;stroke-width:1.0;"/><line style="stroke:#A80036;stroke-width:1.0;" x1="870" x2="1493" y1="650.6172" y2="650.6172"/><text fill="#000000" font-family="sans-serif" font-size="13" font-weight="bold" lengthAdjust="spacing" textLength="18" x="877" y="645.5513">14</text><text fill="#000000" font-family="sans-serif" font-size="13" lengthAdjust="spacing" textLength="137" x="899" y="645.5513">validateParameter(p)</text><polygon fill="#A80036" points="468,705.75,458,709.75,468,713.75,464,709.75" style="stroke:#A80036;stroke-width:1.0;"/><line style="stroke:#A80036;stroke-width:1.0;stroke-dasharray:2.0,2.0;" x1="462" x2="864" y1="709.75" y2="709.75"/><text fill="#000000" font-family="sans-serif" font-size="13" font-weight="bold" lengthAdjust="spacing" textLength="18" x="474" y="704.6841">15</text><text fill="#000000" font-family="sans-serif" font-size="13" lengthAdjust="spacing" textLength="36" x="496" y="704.6841">result</text><polygon fill="#A80036" points="74,734.8828,64,738.8828,74,742.8828,70,738.8828" style="stroke:#A80036;stroke-width:1.0;"/><line style="stroke:#A80036;stroke-width:1.0;stroke-dasharray:2.0,2.0;" x1="68" x2="451" y1="738.8828" y2="738.8828"/><text fill="#000000" font-family="sans-serif" font-size="13" font-weight="bold" lengthAdjust="spacing" textLength="18" x="80" y="733.8169">16</text><text fill="#000000" font-family="sans-serif" font-size="13" lengthAdjust="spacing" textLength="295" x="102" y="733.8169">shows all the data and request a confirmation</text><polygon fill="#A80036" points="435,764.0156,445,768.0156,435,772.0156,439,768.0156" style="stroke:#A80036;stroke-width:1.0;"/><line style="stroke:#A80036;stroke-width:1.0;" x1="63" x2="441" y1="768.0156" y2="768.0156"/><text fill="#000000" font-family="sans-serif" font-size="13" font-weight="bold" lengthAdjust="spacing" textLength="18" x="70" y="762.9497">17</text><text fill="#000000" font-family="sans-serif" font-size="13" lengthAdjust="spacing" textLength="114" x="92" y="762.9497">confirms the data</text><polygon fill="#A80036" points="848,793.1484,858,797.1484,848,801.1484,852,797.1484" style="stroke:#A80036;stroke-width:1.0;"/><line style="stroke:#A80036;stroke-width:1.0;" x1="457" x2="854" y1="797.1484" y2="797.1484"/><text fill="#000000" font-family="sans-serif" font-size="13" font-weight="bold" lengthAdjust="spacing" textLength="18" x="464" y="792.0825">18</text><text fill="#000000" font-family="sans-serif" font-size="13" lengthAdjust="spacing" textLength="109" x="486" y="792.0825">saveParameter()</text><polygon fill="#A80036" points="1487,822.2813,1497,826.2813,1487,830.2813,1491,826.2813" style="stroke:#A80036;stroke-width:1.0;"/><line style="stroke:#A80036;stroke-width:1.0;" x1="870" x2="1493" y1="826.2813" y2="826.2813"/><text fill="#000000" font-family="sans-serif" font-size="13" font-weight="bold" lengthAdjust="spacing" textLength="18" x="877" y="821.2153">19</text><text fill="#000000" font-family="sans-serif" font-size="13" lengthAdjust="spacing" textLength="136" x="899" y="821.2153">ps.saveParameter(p)</text><line style="stroke:#A80036;stroke-width:1.0;" x1="1509" x2="1551" y1="855.4141" y2="855.4141"/><line style="stroke:#A80036;stroke-width:1.0;" x1="1551" x2="1551" y1="855.4141" y2="868.4141"/><line style="stroke:#A80036;stroke-width:1.0;" x1="1510" x2="1551" y1="868.4141" y2="868.4141"/><polygon fill="#A80036" points="1520,864.4141,1510,868.4141,1520,872.4141,1516,868.4141" style="stroke:#A80036;stroke-width:1.0;"/><text fill="#000000" font-family="sans-serif" font-size="13" font-weight="bold" lengthAdjust="spacing" textLength="19" x="1516" y="850.3481">20</text><text fill="#000000" font-family="sans-serif" font-size="13" lengthAdjust="spacing" textLength="137" x="1539" y="850.3481">validateParameter(p)</text><line style="stroke:#A80036;stroke-width:1.0;" x1="1509" x2="1551" y1="897.5469" y2="897.5469"/><line style="stroke:#A80036;stroke-width:1.0;" x1="1551" x2="1551" y1="897.5469" y2="910.5469"/><line style="stroke:#A80036;stroke-width:1.0;" x1="1510" x2="1551" y1="910.5469" y2="910.5469"/><polygon fill="#A80036" points="1520,906.5469,1510,910.5469,1520,914.5469,1516,910.5469" style="stroke:#A80036;stroke-width:1.0;"/><text fill="#000000" font-family="sans-serif" font-size="13" font-weight="bold" lengthAdjust="spacing" textLength="18" x="1516" y="892.481">21</text><text fill="#000000" font-family="sans-serif" font-size="13" lengthAdjust="spacing" textLength="110" x="1538" y="892.481">addParameter(p)</text><polygon fill="#A80036" points="69,935.6797,59,939.6797,69,943.6797,65,939.6797" style="stroke:#A80036;stroke-width:1.0;"/><line style="stroke:#A80036;stroke-width:1.0;stroke-dasharray:2.0,2.0;" x1="63" x2="451" y1="939.6797" y2="939.6797"/><text fill="#000000" font-family="sans-serif" font-size="13" font-weight="bold" lengthAdjust="spacing" textLength="18" x="75" y="934.6138">22</text><text fill="#000000" font-family="sans-serif" font-size="13" lengthAdjust="spacing" textLength="169" x="97" y="934.6138">informs operation success</text><!--MD5=[78cdb8bdfd1197588c54c3bdecd5a1fd]
@startuml
autonumber
actor "Administrator" as ADMIN

participant ":ParameterUI" as UI
participant ":ParameterController" as CTRL
participant ":Company" as CMP
participant "pcStore:\nParameterCategoryStore" as pcStore
participant "pStore:\nParameterStore" as ttStore
participant "p:\nParameter" as TET
participant "pc:\nParameterCategory" as pc
participant "lc:\nList<ParameterCategory>" as lc

activate ADMIN
ADMIN -> UI : specifies a new Parameter
activate UI
UI - -> ADMIN : request data(code, shortname, description)
deactivate UI

ADMIN -> UI : types requested data
activate UI
UI -> CTRL : lc=getParameterCategories()
activate CTRL
CTRL -> CMP : cs=getParameterCategoryStore()
activate CMP	
deactivate CMP
CTRL -> pcStore : lc=cs.getParameterCategories()
activate pcStore
deactivate pcStore
deactivate CTRL


UI - -> ADMIN : shows parameter categories list and ask to select one
deactivate UI
ADMIN -> UI : selects a parameter category
activate UI

UI -> CTRL: createParameter(code, shortname, description, category)
activate CTRL

CTRL -> pcStore : pc=cs.getParameterCategoryByCode(parameterCategoryCode)
activate pcStore
deactivate pcStore

CTRL -> CMP : ps=getParameterStore()
activate CMP
deactivate CMP
CTRL -> ttStore: p=ps.createParameter(code, shortname, description, category)
activate ttStore
ttStore -> TET** : create(code, shortname, description, category)
deactivate ttStore
CTRL -> ttStore : validateParameter(p)
activate ttStore
deactivate ttStore
CTRL - ->  UI : result
deactivate ttStore
deactivate CMP
deactivate CTRL
UI - -> ADMIN : shows all the data and request a confirmation
deactivate UI

ADMIN -> UI : confirms the data
activate UI
UI -> CTRL : saveParameter()
activate CTRL
CTRL -> ttStore : ps.saveParameter(p)
activate ttStore
ttStore -> ttStore : validateParameter(p)
ttStore -> ttStore : addParameter(p)
UI - -> ADMIN : informs operation success
deactivate ttStore
deactivate CTRL
deactivate UI

deactivate ADMIN
@enduml

PlantUML version 1.2021.6beta4(Unknown compile time)
(GPL source distribution)
Java Runtime: Java(TM) SE Runtime Environment
JVM: Java HotSpot(TM) 64-Bit Server VM
Default Encoding: UTF-8
Language: en
Country: US
--></g></svg>