<?xml version="1.0" encoding="UTF-8" standalone="no"?>
<svg xmlns="http://www.w3.org/2000/svg" xmlns:xlink="http://www.w3.org/1999/xlink" contentScriptType="application/ecmascript" contentStyleType="text/css" height="251px" preserveAspectRatio="none" style="width:930px;height:251px;" version="1.1" viewBox="0 0 930 251" width="930px" zoomAndPan="magnify"><defs><filter height="300%" id="f18v3hsfueey03" width="300%" x="-1" y="-1"><feGaussianBlur result="blurOut" stdDeviation="2.0"/><feColorMatrix in="blurOut" result="blurOut2" type="matrix" values="0 0 0 0 0 0 0 0 0 0 0 0 0 0 0 0 0 0 .4 0"/><feOffset dx="4.0" dy="4.0" in="blurOut2" result="blurOut3"/><feBlend in="SourceGraphic" in2="blurOut3" mode="normal"/></filter></defs><g><!--MD5=[aeb3272166074d8737a70b61b1e71682]
class TestType--><rect codeLine="5" fill="#FEFECE" filter="url(#f18v3hsfueey03)" height="78.4141" id="TestType" style="stroke:#A80036;stroke-width:1.5;" width="112" x="424" y="54"/><ellipse cx="449.8" cy="70" fill="#ADD1B2" rx="11" ry="11" style="stroke:#A80036;stroke-width:1.0;"/><path d="M452.1438,65.6719 C451.2063,65.2344 450.6125,65.0938 449.7375,65.0938 C447.1125,65.0938 445.1125,67.1719 445.1125,69.8906 L445.1125,71.0156 C445.1125,73.5938 447.2219,75.4844 450.1125,75.4844 C451.3313,75.4844 452.4875,75.1875 453.2375,74.6406 C453.8156,74.2344 454.1438,73.7813 454.1438,73.3906 C454.1438,72.9375 453.7531,72.5469 453.2844,72.5469 C453.0656,72.5469 452.8625,72.625 452.675,72.8125 C452.2219,73.2969 452.2219,73.2969 452.0344,73.3906 C451.6125,73.6563 450.925,73.7813 450.1594,73.7813 C448.1125,73.7813 446.8156,72.6875 446.8156,70.9844 L446.8156,69.8906 C446.8156,68.1094 448.0656,66.7969 449.8,66.7969 C450.3781,66.7969 450.9875,66.9531 451.4563,67.2031 C451.9406,67.4844 452.1125,67.7031 452.2063,68.1094 C452.2688,68.5156 452.3,68.6406 452.4406,68.7656 C452.5813,68.9063 452.8156,69.0156 453.0344,69.0156 C453.3,69.0156 453.5656,68.875 453.7375,68.6563 C453.8469,68.5 453.8781,68.3125 453.8781,67.8906 L453.8781,66.4688 C453.8781,66.0313 453.8625,65.9063 453.7688,65.75 C453.6125,65.4844 453.3313,65.3438 453.0344,65.3438 C452.7375,65.3438 452.5344,65.4375 452.3156,65.75 L452.1438,65.6719 Z " fill="#000000"/><text fill="#000000" font-family="sans-serif" font-size="12" lengthAdjust="spacing" textLength="56" x="466.2" y="74.1543">TestType</text><line style="stroke:#A80036;stroke-width:1.5;" x1="425" x2="535" y1="86" y2="86"/><text fill="#000000" font-family="sans-serif" font-size="11" lengthAdjust="spacing" textLength="32" x="430" y="100.2104">-code</text><text fill="#000000" font-family="sans-serif" font-size="11" lengthAdjust="spacing" textLength="66" x="430" y="113.0151">-description</text><text fill="#000000" font-family="sans-serif" font-size="11" lengthAdjust="spacing" textLength="100" x="430" y="125.8198">-collectingMethod</text><!--MD5=[02e4b9b7573f1156f41e60aa5b4e25a4]
class Company--><rect codeLine="11" fill="#FEFECE" filter="url(#f18v3hsfueey03)" height="52.8047" id="Company" style="stroke:#A80036;stroke-width:1.5;" width="88" x="7" y="105.5"/><ellipse cx="22" cy="121.5" fill="#ADD1B2" rx="11" ry="11" style="stroke:#A80036;stroke-width:1.0;"/><path d="M24.3438,117.1719 C23.4063,116.7344 22.8125,116.5938 21.9375,116.5938 C19.3125,116.5938 17.3125,118.6719 17.3125,121.3906 L17.3125,122.5156 C17.3125,125.0938 19.4219,126.9844 22.3125,126.9844 C23.5313,126.9844 24.6875,126.6875 25.4375,126.1406 C26.0156,125.7344 26.3438,125.2813 26.3438,124.8906 C26.3438,124.4375 25.9531,124.0469 25.4844,124.0469 C25.2656,124.0469 25.0625,124.125 24.875,124.3125 C24.4219,124.7969 24.4219,124.7969 24.2344,124.8906 C23.8125,125.1563 23.125,125.2813 22.3594,125.2813 C20.3125,125.2813 19.0156,124.1875 19.0156,122.4844 L19.0156,121.3906 C19.0156,119.6094 20.2656,118.2969 22,118.2969 C22.5781,118.2969 23.1875,118.4531 23.6563,118.7031 C24.1406,118.9844 24.3125,119.2031 24.4063,119.6094 C24.4688,120.0156 24.5,120.1406 24.6406,120.2656 C24.7813,120.4063 25.0156,120.5156 25.2344,120.5156 C25.5,120.5156 25.7656,120.375 25.9375,120.1563 C26.0469,120 26.0781,119.8125 26.0781,119.3906 L26.0781,117.9688 C26.0781,117.5313 26.0625,117.4063 25.9688,117.25 C25.8125,116.9844 25.5313,116.8438 25.2344,116.8438 C24.9375,116.8438 24.7344,116.9375 24.5156,117.25 L24.3438,117.1719 Z " fill="#000000"/><text fill="#000000" font-family="sans-serif" font-size="12" lengthAdjust="spacing" textLength="56" x="36" y="125.6543">Company</text><line style="stroke:#A80036;stroke-width:1.5;" x1="8" x2="94" y1="137.5" y2="137.5"/><text fill="#000000" font-family="sans-serif" font-size="11" lengthAdjust="spacing" textLength="70" x="13" y="151.7104">-designation</text><!--MD5=[df38be88ccee13e832d6fafd6288a4ca]
class Test--><rect codeLine="15" fill="#FEFECE" filter="url(#f18v3hsfueey03)" height="40" id="Test" style="stroke:#A80036;stroke-width:1.5;" width="58" x="236.5" y="112"/><ellipse cx="251.5" cy="128" fill="#ADD1B2" rx="11" ry="11" style="stroke:#A80036;stroke-width:1.0;"/><path d="M253.8438,123.6719 C252.9063,123.2344 252.3125,123.0938 251.4375,123.0938 C248.8125,123.0938 246.8125,125.1719 246.8125,127.8906 L246.8125,129.0156 C246.8125,131.5938 248.9219,133.4844 251.8125,133.4844 C253.0313,133.4844 254.1875,133.1875 254.9375,132.6406 C255.5156,132.2344 255.8438,131.7813 255.8438,131.3906 C255.8438,130.9375 255.4531,130.5469 254.9844,130.5469 C254.7656,130.5469 254.5625,130.625 254.375,130.8125 C253.9219,131.2969 253.9219,131.2969 253.7344,131.3906 C253.3125,131.6563 252.625,131.7813 251.8594,131.7813 C249.8125,131.7813 248.5156,130.6875 248.5156,128.9844 L248.5156,127.8906 C248.5156,126.1094 249.7656,124.7969 251.5,124.7969 C252.0781,124.7969 252.6875,124.9531 253.1563,125.2031 C253.6406,125.4844 253.8125,125.7031 253.9063,126.1094 C253.9688,126.5156 254,126.6406 254.1406,126.7656 C254.2813,126.9063 254.5156,127.0156 254.7344,127.0156 C255,127.0156 255.2656,126.875 255.4375,126.6563 C255.5469,126.5 255.5781,126.3125 255.5781,125.8906 L255.5781,124.4688 C255.5781,124.0313 255.5625,123.9063 255.4688,123.75 C255.3125,123.4844 255.0313,123.3438 254.7344,123.3438 C254.4375,123.3438 254.2344,123.4375 254.0156,123.75 L253.8438,123.6719 Z " fill="#000000"/><text fill="#000000" font-family="sans-serif" font-size="12" lengthAdjust="spacing" textLength="26" x="265.5" y="132.1543">Test</text><line style="stroke:#A80036;stroke-width:1.5;" x1="237.5" x2="293.5" y1="144" y2="144"/><!--MD5=[da547346deef918ea16944ba046651ef]
class Administrator--><rect codeLine="18" fill="#FEFECE" filter="url(#f18v3hsfueey03)" height="129.6328" id="Administrator" style="stroke:#A80036;stroke-width:1.5;" width="236" x="680" y="7"/><ellipse cx="753.75" cy="23" fill="#ADD1B2" rx="11" ry="11" style="stroke:#A80036;stroke-width:1.0;"/><path d="M756.0938,18.6719 C755.1563,18.2344 754.5625,18.0938 753.6875,18.0938 C751.0625,18.0938 749.0625,20.1719 749.0625,22.8906 L749.0625,24.0156 C749.0625,26.5938 751.1719,28.4844 754.0625,28.4844 C755.2813,28.4844 756.4375,28.1875 757.1875,27.6406 C757.7656,27.2344 758.0938,26.7813 758.0938,26.3906 C758.0938,25.9375 757.7031,25.5469 757.2344,25.5469 C757.0156,25.5469 756.8125,25.625 756.625,25.8125 C756.1719,26.2969 756.1719,26.2969 755.9844,26.3906 C755.5625,26.6563 754.875,26.7813 754.1094,26.7813 C752.0625,26.7813 750.7656,25.6875 750.7656,23.9844 L750.7656,22.8906 C750.7656,21.1094 752.0156,19.7969 753.75,19.7969 C754.3281,19.7969 754.9375,19.9531 755.4063,20.2031 C755.8906,20.4844 756.0625,20.7031 756.1563,21.1094 C756.2188,21.5156 756.25,21.6406 756.3906,21.7656 C756.5313,21.9063 756.7656,22.0156 756.9844,22.0156 C757.25,22.0156 757.5156,21.875 757.6875,21.6563 C757.7969,21.5 757.8281,21.3125 757.8281,20.8906 L757.8281,19.4688 C757.8281,19.0313 757.8125,18.9063 757.7188,18.75 C757.5625,18.4844 757.2813,18.3438 756.9844,18.3438 C756.6875,18.3438 756.4844,18.4375 756.2656,18.75 L756.0938,18.6719 Z " fill="#000000"/><text fill="#000000" font-family="sans-serif" font-size="12" lengthAdjust="spacing" textLength="80" x="774.25" y="27.1543">Administrator</text><line style="stroke:#A80036;stroke-width:1.5;" x1="681" x2="915" y1="39" y2="39"/><text fill="#000000" font-family="sans-serif" font-size="11" lengthAdjust="spacing" textLength="75" x="686" y="53.2104">-employeeID</text><text fill="#000000" font-family="sans-serif" font-size="11" lengthAdjust="spacing" textLength="99" x="686" y="66.0151">-organizationRole</text><text fill="#000000" font-family="sans-serif" font-size="11" lengthAdjust="spacing" textLength="37" x="686" y="78.8198">-name</text><text fill="#000000" font-family="sans-serif" font-size="11" lengthAdjust="spacing" textLength="49" x="686" y="91.6245">-address</text><text fill="#000000" font-family="sans-serif" font-size="11" lengthAdjust="spacing" textLength="85" x="686" y="104.4292">-phoneNumber</text><text fill="#000000" font-family="sans-serif" font-size="11" lengthAdjust="spacing" textLength="34" x="686" y="117.2339">-eMail</text><text fill="#000000" font-family="sans-serif" font-size="11" lengthAdjust="spacing" textLength="224" x="686" y="130.0386">-standardOcupationalClassificationCode</text><!--MD5=[36afb6bbd95a8ac778c4537c55a683d5]
class ParameterCategory--><rect codeLine="28" fill="#FEFECE" filter="url(#f18v3hsfueey03)" height="65.6094" id="ParameterCategory" style="stroke:#A80036;stroke-width:1.5;" width="148" x="724" y="172"/><ellipse cx="739" cy="188" fill="#ADD1B2" rx="11" ry="11" style="stroke:#A80036;stroke-width:1.0;"/><path d="M741.3438,183.6719 C740.4063,183.2344 739.8125,183.0938 738.9375,183.0938 C736.3125,183.0938 734.3125,185.1719 734.3125,187.8906 L734.3125,189.0156 C734.3125,191.5938 736.4219,193.4844 739.3125,193.4844 C740.5313,193.4844 741.6875,193.1875 742.4375,192.6406 C743.0156,192.2344 743.3438,191.7813 743.3438,191.3906 C743.3438,190.9375 742.9531,190.5469 742.4844,190.5469 C742.2656,190.5469 742.0625,190.625 741.875,190.8125 C741.4219,191.2969 741.4219,191.2969 741.2344,191.3906 C740.8125,191.6563 740.125,191.7813 739.3594,191.7813 C737.3125,191.7813 736.0156,190.6875 736.0156,188.9844 L736.0156,187.8906 C736.0156,186.1094 737.2656,184.7969 739,184.7969 C739.5781,184.7969 740.1875,184.9531 740.6563,185.2031 C741.1406,185.4844 741.3125,185.7031 741.4063,186.1094 C741.4688,186.5156 741.5,186.6406 741.6406,186.7656 C741.7813,186.9063 742.0156,187.0156 742.2344,187.0156 C742.5,187.0156 742.7656,186.875 742.9375,186.6563 C743.0469,186.5 743.0781,186.3125 743.0781,185.8906 L743.0781,184.4688 C743.0781,184.0313 743.0625,183.9063 742.9688,183.75 C742.8125,183.4844 742.5313,183.3438 742.2344,183.3438 C741.9375,183.3438 741.7344,183.4375 741.5156,183.75 L741.3438,183.6719 Z " fill="#000000"/><text fill="#000000" font-family="sans-serif" font-size="12" lengthAdjust="spacing" textLength="116" x="753" y="192.1543">ParameterCategory</text><line style="stroke:#A80036;stroke-width:1.5;" x1="725" x2="871" y1="204" y2="204"/><text fill="#000000" font-family="sans-serif" font-size="11" lengthAdjust="spacing" textLength="37" x="730" y="218.2104">-name</text><text fill="#000000" font-family="sans-serif" font-size="11" lengthAdjust="spacing" textLength="32" x="730" y="231.0151">-code</text><!--MD5=[742a261f27a3dcd734c626287d811acd]
link Company to TestType--><path codeLine="32" d="M95.1939,115.573 C104.892,112.345 115.211,109.263 125,107 C241.873,79.986 274.177,79.374 394,85 C403.624,85.452 413.84,86.19 423.728,87.04 " fill="none" id="Company-TestType" style="stroke:#A80036;stroke-width:1.0;"/><polygon fill="#000000" points="238.9812,74.1338,229.7158,71.9885,230.2244,77.8443,238.9812,74.1338" style="stroke:#000000;stroke-width:1.0;"/><text fill="#000000" font-family="sans-serif" font-size="13" lengthAdjust="spacing" textLength="58" x="243" y="79.0669">conducts</text><text fill="#000000" font-family="sans-serif" font-size="13" lengthAdjust="spacing" textLength="8" x="102.8748" y="126.2433">1</text><text fill="#000000" font-family="sans-serif" font-size="13" lengthAdjust="spacing" textLength="7" x="409.0697" y="99.2862">*</text><!--MD5=[93b4f25fb503a8e0e9a46b1d30ff3f44]
link Company to ParameterCategory--><path codeLine="33" d="M95.3435,142.8682 C130.994,151.3696 182.959,162.7612 229,169 C405.49,192.9152 615.037,201.0002 723.594,203.6911 " fill="none" id="Company-ParameterCategory" style="stroke:#A80036;stroke-width:1.0;"/><polygon fill="#000000" points="341.9767,173.0482,333.2569,169.2514,332.6905,175.1019,341.9767,173.0482" style="stroke:#000000;stroke-width:1.0;"/><text fill="#000000" font-family="sans-serif" font-size="13" lengthAdjust="spacing" textLength="47" x="346" y="177.0669">defines</text><text fill="#000000" font-family="sans-serif" font-size="13" lengthAdjust="spacing" textLength="8" x="103.0482" y="157.8887">1</text><text fill="#000000" font-family="sans-serif" font-size="13" lengthAdjust="spacing" textLength="7" x="708.9251" y="216.3932">*</text><!--MD5=[e981d4f96c4342412d1e68160b30cf70]
link Test to TestType--><path codeLine="34" d="M294.718,126.821 C327.459,120.812 382.231,110.76 423.573,103.172 " fill="none" id="Test-TestType" style="stroke:#A80036;stroke-width:1.0;"/><polygon fill="#000000" points="351.9179,100.6638,342.4908,99.406,343.5519,105.1873,351.9179,100.6638" style="stroke:#000000;stroke-width:1.0;"/><text fill="#000000" font-family="sans-serif" font-size="13" lengthAdjust="spacing" textLength="27" x="356" y="106.0669">is of</text><text fill="#000000" font-family="sans-serif" font-size="13" lengthAdjust="spacing" textLength="7" x="302.693" y="139.4698">*</text><text fill="#000000" font-family="sans-serif" font-size="13" lengthAdjust="spacing" textLength="8" x="407.8308" y="117.4851">1</text><!--MD5=[7e4bc624457760b649895ff2ead938fa]
link Company to Test--><path codeLine="35" d="M95.0025,132 C137.206,132 200.343,132 236.46,132 " fill="none" id="Company-Test" style="stroke:#A80036;stroke-width:1.0;"/><polygon fill="#000000" points="135,123.5664,125.9549,120.6275,125.9549,126.5053,135,123.5664" style="stroke:#000000;stroke-width:1.0;"/><text fill="#000000" font-family="sans-serif" font-size="13" lengthAdjust="spacing" textLength="59" x="139" y="128.0669">performs</text><text fill="#000000" font-family="sans-serif" font-size="13" lengthAdjust="spacing" textLength="8" x="102.9529" y="145.3363">1</text><text fill="#000000" font-family="sans-serif" font-size="13" lengthAdjust="spacing" textLength="7" x="221.5284" y="145.9112">*</text><!--MD5=[0985ee834cc881275852ed47ce1e01f6]
link TestType to Administrator--><path codeLine="36" d="M536.043,89.342 C575.653,86.71 630.553,83.061 679.782,79.79 " fill="none" id="TestType-Administrator" style="stroke:#A80036;stroke-width:1.0;"/><polygon fill="#000000" points="575.989,73.2349,566.7689,70.9022,567.1587,76.7671,575.989,73.2349" style="stroke:#000000;stroke-width:1.0;"/><text fill="#000000" font-family="sans-serif" font-size="13" lengthAdjust="spacing" textLength="69" x="580" y="78.0669">created by</text><text fill="#000000" font-family="sans-serif" font-size="13" lengthAdjust="spacing" textLength="7" x="544.0441" y="101.9063">*</text><text fill="#000000" font-family="sans-serif" font-size="13" lengthAdjust="spacing" textLength="8" x="663.9524" y="92.8524">1</text><!--MD5=[8aaf0efd5e2f3824be7ea3e488dcc283]
link TestType to ParameterCategory--><path codeLine="37" d="M536.043,112.509 C588.119,130.966 666.625,158.791 723.926,179.1005 " fill="none" id="TestType-ParameterCategory" style="stroke:#A80036;stroke-width:1.0;"/><polygon fill="#000000" points="594.2127,120.2367,586.6691,114.445,584.7055,119.9852,594.2127,120.2367" style="stroke:#000000;stroke-width:1.0;"/><text fill="#000000" font-family="sans-serif" font-size="13" lengthAdjust="spacing" textLength="32" x="598.5" y="123.0669">have</text><text fill="#000000" font-family="sans-serif" font-size="13" lengthAdjust="spacing" textLength="7" x="544.0441" y="128.1863">*</text><text fill="#000000" font-family="sans-serif" font-size="13" lengthAdjust="spacing" textLength="23" x="693.0371" y="189.4953">1..*</text><!--MD5=[112df0d2e8585d96ea0738c347695d82]
@startuml
skinparam classAttributeIconSize 0
hide methods
left to right direction

class TestType {
  -code
  -description
  -collectingMethod
}

class Company {
  -designation
}

class Test {
}

class Administrator {
  -employeeID
  -organizationRole
  -name
  -address
  -phoneNumber
  -eMail
  -standardOcupationalClassificationCode
}

class ParameterCategory {
  -name
  -code
}
Company "1" - - "*" TestType : conducts >
Company "1" - - "*" ParameterCategory : defines >
Test "*" - - "1" TestType : is of >
Company "1" - - "*" Test : performs >
TestType "*" - - "1" Administrator : created by >
TestType "*" - - "1..*" ParameterCategory : have >
@enduml

PlantUML version 1.2021.6beta2(Unknown compile time)
(GPL source distribution)
Java Runtime: Java(TM) SE Runtime Environment
JVM: Java HotSpot(TM) 64-Bit Server VM
Default Encoding: UTF-8
Language: en
Country: US
--></g></svg>