<?xml version="1.0" encoding="UTF-8" standalone="no"?><svg xmlns="http://www.w3.org/2000/svg" xmlns:xlink="http://www.w3.org/1999/xlink" contentScriptType="application/ecmascript" contentStyleType="text/css" height="1175px" preserveAspectRatio="none" style="width:1850px;height:1175px;background:#FFFFFF;" version="1.1" viewBox="0 0 1850 1175" width="1850px" zoomAndPan="magnify"><defs><filter height="300%" id="f9gmetpupygwc" width="300%" x="-1" y="-1"><feGaussianBlur result="blurOut" stdDeviation="2.0"/><feColorMatrix in="blurOut" result="blurOut2" type="matrix" values="0 0 0 0 0 0 0 0 0 0 0 0 0 0 0 0 0 0 .4 0"/><feOffset dx="4.0" dy="4.0" in="blurOut2" result="blurOut3"/><feBlend in="SourceGraphic" in2="blurOut3" mode="normal"/></filter></defs><g><rect fill="#FFFFFF" filter="url(#f9gmetpupygwc)" height="975.3516" style="stroke:#A80036;stroke-width:1.0;" width="10" x="80" y="98.2969"/><rect fill="#FFFFFF" filter="url(#f9gmetpupygwc)" height="259.7969" style="stroke:#A80036;stroke-width:1.0;" width="10" x="524" y="119.4297"/><rect fill="#FFFFFF" filter="url(#f9gmetpupygwc)" height="29.1328" style="stroke:#A80036;stroke-width:1.0;" width="10" x="524" y="408.3594"/><rect fill="#FFFFFF" filter="url(#f9gmetpupygwc)" height="310.0938" style="stroke:#A80036;stroke-width:1.0;" width="10" x="524" y="466.625"/><rect fill="#FFFFFF" filter="url(#f9gmetpupygwc)" height="267.7969" style="stroke:#A80036;stroke-width:1.0;" width="10" x="524" y="805.8516"/><rect fill="#FFFFFF" filter="url(#f9gmetpupygwc)" height="177.3984" style="stroke:#A80036;stroke-width:1.0;" width="10" x="762" y="148.5625"/><rect fill="#FFFFFF" filter="url(#f9gmetpupygwc)" height="251.8281" style="stroke:#A80036;stroke-width:1.0;" width="10" x="762" y="495.7578"/><rect fill="#FFFFFF" filter="url(#f9gmetpupygwc)" height="166.3984" style="stroke:#A80036;stroke-width:1.0;" width="10" x="762" y="834.9844"/><rect fill="#FFFFFF" filter="url(#f9gmetpupygwc)" height="30" style="stroke:#A80036;stroke-width:1.0;" width="10" x="986" y="177.6953"/><rect fill="#FFFFFF" filter="url(#f9gmetpupygwc)" height="30" style="stroke:#A80036;stroke-width:1.0;" width="10" x="986" y="524.8906"/><rect fill="#FFFFFF" filter="url(#f9gmetpupygwc)" height="30" style="stroke:#A80036;stroke-width:1.0;" width="10" x="1086.5" y="236.8281"/><rect fill="#FFFFFF" filter="url(#f9gmetpupygwc)" height="30" style="stroke:#A80036;stroke-width:1.0;" width="10" x="1086.5" y="295.9609"/><rect fill="#FFFFFF" filter="url(#f9gmetpupygwc)" height="29.1328" style="stroke:#A80036;stroke-width:1.0;" width="10" x="1196" y="584.0234"/><rect fill="#FFFFFF" filter="url(#f9gmetpupygwc)" height="30" style="stroke:#A80036;stroke-width:1.0;" width="10" x="1196" y="658.4531"/><rect fill="#FFFFFF" filter="url(#f9gmetpupygwc)" height="30" style="stroke:#A80036;stroke-width:1.0;" width="10" x="1196" y="717.5859"/><rect fill="#FFFFFF" filter="url(#f9gmetpupygwc)" height="137.2656" style="stroke:#A80036;stroke-width:1.0;" width="10" x="1196" y="864.1172"/><rect fill="#FFFFFF" filter="url(#f9gmetpupygwc)" height="28" style="stroke:#A80036;stroke-width:1.0;" width="10" x="1201" y="901.25"/><rect fill="#FFFFFF" filter="url(#f9gmetpupygwc)" height="28" style="stroke:#A80036;stroke-width:1.0;" width="10" x="1201" y="973.3828"/><rect fill="#FFFFFF" filter="url(#f9gmetpupygwc)" height="704.5547" style="stroke:#000000;stroke-width:2.0;" width="1474" x="10" y="340.9609"/><line style="stroke:#A80036;stroke-width:1.0;stroke-dasharray:5.0,5.0;" x1="85" x2="85" y1="88.2969" y2="1091.6484"/><line style="stroke:#A80036;stroke-width:1.0;stroke-dasharray:5.0,5.0;" x1="528.5" x2="528.5" y1="88.2969" y2="1091.6484"/><line style="stroke:#A80036;stroke-width:1.0;stroke-dasharray:5.0,5.0;" x1="766.5" x2="766.5" y1="88.2969" y2="1091.6484"/><line style="stroke:#A80036;stroke-width:1.0;stroke-dasharray:5.0,5.0;" x1="990.5" x2="990.5" y1="88.2969" y2="1091.6484"/><line style="stroke:#A80036;stroke-width:1.0;stroke-dasharray:5.0,5.0;" x1="1091.5" x2="1091.5" y1="88.2969" y2="1091.6484"/><line style="stroke:#A80036;stroke-width:1.0;stroke-dasharray:5.0,5.0;" x1="1200.5" x2="1200.5" y1="88.2969" y2="1091.6484"/><line style="stroke:#A80036;stroke-width:1.0;stroke-dasharray:5.0,5.0;" x1="1424" x2="1424" y1="624.6719" y2="1091.6484"/><line style="stroke:#A80036;stroke-width:1.0;stroke-dasharray:5.0,5.0;" x1="1533" x2="1533" y1="88.2969" y2="1091.6484"/><line style="stroke:#A80036;stroke-width:1.0;stroke-dasharray:5.0,5.0;" x1="1663" x2="1663" y1="88.2969" y2="1091.6484"/><line style="stroke:#A80036;stroke-width:1.0;stroke-dasharray:5.0,5.0;" x1="1792" x2="1792" y1="88.2969" y2="1091.6484"/><text fill="#000000" font-family="sans-serif" font-size="14" lengthAdjust="spacing" textLength="124" x="20" y="84.9951">Specialist Doctor</text><ellipse cx="85" cy="15" fill="#FEFECE" filter="url(#f9gmetpupygwc)" rx="8" ry="8" style="stroke:#A80036;stroke-width:2.0;"/><path d="M85,23 L85,50 M72,31 L98,31 M85,50 L72,65 M85,50 L98,65 " fill="none" filter="url(#f9gmetpupygwc)" style="stroke:#A80036;stroke-width:2.0;"/><text fill="#000000" font-family="sans-serif" font-size="14" lengthAdjust="spacing" textLength="124" x="20" y="1103.6436">Specialist Doctor</text><ellipse cx="85" cy="1116.9453" fill="#FEFECE" filter="url(#f9gmetpupygwc)" rx="8" ry="8" style="stroke:#A80036;stroke-width:2.0;"/><path d="M85,1124.9453 L85,1151.9453 M72,1132.9453 L98,1132.9453 M85,1151.9453 L72,1166.9453 M85,1151.9453 L98,1166.9453 " fill="none" filter="url(#f9gmetpupygwc)" style="stroke:#A80036;stroke-width:2.0;"/><rect fill="#FEFECE" filter="url(#f9gmetpupygwc)" height="30.2969" style="stroke:#A80036;stroke-width:1.5;" width="123" x="465.5" y="53"/><text fill="#000000" font-family="sans-serif" font-size="14" lengthAdjust="spacing" textLength="109" x="472.5" y="72.9951">:WriteReportUI</text><rect fill="#FEFECE" filter="url(#f9gmetpupygwc)" height="30.2969" style="stroke:#A80036;stroke-width:1.5;" width="123" x="465.5" y="1090.6484"/><text fill="#000000" font-family="sans-serif" font-size="14" lengthAdjust="spacing" textLength="109" x="472.5" y="1110.6436">:WriteReportUI</text><rect fill="#FEFECE" filter="url(#f9gmetpupygwc)" height="30.2969" style="stroke:#A80036;stroke-width:1.5;" width="183" x="673.5" y="53"/><text fill="#000000" font-family="sans-serif" font-size="14" lengthAdjust="spacing" textLength="169" x="680.5" y="72.9951">:WriteReportController</text><rect fill="#FEFECE" filter="url(#f9gmetpupygwc)" height="30.2969" style="stroke:#A80036;stroke-width:1.5;" width="183" x="673.5" y="1090.6484"/><text fill="#000000" font-family="sans-serif" font-size="14" lengthAdjust="spacing" textLength="169" x="680.5" y="1110.6436">:WriteReportController</text><rect fill="#FEFECE" filter="url(#f9gmetpupygwc)" height="30.2969" style="stroke:#A80036;stroke-width:1.5;" width="87" x="945.5" y="53"/><text fill="#000000" font-family="sans-serif" font-size="14" lengthAdjust="spacing" textLength="73" x="952.5" y="72.9951">:Company</text><rect fill="#FEFECE" filter="url(#f9gmetpupygwc)" height="30.2969" style="stroke:#A80036;stroke-width:1.5;" width="87" x="945.5" y="1090.6484"/><text fill="#000000" font-family="sans-serif" font-size="14" lengthAdjust="spacing" textLength="73" x="952.5" y="1110.6436">:Company</text><rect fill="#FEFECE" filter="url(#f9gmetpupygwc)" height="46.5938" style="stroke:#A80036;stroke-width:1.5;" width="86" x="1046.5" y="36.7031"/><text fill="#000000" font-family="sans-serif" font-size="14" lengthAdjust="spacing" textLength="19" x="1080" y="56.6982">ts:</text><text fill="#000000" font-family="sans-serif" font-size="14" lengthAdjust="spacing" textLength="72" x="1053.5" y="72.9951">TestStore</text><rect fill="#FEFECE" filter="url(#f9gmetpupygwc)" height="46.5938" style="stroke:#A80036;stroke-width:1.5;" width="86" x="1046.5" y="1090.6484"/><text fill="#000000" font-family="sans-serif" font-size="14" lengthAdjust="spacing" textLength="19" x="1080" y="1110.6436">ts:</text><text fill="#000000" font-family="sans-serif" font-size="14" lengthAdjust="spacing" textLength="72" x="1053.5" y="1126.9404">TestStore</text><rect fill="#FEFECE" filter="url(#f9gmetpupygwc)" height="46.5938" style="stroke:#A80036;stroke-width:1.5;" width="105" x="1146.5" y="36.7031"/><text fill="#000000" font-family="sans-serif" font-size="14" lengthAdjust="spacing" textLength="70" x="1164" y="56.6982">repStore:</text><text fill="#000000" font-family="sans-serif" font-size="14" lengthAdjust="spacing" textLength="91" x="1153.5" y="72.9951">ReportStore</text><rect fill="#FEFECE" filter="url(#f9gmetpupygwc)" height="46.5938" style="stroke:#A80036;stroke-width:1.5;" width="105" x="1146.5" y="1090.6484"/><text fill="#000000" font-family="sans-serif" font-size="14" lengthAdjust="spacing" textLength="70" x="1164" y="1110.6436">repStore:</text><text fill="#000000" font-family="sans-serif" font-size="14" lengthAdjust="spacing" textLength="91" x="1153.5" y="1126.9404">ReportStore</text><rect fill="#FEFECE" filter="url(#f9gmetpupygwc)" height="30.2969" style="stroke:#A80036;stroke-width:1.5;" width="95" x="1375" y="1090.6484"/><text fill="#000000" font-family="sans-serif" font-size="14" lengthAdjust="spacing" textLength="81" x="1382" y="1110.6436">rep:Report</text><rect fill="#FEFECE" filter="url(#f9gmetpupygwc)" height="46.5938" style="stroke:#A80036;stroke-width:1.5;" width="94" x="1484" y="36.7031"/><text fill="#000000" font-family="sans-serif" font-size="14" lengthAdjust="spacing" textLength="16" x="1523" y="56.6982">lt:</text><text fill="#000000" font-family="sans-serif" font-size="14" lengthAdjust="spacing" textLength="80" x="1491" y="72.9951">List&lt;Test&gt;</text><rect fill="#FEFECE" filter="url(#f9gmetpupygwc)" height="46.5938" style="stroke:#A80036;stroke-width:1.5;" width="94" x="1484" y="1090.6484"/><text fill="#000000" font-family="sans-serif" font-size="14" lengthAdjust="spacing" textLength="16" x="1523" y="1110.6436">lt:</text><text fill="#000000" font-family="sans-serif" font-size="14" lengthAdjust="spacing" textLength="80" x="1491" y="1126.9404">List&lt;Test&gt;</text><rect fill="#FEFECE" filter="url(#f9gmetpupygwc)" height="46.5938" style="stroke:#A80036;stroke-width:1.5;" width="139" x="1592" y="36.7031"/><text fill="#000000" font-family="sans-serif" font-size="14" lengthAdjust="spacing" textLength="15" x="1654" y="56.6982">lr:</text><text fill="#000000" font-family="sans-serif" font-size="14" lengthAdjust="spacing" textLength="125" x="1599" y="72.9951">List&lt;TestResult&gt;</text><rect fill="#FEFECE" filter="url(#f9gmetpupygwc)" height="46.5938" style="stroke:#A80036;stroke-width:1.5;" width="139" x="1592" y="1090.6484"/><text fill="#000000" font-family="sans-serif" font-size="14" lengthAdjust="spacing" textLength="15" x="1654" y="1110.6436">lr:</text><text fill="#000000" font-family="sans-serif" font-size="14" lengthAdjust="spacing" textLength="125" x="1599" y="1126.9404">List&lt;TestResult&gt;</text><rect fill="#FEFECE" filter="url(#f9gmetpupygwc)" height="46.5938" style="stroke:#A80036;stroke-width:1.5;" width="91" x="1745" y="36.7031"/><text fill="#000000" font-family="sans-serif" font-size="14" lengthAdjust="spacing" textLength="18" x="1781.5" y="56.6982">tr:</text><text fill="#000000" font-family="sans-serif" font-size="14" lengthAdjust="spacing" textLength="77" x="1752" y="72.9951">TestResult</text><rect fill="#FEFECE" filter="url(#f9gmetpupygwc)" height="46.5938" style="stroke:#A80036;stroke-width:1.5;" width="91" x="1745" y="1090.6484"/><text fill="#000000" font-family="sans-serif" font-size="14" lengthAdjust="spacing" textLength="18" x="1781.5" y="1110.6436">tr:</text><text fill="#000000" font-family="sans-serif" font-size="14" lengthAdjust="spacing" textLength="77" x="1752" y="1126.9404">TestResult</text><rect fill="#FFFFFF" filter="url(#f9gmetpupygwc)" height="975.3516" style="stroke:#A80036;stroke-width:1.0;" width="10" x="80" y="98.2969"/><rect fill="#FFFFFF" filter="url(#f9gmetpupygwc)" height="259.7969" style="stroke:#A80036;stroke-width:1.0;" width="10" x="524" y="119.4297"/><rect fill="#FFFFFF" filter="url(#f9gmetpupygwc)" height="29.1328" style="stroke:#A80036;stroke-width:1.0;" width="10" x="524" y="408.3594"/><rect fill="#FFFFFF" filter="url(#f9gmetpupygwc)" height="310.0938" style="stroke:#A80036;stroke-width:1.0;" width="10" x="524" y="466.625"/><rect fill="#FFFFFF" filter="url(#f9gmetpupygwc)" height="267.7969" style="stroke:#A80036;stroke-width:1.0;" width="10" x="524" y="805.8516"/><rect fill="#FFFFFF" filter="url(#f9gmetpupygwc)" height="177.3984" style="stroke:#A80036;stroke-width:1.0;" width="10" x="762" y="148.5625"/><rect fill="#FFFFFF" filter="url(#f9gmetpupygwc)" height="251.8281" style="stroke:#A80036;stroke-width:1.0;" width="10" x="762" y="495.7578"/><rect fill="#FFFFFF" filter="url(#f9gmetpupygwc)" height="166.3984" style="stroke:#A80036;stroke-width:1.0;" width="10" x="762" y="834.9844"/><rect fill="#FFFFFF" filter="url(#f9gmetpupygwc)" height="30" style="stroke:#A80036;stroke-width:1.0;" width="10" x="986" y="177.6953"/><rect fill="#FFFFFF" filter="url(#f9gmetpupygwc)" height="30" style="stroke:#A80036;stroke-width:1.0;" width="10" x="986" y="524.8906"/><rect fill="#FFFFFF" filter="url(#f9gmetpupygwc)" height="30" style="stroke:#A80036;stroke-width:1.0;" width="10" x="1086.5" y="236.8281"/><rect fill="#FFFFFF" filter="url(#f9gmetpupygwc)" height="30" style="stroke:#A80036;stroke-width:1.0;" width="10" x="1086.5" y="295.9609"/><rect fill="#FFFFFF" filter="url(#f9gmetpupygwc)" height="29.1328" style="stroke:#A80036;stroke-width:1.0;" width="10" x="1196" y="584.0234"/><rect fill="#FFFFFF" filter="url(#f9gmetpupygwc)" height="30" style="stroke:#A80036;stroke-width:1.0;" width="10" x="1196" y="658.4531"/><rect fill="#FFFFFF" filter="url(#f9gmetpupygwc)" height="30" style="stroke:#A80036;stroke-width:1.0;" width="10" x="1196" y="717.5859"/><rect fill="#FFFFFF" filter="url(#f9gmetpupygwc)" height="137.2656" style="stroke:#A80036;stroke-width:1.0;" width="10" x="1196" y="864.1172"/><rect fill="#FFFFFF" filter="url(#f9gmetpupygwc)" height="28" style="stroke:#A80036;stroke-width:1.0;" width="10" x="1201" y="901.25"/><rect fill="#FFFFFF" filter="url(#f9gmetpupygwc)" height="28" style="stroke:#A80036;stroke-width:1.0;" width="10" x="1201" y="973.3828"/><polygon fill="#A80036" points="512,115.4297,522,119.4297,512,123.4297,516,119.4297" style="stroke:#A80036;stroke-width:1.0;"/><line style="stroke:#A80036;stroke-width:1.0;" x1="90" x2="518" y1="119.4297" y2="119.4297"/><text fill="#000000" font-family="sans-serif" font-size="13" font-weight="bold" lengthAdjust="spacing" textLength="9" x="97" y="114.3638">1</text><text fill="#000000" font-family="sans-serif" font-size="13" lengthAdjust="spacing" textLength="336" x="110" y="114.3638">asks to make a dignosis and write a report for a test</text><polygon fill="#A80036" points="750,144.5625,760,148.5625,750,152.5625,754,148.5625" style="stroke:#A80036;stroke-width:1.0;"/><line style="stroke:#A80036;stroke-width:1.0;" x1="534" x2="756" y1="148.5625" y2="148.5625"/><text fill="#000000" font-family="sans-serif" font-size="13" font-weight="bold" lengthAdjust="spacing" textLength="9" x="541" y="143.4966">2</text><text fill="#000000" font-family="sans-serif" font-size="13" lengthAdjust="spacing" textLength="196" x="554" y="143.4966">lt=getTestsWithoutDiagnosis()</text><polygon fill="#A80036" points="974,173.6953,984,177.6953,974,181.6953,978,177.6953" style="stroke:#A80036;stroke-width:1.0;"/><line style="stroke:#A80036;stroke-width:1.0;" x1="772" x2="980" y1="177.6953" y2="177.6953"/><text fill="#000000" font-family="sans-serif" font-size="13" font-weight="bold" lengthAdjust="spacing" textLength="8" x="779" y="172.6294">3</text><text fill="#000000" font-family="sans-serif" font-size="13" lengthAdjust="spacing" textLength="115" x="791" y="172.6294">ts=getTestStore()</text><polygon fill="#A80036" points="1074.5,232.8281,1084.5,236.8281,1074.5,240.8281,1078.5,236.8281" style="stroke:#A80036;stroke-width:1.0;"/><line style="stroke:#A80036;stroke-width:1.0;" x1="772" x2="1080.5" y1="236.8281" y2="236.8281"/><text fill="#000000" font-family="sans-serif" font-size="13" font-weight="bold" lengthAdjust="spacing" textLength="9" x="779" y="231.7622">4</text><text fill="#000000" font-family="sans-serif" font-size="13" lengthAdjust="spacing" textLength="196" x="792" y="231.7622">lt=getTestsWithoutDiagnosis()</text><polygon fill="#A80036" points="1074.5,291.9609,1084.5,295.9609,1074.5,299.9609,1078.5,295.9609" style="stroke:#A80036;stroke-width:1.0;"/><line style="stroke:#A80036;stroke-width:1.0;" x1="772" x2="1080.5" y1="295.9609" y2="295.9609"/><text fill="#000000" font-family="sans-serif" font-size="13" font-weight="bold" lengthAdjust="spacing" textLength="9" x="779" y="290.895">5</text><text fill="#000000" font-family="sans-serif" font-size="13" lengthAdjust="spacing" textLength="156" x="792" y="290.895">getTestByInternalCode()</text><path d="M10,340.9609 L88,340.9609 L88,347.9609 L78,357.9609 L10,357.9609 L10,340.9609 " fill="#EEEEEE" style="stroke:#000000;stroke-width:1.0;"/><rect fill="none" height="704.5547" style="stroke:#000000;stroke-width:2.0;" width="1474" x="10" y="340.9609"/><text fill="#000000" font-family="sans-serif" font-size="13" font-weight="bold" lengthAdjust="spacing" textLength="33" x="25" y="354.0278">loop</text><text fill="#000000" font-family="sans-serif" font-size="11" font-weight="bold" lengthAdjust="spacing" textLength="362" x="103" y="353.1714">[until the doctor doesn't want to analyze more tests]</text><polygon fill="#A80036" points="101,375.2266,91,379.2266,101,383.2266,97,379.2266" style="stroke:#A80036;stroke-width:1.0;"/><line style="stroke:#A80036;stroke-width:1.0;stroke-dasharray:2.0,2.0;" x1="95" x2="528" y1="379.2266" y2="379.2266"/><text fill="#000000" font-family="sans-serif" font-size="13" font-weight="bold" lengthAdjust="spacing" textLength="9" x="107" y="374.1606">6</text><text fill="#000000" font-family="sans-serif" font-size="13" lengthAdjust="spacing" textLength="235" x="120" y="374.1606">shows all tests ready to be analysed</text><polygon fill="#A80036" points="512,404.3594,522,408.3594,512,412.3594,516,408.3594" style="stroke:#A80036;stroke-width:1.0;"/><line style="stroke:#A80036;stroke-width:1.0;" x1="90" x2="518" y1="408.3594" y2="408.3594"/><text fill="#000000" font-family="sans-serif" font-size="13" font-weight="bold" lengthAdjust="spacing" textLength="9" x="97" y="403.2935">7</text><text fill="#000000" font-family="sans-serif" font-size="13" lengthAdjust="spacing" textLength="110" x="110" y="403.2935">chooses one test</text><polygon fill="#A80036" points="101,433.4922,91,437.4922,101,441.4922,97,437.4922" style="stroke:#A80036;stroke-width:1.0;"/><line style="stroke:#A80036;stroke-width:1.0;stroke-dasharray:2.0,2.0;" x1="95" x2="528" y1="437.4922" y2="437.4922"/><text fill="#000000" font-family="sans-serif" font-size="13" font-weight="bold" lengthAdjust="spacing" textLength="9" x="107" y="432.4263">8</text><text fill="#000000" font-family="sans-serif" font-size="13" lengthAdjust="spacing" textLength="397" x="120" y="432.4263">shows the result of the chosen test and requests data(report)</text><polygon fill="#A80036" points="512,462.625,522,466.625,512,470.625,516,466.625" style="stroke:#A80036;stroke-width:1.0;"/><line style="stroke:#A80036;stroke-width:1.0;" x1="90" x2="518" y1="466.625" y2="466.625"/><text fill="#000000" font-family="sans-serif" font-size="13" font-weight="bold" lengthAdjust="spacing" textLength="9" x="97" y="461.5591">9</text><text fill="#000000" font-family="sans-serif" font-size="13" lengthAdjust="spacing" textLength="138" x="110" y="461.5591">types requested data</text><polygon fill="#A80036" points="750,491.7578,760,495.7578,750,499.7578,754,495.7578" style="stroke:#A80036;stroke-width:1.0;"/><line style="stroke:#A80036;stroke-width:1.0;" x1="534" x2="756" y1="495.7578" y2="495.7578"/><text fill="#000000" font-family="sans-serif" font-size="13" font-weight="bold" lengthAdjust="spacing" textLength="19" x="541" y="490.6919">10</text><text fill="#000000" font-family="sans-serif" font-size="13" lengthAdjust="spacing" textLength="124" x="564" y="490.6919">writeReport(report)</text><polygon fill="#A80036" points="974,520.8906,984,524.8906,974,528.8906,978,524.8906" style="stroke:#A80036;stroke-width:1.0;"/><line style="stroke:#A80036;stroke-width:1.0;" x1="772" x2="980" y1="524.8906" y2="524.8906"/><text fill="#000000" font-family="sans-serif" font-size="13" font-weight="bold" lengthAdjust="spacing" textLength="18" x="779" y="519.8247">11</text><text fill="#000000" font-family="sans-serif" font-size="13" lengthAdjust="spacing" textLength="173" x="801" y="519.8247">repStore=getReportStore()</text><polygon fill="#A80036" points="1184,580.0234,1194,584.0234,1184,588.0234,1188,584.0234" style="stroke:#A80036;stroke-width:1.0;"/><line style="stroke:#A80036;stroke-width:1.0;" x1="772" x2="1190" y1="584.0234" y2="584.0234"/><text fill="#000000" font-family="sans-serif" font-size="13" font-weight="bold" lengthAdjust="spacing" textLength="18" x="779" y="578.9575">12</text><text fill="#000000" font-family="sans-serif" font-size="13" lengthAdjust="spacing" textLength="214" x="801" y="578.9575">rep=repStore.writeReport(report)</text><polygon fill="#A80036" points="1363,609.1563,1373,613.1563,1363,617.1563,1367,613.1563" style="stroke:#A80036;stroke-width:1.0;"/><line style="stroke:#A80036;stroke-width:1.0;" x1="1201" x2="1369" y1="613.1563" y2="613.1563"/><text fill="#000000" font-family="sans-serif" font-size="13" font-weight="bold" lengthAdjust="spacing" textLength="17" x="1208" y="608.0903">13</text><text fill="#000000" font-family="sans-serif" font-size="13" lengthAdjust="spacing" textLength="124" x="1229" y="608.0903">writeReport(report)</text><rect fill="#FEFECE" filter="url(#f9gmetpupygwc)" height="30.2969" style="stroke:#A80036;stroke-width:1.5;" width="95" x="1375" y="592.0234"/><text fill="#000000" font-family="sans-serif" font-size="14" lengthAdjust="spacing" textLength="81" x="1382" y="612.0186">rep:Report</text><polygon fill="#A80036" points="1184,654.4531,1194,658.4531,1184,662.4531,1188,658.4531" style="stroke:#A80036;stroke-width:1.0;"/><line style="stroke:#A80036;stroke-width:1.0;" x1="772" x2="1190" y1="658.4531" y2="658.4531"/><text fill="#000000" font-family="sans-serif" font-size="13" font-weight="bold" lengthAdjust="spacing" textLength="18" x="779" y="653.3872">14</text><text fill="#000000" font-family="sans-serif" font-size="13" lengthAdjust="spacing" textLength="125" x="801" y="653.3872">validateReport(rep)</text><polygon fill="#A80036" points="1184,713.5859,1194,717.5859,1184,721.5859,1188,717.5859" style="stroke:#A80036;stroke-width:1.0;"/><line style="stroke:#A80036;stroke-width:1.0;" x1="772" x2="1190" y1="717.5859" y2="717.5859"/><text fill="#000000" font-family="sans-serif" font-size="13" font-weight="bold" lengthAdjust="spacing" textLength="18" x="779" y="712.52">15</text><text fill="#000000" font-family="sans-serif" font-size="13" lengthAdjust="spacing" textLength="98" x="801" y="712.52">addReport(rep)</text><polygon fill="#A80036" points="101,772.7188,91,776.7188,101,780.7188,97,776.7188" style="stroke:#A80036;stroke-width:1.0;"/><line style="stroke:#A80036;stroke-width:1.0;stroke-dasharray:2.0,2.0;" x1="95" x2="528" y1="776.7188" y2="776.7188"/><text fill="#000000" font-family="sans-serif" font-size="13" font-weight="bold" lengthAdjust="spacing" textLength="18" x="107" y="771.6528">16</text><text fill="#000000" font-family="sans-serif" font-size="13" lengthAdjust="spacing" textLength="277" x="129" y="771.6528">shows the data and request a confirmation</text><polygon fill="#A80036" points="512,801.8516,522,805.8516,512,809.8516,516,805.8516" style="stroke:#A80036;stroke-width:1.0;"/><line style="stroke:#A80036;stroke-width:1.0;" x1="90" x2="518" y1="805.8516" y2="805.8516"/><text fill="#000000" font-family="sans-serif" font-size="13" font-weight="bold" lengthAdjust="spacing" textLength="18" x="97" y="800.7856">17</text><text fill="#000000" font-family="sans-serif" font-size="13" lengthAdjust="spacing" textLength="114" x="119" y="800.7856">confirms the data</text><polygon fill="#A80036" points="750,830.9844,760,834.9844,750,838.9844,754,834.9844" style="stroke:#A80036;stroke-width:1.0;"/><line style="stroke:#A80036;stroke-width:1.0;" x1="534" x2="756" y1="834.9844" y2="834.9844"/><text fill="#000000" font-family="sans-serif" font-size="13" font-weight="bold" lengthAdjust="spacing" textLength="18" x="541" y="829.9185">18</text><text fill="#000000" font-family="sans-serif" font-size="13" lengthAdjust="spacing" textLength="84" x="563" y="829.9185">saveReport()</text><polygon fill="#A80036" points="1184,860.1172,1194,864.1172,1184,868.1172,1188,864.1172" style="stroke:#A80036;stroke-width:1.0;"/><line style="stroke:#A80036;stroke-width:1.0;" x1="772" x2="1190" y1="864.1172" y2="864.1172"/><text fill="#000000" font-family="sans-serif" font-size="13" font-weight="bold" lengthAdjust="spacing" textLength="18" x="779" y="859.0513">19</text><text fill="#000000" font-family="sans-serif" font-size="13" lengthAdjust="spacing" textLength="105" x="801" y="859.0513">saveReport(rep)</text><line style="stroke:#A80036;stroke-width:1.0;" x1="1211" x2="1253" y1="893.25" y2="893.25"/><line style="stroke:#A80036;stroke-width:1.0;" x1="1253" x2="1253" y1="893.25" y2="906.25"/><line style="stroke:#A80036;stroke-width:1.0;" x1="1212" x2="1253" y1="906.25" y2="906.25"/><polygon fill="#A80036" points="1222,902.25,1212,906.25,1222,910.25,1218,906.25" style="stroke:#A80036;stroke-width:1.0;"/><text fill="#000000" font-family="sans-serif" font-size="13" font-weight="bold" lengthAdjust="spacing" textLength="19" x="1218" y="888.1841">20</text><text fill="#000000" font-family="sans-serif" font-size="13" lengthAdjust="spacing" textLength="125" x="1241" y="888.1841">validateReport(rep)</text><line style="stroke:#A80036;stroke-width:1.0;" x1="1211" x2="1253" y1="965.3828" y2="965.3828"/><line style="stroke:#A80036;stroke-width:1.0;" x1="1253" x2="1253" y1="965.3828" y2="978.3828"/><line style="stroke:#A80036;stroke-width:1.0;" x1="1212" x2="1253" y1="978.3828" y2="978.3828"/><polygon fill="#A80036" points="1222,974.3828,1212,978.3828,1222,982.3828,1218,978.3828" style="stroke:#A80036;stroke-width:1.0;"/><text fill="#000000" font-family="sans-serif" font-size="13" font-weight="bold" lengthAdjust="spacing" textLength="18" x="1218" y="960.3169">21</text><text fill="#000000" font-family="sans-serif" font-size="13" lengthAdjust="spacing" textLength="98" x="1240" y="960.3169">addReport(rep)</text><polygon fill="#A80036" points="101,1033.5156,91,1037.5156,101,1041.5156,97,1037.5156" style="stroke:#A80036;stroke-width:1.0;"/><line style="stroke:#A80036;stroke-width:1.0;stroke-dasharray:2.0,2.0;" x1="95" x2="523" y1="1037.5156" y2="1037.5156"/><text fill="#000000" font-family="sans-serif" font-size="13" font-weight="bold" lengthAdjust="spacing" textLength="18" x="107" y="1032.4497">22</text><text fill="#000000" font-family="sans-serif" font-size="13" lengthAdjust="spacing" textLength="125" x="129" y="1032.4497">saved with success</text><polygon fill="#A80036" points="96,1069.6484,86,1073.6484,96,1077.6484,92,1073.6484" style="stroke:#A80036;stroke-width:1.0;"/><line style="stroke:#A80036;stroke-width:1.0;stroke-dasharray:2.0,2.0;" x1="90" x2="528" y1="1073.6484" y2="1073.6484"/><text fill="#000000" font-family="sans-serif" font-size="13" font-weight="bold" lengthAdjust="spacing" textLength="17" x="102" y="1068.5825">23</text><text fill="#000000" font-family="sans-serif" font-size="13" lengthAdjust="spacing" textLength="169" x="123" y="1068.5825">informs operation succecs</text><!--MD5=[2e355afa2ab00411ed215b6872e050e6]
@startuml
autonumber
actor "Specialist Doctor" as SD

participant ":WriteReportUI" as UI
participant ":WriteReportController" as CTRL
participant ":Company" as CMP
participant "ts:\nTestStore" as TSTORE
participant "repStore:\nReportStore" as STORE
participant "rep:Report" as REP
participant "lt:\nList<Test>" as LT
participant "lr:\nList<TestResult>" as LR
participant "tr:\nTestResult" as TR


activate SD
SD-> UI : asks to make a dignosis and write a report for a test
activate UI
UI -> CTRL : lt=getTestsWithoutDiagnosis()
activate CTRL
CTRL -> CMP: ts=getTestStore()
activate CMP
deactivate CMP
CTRL -> TSTORE : lt=getTestsWithoutDiagnosis()
activate TSTORE
deactivate TSTORE
CTRL -> TSTORE : getTestByInternalCode()
activate TSTORE
deactivate TSTORE
deactivate CTRL
loop until the doctor doesn't want to analyze more tests
UI - ->SD : shows all tests ready to be analysed
deactivate UI
SD -> UI : chooses one test
activate UI
UI - -> SD : shows the result of the chosen test and requests data(report)
deactivate UI
SD -> UI : types requested data
activate UI
UI-> CTRL : writeReport(report)
activate CTRL
CTRL -> CMP : repStore=getReportStore()
activate CMP
deactivate CMP
CTRL -> STORE : rep=repStore.writeReport(report)
activate STORE
STORE -> REP** : writeReport(report)
deactivate STORE

CTRL -> STORE : validateReport(rep)
activate STORE
deactivate STORE
CTRL -> STORE : addReport(rep)
activate STORE
deactivate STORE


deactivate CTRL

UI - -> SD : shows the data and request a confirmation
deactivate UI


SD -> UI : confirms the data
activate UI

UI -> CTRL : saveReport()
activate CTRL

CTRL -> STORE : saveReport(rep)
activate STORE
STORE -> STORE : validateReport(rep)
activate STORE
STORE- -
STORE -> STORE : addReport(rep)
activate STORE
STORE- -
deactivate STORE
deactivate CTRL

UI - -> SD : saved with success
end
UI - -> SD: informs operation succecs
deactivate UI

deactivate SD
@enduml

PlantUML version 1.2021.7(Sun May 23 12:40:07 UTC 2021)
(GPL source distribution)
Java Runtime: Java(TM) SE Runtime Environment
JVM: Java HotSpot(TM) 64-Bit Server VM
Default Encoding: UTF-8
Language: en
Country: US
--></g></svg>