<?xml version="1.0" encoding="UTF-8" standalone="no"?><svg xmlns="http://www.w3.org/2000/svg" xmlns:xlink="http://www.w3.org/1999/xlink" contentScriptType="application/ecmascript" contentStyleType="text/css" height="1087px" preserveAspectRatio="none" style="width:1843px;height:1087px;background:#FFFFFF;" version="1.1" viewBox="0 0 1843 1087" width="1843px" zoomAndPan="magnify"><defs><filter height="300%" id="fzvpg726iz3jb" width="300%" x="-1" y="-1"><feGaussianBlur result="blurOut" stdDeviation="2.0"/><feColorMatrix in="blurOut" result="blurOut2" type="matrix" values="0 0 0 0 0 0 0 0 0 0 0 0 0 0 0 0 0 0 .4 0"/><feOffset dx="4.0" dy="4.0" in="blurOut2" result="blurOut3"/><feBlend in="SourceGraphic" in2="blurOut3" mode="normal"/></filter></defs><g><rect fill="#FFFFFF" filter="url(#fzvpg726iz3jb)" height="880.0859" style="stroke:#A80036;stroke-width:1.0;" width="10" x="80" y="98.2969"/><rect fill="#FFFFFF" filter="url(#fzvpg726iz3jb)" height="200.6641" style="stroke:#A80036;stroke-width:1.0;" width="10" x="475" y="119.4297"/><rect fill="#FFFFFF" filter="url(#fzvpg726iz3jb)" height="29.1328" style="stroke:#A80036;stroke-width:1.0;" width="10" x="475" y="349.2266"/><rect fill="#FFFFFF" filter="url(#fzvpg726iz3jb)" height="310.0938" style="stroke:#A80036;stroke-width:1.0;" width="10" x="475" y="407.4922"/><rect fill="#FFFFFF" filter="url(#fzvpg726iz3jb)" height="231.6641" style="stroke:#A80036;stroke-width:1.0;" width="10" x="475" y="746.7188"/><rect fill="#FFFFFF" filter="url(#fzvpg726iz3jb)" height="118.2656" style="stroke:#A80036;stroke-width:1.0;" width="10" x="751" y="148.5625"/><rect fill="#FFFFFF" filter="url(#fzvpg726iz3jb)" height="251.8281" style="stroke:#A80036;stroke-width:1.0;" width="10" x="751" y="436.625"/><rect fill="#FFFFFF" filter="url(#fzvpg726iz3jb)" height="166.3984" style="stroke:#A80036;stroke-width:1.0;" width="10" x="751" y="775.8516"/><rect fill="#FFFFFF" filter="url(#fzvpg726iz3jb)" height="30" style="stroke:#A80036;stroke-width:1.0;" width="10" x="976" y="177.6953"/><rect fill="#FFFFFF" filter="url(#fzvpg726iz3jb)" height="30" style="stroke:#A80036;stroke-width:1.0;" width="10" x="976" y="465.7578"/><rect fill="#FFFFFF" filter="url(#fzvpg726iz3jb)" height="30" style="stroke:#A80036;stroke-width:1.0;" width="10" x="1099" y="236.8281"/><rect fill="#FFFFFF" filter="url(#fzvpg726iz3jb)" height="29.1328" style="stroke:#A80036;stroke-width:1.0;" width="10" x="1231" y="524.8906"/><rect fill="#FFFFFF" filter="url(#fzvpg726iz3jb)" height="30" style="stroke:#A80036;stroke-width:1.0;" width="10" x="1231" y="599.3203"/><rect fill="#FFFFFF" filter="url(#fzvpg726iz3jb)" height="30" style="stroke:#A80036;stroke-width:1.0;" width="10" x="1231" y="658.4531"/><rect fill="#FFFFFF" filter="url(#fzvpg726iz3jb)" height="137.2656" style="stroke:#A80036;stroke-width:1.0;" width="10" x="1231" y="804.9844"/><rect fill="#FFFFFF" filter="url(#fzvpg726iz3jb)" height="28" style="stroke:#A80036;stroke-width:1.0;" width="10" x="1236" y="842.1172"/><rect fill="#FFFFFF" filter="url(#fzvpg726iz3jb)" height="28" style="stroke:#A80036;stroke-width:1.0;" width="10" x="1236" y="914.25"/><rect fill="#FFFFFF" filter="url(#fzvpg726iz3jb)" height="704.5547" style="stroke:#000000;stroke-width:2.0;" width="1620" x="10" y="281.8281"/><line style="stroke:#A80036;stroke-width:1.0;stroke-dasharray:5.0,5.0;" x1="85" x2="85" y1="88.2969" y2="1003.3828"/><line style="stroke:#A80036;stroke-width:1.0;stroke-dasharray:5.0,5.0;" x1="479.5" x2="479.5" y1="88.2969" y2="1003.3828"/><line style="stroke:#A80036;stroke-width:1.0;stroke-dasharray:5.0,5.0;" x1="755.5" x2="755.5" y1="88.2969" y2="1003.3828"/><line style="stroke:#A80036;stroke-width:1.0;stroke-dasharray:5.0,5.0;" x1="980.5" x2="980.5" y1="88.2969" y2="1003.3828"/><line style="stroke:#A80036;stroke-width:1.0;stroke-dasharray:5.0,5.0;" x1="1103.5" x2="1103.5" y1="88.2969" y2="1003.3828"/><line style="stroke:#A80036;stroke-width:1.0;stroke-dasharray:5.0,5.0;" x1="1235.5" x2="1235.5" y1="88.2969" y2="1003.3828"/><line style="stroke:#A80036;stroke-width:1.0;stroke-dasharray:5.0,5.0;" x1="1570" x2="1570" y1="565.5391" y2="1003.3828"/><line style="stroke:#A80036;stroke-width:1.0;stroke-dasharray:5.0,5.0;" x1="1701" x2="1701" y1="88.2969" y2="1003.3828"/><line style="stroke:#A80036;stroke-width:1.0;stroke-dasharray:5.0,5.0;" x1="1808" x2="1808" y1="88.2969" y2="1003.3828"/><text fill="#000000" font-family="sans-serif" font-size="14" lengthAdjust="spacing" textLength="124" x="20" y="84.9951">Specialist Doctor</text><ellipse cx="85" cy="15" fill="#FEFECE" filter="url(#fzvpg726iz3jb)" rx="8" ry="8" style="stroke:#A80036;stroke-width:2.0;"/><path d="M85,23 L85,50 M72,31 L98,31 M85,50 L72,65 M85,50 L98,65 " fill="none" filter="url(#fzvpg726iz3jb)" style="stroke:#A80036;stroke-width:2.0;"/><text fill="#000000" font-family="sans-serif" font-size="14" lengthAdjust="spacing" textLength="124" x="20" y="1015.3779">Specialist Doctor</text><ellipse cx="85" cy="1028.6797" fill="#FEFECE" filter="url(#fzvpg726iz3jb)" rx="8" ry="8" style="stroke:#A80036;stroke-width:2.0;"/><path d="M85,1036.6797 L85,1063.6797 M72,1044.6797 L98,1044.6797 M85,1063.6797 L72,1078.6797 M85,1063.6797 L98,1078.6797 " fill="none" filter="url(#fzvpg726iz3jb)" style="stroke:#A80036;stroke-width:2.0;"/><rect fill="#FEFECE" filter="url(#fzvpg726iz3jb)" height="30.2969" style="stroke:#A80036;stroke-width:1.5;" width="123" x="416.5" y="53"/><text fill="#000000" font-family="sans-serif" font-size="14" lengthAdjust="spacing" textLength="109" x="423.5" y="72.9951">:WriteReportUI</text><rect fill="#FEFECE" filter="url(#fzvpg726iz3jb)" height="30.2969" style="stroke:#A80036;stroke-width:1.5;" width="123" x="416.5" y="1002.3828"/><text fill="#000000" font-family="sans-serif" font-size="14" lengthAdjust="spacing" textLength="109" x="423.5" y="1022.3779">:WriteReportUI</text><rect fill="#FEFECE" filter="url(#fzvpg726iz3jb)" height="30.2969" style="stroke:#A80036;stroke-width:1.5;" width="183" x="662.5" y="53"/><text fill="#000000" font-family="sans-serif" font-size="14" lengthAdjust="spacing" textLength="169" x="669.5" y="72.9951">:WriteReportController</text><rect fill="#FEFECE" filter="url(#fzvpg726iz3jb)" height="30.2969" style="stroke:#A80036;stroke-width:1.5;" width="183" x="662.5" y="1002.3828"/><text fill="#000000" font-family="sans-serif" font-size="14" lengthAdjust="spacing" textLength="169" x="669.5" y="1022.3779">:WriteReportController</text><rect fill="#FEFECE" filter="url(#fzvpg726iz3jb)" height="30.2969" style="stroke:#A80036;stroke-width:1.5;" width="87" x="935.5" y="53"/><text fill="#000000" font-family="sans-serif" font-size="14" lengthAdjust="spacing" textLength="73" x="942.5" y="72.9951">:Company</text><rect fill="#FEFECE" filter="url(#fzvpg726iz3jb)" height="30.2969" style="stroke:#A80036;stroke-width:1.5;" width="87" x="935.5" y="1002.3828"/><text fill="#000000" font-family="sans-serif" font-size="14" lengthAdjust="spacing" textLength="73" x="942.5" y="1022.3779">:Company</text><rect fill="#FEFECE" filter="url(#fzvpg726iz3jb)" height="46.5938" style="stroke:#A80036;stroke-width:1.5;" width="131" x="1036.5" y="36.7031"/><text fill="#000000" font-family="sans-serif" font-size="14" lengthAdjust="spacing" textLength="19" x="1092.5" y="56.6982">ts:</text><text fill="#000000" font-family="sans-serif" font-size="14" lengthAdjust="spacing" textLength="117" x="1043.5" y="72.9951">TestResultStore</text><rect fill="#FEFECE" filter="url(#fzvpg726iz3jb)" height="46.5938" style="stroke:#A80036;stroke-width:1.5;" width="131" x="1036.5" y="1002.3828"/><text fill="#000000" font-family="sans-serif" font-size="14" lengthAdjust="spacing" textLength="19" x="1092.5" y="1022.3779">ts:</text><text fill="#000000" font-family="sans-serif" font-size="14" lengthAdjust="spacing" textLength="117" x="1043.5" y="1038.6748">TestResultStore</text><rect fill="#FEFECE" filter="url(#fzvpg726iz3jb)" height="46.5938" style="stroke:#A80036;stroke-width:1.5;" width="105" x="1181.5" y="36.7031"/><text fill="#000000" font-family="sans-serif" font-size="14" lengthAdjust="spacing" textLength="70" x="1199" y="56.6982">repStore:</text><text fill="#000000" font-family="sans-serif" font-size="14" lengthAdjust="spacing" textLength="91" x="1188.5" y="72.9951">ReportStore</text><rect fill="#FEFECE" filter="url(#fzvpg726iz3jb)" height="46.5938" style="stroke:#A80036;stroke-width:1.5;" width="105" x="1181.5" y="1002.3828"/><text fill="#000000" font-family="sans-serif" font-size="14" lengthAdjust="spacing" textLength="70" x="1199" y="1022.3779">repStore:</text><text fill="#000000" font-family="sans-serif" font-size="14" lengthAdjust="spacing" textLength="91" x="1188.5" y="1038.6748">ReportStore</text><rect fill="#FEFECE" filter="url(#fzvpg726iz3jb)" height="30.2969" style="stroke:#A80036;stroke-width:1.5;" width="95" x="1521" y="1002.3828"/><text fill="#000000" font-family="sans-serif" font-size="14" lengthAdjust="spacing" textLength="81" x="1528" y="1022.3779">rep:Report</text><rect fill="#FEFECE" filter="url(#fzvpg726iz3jb)" height="46.5938" style="stroke:#A80036;stroke-width:1.5;" width="139" x="1630" y="36.7031"/><text fill="#000000" font-family="sans-serif" font-size="14" lengthAdjust="spacing" textLength="16" x="1691.5" y="56.6982">lt:</text><text fill="#000000" font-family="sans-serif" font-size="14" lengthAdjust="spacing" textLength="125" x="1637" y="72.9951">List&lt;TestResult&gt;</text><rect fill="#FEFECE" filter="url(#fzvpg726iz3jb)" height="46.5938" style="stroke:#A80036;stroke-width:1.5;" width="139" x="1630" y="1002.3828"/><text fill="#000000" font-family="sans-serif" font-size="14" lengthAdjust="spacing" textLength="16" x="1691.5" y="1022.3779">lt:</text><text fill="#000000" font-family="sans-serif" font-size="14" lengthAdjust="spacing" textLength="125" x="1637" y="1038.6748">List&lt;TestResult&gt;</text><rect fill="#FEFECE" filter="url(#fzvpg726iz3jb)" height="46.5938" style="stroke:#A80036;stroke-width:1.5;" width="46" x="1783" y="36.7031"/><text fill="#000000" font-family="sans-serif" font-size="14" lengthAdjust="spacing" textLength="19" x="1796.5" y="56.6982">tt:</text><text fill="#000000" font-family="sans-serif" font-size="14" lengthAdjust="spacing" textLength="32" x="1790" y="72.9951">Test</text><rect fill="#FEFECE" filter="url(#fzvpg726iz3jb)" height="46.5938" style="stroke:#A80036;stroke-width:1.5;" width="46" x="1783" y="1002.3828"/><text fill="#000000" font-family="sans-serif" font-size="14" lengthAdjust="spacing" textLength="19" x="1796.5" y="1022.3779">tt:</text><text fill="#000000" font-family="sans-serif" font-size="14" lengthAdjust="spacing" textLength="32" x="1790" y="1038.6748">Test</text><rect fill="#FFFFFF" filter="url(#fzvpg726iz3jb)" height="880.0859" style="stroke:#A80036;stroke-width:1.0;" width="10" x="80" y="98.2969"/><rect fill="#FFFFFF" filter="url(#fzvpg726iz3jb)" height="200.6641" style="stroke:#A80036;stroke-width:1.0;" width="10" x="475" y="119.4297"/><rect fill="#FFFFFF" filter="url(#fzvpg726iz3jb)" height="29.1328" style="stroke:#A80036;stroke-width:1.0;" width="10" x="475" y="349.2266"/><rect fill="#FFFFFF" filter="url(#fzvpg726iz3jb)" height="310.0938" style="stroke:#A80036;stroke-width:1.0;" width="10" x="475" y="407.4922"/><rect fill="#FFFFFF" filter="url(#fzvpg726iz3jb)" height="231.6641" style="stroke:#A80036;stroke-width:1.0;" width="10" x="475" y="746.7188"/><rect fill="#FFFFFF" filter="url(#fzvpg726iz3jb)" height="118.2656" style="stroke:#A80036;stroke-width:1.0;" width="10" x="751" y="148.5625"/><rect fill="#FFFFFF" filter="url(#fzvpg726iz3jb)" height="251.8281" style="stroke:#A80036;stroke-width:1.0;" width="10" x="751" y="436.625"/><rect fill="#FFFFFF" filter="url(#fzvpg726iz3jb)" height="166.3984" style="stroke:#A80036;stroke-width:1.0;" width="10" x="751" y="775.8516"/><rect fill="#FFFFFF" filter="url(#fzvpg726iz3jb)" height="30" style="stroke:#A80036;stroke-width:1.0;" width="10" x="976" y="177.6953"/><rect fill="#FFFFFF" filter="url(#fzvpg726iz3jb)" height="30" style="stroke:#A80036;stroke-width:1.0;" width="10" x="976" y="465.7578"/><rect fill="#FFFFFF" filter="url(#fzvpg726iz3jb)" height="30" style="stroke:#A80036;stroke-width:1.0;" width="10" x="1099" y="236.8281"/><rect fill="#FFFFFF" filter="url(#fzvpg726iz3jb)" height="29.1328" style="stroke:#A80036;stroke-width:1.0;" width="10" x="1231" y="524.8906"/><rect fill="#FFFFFF" filter="url(#fzvpg726iz3jb)" height="30" style="stroke:#A80036;stroke-width:1.0;" width="10" x="1231" y="599.3203"/><rect fill="#FFFFFF" filter="url(#fzvpg726iz3jb)" height="30" style="stroke:#A80036;stroke-width:1.0;" width="10" x="1231" y="658.4531"/><rect fill="#FFFFFF" filter="url(#fzvpg726iz3jb)" height="137.2656" style="stroke:#A80036;stroke-width:1.0;" width="10" x="1231" y="804.9844"/><rect fill="#FFFFFF" filter="url(#fzvpg726iz3jb)" height="28" style="stroke:#A80036;stroke-width:1.0;" width="10" x="1236" y="842.1172"/><rect fill="#FFFFFF" filter="url(#fzvpg726iz3jb)" height="28" style="stroke:#A80036;stroke-width:1.0;" width="10" x="1236" y="914.25"/><polygon fill="#A80036" points="463,115.4297,473,119.4297,463,123.4297,467,119.4297" style="stroke:#A80036;stroke-width:1.0;"/><line style="stroke:#A80036;stroke-width:1.0;" x1="90" x2="469" y1="119.4297" y2="119.4297"/><text fill="#000000" font-family="sans-serif" font-size="13" font-weight="bold" lengthAdjust="spacing" textLength="9" x="97" y="114.3638">1</text><text fill="#000000" font-family="sans-serif" font-size="13" lengthAdjust="spacing" textLength="336" x="110" y="114.3638">asks to make a dignosis and write a report for a test</text><polygon fill="#A80036" points="739,144.5625,749,148.5625,739,152.5625,743,148.5625" style="stroke:#A80036;stroke-width:1.0;"/><line style="stroke:#A80036;stroke-width:1.0;" x1="485" x2="745" y1="148.5625" y2="148.5625"/><text fill="#000000" font-family="sans-serif" font-size="13" font-weight="bold" lengthAdjust="spacing" textLength="9" x="492" y="143.4966">2</text><text fill="#000000" font-family="sans-serif" font-size="13" lengthAdjust="spacing" textLength="124" x="505" y="143.4966">lt=getTestResults()</text><polygon fill="#A80036" points="964,173.6953,974,177.6953,964,181.6953,968,177.6953" style="stroke:#A80036;stroke-width:1.0;"/><line style="stroke:#A80036;stroke-width:1.0;" x1="761" x2="970" y1="177.6953" y2="177.6953"/><text fill="#000000" font-family="sans-serif" font-size="13" font-weight="bold" lengthAdjust="spacing" textLength="8" x="768" y="172.6294">3</text><text fill="#000000" font-family="sans-serif" font-size="13" lengthAdjust="spacing" textLength="155" x="780" y="172.6294">ts=getTestResultStore()</text><polygon fill="#A80036" points="1087,232.8281,1097,236.8281,1087,240.8281,1091,236.8281" style="stroke:#A80036;stroke-width:1.0;"/><line style="stroke:#A80036;stroke-width:1.0;" x1="761" x2="1093" y1="236.8281" y2="236.8281"/><text fill="#000000" font-family="sans-serif" font-size="13" font-weight="bold" lengthAdjust="spacing" textLength="9" x="768" y="231.7622">4</text><text fill="#000000" font-family="sans-serif" font-size="13" lengthAdjust="spacing" textLength="124" x="781" y="231.7622">lt=getTestResults()</text><path d="M10,281.8281 L88,281.8281 L88,288.8281 L78,298.8281 L10,298.8281 L10,281.8281 " fill="#EEEEEE" style="stroke:#000000;stroke-width:1.0;"/><rect fill="none" height="704.5547" style="stroke:#000000;stroke-width:2.0;" width="1620" x="10" y="281.8281"/><text fill="#000000" font-family="sans-serif" font-size="13" font-weight="bold" lengthAdjust="spacing" textLength="33" x="25" y="294.895">loop</text><text fill="#000000" font-family="sans-serif" font-size="11" font-weight="bold" lengthAdjust="spacing" textLength="362" x="103" y="294.0386">[until the doctor doesn't want to analyze more tests]</text><polygon fill="#A80036" points="101,316.0938,91,320.0938,101,324.0938,97,320.0938" style="stroke:#A80036;stroke-width:1.0;"/><line style="stroke:#A80036;stroke-width:1.0;stroke-dasharray:2.0,2.0;" x1="95" x2="479" y1="320.0938" y2="320.0938"/><text fill="#000000" font-family="sans-serif" font-size="13" font-weight="bold" lengthAdjust="spacing" textLength="9" x="107" y="315.0278">5</text><text fill="#000000" font-family="sans-serif" font-size="13" lengthAdjust="spacing" textLength="235" x="120" y="315.0278">shows all tests ready to be analysed</text><polygon fill="#A80036" points="463,345.2266,473,349.2266,463,353.2266,467,349.2266" style="stroke:#A80036;stroke-width:1.0;"/><line style="stroke:#A80036;stroke-width:1.0;" x1="90" x2="469" y1="349.2266" y2="349.2266"/><text fill="#000000" font-family="sans-serif" font-size="13" font-weight="bold" lengthAdjust="spacing" textLength="9" x="97" y="344.1606">6</text><text fill="#000000" font-family="sans-serif" font-size="13" lengthAdjust="spacing" textLength="110" x="110" y="344.1606">chooses one test</text><polygon fill="#A80036" points="101,374.3594,91,378.3594,101,382.3594,97,378.3594" style="stroke:#A80036;stroke-width:1.0;"/><line style="stroke:#A80036;stroke-width:1.0;stroke-dasharray:2.0,2.0;" x1="95" x2="479" y1="378.3594" y2="378.3594"/><text fill="#000000" font-family="sans-serif" font-size="13" font-weight="bold" lengthAdjust="spacing" textLength="9" x="107" y="373.2935">7</text><text fill="#000000" font-family="sans-serif" font-size="13" lengthAdjust="spacing" textLength="348" x="120" y="373.2935">shows the chosen test and requests data(date,report)</text><polygon fill="#A80036" points="463,403.4922,473,407.4922,463,411.4922,467,407.4922" style="stroke:#A80036;stroke-width:1.0;"/><line style="stroke:#A80036;stroke-width:1.0;" x1="90" x2="469" y1="407.4922" y2="407.4922"/><text fill="#000000" font-family="sans-serif" font-size="13" font-weight="bold" lengthAdjust="spacing" textLength="9" x="97" y="402.4263">8</text><text fill="#000000" font-family="sans-serif" font-size="13" lengthAdjust="spacing" textLength="138" x="110" y="402.4263">types requested data</text><polygon fill="#A80036" points="739,432.625,749,436.625,739,440.625,743,436.625" style="stroke:#A80036;stroke-width:1.0;"/><line style="stroke:#A80036;stroke-width:1.0;" x1="485" x2="745" y1="436.625" y2="436.625"/><text fill="#000000" font-family="sans-serif" font-size="13" font-weight="bold" lengthAdjust="spacing" textLength="9" x="492" y="431.5591">9</text><text fill="#000000" font-family="sans-serif" font-size="13" lengthAdjust="spacing" textLength="234" x="505" y="431.5591">writeReport(date,testChosen,report)</text><polygon fill="#A80036" points="964,461.7578,974,465.7578,964,469.7578,968,465.7578" style="stroke:#A80036;stroke-width:1.0;"/><line style="stroke:#A80036;stroke-width:1.0;" x1="761" x2="970" y1="465.7578" y2="465.7578"/><text fill="#000000" font-family="sans-serif" font-size="13" font-weight="bold" lengthAdjust="spacing" textLength="19" x="768" y="460.6919">10</text><text fill="#000000" font-family="sans-serif" font-size="13" lengthAdjust="spacing" textLength="173" x="791" y="460.6919">repStore=getReportStore()</text><polygon fill="#A80036" points="1219,520.8906,1229,524.8906,1219,528.8906,1223,524.8906" style="stroke:#A80036;stroke-width:1.0;"/><line style="stroke:#A80036;stroke-width:1.0;" x1="761" x2="1225" y1="524.8906" y2="524.8906"/><text fill="#000000" font-family="sans-serif" font-size="13" font-weight="bold" lengthAdjust="spacing" textLength="18" x="768" y="519.8247">11</text><text fill="#000000" font-family="sans-serif" font-size="13" lengthAdjust="spacing" textLength="324" x="790" y="519.8247">rep=repStore.writeReport(date,testChosen,report)</text><polygon fill="#A80036" points="1509,550.0234,1519,554.0234,1509,558.0234,1513,554.0234" style="stroke:#A80036;stroke-width:1.0;"/><line style="stroke:#A80036;stroke-width:1.0;" x1="1236" x2="1515" y1="554.0234" y2="554.0234"/><text fill="#000000" font-family="sans-serif" font-size="13" font-weight="bold" lengthAdjust="spacing" textLength="18" x="1243" y="548.9575">12</text><text fill="#000000" font-family="sans-serif" font-size="13" lengthAdjust="spacing" textLength="234" x="1265" y="548.9575">writeReport(date,testChosen,report)</text><rect fill="#FEFECE" filter="url(#fzvpg726iz3jb)" height="30.2969" style="stroke:#A80036;stroke-width:1.5;" width="95" x="1521" y="532.8906"/><text fill="#000000" font-family="sans-serif" font-size="14" lengthAdjust="spacing" textLength="81" x="1528" y="552.8857">rep:Report</text><polygon fill="#A80036" points="1219,595.3203,1229,599.3203,1219,603.3203,1223,599.3203" style="stroke:#A80036;stroke-width:1.0;"/><line style="stroke:#A80036;stroke-width:1.0;" x1="761" x2="1225" y1="599.3203" y2="599.3203"/><text fill="#000000" font-family="sans-serif" font-size="13" font-weight="bold" lengthAdjust="spacing" textLength="17" x="768" y="594.2544">13</text><text fill="#000000" font-family="sans-serif" font-size="13" lengthAdjust="spacing" textLength="125" x="789" y="594.2544">validateReport(rep)</text><polygon fill="#A80036" points="1219,654.4531,1229,658.4531,1219,662.4531,1223,658.4531" style="stroke:#A80036;stroke-width:1.0;"/><line style="stroke:#A80036;stroke-width:1.0;" x1="761" x2="1225" y1="658.4531" y2="658.4531"/><text fill="#000000" font-family="sans-serif" font-size="13" font-weight="bold" lengthAdjust="spacing" textLength="18" x="768" y="653.3872">14</text><text fill="#000000" font-family="sans-serif" font-size="13" lengthAdjust="spacing" textLength="98" x="790" y="653.3872">addReport(rep)</text><polygon fill="#A80036" points="101,713.5859,91,717.5859,101,721.5859,97,717.5859" style="stroke:#A80036;stroke-width:1.0;"/><line style="stroke:#A80036;stroke-width:1.0;stroke-dasharray:2.0,2.0;" x1="95" x2="479" y1="717.5859" y2="717.5859"/><text fill="#000000" font-family="sans-serif" font-size="13" font-weight="bold" lengthAdjust="spacing" textLength="18" x="107" y="712.52">15</text><text fill="#000000" font-family="sans-serif" font-size="13" lengthAdjust="spacing" textLength="277" x="129" y="712.52">shows the data and request a confirmation</text><polygon fill="#A80036" points="463,742.7188,473,746.7188,463,750.7188,467,746.7188" style="stroke:#A80036;stroke-width:1.0;"/><line style="stroke:#A80036;stroke-width:1.0;" x1="90" x2="469" y1="746.7188" y2="746.7188"/><text fill="#000000" font-family="sans-serif" font-size="13" font-weight="bold" lengthAdjust="spacing" textLength="18" x="97" y="741.6528">16</text><text fill="#000000" font-family="sans-serif" font-size="13" lengthAdjust="spacing" textLength="114" x="119" y="741.6528">confirms the data</text><polygon fill="#A80036" points="739,771.8516,749,775.8516,739,779.8516,743,775.8516" style="stroke:#A80036;stroke-width:1.0;"/><line style="stroke:#A80036;stroke-width:1.0;" x1="485" x2="745" y1="775.8516" y2="775.8516"/><text fill="#000000" font-family="sans-serif" font-size="13" font-weight="bold" lengthAdjust="spacing" textLength="18" x="492" y="770.7856">17</text><text fill="#000000" font-family="sans-serif" font-size="13" lengthAdjust="spacing" textLength="84" x="514" y="770.7856">saveReport()</text><polygon fill="#A80036" points="1219,800.9844,1229,804.9844,1219,808.9844,1223,804.9844" style="stroke:#A80036;stroke-width:1.0;"/><line style="stroke:#A80036;stroke-width:1.0;" x1="761" x2="1225" y1="804.9844" y2="804.9844"/><text fill="#000000" font-family="sans-serif" font-size="13" font-weight="bold" lengthAdjust="spacing" textLength="18" x="768" y="799.9185">18</text><text fill="#000000" font-family="sans-serif" font-size="13" lengthAdjust="spacing" textLength="105" x="790" y="799.9185">saveReport(rep)</text><line style="stroke:#A80036;stroke-width:1.0;" x1="1246" x2="1288" y1="834.1172" y2="834.1172"/><line style="stroke:#A80036;stroke-width:1.0;" x1="1288" x2="1288" y1="834.1172" y2="847.1172"/><line style="stroke:#A80036;stroke-width:1.0;" x1="1247" x2="1288" y1="847.1172" y2="847.1172"/><polygon fill="#A80036" points="1257,843.1172,1247,847.1172,1257,851.1172,1253,847.1172" style="stroke:#A80036;stroke-width:1.0;"/><text fill="#000000" font-family="sans-serif" font-size="13" font-weight="bold" lengthAdjust="spacing" textLength="18" x="1253" y="829.0513">19</text><text fill="#000000" font-family="sans-serif" font-size="13" lengthAdjust="spacing" textLength="125" x="1275" y="829.0513">validateReport(rep)</text><line style="stroke:#A80036;stroke-width:1.0;" x1="1246" x2="1288" y1="906.25" y2="906.25"/><line style="stroke:#A80036;stroke-width:1.0;" x1="1288" x2="1288" y1="906.25" y2="919.25"/><line style="stroke:#A80036;stroke-width:1.0;" x1="1247" x2="1288" y1="919.25" y2="919.25"/><polygon fill="#A80036" points="1257,915.25,1247,919.25,1257,923.25,1253,919.25" style="stroke:#A80036;stroke-width:1.0;"/><text fill="#000000" font-family="sans-serif" font-size="13" font-weight="bold" lengthAdjust="spacing" textLength="19" x="1253" y="901.1841">20</text><text fill="#000000" font-family="sans-serif" font-size="13" lengthAdjust="spacing" textLength="98" x="1276" y="901.1841">addReport(rep)</text><polygon fill="#A80036" points="96,974.3828,86,978.3828,96,982.3828,92,978.3828" style="stroke:#A80036;stroke-width:1.0;"/><line style="stroke:#A80036;stroke-width:1.0;stroke-dasharray:2.0,2.0;" x1="90" x2="479" y1="978.3828" y2="978.3828"/><text fill="#000000" font-family="sans-serif" font-size="13" font-weight="bold" lengthAdjust="spacing" textLength="18" x="102" y="973.3169">21</text><text fill="#000000" font-family="sans-serif" font-size="13" lengthAdjust="spacing" textLength="169" x="124" y="973.3169">informs operation succecs</text><!--MD5=[78c227e38138a19de9611c655c369289]
@startuml
autonumber
actor "Specialist Doctor" as SD

participant ":WriteReportUI" as UI
participant ":WriteReportController" as CTRL
participant ":Company" as CMP
participant "ts:\nTestResultStore" as TRSTORE
participant "repStore:\nReportStore" as STORE
participant "rep:Report" as REP
participant "lt:\nList<TestResult>" as LT
participant "tt:\nTest" as TT


activate SD
SD-> UI : asks to make a dignosis and write a report for a test
activate UI
UI -> CTRL : lt=getTestResults()
activate CTRL
CTRL -> CMP: ts=getTestResultStore()
activate CMP
deactivate CMP
CTRL -> TRSTORE : lt=getTestResults()
activate TRSTORE
deactivate TRSTORE
deactivate CTRL
loop until the doctor doesn't want to analyze more tests
UI - ->SD : shows all tests ready to be analysed
deactivate UI
SD -> UI : chooses one test
activate UI
UI - -> SD : shows the chosen test and requests data(date,report)
deactivate UI
SD -> UI : types requested data
activate UI
UI-> CTRL : writeReport(date,testChosen,report)
activate CTRL
CTRL -> CMP : repStore=getReportStore()
activate CMP
deactivate CMP
CTRL -> STORE : rep=repStore.writeReport(date,testChosen,report)
activate STORE
STORE -> REP** : writeReport(date,testChosen,report)
deactivate STORE

CTRL -> STORE : validateReport(rep)
activate STORE
deactivate STORE
CTRL -> STORE : addReport(rep)
activate STORE
deactivate STORE


deactivate CTRL

UI - -> SD : shows the data and request a confirmation
deactivate UI


SD -> UI : confirms the data
activate UI

UI -> CTRL : saveReport()
activate CTRL

CTRL -> STORE : saveReport(rep)
activate STORE
STORE -> STORE : validateReport(rep)
activate STORE
STORE- -
STORE -> STORE : addReport(rep)
activate STORE
STORE- -
deactivate STORE
deactivate CTRL

UI - -> SD: informs operation succecs
deactivate UI

deactivate SD
end
@enduml

PlantUML version 1.2021.7beta3(Unknown compile time)
(GPL source distribution)
Java Runtime: Java(TM) SE Runtime Environment
JVM: Java HotSpot(TM) 64-Bit Server VM
Default Encoding: UTF-8
Language: en
Country: US
--></g></svg>