<?xml version="1.0" encoding="UTF-8" standalone="no"?><svg xmlns="http://www.w3.org/2000/svg" xmlns:xlink="http://www.w3.org/1999/xlink" contentScriptType="application/ecmascript" contentStyleType="text/css" height="425px" preserveAspectRatio="none" style="width:548px;height:425px;background:#FFFFFF;" version="1.1" viewBox="0 0 548 425" width="548px" zoomAndPan="magnify"><defs><filter height="300%" id="fqhqc89d4jm4r" width="300%" x="-1" y="-1"><feGaussianBlur result="blurOut" stdDeviation="2.0"/><feColorMatrix in="blurOut" result="blurOut2" type="matrix" values="0 0 0 0 0 0 0 0 0 0 0 0 0 0 0 0 0 0 .4 0"/><feOffset dx="4.0" dy="4.0" in="blurOut2" result="blurOut3"/><feBlend in="SourceGraphic" in2="blurOut3" mode="normal"/></filter></defs><g><rect fill="#FFFFFF" filter="url(#fqhqc89d4jm4r)" height="225.0625" style="stroke:#A80036;stroke-width:1.0;" width="10" x="65" y="98.2969"/><rect fill="#FFFFFF" filter="url(#fqhqc89d4jm4r)" height="29.1328" style="stroke:#A80036;stroke-width:1.0;" width="10" x="495" y="119.4297"/><rect fill="#FFFFFF" filter="url(#fqhqc89d4jm4r)" height="29.1328" style="stroke:#A80036;stroke-width:1.0;" width="10" x="495" y="177.6953"/><rect fill="#FFFFFF" filter="url(#fqhqc89d4jm4r)" height="29.1328" style="stroke:#A80036;stroke-width:1.0;" width="10" x="495" y="235.9609"/><rect fill="#FFFFFF" filter="url(#fqhqc89d4jm4r)" height="29.1328" style="stroke:#A80036;stroke-width:1.0;" width="10" x="495" y="294.2266"/><line style="stroke:#A80036;stroke-width:1.0;stroke-dasharray:5.0,5.0;" x1="70" x2="70" y1="88.2969" y2="341.3594"/><line style="stroke:#A80036;stroke-width:1.0;stroke-dasharray:5.0,5.0;" x1="499.5" x2="499.5" y1="88.2969" y2="341.3594"/><text fill="#000000" font-family="sans-serif" font-size="14" lengthAdjust="spacing" textLength="124" x="5" y="84.9951">Specialist Doctor</text><ellipse cx="70" cy="15" fill="#FEFECE" filter="url(#fqhqc89d4jm4r)" rx="8" ry="8" style="stroke:#A80036;stroke-width:2.0;"/><path d="M70,23 L70,50 M57,31 L83,31 M70,50 L57,65 M70,50 L83,65 " fill="none" filter="url(#fqhqc89d4jm4r)" style="stroke:#A80036;stroke-width:2.0;"/><text fill="#000000" font-family="sans-serif" font-size="14" lengthAdjust="spacing" textLength="124" x="5" y="353.3545">Specialist Doctor</text><ellipse cx="70" cy="366.6563" fill="#FEFECE" filter="url(#fqhqc89d4jm4r)" rx="8" ry="8" style="stroke:#A80036;stroke-width:2.0;"/><path d="M70,374.6563 L70,401.6563 M57,382.6563 L83,382.6563 M70,401.6563 L57,416.6563 M70,401.6563 L83,416.6563 " fill="none" filter="url(#fqhqc89d4jm4r)" style="stroke:#A80036;stroke-width:2.0;"/><rect fill="#FEFECE" filter="url(#fqhqc89d4jm4r)" height="30.2969" style="stroke:#A80036;stroke-width:1.5;" width="73" x="461.5" y="53"/><text fill="#000000" font-family="sans-serif" font-size="14" lengthAdjust="spacing" textLength="59" x="468.5" y="72.9951">:System</text><rect fill="#FEFECE" filter="url(#fqhqc89d4jm4r)" height="30.2969" style="stroke:#A80036;stroke-width:1.5;" width="73" x="461.5" y="340.3594"/><text fill="#000000" font-family="sans-serif" font-size="14" lengthAdjust="spacing" textLength="59" x="468.5" y="360.3545">:System</text><rect fill="#FFFFFF" filter="url(#fqhqc89d4jm4r)" height="225.0625" style="stroke:#A80036;stroke-width:1.0;" width="10" x="65" y="98.2969"/><rect fill="#FFFFFF" filter="url(#fqhqc89d4jm4r)" height="29.1328" style="stroke:#A80036;stroke-width:1.0;" width="10" x="495" y="119.4297"/><rect fill="#FFFFFF" filter="url(#fqhqc89d4jm4r)" height="29.1328" style="stroke:#A80036;stroke-width:1.0;" width="10" x="495" y="177.6953"/><rect fill="#FFFFFF" filter="url(#fqhqc89d4jm4r)" height="29.1328" style="stroke:#A80036;stroke-width:1.0;" width="10" x="495" y="235.9609"/><rect fill="#FFFFFF" filter="url(#fqhqc89d4jm4r)" height="29.1328" style="stroke:#A80036;stroke-width:1.0;" width="10" x="495" y="294.2266"/><polygon fill="#A80036" points="483,115.4297,493,119.4297,483,123.4297,487,119.4297" style="stroke:#A80036;stroke-width:1.0;"/><line style="stroke:#A80036;stroke-width:1.0;" x1="75" x2="489" y1="119.4297" y2="119.4297"/><text fill="#000000" font-family="sans-serif" font-size="13" font-weight="bold" lengthAdjust="spacing" textLength="9" x="82" y="114.3638">1</text><text fill="#000000" font-family="sans-serif" font-size="13" lengthAdjust="spacing" textLength="336" x="95" y="114.3638">asks to make a dignosis and write a report for a test</text><polygon fill="#A80036" points="86,144.5625,76,148.5625,86,152.5625,82,148.5625" style="stroke:#A80036;stroke-width:1.0;"/><line style="stroke:#A80036;stroke-width:1.0;stroke-dasharray:2.0,2.0;" x1="80" x2="499" y1="148.5625" y2="148.5625"/><text fill="#000000" font-family="sans-serif" font-size="13" font-weight="bold" lengthAdjust="spacing" textLength="9" x="92" y="143.4966">2</text><text fill="#000000" font-family="sans-serif" font-size="13" lengthAdjust="spacing" textLength="235" x="105" y="143.4966">shows all tests ready to be analysed</text><polygon fill="#A80036" points="483,173.6953,493,177.6953,483,181.6953,487,177.6953" style="stroke:#A80036;stroke-width:1.0;"/><line style="stroke:#A80036;stroke-width:1.0;" x1="75" x2="489" y1="177.6953" y2="177.6953"/><text fill="#000000" font-family="sans-serif" font-size="13" font-weight="bold" lengthAdjust="spacing" textLength="8" x="82" y="172.6294">3</text><text fill="#000000" font-family="sans-serif" font-size="13" lengthAdjust="spacing" textLength="110" x="94" y="172.6294">chooses one test</text><polygon fill="#A80036" points="86,202.8281,76,206.8281,86,210.8281,82,206.8281" style="stroke:#A80036;stroke-width:1.0;"/><line style="stroke:#A80036;stroke-width:1.0;stroke-dasharray:2.0,2.0;" x1="80" x2="499" y1="206.8281" y2="206.8281"/><text fill="#000000" font-family="sans-serif" font-size="13" font-weight="bold" lengthAdjust="spacing" textLength="9" x="92" y="201.7622">4</text><text fill="#000000" font-family="sans-serif" font-size="13" lengthAdjust="spacing" textLength="383" x="105" y="201.7622">shows the chosen test and requests data(diagnosis, report)</text><polygon fill="#A80036" points="483,231.9609,493,235.9609,483,239.9609,487,235.9609" style="stroke:#A80036;stroke-width:1.0;"/><line style="stroke:#A80036;stroke-width:1.0;" x1="75" x2="489" y1="235.9609" y2="235.9609"/><text fill="#000000" font-family="sans-serif" font-size="13" font-weight="bold" lengthAdjust="spacing" textLength="9" x="82" y="230.895">5</text><text fill="#000000" font-family="sans-serif" font-size="13" lengthAdjust="spacing" textLength="138" x="95" y="230.895">types requested data</text><polygon fill="#A80036" points="86,261.0938,76,265.0938,86,269.0938,82,265.0938" style="stroke:#A80036;stroke-width:1.0;"/><line style="stroke:#A80036;stroke-width:1.0;stroke-dasharray:2.0,2.0;" x1="80" x2="499" y1="265.0938" y2="265.0938"/><text fill="#000000" font-family="sans-serif" font-size="13" font-weight="bold" lengthAdjust="spacing" textLength="9" x="92" y="260.0278">6</text><text fill="#000000" font-family="sans-serif" font-size="13" lengthAdjust="spacing" textLength="284" x="105" y="260.0278">shows the data and requests a confirmation</text><polygon fill="#A80036" points="483,290.2266,493,294.2266,483,298.2266,487,294.2266" style="stroke:#A80036;stroke-width:1.0;"/><line style="stroke:#A80036;stroke-width:1.0;" x1="75" x2="489" y1="294.2266" y2="294.2266"/><text fill="#000000" font-family="sans-serif" font-size="13" font-weight="bold" lengthAdjust="spacing" textLength="9" x="82" y="289.1606">7</text><text fill="#000000" font-family="sans-serif" font-size="13" lengthAdjust="spacing" textLength="114" x="95" y="289.1606">confirms the data</text><polygon fill="#A80036" points="81,319.3594,71,323.3594,81,327.3594,77,323.3594" style="stroke:#A80036;stroke-width:1.0;"/><line style="stroke:#A80036;stroke-width:1.0;stroke-dasharray:2.0,2.0;" x1="75" x2="499" y1="323.3594" y2="323.3594"/><text fill="#000000" font-family="sans-serif" font-size="13" font-weight="bold" lengthAdjust="spacing" textLength="9" x="87" y="318.2935">8</text><text fill="#000000" font-family="sans-serif" font-size="13" lengthAdjust="spacing" textLength="169" x="100" y="318.2935">informs operation success</text><!--MD5=[8d1a1fe925efc2068a61ecf444d3e43a]
@startuml
autonumber
actor "Specialist Doctor" as SD

activate SD
SD-> ":System" : asks to make a dignosis and write a report for a test
activate ":System"
":System" - -> SD: shows all tests ready to be analysed
deactivate ":System"

SD-> ":System" : chooses one test
activate ":System"
":System" - -> SD: shows the chosen test and requests data(diagnosis, report) 
deactivate ":System"
SD-> ":System" : types requested data
activate ":System"


":System" - -> SD: shows the data and requests a confirmation
deactivate ":System"

SD-> ":System" : confirms the data
activate ":System"
":System" - -> SD: informs operation success
deactivate ":System"

deactivate SD
@enduml

PlantUML version 1.2021.7beta2(Unknown compile time)
(GPL source distribution)
Java Runtime: Java(TM) SE Runtime Environment
JVM: Java HotSpot(TM) 64-Bit Server VM
Default Encoding: UTF-8
Language: en
Country: US
--></g></svg>