<?xml version="1.0" encoding="UTF-8" standalone="no"?><svg xmlns="http://www.w3.org/2000/svg" xmlns:xlink="http://www.w3.org/1999/xlink" contentScriptType="application/ecmascript" contentStyleType="text/css" height="792px" preserveAspectRatio="none" style="width:568px;height:792px;background:#FFFFFF;" version="1.1" viewBox="0 0 568 792" width="568px" zoomAndPan="magnify"><defs><filter height="300%" id="fcxapu6idxi82" width="300%" x="-1" y="-1"><feGaussianBlur result="blurOut" stdDeviation="2.0"/><feColorMatrix in="blurOut" result="blurOut2" type="matrix" values="0 0 0 0 0 0 0 0 0 0 0 0 0 0 0 0 0 0 .4 0"/><feOffset dx="4.0" dy="4.0" in="blurOut2" result="blurOut3"/><feBlend in="SourceGraphic" in2="blurOut3" mode="normal"/></filter></defs><g><!--MD5=[71fba8c2abd557a2f7006580273aba3e]
class WriteReportUI--><rect codeLine="3" fill="#FEFECE" filter="url(#fcxapu6idxi82)" height="48" id="WriteReportUI" style="stroke:#A80036;stroke-width:1.5;" width="116" x="255.5" y="7"/><ellipse cx="270.5" cy="23" fill="#ADD1B2" rx="11" ry="11" style="stroke:#A80036;stroke-width:1.0;"/><path d="M272.8438,18.6719 C271.9063,18.2344 271.3125,18.0938 270.4375,18.0938 C267.8125,18.0938 265.8125,20.1719 265.8125,22.8906 L265.8125,24.0156 C265.8125,26.5938 267.9219,28.4844 270.8125,28.4844 C272.0313,28.4844 273.1875,28.1875 273.9375,27.6406 C274.5156,27.2344 274.8438,26.7813 274.8438,26.3906 C274.8438,25.9375 274.4531,25.5469 273.9844,25.5469 C273.7656,25.5469 273.5625,25.625 273.375,25.8125 C272.9219,26.2969 272.9219,26.2969 272.7344,26.3906 C272.3125,26.6563 271.625,26.7813 270.8594,26.7813 C268.8125,26.7813 267.5156,25.6875 267.5156,23.9844 L267.5156,22.8906 C267.5156,21.1094 268.7656,19.7969 270.5,19.7969 C271.0781,19.7969 271.6875,19.9531 272.1563,20.2031 C272.6406,20.4844 272.8125,20.7031 272.9063,21.1094 C272.9688,21.5156 273,21.6406 273.1406,21.7656 C273.2813,21.9063 273.5156,22.0156 273.7344,22.0156 C274,22.0156 274.2656,21.875 274.4375,21.6563 C274.5469,21.5 274.5781,21.3125 274.5781,20.8906 L274.5781,19.4688 C274.5781,19.0313 274.5625,18.9063 274.4688,18.75 C274.3125,18.4844 274.0313,18.3438 273.7344,18.3438 C273.4375,18.3438 273.2344,18.4375 273.0156,18.75 L272.8438,18.6719 Z " fill="#000000"/><text fill="#000000" font-family="sans-serif" font-size="12" lengthAdjust="spacing" textLength="84" x="284.5" y="27.1543">WriteReportUI</text><line style="stroke:#A80036;stroke-width:1.5;" x1="256.5" x2="370.5" y1="39" y2="39"/><line style="stroke:#A80036;stroke-width:1.5;" x1="256.5" x2="370.5" y1="47" y2="47"/><!--MD5=[d7b8916e3117ca4a3ffdab4f31ea783a]
class WriteReportController--><rect codeLine="6" fill="#FEFECE" filter="url(#fcxapu6idxi82)" height="86.4141" id="WriteReportController" style="stroke:#A80036;stroke-width:1.5;" width="225" x="201" y="116"/><ellipse cx="243.9" cy="132" fill="#ADD1B2" rx="11" ry="11" style="stroke:#A80036;stroke-width:1.0;"/><path d="M246.2438,127.6719 C245.3063,127.2344 244.7125,127.0938 243.8375,127.0938 C241.2125,127.0938 239.2125,129.1719 239.2125,131.8906 L239.2125,133.0156 C239.2125,135.5938 241.3219,137.4844 244.2125,137.4844 C245.4313,137.4844 246.5875,137.1875 247.3375,136.6406 C247.9156,136.2344 248.2438,135.7813 248.2438,135.3906 C248.2438,134.9375 247.8531,134.5469 247.3844,134.5469 C247.1656,134.5469 246.9625,134.625 246.775,134.8125 C246.3219,135.2969 246.3219,135.2969 246.1344,135.3906 C245.7125,135.6563 245.025,135.7813 244.2594,135.7813 C242.2125,135.7813 240.9156,134.6875 240.9156,132.9844 L240.9156,131.8906 C240.9156,130.1094 242.1656,128.7969 243.9,128.7969 C244.4781,128.7969 245.0875,128.9531 245.5563,129.2031 C246.0406,129.4844 246.2125,129.7031 246.3063,130.1094 C246.3688,130.5156 246.4,130.6406 246.5406,130.7656 C246.6813,130.9063 246.9156,131.0156 247.1344,131.0156 C247.4,131.0156 247.6656,130.875 247.8375,130.6563 C247.9469,130.5 247.9781,130.3125 247.9781,129.8906 L247.9781,128.4688 C247.9781,128.0313 247.9625,127.9063 247.8688,127.75 C247.7125,127.4844 247.4313,127.3438 247.1344,127.3438 C246.8375,127.3438 246.6344,127.4375 246.4156,127.75 L246.2438,127.6719 Z " fill="#000000"/><text fill="#000000" font-family="sans-serif" font-size="12" lengthAdjust="spacing" textLength="131" x="264.1" y="136.1543">WriteReportController</text><line style="stroke:#A80036;stroke-width:1.5;" x1="202" x2="425" y1="148" y2="148"/><line style="stroke:#A80036;stroke-width:1.5;" x1="202" x2="425" y1="156" y2="156"/><text fill="#000000" font-family="sans-serif" font-size="11" lengthAdjust="spacing" textLength="213" x="207" y="170.2104">+writeReport(date,testChosen,report)</text><text fill="#000000" font-family="sans-serif" font-size="11" lengthAdjust="spacing" textLength="82" x="207" y="183.0151">+saveReport()</text><text fill="#000000" font-family="sans-serif" font-size="11" lengthAdjust="spacing" textLength="67" x="207" y="195.8198">+getTests()</text><!--MD5=[02e4b9b7573f1156f41e60aa5b4e25a4]
class Company--><rect codeLine="12" fill="#FEFECE" filter="url(#fcxapu6idxi82)" height="73.6094" id="Company" style="stroke:#A80036;stroke-width:1.5;" width="116" x="255.5" y="263"/><ellipse cx="283.1" cy="279" fill="#ADD1B2" rx="11" ry="11" style="stroke:#A80036;stroke-width:1.0;"/><path d="M285.4438,274.6719 C284.5063,274.2344 283.9125,274.0938 283.0375,274.0938 C280.4125,274.0938 278.4125,276.1719 278.4125,278.8906 L278.4125,280.0156 C278.4125,282.5938 280.5219,284.4844 283.4125,284.4844 C284.6313,284.4844 285.7875,284.1875 286.5375,283.6406 C287.1156,283.2344 287.4438,282.7813 287.4438,282.3906 C287.4438,281.9375 287.0531,281.5469 286.5844,281.5469 C286.3656,281.5469 286.1625,281.625 285.975,281.8125 C285.5219,282.2969 285.5219,282.2969 285.3344,282.3906 C284.9125,282.6563 284.225,282.7813 283.4594,282.7813 C281.4125,282.7813 280.1156,281.6875 280.1156,279.9844 L280.1156,278.8906 C280.1156,277.1094 281.3656,275.7969 283.1,275.7969 C283.6781,275.7969 284.2875,275.9531 284.7563,276.2031 C285.2406,276.4844 285.4125,276.7031 285.5063,277.1094 C285.5688,277.5156 285.6,277.6406 285.7406,277.7656 C285.8813,277.9063 286.1156,278.0156 286.3344,278.0156 C286.6,278.0156 286.8656,277.875 287.0375,277.6563 C287.1469,277.5 287.1781,277.3125 287.1781,276.8906 L287.1781,275.4688 C287.1781,275.0313 287.1625,274.9063 287.0688,274.75 C286.9125,274.4844 286.6313,274.3438 286.3344,274.3438 C286.0375,274.3438 285.8344,274.4375 285.6156,274.75 L285.4438,274.6719 Z " fill="#000000"/><text fill="#000000" font-family="sans-serif" font-size="12" lengthAdjust="spacing" textLength="56" x="299.9" y="283.1543">Company</text><line style="stroke:#A80036;stroke-width:1.5;" x1="256.5" x2="370.5" y1="295" y2="295"/><line style="stroke:#A80036;stroke-width:1.5;" x1="256.5" x2="370.5" y1="303" y2="303"/><text fill="#000000" font-family="sans-serif" font-size="11" lengthAdjust="spacing" textLength="104" x="261.5" y="317.2104">+getReportStore()</text><text fill="#000000" font-family="sans-serif" font-size="11" lengthAdjust="spacing" textLength="92" x="261.5" y="330.0151">+getTestStore()</text><!--MD5=[0f6f7964b844a64b0496af0dda7914bd]
class TestStore--><rect codeLine="18" fill="#FEFECE" filter="url(#fcxapu6idxi82)" height="60.8047" id="TestStore" style="stroke:#A80036;stroke-width:1.5;" width="91" x="144" y="426.5"/><ellipse cx="159" cy="442.5" fill="#ADD1B2" rx="11" ry="11" style="stroke:#A80036;stroke-width:1.0;"/><path d="M161.3438,438.1719 C160.4063,437.7344 159.8125,437.5938 158.9375,437.5938 C156.3125,437.5938 154.3125,439.6719 154.3125,442.3906 L154.3125,443.5156 C154.3125,446.0938 156.4219,447.9844 159.3125,447.9844 C160.5313,447.9844 161.6875,447.6875 162.4375,447.1406 C163.0156,446.7344 163.3438,446.2813 163.3438,445.8906 C163.3438,445.4375 162.9531,445.0469 162.4844,445.0469 C162.2656,445.0469 162.0625,445.125 161.875,445.3125 C161.4219,445.7969 161.4219,445.7969 161.2344,445.8906 C160.8125,446.1563 160.125,446.2813 159.3594,446.2813 C157.3125,446.2813 156.0156,445.1875 156.0156,443.4844 L156.0156,442.3906 C156.0156,440.6094 157.2656,439.2969 159,439.2969 C159.5781,439.2969 160.1875,439.4531 160.6563,439.7031 C161.1406,439.9844 161.3125,440.2031 161.4063,440.6094 C161.4688,441.0156 161.5,441.1406 161.6406,441.2656 C161.7813,441.4063 162.0156,441.5156 162.2344,441.5156 C162.5,441.5156 162.7656,441.375 162.9375,441.1563 C163.0469,441 163.0781,440.8125 163.0781,440.3906 L163.0781,438.9688 C163.0781,438.5313 163.0625,438.4063 162.9688,438.25 C162.8125,437.9844 162.5313,437.8438 162.2344,437.8438 C161.9375,437.8438 161.7344,437.9375 161.5156,438.25 L161.3438,438.1719 Z " fill="#000000"/><text fill="#000000" font-family="sans-serif" font-size="12" lengthAdjust="spacing" textLength="59" x="173" y="446.6543">TestStore</text><line style="stroke:#A80036;stroke-width:1.5;" x1="145" x2="234" y1="458.5" y2="458.5"/><line style="stroke:#A80036;stroke-width:1.5;" x1="145" x2="234" y1="466.5" y2="466.5"/><text fill="#000000" font-family="sans-serif" font-size="11" lengthAdjust="spacing" textLength="67" x="150" y="480.7104">+getTests()</text><!--MD5=[df38be88ccee13e832d6fafd6288a4ca]
class Test--><rect codeLine="22" fill="#FEFECE" filter="url(#fcxapu6idxi82)" height="201.6563" id="Test" style="stroke:#A80036;stroke-width:1.5;" width="287" x="7" y="577"/><ellipse cx="133.25" cy="593" fill="#ADD1B2" rx="11" ry="11" style="stroke:#A80036;stroke-width:1.0;"/><path d="M135.5938,588.6719 C134.6563,588.2344 134.0625,588.0938 133.1875,588.0938 C130.5625,588.0938 128.5625,590.1719 128.5625,592.8906 L128.5625,594.0156 C128.5625,596.5938 130.6719,598.4844 133.5625,598.4844 C134.7813,598.4844 135.9375,598.1875 136.6875,597.6406 C137.2656,597.2344 137.5938,596.7813 137.5938,596.3906 C137.5938,595.9375 137.2031,595.5469 136.7344,595.5469 C136.5156,595.5469 136.3125,595.625 136.125,595.8125 C135.6719,596.2969 135.6719,596.2969 135.4844,596.3906 C135.0625,596.6563 134.375,596.7813 133.6094,596.7813 C131.5625,596.7813 130.2656,595.6875 130.2656,593.9844 L130.2656,592.8906 C130.2656,591.1094 131.5156,589.7969 133.25,589.7969 C133.8281,589.7969 134.4375,589.9531 134.9063,590.2031 C135.3906,590.4844 135.5625,590.7031 135.6563,591.1094 C135.7188,591.5156 135.75,591.6406 135.8906,591.7656 C136.0313,591.9063 136.2656,592.0156 136.4844,592.0156 C136.75,592.0156 137.0156,591.875 137.1875,591.6563 C137.2969,591.5 137.3281,591.3125 137.3281,590.8906 L137.3281,589.4688 C137.3281,589.0313 137.3125,588.9063 137.2188,588.75 C137.0625,588.4844 136.7813,588.3438 136.4844,588.3438 C136.1875,588.3438 135.9844,588.4375 135.7656,588.75 L135.5938,588.6719 Z " fill="#000000"/><text fill="#000000" font-family="sans-serif" font-size="12" lengthAdjust="spacing" textLength="26" x="153.75" y="597.1543">Test</text><line style="stroke:#A80036;stroke-width:1.5;" x1="8" x2="293" y1="609" y2="609"/><text fill="#000000" font-family="sans-serif" font-size="11" lengthAdjust="spacing" textLength="94" x="13" y="623.2104">-String nhsCode;</text><text fill="#000000" font-family="sans-serif" font-size="11" lengthAdjust="spacing" textLength="117" x="13" y="636.0151">-String internalCode;</text><text fill="#000000" font-family="sans-serif" font-size="11" lengthAdjust="spacing" textLength="75" x="13" y="648.8198">-Client client;</text><text fill="#000000" font-family="sans-serif" font-size="11" lengthAdjust="spacing" textLength="116" x="13" y="661.6245">-TestType testType;</text><text fill="#000000" font-family="sans-serif" font-size="11" lengthAdjust="spacing" textLength="184" x="13" y="674.4292">-String sampleCollectionMethod;</text><text fill="#000000" font-family="sans-serif" font-size="11" lengthAdjust="spacing" textLength="275" x="13" y="687.2339">-List &lt;ParameterCategory&gt; parameterCategory;</text><text fill="#000000" font-family="sans-serif" font-size="11" lengthAdjust="spacing" textLength="171" x="13" y="700.0386">-List &lt;Parameter&gt; parameter;</text><text fill="#000000" font-family="sans-serif" font-size="11" lengthAdjust="spacing" textLength="131" x="13" y="712.8433">-Date registrationDate;</text><text fill="#000000" font-family="sans-serif" font-size="11" lengthAdjust="spacing" textLength="171" x="13" y="725.6479">-Date samplesCollectionDate;</text><text fill="#000000" font-family="sans-serif" font-size="11" lengthAdjust="spacing" textLength="165" x="13" y="738.4526">-Date chemicalAnalysisDate;</text><text fill="#000000" font-family="sans-serif" font-size="11" lengthAdjust="spacing" textLength="120" x="13" y="751.2573">-Date diagnosisDate;</text><text fill="#000000" font-family="sans-serif" font-size="11" lengthAdjust="spacing" textLength="122" x="13" y="764.062">-Date validationDate;</text><line style="stroke:#A80036;stroke-width:1.5;" x1="8" x2="293" y1="770.6563" y2="770.6563"/><!--MD5=[f00dbe8c0302c6aec2cb26b3c659c8fc]
class Report--><rect codeLine="38" fill="#FEFECE" filter="url(#fcxapu6idxi82)" height="99.2188" id="Report" style="stroke:#A80036;stroke-width:1.5;" width="225" x="329" y="628.5"/><ellipse cx="417.25" cy="644.5" fill="#ADD1B2" rx="11" ry="11" style="stroke:#A80036;stroke-width:1.0;"/><path d="M419.5938,640.1719 C418.6563,639.7344 418.0625,639.5938 417.1875,639.5938 C414.5625,639.5938 412.5625,641.6719 412.5625,644.3906 L412.5625,645.5156 C412.5625,648.0938 414.6719,649.9844 417.5625,649.9844 C418.7813,649.9844 419.9375,649.6875 420.6875,649.1406 C421.2656,648.7344 421.5938,648.2813 421.5938,647.8906 C421.5938,647.4375 421.2031,647.0469 420.7344,647.0469 C420.5156,647.0469 420.3125,647.125 420.125,647.3125 C419.6719,647.7969 419.6719,647.7969 419.4844,647.8906 C419.0625,648.1563 418.375,648.2813 417.6094,648.2813 C415.5625,648.2813 414.2656,647.1875 414.2656,645.4844 L414.2656,644.3906 C414.2656,642.6094 415.5156,641.2969 417.25,641.2969 C417.8281,641.2969 418.4375,641.4531 418.9063,641.7031 C419.3906,641.9844 419.5625,642.2031 419.6563,642.6094 C419.7188,643.0156 419.75,643.1406 419.8906,643.2656 C420.0313,643.4063 420.2656,643.5156 420.4844,643.5156 C420.75,643.5156 421.0156,643.375 421.1875,643.1563 C421.2969,643 421.3281,642.8125 421.3281,642.3906 L421.3281,640.9688 C421.3281,640.5313 421.3125,640.4063 421.2188,640.25 C421.0625,639.9844 420.7813,639.8438 420.4844,639.8438 C420.1875,639.8438 419.9844,639.9375 419.7656,640.25 L419.5938,640.1719 Z " fill="#000000"/><text fill="#000000" font-family="sans-serif" font-size="12" lengthAdjust="spacing" textLength="40" x="437.75" y="648.6543">Report</text><line style="stroke:#A80036;stroke-width:1.5;" x1="330" x2="553" y1="660.5" y2="660.5"/><text fill="#000000" font-family="sans-serif" font-size="11" lengthAdjust="spacing" textLength="62" x="335" y="674.7104">-Date date</text><text fill="#000000" font-family="sans-serif" font-size="11" lengthAdjust="spacing" textLength="69" x="335" y="687.5151">-testChosen</text><text fill="#000000" font-family="sans-serif" font-size="11" lengthAdjust="spacing" textLength="75" x="335" y="700.3198">-String report</text><line style="stroke:#A80036;stroke-width:1.5;" x1="330" x2="553" y1="706.9141" y2="706.9141"/><text fill="#000000" font-family="sans-serif" font-size="11" lengthAdjust="spacing" textLength="213" x="335" y="721.1245">+writeReport(date,testChosen,report)</text><!--MD5=[ce0f71fbf4d9f9eefe0e2007e85cc947]
class ReportStore--><rect codeLine="45" fill="#FEFECE" filter="url(#fcxapu6idxi82)" height="86.4141" id="ReportStore" style="stroke:#A80036;stroke-width:1.5;" width="112" x="347.5" y="414"/><ellipse cx="365.65" cy="430" fill="#ADD1B2" rx="11" ry="11" style="stroke:#A80036;stroke-width:1.0;"/><path d="M367.9938,425.6719 C367.0563,425.2344 366.4625,425.0938 365.5875,425.0938 C362.9625,425.0938 360.9625,427.1719 360.9625,429.8906 L360.9625,431.0156 C360.9625,433.5938 363.0719,435.4844 365.9625,435.4844 C367.1813,435.4844 368.3375,435.1875 369.0875,434.6406 C369.6656,434.2344 369.9938,433.7813 369.9938,433.3906 C369.9938,432.9375 369.6031,432.5469 369.1344,432.5469 C368.9156,432.5469 368.7125,432.625 368.525,432.8125 C368.0719,433.2969 368.0719,433.2969 367.8844,433.3906 C367.4625,433.6563 366.775,433.7813 366.0094,433.7813 C363.9625,433.7813 362.6656,432.6875 362.6656,430.9844 L362.6656,429.8906 C362.6656,428.1094 363.9156,426.7969 365.65,426.7969 C366.2281,426.7969 366.8375,426.9531 367.3063,427.2031 C367.7906,427.4844 367.9625,427.7031 368.0563,428.1094 C368.1188,428.5156 368.15,428.6406 368.2906,428.7656 C368.4313,428.9063 368.6656,429.0156 368.8844,429.0156 C369.15,429.0156 369.4156,428.875 369.5875,428.6563 C369.6969,428.5 369.7281,428.3125 369.7281,427.8906 L369.7281,426.4688 C369.7281,426.0313 369.7125,425.9063 369.6188,425.75 C369.4625,425.4844 369.1813,425.3438 368.8844,425.3438 C368.5875,425.3438 368.3844,425.4375 368.1656,425.75 L367.9938,425.6719 Z " fill="#000000"/><text fill="#000000" font-family="sans-serif" font-size="12" lengthAdjust="spacing" textLength="73" x="380.35" y="434.1543">ReportStore</text><line style="stroke:#A80036;stroke-width:1.5;" x1="348.5" x2="458.5" y1="446" y2="446"/><line style="stroke:#A80036;stroke-width:1.5;" x1="348.5" x2="458.5" y1="454" y2="454"/><text fill="#000000" font-family="sans-serif" font-size="11" lengthAdjust="spacing" textLength="100" x="353.5" y="468.2104">+validateReport()</text><text fill="#000000" font-family="sans-serif" font-size="11" lengthAdjust="spacing" textLength="82" x="353.5" y="481.0151">+saveReport()</text><text fill="#000000" font-family="sans-serif" font-size="11" lengthAdjust="spacing" textLength="75" x="353.5" y="493.8198">+addReport()</text><!--MD5=[4ff913b72b026e4c95390310e4df5ddd]
link WriteReportUI to WriteReportController--><path codeLine="51" d="M313.5,55.11 C313.5,70.631 313.5,91.639 313.5,110.625 " fill="none" id="WriteReportUI-to-WriteReportController" style="stroke:#A80036;stroke-width:1.0;stroke-dasharray:7.0,7.0;"/><polygon fill="#A80036" points="313.5,115.921,317.5,106.921,313.5,110.921,309.5,106.921,313.5,115.921" style="stroke:#A80036;stroke-width:1.0;"/><!--MD5=[a3405a5a29c0a1359ce5b85a18cd6043]
link WriteReportController to Company--><path codeLine="52" d="M313.5,202.082 C313.5,219.606 313.5,239.9 313.5,257.375 " fill="none" id="WriteReportController-to-Company" style="stroke:#A80036;stroke-width:1.0;stroke-dasharray:7.0,7.0;"/><polygon fill="#A80036" points="313.5,262.702,317.5,253.702,313.5,257.702,309.5,253.702,313.5,262.702" style="stroke:#A80036;stroke-width:1.0;"/><!--MD5=[b4f89d3e2517c5a3530ae423bd30fbb1]
link Company to ReportStore--><path codeLine="53" d="M334.601,337.341 C347.07,358.816 362.989,386.23 376.383,409.298 " fill="none" id="Company-to-ReportStore" style="stroke:#A80036;stroke-width:1.0;"/><polygon fill="#A80036" points="379.026,413.85,377.9674,404.0582,376.516,409.5257,371.0485,408.0742,379.026,413.85" style="stroke:#A80036;stroke-width:1.0;"/><text fill="#000000" font-family="sans-serif" font-size="13" lengthAdjust="spacing" textLength="30" x="362.5" y="380.0669">uses</text><text fill="#000000" font-family="sans-serif" font-size="13" lengthAdjust="spacing" textLength="8" x="329.3265" y="356.5961">1</text><text fill="#000000" font-family="sans-serif" font-size="13" lengthAdjust="spacing" textLength="8" x="366.488" y="402.8221">1</text><!--MD5=[7f6cf7f175eae0af66201860de5de971]
link Company to TestStore--><path codeLine="54" d="M284.428,337.341 C263.839,363.076 236.427,397.342 216.353,422.433 " fill="none" id="Company-to-TestStore" style="stroke:#A80036;stroke-width:1.0;"/><polygon fill="#A80036" points="213.197,426.379,221.9433,421.8511,216.321,422.4751,215.6971,416.8527,213.197,426.379" style="stroke:#A80036;stroke-width:1.0;"/><text fill="#000000" font-family="sans-serif" font-size="13" lengthAdjust="spacing" textLength="30" x="260.5" y="380.0669">uses</text><text fill="#000000" font-family="sans-serif" font-size="13" lengthAdjust="spacing" textLength="8" x="271.1572" y="356.5961">1</text><text fill="#000000" font-family="sans-serif" font-size="13" lengthAdjust="spacing" textLength="8" x="209.2595" y="415.6173">1</text><!--MD5=[7fbcfdf360a6c7ad60791099063bc3b1]
link ReportStore to Report--><path codeLine="55" d="M410.827,500.225 C416.916,535.317 425.616,585.458 432.196,623.382 " fill="none" id="ReportStore-to-Report" style="stroke:#A80036;stroke-width:1.0;"/><polygon fill="#A80036" points="433.07,628.414,435.471,618.8623,432.2144,623.4877,427.589,620.2312,433.07,628.414" style="stroke:#A80036;stroke-width:1.0;"/><text fill="#000000" font-family="sans-serif" font-size="13" lengthAdjust="spacing" textLength="58" x="419.5" y="543.0669">conducts</text><text fill="#000000" font-family="sans-serif" font-size="13" lengthAdjust="spacing" textLength="8" x="403.3572" y="520.3538">1</text><text fill="#000000" font-family="sans-serif" font-size="13" lengthAdjust="spacing" textLength="7" x="424.3923" y="617.4471">*</text><!--MD5=[b0f4f6db8206580012ef9cd998ed01c5]
link TestStore to Test--><path codeLine="56" d="M184.24,487.535 C180.333,509.479 174.747,540.842 169.243,571.753 " fill="none" id="TestStore-to-Test" style="stroke:#A80036;stroke-width:1.0;"/><polygon fill="#A80036" points="168.36,576.708,173.8767,568.5492,169.2371,571.7855,166.0008,567.1459,168.36,576.708" style="stroke:#A80036;stroke-width:1.0;"/><text fill="#000000" font-family="sans-serif" font-size="13" lengthAdjust="spacing" textLength="58" x="177.5" y="543.0669">conducts</text><text fill="#000000" font-family="sans-serif" font-size="13" lengthAdjust="spacing" textLength="8" x="174.3301" y="507.4805">1</text><text fill="#000000" font-family="sans-serif" font-size="13" lengthAdjust="spacing" textLength="7" x="162.4146" y="565.803">*</text><!--MD5=[1af5b37f058ef0c897884dca1be5ee68]
@startuml
skinparam classAttributeIconSize 0

class WriteReportUI {
}

class WriteReportController {
  +writeReport(date,testChosen,report)
  +saveReport()
  +getTests()
}

class Company
{
  +getReportStore()
  +getTestStore()
}

class TestStore{
  +getTests()
}

class Test{
  -String nhsCode;
  -String internalCode;
  -Client client;
  -TestType testType;
  -String sampleCollectionMethod;
  -List <ParameterCategory> parameterCategory;
  -List <Parameter> parameter;
  -Date registrationDate;
  -Date samplesCollectionDate;
  -Date chemicalAnalysisDate;
  -Date diagnosisDate;
  -Date validationDate;
}


class Report {
  -Date date
  -testChosen
  -String report
  +writeReport(date,testChosen,report)
}

class ReportStore{
  +validateReport()
  +saveReport()
  +addReport()
}

WriteReportUI ..> WriteReportController
WriteReportController..> Company
Company "1" - -> "1" ReportStore: uses
Company "1" - -> "1" TestStore: uses
ReportStore"1" - -> "*" Report: conducts
TestStore"1" - -> "*" Test : conducts
@enduml

PlantUML version 1.2021.7(Sun May 23 12:40:07 UTC 2021)
(GPL source distribution)
Java Runtime: Java(TM) SE Runtime Environment
JVM: Java HotSpot(TM) 64-Bit Server VM
Default Encoding: UTF-8
Language: en
Country: US
--></g></svg>