<?xml version="1.0" encoding="UTF-8" standalone="no"?><svg xmlns="http://www.w3.org/2000/svg" xmlns:xlink="http://www.w3.org/1999/xlink" contentScriptType="application/ecmascript" contentStyleType="text/css" height="726px" preserveAspectRatio="none" style="width:913px;height:726px;background:#FFFFFF;" version="1.1" viewBox="0 0 913 726" width="913px" zoomAndPan="magnify"><defs><filter height="300%" id="fdgfoewyrexvh" width="300%" x="-1" y="-1"><feGaussianBlur result="blurOut" stdDeviation="2.0"/><feColorMatrix in="blurOut" result="blurOut2" type="matrix" values="0 0 0 0 0 0 0 0 0 0 0 0 0 0 0 0 0 0 .4 0"/><feOffset dx="4.0" dy="4.0" in="blurOut2" result="blurOut3"/><feBlend in="SourceGraphic" in2="blurOut3" mode="normal"/></filter></defs><g><!--MD5=[02e4b9b7573f1156f41e60aa5b4e25a4]
class Company--><rect codeLine="1" fill="#FEFECE" filter="url(#fdgfoewyrexvh)" height="60.8047" id="Company" style="stroke:#A80036;stroke-width:1.5;" width="88" x="9" y="183.5"/><ellipse cx="24" cy="199.5" fill="#ADD1B2" rx="11" ry="11" style="stroke:#A80036;stroke-width:1.0;"/><path d="M26.3438,195.1719 C25.4063,194.7344 24.8125,194.5938 23.9375,194.5938 C21.3125,194.5938 19.3125,196.6719 19.3125,199.3906 L19.3125,200.5156 C19.3125,203.0938 21.4219,204.9844 24.3125,204.9844 C25.5313,204.9844 26.6875,204.6875 27.4375,204.1406 C28.0156,203.7344 28.3438,203.2813 28.3438,202.8906 C28.3438,202.4375 27.9531,202.0469 27.4844,202.0469 C27.2656,202.0469 27.0625,202.125 26.875,202.3125 C26.4219,202.7969 26.4219,202.7969 26.2344,202.8906 C25.8125,203.1563 25.125,203.2813 24.3594,203.2813 C22.3125,203.2813 21.0156,202.1875 21.0156,200.4844 L21.0156,199.3906 C21.0156,197.6094 22.2656,196.2969 24,196.2969 C24.5781,196.2969 25.1875,196.4531 25.6563,196.7031 C26.1406,196.9844 26.3125,197.2031 26.4063,197.6094 C26.4688,198.0156 26.5,198.1406 26.6406,198.2656 C26.7813,198.4063 27.0156,198.5156 27.2344,198.5156 C27.5,198.5156 27.7656,198.375 27.9375,198.1563 C28.0469,198 28.0781,197.8125 28.0781,197.3906 L28.0781,195.9688 C28.0781,195.5313 28.0625,195.4063 27.9688,195.25 C27.8125,194.9844 27.5313,194.8438 27.2344,194.8438 C26.9375,194.8438 26.7344,194.9375 26.5156,195.25 L26.3438,195.1719 Z " fill="#000000"/><text fill="#000000" font-family="sans-serif" font-size="12" lengthAdjust="spacing" textLength="56" x="38" y="203.6543">Company</text><line style="stroke:#A80036;stroke-width:1.5;" x1="10" x2="96" y1="215.5" y2="215.5"/><text fill="#000000" font-family="sans-serif" font-size="11" lengthAdjust="spacing" textLength="70" x="15" y="229.7104">-designation</text><line style="stroke:#A80036;stroke-width:1.5;" x1="10" x2="96" y1="236.3047" y2="236.3047"/><!--MD5=[da547346deef918ea16944ba046651ef]
class Administrator--><rect codeLine="5" fill="#FEFECE" filter="url(#fdgfoewyrexvh)" height="137.6328" id="Administrator" style="stroke:#A80036;stroke-width:1.5;" width="236" x="7" y="360"/><ellipse cx="80.75" cy="376" fill="#ADD1B2" rx="11" ry="11" style="stroke:#A80036;stroke-width:1.0;"/><path d="M83.0938,371.6719 C82.1563,371.2344 81.5625,371.0938 80.6875,371.0938 C78.0625,371.0938 76.0625,373.1719 76.0625,375.8906 L76.0625,377.0156 C76.0625,379.5938 78.1719,381.4844 81.0625,381.4844 C82.2813,381.4844 83.4375,381.1875 84.1875,380.6406 C84.7656,380.2344 85.0938,379.7813 85.0938,379.3906 C85.0938,378.9375 84.7031,378.5469 84.2344,378.5469 C84.0156,378.5469 83.8125,378.625 83.625,378.8125 C83.1719,379.2969 83.1719,379.2969 82.9844,379.3906 C82.5625,379.6563 81.875,379.7813 81.1094,379.7813 C79.0625,379.7813 77.7656,378.6875 77.7656,376.9844 L77.7656,375.8906 C77.7656,374.1094 79.0156,372.7969 80.75,372.7969 C81.3281,372.7969 81.9375,372.9531 82.4063,373.2031 C82.8906,373.4844 83.0625,373.7031 83.1563,374.1094 C83.2188,374.5156 83.25,374.6406 83.3906,374.7656 C83.5313,374.9063 83.7656,375.0156 83.9844,375.0156 C84.25,375.0156 84.5156,374.875 84.6875,374.6563 C84.7969,374.5 84.8281,374.3125 84.8281,373.8906 L84.8281,372.4688 C84.8281,372.0313 84.8125,371.9063 84.7188,371.75 C84.5625,371.4844 84.2813,371.3438 83.9844,371.3438 C83.6875,371.3438 83.4844,371.4375 83.2656,371.75 L83.0938,371.6719 Z " fill="#000000"/><text fill="#000000" font-family="sans-serif" font-size="12" lengthAdjust="spacing" textLength="80" x="101.25" y="380.1543">Administrator</text><line style="stroke:#A80036;stroke-width:1.5;" x1="8" x2="242" y1="392" y2="392"/><text fill="#000000" font-family="sans-serif" font-size="11" lengthAdjust="spacing" textLength="75" x="13" y="406.2104">-employeeID</text><text fill="#000000" font-family="sans-serif" font-size="11" lengthAdjust="spacing" textLength="99" x="13" y="419.0151">-organizationRole</text><text fill="#000000" font-family="sans-serif" font-size="11" lengthAdjust="spacing" textLength="37" x="13" y="431.8198">-name</text><text fill="#000000" font-family="sans-serif" font-size="11" lengthAdjust="spacing" textLength="49" x="13" y="444.6245">-address</text><text fill="#000000" font-family="sans-serif" font-size="11" lengthAdjust="spacing" textLength="85" x="13" y="457.4292">-phoneNumber</text><text fill="#000000" font-family="sans-serif" font-size="11" lengthAdjust="spacing" textLength="34" x="13" y="470.2339">-eMail</text><text fill="#000000" font-family="sans-serif" font-size="11" lengthAdjust="spacing" textLength="224" x="13" y="483.0386">-standardOcupationalClassificationCode</text><line style="stroke:#A80036;stroke-width:1.5;" x1="8" x2="242" y1="489.6328" y2="489.6328"/><!--MD5=[371a79cf93e6b0f3b7c16edd206e96ed]
class ClinicalChemistTechnologist--><rect codeLine="15" fill="#FEFECE" filter="url(#fdgfoewyrexvh)" height="137.6328" id="ClinicalChemistTechnologist" style="stroke:#A80036;stroke-width:1.5;" width="236" x="132" y="145"/><ellipse cx="164.1" cy="161" fill="#ADD1B2" rx="11" ry="11" style="stroke:#A80036;stroke-width:1.0;"/><path d="M166.4438,156.6719 C165.5063,156.2344 164.9125,156.0938 164.0375,156.0938 C161.4125,156.0938 159.4125,158.1719 159.4125,160.8906 L159.4125,162.0156 C159.4125,164.5938 161.5219,166.4844 164.4125,166.4844 C165.6313,166.4844 166.7875,166.1875 167.5375,165.6406 C168.1156,165.2344 168.4438,164.7813 168.4438,164.3906 C168.4438,163.9375 168.0531,163.5469 167.5844,163.5469 C167.3656,163.5469 167.1625,163.625 166.975,163.8125 C166.5219,164.2969 166.5219,164.2969 166.3344,164.3906 C165.9125,164.6563 165.225,164.7813 164.4594,164.7813 C162.4125,164.7813 161.1156,163.6875 161.1156,161.9844 L161.1156,160.8906 C161.1156,159.1094 162.3656,157.7969 164.1,157.7969 C164.6781,157.7969 165.2875,157.9531 165.7563,158.2031 C166.2406,158.4844 166.4125,158.7031 166.5063,159.1094 C166.5688,159.5156 166.6,159.6406 166.7406,159.7656 C166.8813,159.9063 167.1156,160.0156 167.3344,160.0156 C167.6,160.0156 167.8656,159.875 168.0375,159.6563 C168.1469,159.5 168.1781,159.3125 168.1781,158.8906 L168.1781,157.4688 C168.1781,157.0313 168.1625,156.9063 168.0688,156.75 C167.9125,156.4844 167.6313,156.3438 167.3344,156.3438 C167.0375,156.3438 166.8344,156.4375 166.6156,156.75 L166.4438,156.6719 Z " fill="#000000"/><text fill="#000000" font-family="sans-serif" font-size="12" lengthAdjust="spacing" textLength="166" x="181.9" y="165.1543">ClinicalChemistTechnologist</text><line style="stroke:#A80036;stroke-width:1.5;" x1="133" x2="367" y1="177" y2="177"/><text fill="#000000" font-family="sans-serif" font-size="11" lengthAdjust="spacing" textLength="75" x="138" y="191.2104">-employeeID</text><text fill="#000000" font-family="sans-serif" font-size="11" lengthAdjust="spacing" textLength="99" x="138" y="204.0151">-organizationRole</text><text fill="#000000" font-family="sans-serif" font-size="11" lengthAdjust="spacing" textLength="37" x="138" y="216.8198">-name</text><text fill="#000000" font-family="sans-serif" font-size="11" lengthAdjust="spacing" textLength="49" x="138" y="229.6245">-address</text><text fill="#000000" font-family="sans-serif" font-size="11" lengthAdjust="spacing" textLength="85" x="138" y="242.4292">-phoneNumber</text><text fill="#000000" font-family="sans-serif" font-size="11" lengthAdjust="spacing" textLength="34" x="138" y="255.2339">-eMail</text><text fill="#000000" font-family="sans-serif" font-size="11" lengthAdjust="spacing" textLength="224" x="138" y="268.0386">-standardOcupationalClassificationCode</text><line style="stroke:#A80036;stroke-width:1.5;" x1="133" x2="367" y1="274.6328" y2="274.6328"/><!--MD5=[7d96fd15f3014691d2fcaf89c5791e2a]
class SpecialistDoctor--><rect codeLine="24" fill="#FEFECE" filter="url(#fdgfoewyrexvh)" height="137.6328" id="SpecialistDoctor" style="stroke:#A80036;stroke-width:1.5;" width="236" x="407" y="575"/><ellipse cx="471.25" cy="591" fill="#ADD1B2" rx="11" ry="11" style="stroke:#A80036;stroke-width:1.0;"/><path d="M473.5938,586.6719 C472.6563,586.2344 472.0625,586.0938 471.1875,586.0938 C468.5625,586.0938 466.5625,588.1719 466.5625,590.8906 L466.5625,592.0156 C466.5625,594.5938 468.6719,596.4844 471.5625,596.4844 C472.7813,596.4844 473.9375,596.1875 474.6875,595.6406 C475.2656,595.2344 475.5938,594.7813 475.5938,594.3906 C475.5938,593.9375 475.2031,593.5469 474.7344,593.5469 C474.5156,593.5469 474.3125,593.625 474.125,593.8125 C473.6719,594.2969 473.6719,594.2969 473.4844,594.3906 C473.0625,594.6563 472.375,594.7813 471.6094,594.7813 C469.5625,594.7813 468.2656,593.6875 468.2656,591.9844 L468.2656,590.8906 C468.2656,589.1094 469.5156,587.7969 471.25,587.7969 C471.8281,587.7969 472.4375,587.9531 472.9063,588.2031 C473.3906,588.4844 473.5625,588.7031 473.6563,589.1094 C473.7188,589.5156 473.75,589.6406 473.8906,589.7656 C474.0313,589.9063 474.2656,590.0156 474.4844,590.0156 C474.75,590.0156 475.0156,589.875 475.1875,589.6563 C475.2969,589.5 475.3281,589.3125 475.3281,588.8906 L475.3281,587.4688 C475.3281,587.0313 475.3125,586.9063 475.2188,586.75 C475.0625,586.4844 474.7813,586.3438 474.4844,586.3438 C474.1875,586.3438 473.9844,586.4375 473.7656,586.75 L473.5938,586.6719 Z " fill="#000000"/><text fill="#000000" font-family="sans-serif" font-size="12" lengthAdjust="spacing" textLength="99" x="491.75" y="595.1543">SpecialistDoctor</text><line style="stroke:#A80036;stroke-width:1.5;" x1="408" x2="642" y1="607" y2="607"/><text fill="#000000" font-family="sans-serif" font-size="11" lengthAdjust="spacing" textLength="75" x="413" y="621.2104">-employeeID</text><text fill="#000000" font-family="sans-serif" font-size="11" lengthAdjust="spacing" textLength="99" x="413" y="634.0151">-organizationRole</text><text fill="#000000" font-family="sans-serif" font-size="11" lengthAdjust="spacing" textLength="37" x="413" y="646.8198">-name</text><text fill="#000000" font-family="sans-serif" font-size="11" lengthAdjust="spacing" textLength="49" x="413" y="659.6245">-address</text><text fill="#000000" font-family="sans-serif" font-size="11" lengthAdjust="spacing" textLength="85" x="413" y="672.4292">-phoneNumber</text><text fill="#000000" font-family="sans-serif" font-size="11" lengthAdjust="spacing" textLength="34" x="413" y="685.2339">-eMail</text><text fill="#000000" font-family="sans-serif" font-size="11" lengthAdjust="spacing" textLength="224" x="413" y="698.0386">-standardOcupationalClassificationCode</text><line style="stroke:#A80036;stroke-width:1.5;" x1="408" x2="642" y1="704.6328" y2="704.6328"/><!--MD5=[f00dbe8c0302c6aec2cb26b3c659c8fc]
class Report--><rect codeLine="34" fill="#FEFECE" filter="url(#fdgfoewyrexvh)" height="60.8047" id="Report" style="stroke:#A80036;stroke-width:1.5;" width="83" x="483.5" y="398.5"/><ellipse cx="503.45" cy="414.5" fill="#ADD1B2" rx="11" ry="11" style="stroke:#A80036;stroke-width:1.0;"/><path d="M505.7938,410.1719 C504.8563,409.7344 504.2625,409.5938 503.3875,409.5938 C500.7625,409.5938 498.7625,411.6719 498.7625,414.3906 L498.7625,415.5156 C498.7625,418.0938 500.8719,419.9844 503.7625,419.9844 C504.9813,419.9844 506.1375,419.6875 506.8875,419.1406 C507.4656,418.7344 507.7938,418.2813 507.7938,417.8906 C507.7938,417.4375 507.4031,417.0469 506.9344,417.0469 C506.7156,417.0469 506.5125,417.125 506.325,417.3125 C505.8719,417.7969 505.8719,417.7969 505.6844,417.8906 C505.2625,418.1563 504.575,418.2813 503.8094,418.2813 C501.7625,418.2813 500.4656,417.1875 500.4656,415.4844 L500.4656,414.3906 C500.4656,412.6094 501.7156,411.2969 503.45,411.2969 C504.0281,411.2969 504.6375,411.4531 505.1063,411.7031 C505.5906,411.9844 505.7625,412.2031 505.8563,412.6094 C505.9188,413.0156 505.95,413.1406 506.0906,413.2656 C506.2313,413.4063 506.4656,413.5156 506.6844,413.5156 C506.95,413.5156 507.2156,413.375 507.3875,413.1563 C507.4969,413 507.5281,412.8125 507.5281,412.3906 L507.5281,410.9688 C507.5281,410.5313 507.5125,410.4063 507.4188,410.25 C507.2625,409.9844 506.9813,409.8438 506.6844,409.8438 C506.3875,409.8438 506.1844,409.9375 505.9656,410.25 L505.7938,410.1719 Z " fill="#000000"/><text fill="#000000" font-family="sans-serif" font-size="12" lengthAdjust="spacing" textLength="40" x="518.55" y="418.6543">Report</text><line style="stroke:#A80036;stroke-width:1.5;" x1="484.5" x2="565.5" y1="430.5" y2="430.5"/><text fill="#000000" font-family="sans-serif" font-size="11" lengthAdjust="spacing" textLength="71" x="489.5" y="444.7104">-bodyOfText</text><line style="stroke:#A80036;stroke-width:1.5;" x1="484.5" x2="565.5" y1="451.3047" y2="451.3047"/><!--MD5=[f7818c679476ac0017dcae1dd49d4d3d]
class TestResultList--><rect codeLine="37" fill="#FEFECE" filter="url(#fdgfoewyrexvh)" height="99.2188" id="TestResultList" style="stroke:#A80036;stroke-width:1.5;" width="157" x="742.5" y="379.5"/><ellipse cx="776.85" cy="395.5" fill="#ADD1B2" rx="11" ry="11" style="stroke:#A80036;stroke-width:1.0;"/><path d="M779.1938,391.1719 C778.2563,390.7344 777.6625,390.5938 776.7875,390.5938 C774.1625,390.5938 772.1625,392.6719 772.1625,395.3906 L772.1625,396.5156 C772.1625,399.0938 774.2719,400.9844 777.1625,400.9844 C778.3813,400.9844 779.5375,400.6875 780.2875,400.1406 C780.8656,399.7344 781.1938,399.2813 781.1938,398.8906 C781.1938,398.4375 780.8031,398.0469 780.3344,398.0469 C780.1156,398.0469 779.9125,398.125 779.725,398.3125 C779.2719,398.7969 779.2719,398.7969 779.0844,398.8906 C778.6625,399.1563 777.975,399.2813 777.2094,399.2813 C775.1625,399.2813 773.8656,398.1875 773.8656,396.4844 L773.8656,395.3906 C773.8656,393.6094 775.1156,392.2969 776.85,392.2969 C777.4281,392.2969 778.0375,392.4531 778.5063,392.7031 C778.9906,392.9844 779.1625,393.2031 779.2563,393.6094 C779.3188,394.0156 779.35,394.1406 779.4906,394.2656 C779.6313,394.4063 779.8656,394.5156 780.0844,394.5156 C780.35,394.5156 780.6156,394.375 780.7875,394.1563 C780.8969,394 780.9281,393.8125 780.9281,393.3906 L780.9281,391.9688 C780.9281,391.5313 780.9125,391.4063 780.8188,391.25 C780.6625,390.9844 780.3813,390.8438 780.0844,390.8438 C779.7875,390.8438 779.5844,390.9375 779.3656,391.25 L779.1938,391.1719 Z " fill="#000000"/><text fill="#000000" font-family="sans-serif" font-size="12" lengthAdjust="spacing" textLength="82" x="795.15" y="399.6543">TestResultList</text><line style="stroke:#A80036;stroke-width:1.5;" x1="743.5" x2="898.5" y1="411.5" y2="411.5"/><text fill="#000000" font-family="sans-serif" font-size="11" lengthAdjust="spacing" textLength="112" x="748.5" y="425.7104">-listOfPositiveCases</text><text fill="#000000" font-family="sans-serif" font-size="11" lengthAdjust="spacing" textLength="120" x="748.5" y="438.5151">-listOfNegativeCases</text><text fill="#000000" font-family="sans-serif" font-size="11" lengthAdjust="spacing" textLength="127" x="748.5" y="451.3198">-sortingAlgorithmByTIF</text><text fill="#000000" font-family="sans-serif" font-size="11" lengthAdjust="spacing" textLength="145" x="748.5" y="464.1245">-sortingAlgorithmByName</text><line style="stroke:#A80036;stroke-width:1.5;" x1="743.5" x2="898.5" y1="470.7188" y2="470.7188"/><!--MD5=[5e6ae5ca2322ea7d8c17b0187d1bbc44]
class TestResults--><rect codeLine="45" fill="#FEFECE" filter="url(#fdgfoewyrexvh)" height="60.8047" id="TestResults" style="stroke:#A80036;stroke-width:1.5;" width="117" x="406.5" y="7"/><ellipse cx="428.7" cy="23" fill="#ADD1B2" rx="11" ry="11" style="stroke:#A80036;stroke-width:1.0;"/><path d="M431.0438,18.6719 C430.1063,18.2344 429.5125,18.0938 428.6375,18.0938 C426.0125,18.0938 424.0125,20.1719 424.0125,22.8906 L424.0125,24.0156 C424.0125,26.5938 426.1219,28.4844 429.0125,28.4844 C430.2313,28.4844 431.3875,28.1875 432.1375,27.6406 C432.7156,27.2344 433.0438,26.7813 433.0438,26.3906 C433.0438,25.9375 432.6531,25.5469 432.1844,25.5469 C431.9656,25.5469 431.7625,25.625 431.575,25.8125 C431.1219,26.2969 431.1219,26.2969 430.9344,26.3906 C430.5125,26.6563 429.825,26.7813 429.0594,26.7813 C427.0125,26.7813 425.7156,25.6875 425.7156,23.9844 L425.7156,22.8906 C425.7156,21.1094 426.9656,19.7969 428.7,19.7969 C429.2781,19.7969 429.8875,19.9531 430.3563,20.2031 C430.8406,20.4844 431.0125,20.7031 431.1063,21.1094 C431.1688,21.5156 431.2,21.6406 431.3406,21.7656 C431.4813,21.9063 431.7156,22.0156 431.9344,22.0156 C432.2,22.0156 432.4656,21.875 432.6375,21.6563 C432.7469,21.5 432.7781,21.3125 432.7781,20.8906 L432.7781,19.4688 C432.7781,19.0313 432.7625,18.9063 432.6688,18.75 C432.5125,18.4844 432.2313,18.3438 431.9344,18.3438 C431.6375,18.3438 431.4344,18.4375 431.2156,18.75 L431.0438,18.6719 Z " fill="#000000"/><text fill="#000000" font-family="sans-serif" font-size="12" lengthAdjust="spacing" textLength="69" x="444.3" y="27.1543">TestResults</text><line style="stroke:#A80036;stroke-width:1.5;" x1="407.5" x2="522.5" y1="39" y2="39"/><text fill="#000000" font-family="sans-serif" font-size="11" lengthAdjust="spacing" textLength="105" x="412.5" y="53.2104">-parameterResults</text><line style="stroke:#A80036;stroke-width:1.5;" x1="407.5" x2="522.5" y1="59.8047" y2="59.8047"/><!--MD5=[10d06bcee75aaf74ab8f6040820ceef2]
class Diagnosis--><rect fill="#FEFECE" filter="url(#fdgfoewyrexvh)" height="48" id="Diagnosis" style="stroke:#A80036;stroke-width:1.5;" width="91" x="600.5" y="190"/><ellipse cx="615.5" cy="206" fill="#ADD1B2" rx="11" ry="11" style="stroke:#A80036;stroke-width:1.0;"/><path d="M617.8438,201.6719 C616.9063,201.2344 616.3125,201.0938 615.4375,201.0938 C612.8125,201.0938 610.8125,203.1719 610.8125,205.8906 L610.8125,207.0156 C610.8125,209.5938 612.9219,211.4844 615.8125,211.4844 C617.0313,211.4844 618.1875,211.1875 618.9375,210.6406 C619.5156,210.2344 619.8438,209.7813 619.8438,209.3906 C619.8438,208.9375 619.4531,208.5469 618.9844,208.5469 C618.7656,208.5469 618.5625,208.625 618.375,208.8125 C617.9219,209.2969 617.9219,209.2969 617.7344,209.3906 C617.3125,209.6563 616.625,209.7813 615.8594,209.7813 C613.8125,209.7813 612.5156,208.6875 612.5156,206.9844 L612.5156,205.8906 C612.5156,204.1094 613.7656,202.7969 615.5,202.7969 C616.0781,202.7969 616.6875,202.9531 617.1563,203.2031 C617.6406,203.4844 617.8125,203.7031 617.9063,204.1094 C617.9688,204.5156 618,204.6406 618.1406,204.7656 C618.2813,204.9063 618.5156,205.0156 618.7344,205.0156 C619,205.0156 619.2656,204.875 619.4375,204.6563 C619.5469,204.5 619.5781,204.3125 619.5781,203.8906 L619.5781,202.4688 C619.5781,202.0313 619.5625,201.9063 619.4688,201.75 C619.3125,201.4844 619.0313,201.3438 618.7344,201.3438 C618.4375,201.3438 618.2344,201.4375 618.0156,201.75 L617.8438,201.6719 Z " fill="#000000"/><text fill="#000000" font-family="sans-serif" font-size="12" lengthAdjust="spacing" textLength="59" x="629.5" y="210.1543">Diagnosis</text><line style="stroke:#A80036;stroke-width:1.5;" x1="601.5" x2="690.5" y1="222" y2="222"/><line style="stroke:#A80036;stroke-width:1.5;" x1="601.5" x2="690.5" y1="230" y2="230"/><!--MD5=[50424c5ff64a87835a3f4dba1db2c883]
reverse link Diagnosis to Report--><path codeLine="48" d="M618.918,241.715 C601.282,260.347 578.872,286.527 564,313 C548.718,340.203 538.071,374.389 531.807,398.391 " fill="none" id="Diagnosis-backto-Report" style="stroke:#A80036;stroke-width:1.0;"/><polygon fill="#A80036" points="622.378,238.091,613.2695,241.8373,618.9248,241.707,619.0551,247.3624,622.378,238.091" style="stroke:#A80036;stroke-width:1.0;"/><text fill="#000000" font-family="sans-serif" font-size="13" lengthAdjust="spacing" textLength="54" x="565" y="326.0669">contains</text><text fill="#000000" font-family="sans-serif" font-size="13" lengthAdjust="spacing" textLength="8" x="607.6451" y="257.8744">1</text><text fill="#000000" font-family="sans-serif" font-size="13" lengthAdjust="spacing" textLength="8" x="524.3859" y="387.6318">1</text><!--MD5=[e5130ffff11de51b8d2878a0a724816b]
link Administrator to SpecialistDoctor--><path codeLine="49" d="M243.112,494.517 C273.642,511.071 306.501,528.78 337,545 C358.01,556.173 380.398,567.954 402.129,579.322 " fill="none" id="Administrator-to-SpecialistDoctor" style="stroke:#A80036;stroke-width:1.0;"/><polygon fill="#A80036" points="406.756,581.741,400.634,574.026,402.3252,579.4242,396.927,581.1154,406.756,581.741" style="stroke:#A80036;stroke-width:1.0;"/><text fill="#000000" font-family="sans-serif" font-size="13" lengthAdjust="spacing" textLength="56" x="338" y="541.0669">registers</text><text fill="#000000" font-family="sans-serif" font-size="13" lengthAdjust="spacing" textLength="8" x="250.9348" y="495.3166">1</text><text fill="#000000" font-family="sans-serif" font-size="13" lengthAdjust="spacing" textLength="7" x="391.9568" y="574.355">*</text><!--MD5=[cd338187eb4caa6e8a540c01e5ca8adb]
reverse link TestResults to ClinicalChemistTechnologist--><path codeLine="50" d="M401.423,59.666 C378.683,69.148 353.805,81.881 334,98 C317.892,111.11 303.311,127.998 290.989,144.773 " fill="none" id="TestResults-backto-ClinicalChemistTechnologist" style="stroke:#A80036;stroke-width:1.0;"/><polygon fill="#A80036" points="406.241,57.692,396.3964,57.4037,401.6144,59.5881,399.4301,64.8061,406.241,57.692" style="stroke:#A80036;stroke-width:1.0;"/><text fill="#000000" font-family="sans-serif" font-size="13" lengthAdjust="spacing" textLength="59" x="335" y="111.0669">produces</text><text fill="#000000" font-family="sans-serif" font-size="13" lengthAdjust="spacing" textLength="7" x="391.6532" y="56.3257">*</text><text fill="#000000" font-family="sans-serif" font-size="13" lengthAdjust="spacing" textLength="8" x="286.8035" y="133.9532">1</text><!--MD5=[b49e42cafe8eb2e974897e6c33ae447b]
reverse link TestResults to SpecialistDoctor--><path codeLine="51" d="M459.4,73.543 C448.186,151.363 427.207,343.882 466,498 C472.501,523.829 482.671,551.131 492.748,574.994 " fill="none" id="TestResults-backto-SpecialistDoctor" style="stroke:#A80036;stroke-width:1.0;"/><polygon fill="#A80036" points="460.19,68.14,454.9284,76.4656,459.4657,73.0873,462.8441,77.6245,460.19,68.14" style="stroke:#A80036;stroke-width:1.0;"/><text fill="#000000" font-family="sans-serif" font-size="13" lengthAdjust="spacing" textLength="50" x="446" y="326.0669">reviews</text><text fill="#000000" font-family="sans-serif" font-size="13" lengthAdjust="spacing" textLength="7" x="451.4761" y="88.1071">*</text><text fill="#000000" font-family="sans-serif" font-size="13" lengthAdjust="spacing" textLength="8" x="480.7829" y="563.7204">1</text><!--MD5=[0d5ea959d23f129ef827e28702304be9]
reverse link Report to SpecialistDoctor--><path codeLine="52" d="M525,464.622 C525,494.294 525,537.925 525,574.607 " fill="none" id="Report-backto-SpecialistDoctor" style="stroke:#A80036;stroke-width:1.0;"/><polygon fill="#A80036" points="525,459.617,521,468.617,525,464.617,529,468.617,525,459.617" style="stroke:#A80036;stroke-width:1.0;"/><text fill="#000000" font-family="sans-serif" font-size="13" lengthAdjust="spacing" textLength="39" x="526" y="541.0669">writes</text><text fill="#000000" font-family="sans-serif" font-size="13" lengthAdjust="spacing" textLength="7" x="517.2781" y="479.5794">*</text><text fill="#000000" font-family="sans-serif" font-size="13" lengthAdjust="spacing" textLength="8" x="516.5875" y="563.7701">1</text><!--MD5=[281adf2a79a4f08303afdaadf5b6fddb]
reverse link Diagnosis to SpecialistDoctor--><path codeLine="53" d="M642.364,243.425 C634.391,301.439 612.906,437.103 574,545 C570.451,554.842 566.166,564.978 561.623,574.828 " fill="none" id="Diagnosis-backto-SpecialistDoctor" style="stroke:#A80036;stroke-width:1.0;"/><polygon fill="#A80036" points="643.049,238.388,637.8721,246.7666,642.3749,243.3424,645.7991,247.8451,643.049,238.388" style="stroke:#A80036;stroke-width:1.0;"/><text fill="#000000" font-family="sans-serif" font-size="13" lengthAdjust="spacing" textLength="59" x="624" y="433.5669">performs</text><text fill="#000000" font-family="sans-serif" font-size="13" lengthAdjust="spacing" textLength="7" x="634.4766" y="258.2438">*</text><text fill="#000000" font-family="sans-serif" font-size="13" lengthAdjust="spacing" textLength="8" x="556.9872" y="564.0139">1</text><!--MD5=[e20cf370ddc2b1ec2ca5c1d1877380c6]
reverse link TestResults to Report--><path codeLine="54" d="M470.372,73.372 C482.047,149.163 509.559,327.761 520.448,398.45 " fill="none" id="TestResults-backto-Report" style="stroke:#A80036;stroke-width:1.0;"/><polygon fill="#A80036" points="469.559,68.095,466.9763,77.5992,470.3205,73.0367,474.883,76.3808,469.559,68.095" style="stroke:#A80036;stroke-width:1.0;"/><text fill="#000000" font-family="sans-serif" font-size="13" lengthAdjust="spacing" textLength="54" x="503" y="218.5669">contains</text><text fill="#000000" font-family="sans-serif" font-size="13" lengthAdjust="spacing" textLength="8" x="461.6743" y="88.0528">1</text><text fill="#000000" font-family="sans-serif" font-size="13" lengthAdjust="spacing" textLength="8" x="510.5773" y="387.2293">1</text><!--MD5=[8345a230a66c91578d736fe7097173e6]
reverse link TestResultList to SpecialistDoctor--><path codeLine="55" d="M755.994,481.738 C730.154,501.89 699.968,524.921 672,545 C658.296,554.838 643.696,564.973 629.216,574.822 " fill="none" id="TestResultList-backto-SpecialistDoctor" style="stroke:#A80036;stroke-width:1.0;"/><polygon fill="#A80036" points="760.103,478.529,750.548,480.9167,756.1626,481.6068,755.4724,487.2214,760.103,478.529" style="stroke:#A80036;stroke-width:1.0;"/><text fill="#000000" font-family="sans-serif" font-size="13" lengthAdjust="spacing" textLength="64" x="694" y="541.0669">can check</text><text fill="#000000" font-family="sans-serif" font-size="13" lengthAdjust="spacing" textLength="8" x="742.9769" y="498.6096">1</text><text fill="#000000" font-family="sans-serif" font-size="13" lengthAdjust="spacing" textLength="7" x="632.6023" y="564.0073">*</text><!--MD5=[57e67419d38b144e3b26184e223c2ab7]
reverse link TestResults to Diagnosis--><path codeLine="56" d="M505.126,71.435 C515.057,79.905 525.555,89.134 535,98 C567.572,128.576 603.078,166.178 624.944,189.876 " fill="none" id="TestResults-backto-Diagnosis" style="stroke:#A80036;stroke-width:1.0;"/><polygon fill="#A80036" points="501.204,68.105,505.4746,76.9798,505.0151,71.3416,510.6532,70.8821,501.204,68.105" style="stroke:#A80036;stroke-width:1.0;"/><text fill="#000000" font-family="sans-serif" font-size="13" lengthAdjust="spacing" textLength="13" x="552" y="111.0669">to</text><text fill="#000000" font-family="sans-serif" font-size="13" lengthAdjust="spacing" textLength="7" x="500.9492" y="88.0649">*</text><text fill="#000000" font-family="sans-serif" font-size="13" lengthAdjust="spacing" textLength="8" x="610.5234" y="178.8563">1</text><!--MD5=[eaea43e34e45c5b9d20b595fc78f1f20]
link Company to Administrator--><path codeLine="57" d="M63.0113,244.617 C72.589,272.951 87.4218,316.831 100.1766,354.564 " fill="none" id="Company-to-Administrator" style="stroke:#A80036;stroke-width:1.0;"/><polygon fill="#A80036" points="101.8814,359.607,102.7882,349.8,100.28,354.8704,95.2096,352.3622,101.8814,359.607" style="stroke:#A80036;stroke-width:1.0;"/><text fill="#000000" font-family="sans-serif" font-size="13" lengthAdjust="spacing" textLength="41" x="93" y="326.0669">knows</text><text fill="#000000" font-family="sans-serif" font-size="13" lengthAdjust="spacing" textLength="8" x="56.2511" y="264.5794">1</text><text fill="#000000" font-family="sans-serif" font-size="13" lengthAdjust="spacing" textLength="8" x="91.0848" y="348.7701">1</text><!--MD5=[e1405913a080ce581c20985d7e306c82]
@startuml
class Company
skinparam classAttributeIconSize 0
Company : -designation

Class Administrator{
-employeeID
-organizationRole
-name
-address
-phoneNumber
-eMail
-standardOcupationalClassificationCode
}

Class ClinicalChemistTechnologist{
-employeeID
-organizationRole
-name
-address
-phoneNumber
-eMail
-standardOcupationalClassificationCode
}
Class SpecialistDoctor{
-employeeID
-organizationRole
-name
-address
-phoneNumber
-eMail
-standardOcupationalClassificationCode
}

Class Report{
-bodyOfText
}
Class TestResultList{
-listOfPositiveCases
-listOfNegativeCases
-sortingAlgorithmByTIF
-sortingAlgorithmByName
}


Class TestResults{
-parameterResults
}
Diagnosis "1" <- - "1" Report: contains
Administrator "1" - -> "*" SpecialistDoctor: registers
TestResults "*" <- - "1" ClinicalChemistTechnologist: produces
TestResults "*" <- - "1" SpecialistDoctor: reviews
Report "*" <- - "1" SpecialistDoctor: writes
Diagnosis "*" <- - "1" SpecialistDoctor: performs
TestResults "1" <- - "1" Report: contains
TestResultList "1" <- - "*" SpecialistDoctor : can check
TestResults "*" <- - "1" Diagnosis: to
Company "1" - -> "1" Administrator : knows
@enduml

PlantUML version 1.2021.7beta2(Unknown compile time)
(GPL source distribution)
Java Runtime: Java(TM) SE Runtime Environment
JVM: Java HotSpot(TM) 64-Bit Server VM
Default Encoding: UTF-8
Language: en
Country: US
--></g></svg>