<?xml version="1.0" encoding="UTF-8" standalone="no"?><svg xmlns="http://www.w3.org/2000/svg" xmlns:xlink="http://www.w3.org/1999/xlink" contentScriptType="application/ecmascript" contentStyleType="text/css" height="761px" preserveAspectRatio="none" style="width:1654px;height:761px;" version="1.1" viewBox="0 0 1654 761" width="1654px" zoomAndPan="magnify"><defs><filter height="300%" id="f1gac2pipspl3z" width="300%" x="-1" y="-1"><feGaussianBlur result="blurOut" stdDeviation="2.0"/><feColorMatrix in="blurOut" result="blurOut2" type="matrix" values="0 0 0 0 0 0 0 0 0 0 0 0 0 0 0 0 0 0 .4 0"/><feOffset dx="4.0" dy="4.0" in="blurOut2" result="blurOut3"/><feBlend in="SourceGraphic" in2="blurOut3" mode="normal"/></filter></defs><g><rect fill="#FFFFFF" filter="url(#f1gac2pipspl3z)" height="570.3906" style="stroke:#A80036;stroke-width:1.0;" width="10" x="49.5" y="98.2969"/><rect fill="#FFFFFF" filter="url(#f1gac2pipspl3z)" height="29.1328" style="stroke:#A80036;stroke-width:1.0;" width="10" x="373.5" y="119.4297"/><rect fill="#FFFFFF" filter="url(#f1gac2pipspl3z)" height="192.0625" style="stroke:#A80036;stroke-width:1.0;" width="10" x="373.5" y="177.6953"/><rect fill="#FFFFFF" filter="url(#f1gac2pipspl3z)" height="260.7969" style="stroke:#A80036;stroke-width:1.0;" width="10" x="373.5" y="398.8906"/><rect fill="#FFFFFF" filter="url(#f1gac2pipspl3z)" height="58.2656" style="stroke:#A80036;stroke-width:1.0;" width="10" x="917.5" y="282.3594"/><rect fill="#FFFFFF" filter="url(#f1gac2pipspl3z)" height="195.5313" style="stroke:#A80036;stroke-width:1.0;" width="10" x="917.5" y="428.0234"/><rect fill="#FFFFFF" filter="url(#f1gac2pipspl3z)" height="166.3984" style="stroke:#A80036;stroke-width:1.0;" width="10" x="1073" y="457.1563"/><rect fill="#FFFFFF" filter="url(#f1gac2pipspl3z)" height="28" style="stroke:#A80036;stroke-width:1.0;" width="10" x="1078" y="494.2891"/><rect fill="#FFFFFF" filter="url(#f1gac2pipspl3z)" height="29.1328" style="stroke:#A80036;stroke-width:1.0;" width="10" x="1486.5" y="311.4922"/><rect fill="#FFFFFF" filter="url(#f1gac2pipspl3z)" height="166.3984" style="stroke:#A80036;stroke-width:1.0;" width="10" x="1486.5" y="457.1563"/><rect fill="#FFFFFF" filter="url(#f1gac2pipspl3z)" height="28" style="stroke:#A80036;stroke-width:1.0;" width="10" x="1491.5" y="595.5547"/><line style="stroke:#A80036;stroke-width:1.0;stroke-dasharray:5.0,5.0;" x1="54" x2="54" y1="88.2969" y2="677.6875"/><line style="stroke:#A80036;stroke-width:1.0;stroke-dasharray:5.0,5.0;" x1="378.5" x2="378.5" y1="88.2969" y2="677.6875"/><line style="stroke:#A80036;stroke-width:1.0;stroke-dasharray:5.0,5.0;" x1="922.5" x2="922.5" y1="88.2969" y2="677.6875"/><line style="stroke:#A80036;stroke-width:1.0;stroke-dasharray:5.0,5.0;" x1="1077.5" x2="1077.5" y1="88.2969" y2="677.6875"/><line style="stroke:#A80036;stroke-width:1.0;stroke-dasharray:5.0,5.0;" x1="1491.5" x2="1491.5" y1="88.2969" y2="677.6875"/><line style="stroke:#A80036;stroke-width:1.0;stroke-dasharray:5.0,5.0;" x1="1613" x2="1613" y1="88.2969" y2="677.6875"/><text fill="#000000" font-family="sans-serif" font-size="14" lengthAdjust="spacing" textLength="93" x="5" y="84.9951">Receptionist</text><ellipse cx="54.5" cy="15" fill="#FEFECE" filter="url(#f1gac2pipspl3z)" rx="8" ry="8" style="stroke:#A80036;stroke-width:2.0;"/><path d="M54.5,23 L54.5,50 M41.5,31 L67.5,31 M54.5,50 L41.5,65 M54.5,50 L67.5,65 " fill="none" filter="url(#f1gac2pipspl3z)" style="stroke:#A80036;stroke-width:2.0;"/><text fill="#000000" font-family="sans-serif" font-size="14" lengthAdjust="spacing" textLength="93" x="5" y="689.6826">Receptionist</text><ellipse cx="54.5" cy="702.9844" fill="#FEFECE" filter="url(#f1gac2pipspl3z)" rx="8" ry="8" style="stroke:#A80036;stroke-width:2.0;"/><path d="M54.5,710.9844 L54.5,737.9844 M41.5,718.9844 L67.5,718.9844 M54.5,737.9844 L41.5,752.9844 M54.5,737.9844 L67.5,752.9844 " fill="none" filter="url(#f1gac2pipspl3z)" style="stroke:#A80036;stroke-width:2.0;"/><rect fill="#FEFECE" filter="url(#f1gac2pipspl3z)" height="30.2969" style="stroke:#A80036;stroke-width:1.5;" width="136" x="308.5" y="53"/><text fill="#000000" font-family="sans-serif" font-size="14" lengthAdjust="spacing" textLength="122" x="315.5" y="72.9951">:RegisterClientUI</text><rect fill="#FEFECE" filter="url(#f1gac2pipspl3z)" height="30.2969" style="stroke:#A80036;stroke-width:1.5;" width="136" x="308.5" y="676.6875"/><text fill="#000000" font-family="sans-serif" font-size="14" lengthAdjust="spacing" textLength="122" x="315.5" y="696.6826">:RegisterClientUI</text><rect fill="#FEFECE" filter="url(#f1gac2pipspl3z)" height="30.2969" style="stroke:#A80036;stroke-width:1.5;" width="196" x="822.5" y="53"/><text fill="#000000" font-family="sans-serif" font-size="14" lengthAdjust="spacing" textLength="182" x="829.5" y="72.9951">:RegisterClientController</text><rect fill="#FEFECE" filter="url(#f1gac2pipspl3z)" height="30.2969" style="stroke:#A80036;stroke-width:1.5;" width="196" x="822.5" y="676.6875"/><text fill="#000000" font-family="sans-serif" font-size="14" lengthAdjust="spacing" textLength="182" x="829.5" y="696.6826">:RegisterClientController</text><rect fill="#FEFECE" filter="url(#f1gac2pipspl3z)" height="30.2969" style="stroke:#A80036;stroke-width:1.5;" width="87" x="1032.5" y="53"/><text fill="#000000" font-family="sans-serif" font-size="14" lengthAdjust="spacing" textLength="73" x="1039.5" y="72.9951">:Company</text><rect fill="#FEFECE" filter="url(#f1gac2pipspl3z)" height="30.2969" style="stroke:#A80036;stroke-width:1.5;" width="87" x="1032.5" y="676.6875"/><text fill="#000000" font-family="sans-serif" font-size="14" lengthAdjust="spacing" textLength="73" x="1039.5" y="696.6826">:Company</text><rect fill="#FEFECE" filter="url(#f1gac2pipspl3z)" height="30.2969" style="stroke:#A80036;stroke-width:1.5;" width="88" x="1445.5" y="53"/><text fill="#000000" font-family="sans-serif" font-size="14" lengthAdjust="spacing" textLength="74" x="1452.5" y="72.9951">:ClientList</text><rect fill="#FEFECE" filter="url(#f1gac2pipspl3z)" height="30.2969" style="stroke:#A80036;stroke-width:1.5;" width="88" x="1445.5" y="676.6875"/><text fill="#000000" font-family="sans-serif" font-size="14" lengthAdjust="spacing" textLength="74" x="1452.5" y="696.6826">:ClientList</text><rect fill="#FEFECE" filter="url(#f1gac2pipspl3z)" height="30.2969" style="stroke:#A80036;stroke-width:1.5;" width="57" x="1583" y="53"/><text fill="#000000" font-family="sans-serif" font-size="14" lengthAdjust="spacing" textLength="43" x="1590" y="72.9951">Client</text><rect fill="#FEFECE" filter="url(#f1gac2pipspl3z)" height="30.2969" style="stroke:#A80036;stroke-width:1.5;" width="57" x="1583" y="676.6875"/><text fill="#000000" font-family="sans-serif" font-size="14" lengthAdjust="spacing" textLength="43" x="1590" y="696.6826">Client</text><rect fill="#FFFFFF" filter="url(#f1gac2pipspl3z)" height="570.3906" style="stroke:#A80036;stroke-width:1.0;" width="10" x="49.5" y="98.2969"/><rect fill="#FFFFFF" filter="url(#f1gac2pipspl3z)" height="29.1328" style="stroke:#A80036;stroke-width:1.0;" width="10" x="373.5" y="119.4297"/><rect fill="#FFFFFF" filter="url(#f1gac2pipspl3z)" height="192.0625" style="stroke:#A80036;stroke-width:1.0;" width="10" x="373.5" y="177.6953"/><rect fill="#FFFFFF" filter="url(#f1gac2pipspl3z)" height="260.7969" style="stroke:#A80036;stroke-width:1.0;" width="10" x="373.5" y="398.8906"/><rect fill="#FFFFFF" filter="url(#f1gac2pipspl3z)" height="58.2656" style="stroke:#A80036;stroke-width:1.0;" width="10" x="917.5" y="282.3594"/><rect fill="#FFFFFF" filter="url(#f1gac2pipspl3z)" height="195.5313" style="stroke:#A80036;stroke-width:1.0;" width="10" x="917.5" y="428.0234"/><rect fill="#FFFFFF" filter="url(#f1gac2pipspl3z)" height="166.3984" style="stroke:#A80036;stroke-width:1.0;" width="10" x="1073" y="457.1563"/><rect fill="#FFFFFF" filter="url(#f1gac2pipspl3z)" height="28" style="stroke:#A80036;stroke-width:1.0;" width="10" x="1078" y="494.2891"/><rect fill="#FFFFFF" filter="url(#f1gac2pipspl3z)" height="29.1328" style="stroke:#A80036;stroke-width:1.0;" width="10" x="1486.5" y="311.4922"/><rect fill="#FFFFFF" filter="url(#f1gac2pipspl3z)" height="166.3984" style="stroke:#A80036;stroke-width:1.0;" width="10" x="1486.5" y="457.1563"/><rect fill="#FFFFFF" filter="url(#f1gac2pipspl3z)" height="28" style="stroke:#A80036;stroke-width:1.0;" width="10" x="1491.5" y="595.5547"/><polygon fill="#A80036" points="361.5,115.4297,371.5,119.4297,361.5,123.4297,365.5,119.4297" style="stroke:#A80036;stroke-width:1.0;"/><line style="stroke:#A80036;stroke-width:1.0;" x1="59.5" x2="367.5" y1="119.4297" y2="119.4297"/><text fill="#000000" font-family="sans-serif" font-size="13" font-weight="bold" lengthAdjust="spacing" textLength="9" x="66.5" y="114.3638">1</text><text fill="#000000" font-family="sans-serif" font-size="13" lengthAdjust="spacing" textLength="170" x="79.5" y="114.3638">asks to register new Client</text><polygon fill="#A80036" points="70.5,144.5625,60.5,148.5625,70.5,152.5625,66.5,148.5625" style="stroke:#A80036;stroke-width:1.0;"/><line style="stroke:#A80036;stroke-width:1.0;stroke-dasharray:2.0,2.0;" x1="64.5" x2="377.5" y1="148.5625" y2="148.5625"/><text fill="#000000" font-family="sans-serif" font-size="13" font-weight="bold" lengthAdjust="spacing" textLength="9" x="76.5" y="143.4966">2</text><text fill="#000000" font-family="sans-serif" font-size="13" lengthAdjust="spacing" textLength="223" x="89.5" y="143.4966">request data(i.e., ccn, nhsNumber)</text><polygon fill="#A80036" points="361.5,173.6953,371.5,177.6953,361.5,181.6953,365.5,177.6953" style="stroke:#A80036;stroke-width:1.0;"/><line style="stroke:#A80036;stroke-width:1.0;" x1="59.5" x2="367.5" y1="177.6953" y2="177.6953"/><text fill="#000000" font-family="sans-serif" font-size="13" font-weight="bold" lengthAdjust="spacing" textLength="8" x="66.5" y="172.6294">3</text><text fill="#000000" font-family="sans-serif" font-size="13" lengthAdjust="spacing" textLength="138" x="78.5" y="172.6294">types requested data</text><rect fill="#FFFFFF" filter="url(#f1gac2pipspl3z)" height="70.5313" style="stroke:#000000;stroke-width:2.0;" width="179" x="305.5" y="185.6953"/><polygon fill="#EEEEEE" points="305.5,185.6953,373.5,185.6953,373.5,192.6953,363.5,202.6953,305.5,202.6953,305.5,185.6953" style="stroke:#000000;stroke-width:2.0;"/><text fill="#000000" font-family="sans-serif" font-size="13" font-weight="bold" lengthAdjust="spacing" textLength="23" x="318.5" y="199.7622">ref</text><text fill="#000000" font-family="sans-serif" font-size="13" lengthAdjust="spacing" textLength="0" x="315.5" y="218.7622"/><text fill="#000000" font-family="sans-serif" font-size="13" lengthAdjust="spacing" textLength="171" x="311.5" y="233.895">SD_Client_Local_Validation</text><text fill="#000000" font-family="sans-serif" font-size="13" lengthAdjust="spacing" textLength="0" x="315.5" y="249.0278"/><polygon fill="#A80036" points="905.5,278.3594,915.5,282.3594,905.5,286.3594,909.5,282.3594" style="stroke:#A80036;stroke-width:1.0;"/><line style="stroke:#A80036;stroke-width:1.0;" x1="383.5" x2="911.5" y1="282.3594" y2="282.3594"/><text fill="#000000" font-family="sans-serif" font-size="13" font-weight="bold" lengthAdjust="spacing" textLength="9" x="390.5" y="277.2935">4</text><text fill="#000000" font-family="sans-serif" font-size="13" lengthAdjust="spacing" textLength="502" x="403.5" y="277.2935">createClient(ccn, birthDate, name, tif, nhsNumber, sex, phoneNumber, email )</text><polygon fill="#A80036" points="1474.5,307.4922,1484.5,311.4922,1474.5,315.4922,1478.5,311.4922" style="stroke:#A80036;stroke-width:1.0;"/><line style="stroke:#A80036;stroke-width:1.0;" x1="927.5" x2="1480.5" y1="311.4922" y2="311.4922"/><text fill="#000000" font-family="sans-serif" font-size="13" font-weight="bold" lengthAdjust="spacing" textLength="9" x="934.5" y="306.4263">5</text><text fill="#000000" font-family="sans-serif" font-size="13" lengthAdjust="spacing" textLength="527" x="947.5" y="306.4263">c = createClient(ccn, birthDate, name, tif, nhsNumber, sex, phoneNumber, email )</text><polygon fill="#A80036" points="1601.5,336.625,1611.5,340.625,1601.5,344.625,1605.5,340.625" style="stroke:#A80036;stroke-width:1.0;"/><line style="stroke:#A80036;stroke-width:1.0;stroke-dasharray:2.0,2.0;" x1="1491.5" x2="1607.5" y1="340.625" y2="340.625"/><text fill="#000000" font-family="sans-serif" font-size="13" font-weight="bold" lengthAdjust="spacing" textLength="9" x="1498.5" y="335.5591">6</text><text fill="#000000" font-family="sans-serif" font-size="13" lengthAdjust="spacing" textLength="58" x="1511.5" y="335.5591">create(c)</text><polygon fill="#A80036" points="70.5,365.7578,60.5,369.7578,70.5,373.7578,66.5,369.7578" style="stroke:#A80036;stroke-width:1.0;"/><line style="stroke:#A80036;stroke-width:1.0;stroke-dasharray:2.0,2.0;" x1="64.5" x2="377.5" y1="369.7578" y2="369.7578"/><text fill="#000000" font-family="sans-serif" font-size="13" font-weight="bold" lengthAdjust="spacing" textLength="9" x="76.5" y="364.6919">7</text><text fill="#000000" font-family="sans-serif" font-size="13" lengthAdjust="spacing" textLength="277" x="89.5" y="364.6919">shows the data and request a confirmation</text><polygon fill="#A80036" points="361.5,394.8906,371.5,398.8906,361.5,402.8906,365.5,398.8906" style="stroke:#A80036;stroke-width:1.0;"/><line style="stroke:#A80036;stroke-width:1.0;" x1="59.5" x2="367.5" y1="398.8906" y2="398.8906"/><text fill="#000000" font-family="sans-serif" font-size="13" font-weight="bold" lengthAdjust="spacing" textLength="9" x="66.5" y="393.8247">8</text><text fill="#000000" font-family="sans-serif" font-size="13" lengthAdjust="spacing" textLength="114" x="79.5" y="393.8247">confirms the data</text><polygon fill="#A80036" points="905.5,424.0234,915.5,428.0234,905.5,432.0234,909.5,428.0234" style="stroke:#A80036;stroke-width:1.0;"/><line style="stroke:#A80036;stroke-width:1.0;" x1="383.5" x2="911.5" y1="428.0234" y2="428.0234"/><text fill="#000000" font-family="sans-serif" font-size="13" font-weight="bold" lengthAdjust="spacing" textLength="9" x="390.5" y="422.9575">9</text><text fill="#000000" font-family="sans-serif" font-size="13" lengthAdjust="spacing" textLength="84" x="403.5" y="422.9575">saveClient(c)</text><polygon fill="#A80036" points="1061,453.1563,1071,457.1563,1061,461.1563,1065,457.1563" style="stroke:#A80036;stroke-width:1.0;"/><line style="stroke:#A80036;stroke-width:1.0;" x1="927.5" x2="1067" y1="457.1563" y2="457.1563"/><text fill="#000000" font-family="sans-serif" font-size="13" font-weight="bold" lengthAdjust="spacing" textLength="19" x="934.5" y="452.0903">10</text><text fill="#000000" font-family="sans-serif" font-size="13" lengthAdjust="spacing" textLength="84" x="957.5" y="452.0903">saveClient(c)</text><line style="stroke:#A80036;stroke-width:1.0;" x1="1088" x2="1130" y1="486.2891" y2="486.2891"/><line style="stroke:#A80036;stroke-width:1.0;" x1="1130" x2="1130" y1="486.2891" y2="499.2891"/><line style="stroke:#A80036;stroke-width:1.0;" x1="1089" x2="1130" y1="499.2891" y2="499.2891"/><polygon fill="#A80036" points="1099,495.2891,1089,499.2891,1099,503.2891,1095,499.2891" style="stroke:#A80036;stroke-width:1.0;"/><text fill="#000000" font-family="sans-serif" font-size="13" font-weight="bold" lengthAdjust="spacing" textLength="18" x="1095" y="481.2231">11</text><text fill="#000000" font-family="sans-serif" font-size="13" lengthAdjust="spacing" textLength="104" x="1117" y="481.2231">validateClient(c)</text><polygon fill="#A80036" points="1474.5,554.4219,1484.5,558.4219,1474.5,562.4219,1478.5,558.4219" style="stroke:#A80036;stroke-width:1.0;"/><line style="stroke:#A80036;stroke-width:1.0;" x1="1083" x2="1480.5" y1="558.4219" y2="558.4219"/><text fill="#000000" font-family="sans-serif" font-size="13" font-weight="bold" lengthAdjust="spacing" textLength="18" x="1090" y="553.356">12</text><text fill="#000000" font-family="sans-serif" font-size="13" lengthAdjust="spacing" textLength="84" x="1112" y="553.356">saveClient(c)</text><line style="stroke:#A80036;stroke-width:1.0;" x1="1501.5" x2="1543.5" y1="587.5547" y2="587.5547"/><line style="stroke:#A80036;stroke-width:1.0;" x1="1543.5" x2="1543.5" y1="587.5547" y2="600.5547"/><line style="stroke:#A80036;stroke-width:1.0;" x1="1502.5" x2="1543.5" y1="600.5547" y2="600.5547"/><polygon fill="#A80036" points="1512.5,596.5547,1502.5,600.5547,1512.5,604.5547,1508.5,600.5547" style="stroke:#A80036;stroke-width:1.0;"/><text fill="#000000" font-family="sans-serif" font-size="13" font-weight="bold" lengthAdjust="spacing" textLength="17" x="1508.5" y="582.4888">13</text><text fill="#000000" font-family="sans-serif" font-size="13" lengthAdjust="spacing" textLength="77" x="1529.5" y="582.4888">addClient(c)</text><polygon fill="#A80036" points="70.5,655.6875,60.5,659.6875,70.5,663.6875,66.5,659.6875" style="stroke:#A80036;stroke-width:1.0;"/><line style="stroke:#A80036;stroke-width:1.0;stroke-dasharray:2.0,2.0;" x1="64.5" x2="377.5" y1="659.6875" y2="659.6875"/><text fill="#000000" font-family="sans-serif" font-size="13" font-weight="bold" lengthAdjust="spacing" textLength="18" x="76.5" y="654.6216">14</text><text fill="#000000" font-family="sans-serif" font-size="13" lengthAdjust="spacing" textLength="183" x="98.5" y="654.6216">informs operation in(sucess)</text><!--MD5=[b58645eabce5e24125a3da2c737bacd4]
@startuml
autonumber
actor "Receptionist" as RECEPT

participant ":RegisterClientUI" as UI
participant ":RegisterClientController" as CTRL
participant ":Company" as CMP
participant ":ClientList" as CLL
participant "Client" as CLT



activate RECEPT
RECEPT -> UI : asks to register new Client
activate UI
UI - -> RECEPT : request data(i.e., ccn, nhsNumber)
deactivate UI

RECEPT -> UI : types requested data
activate UI

ref over UI

SD_Client_Local_Validation

end ref

UI -> CTRL: createClient(ccn, birthDate, name, tif, nhsNumber, sex, phoneNumber, email )
activate CTRL
CTRL-> CLL: c = createClient(ccn, birthDate, name, tif, nhsNumber, sex, phoneNumber, email )
activate CLL
CLL - -> CLT : create(c)
deactivate CLL
deactivate CTRL

UI - -> RECEPT : shows the data and request a confirmation
deactivate UI

RECEPT -> UI : confirms the data
activate UI
UI -> CTRL : saveClient(c)
activate CTRL
CTRL -> CMP : saveClient(c)
activate CLL

activate CMP


CMP -> CMP++ : validateClient(c)
CMP- -
CMP -> CLL : saveClient(c)
CLL -> CLL++ : addClient(c)
CLL- -

deactivate CMP

deactivate CLL
deactivate CTRL
UI - -> RECEPT : informs operation in(sucess)
deactivate UI
@enduml

PlantUML version 1.2021.6beta4(Unknown compile time)
(GPL source distribution)
Java Runtime: Java(TM) SE Runtime Environment
JVM: Java HotSpot(TM) 64-Bit Server VM
Default Encoding: UTF-8
Language: en
Country: US
--></g></svg>