<?xml version="1.0" encoding="UTF-8" standalone="no"?><svg xmlns="http://www.w3.org/2000/svg" xmlns:xlink="http://www.w3.org/1999/xlink" contentScriptType="application/ecmascript" contentStyleType="text/css" height="1358px" preserveAspectRatio="none" style="width:1491px;height:1358px;background:#FFFFFF;" version="1.1" viewBox="0 0 1491 1358" width="1491px" zoomAndPan="magnify"><defs><filter height="300%" id="fbnmhqi9f8squ" width="300%" x="-1" y="-1"><feGaussianBlur result="blurOut" stdDeviation="2.0"/><feColorMatrix in="blurOut" result="blurOut2" type="matrix" values="0 0 0 0 0 0 0 0 0 0 0 0 0 0 0 0 0 0 .4 0"/><feOffset dx="4.0" dy="4.0" in="blurOut2" result="blurOut3"/><feBlend in="SourceGraphic" in2="blurOut3" mode="normal"/></filter></defs><g><rect fill="#FFFFFF" filter="url(#fbnmhqi9f8squ)" height="1165.7969" style="stroke:#A80036;stroke-width:1.0;" width="10" x="102.5" y="98.2969"/><rect fill="#FFFFFF" filter="url(#fbnmhqi9f8squ)" height="29.1328" style="stroke:#A80036;stroke-width:1.0;" width="10" x="477.5" y="119.4297"/><rect fill="#FFFFFF" filter="url(#fbnmhqi9f8squ)" height="29.1328" style="stroke:#A80036;stroke-width:1.0;" width="10" x="477.5" y="177.6953"/><rect fill="#FFFFFF" filter="url(#fbnmhqi9f8squ)" height="559.5938" style="stroke:#A80036;stroke-width:1.0;" width="10" x="767.5" y="206.8281"/><rect fill="#FFFFFF" filter="url(#fbnmhqi9f8squ)" height="74.3984" style="stroke:#A80036;stroke-width:1.0;" width="10" x="767.5" y="819.6875"/><rect fill="#FFFFFF" filter="url(#fbnmhqi9f8squ)" height="74.3984" style="stroke:#A80036;stroke-width:1.0;" width="10" x="767.5" y="938.0234"/><rect fill="#FFFFFF" filter="url(#fbnmhqi9f8squ)" height="74.3984" style="stroke:#A80036;stroke-width:1.0;" width="10" x="767.5" y="1056.3594"/><rect fill="#FFFFFF" filter="url(#fbnmhqi9f8squ)" height="89.3984" style="stroke:#A80036;stroke-width:1.0;" width="10" x="767.5" y="1174.6953"/><rect fill="#FFFFFF" filter="url(#fbnmhqi9f8squ)" height="177.3984" style="stroke:#A80036;stroke-width:1.0;" width="10" x="1041.5" y="235.9609"/><rect fill="#FFFFFF" filter="url(#fbnmhqi9f8squ)" height="59.1328" style="stroke:#A80036;stroke-width:1.0;" width="10" x="1041.5" y="442.4922"/><rect fill="#FFFFFF" filter="url(#fbnmhqi9f8squ)" height="30" style="stroke:#A80036;stroke-width:1.0;" width="10" x="1041.5" y="530.7578"/><rect fill="#FFFFFF" filter="url(#fbnmhqi9f8squ)" height="59.1328" style="stroke:#A80036;stroke-width:1.0;" width="10" x="1041.5" y="589.8906"/><rect fill="#FFFFFF" filter="url(#fbnmhqi9f8squ)" height="59.1328" style="stroke:#A80036;stroke-width:1.0;" width="10" x="1041.5" y="678.1563"/><rect fill="#FFFFFF" filter="url(#fbnmhqi9f8squ)" height="30" style="stroke:#A80036;stroke-width:1.0;" width="10" x="1236.5" y="265.0938"/><rect fill="#FFFFFF" filter="url(#fbnmhqi9f8squ)" height="30" style="stroke:#A80036;stroke-width:1.0;" width="10" x="1236.5" y="324.2266"/><rect fill="#FFFFFF" filter="url(#fbnmhqi9f8squ)" height="30" style="stroke:#A80036;stroke-width:1.0;" width="10" x="1377" y="383.3594"/><rect fill="#FFFFFF" filter="url(#fbnmhqi9f8squ)" height="30" style="stroke:#A80036;stroke-width:1.0;" width="10" x="1377" y="471.625"/><rect fill="#FFFFFF" filter="url(#fbnmhqi9f8squ)" height="30" style="stroke:#A80036;stroke-width:1.0;" width="10" x="1377" y="619.0234"/><rect fill="#FFFFFF" filter="url(#fbnmhqi9f8squ)" height="30" style="stroke:#A80036;stroke-width:1.0;" width="10" x="1377" y="707.2891"/><rect fill="#FFFFFF" filter="url(#fbnmhqi9f8squ)" height="475.6719" style="stroke:#000000;stroke-width:2.0;" width="1467" x="10" y="781.4219"/><rect fill="#FFFFFF" height="118.3359" style="stroke:none;stroke-width:1.0;" width="1467" x="10" y="902.0859"/><rect fill="#FFFFFF" height="118.3359" style="stroke:none;stroke-width:1.0;" width="1467" x="10" y="1020.4219"/><rect fill="#FFFFFF" height="118.3359" style="stroke:none;stroke-width:1.0;" width="1467" x="10" y="1138.7578"/><line style="stroke:#A80036;stroke-width:1.0;stroke-dasharray:5.0,5.0;" x1="107" x2="107" y1="88.2969" y2="1274.0938"/><line style="stroke:#A80036;stroke-width:1.0;stroke-dasharray:5.0,5.0;" x1="482" x2="482" y1="88.2969" y2="1274.0938"/><line style="stroke:#A80036;stroke-width:1.0;stroke-dasharray:5.0,5.0;" x1="772.5" x2="772.5" y1="88.2969" y2="1274.0938"/><line style="stroke:#A80036;stroke-width:1.0;stroke-dasharray:5.0,5.0;" x1="1046" x2="1046" y1="88.2969" y2="1274.0938"/><line style="stroke:#A80036;stroke-width:1.0;stroke-dasharray:5.0,5.0;" x1="1241" x2="1241" y1="88.2969" y2="1274.0938"/><line style="stroke:#A80036;stroke-width:1.0;stroke-dasharray:5.0,5.0;" x1="1382" x2="1382" y1="88.2969" y2="1274.0938"/><text fill="#000000" font-family="sans-serif" font-size="14" lengthAdjust="spacing" textLength="169" x="20" y="84.9951">Laboratory Coordinator</text><ellipse cx="107.5" cy="15" fill="#FEFECE" filter="url(#fbnmhqi9f8squ)" rx="8" ry="8" style="stroke:#A80036;stroke-width:2.0;"/><path d="M107.5,23 L107.5,50 M94.5,31 L120.5,31 M107.5,50 L94.5,65 M107.5,50 L120.5,65 " fill="none" filter="url(#fbnmhqi9f8squ)" style="stroke:#A80036;stroke-width:2.0;"/><text fill="#000000" font-family="sans-serif" font-size="14" lengthAdjust="spacing" textLength="169" x="20" y="1286.0889">Laboratory Coordinator</text><ellipse cx="107.5" cy="1299.3906" fill="#FEFECE" filter="url(#fbnmhqi9f8squ)" rx="8" ry="8" style="stroke:#A80036;stroke-width:2.0;"/><path d="M107.5,1307.3906 L107.5,1334.3906 M94.5,1315.3906 L120.5,1315.3906 M107.5,1334.3906 L94.5,1349.3906 M107.5,1334.3906 L120.5,1349.3906 " fill="none" filter="url(#fbnmhqi9f8squ)" style="stroke:#A80036;stroke-width:2.0;"/><rect fill="#FEFECE" filter="url(#fbnmhqi9f8squ)" height="30.2969" style="stroke:#A80036;stroke-width:1.5;" width="145" x="408" y="53"/><text fill="#000000" font-family="sans-serif" font-size="14" lengthAdjust="spacing" textLength="131" x="415" y="72.9951">:TwoDatesInterval</text><rect fill="#FEFECE" filter="url(#fbnmhqi9f8squ)" height="30.2969" style="stroke:#A80036;stroke-width:1.5;" width="145" x="408" y="1273.0938"/><text fill="#000000" font-family="sans-serif" font-size="14" lengthAdjust="spacing" textLength="131" x="415" y="1293.0889">:TwoDatesInterval</text><rect fill="#FEFECE" filter="url(#fbnmhqi9f8squ)" height="30.2969" style="stroke:#A80036;stroke-width:1.5;" width="78" x="731.5" y="53"/><text fill="#000000" font-family="sans-serif" font-size="14" lengthAdjust="spacing" textLength="64" x="738.5" y="72.9951">:MaxSum</text><rect fill="#FEFECE" filter="url(#fbnmhqi9f8squ)" height="30.2969" style="stroke:#A80036;stroke-width:1.5;" width="78" x="731.5" y="1273.0938"/><text fill="#000000" font-family="sans-serif" font-size="14" lengthAdjust="spacing" textLength="64" x="738.5" y="1293.0889">:MaxSum</text><rect fill="#FEFECE" filter="url(#fbnmhqi9f8squ)" height="30.2969" style="stroke:#A80036;stroke-width:1.5;" width="147" x="971" y="53"/><text fill="#000000" font-family="sans-serif" font-size="14" lengthAdjust="spacing" textLength="133" x="978" y="72.9951">:IntervalController</text><rect fill="#FEFECE" filter="url(#fbnmhqi9f8squ)" height="30.2969" style="stroke:#A80036;stroke-width:1.5;" width="147" x="971" y="1273.0938"/><text fill="#000000" font-family="sans-serif" font-size="14" lengthAdjust="spacing" textLength="133" x="978" y="1293.0889">:IntervalController</text><rect fill="#FEFECE" filter="url(#fbnmhqi9f8squ)" height="30.2969" style="stroke:#A80036;stroke-width:1.5;" width="87" x="1196" y="53"/><text fill="#000000" font-family="sans-serif" font-size="14" lengthAdjust="spacing" textLength="73" x="1203" y="72.9951">:Company</text><rect fill="#FEFECE" filter="url(#fbnmhqi9f8squ)" height="30.2969" style="stroke:#A80036;stroke-width:1.5;" width="87" x="1196" y="1273.0938"/><text fill="#000000" font-family="sans-serif" font-size="14" lengthAdjust="spacing" textLength="73" x="1203" y="1293.0889">:Company</text><rect fill="#FEFECE" filter="url(#fbnmhqi9f8squ)" height="46.5938" style="stroke:#A80036;stroke-width:1.5;" width="166" x="1297" y="36.7031"/><text fill="#000000" font-family="sans-serif" font-size="14" lengthAdjust="spacing" textLength="24" x="1368" y="56.6982">lcs:</text><text fill="#000000" font-family="sans-serif" font-size="14" lengthAdjust="spacing" textLength="152" x="1304" y="72.9951">LabCoordinatorStore</text><rect fill="#FEFECE" filter="url(#fbnmhqi9f8squ)" height="46.5938" style="stroke:#A80036;stroke-width:1.5;" width="166" x="1297" y="1273.0938"/><text fill="#000000" font-family="sans-serif" font-size="14" lengthAdjust="spacing" textLength="24" x="1368" y="1293.0889">lcs:</text><text fill="#000000" font-family="sans-serif" font-size="14" lengthAdjust="spacing" textLength="152" x="1304" y="1309.3857">LabCoordinatorStore</text><rect fill="#FFFFFF" filter="url(#fbnmhqi9f8squ)" height="1165.7969" style="stroke:#A80036;stroke-width:1.0;" width="10" x="102.5" y="98.2969"/><rect fill="#FFFFFF" filter="url(#fbnmhqi9f8squ)" height="29.1328" style="stroke:#A80036;stroke-width:1.0;" width="10" x="477.5" y="119.4297"/><rect fill="#FFFFFF" filter="url(#fbnmhqi9f8squ)" height="29.1328" style="stroke:#A80036;stroke-width:1.0;" width="10" x="477.5" y="177.6953"/><rect fill="#FFFFFF" filter="url(#fbnmhqi9f8squ)" height="559.5938" style="stroke:#A80036;stroke-width:1.0;" width="10" x="767.5" y="206.8281"/><rect fill="#FFFFFF" filter="url(#fbnmhqi9f8squ)" height="74.3984" style="stroke:#A80036;stroke-width:1.0;" width="10" x="767.5" y="819.6875"/><rect fill="#FFFFFF" filter="url(#fbnmhqi9f8squ)" height="74.3984" style="stroke:#A80036;stroke-width:1.0;" width="10" x="767.5" y="938.0234"/><rect fill="#FFFFFF" filter="url(#fbnmhqi9f8squ)" height="74.3984" style="stroke:#A80036;stroke-width:1.0;" width="10" x="767.5" y="1056.3594"/><rect fill="#FFFFFF" filter="url(#fbnmhqi9f8squ)" height="89.3984" style="stroke:#A80036;stroke-width:1.0;" width="10" x="767.5" y="1174.6953"/><rect fill="#FFFFFF" filter="url(#fbnmhqi9f8squ)" height="177.3984" style="stroke:#A80036;stroke-width:1.0;" width="10" x="1041.5" y="235.9609"/><rect fill="#FFFFFF" filter="url(#fbnmhqi9f8squ)" height="59.1328" style="stroke:#A80036;stroke-width:1.0;" width="10" x="1041.5" y="442.4922"/><rect fill="#FFFFFF" filter="url(#fbnmhqi9f8squ)" height="30" style="stroke:#A80036;stroke-width:1.0;" width="10" x="1041.5" y="530.7578"/><rect fill="#FFFFFF" filter="url(#fbnmhqi9f8squ)" height="59.1328" style="stroke:#A80036;stroke-width:1.0;" width="10" x="1041.5" y="589.8906"/><rect fill="#FFFFFF" filter="url(#fbnmhqi9f8squ)" height="59.1328" style="stroke:#A80036;stroke-width:1.0;" width="10" x="1041.5" y="678.1563"/><rect fill="#FFFFFF" filter="url(#fbnmhqi9f8squ)" height="30" style="stroke:#A80036;stroke-width:1.0;" width="10" x="1236.5" y="265.0938"/><rect fill="#FFFFFF" filter="url(#fbnmhqi9f8squ)" height="30" style="stroke:#A80036;stroke-width:1.0;" width="10" x="1236.5" y="324.2266"/><rect fill="#FFFFFF" filter="url(#fbnmhqi9f8squ)" height="30" style="stroke:#A80036;stroke-width:1.0;" width="10" x="1377" y="383.3594"/><rect fill="#FFFFFF" filter="url(#fbnmhqi9f8squ)" height="30" style="stroke:#A80036;stroke-width:1.0;" width="10" x="1377" y="471.625"/><rect fill="#FFFFFF" filter="url(#fbnmhqi9f8squ)" height="30" style="stroke:#A80036;stroke-width:1.0;" width="10" x="1377" y="619.0234"/><rect fill="#FFFFFF" filter="url(#fbnmhqi9f8squ)" height="30" style="stroke:#A80036;stroke-width:1.0;" width="10" x="1377" y="707.2891"/><polygon fill="#A80036" points="465.5,115.4297,475.5,119.4297,465.5,123.4297,469.5,119.4297" style="stroke:#A80036;stroke-width:1.0;"/><line style="stroke:#A80036;stroke-width:1.0;" x1="112.5" x2="471.5" y1="119.4297" y2="119.4297"/><text fill="#000000" font-family="sans-serif" font-size="13" font-weight="bold" lengthAdjust="spacing" textLength="9" x="119.5" y="114.3638">1</text><text fill="#000000" font-family="sans-serif" font-size="13" lengthAdjust="spacing" textLength="333" x="132.5" y="114.3638">asks to have an overview of all the tests performed</text><polygon fill="#A80036" points="123.5,144.5625,113.5,148.5625,123.5,152.5625,119.5,148.5625" style="stroke:#A80036;stroke-width:1.0;"/><line style="stroke:#A80036;stroke-width:1.0;stroke-dasharray:2.0,2.0;" x1="117.5" x2="481.5" y1="148.5625" y2="148.5625"/><text fill="#000000" font-family="sans-serif" font-size="13" font-weight="bold" lengthAdjust="spacing" textLength="9" x="129.5" y="143.4966">2</text><text fill="#000000" font-family="sans-serif" font-size="13" lengthAdjust="spacing" textLength="257" x="142.5" y="143.4966">requests two dates to define an interval</text><polygon fill="#A80036" points="465.5,173.6953,475.5,177.6953,465.5,181.6953,469.5,177.6953" style="stroke:#A80036;stroke-width:1.0;"/><line style="stroke:#A80036;stroke-width:1.0;" x1="112.5" x2="471.5" y1="177.6953" y2="177.6953"/><text fill="#000000" font-family="sans-serif" font-size="13" font-weight="bold" lengthAdjust="spacing" textLength="8" x="119.5" y="172.6294">3</text><text fill="#000000" font-family="sans-serif" font-size="13" lengthAdjust="spacing" textLength="217" x="131.5" y="172.6294">enters/selects the requested data</text><polygon fill="#A80036" points="755.5,202.8281,765.5,206.8281,755.5,210.8281,759.5,206.8281" style="stroke:#A80036;stroke-width:1.0;"/><line style="stroke:#A80036;stroke-width:1.0;" x1="482.5" x2="761.5" y1="206.8281" y2="206.8281"/><text fill="#000000" font-family="sans-serif" font-size="13" font-weight="bold" lengthAdjust="spacing" textLength="9" x="489.5" y="201.7622">4</text><text fill="#000000" font-family="sans-serif" font-size="13" lengthAdjust="spacing" textLength="248" x="502.5" y="201.7622">loadMaxSumUI(String start, String end)</text><polygon fill="#A80036" points="1029.5,231.9609,1039.5,235.9609,1029.5,239.9609,1033.5,235.9609" style="stroke:#A80036;stroke-width:1.0;"/><line style="stroke:#A80036;stroke-width:1.0;" x1="777.5" x2="1035.5" y1="235.9609" y2="235.9609"/><text fill="#000000" font-family="sans-serif" font-size="13" font-weight="bold" lengthAdjust="spacing" textLength="9" x="784.5" y="230.895">5</text><text fill="#000000" font-family="sans-serif" font-size="13" lengthAdjust="spacing" textLength="232" x="797.5" y="230.895">list = getArrayBeforeMax(start, end)</text><polygon fill="#A80036" points="1224.5,261.0938,1234.5,265.0938,1224.5,269.0938,1228.5,265.0938" style="stroke:#A80036;stroke-width:1.0;"/><line style="stroke:#A80036;stroke-width:1.0;" x1="1051.5" x2="1230.5" y1="265.0938" y2="265.0938"/><text fill="#000000" font-family="sans-serif" font-size="13" font-weight="bold" lengthAdjust="spacing" textLength="9" x="1058.5" y="260.0278">6</text><text fill="#000000" font-family="sans-serif" font-size="13" lengthAdjust="spacing" textLength="153" x="1071.5" y="260.0278">lcs=getLabCoordStore()</text><polygon fill="#A80036" points="1224.5,320.2266,1234.5,324.2266,1224.5,328.2266,1228.5,324.2266" style="stroke:#A80036;stroke-width:1.0;"/><line style="stroke:#A80036;stroke-width:1.0;" x1="1051.5" x2="1230.5" y1="324.2266" y2="324.2266"/><text fill="#000000" font-family="sans-serif" font-size="13" font-weight="bold" lengthAdjust="spacing" textLength="9" x="1058.5" y="319.1606">7</text><text fill="#000000" font-family="sans-serif" font-size="13" lengthAdjust="spacing" textLength="131" x="1071.5" y="319.1606">tests = getAllTests()</text><polygon fill="#A80036" points="1365,379.3594,1375,383.3594,1365,387.3594,1369,383.3594" style="stroke:#A80036;stroke-width:1.0;"/><line style="stroke:#A80036;stroke-width:1.0;" x1="1051.5" x2="1371" y1="383.3594" y2="383.3594"/><text fill="#000000" font-family="sans-serif" font-size="13" font-weight="bold" lengthAdjust="spacing" textLength="9" x="1058.5" y="378.2935">8</text><text fill="#000000" font-family="sans-serif" font-size="13" lengthAdjust="spacing" textLength="195" x="1071.5" y="378.2935">lt = lcs.listMax(start,end,tests)</text><polygon fill="#A80036" points="1029.5,438.4922,1039.5,442.4922,1029.5,446.4922,1033.5,442.4922" style="stroke:#A80036;stroke-width:1.0;"/><line style="stroke:#A80036;stroke-width:1.0;" x1="777.5" x2="1035.5" y1="442.4922" y2="442.4922"/><text fill="#000000" font-family="sans-serif" font-size="13" font-weight="bold" lengthAdjust="spacing" textLength="9" x="784.5" y="437.4263">9</text><text fill="#000000" font-family="sans-serif" font-size="13" lengthAdjust="spacing" textLength="110" x="797.5" y="437.4263">getArrayMax(list)</text><polygon fill="#A80036" points="1365,467.625,1375,471.625,1365,475.625,1369,471.625" style="stroke:#A80036;stroke-width:1.0;"/><line style="stroke:#A80036;stroke-width:1.0;" x1="1051.5" x2="1371" y1="471.625" y2="471.625"/><text fill="#000000" font-family="sans-serif" font-size="13" font-weight="bold" lengthAdjust="spacing" textLength="19" x="1058.5" y="466.5591">10</text><text fill="#000000" font-family="sans-serif" font-size="13" lengthAdjust="spacing" textLength="116" x="1081.5" y="466.5591">maxSubArray(list)</text><polygon fill="#A80036" points="1029.5,526.7578,1039.5,530.7578,1029.5,534.7578,1033.5,530.7578" style="stroke:#A80036;stroke-width:1.0;"/><line style="stroke:#A80036;stroke-width:1.0;" x1="777.5" x2="1035.5" y1="530.7578" y2="530.7578"/><text fill="#000000" font-family="sans-serif" font-size="13" font-weight="bold" lengthAdjust="spacing" textLength="18" x="784.5" y="525.6919">11</text><text fill="#000000" font-family="sans-serif" font-size="13" lengthAdjust="spacing" textLength="202" x="806.5" y="525.6919">getTimeInterval(start,end,date)</text><polygon fill="#A80036" points="1029.5,585.8906,1039.5,589.8906,1029.5,593.8906,1033.5,589.8906" style="stroke:#A80036;stroke-width:1.0;"/><line style="stroke:#A80036;stroke-width:1.0;" x1="777.5" x2="1035.5" y1="589.8906" y2="589.8906"/><text fill="#000000" font-family="sans-serif" font-size="13" font-weight="bold" lengthAdjust="spacing" textLength="18" x="784.5" y="584.8247">12</text><text fill="#000000" font-family="sans-serif" font-size="13" lengthAdjust="spacing" textLength="177" x="806.5" y="584.8247">getNumberTestsValidated()</text><polygon fill="#A80036" points="1365,615.0234,1375,619.0234,1365,623.0234,1369,619.0234" style="stroke:#A80036;stroke-width:1.0;"/><line style="stroke:#A80036;stroke-width:1.0;" x1="1051.5" x2="1371" y1="619.0234" y2="619.0234"/><text fill="#000000" font-family="sans-serif" font-size="13" font-weight="bold" lengthAdjust="spacing" textLength="17" x="1058.5" y="613.9575">13</text><text fill="#000000" font-family="sans-serif" font-size="13" lengthAdjust="spacing" textLength="209" x="1079.5" y="613.9575">getNumberTestsValidated(tests)</text><polygon fill="#A80036" points="1029.5,674.1563,1039.5,678.1563,1029.5,682.1563,1033.5,678.1563" style="stroke:#A80036;stroke-width:1.0;"/><line style="stroke:#A80036;stroke-width:1.0;" x1="777.5" x2="1035.5" y1="678.1563" y2="678.1563"/><text fill="#000000" font-family="sans-serif" font-size="13" font-weight="bold" lengthAdjust="spacing" textLength="18" x="784.5" y="673.0903">14</text><text fill="#000000" font-family="sans-serif" font-size="13" lengthAdjust="spacing" textLength="125" x="806.5" y="673.0903">getNumberClients()</text><polygon fill="#A80036" points="1365,703.2891,1375,707.2891,1365,711.2891,1369,707.2891" style="stroke:#A80036;stroke-width:1.0;"/><line style="stroke:#A80036;stroke-width:1.0;" x1="1051.5" x2="1371" y1="707.2891" y2="707.2891"/><text fill="#000000" font-family="sans-serif" font-size="13" font-weight="bold" lengthAdjust="spacing" textLength="18" x="1058.5" y="702.2231">15</text><text fill="#000000" font-family="sans-serif" font-size="13" lengthAdjust="spacing" textLength="125" x="1080.5" y="702.2231">getNumberClients()</text><polygon fill="#A80036" points="123.5,762.4219,113.5,766.4219,123.5,770.4219,119.5,766.4219" style="stroke:#A80036;stroke-width:1.0;"/><line style="stroke:#A80036;stroke-width:1.0;" x1="117.5" x2="771.5" y1="766.4219" y2="766.4219"/><text fill="#000000" font-family="sans-serif" font-size="13" font-weight="bold" lengthAdjust="spacing" textLength="18" x="129.5" y="761.356">16</text><text fill="#000000" font-family="sans-serif" font-size="13" lengthAdjust="spacing" textLength="462" x="151.5" y="761.356">shows the statistics and the chart's menu for the calculated information</text><path d="M10,781.4219 L76,781.4219 L76,788.4219 L66,798.4219 L10,798.4219 L10,781.4219 " fill="#EEEEEE" style="stroke:#000000;stroke-width:1.0;"/><rect fill="none" height="475.6719" style="stroke:#000000;stroke-width:2.0;" width="1467" x="10" y="781.4219"/><text fill="#000000" font-family="sans-serif" font-size="13" font-weight="bold" lengthAdjust="spacing" textLength="21" x="25" y="794.4888">alt</text><text fill="#000000" font-family="sans-serif" font-size="11" font-weight="bold" lengthAdjust="spacing" textLength="108" x="91" y="793.6323">[Chart per days]</text><polygon fill="#A80036" points="755.5,815.6875,765.5,819.6875,755.5,823.6875,759.5,819.6875" style="stroke:#A80036;stroke-width:1.0;"/><line style="stroke:#A80036;stroke-width:1.0;" x1="112.5" x2="761.5" y1="819.6875" y2="819.6875"/><text fill="#000000" font-family="sans-serif" font-size="13" font-weight="bold" lengthAdjust="spacing" textLength="18" x="119.5" y="814.6216">17</text><text fill="#000000" font-family="sans-serif" font-size="13" lengthAdjust="spacing" textLength="376" x="141.5" y="814.6216">Chooses the chart that organizes the information per days</text><rect fill="#FFFFFF" filter="url(#fbnmhqi9f8squ)" height="40.2656" style="stroke:#000000;stroke-width:2.0;" width="737.5" x="728.5" y="827.6875"/><polygon fill="#EEEEEE" points="728.5,827.6875,796.5,827.6875,796.5,834.6875,786.5,844.6875,728.5,844.6875,728.5,827.6875" style="stroke:#000000;stroke-width:2.0;"/><text fill="#000000" font-family="sans-serif" font-size="13" font-weight="bold" lengthAdjust="spacing" textLength="23" x="741.5" y="841.7544">ref</text><text fill="#000000" font-family="sans-serif" font-size="13" lengthAdjust="spacing" textLength="158" x="1020.25" y="860.7544">[SD_GetStatisticsByDay]</text><polygon fill="#A80036" points="123.5,890.0859,113.5,894.0859,123.5,898.0859,119.5,894.0859" style="stroke:#A80036;stroke-width:1.0;"/><line style="stroke:#A80036;stroke-width:1.0;stroke-dasharray:2.0,2.0;" x1="117.5" x2="771.5" y1="894.0859" y2="894.0859"/><text fill="#000000" font-family="sans-serif" font-size="13" font-weight="bold" lengthAdjust="spacing" textLength="18" x="129.5" y="889.02">18</text><text fill="#000000" font-family="sans-serif" font-size="13" lengthAdjust="spacing" textLength="172" x="151.5" y="889.02">shows the chart requested</text><line style="stroke:#000000;stroke-width:1.0;stroke-dasharray:2.0,2.0;" x1="10" x2="1477" y1="903.0859" y2="903.0859"/><text fill="#000000" font-family="sans-serif" font-size="11" font-weight="bold" lengthAdjust="spacing" textLength="118" x="15" y="913.2964">[Chart per weeks]</text><polygon fill="#A80036" points="755.5,934.0234,765.5,938.0234,755.5,942.0234,759.5,938.0234" style="stroke:#A80036;stroke-width:1.0;"/><line style="stroke:#A80036;stroke-width:1.0;" x1="112.5" x2="761.5" y1="938.0234" y2="938.0234"/><text fill="#000000" font-family="sans-serif" font-size="13" font-weight="bold" lengthAdjust="spacing" textLength="18" x="119.5" y="932.9575">19</text><text fill="#000000" font-family="sans-serif" font-size="13" lengthAdjust="spacing" textLength="386" x="141.5" y="932.9575">Chooses the chart that organizes the information per weeks</text><rect fill="#FFFFFF" filter="url(#fbnmhqi9f8squ)" height="40.2656" style="stroke:#000000;stroke-width:2.0;" width="737.5" x="728.5" y="946.0234"/><polygon fill="#EEEEEE" points="728.5,946.0234,796.5,946.0234,796.5,953.0234,786.5,963.0234,728.5,963.0234,728.5,946.0234" style="stroke:#000000;stroke-width:2.0;"/><text fill="#000000" font-family="sans-serif" font-size="13" font-weight="bold" lengthAdjust="spacing" textLength="23" x="741.5" y="960.0903">ref</text><text fill="#000000" font-family="sans-serif" font-size="13" lengthAdjust="spacing" textLength="168" x="1015.25" y="979.0903">[SD_GetStatisticsByWeek]</text><polygon fill="#A80036" points="123.5,1008.4219,113.5,1012.4219,123.5,1016.4219,119.5,1012.4219" style="stroke:#A80036;stroke-width:1.0;"/><line style="stroke:#A80036;stroke-width:1.0;stroke-dasharray:2.0,2.0;" x1="117.5" x2="771.5" y1="1012.4219" y2="1012.4219"/><text fill="#000000" font-family="sans-serif" font-size="13" font-weight="bold" lengthAdjust="spacing" textLength="19" x="129.5" y="1007.356">20</text><text fill="#000000" font-family="sans-serif" font-size="13" lengthAdjust="spacing" textLength="172" x="152.5" y="1007.356">shows the chart requested</text><line style="stroke:#000000;stroke-width:1.0;stroke-dasharray:2.0,2.0;" x1="10" x2="1477" y1="1021.4219" y2="1021.4219"/><text fill="#000000" font-family="sans-serif" font-size="11" font-weight="bold" lengthAdjust="spacing" textLength="129" x="15" y="1031.6323">[Chart per months]</text><polygon fill="#A80036" points="755.5,1052.3594,765.5,1056.3594,755.5,1060.3594,759.5,1056.3594" style="stroke:#A80036;stroke-width:1.0;"/><line style="stroke:#A80036;stroke-width:1.0;" x1="112.5" x2="761.5" y1="1056.3594" y2="1056.3594"/><text fill="#000000" font-family="sans-serif" font-size="13" font-weight="bold" lengthAdjust="spacing" textLength="18" x="119.5" y="1051.2935">21</text><text fill="#000000" font-family="sans-serif" font-size="13" lengthAdjust="spacing" textLength="394" x="141.5" y="1051.2935">Chooses the chart that organizes the information per months</text><rect fill="#FFFFFF" filter="url(#fbnmhqi9f8squ)" height="40.2656" style="stroke:#000000;stroke-width:2.0;" width="737.5" x="728.5" y="1064.3594"/><polygon fill="#EEEEEE" points="728.5,1064.3594,796.5,1064.3594,796.5,1071.3594,786.5,1081.3594,728.5,1081.3594,728.5,1064.3594" style="stroke:#000000;stroke-width:2.0;"/><text fill="#000000" font-family="sans-serif" font-size="13" font-weight="bold" lengthAdjust="spacing" textLength="23" x="741.5" y="1078.4263">ref</text><text fill="#000000" font-family="sans-serif" font-size="13" lengthAdjust="spacing" textLength="171" x="1013.75" y="1097.4263">[SD_GetStatisticsByMonth]</text><polygon fill="#A80036" points="123.5,1126.7578,113.5,1130.7578,123.5,1134.7578,119.5,1130.7578" style="stroke:#A80036;stroke-width:1.0;"/><line style="stroke:#A80036;stroke-width:1.0;stroke-dasharray:2.0,2.0;" x1="117.5" x2="771.5" y1="1130.7578" y2="1130.7578"/><text fill="#000000" font-family="sans-serif" font-size="13" font-weight="bold" lengthAdjust="spacing" textLength="18" x="129.5" y="1125.6919">22</text><text fill="#000000" font-family="sans-serif" font-size="13" lengthAdjust="spacing" textLength="172" x="151.5" y="1125.6919">shows the chart requested</text><line style="stroke:#000000;stroke-width:1.0;stroke-dasharray:2.0,2.0;" x1="10" x2="1477" y1="1139.7578" y2="1139.7578"/><text fill="#000000" font-family="sans-serif" font-size="11" font-weight="bold" lengthAdjust="spacing" textLength="118" x="15" y="1149.9683">[Chart  per years]</text><polygon fill="#A80036" points="755.5,1170.6953,765.5,1174.6953,755.5,1178.6953,759.5,1174.6953" style="stroke:#A80036;stroke-width:1.0;"/><line style="stroke:#A80036;stroke-width:1.0;" x1="112.5" x2="761.5" y1="1174.6953" y2="1174.6953"/><text fill="#000000" font-family="sans-serif" font-size="13" font-weight="bold" lengthAdjust="spacing" textLength="17" x="119.5" y="1169.6294">23</text><text fill="#000000" font-family="sans-serif" font-size="13" lengthAdjust="spacing" textLength="381" x="140.5" y="1169.6294">Chooses the chart that organizes the information per years</text><rect fill="#FFFFFF" filter="url(#fbnmhqi9f8squ)" height="40.2656" style="stroke:#000000;stroke-width:2.0;" width="737.5" x="728.5" y="1182.6953"/><polygon fill="#EEEEEE" points="728.5,1182.6953,796.5,1182.6953,796.5,1189.6953,786.5,1199.6953,728.5,1199.6953,728.5,1182.6953" style="stroke:#000000;stroke-width:2.0;"/><text fill="#000000" font-family="sans-serif" font-size="13" font-weight="bold" lengthAdjust="spacing" textLength="23" x="741.5" y="1196.7622">ref</text><text fill="#000000" font-family="sans-serif" font-size="13" lengthAdjust="spacing" textLength="161" x="1018.75" y="1215.7622">[SD_GetStatisticsByYear]</text><polygon fill="#A80036" points="123.5,1245.0938,113.5,1249.0938,123.5,1253.0938,119.5,1249.0938" style="stroke:#A80036;stroke-width:1.0;"/><line style="stroke:#A80036;stroke-width:1.0;stroke-dasharray:2.0,2.0;" x1="117.5" x2="766.5" y1="1249.0938" y2="1249.0938"/><text fill="#000000" font-family="sans-serif" font-size="13" font-weight="bold" lengthAdjust="spacing" textLength="18" x="129.5" y="1244.0278">24</text><text fill="#000000" font-family="sans-serif" font-size="13" lengthAdjust="spacing" textLength="172" x="151.5" y="1244.0278">shows the chart requested</text><!--MD5=[d86ad583173870cb1ec4b7d79e27c8b5]
@startuml
autonumber
actor "Laboratory Coordinator" as LC

participant ":TwoDatesInterval" as TD
participant ":MaxSum" as MS
participant ":IntervalController" as CTRL
participant ":Company" as CMP
participant "lcs:\nLabCoordinatorStore" as LCSTORE



activate LC
LC-> TD: asks to have an overview of all the tests performed
activate TD
TD- ->LC: requests two dates to define an interval
deactivate TD
LC->TD : enters/selects the requested data
activate TD

TD -> MS : loadMaxSumUI(String start, String end)
deactivate TD
activate MS
MS -> CTRL: list = getArrayBeforeMax(start, end)
activate CTRL
CTRL -> CMP : lcs=getLabCoordStore()
activate CMP
deactivate CMP
CTRL -> CMP : tests = getAllTests()
activate CMP
deactivate CMP
CTRL -> LCSTORE : lt = lcs.listMax(start,end,tests)
activate LCSTORE
deactivate LCSTORE
deactivate CTRL

MS -> CTRL: getArrayMax(list)
activate CTRL
CTRL -> LCSTORE: maxSubArray(list)
activate LCSTORE
deactivate LCSTORE
deactivate CTRL

MS -> CTRL : getTimeInterval(start,end,date)
activate CTRL
deactivate CTRL

MS -> CTRL : getNumberTestsValidated()
activate CTRL
CTRL -> LCSTORE : getNumberTestsValidated(tests)
activate LCSTORE
deactivate LCSTORE
deactivate CTRL

MS -> CTRL : getNumberClients()
activate CTRL
CTRL -> LCSTORE : getNumberClients()
activate LCSTORE
deactivate LCSTORE
deactivate CTRL

MS-> LC: shows the statistics and the chart's menu for the calculated information
deactivate MS
alt Chart per days 
LC -> MS: Chooses the chart that organizes the information per days
activate MS


ref over MS, LCSTORE : [SD_GetStatisticsByDay]

MS- ->LC: shows the chart requested
deactivate MS


else Chart per weeks
LC -> MS: Chooses the chart that organizes the information per weeks
activate MS

ref over MS, LCSTORE : [SD_GetStatisticsByWeek]
MS- ->LC: shows the chart requested
deactivate MS

else Chart per months
LC -> MS: Chooses the chart that organizes the information per months
activate MS

ref over MS, LCSTORE : [SD_GetStatisticsByMonth]
MS- ->LC: shows the chart requested
deactivate MS

else Chart  per years
LC -> MS: Chooses the chart that organizes the information per years
activate MS

ref over MS, LCSTORE : [SD_GetStatisticsByYear]
MS- ->LC: shows the chart requested
end
deactivate MS



deactivate LC
@enduml

PlantUML version 1.2021.7(Sun May 23 12:40:07 UTC 2021)
(GPL source distribution)
Java Runtime: Java(TM) SE Runtime Environment
JVM: Java HotSpot(TM) 64-Bit Server VM
Default Encoding: UTF-8
Language: en
Country: US
--></g></svg>