<?xml version="1.0" encoding="UTF-8" standalone="no"?><svg xmlns="http://www.w3.org/2000/svg" xmlns:xlink="http://www.w3.org/1999/xlink" contentScriptType="application/ecmascript" contentStyleType="text/css" height="309px" preserveAspectRatio="none" style="width:580px;height:309px;background:#FFFFFF;" version="1.1" viewBox="0 0 580 309" width="580px" zoomAndPan="magnify"><defs><filter height="300%" id="f12g1hcoh1j2qv" width="300%" x="-1" y="-1"><feGaussianBlur result="blurOut" stdDeviation="2.0"/><feColorMatrix in="blurOut" result="blurOut2" type="matrix" values="0 0 0 0 0 0 0 0 0 0 0 0 0 0 0 0 0 0 .4 0"/><feOffset dx="4.0" dy="4.0" in="blurOut2" result="blurOut3"/><feBlend in="SourceGraphic" in2="blurOut3" mode="normal"/></filter></defs><g><rect fill="#FFFFFF" filter="url(#f12g1hcoh1j2qv)" height="108.5313" style="stroke:#A80036;stroke-width:1.0;" width="10" x="87.5" y="98.2969"/><rect fill="#FFFFFF" filter="url(#f12g1hcoh1j2qv)" height="29.1328" style="stroke:#A80036;stroke-width:1.0;" width="10" x="526.5" y="119.4297"/><rect fill="#FFFFFF" filter="url(#f12g1hcoh1j2qv)" height="29.1328" style="stroke:#A80036;stroke-width:1.0;" width="10" x="526.5" y="177.6953"/><line style="stroke:#A80036;stroke-width:1.0;stroke-dasharray:5.0,5.0;" x1="92" x2="92" y1="88.2969" y2="224.8281"/><line style="stroke:#A80036;stroke-width:1.0;stroke-dasharray:5.0,5.0;" x1="531" x2="531" y1="88.2969" y2="224.8281"/><text fill="#000000" font-family="sans-serif" font-size="14" lengthAdjust="spacing" textLength="169" x="5" y="84.9951">Laboratory Coordinator</text><ellipse cx="92.5" cy="15" fill="#FEFECE" filter="url(#f12g1hcoh1j2qv)" rx="8" ry="8" style="stroke:#A80036;stroke-width:2.0;"/><path d="M92.5,23 L92.5,50 M79.5,31 L105.5,31 M92.5,50 L79.5,65 M92.5,50 L105.5,65 " fill="none" filter="url(#f12g1hcoh1j2qv)" style="stroke:#A80036;stroke-width:2.0;"/><text fill="#000000" font-family="sans-serif" font-size="14" lengthAdjust="spacing" textLength="169" x="5" y="236.8232">Laboratory Coordinator</text><ellipse cx="92.5" cy="250.125" fill="#FEFECE" filter="url(#f12g1hcoh1j2qv)" rx="8" ry="8" style="stroke:#A80036;stroke-width:2.0;"/><path d="M92.5,258.125 L92.5,285.125 M79.5,266.125 L105.5,266.125 M92.5,285.125 L79.5,300.125 M92.5,285.125 L105.5,300.125 " fill="none" filter="url(#f12g1hcoh1j2qv)" style="stroke:#A80036;stroke-width:2.0;"/><rect fill="#FEFECE" filter="url(#f12g1hcoh1j2qv)" height="30.2969" style="stroke:#A80036;stroke-width:1.5;" width="73" x="493" y="53"/><text fill="#000000" font-family="sans-serif" font-size="14" lengthAdjust="spacing" textLength="59" x="500" y="72.9951">:System</text><rect fill="#FEFECE" filter="url(#f12g1hcoh1j2qv)" height="30.2969" style="stroke:#A80036;stroke-width:1.5;" width="73" x="493" y="223.8281"/><text fill="#000000" font-family="sans-serif" font-size="14" lengthAdjust="spacing" textLength="59" x="500" y="243.8232">:System</text><rect fill="#FFFFFF" filter="url(#f12g1hcoh1j2qv)" height="108.5313" style="stroke:#A80036;stroke-width:1.0;" width="10" x="87.5" y="98.2969"/><rect fill="#FFFFFF" filter="url(#f12g1hcoh1j2qv)" height="29.1328" style="stroke:#A80036;stroke-width:1.0;" width="10" x="526.5" y="119.4297"/><rect fill="#FFFFFF" filter="url(#f12g1hcoh1j2qv)" height="29.1328" style="stroke:#A80036;stroke-width:1.0;" width="10" x="526.5" y="177.6953"/><polygon fill="#A80036" points="514.5,115.4297,524.5,119.4297,514.5,123.4297,518.5,119.4297" style="stroke:#A80036;stroke-width:1.0;"/><line style="stroke:#A80036;stroke-width:1.0;" x1="97.5" x2="520.5" y1="119.4297" y2="119.4297"/><text fill="#000000" font-family="sans-serif" font-size="13" font-weight="bold" lengthAdjust="spacing" textLength="9" x="104.5" y="114.3638">1</text><text fill="#000000" font-family="sans-serif" font-size="13" lengthAdjust="spacing" textLength="333" x="117.5" y="114.3638">asks to have an overview of all the tests performed</text><polygon fill="#A80036" points="108.5,144.5625,98.5,148.5625,108.5,152.5625,104.5,148.5625" style="stroke:#A80036;stroke-width:1.0;"/><line style="stroke:#A80036;stroke-width:1.0;stroke-dasharray:2.0,2.0;" x1="102.5" x2="530.5" y1="148.5625" y2="148.5625"/><text fill="#000000" font-family="sans-serif" font-size="13" font-weight="bold" lengthAdjust="spacing" textLength="9" x="114.5" y="143.4966">2</text><text fill="#000000" font-family="sans-serif" font-size="13" lengthAdjust="spacing" textLength="257" x="127.5" y="143.4966">requests two dates to define an interval</text><polygon fill="#A80036" points="514.5,173.6953,524.5,177.6953,514.5,181.6953,518.5,177.6953" style="stroke:#A80036;stroke-width:1.0;"/><line style="stroke:#A80036;stroke-width:1.0;" x1="97.5" x2="520.5" y1="177.6953" y2="177.6953"/><text fill="#000000" font-family="sans-serif" font-size="13" font-weight="bold" lengthAdjust="spacing" textLength="8" x="104.5" y="172.6294">3</text><text fill="#000000" font-family="sans-serif" font-size="13" lengthAdjust="spacing" textLength="168" x="116.5" y="172.6294">enters the requested data</text><polygon fill="#A80036" points="103.5,202.8281,93.5,206.8281,103.5,210.8281,99.5,206.8281" style="stroke:#A80036;stroke-width:1.0;"/><line style="stroke:#A80036;stroke-width:1.0;stroke-dasharray:2.0,2.0;" x1="97.5" x2="530.5" y1="206.8281" y2="206.8281"/><text fill="#000000" font-family="sans-serif" font-size="13" font-weight="bold" lengthAdjust="spacing" textLength="9" x="109.5" y="201.7622">4</text><text fill="#000000" font-family="sans-serif" font-size="13" lengthAdjust="spacing" textLength="392" x="122.5" y="201.7622">shows the statistics and graphs of the calculated information</text><!--MD5=[c50afca120bafa400c59fdf553d0b516]
@startuml
autonumber
actor "Laboratory Coordinator" as LC

activate LC
LC-> ":System" : asks to have an overview of all the tests performed 
activate ":System"
":System" - -> LC: requests two dates to define an interval
deactivate ":System"

LC-> ":System" : enters the requested data
activate ":System"
":System" - -> LC: shows the statistics and graphs of the calculated information
deactivate ":System"

deactivate LC
@enduml

PlantUML version 1.2021.7(Sun May 23 12:40:07 UTC 2021)
(GPL source distribution)
Java Runtime: Java(TM) SE Runtime Environment
JVM: Java HotSpot(TM) 64-Bit Server VM
Default Encoding: UTF-8
Language: en
Country: US
--></g></svg>