<?xml version="1.0" encoding="UTF-8" standalone="no"?><svg xmlns="http://www.w3.org/2000/svg" xmlns:xlink="http://www.w3.org/1999/xlink" contentScriptType="application/ecmascript" contentStyleType="text/css" height="1439px" preserveAspectRatio="none" style="width:580px;height:1439px;background:#FFFFFF;" version="1.1" viewBox="0 0 580 1439" width="580px" zoomAndPan="magnify"><defs><filter height="300%" id="fopan3udyehlo" width="300%" x="-1" y="-1"><feGaussianBlur result="blurOut" stdDeviation="2.0"/><feColorMatrix in="blurOut" result="blurOut2" type="matrix" values="0 0 0 0 0 0 0 0 0 0 0 0 0 0 0 0 0 0 .4 0"/><feOffset dx="4.0" dy="4.0" in="blurOut2" result="blurOut3"/><feBlend in="SourceGraphic" in2="blurOut3" mode="normal"/></filter></defs><g><!--MD5=[e565aad5f8ba72e3721dc487a532fbd0]
class TwoDatesInterval--><rect codeLine="3" fill="#FEFECE" filter="url(#fopan3udyehlo)" height="60.8047" id="TwoDatesInterval" style="stroke:#A80036;stroke-width:1.5;" width="136" x="268.5" y="7"/><ellipse cx="283.5" cy="23" fill="#ADD1B2" rx="11" ry="11" style="stroke:#A80036;stroke-width:1.0;"/><path d="M285.8438,18.6719 C284.9063,18.2344 284.3125,18.0938 283.4375,18.0938 C280.8125,18.0938 278.8125,20.1719 278.8125,22.8906 L278.8125,24.0156 C278.8125,26.5938 280.9219,28.4844 283.8125,28.4844 C285.0313,28.4844 286.1875,28.1875 286.9375,27.6406 C287.5156,27.2344 287.8438,26.7813 287.8438,26.3906 C287.8438,25.9375 287.4531,25.5469 286.9844,25.5469 C286.7656,25.5469 286.5625,25.625 286.375,25.8125 C285.9219,26.2969 285.9219,26.2969 285.7344,26.3906 C285.3125,26.6563 284.625,26.7813 283.8594,26.7813 C281.8125,26.7813 280.5156,25.6875 280.5156,23.9844 L280.5156,22.8906 C280.5156,21.1094 281.7656,19.7969 283.5,19.7969 C284.0781,19.7969 284.6875,19.9531 285.1563,20.2031 C285.6406,20.4844 285.8125,20.7031 285.9063,21.1094 C285.9688,21.5156 286,21.6406 286.1406,21.7656 C286.2813,21.9063 286.5156,22.0156 286.7344,22.0156 C287,22.0156 287.2656,21.875 287.4375,21.6563 C287.5469,21.5 287.5781,21.3125 287.5781,20.8906 L287.5781,19.4688 C287.5781,19.0313 287.5625,18.9063 287.4688,18.75 C287.3125,18.4844 287.0313,18.3438 286.7344,18.3438 C286.4375,18.3438 286.2344,18.4375 286.0156,18.75 L285.8438,18.6719 Z " fill="#000000"/><text fill="#000000" font-family="sans-serif" font-size="12" lengthAdjust="spacing" textLength="104" x="297.5" y="27.1543">TwoDatesInterval</text><line style="stroke:#A80036;stroke-width:1.5;" x1="269.5" x2="403.5" y1="39" y2="39"/><line style="stroke:#A80036;stroke-width:1.5;" x1="269.5" x2="403.5" y1="47" y2="47"/><text fill="#000000" font-family="sans-serif" font-size="11" lengthAdjust="spacing" textLength="101" x="274.5" y="61.2104">+loadMaxSumUi()</text><!--MD5=[4b2835dc608910e9b77915db7bec9530]
class MaxSum--><rect codeLine="7" fill="#FEFECE" filter="url(#fopan3udyehlo)" height="150.4375" id="MaxSum" style="stroke:#A80036;stroke-width:1.5;" width="400" x="136.5" y="129"/><ellipse cx="307.25" cy="145" fill="#ADD1B2" rx="11" ry="11" style="stroke:#A80036;stroke-width:1.0;"/><path d="M309.5938,140.6719 C308.6563,140.2344 308.0625,140.0938 307.1875,140.0938 C304.5625,140.0938 302.5625,142.1719 302.5625,144.8906 L302.5625,146.0156 C302.5625,148.5938 304.6719,150.4844 307.5625,150.4844 C308.7813,150.4844 309.9375,150.1875 310.6875,149.6406 C311.2656,149.2344 311.5938,148.7813 311.5938,148.3906 C311.5938,147.9375 311.2031,147.5469 310.7344,147.5469 C310.5156,147.5469 310.3125,147.625 310.125,147.8125 C309.6719,148.2969 309.6719,148.2969 309.4844,148.3906 C309.0625,148.6563 308.375,148.7813 307.6094,148.7813 C305.5625,148.7813 304.2656,147.6875 304.2656,145.9844 L304.2656,144.8906 C304.2656,143.1094 305.5156,141.7969 307.25,141.7969 C307.8281,141.7969 308.4375,141.9531 308.9063,142.2031 C309.3906,142.4844 309.5625,142.7031 309.6563,143.1094 C309.7188,143.5156 309.75,143.6406 309.8906,143.7656 C310.0313,143.9063 310.2656,144.0156 310.4844,144.0156 C310.75,144.0156 311.0156,143.875 311.1875,143.6563 C311.2969,143.5 311.3281,143.3125 311.3281,142.8906 L311.3281,141.4688 C311.3281,141.0313 311.3125,140.9063 311.2188,140.75 C311.0625,140.4844 310.7813,140.3438 310.4844,140.3438 C310.1875,140.3438 309.9844,140.4375 309.7656,140.75 L309.5938,140.6719 Z " fill="#000000"/><text fill="#000000" font-family="sans-serif" font-size="12" lengthAdjust="spacing" textLength="50" x="327.75" y="149.1543">MaxSum</text><line style="stroke:#A80036;stroke-width:1.5;" x1="137.5" x2="535.5" y1="161" y2="161"/><line style="stroke:#A80036;stroke-width:1.5;" x1="137.5" x2="535.5" y1="169" y2="169"/><text fill="#000000" font-family="sans-serif" font-size="11" lengthAdjust="spacing" textLength="128" x="142.5" y="183.2104">+loadGraphDataYear()</text><text fill="#000000" font-family="sans-serif" font-size="11" lengthAdjust="spacing" textLength="136" x="142.5" y="196.0151">+loadGraphDataMonth()</text><text fill="#000000" font-family="sans-serif" font-size="11" lengthAdjust="spacing" textLength="135" x="142.5" y="208.8198">+loadGraphDataWeek()</text><text fill="#000000" font-family="sans-serif" font-size="11" lengthAdjust="spacing" textLength="125" x="142.5" y="221.6245">+loadGraphDataDay()</text><text fill="#000000" font-family="sans-serif" font-size="11" lengthAdjust="spacing" textLength="388" x="142.5" y="234.4292">+fillLineChart(testsReady,testsMissingDiagnosis,testsMissingResults)</text><text fill="#000000" font-family="sans-serif" font-size="11" lengthAdjust="spacing" textLength="120" x="142.5" y="247.2339">+getNumberClients()</text><text fill="#000000" font-family="sans-serif" font-size="11" lengthAdjust="spacing" textLength="166" x="142.5" y="260.0386">+getNumberTestsValidated()</text><text fill="#000000" font-family="sans-serif" font-size="11" lengthAdjust="spacing" textLength="175" x="142.5" y="272.8433">+getTimeInterval(start,end,dif)</text><!--MD5=[13e1dbb18202a82efe9ada3237c94cf7]
class IntervalController--><rect codeLine="18" fill="#FEFECE" filter="url(#fopan3udyehlo)" height="316.8984" id="IntervalController" style="stroke:#A80036;stroke-width:1.5;" width="289" x="192" y="340"/><ellipse cx="280.75" cy="356" fill="#ADD1B2" rx="11" ry="11" style="stroke:#A80036;stroke-width:1.0;"/><path d="M283.0938,351.6719 C282.1563,351.2344 281.5625,351.0938 280.6875,351.0938 C278.0625,351.0938 276.0625,353.1719 276.0625,355.8906 L276.0625,357.0156 C276.0625,359.5938 278.1719,361.4844 281.0625,361.4844 C282.2813,361.4844 283.4375,361.1875 284.1875,360.6406 C284.7656,360.2344 285.0938,359.7813 285.0938,359.3906 C285.0938,358.9375 284.7031,358.5469 284.2344,358.5469 C284.0156,358.5469 283.8125,358.625 283.625,358.8125 C283.1719,359.2969 283.1719,359.2969 282.9844,359.3906 C282.5625,359.6563 281.875,359.7813 281.1094,359.7813 C279.0625,359.7813 277.7656,358.6875 277.7656,356.9844 L277.7656,355.8906 C277.7656,354.1094 279.0156,352.7969 280.75,352.7969 C281.3281,352.7969 281.9375,352.9531 282.4063,353.2031 C282.8906,353.4844 283.0625,353.7031 283.1563,354.1094 C283.2188,354.5156 283.25,354.6406 283.3906,354.7656 C283.5313,354.9063 283.7656,355.0156 283.9844,355.0156 C284.25,355.0156 284.5156,354.875 284.6875,354.6563 C284.7969,354.5 284.8281,354.3125 284.8281,353.8906 L284.8281,352.4688 C284.8281,352.0313 284.8125,351.9063 284.7188,351.75 C284.5625,351.4844 284.2813,351.3438 283.9844,351.3438 C283.6875,351.3438 283.4844,351.4375 283.2656,351.75 L283.0938,351.6719 Z " fill="#000000"/><text fill="#000000" font-family="sans-serif" font-size="12" lengthAdjust="spacing" textLength="103" x="301.25" y="360.1543">IntervalController</text><line style="stroke:#A80036;stroke-width:1.5;" x1="193" x2="480" y1="372" y2="372"/><line style="stroke:#A80036;stroke-width:1.5;" x1="193" x2="480" y1="380" y2="380"/><text fill="#000000" font-family="sans-serif" font-size="11" lengthAdjust="spacing" textLength="193" x="198" y="394.2104">+getArrayBeforeMax(dStart,dEnd)</text><text fill="#000000" font-family="sans-serif" font-size="11" lengthAdjust="spacing" textLength="118" x="198" y="407.0151">+getArrayMax(array)</text><text fill="#000000" font-family="sans-serif" font-size="11" lengthAdjust="spacing" textLength="206" x="198" y="419.8198">+getReadyTestsByDay(dStart,dEnd)</text><text fill="#000000" font-family="sans-serif" font-size="11" lengthAdjust="spacing" textLength="266" x="198" y="432.6245">+getMissingDiagnosisTestsByDay(dStart,dEnd)</text><text fill="#000000" font-family="sans-serif" font-size="11" lengthAdjust="spacing" textLength="252" x="198" y="445.4292">+getMissingResultsTestsByDay(dStart,dEnd)</text><text fill="#000000" font-family="sans-serif" font-size="11" lengthAdjust="spacing" textLength="209" x="198" y="458.2339">+getReadyTestsByYear(dStart,dEnd)</text><text fill="#000000" font-family="sans-serif" font-size="11" lengthAdjust="spacing" textLength="269" x="198" y="471.0386">+getMissingDiagnosisTestsByYear(dStart,dEnd)</text><text fill="#000000" font-family="sans-serif" font-size="11" lengthAdjust="spacing" textLength="255" x="198" y="483.8433">+getMissingResultsTestsByYear(dStart,dEnd)</text><text fill="#000000" font-family="sans-serif" font-size="11" lengthAdjust="spacing" textLength="217" x="198" y="496.6479">+getReadyTestsByMonth(dStart,dEnd)</text><text fill="#000000" font-family="sans-serif" font-size="11" lengthAdjust="spacing" textLength="277" x="198" y="509.4526">+getMissingDiagnosisTestsByMonth(dStart,dEnd)</text><text fill="#000000" font-family="sans-serif" font-size="11" lengthAdjust="spacing" textLength="263" x="198" y="522.2573">+getMissingResultsTestsByMonth(dStart,dEnd)</text><text fill="#000000" font-family="sans-serif" font-size="11" lengthAdjust="spacing" textLength="216" x="198" y="535.062">+getReadyTestsByWeek(dStart,dEnd)</text><text fill="#000000" font-family="sans-serif" font-size="11" lengthAdjust="spacing" textLength="276" x="198" y="547.8667">+getMissingDiagnosisTestsByWeek(dStart,dEnd)</text><text fill="#000000" font-family="sans-serif" font-size="11" lengthAdjust="spacing" textLength="262" x="198" y="560.6714">+getMissingResultsTestsByWeek(dStart,dEnd)</text><text fill="#000000" font-family="sans-serif" font-size="11" lengthAdjust="spacing" textLength="178" x="198" y="573.4761">+getClientsByDay(dStart,dEnd)</text><text fill="#000000" font-family="sans-serif" font-size="11" lengthAdjust="spacing" textLength="188" x="198" y="586.2808">+getClientsByWeek(dStart,dEnd)</text><text fill="#000000" font-family="sans-serif" font-size="11" lengthAdjust="spacing" textLength="189" x="198" y="599.0854">+getClientsByMonth(dStart,dEnd)</text><text fill="#000000" font-family="sans-serif" font-size="11" lengthAdjust="spacing" textLength="181" x="198" y="611.8901">+getClientsByYear(dStart,dEnd)</text><text fill="#000000" font-family="sans-serif" font-size="11" lengthAdjust="spacing" textLength="134" x="198" y="624.6948">+tStringToCalendar(txt)</text><text fill="#000000" font-family="sans-serif" font-size="11" lengthAdjust="spacing" textLength="125" x="198" y="637.4995">+dateValidation(date)</text><text fill="#000000" font-family="sans-serif" font-size="11" lengthAdjust="spacing" textLength="175" x="198" y="650.3042">+getTimeInterval(start,end,dif)</text><!--MD5=[02e4b9b7573f1156f41e60aa5b4e25a4]
class Company--><rect codeLine="42" fill="#FEFECE" filter="url(#fopan3udyehlo)" height="86.4141" id="Company" style="stroke:#A80036;stroke-width:1.5;" width="164" x="254.5" y="718"/><ellipse cx="304.25" cy="734" fill="#ADD1B2" rx="11" ry="11" style="stroke:#A80036;stroke-width:1.0;"/><path d="M306.5938,729.6719 C305.6563,729.2344 305.0625,729.0938 304.1875,729.0938 C301.5625,729.0938 299.5625,731.1719 299.5625,733.8906 L299.5625,735.0156 C299.5625,737.5938 301.6719,739.4844 304.5625,739.4844 C305.7813,739.4844 306.9375,739.1875 307.6875,738.6406 C308.2656,738.2344 308.5938,737.7813 308.5938,737.3906 C308.5938,736.9375 308.2031,736.5469 307.7344,736.5469 C307.5156,736.5469 307.3125,736.625 307.125,736.8125 C306.6719,737.2969 306.6719,737.2969 306.4844,737.3906 C306.0625,737.6563 305.375,737.7813 304.6094,737.7813 C302.5625,737.7813 301.2656,736.6875 301.2656,734.9844 L301.2656,733.8906 C301.2656,732.1094 302.5156,730.7969 304.25,730.7969 C304.8281,730.7969 305.4375,730.9531 305.9063,731.2031 C306.3906,731.4844 306.5625,731.7031 306.6563,732.1094 C306.7188,732.5156 306.75,732.6406 306.8906,732.7656 C307.0313,732.9063 307.2656,733.0156 307.4844,733.0156 C307.75,733.0156 308.0156,732.875 308.1875,732.6563 C308.2969,732.5 308.3281,732.3125 308.3281,731.8906 L308.3281,730.4688 C308.3281,730.0313 308.3125,729.9063 308.2188,729.75 C308.0625,729.4844 307.7813,729.3438 307.4844,729.3438 C307.1875,729.3438 306.9844,729.4375 306.7656,729.75 L306.5938,729.6719 Z " fill="#000000"/><text fill="#000000" font-family="sans-serif" font-size="12" lengthAdjust="spacing" textLength="56" x="324.75" y="738.1543">Company</text><line style="stroke:#A80036;stroke-width:1.5;" x1="255.5" x2="417.5" y1="750" y2="750"/><line style="stroke:#A80036;stroke-width:1.5;" x1="255.5" x2="417.5" y1="758" y2="758"/><text fill="#000000" font-family="sans-serif" font-size="11" lengthAdjust="spacing" textLength="152" x="260.5" y="772.2104">+getLabCoordinatorStore()</text><text fill="#000000" font-family="sans-serif" font-size="11" lengthAdjust="spacing" textLength="81" x="260.5" y="785.0151">+getAllTests()</text><text fill="#000000" font-family="sans-serif" font-size="11" lengthAdjust="spacing" textLength="92" x="260.5" y="797.8198">+getTestStore()</text><!--MD5=[0f6f7964b844a64b0496af0dda7914bd]
class TestStore--><rect codeLine="49" fill="#FEFECE" filter="url(#fopan3udyehlo)" height="60.8047" id="TestStore" style="stroke:#A80036;stroke-width:1.5;" width="91" x="105" y="983.5"/><ellipse cx="120" cy="999.5" fill="#ADD1B2" rx="11" ry="11" style="stroke:#A80036;stroke-width:1.0;"/><path d="M122.3438,995.1719 C121.4063,994.7344 120.8125,994.5938 119.9375,994.5938 C117.3125,994.5938 115.3125,996.6719 115.3125,999.3906 L115.3125,1000.5156 C115.3125,1003.0938 117.4219,1004.9844 120.3125,1004.9844 C121.5313,1004.9844 122.6875,1004.6875 123.4375,1004.1406 C124.0156,1003.7344 124.3438,1003.2813 124.3438,1002.8906 C124.3438,1002.4375 123.9531,1002.0469 123.4844,1002.0469 C123.2656,1002.0469 123.0625,1002.125 122.875,1002.3125 C122.4219,1002.7969 122.4219,1002.7969 122.2344,1002.8906 C121.8125,1003.1563 121.125,1003.2813 120.3594,1003.2813 C118.3125,1003.2813 117.0156,1002.1875 117.0156,1000.4844 L117.0156,999.3906 C117.0156,997.6094 118.2656,996.2969 120,996.2969 C120.5781,996.2969 121.1875,996.4531 121.6563,996.7031 C122.1406,996.9844 122.3125,997.2031 122.4063,997.6094 C122.4688,998.0156 122.5,998.1406 122.6406,998.2656 C122.7813,998.4063 123.0156,998.5156 123.2344,998.5156 C123.5,998.5156 123.7656,998.375 123.9375,998.1563 C124.0469,998 124.0781,997.8125 124.0781,997.3906 L124.0781,995.9688 C124.0781,995.5313 124.0625,995.4063 123.9688,995.25 C123.8125,994.9844 123.5313,994.8438 123.2344,994.8438 C122.9375,994.8438 122.7344,994.9375 122.5156,995.25 L122.3438,995.1719 Z " fill="#000000"/><text fill="#000000" font-family="sans-serif" font-size="12" lengthAdjust="spacing" textLength="59" x="134" y="1003.6543">TestStore</text><line style="stroke:#A80036;stroke-width:1.5;" x1="106" x2="195" y1="1015.5" y2="1015.5"/><line style="stroke:#A80036;stroke-width:1.5;" x1="106" x2="195" y1="1023.5" y2="1023.5"/><text fill="#000000" font-family="sans-serif" font-size="11" lengthAdjust="spacing" textLength="67" x="111" y="1037.7104">+getTests()</text><!--MD5=[df38be88ccee13e832d6fafd6288a4ca]
class Test--><rect codeLine="53" fill="#FEFECE" filter="url(#fopan3udyehlo)" height="201.6563" id="Test" style="stroke:#A80036;stroke-width:1.5;" width="287" x="7" y="1224"/><ellipse cx="133.25" cy="1240" fill="#ADD1B2" rx="11" ry="11" style="stroke:#A80036;stroke-width:1.0;"/><path d="M135.5938,1235.6719 C134.6563,1235.2344 134.0625,1235.0938 133.1875,1235.0938 C130.5625,1235.0938 128.5625,1237.1719 128.5625,1239.8906 L128.5625,1241.0156 C128.5625,1243.5938 130.6719,1245.4844 133.5625,1245.4844 C134.7813,1245.4844 135.9375,1245.1875 136.6875,1244.6406 C137.2656,1244.2344 137.5938,1243.7813 137.5938,1243.3906 C137.5938,1242.9375 137.2031,1242.5469 136.7344,1242.5469 C136.5156,1242.5469 136.3125,1242.625 136.125,1242.8125 C135.6719,1243.2969 135.6719,1243.2969 135.4844,1243.3906 C135.0625,1243.6563 134.375,1243.7813 133.6094,1243.7813 C131.5625,1243.7813 130.2656,1242.6875 130.2656,1240.9844 L130.2656,1239.8906 C130.2656,1238.1094 131.5156,1236.7969 133.25,1236.7969 C133.8281,1236.7969 134.4375,1236.9531 134.9063,1237.2031 C135.3906,1237.4844 135.5625,1237.7031 135.6563,1238.1094 C135.7188,1238.5156 135.75,1238.6406 135.8906,1238.7656 C136.0313,1238.9063 136.2656,1239.0156 136.4844,1239.0156 C136.75,1239.0156 137.0156,1238.875 137.1875,1238.6563 C137.2969,1238.5 137.3281,1238.3125 137.3281,1237.8906 L137.3281,1236.4688 C137.3281,1236.0313 137.3125,1235.9063 137.2188,1235.75 C137.0625,1235.4844 136.7813,1235.3438 136.4844,1235.3438 C136.1875,1235.3438 135.9844,1235.4375 135.7656,1235.75 L135.5938,1235.6719 Z " fill="#000000"/><text fill="#000000" font-family="sans-serif" font-size="12" lengthAdjust="spacing" textLength="26" x="153.75" y="1244.1543">Test</text><line style="stroke:#A80036;stroke-width:1.5;" x1="8" x2="293" y1="1256" y2="1256"/><text fill="#000000" font-family="sans-serif" font-size="11" lengthAdjust="spacing" textLength="94" x="13" y="1270.2104">-String nhsCode;</text><text fill="#000000" font-family="sans-serif" font-size="11" lengthAdjust="spacing" textLength="117" x="13" y="1283.0151">-String internalCode;</text><text fill="#000000" font-family="sans-serif" font-size="11" lengthAdjust="spacing" textLength="75" x="13" y="1295.8198">-Client client;</text><text fill="#000000" font-family="sans-serif" font-size="11" lengthAdjust="spacing" textLength="116" x="13" y="1308.6245">-TestType testType;</text><text fill="#000000" font-family="sans-serif" font-size="11" lengthAdjust="spacing" textLength="184" x="13" y="1321.4292">-String sampleCollectionMethod;</text><text fill="#000000" font-family="sans-serif" font-size="11" lengthAdjust="spacing" textLength="275" x="13" y="1334.2339">-List &lt;ParameterCategory&gt; parameterCategory;</text><text fill="#000000" font-family="sans-serif" font-size="11" lengthAdjust="spacing" textLength="171" x="13" y="1347.0386">-List &lt;Parameter&gt; parameter;</text><text fill="#000000" font-family="sans-serif" font-size="11" lengthAdjust="spacing" textLength="131" x="13" y="1359.8433">-Date registrationDate;</text><text fill="#000000" font-family="sans-serif" font-size="11" lengthAdjust="spacing" textLength="171" x="13" y="1372.6479">-Date samplesCollectionDate;</text><text fill="#000000" font-family="sans-serif" font-size="11" lengthAdjust="spacing" textLength="165" x="13" y="1385.4526">-Date chemicalAnalysisDate;</text><text fill="#000000" font-family="sans-serif" font-size="11" lengthAdjust="spacing" textLength="120" x="13" y="1398.2573">-Date diagnosisDate;</text><text fill="#000000" font-family="sans-serif" font-size="11" lengthAdjust="spacing" textLength="122" x="13" y="1411.062">-Date validationDate;</text><line style="stroke:#A80036;stroke-width:1.5;" x1="8" x2="293" y1="1417.6563" y2="1417.6563"/><!--MD5=[3c1003b72a7bb48818938d58067615f4]
class LabCoordinatorStore--><rect codeLine="70" fill="#FEFECE" filter="url(#fopan3udyehlo)" height="265.6797" id="LabCoordinatorStore" style="stroke:#A80036;stroke-width:1.5;" width="335" x="231" y="881"/><ellipse cx="331.75" cy="897" fill="#ADD1B2" rx="11" ry="11" style="stroke:#A80036;stroke-width:1.0;"/><path d="M334.0938,892.6719 C333.1563,892.2344 332.5625,892.0938 331.6875,892.0938 C329.0625,892.0938 327.0625,894.1719 327.0625,896.8906 L327.0625,898.0156 C327.0625,900.5938 329.1719,902.4844 332.0625,902.4844 C333.2813,902.4844 334.4375,902.1875 335.1875,901.6406 C335.7656,901.2344 336.0938,900.7813 336.0938,900.3906 C336.0938,899.9375 335.7031,899.5469 335.2344,899.5469 C335.0156,899.5469 334.8125,899.625 334.625,899.8125 C334.1719,900.2969 334.1719,900.2969 333.9844,900.3906 C333.5625,900.6563 332.875,900.7813 332.1094,900.7813 C330.0625,900.7813 328.7656,899.6875 328.7656,897.9844 L328.7656,896.8906 C328.7656,895.1094 330.0156,893.7969 331.75,893.7969 C332.3281,893.7969 332.9375,893.9531 333.4063,894.2031 C333.8906,894.4844 334.0625,894.7031 334.1563,895.1094 C334.2188,895.5156 334.25,895.6406 334.3906,895.7656 C334.5313,895.9063 334.7656,896.0156 334.9844,896.0156 C335.25,896.0156 335.5156,895.875 335.6875,895.6563 C335.7969,895.5 335.8281,895.3125 335.8281,894.8906 L335.8281,893.4688 C335.8281,893.0313 335.8125,892.9063 335.7188,892.75 C335.5625,892.4844 335.2813,892.3438 334.9844,892.3438 C334.6875,892.3438 334.4844,892.4375 334.2656,892.75 L334.0938,892.6719 Z " fill="#000000"/><text fill="#000000" font-family="sans-serif" font-size="12" lengthAdjust="spacing" textLength="125" x="352.25" y="901.1543">LabCoordinatorStore</text><line style="stroke:#A80036;stroke-width:1.5;" x1="232" x2="565" y1="913" y2="913"/><line style="stroke:#A80036;stroke-width:1.5;" x1="232" x2="565" y1="921" y2="921"/><text fill="#000000" font-family="sans-serif" font-size="11" lengthAdjust="spacing" textLength="315" x="237" y="935.2104">+getNumberTestsByYear(tests,sDate,eDate,dateType)</text><text fill="#000000" font-family="sans-serif" font-size="11" lengthAdjust="spacing" textLength="312" x="237" y="948.0151">+getNumberTestsByDay(tests,sDate,eDate,dateType)</text><text fill="#000000" font-family="sans-serif" font-size="11" lengthAdjust="spacing" textLength="323" x="237" y="960.8198">+getNumberTestsByMonth(tests,sDate,eDate,dateType)</text><text fill="#000000" font-family="sans-serif" font-size="11" lengthAdjust="spacing" textLength="322" x="237" y="973.6245">+getNumberTestsByWeek(tests,sDate,eDate,dateType)</text><text fill="#000000" font-family="sans-serif" font-size="11" lengthAdjust="spacing" textLength="253" x="237" y="986.4292">+getNumOfTReadyByMonth(tests,date,type)</text><text fill="#000000" font-family="sans-serif" font-size="11" lengthAdjust="spacing" textLength="252" x="237" y="999.2339">+getNumOfTReadyByWeek(tests,date,type)</text><text fill="#000000" font-family="sans-serif" font-size="11" lengthAdjust="spacing" textLength="242" x="237" y="1012.0386">+getNumOfTReadyByDay(tests,date,type)</text><text fill="#000000" font-family="sans-serif" font-size="11" lengthAdjust="spacing" textLength="245" x="237" y="1024.8433">+getNumOfTReadyByYear(tests,date,type)</text><text fill="#000000" font-family="sans-serif" font-size="11" lengthAdjust="spacing" textLength="219" x="237" y="1037.6479">+getTestsWithResults(tests,date,type)</text><text fill="#000000" font-family="sans-serif" font-size="11" lengthAdjust="spacing" textLength="136" x="237" y="1050.4526">+maxSubArraySum(list)</text><text fill="#000000" font-family="sans-serif" font-size="11" lengthAdjust="spacing" textLength="137" x="237" y="1063.2573">+listMax(start,end,tests)</text><text fill="#000000" font-family="sans-serif" font-size="11" lengthAdjust="spacing" textLength="134" x="237" y="1076.062">+tCalendarToLDT(date)</text><text fill="#000000" font-family="sans-serif" font-size="11" lengthAdjust="spacing" textLength="153" x="237" y="1088.8667">+getMax(start,end,sum,dif)</text><text fill="#000000" font-family="sans-serif" font-size="11" lengthAdjust="spacing" textLength="118" x="237" y="1101.6714">+countNumber(num)</text><text fill="#000000" font-family="sans-serif" font-size="11" lengthAdjust="spacing" textLength="125" x="237" y="1114.4761">+maxSubArray(nums)</text><text fill="#000000" font-family="sans-serif" font-size="11" lengthAdjust="spacing" textLength="194" x="237" y="1127.2808">+getNumberTestsValidated(tests)</text><text fill="#000000" font-family="sans-serif" font-size="11" lengthAdjust="spacing" textLength="148" x="237" y="1140.0854">+getNumberClients(tests)</text><!--MD5=[703eb69782b3d20a699c171ba5a5645e]
link TwoDatesInterval to MaxSum--><path codeLine="90" d="M336.5,68.29 C336.5,83.99 336.5,104.08 336.5,123.92 " fill="none" id="TwoDatesInterval-to-MaxSum" style="stroke:#A80036;stroke-width:1.0;stroke-dasharray:7.0,7.0;"/><polygon fill="#A80036" points="336.5,128.95,340.5,119.95,336.5,123.95,332.5,119.95,336.5,128.95" style="stroke:#A80036;stroke-width:1.0;"/><!--MD5=[115b3d6a6ff1fed049908457099044cd]
link MaxSum to IntervalController--><path codeLine="91" d="M336.5,279.19 C336.5,296.28 336.5,315.13 336.5,334.37 " fill="none" id="MaxSum-to-IntervalController" style="stroke:#A80036;stroke-width:1.0;stroke-dasharray:7.0,7.0;"/><polygon fill="#A80036" points="336.5,339.81,340.5,330.81,336.5,334.81,332.5,330.81,336.5,339.81" style="stroke:#A80036;stroke-width:1.0;"/><!--MD5=[ca227fafa2eab3343517c50ee3f23710]
link IntervalController to Company--><path codeLine="92" d="M336.5,657.044 C336.5,677.067 336.5,696.189 336.5,712.401 " fill="none" id="IntervalController-to-Company" style="stroke:#A80036;stroke-width:1.0;stroke-dasharray:7.0,7.0;"/><polygon fill="#A80036" points="336.5,717.784,340.5,708.784,336.5,712.784,332.5,708.784,336.5,717.784" style="stroke:#A80036;stroke-width:1.0;"/><!--MD5=[267bc7d45b6e0d5e8306e4b3dbc5f130]
link Company to LabCoordinatorStore--><path codeLine="93" d="M346.877,804.012 C351.875,824.244 358.182,849.775 364.655,875.982 " fill="none" id="Company-to-LabCoordinatorStore" style="stroke:#A80036;stroke-width:1.0;"/><polygon fill="#A80036" points="365.865,880.882,367.591,871.1856,364.6664,876.0278,359.8242,873.1032,365.865,880.882" style="stroke:#A80036;stroke-width:1.0;"/><text fill="#000000" font-family="sans-serif" font-size="13" lengthAdjust="spacing" textLength="30" x="358.5" y="847.0669">uses</text><text fill="#000000" font-family="sans-serif" font-size="13" lengthAdjust="spacing" textLength="8" x="339.9332" y="824.4217">1</text><text fill="#000000" font-family="sans-serif" font-size="13" lengthAdjust="spacing" textLength="8" x="355.747" y="869.8325">1</text><!--MD5=[7f6cf7f175eae0af66201860de5de971]
link Company to TestStore--><path codeLine="94" d="M285.047,804.192 C261.237,825.498 233.801,852.78 213.5,881 C191.562,911.496 173.94,950.828 162.972,978.599 " fill="none" id="Company-to-TestStore" style="stroke:#A80036;stroke-width:1.0;"/><polygon fill="#A80036" points="161.136,983.299,168.1375,976.3723,162.9559,978.642,160.6863,973.4604,161.136,983.299" style="stroke:#A80036;stroke-width:1.0;"/><text fill="#000000" font-family="sans-serif" font-size="13" lengthAdjust="spacing" textLength="30" x="254.5" y="847.0669">uses</text><text fill="#000000" font-family="sans-serif" font-size="13" lengthAdjust="spacing" textLength="8" x="267.8626" y="824.6315">1</text><text fill="#000000" font-family="sans-serif" font-size="13" lengthAdjust="spacing" textLength="8" x="154.5047" y="972.5208">1</text><!--MD5=[b0f4f6db8206580012ef9cd998ed01c5]
link TestStore to Test--><path codeLine="95" d="M150.5,1044.628 C150.5,1084.445 150.5,1157.31 150.5,1218.642 " fill="none" id="TestStore-to-Test" style="stroke:#A80036;stroke-width:1.0;"/><polygon fill="#A80036" points="150.5,1223.787,154.5,1214.787,150.5,1218.787,146.5,1214.787,150.5,1223.787" style="stroke:#A80036;stroke-width:1.0;"/><text fill="#000000" font-family="sans-serif" font-size="13" lengthAdjust="spacing" textLength="58" x="151.5" y="1190.0669">conducts</text><text fill="#000000" font-family="sans-serif" font-size="13" lengthAdjust="spacing" textLength="8" x="141.675" y="1064.5926">1</text><text fill="#000000" font-family="sans-serif" font-size="13" lengthAdjust="spacing" textLength="7" x="143.243" y="1212.8878">*</text><!--MD5=[d6d8a89ab73000c9a8fee70d0b16cb23]
@startuml
skinparam classAttributeIconSize 0

class TwoDatesInterval{
+loadMaxSumUi()
}

class MaxSum{
  +loadGraphDataYear()
  +loadGraphDataMonth()
  +loadGraphDataWeek()
  +loadGraphDataDay()
  +fillLineChart(testsReady,testsMissingDiagnosis,testsMissingResults)
  +getNumberClients()
  +getNumberTestsValidated()
  +getTimeInterval(start,end,dif)
}

class IntervalController{
  +getArrayBeforeMax(dStart,dEnd)
  +getArrayMax(array)
  +getReadyTestsByDay(dStart,dEnd)
  +getMissingDiagnosisTestsByDay(dStart,dEnd)
  +getMissingResultsTestsByDay(dStart,dEnd)
  +getReadyTestsByYear(dStart,dEnd)
  +getMissingDiagnosisTestsByYear(dStart,dEnd)
  +getMissingResultsTestsByYear(dStart,dEnd)
  +getReadyTestsByMonth(dStart,dEnd)
  +getMissingDiagnosisTestsByMonth(dStart,dEnd)
  +getMissingResultsTestsByMonth(dStart,dEnd)
  +getReadyTestsByWeek(dStart,dEnd)
  +getMissingDiagnosisTestsByWeek(dStart,dEnd)
  +getMissingResultsTestsByWeek(dStart,dEnd)
  +getClientsByDay(dStart,dEnd)
  +getClientsByWeek(dStart,dEnd)
  +getClientsByMonth(dStart,dEnd)
  +getClientsByYear(dStart,dEnd)
  +tStringToCalendar(txt)
  +dateValidation(date)
  +getTimeInterval(start,end,dif)
}

class Company
{
  +getLabCoordinatorStore()
  +getAllTests()
  +getTestStore()
}

class TestStore{
  +getTests()
}

class Test{
  -String nhsCode;
  -String internalCode;
  -Client client;
  -TestType testType;
  -String sampleCollectionMethod;
  -List <ParameterCategory> parameterCategory;
  -List <Parameter> parameter;
  -Date registrationDate;
  -Date samplesCollectionDate;
  -Date chemicalAnalysisDate;
  -Date diagnosisDate;
  -Date validationDate;
}



class LabCoordinatorStore{
  +getNumberTestsByYear(tests,sDate,eDate,dateType)
  +getNumberTestsByDay(tests,sDate,eDate,dateType)
  +getNumberTestsByMonth(tests,sDate,eDate,dateType)
  +getNumberTestsByWeek(tests,sDate,eDate,dateType)
  +getNumOfTReadyByMonth(tests,date,type)
  +getNumOfTReadyByWeek(tests,date,type)
  +getNumOfTReadyByDay(tests,date,type)
  +getNumOfTReadyByYear(tests,date,type)
  +getTestsWithResults(tests,date,type)
  +maxSubArraySum(list)
  +listMax(start,end,tests)
  +tCalendarToLDT(date)
  +getMax(start,end,sum,dif)
  +countNumber(num)
  +maxSubArray(nums)
  +getNumberTestsValidated(tests)
  +getNumberClients(tests)
}

TwoDatesInterval..> MaxSum
MaxSum..> IntervalController
IntervalController..>Company
Company "1" - -> "1" LabCoordinatorStore: uses
Company "1" - -> "1" TestStore: uses
TestStore"1" - -> "*" Test : conducts
@enduml

PlantUML version 1.2021.7(Sun May 23 12:40:07 UTC 2021)
(GPL source distribution)
Java Runtime: Java(TM) SE Runtime Environment
JVM: Java HotSpot(TM) 64-Bit Server VM
Default Encoding: UTF-8
Language: en
Country: US
--></g></svg>