<?xml version="1.0" encoding="UTF-8" standalone="no"?><svg xmlns="http://www.w3.org/2000/svg" xmlns:xlink="http://www.w3.org/1999/xlink" contentScriptType="application/ecmascript" contentStyleType="text/css" height="662px" preserveAspectRatio="none" style="width:787px;height:662px;background:#FFFFFF;" version="1.1" viewBox="0 0 787 662" width="787px" zoomAndPan="magnify"><defs><filter height="300%" id="f1r86ch4hp6h5u" width="300%" x="-1" y="-1"><feGaussianBlur result="blurOut" stdDeviation="2.0"/><feColorMatrix in="blurOut" result="blurOut2" type="matrix" values="0 0 0 0 0 0 0 0 0 0 0 0 0 0 0 0 0 0 .4 0"/><feOffset dx="4.0" dy="4.0" in="blurOut2" result="blurOut3"/><feBlend in="SourceGraphic" in2="blurOut3" mode="normal"/></filter></defs><g><!--MD5=[02e4b9b7573f1156f41e60aa5b4e25a4]
class Company--><rect codeLine="1" fill="#FEFECE" filter="url(#f1r86ch4hp6h5u)" height="60.8047" id="Company" style="stroke:#A80036;stroke-width:1.5;" width="88" x="81" y="7"/><ellipse cx="96" cy="23" fill="#ADD1B2" rx="11" ry="11" style="stroke:#A80036;stroke-width:1.0;"/><path d="M98.3438,18.6719 C97.4063,18.2344 96.8125,18.0938 95.9375,18.0938 C93.3125,18.0938 91.3125,20.1719 91.3125,22.8906 L91.3125,24.0156 C91.3125,26.5938 93.4219,28.4844 96.3125,28.4844 C97.5313,28.4844 98.6875,28.1875 99.4375,27.6406 C100.0156,27.2344 100.3438,26.7813 100.3438,26.3906 C100.3438,25.9375 99.9531,25.5469 99.4844,25.5469 C99.2656,25.5469 99.0625,25.625 98.875,25.8125 C98.4219,26.2969 98.4219,26.2969 98.2344,26.3906 C97.8125,26.6563 97.125,26.7813 96.3594,26.7813 C94.3125,26.7813 93.0156,25.6875 93.0156,23.9844 L93.0156,22.8906 C93.0156,21.1094 94.2656,19.7969 96,19.7969 C96.5781,19.7969 97.1875,19.9531 97.6563,20.2031 C98.1406,20.4844 98.3125,20.7031 98.4063,21.1094 C98.4688,21.5156 98.5,21.6406 98.6406,21.7656 C98.7813,21.9063 99.0156,22.0156 99.2344,22.0156 C99.5,22.0156 99.7656,21.875 99.9375,21.6563 C100.0469,21.5 100.0781,21.3125 100.0781,20.8906 L100.0781,19.4688 C100.0781,19.0313 100.0625,18.9063 99.9688,18.75 C99.8125,18.4844 99.5313,18.3438 99.2344,18.3438 C98.9375,18.3438 98.7344,18.4375 98.5156,18.75 L98.3438,18.6719 Z " fill="#000000"/><text fill="#000000" font-family="sans-serif" font-size="12" lengthAdjust="spacing" textLength="56" x="110" y="27.1543">Company</text><line style="stroke:#A80036;stroke-width:1.5;" x1="82" x2="168" y1="39" y2="39"/><text fill="#000000" font-family="sans-serif" font-size="11" lengthAdjust="spacing" textLength="70" x="87" y="53.2104">-designation</text><line style="stroke:#A80036;stroke-width:1.5;" x1="82" x2="168" y1="59.8047" y2="59.8047"/><!--MD5=[da547346deef918ea16944ba046651ef]
class Administrator--><rect codeLine="5" fill="#FEFECE" filter="url(#f1r86ch4hp6h5u)" height="137.6328" id="Administrator" style="stroke:#A80036;stroke-width:1.5;" width="236" x="7" y="145"/><ellipse cx="80.75" cy="161" fill="#ADD1B2" rx="11" ry="11" style="stroke:#A80036;stroke-width:1.0;"/><path d="M83.0938,156.6719 C82.1563,156.2344 81.5625,156.0938 80.6875,156.0938 C78.0625,156.0938 76.0625,158.1719 76.0625,160.8906 L76.0625,162.0156 C76.0625,164.5938 78.1719,166.4844 81.0625,166.4844 C82.2813,166.4844 83.4375,166.1875 84.1875,165.6406 C84.7656,165.2344 85.0938,164.7813 85.0938,164.3906 C85.0938,163.9375 84.7031,163.5469 84.2344,163.5469 C84.0156,163.5469 83.8125,163.625 83.625,163.8125 C83.1719,164.2969 83.1719,164.2969 82.9844,164.3906 C82.5625,164.6563 81.875,164.7813 81.1094,164.7813 C79.0625,164.7813 77.7656,163.6875 77.7656,161.9844 L77.7656,160.8906 C77.7656,159.1094 79.0156,157.7969 80.75,157.7969 C81.3281,157.7969 81.9375,157.9531 82.4063,158.2031 C82.8906,158.4844 83.0625,158.7031 83.1563,159.1094 C83.2188,159.5156 83.25,159.6406 83.3906,159.7656 C83.5313,159.9063 83.7656,160.0156 83.9844,160.0156 C84.25,160.0156 84.5156,159.875 84.6875,159.6563 C84.7969,159.5 84.8281,159.3125 84.8281,158.8906 L84.8281,157.4688 C84.8281,157.0313 84.8125,156.9063 84.7188,156.75 C84.5625,156.4844 84.2813,156.3438 83.9844,156.3438 C83.6875,156.3438 83.4844,156.4375 83.2656,156.75 L83.0938,156.6719 Z " fill="#000000"/><text fill="#000000" font-family="sans-serif" font-size="12" lengthAdjust="spacing" textLength="80" x="101.25" y="165.1543">Administrator</text><line style="stroke:#A80036;stroke-width:1.5;" x1="8" x2="242" y1="177" y2="177"/><text fill="#000000" font-family="sans-serif" font-size="11" lengthAdjust="spacing" textLength="75" x="13" y="191.2104">-employeeID</text><text fill="#000000" font-family="sans-serif" font-size="11" lengthAdjust="spacing" textLength="99" x="13" y="204.0151">-organizationRole</text><text fill="#000000" font-family="sans-serif" font-size="11" lengthAdjust="spacing" textLength="37" x="13" y="216.8198">-name</text><text fill="#000000" font-family="sans-serif" font-size="11" lengthAdjust="spacing" textLength="49" x="13" y="229.6245">-address</text><text fill="#000000" font-family="sans-serif" font-size="11" lengthAdjust="spacing" textLength="85" x="13" y="242.4292">-phoneNumber</text><text fill="#000000" font-family="sans-serif" font-size="11" lengthAdjust="spacing" textLength="34" x="13" y="255.2339">-eMail</text><text fill="#000000" font-family="sans-serif" font-size="11" lengthAdjust="spacing" textLength="224" x="13" y="268.0386">-standardOcupationalClassificationCode</text><line style="stroke:#A80036;stroke-width:1.5;" x1="8" x2="242" y1="274.6328" y2="274.6328"/><!--MD5=[052425de1c0eb6cc1c1b48342b0bb88f]
class LaboratoryCoordinator--><rect codeLine="15" fill="#FEFECE" filter="url(#f1r86ch4hp6h5u)" height="137.6328" id="LaboratoryCoordinator" style="stroke:#A80036;stroke-width:1.5;" width="236" x="7" y="360"/><ellipse cx="52.75" cy="376" fill="#ADD1B2" rx="11" ry="11" style="stroke:#A80036;stroke-width:1.0;"/><path d="M55.0938,371.6719 C54.1563,371.2344 53.5625,371.0938 52.6875,371.0938 C50.0625,371.0938 48.0625,373.1719 48.0625,375.8906 L48.0625,377.0156 C48.0625,379.5938 50.1719,381.4844 53.0625,381.4844 C54.2813,381.4844 55.4375,381.1875 56.1875,380.6406 C56.7656,380.2344 57.0938,379.7813 57.0938,379.3906 C57.0938,378.9375 56.7031,378.5469 56.2344,378.5469 C56.0156,378.5469 55.8125,378.625 55.625,378.8125 C55.1719,379.2969 55.1719,379.2969 54.9844,379.3906 C54.5625,379.6563 53.875,379.7813 53.1094,379.7813 C51.0625,379.7813 49.7656,378.6875 49.7656,376.9844 L49.7656,375.8906 C49.7656,374.1094 51.0156,372.7969 52.75,372.7969 C53.3281,372.7969 53.9375,372.9531 54.4063,373.2031 C54.8906,373.4844 55.0625,373.7031 55.1563,374.1094 C55.2188,374.5156 55.25,374.6406 55.3906,374.7656 C55.5313,374.9063 55.7656,375.0156 55.9844,375.0156 C56.25,375.0156 56.5156,374.875 56.6875,374.6563 C56.7969,374.5 56.8281,374.3125 56.8281,373.8906 L56.8281,372.4688 C56.8281,372.0313 56.8125,371.9063 56.7188,371.75 C56.5625,371.4844 56.2813,371.3438 55.9844,371.3438 C55.6875,371.3438 55.4844,371.4375 55.2656,371.75 L55.0938,371.6719 Z " fill="#000000"/><text fill="#000000" font-family="sans-serif" font-size="12" lengthAdjust="spacing" textLength="136" x="73.25" y="380.1543">LaboratoryCoordinator</text><line style="stroke:#A80036;stroke-width:1.5;" x1="8" x2="242" y1="392" y2="392"/><text fill="#000000" font-family="sans-serif" font-size="11" lengthAdjust="spacing" textLength="75" x="13" y="406.2104">-employeeID</text><text fill="#000000" font-family="sans-serif" font-size="11" lengthAdjust="spacing" textLength="99" x="13" y="419.0151">-organizationRole</text><text fill="#000000" font-family="sans-serif" font-size="11" lengthAdjust="spacing" textLength="37" x="13" y="431.8198">-name</text><text fill="#000000" font-family="sans-serif" font-size="11" lengthAdjust="spacing" textLength="49" x="13" y="444.6245">-address</text><text fill="#000000" font-family="sans-serif" font-size="11" lengthAdjust="spacing" textLength="85" x="13" y="457.4292">-phoneNumber</text><text fill="#000000" font-family="sans-serif" font-size="11" lengthAdjust="spacing" textLength="34" x="13" y="470.2339">-eMail</text><text fill="#000000" font-family="sans-serif" font-size="11" lengthAdjust="spacing" textLength="224" x="13" y="483.0386">-standardOcupationalClassificationCode</text><line style="stroke:#A80036;stroke-width:1.5;" x1="8" x2="242" y1="489.6328" y2="489.6328"/><!--MD5=[f00dbe8c0302c6aec2cb26b3c659c8fc]
class Report--><rect codeLine="25" fill="#FEFECE" filter="url(#f1r86ch4hp6h5u)" height="60.8047" id="Report" style="stroke:#A80036;stroke-width:1.5;" width="83" x="278.5" y="398.5"/><ellipse cx="298.45" cy="414.5" fill="#ADD1B2" rx="11" ry="11" style="stroke:#A80036;stroke-width:1.0;"/><path d="M300.7938,410.1719 C299.8563,409.7344 299.2625,409.5938 298.3875,409.5938 C295.7625,409.5938 293.7625,411.6719 293.7625,414.3906 L293.7625,415.5156 C293.7625,418.0938 295.8719,419.9844 298.7625,419.9844 C299.9813,419.9844 301.1375,419.6875 301.8875,419.1406 C302.4656,418.7344 302.7938,418.2813 302.7938,417.8906 C302.7938,417.4375 302.4031,417.0469 301.9344,417.0469 C301.7156,417.0469 301.5125,417.125 301.325,417.3125 C300.8719,417.7969 300.8719,417.7969 300.6844,417.8906 C300.2625,418.1563 299.575,418.2813 298.8094,418.2813 C296.7625,418.2813 295.4656,417.1875 295.4656,415.4844 L295.4656,414.3906 C295.4656,412.6094 296.7156,411.2969 298.45,411.2969 C299.0281,411.2969 299.6375,411.4531 300.1063,411.7031 C300.5906,411.9844 300.7625,412.2031 300.8563,412.6094 C300.9188,413.0156 300.95,413.1406 301.0906,413.2656 C301.2313,413.4063 301.4656,413.5156 301.6844,413.5156 C301.95,413.5156 302.2156,413.375 302.3875,413.1563 C302.4969,413 302.5281,412.8125 302.5281,412.3906 L302.5281,410.9688 C302.5281,410.5313 302.5125,410.4063 302.4188,410.25 C302.2625,409.9844 301.9813,409.8438 301.6844,409.8438 C301.3875,409.8438 301.1844,409.9375 300.9656,410.25 L300.7938,410.1719 Z " fill="#000000"/><text fill="#000000" font-family="sans-serif" font-size="12" lengthAdjust="spacing" textLength="40" x="313.55" y="418.6543">Report</text><line style="stroke:#A80036;stroke-width:1.5;" x1="279.5" x2="360.5" y1="430.5" y2="430.5"/><text fill="#000000" font-family="sans-serif" font-size="11" lengthAdjust="spacing" textLength="71" x="284.5" y="444.7104">-bodyOfText</text><line style="stroke:#A80036;stroke-width:1.5;" x1="279.5" x2="360.5" y1="451.3047" y2="451.3047"/><!--MD5=[df38be88ccee13e832d6fafd6288a4ca]
class Test--><rect codeLine="29" fill="#FEFECE" filter="url(#f1r86ch4hp6h5u)" height="73.6094" id="Test" style="stroke:#A80036;stroke-width:1.5;" width="68" x="401" y="575"/><ellipse cx="420.5" cy="591" fill="#ADD1B2" rx="11" ry="11" style="stroke:#A80036;stroke-width:1.0;"/><path d="M422.8438,586.6719 C421.9063,586.2344 421.3125,586.0938 420.4375,586.0938 C417.8125,586.0938 415.8125,588.1719 415.8125,590.8906 L415.8125,592.0156 C415.8125,594.5938 417.9219,596.4844 420.8125,596.4844 C422.0313,596.4844 423.1875,596.1875 423.9375,595.6406 C424.5156,595.2344 424.8438,594.7813 424.8438,594.3906 C424.8438,593.9375 424.4531,593.5469 423.9844,593.5469 C423.7656,593.5469 423.5625,593.625 423.375,593.8125 C422.9219,594.2969 422.9219,594.2969 422.7344,594.3906 C422.3125,594.6563 421.625,594.7813 420.8594,594.7813 C418.8125,594.7813 417.5156,593.6875 417.5156,591.9844 L417.5156,590.8906 C417.5156,589.1094 418.7656,587.7969 420.5,587.7969 C421.0781,587.7969 421.6875,587.9531 422.1563,588.2031 C422.6406,588.4844 422.8125,588.7031 422.9063,589.1094 C422.9688,589.5156 423,589.6406 423.1406,589.7656 C423.2813,589.9063 423.5156,590.0156 423.7344,590.0156 C424,590.0156 424.2656,589.875 424.4375,589.6563 C424.5469,589.5 424.5781,589.3125 424.5781,588.8906 L424.5781,587.4688 C424.5781,587.0313 424.5625,586.9063 424.4688,586.75 C424.3125,586.4844 424.0313,586.3438 423.7344,586.3438 C423.4375,586.3438 423.2344,586.4375 423.0156,586.75 L422.8438,586.6719 Z " fill="#000000"/><text fill="#000000" font-family="sans-serif" font-size="12" lengthAdjust="spacing" textLength="26" x="435.5" y="595.1543">Test</text><line style="stroke:#A80036;stroke-width:1.5;" x1="402" x2="468" y1="607" y2="607"/><text fill="#000000" font-family="sans-serif" font-size="11" lengthAdjust="spacing" textLength="56" x="407" y="621.2104">-testCode</text><text fill="#000000" font-family="sans-serif" font-size="11" lengthAdjust="spacing" textLength="54" x="407" y="634.0151">-nhsCode</text><line style="stroke:#A80036;stroke-width:1.5;" x1="402" x2="468" y1="640.6094" y2="640.6094"/><!--MD5=[9681492165142af2a4a3a169d90ee8d4]
class Sample--><rect codeLine="34" fill="#FEFECE" filter="url(#f1r86ch4hp6h5u)" height="73.6094" id="Sample" style="stroke:#A80036;stroke-width:1.5;" width="77" x="396.5" y="392"/><ellipse cx="411.5" cy="408" fill="#ADD1B2" rx="11" ry="11" style="stroke:#A80036;stroke-width:1.0;"/><path d="M413.8438,403.6719 C412.9063,403.2344 412.3125,403.0938 411.4375,403.0938 C408.8125,403.0938 406.8125,405.1719 406.8125,407.8906 L406.8125,409.0156 C406.8125,411.5938 408.9219,413.4844 411.8125,413.4844 C413.0313,413.4844 414.1875,413.1875 414.9375,412.6406 C415.5156,412.2344 415.8438,411.7813 415.8438,411.3906 C415.8438,410.9375 415.4531,410.5469 414.9844,410.5469 C414.7656,410.5469 414.5625,410.625 414.375,410.8125 C413.9219,411.2969 413.9219,411.2969 413.7344,411.3906 C413.3125,411.6563 412.625,411.7813 411.8594,411.7813 C409.8125,411.7813 408.5156,410.6875 408.5156,408.9844 L408.5156,407.8906 C408.5156,406.1094 409.7656,404.7969 411.5,404.7969 C412.0781,404.7969 412.6875,404.9531 413.1563,405.2031 C413.6406,405.4844 413.8125,405.7031 413.9063,406.1094 C413.9688,406.5156 414,406.6406 414.1406,406.7656 C414.2813,406.9063 414.5156,407.0156 414.7344,407.0156 C415,407.0156 415.2656,406.875 415.4375,406.6563 C415.5469,406.5 415.5781,406.3125 415.5781,405.8906 L415.5781,404.4688 C415.5781,404.0313 415.5625,403.9063 415.4688,403.75 C415.3125,403.4844 415.0313,403.3438 414.7344,403.3438 C414.4375,403.3438 414.2344,403.4375 414.0156,403.75 L413.8438,403.6719 Z " fill="#000000"/><text fill="#000000" font-family="sans-serif" font-size="12" lengthAdjust="spacing" textLength="45" x="425.5" y="412.1543">Sample</text><line style="stroke:#A80036;stroke-width:1.5;" x1="397.5" x2="472.5" y1="424" y2="424"/><text fill="#000000" font-family="sans-serif" font-size="11" lengthAdjust="spacing" textLength="50" x="402.5" y="438.2104">-barcode</text><text fill="#000000" font-family="sans-serif" font-size="11" lengthAdjust="spacing" textLength="30" x="402.5" y="451.0151">-date</text><line style="stroke:#A80036;stroke-width:1.5;" x1="397.5" x2="472.5" y1="457.6094" y2="457.6094"/><!--MD5=[aeb3272166074d8737a70b61b1e71682]
class TestType--><rect codeLine="39" fill="#FEFECE" filter="url(#f1r86ch4hp6h5u)" height="86.4141" id="TestType" style="stroke:#A80036;stroke-width:1.5;" width="112" x="509" y="386"/><ellipse cx="534.8" cy="402" fill="#ADD1B2" rx="11" ry="11" style="stroke:#A80036;stroke-width:1.0;"/><path d="M537.1438,397.6719 C536.2063,397.2344 535.6125,397.0938 534.7375,397.0938 C532.1125,397.0938 530.1125,399.1719 530.1125,401.8906 L530.1125,403.0156 C530.1125,405.5938 532.2219,407.4844 535.1125,407.4844 C536.3313,407.4844 537.4875,407.1875 538.2375,406.6406 C538.8156,406.2344 539.1438,405.7813 539.1438,405.3906 C539.1438,404.9375 538.7531,404.5469 538.2844,404.5469 C538.0656,404.5469 537.8625,404.625 537.675,404.8125 C537.2219,405.2969 537.2219,405.2969 537.0344,405.3906 C536.6125,405.6563 535.925,405.7813 535.1594,405.7813 C533.1125,405.7813 531.8156,404.6875 531.8156,402.9844 L531.8156,401.8906 C531.8156,400.1094 533.0656,398.7969 534.8,398.7969 C535.3781,398.7969 535.9875,398.9531 536.4563,399.2031 C536.9406,399.4844 537.1125,399.7031 537.2063,400.1094 C537.2688,400.5156 537.3,400.6406 537.4406,400.7656 C537.5813,400.9063 537.8156,401.0156 538.0344,401.0156 C538.3,401.0156 538.5656,400.875 538.7375,400.6563 C538.8469,400.5 538.8781,400.3125 538.8781,399.8906 L538.8781,398.4688 C538.8781,398.0313 538.8625,397.9063 538.7688,397.75 C538.6125,397.4844 538.3313,397.3438 538.0344,397.3438 C537.7375,397.3438 537.5344,397.4375 537.3156,397.75 L537.1438,397.6719 Z " fill="#000000"/><text fill="#000000" font-family="sans-serif" font-size="12" lengthAdjust="spacing" textLength="56" x="551.2" y="406.1543">TestType</text><line style="stroke:#A80036;stroke-width:1.5;" x1="510" x2="620" y1="418" y2="418"/><text fill="#000000" font-family="sans-serif" font-size="11" lengthAdjust="spacing" textLength="32" x="515" y="432.2104">-code</text><text fill="#000000" font-family="sans-serif" font-size="11" lengthAdjust="spacing" textLength="66" x="515" y="445.0151">-description</text><text fill="#000000" font-family="sans-serif" font-size="11" lengthAdjust="spacing" textLength="100" x="515" y="457.8198">-collectionMethod</text><line style="stroke:#A80036;stroke-width:1.5;" x1="510" x2="620" y1="464.4141" y2="464.4141"/><!--MD5=[5e6ae5ca2322ea7d8c17b0187d1bbc44]
class TestResults--><rect codeLine="45" fill="#FEFECE" filter="url(#f1r86ch4hp6h5u)" height="60.8047" id="TestResults" style="stroke:#A80036;stroke-width:1.5;" width="117" x="656.5" y="398.5"/><ellipse cx="678.7" cy="414.5" fill="#ADD1B2" rx="11" ry="11" style="stroke:#A80036;stroke-width:1.0;"/><path d="M681.0438,410.1719 C680.1063,409.7344 679.5125,409.5938 678.6375,409.5938 C676.0125,409.5938 674.0125,411.6719 674.0125,414.3906 L674.0125,415.5156 C674.0125,418.0938 676.1219,419.9844 679.0125,419.9844 C680.2313,419.9844 681.3875,419.6875 682.1375,419.1406 C682.7156,418.7344 683.0438,418.2813 683.0438,417.8906 C683.0438,417.4375 682.6531,417.0469 682.1844,417.0469 C681.9656,417.0469 681.7625,417.125 681.575,417.3125 C681.1219,417.7969 681.1219,417.7969 680.9344,417.8906 C680.5125,418.1563 679.825,418.2813 679.0594,418.2813 C677.0125,418.2813 675.7156,417.1875 675.7156,415.4844 L675.7156,414.3906 C675.7156,412.6094 676.9656,411.2969 678.7,411.2969 C679.2781,411.2969 679.8875,411.4531 680.3563,411.7031 C680.8406,411.9844 681.0125,412.2031 681.1063,412.6094 C681.1688,413.0156 681.2,413.1406 681.3406,413.2656 C681.4813,413.4063 681.7156,413.5156 681.9344,413.5156 C682.2,413.5156 682.4656,413.375 682.6375,413.1563 C682.7469,413 682.7781,412.8125 682.7781,412.3906 L682.7781,410.9688 C682.7781,410.5313 682.7625,410.4063 682.6688,410.25 C682.5125,409.9844 682.2313,409.8438 681.9344,409.8438 C681.6375,409.8438 681.4344,409.9375 681.2156,410.25 L681.0438,410.1719 Z " fill="#000000"/><text fill="#000000" font-family="sans-serif" font-size="12" lengthAdjust="spacing" textLength="69" x="694.3" y="418.6543">TestResults</text><line style="stroke:#A80036;stroke-width:1.5;" x1="657.5" x2="772.5" y1="430.5" y2="430.5"/><text fill="#000000" font-family="sans-serif" font-size="11" lengthAdjust="spacing" textLength="105" x="662.5" y="444.7104">-parameterResults</text><line style="stroke:#A80036;stroke-width:1.5;" x1="657.5" x2="772.5" y1="451.3047" y2="451.3047"/><!--MD5=[fe28b095a1a99c1f24c8c2245ad2ba4f]
link LaboratoryCoordinator to Test--><path codeLine="49" d="M215.208,498.267 C238.364,514.49 263.631,531.105 288,545 C323.294,565.1244 365.853,583.6566 396.075,595.9264 " fill="none" id="LaboratoryCoordinator-to-Test" style="stroke:#A80036;stroke-width:1.0;"/><polygon fill="#A80036" points="400.817,597.8411,393.9704,590.7612,396.181,595.9683,390.9739,598.1789,400.817,597.8411" style="stroke:#A80036;stroke-width:1.0;"/><text fill="#000000" font-family="sans-serif" font-size="13" lengthAdjust="spacing" textLength="64" x="289" y="541.0669">can check</text><text fill="#000000" font-family="sans-serif" font-size="13" lengthAdjust="spacing" textLength="8" x="215.4247" y="517.6746">1</text><text fill="#000000" font-family="sans-serif" font-size="13" lengthAdjust="spacing" textLength="7" x="386.0449" y="590.4948">*</text><!--MD5=[12189d12e156ffd517416dd9dd697e80]
reverse link Report to Test--><path codeLine="50" d="M331.737,464.764 C340.602,488.474 354.117,519.987 371,545 C379.483,557.568 390.483,569.8971 400.965,580.4338 " fill="none" id="Report-backto-Test" style="stroke:#A80036;stroke-width:1.0;"/><polygon fill="#A80036" points="329.917,459.828,329.2779,469.6561,331.6469,464.5192,336.7838,466.8882,329.917,459.828" style="stroke:#A80036;stroke-width:1.0;"/><text fill="#000000" font-family="sans-serif" font-size="13" lengthAdjust="spacing" textLength="54" x="372" y="541.0669">contains</text><text fill="#000000" font-family="sans-serif" font-size="13" lengthAdjust="spacing" textLength="8" x="323.0819" y="479.473">1</text><text fill="#000000" font-family="sans-serif" font-size="13" lengthAdjust="spacing" textLength="8" x="385.1203" y="569.4973">1</text><!--MD5=[655f63077aed01c40b57658640a9dadc]
reverse link Sample to Test--><path codeLine="51" d="M435,471.493 C435,502.703 435,545.045 435,574.8697 " fill="none" id="Sample-backto-Test" style="stroke:#A80036;stroke-width:1.0;"/><polygon fill="#A80036" points="435,466.193,431,475.193,435,471.193,439,475.193,435,466.193" style="stroke:#A80036;stroke-width:1.0;"/><text fill="#000000" font-family="sans-serif" font-size="13" lengthAdjust="spacing" textLength="54" x="436" y="541.0669">contains</text><text fill="#000000" font-family="sans-serif" font-size="13" lengthAdjust="spacing" textLength="7" x="427.4203" y="485.7055">*</text><text fill="#000000" font-family="sans-serif" font-size="13" lengthAdjust="spacing" textLength="8" x="426.2875" y="564.0334">1</text><!--MD5=[4684b8ea66311c67938480c95729e548]
reverse link TestType to Test--><path codeLine="52" d="M541.716,476.556 C530.061,498.162 515.032,523.713 499,545 C490.166,556.7294 479.416,568.5523 469.268,578.8865 " fill="none" id="TestType-backto-Test" style="stroke:#A80036;stroke-width:1.0;"/><polygon fill="#A80036" points="544.151,472.008,536.3761,478.0538,541.7906,476.4158,543.4286,481.8303,544.151,472.008" style="stroke:#A80036;stroke-width:1.0;"/><text fill="#000000" font-family="sans-serif" font-size="13" lengthAdjust="spacing" textLength="54" x="511" y="541.0669">contains</text><text fill="#000000" font-family="sans-serif" font-size="13" lengthAdjust="spacing" textLength="7" x="533.1182" y="492.417">*</text><text fill="#000000" font-family="sans-serif" font-size="13" lengthAdjust="spacing" textLength="8" x="477.1608" y="567.6308">1</text><!--MD5=[a3c2faceed5130c0fd6639dc954fdf77]
reverse link TestResults to Test--><path codeLine="53" d="M678.715,463.243 C666.044,474.528 651.59,487.045 638,498 C610.524,520.147 604.299,526.905 574,545 C539.597,565.5458 497.788,584.6738 469.063,596.9916 " fill="none" id="TestResults-backto-Test" style="stroke:#A80036;stroke-width:1.0;"/><polygon fill="#A80036" points="682.587,459.784,673.2106,462.7977,678.8585,463.1154,678.5408,468.7633,682.587,459.784" style="stroke:#A80036;stroke-width:1.0;"/><text fill="#000000" font-family="sans-serif" font-size="13" lengthAdjust="spacing" textLength="54" x="601" y="541.0669">contains</text><text fill="#000000" font-family="sans-serif" font-size="13" lengthAdjust="spacing" textLength="7" x="668.5166" y="479.4204">*</text><text fill="#000000" font-family="sans-serif" font-size="13" lengthAdjust="spacing" textLength="8" x="476.9135" y="589.4701">1</text><!--MD5=[895b5d6471ae6b8c5e8b65346cbf0c43]
link Administrator to LaboratoryCoordinator--><path codeLine="54" d="M125,283.273 C125,306.012 125,331.431 125,354.545 " fill="none" id="Administrator-to-LaboratoryCoordinator" style="stroke:#A80036;stroke-width:1.0;"/><polygon fill="#A80036" points="125,359.748,129,350.748,125,354.748,121,350.748,125,359.748" style="stroke:#A80036;stroke-width:1.0;"/><text fill="#000000" font-family="sans-serif" font-size="13" lengthAdjust="spacing" textLength="56" x="126" y="326.0669">registers</text><text fill="#000000" font-family="sans-serif" font-size="13" lengthAdjust="spacing" textLength="8" x="116.6188" y="302.6811">1</text><text fill="#000000" font-family="sans-serif" font-size="13" lengthAdjust="spacing" textLength="7" x="117.6391" y="348.9256">*</text><!--MD5=[eaea43e34e45c5b9d20b595fc78f1f20]
link Company to Administrator--><path codeLine="55" d="M125,68.102 C125,87.792 125,114.573 125,139.756 " fill="none" id="Company-to-Administrator" style="stroke:#A80036;stroke-width:1.0;"/><polygon fill="#A80036" points="125,144.768,129,135.768,125,139.768,121,135.768,125,144.768" style="stroke:#A80036;stroke-width:1.0;"/><text fill="#000000" font-family="sans-serif" font-size="13" lengthAdjust="spacing" textLength="41" x="126" y="111.0669">knows</text><text fill="#000000" font-family="sans-serif" font-size="13" lengthAdjust="spacing" textLength="8" x="116.175" y="88.0613">1</text><text fill="#000000" font-family="sans-serif" font-size="13" lengthAdjust="spacing" textLength="8" x="116.5875" y="133.9477">1</text><!--MD5=[2f2034d8c341f606b3f62c4dfccae01f]
@startuml
class Company
skinparam classAttributeIconSize 0
Company : -designation

Class Administrator{
-employeeID
-organizationRole
-name
-address
-phoneNumber
-eMail
-standardOcupationalClassificationCode
}

Class LaboratoryCoordinator{
-employeeID
-organizationRole
-name
-address
-phoneNumber
-eMail
-standardOcupationalClassificationCode
}

Class Report{
-bodyOfText
}

Class Test{
-testCode
-nhsCode
}

Class Sample{
-barcode
-date
}

Class TestType{
-code
-description
-collectionMethod
}

Class TestResults{
-parameterResults
}

LaboratoryCoordinator"1" - -> "*" Test : can check
Report"1" <- - "1" Test: contains
Sample"*" <- - "1" Test: contains
TestType"*" <- - "1" Test: contains
TestResults"*" <- - "1" Test: contains
Administrator "1" - -> "*" LaboratoryCoordinator: registers
Company "1" - -> "1" Administrator : knows
@enduml

PlantUML version 1.2021.7(Sun May 23 12:40:07 UTC 2021)
(GPL source distribution)
Java Runtime: Java(TM) SE Runtime Environment
JVM: Java HotSpot(TM) 64-Bit Server VM
Default Encoding: UTF-8
Language: en
Country: US
--></g></svg>