<?xml version="1.0" encoding="UTF-8" standalone="no"?><svg xmlns="http://www.w3.org/2000/svg" xmlns:xlink="http://www.w3.org/1999/xlink" contentScriptType="application/ecmascript" contentStyleType="text/css" height="2131px" preserveAspectRatio="none" style="width:1266px;height:2131px;" version="1.1" viewBox="0 0 1266 2131" width="1266px" zoomAndPan="magnify"><defs><filter height="300%" id="fet6qi7vdw3h5" width="300%" x="-1" y="-1"><feGaussianBlur result="blurOut" stdDeviation="2.0"/><feColorMatrix in="blurOut" result="blurOut2" type="matrix" values="0 0 0 0 0 0 0 0 0 0 0 0 0 0 0 0 0 0 .4 0"/><feOffset dx="4.0" dy="4.0" in="blurOut2" result="blurOut3"/><feBlend in="SourceGraphic" in2="blurOut3" mode="normal"/></filter></defs><g><!--MD5=[02e4b9b7573f1156f41e60aa5b4e25a4]
class Company--><rect codeLine="1" fill="#FEFECE" filter="url(#fet6qi7vdw3h5)" height="60.8047" id="Company" style="stroke:#A80036;stroke-width:1.5;" width="88" x="135" y="1367.5"/><ellipse cx="150" cy="1383.5" fill="#ADD1B2" rx="11" ry="11" style="stroke:#A80036;stroke-width:1.0;"/><path d="M152.3438,1379.1719 C151.4063,1378.7344 150.8125,1378.5938 149.9375,1378.5938 C147.3125,1378.5938 145.3125,1380.6719 145.3125,1383.3906 L145.3125,1384.5156 C145.3125,1387.0938 147.4219,1388.9844 150.3125,1388.9844 C151.5313,1388.9844 152.6875,1388.6875 153.4375,1388.1406 C154.0156,1387.7344 154.3438,1387.2813 154.3438,1386.8906 C154.3438,1386.4375 153.9531,1386.0469 153.4844,1386.0469 C153.2656,1386.0469 153.0625,1386.125 152.875,1386.3125 C152.4219,1386.7969 152.4219,1386.7969 152.2344,1386.8906 C151.8125,1387.1563 151.125,1387.2813 150.3594,1387.2813 C148.3125,1387.2813 147.0156,1386.1875 147.0156,1384.4844 L147.0156,1383.3906 C147.0156,1381.6094 148.2656,1380.2969 150,1380.2969 C150.5781,1380.2969 151.1875,1380.4531 151.6563,1380.7031 C152.1406,1380.9844 152.3125,1381.2031 152.4063,1381.6094 C152.4688,1382.0156 152.5,1382.1406 152.6406,1382.2656 C152.7813,1382.4063 153.0156,1382.5156 153.2344,1382.5156 C153.5,1382.5156 153.7656,1382.375 153.9375,1382.1563 C154.0469,1382 154.0781,1381.8125 154.0781,1381.3906 L154.0781,1379.9688 C154.0781,1379.5313 154.0625,1379.4063 153.9688,1379.25 C153.8125,1378.9844 153.5313,1378.8438 153.2344,1378.8438 C152.9375,1378.8438 152.7344,1378.9375 152.5156,1379.25 L152.3438,1379.1719 Z " fill="#000000"/><text fill="#000000" font-family="sans-serif" font-size="12" lengthAdjust="spacing" textLength="56" x="164" y="1387.6543">Company</text><line style="stroke:#A80036;stroke-width:1.5;" x1="136" x2="222" y1="1399.5" y2="1399.5"/><text fill="#000000" font-family="sans-serif" font-size="11" lengthAdjust="spacing" textLength="70" x="141" y="1413.7104">-designation</text><line style="stroke:#A80036;stroke-width:1.5;" x1="136" x2="222" y1="1420.3047" y2="1420.3047"/><!--MD5=[6a75aabe243bf57969b899a1c4169ff1]
class ClinicalAnalysisLaboratories--><rect codeLine="4" fill="#FEFECE" filter="url(#fet6qi7vdw3h5)" height="112.0234" id="ClinicalAnalysisLaboratories" style="stroke:#A80036;stroke-width:1.5;" width="198" x="175" y="1134"/><ellipse cx="190" cy="1150" fill="#ADD1B2" rx="11" ry="11" style="stroke:#A80036;stroke-width:1.0;"/><path d="M192.3438,1145.6719 C191.4063,1145.2344 190.8125,1145.0938 189.9375,1145.0938 C187.3125,1145.0938 185.3125,1147.1719 185.3125,1149.8906 L185.3125,1151.0156 C185.3125,1153.5938 187.4219,1155.4844 190.3125,1155.4844 C191.5313,1155.4844 192.6875,1155.1875 193.4375,1154.6406 C194.0156,1154.2344 194.3438,1153.7813 194.3438,1153.3906 C194.3438,1152.9375 193.9531,1152.5469 193.4844,1152.5469 C193.2656,1152.5469 193.0625,1152.625 192.875,1152.8125 C192.4219,1153.2969 192.4219,1153.2969 192.2344,1153.3906 C191.8125,1153.6563 191.125,1153.7813 190.3594,1153.7813 C188.3125,1153.7813 187.0156,1152.6875 187.0156,1150.9844 L187.0156,1149.8906 C187.0156,1148.1094 188.2656,1146.7969 190,1146.7969 C190.5781,1146.7969 191.1875,1146.9531 191.6563,1147.2031 C192.1406,1147.4844 192.3125,1147.7031 192.4063,1148.1094 C192.4688,1148.5156 192.5,1148.6406 192.6406,1148.7656 C192.7813,1148.9063 193.0156,1149.0156 193.2344,1149.0156 C193.5,1149.0156 193.7656,1148.875 193.9375,1148.6563 C194.0469,1148.5 194.0781,1148.3125 194.0781,1147.8906 L194.0781,1146.4688 C194.0781,1146.0313 194.0625,1145.9063 193.9688,1145.75 C193.8125,1145.4844 193.5313,1145.3438 193.2344,1145.3438 C192.9375,1145.3438 192.7344,1145.4375 192.5156,1145.75 L192.3438,1145.6719 Z " fill="#000000"/><text fill="#000000" font-family="sans-serif" font-size="12" lengthAdjust="spacing" textLength="166" x="204" y="1154.1543">ClinicalAnalysisLaboratories</text><line style="stroke:#A80036;stroke-width:1.5;" x1="176" x2="372" y1="1166" y2="1166"/><text fill="#000000" font-family="sans-serif" font-size="11" lengthAdjust="spacing" textLength="73" x="181" y="1180.2104">-laboratoryID</text><text fill="#000000" font-family="sans-serif" font-size="11" lengthAdjust="spacing" textLength="49" x="181" y="1193.0151">-address</text><text fill="#000000" font-family="sans-serif" font-size="11" lengthAdjust="spacing" textLength="37" x="181" y="1205.8198">-name</text><text fill="#000000" font-family="sans-serif" font-size="11" lengthAdjust="spacing" textLength="85" x="181" y="1218.6245">-phoneNumber</text><text fill="#000000" font-family="sans-serif" font-size="11" lengthAdjust="spacing" textLength="63" x="181" y="1231.4292">-tinNumber</text><line style="stroke:#A80036;stroke-width:1.5;" x1="176" x2="372" y1="1238.0234" y2="1238.0234"/><!--MD5=[a64badb107d3691f2dc6af242cdbeb21]
class ChemicalLaboratory--><rect codeLine="12" fill="#FEFECE" filter="url(#fet6qi7vdw3h5)" height="99.2188" id="ChemicalLaboratory" style="stroke:#A80036;stroke-width:1.5;" width="151" x="387.5" y="548"/><ellipse cx="402.5" cy="564" fill="#ADD1B2" rx="11" ry="11" style="stroke:#A80036;stroke-width:1.0;"/><path d="M404.8438,559.6719 C403.9063,559.2344 403.3125,559.0938 402.4375,559.0938 C399.8125,559.0938 397.8125,561.1719 397.8125,563.8906 L397.8125,565.0156 C397.8125,567.5938 399.9219,569.4844 402.8125,569.4844 C404.0313,569.4844 405.1875,569.1875 405.9375,568.6406 C406.5156,568.2344 406.8438,567.7813 406.8438,567.3906 C406.8438,566.9375 406.4531,566.5469 405.9844,566.5469 C405.7656,566.5469 405.5625,566.625 405.375,566.8125 C404.9219,567.2969 404.9219,567.2969 404.7344,567.3906 C404.3125,567.6563 403.625,567.7813 402.8594,567.7813 C400.8125,567.7813 399.5156,566.6875 399.5156,564.9844 L399.5156,563.8906 C399.5156,562.1094 400.7656,560.7969 402.5,560.7969 C403.0781,560.7969 403.6875,560.9531 404.1563,561.2031 C404.6406,561.4844 404.8125,561.7031 404.9063,562.1094 C404.9688,562.5156 405,562.6406 405.1406,562.7656 C405.2813,562.9063 405.5156,563.0156 405.7344,563.0156 C406,563.0156 406.2656,562.875 406.4375,562.6563 C406.5469,562.5 406.5781,562.3125 406.5781,561.8906 L406.5781,560.4688 C406.5781,560.0313 406.5625,559.9063 406.4688,559.75 C406.3125,559.4844 406.0313,559.3438 405.7344,559.3438 C405.4375,559.3438 405.2344,559.4375 405.0156,559.75 L404.8438,559.6719 Z " fill="#000000"/><text fill="#000000" font-family="sans-serif" font-size="12" lengthAdjust="spacing" textLength="119" x="416.5" y="568.1543">ChemicalLaboratory</text><line style="stroke:#A80036;stroke-width:1.5;" x1="388.5" x2="537.5" y1="580" y2="580"/><text fill="#000000" font-family="sans-serif" font-size="11" lengthAdjust="spacing" textLength="49" x="393.5" y="594.2104">-address</text><text fill="#000000" font-family="sans-serif" font-size="11" lengthAdjust="spacing" textLength="37" x="393.5" y="607.0151">-name</text><text fill="#000000" font-family="sans-serif" font-size="11" lengthAdjust="spacing" textLength="85" x="393.5" y="619.8198">-phoneNumber</text><text fill="#000000" font-family="sans-serif" font-size="11" lengthAdjust="spacing" textLength="63" x="393.5" y="632.6245">-tinNumber</text><line style="stroke:#A80036;stroke-width:1.5;" x1="388.5" x2="537.5" y1="639.2188" y2="639.2188"/><!--MD5=[ed6624c6556d5e7b1bd23032162d20b7]
class Client--><rect codeLine="18" fill="#FEFECE" filter="url(#fet6qi7vdw3h5)" height="150.4375" id="Client" style="stroke:#A80036;stroke-width:1.5;" width="97" x="489.5" y="1323"/><ellipse cx="518.9" cy="1339" fill="#ADD1B2" rx="11" ry="11" style="stroke:#A80036;stroke-width:1.0;"/><path d="M521.2438,1334.6719 C520.3063,1334.2344 519.7125,1334.0938 518.8375,1334.0938 C516.2125,1334.0938 514.2125,1336.1719 514.2125,1338.8906 L514.2125,1340.0156 C514.2125,1342.5938 516.3219,1344.4844 519.2125,1344.4844 C520.4313,1344.4844 521.5875,1344.1875 522.3375,1343.6406 C522.9156,1343.2344 523.2438,1342.7813 523.2438,1342.3906 C523.2438,1341.9375 522.8531,1341.5469 522.3844,1341.5469 C522.1656,1341.5469 521.9625,1341.625 521.775,1341.8125 C521.3219,1342.2969 521.3219,1342.2969 521.1344,1342.3906 C520.7125,1342.6563 520.025,1342.7813 519.2594,1342.7813 C517.2125,1342.7813 515.9156,1341.6875 515.9156,1339.9844 L515.9156,1338.8906 C515.9156,1337.1094 517.1656,1335.7969 518.9,1335.7969 C519.4781,1335.7969 520.0875,1335.9531 520.5563,1336.2031 C521.0406,1336.4844 521.2125,1336.7031 521.3063,1337.1094 C521.3688,1337.5156 521.4,1337.6406 521.5406,1337.7656 C521.6813,1337.9063 521.9156,1338.0156 522.1344,1338.0156 C522.4,1338.0156 522.6656,1337.875 522.8375,1337.6563 C522.9469,1337.5 522.9781,1337.3125 522.9781,1336.8906 L522.9781,1335.4688 C522.9781,1335.0313 522.9625,1334.9063 522.8688,1334.75 C522.7125,1334.4844 522.4313,1334.3438 522.1344,1334.3438 C521.8375,1334.3438 521.6344,1334.4375 521.4156,1334.75 L521.2438,1334.6719 Z " fill="#000000"/><text fill="#000000" font-family="sans-serif" font-size="12" lengthAdjust="spacing" textLength="33" x="536.1" y="1343.1543">Client</text><line style="stroke:#A80036;stroke-width:1.5;" x1="490.5" x2="585.5" y1="1355" y2="1355"/><text fill="#000000" font-family="sans-serif" font-size="11" lengthAdjust="spacing" textLength="23" x="495.5" y="1369.2104">-ccn</text><text fill="#000000" font-family="sans-serif" font-size="11" lengthAdjust="spacing" textLength="37" x="495.5" y="1382.0151">-name</text><text fill="#000000" font-family="sans-serif" font-size="11" lengthAdjust="spacing" textLength="69" x="495.5" y="1394.8198">-nhsNumber</text><text fill="#000000" font-family="sans-serif" font-size="11" lengthAdjust="spacing" textLength="57" x="495.5" y="1407.6245">-birthDate</text><text fill="#000000" font-family="sans-serif" font-size="11" lengthAdjust="spacing" textLength="25" x="495.5" y="1420.4292">-sex</text><text fill="#000000" font-family="sans-serif" font-size="11" lengthAdjust="spacing" textLength="15" x="495.5" y="1433.2339">-tif</text><text fill="#000000" font-family="sans-serif" font-size="11" lengthAdjust="spacing" textLength="85" x="495.5" y="1446.0386">-phoneNumber</text><text fill="#000000" font-family="sans-serif" font-size="11" lengthAdjust="spacing" textLength="34" x="495.5" y="1458.8433">-eMail</text><line style="stroke:#A80036;stroke-width:1.5;" x1="490.5" x2="585.5" y1="1465.4375" y2="1465.4375"/><!--MD5=[03960189e81aa2c066c762ffabbee709]
class Receptionist--><rect codeLine="28" fill="#FEFECE" filter="url(#fet6qi7vdw3h5)" height="137.6328" id="Receptionist" style="stroke:#A80036;stroke-width:1.5;" width="236" x="420" y="1550"/><ellipse cx="496.75" cy="1566" fill="#ADD1B2" rx="11" ry="11" style="stroke:#A80036;stroke-width:1.0;"/><path d="M499.0938,1561.6719 C498.1563,1561.2344 497.5625,1561.0938 496.6875,1561.0938 C494.0625,1561.0938 492.0625,1563.1719 492.0625,1565.8906 L492.0625,1567.0156 C492.0625,1569.5938 494.1719,1571.4844 497.0625,1571.4844 C498.2813,1571.4844 499.4375,1571.1875 500.1875,1570.6406 C500.7656,1570.2344 501.0938,1569.7813 501.0938,1569.3906 C501.0938,1568.9375 500.7031,1568.5469 500.2344,1568.5469 C500.0156,1568.5469 499.8125,1568.625 499.625,1568.8125 C499.1719,1569.2969 499.1719,1569.2969 498.9844,1569.3906 C498.5625,1569.6563 497.875,1569.7813 497.1094,1569.7813 C495.0625,1569.7813 493.7656,1568.6875 493.7656,1566.9844 L493.7656,1565.8906 C493.7656,1564.1094 495.0156,1562.7969 496.75,1562.7969 C497.3281,1562.7969 497.9375,1562.9531 498.4063,1563.2031 C498.8906,1563.4844 499.0625,1563.7031 499.1563,1564.1094 C499.2188,1564.5156 499.25,1564.6406 499.3906,1564.7656 C499.5313,1564.9063 499.7656,1565.0156 499.9844,1565.0156 C500.25,1565.0156 500.5156,1564.875 500.6875,1564.6563 C500.7969,1564.5 500.8281,1564.3125 500.8281,1563.8906 L500.8281,1562.4688 C500.8281,1562.0313 500.8125,1561.9063 500.7188,1561.75 C500.5625,1561.4844 500.2813,1561.3438 499.9844,1561.3438 C499.6875,1561.3438 499.4844,1561.4375 499.2656,1561.75 L499.0938,1561.6719 Z " fill="#000000"/><text fill="#000000" font-family="sans-serif" font-size="12" lengthAdjust="spacing" textLength="74" x="517.25" y="1570.1543">Receptionist</text><line style="stroke:#A80036;stroke-width:1.5;" x1="421" x2="655" y1="1582" y2="1582"/><text fill="#000000" font-family="sans-serif" font-size="11" lengthAdjust="spacing" textLength="75" x="426" y="1596.2104">-employeeID</text><text fill="#000000" font-family="sans-serif" font-size="11" lengthAdjust="spacing" textLength="99" x="426" y="1609.0151">-organizationRole</text><text fill="#000000" font-family="sans-serif" font-size="11" lengthAdjust="spacing" textLength="37" x="426" y="1621.8198">-name</text><text fill="#000000" font-family="sans-serif" font-size="11" lengthAdjust="spacing" textLength="49" x="426" y="1634.6245">-address</text><text fill="#000000" font-family="sans-serif" font-size="11" lengthAdjust="spacing" textLength="85" x="426" y="1647.4292">-phoneNumber</text><text fill="#000000" font-family="sans-serif" font-size="11" lengthAdjust="spacing" textLength="34" x="426" y="1660.2339">-eMail</text><text fill="#000000" font-family="sans-serif" font-size="11" lengthAdjust="spacing" textLength="224" x="426" y="1673.0386">-standardOcupationalClassificationCode</text><line style="stroke:#A80036;stroke-width:1.5;" x1="421" x2="655" y1="1679.6328" y2="1679.6328"/><!--MD5=[9681492165142af2a4a3a169d90ee8d4]
class Sample--><rect codeLine="37" fill="#FEFECE" filter="url(#fet6qi7vdw3h5)" height="73.6094" id="Sample" style="stroke:#A80036;stroke-width:1.5;" width="77" x="424.5" y="983"/><ellipse cx="439.5" cy="999" fill="#ADD1B2" rx="11" ry="11" style="stroke:#A80036;stroke-width:1.0;"/><path d="M441.8438,994.6719 C440.9063,994.2344 440.3125,994.0938 439.4375,994.0938 C436.8125,994.0938 434.8125,996.1719 434.8125,998.8906 L434.8125,1000.0156 C434.8125,1002.5938 436.9219,1004.4844 439.8125,1004.4844 C441.0313,1004.4844 442.1875,1004.1875 442.9375,1003.6406 C443.5156,1003.2344 443.8438,1002.7813 443.8438,1002.3906 C443.8438,1001.9375 443.4531,1001.5469 442.9844,1001.5469 C442.7656,1001.5469 442.5625,1001.625 442.375,1001.8125 C441.9219,1002.2969 441.9219,1002.2969 441.7344,1002.3906 C441.3125,1002.6563 440.625,1002.7813 439.8594,1002.7813 C437.8125,1002.7813 436.5156,1001.6875 436.5156,999.9844 L436.5156,998.8906 C436.5156,997.1094 437.7656,995.7969 439.5,995.7969 C440.0781,995.7969 440.6875,995.9531 441.1563,996.2031 C441.6406,996.4844 441.8125,996.7031 441.9063,997.1094 C441.9688,997.5156 442,997.6406 442.1406,997.7656 C442.2813,997.9063 442.5156,998.0156 442.7344,998.0156 C443,998.0156 443.2656,997.875 443.4375,997.6563 C443.5469,997.5 443.5781,997.3125 443.5781,996.8906 L443.5781,995.4688 C443.5781,995.0313 443.5625,994.9063 443.4688,994.75 C443.3125,994.4844 443.0313,994.3438 442.7344,994.3438 C442.4375,994.3438 442.2344,994.4375 442.0156,994.75 L441.8438,994.6719 Z " fill="#000000"/><text fill="#000000" font-family="sans-serif" font-size="12" lengthAdjust="spacing" textLength="45" x="453.5" y="1003.1543">Sample</text><line style="stroke:#A80036;stroke-width:1.5;" x1="425.5" x2="500.5" y1="1015" y2="1015"/><text fill="#000000" font-family="sans-serif" font-size="11" lengthAdjust="spacing" textLength="54" x="430.5" y="1029.2104">-category</text><text fill="#000000" font-family="sans-serif" font-size="11" lengthAdjust="spacing" textLength="58" x="430.5" y="1042.0151">-sampleID</text><line style="stroke:#A80036;stroke-width:1.5;" x1="425.5" x2="500.5" y1="1048.6094" y2="1048.6094"/><!--MD5=[da547346deef918ea16944ba046651ef]
class Administrator--><rect codeLine="41" fill="#FEFECE" filter="url(#fet6qi7vdw3h5)" height="137.6328" id="Administrator" style="stroke:#A80036;stroke-width:1.5;" width="236" x="7" y="1980"/><ellipse cx="80.75" cy="1996" fill="#ADD1B2" rx="11" ry="11" style="stroke:#A80036;stroke-width:1.0;"/><path d="M83.0938,1991.6719 C82.1563,1991.2344 81.5625,1991.0938 80.6875,1991.0938 C78.0625,1991.0938 76.0625,1993.1719 76.0625,1995.8906 L76.0625,1997.0156 C76.0625,1999.5938 78.1719,2001.4844 81.0625,2001.4844 C82.2813,2001.4844 83.4375,2001.1875 84.1875,2000.6406 C84.7656,2000.2344 85.0938,1999.7813 85.0938,1999.3906 C85.0938,1998.9375 84.7031,1998.5469 84.2344,1998.5469 C84.0156,1998.5469 83.8125,1998.625 83.625,1998.8125 C83.1719,1999.2969 83.1719,1999.2969 82.9844,1999.3906 C82.5625,1999.6563 81.875,1999.7813 81.1094,1999.7813 C79.0625,1999.7813 77.7656,1998.6875 77.7656,1996.9844 L77.7656,1995.8906 C77.7656,1994.1094 79.0156,1992.7969 80.75,1992.7969 C81.3281,1992.7969 81.9375,1992.9531 82.4063,1993.2031 C82.8906,1993.4844 83.0625,1993.7031 83.1563,1994.1094 C83.2188,1994.5156 83.25,1994.6406 83.3906,1994.7656 C83.5313,1994.9063 83.7656,1995.0156 83.9844,1995.0156 C84.25,1995.0156 84.5156,1994.875 84.6875,1994.6563 C84.7969,1994.5 84.8281,1994.3125 84.8281,1993.8906 L84.8281,1992.4688 C84.8281,1992.0313 84.8125,1991.9063 84.7188,1991.75 C84.5625,1991.4844 84.2813,1991.3438 83.9844,1991.3438 C83.6875,1991.3438 83.4844,1991.4375 83.2656,1991.75 L83.0938,1991.6719 Z " fill="#000000"/><text fill="#000000" font-family="sans-serif" font-size="12" lengthAdjust="spacing" textLength="80" x="101.25" y="2000.1543">Administrator</text><line style="stroke:#A80036;stroke-width:1.5;" x1="8" x2="242" y1="2012" y2="2012"/><text fill="#000000" font-family="sans-serif" font-size="11" lengthAdjust="spacing" textLength="75" x="13" y="2026.2104">-employeeID</text><text fill="#000000" font-family="sans-serif" font-size="11" lengthAdjust="spacing" textLength="99" x="13" y="2039.0151">-organizationRole</text><text fill="#000000" font-family="sans-serif" font-size="11" lengthAdjust="spacing" textLength="37" x="13" y="2051.8198">-name</text><text fill="#000000" font-family="sans-serif" font-size="11" lengthAdjust="spacing" textLength="49" x="13" y="2064.6245">-address</text><text fill="#000000" font-family="sans-serif" font-size="11" lengthAdjust="spacing" textLength="85" x="13" y="2077.4292">-phoneNumber</text><text fill="#000000" font-family="sans-serif" font-size="11" lengthAdjust="spacing" textLength="34" x="13" y="2090.2339">-eMail</text><text fill="#000000" font-family="sans-serif" font-size="11" lengthAdjust="spacing" textLength="224" x="13" y="2103.0386">-standardOcupationalClassificationCode</text><line style="stroke:#A80036;stroke-width:1.5;" x1="8" x2="242" y1="2109.6328" y2="2109.6328"/><!--MD5=[01931d41e78f8996acd44f6f0fd8de28]
class MedicalLabTechnician--><rect codeLine="50" fill="#FEFECE" filter="url(#fet6qi7vdw3h5)" height="137.6328" id="MedicalLabTechnician" style="stroke:#A80036;stroke-width:1.5;" width="236" x="622" y="1329"/><ellipse cx="670.75" cy="1345" fill="#ADD1B2" rx="11" ry="11" style="stroke:#A80036;stroke-width:1.0;"/><path d="M673.0938,1340.6719 C672.1563,1340.2344 671.5625,1340.0938 670.6875,1340.0938 C668.0625,1340.0938 666.0625,1342.1719 666.0625,1344.8906 L666.0625,1346.0156 C666.0625,1348.5938 668.1719,1350.4844 671.0625,1350.4844 C672.2813,1350.4844 673.4375,1350.1875 674.1875,1349.6406 C674.7656,1349.2344 675.0938,1348.7813 675.0938,1348.3906 C675.0938,1347.9375 674.7031,1347.5469 674.2344,1347.5469 C674.0156,1347.5469 673.8125,1347.625 673.625,1347.8125 C673.1719,1348.2969 673.1719,1348.2969 672.9844,1348.3906 C672.5625,1348.6563 671.875,1348.7813 671.1094,1348.7813 C669.0625,1348.7813 667.7656,1347.6875 667.7656,1345.9844 L667.7656,1344.8906 C667.7656,1343.1094 669.0156,1341.7969 670.75,1341.7969 C671.3281,1341.7969 671.9375,1341.9531 672.4063,1342.2031 C672.8906,1342.4844 673.0625,1342.7031 673.1563,1343.1094 C673.2188,1343.5156 673.25,1343.6406 673.3906,1343.7656 C673.5313,1343.9063 673.7656,1344.0156 673.9844,1344.0156 C674.25,1344.0156 674.5156,1343.875 674.6875,1343.6563 C674.7969,1343.5 674.8281,1343.3125 674.8281,1342.8906 L674.8281,1341.4688 C674.8281,1341.0313 674.8125,1340.9063 674.7188,1340.75 C674.5625,1340.4844 674.2813,1340.3438 673.9844,1340.3438 C673.6875,1340.3438 673.4844,1340.4375 673.2656,1340.75 L673.0938,1340.6719 Z " fill="#000000"/><text fill="#000000" font-family="sans-serif" font-size="12" lengthAdjust="spacing" textLength="130" x="691.25" y="1349.1543">MedicalLabTechnician</text><line style="stroke:#A80036;stroke-width:1.5;" x1="623" x2="857" y1="1361" y2="1361"/><text fill="#000000" font-family="sans-serif" font-size="11" lengthAdjust="spacing" textLength="75" x="628" y="1375.2104">-employeeID</text><text fill="#000000" font-family="sans-serif" font-size="11" lengthAdjust="spacing" textLength="99" x="628" y="1388.0151">-organizationRole</text><text fill="#000000" font-family="sans-serif" font-size="11" lengthAdjust="spacing" textLength="37" x="628" y="1400.8198">-name</text><text fill="#000000" font-family="sans-serif" font-size="11" lengthAdjust="spacing" textLength="49" x="628" y="1413.6245">-address</text><text fill="#000000" font-family="sans-serif" font-size="11" lengthAdjust="spacing" textLength="85" x="628" y="1426.4292">-phoneNumber</text><text fill="#000000" font-family="sans-serif" font-size="11" lengthAdjust="spacing" textLength="34" x="628" y="1439.2339">-eMail</text><text fill="#000000" font-family="sans-serif" font-size="11" lengthAdjust="spacing" textLength="224" x="628" y="1452.0386">-standardOcupationalClassificationCode</text><line style="stroke:#A80036;stroke-width:1.5;" x1="623" x2="857" y1="1458.6328" y2="1458.6328"/><!--MD5=[36afb6bbd95a8ac778c4537c55a683d5]
class ParameterCategory--><rect codeLine="59" fill="#FEFECE" filter="url(#fet6qi7vdw3h5)" height="73.6094" id="ParameterCategory" style="stroke:#A80036;stroke-width:1.5;" width="148" x="132" y="1797"/><ellipse cx="147" cy="1813" fill="#ADD1B2" rx="11" ry="11" style="stroke:#A80036;stroke-width:1.0;"/><path d="M149.3438,1808.6719 C148.4063,1808.2344 147.8125,1808.0938 146.9375,1808.0938 C144.3125,1808.0938 142.3125,1810.1719 142.3125,1812.8906 L142.3125,1814.0156 C142.3125,1816.5938 144.4219,1818.4844 147.3125,1818.4844 C148.5313,1818.4844 149.6875,1818.1875 150.4375,1817.6406 C151.0156,1817.2344 151.3438,1816.7813 151.3438,1816.3906 C151.3438,1815.9375 150.9531,1815.5469 150.4844,1815.5469 C150.2656,1815.5469 150.0625,1815.625 149.875,1815.8125 C149.4219,1816.2969 149.4219,1816.2969 149.2344,1816.3906 C148.8125,1816.6563 148.125,1816.7813 147.3594,1816.7813 C145.3125,1816.7813 144.0156,1815.6875 144.0156,1813.9844 L144.0156,1812.8906 C144.0156,1811.1094 145.2656,1809.7969 147,1809.7969 C147.5781,1809.7969 148.1875,1809.9531 148.6563,1810.2031 C149.1406,1810.4844 149.3125,1810.7031 149.4063,1811.1094 C149.4688,1811.5156 149.5,1811.6406 149.6406,1811.7656 C149.7813,1811.9063 150.0156,1812.0156 150.2344,1812.0156 C150.5,1812.0156 150.7656,1811.875 150.9375,1811.6563 C151.0469,1811.5 151.0781,1811.3125 151.0781,1810.8906 L151.0781,1809.4688 C151.0781,1809.0313 151.0625,1808.9063 150.9688,1808.75 C150.8125,1808.4844 150.5313,1808.3438 150.2344,1808.3438 C149.9375,1808.3438 149.7344,1808.4375 149.5156,1808.75 L149.3438,1808.6719 Z " fill="#000000"/><text fill="#000000" font-family="sans-serif" font-size="12" lengthAdjust="spacing" textLength="116" x="161" y="1817.1543">ParameterCategory</text><line style="stroke:#A80036;stroke-width:1.5;" x1="133" x2="279" y1="1829" y2="1829"/><text fill="#000000" font-family="sans-serif" font-size="11" lengthAdjust="spacing" textLength="37" x="138" y="1843.2104">-name</text><text fill="#000000" font-family="sans-serif" font-size="11" lengthAdjust="spacing" textLength="32" x="138" y="1856.0151">-code</text><line style="stroke:#A80036;stroke-width:1.5;" x1="133" x2="279" y1="1862.6094" y2="1862.6094"/><!--MD5=[1f6362a5c8f21d8d6a0fce68f3a92a4e]
class Parameter--><rect codeLine="63" fill="#FEFECE" filter="url(#fet6qi7vdw3h5)" height="86.4141" id="Parameter" style="stroke:#A80036;stroke-width:1.5;" width="93" x="132.5" y="1576"/><ellipse cx="147.5" cy="1592" fill="#ADD1B2" rx="11" ry="11" style="stroke:#A80036;stroke-width:1.0;"/><path d="M149.8438,1587.6719 C148.9063,1587.2344 148.3125,1587.0938 147.4375,1587.0938 C144.8125,1587.0938 142.8125,1589.1719 142.8125,1591.8906 L142.8125,1593.0156 C142.8125,1595.5938 144.9219,1597.4844 147.8125,1597.4844 C149.0313,1597.4844 150.1875,1597.1875 150.9375,1596.6406 C151.5156,1596.2344 151.8438,1595.7813 151.8438,1595.3906 C151.8438,1594.9375 151.4531,1594.5469 150.9844,1594.5469 C150.7656,1594.5469 150.5625,1594.625 150.375,1594.8125 C149.9219,1595.2969 149.9219,1595.2969 149.7344,1595.3906 C149.3125,1595.6563 148.625,1595.7813 147.8594,1595.7813 C145.8125,1595.7813 144.5156,1594.6875 144.5156,1592.9844 L144.5156,1591.8906 C144.5156,1590.1094 145.7656,1588.7969 147.5,1588.7969 C148.0781,1588.7969 148.6875,1588.9531 149.1563,1589.2031 C149.6406,1589.4844 149.8125,1589.7031 149.9063,1590.1094 C149.9688,1590.5156 150,1590.6406 150.1406,1590.7656 C150.2813,1590.9063 150.5156,1591.0156 150.7344,1591.0156 C151,1591.0156 151.2656,1590.875 151.4375,1590.6563 C151.5469,1590.5 151.5781,1590.3125 151.5781,1589.8906 L151.5781,1588.4688 C151.5781,1588.0313 151.5625,1587.9063 151.4688,1587.75 C151.3125,1587.4844 151.0313,1587.3438 150.7344,1587.3438 C150.4375,1587.3438 150.2344,1587.4375 150.0156,1587.75 L149.8438,1587.6719 Z " fill="#000000"/><text fill="#000000" font-family="sans-serif" font-size="12" lengthAdjust="spacing" textLength="61" x="161.5" y="1596.1543">Parameter</text><line style="stroke:#A80036;stroke-width:1.5;" x1="133.5" x2="224.5" y1="1608" y2="1608"/><text fill="#000000" font-family="sans-serif" font-size="11" lengthAdjust="spacing" textLength="32" x="138.5" y="1622.2104">-code</text><text fill="#000000" font-family="sans-serif" font-size="11" lengthAdjust="spacing" textLength="65" x="138.5" y="1635.0151">-shortname</text><text fill="#000000" font-family="sans-serif" font-size="11" lengthAdjust="spacing" textLength="66" x="138.5" y="1647.8198">-description</text><line style="stroke:#A80036;stroke-width:1.5;" x1="133.5" x2="224.5" y1="1654.4141" y2="1654.4141"/><!--MD5=[371a79cf93e6b0f3b7c16edd206e96ed]
class ClinicalChemistTechnologist--><rect codeLine="68" fill="#FEFECE" filter="url(#fet6qi7vdw3h5)" height="137.6328" id="ClinicalChemistTechnologist" style="stroke:#A80036;stroke-width:1.5;" width="236" x="593" y="724"/><ellipse cx="625.1" cy="740" fill="#ADD1B2" rx="11" ry="11" style="stroke:#A80036;stroke-width:1.0;"/><path d="M627.4438,735.6719 C626.5063,735.2344 625.9125,735.0938 625.0375,735.0938 C622.4125,735.0938 620.4125,737.1719 620.4125,739.8906 L620.4125,741.0156 C620.4125,743.5938 622.5219,745.4844 625.4125,745.4844 C626.6313,745.4844 627.7875,745.1875 628.5375,744.6406 C629.1156,744.2344 629.4438,743.7813 629.4438,743.3906 C629.4438,742.9375 629.0531,742.5469 628.5844,742.5469 C628.3656,742.5469 628.1625,742.625 627.975,742.8125 C627.5219,743.2969 627.5219,743.2969 627.3344,743.3906 C626.9125,743.6563 626.225,743.7813 625.4594,743.7813 C623.4125,743.7813 622.1156,742.6875 622.1156,740.9844 L622.1156,739.8906 C622.1156,738.1094 623.3656,736.7969 625.1,736.7969 C625.6781,736.7969 626.2875,736.9531 626.7563,737.2031 C627.2406,737.4844 627.4125,737.7031 627.5063,738.1094 C627.5688,738.5156 627.6,738.6406 627.7406,738.7656 C627.8813,738.9063 628.1156,739.0156 628.3344,739.0156 C628.6,739.0156 628.8656,738.875 629.0375,738.6563 C629.1469,738.5 629.1781,738.3125 629.1781,737.8906 L629.1781,736.4688 C629.1781,736.0313 629.1625,735.9063 629.0688,735.75 C628.9125,735.4844 628.6313,735.3438 628.3344,735.3438 C628.0375,735.3438 627.8344,735.4375 627.6156,735.75 L627.4438,735.6719 Z " fill="#000000"/><text fill="#000000" font-family="sans-serif" font-size="12" lengthAdjust="spacing" textLength="166" x="642.9" y="744.1543">ClinicalChemistTechnologist</text><line style="stroke:#A80036;stroke-width:1.5;" x1="594" x2="828" y1="756" y2="756"/><text fill="#000000" font-family="sans-serif" font-size="11" lengthAdjust="spacing" textLength="75" x="599" y="770.2104">-employeeID</text><text fill="#000000" font-family="sans-serif" font-size="11" lengthAdjust="spacing" textLength="99" x="599" y="783.0151">-organizationRole</text><text fill="#000000" font-family="sans-serif" font-size="11" lengthAdjust="spacing" textLength="37" x="599" y="795.8198">-name</text><text fill="#000000" font-family="sans-serif" font-size="11" lengthAdjust="spacing" textLength="49" x="599" y="808.6245">-address</text><text fill="#000000" font-family="sans-serif" font-size="11" lengthAdjust="spacing" textLength="85" x="599" y="821.4292">-phoneNumber</text><text fill="#000000" font-family="sans-serif" font-size="11" lengthAdjust="spacing" textLength="34" x="599" y="834.2339">-eMail</text><text fill="#000000" font-family="sans-serif" font-size="11" lengthAdjust="spacing" textLength="224" x="599" y="847.0386">-standardOcupationalClassificationCode</text><line style="stroke:#A80036;stroke-width:1.5;" x1="594" x2="828" y1="853.6328" y2="853.6328"/><!--MD5=[7d96fd15f3014691d2fcaf89c5791e2a]
class SpecialistDoctor--><rect codeLine="77" fill="#FEFECE" filter="url(#fet6qi7vdw3h5)" height="137.6328" id="SpecialistDoctor" style="stroke:#A80036;stroke-width:1.5;" width="236" x="950" y="1765"/><ellipse cx="1014.25" cy="1781" fill="#ADD1B2" rx="11" ry="11" style="stroke:#A80036;stroke-width:1.0;"/><path d="M1016.5938,1776.6719 C1015.6563,1776.2344 1015.0625,1776.0938 1014.1875,1776.0938 C1011.5625,1776.0938 1009.5625,1778.1719 1009.5625,1780.8906 L1009.5625,1782.0156 C1009.5625,1784.5938 1011.6719,1786.4844 1014.5625,1786.4844 C1015.7813,1786.4844 1016.9375,1786.1875 1017.6875,1785.6406 C1018.2656,1785.2344 1018.5938,1784.7813 1018.5938,1784.3906 C1018.5938,1783.9375 1018.2031,1783.5469 1017.7344,1783.5469 C1017.5156,1783.5469 1017.3125,1783.625 1017.125,1783.8125 C1016.6719,1784.2969 1016.6719,1784.2969 1016.4844,1784.3906 C1016.0625,1784.6563 1015.375,1784.7813 1014.6094,1784.7813 C1012.5625,1784.7813 1011.2656,1783.6875 1011.2656,1781.9844 L1011.2656,1780.8906 C1011.2656,1779.1094 1012.5156,1777.7969 1014.25,1777.7969 C1014.8281,1777.7969 1015.4375,1777.9531 1015.9063,1778.2031 C1016.3906,1778.4844 1016.5625,1778.7031 1016.6563,1779.1094 C1016.7188,1779.5156 1016.75,1779.6406 1016.8906,1779.7656 C1017.0313,1779.9063 1017.2656,1780.0156 1017.4844,1780.0156 C1017.75,1780.0156 1018.0156,1779.875 1018.1875,1779.6563 C1018.2969,1779.5 1018.3281,1779.3125 1018.3281,1778.8906 L1018.3281,1777.4688 C1018.3281,1777.0313 1018.3125,1776.9063 1018.2188,1776.75 C1018.0625,1776.4844 1017.7813,1776.3438 1017.4844,1776.3438 C1017.1875,1776.3438 1016.9844,1776.4375 1016.7656,1776.75 L1016.5938,1776.6719 Z " fill="#000000"/><text fill="#000000" font-family="sans-serif" font-size="12" lengthAdjust="spacing" textLength="99" x="1034.75" y="1785.1543">SpecialistDoctor</text><line style="stroke:#A80036;stroke-width:1.5;" x1="951" x2="1185" y1="1797" y2="1797"/><text fill="#000000" font-family="sans-serif" font-size="11" lengthAdjust="spacing" textLength="75" x="956" y="1811.2104">-employeeID</text><text fill="#000000" font-family="sans-serif" font-size="11" lengthAdjust="spacing" textLength="99" x="956" y="1824.0151">-organizationRole</text><text fill="#000000" font-family="sans-serif" font-size="11" lengthAdjust="spacing" textLength="37" x="956" y="1836.8198">-name</text><text fill="#000000" font-family="sans-serif" font-size="11" lengthAdjust="spacing" textLength="49" x="956" y="1849.6245">-address</text><text fill="#000000" font-family="sans-serif" font-size="11" lengthAdjust="spacing" textLength="85" x="956" y="1862.4292">-phoneNumber</text><text fill="#000000" font-family="sans-serif" font-size="11" lengthAdjust="spacing" textLength="34" x="956" y="1875.2339">-eMail</text><text fill="#000000" font-family="sans-serif" font-size="11" lengthAdjust="spacing" textLength="224" x="956" y="1888.0386">-standardOcupationalClassificationCode</text><line style="stroke:#A80036;stroke-width:1.5;" x1="951" x2="1185" y1="1894.6328" y2="1894.6328"/><!--MD5=[052425de1c0eb6cc1c1b48342b0bb88f]
class LaboratoryCoordinator--><rect codeLine="86" fill="#FEFECE" filter="url(#fet6qi7vdw3h5)" height="137.6328" id="LaboratoryCoordinator" style="stroke:#A80036;stroke-width:1.5;" width="236" x="798" y="320.5"/><ellipse cx="843.75" cy="336.5" fill="#ADD1B2" rx="11" ry="11" style="stroke:#A80036;stroke-width:1.0;"/><path d="M846.0938,332.1719 C845.1563,331.7344 844.5625,331.5938 843.6875,331.5938 C841.0625,331.5938 839.0625,333.6719 839.0625,336.3906 L839.0625,337.5156 C839.0625,340.0938 841.1719,341.9844 844.0625,341.9844 C845.2813,341.9844 846.4375,341.6875 847.1875,341.1406 C847.7656,340.7344 848.0938,340.2813 848.0938,339.8906 C848.0938,339.4375 847.7031,339.0469 847.2344,339.0469 C847.0156,339.0469 846.8125,339.125 846.625,339.3125 C846.1719,339.7969 846.1719,339.7969 845.9844,339.8906 C845.5625,340.1563 844.875,340.2813 844.1094,340.2813 C842.0625,340.2813 840.7656,339.1875 840.7656,337.4844 L840.7656,336.3906 C840.7656,334.6094 842.0156,333.2969 843.75,333.2969 C844.3281,333.2969 844.9375,333.4531 845.4063,333.7031 C845.8906,333.9844 846.0625,334.2031 846.1563,334.6094 C846.2188,335.0156 846.25,335.1406 846.3906,335.2656 C846.5313,335.4063 846.7656,335.5156 846.9844,335.5156 C847.25,335.5156 847.5156,335.375 847.6875,335.1563 C847.7969,335 847.8281,334.8125 847.8281,334.3906 L847.8281,332.9688 C847.8281,332.5313 847.8125,332.4063 847.7188,332.25 C847.5625,331.9844 847.2813,331.8438 846.9844,331.8438 C846.6875,331.8438 846.4844,331.9375 846.2656,332.25 L846.0938,332.1719 Z " fill="#000000"/><text fill="#000000" font-family="sans-serif" font-size="12" lengthAdjust="spacing" textLength="136" x="864.25" y="340.6543">LaboratoryCoordinator</text><line style="stroke:#A80036;stroke-width:1.5;" x1="799" x2="1033" y1="352.5" y2="352.5"/><text fill="#000000" font-family="sans-serif" font-size="11" lengthAdjust="spacing" textLength="75" x="804" y="366.7104">-employeeID</text><text fill="#000000" font-family="sans-serif" font-size="11" lengthAdjust="spacing" textLength="99" x="804" y="379.5151">-organizationRole</text><text fill="#000000" font-family="sans-serif" font-size="11" lengthAdjust="spacing" textLength="37" x="804" y="392.3198">-name</text><text fill="#000000" font-family="sans-serif" font-size="11" lengthAdjust="spacing" textLength="49" x="804" y="405.1245">-address</text><text fill="#000000" font-family="sans-serif" font-size="11" lengthAdjust="spacing" textLength="85" x="804" y="417.9292">-phoneNumber</text><text fill="#000000" font-family="sans-serif" font-size="11" lengthAdjust="spacing" textLength="34" x="804" y="430.7339">-eMail</text><text fill="#000000" font-family="sans-serif" font-size="11" lengthAdjust="spacing" textLength="224" x="804" y="443.5386">-standardOcupationalClassificationCode</text><line style="stroke:#A80036;stroke-width:1.5;" x1="799" x2="1033" y1="450.1328" y2="450.1328"/><!--MD5=[86b2982ced9a310f9b4ad491674c42e1]
class ResultsValidation--><rect codeLine="95" fill="#FEFECE" filter="url(#fet6qi7vdw3h5)" height="60.8047" id="ResultsValidation" style="stroke:#A80036;stroke-width:1.5;" width="137" x="1032.5" y="892"/><ellipse cx="1049.3" cy="908" fill="#ADD1B2" rx="11" ry="11" style="stroke:#A80036;stroke-width:1.0;"/><path d="M1051.6438,903.6719 C1050.7063,903.2344 1050.1125,903.0938 1049.2375,903.0938 C1046.6125,903.0938 1044.6125,905.1719 1044.6125,907.8906 L1044.6125,909.0156 C1044.6125,911.5938 1046.7219,913.4844 1049.6125,913.4844 C1050.8313,913.4844 1051.9875,913.1875 1052.7375,912.6406 C1053.3156,912.2344 1053.6438,911.7813 1053.6438,911.3906 C1053.6438,910.9375 1053.2531,910.5469 1052.7844,910.5469 C1052.5656,910.5469 1052.3625,910.625 1052.175,910.8125 C1051.7219,911.2969 1051.7219,911.2969 1051.5344,911.3906 C1051.1125,911.6563 1050.425,911.7813 1049.6594,911.7813 C1047.6125,911.7813 1046.3156,910.6875 1046.3156,908.9844 L1046.3156,907.8906 C1046.3156,906.1094 1047.5656,904.7969 1049.3,904.7969 C1049.8781,904.7969 1050.4875,904.9531 1050.9563,905.2031 C1051.4406,905.4844 1051.6125,905.7031 1051.7063,906.1094 C1051.7688,906.5156 1051.8,906.6406 1051.9406,906.7656 C1052.0813,906.9063 1052.3156,907.0156 1052.5344,907.0156 C1052.8,907.0156 1053.0656,906.875 1053.2375,906.6563 C1053.3469,906.5 1053.3781,906.3125 1053.3781,905.8906 L1053.3781,904.4688 C1053.3781,904.0313 1053.3625,903.9063 1053.2688,903.75 C1053.1125,903.4844 1052.8313,903.3438 1052.5344,903.3438 C1052.2375,903.3438 1052.0344,903.4375 1051.8156,903.75 L1051.6438,903.6719 Z " fill="#000000"/><text fill="#000000" font-family="sans-serif" font-size="12" lengthAdjust="spacing" textLength="101" x="1063.7" y="912.1543">ResultsValidation</text><line style="stroke:#A80036;stroke-width:1.5;" x1="1033.5" x2="1168.5" y1="924" y2="924"/><text fill="#000000" font-family="sans-serif" font-size="11" lengthAdjust="spacing" textLength="125" x="1038.5" y="938.2104">-testReferenceValues</text><line style="stroke:#A80036;stroke-width:1.5;" x1="1033.5" x2="1168.5" y1="944.8047" y2="944.8047"/><!--MD5=[a999c1570c205a2156b04a15307bc1ff]
class LabOrder--><rect codeLine="98" fill="#FEFECE" filter="url(#fet6qi7vdw3h5)" height="73.6094" id="LabOrder" style="stroke:#A80036;stroke-width:1.5;" width="89" x="586.5" y="1153"/><ellipse cx="601.5" cy="1169" fill="#ADD1B2" rx="11" ry="11" style="stroke:#A80036;stroke-width:1.0;"/><path d="M603.8438,1164.6719 C602.9063,1164.2344 602.3125,1164.0938 601.4375,1164.0938 C598.8125,1164.0938 596.8125,1166.1719 596.8125,1168.8906 L596.8125,1170.0156 C596.8125,1172.5938 598.9219,1174.4844 601.8125,1174.4844 C603.0313,1174.4844 604.1875,1174.1875 604.9375,1173.6406 C605.5156,1173.2344 605.8438,1172.7813 605.8438,1172.3906 C605.8438,1171.9375 605.4531,1171.5469 604.9844,1171.5469 C604.7656,1171.5469 604.5625,1171.625 604.375,1171.8125 C603.9219,1172.2969 603.9219,1172.2969 603.7344,1172.3906 C603.3125,1172.6563 602.625,1172.7813 601.8594,1172.7813 C599.8125,1172.7813 598.5156,1171.6875 598.5156,1169.9844 L598.5156,1168.8906 C598.5156,1167.1094 599.7656,1165.7969 601.5,1165.7969 C602.0781,1165.7969 602.6875,1165.9531 603.1563,1166.2031 C603.6406,1166.4844 603.8125,1166.7031 603.9063,1167.1094 C603.9688,1167.5156 604,1167.6406 604.1406,1167.7656 C604.2813,1167.9063 604.5156,1168.0156 604.7344,1168.0156 C605,1168.0156 605.2656,1167.875 605.4375,1167.6563 C605.5469,1167.5 605.5781,1167.3125 605.5781,1166.8906 L605.5781,1165.4688 C605.5781,1165.0313 605.5625,1164.9063 605.4688,1164.75 C605.3125,1164.4844 605.0313,1164.3438 604.7344,1164.3438 C604.4375,1164.3438 604.2344,1164.4375 604.0156,1164.75 L603.8438,1164.6719 Z " fill="#000000"/><text fill="#000000" font-family="sans-serif" font-size="12" lengthAdjust="spacing" textLength="57" x="615.5" y="1173.1543">LabOrder</text><line style="stroke:#A80036;stroke-width:1.5;" x1="587.5" x2="674.5" y1="1185" y2="1185"/><text fill="#000000" font-family="sans-serif" font-size="11" lengthAdjust="spacing" textLength="68" x="592.5" y="1199.2104">-typeOfTest</text><text fill="#000000" font-family="sans-serif" font-size="11" lengthAdjust="spacing" textLength="70" x="592.5" y="1212.0151">-parameters</text><line style="stroke:#A80036;stroke-width:1.5;" x1="587.5" x2="674.5" y1="1218.6094" y2="1218.6094"/><!--MD5=[f00dbe8c0302c6aec2cb26b3c659c8fc]
class Report--><rect codeLine="102" fill="#FEFECE" filter="url(#fet6qi7vdw3h5)" height="60.8047" id="Report" style="stroke:#A80036;stroke-width:1.5;" width="83" x="964.5" y="1588.5"/><ellipse cx="984.45" cy="1604.5" fill="#ADD1B2" rx="11" ry="11" style="stroke:#A80036;stroke-width:1.0;"/><path d="M986.7938,1600.1719 C985.8563,1599.7344 985.2625,1599.5938 984.3875,1599.5938 C981.7625,1599.5938 979.7625,1601.6719 979.7625,1604.3906 L979.7625,1605.5156 C979.7625,1608.0938 981.8719,1609.9844 984.7625,1609.9844 C985.9813,1609.9844 987.1375,1609.6875 987.8875,1609.1406 C988.4656,1608.7344 988.7938,1608.2813 988.7938,1607.8906 C988.7938,1607.4375 988.4031,1607.0469 987.9344,1607.0469 C987.7156,1607.0469 987.5125,1607.125 987.325,1607.3125 C986.8719,1607.7969 986.8719,1607.7969 986.6844,1607.8906 C986.2625,1608.1563 985.575,1608.2813 984.8094,1608.2813 C982.7625,1608.2813 981.4656,1607.1875 981.4656,1605.4844 L981.4656,1604.3906 C981.4656,1602.6094 982.7156,1601.2969 984.45,1601.2969 C985.0281,1601.2969 985.6375,1601.4531 986.1063,1601.7031 C986.5906,1601.9844 986.7625,1602.2031 986.8563,1602.6094 C986.9188,1603.0156 986.95,1603.1406 987.0906,1603.2656 C987.2313,1603.4063 987.4656,1603.5156 987.6844,1603.5156 C987.95,1603.5156 988.2156,1603.375 988.3875,1603.1563 C988.4969,1603 988.5281,1602.8125 988.5281,1602.3906 L988.5281,1600.9688 C988.5281,1600.5313 988.5125,1600.4063 988.4188,1600.25 C988.2625,1599.9844 987.9813,1599.8438 987.6844,1599.8438 C987.3875,1599.8438 987.1844,1599.9375 986.9656,1600.25 L986.7938,1600.1719 Z " fill="#000000"/><text fill="#000000" font-family="sans-serif" font-size="12" lengthAdjust="spacing" textLength="40" x="999.55" y="1608.6543">Report</text><line style="stroke:#A80036;stroke-width:1.5;" x1="965.5" x2="1046.5" y1="1620.5" y2="1620.5"/><text fill="#000000" font-family="sans-serif" font-size="11" lengthAdjust="spacing" textLength="71" x="970.5" y="1634.7104">-bodyOfText</text><line style="stroke:#A80036;stroke-width:1.5;" x1="965.5" x2="1046.5" y1="1641.3047" y2="1641.3047"/><!--MD5=[f7818c679476ac0017dcae1dd49d4d3d]
class TestResultList--><rect codeLine="105" fill="#FEFECE" filter="url(#fet6qi7vdw3h5)" height="99.2188" id="TestResultList" style="stroke:#A80036;stroke-width:1.5;" width="157" x="837.5" y="132"/><ellipse cx="871.85" cy="148" fill="#ADD1B2" rx="11" ry="11" style="stroke:#A80036;stroke-width:1.0;"/><path d="M874.1938,143.6719 C873.2563,143.2344 872.6625,143.0938 871.7875,143.0938 C869.1625,143.0938 867.1625,145.1719 867.1625,147.8906 L867.1625,149.0156 C867.1625,151.5938 869.2719,153.4844 872.1625,153.4844 C873.3813,153.4844 874.5375,153.1875 875.2875,152.6406 C875.8656,152.2344 876.1938,151.7813 876.1938,151.3906 C876.1938,150.9375 875.8031,150.5469 875.3344,150.5469 C875.1156,150.5469 874.9125,150.625 874.725,150.8125 C874.2719,151.2969 874.2719,151.2969 874.0844,151.3906 C873.6625,151.6563 872.975,151.7813 872.2094,151.7813 C870.1625,151.7813 868.8656,150.6875 868.8656,148.9844 L868.8656,147.8906 C868.8656,146.1094 870.1156,144.7969 871.85,144.7969 C872.4281,144.7969 873.0375,144.9531 873.5063,145.2031 C873.9906,145.4844 874.1625,145.7031 874.2563,146.1094 C874.3188,146.5156 874.35,146.6406 874.4906,146.7656 C874.6313,146.9063 874.8656,147.0156 875.0844,147.0156 C875.35,147.0156 875.6156,146.875 875.7875,146.6563 C875.8969,146.5 875.9281,146.3125 875.9281,145.8906 L875.9281,144.4688 C875.9281,144.0313 875.9125,143.9063 875.8188,143.75 C875.6625,143.4844 875.3813,143.3438 875.0844,143.3438 C874.7875,143.3438 874.5844,143.4375 874.3656,143.75 L874.1938,143.6719 Z " fill="#000000"/><text fill="#000000" font-family="sans-serif" font-size="12" lengthAdjust="spacing" textLength="82" x="890.15" y="152.1543">TestResultList</text><line style="stroke:#A80036;stroke-width:1.5;" x1="838.5" x2="993.5" y1="164" y2="164"/><text fill="#000000" font-family="sans-serif" font-size="11" lengthAdjust="spacing" textLength="112" x="843.5" y="178.2104">-listOfPositiveCases</text><text fill="#000000" font-family="sans-serif" font-size="11" lengthAdjust="spacing" textLength="120" x="843.5" y="191.0151">-listOfNegativeCases</text><text fill="#000000" font-family="sans-serif" font-size="11" lengthAdjust="spacing" textLength="127" x="843.5" y="203.8198">-sortingAlgorithmByTIF</text><text fill="#000000" font-family="sans-serif" font-size="11" lengthAdjust="spacing" textLength="145" x="843.5" y="216.6245">-sortingAlgorithmByName</text><line style="stroke:#A80036;stroke-width:1.5;" x1="838.5" x2="993.5" y1="223.2188" y2="223.2188"/><!--MD5=[74783ec010d186752c4ffd5c6de5633a]
class NHSReport--><rect codeLine="111" fill="#FEFECE" filter="url(#fet6qi7vdw3h5)" height="163.2422" id="NHSReport" style="stroke:#A80036;stroke-width:1.5;" width="175" x="516.5" y="308"/><ellipse cx="567.25" cy="324" fill="#ADD1B2" rx="11" ry="11" style="stroke:#A80036;stroke-width:1.0;"/><path d="M569.5938,319.6719 C568.6563,319.2344 568.0625,319.0938 567.1875,319.0938 C564.5625,319.0938 562.5625,321.1719 562.5625,323.8906 L562.5625,325.0156 C562.5625,327.5938 564.6719,329.4844 567.5625,329.4844 C568.7813,329.4844 569.9375,329.1875 570.6875,328.6406 C571.2656,328.2344 571.5938,327.7813 571.5938,327.3906 C571.5938,326.9375 571.2031,326.5469 570.7344,326.5469 C570.5156,326.5469 570.3125,326.625 570.125,326.8125 C569.6719,327.2969 569.6719,327.2969 569.4844,327.3906 C569.0625,327.6563 568.375,327.7813 567.6094,327.7813 C565.5625,327.7813 564.2656,326.6875 564.2656,324.9844 L564.2656,323.8906 C564.2656,322.1094 565.5156,320.7969 567.25,320.7969 C567.8281,320.7969 568.4375,320.9531 568.9063,321.2031 C569.3906,321.4844 569.5625,321.7031 569.6563,322.1094 C569.7188,322.5156 569.75,322.6406 569.8906,322.7656 C570.0313,322.9063 570.2656,323.0156 570.4844,323.0156 C570.75,323.0156 571.0156,322.875 571.1875,322.6563 C571.2969,322.5 571.3281,322.3125 571.3281,321.8906 L571.3281,320.4688 C571.3281,320.0313 571.3125,319.9063 571.2188,319.75 C571.0625,319.4844 570.7813,319.3438 570.4844,319.3438 C570.1875,319.3438 569.9844,319.4375 569.7656,319.75 L569.5938,319.6719 Z " fill="#000000"/><text fill="#000000" font-family="sans-serif" font-size="12" lengthAdjust="spacing" textLength="65" x="587.75" y="328.1543">NHSReport</text><line style="stroke:#A80036;stroke-width:1.5;" x1="517.5" x2="690.5" y1="340" y2="340"/><text fill="#000000" font-family="sans-serif" font-size="11" lengthAdjust="spacing" textLength="155" x="522.5" y="354.2104">-numberCovidTestsPositive</text><text fill="#000000" font-family="sans-serif" font-size="11" lengthAdjust="spacing" textLength="163" x="522.5" y="367.0151">-numberCovidTestsNegative</text><text fill="#000000" font-family="sans-serif" font-size="11" lengthAdjust="spacing" textLength="106" x="522.5" y="379.8198">-covidTestsPerDay</text><text fill="#000000" font-family="sans-serif" font-size="11" lengthAdjust="spacing" textLength="131" x="522.5" y="392.6245">-positiveResultsPerDay</text><text fill="#000000" font-family="sans-serif" font-size="11" lengthAdjust="spacing" textLength="116" x="522.5" y="405.4292">-covidTestsPerWeek</text><text fill="#000000" font-family="sans-serif" font-size="11" lengthAdjust="spacing" textLength="141" x="522.5" y="418.2339">-positiveResultsPerWeek</text><text fill="#000000" font-family="sans-serif" font-size="11" lengthAdjust="spacing" textLength="117" x="522.5" y="431.0386">-covidTestsPerMonth</text><text fill="#000000" font-family="sans-serif" font-size="11" lengthAdjust="spacing" textLength="143" x="522.5" y="443.8433">-positiveResultsperMonth</text><text fill="#000000" font-family="sans-serif" font-size="11" lengthAdjust="spacing" textLength="50" x="522.5" y="456.6479">-forecast</text><line style="stroke:#A80036;stroke-width:1.5;" x1="517.5" x2="690.5" y1="463.2422" y2="463.2422"/><!--MD5=[df38be88ccee13e832d6fafd6288a4ca]
class Test--><rect codeLine="122" fill="#FEFECE" filter="url(#fet6qi7vdw3h5)" height="60.8047" id="Test" style="stroke:#A80036;stroke-width:1.5;" width="58" x="711" y="1159.5"/><ellipse cx="726" cy="1175.5" fill="#ADD1B2" rx="11" ry="11" style="stroke:#A80036;stroke-width:1.0;"/><path d="M728.3438,1171.1719 C727.4063,1170.7344 726.8125,1170.5938 725.9375,1170.5938 C723.3125,1170.5938 721.3125,1172.6719 721.3125,1175.3906 L721.3125,1176.5156 C721.3125,1179.0938 723.4219,1180.9844 726.3125,1180.9844 C727.5313,1180.9844 728.6875,1180.6875 729.4375,1180.1406 C730.0156,1179.7344 730.3438,1179.2813 730.3438,1178.8906 C730.3438,1178.4375 729.9531,1178.0469 729.4844,1178.0469 C729.2656,1178.0469 729.0625,1178.125 728.875,1178.3125 C728.4219,1178.7969 728.4219,1178.7969 728.2344,1178.8906 C727.8125,1179.1563 727.125,1179.2813 726.3594,1179.2813 C724.3125,1179.2813 723.0156,1178.1875 723.0156,1176.4844 L723.0156,1175.3906 C723.0156,1173.6094 724.2656,1172.2969 726,1172.2969 C726.5781,1172.2969 727.1875,1172.4531 727.6563,1172.7031 C728.1406,1172.9844 728.3125,1173.2031 728.4063,1173.6094 C728.4688,1174.0156 728.5,1174.1406 728.6406,1174.2656 C728.7813,1174.4063 729.0156,1174.5156 729.2344,1174.5156 C729.5,1174.5156 729.7656,1174.375 729.9375,1174.1563 C730.0469,1174 730.0781,1173.8125 730.0781,1173.3906 L730.0781,1171.9688 C730.0781,1171.5313 730.0625,1171.4063 729.9688,1171.25 C729.8125,1170.9844 729.5313,1170.8438 729.2344,1170.8438 C728.9375,1170.8438 728.7344,1170.9375 728.5156,1171.25 L728.3438,1171.1719 Z " fill="#000000"/><text fill="#000000" font-family="sans-serif" font-size="12" lengthAdjust="spacing" textLength="26" x="740" y="1179.6543">Test</text><line style="stroke:#A80036;stroke-width:1.5;" x1="712" x2="768" y1="1191.5" y2="1191.5"/><text fill="#000000" font-family="sans-serif" font-size="11" lengthAdjust="spacing" textLength="30" x="717" y="1205.7104">-date</text><line style="stroke:#A80036;stroke-width:1.5;" x1="712" x2="768" y1="1212.3047" y2="1212.3047"/><!--MD5=[f69a48f7b38bde3533dca6607cc4e94a]
class TypeOfTest--><rect codeLine="125" fill="#FEFECE" filter="url(#fet6qi7vdw3h5)" height="73.6094" id="TypeOfTest" style="stroke:#A80036;stroke-width:1.5;" width="139" x="670.5" y="983"/><ellipse cx="702.15" cy="999" fill="#ADD1B2" rx="11" ry="11" style="stroke:#A80036;stroke-width:1.0;"/><path d="M704.4938,994.6719 C703.5563,994.2344 702.9625,994.0938 702.0875,994.0938 C699.4625,994.0938 697.4625,996.1719 697.4625,998.8906 L697.4625,1000.0156 C697.4625,1002.5938 699.5719,1004.4844 702.4625,1004.4844 C703.6813,1004.4844 704.8375,1004.1875 705.5875,1003.6406 C706.1656,1003.2344 706.4938,1002.7813 706.4938,1002.3906 C706.4938,1001.9375 706.1031,1001.5469 705.6344,1001.5469 C705.4156,1001.5469 705.2125,1001.625 705.025,1001.8125 C704.5719,1002.2969 704.5719,1002.2969 704.3844,1002.3906 C703.9625,1002.6563 703.275,1002.7813 702.5094,1002.7813 C700.4625,1002.7813 699.1656,1001.6875 699.1656,999.9844 L699.1656,998.8906 C699.1656,997.1094 700.4156,995.7969 702.15,995.7969 C702.7281,995.7969 703.3375,995.9531 703.8063,996.2031 C704.2906,996.4844 704.4625,996.7031 704.5563,997.1094 C704.6188,997.5156 704.65,997.6406 704.7906,997.7656 C704.9313,997.9063 705.1656,998.0156 705.3844,998.0156 C705.65,998.0156 705.9156,997.875 706.0875,997.6563 C706.1969,997.5 706.2281,997.3125 706.2281,996.8906 L706.2281,995.4688 C706.2281,995.0313 706.2125,994.9063 706.1188,994.75 C705.9625,994.4844 705.6813,994.3438 705.3844,994.3438 C705.0875,994.3438 704.8844,994.4375 704.6656,994.75 L704.4938,994.6719 Z " fill="#000000"/><text fill="#000000" font-family="sans-serif" font-size="12" lengthAdjust="spacing" textLength="70" x="719.85" y="1003.1543">TypeOfTest</text><line style="stroke:#A80036;stroke-width:1.5;" x1="671.5" x2="808.5" y1="1015" y2="1015"/><text fill="#000000" font-family="sans-serif" font-size="11" lengthAdjust="spacing" textLength="54" x="676.5" y="1029.2104">-category</text><text fill="#000000" font-family="sans-serif" font-size="11" lengthAdjust="spacing" textLength="127" x="676.5" y="1042.0151">-measuredParameters</text><line style="stroke:#A80036;stroke-width:1.5;" x1="671.5" x2="808.5" y1="1048.6094" y2="1048.6094"/><!--MD5=[5e6ae5ca2322ea7d8c17b0187d1bbc44]
class TestResults--><rect codeLine="129" fill="#FEFECE" filter="url(#fet6qi7vdw3h5)" height="60.8047" id="TestResults" style="stroke:#A80036;stroke-width:1.5;" width="117" x="851.5" y="567"/><ellipse cx="873.7" cy="583" fill="#ADD1B2" rx="11" ry="11" style="stroke:#A80036;stroke-width:1.0;"/><path d="M876.0438,578.6719 C875.1063,578.2344 874.5125,578.0938 873.6375,578.0938 C871.0125,578.0938 869.0125,580.1719 869.0125,582.8906 L869.0125,584.0156 C869.0125,586.5938 871.1219,588.4844 874.0125,588.4844 C875.2313,588.4844 876.3875,588.1875 877.1375,587.6406 C877.7156,587.2344 878.0438,586.7813 878.0438,586.3906 C878.0438,585.9375 877.6531,585.5469 877.1844,585.5469 C876.9656,585.5469 876.7625,585.625 876.575,585.8125 C876.1219,586.2969 876.1219,586.2969 875.9344,586.3906 C875.5125,586.6563 874.825,586.7813 874.0594,586.7813 C872.0125,586.7813 870.7156,585.6875 870.7156,583.9844 L870.7156,582.8906 C870.7156,581.1094 871.9656,579.7969 873.7,579.7969 C874.2781,579.7969 874.8875,579.9531 875.3563,580.2031 C875.8406,580.4844 876.0125,580.7031 876.1063,581.1094 C876.1688,581.5156 876.2,581.6406 876.3406,581.7656 C876.4813,581.9063 876.7156,582.0156 876.9344,582.0156 C877.2,582.0156 877.4656,581.875 877.6375,581.6563 C877.7469,581.5 877.7781,581.3125 877.7781,580.8906 L877.7781,579.4688 C877.7781,579.0313 877.7625,578.9063 877.6688,578.75 C877.5125,578.4844 877.2313,578.3438 876.9344,578.3438 C876.6375,578.3438 876.4344,578.4375 876.2156,578.75 L876.0438,578.6719 Z " fill="#000000"/><text fill="#000000" font-family="sans-serif" font-size="12" lengthAdjust="spacing" textLength="69" x="889.3" y="587.1543">TestResults</text><line style="stroke:#A80036;stroke-width:1.5;" x1="852.5" x2="967.5" y1="599" y2="599"/><text fill="#000000" font-family="sans-serif" font-size="11" lengthAdjust="spacing" textLength="105" x="857.5" y="613.2104">-parameterResults</text><line style="stroke:#A80036;stroke-width:1.5;" x1="852.5" x2="967.5" y1="619.8047" y2="619.8047"/><!--MD5=[0a105ea8d9af02dadec02d3e239f1d60]
class NHS--><rect fill="#FEFECE" filter="url(#fet6qi7vdw3h5)" height="48" id="NHS" style="stroke:#A80036;stroke-width:1.5;" width="57" x="575.5" y="7"/><ellipse cx="590.5" cy="23" fill="#ADD1B2" rx="11" ry="11" style="stroke:#A80036;stroke-width:1.0;"/><path d="M592.8438,18.6719 C591.9063,18.2344 591.3125,18.0938 590.4375,18.0938 C587.8125,18.0938 585.8125,20.1719 585.8125,22.8906 L585.8125,24.0156 C585.8125,26.5938 587.9219,28.4844 590.8125,28.4844 C592.0313,28.4844 593.1875,28.1875 593.9375,27.6406 C594.5156,27.2344 594.8438,26.7813 594.8438,26.3906 C594.8438,25.9375 594.4531,25.5469 593.9844,25.5469 C593.7656,25.5469 593.5625,25.625 593.375,25.8125 C592.9219,26.2969 592.9219,26.2969 592.7344,26.3906 C592.3125,26.6563 591.625,26.7813 590.8594,26.7813 C588.8125,26.7813 587.5156,25.6875 587.5156,23.9844 L587.5156,22.8906 C587.5156,21.1094 588.7656,19.7969 590.5,19.7969 C591.0781,19.7969 591.6875,19.9531 592.1563,20.2031 C592.6406,20.4844 592.8125,20.7031 592.9063,21.1094 C592.9688,21.5156 593,21.6406 593.1406,21.7656 C593.2813,21.9063 593.5156,22.0156 593.7344,22.0156 C594,22.0156 594.2656,21.875 594.4375,21.6563 C594.5469,21.5 594.5781,21.3125 594.5781,20.8906 L594.5781,19.4688 C594.5781,19.0313 594.5625,18.9063 594.4688,18.75 C594.3125,18.4844 594.0313,18.3438 593.7344,18.3438 C593.4375,18.3438 593.2344,18.4375 593.0156,18.75 L592.8438,18.6719 Z " fill="#000000"/><text fill="#000000" font-family="sans-serif" font-size="12" lengthAdjust="spacing" textLength="25" x="604.5" y="27.1543">NHS</text><line style="stroke:#A80036;stroke-width:1.5;" x1="576.5" x2="631.5" y1="39" y2="39"/><line style="stroke:#A80036;stroke-width:1.5;" x1="576.5" x2="631.5" y1="47" y2="47"/><!--MD5=[68767c78be08caa96780c014af9fbeaa]
class API--><rect fill="#FEFECE" filter="url(#fet6qi7vdw3h5)" height="48" id="API" style="stroke:#A80036;stroke-width:1.5;" width="49" x="579.5" y="157.5"/><ellipse cx="594.5" cy="173.5" fill="#ADD1B2" rx="11" ry="11" style="stroke:#A80036;stroke-width:1.0;"/><path d="M596.8438,169.1719 C595.9063,168.7344 595.3125,168.5938 594.4375,168.5938 C591.8125,168.5938 589.8125,170.6719 589.8125,173.3906 L589.8125,174.5156 C589.8125,177.0938 591.9219,178.9844 594.8125,178.9844 C596.0313,178.9844 597.1875,178.6875 597.9375,178.1406 C598.5156,177.7344 598.8438,177.2813 598.8438,176.8906 C598.8438,176.4375 598.4531,176.0469 597.9844,176.0469 C597.7656,176.0469 597.5625,176.125 597.375,176.3125 C596.9219,176.7969 596.9219,176.7969 596.7344,176.8906 C596.3125,177.1563 595.625,177.2813 594.8594,177.2813 C592.8125,177.2813 591.5156,176.1875 591.5156,174.4844 L591.5156,173.3906 C591.5156,171.6094 592.7656,170.2969 594.5,170.2969 C595.0781,170.2969 595.6875,170.4531 596.1563,170.7031 C596.6406,170.9844 596.8125,171.2031 596.9063,171.6094 C596.9688,172.0156 597,172.1406 597.1406,172.2656 C597.2813,172.4063 597.5156,172.5156 597.7344,172.5156 C598,172.5156 598.2656,172.375 598.4375,172.1563 C598.5469,172 598.5781,171.8125 598.5781,171.3906 L598.5781,169.9688 C598.5781,169.5313 598.5625,169.4063 598.4688,169.25 C598.3125,168.9844 598.0313,168.8438 597.7344,168.8438 C597.4375,168.8438 597.2344,168.9375 597.0156,169.25 L596.8438,169.1719 Z " fill="#000000"/><text fill="#000000" font-family="sans-serif" font-size="12" lengthAdjust="spacing" textLength="17" x="608.5" y="177.6543">API</text><line style="stroke:#A80036;stroke-width:1.5;" x1="580.5" x2="627.5" y1="189.5" y2="189.5"/><line style="stroke:#A80036;stroke-width:1.5;" x1="580.5" x2="627.5" y1="197.5" y2="197.5"/><!--MD5=[978e6476bbbd7a7548766fd3b1b86795]
reverse link ClinicalAnalysisLaboratories to Company--><path codeLine="11" d="M246.412,1250.823 C228.756,1289.108 206.619,1337.11 192.637,1367.429 " fill="none" id="ClinicalAnalysisLaboratories-backto-Company" style="stroke:#A80036;stroke-width:1.0;"/><polygon fill="#A80036" points="248.542,1246.204,241.1399,1252.7009,246.4476,1250.7442,248.4043,1256.0519,248.542,1246.204" style="stroke:#A80036;stroke-width:1.0;"/><text fill="#000000" font-family="sans-serif" font-size="13" lengthAdjust="spacing" textLength="34" x="234" y="1289.0669">owns</text><text fill="#000000" font-family="sans-serif" font-size="13" lengthAdjust="spacing" textLength="7" x="238.0127" y="1266.0415">*</text><text fill="#000000" font-family="sans-serif" font-size="13" lengthAdjust="spacing" textLength="8" x="186.7451" y="1356.2038">1</text><!--MD5=[cadc0906c01d6c65e975e16d992338c9]
reverse link Sample to ClinicalAnalysisLaboratories--><path codeLine="132" d="M419.843,1047.62 C402.739,1058.93 383.305,1072.79 367,1087 C350.741,1101.17 334.42,1117.98 320.09,1133.832 " fill="none" id="Sample-backto-ClinicalAnalysisLaboratories" style="stroke:#A80036;stroke-width:1.0;"/><polygon fill="#A80036" points="424.138,1044.8,414.4211,1046.4071,419.9615,1047.549,418.8196,1053.0894,424.138,1044.8" style="stroke:#A80036;stroke-width:1.0;"/><text fill="#000000" font-family="sans-serif" font-size="13" lengthAdjust="spacing" textLength="48" x="368" y="1100.0669">collects</text><text fill="#000000" font-family="sans-serif" font-size="13" lengthAdjust="spacing" textLength="7" x="409.5923" y="1044.9951">*</text><text fill="#000000" font-family="sans-serif" font-size="13" lengthAdjust="spacing" textLength="8" x="317.4828" y="1122.7484">1</text><!--MD5=[83999087262e3f95ecaa1d42f873aabe]
reverse link Client to Receptionist--><path codeLine="133" d="M538,1478.417 C538,1501.817 538,1527.205 538,1549.833 " fill="none" id="Client-backto-Receptionist" style="stroke:#A80036;stroke-width:1.0;"/><polygon fill="#A80036" points="538,1473.143,534,1482.143,538,1478.143,542,1482.143,538,1473.143" style="stroke:#A80036;stroke-width:1.0;"/><text fill="#000000" font-family="sans-serif" font-size="13" lengthAdjust="spacing" textLength="56" x="539" y="1516.0669">registers</text><text fill="#000000" font-family="sans-serif" font-size="13" lengthAdjust="spacing" textLength="7" x="530.6391" y="1493.7167">*</text><text fill="#000000" font-family="sans-serif" font-size="13" lengthAdjust="spacing" textLength="8" x="529.5875" y="1539.0194">1</text><!--MD5=[ee42d507f3e937b1221f31a32b8112fb]
reverse link ChemicalLaboratory to Company--><path codeLine="134" d="M382.265,608.57 C281.431,626.17 122,672.85 122,792 C122,792 122,792 122,1191 C122,1255.753 148.484,1327.944 165.347,1367.347 " fill="none" id="ChemicalLaboratory-backto-Company" style="stroke:#A80036;stroke-width:1.0;"/><polygon fill="#A80036" points="387.321,607.7,377.7742,605.2797,382.393,608.5456,379.1271,613.1645,387.321,607.7" style="stroke:#A80036;stroke-width:1.0;"/><text fill="#000000" font-family="sans-serif" font-size="13" lengthAdjust="spacing" textLength="34" x="123" y="1024.5669">owns</text><text fill="#000000" font-family="sans-serif" font-size="13" lengthAdjust="spacing" textLength="8" x="371.4776" y="605.0284">1</text><text fill="#000000" font-family="sans-serif" font-size="13" lengthAdjust="spacing" textLength="8" x="153.7061" y="1356.5787">1</text><!--MD5=[eb8806e8ccd17218cdd0339154bf9e5c]
reverse link Client to Sample--><path codeLine="135" d="M489.152,1318.423 C477.603,1295.868 466.929,1270.679 461,1246 C445.35,1180.859 451.566,1102.02 457.375,1057.07 " fill="none" id="Client-backto-Sample" style="stroke:#A80036;stroke-width:1.0;"/><polygon fill="#A80036" points="491.473,1322.898,490.8825,1313.0669,489.172,1318.4589,483.78,1316.7484,491.473,1322.898" style="stroke:#A80036;stroke-width:1.0;"/><text fill="#000000" font-family="sans-serif" font-size="13" lengthAdjust="spacing" textLength="106" x="462" y="1194.5669">is collected from</text><text fill="#000000" font-family="sans-serif" font-size="13" lengthAdjust="spacing" textLength="8" x="478.4992" y="1311.8188">1</text><text fill="#000000" font-family="sans-serif" font-size="13" lengthAdjust="spacing" textLength="8" x="447.7809" y="1076.5621">1</text><!--MD5=[65c5b509916ed9c0531bcd26c55dbd83]
reverse link LabOrder to Client--><path codeLine="136" d="M582.282,1225.817 C566.897,1239.564 551.662,1256.707 543,1276 C536.498,1290.481 533.396,1306.945 532.255,1322.963 " fill="none" id="LabOrder-backto-Client" style="stroke:#A80036;stroke-width:1.0;"/><polygon fill="#A80036" points="586.193,1222.396,576.7853,1225.3107,582.4296,1225.6879,582.0524,1231.3322,586.193,1222.396" style="stroke:#A80036;stroke-width:1.0;"/><text fill="#000000" font-family="sans-serif" font-size="13" lengthAdjust="spacing" textLength="39" x="544" y="1289.0669">brings</text><text fill="#000000" font-family="sans-serif" font-size="13" lengthAdjust="spacing" textLength="24" x="554.5596" y="1222.8435">1..2</text><text fill="#000000" font-family="sans-serif" font-size="13" lengthAdjust="spacing" textLength="8" x="523.2957" y="1311.8902">1</text><!--MD5=[eff94aa5a24ddcc1df337b0804773a55]
reverse link Test to MedicalLabTechnician--><path codeLine="137" d="M740,1225.615 C740,1253.727 740,1294.237 740,1328.814 " fill="none" id="Test-backto-MedicalLabTechnician" style="stroke:#A80036;stroke-width:1.0;"/><polygon fill="#A80036" points="740,1220.515,736,1229.515,740,1225.515,744,1229.515,740,1220.515" style="stroke:#A80036;stroke-width:1.0;"/><text fill="#000000" font-family="sans-serif" font-size="13" lengthAdjust="spacing" textLength="58" x="741" y="1289.0669">conducts</text><text fill="#000000" font-family="sans-serif" font-size="13" lengthAdjust="spacing" textLength="7" x="732.2781" y="1240.4563">*</text><text fill="#000000" font-family="sans-serif" font-size="13" lengthAdjust="spacing" textLength="8" x="731.5875" y="1317.9984">1</text><!--MD5=[6dba24dc0f16d673b4663f61de2d8959]
reverse link Test to Client--><path codeLine="138" d="M712.721,1224.557 C706.441,1231.813 699.649,1239.31 693,1246 C674.564,1264.549 622.632,1304.647 604,1323 C598.236,1328.678 592.364,1334.765 586.617,1340.92 " fill="none" id="Test-backto-Client" style="stroke:#A80036;stroke-width:1.0;"/><polygon fill="#A80036" points="716.152,1220.557,707.2564,1224.7841,712.8967,1224.3522,713.3287,1229.9925,716.152,1220.557" style="stroke:#A80036;stroke-width:1.0;"/><text fill="#000000" font-family="sans-serif" font-size="13" lengthAdjust="spacing" textLength="71" x="658" y="1289.0669">performs a</text><text fill="#000000" font-family="sans-serif" font-size="13" lengthAdjust="spacing" textLength="8" x="702.4084" y="1240.507">1</text><text fill="#000000" font-family="sans-serif" font-size="13" lengthAdjust="spacing" textLength="8" x="594.3451" y="1328.4793">1</text><!--MD5=[b38022c943dcc2196c953f0d3c4be53e]
reverse link TypeOfTest to Test--><path codeLine="139" d="M740,1062.16 C740,1092.3 740,1132.467 740,1159.456 " fill="none" id="TypeOfTest-backto-Test" style="stroke:#A80036;stroke-width:1.0;"/><polygon fill="#A80036" points="740,1057.04,736,1066.04,740,1062.04,744,1066.04,740,1057.04" style="stroke:#A80036;stroke-width:1.0;"/><text fill="#000000" font-family="sans-serif" font-size="13" lengthAdjust="spacing" textLength="22" x="741" y="1100.0669">is a</text><text fill="#000000" font-family="sans-serif" font-size="13" lengthAdjust="spacing" textLength="8" x="731.3125" y="1076.8072">1</text><text fill="#000000" font-family="sans-serif" font-size="13" lengthAdjust="spacing" textLength="8" x="731.125" y="1148.2367">1</text><!--MD5=[ca43670e89bace4a7eb33bc55e976959]
reverse link ChemicalLaboratory to Sample--><path codeLine="140" d="M463,652.25 C463,739.34 463,908.97 463,983 " fill="none" id="ChemicalLaboratory-backto-Sample" style="stroke:#A80036;stroke-width:1.0;"/><polygon fill="#A80036" points="463,647.15,459,656.15,463,652.15,467,656.15,463,647.15" style="stroke:#A80036;stroke-width:1.0;"/><text fill="#000000" font-family="sans-serif" font-size="13" lengthAdjust="spacing" textLength="70" x="464" y="797.5669">are sent to</text><text fill="#000000" font-family="sans-serif" font-size="13" lengthAdjust="spacing" textLength="8" x="454.4375" y="667.2476">1</text><text fill="#000000" font-family="sans-serif" font-size="13" lengthAdjust="spacing" textLength="7" x="455.3547" y="971.9105">*</text><!--MD5=[655f63077aed01c40b57658640a9dadc]
reverse link Sample to Test--><path codeLine="141" d="M506.41,1036.19 C554.998,1054.52 634.563,1088.63 693,1134 C702.326,1141.24 711.14,1150.579 718.561,1159.499 " fill="none" id="Sample-backto-Test" style="stroke:#A80036;stroke-width:1.0;"/><polygon fill="#A80036" points="501.515,1034.36,508.5412,1041.2617,506.1976,1036.1131,511.3461,1033.7695,501.515,1034.36" style="stroke:#A80036;stroke-width:1.0;"/><text fill="#000000" font-family="sans-serif" font-size="13" lengthAdjust="spacing" textLength="71" x="648" y="1100.0669">produces a</text><text fill="#000000" font-family="sans-serif" font-size="13" lengthAdjust="spacing" textLength="8" x="509.6194" y="1032.7845">1</text><text fill="#000000" font-family="sans-serif" font-size="13" lengthAdjust="spacing" textLength="8" x="704.9962" y="1148.2891">1</text><!--MD5=[cd338187eb4caa6e8a540c01e5ca8adb]
reverse link TestResults to ClinicalChemistTechnologist--><path codeLine="142" d="M871.185,631.47 C855.348,645.25 837.028,661.61 821,677 C805.557,691.83 789.383,708.22 774.336,723.87 " fill="none" id="TestResults-backto-ClinicalChemistTechnologist" style="stroke:#A80036;stroke-width:1.0;"/><polygon fill="#A80036" points="875.155,628.03,865.7324,630.8962,871.3747,631.3025,870.9684,636.9447,875.155,628.03" style="stroke:#A80036;stroke-width:1.0;"/><text fill="#000000" font-family="sans-serif" font-size="13" lengthAdjust="spacing" textLength="59" x="822" y="690.0669">produces</text><text fill="#000000" font-family="sans-serif" font-size="13" lengthAdjust="spacing" textLength="7" x="860.2463" y="647.9744">*</text><text fill="#000000" font-family="sans-serif" font-size="13" lengthAdjust="spacing" textLength="8" x="772.455" y="713.0602">1</text><!--MD5=[0cd951db9f1d51bb36afa2b16ff8bd1d]
reverse link Client to Report--><path codeLine="143" d="M590.618,1462.681 C594.938,1466.412 599.414,1469.9 604,1473 C721.563,1552.454 887.832,1594.119 964.42,1610.113 " fill="none" id="Client-backto-Report" style="stroke:#A80036;stroke-width:1.0;"/><polygon fill="#A80036" points="586.695,1459.191,590.7612,1468.1613,590.4309,1462.5141,596.0781,1462.1838,586.695,1459.191" style="stroke:#A80036;stroke-width:1.0;"/><text fill="#000000" font-family="sans-serif" font-size="13" lengthAdjust="spacing" textLength="59" x="686" y="1516.0669">is sent to</text><text fill="#000000" font-family="sans-serif" font-size="13" lengthAdjust="spacing" textLength="8" x="594.4346" y="1464.1214">1</text><text fill="#000000" font-family="sans-serif" font-size="13" lengthAdjust="spacing" textLength="8" x="948.5859" y="1604.3916">1</text><!--MD5=[71e06e850df568e3a85eeae5483d740b]
reverse link ChemicalLaboratory to ClinicalChemistTechnologist--><path codeLine="144" d="M529.478,650.37 C558.333,672.88 592.525,699.56 623.411,723.66 " fill="none" id="ChemicalLaboratory-backto-ClinicalChemistTechnologist" style="stroke:#A80036;stroke-width:1.0;"/><polygon fill="#A80036" points="525.261,647.08,529.897,655.7695,529.2034,650.1553,534.8175,649.4617,525.261,647.08" style="stroke:#A80036;stroke-width:1.0;"/><text fill="#000000" font-family="sans-serif" font-size="13" lengthAdjust="spacing" textLength="57" x="581" y="690.0669">is part of</text><text fill="#000000" font-family="sans-serif" font-size="13" lengthAdjust="spacing" textLength="8" x="525.454" y="667.1677">1</text><text fill="#000000" font-family="sans-serif" font-size="13" lengthAdjust="spacing" textLength="7" x="607.0174" y="712.8286">*</text><!--MD5=[e338bddaa604d724810bf423a2ed97dc]
reverse link ClinicalChemistTechnologist to Sample--><path codeLine="145" d="M631.997,865.68 C588.417,905.21 536.258,952.54 501.526,984.05 " fill="none" id="ClinicalChemistTechnologist-backto-Sample" style="stroke:#A80036;stroke-width:1.0;"/><polygon fill="#A80036" points="635.919,862.12,626.5672,865.2093,632.2175,865.4814,631.9454,871.1317,635.919,862.12" style="stroke:#A80036;stroke-width:1.0;"/><text fill="#000000" font-family="sans-serif" font-size="13" lengthAdjust="spacing" textLength="100" x="603" y="927.0669">are received by</text><text fill="#000000" font-family="sans-serif" font-size="13" lengthAdjust="spacing" textLength="8" x="620.1345" y="881.7538">1</text><text fill="#000000" font-family="sans-serif" font-size="13" lengthAdjust="spacing" textLength="7" x="509.5372" y="972.8841">*</text><!--MD5=[b49e42cafe8eb2e974897e6c33ae447b]
reverse link TestResults to SpecialistDoctor--><path codeLine="146" d="M909.428,633.06 C908.837,671.77 908,736.38 908,792 C908,792 908,792 908,1096.5 C908,1359.96 849.124,1443.396 947,1688 C958.145,1715.853 976.781,1742.32 996.129,1764.832 " fill="none" id="TestResults-backto-SpecialistDoctor" style="stroke:#A80036;stroke-width:1.0;"/><polygon fill="#A80036" points="909.506,628,905.3778,636.9419,909.4346,632.9995,913.377,637.0562,909.506,628" style="stroke:#A80036;stroke-width:1.0;"/><text fill="#000000" font-family="sans-serif" font-size="13" lengthAdjust="spacing" textLength="50" x="909" y="1194.5669">reviews</text><text fill="#000000" font-family="sans-serif" font-size="13" lengthAdjust="spacing" textLength="7" x="901.6822" y="647.9382">*</text><text fill="#000000" font-family="sans-serif" font-size="13" lengthAdjust="spacing" textLength="8" x="980.3048" y="1754.0183">1</text><!--MD5=[0d5ea959d23f129ef827e28702304be9]
reverse link Report to SpecialistDoctor--><path codeLine="147" d="M1013.52,1654.58 C1018.73,1677.532 1026.12,1708.245 1034,1735 C1036.87,1744.761 1040.14,1754.986 1043.47,1764.996 " fill="none" id="Report-backto-SpecialistDoctor" style="stroke:#A80036;stroke-width:1.0;"/><polygon fill="#A80036" points="1012.37,1649.511,1010.4506,1659.171,1013.4713,1654.3882,1018.2541,1657.4089,1012.37,1649.511" style="stroke:#A80036;stroke-width:1.0;"/><text fill="#000000" font-family="sans-serif" font-size="13" lengthAdjust="spacing" textLength="39" x="1035" y="1731.0669">writes</text><text fill="#000000" font-family="sans-serif" font-size="13" lengthAdjust="spacing" textLength="7" x="1005.9644" y="1669.4515">*</text><text fill="#000000" font-family="sans-serif" font-size="13" lengthAdjust="spacing" textLength="8" x="1032.3495" y="1753.7226">1</text><!--MD5=[34570443c17dd3b44adb3e7cf65f3a20]
reverse link ResultsValidation to SpecialistDoctor--><path codeLine="148" d="M1101,958.53 C1101,993.09 1101,1047.44 1101,1094.5 C1101,1094.5 1101,1094.5 1101,1620 C1101,1668.834 1092.42,1723.23 1084.02,1764.828 " fill="none" id="ResultsValidation-backto-SpecialistDoctor" style="stroke:#A80036;stroke-width:1.0;"/><polygon fill="#A80036" points="1101,953.16,1097,962.16,1101,958.16,1105,962.16,1101,953.16" style="stroke:#A80036;stroke-width:1.0;"/><text fill="#000000" font-family="sans-serif" font-size="13" lengthAdjust="spacing" textLength="59" x="1102" y="1289.0669">performs</text><text fill="#000000" font-family="sans-serif" font-size="13" lengthAdjust="spacing" textLength="7" x="1093.3109" y="972.7719">*</text><text fill="#000000" font-family="sans-serif" font-size="13" lengthAdjust="spacing" textLength="8" x="1077.2596" y="1754.0139">1</text><!--MD5=[e20cf370ddc2b1ec2ca5c1d1877380c6]
reverse link TestResults to Report--><path codeLine="149" d="M922.403,633.18 C926.757,646.69 931.246,662.41 934,677 C1000.85,1031.21 1005.975,1471.573 1006.095,1588.422 " fill="none" id="TestResults-backto-Report" style="stroke:#A80036;stroke-width:1.0;"/><polygon fill="#A80036" points="920.808,628.31,919.8097,638.1081,922.3651,633.0614,927.4119,635.6167,920.808,628.31" style="stroke:#A80036;stroke-width:1.0;"/><text fill="#000000" font-family="sans-serif" font-size="13" lengthAdjust="spacing" textLength="54" x="988" y="1100.0669">contains</text><text fill="#000000" font-family="sans-serif" font-size="13" lengthAdjust="spacing" textLength="8" x="914.1483" y="647.9515">1</text><text fill="#000000" font-family="sans-serif" font-size="13" lengthAdjust="spacing" textLength="8" x="997.2896" y="1577.6691">1</text><!--MD5=[51d0562c2a403e0525091be1411745cf]
reverse link NHSReport to TestResults--><path codeLine="150" d="M607.508,476.49 C611.63,491.77 618.34,506.47 629,518 C658.952,550.41 778.318,575.07 851.499,587.51 " fill="none" id="NHSReport-backto-TestResults" style="stroke:#A80036;stroke-width:1.0;"/><polygon fill="#A80036" points="606.208,471.29,604.5129,480.9919,607.422,476.1404,612.2735,479.0495,606.208,471.29" style="stroke:#A80036;stroke-width:1.0;"/><text fill="#000000" font-family="sans-serif" font-size="13" lengthAdjust="spacing" textLength="71" x="630" y="514.0669">are used in</text><text fill="#000000" font-family="sans-serif" font-size="13" lengthAdjust="spacing" textLength="8" x="598.0484" y="491.3044">1</text><text fill="#000000" font-family="sans-serif" font-size="13" lengthAdjust="spacing" textLength="7" x="836.5551" y="582.357">*</text><!--MD5=[5e380585e4d51dea2ec34604655e12a6]
reverse link LaboratoryCoordinator to TestResults--><path codeLine="151" d="M913.867,463.72 C912.833,499.24 911.648,539.92 910.865,566.8 " fill="none" id="LaboratoryCoordinator-backto-TestResults" style="stroke:#A80036;stroke-width:1.0;"/><polygon fill="#A80036" points="914.019,458.52,909.7634,467.402,913.8761,463.518,917.7602,467.6306,914.019,458.52" style="stroke:#A80036;stroke-width:1.0;"/><text fill="#000000" font-family="sans-serif" font-size="13" lengthAdjust="spacing" textLength="136" x="914" y="514.0669">must be validated by</text><text fill="#000000" font-family="sans-serif" font-size="13" lengthAdjust="spacing" textLength="8" x="905.4302" y="478.1439">1</text><text fill="#000000" font-family="sans-serif" font-size="13" lengthAdjust="spacing" textLength="7" x="903.3215" y="556.022">*</text><!--MD5=[8345a230a66c91578d736fe7097173e6]
reverse link TestResultList to SpecialistDoctor--><path codeLine="152" d="M999.473,205.76 C1081.03,234.18 1193,290.96 1193,388.5 C1193,388.5 1193,388.5 1193,1620 C1193,1673.596 1163.2,1725.635 1132.7,1764.86 " fill="none" id="TestResultList-backto-SpecialistDoctor" style="stroke:#A80036;stroke-width:1.0;"/><polygon fill="#A80036" points="994.636,204.09,1001.8429,210.8027,999.3635,205.7182,1004.448,203.2388,994.636,204.09" style="stroke:#A80036;stroke-width:1.0;"/><text fill="#000000" font-family="sans-serif" font-size="13" lengthAdjust="spacing" textLength="64" x="1194" y="1024.5669">can check</text><text fill="#000000" font-family="sans-serif" font-size="13" lengthAdjust="spacing" textLength="8" x="1002.5122" y="202.5911">1</text><text fill="#000000" font-family="sans-serif" font-size="13" lengthAdjust="spacing" textLength="7" x="1132.0113" y="1754.0492">*</text><!--MD5=[c56424ecf038915b4cf243fb461ddc19]
reverse link TestResultList to ClinicalChemistTechnologist--><path codeLine="153" d="M841.819,234.57 C818.375,254.8 794.756,279.9 780,308 C709.263,442.7 703.756,626.06 706.813,723.9 " fill="none" id="TestResultList-backto-ClinicalChemistTechnologist" style="stroke:#A80036;stroke-width:1.0;"/><polygon fill="#A80036" points="845.885,231.11,836.4424,233.9096,842.0817,234.3557,841.6356,239.9949,845.885,231.11" style="stroke:#A80036;stroke-width:1.0;"/><text fill="#000000" font-family="sans-serif" font-size="13" lengthAdjust="spacing" textLength="64" x="721" y="514.0669">can check</text><text fill="#000000" font-family="sans-serif" font-size="13" lengthAdjust="spacing" textLength="8" x="827.4626" y="251.2019">1</text><text fill="#000000" font-family="sans-serif" font-size="13" lengthAdjust="spacing" textLength="7" x="699.0203" y="713.0933">*</text><!--MD5=[30bf558d4af4018b9bd557ad89f27a18]
reverse link TestResultList to LaboratoryCoordinator--><path codeLine="154" d="M916,236.13 C916,261.87 916,293 916,320.39 " fill="none" id="TestResultList-backto-LaboratoryCoordinator" style="stroke:#A80036;stroke-width:1.0;"/><polygon fill="#A80036" points="916,231.06,912,240.06,916,236.06,920,240.06,916,231.06" style="stroke:#A80036;stroke-width:1.0;"/><text fill="#000000" font-family="sans-serif" font-size="13" lengthAdjust="spacing" textLength="64" x="917" y="274.0669">can check</text><text fill="#000000" font-family="sans-serif" font-size="13" lengthAdjust="spacing" textLength="8" x="907.4375" y="251.1449">1</text><text fill="#000000" font-family="sans-serif" font-size="13" lengthAdjust="spacing" textLength="7" x="908.6391" y="309.5823">*</text><!--MD5=[82c6bb7b8e3177e32d04c69f75bd7c02]
reverse link NHS to API--><path codeLine="155" d="M604,60.29 C604,88.49 604,131.26 604,157.46 " fill="none" id="NHS-backto-API" style="stroke:#A80036;stroke-width:1.0;"/><polygon fill="#A80036" points="604,55.2,600,64.2,604,60.2,608,64.2,604,55.2" style="stroke:#A80036;stroke-width:1.0;"/><text fill="#000000" font-family="sans-serif" font-size="13" lengthAdjust="spacing" textLength="55" x="605" y="98.0669">sends to</text><text fill="#000000" font-family="sans-serif" font-size="13" lengthAdjust="spacing" textLength="8" x="595.025" y="75.01">1</text><text fill="#000000" font-family="sans-serif" font-size="13" lengthAdjust="spacing" textLength="7" x="596.1031" y="146.4618">*</text><!--MD5=[5d9e55dfe12902e6bbd9fe8e84f6c5d1]
reverse link API to NHSReport--><path codeLine="156" d="M604,210.86 C604,235.82 604,273.42 604,307.61 " fill="none" id="API-backto-NHSReport" style="stroke:#A80036;stroke-width:1.0;"/><polygon fill="#A80036" points="604,205.73,600,214.73,604,210.73,608,214.73,604,205.73" style="stroke:#A80036;stroke-width:1.0;"/><text fill="#000000" font-family="sans-serif" font-size="13" lengthAdjust="spacing" textLength="34" x="605" y="274.0669">using</text><text fill="#000000" font-family="sans-serif" font-size="13" lengthAdjust="spacing" textLength="8" x="595.025" y="225.5473">1</text><text fill="#000000" font-family="sans-serif" font-size="13" lengthAdjust="spacing" textLength="7" x="596.6992" y="296.9902">*</text><!--MD5=[33ab1a2a3ee24839f07692b0199c2b76]
reverse link TestResults to ResultsValidation--><path codeLine="157" d="M973.07,625.98 C995.522,638.58 1019.14,655.56 1035,677 C1083.76,742.92 1096.5,842.56 1099.83,891.8 " fill="none" id="TestResults-backto-ResultsValidation" style="stroke:#A80036;stroke-width:1.0;"/><polygon fill="#A80036" points="968.598,623.51,974.5572,631.3514,972.9794,625.919,978.4117,624.3412,968.598,623.51" style="stroke:#A80036;stroke-width:1.0;"/><text fill="#000000" font-family="sans-serif" font-size="13" lengthAdjust="spacing" textLength="13" x="1047" y="690.0669">to</text><text fill="#000000" font-family="sans-serif" font-size="13" lengthAdjust="spacing" textLength="7" x="976.5543" y="622.9695">*</text><text fill="#000000" font-family="sans-serif" font-size="13" lengthAdjust="spacing" textLength="8" x="1090.7637" y="881.022">1</text><!--MD5=[12d76240d3c3c66074d4ec2ea8bf469c]
link Company to Parameter--><path codeLine="158" d="M179,1428.535 C179,1464.998 179,1527.471 179,1570.657 " fill="none" id="Company-to-Parameter" style="stroke:#A80036;stroke-width:1.0;"/><polygon fill="#A80036" points="179,1575.825,183,1566.825,179,1570.825,175,1566.825,179,1575.825" style="stroke:#A80036;stroke-width:1.0;"/><text fill="#000000" font-family="sans-serif" font-size="13" lengthAdjust="spacing" textLength="56" x="180" y="1516.0669">specifies</text><text fill="#000000" font-family="sans-serif" font-size="13" lengthAdjust="spacing" textLength="8" x="170.175" y="1448.4805">1</text><text fill="#000000" font-family="sans-serif" font-size="13" lengthAdjust="spacing" textLength="7" x="171.4422" y="1564.7932">*</text><!--MD5=[93b4f25fb503a8e0e9a46b1d30ff3f44]
link Company to ParameterCategory--><path codeLine="159" d="M202.377,1428.67 C216.887,1448.593 234.677,1476.04 245,1503 C279.646,1593.479 272.972,1621.447 281,1718 C281.626,1725.53 283.424,1727.844 281,1735 C273.839,1756.139 260.088,1776.301 246.294,1792.781 " fill="none" id="Company-to-ParameterCategory" style="stroke:#A80036;stroke-width:1.0;"/><polygon fill="#A80036" points="242.791,1796.89,251.6737,1792.6359,246.0347,1793.085,245.5856,1787.446,242.791,1796.89" style="stroke:#A80036;stroke-width:1.0;"/><text fill="#000000" font-family="sans-serif" font-size="13" lengthAdjust="spacing" textLength="23" x="280" y="1623.5669">has</text><text fill="#000000" font-family="sans-serif" font-size="13" lengthAdjust="spacing" textLength="8" x="198.1918" y="1448.2839">1</text><text fill="#000000" font-family="sans-serif" font-size="13" lengthAdjust="spacing" textLength="7" x="241.721" y="1786.0574">*</text><!--MD5=[6df8849671cb880f6936e94aa30db6f9]
link Parameter to ParameterCategory--><path codeLine="160" d="M170,1662.04 C166.659,1683.926 164.629,1711.046 169,1735 C172.521,1754.297 179.644,1774.73 186.707,1791.916 " fill="none" id="Parameter-to-ParameterCategory" style="stroke:#A80036;stroke-width:1.0;"/><polygon fill="#A80036" points="188.695,1796.673,188.9165,1786.8266,186.7676,1792.0594,181.5348,1789.9105,188.695,1796.673" style="stroke:#A80036;stroke-width:1.0;"/><text fill="#000000" font-family="sans-serif" font-size="13" lengthAdjust="spacing" textLength="106" x="170" y="1731.0669">presented under</text><text fill="#000000" font-family="sans-serif" font-size="13" lengthAdjust="spacing" textLength="7" x="160.9297" y="1682.4543">*</text><text fill="#000000" font-family="sans-serif" font-size="13" lengthAdjust="spacing" textLength="8" x="176.9" y="1785.8017">1</text><!--MD5=[8fed49cf12a674e36a1de475622ee091]
link ParameterCategory to Administrator--><path codeLine="161" d="M192.259,1871.133 C181.46,1899.53 166.067,1940.01 152.731,1975.079 " fill="none" id="ParameterCategory-to-Administrator" style="stroke:#A80036;stroke-width:1.0;"/><polygon fill="#A80036" points="150.947,1979.768,157.885,1972.7777,152.7244,1975.0946,150.4075,1969.9339,150.947,1979.768" style="stroke:#A80036;stroke-width:1.0;"/><text fill="#000000" font-family="sans-serif" font-size="13" lengthAdjust="spacing" textLength="69" x="169" y="1946.0669">created by</text><text fill="#000000" font-family="sans-serif" font-size="13" lengthAdjust="spacing" textLength="7" x="182.4035" y="1890.6356">*</text><text fill="#000000" font-family="sans-serif" font-size="13" lengthAdjust="spacing" textLength="8" x="145.2103" y="1968.9477">1</text><!--MD5=[eaea43e34e45c5b9d20b595fc78f1f20]
link Company to Administrator--><path codeLine="162" d="M162.324,1428.509 C146.597,1458.146 124.117,1505.656 115,1550 C84.5038,1698.331 100.4087,1876.757 113.503,1974.697 " fill="none" id="Company-to-Administrator" style="stroke:#A80036;stroke-width:1.0;"/><polygon fill="#A80036" points="114.203,1979.876,116.9638,1970.422,113.5345,1974.9209,109.0356,1971.4916,114.203,1979.876" style="stroke:#A80036;stroke-width:1.0;"/><text fill="#000000" font-family="sans-serif" font-size="13" lengthAdjust="spacing" textLength="41" x="99" y="1731.0669">knows</text><text fill="#000000" font-family="sans-serif" font-size="13" lengthAdjust="spacing" textLength="8" x="150.0596" y="1448.4491">1</text><text fill="#000000" font-family="sans-serif" font-size="13" lengthAdjust="spacing" textLength="8" x="104.6773" y="1969.0668">1</text><!--MD5=[cac753e55380f58beb9f38eec31a53f3]
@startuml
class Company
skinparam classAttributeIconSize 0
Company : -designation
Class ClinicalAnalysisLaboratories{
-laboratoryID
-address
-name
-phoneNumber
-tinNumber
}
ClinicalAnalysisLaboratories "*" <- - "1" Company : owns
Class ChemicalLaboratory{
-address
-name
-phoneNumber
-tinNumber
}
Class Client{
-ccn
-name
-nhsNumber
-birthDate
-sex
-tif
-phoneNumber
-eMail
}
Class Receptionist{
-employeeID
-organizationRole
-name
-address
-phoneNumber
-eMail
-standardOcupationalClassificationCode
}
Class Sample{
-category
-sampleID
}
Class Administrator{
-employeeID
-organizationRole
-name
-address
-phoneNumber
-eMail
-standardOcupationalClassificationCode
}
Class MedicalLabTechnician{
-employeeID
-organizationRole
-name
-address
-phoneNumber
-eMail
-standardOcupationalClassificationCode
}
class ParameterCategory {
  -name
  -code
}
class Parameter {
 -code
 -shortname
 -description
}
Class ClinicalChemistTechnologist{
-employeeID
-organizationRole
-name
-address
-phoneNumber
-eMail
-standardOcupationalClassificationCode
}
Class SpecialistDoctor{
-employeeID
-organizationRole
-name
-address
-phoneNumber
-eMail
-standardOcupationalClassificationCode
}
Class LaboratoryCoordinator{
-employeeID
-organizationRole
-name
-address
-phoneNumber
-eMail
-standardOcupationalClassificationCode
}
Class ResultsValidation{
-testReferenceValues
}
Class LabOrder{
-typeOfTest
-parameters
}
Class Report{
-bodyOfText
}
Class TestResultList{
-listOfPositiveCases
-listOfNegativeCases
-sortingAlgorithmByTIF
-sortingAlgorithmByName
}
Class NHSReport{
-numberCovidTestsPositive
-numberCovidTestsNegative
-covidTestsPerDay
-positiveResultsPerDay
-covidTestsPerWeek
-positiveResultsPerWeek
-covidTestsPerMonth
-positiveResultsperMonth
-forecast
}
Class Test{
-date
}
Class TypeOfTest{
-category
-measuredParameters
}
Class TestResults{
-parameterResults
}
Sample "*" <- - "1" ClinicalAnalysisLaboratories : collects
Client "*" <- - "1" Receptionist : registers
ChemicalLaboratory "1" <- - "1" Company : owns
Client "1" <- - "1" Sample: is collected from
LabOrder "1..2" <- - "1" Client: brings
Test "*" <- - "1" MedicalLabTechnician : conducts
Test "1" <- - "1" Client: performs a
TypeOfTest "1" <- - "1" Test: is a
ChemicalLaboratory "1" <- - "*" Sample: are sent to
Sample "1" <- - "1" Test: produces a
TestResults "*" <- - "1" ClinicalChemistTechnologist: produces
Client "1" <- - "1" Report: is sent to
ChemicalLaboratory "1" <- - "*" ClinicalChemistTechnologist: is part of
ClinicalChemistTechnologist "1" <- - "*" Sample : are received by
TestResults "*" <- - "1" SpecialistDoctor: reviews
Report "*" <- - "1" SpecialistDoctor: writes
ResultsValidation "*" <- - "1" SpecialistDoctor: performs
TestResults "1" <- - "1" Report: contains
NHSReport"1" <- - "*" TestResults: are used in
LaboratoryCoordinator "1" <- - "*" TestResults : must be validated by
TestResultList "1" <- - "*" SpecialistDoctor : can check
TestResultList "1" <- - "*" ClinicalChemistTechnologist : can check
TestResultList "1" <- - "*" LaboratoryCoordinator : can check
NHS"1" <- - "*" API: sends to
API"1" <- - "*" NHSReport: using
TestResults "*" <- - "1" ResultsValidation : to
Company "1" - -> "*" Parameter : specifies
Company "1" - -> "*" ParameterCategory : has
Parameter "*" - -> "1" ParameterCategory : presented under
ParameterCategory "*" - -> "1" Administrator : created by
Company "1" - -> "1" Administrator : knows
@enduml

PlantUML version 1.2021.5(Sun Apr 25 11:20:28 UTC 2021)
(GPL source distribution)
Java Runtime: Java(TM) SE Runtime Environment
JVM: Java HotSpot(TM) 64-Bit Server VM
Default Encoding: UTF-8
Language: en
Country: US
--></g></svg>