<?xml version="1.0" encoding="UTF-8" standalone="no"?><svg xmlns="http://www.w3.org/2000/svg" xmlns:xlink="http://www.w3.org/1999/xlink" contentScriptType="application/ecmascript" contentStyleType="text/css" height="2144px" preserveAspectRatio="none" style="width:1164px;height:2144px;" version="1.1" viewBox="0 0 1164 2144" width="1164px" zoomAndPan="magnify"><defs><filter height="300%" id="f6fql7seekdff" width="300%" x="-1" y="-1"><feGaussianBlur result="blurOut" stdDeviation="2.0"/><feColorMatrix in="blurOut" result="blurOut2" type="matrix" values="0 0 0 0 0 0 0 0 0 0 0 0 0 0 0 0 0 0 .4 0"/><feOffset dx="4.0" dy="4.0" in="blurOut2" result="blurOut3"/><feBlend in="SourceGraphic" in2="blurOut3" mode="normal"/></filter></defs><g><!--MD5=[02e4b9b7573f1156f41e60aa5b4e25a4]
class Company--><rect codeLine="1" fill="#FEFECE" filter="url(#f6fql7seekdff)" height="60.8047" id="Company" style="stroke:#A80036;stroke-width:1.5;" width="88" x="56.5935" y="1380.5"/><ellipse cx="71.5935" cy="1396.5" fill="#ADD1B2" rx="11" ry="11" style="stroke:#A80036;stroke-width:1.0;"/><path d="M73.9373,1392.1719 C72.9998,1391.7344 72.406,1391.5938 71.531,1391.5938 C68.906,1391.5938 66.906,1393.6719 66.906,1396.3906 L66.906,1397.5156 C66.906,1400.0938 69.0154,1401.9844 71.906,1401.9844 C73.1248,1401.9844 74.281,1401.6875 75.031,1401.1406 C75.6091,1400.7344 75.9373,1400.2813 75.9373,1399.8906 C75.9373,1399.4375 75.5466,1399.0469 75.0779,1399.0469 C74.8591,1399.0469 74.656,1399.125 74.4685,1399.3125 C74.0154,1399.7969 74.0154,1399.7969 73.8279,1399.8906 C73.406,1400.1563 72.7185,1400.2813 71.9529,1400.2813 C69.906,1400.2813 68.6091,1399.1875 68.6091,1397.4844 L68.6091,1396.3906 C68.6091,1394.6094 69.8591,1393.2969 71.5935,1393.2969 C72.1716,1393.2969 72.781,1393.4531 73.2498,1393.7031 C73.7341,1393.9844 73.906,1394.2031 73.9998,1394.6094 C74.0623,1395.0156 74.0935,1395.1406 74.2341,1395.2656 C74.3748,1395.4063 74.6091,1395.5156 74.8279,1395.5156 C75.0935,1395.5156 75.3591,1395.375 75.531,1395.1563 C75.6404,1395 75.6716,1394.8125 75.6716,1394.3906 L75.6716,1392.9688 C75.6716,1392.5313 75.656,1392.4063 75.5623,1392.25 C75.406,1391.9844 75.1248,1391.8438 74.8279,1391.8438 C74.531,1391.8438 74.3279,1391.9375 74.1091,1392.25 L73.9373,1392.1719 Z " fill="#000000"/><text fill="#000000" font-family="sans-serif" font-size="12" lengthAdjust="spacing" textLength="56" x="85.5935" y="1400.6543">Company</text><line style="stroke:#A80036;stroke-width:1.5;" x1="57.5935" x2="143.5935" y1="1412.5" y2="1412.5"/><text fill="#000000" font-family="sans-serif" font-size="11" lengthAdjust="spacing" textLength="70" x="62.5935" y="1426.7104">-designation</text><line style="stroke:#A80036;stroke-width:1.5;" x1="57.5935" x2="143.5935" y1="1433.3047" y2="1433.3047"/><!--MD5=[6a75aabe243bf57969b899a1c4169ff1]
class ClinicalAnalysisLaboratories--><rect codeLine="4" fill="#FEFECE" filter="url(#f6fql7seekdff)" height="124.8281" id="ClinicalAnalysisLaboratories" style="stroke:#A80036;stroke-width:1.5;" width="198" x="153.5935" y="1134"/><ellipse cx="168.5935" cy="1150" fill="#ADD1B2" rx="11" ry="11" style="stroke:#A80036;stroke-width:1.0;"/><path d="M170.9373,1145.6719 C169.9998,1145.2344 169.406,1145.0938 168.531,1145.0938 C165.906,1145.0938 163.906,1147.1719 163.906,1149.8906 L163.906,1151.0156 C163.906,1153.5938 166.0154,1155.4844 168.906,1155.4844 C170.1248,1155.4844 171.281,1155.1875 172.031,1154.6406 C172.6091,1154.2344 172.9373,1153.7813 172.9373,1153.3906 C172.9373,1152.9375 172.5466,1152.5469 172.0779,1152.5469 C171.8591,1152.5469 171.656,1152.625 171.4685,1152.8125 C171.0154,1153.2969 171.0154,1153.2969 170.8279,1153.3906 C170.406,1153.6563 169.7185,1153.7813 168.9529,1153.7813 C166.906,1153.7813 165.6091,1152.6875 165.6091,1150.9844 L165.6091,1149.8906 C165.6091,1148.1094 166.8591,1146.7969 168.5935,1146.7969 C169.1716,1146.7969 169.781,1146.9531 170.2498,1147.2031 C170.7341,1147.4844 170.906,1147.7031 170.9998,1148.1094 C171.0623,1148.5156 171.0935,1148.6406 171.2341,1148.7656 C171.3748,1148.9063 171.6091,1149.0156 171.8279,1149.0156 C172.0935,1149.0156 172.3591,1148.875 172.531,1148.6563 C172.6404,1148.5 172.6716,1148.3125 172.6716,1147.8906 L172.6716,1146.4688 C172.6716,1146.0313 172.656,1145.9063 172.5623,1145.75 C172.406,1145.4844 172.1248,1145.3438 171.8279,1145.3438 C171.531,1145.3438 171.3279,1145.4375 171.1091,1145.75 L170.9373,1145.6719 Z " fill="#000000"/><text fill="#000000" font-family="sans-serif" font-size="12" lengthAdjust="spacing" textLength="166" x="182.5935" y="1154.1543">ClinicalAnalysisLaboratories</text><line style="stroke:#A80036;stroke-width:1.5;" x1="154.5935" x2="350.5935" y1="1166" y2="1166"/><text fill="#000000" font-family="sans-serif" font-size="11" lengthAdjust="spacing" textLength="73" x="159.5935" y="1180.2104">-laboratoryID</text><text fill="#000000" font-family="sans-serif" font-size="11" lengthAdjust="spacing" textLength="49" x="159.5935" y="1193.0151">-address</text><text fill="#000000" font-family="sans-serif" font-size="11" lengthAdjust="spacing" textLength="37" x="159.5935" y="1205.8198">-name</text><text fill="#000000" font-family="sans-serif" font-size="11" lengthAdjust="spacing" textLength="85" x="159.5935" y="1218.6245">-phoneNumber</text><text fill="#000000" font-family="sans-serif" font-size="11" lengthAdjust="spacing" textLength="63" x="159.5935" y="1231.4292">-tinNumber</text><text fill="#000000" font-family="sans-serif" font-size="11" lengthAdjust="spacing" textLength="68" x="159.5935" y="1244.2339">-typeOfTest</text><line style="stroke:#A80036;stroke-width:1.5;" x1="154.5935" x2="350.5935" y1="1250.8281" y2="1250.8281"/><!--MD5=[a64badb107d3691f2dc6af242cdbeb21]
class ChemicalLaboratory--><rect codeLine="13" fill="#FEFECE" filter="url(#f6fql7seekdff)" height="99.2188" id="ChemicalLaboratory" style="stroke:#A80036;stroke-width:1.5;" width="151" x="331.0935" y="548"/><ellipse cx="346.0935" cy="564" fill="#ADD1B2" rx="11" ry="11" style="stroke:#A80036;stroke-width:1.0;"/><path d="M348.4373,559.6719 C347.4998,559.2344 346.906,559.0938 346.031,559.0938 C343.406,559.0938 341.406,561.1719 341.406,563.8906 L341.406,565.0156 C341.406,567.5938 343.5154,569.4844 346.406,569.4844 C347.6248,569.4844 348.781,569.1875 349.531,568.6406 C350.1091,568.2344 350.4373,567.7813 350.4373,567.3906 C350.4373,566.9375 350.0466,566.5469 349.5779,566.5469 C349.3591,566.5469 349.156,566.625 348.9685,566.8125 C348.5154,567.2969 348.5154,567.2969 348.3279,567.3906 C347.906,567.6563 347.2185,567.7813 346.4529,567.7813 C344.406,567.7813 343.1091,566.6875 343.1091,564.9844 L343.1091,563.8906 C343.1091,562.1094 344.3591,560.7969 346.0935,560.7969 C346.6716,560.7969 347.281,560.9531 347.7498,561.2031 C348.2341,561.4844 348.406,561.7031 348.4998,562.1094 C348.5623,562.5156 348.5935,562.6406 348.7341,562.7656 C348.8748,562.9063 349.1091,563.0156 349.3279,563.0156 C349.5935,563.0156 349.8591,562.875 350.031,562.6563 C350.1404,562.5 350.1716,562.3125 350.1716,561.8906 L350.1716,560.4688 C350.1716,560.0313 350.156,559.9063 350.0623,559.75 C349.906,559.4844 349.6248,559.3438 349.3279,559.3438 C349.031,559.3438 348.8279,559.4375 348.6091,559.75 L348.4373,559.6719 Z " fill="#000000"/><text fill="#000000" font-family="sans-serif" font-size="12" lengthAdjust="spacing" textLength="119" x="360.0935" y="568.1543">ChemicalLaboratory</text><line style="stroke:#A80036;stroke-width:1.5;" x1="332.0935" x2="481.0935" y1="580" y2="580"/><text fill="#000000" font-family="sans-serif" font-size="11" lengthAdjust="spacing" textLength="49" x="337.0935" y="594.2104">-address</text><text fill="#000000" font-family="sans-serif" font-size="11" lengthAdjust="spacing" textLength="37" x="337.0935" y="607.0151">-name</text><text fill="#000000" font-family="sans-serif" font-size="11" lengthAdjust="spacing" textLength="85" x="337.0935" y="619.8198">-phoneNumber</text><text fill="#000000" font-family="sans-serif" font-size="11" lengthAdjust="spacing" textLength="63" x="337.0935" y="632.6245">-tinNumber</text><line style="stroke:#A80036;stroke-width:1.5;" x1="332.0935" x2="481.0935" y1="639.2188" y2="639.2188"/><!--MD5=[ed6624c6556d5e7b1bd23032162d20b7]
class Client--><rect codeLine="19" fill="#FEFECE" filter="url(#f6fql7seekdff)" height="150.4375" id="Client" style="stroke:#A80036;stroke-width:1.5;" width="97" x="643.0935" y="1336"/><ellipse cx="672.4935" cy="1352" fill="#ADD1B2" rx="11" ry="11" style="stroke:#A80036;stroke-width:1.0;"/><path d="M674.8372,1347.6719 C673.8997,1347.2344 673.306,1347.0938 672.431,1347.0938 C669.806,1347.0938 667.806,1349.1719 667.806,1351.8906 L667.806,1353.0156 C667.806,1355.5938 669.9154,1357.4844 672.806,1357.4844 C674.0247,1357.4844 675.181,1357.1875 675.931,1356.6406 C676.5091,1356.2344 676.8372,1355.7813 676.8372,1355.3906 C676.8372,1354.9375 676.4466,1354.5469 675.9779,1354.5469 C675.7591,1354.5469 675.556,1354.625 675.3685,1354.8125 C674.9154,1355.2969 674.9154,1355.2969 674.7279,1355.3906 C674.306,1355.6563 673.6185,1355.7813 672.8529,1355.7813 C670.806,1355.7813 669.5091,1354.6875 669.5091,1352.9844 L669.5091,1351.8906 C669.5091,1350.1094 670.7591,1348.7969 672.4935,1348.7969 C673.0716,1348.7969 673.681,1348.9531 674.1497,1349.2031 C674.6341,1349.4844 674.806,1349.7031 674.8997,1350.1094 C674.9622,1350.5156 674.9935,1350.6406 675.1341,1350.7656 C675.2747,1350.9063 675.5091,1351.0156 675.7279,1351.0156 C675.9935,1351.0156 676.2591,1350.875 676.431,1350.6563 C676.5404,1350.5 676.5716,1350.3125 676.5716,1349.8906 L676.5716,1348.4688 C676.5716,1348.0313 676.556,1347.9063 676.4622,1347.75 C676.306,1347.4844 676.0247,1347.3438 675.7279,1347.3438 C675.431,1347.3438 675.2279,1347.4375 675.0091,1347.75 L674.8372,1347.6719 Z " fill="#000000"/><text fill="#000000" font-family="sans-serif" font-size="12" lengthAdjust="spacing" textLength="33" x="689.6935" y="1356.1543">Client</text><line style="stroke:#A80036;stroke-width:1.5;" x1="644.0935" x2="739.0935" y1="1368" y2="1368"/><text fill="#000000" font-family="sans-serif" font-size="11" lengthAdjust="spacing" textLength="23" x="649.0935" y="1382.2104">-ccn</text><text fill="#000000" font-family="sans-serif" font-size="11" lengthAdjust="spacing" textLength="37" x="649.0935" y="1395.0151">-name</text><text fill="#000000" font-family="sans-serif" font-size="11" lengthAdjust="spacing" textLength="69" x="649.0935" y="1407.8198">-nhsNumber</text><text fill="#000000" font-family="sans-serif" font-size="11" lengthAdjust="spacing" textLength="57" x="649.0935" y="1420.6245">-birthDate</text><text fill="#000000" font-family="sans-serif" font-size="11" lengthAdjust="spacing" textLength="25" x="649.0935" y="1433.4292">-sex</text><text fill="#000000" font-family="sans-serif" font-size="11" lengthAdjust="spacing" textLength="15" x="649.0935" y="1446.2339">-tif</text><text fill="#000000" font-family="sans-serif" font-size="11" lengthAdjust="spacing" textLength="85" x="649.0935" y="1459.0386">-phoneNumber</text><text fill="#000000" font-family="sans-serif" font-size="11" lengthAdjust="spacing" textLength="34" x="649.0935" y="1471.8433">-eMail</text><line style="stroke:#A80036;stroke-width:1.5;" x1="644.0935" x2="739.0935" y1="1478.4375" y2="1478.4375"/><!--MD5=[03960189e81aa2c066c762ffabbee709]
class Receptionist--><rect codeLine="29" fill="#FEFECE" filter="url(#f6fql7seekdff)" height="137.6328" id="Receptionist" style="stroke:#A80036;stroke-width:1.5;" width="236" x="490.5935" y="1563"/><ellipse cx="567.3435" cy="1579" fill="#ADD1B2" rx="11" ry="11" style="stroke:#A80036;stroke-width:1.0;"/><path d="M569.6873,1574.6719 C568.7498,1574.2344 568.156,1574.0938 567.281,1574.0938 C564.656,1574.0938 562.656,1576.1719 562.656,1578.8906 L562.656,1580.0156 C562.656,1582.5938 564.7654,1584.4844 567.656,1584.4844 C568.8748,1584.4844 570.031,1584.1875 570.781,1583.6406 C571.3591,1583.2344 571.6873,1582.7813 571.6873,1582.3906 C571.6873,1581.9375 571.2966,1581.5469 570.8279,1581.5469 C570.6091,1581.5469 570.406,1581.625 570.2185,1581.8125 C569.7654,1582.2969 569.7654,1582.2969 569.5779,1582.3906 C569.156,1582.6563 568.4685,1582.7813 567.7029,1582.7813 C565.656,1582.7813 564.3591,1581.6875 564.3591,1579.9844 L564.3591,1578.8906 C564.3591,1577.1094 565.6091,1575.7969 567.3435,1575.7969 C567.9216,1575.7969 568.531,1575.9531 568.9998,1576.2031 C569.4841,1576.4844 569.656,1576.7031 569.7498,1577.1094 C569.8123,1577.5156 569.8435,1577.6406 569.9841,1577.7656 C570.1248,1577.9063 570.3591,1578.0156 570.5779,1578.0156 C570.8435,1578.0156 571.1091,1577.875 571.281,1577.6563 C571.3904,1577.5 571.4216,1577.3125 571.4216,1576.8906 L571.4216,1575.4688 C571.4216,1575.0313 571.406,1574.9063 571.3123,1574.75 C571.156,1574.4844 570.8748,1574.3438 570.5779,1574.3438 C570.281,1574.3438 570.0779,1574.4375 569.8591,1574.75 L569.6873,1574.6719 Z " fill="#000000"/><text fill="#000000" font-family="sans-serif" font-size="12" lengthAdjust="spacing" textLength="74" x="587.8435" y="1583.1543">Receptionist</text><line style="stroke:#A80036;stroke-width:1.5;" x1="491.5935" x2="725.5935" y1="1595" y2="1595"/><text fill="#000000" font-family="sans-serif" font-size="11" lengthAdjust="spacing" textLength="75" x="496.5935" y="1609.2104">-employeeID</text><text fill="#000000" font-family="sans-serif" font-size="11" lengthAdjust="spacing" textLength="99" x="496.5935" y="1622.0151">-organizationRole</text><text fill="#000000" font-family="sans-serif" font-size="11" lengthAdjust="spacing" textLength="37" x="496.5935" y="1634.8198">-name</text><text fill="#000000" font-family="sans-serif" font-size="11" lengthAdjust="spacing" textLength="49" x="496.5935" y="1647.6245">-address</text><text fill="#000000" font-family="sans-serif" font-size="11" lengthAdjust="spacing" textLength="85" x="496.5935" y="1660.4292">-phoneNumber</text><text fill="#000000" font-family="sans-serif" font-size="11" lengthAdjust="spacing" textLength="34" x="496.5935" y="1673.2339">-eMail</text><text fill="#000000" font-family="sans-serif" font-size="11" lengthAdjust="spacing" textLength="224" x="496.5935" y="1686.0386">-standardOcupationalClassificationCode</text><line style="stroke:#A80036;stroke-width:1.5;" x1="491.5935" x2="725.5935" y1="1692.6328" y2="1692.6328"/><!--MD5=[9681492165142af2a4a3a169d90ee8d4]
class Sample--><rect codeLine="38" fill="#FEFECE" filter="url(#f6fql7seekdff)" height="73.6094" id="Sample" style="stroke:#A80036;stroke-width:1.5;" width="77" x="383.0935" y="983"/><ellipse cx="398.0935" cy="999" fill="#ADD1B2" rx="11" ry="11" style="stroke:#A80036;stroke-width:1.0;"/><path d="M400.4373,994.6719 C399.4998,994.2344 398.906,994.0938 398.031,994.0938 C395.406,994.0938 393.406,996.1719 393.406,998.8906 L393.406,1000.0156 C393.406,1002.5938 395.5154,1004.4844 398.406,1004.4844 C399.6248,1004.4844 400.781,1004.1875 401.531,1003.6406 C402.1091,1003.2344 402.4373,1002.7813 402.4373,1002.3906 C402.4373,1001.9375 402.0466,1001.5469 401.5779,1001.5469 C401.3591,1001.5469 401.156,1001.625 400.9685,1001.8125 C400.5154,1002.2969 400.5154,1002.2969 400.3279,1002.3906 C399.906,1002.6563 399.2185,1002.7813 398.4529,1002.7813 C396.406,1002.7813 395.1091,1001.6875 395.1091,999.9844 L395.1091,998.8906 C395.1091,997.1094 396.3591,995.7969 398.0935,995.7969 C398.6716,995.7969 399.281,995.9531 399.7498,996.2031 C400.2341,996.4844 400.406,996.7031 400.4998,997.1094 C400.5623,997.5156 400.5935,997.6406 400.7341,997.7656 C400.8748,997.9063 401.1091,998.0156 401.3279,998.0156 C401.5935,998.0156 401.8591,997.875 402.031,997.6563 C402.1404,997.5 402.1716,997.3125 402.1716,996.8906 L402.1716,995.4688 C402.1716,995.0313 402.156,994.9063 402.0623,994.75 C401.906,994.4844 401.6248,994.3438 401.3279,994.3438 C401.031,994.3438 400.8279,994.4375 400.6091,994.75 L400.4373,994.6719 Z " fill="#000000"/><text fill="#000000" font-family="sans-serif" font-size="12" lengthAdjust="spacing" textLength="45" x="412.0935" y="1003.1543">Sample</text><line style="stroke:#A80036;stroke-width:1.5;" x1="384.0935" x2="459.0935" y1="1015" y2="1015"/><text fill="#000000" font-family="sans-serif" font-size="11" lengthAdjust="spacing" textLength="54" x="389.0935" y="1029.2104">-category</text><text fill="#000000" font-family="sans-serif" font-size="11" lengthAdjust="spacing" textLength="58" x="389.0935" y="1042.0151">-sampleID</text><line style="stroke:#A80036;stroke-width:1.5;" x1="384.0935" x2="459.0935" y1="1048.6094" y2="1048.6094"/><!--MD5=[da547346deef918ea16944ba046651ef]
class Administrator--><rect codeLine="42" fill="#FEFECE" filter="url(#f6fql7seekdff)" height="137.6328" id="Administrator" style="stroke:#A80036;stroke-width:1.5;" width="236" x="30.5935" y="1993"/><ellipse cx="104.3435" cy="2009" fill="#ADD1B2" rx="11" ry="11" style="stroke:#A80036;stroke-width:1.0;"/><path d="M106.6873,2004.6719 C105.7498,2004.2344 105.156,2004.0938 104.281,2004.0938 C101.656,2004.0938 99.656,2006.1719 99.656,2008.8906 L99.656,2010.0156 C99.656,2012.5938 101.7654,2014.4844 104.656,2014.4844 C105.8748,2014.4844 107.031,2014.1875 107.781,2013.6406 C108.3591,2013.2344 108.6873,2012.7813 108.6873,2012.3906 C108.6873,2011.9375 108.2966,2011.5469 107.8279,2011.5469 C107.6091,2011.5469 107.406,2011.625 107.2185,2011.8125 C106.7654,2012.2969 106.7654,2012.2969 106.5779,2012.3906 C106.156,2012.6563 105.4685,2012.7813 104.7029,2012.7813 C102.656,2012.7813 101.3591,2011.6875 101.3591,2009.9844 L101.3591,2008.8906 C101.3591,2007.1094 102.6091,2005.7969 104.3435,2005.7969 C104.9216,2005.7969 105.531,2005.9531 105.9998,2006.2031 C106.4841,2006.4844 106.656,2006.7031 106.7498,2007.1094 C106.8123,2007.5156 106.8435,2007.6406 106.9841,2007.7656 C107.1248,2007.9063 107.3591,2008.0156 107.5779,2008.0156 C107.8435,2008.0156 108.1091,2007.875 108.281,2007.6563 C108.3904,2007.5 108.4216,2007.3125 108.4216,2006.8906 L108.4216,2005.4688 C108.4216,2005.0313 108.406,2004.9063 108.3123,2004.75 C108.156,2004.4844 107.8748,2004.3438 107.5779,2004.3438 C107.281,2004.3438 107.0779,2004.4375 106.8591,2004.75 L106.6873,2004.6719 Z " fill="#000000"/><text fill="#000000" font-family="sans-serif" font-size="12" lengthAdjust="spacing" textLength="80" x="124.8435" y="2013.1543">Administrator</text><line style="stroke:#A80036;stroke-width:1.5;" x1="31.5935" x2="265.5935" y1="2025" y2="2025"/><text fill="#000000" font-family="sans-serif" font-size="11" lengthAdjust="spacing" textLength="75" x="36.5935" y="2039.2104">-employeeID</text><text fill="#000000" font-family="sans-serif" font-size="11" lengthAdjust="spacing" textLength="99" x="36.5935" y="2052.0151">-organizationRole</text><text fill="#000000" font-family="sans-serif" font-size="11" lengthAdjust="spacing" textLength="37" x="36.5935" y="2064.8198">-name</text><text fill="#000000" font-family="sans-serif" font-size="11" lengthAdjust="spacing" textLength="49" x="36.5935" y="2077.6245">-address</text><text fill="#000000" font-family="sans-serif" font-size="11" lengthAdjust="spacing" textLength="85" x="36.5935" y="2090.4292">-phoneNumber</text><text fill="#000000" font-family="sans-serif" font-size="11" lengthAdjust="spacing" textLength="34" x="36.5935" y="2103.2339">-eMail</text><text fill="#000000" font-family="sans-serif" font-size="11" lengthAdjust="spacing" textLength="224" x="36.5935" y="2116.0386">-standardOcupationalClassificationCode</text><line style="stroke:#A80036;stroke-width:1.5;" x1="31.5935" x2="265.5935" y1="2122.6328" y2="2122.6328"/><!--MD5=[01931d41e78f8996acd44f6f0fd8de28]
class MedicalLabTechnician--><rect codeLine="51" fill="#FEFECE" filter="url(#f6fql7seekdff)" height="137.6328" id="MedicalLabTechnician" style="stroke:#A80036;stroke-width:1.5;" width="236" x="371.5935" y="1342"/><ellipse cx="420.3435" cy="1358" fill="#ADD1B2" rx="11" ry="11" style="stroke:#A80036;stroke-width:1.0;"/><path d="M422.6873,1353.6719 C421.7498,1353.2344 421.156,1353.0938 420.281,1353.0938 C417.656,1353.0938 415.656,1355.1719 415.656,1357.8906 L415.656,1359.0156 C415.656,1361.5938 417.7654,1363.4844 420.656,1363.4844 C421.8748,1363.4844 423.031,1363.1875 423.781,1362.6406 C424.3591,1362.2344 424.6873,1361.7813 424.6873,1361.3906 C424.6873,1360.9375 424.2966,1360.5469 423.8279,1360.5469 C423.6091,1360.5469 423.406,1360.625 423.2185,1360.8125 C422.7654,1361.2969 422.7654,1361.2969 422.5779,1361.3906 C422.156,1361.6563 421.4685,1361.7813 420.7029,1361.7813 C418.656,1361.7813 417.3591,1360.6875 417.3591,1358.9844 L417.3591,1357.8906 C417.3591,1356.1094 418.6091,1354.7969 420.3435,1354.7969 C420.9216,1354.7969 421.531,1354.9531 421.9998,1355.2031 C422.4841,1355.4844 422.656,1355.7031 422.7498,1356.1094 C422.8123,1356.5156 422.8435,1356.6406 422.9841,1356.7656 C423.1248,1356.9063 423.3591,1357.0156 423.5779,1357.0156 C423.8435,1357.0156 424.1091,1356.875 424.281,1356.6563 C424.3904,1356.5 424.4216,1356.3125 424.4216,1355.8906 L424.4216,1354.4688 C424.4216,1354.0313 424.406,1353.9063 424.3123,1353.75 C424.156,1353.4844 423.8748,1353.3438 423.5779,1353.3438 C423.281,1353.3438 423.0779,1353.4375 422.8591,1353.75 L422.6873,1353.6719 Z " fill="#000000"/><text fill="#000000" font-family="sans-serif" font-size="12" lengthAdjust="spacing" textLength="130" x="440.8435" y="1362.1543">MedicalLabTechnician</text><line style="stroke:#A80036;stroke-width:1.5;" x1="372.5935" x2="606.5935" y1="1374" y2="1374"/><text fill="#000000" font-family="sans-serif" font-size="11" lengthAdjust="spacing" textLength="75" x="377.5935" y="1388.2104">-employeeID</text><text fill="#000000" font-family="sans-serif" font-size="11" lengthAdjust="spacing" textLength="99" x="377.5935" y="1401.0151">-organizationRole</text><text fill="#000000" font-family="sans-serif" font-size="11" lengthAdjust="spacing" textLength="37" x="377.5935" y="1413.8198">-name</text><text fill="#000000" font-family="sans-serif" font-size="11" lengthAdjust="spacing" textLength="49" x="377.5935" y="1426.6245">-address</text><text fill="#000000" font-family="sans-serif" font-size="11" lengthAdjust="spacing" textLength="85" x="377.5935" y="1439.4292">-phoneNumber</text><text fill="#000000" font-family="sans-serif" font-size="11" lengthAdjust="spacing" textLength="34" x="377.5935" y="1452.2339">-eMail</text><text fill="#000000" font-family="sans-serif" font-size="11" lengthAdjust="spacing" textLength="224" x="377.5935" y="1465.0386">-standardOcupationalClassificationCode</text><line style="stroke:#A80036;stroke-width:1.5;" x1="372.5935" x2="606.5935" y1="1471.6328" y2="1471.6328"/><!--MD5=[36afb6bbd95a8ac778c4537c55a683d5]
class ParameterCategory--><rect codeLine="60" fill="#FEFECE" filter="url(#f6fql7seekdff)" height="73.6094" id="ParameterCategory" style="stroke:#A80036;stroke-width:1.5;" width="148" x="74.5935" y="1810"/><ellipse cx="89.5935" cy="1826" fill="#ADD1B2" rx="11" ry="11" style="stroke:#A80036;stroke-width:1.0;"/><path d="M91.9373,1821.6719 C90.9998,1821.2344 90.406,1821.0938 89.531,1821.0938 C86.906,1821.0938 84.906,1823.1719 84.906,1825.8906 L84.906,1827.0156 C84.906,1829.5938 87.0154,1831.4844 89.906,1831.4844 C91.1248,1831.4844 92.281,1831.1875 93.031,1830.6406 C93.6091,1830.2344 93.9373,1829.7813 93.9373,1829.3906 C93.9373,1828.9375 93.5466,1828.5469 93.0779,1828.5469 C92.8591,1828.5469 92.656,1828.625 92.4685,1828.8125 C92.0154,1829.2969 92.0154,1829.2969 91.8279,1829.3906 C91.406,1829.6563 90.7185,1829.7813 89.9529,1829.7813 C87.906,1829.7813 86.6091,1828.6875 86.6091,1826.9844 L86.6091,1825.8906 C86.6091,1824.1094 87.8591,1822.7969 89.5935,1822.7969 C90.1716,1822.7969 90.781,1822.9531 91.2498,1823.2031 C91.7341,1823.4844 91.906,1823.7031 91.9998,1824.1094 C92.0623,1824.5156 92.0935,1824.6406 92.2341,1824.7656 C92.3748,1824.9063 92.6091,1825.0156 92.8279,1825.0156 C93.0935,1825.0156 93.3591,1824.875 93.531,1824.6563 C93.6404,1824.5 93.6716,1824.3125 93.6716,1823.8906 L93.6716,1822.4688 C93.6716,1822.0313 93.656,1821.9063 93.5623,1821.75 C93.406,1821.4844 93.1248,1821.3438 92.8279,1821.3438 C92.531,1821.3438 92.3279,1821.4375 92.1091,1821.75 L91.9373,1821.6719 Z " fill="#000000"/><text fill="#000000" font-family="sans-serif" font-size="12" lengthAdjust="spacing" textLength="116" x="103.5935" y="1830.1543">ParameterCategory</text><line style="stroke:#A80036;stroke-width:1.5;" x1="75.5935" x2="221.5935" y1="1842" y2="1842"/><text fill="#000000" font-family="sans-serif" font-size="11" lengthAdjust="spacing" textLength="37" x="80.5935" y="1856.2104">-name</text><text fill="#000000" font-family="sans-serif" font-size="11" lengthAdjust="spacing" textLength="32" x="80.5935" y="1869.0151">-code</text><line style="stroke:#A80036;stroke-width:1.5;" x1="75.5935" x2="221.5935" y1="1875.6094" y2="1875.6094"/><!--MD5=[1f6362a5c8f21d8d6a0fce68f3a92a4e]
class Parameter--><rect codeLine="64" fill="#FEFECE" filter="url(#f6fql7seekdff)" height="86.4141" id="Parameter" style="stroke:#A80036;stroke-width:1.5;" width="93" x="152.0935" y="1589"/><ellipse cx="167.0935" cy="1605" fill="#ADD1B2" rx="11" ry="11" style="stroke:#A80036;stroke-width:1.0;"/><path d="M169.4373,1600.6719 C168.4998,1600.2344 167.906,1600.0938 167.031,1600.0938 C164.406,1600.0938 162.406,1602.1719 162.406,1604.8906 L162.406,1606.0156 C162.406,1608.5938 164.5154,1610.4844 167.406,1610.4844 C168.6248,1610.4844 169.781,1610.1875 170.531,1609.6406 C171.1091,1609.2344 171.4373,1608.7813 171.4373,1608.3906 C171.4373,1607.9375 171.0466,1607.5469 170.5779,1607.5469 C170.3591,1607.5469 170.156,1607.625 169.9685,1607.8125 C169.5154,1608.2969 169.5154,1608.2969 169.3279,1608.3906 C168.906,1608.6563 168.2185,1608.7813 167.4529,1608.7813 C165.406,1608.7813 164.1091,1607.6875 164.1091,1605.9844 L164.1091,1604.8906 C164.1091,1603.1094 165.3591,1601.7969 167.0935,1601.7969 C167.6716,1601.7969 168.281,1601.9531 168.7498,1602.2031 C169.2341,1602.4844 169.406,1602.7031 169.4998,1603.1094 C169.5623,1603.5156 169.5935,1603.6406 169.7341,1603.7656 C169.8748,1603.9063 170.1091,1604.0156 170.3279,1604.0156 C170.5935,1604.0156 170.8591,1603.875 171.031,1603.6563 C171.1404,1603.5 171.1716,1603.3125 171.1716,1602.8906 L171.1716,1601.4688 C171.1716,1601.0313 171.156,1600.9063 171.0623,1600.75 C170.906,1600.4844 170.6248,1600.3438 170.3279,1600.3438 C170.031,1600.3438 169.8279,1600.4375 169.6091,1600.75 L169.4373,1600.6719 Z " fill="#000000"/><text fill="#000000" font-family="sans-serif" font-size="12" lengthAdjust="spacing" textLength="61" x="181.0935" y="1609.1543">Parameter</text><line style="stroke:#A80036;stroke-width:1.5;" x1="153.0935" x2="244.0935" y1="1621" y2="1621"/><text fill="#000000" font-family="sans-serif" font-size="11" lengthAdjust="spacing" textLength="32" x="158.0935" y="1635.2104">-code</text><text fill="#000000" font-family="sans-serif" font-size="11" lengthAdjust="spacing" textLength="65" x="158.0935" y="1648.0151">-shortname</text><text fill="#000000" font-family="sans-serif" font-size="11" lengthAdjust="spacing" textLength="66" x="158.0935" y="1660.8198">-description</text><line style="stroke:#A80036;stroke-width:1.5;" x1="153.0935" x2="244.0935" y1="1667.4141" y2="1667.4141"/><!--MD5=[371a79cf93e6b0f3b7c16edd206e96ed]
class ClinicalChemistTechnologist--><rect codeLine="69" fill="#FEFECE" filter="url(#f6fql7seekdff)" height="137.6328" id="ClinicalChemistTechnologist" style="stroke:#A80036;stroke-width:1.5;" width="236" x="513.5935" y="724"/><ellipse cx="545.6935" cy="740" fill="#ADD1B2" rx="11" ry="11" style="stroke:#A80036;stroke-width:1.0;"/><path d="M548.0373,735.6719 C547.0998,735.2344 546.506,735.0938 545.631,735.0938 C543.006,735.0938 541.006,737.1719 541.006,739.8906 L541.006,741.0156 C541.006,743.5938 543.1154,745.4844 546.006,745.4844 C547.2248,745.4844 548.381,745.1875 549.131,744.6406 C549.7091,744.2344 550.0373,743.7813 550.0373,743.3906 C550.0373,742.9375 549.6466,742.5469 549.1779,742.5469 C548.9591,742.5469 548.756,742.625 548.5685,742.8125 C548.1154,743.2969 548.1154,743.2969 547.9279,743.3906 C547.506,743.6563 546.8185,743.7813 546.0529,743.7813 C544.006,743.7813 542.7091,742.6875 542.7091,740.9844 L542.7091,739.8906 C542.7091,738.1094 543.9591,736.7969 545.6935,736.7969 C546.2716,736.7969 546.881,736.9531 547.3498,737.2031 C547.8341,737.4844 548.006,737.7031 548.0998,738.1094 C548.1623,738.5156 548.1935,738.6406 548.3341,738.7656 C548.4748,738.9063 548.7091,739.0156 548.9279,739.0156 C549.1935,739.0156 549.4591,738.875 549.631,738.6563 C549.7404,738.5 549.7716,738.3125 549.7716,737.8906 L549.7716,736.4688 C549.7716,736.0313 549.756,735.9063 549.6623,735.75 C549.506,735.4844 549.2248,735.3438 548.9279,735.3438 C548.631,735.3438 548.4279,735.4375 548.2091,735.75 L548.0373,735.6719 Z " fill="#000000"/><text fill="#000000" font-family="sans-serif" font-size="12" lengthAdjust="spacing" textLength="166" x="563.4935" y="744.1543">ClinicalChemistTechnologist</text><line style="stroke:#A80036;stroke-width:1.5;" x1="514.5935" x2="748.5935" y1="756" y2="756"/><text fill="#000000" font-family="sans-serif" font-size="11" lengthAdjust="spacing" textLength="75" x="519.5935" y="770.2104">-employeeID</text><text fill="#000000" font-family="sans-serif" font-size="11" lengthAdjust="spacing" textLength="99" x="519.5935" y="783.0151">-organizationRole</text><text fill="#000000" font-family="sans-serif" font-size="11" lengthAdjust="spacing" textLength="37" x="519.5935" y="795.8198">-name</text><text fill="#000000" font-family="sans-serif" font-size="11" lengthAdjust="spacing" textLength="49" x="519.5935" y="808.6245">-address</text><text fill="#000000" font-family="sans-serif" font-size="11" lengthAdjust="spacing" textLength="85" x="519.5935" y="821.4292">-phoneNumber</text><text fill="#000000" font-family="sans-serif" font-size="11" lengthAdjust="spacing" textLength="34" x="519.5935" y="834.2339">-eMail</text><text fill="#000000" font-family="sans-serif" font-size="11" lengthAdjust="spacing" textLength="224" x="519.5935" y="847.0386">-standardOcupationalClassificationCode</text><line style="stroke:#A80036;stroke-width:1.5;" x1="514.5935" x2="748.5935" y1="853.6328" y2="853.6328"/><!--MD5=[7d96fd15f3014691d2fcaf89c5791e2a]
class SpecialistDoctor--><rect codeLine="78" fill="#FEFECE" filter="url(#f6fql7seekdff)" height="137.6328" id="SpecialistDoctor" style="stroke:#A80036;stroke-width:1.5;" width="236" x="824.5935" y="1778"/><ellipse cx="888.8435" cy="1794" fill="#ADD1B2" rx="11" ry="11" style="stroke:#A80036;stroke-width:1.0;"/><path d="M891.1873,1789.6719 C890.2498,1789.2344 889.656,1789.0938 888.781,1789.0938 C886.156,1789.0938 884.156,1791.1719 884.156,1793.8906 L884.156,1795.0156 C884.156,1797.5938 886.2654,1799.4844 889.156,1799.4844 C890.3748,1799.4844 891.531,1799.1875 892.281,1798.6406 C892.8591,1798.2344 893.1873,1797.7813 893.1873,1797.3906 C893.1873,1796.9375 892.7966,1796.5469 892.3279,1796.5469 C892.1091,1796.5469 891.906,1796.625 891.7185,1796.8125 C891.2654,1797.2969 891.2654,1797.2969 891.0779,1797.3906 C890.656,1797.6563 889.9685,1797.7813 889.2029,1797.7813 C887.156,1797.7813 885.8591,1796.6875 885.8591,1794.9844 L885.8591,1793.8906 C885.8591,1792.1094 887.1091,1790.7969 888.8435,1790.7969 C889.4216,1790.7969 890.031,1790.9531 890.4998,1791.2031 C890.9841,1791.4844 891.156,1791.7031 891.2498,1792.1094 C891.3123,1792.5156 891.3435,1792.6406 891.4841,1792.7656 C891.6248,1792.9063 891.8591,1793.0156 892.0779,1793.0156 C892.3435,1793.0156 892.6091,1792.875 892.781,1792.6563 C892.8904,1792.5 892.9216,1792.3125 892.9216,1791.8906 L892.9216,1790.4688 C892.9216,1790.0313 892.906,1789.9063 892.8123,1789.75 C892.656,1789.4844 892.3748,1789.3438 892.0779,1789.3438 C891.781,1789.3438 891.5779,1789.4375 891.3591,1789.75 L891.1873,1789.6719 Z " fill="#000000"/><text fill="#000000" font-family="sans-serif" font-size="12" lengthAdjust="spacing" textLength="99" x="909.3435" y="1798.1543">SpecialistDoctor</text><line style="stroke:#A80036;stroke-width:1.5;" x1="825.5935" x2="1059.5935" y1="1810" y2="1810"/><text fill="#000000" font-family="sans-serif" font-size="11" lengthAdjust="spacing" textLength="75" x="830.5935" y="1824.2104">-employeeID</text><text fill="#000000" font-family="sans-serif" font-size="11" lengthAdjust="spacing" textLength="99" x="830.5935" y="1837.0151">-organizationRole</text><text fill="#000000" font-family="sans-serif" font-size="11" lengthAdjust="spacing" textLength="37" x="830.5935" y="1849.8198">-name</text><text fill="#000000" font-family="sans-serif" font-size="11" lengthAdjust="spacing" textLength="49" x="830.5935" y="1862.6245">-address</text><text fill="#000000" font-family="sans-serif" font-size="11" lengthAdjust="spacing" textLength="85" x="830.5935" y="1875.4292">-phoneNumber</text><text fill="#000000" font-family="sans-serif" font-size="11" lengthAdjust="spacing" textLength="34" x="830.5935" y="1888.2339">-eMail</text><text fill="#000000" font-family="sans-serif" font-size="11" lengthAdjust="spacing" textLength="224" x="830.5935" y="1901.0386">-standardOcupationalClassificationCode</text><line style="stroke:#A80036;stroke-width:1.5;" x1="825.5935" x2="1059.5935" y1="1907.6328" y2="1907.6328"/><!--MD5=[052425de1c0eb6cc1c1b48342b0bb88f]
class LaboratoryCoordinator--><rect codeLine="87" fill="#FEFECE" filter="url(#f6fql7seekdff)" height="137.6328" id="LaboratoryCoordinator" style="stroke:#A80036;stroke-width:1.5;" width="236" x="692.5935" y="320.5"/><ellipse cx="738.3435" cy="336.5" fill="#ADD1B2" rx="11" ry="11" style="stroke:#A80036;stroke-width:1.0;"/><path d="M740.6873,332.1719 C739.7498,331.7344 739.156,331.5938 738.281,331.5938 C735.656,331.5938 733.656,333.6719 733.656,336.3906 L733.656,337.5156 C733.656,340.0938 735.7654,341.9844 738.656,341.9844 C739.8748,341.9844 741.031,341.6875 741.781,341.1406 C742.3591,340.7344 742.6873,340.2813 742.6873,339.8906 C742.6873,339.4375 742.2966,339.0469 741.8279,339.0469 C741.6091,339.0469 741.406,339.125 741.2185,339.3125 C740.7654,339.7969 740.7654,339.7969 740.5779,339.8906 C740.156,340.1563 739.4685,340.2813 738.7029,340.2813 C736.656,340.2813 735.3591,339.1875 735.3591,337.4844 L735.3591,336.3906 C735.3591,334.6094 736.6091,333.2969 738.3435,333.2969 C738.9216,333.2969 739.531,333.4531 739.9998,333.7031 C740.4841,333.9844 740.656,334.2031 740.7498,334.6094 C740.8123,335.0156 740.8435,335.1406 740.9841,335.2656 C741.1248,335.4063 741.3591,335.5156 741.5779,335.5156 C741.8435,335.5156 742.1091,335.375 742.281,335.1563 C742.3904,335 742.4216,334.8125 742.4216,334.3906 L742.4216,332.9688 C742.4216,332.5313 742.406,332.4063 742.3123,332.25 C742.156,331.9844 741.8748,331.8438 741.5779,331.8438 C741.281,331.8438 741.0779,331.9375 740.8591,332.25 L740.6873,332.1719 Z " fill="#000000"/><text fill="#000000" font-family="sans-serif" font-size="12" lengthAdjust="spacing" textLength="136" x="758.8435" y="340.6543">LaboratoryCoordinator</text><line style="stroke:#A80036;stroke-width:1.5;" x1="693.5935" x2="927.5935" y1="352.5" y2="352.5"/><text fill="#000000" font-family="sans-serif" font-size="11" lengthAdjust="spacing" textLength="75" x="698.5935" y="366.7104">-employeeID</text><text fill="#000000" font-family="sans-serif" font-size="11" lengthAdjust="spacing" textLength="99" x="698.5935" y="379.5151">-organizationRole</text><text fill="#000000" font-family="sans-serif" font-size="11" lengthAdjust="spacing" textLength="37" x="698.5935" y="392.3198">-name</text><text fill="#000000" font-family="sans-serif" font-size="11" lengthAdjust="spacing" textLength="49" x="698.5935" y="405.1245">-address</text><text fill="#000000" font-family="sans-serif" font-size="11" lengthAdjust="spacing" textLength="85" x="698.5935" y="417.9292">-phoneNumber</text><text fill="#000000" font-family="sans-serif" font-size="11" lengthAdjust="spacing" textLength="34" x="698.5935" y="430.7339">-eMail</text><text fill="#000000" font-family="sans-serif" font-size="11" lengthAdjust="spacing" textLength="224" x="698.5935" y="443.5386">-standardOcupationalClassificationCode</text><line style="stroke:#A80036;stroke-width:1.5;" x1="693.5935" x2="927.5935" y1="450.1328" y2="450.1328"/><!--MD5=[86b2982ced9a310f9b4ad491674c42e1]
class ResultsValidation--><rect codeLine="96" fill="#FEFECE" filter="url(#f6fql7seekdff)" height="60.8047" id="ResultsValidation" style="stroke:#A80036;stroke-width:1.5;" width="137" x="826.0935" y="892"/><ellipse cx="842.8935" cy="908" fill="#ADD1B2" rx="11" ry="11" style="stroke:#A80036;stroke-width:1.0;"/><path d="M845.2372,903.6719 C844.2997,903.2344 843.706,903.0938 842.831,903.0938 C840.206,903.0938 838.206,905.1719 838.206,907.8906 L838.206,909.0156 C838.206,911.5938 840.3154,913.4844 843.206,913.4844 C844.4247,913.4844 845.581,913.1875 846.331,912.6406 C846.9091,912.2344 847.2372,911.7813 847.2372,911.3906 C847.2372,910.9375 846.8466,910.5469 846.3779,910.5469 C846.1591,910.5469 845.956,910.625 845.7685,910.8125 C845.3154,911.2969 845.3154,911.2969 845.1279,911.3906 C844.706,911.6563 844.0185,911.7813 843.2529,911.7813 C841.206,911.7813 839.9091,910.6875 839.9091,908.9844 L839.9091,907.8906 C839.9091,906.1094 841.1591,904.7969 842.8935,904.7969 C843.4716,904.7969 844.081,904.9531 844.5497,905.2031 C845.0341,905.4844 845.206,905.7031 845.2997,906.1094 C845.3622,906.5156 845.3935,906.6406 845.5341,906.7656 C845.6747,906.9063 845.9091,907.0156 846.1279,907.0156 C846.3935,907.0156 846.6591,906.875 846.831,906.6563 C846.9404,906.5 846.9716,906.3125 846.9716,905.8906 L846.9716,904.4688 C846.9716,904.0313 846.956,903.9063 846.8622,903.75 C846.706,903.4844 846.4247,903.3438 846.1279,903.3438 C845.831,903.3438 845.6279,903.4375 845.4091,903.75 L845.2372,903.6719 Z " fill="#000000"/><text fill="#000000" font-family="sans-serif" font-size="12" lengthAdjust="spacing" textLength="101" x="857.2935" y="912.1543">ResultsValidation</text><line style="stroke:#A80036;stroke-width:1.5;" x1="827.0935" x2="962.0935" y1="924" y2="924"/><text fill="#000000" font-family="sans-serif" font-size="11" lengthAdjust="spacing" textLength="125" x="832.0935" y="938.2104">-testReferenceValues</text><line style="stroke:#A80036;stroke-width:1.5;" x1="827.0935" x2="962.0935" y1="944.8047" y2="944.8047"/><!--MD5=[a999c1570c205a2156b04a15307bc1ff]
class LabOrder--><rect codeLine="99" fill="#FEFECE" filter="url(#f6fql7seekdff)" height="73.6094" id="LabOrder" style="stroke:#A80036;stroke-width:1.5;" width="89" x="660.0935" y="1159.5"/><ellipse cx="675.0935" cy="1175.5" fill="#ADD1B2" rx="11" ry="11" style="stroke:#A80036;stroke-width:1.0;"/><path d="M677.4373,1171.1719 C676.4998,1170.7344 675.906,1170.5938 675.031,1170.5938 C672.406,1170.5938 670.406,1172.6719 670.406,1175.3906 L670.406,1176.5156 C670.406,1179.0938 672.5154,1180.9844 675.406,1180.9844 C676.6248,1180.9844 677.781,1180.6875 678.531,1180.1406 C679.1091,1179.7344 679.4373,1179.2813 679.4373,1178.8906 C679.4373,1178.4375 679.0466,1178.0469 678.5779,1178.0469 C678.3591,1178.0469 678.156,1178.125 677.9685,1178.3125 C677.5154,1178.7969 677.5154,1178.7969 677.3279,1178.8906 C676.906,1179.1563 676.2185,1179.2813 675.4529,1179.2813 C673.406,1179.2813 672.1091,1178.1875 672.1091,1176.4844 L672.1091,1175.3906 C672.1091,1173.6094 673.3591,1172.2969 675.0935,1172.2969 C675.6716,1172.2969 676.281,1172.4531 676.7498,1172.7031 C677.2341,1172.9844 677.406,1173.2031 677.4998,1173.6094 C677.5623,1174.0156 677.5935,1174.1406 677.7341,1174.2656 C677.8748,1174.4063 678.1091,1174.5156 678.3279,1174.5156 C678.5935,1174.5156 678.8591,1174.375 679.031,1174.1563 C679.1404,1174 679.1716,1173.8125 679.1716,1173.3906 L679.1716,1171.9688 C679.1716,1171.5313 679.156,1171.4063 679.0623,1171.25 C678.906,1170.9844 678.6248,1170.8438 678.3279,1170.8438 C678.031,1170.8438 677.8279,1170.9375 677.6091,1171.25 L677.4373,1171.1719 Z " fill="#000000"/><text fill="#000000" font-family="sans-serif" font-size="12" lengthAdjust="spacing" textLength="57" x="689.0935" y="1179.6543">LabOrder</text><line style="stroke:#A80036;stroke-width:1.5;" x1="661.0935" x2="748.0935" y1="1191.5" y2="1191.5"/><text fill="#000000" font-family="sans-serif" font-size="11" lengthAdjust="spacing" textLength="68" x="666.0935" y="1205.7104">-typeOfTest</text><text fill="#000000" font-family="sans-serif" font-size="11" lengthAdjust="spacing" textLength="70" x="666.0935" y="1218.5151">-parameters</text><line style="stroke:#A80036;stroke-width:1.5;" x1="661.0935" x2="748.0935" y1="1225.1094" y2="1225.1094"/><!--MD5=[f00dbe8c0302c6aec2cb26b3c659c8fc]
class Report--><rect codeLine="103" fill="#FEFECE" filter="url(#f6fql7seekdff)" height="60.8047" id="Report" style="stroke:#A80036;stroke-width:1.5;" width="83" x="762.0935" y="1601.5"/><ellipse cx="782.0435" cy="1617.5" fill="#ADD1B2" rx="11" ry="11" style="stroke:#A80036;stroke-width:1.0;"/><path d="M784.3873,1613.1719 C783.4498,1612.7344 782.856,1612.5938 781.981,1612.5938 C779.356,1612.5938 777.356,1614.6719 777.356,1617.3906 L777.356,1618.5156 C777.356,1621.0938 779.4654,1622.9844 782.356,1622.9844 C783.5748,1622.9844 784.731,1622.6875 785.481,1622.1406 C786.0591,1621.7344 786.3873,1621.2813 786.3873,1620.8906 C786.3873,1620.4375 785.9966,1620.0469 785.5279,1620.0469 C785.3091,1620.0469 785.106,1620.125 784.9185,1620.3125 C784.4654,1620.7969 784.4654,1620.7969 784.2779,1620.8906 C783.856,1621.1563 783.1685,1621.2813 782.4029,1621.2813 C780.356,1621.2813 779.0591,1620.1875 779.0591,1618.4844 L779.0591,1617.3906 C779.0591,1615.6094 780.3091,1614.2969 782.0435,1614.2969 C782.6216,1614.2969 783.231,1614.4531 783.6998,1614.7031 C784.1841,1614.9844 784.356,1615.2031 784.4498,1615.6094 C784.5123,1616.0156 784.5435,1616.1406 784.6841,1616.2656 C784.8248,1616.4063 785.0591,1616.5156 785.2779,1616.5156 C785.5435,1616.5156 785.8091,1616.375 785.981,1616.1563 C786.0904,1616 786.1216,1615.8125 786.1216,1615.3906 L786.1216,1613.9688 C786.1216,1613.5313 786.106,1613.4063 786.0123,1613.25 C785.856,1612.9844 785.5748,1612.8438 785.2779,1612.8438 C784.981,1612.8438 784.7779,1612.9375 784.5591,1613.25 L784.3873,1613.1719 Z " fill="#000000"/><text fill="#000000" font-family="sans-serif" font-size="12" lengthAdjust="spacing" textLength="40" x="797.1435" y="1621.6543">Report</text><line style="stroke:#A80036;stroke-width:1.5;" x1="763.0935" x2="844.0935" y1="1633.5" y2="1633.5"/><text fill="#000000" font-family="sans-serif" font-size="11" lengthAdjust="spacing" textLength="71" x="768.0935" y="1647.7104">-bodyOfText</text><line style="stroke:#A80036;stroke-width:1.5;" x1="763.0935" x2="844.0935" y1="1654.3047" y2="1654.3047"/><!--MD5=[f7818c679476ac0017dcae1dd49d4d3d]
class TestResultList--><rect codeLine="106" fill="#FEFECE" filter="url(#f6fql7seekdff)" height="99.2188" id="TestResultList" style="stroke:#A80036;stroke-width:1.5;" width="157" x="732.0935" y="132"/><ellipse cx="766.4435" cy="148" fill="#ADD1B2" rx="11" ry="11" style="stroke:#A80036;stroke-width:1.0;"/><path d="M768.7873,143.6719 C767.8498,143.2344 767.256,143.0938 766.381,143.0938 C763.756,143.0938 761.756,145.1719 761.756,147.8906 L761.756,149.0156 C761.756,151.5938 763.8654,153.4844 766.756,153.4844 C767.9748,153.4844 769.131,153.1875 769.881,152.6406 C770.4591,152.2344 770.7873,151.7813 770.7873,151.3906 C770.7873,150.9375 770.3966,150.5469 769.9279,150.5469 C769.7091,150.5469 769.506,150.625 769.3185,150.8125 C768.8654,151.2969 768.8654,151.2969 768.6779,151.3906 C768.256,151.6563 767.5685,151.7813 766.8029,151.7813 C764.756,151.7813 763.4591,150.6875 763.4591,148.9844 L763.4591,147.8906 C763.4591,146.1094 764.7091,144.7969 766.4435,144.7969 C767.0216,144.7969 767.631,144.9531 768.0998,145.2031 C768.5841,145.4844 768.756,145.7031 768.8498,146.1094 C768.9123,146.5156 768.9435,146.6406 769.0841,146.7656 C769.2248,146.9063 769.4591,147.0156 769.6779,147.0156 C769.9435,147.0156 770.2091,146.875 770.381,146.6563 C770.4904,146.5 770.5216,146.3125 770.5216,145.8906 L770.5216,144.4688 C770.5216,144.0313 770.506,143.9063 770.4123,143.75 C770.256,143.4844 769.9748,143.3438 769.6779,143.3438 C769.381,143.3438 769.1779,143.4375 768.9591,143.75 L768.7873,143.6719 Z " fill="#000000"/><text fill="#000000" font-family="sans-serif" font-size="12" lengthAdjust="spacing" textLength="82" x="784.7435" y="152.1543">TestResultList</text><line style="stroke:#A80036;stroke-width:1.5;" x1="733.0935" x2="888.0935" y1="164" y2="164"/><text fill="#000000" font-family="sans-serif" font-size="11" lengthAdjust="spacing" textLength="112" x="738.0935" y="178.2104">-listOfPositiveCases</text><text fill="#000000" font-family="sans-serif" font-size="11" lengthAdjust="spacing" textLength="120" x="738.0935" y="191.0151">-listOfNegativeCases</text><text fill="#000000" font-family="sans-serif" font-size="11" lengthAdjust="spacing" textLength="127" x="738.0935" y="203.8198">-sortingAlgorithmByTIF</text><text fill="#000000" font-family="sans-serif" font-size="11" lengthAdjust="spacing" textLength="145" x="738.0935" y="216.6245">-sortingAlgorithmByName</text><line style="stroke:#A80036;stroke-width:1.5;" x1="733.0935" x2="888.0935" y1="223.2188" y2="223.2188"/><!--MD5=[74783ec010d186752c4ffd5c6de5633a]
class NHSReport--><rect codeLine="112" fill="#FEFECE" filter="url(#f6fql7seekdff)" height="163.2422" id="NHSReport" style="stroke:#A80036;stroke-width:1.5;" width="175" x="411.0935" y="308"/><ellipse cx="461.8435" cy="324" fill="#ADD1B2" rx="11" ry="11" style="stroke:#A80036;stroke-width:1.0;"/><path d="M464.1873,319.6719 C463.2498,319.2344 462.656,319.0938 461.781,319.0938 C459.156,319.0938 457.156,321.1719 457.156,323.8906 L457.156,325.0156 C457.156,327.5938 459.2654,329.4844 462.156,329.4844 C463.3748,329.4844 464.531,329.1875 465.281,328.6406 C465.8591,328.2344 466.1873,327.7813 466.1873,327.3906 C466.1873,326.9375 465.7966,326.5469 465.3279,326.5469 C465.1091,326.5469 464.906,326.625 464.7185,326.8125 C464.2654,327.2969 464.2654,327.2969 464.0779,327.3906 C463.656,327.6563 462.9685,327.7813 462.2029,327.7813 C460.156,327.7813 458.8591,326.6875 458.8591,324.9844 L458.8591,323.8906 C458.8591,322.1094 460.1091,320.7969 461.8435,320.7969 C462.4216,320.7969 463.031,320.9531 463.4998,321.2031 C463.9841,321.4844 464.156,321.7031 464.2498,322.1094 C464.3123,322.5156 464.3435,322.6406 464.4841,322.7656 C464.6248,322.9063 464.8591,323.0156 465.0779,323.0156 C465.3435,323.0156 465.6091,322.875 465.781,322.6563 C465.8904,322.5 465.9216,322.3125 465.9216,321.8906 L465.9216,320.4688 C465.9216,320.0313 465.906,319.9063 465.8123,319.75 C465.656,319.4844 465.3748,319.3438 465.0779,319.3438 C464.781,319.3438 464.5779,319.4375 464.3591,319.75 L464.1873,319.6719 Z " fill="#000000"/><text fill="#000000" font-family="sans-serif" font-size="12" lengthAdjust="spacing" textLength="65" x="482.3435" y="328.1543">NHSReport</text><line style="stroke:#A80036;stroke-width:1.5;" x1="412.0935" x2="585.0935" y1="340" y2="340"/><text fill="#000000" font-family="sans-serif" font-size="11" lengthAdjust="spacing" textLength="155" x="417.0935" y="354.2104">-numberCovidTestsPositive</text><text fill="#000000" font-family="sans-serif" font-size="11" lengthAdjust="spacing" textLength="163" x="417.0935" y="367.0151">-numberCovidTestsNegative</text><text fill="#000000" font-family="sans-serif" font-size="11" lengthAdjust="spacing" textLength="106" x="417.0935" y="379.8198">-covidTestsPerDay</text><text fill="#000000" font-family="sans-serif" font-size="11" lengthAdjust="spacing" textLength="131" x="417.0935" y="392.6245">-positiveResultsPerDay</text><text fill="#000000" font-family="sans-serif" font-size="11" lengthAdjust="spacing" textLength="116" x="417.0935" y="405.4292">-covidTestsPerWeek</text><text fill="#000000" font-family="sans-serif" font-size="11" lengthAdjust="spacing" textLength="141" x="417.0935" y="418.2339">-positiveResultsPerWeek</text><text fill="#000000" font-family="sans-serif" font-size="11" lengthAdjust="spacing" textLength="117" x="417.0935" y="431.0386">-covidTestsPerMonth</text><text fill="#000000" font-family="sans-serif" font-size="11" lengthAdjust="spacing" textLength="143" x="417.0935" y="443.8433">-positiveResultsperMonth</text><text fill="#000000" font-family="sans-serif" font-size="11" lengthAdjust="spacing" textLength="50" x="417.0935" y="456.6479">-forecast</text><line style="stroke:#A80036;stroke-width:1.5;" x1="412.0935" x2="585.0935" y1="463.2422" y2="463.2422"/><!--MD5=[df38be88ccee13e832d6fafd6288a4ca]
class Test--><rect codeLine="123" fill="#FEFECE" filter="url(#f6fql7seekdff)" height="60.8047" id="Test" style="stroke:#A80036;stroke-width:1.5;" width="58" x="564.5935" y="1166"/><ellipse cx="579.5935" cy="1182" fill="#ADD1B2" rx="11" ry="11" style="stroke:#A80036;stroke-width:1.0;"/><path d="M581.9373,1177.6719 C580.9998,1177.2344 580.406,1177.0938 579.531,1177.0938 C576.906,1177.0938 574.906,1179.1719 574.906,1181.8906 L574.906,1183.0156 C574.906,1185.5938 577.0154,1187.4844 579.906,1187.4844 C581.1248,1187.4844 582.281,1187.1875 583.031,1186.6406 C583.6091,1186.2344 583.9373,1185.7813 583.9373,1185.3906 C583.9373,1184.9375 583.5466,1184.5469 583.0779,1184.5469 C582.8591,1184.5469 582.656,1184.625 582.4685,1184.8125 C582.0154,1185.2969 582.0154,1185.2969 581.8279,1185.3906 C581.406,1185.6563 580.7185,1185.7813 579.9529,1185.7813 C577.906,1185.7813 576.6091,1184.6875 576.6091,1182.9844 L576.6091,1181.8906 C576.6091,1180.1094 577.8591,1178.7969 579.5935,1178.7969 C580.1716,1178.7969 580.781,1178.9531 581.2498,1179.2031 C581.7341,1179.4844 581.906,1179.7031 581.9998,1180.1094 C582.0623,1180.5156 582.0935,1180.6406 582.2341,1180.7656 C582.3748,1180.9063 582.6091,1181.0156 582.8279,1181.0156 C583.0935,1181.0156 583.3591,1180.875 583.531,1180.6563 C583.6404,1180.5 583.6716,1180.3125 583.6716,1179.8906 L583.6716,1178.4688 C583.6716,1178.0313 583.656,1177.9063 583.5623,1177.75 C583.406,1177.4844 583.1248,1177.3438 582.8279,1177.3438 C582.531,1177.3438 582.3279,1177.4375 582.1091,1177.75 L581.9373,1177.6719 Z " fill="#000000"/><text fill="#000000" font-family="sans-serif" font-size="12" lengthAdjust="spacing" textLength="26" x="593.5935" y="1186.1543">Test</text><line style="stroke:#A80036;stroke-width:1.5;" x1="565.5935" x2="621.5935" y1="1198" y2="1198"/><text fill="#000000" font-family="sans-serif" font-size="11" lengthAdjust="spacing" textLength="30" x="570.5935" y="1212.2104">-date</text><line style="stroke:#A80036;stroke-width:1.5;" x1="565.5935" x2="621.5935" y1="1218.8047" y2="1218.8047"/><!--MD5=[f69a48f7b38bde3533dca6607cc4e94a]
class TypeOfTest--><rect codeLine="126" fill="#FEFECE" filter="url(#f6fql7seekdff)" height="73.6094" id="TypeOfTest" style="stroke:#A80036;stroke-width:1.5;" width="139" x="524.0935" y="983"/><ellipse cx="555.7435" cy="999" fill="#ADD1B2" rx="11" ry="11" style="stroke:#A80036;stroke-width:1.0;"/><path d="M558.0872,994.6719 C557.1497,994.2344 556.556,994.0938 555.681,994.0938 C553.056,994.0938 551.056,996.1719 551.056,998.8906 L551.056,1000.0156 C551.056,1002.5938 553.1654,1004.4844 556.056,1004.4844 C557.2747,1004.4844 558.431,1004.1875 559.181,1003.6406 C559.7591,1003.2344 560.0872,1002.7813 560.0872,1002.3906 C560.0872,1001.9375 559.6966,1001.5469 559.2279,1001.5469 C559.0091,1001.5469 558.806,1001.625 558.6185,1001.8125 C558.1654,1002.2969 558.1654,1002.2969 557.9779,1002.3906 C557.556,1002.6563 556.8685,1002.7813 556.1029,1002.7813 C554.056,1002.7813 552.7591,1001.6875 552.7591,999.9844 L552.7591,998.8906 C552.7591,997.1094 554.0091,995.7969 555.7435,995.7969 C556.3216,995.7969 556.931,995.9531 557.3997,996.2031 C557.8841,996.4844 558.056,996.7031 558.1497,997.1094 C558.2122,997.5156 558.2435,997.6406 558.3841,997.7656 C558.5247,997.9063 558.7591,998.0156 558.9779,998.0156 C559.2435,998.0156 559.5091,997.875 559.681,997.6563 C559.7904,997.5 559.8216,997.3125 559.8216,996.8906 L559.8216,995.4688 C559.8216,995.0313 559.806,994.9063 559.7122,994.75 C559.556,994.4844 559.2747,994.3438 558.9779,994.3438 C558.681,994.3438 558.4779,994.4375 558.2591,994.75 L558.0872,994.6719 Z " fill="#000000"/><text fill="#000000" font-family="sans-serif" font-size="12" lengthAdjust="spacing" textLength="70" x="573.4435" y="1003.1543">TypeOfTest</text><line style="stroke:#A80036;stroke-width:1.5;" x1="525.0935" x2="662.0935" y1="1015" y2="1015"/><text fill="#000000" font-family="sans-serif" font-size="11" lengthAdjust="spacing" textLength="54" x="530.0935" y="1029.2104">-category</text><text fill="#000000" font-family="sans-serif" font-size="11" lengthAdjust="spacing" textLength="127" x="530.0935" y="1042.0151">-measuredParameters</text><line style="stroke:#A80036;stroke-width:1.5;" x1="525.0935" x2="662.0935" y1="1048.6094" y2="1048.6094"/><!--MD5=[5e6ae5ca2322ea7d8c17b0187d1bbc44]
class TestResults--><rect codeLine="130" fill="#FEFECE" filter="url(#f6fql7seekdff)" height="60.8047" id="TestResults" style="stroke:#A80036;stroke-width:1.5;" width="117" x="748.0935" y="567"/><ellipse cx="770.2935" cy="583" fill="#ADD1B2" rx="11" ry="11" style="stroke:#A80036;stroke-width:1.0;"/><path d="M772.6373,578.6719 C771.6998,578.2344 771.106,578.0938 770.231,578.0938 C767.606,578.0938 765.606,580.1719 765.606,582.8906 L765.606,584.0156 C765.606,586.5938 767.7154,588.4844 770.606,588.4844 C771.8248,588.4844 772.981,588.1875 773.731,587.6406 C774.3091,587.2344 774.6373,586.7813 774.6373,586.3906 C774.6373,585.9375 774.2466,585.5469 773.7779,585.5469 C773.5591,585.5469 773.356,585.625 773.1685,585.8125 C772.7154,586.2969 772.7154,586.2969 772.5279,586.3906 C772.106,586.6563 771.4185,586.7813 770.6529,586.7813 C768.606,586.7813 767.3091,585.6875 767.3091,583.9844 L767.3091,582.8906 C767.3091,581.1094 768.5591,579.7969 770.2935,579.7969 C770.8716,579.7969 771.481,579.9531 771.9498,580.2031 C772.4341,580.4844 772.606,580.7031 772.6998,581.1094 C772.7623,581.5156 772.7935,581.6406 772.9341,581.7656 C773.0748,581.9063 773.3091,582.0156 773.5279,582.0156 C773.7935,582.0156 774.0591,581.875 774.231,581.6563 C774.3404,581.5 774.3716,581.3125 774.3716,580.8906 L774.3716,579.4688 C774.3716,579.0313 774.356,578.9063 774.2623,578.75 C774.106,578.4844 773.8248,578.3438 773.5279,578.3438 C773.231,578.3438 773.0279,578.4375 772.8091,578.75 L772.6373,578.6719 Z " fill="#000000"/><text fill="#000000" font-family="sans-serif" font-size="12" lengthAdjust="spacing" textLength="69" x="785.8935" y="587.1543">TestResults</text><line style="stroke:#A80036;stroke-width:1.5;" x1="749.0935" x2="864.0935" y1="599" y2="599"/><text fill="#000000" font-family="sans-serif" font-size="11" lengthAdjust="spacing" textLength="105" x="754.0935" y="613.2104">-parameterResults</text><line style="stroke:#A80036;stroke-width:1.5;" x1="749.0935" x2="864.0935" y1="619.8047" y2="619.8047"/><!--MD5=[0a105ea8d9af02dadec02d3e239f1d60]
class NHS--><rect fill="#FEFECE" filter="url(#f6fql7seekdff)" height="48" id="NHS" style="stroke:#A80036;stroke-width:1.5;" width="57" x="470.0935" y="7"/><ellipse cx="485.0935" cy="23" fill="#ADD1B2" rx="11" ry="11" style="stroke:#A80036;stroke-width:1.0;"/><path d="M487.4373,18.6719 C486.4998,18.2344 485.906,18.0938 485.031,18.0938 C482.406,18.0938 480.406,20.1719 480.406,22.8906 L480.406,24.0156 C480.406,26.5938 482.5154,28.4844 485.406,28.4844 C486.6248,28.4844 487.781,28.1875 488.531,27.6406 C489.1091,27.2344 489.4373,26.7813 489.4373,26.3906 C489.4373,25.9375 489.0466,25.5469 488.5779,25.5469 C488.3591,25.5469 488.156,25.625 487.9685,25.8125 C487.5154,26.2969 487.5154,26.2969 487.3279,26.3906 C486.906,26.6563 486.2185,26.7813 485.4529,26.7813 C483.406,26.7813 482.1091,25.6875 482.1091,23.9844 L482.1091,22.8906 C482.1091,21.1094 483.3591,19.7969 485.0935,19.7969 C485.6716,19.7969 486.281,19.9531 486.7498,20.2031 C487.2341,20.4844 487.406,20.7031 487.4998,21.1094 C487.5623,21.5156 487.5935,21.6406 487.7341,21.7656 C487.8748,21.9063 488.1091,22.0156 488.3279,22.0156 C488.5935,22.0156 488.8591,21.875 489.031,21.6563 C489.1404,21.5 489.1716,21.3125 489.1716,20.8906 L489.1716,19.4688 C489.1716,19.0313 489.156,18.9063 489.0623,18.75 C488.906,18.4844 488.6248,18.3438 488.3279,18.3438 C488.031,18.3438 487.8279,18.4375 487.6091,18.75 L487.4373,18.6719 Z " fill="#000000"/><text fill="#000000" font-family="sans-serif" font-size="12" lengthAdjust="spacing" textLength="25" x="499.0935" y="27.1543">NHS</text><line style="stroke:#A80036;stroke-width:1.5;" x1="471.0935" x2="526.0935" y1="39" y2="39"/><line style="stroke:#A80036;stroke-width:1.5;" x1="471.0935" x2="526.0935" y1="47" y2="47"/><!--MD5=[68767c78be08caa96780c014af9fbeaa]
class API--><rect fill="#FEFECE" filter="url(#f6fql7seekdff)" height="48" id="API" style="stroke:#A80036;stroke-width:1.5;" width="49" x="474.0935" y="157.5"/><ellipse cx="489.0935" cy="173.5" fill="#ADD1B2" rx="11" ry="11" style="stroke:#A80036;stroke-width:1.0;"/><path d="M491.4373,169.1719 C490.4998,168.7344 489.906,168.5938 489.031,168.5938 C486.406,168.5938 484.406,170.6719 484.406,173.3906 L484.406,174.5156 C484.406,177.0938 486.5154,178.9844 489.406,178.9844 C490.6248,178.9844 491.781,178.6875 492.531,178.1406 C493.1091,177.7344 493.4373,177.2813 493.4373,176.8906 C493.4373,176.4375 493.0466,176.0469 492.5779,176.0469 C492.3591,176.0469 492.156,176.125 491.9685,176.3125 C491.5154,176.7969 491.5154,176.7969 491.3279,176.8906 C490.906,177.1563 490.2185,177.2813 489.4529,177.2813 C487.406,177.2813 486.1091,176.1875 486.1091,174.4844 L486.1091,173.3906 C486.1091,171.6094 487.3591,170.2969 489.0935,170.2969 C489.6716,170.2969 490.281,170.4531 490.7498,170.7031 C491.2341,170.9844 491.406,171.2031 491.4998,171.6094 C491.5623,172.0156 491.5935,172.1406 491.7341,172.2656 C491.8748,172.4063 492.1091,172.5156 492.3279,172.5156 C492.5935,172.5156 492.8591,172.375 493.031,172.1563 C493.1404,172 493.1716,171.8125 493.1716,171.3906 L493.1716,169.9688 C493.1716,169.5313 493.156,169.4063 493.0623,169.25 C492.906,168.9844 492.6248,168.8438 492.3279,168.8438 C492.031,168.8438 491.8279,168.9375 491.6091,169.25 L491.4373,169.1719 Z " fill="#000000"/><text fill="#000000" font-family="sans-serif" font-size="12" lengthAdjust="spacing" textLength="17" x="503.0935" y="177.6543">API</text><line style="stroke:#A80036;stroke-width:1.5;" x1="475.0935" x2="522.0935" y1="189.5" y2="189.5"/><line style="stroke:#A80036;stroke-width:1.5;" x1="475.0935" x2="522.0935" y1="197.5" y2="197.5"/><!--MD5=[978e6476bbbd7a7548766fd3b1b86795]
reverse link ClinicalAnalysisLaboratories to Company--><path codeLine="12" d="M205.3945,1263.486 C177.4385,1302.568 143.3825,1350.18 121.8387,1380.299 " fill="none" id="ClinicalAnalysisLaboratories-backto-Company" style="stroke:#A80036;stroke-width:1.0;"/><polygon fill="#A80036" points="208.4245,1259.249,199.9356,1264.2429,205.516,1263.316,206.4428,1268.8964,208.4245,1259.249" style="stroke:#A80036;stroke-width:1.0;"/><text fill="#000000" font-family="sans-serif" font-size="13" lengthAdjust="spacing" textLength="34" x="187.5935" y="1302.0669">owns</text><text fill="#000000" font-family="sans-serif" font-size="13" lengthAdjust="spacing" textLength="7" x="196.2107" y="1279.016">*</text><text fill="#000000" font-family="sans-serif" font-size="13" lengthAdjust="spacing" textLength="8" x="117.3955" y="1369.5208">1</text><!--MD5=[ac82875d58f59b0b682b96b6778314b8]
reverse link ClinicalAnalysisLaboratories to Administrator--><path codeLine="133" d="M283.0035,1264.005 C299.1085,1305.168 315.5935,1359.61 315.5935,1410 C315.5935,1410 315.5935,1410 315.5935,1848 C315.5935,1904.623 278.5925,1955.133 239.4235,1992.74 " fill="none" id="ClinicalAnalysisLaboratories-backto-Administrator" style="stroke:#A80036;stroke-width:1.0;"/><polygon fill="#A80036" points="281.1445,1259.306,280.7366,1269.1464,282.9842,1263.9552,288.1754,1266.2029,281.1445,1259.306" style="stroke:#A80036;stroke-width:1.0;"/><text fill="#000000" font-family="sans-serif" font-size="13" lengthAdjust="spacing" textLength="56" x="316.5935" y="1636.5669">registers</text><text fill="#000000" font-family="sans-serif" font-size="13" lengthAdjust="spacing" textLength="7" x="276.8845" y="1279.0793">*</text><text fill="#000000" font-family="sans-serif" font-size="13" lengthAdjust="spacing" textLength="8" x="240.3778" y="1981.9168">1</text><!--MD5=[cadc0906c01d6c65e975e16d992338c9]
reverse link Sample to ClinicalAnalysisLaboratories--><path codeLine="134" d="M378.6715,1056.34 C367.6005,1065.97 355.9055,1076.62 345.5935,1087 C331.0795,1101.61 316.2015,1118.15 302.7205,1133.833 " fill="none" id="Sample-backto-ClinicalAnalysisLaboratories" style="stroke:#A80036;stroke-width:1.0;"/><polygon fill="#A80036" points="382.7185,1052.84,373.2988,1055.7157,378.9415,1056.1163,378.5409,1061.7589,382.7185,1052.84" style="stroke:#A80036;stroke-width:1.0;"/><text fill="#000000" font-family="sans-serif" font-size="13" lengthAdjust="spacing" textLength="48" x="346.5935" y="1100.0669">collects</text><text fill="#000000" font-family="sans-serif" font-size="13" lengthAdjust="spacing" textLength="7" x="368.1705" y="1054.4672">*</text><text fill="#000000" font-family="sans-serif" font-size="13" lengthAdjust="spacing" textLength="8" x="300.0539" y="1122.8011">1</text><!--MD5=[83999087262e3f95ecaa1d42f873aabe]
reverse link Client to Receptionist--><path codeLine="135" d="M639.7245,1466.281 C628.3585,1481.289 617.8585,1498.339 611.5935,1516 C606.3855,1530.682 604.0725,1547.093 603.3735,1562.816 " fill="none" id="Client-backto-Receptionist" style="stroke:#A80036;stroke-width:1.0;"/><polygon fill="#A80036" points="642.9505,1462.103,634.2839,1466.7816,639.8946,1466.0604,640.6158,1471.6711,642.9505,1462.103" style="stroke:#A80036;stroke-width:1.0;"/><text fill="#000000" font-family="sans-serif" font-size="13" lengthAdjust="spacing" textLength="56" x="612.5935" y="1529.0669">registers</text><text fill="#000000" font-family="sans-serif" font-size="13" lengthAdjust="spacing" textLength="7" x="627.9661" y="1465.8233">*</text><text fill="#000000" font-family="sans-serif" font-size="13" lengthAdjust="spacing" textLength="8" x="594.4227" y="1552.0006">1</text><!--MD5=[ee42d507f3e937b1221f31a32b8112fb]
reverse link ChemicalLaboratory to Company--><path codeLine="136" d="M325.8595,613.24 C235.1995,635 100.5935,685.28 100.5935,792 C100.5935,792 100.5935,792 100.5935,1197.5 C100.5935,1262.799 100.5935,1339.386 100.5935,1380.436 " fill="none" id="ChemicalLaboratory-backto-Company" style="stroke:#A80036;stroke-width:1.0;"/><polygon fill="#A80036" points="330.9535,612.04,321.274,610.2212,326.088,613.192,323.1172,618.0059,330.9535,612.04" style="stroke:#A80036;stroke-width:1.0;"/><text fill="#000000" font-family="sans-serif" font-size="13" lengthAdjust="spacing" textLength="34" x="101.5935" y="1024.5669">owns</text><text fill="#000000" font-family="sans-serif" font-size="13" lengthAdjust="spacing" textLength="8" x="315.1139" y="609.7957">1</text><text fill="#000000" font-family="sans-serif" font-size="13" lengthAdjust="spacing" textLength="8" x="91.7185" y="1369.2123">1</text><!--MD5=[eb8806e8ccd17218cdd0339154bf9e5c]
reverse link Client to Sample--><path codeLine="137" d="M639.1775,1346.861 C634.4915,1342.891 629.6125,1339.21 624.5935,1336 C549.2175,1287.799 487.6565,1333.818 438.5935,1259 C398.2725,1197.513 405.6925,1106.87 414.0345,1057.07 " fill="none" id="Client-backto-Sample" style="stroke:#A80036;stroke-width:1.0;"/><polygon fill="#A80036" points="643.0675,1350.259,638.9197,1341.3262,639.3014,1346.9701,633.6575,1347.3519,643.0675,1350.259" style="stroke:#A80036;stroke-width:1.0;"/><text fill="#000000" font-family="sans-serif" font-size="13" lengthAdjust="spacing" textLength="106" x="439.5935" y="1201.0669">is collected from</text><text fill="#000000" font-family="sans-serif" font-size="13" lengthAdjust="spacing" textLength="8" x="627.0245" y="1336.8532">1</text><text fill="#000000" font-family="sans-serif" font-size="13" lengthAdjust="spacing" textLength="8" x="404.12" y="1076.5621">1</text><!--MD5=[65c5b509916ed9c0531bcd26c55dbd83]
reverse link LabOrder to Client--><path codeLine="138" d="M702.0805,1238.577 C700.3955,1266.125 698.1275,1303.196 696.1315,1335.818 " fill="none" id="LabOrder-backto-Client" style="stroke:#A80036;stroke-width:1.0;"/><polygon fill="#A80036" points="702.3885,1233.548,697.8481,1242.2878,702.0842,1238.5387,705.8333,1242.7748,702.3885,1233.548" style="stroke:#A80036;stroke-width:1.0;"/><text fill="#000000" font-family="sans-serif" font-size="13" lengthAdjust="spacing" textLength="39" x="700.5935" y="1302.0669">brings</text><text fill="#000000" font-family="sans-serif" font-size="13" lengthAdjust="spacing" textLength="24" x="676.0358" y="1253.0365">1..2</text><text fill="#000000" font-family="sans-serif" font-size="13" lengthAdjust="spacing" textLength="8" x="688.1828" y="1324.9897">1</text><!--MD5=[eff94aa5a24ddcc1df337b0804773a55]
reverse link Test to MedicalLabTechnician--><path codeLine="139" d="M573.9145,1231.951 C564.4225,1248.954 553.0685,1269.873 543.5935,1289 C535.2205,1305.903 526.6705,1324.392 518.9165,1341.717 " fill="none" id="Test-backto-MedicalLabTechnician" style="stroke:#A80036;stroke-width:1.0;"/><polygon fill="#A80036" points="576.5395,1227.264,568.6509,1233.1606,574.0957,1231.6261,575.6302,1237.0708,576.5395,1227.264" style="stroke:#A80036;stroke-width:1.0;"/><text fill="#000000" font-family="sans-serif" font-size="13" lengthAdjust="spacing" textLength="58" x="544.5935" y="1302.0669">conducts</text><text fill="#000000" font-family="sans-serif" font-size="13" lengthAdjust="spacing" textLength="7" x="565.4929" y="1246.8964">*</text><text fill="#000000" font-family="sans-serif" font-size="13" lengthAdjust="spacing" textLength="8" x="513.5279" y="1330.8914">1</text><!--MD5=[6dba24dc0f16d673b4663f61de2d8959]
reverse link Test to Client--><path codeLine="140" d="M597.6525,1232.18 C601.0765,1254.048 607.1515,1282.496 617.5935,1306 C624.3405,1321.188 633.4865,1336.404 643.0455,1350.327 " fill="none" id="Test-backto-Client" style="stroke:#A80036;stroke-width:1.0;"/><polygon fill="#A80036" points="596.8785,1227.053,594.2655,1236.5489,597.6242,1231.9971,602.176,1235.3558,596.8785,1227.053" style="stroke:#A80036;stroke-width:1.0;"/><text fill="#000000" font-family="sans-serif" font-size="13" lengthAdjust="spacing" textLength="71" x="618.5935" y="1302.0669">performs a</text><text fill="#000000" font-family="sans-serif" font-size="13" lengthAdjust="spacing" textLength="8" x="588.731" y="1247.0022">1</text><text fill="#000000" font-family="sans-serif" font-size="13" lengthAdjust="spacing" textLength="8" x="626.9991" y="1354.2285">1</text><!--MD5=[b38022c943dcc2196c953f0d3c4be53e]
reverse link TypeOfTest to Test--><path codeLine="141" d="M593.5935,1062.16 C593.5935,1093.97 593.5935,1137.257 593.5935,1165.766 " fill="none" id="TypeOfTest-backto-Test" style="stroke:#A80036;stroke-width:1.0;"/><polygon fill="#A80036" points="593.5935,1057.16,589.5935,1066.16,593.5935,1062.16,597.5935,1066.16,593.5935,1057.16" style="stroke:#A80036;stroke-width:1.0;"/><text fill="#000000" font-family="sans-serif" font-size="13" lengthAdjust="spacing" textLength="22" x="594.5935" y="1100.0669">is a</text><text fill="#000000" font-family="sans-serif" font-size="13" lengthAdjust="spacing" textLength="8" x="584.931" y="1076.6671">1</text><text fill="#000000" font-family="sans-serif" font-size="13" lengthAdjust="spacing" textLength="8" x="584.7685" y="1154.981">1</text><!--MD5=[ca43670e89bace4a7eb33bc55e976959]
reverse link ChemicalLaboratory to Sample--><path codeLine="142" d="M408.5105,652.25 C411.6175,739.34 417.6685,908.97 420.3095,983 " fill="none" id="ChemicalLaboratory-backto-Sample" style="stroke:#A80036;stroke-width:1.0;"/><polygon fill="#A80036" points="408.3285,647.15,404.6655,656.2923,408.5142,652.1466,412.66,655.9952,408.3285,647.15" style="stroke:#A80036;stroke-width:1.0;"/><text fill="#000000" font-family="sans-serif" font-size="13" lengthAdjust="spacing" textLength="70" x="417.5935" y="797.5669">are sent to</text><text fill="#000000" font-family="sans-serif" font-size="13" lengthAdjust="spacing" textLength="8" x="400.01" y="667.2476">1</text><text fill="#000000" font-family="sans-serif" font-size="13" lengthAdjust="spacing" textLength="7" x="412.4275" y="971.9105">*</text><!--MD5=[655f63077aed01c40b57658640a9dadc]
reverse link Sample to Test--><path codeLine="143" d="M463.5855,1060.74 C485.8875,1082.13 513.5775,1109.16 537.5935,1134 C547.4305,1144.174 557.9425,1155.571 567.1715,1165.763 " fill="none" id="Sample-backto-Test" style="stroke:#A80036;stroke-width:1.0;"/><polygon fill="#A80036" points="459.7705,1057.08,463.4895,1066.1997,463.3761,1060.544,469.0319,1060.4307,459.7705,1057.08" style="stroke:#A80036;stroke-width:1.0;"/><text fill="#000000" font-family="sans-serif" font-size="13" lengthAdjust="spacing" textLength="71" x="507.5935" y="1100.0669">produces a</text><text fill="#000000" font-family="sans-serif" font-size="13" lengthAdjust="spacing" textLength="8" x="457.4311" y="1076.5738">1</text><text fill="#000000" font-family="sans-serif" font-size="13" lengthAdjust="spacing" textLength="8" x="552.897" y="1154.9774">1</text><!--MD5=[cd338187eb4caa6e8a540c01e5ca8adb]
reverse link TestResults to ClinicalChemistTechnologist--><path codeLine="144" d="M764.5065,631.37 C748.4545,644.77 730.4585,660.88 715.5935,677 C702.2685,691.45 689.1185,708.02 677.3205,723.99 " fill="none" id="TestResults-backto-ClinicalChemistTechnologist" style="stroke:#A80036;stroke-width:1.0;"/><polygon fill="#A80036" points="768.5425,628.02,759.0627,630.6907,764.6953,631.2136,764.1724,636.8462,768.5425,628.02" style="stroke:#A80036;stroke-width:1.0;"/><text fill="#000000" font-family="sans-serif" font-size="13" lengthAdjust="spacing" textLength="59" x="716.5935" y="690.0669">produces</text><text fill="#000000" font-family="sans-serif" font-size="13" lengthAdjust="spacing" textLength="7" x="752.9726" y="647.9624">*</text><text fill="#000000" font-family="sans-serif" font-size="13" lengthAdjust="spacing" textLength="8" x="673.8844" y="712.716">1</text><!--MD5=[0cd951db9f1d51bb36afa2b16ff8bd1d]
reverse link Client to Report--><path codeLine="145" d="M700.6975,1491.06 C704.1725,1505.497 708.9705,1520.07 715.5935,1533 C723.9085,1549.233 731.3365,1549.494 743.5935,1563 C754.9145,1575.475 767.2545,1589.401 777.7825,1601.386 " fill="none" id="Client-backto-Report" style="stroke:#A80036;stroke-width:1.0;"/><polygon fill="#A80036" points="699.5685,1486.171,697.6976,1495.8405,700.6943,1491.0426,705.4922,1494.0393,699.5685,1486.171" style="stroke:#A80036;stroke-width:1.0;"/><text fill="#000000" font-family="sans-serif" font-size="13" lengthAdjust="spacing" textLength="59" x="716.5935" y="1529.0669">is sent to</text><text fill="#000000" font-family="sans-serif" font-size="13" lengthAdjust="spacing" textLength="8" x="691.9784" y="1506.7476">1</text><text fill="#000000" font-family="sans-serif" font-size="13" lengthAdjust="spacing" textLength="8" x="763.634" y="1590.6257">1</text><!--MD5=[71e06e850df568e3a85eeae5483d740b]
reverse link ChemicalLaboratory to ClinicalChemistTechnologist--><path codeLine="146" d="M466.9065,650.37 C493.0845,672.88 524.1065,699.56 552.1275,723.66 " fill="none" id="ChemicalLaboratory-backto-ClinicalChemistTechnologist" style="stroke:#A80036;stroke-width:1.0;"/><polygon fill="#A80036" points="463.0805,647.08,467.3049,655.9769,466.8747,650.3364,472.5151,649.9062,463.0805,647.08" style="stroke:#A80036;stroke-width:1.0;"/><text fill="#000000" font-family="sans-serif" font-size="13" lengthAdjust="spacing" textLength="57" x="513.5935" y="690.0669">is part of</text><text fill="#000000" font-family="sans-serif" font-size="13" lengthAdjust="spacing" textLength="8" x="462.4615" y="667.1677">1</text><text fill="#000000" font-family="sans-serif" font-size="13" lengthAdjust="spacing" textLength="7" x="536.5716" y="712.8286">*</text><!--MD5=[e338bddaa604d724810bf423a2ed97dc]
reverse link ClinicalChemistTechnologist to Sample--><path codeLine="147" d="M564.5185,865.87 C528.1415,904.84 484.7485,951.33 455.3925,982.79 " fill="none" id="ClinicalChemistTechnologist-backto-Sample" style="stroke:#A80036;stroke-width:1.0;"/><polygon fill="#A80036" points="568.0165,862.12,558.9501,865.9672,564.6037,865.7741,564.7967,871.4277,568.0165,862.12" style="stroke:#A80036;stroke-width:1.0;"/><text fill="#000000" font-family="sans-serif" font-size="13" lengthAdjust="spacing" textLength="100" x="540.5935" y="927.0669">are received by</text><text fill="#000000" font-family="sans-serif" font-size="13" lengthAdjust="spacing" textLength="8" x="553.3644" y="881.7538">1</text><text fill="#000000" font-family="sans-serif" font-size="13" lengthAdjust="spacing" textLength="7" x="453.7895" y="971.9395">*</text><!--MD5=[b49e42cafe8eb2e974897e6c33ae447b]
reverse link TestResults to SpecialistDoctor--><path codeLine="148" d="M866.9335,630.87 C919.2395,663.8 986.5935,720.15 986.5935,792 C986.5935,792 986.5935,792 986.5935,1633 C986.5935,1682.088 975.2475,1736.248 964.0775,1777.67 " fill="none" id="TestResults-backto-SpecialistDoctor" style="stroke:#A80036;stroke-width:1.0;"/><polygon fill="#A80036" points="862.5595,628.15,868.0858,636.3023,866.8041,630.7925,872.3139,629.5109,862.5595,628.15" style="stroke:#A80036;stroke-width:1.0;"/><text fill="#000000" font-family="sans-serif" font-size="13" lengthAdjust="spacing" textLength="50" x="987.5935" y="1201.0669">reviews</text><text fill="#000000" font-family="sans-serif" font-size="13" lengthAdjust="spacing" textLength="7" x="865.8887" y="647.76">*</text><text fill="#000000" font-family="sans-serif" font-size="13" lengthAdjust="spacing" textLength="8" x="957.8805" y="1766.8396">1</text><!--MD5=[0d5ea959d23f129ef827e28702304be9]
reverse link Report to SpecialistDoctor--><path codeLine="149" d="M806.5345,1667.729 C809.8345,1691.698 816.8195,1723.53 831.5935,1748 C837.9715,1758.563 845.8595,1768.611 854.4675,1777.964 " fill="none" id="Report-backto-SpecialistDoctor" style="stroke:#A80036;stroke-width:1.0;"/><polygon fill="#A80036" points="805.8855,1662.74,803.0812,1672.1812,806.5312,1667.6981,811.0142,1671.1481,805.8855,1662.74" style="stroke:#A80036;stroke-width:1.0;"/><text fill="#000000" font-family="sans-serif" font-size="13" lengthAdjust="spacing" textLength="39" x="832.5935" y="1744.0669">writes</text><text fill="#000000" font-family="sans-serif" font-size="13" lengthAdjust="spacing" textLength="7" x="798.6477" y="1682.3677">*</text><text fill="#000000" font-family="sans-serif" font-size="13" lengthAdjust="spacing" textLength="8" x="836.967" y="1767.1639">1</text><!--MD5=[34570443c17dd3b44adb3e7cf65f3a20]
reverse link ResultsValidation to SpecialistDoctor--><path codeLine="150" d="M895.8915,958.52 C897.0595,993.08 898.5935,1047.43 898.5935,1094.5 C898.5935,1094.5 898.5935,1094.5 898.5935,1633 C898.5935,1682.088 909.9395,1736.248 921.1095,1777.67 " fill="none" id="ResultsValidation-backto-SpecialistDoctor" style="stroke:#A80036;stroke-width:1.0;"/><polygon fill="#A80036" points="895.7075,953.15,892.0185,962.2819,895.879,958.1471,900.0138,962.0075,895.7075,953.15" style="stroke:#A80036;stroke-width:1.0;"/><text fill="#000000" font-family="sans-serif" font-size="13" lengthAdjust="spacing" textLength="59" x="899.5935" y="1302.0669">performs</text><text fill="#000000" font-family="sans-serif" font-size="13" lengthAdjust="spacing" textLength="7" x="888.2378" y="972.76">*</text><text fill="#000000" font-family="sans-serif" font-size="13" lengthAdjust="spacing" textLength="8" x="910.4815" y="1766.8396">1</text><!--MD5=[e20cf370ddc2b1ec2ca5c1d1877380c6]
reverse link TestResults to Report--><path codeLine="151" d="M805.4485,633.05 C804.2665,671.76 802.5935,736.37 802.5935,792 C802.5935,792 802.5935,792 802.5935,1412 C802.5935,1479.678 803.0765,1559.119 803.3715,1601.245 " fill="none" id="TestResults-backto-Report" style="stroke:#A80036;stroke-width:1.0;"/><polygon fill="#A80036" points="805.6045,628,801.3236,636.8698,805.4473,632.9975,809.3196,637.1213,805.6045,628" style="stroke:#A80036;stroke-width:1.0;"/><text fill="#000000" font-family="sans-serif" font-size="13" lengthAdjust="spacing" textLength="54" x="803.5935" y="1100.0669">contains</text><text fill="#000000" font-family="sans-serif" font-size="13" lengthAdjust="spacing" textLength="8" x="796.5755" y="647.9382">1</text><text fill="#000000" font-family="sans-serif" font-size="13" lengthAdjust="spacing" textLength="8" x="794.5007" y="1590.4556">1</text><!--MD5=[51d0562c2a403e0525091be1411745cf]
reverse link NHSReport to TestResults--><path codeLine="152" d="M502.0855,476.51 C506.2075,491.79 512.9235,506.48 523.5935,518 C553.8165,550.64 674.3285,575.26 747.9975,587.62 " fill="none" id="NHSReport-backto-TestResults" style="stroke:#A80036;stroke-width:1.0;"/><polygon fill="#A80036" points="500.7845,471.31,499.0901,481.012,501.9989,476.1603,506.8506,479.069,500.7845,471.31" style="stroke:#A80036;stroke-width:1.0;"/><text fill="#000000" font-family="sans-serif" font-size="13" lengthAdjust="spacing" textLength="71" x="524.5935" y="514.0669">are used in</text><text fill="#000000" font-family="sans-serif" font-size="13" lengthAdjust="spacing" textLength="8" x="492.6234" y="491.3262">1</text><text fill="#000000" font-family="sans-serif" font-size="13" lengthAdjust="spacing" textLength="7" x="733.0414" y="582.4811">*</text><!--MD5=[5e380585e4d51dea2ec34604655e12a6]
reverse link LaboratoryCoordinator to TestResults--><path codeLine="153" d="M809.1715,463.72 C808.4825,499.24 807.6925,539.92 807.1705,566.8 " fill="none" id="LaboratoryCoordinator-backto-TestResults" style="stroke:#A80036;stroke-width:1.0;"/><polygon fill="#A80036" points="809.2725,458.52,805.0933,467.4382,809.1725,463.519,813.0917,467.5982,809.2725,458.52" style="stroke:#A80036;stroke-width:1.0;"/><text fill="#000000" font-family="sans-serif" font-size="13" lengthAdjust="spacing" textLength="136" x="808.5935" y="514.0669">must be validated by</text><text fill="#000000" font-family="sans-serif" font-size="13" lengthAdjust="spacing" textLength="8" x="800.7487" y="478.1439">1</text><text fill="#000000" font-family="sans-serif" font-size="13" lengthAdjust="spacing" textLength="7" x="799.5676" y="556.022">*</text><!--MD5=[8345a230a66c91578d736fe7097173e6]
reverse link TestResultList to SpecialistDoctor--><path codeLine="154" d="M894.1525,205.02 C976.9825,233.01 1091.5935,289.6 1091.5935,388.5 C1091.5935,388.5 1091.5935,388.5 1091.5935,1633 C1091.5935,1688.283 1057.4735,1739.43 1021.8925,1777.742 " fill="none" id="TestResultList-backto-SpecialistDoctor" style="stroke:#A80036;stroke-width:1.0;"/><polygon fill="#A80036" points="889.2415,203.38,896.5123,210.0234,893.9843,204.9629,899.0449,202.4349,889.2415,203.38" style="stroke:#A80036;stroke-width:1.0;"/><text fill="#000000" font-family="sans-serif" font-size="13" lengthAdjust="spacing" textLength="64" x="1092.5935" y="1024.5669">can check</text><text fill="#000000" font-family="sans-serif" font-size="13" lengthAdjust="spacing" textLength="8" x="897.1189" y="201.8134">1</text><text fill="#000000" font-family="sans-serif" font-size="13" lengthAdjust="spacing" textLength="7" x="1022.7093" y="1766.919">*</text><!--MD5=[c56424ecf038915b4cf243fb461ddc19]
reverse link TestResultList to ClinicalChemistTechnologist--><path codeLine="155" d="M734.8895,234.72 C711.5995,254.81 688.4655,279.79 674.5935,308 C607.9535,443.5 613.4825,626.14 622.8375,723.76 " fill="none" id="TestResultList-backto-ClinicalChemistTechnologist" style="stroke:#A80036;stroke-width:1.0;"/><polygon fill="#A80036" points="738.9315,231.28,729.4871,234.0734,735.126,234.5232,734.6763,240.1622,738.9315,231.28" style="stroke:#A80036;stroke-width:1.0;"/><text fill="#000000" font-family="sans-serif" font-size="13" lengthAdjust="spacing" textLength="64" x="624.5935" y="514.0669">can check</text><text fill="#000000" font-family="sans-serif" font-size="13" lengthAdjust="spacing" textLength="8" x="720.2915" y="251.3959">1</text><text fill="#000000" font-family="sans-serif" font-size="13" lengthAdjust="spacing" textLength="7" x="614.5736" y="712.9389">*</text><!--MD5=[30bf558d4af4018b9bd557ad89f27a18]
reverse link TestResultList to LaboratoryCoordinator--><path codeLine="156" d="M810.5935,236.13 C810.5935,261.87 810.5935,293 810.5935,320.39 " fill="none" id="TestResultList-backto-LaboratoryCoordinator" style="stroke:#A80036;stroke-width:1.0;"/><polygon fill="#A80036" points="810.5935,231.06,806.5935,240.06,810.5935,236.06,814.5935,240.06,810.5935,231.06" style="stroke:#A80036;stroke-width:1.0;"/><text fill="#000000" font-family="sans-serif" font-size="13" lengthAdjust="spacing" textLength="64" x="811.5935" y="274.0669">can check</text><text fill="#000000" font-family="sans-serif" font-size="13" lengthAdjust="spacing" textLength="8" x="802.031" y="251.1449">1</text><text fill="#000000" font-family="sans-serif" font-size="13" lengthAdjust="spacing" textLength="7" x="803.2326" y="309.5823">*</text><!--MD5=[82c6bb7b8e3177e32d04c69f75bd7c02]
reverse link NHS to API--><path codeLine="157" d="M498.5935,60.29 C498.5935,88.49 498.5935,131.26 498.5935,157.46 " fill="none" id="NHS-backto-API" style="stroke:#A80036;stroke-width:1.0;"/><polygon fill="#A80036" points="498.5935,55.2,494.5935,64.2,498.5935,60.2,502.5935,64.2,498.5935,55.2" style="stroke:#A80036;stroke-width:1.0;"/><text fill="#000000" font-family="sans-serif" font-size="13" lengthAdjust="spacing" textLength="55" x="499.5935" y="98.0669">sends to</text><text fill="#000000" font-family="sans-serif" font-size="13" lengthAdjust="spacing" textLength="8" x="489.6185" y="75.01">1</text><text fill="#000000" font-family="sans-serif" font-size="13" lengthAdjust="spacing" textLength="7" x="490.6966" y="146.4618">*</text><!--MD5=[5d9e55dfe12902e6bbd9fe8e84f6c5d1]
reverse link API to NHSReport--><path codeLine="158" d="M498.5935,210.86 C498.5935,235.82 498.5935,273.42 498.5935,307.61 " fill="none" id="API-backto-NHSReport" style="stroke:#A80036;stroke-width:1.0;"/><polygon fill="#A80036" points="498.5935,205.73,494.5935,214.73,498.5935,210.73,502.5935,214.73,498.5935,205.73" style="stroke:#A80036;stroke-width:1.0;"/><text fill="#000000" font-family="sans-serif" font-size="13" lengthAdjust="spacing" textLength="34" x="499.5935" y="274.0669">using</text><text fill="#000000" font-family="sans-serif" font-size="13" lengthAdjust="spacing" textLength="8" x="489.6185" y="225.5473">1</text><text fill="#000000" font-family="sans-serif" font-size="13" lengthAdjust="spacing" textLength="7" x="491.2927" y="296.9902">*</text><!--MD5=[33ab1a2a3ee24839f07692b0199c2b76]
reverse link TestResults to ResultsValidation--><path codeLine="159" d="M816.4015,633.22 C820.2345,646.86 824.6485,662.66 828.5935,677 C849.8765,754.37 874.3565,845.68 886.6595,891.74 " fill="none" id="TestResults-backto-ResultsValidation" style="stroke:#A80036;stroke-width:1.0;"/><polygon fill="#A80036" points="815.0185,628.3,813.6112,638.0478,816.3755,633.1123,821.311,635.8766,815.0185,628.3" style="stroke:#A80036;stroke-width:1.0;"/><text fill="#000000" font-family="sans-serif" font-size="13" lengthAdjust="spacing" textLength="13" x="832.5935" y="690.0669">to</text><text fill="#000000" font-family="sans-serif" font-size="13" lengthAdjust="spacing" textLength="7" x="808.9881" y="647.9395">*</text><text fill="#000000" font-family="sans-serif" font-size="13" lengthAdjust="spacing" textLength="8" x="876.1981" y="880.9496">1</text><!--MD5=[12d76240d3c3c66074d4ec2ea8bf469c]
link Company to Parameter--><path codeLine="160" d="M113.8102,1441.535 C130.1931,1478.146 158.3105,1540.98 177.6435,1584.183 " fill="none" id="Company-to-Parameter" style="stroke:#A80036;stroke-width:1.0;"/><polygon fill="#A80036" points="179.7205,1588.825,179.6962,1578.9762,177.6785,1584.261,172.3938,1582.2433,179.7205,1588.825" style="stroke:#A80036;stroke-width:1.0;"/><text fill="#000000" font-family="sans-serif" font-size="13" lengthAdjust="spacing" textLength="56" x="153.5935" y="1529.0669">specifies</text><text fill="#000000" font-family="sans-serif" font-size="13" lengthAdjust="spacing" textLength="8" x="107.7111" y="1461.4805">1</text><text fill="#000000" font-family="sans-serif" font-size="13" lengthAdjust="spacing" textLength="7" x="169.1548" y="1577.7932">*</text><!--MD5=[93b4f25fb503a8e0e9a46b1d30ff3f44]
link Company to ParameterCategory--><path codeLine="161" d="M99.2658,1441.739 C97.4171,1494.352 95.7029,1607.148 109.5935,1701 C114.8792,1736.712 125.8594,1776.22 134.8265,1804.966 " fill="none" id="Company-to-ParameterCategory" style="stroke:#A80036;stroke-width:1.0;"/><polygon fill="#A80036" points="136.3605,1809.844,137.4764,1800.0586,134.8606,1805.0743,129.8449,1802.4584,136.3605,1809.844" style="stroke:#A80036;stroke-width:1.0;"/><text fill="#000000" font-family="sans-serif" font-size="13" lengthAdjust="spacing" textLength="23" x="110.5935" y="1636.5669">has</text><text fill="#000000" font-family="sans-serif" font-size="13" lengthAdjust="spacing" textLength="8" x="90.2169" y="1461.3665">1</text><text fill="#000000" font-family="sans-serif" font-size="13" lengthAdjust="spacing" textLength="7" x="126.5582" y="1799.0032">*</text><!--MD5=[6df8849671cb880f6936e94aa30db6f9]
link Parameter to ParameterCategory--><path codeLine="162" d="M188.7155,1675.082 C179.8905,1712.676 167.0385,1767.423 158.2745,1804.758 " fill="none" id="Parameter-to-ParameterCategory" style="stroke:#A80036;stroke-width:1.0;"/><polygon fill="#A80036" points="157.1195,1809.679,163.0704,1801.8313,158.2621,1804.8113,155.2821,1800.003,157.1195,1809.679" style="stroke:#A80036;stroke-width:1.0;"/><text fill="#000000" font-family="sans-serif" font-size="13" lengthAdjust="spacing" textLength="106" x="176.5935" y="1744.0669">presented under</text><text fill="#000000" font-family="sans-serif" font-size="13" lengthAdjust="spacing" textLength="7" x="179.4998" y="1695.5032">*</text><text fill="#000000" font-family="sans-serif" font-size="13" lengthAdjust="spacing" textLength="8" x="149.9257" y="1798.8088">1</text><!--MD5=[8fed49cf12a674e36a1de475622ee091]
link ParameterCategory to Administrator--><path codeLine="163" d="M148.5935,1884.133 C148.5935,1912.414 148.5935,1952.68 148.5935,1987.649 " fill="none" id="ParameterCategory-to-Administrator" style="stroke:#A80036;stroke-width:1.0;"/><polygon fill="#A80036" points="148.5935,1992.768,152.5935,1983.768,148.5935,1987.768,144.5935,1983.768,148.5935,1992.768" style="stroke:#A80036;stroke-width:1.0;"/><text fill="#000000" font-family="sans-serif" font-size="13" lengthAdjust="spacing" textLength="69" x="149.5935" y="1959.0669">created by</text><text fill="#000000" font-family="sans-serif" font-size="13" lengthAdjust="spacing" textLength="7" x="141.0138" y="1903.6356">*</text><text fill="#000000" font-family="sans-serif" font-size="13" lengthAdjust="spacing" textLength="8" x="140.181" y="1981.9477">1</text><!--MD5=[eaea43e34e45c5b9d20b595fc78f1f20]
link Company to Administrator--><path codeLine="164" d="M90.6197,1441.707 C65.6575,1520.706 6,1741.825 56.5935,1916 C63.9611,1941.364 77.2476,1966.539 91.4739,1988.617 " fill="none" id="Company-to-Administrator" style="stroke:#A80036;stroke-width:1.0;"/><polygon fill="#A80036" points="94.3303,1992.99,92.7577,1983.2675,91.5961,1988.8038,86.0598,1987.6423,94.3303,1992.99" style="stroke:#A80036;stroke-width:1.0;"/><text fill="#000000" font-family="sans-serif" font-size="13" lengthAdjust="spacing" textLength="41" x="38.5935" y="1744.0669">knows</text><text fill="#000000" font-family="sans-serif" font-size="13" lengthAdjust="spacing" textLength="8" x="79.8686" y="1461.3282">1</text><text fill="#000000" font-family="sans-serif" font-size="13" lengthAdjust="spacing" textLength="8" x="79.9578" y="1981.716">1</text><!--MD5=[9960b8206558064dd4d4d51ca64295ec]
@startuml
class Company
skinparam classAttributeIconSize 0
Company : -designation
Class ClinicalAnalysisLaboratories{
-laboratoryID
-address
-name
-phoneNumber
-tinNumber
-typeOfTest
}
ClinicalAnalysisLaboratories "*" <- - "1" Company : owns
Class ChemicalLaboratory{
-address
-name
-phoneNumber
-tinNumber
}
Class Client{
-ccn
-name
-nhsNumber
-birthDate
-sex
-tif
-phoneNumber
-eMail
}
Class Receptionist{
-employeeID
-organizationRole
-name
-address
-phoneNumber
-eMail
-standardOcupationalClassificationCode
}
Class Sample{
-category
-sampleID
}
Class Administrator{
-employeeID
-organizationRole
-name
-address
-phoneNumber
-eMail
-standardOcupationalClassificationCode
}
Class MedicalLabTechnician{
-employeeID
-organizationRole
-name
-address
-phoneNumber
-eMail
-standardOcupationalClassificationCode
}
class ParameterCategory {
  -name
  -code
}
class Parameter {
 -code
 -shortname
 -description
}
Class ClinicalChemistTechnologist{
-employeeID
-organizationRole
-name
-address
-phoneNumber
-eMail
-standardOcupationalClassificationCode
}
Class SpecialistDoctor{
-employeeID
-organizationRole
-name
-address
-phoneNumber
-eMail
-standardOcupationalClassificationCode
}
Class LaboratoryCoordinator{
-employeeID
-organizationRole
-name
-address
-phoneNumber
-eMail
-standardOcupationalClassificationCode
}
Class ResultsValidation{
-testReferenceValues
}
Class LabOrder{
-typeOfTest
-parameters
}
Class Report{
-bodyOfText
}
Class TestResultList{
-listOfPositiveCases
-listOfNegativeCases
-sortingAlgorithmByTIF
-sortingAlgorithmByName
}
Class NHSReport{
-numberCovidTestsPositive
-numberCovidTestsNegative
-covidTestsPerDay
-positiveResultsPerDay
-covidTestsPerWeek
-positiveResultsPerWeek
-covidTestsPerMonth
-positiveResultsperMonth
-forecast
}
Class Test{
-date
}
Class TypeOfTest{
-category
-measuredParameters
}
Class TestResults{
-parameterResults
}
ClinicalAnalysisLaboratories "*" <- - "1" Administrator : registers
Sample "*" <- - "1" ClinicalAnalysisLaboratories : collects
Client "*" <- - "1" Receptionist : registers
ChemicalLaboratory "1" <- - "1" Company : owns
Client "1" <- - "1" Sample: is collected from
LabOrder "1..2" <- - "1" Client: brings
Test "*" <- - "1" MedicalLabTechnician : conducts
Test "1" <- - "1" Client: performs a
TypeOfTest "1" <- - "1" Test: is a
ChemicalLaboratory "1" <- - "*" Sample: are sent to
Sample "1" <- - "1" Test: produces a
TestResults "*" <- - "1" ClinicalChemistTechnologist: produces
Client "1" <- - "1" Report: is sent to
ChemicalLaboratory "1" <- - "*" ClinicalChemistTechnologist: is part of
ClinicalChemistTechnologist "1" <- - "*" Sample : are received by
TestResults "*" <- - "1" SpecialistDoctor: reviews
Report "*" <- - "1" SpecialistDoctor: writes
ResultsValidation "*" <- - "1" SpecialistDoctor: performs
TestResults "1" <- - "1" Report: contains
NHSReport"1" <- - "*" TestResults: are used in
LaboratoryCoordinator "1" <- - "*" TestResults : must be validated by
TestResultList "1" <- - "*" SpecialistDoctor : can check
TestResultList "1" <- - "*" ClinicalChemistTechnologist : can check
TestResultList "1" <- - "*" LaboratoryCoordinator : can check
NHS"1" <- - "*" API: sends to
API"1" <- - "*" NHSReport: using
TestResults "*" <- - "1" ResultsValidation : to
Company "1" - -> "*" Parameter : specifies
Company "1" - -> "*" ParameterCategory : has
Parameter "*" - -> "1" ParameterCategory : presented under
ParameterCategory "*" - -> "1" Administrator : created by
Company "1" - -> "1" Administrator : knows
@enduml

PlantUML version 1.2021.6beta2(Unknown compile time)
(GPL source distribution)
Java Runtime: Java(TM) SE Runtime Environment
JVM: Java HotSpot(TM) 64-Bit Server VM
Default Encoding: UTF-8
Language: en
Country: US
--></g></svg>