<?xml version="1.0" encoding="UTF-8" standalone="no"?>
<svg xmlns="http://www.w3.org/2000/svg" xmlns:xlink="http://www.w3.org/1999/xlink" contentScriptType="application/ecmascript" contentStyleType="text/css" height="1799px" preserveAspectRatio="none" style="width:1644px;height:1799px;" version="1.1" viewBox="0 0 1644 1799" width="1644px" zoomAndPan="magnify"><defs><filter height="300%" id="fg73ue65g8rum" width="300%" x="-1" y="-1"><feGaussianBlur result="blurOut" stdDeviation="2.0"/><feColorMatrix in="blurOut" result="blurOut2" type="matrix" values="0 0 0 0 0 0 0 0 0 0 0 0 0 0 0 0 0 0 .4 0"/><feOffset dx="4.0" dy="4.0" in="blurOut2" result="blurOut3"/><feBlend in="SourceGraphic" in2="blurOut3" mode="normal"/></filter></defs><g><!--MD5=[02e4b9b7573f1156f41e60aa5b4e25a4]
class Company--><rect codeLine="1" fill="#FEFECE" filter="url(#fg73ue65g8rum)" height="60.8047" id="Company" style="stroke:#A80036;stroke-width:1.5;" width="88" x="129" y="580.5"/><ellipse cx="144" cy="596.5" fill="#ADD1B2" rx="11" ry="11" style="stroke:#A80036;stroke-width:1.0;"/><path d="M146.3438,592.1719 C145.4063,591.7344 144.8125,591.5938 143.9375,591.5938 C141.3125,591.5938 139.3125,593.6719 139.3125,596.3906 L139.3125,597.5156 C139.3125,600.0938 141.4219,601.9844 144.3125,601.9844 C145.5313,601.9844 146.6875,601.6875 147.4375,601.1406 C148.0156,600.7344 148.3438,600.2813 148.3438,599.8906 C148.3438,599.4375 147.9531,599.0469 147.4844,599.0469 C147.2656,599.0469 147.0625,599.125 146.875,599.3125 C146.4219,599.7969 146.4219,599.7969 146.2344,599.8906 C145.8125,600.1563 145.125,600.2813 144.3594,600.2813 C142.3125,600.2813 141.0156,599.1875 141.0156,597.4844 L141.0156,596.3906 C141.0156,594.6094 142.2656,593.2969 144,593.2969 C144.5781,593.2969 145.1875,593.4531 145.6563,593.7031 C146.1406,593.9844 146.3125,594.2031 146.4063,594.6094 C146.4688,595.0156 146.5,595.1406 146.6406,595.2656 C146.7813,595.4063 147.0156,595.5156 147.2344,595.5156 C147.5,595.5156 147.7656,595.375 147.9375,595.1563 C148.0469,595 148.0781,594.8125 148.0781,594.3906 L148.0781,592.9688 C148.0781,592.5313 148.0625,592.4063 147.9688,592.25 C147.8125,591.9844 147.5313,591.8438 147.2344,591.8438 C146.9375,591.8438 146.7344,591.9375 146.5156,592.25 L146.3438,592.1719 Z " fill="#000000"/><text fill="#000000" font-family="sans-serif" font-size="12" lengthAdjust="spacing" textLength="56" x="158" y="600.6543">Company</text><line style="stroke:#A80036;stroke-width:1.5;" x1="130" x2="216" y1="612.5" y2="612.5"/><text fill="#000000" font-family="sans-serif" font-size="11" lengthAdjust="spacing" textLength="70" x="135" y="626.7104">-designation</text><line style="stroke:#A80036;stroke-width:1.5;" x1="130" x2="216" y1="633.3047" y2="633.3047"/><!--MD5=[6a75aabe243bf57969b899a1c4169ff1]
class ClinicalAnalysisLaboratories--><rect codeLine="4" fill="#FEFECE" filter="url(#fg73ue65g8rum)" height="112.0234" id="ClinicalAnalysisLaboratories" style="stroke:#A80036;stroke-width:1.5;" width="198" x="293" y="347"/><ellipse cx="308" cy="363" fill="#ADD1B2" rx="11" ry="11" style="stroke:#A80036;stroke-width:1.0;"/><path d="M310.3438,358.6719 C309.4063,358.2344 308.8125,358.0938 307.9375,358.0938 C305.3125,358.0938 303.3125,360.1719 303.3125,362.8906 L303.3125,364.0156 C303.3125,366.5938 305.4219,368.4844 308.3125,368.4844 C309.5313,368.4844 310.6875,368.1875 311.4375,367.6406 C312.0156,367.2344 312.3438,366.7813 312.3438,366.3906 C312.3438,365.9375 311.9531,365.5469 311.4844,365.5469 C311.2656,365.5469 311.0625,365.625 310.875,365.8125 C310.4219,366.2969 310.4219,366.2969 310.2344,366.3906 C309.8125,366.6563 309.125,366.7813 308.3594,366.7813 C306.3125,366.7813 305.0156,365.6875 305.0156,363.9844 L305.0156,362.8906 C305.0156,361.1094 306.2656,359.7969 308,359.7969 C308.5781,359.7969 309.1875,359.9531 309.6563,360.2031 C310.1406,360.4844 310.3125,360.7031 310.4063,361.1094 C310.4688,361.5156 310.5,361.6406 310.6406,361.7656 C310.7813,361.9063 311.0156,362.0156 311.2344,362.0156 C311.5,362.0156 311.7656,361.875 311.9375,361.6563 C312.0469,361.5 312.0781,361.3125 312.0781,360.8906 L312.0781,359.4688 C312.0781,359.0313 312.0625,358.9063 311.9688,358.75 C311.8125,358.4844 311.5313,358.3438 311.2344,358.3438 C310.9375,358.3438 310.7344,358.4375 310.5156,358.75 L310.3438,358.6719 Z " fill="#000000"/><text fill="#000000" font-family="sans-serif" font-size="12" lengthAdjust="spacing" textLength="166" x="322" y="367.1543">ClinicalAnalysisLaboratories</text><line style="stroke:#A80036;stroke-width:1.5;" x1="294" x2="490" y1="379" y2="379"/><text fill="#000000" font-family="sans-serif" font-size="11" lengthAdjust="spacing" textLength="73" x="299" y="393.2104">-laboratoryID</text><text fill="#000000" font-family="sans-serif" font-size="11" lengthAdjust="spacing" textLength="49" x="299" y="406.0151">-address</text><text fill="#000000" font-family="sans-serif" font-size="11" lengthAdjust="spacing" textLength="37" x="299" y="418.8198">-name</text><text fill="#000000" font-family="sans-serif" font-size="11" lengthAdjust="spacing" textLength="85" x="299" y="431.6245">-phoneNumber</text><text fill="#000000" font-family="sans-serif" font-size="11" lengthAdjust="spacing" textLength="63" x="299" y="444.4292">-tinNumber</text><line style="stroke:#A80036;stroke-width:1.5;" x1="294" x2="490" y1="451.0234" y2="451.0234"/><!--MD5=[a64badb107d3691f2dc6af242cdbeb21]
class ChemicalLaboratory--><rect codeLine="11" fill="#FEFECE" filter="url(#fg73ue65g8rum)" height="112.0234" id="ChemicalLaboratory" style="stroke:#A80036;stroke-width:1.5;" width="151" x="555.5" y="7"/><ellipse cx="570.5" cy="23" fill="#ADD1B2" rx="11" ry="11" style="stroke:#A80036;stroke-width:1.0;"/><path d="M572.8438,18.6719 C571.9063,18.2344 571.3125,18.0938 570.4375,18.0938 C567.8125,18.0938 565.8125,20.1719 565.8125,22.8906 L565.8125,24.0156 C565.8125,26.5938 567.9219,28.4844 570.8125,28.4844 C572.0313,28.4844 573.1875,28.1875 573.9375,27.6406 C574.5156,27.2344 574.8438,26.7813 574.8438,26.3906 C574.8438,25.9375 574.4531,25.5469 573.9844,25.5469 C573.7656,25.5469 573.5625,25.625 573.375,25.8125 C572.9219,26.2969 572.9219,26.2969 572.7344,26.3906 C572.3125,26.6563 571.625,26.7813 570.8594,26.7813 C568.8125,26.7813 567.5156,25.6875 567.5156,23.9844 L567.5156,22.8906 C567.5156,21.1094 568.7656,19.7969 570.5,19.7969 C571.0781,19.7969 571.6875,19.9531 572.1563,20.2031 C572.6406,20.4844 572.8125,20.7031 572.9063,21.1094 C572.9688,21.5156 573,21.6406 573.1406,21.7656 C573.2813,21.9063 573.5156,22.0156 573.7344,22.0156 C574,22.0156 574.2656,21.875 574.4375,21.6563 C574.5469,21.5 574.5781,21.3125 574.5781,20.8906 L574.5781,19.4688 C574.5781,19.0313 574.5625,18.9063 574.4688,18.75 C574.3125,18.4844 574.0313,18.3438 573.7344,18.3438 C573.4375,18.3438 573.2344,18.4375 573.0156,18.75 L572.8438,18.6719 Z " fill="#000000"/><text fill="#000000" font-family="sans-serif" font-size="12" lengthAdjust="spacing" textLength="119" x="584.5" y="27.1543">ChemicalLaboratory</text><line style="stroke:#A80036;stroke-width:1.5;" x1="556.5" x2="705.5" y1="39" y2="39"/><text fill="#000000" font-family="sans-serif" font-size="11" lengthAdjust="spacing" textLength="49" x="561.5" y="53.2104">-address</text><text fill="#000000" font-family="sans-serif" font-size="11" lengthAdjust="spacing" textLength="37" x="561.5" y="66.0151">-name</text><text fill="#000000" font-family="sans-serif" font-size="11" lengthAdjust="spacing" textLength="85" x="561.5" y="78.8198">-phoneNumber</text><text fill="#000000" font-family="sans-serif" font-size="11" lengthAdjust="spacing" textLength="63" x="561.5" y="91.6245">-tinNumber</text><text fill="#000000" font-family="sans-serif" font-size="11" lengthAdjust="spacing" textLength="65" x="561.5" y="104.4292">-typeOftest</text><line style="stroke:#A80036;stroke-width:1.5;" x1="556.5" x2="705.5" y1="111.0234" y2="111.0234"/><!--MD5=[ed6624c6556d5e7b1bd23032162d20b7]
class Client--><rect codeLine="18" fill="#FEFECE" filter="url(#fg73ue65g8rum)" height="150.4375" id="Client" style="stroke:#A80036;stroke-width:1.5;" width="97" x="733.5" y="536"/><ellipse cx="762.9" cy="552" fill="#ADD1B2" rx="11" ry="11" style="stroke:#A80036;stroke-width:1.0;"/><path d="M765.2438,547.6719 C764.3063,547.2344 763.7125,547.0938 762.8375,547.0938 C760.2125,547.0938 758.2125,549.1719 758.2125,551.8906 L758.2125,553.0156 C758.2125,555.5938 760.3219,557.4844 763.2125,557.4844 C764.4313,557.4844 765.5875,557.1875 766.3375,556.6406 C766.9156,556.2344 767.2438,555.7813 767.2438,555.3906 C767.2438,554.9375 766.8531,554.5469 766.3844,554.5469 C766.1656,554.5469 765.9625,554.625 765.775,554.8125 C765.3219,555.2969 765.3219,555.2969 765.1344,555.3906 C764.7125,555.6563 764.025,555.7813 763.2594,555.7813 C761.2125,555.7813 759.9156,554.6875 759.9156,552.9844 L759.9156,551.8906 C759.9156,550.1094 761.1656,548.7969 762.9,548.7969 C763.4781,548.7969 764.0875,548.9531 764.5563,549.2031 C765.0406,549.4844 765.2125,549.7031 765.3063,550.1094 C765.3688,550.5156 765.4,550.6406 765.5406,550.7656 C765.6813,550.9063 765.9156,551.0156 766.1344,551.0156 C766.4,551.0156 766.6656,550.875 766.8375,550.6563 C766.9469,550.5 766.9781,550.3125 766.9781,549.8906 L766.9781,548.4688 C766.9781,548.0313 766.9625,547.9063 766.8688,547.75 C766.7125,547.4844 766.4313,547.3438 766.1344,547.3438 C765.8375,547.3438 765.6344,547.4375 765.4156,547.75 L765.2438,547.6719 Z " fill="#000000"/><text fill="#000000" font-family="sans-serif" font-size="12" lengthAdjust="spacing" textLength="33" x="780.1" y="556.1543">Client</text><line style="stroke:#A80036;stroke-width:1.5;" x1="734.5" x2="829.5" y1="568" y2="568"/><text fill="#000000" font-family="sans-serif" font-size="11" lengthAdjust="spacing" textLength="23" x="739.5" y="582.2104">-ccn</text><text fill="#000000" font-family="sans-serif" font-size="11" lengthAdjust="spacing" textLength="37" x="739.5" y="595.0151">-name</text><text fill="#000000" font-family="sans-serif" font-size="11" lengthAdjust="spacing" textLength="69" x="739.5" y="607.8198">-nhsNumber</text><text fill="#000000" font-family="sans-serif" font-size="11" lengthAdjust="spacing" textLength="57" x="739.5" y="620.6245">-birthDate</text><text fill="#000000" font-family="sans-serif" font-size="11" lengthAdjust="spacing" textLength="25" x="739.5" y="633.4292">-sex</text><text fill="#000000" font-family="sans-serif" font-size="11" lengthAdjust="spacing" textLength="15" x="739.5" y="646.2339">-tif</text><text fill="#000000" font-family="sans-serif" font-size="11" lengthAdjust="spacing" textLength="85" x="739.5" y="659.0386">-phoneNumber</text><text fill="#000000" font-family="sans-serif" font-size="11" lengthAdjust="spacing" textLength="34" x="739.5" y="671.8433">-eMail</text><line style="stroke:#A80036;stroke-width:1.5;" x1="734.5" x2="829.5" y1="678.4375" y2="678.4375"/><!--MD5=[03960189e81aa2c066c762ffabbee709]
class Receptionist--><rect codeLine="28" fill="#FEFECE" filter="url(#fg73ue65g8rum)" height="137.6328" id="Receptionist" style="stroke:#A80036;stroke-width:1.5;" width="236" x="570" y="763"/><ellipse cx="646.75" cy="779" fill="#ADD1B2" rx="11" ry="11" style="stroke:#A80036;stroke-width:1.0;"/><path d="M649.0938,774.6719 C648.1563,774.2344 647.5625,774.0938 646.6875,774.0938 C644.0625,774.0938 642.0625,776.1719 642.0625,778.8906 L642.0625,780.0156 C642.0625,782.5938 644.1719,784.4844 647.0625,784.4844 C648.2813,784.4844 649.4375,784.1875 650.1875,783.6406 C650.7656,783.2344 651.0938,782.7813 651.0938,782.3906 C651.0938,781.9375 650.7031,781.5469 650.2344,781.5469 C650.0156,781.5469 649.8125,781.625 649.625,781.8125 C649.1719,782.2969 649.1719,782.2969 648.9844,782.3906 C648.5625,782.6563 647.875,782.7813 647.1094,782.7813 C645.0625,782.7813 643.7656,781.6875 643.7656,779.9844 L643.7656,778.8906 C643.7656,777.1094 645.0156,775.7969 646.75,775.7969 C647.3281,775.7969 647.9375,775.9531 648.4063,776.2031 C648.8906,776.4844 649.0625,776.7031 649.1563,777.1094 C649.2188,777.5156 649.25,777.6406 649.3906,777.7656 C649.5313,777.9063 649.7656,778.0156 649.9844,778.0156 C650.25,778.0156 650.5156,777.875 650.6875,777.6563 C650.7969,777.5 650.8281,777.3125 650.8281,776.8906 L650.8281,775.4688 C650.8281,775.0313 650.8125,774.9063 650.7188,774.75 C650.5625,774.4844 650.2813,774.3438 649.9844,774.3438 C649.6875,774.3438 649.4844,774.4375 649.2656,774.75 L649.0938,774.6719 Z " fill="#000000"/><text fill="#000000" font-family="sans-serif" font-size="12" lengthAdjust="spacing" textLength="74" x="667.25" y="783.1543">Receptionist</text><line style="stroke:#A80036;stroke-width:1.5;" x1="571" x2="805" y1="795" y2="795"/><text fill="#000000" font-family="sans-serif" font-size="11" lengthAdjust="spacing" textLength="75" x="576" y="809.2104">-employeeID</text><text fill="#000000" font-family="sans-serif" font-size="11" lengthAdjust="spacing" textLength="99" x="576" y="822.0151">-organizationRole</text><text fill="#000000" font-family="sans-serif" font-size="11" lengthAdjust="spacing" textLength="37" x="576" y="834.8198">-name</text><text fill="#000000" font-family="sans-serif" font-size="11" lengthAdjust="spacing" textLength="49" x="576" y="847.6245">-address</text><text fill="#000000" font-family="sans-serif" font-size="11" lengthAdjust="spacing" textLength="85" x="576" y="860.4292">-phoneNumber</text><text fill="#000000" font-family="sans-serif" font-size="11" lengthAdjust="spacing" textLength="34" x="576" y="873.2339">-eMail</text><text fill="#000000" font-family="sans-serif" font-size="11" lengthAdjust="spacing" textLength="224" x="576" y="886.0386">-standardOcupationalClassificationCode</text><line style="stroke:#A80036;stroke-width:1.5;" x1="571" x2="805" y1="892.6328" y2="892.6328"/><!--MD5=[9681492165142af2a4a3a169d90ee8d4]
class Sample--><rect codeLine="37" fill="#FEFECE" filter="url(#fg73ue65g8rum)" height="73.6094" id="Sample" style="stroke:#A80036;stroke-width:1.5;" width="77" x="592.5" y="196"/><ellipse cx="607.5" cy="212" fill="#ADD1B2" rx="11" ry="11" style="stroke:#A80036;stroke-width:1.0;"/><path d="M609.8438,207.6719 C608.9063,207.2344 608.3125,207.0938 607.4375,207.0938 C604.8125,207.0938 602.8125,209.1719 602.8125,211.8906 L602.8125,213.0156 C602.8125,215.5938 604.9219,217.4844 607.8125,217.4844 C609.0313,217.4844 610.1875,217.1875 610.9375,216.6406 C611.5156,216.2344 611.8438,215.7813 611.8438,215.3906 C611.8438,214.9375 611.4531,214.5469 610.9844,214.5469 C610.7656,214.5469 610.5625,214.625 610.375,214.8125 C609.9219,215.2969 609.9219,215.2969 609.7344,215.3906 C609.3125,215.6563 608.625,215.7813 607.8594,215.7813 C605.8125,215.7813 604.5156,214.6875 604.5156,212.9844 L604.5156,211.8906 C604.5156,210.1094 605.7656,208.7969 607.5,208.7969 C608.0781,208.7969 608.6875,208.9531 609.1563,209.2031 C609.6406,209.4844 609.8125,209.7031 609.9063,210.1094 C609.9688,210.5156 610,210.6406 610.1406,210.7656 C610.2813,210.9063 610.5156,211.0156 610.7344,211.0156 C611,211.0156 611.2656,210.875 611.4375,210.6563 C611.5469,210.5 611.5781,210.3125 611.5781,209.8906 L611.5781,208.4688 C611.5781,208.0313 611.5625,207.9063 611.4688,207.75 C611.3125,207.4844 611.0313,207.3438 610.7344,207.3438 C610.4375,207.3438 610.2344,207.4375 610.0156,207.75 L609.8438,207.6719 Z " fill="#000000"/><text fill="#000000" font-family="sans-serif" font-size="12" lengthAdjust="spacing" textLength="45" x="621.5" y="216.1543">Sample</text><line style="stroke:#A80036;stroke-width:1.5;" x1="593.5" x2="668.5" y1="228" y2="228"/><text fill="#000000" font-family="sans-serif" font-size="11" lengthAdjust="spacing" textLength="54" x="598.5" y="242.2104">-category</text><text fill="#000000" font-family="sans-serif" font-size="11" lengthAdjust="spacing" textLength="58" x="598.5" y="255.0151">-sampleID</text><line style="stroke:#A80036;stroke-width:1.5;" x1="593.5" x2="668.5" y1="261.6094" y2="261.6094"/><!--MD5=[da547346deef918ea16944ba046651ef]
class Administrator--><rect codeLine="41" fill="#FEFECE" filter="url(#fg73ue65g8rum)" height="137.6328" id="Administrator" style="stroke:#A80036;stroke-width:1.5;" width="236" x="111" y="1218"/><ellipse cx="184.75" cy="1234" fill="#ADD1B2" rx="11" ry="11" style="stroke:#A80036;stroke-width:1.0;"/><path d="M187.0938,1229.6719 C186.1563,1229.2344 185.5625,1229.0938 184.6875,1229.0938 C182.0625,1229.0938 180.0625,1231.1719 180.0625,1233.8906 L180.0625,1235.0156 C180.0625,1237.5938 182.1719,1239.4844 185.0625,1239.4844 C186.2813,1239.4844 187.4375,1239.1875 188.1875,1238.6406 C188.7656,1238.2344 189.0938,1237.7813 189.0938,1237.3906 C189.0938,1236.9375 188.7031,1236.5469 188.2344,1236.5469 C188.0156,1236.5469 187.8125,1236.625 187.625,1236.8125 C187.1719,1237.2969 187.1719,1237.2969 186.9844,1237.3906 C186.5625,1237.6563 185.875,1237.7813 185.1094,1237.7813 C183.0625,1237.7813 181.7656,1236.6875 181.7656,1234.9844 L181.7656,1233.8906 C181.7656,1232.1094 183.0156,1230.7969 184.75,1230.7969 C185.3281,1230.7969 185.9375,1230.9531 186.4063,1231.2031 C186.8906,1231.4844 187.0625,1231.7031 187.1563,1232.1094 C187.2188,1232.5156 187.25,1232.6406 187.3906,1232.7656 C187.5313,1232.9063 187.7656,1233.0156 187.9844,1233.0156 C188.25,1233.0156 188.5156,1232.875 188.6875,1232.6563 C188.7969,1232.5 188.8281,1232.3125 188.8281,1231.8906 L188.8281,1230.4688 C188.8281,1230.0313 188.8125,1229.9063 188.7188,1229.75 C188.5625,1229.4844 188.2813,1229.3438 187.9844,1229.3438 C187.6875,1229.3438 187.4844,1229.4375 187.2656,1229.75 L187.0938,1229.6719 Z " fill="#000000"/><text fill="#000000" font-family="sans-serif" font-size="12" lengthAdjust="spacing" textLength="80" x="205.25" y="1238.1543">Administrator</text><line style="stroke:#A80036;stroke-width:1.5;" x1="112" x2="346" y1="1250" y2="1250"/><text fill="#000000" font-family="sans-serif" font-size="11" lengthAdjust="spacing" textLength="75" x="117" y="1264.2104">-employeeID</text><text fill="#000000" font-family="sans-serif" font-size="11" lengthAdjust="spacing" textLength="99" x="117" y="1277.0151">-organizationRole</text><text fill="#000000" font-family="sans-serif" font-size="11" lengthAdjust="spacing" textLength="37" x="117" y="1289.8198">-name</text><text fill="#000000" font-family="sans-serif" font-size="11" lengthAdjust="spacing" textLength="49" x="117" y="1302.6245">-address</text><text fill="#000000" font-family="sans-serif" font-size="11" lengthAdjust="spacing" textLength="85" x="117" y="1315.4292">-phoneNumber</text><text fill="#000000" font-family="sans-serif" font-size="11" lengthAdjust="spacing" textLength="34" x="117" y="1328.2339">-eMail</text><text fill="#000000" font-family="sans-serif" font-size="11" lengthAdjust="spacing" textLength="224" x="117" y="1341.0386">-standardOcupationalClassificationCode</text><line style="stroke:#A80036;stroke-width:1.5;" x1="112" x2="346" y1="1347.6328" y2="1347.6328"/><!--MD5=[01931d41e78f8996acd44f6f0fd8de28]
class MedicalLabTechnician--><rect codeLine="50" fill="#FEFECE" filter="url(#fg73ue65g8rum)" height="137.6328" id="MedicalLabTechnician" style="stroke:#A80036;stroke-width:1.5;" width="236" x="370" y="542"/><ellipse cx="418.75" cy="558" fill="#ADD1B2" rx="11" ry="11" style="stroke:#A80036;stroke-width:1.0;"/><path d="M421.0938,553.6719 C420.1563,553.2344 419.5625,553.0938 418.6875,553.0938 C416.0625,553.0938 414.0625,555.1719 414.0625,557.8906 L414.0625,559.0156 C414.0625,561.5938 416.1719,563.4844 419.0625,563.4844 C420.2813,563.4844 421.4375,563.1875 422.1875,562.6406 C422.7656,562.2344 423.0938,561.7813 423.0938,561.3906 C423.0938,560.9375 422.7031,560.5469 422.2344,560.5469 C422.0156,560.5469 421.8125,560.625 421.625,560.8125 C421.1719,561.2969 421.1719,561.2969 420.9844,561.3906 C420.5625,561.6563 419.875,561.7813 419.1094,561.7813 C417.0625,561.7813 415.7656,560.6875 415.7656,558.9844 L415.7656,557.8906 C415.7656,556.1094 417.0156,554.7969 418.75,554.7969 C419.3281,554.7969 419.9375,554.9531 420.4063,555.2031 C420.8906,555.4844 421.0625,555.7031 421.1563,556.1094 C421.2188,556.5156 421.25,556.6406 421.3906,556.7656 C421.5313,556.9063 421.7656,557.0156 421.9844,557.0156 C422.25,557.0156 422.5156,556.875 422.6875,556.6563 C422.7969,556.5 422.8281,556.3125 422.8281,555.8906 L422.8281,554.4688 C422.8281,554.0313 422.8125,553.9063 422.7188,553.75 C422.5625,553.4844 422.2813,553.3438 421.9844,553.3438 C421.6875,553.3438 421.4844,553.4375 421.2656,553.75 L421.0938,553.6719 Z " fill="#000000"/><text fill="#000000" font-family="sans-serif" font-size="12" lengthAdjust="spacing" textLength="130" x="439.25" y="562.1543">MedicalLabTechnician</text><line style="stroke:#A80036;stroke-width:1.5;" x1="371" x2="605" y1="574" y2="574"/><text fill="#000000" font-family="sans-serif" font-size="11" lengthAdjust="spacing" textLength="75" x="376" y="588.2104">-employeeID</text><text fill="#000000" font-family="sans-serif" font-size="11" lengthAdjust="spacing" textLength="99" x="376" y="601.0151">-organizationRole</text><text fill="#000000" font-family="sans-serif" font-size="11" lengthAdjust="spacing" textLength="37" x="376" y="613.8198">-name</text><text fill="#000000" font-family="sans-serif" font-size="11" lengthAdjust="spacing" textLength="49" x="376" y="626.6245">-address</text><text fill="#000000" font-family="sans-serif" font-size="11" lengthAdjust="spacing" textLength="85" x="376" y="639.4292">-phoneNumber</text><text fill="#000000" font-family="sans-serif" font-size="11" lengthAdjust="spacing" textLength="34" x="376" y="652.2339">-eMail</text><text fill="#000000" font-family="sans-serif" font-size="11" lengthAdjust="spacing" textLength="224" x="376" y="665.0386">-standardOcupationalClassificationCode</text><line style="stroke:#A80036;stroke-width:1.5;" x1="371" x2="605" y1="671.6328" y2="671.6328"/><!--MD5=[36afb6bbd95a8ac778c4537c55a683d5]
class ParameterCategory--><rect codeLine="59" fill="#FEFECE" filter="url(#fg73ue65g8rum)" height="73.6094" id="ParameterCategory" style="stroke:#A80036;stroke-width:1.5;" width="148" x="7" y="1022.5"/><ellipse cx="22" cy="1038.5" fill="#ADD1B2" rx="11" ry="11" style="stroke:#A80036;stroke-width:1.0;"/><path d="M24.3438,1034.1719 C23.4063,1033.7344 22.8125,1033.5938 21.9375,1033.5938 C19.3125,1033.5938 17.3125,1035.6719 17.3125,1038.3906 L17.3125,1039.5156 C17.3125,1042.0938 19.4219,1043.9844 22.3125,1043.9844 C23.5313,1043.9844 24.6875,1043.6875 25.4375,1043.1406 C26.0156,1042.7344 26.3438,1042.2813 26.3438,1041.8906 C26.3438,1041.4375 25.9531,1041.0469 25.4844,1041.0469 C25.2656,1041.0469 25.0625,1041.125 24.875,1041.3125 C24.4219,1041.7969 24.4219,1041.7969 24.2344,1041.8906 C23.8125,1042.1563 23.125,1042.2813 22.3594,1042.2813 C20.3125,1042.2813 19.0156,1041.1875 19.0156,1039.4844 L19.0156,1038.3906 C19.0156,1036.6094 20.2656,1035.2969 22,1035.2969 C22.5781,1035.2969 23.1875,1035.4531 23.6563,1035.7031 C24.1406,1035.9844 24.3125,1036.2031 24.4063,1036.6094 C24.4688,1037.0156 24.5,1037.1406 24.6406,1037.2656 C24.7813,1037.4063 25.0156,1037.5156 25.2344,1037.5156 C25.5,1037.5156 25.7656,1037.375 25.9375,1037.1563 C26.0469,1037 26.0781,1036.8125 26.0781,1036.3906 L26.0781,1034.9688 C26.0781,1034.5313 26.0625,1034.4063 25.9688,1034.25 C25.8125,1033.9844 25.5313,1033.8438 25.2344,1033.8438 C24.9375,1033.8438 24.7344,1033.9375 24.5156,1034.25 L24.3438,1034.1719 Z " fill="#000000"/><text fill="#000000" font-family="sans-serif" font-size="12" lengthAdjust="spacing" textLength="116" x="36" y="1042.6543">ParameterCategory</text><line style="stroke:#A80036;stroke-width:1.5;" x1="8" x2="154" y1="1054.5" y2="1054.5"/><text fill="#000000" font-family="sans-serif" font-size="11" lengthAdjust="spacing" textLength="37" x="13" y="1068.7104">-name</text><text fill="#000000" font-family="sans-serif" font-size="11" lengthAdjust="spacing" textLength="32" x="13" y="1081.5151">-code</text><line style="stroke:#A80036;stroke-width:1.5;" x1="8" x2="154" y1="1088.1094" y2="1088.1094"/><!--MD5=[1f6362a5c8f21d8d6a0fce68f3a92a4e]
class Parameter--><rect codeLine="63" fill="#FEFECE" filter="url(#fg73ue65g8rum)" height="86.4141" id="Parameter" style="stroke:#A80036;stroke-width:1.5;" width="93" x="82.5" y="789"/><ellipse cx="97.5" cy="805" fill="#ADD1B2" rx="11" ry="11" style="stroke:#A80036;stroke-width:1.0;"/><path d="M99.8438,800.6719 C98.9063,800.2344 98.3125,800.0938 97.4375,800.0938 C94.8125,800.0938 92.8125,802.1719 92.8125,804.8906 L92.8125,806.0156 C92.8125,808.5938 94.9219,810.4844 97.8125,810.4844 C99.0313,810.4844 100.1875,810.1875 100.9375,809.6406 C101.5156,809.2344 101.8438,808.7813 101.8438,808.3906 C101.8438,807.9375 101.4531,807.5469 100.9844,807.5469 C100.7656,807.5469 100.5625,807.625 100.375,807.8125 C99.9219,808.2969 99.9219,808.2969 99.7344,808.3906 C99.3125,808.6563 98.625,808.7813 97.8594,808.7813 C95.8125,808.7813 94.5156,807.6875 94.5156,805.9844 L94.5156,804.8906 C94.5156,803.1094 95.7656,801.7969 97.5,801.7969 C98.0781,801.7969 98.6875,801.9531 99.1563,802.2031 C99.6406,802.4844 99.8125,802.7031 99.9063,803.1094 C99.9688,803.5156 100,803.6406 100.1406,803.7656 C100.2813,803.9063 100.5156,804.0156 100.7344,804.0156 C101,804.0156 101.2656,803.875 101.4375,803.6563 C101.5469,803.5 101.5781,803.3125 101.5781,802.8906 L101.5781,801.4688 C101.5781,801.0313 101.5625,800.9063 101.4688,800.75 C101.3125,800.4844 101.0313,800.3438 100.7344,800.3438 C100.4375,800.3438 100.2344,800.4375 100.0156,800.75 L99.8438,800.6719 Z " fill="#000000"/><text fill="#000000" font-family="sans-serif" font-size="12" lengthAdjust="spacing" textLength="61" x="111.5" y="809.1543">Parameter</text><line style="stroke:#A80036;stroke-width:1.5;" x1="83.5" x2="174.5" y1="821" y2="821"/><text fill="#000000" font-family="sans-serif" font-size="11" lengthAdjust="spacing" textLength="32" x="88.5" y="835.2104">-code</text><text fill="#000000" font-family="sans-serif" font-size="11" lengthAdjust="spacing" textLength="65" x="88.5" y="848.0151">-shortname</text><text fill="#000000" font-family="sans-serif" font-size="11" lengthAdjust="spacing" textLength="66" x="88.5" y="860.8198">-description</text><line style="stroke:#A80036;stroke-width:1.5;" x1="83.5" x2="174.5" y1="867.4141" y2="867.4141"/><!--MD5=[371a79cf93e6b0f3b7c16edd206e96ed]
class ClinicalChemistTechnologist--><rect codeLine="68" fill="#FEFECE" filter="url(#fg73ue65g8rum)" height="137.6328" id="ClinicalChemistTechnologist" style="stroke:#A80036;stroke-width:1.5;" width="236" x="1291" y="1433"/><ellipse cx="1323.1" cy="1449" fill="#ADD1B2" rx="11" ry="11" style="stroke:#A80036;stroke-width:1.0;"/><path d="M1325.4438,1444.6719 C1324.5063,1444.2344 1323.9125,1444.0938 1323.0375,1444.0938 C1320.4125,1444.0938 1318.4125,1446.1719 1318.4125,1448.8906 L1318.4125,1450.0156 C1318.4125,1452.5938 1320.5219,1454.4844 1323.4125,1454.4844 C1324.6313,1454.4844 1325.7875,1454.1875 1326.5375,1453.6406 C1327.1156,1453.2344 1327.4438,1452.7813 1327.4438,1452.3906 C1327.4438,1451.9375 1327.0531,1451.5469 1326.5844,1451.5469 C1326.3656,1451.5469 1326.1625,1451.625 1325.975,1451.8125 C1325.5219,1452.2969 1325.5219,1452.2969 1325.3344,1452.3906 C1324.9125,1452.6563 1324.225,1452.7813 1323.4594,1452.7813 C1321.4125,1452.7813 1320.1156,1451.6875 1320.1156,1449.9844 L1320.1156,1448.8906 C1320.1156,1447.1094 1321.3656,1445.7969 1323.1,1445.7969 C1323.6781,1445.7969 1324.2875,1445.9531 1324.7563,1446.2031 C1325.2406,1446.4844 1325.4125,1446.7031 1325.5063,1447.1094 C1325.5688,1447.5156 1325.6,1447.6406 1325.7406,1447.7656 C1325.8813,1447.9063 1326.1156,1448.0156 1326.3344,1448.0156 C1326.6,1448.0156 1326.8656,1447.875 1327.0375,1447.6563 C1327.1469,1447.5 1327.1781,1447.3125 1327.1781,1446.8906 L1327.1781,1445.4688 C1327.1781,1445.0313 1327.1625,1444.9063 1327.0688,1444.75 C1326.9125,1444.4844 1326.6313,1444.3438 1326.3344,1444.3438 C1326.0375,1444.3438 1325.8344,1444.4375 1325.6156,1444.75 L1325.4438,1444.6719 Z " fill="#000000"/><text fill="#000000" font-family="sans-serif" font-size="12" lengthAdjust="spacing" textLength="166" x="1340.9" y="1453.1543">ClinicalChemistTechnologist</text><line style="stroke:#A80036;stroke-width:1.5;" x1="1292" x2="1526" y1="1465" y2="1465"/><text fill="#000000" font-family="sans-serif" font-size="11" lengthAdjust="spacing" textLength="75" x="1297" y="1479.2104">-employeeID</text><text fill="#000000" font-family="sans-serif" font-size="11" lengthAdjust="spacing" textLength="99" x="1297" y="1492.0151">-organizationRole</text><text fill="#000000" font-family="sans-serif" font-size="11" lengthAdjust="spacing" textLength="37" x="1297" y="1504.8198">-name</text><text fill="#000000" font-family="sans-serif" font-size="11" lengthAdjust="spacing" textLength="49" x="1297" y="1517.6245">-address</text><text fill="#000000" font-family="sans-serif" font-size="11" lengthAdjust="spacing" textLength="85" x="1297" y="1530.4292">-phoneNumber</text><text fill="#000000" font-family="sans-serif" font-size="11" lengthAdjust="spacing" textLength="34" x="1297" y="1543.2339">-eMail</text><text fill="#000000" font-family="sans-serif" font-size="11" lengthAdjust="spacing" textLength="224" x="1297" y="1556.0386">-standardOcupationalClassificationCode</text><line style="stroke:#A80036;stroke-width:1.5;" x1="1292" x2="1526" y1="1562.6328" y2="1562.6328"/><!--MD5=[7d96fd15f3014691d2fcaf89c5791e2a]
class SpecialistDoctor--><rect codeLine="77" fill="#FEFECE" filter="url(#fg73ue65g8rum)" height="137.6328" id="SpecialistDoctor" style="stroke:#A80036;stroke-width:1.5;" width="236" x="809" y="1648"/><ellipse cx="873.25" cy="1664" fill="#ADD1B2" rx="11" ry="11" style="stroke:#A80036;stroke-width:1.0;"/><path d="M875.5938,1659.6719 C874.6563,1659.2344 874.0625,1659.0938 873.1875,1659.0938 C870.5625,1659.0938 868.5625,1661.1719 868.5625,1663.8906 L868.5625,1665.0156 C868.5625,1667.5938 870.6719,1669.4844 873.5625,1669.4844 C874.7813,1669.4844 875.9375,1669.1875 876.6875,1668.6406 C877.2656,1668.2344 877.5938,1667.7813 877.5938,1667.3906 C877.5938,1666.9375 877.2031,1666.5469 876.7344,1666.5469 C876.5156,1666.5469 876.3125,1666.625 876.125,1666.8125 C875.6719,1667.2969 875.6719,1667.2969 875.4844,1667.3906 C875.0625,1667.6563 874.375,1667.7813 873.6094,1667.7813 C871.5625,1667.7813 870.2656,1666.6875 870.2656,1664.9844 L870.2656,1663.8906 C870.2656,1662.1094 871.5156,1660.7969 873.25,1660.7969 C873.8281,1660.7969 874.4375,1660.9531 874.9063,1661.2031 C875.3906,1661.4844 875.5625,1661.7031 875.6563,1662.1094 C875.7188,1662.5156 875.75,1662.6406 875.8906,1662.7656 C876.0313,1662.9063 876.2656,1663.0156 876.4844,1663.0156 C876.75,1663.0156 877.0156,1662.875 877.1875,1662.6563 C877.2969,1662.5 877.3281,1662.3125 877.3281,1661.8906 L877.3281,1660.4688 C877.3281,1660.0313 877.3125,1659.9063 877.2188,1659.75 C877.0625,1659.4844 876.7813,1659.3438 876.4844,1659.3438 C876.1875,1659.3438 875.9844,1659.4375 875.7656,1659.75 L875.5938,1659.6719 Z " fill="#000000"/><text fill="#000000" font-family="sans-serif" font-size="12" lengthAdjust="spacing" textLength="99" x="893.75" y="1668.1543">SpecialistDoctor</text><line style="stroke:#A80036;stroke-width:1.5;" x1="810" x2="1044" y1="1680" y2="1680"/><text fill="#000000" font-family="sans-serif" font-size="11" lengthAdjust="spacing" textLength="75" x="815" y="1694.2104">-employeeID</text><text fill="#000000" font-family="sans-serif" font-size="11" lengthAdjust="spacing" textLength="99" x="815" y="1707.0151">-organizationRole</text><text fill="#000000" font-family="sans-serif" font-size="11" lengthAdjust="spacing" textLength="37" x="815" y="1719.8198">-name</text><text fill="#000000" font-family="sans-serif" font-size="11" lengthAdjust="spacing" textLength="49" x="815" y="1732.6245">-address</text><text fill="#000000" font-family="sans-serif" font-size="11" lengthAdjust="spacing" textLength="85" x="815" y="1745.4292">-phoneNumber</text><text fill="#000000" font-family="sans-serif" font-size="11" lengthAdjust="spacing" textLength="34" x="815" y="1758.2339">-eMail</text><text fill="#000000" font-family="sans-serif" font-size="11" lengthAdjust="spacing" textLength="224" x="815" y="1771.0386">-standardOcupationalClassificationCode</text><line style="stroke:#A80036;stroke-width:1.5;" x1="810" x2="1044" y1="1777.6328" y2="1777.6328"/><!--MD5=[052425de1c0eb6cc1c1b48342b0bb88f]
class LaboratoryCoordinator--><rect codeLine="86" fill="#FEFECE" filter="url(#fg73ue65g8rum)" height="137.6328" id="LaboratoryCoordinator" style="stroke:#A80036;stroke-width:1.5;" width="236" x="974" y="990.5"/><ellipse cx="1019.75" cy="1006.5" fill="#ADD1B2" rx="11" ry="11" style="stroke:#A80036;stroke-width:1.0;"/><path d="M1022.0938,1002.1719 C1021.1563,1001.7344 1020.5625,1001.5938 1019.6875,1001.5938 C1017.0625,1001.5938 1015.0625,1003.6719 1015.0625,1006.3906 L1015.0625,1007.5156 C1015.0625,1010.0938 1017.1719,1011.9844 1020.0625,1011.9844 C1021.2813,1011.9844 1022.4375,1011.6875 1023.1875,1011.1406 C1023.7656,1010.7344 1024.0938,1010.2813 1024.0938,1009.8906 C1024.0938,1009.4375 1023.7031,1009.0469 1023.2344,1009.0469 C1023.0156,1009.0469 1022.8125,1009.125 1022.625,1009.3125 C1022.1719,1009.7969 1022.1719,1009.7969 1021.9844,1009.8906 C1021.5625,1010.1563 1020.875,1010.2813 1020.1094,1010.2813 C1018.0625,1010.2813 1016.7656,1009.1875 1016.7656,1007.4844 L1016.7656,1006.3906 C1016.7656,1004.6094 1018.0156,1003.2969 1019.75,1003.2969 C1020.3281,1003.2969 1020.9375,1003.4531 1021.4063,1003.7031 C1021.8906,1003.9844 1022.0625,1004.2031 1022.1563,1004.6094 C1022.2188,1005.0156 1022.25,1005.1406 1022.3906,1005.2656 C1022.5313,1005.4063 1022.7656,1005.5156 1022.9844,1005.5156 C1023.25,1005.5156 1023.5156,1005.375 1023.6875,1005.1563 C1023.7969,1005 1023.8281,1004.8125 1023.8281,1004.3906 L1023.8281,1002.9688 C1023.8281,1002.5313 1023.8125,1002.4063 1023.7188,1002.25 C1023.5625,1001.9844 1023.2813,1001.8438 1022.9844,1001.8438 C1022.6875,1001.8438 1022.4844,1001.9375 1022.2656,1002.25 L1022.0938,1002.1719 Z " fill="#000000"/><text fill="#000000" font-family="sans-serif" font-size="12" lengthAdjust="spacing" textLength="136" x="1040.25" y="1010.6543">LaboratoryCoordinator</text><line style="stroke:#A80036;stroke-width:1.5;" x1="975" x2="1209" y1="1022.5" y2="1022.5"/><text fill="#000000" font-family="sans-serif" font-size="11" lengthAdjust="spacing" textLength="75" x="980" y="1036.7104">-employeeID</text><text fill="#000000" font-family="sans-serif" font-size="11" lengthAdjust="spacing" textLength="99" x="980" y="1049.5151">-organizationRole</text><text fill="#000000" font-family="sans-serif" font-size="11" lengthAdjust="spacing" textLength="37" x="980" y="1062.3198">-name</text><text fill="#000000" font-family="sans-serif" font-size="11" lengthAdjust="spacing" textLength="49" x="980" y="1075.1245">-address</text><text fill="#000000" font-family="sans-serif" font-size="11" lengthAdjust="spacing" textLength="85" x="980" y="1087.9292">-phoneNumber</text><text fill="#000000" font-family="sans-serif" font-size="11" lengthAdjust="spacing" textLength="34" x="980" y="1100.7339">-eMail</text><text fill="#000000" font-family="sans-serif" font-size="11" lengthAdjust="spacing" textLength="224" x="980" y="1113.5386">-standardOcupationalClassificationCode</text><line style="stroke:#A80036;stroke-width:1.5;" x1="975" x2="1209" y1="1120.1328" y2="1120.1328"/><!--MD5=[86b2982ced9a310f9b4ad491674c42e1]
class ResultsValidation--><rect codeLine="95" fill="#FEFECE" filter="url(#fg73ue65g8rum)" height="60.8047" id="ResultsValidation" style="stroke:#A80036;stroke-width:1.5;" width="137" x="775.5" y="1471.5"/><ellipse cx="792.3" cy="1487.5" fill="#ADD1B2" rx="11" ry="11" style="stroke:#A80036;stroke-width:1.0;"/><path d="M794.6438,1483.1719 C793.7063,1482.7344 793.1125,1482.5938 792.2375,1482.5938 C789.6125,1482.5938 787.6125,1484.6719 787.6125,1487.3906 L787.6125,1488.5156 C787.6125,1491.0938 789.7219,1492.9844 792.6125,1492.9844 C793.8313,1492.9844 794.9875,1492.6875 795.7375,1492.1406 C796.3156,1491.7344 796.6438,1491.2813 796.6438,1490.8906 C796.6438,1490.4375 796.2531,1490.0469 795.7844,1490.0469 C795.5656,1490.0469 795.3625,1490.125 795.175,1490.3125 C794.7219,1490.7969 794.7219,1490.7969 794.5344,1490.8906 C794.1125,1491.1563 793.425,1491.2813 792.6594,1491.2813 C790.6125,1491.2813 789.3156,1490.1875 789.3156,1488.4844 L789.3156,1487.3906 C789.3156,1485.6094 790.5656,1484.2969 792.3,1484.2969 C792.8781,1484.2969 793.4875,1484.4531 793.9563,1484.7031 C794.4406,1484.9844 794.6125,1485.2031 794.7063,1485.6094 C794.7688,1486.0156 794.8,1486.1406 794.9406,1486.2656 C795.0813,1486.4063 795.3156,1486.5156 795.5344,1486.5156 C795.8,1486.5156 796.0656,1486.375 796.2375,1486.1563 C796.3469,1486 796.3781,1485.8125 796.3781,1485.3906 L796.3781,1483.9688 C796.3781,1483.5313 796.3625,1483.4063 796.2688,1483.25 C796.1125,1482.9844 795.8313,1482.8438 795.5344,1482.8438 C795.2375,1482.8438 795.0344,1482.9375 794.8156,1483.25 L794.6438,1483.1719 Z " fill="#000000"/><text fill="#000000" font-family="sans-serif" font-size="12" lengthAdjust="spacing" textLength="101" x="806.7" y="1491.6543">ResultsValidation</text><line style="stroke:#A80036;stroke-width:1.5;" x1="776.5" x2="911.5" y1="1503.5" y2="1503.5"/><text fill="#000000" font-family="sans-serif" font-size="11" lengthAdjust="spacing" textLength="125" x="781.5" y="1517.7104">-testReferenceValues</text><line style="stroke:#A80036;stroke-width:1.5;" x1="776.5" x2="911.5" y1="1524.3047" y2="1524.3047"/><!--MD5=[a999c1570c205a2156b04a15307bc1ff]
class LabOrder--><rect codeLine="98" fill="#FEFECE" filter="url(#fg73ue65g8rum)" height="73.6094" id="LabOrder" style="stroke:#A80036;stroke-width:1.5;" width="89" x="827.5" y="366"/><ellipse cx="842.5" cy="382" fill="#ADD1B2" rx="11" ry="11" style="stroke:#A80036;stroke-width:1.0;"/><path d="M844.8438,377.6719 C843.9063,377.2344 843.3125,377.0938 842.4375,377.0938 C839.8125,377.0938 837.8125,379.1719 837.8125,381.8906 L837.8125,383.0156 C837.8125,385.5938 839.9219,387.4844 842.8125,387.4844 C844.0313,387.4844 845.1875,387.1875 845.9375,386.6406 C846.5156,386.2344 846.8438,385.7813 846.8438,385.3906 C846.8438,384.9375 846.4531,384.5469 845.9844,384.5469 C845.7656,384.5469 845.5625,384.625 845.375,384.8125 C844.9219,385.2969 844.9219,385.2969 844.7344,385.3906 C844.3125,385.6563 843.625,385.7813 842.8594,385.7813 C840.8125,385.7813 839.5156,384.6875 839.5156,382.9844 L839.5156,381.8906 C839.5156,380.1094 840.7656,378.7969 842.5,378.7969 C843.0781,378.7969 843.6875,378.9531 844.1563,379.2031 C844.6406,379.4844 844.8125,379.7031 844.9063,380.1094 C844.9688,380.5156 845,380.6406 845.1406,380.7656 C845.2813,380.9063 845.5156,381.0156 845.7344,381.0156 C846,381.0156 846.2656,380.875 846.4375,380.6563 C846.5469,380.5 846.5781,380.3125 846.5781,379.8906 L846.5781,378.4688 C846.5781,378.0313 846.5625,377.9063 846.4688,377.75 C846.3125,377.4844 846.0313,377.3438 845.7344,377.3438 C845.4375,377.3438 845.2344,377.4375 845.0156,377.75 L844.8438,377.6719 Z " fill="#000000"/><text fill="#000000" font-family="sans-serif" font-size="12" lengthAdjust="spacing" textLength="57" x="856.5" y="386.1543">LabOrder</text><line style="stroke:#A80036;stroke-width:1.5;" x1="828.5" x2="915.5" y1="398" y2="398"/><text fill="#000000" font-family="sans-serif" font-size="11" lengthAdjust="spacing" textLength="68" x="833.5" y="412.2104">-typeOfTest</text><text fill="#000000" font-family="sans-serif" font-size="11" lengthAdjust="spacing" textLength="70" x="833.5" y="425.0151">-parameters</text><line style="stroke:#A80036;stroke-width:1.5;" x1="828.5" x2="915.5" y1="431.6094" y2="431.6094"/><!--MD5=[f00dbe8c0302c6aec2cb26b3c659c8fc]
class Report--><rect codeLine="102" fill="#FEFECE" filter="url(#fg73ue65g8rum)" height="60.8047" id="Report" style="stroke:#A80036;stroke-width:1.5;" width="83" x="841.5" y="801.5"/><ellipse cx="861.45" cy="817.5" fill="#ADD1B2" rx="11" ry="11" style="stroke:#A80036;stroke-width:1.0;"/><path d="M863.7938,813.1719 C862.8563,812.7344 862.2625,812.5938 861.3875,812.5938 C858.7625,812.5938 856.7625,814.6719 856.7625,817.3906 L856.7625,818.5156 C856.7625,821.0938 858.8719,822.9844 861.7625,822.9844 C862.9813,822.9844 864.1375,822.6875 864.8875,822.1406 C865.4656,821.7344 865.7938,821.2813 865.7938,820.8906 C865.7938,820.4375 865.4031,820.0469 864.9344,820.0469 C864.7156,820.0469 864.5125,820.125 864.325,820.3125 C863.8719,820.7969 863.8719,820.7969 863.6844,820.8906 C863.2625,821.1563 862.575,821.2813 861.8094,821.2813 C859.7625,821.2813 858.4656,820.1875 858.4656,818.4844 L858.4656,817.3906 C858.4656,815.6094 859.7156,814.2969 861.45,814.2969 C862.0281,814.2969 862.6375,814.4531 863.1063,814.7031 C863.5906,814.9844 863.7625,815.2031 863.8563,815.6094 C863.9188,816.0156 863.95,816.1406 864.0906,816.2656 C864.2313,816.4063 864.4656,816.5156 864.6844,816.5156 C864.95,816.5156 865.2156,816.375 865.3875,816.1563 C865.4969,816 865.5281,815.8125 865.5281,815.3906 L865.5281,813.9688 C865.5281,813.5313 865.5125,813.4063 865.4188,813.25 C865.2625,812.9844 864.9813,812.8438 864.6844,812.8438 C864.3875,812.8438 864.1844,812.9375 863.9656,813.25 L863.7938,813.1719 Z " fill="#000000"/><text fill="#000000" font-family="sans-serif" font-size="12" lengthAdjust="spacing" textLength="40" x="876.55" y="821.6543">Report</text><line style="stroke:#A80036;stroke-width:1.5;" x1="842.5" x2="923.5" y1="833.5" y2="833.5"/><text fill="#000000" font-family="sans-serif" font-size="11" lengthAdjust="spacing" textLength="71" x="847.5" y="847.7104">-bodyOfText</text><line style="stroke:#A80036;stroke-width:1.5;" x1="842.5" x2="923.5" y1="854.3047" y2="854.3047"/><!--MD5=[f7818c679476ac0017dcae1dd49d4d3d]
class TestResultList--><rect codeLine="105" fill="#FEFECE" filter="url(#fg73ue65g8rum)" height="99.2188" id="TestResultList" style="stroke:#A80036;stroke-width:1.5;" width="157" x="1184.5" y="782.5"/><ellipse cx="1218.85" cy="798.5" fill="#ADD1B2" rx="11" ry="11" style="stroke:#A80036;stroke-width:1.0;"/><path d="M1221.1938,794.1719 C1220.2563,793.7344 1219.6625,793.5938 1218.7875,793.5938 C1216.1625,793.5938 1214.1625,795.6719 1214.1625,798.3906 L1214.1625,799.5156 C1214.1625,802.0938 1216.2719,803.9844 1219.1625,803.9844 C1220.3813,803.9844 1221.5375,803.6875 1222.2875,803.1406 C1222.8656,802.7344 1223.1938,802.2813 1223.1938,801.8906 C1223.1938,801.4375 1222.8031,801.0469 1222.3344,801.0469 C1222.1156,801.0469 1221.9125,801.125 1221.725,801.3125 C1221.2719,801.7969 1221.2719,801.7969 1221.0844,801.8906 C1220.6625,802.1563 1219.975,802.2813 1219.2094,802.2813 C1217.1625,802.2813 1215.8656,801.1875 1215.8656,799.4844 L1215.8656,798.3906 C1215.8656,796.6094 1217.1156,795.2969 1218.85,795.2969 C1219.4281,795.2969 1220.0375,795.4531 1220.5063,795.7031 C1220.9906,795.9844 1221.1625,796.2031 1221.2563,796.6094 C1221.3188,797.0156 1221.35,797.1406 1221.4906,797.2656 C1221.6313,797.4063 1221.8656,797.5156 1222.0844,797.5156 C1222.35,797.5156 1222.6156,797.375 1222.7875,797.1563 C1222.8969,797 1222.9281,796.8125 1222.9281,796.3906 L1222.9281,794.9688 C1222.9281,794.5313 1222.9125,794.4063 1222.8188,794.25 C1222.6625,793.9844 1222.3813,793.8438 1222.0844,793.8438 C1221.7875,793.8438 1221.5844,793.9375 1221.3656,794.25 L1221.1938,794.1719 Z " fill="#000000"/><text fill="#000000" font-family="sans-serif" font-size="12" lengthAdjust="spacing" textLength="82" x="1237.15" y="802.6543">TestResultList</text><line style="stroke:#A80036;stroke-width:1.5;" x1="1185.5" x2="1340.5" y1="814.5" y2="814.5"/><text fill="#000000" font-family="sans-serif" font-size="11" lengthAdjust="spacing" textLength="112" x="1190.5" y="828.7104">-listOfPositiveCases</text><text fill="#000000" font-family="sans-serif" font-size="11" lengthAdjust="spacing" textLength="120" x="1190.5" y="841.5151">-listOfNegativeCases</text><text fill="#000000" font-family="sans-serif" font-size="11" lengthAdjust="spacing" textLength="127" x="1190.5" y="854.3198">-sortingAlgorithmByTIF</text><text fill="#000000" font-family="sans-serif" font-size="11" lengthAdjust="spacing" textLength="145" x="1190.5" y="867.1245">-sortingAlgorithmByName</text><line style="stroke:#A80036;stroke-width:1.5;" x1="1185.5" x2="1340.5" y1="873.7188" y2="873.7188"/><!--MD5=[74783ec010d186752c4ffd5c6de5633a]
class NHSReport--><rect codeLine="111" fill="#FEFECE" filter="url(#fg73ue65g8rum)" height="163.2422" id="NHSReport" style="stroke:#A80036;stroke-width:1.5;" width="175" x="511.5" y="978"/><ellipse cx="562.25" cy="994" fill="#ADD1B2" rx="11" ry="11" style="stroke:#A80036;stroke-width:1.0;"/><path d="M564.5938,989.6719 C563.6563,989.2344 563.0625,989.0938 562.1875,989.0938 C559.5625,989.0938 557.5625,991.1719 557.5625,993.8906 L557.5625,995.0156 C557.5625,997.5938 559.6719,999.4844 562.5625,999.4844 C563.7813,999.4844 564.9375,999.1875 565.6875,998.6406 C566.2656,998.2344 566.5938,997.7813 566.5938,997.3906 C566.5938,996.9375 566.2031,996.5469 565.7344,996.5469 C565.5156,996.5469 565.3125,996.625 565.125,996.8125 C564.6719,997.2969 564.6719,997.2969 564.4844,997.3906 C564.0625,997.6563 563.375,997.7813 562.6094,997.7813 C560.5625,997.7813 559.2656,996.6875 559.2656,994.9844 L559.2656,993.8906 C559.2656,992.1094 560.5156,990.7969 562.25,990.7969 C562.8281,990.7969 563.4375,990.9531 563.9063,991.2031 C564.3906,991.4844 564.5625,991.7031 564.6563,992.1094 C564.7188,992.5156 564.75,992.6406 564.8906,992.7656 C565.0313,992.9063 565.2656,993.0156 565.4844,993.0156 C565.75,993.0156 566.0156,992.875 566.1875,992.6563 C566.2969,992.5 566.3281,992.3125 566.3281,991.8906 L566.3281,990.4688 C566.3281,990.0313 566.3125,989.9063 566.2188,989.75 C566.0625,989.4844 565.7813,989.3438 565.4844,989.3438 C565.1875,989.3438 564.9844,989.4375 564.7656,989.75 L564.5938,989.6719 Z " fill="#000000"/><text fill="#000000" font-family="sans-serif" font-size="12" lengthAdjust="spacing" textLength="65" x="582.75" y="998.1543">NHSReport</text><line style="stroke:#A80036;stroke-width:1.5;" x1="512.5" x2="685.5" y1="1010" y2="1010"/><text fill="#000000" font-family="sans-serif" font-size="11" lengthAdjust="spacing" textLength="155" x="517.5" y="1024.2104">-numberCovidTestsPositive</text><text fill="#000000" font-family="sans-serif" font-size="11" lengthAdjust="spacing" textLength="163" x="517.5" y="1037.0151">-numberCovidTestsNegative</text><text fill="#000000" font-family="sans-serif" font-size="11" lengthAdjust="spacing" textLength="106" x="517.5" y="1049.8198">-covidTestsPerDay</text><text fill="#000000" font-family="sans-serif" font-size="11" lengthAdjust="spacing" textLength="131" x="517.5" y="1062.6245">-positiveResultsPerDay</text><text fill="#000000" font-family="sans-serif" font-size="11" lengthAdjust="spacing" textLength="116" x="517.5" y="1075.4292">-covidTestsPerWeek</text><text fill="#000000" font-family="sans-serif" font-size="11" lengthAdjust="spacing" textLength="141" x="517.5" y="1088.2339">-positiveResultsPerWeek</text><text fill="#000000" font-family="sans-serif" font-size="11" lengthAdjust="spacing" textLength="117" x="517.5" y="1101.0386">-covidTestsPerMonth</text><text fill="#000000" font-family="sans-serif" font-size="11" lengthAdjust="spacing" textLength="143" x="517.5" y="1113.8433">-positiveResultsperMonth</text><text fill="#000000" font-family="sans-serif" font-size="11" lengthAdjust="spacing" textLength="50" x="517.5" y="1126.6479">-forecast</text><line style="stroke:#A80036;stroke-width:1.5;" x1="512.5" x2="685.5" y1="1133.2422" y2="1133.2422"/><!--MD5=[df38be88ccee13e832d6fafd6288a4ca]
class Test--><rect codeLine="122" fill="#FEFECE" filter="url(#fg73ue65g8rum)" height="60.8047" id="Test" style="stroke:#A80036;stroke-width:1.5;" width="58" x="541" y="372.5"/><ellipse cx="556" cy="388.5" fill="#ADD1B2" rx="11" ry="11" style="stroke:#A80036;stroke-width:1.0;"/><path d="M558.3438,384.1719 C557.4063,383.7344 556.8125,383.5938 555.9375,383.5938 C553.3125,383.5938 551.3125,385.6719 551.3125,388.3906 L551.3125,389.5156 C551.3125,392.0938 553.4219,393.9844 556.3125,393.9844 C557.5313,393.9844 558.6875,393.6875 559.4375,393.1406 C560.0156,392.7344 560.3438,392.2813 560.3438,391.8906 C560.3438,391.4375 559.9531,391.0469 559.4844,391.0469 C559.2656,391.0469 559.0625,391.125 558.875,391.3125 C558.4219,391.7969 558.4219,391.7969 558.2344,391.8906 C557.8125,392.1563 557.125,392.2813 556.3594,392.2813 C554.3125,392.2813 553.0156,391.1875 553.0156,389.4844 L553.0156,388.3906 C553.0156,386.6094 554.2656,385.2969 556,385.2969 C556.5781,385.2969 557.1875,385.4531 557.6563,385.7031 C558.1406,385.9844 558.3125,386.2031 558.4063,386.6094 C558.4688,387.0156 558.5,387.1406 558.6406,387.2656 C558.7813,387.4063 559.0156,387.5156 559.2344,387.5156 C559.5,387.5156 559.7656,387.375 559.9375,387.1563 C560.0469,387 560.0781,386.8125 560.0781,386.3906 L560.0781,384.9688 C560.0781,384.5313 560.0625,384.4063 559.9688,384.25 C559.8125,383.9844 559.5313,383.8438 559.2344,383.8438 C558.9375,383.8438 558.7344,383.9375 558.5156,384.25 L558.3438,384.1719 Z " fill="#000000"/><text fill="#000000" font-family="sans-serif" font-size="12" lengthAdjust="spacing" textLength="26" x="570" y="392.6543">Test</text><line style="stroke:#A80036;stroke-width:1.5;" x1="542" x2="598" y1="404.5" y2="404.5"/><text fill="#000000" font-family="sans-serif" font-size="11" lengthAdjust="spacing" textLength="30" x="547" y="418.7104">-date</text><line style="stroke:#A80036;stroke-width:1.5;" x1="542" x2="598" y1="425.3047" y2="425.3047"/><!--MD5=[f69a48f7b38bde3533dca6607cc4e94a]
class TypeOfTest--><rect codeLine="125" fill="#FEFECE" filter="url(#fg73ue65g8rum)" height="73.6094" id="TypeOfTest" style="stroke:#A80036;stroke-width:1.5;" width="139" x="216.5" y="196"/><ellipse cx="248.15" cy="212" fill="#ADD1B2" rx="11" ry="11" style="stroke:#A80036;stroke-width:1.0;"/><path d="M250.4938,207.6719 C249.5563,207.2344 248.9625,207.0938 248.0875,207.0938 C245.4625,207.0938 243.4625,209.1719 243.4625,211.8906 L243.4625,213.0156 C243.4625,215.5938 245.5719,217.4844 248.4625,217.4844 C249.6813,217.4844 250.8375,217.1875 251.5875,216.6406 C252.1656,216.2344 252.4938,215.7813 252.4938,215.3906 C252.4938,214.9375 252.1031,214.5469 251.6344,214.5469 C251.4156,214.5469 251.2125,214.625 251.025,214.8125 C250.5719,215.2969 250.5719,215.2969 250.3844,215.3906 C249.9625,215.6563 249.275,215.7813 248.5094,215.7813 C246.4625,215.7813 245.1656,214.6875 245.1656,212.9844 L245.1656,211.8906 C245.1656,210.1094 246.4156,208.7969 248.15,208.7969 C248.7281,208.7969 249.3375,208.9531 249.8063,209.2031 C250.2906,209.4844 250.4625,209.7031 250.5563,210.1094 C250.6188,210.5156 250.65,210.6406 250.7906,210.7656 C250.9313,210.9063 251.1656,211.0156 251.3844,211.0156 C251.65,211.0156 251.9156,210.875 252.0875,210.6563 C252.1969,210.5 252.2281,210.3125 252.2281,209.8906 L252.2281,208.4688 C252.2281,208.0313 252.2125,207.9063 252.1188,207.75 C251.9625,207.4844 251.6813,207.3438 251.3844,207.3438 C251.0875,207.3438 250.8844,207.4375 250.6656,207.75 L250.4938,207.6719 Z " fill="#000000"/><text fill="#000000" font-family="sans-serif" font-size="12" lengthAdjust="spacing" textLength="70" x="265.85" y="216.1543">TypeOfTest</text><line style="stroke:#A80036;stroke-width:1.5;" x1="217.5" x2="354.5" y1="228" y2="228"/><text fill="#000000" font-family="sans-serif" font-size="11" lengthAdjust="spacing" textLength="54" x="222.5" y="242.2104">-category</text><text fill="#000000" font-family="sans-serif" font-size="11" lengthAdjust="spacing" textLength="127" x="222.5" y="255.0151">-measuredParameters</text><line style="stroke:#A80036;stroke-width:1.5;" x1="217.5" x2="354.5" y1="261.6094" y2="261.6094"/><!--MD5=[5e6ae5ca2322ea7d8c17b0187d1bbc44]
class TestResults--><rect codeLine="129" fill="#FEFECE" filter="url(#fg73ue65g8rum)" height="60.8047" id="TestResults" style="stroke:#A80036;stroke-width:1.5;" width="117" x="891.5" y="1256.5"/><ellipse cx="913.7" cy="1272.5" fill="#ADD1B2" rx="11" ry="11" style="stroke:#A80036;stroke-width:1.0;"/><path d="M916.0438,1268.1719 C915.1063,1267.7344 914.5125,1267.5938 913.6375,1267.5938 C911.0125,1267.5938 909.0125,1269.6719 909.0125,1272.3906 L909.0125,1273.5156 C909.0125,1276.0938 911.1219,1277.9844 914.0125,1277.9844 C915.2313,1277.9844 916.3875,1277.6875 917.1375,1277.1406 C917.7156,1276.7344 918.0438,1276.2813 918.0438,1275.8906 C918.0438,1275.4375 917.6531,1275.0469 917.1844,1275.0469 C916.9656,1275.0469 916.7625,1275.125 916.575,1275.3125 C916.1219,1275.7969 916.1219,1275.7969 915.9344,1275.8906 C915.5125,1276.1563 914.825,1276.2813 914.0594,1276.2813 C912.0125,1276.2813 910.7156,1275.1875 910.7156,1273.4844 L910.7156,1272.3906 C910.7156,1270.6094 911.9656,1269.2969 913.7,1269.2969 C914.2781,1269.2969 914.8875,1269.4531 915.3563,1269.7031 C915.8406,1269.9844 916.0125,1270.2031 916.1063,1270.6094 C916.1688,1271.0156 916.2,1271.1406 916.3406,1271.2656 C916.4813,1271.4063 916.7156,1271.5156 916.9344,1271.5156 C917.2,1271.5156 917.4656,1271.375 917.6375,1271.1563 C917.7469,1271 917.7781,1270.8125 917.7781,1270.3906 L917.7781,1268.9688 C917.7781,1268.5313 917.7625,1268.4063 917.6688,1268.25 C917.5125,1267.9844 917.2313,1267.8438 916.9344,1267.8438 C916.6375,1267.8438 916.4344,1267.9375 916.2156,1268.25 L916.0438,1268.1719 Z " fill="#000000"/><text fill="#000000" font-family="sans-serif" font-size="12" lengthAdjust="spacing" textLength="69" x="929.3" y="1276.6543">TestResults</text><line style="stroke:#A80036;stroke-width:1.5;" x1="892.5" x2="1007.5" y1="1288.5" y2="1288.5"/><text fill="#000000" font-family="sans-serif" font-size="11" lengthAdjust="spacing" textLength="105" x="897.5" y="1302.7104">-parameterResults</text><line style="stroke:#A80036;stroke-width:1.5;" x1="892.5" x2="1007.5" y1="1309.3047" y2="1309.3047"/><!--MD5=[10d06bcee75aaf74ab8f6040820ceef2]
class Diagnosis--><rect codeLine="132" fill="#FEFECE" filter="url(#fg73ue65g8rum)" height="48" id="Diagnosis" style="stroke:#A80036;stroke-width:1.5;" width="91" x="721.5" y="1035.5"/><ellipse cx="736.5" cy="1051.5" fill="#ADD1B2" rx="11" ry="11" style="stroke:#A80036;stroke-width:1.0;"/><path d="M738.8438,1047.1719 C737.9063,1046.7344 737.3125,1046.5938 736.4375,1046.5938 C733.8125,1046.5938 731.8125,1048.6719 731.8125,1051.3906 L731.8125,1052.5156 C731.8125,1055.0938 733.9219,1056.9844 736.8125,1056.9844 C738.0313,1056.9844 739.1875,1056.6875 739.9375,1056.1406 C740.5156,1055.7344 740.8438,1055.2813 740.8438,1054.8906 C740.8438,1054.4375 740.4531,1054.0469 739.9844,1054.0469 C739.7656,1054.0469 739.5625,1054.125 739.375,1054.3125 C738.9219,1054.7969 738.9219,1054.7969 738.7344,1054.8906 C738.3125,1055.1563 737.625,1055.2813 736.8594,1055.2813 C734.8125,1055.2813 733.5156,1054.1875 733.5156,1052.4844 L733.5156,1051.3906 C733.5156,1049.6094 734.7656,1048.2969 736.5,1048.2969 C737.0781,1048.2969 737.6875,1048.4531 738.1563,1048.7031 C738.6406,1048.9844 738.8125,1049.2031 738.9063,1049.6094 C738.9688,1050.0156 739,1050.1406 739.1406,1050.2656 C739.2813,1050.4063 739.5156,1050.5156 739.7344,1050.5156 C740,1050.5156 740.2656,1050.375 740.4375,1050.1563 C740.5469,1050 740.5781,1049.8125 740.5781,1049.3906 L740.5781,1047.9688 C740.5781,1047.5313 740.5625,1047.4063 740.4688,1047.25 C740.3125,1046.9844 740.0313,1046.8438 739.7344,1046.8438 C739.4375,1046.8438 739.2344,1046.9375 739.0156,1047.25 L738.8438,1047.1719 Z " fill="#000000"/><text fill="#000000" font-family="sans-serif" font-size="12" lengthAdjust="spacing" textLength="59" x="750.5" y="1055.6543">Diagnosis</text><line style="stroke:#A80036;stroke-width:1.5;" x1="722.5" x2="811.5" y1="1067.5" y2="1067.5"/><line style="stroke:#A80036;stroke-width:1.5;" x1="722.5" x2="811.5" y1="1075.5" y2="1075.5"/><!--MD5=[0a105ea8d9af02dadec02d3e239f1d60]
class NHS--><rect fill="#FEFECE" filter="url(#fg73ue65g8rum)" height="48" id="NHS" style="stroke:#A80036;stroke-width:1.5;" width="57" x="641.5" y="587"/><ellipse cx="656.5" cy="603" fill="#ADD1B2" rx="11" ry="11" style="stroke:#A80036;stroke-width:1.0;"/><path d="M658.8438,598.6719 C657.9063,598.2344 657.3125,598.0938 656.4375,598.0938 C653.8125,598.0938 651.8125,600.1719 651.8125,602.8906 L651.8125,604.0156 C651.8125,606.5938 653.9219,608.4844 656.8125,608.4844 C658.0313,608.4844 659.1875,608.1875 659.9375,607.6406 C660.5156,607.2344 660.8438,606.7813 660.8438,606.3906 C660.8438,605.9375 660.4531,605.5469 659.9844,605.5469 C659.7656,605.5469 659.5625,605.625 659.375,605.8125 C658.9219,606.2969 658.9219,606.2969 658.7344,606.3906 C658.3125,606.6563 657.625,606.7813 656.8594,606.7813 C654.8125,606.7813 653.5156,605.6875 653.5156,603.9844 L653.5156,602.8906 C653.5156,601.1094 654.7656,599.7969 656.5,599.7969 C657.0781,599.7969 657.6875,599.9531 658.1563,600.2031 C658.6406,600.4844 658.8125,600.7031 658.9063,601.1094 C658.9688,601.5156 659,601.6406 659.1406,601.7656 C659.2813,601.9063 659.5156,602.0156 659.7344,602.0156 C660,602.0156 660.2656,601.875 660.4375,601.6563 C660.5469,601.5 660.5781,601.3125 660.5781,600.8906 L660.5781,599.4688 C660.5781,599.0313 660.5625,598.9063 660.4688,598.75 C660.3125,598.4844 660.0313,598.3438 659.7344,598.3438 C659.4375,598.3438 659.2344,598.4375 659.0156,598.75 L658.8438,598.6719 Z " fill="#000000"/><text fill="#000000" font-family="sans-serif" font-size="12" lengthAdjust="spacing" textLength="25" x="670.5" y="607.1543">NHS</text><line style="stroke:#A80036;stroke-width:1.5;" x1="642.5" x2="697.5" y1="619" y2="619"/><line style="stroke:#A80036;stroke-width:1.5;" x1="642.5" x2="697.5" y1="627" y2="627"/><!--MD5=[68767c78be08caa96780c014af9fbeaa]
class API--><rect fill="#FEFECE" filter="url(#fg73ue65g8rum)" height="48" id="API" style="stroke:#A80036;stroke-width:1.5;" width="49" x="460.5" y="808"/><ellipse cx="475.5" cy="824" fill="#ADD1B2" rx="11" ry="11" style="stroke:#A80036;stroke-width:1.0;"/><path d="M477.8438,819.6719 C476.9063,819.2344 476.3125,819.0938 475.4375,819.0938 C472.8125,819.0938 470.8125,821.1719 470.8125,823.8906 L470.8125,825.0156 C470.8125,827.5938 472.9219,829.4844 475.8125,829.4844 C477.0313,829.4844 478.1875,829.1875 478.9375,828.6406 C479.5156,828.2344 479.8438,827.7813 479.8438,827.3906 C479.8438,826.9375 479.4531,826.5469 478.9844,826.5469 C478.7656,826.5469 478.5625,826.625 478.375,826.8125 C477.9219,827.2969 477.9219,827.2969 477.7344,827.3906 C477.3125,827.6563 476.625,827.7813 475.8594,827.7813 C473.8125,827.7813 472.5156,826.6875 472.5156,824.9844 L472.5156,823.8906 C472.5156,822.1094 473.7656,820.7969 475.5,820.7969 C476.0781,820.7969 476.6875,820.9531 477.1563,821.2031 C477.6406,821.4844 477.8125,821.7031 477.9063,822.1094 C477.9688,822.5156 478,822.6406 478.1406,822.7656 C478.2813,822.9063 478.5156,823.0156 478.7344,823.0156 C479,823.0156 479.2656,822.875 479.4375,822.6563 C479.5469,822.5 479.5781,822.3125 479.5781,821.8906 L479.5781,820.4688 C479.5781,820.0313 479.5625,819.9063 479.4688,819.75 C479.3125,819.4844 479.0313,819.3438 478.7344,819.3438 C478.4375,819.3438 478.2344,819.4375 478.0156,819.75 L477.8438,819.6719 Z " fill="#000000"/><text fill="#000000" font-family="sans-serif" font-size="12" lengthAdjust="spacing" textLength="17" x="489.5" y="828.1543">API</text><line style="stroke:#A80036;stroke-width:1.5;" x1="461.5" x2="508.5" y1="840" y2="840"/><line style="stroke:#A80036;stroke-width:1.5;" x1="461.5" x2="508.5" y1="848" y2="848"/><!--MD5=[eeb2fc84c28f539fea744a4deec71e42]
reverse link TypeOfTest to Company--><path codeLine="135" d="M256.092,274.41 C242.149,295.14 226.561,321.36 217,347 C186.829,427.9 177.266,530.51 174.297,580.26 " fill="none" id="TypeOfTest-backto-Company" style="stroke:#A80036;stroke-width:1.0;"/><polygon fill="#A80036" points="259.039,270.07,250.6811,275.2801,256.2359,274.2103,257.3056,279.7651,259.039,270.07" style="stroke:#A80036;stroke-width:1.0;"/><text fill="#000000" font-family="sans-serif" font-size="13" lengthAdjust="spacing" textLength="56" x="218" y="407.5669">specifies</text><text fill="#000000" font-family="sans-serif" font-size="13" lengthAdjust="spacing" textLength="23" x="229.6689" y="289.5621">1..*</text><text fill="#000000" font-family="sans-serif" font-size="13" lengthAdjust="spacing" textLength="8" x="165.7395" y="569.4737">1</text><!--MD5=[5b0ba0c8c7d66569ca82579ff54f8a36]
reverse link Report to Diagnosis--><path codeLine="136" d="M865.197,867.609 C841.276,914.111 799.405,995.505 778.942,1035.286 " fill="none" id="Report-backto-Diagnosis" style="stroke:#A80036;stroke-width:1.0;"/><polygon fill="#A80036" points="867.596,862.945,859.9219,869.1181,865.3086,867.3911,867.0357,872.7779,867.596,862.945" style="stroke:#A80036;stroke-width:1.0;"/><text fill="#000000" font-family="sans-serif" font-size="13" lengthAdjust="spacing" textLength="15" x="833" y="944.0669">as</text><text fill="#000000" font-family="sans-serif" font-size="13" lengthAdjust="spacing" textLength="23" x="860.0057" y="882.3717">1..*</text><text fill="#000000" font-family="sans-serif" font-size="13" lengthAdjust="spacing" textLength="8" x="772.9771" y="1024.2432">1</text><!--MD5=[7c7fdfbaeb1d186744b7c941fcd1fc1f]
reverse link Report to LaboratoryCoordinator--><path codeLine="137" d="M914.351,866.826 C944.53,899.387 991.037,949.566 1028.9,990.415 " fill="none" id="Report-backto-LaboratoryCoordinator" style="stroke:#A80036;stroke-width:1.0;"/><polygon fill="#A80036" points="910.754,862.945,913.9378,872.265,914.1527,866.6123,919.8055,866.8271,910.754,862.945" style="stroke:#A80036;stroke-width:1.0;"/><text fill="#000000" font-family="sans-serif" font-size="13" lengthAdjust="spacing" textLength="58" x="988" y="944.0669">validates</text><text fill="#000000" font-family="sans-serif" font-size="13" lengthAdjust="spacing" textLength="23" x="890.8524" y="882.3717">1..*</text><text fill="#000000" font-family="sans-serif" font-size="13" lengthAdjust="spacing" textLength="8" x="1013.9803" y="979.6098">1</text><!--MD5=[978e6476bbbd7a7548766fd3b1b86795]
reverse link ClinicalAnalysisLaboratories to Company--><path codeLine="138" d="M288.471,461.54 C276.616,470.04 265.158,479.24 255,489 C226.907,515.98 203.022,554.11 188.399,580.32 " fill="none" id="ClinicalAnalysisLaboratories-backto-Company" style="stroke:#A80036;stroke-width:1.0;"/><polygon fill="#A80036" points="292.854,458.45,283.1946,460.3727,288.7693,461.3336,287.8084,466.9082,292.854,458.45" style="stroke:#A80036;stroke-width:1.0;"/><text fill="#000000" font-family="sans-serif" font-size="13" lengthAdjust="spacing" textLength="34" x="256" y="502.0669">owns</text><text fill="#000000" font-family="sans-serif" font-size="13" lengthAdjust="spacing" textLength="7" x="277.9952" y="459.1923">*</text><text fill="#000000" font-family="sans-serif" font-size="13" lengthAdjust="spacing" textLength="8" x="182.75" y="569.5461">1</text><!--MD5=[ac82875d58f59b0b682b96b6778314b8]
reverse link ClinicalAnalysisLaboratories to Administrator--><path codeLine="139" d="M357.578,464.11 C337.86,504.13 317,558.61 317,610 C317,610 317,610 317,1060.5 C317,1115.973 293.604,1174.193 270.938,1217.578 " fill="none" id="ClinicalAnalysisLaboratories-backto-Administrator" style="stroke:#A80036;stroke-width:1.0;"/><polygon fill="#A80036" points="359.976,459.3,352.383,465.5726,357.7468,463.7756,359.5439,469.1394,359.976,459.3" style="stroke:#A80036;stroke-width:1.0;"/><text fill="#000000" font-family="sans-serif" font-size="13" lengthAdjust="spacing" textLength="56" x="318" y="836.5669">registers</text><text fill="#000000" font-family="sans-serif" font-size="13" lengthAdjust="spacing" textLength="7" x="348.6465" y="479.1492">*</text><text fill="#000000" font-family="sans-serif" font-size="13" lengthAdjust="spacing" textLength="8" x="266.8504" y="1206.7381">1</text><!--MD5=[cadc0906c01d6c65e975e16d992338c9]
reverse link Sample to ClinicalAnalysisLaboratories--><path codeLine="140" d="M587.908,258.47 C567.556,270.43 543.147,285.38 522,300 C500.998,314.52 478.887,331.27 458.976,346.95 " fill="none" id="Sample-backto-ClinicalAnalysisLaboratories" style="stroke:#A80036;stroke-width:1.0;"/><polygon fill="#A80036" points="592.453,255.81,582.6655,256.9074,588.1387,258.3372,586.7089,263.8104,592.453,255.81" style="stroke:#A80036;stroke-width:1.0;"/><text fill="#000000" font-family="sans-serif" font-size="13" lengthAdjust="spacing" textLength="48" x="523" y="313.0669">collects</text><text fill="#000000" font-family="sans-serif" font-size="13" lengthAdjust="spacing" textLength="7" x="577.4378" y="255.8453">*</text><text fill="#000000" font-family="sans-serif" font-size="13" lengthAdjust="spacing" textLength="8" x="459.0448" y="335.8816">1</text><!--MD5=[83999087262e3f95ecaa1d42f873aabe]
reverse link Client to Receptionist--><path codeLine="141" d="M731.155,690.83 C726.721,699.16 722.571,707.65 719,716 C712.701,730.74 707.374,747.09 703.009,762.73 " fill="none" id="Client-backto-Receptionist" style="stroke:#A80036;stroke-width:1.0;"/><polygon fill="#A80036" points="733.646,686.22,725.8549,692.2448,731.2738,690.6214,732.8972,696.0404,733.646,686.22" style="stroke:#A80036;stroke-width:1.0;"/><text fill="#000000" font-family="sans-serif" font-size="13" lengthAdjust="spacing" textLength="56" x="720" y="729.0669">registers</text><text fill="#000000" font-family="sans-serif" font-size="13" lengthAdjust="spacing" textLength="7" x="718.3818" y="694.0555">*</text><text fill="#000000" font-family="sans-serif" font-size="13" lengthAdjust="spacing" textLength="8" x="696.1443" y="751.9058">1</text><!--MD5=[ee42d507f3e937b1221f31a32b8112fb]
reverse link ChemicalLaboratory to Company--><path codeLine="142" d="M550.11,77.91 C438.015,98.91 244.11,142.06 199,196 C104.4087,309.12 144.495,506.12 164.336,580.47 " fill="none" id="ChemicalLaboratory-backto-Company" style="stroke:#A80036;stroke-width:1.0;"/><polygon fill="#A80036" points="555.054,76.99,545.4729,74.709,550.1389,77.9073,546.9406,82.5733,555.054,76.99" style="stroke:#A80036;stroke-width:1.0;"/><text fill="#000000" font-family="sans-serif" font-size="13" lengthAdjust="spacing" textLength="34" x="150" y="313.0669">owns</text><text fill="#000000" font-family="sans-serif" font-size="13" lengthAdjust="spacing" textLength="8" x="539.4341" y="74.6807">1</text><text fill="#000000" font-family="sans-serif" font-size="13" lengthAdjust="spacing" textLength="8" x="153.5658" y="569.2537">1</text><!--MD5=[eb8806e8ccd17218cdd0339154bf9e5c]
reverse link Client to Sample--><path codeLine="143" d="M735.62,531.11 C723.514,508.36 711.277,483.15 702,459 C675.865,390.98 686.492,368.63 662,300 C658.468,290.1 653.968,279.69 649.499,270.13 " fill="none" id="Client-backto-Sample" style="stroke:#A80036;stroke-width:1.0;"/><polygon fill="#A80036" points="738.038,535.63,737.2972,525.809,735.6694,531.2266,730.2518,529.5988,738.038,535.63" style="stroke:#A80036;stroke-width:1.0;"/><text fill="#000000" font-family="sans-serif" font-size="13" lengthAdjust="spacing" textLength="106" x="703" y="407.5669">is collected from</text><text fill="#000000" font-family="sans-serif" font-size="13" lengthAdjust="spacing" textLength="8" x="725.6165" y="525.0433">1</text><text fill="#000000" font-family="sans-serif" font-size="13" lengthAdjust="spacing" textLength="8" x="643.9004" y="289.6321">1</text><!--MD5=[65c5b509916ed9c0531bcd26c55dbd83]
reverse link LabOrder to Client--><path codeLine="144" d="M854.05,445.09 C842.748,470.96 827.826,505.11 814.494,535.62 " fill="none" id="LabOrder-backto-Client" style="stroke:#A80036;stroke-width:1.0;"/><polygon fill="#A80036" points="856.117,440.35,848.8503,446.998,854.1166,444.9324,856.1822,450.1986,856.117,440.35" style="stroke:#A80036;stroke-width:1.0;"/><text fill="#000000" font-family="sans-serif" font-size="13" lengthAdjust="spacing" textLength="39" x="834" y="502.0669">brings</text><text fill="#000000" font-family="sans-serif" font-size="13" lengthAdjust="spacing" textLength="24" x="827.6731" y="459.6066">1..2</text><text fill="#000000" font-family="sans-serif" font-size="13" lengthAdjust="spacing" textLength="8" x="809.1208" y="525.0324">1</text><!--MD5=[eff94aa5a24ddcc1df337b0804773a55]
reverse link Test to MedicalLabTechnician--><path codeLine="145" d="M537.026,432.12 C515.583,451.25 490.601,475.48 485,489 C478.205,505.4 476.223,524.16 476.616,541.93 " fill="none" id="Test-backto-MedicalLabTechnician" style="stroke:#A80036;stroke-width:1.0;"/><polygon fill="#A80036" points="540.983,428.61,531.6001,431.6037,537.2474,431.9334,536.9176,437.5807,540.983,428.61" style="stroke:#A80036;stroke-width:1.0;"/><text fill="#000000" font-family="sans-serif" font-size="13" lengthAdjust="spacing" textLength="58" x="486" y="502.0669">conducts</text><text fill="#000000" font-family="sans-serif" font-size="13" lengthAdjust="spacing" textLength="7" x="526.057" y="430.1312">*</text><text fill="#000000" font-family="sans-serif" font-size="13" lengthAdjust="spacing" textLength="8" x="467.0295" y="531.1264">1</text><!--MD5=[6dba24dc0f16d673b4663f61de2d8959]
reverse link Test to Client--><path codeLine="146" d="M565.898,438.85 C565.32,460.79 568.583,488.23 585,506 C625.532,549.87 664.58,505.61 716,536 C722.076,539.59 727.899,543.93 733.394,548.69 " fill="none" id="Test-backto-Client" style="stroke:#A80036;stroke-width:1.0;"/><polygon fill="#A80036" points="566.106,433.68,561.7492,442.5128,565.906,438.676,569.7428,442.8328,566.106,433.68" style="stroke:#A80036;stroke-width:1.0;"/><text fill="#000000" font-family="sans-serif" font-size="13" lengthAdjust="spacing" textLength="71" x="586" y="502.0669">performs a</text><text fill="#000000" font-family="sans-serif" font-size="13" lengthAdjust="spacing" textLength="8" x="556.5519" y="453.2959">1</text><text fill="#000000" font-family="sans-serif" font-size="13" lengthAdjust="spacing" textLength="8" x="717.3387" y="552.3408">1</text><!--MD5=[b38022c943dcc2196c953f0d3c4be53e]
reverse link TypeOfTest to Test--><path codeLine="147" d="M360.376,266.04 C404.8,286.58 461.452,315.28 508,347 C519.414,354.78 530.987,364.46 540.993,373.52 " fill="none" id="TypeOfTest-backto-Test" style="stroke:#A80036;stroke-width:1.0;"/><polygon fill="#A80036" points="355.57,263.83,362.0744,271.2254,360.1123,265.9198,365.418,263.9577,355.57,263.83" style="stroke:#A80036;stroke-width:1.0;"/><text fill="#000000" font-family="sans-serif" font-size="13" lengthAdjust="spacing" textLength="22" x="457" y="313.0669">is a</text><text fill="#000000" font-family="sans-serif" font-size="13" lengthAdjust="spacing" textLength="8" x="363.6167" y="263.4772">1</text><text fill="#000000" font-family="sans-serif" font-size="13" lengthAdjust="spacing" textLength="8" x="524.9475" y="361.613">1</text><!--MD5=[ca43670e89bace4a7eb33bc55e976959]
reverse link ChemicalLaboratory to Sample--><path codeLine="148" d="M631,124.09 C631,148.13 631,175.01 631,195.93 " fill="none" id="ChemicalLaboratory-backto-Sample" style="stroke:#A80036;stroke-width:1.0;"/><polygon fill="#A80036" points="631,119.01,627,128.01,631,124.01,635,128.01,631,119.01" style="stroke:#A80036;stroke-width:1.0;"/><text fill="#000000" font-family="sans-serif" font-size="13" lengthAdjust="spacing" textLength="70" x="632" y="162.0669">are sent to</text><text fill="#000000" font-family="sans-serif" font-size="13" lengthAdjust="spacing" textLength="8" x="622.4875" y="139.2211">1</text><text fill="#000000" font-family="sans-serif" font-size="13" lengthAdjust="spacing" textLength="7" x="623.3547" y="184.8276">*</text><!--MD5=[655f63077aed01c40b57658640a9dadc]
reverse link Sample to Test--><path codeLine="149" d="M598.361,274.7 C593.193,282.72 588.43,291.35 585,300 C575.767,323.3 572.147,351.62 570.761,372.5 " fill="none" id="Sample-backto-Test" style="stroke:#A80036;stroke-width:1.0;"/><polygon fill="#A80036" points="601.269,270.31,592.9678,275.61,598.5107,274.4803,599.6403,280.0233,601.269,270.31" style="stroke:#A80036;stroke-width:1.0;"/><text fill="#000000" font-family="sans-serif" font-size="13" lengthAdjust="spacing" textLength="71" x="586" y="313.0669">produces a</text><text fill="#000000" font-family="sans-serif" font-size="13" lengthAdjust="spacing" textLength="8" x="587.8931" y="289.5602">1</text><text fill="#000000" font-family="sans-serif" font-size="13" lengthAdjust="spacing" textLength="8" x="562.0525" y="361.2903">1</text><!--MD5=[cd338187eb4caa6e8a540c01e5ca8adb]
reverse link TestResults to ClinicalChemistTechnologist--><path codeLine="150" d="M1013.23,1317.343 C1084.59,1350.458 1202.25,1405.056 1290.77,1446.134 " fill="none" id="TestResults-backto-ClinicalChemistTechnologist" style="stroke:#A80036;stroke-width:1.0;"/><polygon fill="#A80036" points="1008.6,1315.193,1015.0865,1322.6041,1013.1373,1317.2937,1018.4477,1315.3445,1008.6,1315.193" style="stroke:#A80036;stroke-width:1.0;"/><text fill="#000000" font-family="sans-serif" font-size="13" lengthAdjust="spacing" textLength="59" x="1194" y="1399.0669">produces</text><text fill="#000000" font-family="sans-serif" font-size="13" lengthAdjust="spacing" textLength="7" x="1016.5566" y="1314.9322">*</text><text fill="#000000" font-family="sans-serif" font-size="13" lengthAdjust="spacing" textLength="8" x="1274.9396" y="1439.1575">1</text><!--MD5=[0cd951db9f1d51bb36afa2b16ff8bd1d]
reverse link Client to Report--><path codeLine="151" d="M818.34,690.8 C836.05,729.2 856.286,773.08 869.333,801.365 " fill="none" id="Client-backto-Report" style="stroke:#A80036;stroke-width:1.0;"/><polygon fill="#A80036" points="816.194,686.14,816.3419,695.9877,818.2931,690.678,823.6028,692.6292,816.194,686.14" style="stroke:#A80036;stroke-width:1.0;"/><text fill="#000000" font-family="sans-serif" font-size="13" lengthAdjust="spacing" textLength="59" x="837" y="729.0669">is sent to</text><text fill="#000000" font-family="sans-serif" font-size="13" lengthAdjust="spacing" textLength="8" x="811.3078" y="706.7134">1</text><text fill="#000000" font-family="sans-serif" font-size="13" lengthAdjust="spacing" textLength="8" x="857.6892" y="790.6004">1</text><!--MD5=[71e06e850df568e3a85eeae5483d740b]
reverse link ChemicalLaboratory to ClinicalChemistTechnologist--><path codeLine="152" d="M711.901,69.84 C941.05,87.47 1578,144.36 1578,232 C1578,232 1578,232 1578,1288 C1578,1344.882 1540.56,1395.408 1500.92,1432.958 " fill="none" id="ChemicalLaboratory-backto-ClinicalChemistTechnologist" style="stroke:#A80036;stroke-width:1.0;"/><polygon fill="#A80036" points="706.896,69.46,715.5647,74.1349,711.8814,69.8414,716.1749,66.1582,706.896,69.46" style="stroke:#A80036;stroke-width:1.0;"/><text fill="#000000" font-family="sans-serif" font-size="13" lengthAdjust="spacing" textLength="57" x="1579" y="729.0669">is part of</text><text fill="#000000" font-family="sans-serif" font-size="13" lengthAdjust="spacing" textLength="8" x="714.5111" y="66.433">1</text><text fill="#000000" font-family="sans-serif" font-size="13" lengthAdjust="spacing" textLength="7" x="1503.0383" y="1422.1573">*</text><!--MD5=[e338bddaa604d724810bf423a2ed97dc]
reverse link ClinicalChemistTechnologist to Sample--><path codeLine="153" d="M1416.19,1427.762 C1419.63,1386.713 1423,1334.556 1423,1288 C1423,402 1423,402 1423,402 C1423,246.15 828.745,234.25 669.736,233.85 " fill="none" id="ClinicalChemistTechnologist-backto-Sample" style="stroke:#A80036;stroke-width:1.0;"/><polygon fill="#A80036" points="1415.75,1432.967,1420.4963,1424.3372,1416.1726,1427.9849,1412.5249,1423.6612,1415.75,1432.967" style="stroke:#A80036;stroke-width:1.0;"/><text fill="#000000" font-family="sans-serif" font-size="13" lengthAdjust="spacing" textLength="100" x="1424" y="836.5669">are received by</text><text fill="#000000" font-family="sans-serif" font-size="13" lengthAdjust="spacing" textLength="8" x="1408.0336" y="1422.1672">1</text><text fill="#000000" font-family="sans-serif" font-size="13" lengthAdjust="spacing" textLength="7" x="677.5233" y="229.7391">*</text><!--MD5=[b49e42cafe8eb2e974897e6c33ae447b]
reverse link TestResults to SpecialistDoctor--><path codeLine="154" d="M954.613,1323.092 C961.715,1383.656 972.929,1511.549 957,1618 C955.539,1627.767 953.301,1637.904 950.692,1647.794 " fill="none" id="TestResults-backto-SpecialistDoctor" style="stroke:#A80036;stroke-width:1.0;"/><polygon fill="#A80036" points="953.982,1317.795,951.0748,1327.205,954.5735,1322.7599,959.0186,1326.2586,953.982,1317.795" style="stroke:#A80036;stroke-width:1.0;"/><text fill="#000000" font-family="sans-serif" font-size="13" lengthAdjust="spacing" textLength="50" x="966" y="1506.5669">reviews</text><text fill="#000000" font-family="sans-serif" font-size="13" lengthAdjust="spacing" textLength="7" x="947.0769" y="1337.4335">*</text><text fill="#000000" font-family="sans-serif" font-size="13" lengthAdjust="spacing" textLength="8" x="944.7227" y="1636.9764">1</text><!--MD5=[0d5ea959d23f129ef827e28702304be9]
reverse link Report to SpecialistDoctor--><path codeLine="155" d="M860.099,866.853 C850.076,879.302 837.326,892.435 823,901 C671.356,991.665 458,881.819 458,1058.5 C458,1058.5 458,1058.5 458,1503 C458,1656.927 670.022,1700.1557 808.954,1711.9589 " fill="none" id="Report-backto-SpecialistDoctor" style="stroke:#A80036;stroke-width:1.0;"/><polygon fill="#A80036" points="863.392,862.665,854.6837,867.2657,860.3007,866.5949,860.9715,872.2118,863.392,862.665" style="stroke:#A80036;stroke-width:1.0;"/><text fill="#000000" font-family="sans-serif" font-size="13" lengthAdjust="spacing" textLength="39" x="459" y="1291.5669">writes</text><text fill="#000000" font-family="sans-serif" font-size="13" lengthAdjust="spacing" textLength="7" x="851.8426" y="882.2779">*</text><text fill="#000000" font-family="sans-serif" font-size="13" lengthAdjust="spacing" textLength="8" x="793.1354" y="1708.2384">1</text><!--MD5=[34570443c17dd3b44adb3e7cf65f3a20]
reverse link ResultsValidation to SpecialistDoctor--><path codeLine="156" d="M857.491,1537.622 C869.054,1567.294 886.055,1610.925 900.349,1647.607 " fill="none" id="ResultsValidation-backto-SpecialistDoctor" style="stroke:#A80036;stroke-width:1.0;"/><polygon fill="#A80036" points="855.541,1532.617,855.0824,1542.4552,857.3567,1537.2757,862.5363,1539.55,855.541,1532.617" style="stroke:#A80036;stroke-width:1.0;"/><text fill="#000000" font-family="sans-serif" font-size="13" lengthAdjust="spacing" textLength="59" x="889" y="1614.0669">performs</text><text fill="#000000" font-family="sans-serif" font-size="13" lengthAdjust="spacing" textLength="7" x="850.1995" y="1552.5794">*</text><text fill="#000000" font-family="sans-serif" font-size="13" lengthAdjust="spacing" textLength="8" x="889.1881" y="1636.7701">1</text><!--MD5=[e20cf370ddc2b1ec2ca5c1d1877380c6]
reverse link TestResults to Report--><path codeLine="157" d="M935.411,1251.484 C923.896,1222.543 908.554,1179.834 901,1141 C881.414,1040.313 881.058,917.915 882.122,862.629 " fill="none" id="TestResults-backto-Report" style="stroke:#A80036;stroke-width:1.0;"/><polygon fill="#A80036" points="937.369,1256.365,937.7315,1246.5228,935.5079,1251.7243,930.3064,1249.5006,937.369,1256.365" style="stroke:#A80036;stroke-width:1.0;"/><text fill="#000000" font-family="sans-serif" font-size="13" lengthAdjust="spacing" textLength="54" x="902" y="1064.0669">contains</text><text fill="#000000" font-family="sans-serif" font-size="13" lengthAdjust="spacing" textLength="8" x="925.9389" y="1245.6004">1</text><text fill="#000000" font-family="sans-serif" font-size="13" lengthAdjust="spacing" textLength="8" x="882.7659" y="882.5938">1</text><!--MD5=[51d0562c2a403e0525091be1411745cf]
reverse link NHSReport to TestResults--><path codeLine="158" d="M690.743,1131.839 C695.191,1134.981 699.626,1138.05 704,1141 C767.913,1184.104 844.946,1228.343 895.579,1256.434 " fill="none" id="NHSReport-backto-TestResults" style="stroke:#A80036;stroke-width:1.0;"/><polygon fill="#A80036" points="686.654,1128.934,691.6721,1137.4086,690.7293,1131.8309,696.3071,1130.8881,686.654,1128.934" style="stroke:#A80036;stroke-width:1.0;"/><text fill="#000000" font-family="sans-serif" font-size="13" lengthAdjust="spacing" textLength="71" x="778" y="1184.0669">are used in</text><text fill="#000000" font-family="sans-serif" font-size="13" lengthAdjust="spacing" textLength="8" x="694.5305" y="1131.3186">1</text><text fill="#000000" font-family="sans-serif" font-size="13" lengthAdjust="spacing" textLength="7" x="876.6328" y="1245.6836">*</text><!--MD5=[5e380585e4d51dea2ec34604655e12a6]
reverse link LaboratoryCoordinator to TestResults--><path codeLine="159" d="M1046.31,1133.05 C1019.96,1174.899 988.256,1225.249 968.611,1256.445 " fill="none" id="LaboratoryCoordinator-backto-TestResults" style="stroke:#A80036;stroke-width:1.0;"/><polygon fill="#A80036" points="1049.01,1128.769,1040.8364,1134.2637,1046.351,1133.0034,1047.6114,1138.518,1049.01,1128.769" style="stroke:#A80036;stroke-width:1.0;"/><text fill="#000000" font-family="sans-serif" font-size="13" lengthAdjust="spacing" textLength="136" x="1022" y="1184.0669">must be validated by</text><text fill="#000000" font-family="sans-serif" font-size="13" lengthAdjust="spacing" textLength="8" x="1036.5313" y="1148.1768">1</text><text fill="#000000" font-family="sans-serif" font-size="13" lengthAdjust="spacing" textLength="7" x="964.9165" y="1245.2233">*</text><!--MD5=[8345a230a66c91578d736fe7097173e6]
reverse link TestResultList to SpecialistDoctor--><path codeLine="160" d="M1267.71,886.831 C1274.66,991.287 1279.42,1226.686 1202,1403 C1159.03,1500.857 1074.06,1590.018 1009.88,1647.925 " fill="none" id="TestResultList-backto-SpecialistDoctor" style="stroke:#A80036;stroke-width:1.0;"/><polygon fill="#A80036" points="1267.36,881.654,1263.9798,890.9046,1267.6992,886.6425,1271.9614,890.3619,1267.36,881.654" style="stroke:#A80036;stroke-width:1.0;"/><text fill="#000000" font-family="sans-serif" font-size="13" lengthAdjust="spacing" textLength="64" x="1254" y="1291.5669">can check</text><text fill="#000000" font-family="sans-serif" font-size="13" lengthAdjust="spacing" textLength="8" x="1259.4106" y="901.7521">1</text><text fill="#000000" font-family="sans-serif" font-size="13" lengthAdjust="spacing" textLength="7" x="1011.0672" y="1637.1209">*</text><!--MD5=[c56424ecf038915b4cf243fb461ddc19]
reverse link TestResultList to ClinicalChemistTechnologist--><path codeLine="161" d="M1278.19,886.457 C1282,900.852 1285.89,916.463 1289,931 C1313.2,1044.179 1307.65,1074.642 1331,1188 C1348.51,1273.019 1373.41,1369.829 1390.33,1432.984 " fill="none" id="TestResultList-backto-ClinicalChemistTechnologist" style="stroke:#A80036;stroke-width:1.0;"/><polygon fill="#A80036" points="1276.9,881.626,1275.3585,891.3535,1278.1905,886.4566,1283.0874,889.2886,1276.9,881.626" style="stroke:#A80036;stroke-width:1.0;"/><text fill="#000000" font-family="sans-serif" font-size="13" lengthAdjust="spacing" textLength="64" x="1332" y="1184.0669">can check</text><text fill="#000000" font-family="sans-serif" font-size="13" lengthAdjust="spacing" textLength="8" x="1270.2922" y="901.7202">1</text><text fill="#000000" font-family="sans-serif" font-size="13" lengthAdjust="spacing" textLength="7" x="1380.9052" y="1421.7093">*</text><!--MD5=[30bf558d4af4018b9bd557ad89f27a18]
reverse link TestResultList to LaboratoryCoordinator--><path codeLine="162" d="M1209.98,885.627 C1196.66,899.858 1182.81,915.597 1171,931 C1156.82,949.493 1142.89,970.639 1130.78,990.323 " fill="none" id="TestResultList-backto-LaboratoryCoordinator" style="stroke:#A80036;stroke-width:1.0;"/><polygon fill="#A80036" points="1213.72,881.654,1204.6322,885.4504,1210.2868,885.289,1210.4482,890.9435,1213.72,881.654" style="stroke:#A80036;stroke-width:1.0;"/><text fill="#000000" font-family="sans-serif" font-size="13" lengthAdjust="spacing" textLength="64" x="1172" y="944.0669">can check</text><text fill="#000000" font-family="sans-serif" font-size="13" lengthAdjust="spacing" textLength="8" x="1198.2275" y="901.7521">1</text><text fill="#000000" font-family="sans-serif" font-size="13" lengthAdjust="spacing" textLength="7" x="1127.4183" y="979.5084">*</text><!--MD5=[82c6bb7b8e3177e32d04c69f75bd7c02]
reverse link NHS to API--><path codeLine="163" d="M654.318,639.45 C645.705,653.78 634.464,671.33 623,686 C612.997,698.8 543.973,770.27 507.492,807.867 " fill="none" id="NHS-backto-API" style="stroke:#A80036;stroke-width:1.0;"/><polygon fill="#A80036" points="656.904,635.12,648.8486,640.7866,654.3353,639.4097,655.7121,644.8965,656.904,635.12" style="stroke:#A80036;stroke-width:1.0;"/><text fill="#000000" font-family="sans-serif" font-size="13" lengthAdjust="spacing" textLength="55" x="596" y="729.0669">sends to</text><text fill="#000000" font-family="sans-serif" font-size="13" lengthAdjust="spacing" textLength="8" x="644.7369" y="654.9105">1</text><text fill="#000000" font-family="sans-serif" font-size="13" lengthAdjust="spacing" textLength="7" x="505.3587" y="796.845">*</text><!--MD5=[5d9e55dfe12902e6bbd9fe8e84f6c5d1]
reverse link API to NHSReport--><path codeLine="164" d="M499.054,860.799 C513.778,889.925 537.6,937.046 558.294,977.98 " fill="none" id="API-backto-NHSReport" style="stroke:#A80036;stroke-width:1.0;"/><polygon fill="#A80036" points="496.771,856.283,497.2622,866.1196,499.027,860.7451,504.4016,862.5099,496.771,856.283" style="stroke:#A80036;stroke-width:1.0;"/><text fill="#000000" font-family="sans-serif" font-size="13" lengthAdjust="spacing" textLength="34" x="543" y="944.0669">using</text><text fill="#000000" font-family="sans-serif" font-size="13" lengthAdjust="spacing" textLength="8" x="490.6652" y="876.1132">1</text><text fill="#000000" font-family="sans-serif" font-size="13" lengthAdjust="spacing" textLength="7" x="547.2188" y="966.8353">*</text><!--MD5=[33ab1a2a3ee24839f07692b0199c2b76]
reverse link TestResults to ResultsValidation--><path codeLine="165" d="M932.949,1322.263 C912.412,1363.531 878.252,1432.172 858.784,1471.292 " fill="none" id="TestResults-backto-ResultsValidation" style="stroke:#A80036;stroke-width:1.0;"/><polygon fill="#A80036" points="935.261,1317.617,927.6688,1323.8906,933.0324,1322.0928,934.8301,1327.4564,935.261,1317.617" style="stroke:#A80036;stroke-width:1.0;"/><text fill="#000000" font-family="sans-serif" font-size="13" lengthAdjust="spacing" textLength="13" x="902" y="1399.0669">to</text><text fill="#000000" font-family="sans-serif" font-size="13" lengthAdjust="spacing" textLength="7" x="924.4992" y="1337.5794">*</text><text fill="#000000" font-family="sans-serif" font-size="13" lengthAdjust="spacing" textLength="8" x="853.0082" y="1460.5123">1</text><!--MD5=[12d76240d3c3c66074d4ec2ea8bf469c]
link Company to Parameter--><path codeLine="166" d="M163.915,641.8 C157.877,662.47 150.142,690.71 145,716 C140.501,738.13 136.876,762.9 134.221,783.78 " fill="none" id="Company-to-Parameter" style="stroke:#A80036;stroke-width:1.0;"/><polygon fill="#A80036" points="133.567,788.999,138.6665,780.5731,134.1954,784.0387,130.7299,779.5676,133.567,788.999" style="stroke:#A80036;stroke-width:1.0;"/><text fill="#000000" font-family="sans-serif" font-size="13" lengthAdjust="spacing" textLength="56" x="146" y="729.0669">specifies</text><text fill="#000000" font-family="sans-serif" font-size="13" lengthAdjust="spacing" textLength="8" x="153.3389" y="661.4395">1</text><text fill="#000000" font-family="sans-serif" font-size="13" lengthAdjust="spacing" textLength="7" x="126.7371" y="777.996">*</text><!--MD5=[93b4f25fb503a8e0e9a46b1d30ff3f44]
link Company to ParameterCategory--><path codeLine="167" d="M134.588,641.65 C102.4142,669.12 58.8197,713.16 40,763 C7.344,849.482 40.1528,959.012 63.0162,1017.414 " fill="none" id="Company-to-ParameterCategory" style="stroke:#A80036;stroke-width:1.0;"/><polygon fill="#A80036" points="64.9191,1022.217,65.3232,1012.3764,63.0776,1017.5685,57.8855,1015.3229,64.9191,1022.217" style="stroke:#A80036;stroke-width:1.0;"/><text fill="#000000" font-family="sans-serif" font-size="13" lengthAdjust="spacing" textLength="23" x="41" y="836.5669">has</text><text fill="#000000" font-family="sans-serif" font-size="13" lengthAdjust="spacing" textLength="8" x="118.2381" y="661.26">1</text><text fill="#000000" font-family="sans-serif" font-size="13" lengthAdjust="spacing" textLength="7" x="54.4313" y="1011.3535">*</text><!--MD5=[6df8849671cb880f6936e94aa30db6f9]
link Parameter to ParameterCategory--><path codeLine="168" d="M101.4252,875.128 C92.0457,891.817 82.7399,911.624 78,931 C71.1232,959.111 72.0504,991.753 74.6054,1016.971 " fill="none" id="Parameter-to-ParameterCategory" style="stroke:#A80036;stroke-width:1.0;"/><polygon fill="#A80036" points="75.1731,1022.236,78.1858,1012.8592,74.6374,1017.2648,70.2318,1013.7164,75.1731,1022.236" style="stroke:#A80036;stroke-width:1.0;"/><text fill="#000000" font-family="sans-serif" font-size="13" lengthAdjust="spacing" textLength="106" x="79" y="944.0669">presented under</text><text fill="#000000" font-family="sans-serif" font-size="13" lengthAdjust="spacing" textLength="7" x="89.2784" y="895.5569">*</text><text fill="#000000" font-family="sans-serif" font-size="13" lengthAdjust="spacing" textLength="8" x="65.4227" y="1011.3759">1</text><!--MD5=[8fed49cf12a674e36a1de475622ee091]
link ParameterCategory to Administrator--><path codeLine="169" d="M91.2,1096.711 C99.6791,1123.303 113.371,1159.59 132,1188 C137.753,1196.774 144.38,1205.416 151.412,1213.714 " fill="none" id="ParameterCategory-to-Administrator" style="stroke:#A80036;stroke-width:1.0;"/><polygon fill="#A80036" points="154.894,1217.759,152.0517,1208.3292,151.6311,1213.9704,145.9899,1213.5498,154.894,1217.759" style="stroke:#A80036;stroke-width:1.0;"/><text fill="#000000" font-family="sans-serif" font-size="13" lengthAdjust="spacing" textLength="69" x="133" y="1184.0669">created by</text><text fill="#000000" font-family="sans-serif" font-size="13" lengthAdjust="spacing" textLength="7" x="85.3097" y="1116.2265">*</text><text fill="#000000" font-family="sans-serif" font-size="13" lengthAdjust="spacing" textLength="8" x="138.8393" y="1206.9378">1</text><!--MD5=[eaea43e34e45c5b9d20b595fc78f1f20]
link Company to Administrator--><path codeLine="170" d="M185.235,641.92 C192.996,662.4 202.411,690.38 207,716 C238.546,892.081 236.527,1103.462 232.605,1212.663 " fill="none" id="Company-to-Administrator" style="stroke:#A80036;stroke-width:1.0;"/><polygon fill="#A80036" points="232.417,1217.785,236.7434,1208.9373,232.5998,1212.7883,228.7488,1208.6447,232.417,1217.785" style="stroke:#A80036;stroke-width:1.0;"/><text fill="#000000" font-family="sans-serif" font-size="13" lengthAdjust="spacing" textLength="41" x="233" y="944.0669">knows</text><text fill="#000000" font-family="sans-serif" font-size="13" lengthAdjust="spacing" textLength="8" x="178.8048" y="661.342">1</text><text fill="#000000" font-family="sans-serif" font-size="13" lengthAdjust="spacing" textLength="8" x="224.3569" y="1206.9664">1</text><!--MD5=[1b4b002d392b35b7fcfa38a9f51e17d4]
@startuml
class Company
skinparam classAttributeIconSize 0
Company : -designation
Class ClinicalAnalysisLaboratories{
-laboratoryID
-address
-name
-phoneNumber
-tinNumber
}
Class ChemicalLaboratory{
-address
-name
-phoneNumber
-tinNumber
-typeOftest
}
Class Client{
-ccn
-name
-nhsNumber
-birthDate
-sex
-tif
-phoneNumber
-eMail
}
Class Receptionist{
-employeeID
-organizationRole
-name
-address
-phoneNumber
-eMail
-standardOcupationalClassificationCode
}
Class Sample{
-category
-sampleID
}
Class Administrator{
-employeeID
-organizationRole
-name
-address
-phoneNumber
-eMail
-standardOcupationalClassificationCode
}
Class MedicalLabTechnician{
-employeeID
-organizationRole
-name
-address
-phoneNumber
-eMail
-standardOcupationalClassificationCode
}
class ParameterCategory {
  -name
  -code
}
class Parameter {
 -code
 -shortname
 -description
}
Class ClinicalChemistTechnologist{
-employeeID
-organizationRole
-name
-address
-phoneNumber
-eMail
-standardOcupationalClassificationCode
}
Class SpecialistDoctor{
-employeeID
-organizationRole
-name
-address
-phoneNumber
-eMail
-standardOcupationalClassificationCode
}
Class LaboratoryCoordinator{
-employeeID
-organizationRole
-name
-address
-phoneNumber
-eMail
-standardOcupationalClassificationCode
}
Class ResultsValidation{
-testReferenceValues
}
Class LabOrder{
-typeOfTest
-parameters
}
Class Report{
-bodyOfText
}
Class TestResultList{
-listOfPositiveCases
-listOfNegativeCases
-sortingAlgorithmByTIF
-sortingAlgorithmByName
}
Class NHSReport{
-numberCovidTestsPositive
-numberCovidTestsNegative
-covidTestsPerDay
-positiveResultsPerDay
-covidTestsPerWeek
-positiveResultsPerWeek
-covidTestsPerMonth
-positiveResultsperMonth
-forecast
}
Class Test{
-date
}
Class TypeOfTest{
-category
-measuredParameters
}
Class TestResults{
-parameterResults
}
Class Diagnosis {
}

TypeOfTest "1..*" <- - "1" Company : specifies
Report "1..*" <- - "1" Diagnosis : as
Report "1..*" <- - "1" LaboratoryCoordinator : validates
ClinicalAnalysisLaboratories "*" <- - "1" Company : owns
ClinicalAnalysisLaboratories "*" <- - "1" Administrator : registers
Sample "*" <- - "1" ClinicalAnalysisLaboratories : collects
Client "*" <- - "1" Receptionist : registers
ChemicalLaboratory "1" <- - "1" Company : owns
Client "1" <- - "1" Sample: is collected from
LabOrder "1..2" <- - "1" Client: brings
Test "*" <- - "1" MedicalLabTechnician : conducts
Test "1" <- - "1" Client: performs a
TypeOfTest "1" <- - "1" Test: is a
ChemicalLaboratory "1" <- - "*" Sample: are sent to
Sample "1" <- - "1" Test: produces a
TestResults "*" <- - "1" ClinicalChemistTechnologist: produces
Client "1" <- - "1" Report: is sent to
ChemicalLaboratory "1" <- - "*" ClinicalChemistTechnologist: is part of
ClinicalChemistTechnologist "1" <- - "*" Sample : are received by
TestResults "*" <- - "1" SpecialistDoctor: reviews
Report "*" <- - "1" SpecialistDoctor: writes
ResultsValidation "*" <- - "1" SpecialistDoctor: performs
TestResults "1" <- - "1" Report: contains
NHSReport"1" <- - "*" TestResults: are used in
LaboratoryCoordinator "1" <- - "*" TestResults : must be validated by
TestResultList "1" <- - "*" SpecialistDoctor : can check
TestResultList "1" <- - "*" ClinicalChemistTechnologist : can check
TestResultList "1" <- - "*" LaboratoryCoordinator : can check
NHS"1" <- - "*" API: sends to
API"1" <- - "*" NHSReport: using
TestResults "*" <- - "1" ResultsValidation : to
Company "1" - -> "*" Parameter : specifies
Company "1" - -> "*" ParameterCategory : has
Parameter "*" - -> "1" ParameterCategory : presented under
ParameterCategory "*" - -> "1" Administrator : created by
Company "1" - -> "1" Administrator : knows
@enduml

PlantUML version 1.2021.6beta4(Unknown compile time)
(GPL source distribution)
Java Runtime: Java(TM) SE Runtime Environment
JVM: Java HotSpot(TM) 64-Bit Server VM
Default Encoding: UTF-8
Language: en
Country: US
--></g></svg>