<?xml version="1.0" encoding="UTF-8" standalone="no"?>
<svg xmlns="http://www.w3.org/2000/svg" xmlns:xlink="http://www.w3.org/1999/xlink" contentScriptType="application/ecmascript" contentStyleType="text/css" height="1683px" preserveAspectRatio="none" style="width:650px;height:1683px;background:#FFFFFF;" version="1.1" viewBox="0 0 650 1683" width="650px" zoomAndPan="magnify"><defs><filter height="300%" id="fufbobnrvn1ji" width="300%" x="-1" y="-1"><feGaussianBlur result="blurOut" stdDeviation="2.0"/><feColorMatrix in="blurOut" result="blurOut2" type="matrix" values="0 0 0 0 0 0 0 0 0 0 0 0 0 0 0 0 0 0 .4 0"/><feOffset dx="4.0" dy="4.0" in="blurOut2" result="blurOut3"/><feBlend in="SourceGraphic" in2="blurOut3" mode="normal"/></filter></defs><g><!--MD5=[87a04b683345c3cce94ac9a6e159ab2f]
entity Receptionist--><ellipse cx="89.5" cy="1602" fill="#FEFECE" filter="url(#fufbobnrvn1ji)" rx="8" ry="8" style="stroke:#A80036;stroke-width:1.5;"/><path d="M89.5,1610 L89.5,1637 M76.5,1618 L102.5,1618 M89.5,1637 L76.5,1652 M89.5,1637 L102.5,1652 " fill="none" filter="url(#fufbobnrvn1ji)" style="stroke:#A80036;stroke-width:1.5;"/><text fill="#000000" font-family="sans-serif" font-size="14" lengthAdjust="spacing" textLength="93" x="43" y="1670.4951">Receptionist</text><ellipse cx="435.6693" cy="1576.1339" fill="#FEFECE" filter="url(#fufbobnrvn1ji)" rx="93.6693" ry="21.1339" style="stroke:#A80036;stroke-width:1.5;"/><text fill="#000000" font-family="sans-serif" font-size="14" lengthAdjust="spacing" textLength="150" x="360.6693" y="1578.9805">UC3 - Register Client</text><ellipse cx="435.4744" cy="1651.8949" fill="#FEFECE" filter="url(#fufbobnrvn1ji)" rx="87.4744" ry="19.8949" style="stroke:#A80036;stroke-width:1.5;"/><text fill="#000000" font-family="sans-serif" font-size="14" lengthAdjust="spacing" textLength="136" x="367.4744" y="1654.7416">UC4 - Register test</text><!--MD5=[2b63f547074bd6a145c0620c277963de]
entity MedicalLabTechnician--><ellipse cx="89.5" cy="1466" fill="#FEFECE" filter="url(#fufbobnrvn1ji)" rx="8" ry="8" style="stroke:#A80036;stroke-width:1.5;"/><path d="M89.5,1474 L89.5,1501 M76.5,1482 L102.5,1482 M89.5,1501 L76.5,1516 M89.5,1501 L102.5,1516 " fill="none" filter="url(#fufbobnrvn1ji)" style="stroke:#A80036;stroke-width:1.5;"/><text fill="#000000" font-family="sans-serif" font-size="14" lengthAdjust="spacing" textLength="157" x="11" y="1534.4951">MedicalLabTechnician</text><ellipse cx="435.3822" cy="1497.0764" fill="#FEFECE" filter="url(#fufbobnrvn1ji)" rx="100.8822" ry="22.5764" style="stroke:#A80036;stroke-width:1.5;"/><text fill="#000000" font-family="sans-serif" font-size="14" lengthAdjust="spacing" textLength="166" x="352.3822" y="1499.9231">UC5 - Register samples</text><!--MD5=[b9f22e1f914de05b600b494d477eb3bb]
entity ChemistryTechnologist--><ellipse cx="89.5" cy="1219" fill="#FEFECE" filter="url(#fufbobnrvn1ji)" rx="8" ry="8" style="stroke:#A80036;stroke-width:1.5;"/><path d="M89.5,1227 L89.5,1254 M76.5,1235 L102.5,1235 M89.5,1254 L76.5,1269 M89.5,1254 L102.5,1269 " fill="none" filter="url(#fufbobnrvn1ji)" style="stroke:#A80036;stroke-width:1.5;"/><text fill="#000000" font-family="sans-serif" font-size="14" lengthAdjust="spacing" textLength="167" x="6" y="1287.4951">ChemistryTechnologist</text><ellipse cx="435.5183" cy="1316.0037" fill="#FEFECE" filter="url(#fufbobnrvn1ji)" rx="110.5183" ry="24.5037" style="stroke:#A80036;stroke-width:1.5;"/><text fill="#000000" font-family="sans-serif" font-size="14" lengthAdjust="spacing" textLength="187" x="342.0183" y="1318.8503">UC12 - Record test results</text><ellipse cx="435.6152" cy="1223.123" fill="#FEFECE" filter="url(#fufbobnrvn1ji)" rx="153.6152" ry="33.123" style="stroke:#A80036;stroke-width:1.5;"/><text fill="#000000" font-family="sans-serif" font-size="14" lengthAdjust="spacing" textLength="278" x="296.6152" y="1225.9697">UC13 - Check test details from a client</text><!--MD5=[ed5cf9b98a04c736a5595d6482b9f19f]
entity SpecialistDoctor--><ellipse cx="89.5" cy="1345" fill="#FEFECE" filter="url(#fufbobnrvn1ji)" rx="8" ry="8" style="stroke:#A80036;stroke-width:1.5;"/><path d="M89.5,1353 L89.5,1380 M76.5,1361 L102.5,1361 M89.5,1380 L76.5,1395 M89.5,1380 L102.5,1395 " fill="none" filter="url(#fufbobnrvn1ji)" style="stroke:#A80036;stroke-width:1.5;"/><text fill="#000000" font-family="sans-serif" font-size="14" lengthAdjust="spacing" textLength="120" x="29.5" y="1413.4951">SpecialistDoctor</text><ellipse cx="435.5118" cy="1396.9024" fill="#FEFECE" filter="url(#fufbobnrvn1ji)" rx="95.0118" ry="21.4024" style="stroke:#A80036;stroke-width:1.5;"/><text fill="#000000" font-family="sans-serif" font-size="14" lengthAdjust="spacing" textLength="153" x="359.0118" y="1399.749">UC14 - Write a report</text><!--MD5=[62529e7d5259bf274c3bf3e446350d88]
entity Administrator--><ellipse cx="89.5" cy="828" fill="#FEFECE" filter="url(#fufbobnrvn1ji)" rx="8" ry="8" style="stroke:#A80036;stroke-width:1.5;"/><path d="M89.5,836 L89.5,863 M76.5,844 L102.5,844 M89.5,863 L76.5,878 M89.5,863 L102.5,878 " fill="none" filter="url(#fufbobnrvn1ji)" style="stroke:#A80036;stroke-width:1.5;"/><text fill="#000000" font-family="sans-serif" font-size="14" lengthAdjust="spacing" textLength="100" x="39.5" y="896.4951">Administrator</text><ellipse cx="435.5602" cy="604.212" fill="#FEFECE" filter="url(#fufbobnrvn1ji)" rx="116.5602" ry="25.712" style="stroke:#A80036;stroke-width:1.5;"/><text fill="#000000" font-family="sans-serif" font-size="14" lengthAdjust="spacing" textLength="200" x="335.5602" y="607.0587">UC7 - Register an employee</text><ellipse cx="435.6801" cy="703.936" fill="#FEFECE" filter="url(#fufbobnrvn1ji)" rx="182.6801" ry="38.936" style="stroke:#A80036;stroke-width:1.5;"/><text fill="#000000" font-family="sans-serif" font-size="14" lengthAdjust="spacing" textLength="338" x="266.6801" y="706.7827">UC8 - Register a new clinical analysis laboratory</text><ellipse cx="435.4468" cy="806.0894" fill="#FEFECE" filter="url(#fufbobnrvn1ji)" rx="125.9468" ry="27.5894" style="stroke:#A80036;stroke-width:1.5;"/><text fill="#000000" font-family="sans-serif" font-size="14" lengthAdjust="spacing" textLength="220" x="325.4468" y="808.936">UC9 - Specify new type of test</text><ellipse cx="435.7002" cy="911.94" fill="#FEFECE" filter="url(#fufbobnrvn1ji)" rx="202.7002" ry="42.94" style="stroke:#A80036;stroke-width:1.5;"/><text fill="#000000" font-family="sans-serif" font-size="14" lengthAdjust="spacing" textLength="379" x="246.2002" y="914.7867">UC10 - Specify new test parameter and categorize it</text><ellipse cx="435.4522" cy="1023.9904" fill="#FEFECE" filter="url(#fufbobnrvn1ji)" rx="157.9522" ry="33.9904" style="stroke:#A80036;stroke-width:1.5;"/><text fill="#000000" font-family="sans-serif" font-size="14" lengthAdjust="spacing" textLength="287" x="291.9522" y="1026.8371">UC11 - Specify new parameter category</text><ellipse cx="435.5569" cy="1124.0114" fill="#FEFECE" filter="url(#fufbobnrvn1ji)" rx="143.0569" ry="31.0114" style="stroke:#A80036;stroke-width:1.5;"/><text fill="#000000" font-family="sans-serif" font-size="14" lengthAdjust="spacing" textLength="256" x="307.5569" y="1126.8581">UC18 - Send covid-19 report to NHS</text><!--MD5=[6a38910834749d432318f75987594161]
entity LaboratoryCoordinator--><ellipse cx="89.5" cy="388" fill="#FEFECE" filter="url(#fufbobnrvn1ji)" rx="8" ry="8" style="stroke:#A80036;stroke-width:1.5;"/><path d="M89.5,396 L89.5,423 M76.5,404 L102.5,404 M89.5,423 L76.5,438 M89.5,423 L102.5,438 " fill="none" filter="url(#fufbobnrvn1ji)" style="stroke:#A80036;stroke-width:1.5;"/><text fill="#000000" font-family="sans-serif" font-size="14" lengthAdjust="spacing" textLength="165" x="7" y="456.4951">LaboratoryCoordinator</text><ellipse cx="435.3149" cy="309.763" fill="#FEFECE" filter="url(#fufbobnrvn1ji)" rx="161.8149" ry="34.763" style="stroke:#A80036;stroke-width:1.5;"/><text fill="#000000" font-family="sans-serif" font-size="14" lengthAdjust="spacing" textLength="295" x="287.8149" y="312.6097">UC15 - Validate work by specialist doctor</text><ellipse cx="435.6801" cy="418.936" fill="#FEFECE" filter="url(#fufbobnrvn1ji)" rx="182.6801" ry="38.936" style="stroke:#A80036;stroke-width:1.5;"/><text fill="#000000" font-family="sans-serif" font-size="14" lengthAdjust="spacing" textLength="338" x="266.6801" y="421.7827">UC16 - Overview tests and overall performance</text><ellipse cx="435.7303" cy="518.2461" fill="#FEFECE" filter="url(#fufbobnrvn1ji)" rx="114.2303" ry="25.2461" style="stroke:#A80036;stroke-width:1.5;"/><text fill="#000000" font-family="sans-serif" font-size="14" lengthAdjust="spacing" textLength="195" x="338.2303" y="521.0927">UC17 - Import clinical tests</text><!--MD5=[0ba5ee7700168656dc1b457c6fe9fdac]
entity Client--><ellipse cx="89.5" cy="157" fill="#FEFECE" filter="url(#fufbobnrvn1ji)" rx="8" ry="8" style="stroke:#A80036;stroke-width:1.5;"/><path d="M89.5,165 L89.5,192 M76.5,173 L102.5,173 M89.5,192 L76.5,207 M89.5,192 L102.5,207 " fill="none" filter="url(#fufbobnrvn1ji)" style="stroke:#A80036;stroke-width:1.5;"/><text fill="#000000" font-family="sans-serif" font-size="14" lengthAdjust="spacing" textLength="43" x="68" y="225.4951">Client</text><ellipse cx="435.2923" cy="129.7585" fill="#FEFECE" filter="url(#fufbobnrvn1ji)" rx="101.7923" ry="22.7585" style="stroke:#A80036;stroke-width:1.5;"/><text fill="#000000" font-family="sans-serif" font-size="14" lengthAdjust="spacing" textLength="168" x="351.2923" y="132.6051">UC1 - View Test Results</text><ellipse cx="435.6957" cy="213.8391" fill="#FEFECE" filter="url(#fufbobnrvn1ji)" rx="114.6957" ry="25.3391" style="stroke:#A80036;stroke-width:1.5;"/><text fill="#000000" font-family="sans-serif" font-size="14" lengthAdjust="spacing" textLength="196" x="337.6957" y="216.6858">UC2 - Update Personal Data</text><!--MD5=[95c43e2287b6560ecd6cf2d7d5290204]
entity ManyLabs--><ellipse cx="89.5" cy="14" fill="#FEFECE" filter="url(#fufbobnrvn1ji)" rx="8" ry="8" style="stroke:#A80036;stroke-width:1.5;"/><path d="M89.5,22 L89.5,49 M76.5,30 L102.5,30 M89.5,49 L76.5,64 M89.5,49 L102.5,64 " fill="none" filter="url(#fufbobnrvn1ji)" style="stroke:#A80036;stroke-width:1.5;"/><text fill="#000000" font-family="sans-serif" font-size="14" lengthAdjust="spacing" textLength="70" x="54.5" y="82.4951">ManyLabs</text><ellipse cx="435.3027" cy="44.9605" fill="#FEFECE" filter="url(#fufbobnrvn1ji)" rx="120.3027" ry="26.4605" style="stroke:#A80036;stroke-width:1.5;"/><text fill="#000000" font-family="sans-serif" font-size="14" lengthAdjust="spacing" textLength="208" x="331.3027" y="47.8072">UC19 - Send daily NHS report</text><!--MD5=[c5d5a0f3230eeec008b77b3e419b2923]
link Receptionist to Register--><path d="M136.181,1625.4308 C191.755,1616.2223 286.541,1600.5165 354.361,1589.2789 " fill="none" id="Receptionist-to-Register" style="stroke:#A80036;stroke-width:1.0;"/><polygon fill="#A80036" points="359.605,1588.4099,350.0716,1585.9372,354.6725,1589.2284,351.3812,1593.8293,359.605,1588.4099" style="stroke:#A80036;stroke-width:1.0;"/><!--MD5=[e15a6832d0abcd3e9bd85e8878c2b206]
link Receptionist to UC4 - Register test--><path d="M136.181,1635.5231 C189.261,1638.4548 278.114,1643.3624 345.074,1647.0608 " fill="none" id="Receptionist-to-UC4 - Register test" style="stroke:#A80036;stroke-width:1.0;"/><polygon fill="#A80036" points="350.262,1647.3473,341.4963,1642.8571,345.2696,1647.0716,341.0551,1650.8449,350.262,1647.3473" style="stroke:#A80036;stroke-width:1.0;"/><!--MD5=[efbba909479a124d1c553c2b0adf7291]
link MedicalLabTechnician to UC5 - Register samples--><path d="M168.129,1497 C215.642,1497 277.069,1497 328.96,1497 " fill="none" id="MedicalLabTechnician-to-UC5 - Register samples" style="stroke:#A80036;stroke-width:1.0;"/><polygon fill="#A80036" points="334.271,1497,325.271,1493,329.271,1497,325.271,1501,334.271,1497" style="stroke:#A80036;stroke-width:1.0;"/><!--MD5=[137f87c2ce4853b556226daa9a42142d]
link ChemistryTechnologist to UC12 - Record test results--><path d="M173.334,1265.893 C225.624,1275.925 293.11,1288.873 346.381,1299.093 " fill="none" id="ChemistryTechnologist-to-UC12 - Record test results" style="stroke:#A80036;stroke-width:1.0;"/><polygon fill="#A80036" points="351.491,1300.074,343.4068,1294.4485,346.5807,1299.1311,341.8982,1302.305,351.491,1300.074" style="stroke:#A80036;stroke-width:1.0;"/><!--MD5=[f2d837acc4dda792b4e71b0e5742ea86]
link ChemistryTechnologist to UC13 - Check test details from a client--><path d="M173.334,1243.498 C207.106,1240.848 247.217,1237.7 285.744,1234.676 " fill="none" id="ChemistryTechnologist-to-UC13 - Check test details from a client" style="stroke:#A80036;stroke-width:1.0;"/><polygon fill="#A80036" points="290.923,1234.269,281.6375,1230.9859,285.9383,1234.6605,282.2638,1238.9613,290.923,1234.269" style="stroke:#A80036;stroke-width:1.0;"/><!--MD5=[85b47747de4a60ab410514bc153d1d0c]
link SpecialistDoctor to UC14 - Write a report--><path d="M149.636,1379.61 C201.486,1382.775 277.835,1387.436 338.443,1391.136 " fill="none" id="SpecialistDoctor-to-UC14 - Write a report" style="stroke:#A80036;stroke-width:1.0;"/><polygon fill="#A80036" points="343.516,1391.446,334.7761,1386.9058,338.5253,1391.1418,334.2893,1394.8909,343.516,1391.446" style="stroke:#A80036;stroke-width:1.0;"/><!--MD5=[2c866f0e2bc78e2a4109d7ad9bf63a11]
link SpecialistDoctor to UC12 - Record test results--><path d="M149.636,1365.686 C202.793,1356.414 281.702,1342.651 342.998,1331.96 " fill="none" id="SpecialistDoctor-to-UC12 - Record test results" style="stroke:#A80036;stroke-width:1.0;"/><polygon fill="#A80036" points="348.125,1331.065,338.5718,1328.6698,343.1993,1331.9236,339.9455,1336.551,348.125,1331.065" style="stroke:#A80036;stroke-width:1.0;"/><!--MD5=[2c6c509ac6c1acb079d4d47198666766]
link Administrator to UC7 - Register an employee--><path d="M106.695,818.268 C128.124,769.85 170.623,690.3 233,648 C258.634,630.62 289.948,619.96 320.179,613.46 " fill="none" id="Administrator-to-UC7 - Register an employee" style="stroke:#A80036;stroke-width:1.0;"/><polygon fill="#A80036" points="325.414,612.38,315.7894,610.29,320.5181,613.3949,317.4132,618.1235,325.414,612.38" style="stroke:#A80036;stroke-width:1.0;"/><!--MD5=[b79ce496f4f5f75e69ca474ea64f7b06]
link Administrator to UC8 - Register a new clinical analysis laboratory--><path d="M139.503,819.356 C165.926,799.558 199.843,776.571 233,761 C255.598,750.387 280.572,741.367 305.02,733.848 " fill="none" id="Administrator-to-UC8 - Register a new clinical analysis laboratory" style="stroke:#A80036;stroke-width:1.0;"/><polygon fill="#A80036" points="309.902,732.364,300.1276,731.1552,305.1183,733.8186,302.4549,738.8092,309.902,732.364" style="stroke:#A80036;stroke-width:1.0;"/><!--MD5=[ad05442167d993073c6b65586078b99c]
link Administrator to UC9 - Specify new type of test--><path d="M139.787,851.406 C188.395,843.917 264.286,832.225 326.882,822.581 " fill="none" id="Administrator-to-UC9 - Specify new type of test" style="stroke:#A80036;stroke-width:1.0;"/><polygon fill="#A80036" points="332.129,821.772,322.6248,819.1893,327.1873,822.5335,323.8432,827.096,332.129,821.772" style="stroke:#A80036;stroke-width:1.0;"/><!--MD5=[d2249308fbd19be0a66985d4f03ca6ed]
link Administrator to UC10 - Specify new test parameter and categorize it--><path d="M139.787,866.594 C173.306,871.758 219.799,878.921 265.96,886.033 " fill="none" id="Administrator-to-UC10 - Specify new test parameter and categorize it" style="stroke:#A80036;stroke-width:1.0;"/><polygon fill="#A80036" points="271.004,886.81,262.7182,881.486,266.0623,886.0485,261.4998,889.3927,271.004,886.81" style="stroke:#A80036;stroke-width:1.0;"/><!--MD5=[0bf4cbcb3a7bb21c7b17ed1741a5dd04]
link Administrator to UC11 - Specify new parameter category--><path d="M131.446,899.672 C158.279,924.206 195.268,954.243 233,973 C256.402,984.633 282.69,993.766 308.357,1000.882 " fill="none" id="Administrator-to-UC11 - Specify new parameter category" style="stroke:#A80036;stroke-width:1.0;"/><polygon fill="#A80036" points="313.481,1002.278,305.8506,996.0509,308.6572,1000.9624,303.7457,1003.769,313.481,1002.278" style="stroke:#A80036;stroke-width:1.0;"/><!--MD5=[ae7f768ce0929da7209953a928a357bf]
link Administrator to UC18 - Send covid-19 report to NHS--><path d="M106.145,899.809 C127.275,949.304 169.724,1031.606 233,1076 C253.975,1090.716 278.883,1100.959 303.91,1108.078 " fill="none" id="Administrator-to-UC18 - Send covid-19 report to NHS" style="stroke:#A80036;stroke-width:1.0;"/><polygon fill="#A80036" points="308.916,1109.461,301.3064,1103.2085,304.0966,1108.1293,299.1757,1110.9195,308.916,1109.461" style="stroke:#A80036;stroke-width:1.0;"/><!--MD5=[d969eed48f6561fc2fb34767d0a1a196]
link LaboratoryCoordinator to UC15 - Validate work by specialist doctor--><path d="M172.038,385.06 C191.828,377.35 213.039,369.52 233,363 C261.359,353.73 292.36,344.94 321.358,337.27 " fill="none" id="LaboratoryCoordinator-to-UC15 - Validate work by specialist doctor" style="stroke:#A80036;stroke-width:1.0;"/><polygon fill="#A80036" points="326.369,335.95,316.6467,334.3762,321.5342,337.2245,318.6859,342.112,326.369,335.95" style="stroke:#A80036;stroke-width:1.0;"/><!--MD5=[b4b99fa36e377eb6e0b8a805df89b6b7]
link LaboratoryCoordinator to UC16 - Overview tests and overall performance--><path d="M172.023,419 C195.027,419 221.049,419 247.548,419 " fill="none" id="LaboratoryCoordinator-to-UC16 - Overview tests and overall performance" style="stroke:#A80036;stroke-width:1.0;"/><polygon fill="#A80036" points="252.854,419,243.854,415,247.854,419,243.854,423,252.854,419" style="stroke:#A80036;stroke-width:1.0;"/><!--MD5=[b0fa56a1985864b4c0f1f8cdc22f5537]
link LaboratoryCoordinator to UC17 - Import clinical tests--><path d="M172.139,454.5 C191.832,462.26 212.975,469.96 233,476 C267.401,486.38 305.866,495.08 339.894,501.83 " fill="none" id="LaboratoryCoordinator-to-UC17 - Import clinical tests" style="stroke:#A80036;stroke-width:1.0;"/><polygon fill="#A80036" points="344.882,502.81,336.8237,497.1475,339.9761,501.8446,335.279,504.9969,344.882,502.81" style="stroke:#A80036;stroke-width:1.0;"/><!--MD5=[fd855d4a9baabf1fa994ca412c1f763d]
link Client to UC1 - View Test Results--><path d="M111.244,184.5 C157.013,176.79 268.87,157.93 348.142,144.56 " fill="none" id="Client-to-UC1 - View Test Results" style="stroke:#A80036;stroke-width:1.0;"/><polygon fill="#A80036" points="353.315,143.69,343.7762,141.2383,348.3843,144.5194,345.1032,149.1275,353.315,143.69" style="stroke:#A80036;stroke-width:1.0;"/><!--MD5=[ec2f38e2a31fddfbddcb02a51e1d7363]
link Client to UC2 - Update Personal Data--><path d="M111.244,189.57 C152.028,192.65 245.286,199.7 321.206,205.44 " fill="none" id="Client-to-UC2 - Update Personal Data" style="stroke:#A80036;stroke-width:1.0;"/><polygon fill="#A80036" points="326.641,205.85,317.9684,201.1825,321.6552,205.4729,317.3649,209.1597,326.641,205.85" style="stroke:#A80036;stroke-width:1.0;"/><!--MD5=[2aaaeab7274494fa7f4fb066dfb458db]
link ManyLabs to UC19 - Send daily NHS report--><path d="M124.742,45 C167.722,45 243.823,45 309.836,45 " fill="none" id="ManyLabs-to-UC19 - Send daily NHS report" style="stroke:#A80036;stroke-width:1.0;"/><polygon fill="#A80036" points="314.974,45,305.974,41,309.974,45,305.974,49,314.974,45" style="stroke:#A80036;stroke-width:1.0;"/><!--MD5=[e25c3f509404690702ea4487a762bff9]
@startuml
left to right direction

Receptionist - -> (Register)
Receptionist - -> (UC4 - Register test)
"UC3 - Register Client" as (Register)

MedicalLabTechnician - -> (UC5 - Register samples)

ChemistryTechnologist - -> (UC12 - Record test results)
ChemistryTechnologist - -> (UC13 - Check test details from a client)

SpecialistDoctor - -> (UC14 - Write a report)
SpecialistDoctor - -> (UC12 - Record test results)


Administrator - -> (UC7 - Register an employee)
Administrator - -> (UC8 - Register a new clinical analysis laboratory)
Administrator - -> (UC9 - Specify new type of test)
Administrator - -> (UC10 - Specify new test parameter and categorize it)
Administrator - -> (UC11 - Specify new parameter category)
Administrator - -> (UC18 - Send covid-19 report to NHS)

LaboratoryCoordinator - -> (UC15 - Validate work by specialist doctor)
LaboratoryCoordinator - -> (UC16 - Overview tests and overall performance)
LaboratoryCoordinator - -> (UC17 - Import clinical tests)

Client - -> (UC1 - View Test Results)
Client - -> (UC2 - Update Personal Data)

ManyLabs - -> (UC19 - Send daily NHS report)
@enduml

PlantUML version 1.2021.7(Sun May 23 12:40:07 UTC 2021)
(GPL source distribution)
Java Runtime: Java(TM) SE Runtime Environment
JVM: Java HotSpot(TM) 64-Bit Server VM
Default Encoding: UTF-8
Language: en
Country: US
--></g></svg>