<?xml version="1.0" encoding="UTF-8" standalone="no"?><svg xmlns="http://www.w3.org/2000/svg" xmlns:xlink="http://www.w3.org/1999/xlink" contentScriptType="application/ecmascript" contentStyleType="text/css" height="600px" preserveAspectRatio="none" style="width:554px;height:600px;background:#FFFFFF;" version="1.1" viewBox="0 0 554 600" width="554px" zoomAndPan="magnify"><defs><filter height="300%" id="f1twn5bvvxhvj9" width="300%" x="-1" y="-1"><feGaussianBlur result="blurOut" stdDeviation="2.0"/><feColorMatrix in="blurOut" result="blurOut2" type="matrix" values="0 0 0 0 0 0 0 0 0 0 0 0 0 0 0 0 0 0 .4 0"/><feOffset dx="4.0" dy="4.0" in="blurOut2" result="blurOut3"/><feBlend in="SourceGraphic" in2="blurOut3" mode="normal"/></filter></defs><g><rect fill="#FFFFFF" filter="url(#f1twn5bvvxhvj9)" height="399.8594" style="stroke:#A80036;stroke-width:1.0;" width="10" x="50" y="98.2969"/><rect fill="#FFFFFF" filter="url(#f1twn5bvvxhvj9)" height="29.1328" style="stroke:#A80036;stroke-width:1.0;" width="10" x="501" y="119.4297"/><rect fill="#FFFFFF" filter="url(#f1twn5bvvxhvj9)" height="29.1328" style="stroke:#A80036;stroke-width:1.0;" width="10" x="501" y="177.6953"/><rect fill="#FFFFFF" filter="url(#f1twn5bvvxhvj9)" height="29.1328" style="stroke:#A80036;stroke-width:1.0;" width="10" x="501" y="235.9609"/><rect fill="#FFFFFF" filter="url(#f1twn5bvvxhvj9)" height="29.1328" style="stroke:#A80036;stroke-width:1.0;" width="10" x="501" y="294.2266"/><rect fill="#FFFFFF" filter="url(#f1twn5bvvxhvj9)" height="29.1328" style="stroke:#A80036;stroke-width:1.0;" width="10" x="501" y="352.4922"/><rect fill="#FFFFFF" filter="url(#f1twn5bvvxhvj9)" height="29.1328" style="stroke:#A80036;stroke-width:1.0;" width="10" x="501" y="410.7578"/><rect fill="#FFFFFF" filter="url(#f1twn5bvvxhvj9)" height="29.1328" style="stroke:#A80036;stroke-width:1.0;" width="10" x="501" y="469.0234"/><line style="stroke:#A80036;stroke-width:1.0;stroke-dasharray:5.0,5.0;" x1="55" x2="55" y1="88.2969" y2="516.1563"/><line style="stroke:#A80036;stroke-width:1.0;stroke-dasharray:5.0,5.0;" x1="505.5" x2="505.5" y1="88.2969" y2="516.1563"/><text fill="#000000" font-family="sans-serif" font-size="14" lengthAdjust="spacing" textLength="94" x="5" y="84.9951">Recepcionist</text><ellipse cx="55" cy="15" fill="#FEFECE" filter="url(#f1twn5bvvxhvj9)" rx="8" ry="8" style="stroke:#A80036;stroke-width:2.0;"/><path d="M55,23 L55,50 M42,31 L68,31 M55,50 L42,65 M55,50 L68,65 " fill="none" filter="url(#f1twn5bvvxhvj9)" style="stroke:#A80036;stroke-width:2.0;"/><text fill="#000000" font-family="sans-serif" font-size="14" lengthAdjust="spacing" textLength="94" x="5" y="528.1514">Recepcionist</text><ellipse cx="55" cy="541.4531" fill="#FEFECE" filter="url(#f1twn5bvvxhvj9)" rx="8" ry="8" style="stroke:#A80036;stroke-width:2.0;"/><path d="M55,549.4531 L55,576.4531 M42,557.4531 L68,557.4531 M55,576.4531 L42,591.4531 M55,576.4531 L68,591.4531 " fill="none" filter="url(#f1twn5bvvxhvj9)" style="stroke:#A80036;stroke-width:2.0;"/><rect fill="#FEFECE" filter="url(#f1twn5bvvxhvj9)" height="30.2969" style="stroke:#A80036;stroke-width:1.5;" width="73" x="467.5" y="53"/><text fill="#000000" font-family="sans-serif" font-size="14" lengthAdjust="spacing" textLength="59" x="474.5" y="72.9951">:System</text><rect fill="#FEFECE" filter="url(#f1twn5bvvxhvj9)" height="30.2969" style="stroke:#A80036;stroke-width:1.5;" width="73" x="467.5" y="515.1563"/><text fill="#000000" font-family="sans-serif" font-size="14" lengthAdjust="spacing" textLength="59" x="474.5" y="535.1514">:System</text><rect fill="#FFFFFF" filter="url(#f1twn5bvvxhvj9)" height="399.8594" style="stroke:#A80036;stroke-width:1.0;" width="10" x="50" y="98.2969"/><rect fill="#FFFFFF" filter="url(#f1twn5bvvxhvj9)" height="29.1328" style="stroke:#A80036;stroke-width:1.0;" width="10" x="501" y="119.4297"/><rect fill="#FFFFFF" filter="url(#f1twn5bvvxhvj9)" height="29.1328" style="stroke:#A80036;stroke-width:1.0;" width="10" x="501" y="177.6953"/><rect fill="#FFFFFF" filter="url(#f1twn5bvvxhvj9)" height="29.1328" style="stroke:#A80036;stroke-width:1.0;" width="10" x="501" y="235.9609"/><rect fill="#FFFFFF" filter="url(#f1twn5bvvxhvj9)" height="29.1328" style="stroke:#A80036;stroke-width:1.0;" width="10" x="501" y="294.2266"/><rect fill="#FFFFFF" filter="url(#f1twn5bvvxhvj9)" height="29.1328" style="stroke:#A80036;stroke-width:1.0;" width="10" x="501" y="352.4922"/><rect fill="#FFFFFF" filter="url(#f1twn5bvvxhvj9)" height="29.1328" style="stroke:#A80036;stroke-width:1.0;" width="10" x="501" y="410.7578"/><rect fill="#FFFFFF" filter="url(#f1twn5bvvxhvj9)" height="29.1328" style="stroke:#A80036;stroke-width:1.0;" width="10" x="501" y="469.0234"/><polygon fill="#A80036" points="489,115.4297,499,119.4297,489,123.4297,493,119.4297" style="stroke:#A80036;stroke-width:1.0;"/><line style="stroke:#A80036;stroke-width:1.0;" x1="60" x2="495" y1="119.4297" y2="119.4297"/><text fill="#000000" font-family="sans-serif" font-size="13" font-weight="bold" lengthAdjust="spacing" textLength="9" x="67" y="114.3638">1</text><text fill="#000000" font-family="sans-serif" font-size="13" lengthAdjust="spacing" textLength="409" x="80" y="114.3638">chooses to register a test to be performed to a registered client</text><polygon fill="#A80036" points="71,144.5625,61,148.5625,71,152.5625,67,148.5625" style="stroke:#A80036;stroke-width:1.0;"/><line style="stroke:#A80036;stroke-width:1.0;stroke-dasharray:2.0,2.0;" x1="65" x2="505" y1="148.5625" y2="148.5625"/><text fill="#000000" font-family="sans-serif" font-size="13" font-weight="bold" lengthAdjust="spacing" textLength="9" x="77" y="143.4966">2</text><text fill="#000000" font-family="sans-serif" font-size="13" lengthAdjust="spacing" textLength="225" x="90" y="143.4966">requests data (nhsCode, clientCcn)</text><polygon fill="#A80036" points="489,173.6953,499,177.6953,489,181.6953,493,177.6953" style="stroke:#A80036;stroke-width:1.0;"/><line style="stroke:#A80036;stroke-width:1.0;" x1="60" x2="495" y1="177.6953" y2="177.6953"/><text fill="#000000" font-family="sans-serif" font-size="13" font-weight="bold" lengthAdjust="spacing" textLength="8" x="67" y="172.6294">3</text><text fill="#000000" font-family="sans-serif" font-size="13" lengthAdjust="spacing" textLength="138" x="79" y="172.6294">types requested data</text><polygon fill="#A80036" points="71,202.8281,61,206.8281,71,210.8281,67,206.8281" style="stroke:#A80036;stroke-width:1.0;"/><line style="stroke:#A80036;stroke-width:1.0;stroke-dasharray:2.0,2.0;" x1="65" x2="505" y1="206.8281" y2="206.8281"/><text fill="#000000" font-family="sans-serif" font-size="13" font-weight="bold" lengthAdjust="spacing" textLength="9" x="77" y="201.7622">4</text><text fill="#000000" font-family="sans-serif" font-size="13" lengthAdjust="spacing" textLength="391" x="90" y="201.7622">shows the client linked to that CCN and asks for confirmation</text><polygon fill="#A80036" points="489,231.9609,499,235.9609,489,239.9609,493,235.9609" style="stroke:#A80036;stroke-width:1.0;"/><line style="stroke:#A80036;stroke-width:1.0;" x1="60" x2="495" y1="235.9609" y2="235.9609"/><text fill="#000000" font-family="sans-serif" font-size="13" font-weight="bold" lengthAdjust="spacing" textLength="9" x="67" y="230.895">5</text><text fill="#000000" font-family="sans-serif" font-size="13" lengthAdjust="spacing" textLength="119" x="80" y="230.895">confirms the client</text><polygon fill="#A80036" points="71,261.0938,61,265.0938,71,269.0938,67,265.0938" style="stroke:#A80036;stroke-width:1.0;"/><line style="stroke:#A80036;stroke-width:1.0;stroke-dasharray:2.0,2.0;" x1="65" x2="505" y1="265.0938" y2="265.0938"/><text fill="#000000" font-family="sans-serif" font-size="13" font-weight="bold" lengthAdjust="spacing" textLength="9" x="77" y="260.0278">6</text><text fill="#000000" font-family="sans-serif" font-size="13" lengthAdjust="spacing" textLength="128" x="90" y="260.0278">shows all test types</text><polygon fill="#A80036" points="489,290.2266,499,294.2266,489,298.2266,493,294.2266" style="stroke:#A80036;stroke-width:1.0;"/><line style="stroke:#A80036;stroke-width:1.0;" x1="60" x2="495" y1="294.2266" y2="294.2266"/><text fill="#000000" font-family="sans-serif" font-size="13" font-weight="bold" lengthAdjust="spacing" textLength="9" x="67" y="289.1606">7</text><text fill="#000000" font-family="sans-serif" font-size="13" lengthAdjust="spacing" textLength="140" x="80" y="289.1606">chooses the test type</text><polygon fill="#A80036" points="71,319.3594,61,323.3594,71,327.3594,67,323.3594" style="stroke:#A80036;stroke-width:1.0;"/><line style="stroke:#A80036;stroke-width:1.0;stroke-dasharray:2.0,2.0;" x1="65" x2="505" y1="323.3594" y2="323.3594"/><text fill="#000000" font-family="sans-serif" font-size="13" font-weight="bold" lengthAdjust="spacing" textLength="9" x="77" y="318.2935">8</text><text fill="#000000" font-family="sans-serif" font-size="13" lengthAdjust="spacing" textLength="165" x="90" y="318.2935">shows a set of categories</text><polygon fill="#A80036" points="489,348.4922,499,352.4922,489,356.4922,493,352.4922" style="stroke:#A80036;stroke-width:1.0;"/><line style="stroke:#A80036;stroke-width:1.0;" x1="60" x2="495" y1="352.4922" y2="352.4922"/><text fill="#000000" font-family="sans-serif" font-size="13" font-weight="bold" lengthAdjust="spacing" textLength="9" x="67" y="347.4263">9</text><text fill="#000000" font-family="sans-serif" font-size="13" lengthAdjust="spacing" textLength="139" x="80" y="347.4263">chooses the category</text><polygon fill="#A80036" points="71,377.625,61,381.625,71,385.625,67,381.625" style="stroke:#A80036;stroke-width:1.0;"/><line style="stroke:#A80036;stroke-width:1.0;stroke-dasharray:2.0,2.0;" x1="65" x2="505" y1="381.625" y2="381.625"/><text fill="#000000" font-family="sans-serif" font-size="13" font-weight="bold" lengthAdjust="spacing" textLength="19" x="77" y="376.5591">10</text><text fill="#000000" font-family="sans-serif" font-size="13" lengthAdjust="spacing" textLength="145" x="100" y="376.5591">shows the parameters</text><polygon fill="#A80036" points="489,406.7578,499,410.7578,489,414.7578,493,410.7578" style="stroke:#A80036;stroke-width:1.0;"/><line style="stroke:#A80036;stroke-width:1.0;" x1="60" x2="495" y1="410.7578" y2="410.7578"/><text fill="#000000" font-family="sans-serif" font-size="13" font-weight="bold" lengthAdjust="spacing" textLength="18" x="67" y="405.6919">11</text><text fill="#000000" font-family="sans-serif" font-size="13" lengthAdjust="spacing" textLength="167" x="89" y="405.6919">chooses the parameter(s)</text><polygon fill="#A80036" points="71,435.8906,61,439.8906,71,443.8906,67,439.8906" style="stroke:#A80036;stroke-width:1.0;"/><line style="stroke:#A80036;stroke-width:1.0;stroke-dasharray:2.0,2.0;" x1="65" x2="505" y1="439.8906" y2="439.8906"/><text fill="#000000" font-family="sans-serif" font-size="13" font-weight="bold" lengthAdjust="spacing" textLength="18" x="77" y="434.8247">12</text><text fill="#000000" font-family="sans-serif" font-size="13" lengthAdjust="spacing" textLength="280" x="99" y="434.8247">shows the test and requests a confirmation</text><polygon fill="#A80036" points="489,465.0234,499,469.0234,489,473.0234,493,469.0234" style="stroke:#A80036;stroke-width:1.0;"/><line style="stroke:#A80036;stroke-width:1.0;" x1="60" x2="495" y1="469.0234" y2="469.0234"/><text fill="#000000" font-family="sans-serif" font-size="13" font-weight="bold" lengthAdjust="spacing" textLength="17" x="67" y="463.9575">13</text><text fill="#000000" font-family="sans-serif" font-size="13" lengthAdjust="spacing" textLength="146" x="88" y="463.9575">confirms the operation</text><polygon fill="#A80036" points="66,494.1563,56,498.1563,66,502.1563,62,498.1563" style="stroke:#A80036;stroke-width:1.0;"/><line style="stroke:#A80036;stroke-width:1.0;stroke-dasharray:2.0,2.0;" x1="60" x2="505" y1="498.1563" y2="498.1563"/><text fill="#000000" font-family="sans-serif" font-size="13" font-weight="bold" lengthAdjust="spacing" textLength="18" x="72" y="493.0903">14</text><text fill="#000000" font-family="sans-serif" font-size="13" lengthAdjust="spacing" textLength="169" x="94" y="493.0903">informs operation success</text><!--MD5=[7540572017b8fcaf7e80fcc3f1691313]
@startuml
autonumber
actor "Recepcionist" as Rec

activate Rec
Rec-> ":System" : chooses to register a test to be performed to a registered client
activate ":System"
":System" - -> Rec : requests data (nhsCode, clientCcn)
deactivate ":System"

Rec -> ":System" : types requested data
activate ":System"

":System" - -> Rec : shows the client linked to that CCN and asks for confirmation
deactivate ":System"

Rec -> ":System" : confirms the client
activate ":System"

":System" - -> Rec : shows all test types
deactivate ":System"

Rec -> ":System" : chooses the test type 
activate ":System"
":System" - -> Rec : shows a set of categories
deactivate ":System"

Rec -> ":System" : chooses the category 
activate ":System"
":System" - -> Rec : shows the parameters
deactivate ":System"

Rec -> ":System" : chooses the parameter(s)
activate ":System"

":System" - -> Rec : shows the test and requests a confirmation
deactivate ":System"

Rec -> ":System" : confirms the operation 
activate ":System"

":System" - -> Rec : informs operation success
deactivate ":System"
deactivate Rec
@enduml

PlantUML version 1.2021.7beta2(Unknown compile time)
(GPL source distribution)
Java Runtime: Java(TM) SE Runtime Environment
JVM: Java HotSpot(TM) 64-Bit Server VM
Default Encoding: UTF-8
Language: en
Country: US
--></g></svg>