<?xml version="1.0" encoding="UTF-8" standalone="no"?><svg xmlns="http://www.w3.org/2000/svg" xmlns:xlink="http://www.w3.org/1999/xlink" contentScriptType="application/ecmascript" contentStyleType="text/css" height="506px" preserveAspectRatio="none" style="width:918px;height:506px;background:#FFFFFF;" version="1.1" viewBox="0 0 918 506" width="918px" zoomAndPan="magnify"><defs><filter height="300%" id="f1cq05rf9j94o0" width="300%" x="-1" y="-1"><feGaussianBlur result="blurOut" stdDeviation="2.0"/><feColorMatrix in="blurOut" result="blurOut2" type="matrix" values="0 0 0 0 0 0 0 0 0 0 0 0 0 0 0 0 0 0 .4 0"/><feOffset dx="4.0" dy="4.0" in="blurOut2" result="blurOut3"/><feBlend in="SourceGraphic" in2="blurOut3" mode="normal"/></filter></defs><g><!--MD5=[aeb3272166074d8737a70b61b1e71682]
class TestType--><rect codeLine="5" fill="#FEFECE" filter="url(#f1cq05rf9j94o0)" height="78.4141" id="TestType" style="stroke:#A80036;stroke-width:1.5;" width="112" x="438" y="150.286"/><ellipse cx="463.8" cy="166.286" fill="#ADD1B2" rx="11" ry="11" style="stroke:#A80036;stroke-width:1.0;"/><path d="M466.1438,161.9579 C465.2063,161.5204 464.6125,161.3798 463.7375,161.3798 C461.1125,161.3798 459.1125,163.4579 459.1125,166.1766 L459.1125,167.3016 C459.1125,169.8798 461.2219,171.7704 464.1125,171.7704 C465.3313,171.7704 466.4875,171.4735 467.2375,170.9266 C467.8156,170.5204 468.1438,170.0673 468.1438,169.6766 C468.1438,169.2235 467.7531,168.8329 467.2844,168.8329 C467.0656,168.8329 466.8625,168.911 466.675,169.0985 C466.2219,169.5829 466.2219,169.5829 466.0344,169.6766 C465.6125,169.9423 464.925,170.0673 464.1594,170.0673 C462.1125,170.0673 460.8156,168.9735 460.8156,167.2704 L460.8156,166.1766 C460.8156,164.3954 462.0656,163.0829 463.8,163.0829 C464.3781,163.0829 464.9875,163.2391 465.4563,163.4891 C465.9406,163.7704 466.1125,163.9891 466.2063,164.3954 C466.2688,164.8016 466.3,164.9266 466.4406,165.0516 C466.5813,165.1923 466.8156,165.3016 467.0344,165.3016 C467.3,165.3016 467.5656,165.161 467.7375,164.9423 C467.8469,164.786 467.8781,164.5985 467.8781,164.1766 L467.8781,162.7548 C467.8781,162.3173 467.8625,162.1923 467.7688,162.036 C467.6125,161.7704 467.3313,161.6298 467.0344,161.6298 C466.7375,161.6298 466.5344,161.7235 466.3156,162.036 L466.1438,161.9579 Z " fill="#000000"/><text fill="#000000" font-family="sans-serif" font-size="12" lengthAdjust="spacing" textLength="56" x="480.2" y="170.4403">TestType</text><line style="stroke:#A80036;stroke-width:1.5;" x1="439" x2="549" y1="182.286" y2="182.286"/><text fill="#000000" font-family="sans-serif" font-size="11" lengthAdjust="spacing" textLength="32" x="444" y="196.4964">-code</text><text fill="#000000" font-family="sans-serif" font-size="11" lengthAdjust="spacing" textLength="66" x="444" y="209.3011">-description</text><text fill="#000000" font-family="sans-serif" font-size="11" lengthAdjust="spacing" textLength="100" x="444" y="222.1058">-collectingMethod</text><!--MD5=[02e4b9b7573f1156f41e60aa5b4e25a4]
class Company--><rect codeLine="11" fill="#FEFECE" filter="url(#f1cq05rf9j94o0)" height="52.8047" id="Company" style="stroke:#A80036;stroke-width:1.5;" width="88" x="7.5" y="106.786"/><ellipse cx="22.5" cy="122.786" fill="#ADD1B2" rx="11" ry="11" style="stroke:#A80036;stroke-width:1.0;"/><path d="M24.8438,118.4579 C23.9063,118.0204 23.3125,117.8798 22.4375,117.8798 C19.8125,117.8798 17.8125,119.9579 17.8125,122.6766 L17.8125,123.8016 C17.8125,126.3798 19.9219,128.2704 22.8125,128.2704 C24.0313,128.2704 25.1875,127.9735 25.9375,127.4266 C26.5156,127.0204 26.8438,126.5673 26.8438,126.1766 C26.8438,125.7235 26.4531,125.3329 25.9844,125.3329 C25.7656,125.3329 25.5625,125.411 25.375,125.5985 C24.9219,126.0829 24.9219,126.0829 24.7344,126.1766 C24.3125,126.4423 23.625,126.5673 22.8594,126.5673 C20.8125,126.5673 19.5156,125.4735 19.5156,123.7704 L19.5156,122.6766 C19.5156,120.8954 20.7656,119.5829 22.5,119.5829 C23.0781,119.5829 23.6875,119.7391 24.1563,119.9891 C24.6406,120.2704 24.8125,120.4891 24.9063,120.8954 C24.9688,121.3016 25,121.4266 25.1406,121.5516 C25.2813,121.6923 25.5156,121.8016 25.7344,121.8016 C26,121.8016 26.2656,121.661 26.4375,121.4423 C26.5469,121.286 26.5781,121.0985 26.5781,120.6766 L26.5781,119.2548 C26.5781,118.8173 26.5625,118.6923 26.4688,118.536 C26.3125,118.2704 26.0313,118.1298 25.7344,118.1298 C25.4375,118.1298 25.2344,118.2235 25.0156,118.536 L24.8438,118.4579 Z " fill="#000000"/><text fill="#000000" font-family="sans-serif" font-size="12" lengthAdjust="spacing" textLength="56" x="36.5" y="126.9403">Company</text><line style="stroke:#A80036;stroke-width:1.5;" x1="8.5" x2="94.5" y1="138.786" y2="138.786"/><text fill="#000000" font-family="sans-serif" font-size="11" lengthAdjust="spacing" textLength="70" x="13.5" y="152.9964">-designation</text><!--MD5=[df38be88ccee13e832d6fafd6288a4ca]
class Test--><rect codeLine="15" fill="#FEFECE" filter="url(#f1cq05rf9j94o0)" height="78.4141" id="Test" style="stroke:#A80036;stroke-width:1.5;" width="68" x="217" y="241.286"/><ellipse cx="236.5" cy="257.286" fill="#ADD1B2" rx="11" ry="11" style="stroke:#A80036;stroke-width:1.0;"/><path d="M238.8438,252.9579 C237.9063,252.5204 237.3125,252.3798 236.4375,252.3798 C233.8125,252.3798 231.8125,254.4579 231.8125,257.1766 L231.8125,258.3016 C231.8125,260.8798 233.9219,262.7704 236.8125,262.7704 C238.0313,262.7704 239.1875,262.4735 239.9375,261.9266 C240.5156,261.5204 240.8438,261.0673 240.8438,260.6766 C240.8438,260.2235 240.4531,259.8329 239.9844,259.8329 C239.7656,259.8329 239.5625,259.911 239.375,260.0985 C238.9219,260.5829 238.9219,260.5829 238.7344,260.6766 C238.3125,260.9423 237.625,261.0673 236.8594,261.0673 C234.8125,261.0673 233.5156,259.9735 233.5156,258.2704 L233.5156,257.1766 C233.5156,255.3954 234.7656,254.0829 236.5,254.0829 C237.0781,254.0829 237.6875,254.2391 238.1563,254.4891 C238.6406,254.7704 238.8125,254.9891 238.9063,255.3954 C238.9688,255.8016 239,255.9266 239.1406,256.0516 C239.2813,256.1923 239.5156,256.3016 239.7344,256.3016 C240,256.3016 240.2656,256.161 240.4375,255.9423 C240.5469,255.786 240.5781,255.5985 240.5781,255.1766 L240.5781,253.7548 C240.5781,253.3173 240.5625,253.1923 240.4688,253.036 C240.3125,252.7704 240.0313,252.6298 239.7344,252.6298 C239.4375,252.6298 239.2344,252.7235 239.0156,253.036 L238.8438,252.9579 Z " fill="#000000"/><text fill="#000000" font-family="sans-serif" font-size="12" lengthAdjust="spacing" textLength="26" x="251.5" y="261.4403">Test</text><line style="stroke:#A80036;stroke-width:1.5;" x1="218" x2="284" y1="273.286" y2="273.286"/><text fill="#000000" font-family="sans-serif" font-size="11" lengthAdjust="spacing" textLength="56" x="223" y="287.4964">-testCode</text><text fill="#000000" font-family="sans-serif" font-size="11" lengthAdjust="spacing" textLength="54" x="223" y="300.3011">-nhsCode</text><text fill="#000000" font-family="sans-serif" font-size="11" lengthAdjust="spacing" textLength="30" x="223" y="313.1058">-date</text><!--MD5=[36afb6bbd95a8ac778c4537c55a683d5]
class ParameterCategory--><rect codeLine="21" fill="#FEFECE" filter="url(#f1cq05rf9j94o0)" height="65.6094" id="ParameterCategory" style="stroke:#A80036;stroke-width:1.5;" width="148" x="712" y="47.286"/><ellipse cx="727" cy="63.286" fill="#ADD1B2" rx="11" ry="11" style="stroke:#A80036;stroke-width:1.0;"/><path d="M729.3438,58.9579 C728.4063,58.5204 727.8125,58.3798 726.9375,58.3798 C724.3125,58.3798 722.3125,60.4579 722.3125,63.1766 L722.3125,64.3016 C722.3125,66.8798 724.4219,68.7704 727.3125,68.7704 C728.5313,68.7704 729.6875,68.4735 730.4375,67.9266 C731.0156,67.5204 731.3438,67.0673 731.3438,66.6766 C731.3438,66.2235 730.9531,65.8329 730.4844,65.8329 C730.2656,65.8329 730.0625,65.911 729.875,66.0985 C729.4219,66.5829 729.4219,66.5829 729.2344,66.6766 C728.8125,66.9423 728.125,67.0673 727.3594,67.0673 C725.3125,67.0673 724.0156,65.9735 724.0156,64.2704 L724.0156,63.1766 C724.0156,61.3954 725.2656,60.0829 727,60.0829 C727.5781,60.0829 728.1875,60.2391 728.6563,60.4891 C729.1406,60.7704 729.3125,60.9891 729.4063,61.3954 C729.4688,61.8016 729.5,61.9266 729.6406,62.0516 C729.7813,62.1923 730.0156,62.3016 730.2344,62.3016 C730.5,62.3016 730.7656,62.161 730.9375,61.9423 C731.0469,61.786 731.0781,61.5985 731.0781,61.1766 L731.0781,59.7548 C731.0781,59.3173 731.0625,59.1923 730.9688,59.036 C730.8125,58.7704 730.5313,58.6298 730.2344,58.6298 C729.9375,58.6298 729.7344,58.7235 729.5156,59.036 L729.3438,58.9579 Z " fill="#000000"/><text fill="#000000" font-family="sans-serif" font-size="12" lengthAdjust="spacing" textLength="116" x="741" y="67.4403">ParameterCategory</text><line style="stroke:#A80036;stroke-width:1.5;" x1="713" x2="859" y1="79.286" y2="79.286"/><text fill="#000000" font-family="sans-serif" font-size="11" lengthAdjust="spacing" textLength="37" x="718" y="93.4964">-name</text><text fill="#000000" font-family="sans-serif" font-size="11" lengthAdjust="spacing" textLength="32" x="718" y="106.3011">-code</text><!--MD5=[03960189e81aa2c066c762ffabbee709]
class Receptionist--><rect codeLine="26" fill="#FEFECE" filter="url(#f1cq05rf9j94o0)" height="129.6328" id="Receptionist" style="stroke:#A80036;stroke-width:1.5;" width="236" x="668" y="285.286"/><ellipse cx="744.75" cy="301.286" fill="#ADD1B2" rx="11" ry="11" style="stroke:#A80036;stroke-width:1.0;"/><path d="M747.0938,296.9579 C746.1563,296.5204 745.5625,296.3798 744.6875,296.3798 C742.0625,296.3798 740.0625,298.4579 740.0625,301.1766 L740.0625,302.3016 C740.0625,304.8798 742.1719,306.7704 745.0625,306.7704 C746.2813,306.7704 747.4375,306.4735 748.1875,305.9266 C748.7656,305.5204 749.0938,305.0673 749.0938,304.6766 C749.0938,304.2235 748.7031,303.8329 748.2344,303.8329 C748.0156,303.8329 747.8125,303.911 747.625,304.0985 C747.1719,304.5829 747.1719,304.5829 746.9844,304.6766 C746.5625,304.9423 745.875,305.0673 745.1094,305.0673 C743.0625,305.0673 741.7656,303.9735 741.7656,302.2704 L741.7656,301.1766 C741.7656,299.3954 743.0156,298.0829 744.75,298.0829 C745.3281,298.0829 745.9375,298.2391 746.4063,298.4891 C746.8906,298.7704 747.0625,298.9891 747.1563,299.3954 C747.2188,299.8016 747.25,299.9266 747.3906,300.0516 C747.5313,300.1923 747.7656,300.3016 747.9844,300.3016 C748.25,300.3016 748.5156,300.161 748.6875,299.9423 C748.7969,299.786 748.8281,299.5985 748.8281,299.1766 L748.8281,297.7548 C748.8281,297.3173 748.8125,297.1923 748.7188,297.036 C748.5625,296.7704 748.2813,296.6298 747.9844,296.6298 C747.6875,296.6298 747.4844,296.7235 747.2656,297.036 L747.0938,296.9579 Z " fill="#000000"/><text fill="#000000" font-family="sans-serif" font-size="12" lengthAdjust="spacing" textLength="74" x="765.25" y="305.4403">Receptionist</text><line style="stroke:#A80036;stroke-width:1.5;" x1="669" x2="903" y1="317.286" y2="317.286"/><text fill="#000000" font-family="sans-serif" font-size="11" lengthAdjust="spacing" textLength="75" x="674" y="331.4964">-employeeID</text><text fill="#000000" font-family="sans-serif" font-size="11" lengthAdjust="spacing" textLength="99" x="674" y="344.3011">-organizationRole</text><text fill="#000000" font-family="sans-serif" font-size="11" lengthAdjust="spacing" textLength="37" x="674" y="357.1058">-name</text><text fill="#000000" font-family="sans-serif" font-size="11" lengthAdjust="spacing" textLength="49" x="674" y="369.9105">-address</text><text fill="#000000" font-family="sans-serif" font-size="11" lengthAdjust="spacing" textLength="85" x="674" y="382.7152">-phoneNumber</text><text fill="#000000" font-family="sans-serif" font-size="11" lengthAdjust="spacing" textLength="34" x="674" y="395.5199">-eMail</text><text fill="#000000" font-family="sans-serif" font-size="11" lengthAdjust="spacing" textLength="224" x="674" y="408.3246">-standardOcupationalClassificationCode</text><!--MD5=[ed6624c6556d5e7b1bd23032162d20b7]
class Client--><rect codeLine="36" fill="#FEFECE" filter="url(#f1cq05rf9j94o0)" height="142.4375" id="Client" style="stroke:#A80036;stroke-width:1.5;" width="97" x="445.5" y="350.286"/><ellipse cx="474.9" cy="366.286" fill="#ADD1B2" rx="11" ry="11" style="stroke:#A80036;stroke-width:1.0;"/><path d="M477.2438,361.9579 C476.3063,361.5204 475.7125,361.3798 474.8375,361.3798 C472.2125,361.3798 470.2125,363.4579 470.2125,366.1766 L470.2125,367.3016 C470.2125,369.8798 472.3219,371.7704 475.2125,371.7704 C476.4313,371.7704 477.5875,371.4735 478.3375,370.9266 C478.9156,370.5204 479.2438,370.0673 479.2438,369.6766 C479.2438,369.2235 478.8531,368.8329 478.3844,368.8329 C478.1656,368.8329 477.9625,368.911 477.775,369.0985 C477.3219,369.5829 477.3219,369.5829 477.1344,369.6766 C476.7125,369.9423 476.025,370.0673 475.2594,370.0673 C473.2125,370.0673 471.9156,368.9735 471.9156,367.2704 L471.9156,366.1766 C471.9156,364.3954 473.1656,363.0829 474.9,363.0829 C475.4781,363.0829 476.0875,363.2391 476.5563,363.4891 C477.0406,363.7704 477.2125,363.9891 477.3063,364.3954 C477.3688,364.8016 477.4,364.9266 477.5406,365.0516 C477.6813,365.1923 477.9156,365.3016 478.1344,365.3016 C478.4,365.3016 478.6656,365.161 478.8375,364.9423 C478.9469,364.786 478.9781,364.5985 478.9781,364.1766 L478.9781,362.7548 C478.9781,362.3173 478.9625,362.1923 478.8688,362.036 C478.7125,361.7704 478.4313,361.6298 478.1344,361.6298 C477.8375,361.6298 477.6344,361.7235 477.4156,362.036 L477.2438,361.9579 Z " fill="#000000"/><text fill="#000000" font-family="sans-serif" font-size="12" lengthAdjust="spacing" textLength="33" x="492.1" y="370.4403">Client</text><line style="stroke:#A80036;stroke-width:1.5;" x1="446.5" x2="541.5" y1="382.286" y2="382.286"/><text fill="#000000" font-family="sans-serif" font-size="11" lengthAdjust="spacing" textLength="23" x="451.5" y="396.4964">-ccn</text><text fill="#000000" font-family="sans-serif" font-size="11" lengthAdjust="spacing" textLength="37" x="451.5" y="409.3011">-name</text><text fill="#000000" font-family="sans-serif" font-size="11" lengthAdjust="spacing" textLength="69" x="451.5" y="422.1058">-nhsNumber</text><text fill="#000000" font-family="sans-serif" font-size="11" lengthAdjust="spacing" textLength="57" x="451.5" y="434.9105">-birthDate</text><text fill="#000000" font-family="sans-serif" font-size="11" lengthAdjust="spacing" textLength="25" x="451.5" y="447.7152">-sex</text><text fill="#000000" font-family="sans-serif" font-size="11" lengthAdjust="spacing" textLength="15" x="451.5" y="460.5199">-tif</text><text fill="#000000" font-family="sans-serif" font-size="11" lengthAdjust="spacing" textLength="85" x="451.5" y="473.3246">-phoneNumber</text><text fill="#000000" font-family="sans-serif" font-size="11" lengthAdjust="spacing" textLength="34" x="451.5" y="486.1293">-eMail</text><!--MD5=[a999c1570c205a2156b04a15307bc1ff]
class LabOrder--><rect codeLine="46" fill="#FEFECE" filter="url(#f1cq05rf9j94o0)" height="65.6094" id="LabOrder" style="stroke:#A80036;stroke-width:1.5;" width="89" x="7" y="330.286"/><ellipse cx="22" cy="346.286" fill="#ADD1B2" rx="11" ry="11" style="stroke:#A80036;stroke-width:1.0;"/><path d="M24.3438,341.9579 C23.4063,341.5204 22.8125,341.3798 21.9375,341.3798 C19.3125,341.3798 17.3125,343.4579 17.3125,346.1766 L17.3125,347.3016 C17.3125,349.8798 19.4219,351.7704 22.3125,351.7704 C23.5313,351.7704 24.6875,351.4735 25.4375,350.9266 C26.0156,350.5204 26.3438,350.0673 26.3438,349.6766 C26.3438,349.2235 25.9531,348.8329 25.4844,348.8329 C25.2656,348.8329 25.0625,348.911 24.875,349.0985 C24.4219,349.5829 24.4219,349.5829 24.2344,349.6766 C23.8125,349.9423 23.125,350.0673 22.3594,350.0673 C20.3125,350.0673 19.0156,348.9735 19.0156,347.2704 L19.0156,346.1766 C19.0156,344.3954 20.2656,343.0829 22,343.0829 C22.5781,343.0829 23.1875,343.2391 23.6563,343.4891 C24.1406,343.7704 24.3125,343.9891 24.4063,344.3954 C24.4688,344.8016 24.5,344.9266 24.6406,345.0516 C24.7813,345.1923 25.0156,345.3016 25.2344,345.3016 C25.5,345.3016 25.7656,345.161 25.9375,344.9423 C26.0469,344.786 26.0781,344.5985 26.0781,344.1766 L26.0781,342.7548 C26.0781,342.3173 26.0625,342.1923 25.9688,342.036 C25.8125,341.7704 25.5313,341.6298 25.2344,341.6298 C24.9375,341.6298 24.7344,341.7235 24.5156,342.036 L24.3438,341.9579 Z " fill="#000000"/><text fill="#000000" font-family="sans-serif" font-size="12" lengthAdjust="spacing" textLength="57" x="36" y="350.4403">LabOrder</text><line style="stroke:#A80036;stroke-width:1.5;" x1="8" x2="95" y1="362.286" y2="362.286"/><text fill="#000000" font-family="sans-serif" font-size="11" lengthAdjust="spacing" textLength="55" x="13" y="376.4964">-testType</text><text fill="#000000" font-family="sans-serif" font-size="11" lengthAdjust="spacing" textLength="70" x="13" y="389.3011">-parameters</text><!--MD5=[1f6362a5c8f21d8d6a0fce68f3a92a4e]
class Parameter--><rect codeLine="51" fill="#FEFECE" filter="url(#f1cq05rf9j94o0)" height="78.4141" id="Parameter" style="stroke:#A80036;stroke-width:1.5;" width="93" x="315" y="52.286"/><ellipse cx="330" cy="68.286" fill="#ADD1B2" rx="11" ry="11" style="stroke:#A80036;stroke-width:1.0;"/><path d="M332.3438,63.9579 C331.4063,63.5204 330.8125,63.3798 329.9375,63.3798 C327.3125,63.3798 325.3125,65.4579 325.3125,68.1766 L325.3125,69.3016 C325.3125,71.8798 327.4219,73.7704 330.3125,73.7704 C331.5313,73.7704 332.6875,73.4735 333.4375,72.9266 C334.0156,72.5204 334.3438,72.0673 334.3438,71.6766 C334.3438,71.2235 333.9531,70.8329 333.4844,70.8329 C333.2656,70.8329 333.0625,70.911 332.875,71.0985 C332.4219,71.5829 332.4219,71.5829 332.2344,71.6766 C331.8125,71.9423 331.125,72.0673 330.3594,72.0673 C328.3125,72.0673 327.0156,70.9735 327.0156,69.2704 L327.0156,68.1766 C327.0156,66.3954 328.2656,65.0829 330,65.0829 C330.5781,65.0829 331.1875,65.2391 331.6563,65.4891 C332.1406,65.7704 332.3125,65.9891 332.4063,66.3954 C332.4688,66.8016 332.5,66.9266 332.6406,67.0516 C332.7813,67.1923 333.0156,67.3016 333.2344,67.3016 C333.5,67.3016 333.7656,67.161 333.9375,66.9423 C334.0469,66.786 334.0781,66.5985 334.0781,66.1766 L334.0781,64.7548 C334.0781,64.3173 334.0625,64.1923 333.9688,64.036 C333.8125,63.7704 333.5313,63.6298 333.2344,63.6298 C332.9375,63.6298 332.7344,63.7235 332.5156,64.036 L332.3438,63.9579 Z " fill="#000000"/><text fill="#000000" font-family="sans-serif" font-size="12" lengthAdjust="spacing" textLength="61" x="344" y="72.4403">Parameter</text><line style="stroke:#A80036;stroke-width:1.5;" x1="316" x2="407" y1="84.286" y2="84.286"/><text fill="#000000" font-family="sans-serif" font-size="11" lengthAdjust="spacing" textLength="32" x="321" y="98.4964">-code</text><text fill="#000000" font-family="sans-serif" font-size="11" lengthAdjust="spacing" textLength="65" x="321" y="111.3011">-shortname</text><text fill="#000000" font-family="sans-serif" font-size="11" lengthAdjust="spacing" textLength="66" x="321" y="124.1058">-description</text><!--MD5=[742a261f27a3dcd734c626287d811acd]
link Company to TestType--><path codeLine="56" d="M95.539,138.757 C174.472,148.792 342.545,170.159 432.772,181.629 " fill="none" id="Company-to-TestType" style="stroke:#A80036;stroke-width:1.0;"/><polygon fill="#A80036" points="437.805,182.269,429.382,177.1648,432.845,181.6378,428.372,185.1008,437.805,182.269" style="stroke:#A80036;stroke-width:1.0;"/><text fill="#000000" font-family="sans-serif" font-size="13" lengthAdjust="spacing" textLength="58" x="222" y="150.3529">conducts</text><text fill="#000000" font-family="sans-serif" font-size="13" lengthAdjust="spacing" textLength="8" x="103.4955" y="152.9994">1</text><text fill="#000000" font-family="sans-serif" font-size="13" lengthAdjust="spacing" textLength="7" x="423.1566" y="194.3798">*</text><!--MD5=[93b4f25fb503a8e0e9a46b1d30ff3f44]
link Company to ParameterCategory--><path codeLine="57" d="M91.7042,106.57 C102.46,100.156 114.371,93.85 126,89.286 C338.214,6 411.031,36.926 638,58.286 C660.452,60.399 684.706,63.633 706.914,66.977 " fill="none" id="Company-to-ParameterCategory" style="stroke:#A80036;stroke-width:1.0;"/><polygon fill="#A80036" points="711.916,67.737,703.6192,62.4301,706.9728,66.9857,702.4172,70.3393,711.916,67.737" style="stroke:#A80036;stroke-width:1.0;"/><text fill="#000000" font-family="sans-serif" font-size="13" lengthAdjust="spacing" textLength="47" x="338" y="30.3529">defines</text><text fill="#000000" font-family="sans-serif" font-size="13" lengthAdjust="spacing" textLength="8" x="92.0764" y="95.7624">1</text><text fill="#000000" font-family="sans-serif" font-size="13" lengthAdjust="spacing" textLength="7" x="696.9152" y="62.7633">*</text><!--MD5=[e981d4f96c4342412d1e68160b30cf70]
link Test to TestType--><path codeLine="58" d="M285.246,266.265 C294.818,262.31 305.295,258.059 315,254.286 C354.017,239.119 398.222,222.971 432.82,210.564 " fill="none" id="Test-to-TestType" style="stroke:#A80036;stroke-width:1.0;"/><polygon fill="#A80036" points="437.853,208.761,428.0311,208.0322,433.1462,210.448,430.7304,215.5631,437.853,208.761" style="stroke:#A80036;stroke-width:1.0;"/><text fill="#000000" font-family="sans-serif" font-size="13" lengthAdjust="spacing" textLength="27" x="348" y="215.3529">is of</text><text fill="#000000" font-family="sans-serif" font-size="13" lengthAdjust="spacing" textLength="7" x="293.0311" y="276.9579">*</text><text fill="#000000" font-family="sans-serif" font-size="13" lengthAdjust="spacing" textLength="8" x="422.1467" y="224.266">1</text><!--MD5=[7e4bc624457760b649895ff2ead938fa]
link Company to Test--><path codeLine="59" d="M73.8864,159.84 C87.6832,175.933 106.6189,196.2 126,211.286 C152.812,232.157 186.724,250.566 212.304,263.109 " fill="none" id="Company-to-Test" style="stroke:#A80036;stroke-width:1.0;"/><polygon fill="#A80036" points="216.98,265.382,210.6339,257.8502,212.483,263.1964,207.1369,265.0454,216.98,265.382" style="stroke:#A80036;stroke-width:1.0;"/><text fill="#000000" font-family="sans-serif" font-size="13" lengthAdjust="spacing" textLength="59" x="127" y="207.3529">performs</text><text fill="#000000" font-family="sans-serif" font-size="13" lengthAdjust="spacing" textLength="8" x="70.1383" y="179.8198">1</text><text fill="#000000" font-family="sans-serif" font-size="13" lengthAdjust="spacing" textLength="7" x="201.7725" y="275.7985">*</text><!--MD5=[8aaf0efd5e2f3824be7ea3e488dcc283]
link TestType to ParameterCategory--><path codeLine="60" d="M550.229,168.527 C594.647,151.833 657.593,128.174 707.127,109.555 " fill="none" id="TestType-to-ParameterCategory" style="stroke:#A80036;stroke-width:1.0;"/><polygon fill="#A80036" points="711.878,107.77,702.0462,107.1914,707.1975,109.5287,704.8602,114.6801,711.878,107.77" style="stroke:#A80036;stroke-width:1.0;"/><text fill="#000000" font-family="sans-serif" font-size="13" lengthAdjust="spacing" textLength="32" x="593" y="133.3529">have</text><text fill="#000000" font-family="sans-serif" font-size="13" lengthAdjust="spacing" textLength="7" x="557.8818" y="178.8771">*</text><text fill="#000000" font-family="sans-serif" font-size="13" lengthAdjust="spacing" textLength="23" x="680.9847" y="123.0861">1..*</text><!--MD5=[83999087262e3f95ecaa1d42f873aabe]
reverse link Client to Receptionist--><path codeLine="61" d="M547.44,408.4473 C581.067,400.2145 626.106,389.188 667.924,378.949 " fill="none" id="Client-backto-Receptionist" style="stroke:#A80036;stroke-width:1.0;"/><polygon fill="#A80036" points="542.563,409.6413,552.2564,411.3845,547.4193,408.4514,550.3525,403.6143,542.563,409.6413" style="stroke:#A80036;stroke-width:1.0;"/><text fill="#000000" font-family="sans-serif" font-size="13" lengthAdjust="spacing" textLength="56" x="581" y="383.3529">registers</text><text fill="#000000" font-family="sans-serif" font-size="13" lengthAdjust="spacing" textLength="7" x="550.5351" y="421.0502">*</text><text fill="#000000" font-family="sans-serif" font-size="13" lengthAdjust="spacing" textLength="8" x="652.1035" y="393.3486">1</text><!--MD5=[84a279e28ad6c3248737114c29c49c27]
link LabOrder to Test--><path codeLine="63" d="M96.3317,344.866 C130.993,330.299 178.889,310.17 211.953,296.275 " fill="none" id="LabOrder-to-Test" style="stroke:#A80036;stroke-width:1.0;"/><polygon fill="#A80036" points="216.72,294.272,206.8732,294.0709,212.1104,296.209,209.9723,301.4462,216.72,294.272" style="stroke:#A80036;stroke-width:1.0;"/><text fill="#000000" font-family="sans-serif" font-size="13" lengthAdjust="spacing" textLength="46" x="133.5" y="302.3529">used in</text><text fill="#000000" font-family="sans-serif" font-size="13" lengthAdjust="spacing" textLength="8" x="104.1143" y="355.2342">1</text><text fill="#000000" font-family="sans-serif" font-size="13" lengthAdjust="spacing" textLength="8" x="200.8248" y="310.7414">1</text><!--MD5=[6df8849671cb880f6936e94aa30db6f9]
link Parameter to ParameterCategory--><path codeLine="64" d="M408.116,90.098 C479.561,88.238 618.743,84.615 706.512,82.329 " fill="none" id="Parameter-to-ParameterCategory" style="stroke:#A80036;stroke-width:1.0;"/><polygon fill="#A80036" points="711.695,82.195,702.594,78.4303,706.6967,82.325,702.802,86.4276,711.695,82.195" style="stroke:#A80036;stroke-width:1.0;"/><text fill="#000000" font-family="sans-serif" font-size="13" lengthAdjust="spacing" textLength="106" x="441" y="82.3529">presented under</text><text fill="#000000" font-family="sans-serif" font-size="13" lengthAdjust="spacing" textLength="7" x="416.1032" y="103.1485">*</text><text fill="#000000" font-family="sans-serif" font-size="13" lengthAdjust="spacing" textLength="8" x="695.9869" y="95.2139">1</text><!--MD5=[12d76240d3c3c66074d4ec2ea8bf469c]
link Company to Parameter--><path codeLine="66" d="M95.6504,127.402 C151.818,119.743 249.836,106.377 309.581,98.229 " fill="none" id="Company-to-Parameter" style="stroke:#A80036;stroke-width:1.0;"/><polygon fill="#A80036" points="314.884,97.506,305.426,94.7589,309.9299,98.1817,306.5071,102.6856,314.884,97.506" style="stroke:#A80036;stroke-width:1.0;"/><text fill="#000000" font-family="sans-serif" font-size="13" lengthAdjust="spacing" textLength="56" x="128.5" y="110.3529">specifies</text><text fill="#000000" font-family="sans-serif" font-size="13" lengthAdjust="spacing" textLength="8" x="103.6253" y="122.2793">1</text><text fill="#000000" font-family="sans-serif" font-size="13" lengthAdjust="spacing" textLength="7" x="299.8968" y="111.7371">*</text><!--MD5=[65c5b509916ed9c0531bcd26c55dbd83]
reverse link LabOrder to Client--><path codeLine="67" d="M101.3274,369.715 C186.467,380.925 361.04,403.911 445.349,415.0118 " fill="none" id="LabOrder-backto-Client" style="stroke:#A80036;stroke-width:1.0;"/><polygon fill="#A80036" points="96.3473,369.059,104.748,374.1999,101.3045,369.7119,105.7925,366.2684,96.3473,369.059" style="stroke:#A80036;stroke-width:1.0;"/><text fill="#000000" font-family="sans-serif" font-size="13" lengthAdjust="spacing" textLength="39" x="231.5" y="381.3529">brings</text><text fill="#000000" font-family="sans-serif" font-size="13" lengthAdjust="spacing" textLength="24" x="103.9862" y="382.9446">1..2</text><text fill="#000000" font-family="sans-serif" font-size="13" lengthAdjust="spacing" textLength="8" x="429.6159" y="427.2364">1</text><!--MD5=[6dba24dc0f16d673b4663f61de2d8959]
reverse link Test to Client--><path codeLine="68" d="M289.791,306.939 C298.006,312.49 306.718,318.196 315,323.286 C358.278,349.885 409.189,377.568 445.452,396.6994 " fill="none" id="Test-backto-Client" style="stroke:#A80036;stroke-width:1.0;"/><polygon fill="#A80036" points="285.285,303.876,290.4793,312.2438,289.42,306.687,294.9768,305.6277,285.285,303.876" style="stroke:#A80036;stroke-width:1.0;"/><text fill="#000000" font-family="sans-serif" font-size="13" lengthAdjust="spacing" textLength="71" x="326" y="319.3529">performs a</text><text fill="#000000" font-family="sans-serif" font-size="13" lengthAdjust="spacing" textLength="8" x="293.1813" y="322.3262">1</text><text fill="#000000" font-family="sans-serif" font-size="13" lengthAdjust="spacing" textLength="8" x="429.4056" y="406.1266">1</text><!--MD5=[e8b34c2e6517a986175307f5599f058a]
link Receptionist to Test--><path codeLine="69" d="M667.871,334.903 C547.887,319.146 368.239,295.552 290.325,285.319 " fill="none" id="Receptionist-to-Test" style="stroke:#A80036;stroke-width:1.0;"/><polygon fill="#A80036" points="285.342,284.665,293.7441,289.8035,290.2994,285.3165,294.7864,281.8717,285.342,284.665" style="stroke:#A80036;stroke-width:1.0;"/><text fill="#000000" font-family="sans-serif" font-size="13" lengthAdjust="spacing" textLength="56" x="466" y="300.3529">registers</text><text fill="#000000" font-family="sans-serif" font-size="13" lengthAdjust="spacing" textLength="8" x="652.0471" y="346.4809">1</text><text fill="#000000" font-family="sans-serif" font-size="13" lengthAdjust="spacing" textLength="7" x="293.1469" y="299.1529">*</text><!--MD5=[63cc8476b80e8f506a33a6046819a5d5]
@startuml
skinparam classAttributeIconSize 0
hide methods
left to right direction

class TestType {
  -code
  -description
  -collectingMethod
}

class Company {
  -designation
}

class Test {
-testCode
-nhsCode
-date
}

class ParameterCategory {
  -name
  -code
}

Class Receptionist{
-employeeID
-organizationRole
-name
-address
-phoneNumber
-eMail
-standardOcupationalClassificationCode
}

Class Client{
-ccn
-name
-nhsNumber
-birthDate
-sex
-tif
-phoneNumber
-eMail
}
Class LabOrder{
-testType
-parameters
}

class Parameter {
 -code
 -shortname
 -description
}
Company "1" - -> "*" TestType : conducts 
Company "1" - -> "*" ParameterCategory : defines 
Test "*" - -> "1" TestType : is of 
Company "1" - -> "*" Test : performs 
TestType "*" - -> "1..*" ParameterCategory : have 
Client "*" <- - "1" Receptionist : registers

LabOrder "1" - -> "1" Test : used in
Parameter "*" - -> "1" ParameterCategory : presented under

Company "1" - -> "*" Parameter : specifies
LabOrder "1..2" <- - "1" Client: brings
Test "1" <- - "1" Client: performs a
Receptionist "1" - -> "*" Test : registers
@enduml

PlantUML version 1.2021.7beta2(Unknown compile time)
(GPL source distribution)
Java Runtime: Java(TM) SE Runtime Environment
JVM: Java HotSpot(TM) 64-Bit Server VM
Default Encoding: UTF-8
Language: en
Country: US
--></g></svg>