<?xml version="1.0" encoding="UTF-8" standalone="no"?><svg xmlns="http://www.w3.org/2000/svg" xmlns:xlink="http://www.w3.org/1999/xlink" contentScriptType="application/ecmascript" contentStyleType="text/css" height="505px" preserveAspectRatio="none" style="width:1277px;height:505px;background:#FFFFFF;" version="1.1" viewBox="0 0 1277 505" width="1277px" zoomAndPan="magnify"><defs><filter height="300%" id="f1oeqbs1n5lhp7" width="300%" x="-1" y="-1"><feGaussianBlur result="blurOut" stdDeviation="2.0"/><feColorMatrix in="blurOut" result="blurOut2" type="matrix" values="0 0 0 0 0 0 0 0 0 0 0 0 0 0 0 0 0 0 .4 0"/><feOffset dx="4.0" dy="4.0" in="blurOut2" result="blurOut3"/><feBlend in="SourceGraphic" in2="blurOut3" mode="normal"/></filter></defs><g><!--MD5=[aeb3272166074d8737a70b61b1e71682]
class TestType--><rect codeLine="5" fill="#FEFECE" filter="url(#f1oeqbs1n5lhp7)" height="78.4141" id="TestType" style="stroke:#A80036;stroke-width:1.5;" width="112" x="430" y="148.679"/><ellipse cx="455.8" cy="164.679" fill="#ADD1B2" rx="11" ry="11" style="stroke:#A80036;stroke-width:1.0;"/><path d="M458.1438,160.3509 C457.2063,159.9134 456.6125,159.7727 455.7375,159.7727 C453.1125,159.7727 451.1125,161.8509 451.1125,164.5696 L451.1125,165.6946 C451.1125,168.2727 453.2219,170.1634 456.1125,170.1634 C457.3313,170.1634 458.4875,169.8665 459.2375,169.3196 C459.8156,168.9134 460.1438,168.4602 460.1438,168.0696 C460.1438,167.6165 459.7531,167.2259 459.2844,167.2259 C459.0656,167.2259 458.8625,167.304 458.675,167.4915 C458.2219,167.9759 458.2219,167.9759 458.0344,168.0696 C457.6125,168.3352 456.925,168.4602 456.1594,168.4602 C454.1125,168.4602 452.8156,167.3665 452.8156,165.6634 L452.8156,164.5696 C452.8156,162.7884 454.0656,161.4759 455.8,161.4759 C456.3781,161.4759 456.9875,161.6321 457.4563,161.8821 C457.9406,162.1634 458.1125,162.3821 458.2063,162.7884 C458.2688,163.1946 458.3,163.3196 458.4406,163.4446 C458.5813,163.5852 458.8156,163.6946 459.0344,163.6946 C459.3,163.6946 459.5656,163.554 459.7375,163.3352 C459.8469,163.179 459.8781,162.9915 459.8781,162.5696 L459.8781,161.1477 C459.8781,160.7102 459.8625,160.5852 459.7688,160.429 C459.6125,160.1634 459.3313,160.0227 459.0344,160.0227 C458.7375,160.0227 458.5344,160.1165 458.3156,160.429 L458.1438,160.3509 Z " fill="#000000"/><text fill="#000000" font-family="sans-serif" font-size="12" lengthAdjust="spacing" textLength="56" x="472.2" y="168.8333">TestType</text><line style="stroke:#A80036;stroke-width:1.5;" x1="431" x2="541" y1="180.679" y2="180.679"/><text fill="#000000" font-family="sans-serif" font-size="11" lengthAdjust="spacing" textLength="32" x="436" y="194.8894">-code</text><text fill="#000000" font-family="sans-serif" font-size="11" lengthAdjust="spacing" textLength="66" x="436" y="207.6941">-description</text><text fill="#000000" font-family="sans-serif" font-size="11" lengthAdjust="spacing" textLength="100" x="436" y="220.4988">-collectingMethod</text><!--MD5=[02e4b9b7573f1156f41e60aa5b4e25a4]
class Company--><rect codeLine="11" fill="#FEFECE" filter="url(#f1oeqbs1n5lhp7)" height="52.8047" id="Company" style="stroke:#A80036;stroke-width:1.5;" width="88" x="7.5" y="101.179"/><ellipse cx="22.5" cy="117.179" fill="#ADD1B2" rx="11" ry="11" style="stroke:#A80036;stroke-width:1.0;"/><path d="M24.8438,112.8509 C23.9063,112.4134 23.3125,112.2727 22.4375,112.2727 C19.8125,112.2727 17.8125,114.3509 17.8125,117.0696 L17.8125,118.1946 C17.8125,120.7727 19.9219,122.6634 22.8125,122.6634 C24.0313,122.6634 25.1875,122.3665 25.9375,121.8196 C26.5156,121.4134 26.8438,120.9602 26.8438,120.5696 C26.8438,120.1165 26.4531,119.7259 25.9844,119.7259 C25.7656,119.7259 25.5625,119.804 25.375,119.9915 C24.9219,120.4759 24.9219,120.4759 24.7344,120.5696 C24.3125,120.8352 23.625,120.9602 22.8594,120.9602 C20.8125,120.9602 19.5156,119.8665 19.5156,118.1634 L19.5156,117.0696 C19.5156,115.2884 20.7656,113.9759 22.5,113.9759 C23.0781,113.9759 23.6875,114.1321 24.1563,114.3821 C24.6406,114.6634 24.8125,114.8821 24.9063,115.2884 C24.9688,115.6946 25,115.8196 25.1406,115.9446 C25.2813,116.0852 25.5156,116.1946 25.7344,116.1946 C26,116.1946 26.2656,116.054 26.4375,115.8352 C26.5469,115.679 26.5781,115.4915 26.5781,115.0696 L26.5781,113.6477 C26.5781,113.2102 26.5625,113.0852 26.4688,112.929 C26.3125,112.6634 26.0313,112.5227 25.7344,112.5227 C25.4375,112.5227 25.2344,112.6165 25.0156,112.929 L24.8438,112.8509 Z " fill="#000000"/><text fill="#000000" font-family="sans-serif" font-size="12" lengthAdjust="spacing" textLength="56" x="36.5" y="121.3333">Company</text><line style="stroke:#A80036;stroke-width:1.5;" x1="8.5" x2="94.5" y1="133.179" y2="133.179"/><text fill="#000000" font-family="sans-serif" font-size="11" lengthAdjust="spacing" textLength="70" x="13.5" y="147.3894">-designation</text><!--MD5=[df38be88ccee13e832d6fafd6288a4ca]
class Test--><rect codeLine="57" fill="#FEFECE" filter="url(#f1oeqbs1n5lhp7)" height="52.8047" id="Test" style="stroke:#A80036;stroke-width:1.5;" width="58" x="218" y="252.179"/><ellipse cx="233" cy="268.179" fill="#ADD1B2" rx="11" ry="11" style="stroke:#A80036;stroke-width:1.0;"/><path d="M235.3438,263.8509 C234.4063,263.4134 233.8125,263.2728 232.9375,263.2728 C230.3125,263.2728 228.3125,265.3509 228.3125,268.0696 L228.3125,269.1946 C228.3125,271.7728 230.4219,273.6634 233.3125,273.6634 C234.5313,273.6634 235.6875,273.3665 236.4375,272.8196 C237.0156,272.4134 237.3438,271.9603 237.3438,271.5696 C237.3438,271.1165 236.9531,270.7259 236.4844,270.7259 C236.2656,270.7259 236.0625,270.804 235.875,270.9915 C235.4219,271.4759 235.4219,271.4759 235.2344,271.5696 C234.8125,271.8353 234.125,271.9603 233.3594,271.9603 C231.3125,271.9603 230.0156,270.8665 230.0156,269.1634 L230.0156,268.0696 C230.0156,266.2884 231.2656,264.9759 233,264.9759 C233.5781,264.9759 234.1875,265.1321 234.6563,265.3821 C235.1406,265.6634 235.3125,265.8821 235.4063,266.2884 C235.4688,266.6946 235.5,266.8196 235.6406,266.9446 C235.7813,267.0853 236.0156,267.1946 236.2344,267.1946 C236.5,267.1946 236.7656,267.054 236.9375,266.8353 C237.0469,266.679 237.0781,266.4915 237.0781,266.0696 L237.0781,264.6478 C237.0781,264.2103 237.0625,264.0853 236.9688,263.929 C236.8125,263.6634 236.5313,263.5228 236.2344,263.5228 C235.9375,263.5228 235.7344,263.6165 235.5156,263.929 L235.3438,263.8509 Z " fill="#000000"/><text fill="#000000" font-family="sans-serif" font-size="12" lengthAdjust="spacing" textLength="26" x="247" y="272.3333">Test</text><line style="stroke:#A80036;stroke-width:1.5;" x1="219" x2="275" y1="284.179" y2="284.179"/><text fill="#000000" font-family="sans-serif" font-size="11" lengthAdjust="spacing" textLength="30" x="224" y="298.3894">-date</text><!--MD5=[da547346deef918ea16944ba046651ef]
class Administrator--><rect codeLine="18" fill="#FEFECE" filter="url(#f1oeqbs1n5lhp7)" height="129.6328" id="Administrator" style="stroke:#A80036;stroke-width:1.5;" width="236" x="1027" y="13.679"/><ellipse cx="1100.75" cy="29.679" fill="#ADD1B2" rx="11" ry="11" style="stroke:#A80036;stroke-width:1.0;"/><path d="M1103.0938,25.3509 C1102.1563,24.9134 1101.5625,24.7727 1100.6875,24.7727 C1098.0625,24.7727 1096.0625,26.8509 1096.0625,29.5696 L1096.0625,30.6946 C1096.0625,33.2727 1098.1719,35.1634 1101.0625,35.1634 C1102.2813,35.1634 1103.4375,34.8665 1104.1875,34.3196 C1104.7656,33.9134 1105.0938,33.4602 1105.0938,33.0696 C1105.0938,32.6165 1104.7031,32.2259 1104.2344,32.2259 C1104.0156,32.2259 1103.8125,32.304 1103.625,32.4915 C1103.1719,32.9759 1103.1719,32.9759 1102.9844,33.0696 C1102.5625,33.3352 1101.875,33.4602 1101.1094,33.4602 C1099.0625,33.4602 1097.7656,32.3665 1097.7656,30.6634 L1097.7656,29.5696 C1097.7656,27.7884 1099.0156,26.4759 1100.75,26.4759 C1101.3281,26.4759 1101.9375,26.6321 1102.4063,26.8821 C1102.8906,27.1634 1103.0625,27.3821 1103.1563,27.7884 C1103.2188,28.1946 1103.25,28.3196 1103.3906,28.4446 C1103.5313,28.5852 1103.7656,28.6946 1103.9844,28.6946 C1104.25,28.6946 1104.5156,28.554 1104.6875,28.3352 C1104.7969,28.179 1104.8281,27.9915 1104.8281,27.5696 L1104.8281,26.1477 C1104.8281,25.7102 1104.8125,25.5852 1104.7188,25.429 C1104.5625,25.1634 1104.2813,25.0227 1103.9844,25.0227 C1103.6875,25.0227 1103.4844,25.1165 1103.2656,25.429 L1103.0938,25.3509 Z " fill="#000000"/><text fill="#000000" font-family="sans-serif" font-size="12" lengthAdjust="spacing" textLength="80" x="1121.25" y="33.8333">Administrator</text><line style="stroke:#A80036;stroke-width:1.5;" x1="1028" x2="1262" y1="45.679" y2="45.679"/><text fill="#000000" font-family="sans-serif" font-size="11" lengthAdjust="spacing" textLength="75" x="1033" y="59.8894">-employeeID</text><text fill="#000000" font-family="sans-serif" font-size="11" lengthAdjust="spacing" textLength="99" x="1033" y="72.6941">-organizationRole</text><text fill="#000000" font-family="sans-serif" font-size="11" lengthAdjust="spacing" textLength="37" x="1033" y="85.4988">-name</text><text fill="#000000" font-family="sans-serif" font-size="11" lengthAdjust="spacing" textLength="49" x="1033" y="98.3035">-address</text><text fill="#000000" font-family="sans-serif" font-size="11" lengthAdjust="spacing" textLength="85" x="1033" y="111.1082">-phoneNumber</text><text fill="#000000" font-family="sans-serif" font-size="11" lengthAdjust="spacing" textLength="34" x="1033" y="123.9129">-eMail</text><text fill="#000000" font-family="sans-serif" font-size="11" lengthAdjust="spacing" textLength="224" x="1033" y="136.7176">-standardOcupationalClassificationCode</text><!--MD5=[36afb6bbd95a8ac778c4537c55a683d5]
class ParameterCategory--><rect codeLine="28" fill="#FEFECE" filter="url(#f1oeqbs1n5lhp7)" height="65.6094" id="ParameterCategory" style="stroke:#A80036;stroke-width:1.5;" width="148" x="704" y="45.679"/><ellipse cx="719" cy="61.679" fill="#ADD1B2" rx="11" ry="11" style="stroke:#A80036;stroke-width:1.0;"/><path d="M721.3438,57.3509 C720.4063,56.9134 719.8125,56.7727 718.9375,56.7727 C716.3125,56.7727 714.3125,58.8509 714.3125,61.5696 L714.3125,62.6946 C714.3125,65.2727 716.4219,67.1634 719.3125,67.1634 C720.5313,67.1634 721.6875,66.8665 722.4375,66.3196 C723.0156,65.9134 723.3438,65.4602 723.3438,65.0696 C723.3438,64.6165 722.9531,64.2259 722.4844,64.2259 C722.2656,64.2259 722.0625,64.304 721.875,64.4915 C721.4219,64.9759 721.4219,64.9759 721.2344,65.0696 C720.8125,65.3352 720.125,65.4602 719.3594,65.4602 C717.3125,65.4602 716.0156,64.3665 716.0156,62.6634 L716.0156,61.5696 C716.0156,59.7884 717.2656,58.4759 719,58.4759 C719.5781,58.4759 720.1875,58.6321 720.6563,58.8821 C721.1406,59.1634 721.3125,59.3821 721.4063,59.7884 C721.4688,60.1946 721.5,60.3196 721.6406,60.4446 C721.7813,60.5852 722.0156,60.6946 722.2344,60.6946 C722.5,60.6946 722.7656,60.554 722.9375,60.3352 C723.0469,60.179 723.0781,59.9915 723.0781,59.5696 L723.0781,58.1477 C723.0781,57.7102 723.0625,57.5852 722.9688,57.429 C722.8125,57.1634 722.5313,57.0227 722.2344,57.0227 C721.9375,57.0227 721.7344,57.1165 721.5156,57.429 L721.3438,57.3509 Z " fill="#000000"/><text fill="#000000" font-family="sans-serif" font-size="12" lengthAdjust="spacing" textLength="116" x="733" y="65.8333">ParameterCategory</text><line style="stroke:#A80036;stroke-width:1.5;" x1="705" x2="851" y1="77.679" y2="77.679"/><text fill="#000000" font-family="sans-serif" font-size="11" lengthAdjust="spacing" textLength="37" x="710" y="91.8894">-name</text><text fill="#000000" font-family="sans-serif" font-size="11" lengthAdjust="spacing" textLength="32" x="710" y="104.6941">-code</text><!--MD5=[03960189e81aa2c066c762ffabbee709]
class Receptionist--><rect codeLine="33" fill="#FEFECE" filter="url(#f1oeqbs1n5lhp7)" height="129.6328" id="Receptionist" style="stroke:#A80036;stroke-width:1.5;" width="236" x="660" y="283.679"/><ellipse cx="736.75" cy="299.679" fill="#ADD1B2" rx="11" ry="11" style="stroke:#A80036;stroke-width:1.0;"/><path d="M739.0938,295.3509 C738.1563,294.9134 737.5625,294.7728 736.6875,294.7728 C734.0625,294.7728 732.0625,296.8509 732.0625,299.5696 L732.0625,300.6946 C732.0625,303.2728 734.1719,305.1634 737.0625,305.1634 C738.2813,305.1634 739.4375,304.8665 740.1875,304.3196 C740.7656,303.9134 741.0938,303.4603 741.0938,303.0696 C741.0938,302.6165 740.7031,302.2259 740.2344,302.2259 C740.0156,302.2259 739.8125,302.304 739.625,302.4915 C739.1719,302.9759 739.1719,302.9759 738.9844,303.0696 C738.5625,303.3353 737.875,303.4603 737.1094,303.4603 C735.0625,303.4603 733.7656,302.3665 733.7656,300.6634 L733.7656,299.5696 C733.7656,297.7884 735.0156,296.4759 736.75,296.4759 C737.3281,296.4759 737.9375,296.6321 738.4063,296.8821 C738.8906,297.1634 739.0625,297.3821 739.1563,297.7884 C739.2188,298.1946 739.25,298.3196 739.3906,298.4446 C739.5313,298.5853 739.7656,298.6946 739.9844,298.6946 C740.25,298.6946 740.5156,298.554 740.6875,298.3353 C740.7969,298.179 740.8281,297.9915 740.8281,297.5696 L740.8281,296.1478 C740.8281,295.7103 740.8125,295.5853 740.7188,295.429 C740.5625,295.1634 740.2813,295.0228 739.9844,295.0228 C739.6875,295.0228 739.4844,295.1165 739.2656,295.429 L739.0938,295.3509 Z " fill="#000000"/><text fill="#000000" font-family="sans-serif" font-size="12" lengthAdjust="spacing" textLength="74" x="757.25" y="303.8333">Receptionist</text><line style="stroke:#A80036;stroke-width:1.5;" x1="661" x2="895" y1="315.679" y2="315.679"/><text fill="#000000" font-family="sans-serif" font-size="11" lengthAdjust="spacing" textLength="75" x="666" y="329.8894">-employeeID</text><text fill="#000000" font-family="sans-serif" font-size="11" lengthAdjust="spacing" textLength="99" x="666" y="342.6941">-organizationRole</text><text fill="#000000" font-family="sans-serif" font-size="11" lengthAdjust="spacing" textLength="37" x="666" y="355.4988">-name</text><text fill="#000000" font-family="sans-serif" font-size="11" lengthAdjust="spacing" textLength="49" x="666" y="368.3035">-address</text><text fill="#000000" font-family="sans-serif" font-size="11" lengthAdjust="spacing" textLength="85" x="666" y="381.1082">-phoneNumber</text><text fill="#000000" font-family="sans-serif" font-size="11" lengthAdjust="spacing" textLength="34" x="666" y="393.9129">-eMail</text><text fill="#000000" font-family="sans-serif" font-size="11" lengthAdjust="spacing" textLength="224" x="666" y="406.7176">-standardOcupationalClassificationCode</text><!--MD5=[ed6624c6556d5e7b1bd23032162d20b7]
class Client--><rect codeLine="43" fill="#FEFECE" filter="url(#f1oeqbs1n5lhp7)" height="142.4375" id="Client" style="stroke:#A80036;stroke-width:1.5;" width="97" x="437.5" y="348.679"/><ellipse cx="466.9" cy="364.679" fill="#ADD1B2" rx="11" ry="11" style="stroke:#A80036;stroke-width:1.0;"/><path d="M469.2438,360.3509 C468.3063,359.9134 467.7125,359.7728 466.8375,359.7728 C464.2125,359.7728 462.2125,361.8509 462.2125,364.5696 L462.2125,365.6946 C462.2125,368.2728 464.3219,370.1634 467.2125,370.1634 C468.4313,370.1634 469.5875,369.8665 470.3375,369.3196 C470.9156,368.9134 471.2438,368.4603 471.2438,368.0696 C471.2438,367.6165 470.8531,367.2259 470.3844,367.2259 C470.1656,367.2259 469.9625,367.304 469.775,367.4915 C469.3219,367.9759 469.3219,367.9759 469.1344,368.0696 C468.7125,368.3353 468.025,368.4603 467.2594,368.4603 C465.2125,368.4603 463.9156,367.3665 463.9156,365.6634 L463.9156,364.5696 C463.9156,362.7884 465.1656,361.4759 466.9,361.4759 C467.4781,361.4759 468.0875,361.6321 468.5563,361.8821 C469.0406,362.1634 469.2125,362.3821 469.3063,362.7884 C469.3688,363.1946 469.4,363.3196 469.5406,363.4446 C469.6813,363.5853 469.9156,363.6946 470.1344,363.6946 C470.4,363.6946 470.6656,363.554 470.8375,363.3353 C470.9469,363.179 470.9781,362.9915 470.9781,362.5696 L470.9781,361.1478 C470.9781,360.7103 470.9625,360.5853 470.8688,360.429 C470.7125,360.1634 470.4313,360.0228 470.1344,360.0228 C469.8375,360.0228 469.6344,360.1165 469.4156,360.429 L469.2438,360.3509 Z " fill="#000000"/><text fill="#000000" font-family="sans-serif" font-size="12" lengthAdjust="spacing" textLength="33" x="484.1" y="368.8333">Client</text><line style="stroke:#A80036;stroke-width:1.5;" x1="438.5" x2="533.5" y1="380.679" y2="380.679"/><text fill="#000000" font-family="sans-serif" font-size="11" lengthAdjust="spacing" textLength="23" x="443.5" y="394.8894">-ccn</text><text fill="#000000" font-family="sans-serif" font-size="11" lengthAdjust="spacing" textLength="37" x="443.5" y="407.6941">-name</text><text fill="#000000" font-family="sans-serif" font-size="11" lengthAdjust="spacing" textLength="69" x="443.5" y="420.4988">-nhsNumber</text><text fill="#000000" font-family="sans-serif" font-size="11" lengthAdjust="spacing" textLength="57" x="443.5" y="433.3035">-birthDate</text><text fill="#000000" font-family="sans-serif" font-size="11" lengthAdjust="spacing" textLength="25" x="443.5" y="446.1082">-sex</text><text fill="#000000" font-family="sans-serif" font-size="11" lengthAdjust="spacing" textLength="15" x="443.5" y="458.9129">-tif</text><text fill="#000000" font-family="sans-serif" font-size="11" lengthAdjust="spacing" textLength="85" x="443.5" y="471.7176">-phoneNumber</text><text fill="#000000" font-family="sans-serif" font-size="11" lengthAdjust="spacing" textLength="34" x="443.5" y="484.5223">-eMail</text><!--MD5=[a999c1570c205a2156b04a15307bc1ff]
class LabOrder--><rect codeLine="53" fill="#FEFECE" filter="url(#f1oeqbs1n5lhp7)" height="65.6094" id="LabOrder" style="stroke:#A80036;stroke-width:1.5;" width="89" x="7" y="328.679"/><ellipse cx="22" cy="344.679" fill="#ADD1B2" rx="11" ry="11" style="stroke:#A80036;stroke-width:1.0;"/><path d="M24.3438,340.3509 C23.4063,339.9134 22.8125,339.7728 21.9375,339.7728 C19.3125,339.7728 17.3125,341.8509 17.3125,344.5696 L17.3125,345.6946 C17.3125,348.2728 19.4219,350.1634 22.3125,350.1634 C23.5313,350.1634 24.6875,349.8665 25.4375,349.3196 C26.0156,348.9134 26.3438,348.4603 26.3438,348.0696 C26.3438,347.6165 25.9531,347.2259 25.4844,347.2259 C25.2656,347.2259 25.0625,347.304 24.875,347.4915 C24.4219,347.9759 24.4219,347.9759 24.2344,348.0696 C23.8125,348.3353 23.125,348.4603 22.3594,348.4603 C20.3125,348.4603 19.0156,347.3665 19.0156,345.6634 L19.0156,344.5696 C19.0156,342.7884 20.2656,341.4759 22,341.4759 C22.5781,341.4759 23.1875,341.6321 23.6563,341.8821 C24.1406,342.1634 24.3125,342.3821 24.4063,342.7884 C24.4688,343.1946 24.5,343.3196 24.6406,343.4446 C24.7813,343.5853 25.0156,343.6946 25.2344,343.6946 C25.5,343.6946 25.7656,343.554 25.9375,343.3353 C26.0469,343.179 26.0781,342.9915 26.0781,342.5696 L26.0781,341.1478 C26.0781,340.7103 26.0625,340.5853 25.9688,340.429 C25.8125,340.1634 25.5313,340.0228 25.2344,340.0228 C24.9375,340.0228 24.7344,340.1165 24.5156,340.429 L24.3438,340.3509 Z " fill="#000000"/><text fill="#000000" font-family="sans-serif" font-size="12" lengthAdjust="spacing" textLength="57" x="36" y="348.8333">LabOrder</text><line style="stroke:#A80036;stroke-width:1.5;" x1="8" x2="95" y1="360.679" y2="360.679"/><text fill="#000000" font-family="sans-serif" font-size="11" lengthAdjust="spacing" textLength="68" x="13" y="374.8894">-typeOfTest</text><text fill="#000000" font-family="sans-serif" font-size="11" lengthAdjust="spacing" textLength="70" x="13" y="387.6941">-parameters</text><!--MD5=[1f6362a5c8f21d8d6a0fce68f3a92a4e]
class Parameter--><rect codeLine="60" fill="#FEFECE" filter="url(#f1oeqbs1n5lhp7)" height="78.4141" id="Parameter" style="stroke:#A80036;stroke-width:1.5;" width="93" x="307" y="51.679"/><ellipse cx="322" cy="67.679" fill="#ADD1B2" rx="11" ry="11" style="stroke:#A80036;stroke-width:1.0;"/><path d="M324.3438,63.3509 C323.4063,62.9134 322.8125,62.7727 321.9375,62.7727 C319.3125,62.7727 317.3125,64.8509 317.3125,67.5696 L317.3125,68.6946 C317.3125,71.2727 319.4219,73.1634 322.3125,73.1634 C323.5313,73.1634 324.6875,72.8665 325.4375,72.3196 C326.0156,71.9134 326.3438,71.4602 326.3438,71.0696 C326.3438,70.6165 325.9531,70.2259 325.4844,70.2259 C325.2656,70.2259 325.0625,70.304 324.875,70.4915 C324.4219,70.9759 324.4219,70.9759 324.2344,71.0696 C323.8125,71.3352 323.125,71.4602 322.3594,71.4602 C320.3125,71.4602 319.0156,70.3665 319.0156,68.6634 L319.0156,67.5696 C319.0156,65.7884 320.2656,64.4759 322,64.4759 C322.5781,64.4759 323.1875,64.6321 323.6563,64.8821 C324.1406,65.1634 324.3125,65.3821 324.4063,65.7884 C324.4688,66.1946 324.5,66.3196 324.6406,66.4446 C324.7813,66.5852 325.0156,66.6946 325.2344,66.6946 C325.5,66.6946 325.7656,66.554 325.9375,66.3352 C326.0469,66.179 326.0781,65.9915 326.0781,65.5696 L326.0781,64.1477 C326.0781,63.7102 326.0625,63.5852 325.9688,63.429 C325.8125,63.1634 325.5313,63.0227 325.2344,63.0227 C324.9375,63.0227 324.7344,63.1165 324.5156,63.429 L324.3438,63.3509 Z " fill="#000000"/><text fill="#000000" font-family="sans-serif" font-size="12" lengthAdjust="spacing" textLength="61" x="336" y="71.8333">Parameter</text><line style="stroke:#A80036;stroke-width:1.5;" x1="308" x2="399" y1="83.679" y2="83.679"/><text fill="#000000" font-family="sans-serif" font-size="11" lengthAdjust="spacing" textLength="32" x="313" y="97.8894">-code</text><text fill="#000000" font-family="sans-serif" font-size="11" lengthAdjust="spacing" textLength="65" x="313" y="110.6941">-shortname</text><text fill="#000000" font-family="sans-serif" font-size="11" lengthAdjust="spacing" textLength="66" x="313" y="123.4988">-description</text><!--MD5=[742a261f27a3dcd734c626287d811acd]
link Company to TestType--><path codeLine="65" d="M95.5509,133.651 C173.062,144.404 336.249,167.043 424.789,179.326 " fill="none" id="Company-to-TestType" style="stroke:#A80036;stroke-width:1.0;"/><polygon fill="#A80036" points="429.99,180.048,421.6251,174.8492,425.0374,179.3609,420.5257,182.7733,429.99,180.048" style="stroke:#A80036;stroke-width:1.0;"/><text fill="#000000" font-family="sans-serif" font-size="13" lengthAdjust="spacing" textLength="58" x="218" y="146.7459">conducts</text><text fill="#000000" font-family="sans-serif" font-size="13" lengthAdjust="spacing" textLength="8" x="103.5093" y="147.9764">1</text><text fill="#000000" font-family="sans-serif" font-size="13" lengthAdjust="spacing" textLength="7" x="414.9933" y="192.0784">*</text><!--MD5=[93b4f25fb503a8e0e9a46b1d30ff3f44]
link Company to ParameterCategory--><path codeLine="66" d="M93.7561,101.123 C103.9919,95.38 115.146,89.802 126,85.679 C335.746,6 406.617,35.656 630,56.679 C652.452,58.792 676.706,62.026 698.914,65.37 " fill="none" id="Company-to-ParameterCategory" style="stroke:#A80036;stroke-width:1.0;"/><polygon fill="#A80036" points="703.916,66.13,695.6192,60.8231,698.9728,65.3787,694.4172,68.7323,703.916,66.13" style="stroke:#A80036;stroke-width:1.0;"/><text fill="#000000" font-family="sans-serif" font-size="13" lengthAdjust="spacing" textLength="47" x="330" y="28.7459">defines</text><text fill="#000000" font-family="sans-serif" font-size="13" lengthAdjust="spacing" textLength="8" x="95.081" y="89.9287">1</text><text fill="#000000" font-family="sans-serif" font-size="13" lengthAdjust="spacing" textLength="7" x="688.9152" y="61.1563">*</text><!--MD5=[e981d4f96c4342412d1e68160b30cf70]
link Test to TestType--><path codeLine="67" d="M276.052,265.872 C285.792,261.544 296.823,256.774 307,252.679 C345.834,237.051 390.039,220.9 424.681,208.607 " fill="none" id="Test-to-TestType" style="stroke:#A80036;stroke-width:1.0;"/><polygon fill="#A80036" points="429.721,206.822,419.9018,206.0577,425.0081,208.492,422.5738,213.5983,429.721,206.822" style="stroke:#A80036;stroke-width:1.0;"/><text fill="#000000" font-family="sans-serif" font-size="13" lengthAdjust="spacing" textLength="27" x="340" y="213.7459">is of</text><text fill="#000000" font-family="sans-serif" font-size="13" lengthAdjust="spacing" textLength="7" x="283.9866" y="276.6853">*</text><text fill="#000000" font-family="sans-serif" font-size="13" lengthAdjust="spacing" textLength="8" x="413.9978" y="222.2845">1</text><!--MD5=[7e4bc624457760b649895ff2ead938fa]
link Company to Test--><path codeLine="68" d="M74.0045,154.371 C87.8458,170.595 106.7867,191.112 126,206.679 C153.368,228.853 188.223,249.003 213.309,262.31 " fill="none" id="Company-to-Test" style="stroke:#A80036;stroke-width:1.0;"/><polygon fill="#A80036" points="217.875,264.714,211.7737,256.9826,213.4504,262.3853,208.0478,264.062,217.875,264.714" style="stroke:#A80036;stroke-width:1.0;"/><text fill="#000000" font-family="sans-serif" font-size="13" lengthAdjust="spacing" textLength="59" x="127" y="202.7459">performs</text><text fill="#000000" font-family="sans-serif" font-size="13" lengthAdjust="spacing" textLength="8" x="70.0524" y="173.9533">1</text><text fill="#000000" font-family="sans-serif" font-size="13" lengthAdjust="spacing" textLength="7" x="202.9227" y="275.245">*</text><!--MD5=[8aaf0efd5e2f3824be7ea3e488dcc283]
link TestType to ParameterCategory--><path codeLine="69" d="M542.229,166.92 C586.647,150.226 649.593,126.567 699.127,107.948 " fill="none" id="TestType-to-ParameterCategory" style="stroke:#A80036;stroke-width:1.0;"/><polygon fill="#A80036" points="703.878,106.163,694.0462,105.5844,699.1975,107.9217,696.8602,113.0731,703.878,106.163" style="stroke:#A80036;stroke-width:1.0;"/><text fill="#000000" font-family="sans-serif" font-size="13" lengthAdjust="spacing" textLength="32" x="585" y="131.7459">have</text><text fill="#000000" font-family="sans-serif" font-size="13" lengthAdjust="spacing" textLength="7" x="549.8818" y="177.2701">*</text><text fill="#000000" font-family="sans-serif" font-size="13" lengthAdjust="spacing" textLength="23" x="672.9847" y="121.4791">1..*</text><!--MD5=[83999087262e3f95ecaa1d42f873aabe]
reverse link Client to Receptionist--><path codeLine="70" d="M539.44,406.8403 C573.067,398.6075 618.106,387.581 659.924,377.342 " fill="none" id="Client-backto-Receptionist" style="stroke:#A80036;stroke-width:1.0;"/><polygon fill="#A80036" points="534.563,408.0343,544.2564,409.7775,539.4193,406.8444,542.3525,402.0073,534.563,408.0343" style="stroke:#A80036;stroke-width:1.0;"/><text fill="#000000" font-family="sans-serif" font-size="13" lengthAdjust="spacing" textLength="56" x="573" y="381.7459">registers</text><text fill="#000000" font-family="sans-serif" font-size="13" lengthAdjust="spacing" textLength="7" x="542.5351" y="419.4432">*</text><text fill="#000000" font-family="sans-serif" font-size="13" lengthAdjust="spacing" textLength="8" x="644.1035" y="391.7416">1</text><!--MD5=[84a279e28ad6c3248737114c29c49c27]
link LabOrder to Test--><path codeLine="72" d="M96.4081,342.845 C131.905,327.619 181.092,306.521 213.221,292.739 " fill="none" id="LabOrder-to-Test" style="stroke:#A80036;stroke-width:1.0;"/><polygon fill="#A80036" points="217.834,290.76,207.986,290.632,213.2389,292.7311,211.1398,297.9841,217.834,290.76" style="stroke:#A80036;stroke-width:1.0;"/><text fill="#000000" font-family="sans-serif" font-size="13" lengthAdjust="spacing" textLength="46" x="133.5" y="300.7459">used in</text><text fill="#000000" font-family="sans-serif" font-size="13" lengthAdjust="spacing" textLength="8" x="103.8972" y="353.2165">1</text><text fill="#000000" font-family="sans-serif" font-size="13" lengthAdjust="spacing" textLength="8" x="202.1644" y="307.3929">1</text><!--MD5=[6df8849671cb880f6936e94aa30db6f9]
link Parameter to ParameterCategory--><path codeLine="73" d="M400.116,89.383 C471.561,87.354 610.743,83.401 698.512,80.908 " fill="none" id="Parameter-to-ParameterCategory" style="stroke:#A80036;stroke-width:1.0;"/><polygon fill="#A80036" points="703.695,80.761,694.5844,77.0198,698.697,80.9039,694.813,85.0166,703.695,80.761" style="stroke:#A80036;stroke-width:1.0;"/><text fill="#000000" font-family="sans-serif" font-size="13" lengthAdjust="spacing" textLength="106" x="433" y="80.7459">presented under</text><text fill="#000000" font-family="sans-serif" font-size="13" lengthAdjust="spacing" textLength="7" x="408.1032" y="102.4162">*</text><text fill="#000000" font-family="sans-serif" font-size="13" lengthAdjust="spacing" textLength="8" x="687.9869" y="93.7969">1</text><!--MD5=[8fed49cf12a674e36a1de475622ee091]
link ParameterCategory to Administrator--><path codeLine="74" d="M852.424,78.679 C900.923,78.679 965.654,78.679 1021.8,78.679 " fill="none" id="ParameterCategory-to-Administrator" style="stroke:#A80036;stroke-width:1.0;"/><polygon fill="#A80036" points="1026.86,78.679,1017.86,74.679,1021.86,78.679,1017.86,82.679,1026.86,78.679" style="stroke:#A80036;stroke-width:1.0;"/><text fill="#000000" font-family="sans-serif" font-size="13" lengthAdjust="spacing" textLength="69" x="927" y="74.7459">created by</text><text fill="#000000" font-family="sans-serif" font-size="13" lengthAdjust="spacing" textLength="7" x="860.0946" y="91.5099">*</text><text fill="#000000" font-family="sans-serif" font-size="13" lengthAdjust="spacing" textLength="8" x="1011.0354" y="91.2424">1</text><!--MD5=[12d76240d3c3c66074d4ec2ea8bf469c]
link Company to Parameter--><path codeLine="76" d="M95.8022,122.338 C150.301,115.617 243.76,104.09 301.613,96.955 " fill="none" id="Company-to-Parameter" style="stroke:#A80036;stroke-width:1.0;"/><polygon fill="#A80036" points="306.752,96.321,297.3303,93.4518,301.7895,96.9326,298.3088,101.3918,306.752,96.321" style="stroke:#A80036;stroke-width:1.0;"/><text fill="#000000" font-family="sans-serif" font-size="13" lengthAdjust="spacing" textLength="56" x="128.5" y="106.7459">specifies</text><text fill="#000000" font-family="sans-serif" font-size="13" lengthAdjust="spacing" textLength="8" x="103.5004" y="117.3845">1</text><text fill="#000000" font-family="sans-serif" font-size="13" lengthAdjust="spacing" textLength="7" x="292.0578" y="110.3787">*</text><!--MD5=[65c5b509916ed9c0531bcd26c55dbd83]
reverse link LabOrder to Client--><path codeLine="77" d="M101.4938,368.249 C185.2,379.475 354.705,402.2059 437.428,413.2994 " fill="none" id="LabOrder-backto-Client" style="stroke:#A80036;stroke-width:1.0;"/><polygon fill="#A80036" points="96.3505,367.56,104.7389,372.721,101.3061,368.2247,105.8024,364.792,96.3505,367.56" style="stroke:#A80036;stroke-width:1.0;"/><text fill="#000000" font-family="sans-serif" font-size="13" lengthAdjust="spacing" textLength="39" x="227.5" y="379.7459">brings</text><text fill="#000000" font-family="sans-serif" font-size="13" lengthAdjust="spacing" textLength="24" x="103.9898" y="381.4601">1..2</text><text fill="#000000" font-family="sans-serif" font-size="13" lengthAdjust="spacing" textLength="8" x="421.3779" y="425.5145">1</text><!--MD5=[6dba24dc0f16d673b4663f61de2d8959]
reverse link Test to Client--><path codeLine="78" d="M280.144,303.233 C288.72,309.471 298.085,316.008 307,321.679 C349.862,348.943 400.825,376.543 437.213,395.4744 " fill="none" id="Test-backto-Client" style="stroke:#A80036;stroke-width:1.0;"/><polygon fill="#A80036" points="276.002,300.2,280.9,308.7446,280.036,303.1541,285.6265,302.2901,276.002,300.2" style="stroke:#A80036;stroke-width:1.0;"/><text fill="#000000" font-family="sans-serif" font-size="13" lengthAdjust="spacing" textLength="71" x="318" y="317.7459">performs a</text><text fill="#000000" font-family="sans-serif" font-size="13" lengthAdjust="spacing" textLength="8" x="284.0462" y="319.3808">1</text><text fill="#000000" font-family="sans-serif" font-size="13" lengthAdjust="spacing" textLength="8" x="421.4599" y="405.0654">1</text><!--MD5=[e8b34c2e6517a986175307f5599f058a]
link Receptionist to Test--><path codeLine="79" d="M659.961,333.192 C538.336,317.098 355.577,292.914 281.231,283.076 " fill="none" id="Receptionist-to-Test" style="stroke:#A80036;stroke-width:1.0;"/><polygon fill="#A80036" points="276.068,282.393,284.4657,287.5387,281.0248,283.0487,285.5148,279.6078,276.068,282.393" style="stroke:#A80036;stroke-width:1.0;"/><text fill="#000000" font-family="sans-serif" font-size="13" lengthAdjust="spacing" textLength="56" x="458" y="298.7459">registers</text><text fill="#000000" font-family="sans-serif" font-size="13" lengthAdjust="spacing" textLength="8" x="644.1429" y="344.7632">1</text><text fill="#000000" font-family="sans-serif" font-size="13" lengthAdjust="spacing" textLength="7" x="284.0065" y="297.2333">*</text><!--MD5=[55c920b4620222a90edf131806a18dd5]
@startuml
skinparam classAttributeIconSize 0
hide methods
left to right direction

class TestType {
  -code
  -description
  -collectingMethod
}

class Company {
  -designation
}

class Test {
}

class Administrator {
  -employeeID
  -organizationRole
  -name
  -address
  -phoneNumber
  -eMail
  -standardOcupationalClassificationCode
}

class ParameterCategory {
  -name
  -code
}

Class Receptionist{
-employeeID
-organizationRole
-name
-address
-phoneNumber
-eMail
-standardOcupationalClassificationCode
}

Class Client{
-ccn
-name
-nhsNumber
-birthDate
-sex
-tif
-phoneNumber
-eMail
}
Class LabOrder{
-typeOfTest
-parameters
}
Class Test{
-date
}
class Parameter {
 -code
 -shortname
 -description
}
Company "1" - -> "*" TestType : conducts 
Company "1" - -> "*" ParameterCategory : defines 
Test "*" - -> "1" TestType : is of 
Company "1" - -> "*" Test : performs 
TestType "*" - -> "1..*" ParameterCategory : have 
Client "*" <- - "1" Receptionist : registers

LabOrder "1" - -> "1" Test : used in
Parameter "*" - -> "1" ParameterCategory : presented under
ParameterCategory "*" - -> "1" Administrator : created by

Company "1" - -> "*" Parameter : specifies
LabOrder "1..2" <- - "1" Client: brings
Test "1" <- - "1" Client: performs a
Receptionist "1" - -> "*" Test : registers
@enduml

PlantUML version 1.2021.7beta1(Unknown compile time)
(GPL source distribution)
Java Runtime: Java(TM) SE Runtime Environment
JVM: Java HotSpot(TM) 64-Bit Server VM
Default Encoding: UTF-8
Language: en
Country: US
--></g></svg>