<?xml version="1.0" encoding="UTF-8" standalone="no"?><svg xmlns="http://www.w3.org/2000/svg" xmlns:xlink="http://www.w3.org/1999/xlink" contentScriptType="application/ecmascript" contentStyleType="text/css" height="1408px" preserveAspectRatio="none" style="width:2015px;height:1408px;background:#FFFFFF;" version="1.1" viewBox="0 0 2015 1408" width="2015px" zoomAndPan="magnify"><defs><filter height="300%" id="fdk2rw42o4tjh" width="300%" x="-1" y="-1"><feGaussianBlur result="blurOut" stdDeviation="2.0"/><feColorMatrix in="blurOut" result="blurOut2" type="matrix" values="0 0 0 0 0 0 0 0 0 0 0 0 0 0 0 0 0 0 .4 0"/><feOffset dx="4.0" dy="4.0" in="blurOut2" result="blurOut3"/><feBlend in="SourceGraphic" in2="blurOut3" mode="normal"/></filter></defs><g><!--MD5=[02e4b9b7573f1156f41e60aa5b4e25a4]
class Company--><rect codeLine="3" fill="#FEFECE" filter="url(#fdk2rw42o4tjh)" height="112.0234" id="Company" style="stroke:#A80036;stroke-width:1.5;" width="190" x="896" y="313"/><ellipse cx="958.75" cy="329" fill="#ADD1B2" rx="11" ry="11" style="stroke:#A80036;stroke-width:1.0;"/><path d="M961.0938,324.6719 C960.1563,324.2344 959.5625,324.0938 958.6875,324.0938 C956.0625,324.0938 954.0625,326.1719 954.0625,328.8906 L954.0625,330.0156 C954.0625,332.5938 956.1719,334.4844 959.0625,334.4844 C960.2813,334.4844 961.4375,334.1875 962.1875,333.6406 C962.7656,333.2344 963.0938,332.7813 963.0938,332.3906 C963.0938,331.9375 962.7031,331.5469 962.2344,331.5469 C962.0156,331.5469 961.8125,331.625 961.625,331.8125 C961.1719,332.2969 961.1719,332.2969 960.9844,332.3906 C960.5625,332.6563 959.875,332.7813 959.1094,332.7813 C957.0625,332.7813 955.7656,331.6875 955.7656,329.9844 L955.7656,328.8906 C955.7656,327.1094 957.0156,325.7969 958.75,325.7969 C959.3281,325.7969 959.9375,325.9531 960.4063,326.2031 C960.8906,326.4844 961.0625,326.7031 961.1563,327.1094 C961.2188,327.5156 961.25,327.6406 961.3906,327.7656 C961.5313,327.9063 961.7656,328.0156 961.9844,328.0156 C962.25,328.0156 962.5156,327.875 962.6875,327.6563 C962.7969,327.5 962.8281,327.3125 962.8281,326.8906 L962.8281,325.4688 C962.8281,325.0313 962.8125,324.9063 962.7188,324.75 C962.5625,324.4844 962.2813,324.3438 961.9844,324.3438 C961.6875,324.3438 961.4844,324.4375 961.2656,324.75 L961.0938,324.6719 Z " fill="#000000"/><text fill="#000000" font-family="sans-serif" font-size="12" lengthAdjust="spacing" textLength="56" x="979.25" y="333.1543">Company</text><line style="stroke:#A80036;stroke-width:1.5;" x1="897" x2="1085" y1="345" y2="345"/><text fill="#000000" font-family="sans-serif" font-size="11" lengthAdjust="spacing" textLength="107" x="902" y="359.2104">-String designation</text><line style="stroke:#A80036;stroke-width:1.5;" x1="897" x2="1085" y1="365.8047" y2="365.8047"/><text fill="#000000" font-family="sans-serif" font-size="11" lengthAdjust="spacing" textLength="88" x="902" y="380.0151">+getClientList()</text><text fill="#000000" font-family="sans-serif" font-size="11" lengthAdjust="spacing" textLength="121" x="902" y="392.8198">+getTestTypeStore()</text><text fill="#000000" font-family="sans-serif" font-size="11" lengthAdjust="spacing" textLength="178" x="902" y="405.6245">+getParameterCategoryStore()</text><text fill="#000000" font-family="sans-serif" font-size="11" lengthAdjust="spacing" textLength="126" x="902" y="418.4292">+getParameterStore()</text><!--MD5=[ed6624c6556d5e7b1bd23032162d20b7]
class Client--><rect codeLine="12" fill="#FEFECE" filter="url(#fdk2rw42o4tjh)" height="329.7031" id="Client" style="stroke:#A80036;stroke-width:1.5;" width="429" x="245.5" y="918"/><ellipse cx="439.25" cy="934" fill="#ADD1B2" rx="11" ry="11" style="stroke:#A80036;stroke-width:1.0;"/><path d="M441.5938,929.6719 C440.6563,929.2344 440.0625,929.0938 439.1875,929.0938 C436.5625,929.0938 434.5625,931.1719 434.5625,933.8906 L434.5625,935.0156 C434.5625,937.5938 436.6719,939.4844 439.5625,939.4844 C440.7813,939.4844 441.9375,939.1875 442.6875,938.6406 C443.2656,938.2344 443.5938,937.7813 443.5938,937.3906 C443.5938,936.9375 443.2031,936.5469 442.7344,936.5469 C442.5156,936.5469 442.3125,936.625 442.125,936.8125 C441.6719,937.2969 441.6719,937.2969 441.4844,937.3906 C441.0625,937.6563 440.375,937.7813 439.6094,937.7813 C437.5625,937.7813 436.2656,936.6875 436.2656,934.9844 L436.2656,933.8906 C436.2656,932.1094 437.5156,930.7969 439.25,930.7969 C439.8281,930.7969 440.4375,930.9531 440.9063,931.2031 C441.3906,931.4844 441.5625,931.7031 441.6563,932.1094 C441.7188,932.5156 441.75,932.6406 441.8906,932.7656 C442.0313,932.9063 442.2656,933.0156 442.4844,933.0156 C442.75,933.0156 443.0156,932.875 443.1875,932.6563 C443.2969,932.5 443.3281,932.3125 443.3281,931.8906 L443.3281,930.4688 C443.3281,930.0313 443.3125,929.9063 443.2188,929.75 C443.0625,929.4844 442.7813,929.3438 442.4844,929.3438 C442.1875,929.3438 441.9844,929.4375 441.7656,929.75 L441.5938,929.6719 Z " fill="#000000"/><text fill="#000000" font-family="sans-serif" font-size="12" lengthAdjust="spacing" textLength="33" x="459.75" y="938.1543">Client</text><line style="stroke:#A80036;stroke-width:1.5;" x1="246.5" x2="673.5" y1="950" y2="950"/><text fill="#000000" font-family="sans-serif" font-size="11" lengthAdjust="spacing" textLength="54" x="251.5" y="964.2104">-ccn: long</text><text fill="#000000" font-family="sans-serif" font-size="11" lengthAdjust="spacing" textLength="103" x="251.5" y="977.0151">-NHSnumber: long</text><text fill="#000000" font-family="sans-serif" font-size="11" lengthAdjust="spacing" textLength="78" x="251.5" y="989.8198">-birthDate: int</text><text fill="#000000" font-family="sans-serif" font-size="11" lengthAdjust="spacing" textLength="65" x="251.5" y="1002.6245">-sex: String</text><text fill="#000000" font-family="sans-serif" font-size="11" lengthAdjust="spacing" textLength="49" x="251.5" y="1015.4292">-tin: long</text><text fill="#000000" font-family="sans-serif" font-size="11" lengthAdjust="spacing" textLength="116" x="251.5" y="1028.2339">-phoneNumber: long</text><text fill="#000000" font-family="sans-serif" font-size="11" lengthAdjust="spacing" textLength="76" x="251.5" y="1041.0386">-email: String</text><text fill="#000000" font-family="sans-serif" font-size="11" lengthAdjust="spacing" textLength="97" x="251.5" y="1053.8433">-password: String</text><text fill="#000000" font-family="sans-serif" font-size="11" lengthAdjust="spacing" textLength="68" x="251.5" y="1066.6479">-client: User</text><text fill="#000000" font-family="sans-serif" font-size="11" lengthAdjust="spacing" textLength="101" x="251.5" y="1079.4526">+acessorMethods</text><line style="stroke:#A80036;stroke-width:1.5;" x1="246.5" x2="673.5" y1="1086.0469" y2="1086.0469"/><text fill="#000000" font-family="sans-serif" font-size="11" lengthAdjust="spacing" textLength="417" x="251.5" y="1100.2573">+Client(ccn, nhsNumber, birthDate, sex, email, tin, phoneNumber, name)</text><text fill="#000000" font-family="sans-serif" font-size="11" lengthAdjust="spacing" textLength="389" x="251.5" y="1113.062">+Client(ccn, nhsNumber, birthDate, email, tin, phoneNumber, name)</text><text fill="#000000" font-family="sans-serif" font-size="11" lengthAdjust="spacing" textLength="125" x="251.5" y="1125.8667">+generatePassword();</text><text fill="#000000" font-family="sans-serif" font-size="11" lengthAdjust="spacing" textLength="61" x="251.5" y="1138.6714">+toString()</text><text fill="#000000" font-family="sans-serif" font-size="11" lengthAdjust="spacing" textLength="86" x="251.5" y="1151.4761">+equals(client)</text><text fill="#000000" font-family="sans-serif" font-size="11" lengthAdjust="spacing" textLength="84" x="251.5" y="1164.2808">+validateCcn()</text><text fill="#000000" font-family="sans-serif" font-size="11" lengthAdjust="spacing" textLength="129" x="251.5" y="1177.0854">+validateNhsNumber()</text><text fill="#000000" font-family="sans-serif" font-size="11" lengthAdjust="spacing" textLength="117" x="251.5" y="1189.8901">+validateBirthDate()</text><text fill="#000000" font-family="sans-serif" font-size="11" lengthAdjust="spacing" textLength="80" x="251.5" y="1202.6948">+validateTin()</text><text fill="#000000" font-family="sans-serif" font-size="11" lengthAdjust="spacing" textLength="86" x="251.5" y="1215.4995">+validateSex()</text><text fill="#000000" font-family="sans-serif" font-size="11" lengthAdjust="spacing" textLength="143" x="251.5" y="1228.3042">+validatePhoneNumber()</text><text fill="#000000" font-family="sans-serif" font-size="11" lengthAdjust="spacing" textLength="97" x="251.5" y="1241.1089">+validateName()</text><!--MD5=[594612147f950995a18c1e6474349bc0]
class ClientList--><rect codeLine="38" fill="#FEFECE" filter="url(#fdk2rw42o4tjh)" height="137.6328" id="ClientList" style="stroke:#A80036;stroke-width:1.5;" width="462" x="7" y="682"/><ellipse cx="207.25" cy="698" fill="#ADD1B2" rx="11" ry="11" style="stroke:#A80036;stroke-width:1.0;"/><path d="M209.5938,693.6719 C208.6563,693.2344 208.0625,693.0938 207.1875,693.0938 C204.5625,693.0938 202.5625,695.1719 202.5625,697.8906 L202.5625,699.0156 C202.5625,701.5938 204.6719,703.4844 207.5625,703.4844 C208.7813,703.4844 209.9375,703.1875 210.6875,702.6406 C211.2656,702.2344 211.5938,701.7813 211.5938,701.3906 C211.5938,700.9375 211.2031,700.5469 210.7344,700.5469 C210.5156,700.5469 210.3125,700.625 210.125,700.8125 C209.6719,701.2969 209.6719,701.2969 209.4844,701.3906 C209.0625,701.6563 208.375,701.7813 207.6094,701.7813 C205.5625,701.7813 204.2656,700.6875 204.2656,698.9844 L204.2656,697.8906 C204.2656,696.1094 205.5156,694.7969 207.25,694.7969 C207.8281,694.7969 208.4375,694.9531 208.9063,695.2031 C209.3906,695.4844 209.5625,695.7031 209.6563,696.1094 C209.7188,696.5156 209.75,696.6406 209.8906,696.7656 C210.0313,696.9063 210.2656,697.0156 210.4844,697.0156 C210.75,697.0156 211.0156,696.875 211.1875,696.6563 C211.2969,696.5 211.3281,696.3125 211.3281,695.8906 L211.3281,694.4688 C211.3281,694.0313 211.3125,693.9063 211.2188,693.75 C211.0625,693.4844 210.7813,693.3438 210.4844,693.3438 C210.1875,693.3438 209.9844,693.4375 209.7656,693.75 L209.5938,693.6719 Z " fill="#000000"/><text fill="#000000" font-family="sans-serif" font-size="12" lengthAdjust="spacing" textLength="53" x="227.75" y="702.1543">ClientList</text><line style="stroke:#A80036;stroke-width:1.5;" x1="8" x2="468" y1="714" y2="714"/><text fill="#000000" font-family="sans-serif" font-size="11" lengthAdjust="spacing" textLength="132" x="13" y="728.2104">-List &lt;Client&gt; clientList</text><line style="stroke:#A80036;stroke-width:1.5;" x1="8" x2="468" y1="734.8047" y2="734.8047"/><text fill="#000000" font-family="sans-serif" font-size="11" lengthAdjust="spacing" textLength="450" x="13" y="749.0151">+createClient(ccn, nhsNumber, birthDate, sex, email,tin, phoneNumber, name)</text><text fill="#000000" font-family="sans-serif" font-size="11" lengthAdjust="spacing" textLength="422" x="13" y="761.8198">+createClient(ccn, nhsNumber, birthDate, email,tin, phoneNumber, name)</text><text fill="#000000" font-family="sans-serif" font-size="11" lengthAdjust="spacing" textLength="64" x="13" y="774.6245">-add(client)</text><text fill="#000000" font-family="sans-serif" font-size="11" lengthAdjust="spacing" textLength="109" x="13" y="787.4292">+saveClient(client)</text><text fill="#000000" font-family="sans-serif" font-size="11" lengthAdjust="spacing" textLength="75" x="13" y="800.2339">+getClients()</text><text fill="#000000" font-family="sans-serif" font-size="11" lengthAdjust="spacing" textLength="88" x="13" y="813.0386">+isClientInList()</text><!--MD5=[6ba72ddf03822b91e8d41ca71de58ed3]
class TestTypeStore--><rect codeLine="48" fill="#FEFECE" filter="url(#fdk2rw42o4tjh)" height="99.2188" id="TestTypeStore" style="stroke:#A80036;stroke-width:1.5;" width="449" x="1336.5" y="485"/><ellipse cx="1512.25" cy="501" fill="#ADD1B2" rx="11" ry="11" style="stroke:#A80036;stroke-width:1.0;"/><path d="M1514.5938,496.6719 C1513.6563,496.2344 1513.0625,496.0938 1512.1875,496.0938 C1509.5625,496.0938 1507.5625,498.1719 1507.5625,500.8906 L1507.5625,502.0156 C1507.5625,504.5938 1509.6719,506.4844 1512.5625,506.4844 C1513.7813,506.4844 1514.9375,506.1875 1515.6875,505.6406 C1516.2656,505.2344 1516.5938,504.7813 1516.5938,504.3906 C1516.5938,503.9375 1516.2031,503.5469 1515.7344,503.5469 C1515.5156,503.5469 1515.3125,503.625 1515.125,503.8125 C1514.6719,504.2969 1514.6719,504.2969 1514.4844,504.3906 C1514.0625,504.6563 1513.375,504.7813 1512.6094,504.7813 C1510.5625,504.7813 1509.2656,503.6875 1509.2656,501.9844 L1509.2656,500.8906 C1509.2656,499.1094 1510.5156,497.7969 1512.25,497.7969 C1512.8281,497.7969 1513.4375,497.9531 1513.9063,498.2031 C1514.3906,498.4844 1514.5625,498.7031 1514.6563,499.1094 C1514.7188,499.5156 1514.75,499.6406 1514.8906,499.7656 C1515.0313,499.9063 1515.2656,500.0156 1515.4844,500.0156 C1515.75,500.0156 1516.0156,499.875 1516.1875,499.6563 C1516.2969,499.5 1516.3281,499.3125 1516.3281,498.8906 L1516.3281,497.4688 C1516.3281,497.0313 1516.3125,496.9063 1516.2188,496.75 C1516.0625,496.4844 1515.7813,496.3438 1515.4844,496.3438 C1515.1875,496.3438 1514.9844,496.4375 1514.7656,496.75 L1514.5938,496.6719 Z " fill="#000000"/><text fill="#000000" font-family="sans-serif" font-size="12" lengthAdjust="spacing" textLength="89" x="1532.75" y="505.1543">TestTypeStore</text><line style="stroke:#A80036;stroke-width:1.5;" x1="1337.5" x2="1784.5" y1="517" y2="517"/><line style="stroke:#A80036;stroke-width:1.5;" x1="1337.5" x2="1784.5" y1="525" y2="525"/><text fill="#000000" font-family="sans-serif" font-size="11" lengthAdjust="spacing" textLength="437" x="1342.5" y="539.2104">+createTestType(code, description, collectingMethod, parameterCategories)</text><text fill="#000000" font-family="sans-serif" font-size="11" lengthAdjust="spacing" textLength="125" x="1342.5" y="552.0151">+validateTestType(tt)</text><text fill="#000000" font-family="sans-serif" font-size="11" lengthAdjust="spacing" textLength="107" x="1342.5" y="564.8198">+saveTestType(tt)</text><text fill="#000000" font-family="sans-serif" font-size="11" lengthAdjust="spacing" textLength="91" x="1342.5" y="577.6245">-addTestType(t)</text><!--MD5=[aeb3272166074d8737a70b61b1e71682]
class TestType--><rect codeLine="55" fill="#FEFECE" filter="url(#fdk2rw42o4tjh)" height="112.0234" id="TestType" style="stroke:#A80036;stroke-width:1.5;" width="412" x="1299" y="1027"/><ellipse cx="1472.75" cy="1043" fill="#ADD1B2" rx="11" ry="11" style="stroke:#A80036;stroke-width:1.0;"/><path d="M1475.0938,1038.6719 C1474.1563,1038.2344 1473.5625,1038.0938 1472.6875,1038.0938 C1470.0625,1038.0938 1468.0625,1040.1719 1468.0625,1042.8906 L1468.0625,1044.0156 C1468.0625,1046.5938 1470.1719,1048.4844 1473.0625,1048.4844 C1474.2813,1048.4844 1475.4375,1048.1875 1476.1875,1047.6406 C1476.7656,1047.2344 1477.0938,1046.7813 1477.0938,1046.3906 C1477.0938,1045.9375 1476.7031,1045.5469 1476.2344,1045.5469 C1476.0156,1045.5469 1475.8125,1045.625 1475.625,1045.8125 C1475.1719,1046.2969 1475.1719,1046.2969 1474.9844,1046.3906 C1474.5625,1046.6563 1473.875,1046.7813 1473.1094,1046.7813 C1471.0625,1046.7813 1469.7656,1045.6875 1469.7656,1043.9844 L1469.7656,1042.8906 C1469.7656,1041.1094 1471.0156,1039.7969 1472.75,1039.7969 C1473.3281,1039.7969 1473.9375,1039.9531 1474.4063,1040.2031 C1474.8906,1040.4844 1475.0625,1040.7031 1475.1563,1041.1094 C1475.2188,1041.5156 1475.25,1041.6406 1475.3906,1041.7656 C1475.5313,1041.9063 1475.7656,1042.0156 1475.9844,1042.0156 C1476.25,1042.0156 1476.5156,1041.875 1476.6875,1041.6563 C1476.7969,1041.5 1476.8281,1041.3125 1476.8281,1040.8906 L1476.8281,1039.4688 C1476.8281,1039.0313 1476.8125,1038.9063 1476.7188,1038.75 C1476.5625,1038.4844 1476.2813,1038.3438 1475.9844,1038.3438 C1475.6875,1038.3438 1475.4844,1038.4375 1475.2656,1038.75 L1475.0938,1038.6719 Z " fill="#000000"/><text fill="#000000" font-family="sans-serif" font-size="12" lengthAdjust="spacing" textLength="56" x="1493.25" y="1047.1543">TestType</text><line style="stroke:#A80036;stroke-width:1.5;" x1="1300" x2="1710" y1="1059" y2="1059"/><text fill="#000000" font-family="sans-serif" font-size="11" lengthAdjust="spacing" textLength="69" x="1305" y="1073.2104">-String code</text><text fill="#000000" font-family="sans-serif" font-size="11" lengthAdjust="spacing" textLength="103" x="1305" y="1086.0151">-String description</text><text fill="#000000" font-family="sans-serif" font-size="11" lengthAdjust="spacing" textLength="137" x="1305" y="1098.8198">-String collectingMethod</text><text fill="#000000" font-family="sans-serif" font-size="11" lengthAdjust="spacing" textLength="278" x="1305" y="1111.6245">-List&lt;ParameterCategory&gt; parameterCategories</text><line style="stroke:#A80036;stroke-width:1.5;" x1="1300" x2="1710" y1="1118.2188" y2="1118.2188"/><text fill="#000000" font-family="sans-serif" font-size="11" lengthAdjust="spacing" textLength="400" x="1305" y="1132.4292">+TestType(code, description, collectingMethod, parameterCategories)</text><!--MD5=[be7802b157a16874d39c59ca0e2b25be]
class ParameterStore--><rect codeLine="64" fill="#FEFECE" filter="url(#fdk2rw42o4tjh)" height="99.2188" id="ParameterStore" style="stroke:#A80036;stroke-width:1.5;" width="347" x="504.5" y="701.5"/><ellipse cx="626.75" cy="717.5" fill="#ADD1B2" rx="11" ry="11" style="stroke:#A80036;stroke-width:1.0;"/><path d="M629.0938,713.1719 C628.1563,712.7344 627.5625,712.5938 626.6875,712.5938 C624.0625,712.5938 622.0625,714.6719 622.0625,717.3906 L622.0625,718.5156 C622.0625,721.0938 624.1719,722.9844 627.0625,722.9844 C628.2813,722.9844 629.4375,722.6875 630.1875,722.1406 C630.7656,721.7344 631.0938,721.2813 631.0938,720.8906 C631.0938,720.4375 630.7031,720.0469 630.2344,720.0469 C630.0156,720.0469 629.8125,720.125 629.625,720.3125 C629.1719,720.7969 629.1719,720.7969 628.9844,720.8906 C628.5625,721.1563 627.875,721.2813 627.1094,721.2813 C625.0625,721.2813 623.7656,720.1875 623.7656,718.4844 L623.7656,717.3906 C623.7656,715.6094 625.0156,714.2969 626.75,714.2969 C627.3281,714.2969 627.9375,714.4531 628.4063,714.7031 C628.8906,714.9844 629.0625,715.2031 629.1563,715.6094 C629.2188,716.0156 629.25,716.1406 629.3906,716.2656 C629.5313,716.4063 629.7656,716.5156 629.9844,716.5156 C630.25,716.5156 630.5156,716.375 630.6875,716.1563 C630.7969,716 630.8281,715.8125 630.8281,715.3906 L630.8281,713.9688 C630.8281,713.5313 630.8125,713.4063 630.7188,713.25 C630.5625,712.9844 630.2813,712.8438 629.9844,712.8438 C629.6875,712.8438 629.4844,712.9375 629.2656,713.25 L629.0938,713.1719 Z " fill="#000000"/><text fill="#000000" font-family="sans-serif" font-size="12" lengthAdjust="spacing" textLength="94" x="647.25" y="721.6543">ParameterStore</text><line style="stroke:#A80036;stroke-width:1.5;" x1="505.5" x2="850.5" y1="733.5" y2="733.5"/><line style="stroke:#A80036;stroke-width:1.5;" x1="505.5" x2="850.5" y1="741.5" y2="741.5"/><text fill="#000000" font-family="sans-serif" font-size="11" lengthAdjust="spacing" textLength="335" x="510.5" y="755.7104">+createParameter(code, shortname, description, category)</text><text fill="#000000" font-family="sans-serif" font-size="11" lengthAdjust="spacing" textLength="129" x="510.5" y="768.5151">+validateParameter(p)</text><text fill="#000000" font-family="sans-serif" font-size="11" lengthAdjust="spacing" textLength="111" x="510.5" y="781.3198">+saveParameter(p)</text><text fill="#000000" font-family="sans-serif" font-size="11" lengthAdjust="spacing" textLength="99" x="510.5" y="794.1245">+addTestType(p)</text><!--MD5=[1f6362a5c8f21d8d6a0fce68f3a92a4e]
class Parameter--><rect codeLine="70" fill="#FEFECE" filter="url(#fdk2rw42o4tjh)" height="112.0234" id="Parameter" style="stroke:#A80036;stroke-width:1.5;" width="310" x="883" y="1027"/><ellipse cx="1003.25" cy="1043" fill="#ADD1B2" rx="11" ry="11" style="stroke:#A80036;stroke-width:1.0;"/><path d="M1005.5938,1038.6719 C1004.6563,1038.2344 1004.0625,1038.0938 1003.1875,1038.0938 C1000.5625,1038.0938 998.5625,1040.1719 998.5625,1042.8906 L998.5625,1044.0156 C998.5625,1046.5938 1000.6719,1048.4844 1003.5625,1048.4844 C1004.7813,1048.4844 1005.9375,1048.1875 1006.6875,1047.6406 C1007.2656,1047.2344 1007.5938,1046.7813 1007.5938,1046.3906 C1007.5938,1045.9375 1007.2031,1045.5469 1006.7344,1045.5469 C1006.5156,1045.5469 1006.3125,1045.625 1006.125,1045.8125 C1005.6719,1046.2969 1005.6719,1046.2969 1005.4844,1046.3906 C1005.0625,1046.6563 1004.375,1046.7813 1003.6094,1046.7813 C1001.5625,1046.7813 1000.2656,1045.6875 1000.2656,1043.9844 L1000.2656,1042.8906 C1000.2656,1041.1094 1001.5156,1039.7969 1003.25,1039.7969 C1003.8281,1039.7969 1004.4375,1039.9531 1004.9063,1040.2031 C1005.3906,1040.4844 1005.5625,1040.7031 1005.6563,1041.1094 C1005.7188,1041.5156 1005.75,1041.6406 1005.8906,1041.7656 C1006.0313,1041.9063 1006.2656,1042.0156 1006.4844,1042.0156 C1006.75,1042.0156 1007.0156,1041.875 1007.1875,1041.6563 C1007.2969,1041.5 1007.3281,1041.3125 1007.3281,1040.8906 L1007.3281,1039.4688 C1007.3281,1039.0313 1007.3125,1038.9063 1007.2188,1038.75 C1007.0625,1038.4844 1006.7813,1038.3438 1006.4844,1038.3438 C1006.1875,1038.3438 1005.9844,1038.4375 1005.7656,1038.75 L1005.5938,1038.6719 Z " fill="#000000"/><text fill="#000000" font-family="sans-serif" font-size="12" lengthAdjust="spacing" textLength="61" x="1023.75" y="1047.1543">Parameter</text><line style="stroke:#A80036;stroke-width:1.5;" x1="884" x2="1192" y1="1059" y2="1059"/><text fill="#000000" font-family="sans-serif" font-size="11" lengthAdjust="spacing" textLength="69" x="889" y="1073.2104">-String code</text><text fill="#000000" font-family="sans-serif" font-size="11" lengthAdjust="spacing" textLength="102" x="889" y="1086.0151">-String shortname</text><text fill="#000000" font-family="sans-serif" font-size="11" lengthAdjust="spacing" textLength="103" x="889" y="1098.8198">-String description</text><text fill="#000000" font-family="sans-serif" font-size="11" lengthAdjust="spacing" textLength="206" x="889" y="1111.6245">-List&lt;ParameterCategory&gt; category</text><line style="stroke:#A80036;stroke-width:1.5;" x1="884" x2="1192" y1="1118.2188" y2="1118.2188"/><text fill="#000000" font-family="sans-serif" font-size="11" lengthAdjust="spacing" textLength="298" x="889" y="1132.4292">+Parameter(code, shortname, description, category)</text><!--MD5=[d802db621b5b215a6f0466f93cefcb42]
class ParameterCategoryStore--><rect codeLine="78" fill="#FEFECE" filter="url(#fdk2rw42o4tjh)" height="73.6094" id="ParameterCategoryStore" style="stroke:#A80036;stroke-width:1.5;" width="181" x="1820.5" y="497.5"/><ellipse cx="1835.5" cy="513.5" fill="#ADD1B2" rx="11" ry="11" style="stroke:#A80036;stroke-width:1.0;"/><path d="M1837.8438,509.1719 C1836.9063,508.7344 1836.3125,508.5938 1835.4375,508.5938 C1832.8125,508.5938 1830.8125,510.6719 1830.8125,513.3906 L1830.8125,514.5156 C1830.8125,517.0938 1832.9219,518.9844 1835.8125,518.9844 C1837.0313,518.9844 1838.1875,518.6875 1838.9375,518.1406 C1839.5156,517.7344 1839.8438,517.2813 1839.8438,516.8906 C1839.8438,516.4375 1839.4531,516.0469 1838.9844,516.0469 C1838.7656,516.0469 1838.5625,516.125 1838.375,516.3125 C1837.9219,516.7969 1837.9219,516.7969 1837.7344,516.8906 C1837.3125,517.1563 1836.625,517.2813 1835.8594,517.2813 C1833.8125,517.2813 1832.5156,516.1875 1832.5156,514.4844 L1832.5156,513.3906 C1832.5156,511.6094 1833.7656,510.2969 1835.5,510.2969 C1836.0781,510.2969 1836.6875,510.4531 1837.1563,510.7031 C1837.6406,510.9844 1837.8125,511.2031 1837.9063,511.6094 C1837.9688,512.0156 1838,512.1406 1838.1406,512.2656 C1838.2813,512.4063 1838.5156,512.5156 1838.7344,512.5156 C1839,512.5156 1839.2656,512.375 1839.4375,512.1563 C1839.5469,512 1839.5781,511.8125 1839.5781,511.3906 L1839.5781,509.9688 C1839.5781,509.5313 1839.5625,509.4063 1839.4688,509.25 C1839.3125,508.9844 1839.0313,508.8438 1838.7344,508.8438 C1838.4375,508.8438 1838.2344,508.9375 1838.0156,509.25 L1837.8438,509.1719 Z " fill="#000000"/><text fill="#000000" font-family="sans-serif" font-size="12" lengthAdjust="spacing" textLength="149" x="1849.5" y="517.6543">ParameterCategoryStore</text><line style="stroke:#A80036;stroke-width:1.5;" x1="1821.5" x2="2000.5" y1="529.5" y2="529.5"/><line style="stroke:#A80036;stroke-width:1.5;" x1="1821.5" x2="2000.5" y1="537.5" y2="537.5"/><text fill="#000000" font-family="sans-serif" font-size="11" lengthAdjust="spacing" textLength="157" x="1826.5" y="551.7104">+getParameterCategories()</text><text fill="#000000" font-family="sans-serif" font-size="11" lengthAdjust="spacing" textLength="135" x="1826.5" y="564.5151">+getCategoriesByList();</text><!--MD5=[36afb6bbd95a8ac778c4537c55a683d5]
class ParameterCategory--><rect codeLine="83" fill="#FEFECE" filter="url(#fdk2rw42o4tjh)" height="86.4141" id="ParameterCategory" style="stroke:#A80036;stroke-width:1.5;" width="208" x="1271" y="1308"/><ellipse cx="1313" cy="1324" fill="#ADD1B2" rx="11" ry="11" style="stroke:#A80036;stroke-width:1.0;"/><path d="M1315.3438,1319.6719 C1314.4063,1319.2344 1313.8125,1319.0938 1312.9375,1319.0938 C1310.3125,1319.0938 1308.3125,1321.1719 1308.3125,1323.8906 L1308.3125,1325.0156 C1308.3125,1327.5938 1310.4219,1329.4844 1313.3125,1329.4844 C1314.5313,1329.4844 1315.6875,1329.1875 1316.4375,1328.6406 C1317.0156,1328.2344 1317.3438,1327.7813 1317.3438,1327.3906 C1317.3438,1326.9375 1316.9531,1326.5469 1316.4844,1326.5469 C1316.2656,1326.5469 1316.0625,1326.625 1315.875,1326.8125 C1315.4219,1327.2969 1315.4219,1327.2969 1315.2344,1327.3906 C1314.8125,1327.6563 1314.125,1327.7813 1313.3594,1327.7813 C1311.3125,1327.7813 1310.0156,1326.6875 1310.0156,1324.9844 L1310.0156,1323.8906 C1310.0156,1322.1094 1311.2656,1320.7969 1313,1320.7969 C1313.5781,1320.7969 1314.1875,1320.9531 1314.6563,1321.2031 C1315.1406,1321.4844 1315.3125,1321.7031 1315.4063,1322.1094 C1315.4688,1322.5156 1315.5,1322.6406 1315.6406,1322.7656 C1315.7813,1322.9063 1316.0156,1323.0156 1316.2344,1323.0156 C1316.5,1323.0156 1316.7656,1322.875 1316.9375,1322.6563 C1317.0469,1322.5 1317.0781,1322.3125 1317.0781,1321.8906 L1317.0781,1320.4688 C1317.0781,1320.0313 1317.0625,1319.9063 1316.9688,1319.75 C1316.8125,1319.4844 1316.5313,1319.3438 1316.2344,1319.3438 C1315.9375,1319.3438 1315.7344,1319.4375 1315.5156,1319.75 L1315.3438,1319.6719 Z " fill="#000000"/><text fill="#000000" font-family="sans-serif" font-size="12" lengthAdjust="spacing" textLength="116" x="1333" y="1328.1543">ParameterCategory</text><line style="stroke:#A80036;stroke-width:1.5;" x1="1272" x2="1478" y1="1340" y2="1340"/><text fill="#000000" font-family="sans-serif" font-size="11" lengthAdjust="spacing" textLength="69" x="1277" y="1354.2104">-String code</text><text fill="#000000" font-family="sans-serif" font-size="11" lengthAdjust="spacing" textLength="74" x="1277" y="1367.0151">-String name</text><line style="stroke:#A80036;stroke-width:1.5;" x1="1272" x2="1478" y1="1373.6094" y2="1373.6094"/><text fill="#000000" font-family="sans-serif" font-size="11" lengthAdjust="spacing" textLength="196" x="1277" y="1387.8198">+ParameterCategory(code, name)</text><!--MD5=[0de185411ac6f39be4e6d8f4e4bd2bcc]
class TestUI--><rect codeLine="89" fill="#FEFECE" filter="url(#fdk2rw42o4tjh)" height="48" id="TestUI" style="stroke:#A80036;stroke-width:1.5;" width="70" x="956" y="7"/><ellipse cx="971" cy="23" fill="#ADD1B2" rx="11" ry="11" style="stroke:#A80036;stroke-width:1.0;"/><path d="M973.3438,18.6719 C972.4063,18.2344 971.8125,18.0938 970.9375,18.0938 C968.3125,18.0938 966.3125,20.1719 966.3125,22.8906 L966.3125,24.0156 C966.3125,26.5938 968.4219,28.4844 971.3125,28.4844 C972.5313,28.4844 973.6875,28.1875 974.4375,27.6406 C975.0156,27.2344 975.3438,26.7813 975.3438,26.3906 C975.3438,25.9375 974.9531,25.5469 974.4844,25.5469 C974.2656,25.5469 974.0625,25.625 973.875,25.8125 C973.4219,26.2969 973.4219,26.2969 973.2344,26.3906 C972.8125,26.6563 972.125,26.7813 971.3594,26.7813 C969.3125,26.7813 968.0156,25.6875 968.0156,23.9844 L968.0156,22.8906 C968.0156,21.1094 969.2656,19.7969 971,19.7969 C971.5781,19.7969 972.1875,19.9531 972.6563,20.2031 C973.1406,20.4844 973.3125,20.7031 973.4063,21.1094 C973.4688,21.5156 973.5,21.6406 973.6406,21.7656 C973.7813,21.9063 974.0156,22.0156 974.2344,22.0156 C974.5,22.0156 974.7656,21.875 974.9375,21.6563 C975.0469,21.5 975.0781,21.3125 975.0781,20.8906 L975.0781,19.4688 C975.0781,19.0313 975.0625,18.9063 974.9688,18.75 C974.8125,18.4844 974.5313,18.3438 974.2344,18.3438 C973.9375,18.3438 973.7344,18.4375 973.5156,18.75 L973.3438,18.6719 Z " fill="#000000"/><text fill="#000000" font-family="sans-serif" font-size="12" lengthAdjust="spacing" textLength="38" x="985" y="27.1543">TestUI</text><line style="stroke:#A80036;stroke-width:1.5;" x1="957" x2="1025" y1="39" y2="39"/><line style="stroke:#A80036;stroke-width:1.5;" x1="957" x2="1025" y1="47" y2="47"/><!--MD5=[f39222c906a5158620eb4ce0ead49545]
class TestController--><rect codeLine="92" fill="#FEFECE" filter="url(#fdk2rw42o4tjh)" height="137.6328" id="TestController" style="stroke:#A80036;stroke-width:1.5;" width="658" x="662" y="115"/><ellipse cx="944.25" cy="131" fill="#ADD1B2" rx="11" ry="11" style="stroke:#A80036;stroke-width:1.0;"/><path d="M946.5938,126.6719 C945.6563,126.2344 945.0625,126.0938 944.1875,126.0938 C941.5625,126.0938 939.5625,128.1719 939.5625,130.8906 L939.5625,132.0156 C939.5625,134.5938 941.6719,136.4844 944.5625,136.4844 C945.7813,136.4844 946.9375,136.1875 947.6875,135.6406 C948.2656,135.2344 948.5938,134.7813 948.5938,134.3906 C948.5938,133.9375 948.2031,133.5469 947.7344,133.5469 C947.5156,133.5469 947.3125,133.625 947.125,133.8125 C946.6719,134.2969 946.6719,134.2969 946.4844,134.3906 C946.0625,134.6563 945.375,134.7813 944.6094,134.7813 C942.5625,134.7813 941.2656,133.6875 941.2656,131.9844 L941.2656,130.8906 C941.2656,129.1094 942.5156,127.7969 944.25,127.7969 C944.8281,127.7969 945.4375,127.9531 945.9063,128.2031 C946.3906,128.4844 946.5625,128.7031 946.6563,129.1094 C946.7188,129.5156 946.75,129.6406 946.8906,129.7656 C947.0313,129.9063 947.2656,130.0156 947.4844,130.0156 C947.75,130.0156 948.0156,129.875 948.1875,129.6563 C948.2969,129.5 948.3281,129.3125 948.3281,128.8906 L948.3281,127.4688 C948.3281,127.0313 948.3125,126.9063 948.2188,126.75 C948.0625,126.4844 947.7813,126.3438 947.4844,126.3438 C947.1875,126.3438 946.9844,126.4375 946.7656,126.75 L946.5938,126.6719 Z " fill="#000000"/><text fill="#000000" font-family="sans-serif" font-size="12" lengthAdjust="spacing" textLength="85" x="964.75" y="135.1543">TestController</text><line style="stroke:#A80036;stroke-width:1.5;" x1="663" x2="1319" y1="147" y2="147"/><line style="stroke:#A80036;stroke-width:1.5;" x1="663" x2="1319" y1="155" y2="155"/><text fill="#000000" font-family="sans-serif" font-size="11" lengthAdjust="spacing" textLength="646" x="668" y="169.2104">+createTest(nhsCode, internalCode, client, testType, sCM,category, parameter, rD, sCD, cAD, diagnosisDate, vD)</text><text fill="#000000" font-family="sans-serif" font-size="11" lengthAdjust="spacing" textLength="74" x="668" y="182.0151">+saveTest(t)</text><text fill="#000000" font-family="sans-serif" font-size="11" lengthAdjust="spacing" textLength="75" x="668" y="194.8198">+getClients()</text><text fill="#000000" font-family="sans-serif" font-size="11" lengthAdjust="spacing" textLength="96" x="668" y="207.6245">+getTestTypes()</text><text fill="#000000" font-family="sans-serif" font-size="11" lengthAdjust="spacing" textLength="101" x="668" y="220.4292">+getParameters()</text><text fill="#000000" font-family="sans-serif" font-size="11" lengthAdjust="spacing" textLength="98" x="668" y="233.2339">+getCategories()</text><text fill="#000000" font-family="sans-serif" font-size="11" lengthAdjust="spacing" textLength="149" x="668" y="246.0386">+getCategoriesByList(cat)</text><!--MD5=[df38be88ccee13e832d6fafd6288a4ca]
class Test--><rect codeLine="103" fill="#FEFECE" filter="url(#fdk2rw42o4tjh)" height="214.4609" id="Test" style="stroke:#A80036;stroke-width:1.5;" width="621" x="886.5" y="644"/><ellipse cx="1179.75" cy="660" fill="#ADD1B2" rx="11" ry="11" style="stroke:#A80036;stroke-width:1.0;"/><path d="M1182.0938,655.6719 C1181.1563,655.2344 1180.5625,655.0938 1179.6875,655.0938 C1177.0625,655.0938 1175.0625,657.1719 1175.0625,659.8906 L1175.0625,661.0156 C1175.0625,663.5938 1177.1719,665.4844 1180.0625,665.4844 C1181.2813,665.4844 1182.4375,665.1875 1183.1875,664.6406 C1183.7656,664.2344 1184.0938,663.7813 1184.0938,663.3906 C1184.0938,662.9375 1183.7031,662.5469 1183.2344,662.5469 C1183.0156,662.5469 1182.8125,662.625 1182.625,662.8125 C1182.1719,663.2969 1182.1719,663.2969 1181.9844,663.3906 C1181.5625,663.6563 1180.875,663.7813 1180.1094,663.7813 C1178.0625,663.7813 1176.7656,662.6875 1176.7656,660.9844 L1176.7656,659.8906 C1176.7656,658.1094 1178.0156,656.7969 1179.75,656.7969 C1180.3281,656.7969 1180.9375,656.9531 1181.4063,657.2031 C1181.8906,657.4844 1182.0625,657.7031 1182.1563,658.1094 C1182.2188,658.5156 1182.25,658.6406 1182.3906,658.7656 C1182.5313,658.9063 1182.7656,659.0156 1182.9844,659.0156 C1183.25,659.0156 1183.5156,658.875 1183.6875,658.6563 C1183.7969,658.5 1183.8281,658.3125 1183.8281,657.8906 L1183.8281,656.4688 C1183.8281,656.0313 1183.8125,655.9063 1183.7188,655.75 C1183.5625,655.4844 1183.2813,655.3438 1182.9844,655.3438 C1182.6875,655.3438 1182.4844,655.4375 1182.2656,655.75 L1182.0938,655.6719 Z " fill="#000000"/><text fill="#000000" font-family="sans-serif" font-size="12" lengthAdjust="spacing" textLength="26" x="1200.25" y="664.1543">Test</text><line style="stroke:#A80036;stroke-width:1.5;" x1="887.5" x2="1506.5" y1="676" y2="676"/><text fill="#000000" font-family="sans-serif" font-size="11" lengthAdjust="spacing" textLength="94" x="892.5" y="690.2104">-String nhsCode;</text><text fill="#000000" font-family="sans-serif" font-size="11" lengthAdjust="spacing" textLength="117" x="892.5" y="703.0151">-String internalCode;</text><text fill="#000000" font-family="sans-serif" font-size="11" lengthAdjust="spacing" textLength="75" x="892.5" y="715.8198">-Client client;</text><text fill="#000000" font-family="sans-serif" font-size="11" lengthAdjust="spacing" textLength="116" x="892.5" y="728.6245">-TestType testType;</text><text fill="#000000" font-family="sans-serif" font-size="11" lengthAdjust="spacing" textLength="184" x="892.5" y="741.4292">-String sampleCollectionMethod;</text><text fill="#000000" font-family="sans-serif" font-size="11" lengthAdjust="spacing" textLength="279" x="892.5" y="754.2339">-List &lt;ParameterCategory&gt;  parameterCategory;</text><text fill="#000000" font-family="sans-serif" font-size="11" lengthAdjust="spacing" textLength="171" x="892.5" y="767.0386">-List &lt;Parameter&gt; parameter;</text><text fill="#000000" font-family="sans-serif" font-size="11" lengthAdjust="spacing" textLength="131" x="892.5" y="779.8433">-Date registrationDate;</text><text fill="#000000" font-family="sans-serif" font-size="11" lengthAdjust="spacing" textLength="171" x="892.5" y="792.6479">-Date samplesCollectionDate;</text><text fill="#000000" font-family="sans-serif" font-size="11" lengthAdjust="spacing" textLength="165" x="892.5" y="805.4526">-Date chemicalAnalysisDate;</text><text fill="#000000" font-family="sans-serif" font-size="11" lengthAdjust="spacing" textLength="120" x="892.5" y="818.2573">-Date diagnosisDate;</text><text fill="#000000" font-family="sans-serif" font-size="11" lengthAdjust="spacing" textLength="122" x="892.5" y="831.062">-Date validationDate;</text><line style="stroke:#A80036;stroke-width:1.5;" x1="887.5" x2="1506.5" y1="837.6563" y2="837.6563"/><text fill="#000000" font-family="sans-serif" font-size="11" lengthAdjust="spacing" textLength="609" x="892.5" y="851.8667">+Test(nhsCode, internalCode, client, testType, sCM,category, parameter, rD, sCD, cAD, diagnosisDate, vD)</text><!--MD5=[0f6f7964b844a64b0496af0dda7914bd]
class TestStore--><rect codeLine="119" fill="#FEFECE" filter="url(#fdk2rw42o4tjh)" height="99.2188" id="TestStore" style="stroke:#A80036;stroke-width:1.5;" width="621" x="680.5" y="485"/><ellipse cx="957.25" cy="501" fill="#ADD1B2" rx="11" ry="11" style="stroke:#A80036;stroke-width:1.0;"/><path d="M959.5938,496.6719 C958.6563,496.2344 958.0625,496.0938 957.1875,496.0938 C954.5625,496.0938 952.5625,498.1719 952.5625,500.8906 L952.5625,502.0156 C952.5625,504.5938 954.6719,506.4844 957.5625,506.4844 C958.7813,506.4844 959.9375,506.1875 960.6875,505.6406 C961.2656,505.2344 961.5938,504.7813 961.5938,504.3906 C961.5938,503.9375 961.2031,503.5469 960.7344,503.5469 C960.5156,503.5469 960.3125,503.625 960.125,503.8125 C959.6719,504.2969 959.6719,504.2969 959.4844,504.3906 C959.0625,504.6563 958.375,504.7813 957.6094,504.7813 C955.5625,504.7813 954.2656,503.6875 954.2656,501.9844 L954.2656,500.8906 C954.2656,499.1094 955.5156,497.7969 957.25,497.7969 C957.8281,497.7969 958.4375,497.9531 958.9063,498.2031 C959.3906,498.4844 959.5625,498.7031 959.6563,499.1094 C959.7188,499.5156 959.75,499.6406 959.8906,499.7656 C960.0313,499.9063 960.2656,500.0156 960.4844,500.0156 C960.75,500.0156 961.0156,499.875 961.1875,499.6563 C961.2969,499.5 961.3281,499.3125 961.3281,498.8906 L961.3281,497.4688 C961.3281,497.0313 961.3125,496.9063 961.2188,496.75 C961.0625,496.4844 960.7813,496.3438 960.4844,496.3438 C960.1875,496.3438 959.9844,496.4375 959.7656,496.75 L959.5938,496.6719 Z " fill="#000000"/><text fill="#000000" font-family="sans-serif" font-size="12" lengthAdjust="spacing" textLength="59" x="977.75" y="505.1543">TestStore</text><line style="stroke:#A80036;stroke-width:1.5;" x1="681.5" x2="1300.5" y1="517" y2="517"/><line style="stroke:#A80036;stroke-width:1.5;" x1="681.5" x2="1300.5" y1="525" y2="525"/><text fill="#000000" font-family="sans-serif" font-size="11" lengthAdjust="spacing" textLength="609" x="686.5" y="539.2104">+Test(nhsCode, internalCode, client, testType, sCM,category, parameter, rD, sCD, cAD, diagnosisDate, vD)</text><text fill="#000000" font-family="sans-serif" font-size="11" lengthAdjust="spacing" textLength="126" x="686.5" y="552.0151">+validateParameter(t)</text><text fill="#000000" font-family="sans-serif" font-size="11" lengthAdjust="spacing" textLength="108" x="686.5" y="564.8198">+saveParameter(t)</text><text fill="#000000" font-family="sans-serif" font-size="11" lengthAdjust="spacing" textLength="96" x="686.5" y="577.6245">+addTestType(t)</text><!--MD5=[74cd978ee99d39290863f0dd46ff2f89]
link TestUI to TestController--><path codeLine="126" d="M991,55.26 C991,70.06 991,90.1 991,109.92 " fill="none" id="TestUI-to-TestController" style="stroke:#A80036;stroke-width:1.0;stroke-dasharray:7.0,7.0;"/><polygon fill="#A80036" points="991,114.96,995,105.96,991,109.96,987,105.96,991,114.96" style="stroke:#A80036;stroke-width:1.0;"/><!--MD5=[b3e932a0b9ddf5fd0fa9570af6d67299]
link TestController to Company--><path codeLine="127" d="M991,253.14 C991,271.01 991,290.15 991,307.58 " fill="none" id="TestController-to-Company" style="stroke:#A80036;stroke-width:1.0;stroke-dasharray:7.0,7.0;"/><polygon fill="#A80036" points="991,312.93,995,303.93,991,307.93,987,303.93,991,312.93" style="stroke:#A80036;stroke-width:1.0;"/><!--MD5=[daf3d7412afa2c7651483be0b6e971d1]
link Company to ParameterStore--><path codeLine="128" d="M895.794,374.84 C818.967,384.37 715.355,411.164 663,485 C619.122,546.881 637.879,638.759 656.859,696.465 " fill="none" id="Company-to-ParameterStore" style="stroke:#A80036;stroke-width:1.0;"/><polygon fill="#A80036" points="658.459,701.25,659.3979,691.446,656.8731,696.5082,651.811,693.9834,658.459,701.25" style="stroke:#A80036;stroke-width:1.0;"/><text fill="#000000" font-family="sans-serif" font-size="13" lengthAdjust="spacing" textLength="8" x="879.8885" y="371.779">1</text><text fill="#000000" font-family="sans-serif" font-size="13" lengthAdjust="spacing" textLength="8" x="647.1485" y="690.2601">1</text><!--MD5=[d53d7490e5836ca5709858d7326f212b]
link Company to ParameterCategoryStore--><path codeLine="129" d="M1086.27,374.81 C1239.85,384.48 1550.47,412.005 1803,485 C1812.93,487.869 1823.12,491.482 1833.09,495.436 " fill="none" id="Company-to-ParameterCategoryStore" style="stroke:#A80036;stroke-width:1.0;"/><polygon fill="#A80036" points="1837.97,497.402,1831.1023,490.3427,1833.3284,495.5431,1828.128,497.7692,1837.97,497.402" style="stroke:#A80036;stroke-width:1.0;"/><text fill="#000000" font-family="sans-serif" font-size="13" lengthAdjust="spacing" textLength="8" x="1093.8704" y="371.7517">1</text><text fill="#000000" font-family="sans-serif" font-size="13" lengthAdjust="spacing" textLength="8" x="1816.249" y="486.5715">1</text><!--MD5=[141c3afa12b2b3c0a39ffce56dbd5f19]
link Company to TestTypeStore--><path codeLine="130" d="M1086.08,397.274 C1167.85,420.728 1287.89,455.16 1386.82,483.539 " fill="none" id="Company-to-TestTypeStore" style="stroke:#A80036;stroke-width:1.0;"/><polygon fill="#A80036" points="1391.82,484.971,1384.2627,478.6554,1387.0118,483.5993,1382.0679,486.3484,1391.82,484.971" style="stroke:#A80036;stroke-width:1.0;"/><text fill="#000000" font-family="sans-serif" font-size="13" lengthAdjust="spacing" textLength="8" x="1093.9754" y="395.9964">1</text><text fill="#000000" font-family="sans-serif" font-size="13" lengthAdjust="spacing" textLength="8" x="1359.4666" y="474.0121">1</text><!--MD5=[9dec42a3b1fb794d839b2c916f9b8879]
link Company to ClientList--><path codeLine="131" d="M895.908,392.18 C821.185,411.487 715.623,442.983 629,485 C518.46,538.617 403.387,620.239 326.946,678.723 " fill="none" id="Company-to-ClientList" style="stroke:#A80036;stroke-width:1.0;"/><polygon fill="#A80036" points="322.88,681.84,332.4566,679.5403,326.8486,678.7986,327.5903,673.1905,322.88,681.84" style="stroke:#A80036;stroke-width:1.0;"/><text fill="#000000" font-family="sans-serif" font-size="13" lengthAdjust="spacing" textLength="8" x="880.0116" y="390.5008">1</text><text fill="#000000" font-family="sans-serif" font-size="13" lengthAdjust="spacing" textLength="8" x="323.2208" y="671.0271">1</text><!--MD5=[ab179af0153bf609fe4891204b6ca111]
link ClientList to Client--><path codeLine="132" d="M283.999,820.376 C302.352,847.658 324.366,880.382 346.512,913.302 " fill="none" id="ClientList-to-Client" style="stroke:#A80036;stroke-width:1.0;"/><polygon fill="#A80036" points="349.495,917.736,347.7909,908.0357,346.7044,913.5872,341.1529,912.5007,349.495,917.736" style="stroke:#A80036;stroke-width:1.0;"/><text fill="#000000" font-family="sans-serif" font-size="13" lengthAdjust="spacing" textLength="8" x="280.002" y="839.794">1</text><text fill="#000000" font-family="sans-serif" font-size="13" lengthAdjust="spacing" textLength="7" x="337.3291" y="906.9843">*</text><!--MD5=[7f6cf7f175eae0af66201860de5de971]
link Company to TestStore--><path codeLine="133" d="M991,425.354 C991,442.817 991,462.08 991,479.451 " fill="none" id="Company-to-TestStore" style="stroke:#A80036;stroke-width:1.0;"/><polygon fill="#A80036" points="991,484.777,995,475.777,991,479.777,987,475.777,991,484.777" style="stroke:#A80036;stroke-width:1.0;"/><text fill="#000000" font-family="sans-serif" font-size="13" lengthAdjust="spacing" textLength="8" x="982.5125" y="445.2098">1</text><text fill="#000000" font-family="sans-serif" font-size="13" lengthAdjust="spacing" textLength="8" x="982.4375" y="473.7909">1</text><!--MD5=[b0f4f6db8206580012ef9cd998ed01c5]
link TestStore to Test--><path codeLine="134" d="M1037.74,584.173 C1053.77,600.86 1072.42,620.276 1091.19,639.822 " fill="none" id="TestStore-to-Test" style="stroke:#A80036;stroke-width:1.0;"/><polygon fill="#A80036" points="1094.94,643.732,1091.5817,634.4734,1091.473,640.1292,1085.8172,640.0206,1094.94,643.732" style="stroke:#A80036;stroke-width:1.0;"/><text fill="#000000" font-family="sans-serif" font-size="13" lengthAdjust="spacing" textLength="8" x="1035.7503" y="604.2738">1</text><text fill="#000000" font-family="sans-serif" font-size="13" lengthAdjust="spacing" textLength="7" x="1080.8477" y="633.0769">*</text><!--MD5=[3eebf0e5f359806b77b30e9524c37676]
link TestTypeStore to TestType--><path codeLine="135" d="M1555.98,584.479 C1545.71,684.672 1522.34,912.761 1511.17,1021.789 " fill="none" id="TestTypeStore-to-TestType" style="stroke:#A80036;stroke-width:1.0;"/><polygon fill="#A80036" points="1510.65,1026.889,1515.5476,1018.3442,1511.1603,1021.9151,1507.5893,1017.5278,1510.65,1026.889" style="stroke:#A80036;stroke-width:1.0;"/><text fill="#000000" font-family="sans-serif" font-size="13" lengthAdjust="spacing" textLength="8" x="1546.7679" y="604.2639">1</text><text fill="#000000" font-family="sans-serif" font-size="13" lengthAdjust="spacing" textLength="7" x="1503.9255" y="1015.8127">*</text><!--MD5=[8aaf0efd5e2f3824be7ea3e488dcc283]
link TestType to ParameterCategory--><path codeLine="136" d="M1478.06,1139.115 C1454.41,1187.518 1420.37,1257.171 1397.98,1302.9895 " fill="none" id="TestType-to-ParameterCategory" style="stroke:#A80036;stroke-width:1.0;"/><polygon fill="#A80036" points="1395.71,1307.6241,1403.2514,1301.2895,1397.9025,1303.1304,1396.0615,1297.7815,1395.71,1307.6241" style="stroke:#A80036;stroke-width:1.0;"/><text fill="#000000" font-family="sans-serif" font-size="13" lengthAdjust="spacing" textLength="7" x="1467.3501" y="1158.9416">*</text><text fill="#000000" font-family="sans-serif" font-size="13" lengthAdjust="spacing" textLength="23" x="1374.1203" y="1296.879">1..*</text><!--MD5=[a0992dda039fed1bb57aff5aacace800]
link ParameterStore to Parameter--><path codeLine="137" d="M731.119,800.693 C795.648,859.844 904.442,959.572 973.659,1023.02 " fill="none" id="ParameterStore-to-Parameter" style="stroke:#A80036;stroke-width:1.0;"/><polygon fill="#A80036" points="977.747,1026.768,973.8155,1017.7379,974.0612,1023.3894,968.4097,1023.6351,977.747,1026.768" style="stroke:#A80036;stroke-width:1.0;"/><text fill="#000000" font-family="sans-serif" font-size="13" lengthAdjust="spacing" textLength="8" x="730.0264" y="820.7966">1</text><text fill="#000000" font-family="sans-serif" font-size="13" lengthAdjust="spacing" textLength="7" x="962.9771" y="1016.0742">*</text><!--MD5=[d6274e3b73b5bc8f467c6cfbf5bf003e]
link ParameterCategoryStore to ParameterCategory--><path codeLine="138" d="M1913.25,571.714 C1918.34,687.468 1917.9,1052.336 1728,1248 C1664.75,1313.1739 1562.67,1337.4038 1484.51,1346.0732 " fill="none" id="ParameterCategoryStore-to-ParameterCategory" style="stroke:#A80036;stroke-width:1.0;"/><polygon fill="#A80036" points="1479.4,1346.622,1488.781,1349.6214,1484.3705,1346.0792,1487.9126,1341.6687,1479.4,1346.622" style="stroke:#A80036;stroke-width:1.0;"/><text fill="#000000" font-family="sans-serif" font-size="13" lengthAdjust="spacing" textLength="8" x="1904.9602" y="591.23">1</text><text fill="#000000" font-family="sans-serif" font-size="13" lengthAdjust="spacing" textLength="8" x="1487.0219" y="1342.8438">1</text><!--MD5=[6df8849671cb880f6936e94aa30db6f9]
link Parameter to ParameterCategory--><path codeLine="139" d="M1094.66,1139.134 C1129.64,1172.114 1176.07,1214.069 1220,1248 C1245.89,1268.001 1275.64,1288.187 1302.1,1305.2628 " fill="none" id="Parameter-to-ParameterCategory" style="stroke:#A80036;stroke-width:1.0;"/><polygon fill="#A80036" points="1306.32,1307.9761,1300.9078,1299.7476,1302.1126,1305.2747,1296.5855,1306.4794,1306.32,1307.9761" style="stroke:#A80036;stroke-width:1.0;"/><text fill="#000000" font-family="sans-serif" font-size="13" lengthAdjust="spacing" textLength="7" x="1094.1389" y="1158.963">*</text><text fill="#000000" font-family="sans-serif" font-size="13" lengthAdjust="spacing" textLength="23" x="1270.5413" y="1296.9682">1..*</text><!--MD5=[e981d4f96c4342412d1e68160b30cf70]
link Test to TestType--><path codeLine="140" d="M1296.15,858.231 C1347.12,912.844 1407.31,977.337 1449.95,1023.022 " fill="none" id="Test-to-TestType" style="stroke:#A80036;stroke-width:1.0;"/><polygon fill="#A80036" points="1453.51,1026.829,1450.2959,1017.5193,1450.0994,1023.1728,1444.446,1022.9763,1453.51,1026.829" style="stroke:#A80036;stroke-width:1.0;"/><text fill="#000000" font-family="sans-serif" font-size="13" lengthAdjust="spacing" textLength="8" x="1294.8402" y="878.3534">1</text><text fill="#000000" font-family="sans-serif" font-size="13" lengthAdjust="spacing" textLength="8" x="1438.4003" y="1015.7451">1</text><!--MD5=[3994f36c72829dbcddd1cf7021dddf61]
link Test to Client--><path codeLine="141" d="M960.26,858.003 C870.113,898.367 767.851,944.156 679.382,983.769 " fill="none" id="Test-to-Client" style="stroke:#A80036;stroke-width:1.0;"/><polygon fill="#A80036" points="674.647,985.89,684.4958,985.8631,679.2105,983.8469,681.2268,978.5615,674.647,985.89" style="stroke:#A80036;stroke-width:1.0;"/><text fill="#000000" font-family="sans-serif" font-size="13" lengthAdjust="spacing" textLength="8" x="934.5807" y="878.4667">1</text><text fill="#000000" font-family="sans-serif" font-size="13" lengthAdjust="spacing" textLength="8" x="682.5046" y="979.2052">1</text><!--MD5=[c23963f6e403fc3ebec8dae22c30ade6]
link Test to Parameter--><path codeLine="142" d="M1145.82,858.231 C1119.66,912.515 1088.8,976.561 1066.82,1022.194 " fill="none" id="Test-to-Parameter" style="stroke:#A80036;stroke-width:1.0;"/><polygon fill="#A80036" points="1064.58,1026.829,1072.0938,1020.4617,1066.7529,1022.3259,1064.8888,1016.985,1064.58,1026.829" style="stroke:#A80036;stroke-width:1.0;"/><text fill="#000000" font-family="sans-serif" font-size="13" lengthAdjust="spacing" textLength="8" x="1133.9402" y="878.3534">1</text><text fill="#000000" font-family="sans-serif" font-size="13" lengthAdjust="spacing" textLength="27" x="1039.2559" y="1015.7451">1...*</text><!--MD5=[8742b9b07f4ff1e96b776c10733812b1]
link Test to ParameterCategory--><path codeLine="143" d="M1207.81,858.108 C1221.75,982.758 1248.15,1181.061 1281,1248 C1291.06,1268.501 1306.56,1287.809 1322.1,1303.9959 " fill="none" id="Test-to-ParameterCategory" style="stroke:#A80036;stroke-width:1.0;"/><polygon fill="#A80036" points="1325.62,1307.6141,1322.2116,1298.3738,1322.1336,1304.0301,1316.4772,1303.9521,1325.62,1307.6141" style="stroke:#A80036;stroke-width:1.0;"/><text fill="#000000" font-family="sans-serif" font-size="13" lengthAdjust="spacing" textLength="8" x="1200.3101" y="878.5794">1</text><text fill="#000000" font-family="sans-serif" font-size="13" lengthAdjust="spacing" textLength="27" x="1320.1259" y="1296.8674">1...*</text><!--MD5=[16ea6a9032d03d99d586c940e41f29af]
@startuml
skinparam classAttributeIconSize 0

class Company
{
  -String designation
  +getClientList()
  +getTestTypeStore()
  +getParameterCategoryStore()
  +getParameterStore()
}

class Client {
-ccn: long
-NHSnumber: long
-birthDate: int
-sex: String
-tin: long
-phoneNumber: long
-email: String
-password: String
-client: User
+acessorMethods

+Client(ccn, nhsNumber, birthDate, sex, email, tin, phoneNumber, name)
+Client(ccn, nhsNumber, birthDate, email, tin, phoneNumber, name)
+generatePassword();
+toString()
+equals(client)
+validateCcn()
+validateNhsNumber()
+validateBirthDate()
+validateTin()
+validateSex()
+validatePhoneNumber()
+validateName() 
}

class ClientList {
  -List <Client> clientList
  +createClient(ccn, nhsNumber, birthDate, sex, email,tin, phoneNumber, name)
  +createClient(ccn, nhsNumber, birthDate, email,tin, phoneNumber, name)
  -add(client)
  +saveClient(client)
  +getClients()
  +isClientInList()
}

class TestTypeStore {
+createTestType(code, description, collectingMethod, parameterCategories)
+validateTestType(tt)
+saveTestType(tt)
-addTestType(t)
}

class TestType{
-String code
-String description
-String collectingMethod
-List<ParameterCategory> parameterCategories
+TestType(code, description, collectingMethod, parameterCategories)
}


class ParameterStore {
  +createParameter(code, shortname, description, category)
  +validateParameter(p)
  +saveParameter(p)
  +addTestType(p)
}
class Parameter {
  -String code
  -String shortname
  -String description
  -List<ParameterCategory> category
  +Parameter(code, shortname, description, category)
}

class ParameterCategoryStore {
  +getParameterCategories()
  +getCategoriesByList();
}

class ParameterCategory {
  -String code
  -String name
  +ParameterCategory(code, name)
}

class TestUI {
}

class TestController {
  +createTest(nhsCode, internalCode, client, testType, sCM,category, parameter, rD, sCD, cAD, diagnosisDate, vD)
  +saveTest(t)
  +getClients()
  +getTestTypes()
  +getParameters()
  +getCategories()
  +getCategoriesByList(cat)
  
}

class Test {
  -String nhsCode;
   -String internalCode;
   -Client client;
    -TestType testType;
   -String sampleCollectionMethod;
     -List <ParameterCategory>  parameterCategory;
   -List <Parameter> parameter;
    -Date registrationDate;
     -Date samplesCollectionDate;
     -Date chemicalAnalysisDate;
     -Date diagnosisDate;
    -Date validationDate;
  +Test(nhsCode, internalCode, client, testType, sCM,category, parameter, rD, sCD, cAD, diagnosisDate, vD)
}

class TestStore {
  +Test(nhsCode, internalCode, client, testType, sCM,category, parameter, rD, sCD, cAD, diagnosisDate, vD)
+validateParameter(t)
  +saveParameter(t)
  +addTestType(t)
}

TestUI ..> TestController
TestController ..> Company
Company "1" - -> "1" ParameterStore
Company "1" - -> "1" ParameterCategoryStore
Company "1" - -> "1" TestTypeStore
Company "1" - -> "1" ClientList
ClientList "1" - -> "*" Client
Company "1" - -> "1" TestStore
TestStore"1" - -> "*" Test
TestTypeStore "1" - -> "*" TestType
TestType "*" - -> "1..*" ParameterCategory
ParameterStore "1" - -> "*" Parameter 
ParameterCategoryStore "1" - -> "1" ParameterCategory
Parameter "*" - -> "1..*" ParameterCategory
Test "1" - -> "1" TestType
Test "1" - -> "1" Client
Test "1" - -> "1...*" Parameter
Test "1" - -> "1...*" ParameterCategory
@enduml

PlantUML version 1.2021.7beta3(Unknown compile time)
(GPL source distribution)
Java Runtime: Java(TM) SE Runtime Environment
JVM: Java HotSpot(TM) 64-Bit Server VM
Default Encoding: UTF-8
Language: en
Country: US
--></g></svg>