<?xml version="1.0" encoding="UTF-8" standalone="no"?><svg xmlns="http://www.w3.org/2000/svg" xmlns:xlink="http://www.w3.org/1999/xlink" contentScriptType="application/ecmascript" contentStyleType="text/css" height="1254px" preserveAspectRatio="none" style="width:1667px;height:1254px;background:#FFFFFF;" version="1.1" viewBox="0 0 1667 1254" width="1667px" zoomAndPan="magnify"><defs><filter height="300%" id="flyfw4a6h2hhv" width="300%" x="-1" y="-1"><feGaussianBlur result="blurOut" stdDeviation="2.0"/><feColorMatrix in="blurOut" result="blurOut2" type="matrix" values="0 0 0 0 0 0 0 0 0 0 0 0 0 0 0 0 0 0 .4 0"/><feOffset dx="4.0" dy="4.0" in="blurOut2" result="blurOut3"/><feBlend in="SourceGraphic" in2="blurOut3" mode="normal"/></filter></defs><g><!--MD5=[1934a092c0e7d4da7dc7075b6f4b6b03]
class ClinicalAnalysisLaboratory--><rect codeLine="3" fill="#FEFECE" filter="url(#flyfw4a6h2hhv)" height="124.8281" id="ClinicalAnalysisLaboratory" style="stroke:#A80036;stroke-width:1.5;" width="187" x="471" y="924.5"/><ellipse cx="486" cy="940.5" fill="#ADD1B2" rx="11" ry="11" style="stroke:#A80036;stroke-width:1.0;"/><path d="M488.3438,936.1719 C487.4063,935.7344 486.8125,935.5938 485.9375,935.5938 C483.3125,935.5938 481.3125,937.6719 481.3125,940.3906 L481.3125,941.5156 C481.3125,944.0938 483.4219,945.9844 486.3125,945.9844 C487.5313,945.9844 488.6875,945.6875 489.4375,945.1406 C490.0156,944.7344 490.3438,944.2813 490.3438,943.8906 C490.3438,943.4375 489.9531,943.0469 489.4844,943.0469 C489.2656,943.0469 489.0625,943.125 488.875,943.3125 C488.4219,943.7969 488.4219,943.7969 488.2344,943.8906 C487.8125,944.1563 487.125,944.2813 486.3594,944.2813 C484.3125,944.2813 483.0156,943.1875 483.0156,941.4844 L483.0156,940.3906 C483.0156,938.6094 484.2656,937.2969 486,937.2969 C486.5781,937.2969 487.1875,937.4531 487.6563,937.7031 C488.1406,937.9844 488.3125,938.2031 488.4063,938.6094 C488.4688,939.0156 488.5,939.1406 488.6406,939.2656 C488.7813,939.4063 489.0156,939.5156 489.2344,939.5156 C489.5,939.5156 489.7656,939.375 489.9375,939.1563 C490.0469,939 490.0781,938.8125 490.0781,938.3906 L490.0781,936.9688 C490.0781,936.5313 490.0625,936.4063 489.9688,936.25 C489.8125,935.9844 489.5313,935.8438 489.2344,935.8438 C488.9375,935.8438 488.7344,935.9375 488.5156,936.25 L488.3438,936.1719 Z " fill="#000000"/><text fill="#000000" font-family="sans-serif" font-size="12" lengthAdjust="spacing" textLength="155" x="500" y="944.6543">ClinicalAnalysisLaboratory</text><line style="stroke:#A80036;stroke-width:1.5;" x1="472" x2="657" y1="956.5" y2="956.5"/><text fill="#000000" font-family="sans-serif" font-size="11" lengthAdjust="spacing" textLength="73" x="477" y="970.7104">String name;</text><text fill="#000000" font-family="sans-serif" font-size="11" lengthAdjust="spacing" textLength="78" x="477" y="983.5151">String adress;</text><text fill="#000000" font-family="sans-serif" font-size="11" lengthAdjust="spacing" textLength="112" x="477" y="996.3198">long phoneNumber;</text><text fill="#000000" font-family="sans-serif" font-size="11" lengthAdjust="spacing" textLength="45" x="477" y="1009.1245">long tin;</text><text fill="#000000" font-family="sans-serif" font-size="11" lengthAdjust="spacing" textLength="155" x="477" y="1021.9292">List&lt;TestType&gt; testTypes;</text><text fill="#000000" font-family="sans-serif" font-size="11" lengthAdjust="spacing" textLength="98" x="477" y="1034.7339">TestStore tStore;</text><line style="stroke:#A80036;stroke-width:1.5;" x1="472" x2="657" y1="1041.3281" y2="1041.3281"/><!--MD5=[02e4b9b7573f1156f41e60aa5b4e25a4]
class Company--><rect codeLine="12" fill="#FEFECE" filter="url(#flyfw4a6h2hhv)" height="124.8281" id="Company" style="stroke:#A80036;stroke-width:1.5;" width="190" x="974.5" y="313"/><ellipse cx="1037.25" cy="329" fill="#ADD1B2" rx="11" ry="11" style="stroke:#A80036;stroke-width:1.0;"/><path d="M1039.5938,324.6719 C1038.6563,324.2344 1038.0625,324.0938 1037.1875,324.0938 C1034.5625,324.0938 1032.5625,326.1719 1032.5625,328.8906 L1032.5625,330.0156 C1032.5625,332.5938 1034.6719,334.4844 1037.5625,334.4844 C1038.7813,334.4844 1039.9375,334.1875 1040.6875,333.6406 C1041.2656,333.2344 1041.5938,332.7813 1041.5938,332.3906 C1041.5938,331.9375 1041.2031,331.5469 1040.7344,331.5469 C1040.5156,331.5469 1040.3125,331.625 1040.125,331.8125 C1039.6719,332.2969 1039.6719,332.2969 1039.4844,332.3906 C1039.0625,332.6563 1038.375,332.7813 1037.6094,332.7813 C1035.5625,332.7813 1034.2656,331.6875 1034.2656,329.9844 L1034.2656,328.8906 C1034.2656,327.1094 1035.5156,325.7969 1037.25,325.7969 C1037.8281,325.7969 1038.4375,325.9531 1038.9063,326.2031 C1039.3906,326.4844 1039.5625,326.7031 1039.6563,327.1094 C1039.7188,327.5156 1039.75,327.6406 1039.8906,327.7656 C1040.0313,327.9063 1040.2656,328.0156 1040.4844,328.0156 C1040.75,328.0156 1041.0156,327.875 1041.1875,327.6563 C1041.2969,327.5 1041.3281,327.3125 1041.3281,326.8906 L1041.3281,325.4688 C1041.3281,325.0313 1041.3125,324.9063 1041.2188,324.75 C1041.0625,324.4844 1040.7813,324.3438 1040.4844,324.3438 C1040.1875,324.3438 1039.9844,324.4375 1039.7656,324.75 L1039.5938,324.6719 Z " fill="#000000"/><text fill="#000000" font-family="sans-serif" font-size="12" lengthAdjust="spacing" textLength="56" x="1057.75" y="333.1543">Company</text><line style="stroke:#A80036;stroke-width:1.5;" x1="975.5" x2="1163.5" y1="345" y2="345"/><text fill="#000000" font-family="sans-serif" font-size="11" lengthAdjust="spacing" textLength="107" x="980.5" y="359.2104">-String designation</text><line style="stroke:#A80036;stroke-width:1.5;" x1="975.5" x2="1163.5" y1="365.8047" y2="365.8047"/><text fill="#000000" font-family="sans-serif" font-size="11" lengthAdjust="spacing" textLength="88" x="980.5" y="380.0151">+getClientList()</text><text fill="#000000" font-family="sans-serif" font-size="11" lengthAdjust="spacing" textLength="121" x="980.5" y="392.8198">+getTestTypeStore()</text><text fill="#000000" font-family="sans-serif" font-size="11" lengthAdjust="spacing" textLength="178" x="980.5" y="405.6245">+getParameterCategoryStore()</text><text fill="#000000" font-family="sans-serif" font-size="11" lengthAdjust="spacing" textLength="126" x="980.5" y="418.4292">+getParameterStore()</text><text fill="#000000" font-family="sans-serif" font-size="11" lengthAdjust="spacing" textLength="92" x="980.5" y="431.2339">+getTestStore()</text><!--MD5=[ed6624c6556d5e7b1bd23032162d20b7]
class Client--><rect codeLine="22" fill="#FEFECE" filter="url(#flyfw4a6h2hhv)" height="214.4609" id="Client" style="stroke:#A80036;stroke-width:1.5;" width="429" x="7" y="880"/><ellipse cx="200.75" cy="896" fill="#ADD1B2" rx="11" ry="11" style="stroke:#A80036;stroke-width:1.0;"/><path d="M203.0938,891.6719 C202.1563,891.2344 201.5625,891.0938 200.6875,891.0938 C198.0625,891.0938 196.0625,893.1719 196.0625,895.8906 L196.0625,897.0156 C196.0625,899.5938 198.1719,901.4844 201.0625,901.4844 C202.2813,901.4844 203.4375,901.1875 204.1875,900.6406 C204.7656,900.2344 205.0938,899.7813 205.0938,899.3906 C205.0938,898.9375 204.7031,898.5469 204.2344,898.5469 C204.0156,898.5469 203.8125,898.625 203.625,898.8125 C203.1719,899.2969 203.1719,899.2969 202.9844,899.3906 C202.5625,899.6563 201.875,899.7813 201.1094,899.7813 C199.0625,899.7813 197.7656,898.6875 197.7656,896.9844 L197.7656,895.8906 C197.7656,894.1094 199.0156,892.7969 200.75,892.7969 C201.3281,892.7969 201.9375,892.9531 202.4063,893.2031 C202.8906,893.4844 203.0625,893.7031 203.1563,894.1094 C203.2188,894.5156 203.25,894.6406 203.3906,894.7656 C203.5313,894.9063 203.7656,895.0156 203.9844,895.0156 C204.25,895.0156 204.5156,894.875 204.6875,894.6563 C204.7969,894.5 204.8281,894.3125 204.8281,893.8906 L204.8281,892.4688 C204.8281,892.0313 204.8125,891.9063 204.7188,891.75 C204.5625,891.4844 204.2813,891.3438 203.9844,891.3438 C203.6875,891.3438 203.4844,891.4375 203.2656,891.75 L203.0938,891.6719 Z " fill="#000000"/><text fill="#000000" font-family="sans-serif" font-size="12" lengthAdjust="spacing" textLength="33" x="221.25" y="900.1543">Client</text><line style="stroke:#A80036;stroke-width:1.5;" x1="8" x2="435" y1="912" y2="912"/><text fill="#000000" font-family="sans-serif" font-size="11" lengthAdjust="spacing" textLength="54" x="13" y="926.2104">-ccn: long</text><text fill="#000000" font-family="sans-serif" font-size="11" lengthAdjust="spacing" textLength="103" x="13" y="939.0151">-NHSnumber: long</text><text fill="#000000" font-family="sans-serif" font-size="11" lengthAdjust="spacing" textLength="78" x="13" y="951.8198">-birthDate: int</text><text fill="#000000" font-family="sans-serif" font-size="11" lengthAdjust="spacing" textLength="65" x="13" y="964.6245">-sex: String</text><text fill="#000000" font-family="sans-serif" font-size="11" lengthAdjust="spacing" textLength="49" x="13" y="977.4292">-tin: long</text><text fill="#000000" font-family="sans-serif" font-size="11" lengthAdjust="spacing" textLength="116" x="13" y="990.2339">-phoneNumber: long</text><text fill="#000000" font-family="sans-serif" font-size="11" lengthAdjust="spacing" textLength="76" x="13" y="1003.0386">-email: String</text><text fill="#000000" font-family="sans-serif" font-size="11" lengthAdjust="spacing" textLength="97" x="13" y="1015.8433">-password: String</text><text fill="#000000" font-family="sans-serif" font-size="11" lengthAdjust="spacing" textLength="68" x="13" y="1028.6479">-client: User</text><text fill="#000000" font-family="sans-serif" font-size="11" lengthAdjust="spacing" textLength="101" x="13" y="1041.4526">+acessorMethods</text><line style="stroke:#A80036;stroke-width:1.5;" x1="8" x2="435" y1="1048.0469" y2="1048.0469"/><text fill="#000000" font-family="sans-serif" font-size="11" lengthAdjust="spacing" textLength="417" x="13" y="1062.2573">+Client(ccn, nhsNumber, birthDate, sex, email, tin, phoneNumber, name)</text><text fill="#000000" font-family="sans-serif" font-size="11" lengthAdjust="spacing" textLength="389" x="13" y="1075.062">+Client(ccn, nhsNumber, birthDate, email, tin, phoneNumber, name)</text><text fill="#000000" font-family="sans-serif" font-size="11" lengthAdjust="spacing" textLength="26" x="13" y="1087.8667">+...()</text><!--MD5=[594612147f950995a18c1e6474349bc0]
class ClientList--><rect codeLine="39" fill="#FEFECE" filter="url(#flyfw4a6h2hhv)" height="112.0234" id="ClientList" style="stroke:#A80036;stroke-width:1.5;" width="462" x="27.5" y="689"/><ellipse cx="227.75" cy="705" fill="#ADD1B2" rx="11" ry="11" style="stroke:#A80036;stroke-width:1.0;"/><path d="M230.0937,700.6719 C229.1562,700.2344 228.5625,700.0938 227.6875,700.0938 C225.0625,700.0938 223.0625,702.1719 223.0625,704.8906 L223.0625,706.0156 C223.0625,708.5938 225.1719,710.4844 228.0625,710.4844 C229.2812,710.4844 230.4375,710.1875 231.1875,709.6406 C231.7656,709.2344 232.0937,708.7813 232.0937,708.3906 C232.0937,707.9375 231.7031,707.5469 231.2344,707.5469 C231.0156,707.5469 230.8125,707.625 230.625,707.8125 C230.1719,708.2969 230.1719,708.2969 229.9844,708.3906 C229.5625,708.6563 228.875,708.7813 228.1094,708.7813 C226.0625,708.7813 224.7656,707.6875 224.7656,705.9844 L224.7656,704.8906 C224.7656,703.1094 226.0156,701.7969 227.75,701.7969 C228.3281,701.7969 228.9375,701.9531 229.4062,702.2031 C229.8906,702.4844 230.0625,702.7031 230.1562,703.1094 C230.2187,703.5156 230.25,703.6406 230.3906,703.7656 C230.5312,703.9063 230.7656,704.0156 230.9844,704.0156 C231.25,704.0156 231.5156,703.875 231.6875,703.6563 C231.7969,703.5 231.8281,703.3125 231.8281,702.8906 L231.8281,701.4688 C231.8281,701.0313 231.8125,700.9063 231.7187,700.75 C231.5625,700.4844 231.2812,700.3438 230.9844,700.3438 C230.6875,700.3438 230.4844,700.4375 230.2656,700.75 L230.0937,700.6719 Z " fill="#000000"/><text fill="#000000" font-family="sans-serif" font-size="12" lengthAdjust="spacing" textLength="53" x="248.25" y="709.1543">ClientList</text><line style="stroke:#A80036;stroke-width:1.5;" x1="28.5" x2="488.5" y1="721" y2="721"/><text fill="#000000" font-family="sans-serif" font-size="11" lengthAdjust="spacing" textLength="132" x="33.5" y="735.2104">-List &lt;Client&gt; clientList</text><line style="stroke:#A80036;stroke-width:1.5;" x1="28.5" x2="488.5" y1="741.8047" y2="741.8047"/><text fill="#000000" font-family="sans-serif" font-size="11" lengthAdjust="spacing" textLength="450" x="33.5" y="756.0151">+createClient(ccn, nhsNumber, birthDate, sex, email,tin, phoneNumber, name)</text><text fill="#000000" font-family="sans-serif" font-size="11" lengthAdjust="spacing" textLength="422" x="33.5" y="768.8198">+createClient(ccn, nhsNumber, birthDate, email,tin, phoneNumber, name)</text><text fill="#000000" font-family="sans-serif" font-size="11" lengthAdjust="spacing" textLength="109" x="33.5" y="781.6245">+saveClient(client)</text><text fill="#000000" font-family="sans-serif" font-size="11" lengthAdjust="spacing" textLength="75" x="33.5" y="794.4292">+getClients()</text><!--MD5=[6ba72ddf03822b91e8d41ca71de58ed3]
class TestTypeStore--><rect codeLine="47" fill="#FEFECE" filter="url(#flyfw4a6h2hhv)" height="99.2188" id="TestTypeStore" style="stroke:#A80036;stroke-width:1.5;" width="449" x="1072" y="695.5"/><ellipse cx="1247.75" cy="711.5" fill="#ADD1B2" rx="11" ry="11" style="stroke:#A80036;stroke-width:1.0;"/><path d="M1250.0938,707.1719 C1249.1563,706.7344 1248.5625,706.5938 1247.6875,706.5938 C1245.0625,706.5938 1243.0625,708.6719 1243.0625,711.3906 L1243.0625,712.5156 C1243.0625,715.0938 1245.1719,716.9844 1248.0625,716.9844 C1249.2813,716.9844 1250.4375,716.6875 1251.1875,716.1406 C1251.7656,715.7344 1252.0938,715.2813 1252.0938,714.8906 C1252.0938,714.4375 1251.7031,714.0469 1251.2344,714.0469 C1251.0156,714.0469 1250.8125,714.125 1250.625,714.3125 C1250.1719,714.7969 1250.1719,714.7969 1249.9844,714.8906 C1249.5625,715.1563 1248.875,715.2813 1248.1094,715.2813 C1246.0625,715.2813 1244.7656,714.1875 1244.7656,712.4844 L1244.7656,711.3906 C1244.7656,709.6094 1246.0156,708.2969 1247.75,708.2969 C1248.3281,708.2969 1248.9375,708.4531 1249.4063,708.7031 C1249.8906,708.9844 1250.0625,709.2031 1250.1563,709.6094 C1250.2188,710.0156 1250.25,710.1406 1250.3906,710.2656 C1250.5313,710.4063 1250.7656,710.5156 1250.9844,710.5156 C1251.25,710.5156 1251.5156,710.375 1251.6875,710.1563 C1251.7969,710 1251.8281,709.8125 1251.8281,709.3906 L1251.8281,707.9688 C1251.8281,707.5313 1251.8125,707.4063 1251.7188,707.25 C1251.5625,706.9844 1251.2813,706.8438 1250.9844,706.8438 C1250.6875,706.8438 1250.4844,706.9375 1250.2656,707.25 L1250.0938,707.1719 Z " fill="#000000"/><text fill="#000000" font-family="sans-serif" font-size="12" lengthAdjust="spacing" textLength="89" x="1268.25" y="715.6543">TestTypeStore</text><line style="stroke:#A80036;stroke-width:1.5;" x1="1073" x2="1520" y1="727.5" y2="727.5"/><line style="stroke:#A80036;stroke-width:1.5;" x1="1073" x2="1520" y1="735.5" y2="735.5"/><text fill="#000000" font-family="sans-serif" font-size="11" lengthAdjust="spacing" textLength="437" x="1078" y="749.7104">+createTestType(code, description, collectingMethod, parameterCategories)</text><text fill="#000000" font-family="sans-serif" font-size="11" lengthAdjust="spacing" textLength="125" x="1078" y="762.5151">+validateTestType(tt)</text><text fill="#000000" font-family="sans-serif" font-size="11" lengthAdjust="spacing" textLength="107" x="1078" y="775.3198">+saveTestType(tt)</text><text fill="#000000" font-family="sans-serif" font-size="11" lengthAdjust="spacing" textLength="91" x="1078" y="788.1245">-addTestType(t)</text><!--MD5=[aeb3272166074d8737a70b61b1e71682]
class TestType--><rect codeLine="54" fill="#FEFECE" filter="url(#flyfw4a6h2hhv)" height="112.0234" id="TestType" style="stroke:#A80036;stroke-width:1.5;" width="412" x="1109.5" y="931"/><ellipse cx="1283.25" cy="947" fill="#ADD1B2" rx="11" ry="11" style="stroke:#A80036;stroke-width:1.0;"/><path d="M1285.5938,942.6719 C1284.6563,942.2344 1284.0625,942.0938 1283.1875,942.0938 C1280.5625,942.0938 1278.5625,944.1719 1278.5625,946.8906 L1278.5625,948.0156 C1278.5625,950.5938 1280.6719,952.4844 1283.5625,952.4844 C1284.7813,952.4844 1285.9375,952.1875 1286.6875,951.6406 C1287.2656,951.2344 1287.5938,950.7813 1287.5938,950.3906 C1287.5938,949.9375 1287.2031,949.5469 1286.7344,949.5469 C1286.5156,949.5469 1286.3125,949.625 1286.125,949.8125 C1285.6719,950.2969 1285.6719,950.2969 1285.4844,950.3906 C1285.0625,950.6563 1284.375,950.7813 1283.6094,950.7813 C1281.5625,950.7813 1280.2656,949.6875 1280.2656,947.9844 L1280.2656,946.8906 C1280.2656,945.1094 1281.5156,943.7969 1283.25,943.7969 C1283.8281,943.7969 1284.4375,943.9531 1284.9063,944.2031 C1285.3906,944.4844 1285.5625,944.7031 1285.6563,945.1094 C1285.7188,945.5156 1285.75,945.6406 1285.8906,945.7656 C1286.0313,945.9063 1286.2656,946.0156 1286.4844,946.0156 C1286.75,946.0156 1287.0156,945.875 1287.1875,945.6563 C1287.2969,945.5 1287.3281,945.3125 1287.3281,944.8906 L1287.3281,943.4688 C1287.3281,943.0313 1287.3125,942.9063 1287.2188,942.75 C1287.0625,942.4844 1286.7813,942.3438 1286.4844,942.3438 C1286.1875,942.3438 1285.9844,942.4375 1285.7656,942.75 L1285.5938,942.6719 Z " fill="#000000"/><text fill="#000000" font-family="sans-serif" font-size="12" lengthAdjust="spacing" textLength="56" x="1303.75" y="951.1543">TestType</text><line style="stroke:#A80036;stroke-width:1.5;" x1="1110.5" x2="1520.5" y1="963" y2="963"/><text fill="#000000" font-family="sans-serif" font-size="11" lengthAdjust="spacing" textLength="69" x="1115.5" y="977.2104">-String code</text><text fill="#000000" font-family="sans-serif" font-size="11" lengthAdjust="spacing" textLength="103" x="1115.5" y="990.0151">-String description</text><text fill="#000000" font-family="sans-serif" font-size="11" lengthAdjust="spacing" textLength="137" x="1115.5" y="1002.8198">-String collectingMethod</text><text fill="#000000" font-family="sans-serif" font-size="11" lengthAdjust="spacing" textLength="278" x="1115.5" y="1015.6245">-List&lt;ParameterCategory&gt; parameterCategories</text><line style="stroke:#A80036;stroke-width:1.5;" x1="1110.5" x2="1520.5" y1="1022.2188" y2="1022.2188"/><text fill="#000000" font-family="sans-serif" font-size="11" lengthAdjust="spacing" textLength="400" x="1115.5" y="1036.4292">+TestType(code, description, collectingMethod, parameterCategories)</text><!--MD5=[be7802b157a16874d39c59ca0e2b25be]
class ParameterStore--><rect codeLine="63" fill="#FEFECE" filter="url(#flyfw4a6h2hhv)" height="112.0234" id="ParameterStore" style="stroke:#A80036;stroke-width:1.5;" width="347" x="896" y="498"/><ellipse cx="1018.25" cy="514" fill="#ADD1B2" rx="11" ry="11" style="stroke:#A80036;stroke-width:1.0;"/><path d="M1020.5938,509.6719 C1019.6563,509.2344 1019.0625,509.0938 1018.1875,509.0938 C1015.5625,509.0938 1013.5625,511.1719 1013.5625,513.8906 L1013.5625,515.0156 C1013.5625,517.5938 1015.6719,519.4844 1018.5625,519.4844 C1019.7813,519.4844 1020.9375,519.1875 1021.6875,518.6406 C1022.2656,518.2344 1022.5938,517.7813 1022.5938,517.3906 C1022.5938,516.9375 1022.2031,516.5469 1021.7344,516.5469 C1021.5156,516.5469 1021.3125,516.625 1021.125,516.8125 C1020.6719,517.2969 1020.6719,517.2969 1020.4844,517.3906 C1020.0625,517.6563 1019.375,517.7813 1018.6094,517.7813 C1016.5625,517.7813 1015.2656,516.6875 1015.2656,514.9844 L1015.2656,513.8906 C1015.2656,512.1094 1016.5156,510.7969 1018.25,510.7969 C1018.8281,510.7969 1019.4375,510.9531 1019.9063,511.2031 C1020.3906,511.4844 1020.5625,511.7031 1020.6563,512.1094 C1020.7188,512.5156 1020.75,512.6406 1020.8906,512.7656 C1021.0313,512.9063 1021.2656,513.0156 1021.4844,513.0156 C1021.75,513.0156 1022.0156,512.875 1022.1875,512.6563 C1022.2969,512.5 1022.3281,512.3125 1022.3281,511.8906 L1022.3281,510.4688 C1022.3281,510.0313 1022.3125,509.9063 1022.2188,509.75 C1022.0625,509.4844 1021.7813,509.3438 1021.4844,509.3438 C1021.1875,509.3438 1020.9844,509.4375 1020.7656,509.75 L1020.5938,509.6719 Z " fill="#000000"/><text fill="#000000" font-family="sans-serif" font-size="12" lengthAdjust="spacing" textLength="94" x="1038.75" y="518.1543">ParameterStore</text><line style="stroke:#A80036;stroke-width:1.5;" x1="897" x2="1242" y1="530" y2="530"/><line style="stroke:#A80036;stroke-width:1.5;" x1="897" x2="1242" y1="538" y2="538"/><text fill="#000000" font-family="sans-serif" font-size="11" lengthAdjust="spacing" textLength="335" x="902" y="552.2104">+createParameter(code, shortname, description, category)</text><text fill="#000000" font-family="sans-serif" font-size="11" lengthAdjust="spacing" textLength="129" x="902" y="565.0151">+validateParameter(p)</text><text fill="#000000" font-family="sans-serif" font-size="11" lengthAdjust="spacing" textLength="111" x="902" y="577.8198">+saveParameter(p)</text><text fill="#000000" font-family="sans-serif" font-size="11" lengthAdjust="spacing" textLength="99" x="902" y="590.6245">+addTestType(p)</text><text fill="#000000" font-family="sans-serif" font-size="11" lengthAdjust="spacing" textLength="168" x="902" y="603.4292">+getParameterByCategory(c)</text><!--MD5=[1f6362a5c8f21d8d6a0fce68f3a92a4e]
class Parameter--><rect codeLine="70" fill="#FEFECE" filter="url(#flyfw4a6h2hhv)" height="112.0234" id="Parameter" style="stroke:#A80036;stroke-width:1.5;" width="310" x="764.5" y="931"/><ellipse cx="884.75" cy="947" fill="#ADD1B2" rx="11" ry="11" style="stroke:#A80036;stroke-width:1.0;"/><path d="M887.0938,942.6719 C886.1563,942.2344 885.5625,942.0938 884.6875,942.0938 C882.0625,942.0938 880.0625,944.1719 880.0625,946.8906 L880.0625,948.0156 C880.0625,950.5938 882.1719,952.4844 885.0625,952.4844 C886.2813,952.4844 887.4375,952.1875 888.1875,951.6406 C888.7656,951.2344 889.0938,950.7813 889.0938,950.3906 C889.0938,949.9375 888.7031,949.5469 888.2344,949.5469 C888.0156,949.5469 887.8125,949.625 887.625,949.8125 C887.1719,950.2969 887.1719,950.2969 886.9844,950.3906 C886.5625,950.6563 885.875,950.7813 885.1094,950.7813 C883.0625,950.7813 881.7656,949.6875 881.7656,947.9844 L881.7656,946.8906 C881.7656,945.1094 883.0156,943.7969 884.75,943.7969 C885.3281,943.7969 885.9375,943.9531 886.4063,944.2031 C886.8906,944.4844 887.0625,944.7031 887.1563,945.1094 C887.2188,945.5156 887.25,945.6406 887.3906,945.7656 C887.5313,945.9063 887.7656,946.0156 887.9844,946.0156 C888.25,946.0156 888.5156,945.875 888.6875,945.6563 C888.7969,945.5 888.8281,945.3125 888.8281,944.8906 L888.8281,943.4688 C888.8281,943.0313 888.8125,942.9063 888.7188,942.75 C888.5625,942.4844 888.2813,942.3438 887.9844,942.3438 C887.6875,942.3438 887.4844,942.4375 887.2656,942.75 L887.0938,942.6719 Z " fill="#000000"/><text fill="#000000" font-family="sans-serif" font-size="12" lengthAdjust="spacing" textLength="61" x="905.25" y="951.1543">Parameter</text><line style="stroke:#A80036;stroke-width:1.5;" x1="765.5" x2="1073.5" y1="963" y2="963"/><text fill="#000000" font-family="sans-serif" font-size="11" lengthAdjust="spacing" textLength="69" x="770.5" y="977.2104">-String code</text><text fill="#000000" font-family="sans-serif" font-size="11" lengthAdjust="spacing" textLength="102" x="770.5" y="990.0151">-String shortname</text><text fill="#000000" font-family="sans-serif" font-size="11" lengthAdjust="spacing" textLength="103" x="770.5" y="1002.8198">-String description</text><text fill="#000000" font-family="sans-serif" font-size="11" lengthAdjust="spacing" textLength="206" x="770.5" y="1015.6245">-List&lt;ParameterCategory&gt; category</text><line style="stroke:#A80036;stroke-width:1.5;" x1="765.5" x2="1073.5" y1="1022.2188" y2="1022.2188"/><text fill="#000000" font-family="sans-serif" font-size="11" lengthAdjust="spacing" textLength="298" x="770.5" y="1036.4292">+Parameter(code, shortname, description, category)</text><!--MD5=[d802db621b5b215a6f0466f93cefcb42]
class ParameterCategoryStore--><rect codeLine="78" fill="#FEFECE" filter="url(#flyfw4a6h2hhv)" height="60.8047" id="ParameterCategoryStore" style="stroke:#A80036;stroke-width:1.5;" width="181" x="1417" y="523.5"/><ellipse cx="1432" cy="539.5" fill="#ADD1B2" rx="11" ry="11" style="stroke:#A80036;stroke-width:1.0;"/><path d="M1434.3438,535.1719 C1433.4063,534.7344 1432.8125,534.5938 1431.9375,534.5938 C1429.3125,534.5938 1427.3125,536.6719 1427.3125,539.3906 L1427.3125,540.5156 C1427.3125,543.0938 1429.4219,544.9844 1432.3125,544.9844 C1433.5313,544.9844 1434.6875,544.6875 1435.4375,544.1406 C1436.0156,543.7344 1436.3438,543.2813 1436.3438,542.8906 C1436.3438,542.4375 1435.9531,542.0469 1435.4844,542.0469 C1435.2656,542.0469 1435.0625,542.125 1434.875,542.3125 C1434.4219,542.7969 1434.4219,542.7969 1434.2344,542.8906 C1433.8125,543.1563 1433.125,543.2813 1432.3594,543.2813 C1430.3125,543.2813 1429.0156,542.1875 1429.0156,540.4844 L1429.0156,539.3906 C1429.0156,537.6094 1430.2656,536.2969 1432,536.2969 C1432.5781,536.2969 1433.1875,536.4531 1433.6563,536.7031 C1434.1406,536.9844 1434.3125,537.2031 1434.4063,537.6094 C1434.4688,538.0156 1434.5,538.1406 1434.6406,538.2656 C1434.7813,538.4063 1435.0156,538.5156 1435.2344,538.5156 C1435.5,538.5156 1435.7656,538.375 1435.9375,538.1563 C1436.0469,538 1436.0781,537.8125 1436.0781,537.3906 L1436.0781,535.9688 C1436.0781,535.5313 1436.0625,535.4063 1435.9688,535.25 C1435.8125,534.9844 1435.5313,534.8438 1435.2344,534.8438 C1434.9375,534.8438 1434.7344,534.9375 1434.5156,535.25 L1434.3438,535.1719 Z " fill="#000000"/><text fill="#000000" font-family="sans-serif" font-size="12" lengthAdjust="spacing" textLength="149" x="1446" y="543.6543">ParameterCategoryStore</text><line style="stroke:#A80036;stroke-width:1.5;" x1="1418" x2="1597" y1="555.5" y2="555.5"/><line style="stroke:#A80036;stroke-width:1.5;" x1="1418" x2="1597" y1="563.5" y2="563.5"/><text fill="#000000" font-family="sans-serif" font-size="11" lengthAdjust="spacing" textLength="152" x="1423" y="577.7104">+getCategoriesByList(cat);</text><!--MD5=[36afb6bbd95a8ac778c4537c55a683d5]
class ParameterCategory--><rect codeLine="82" fill="#FEFECE" filter="url(#flyfw4a6h2hhv)" height="86.4141" id="ParameterCategory" style="stroke:#A80036;stroke-width:1.5;" width="208" x="1013.5" y="1154"/><ellipse cx="1055.5" cy="1170" fill="#ADD1B2" rx="11" ry="11" style="stroke:#A80036;stroke-width:1.0;"/><path d="M1057.8438,1165.6719 C1056.9063,1165.2344 1056.3125,1165.0938 1055.4375,1165.0938 C1052.8125,1165.0938 1050.8125,1167.1719 1050.8125,1169.8906 L1050.8125,1171.0156 C1050.8125,1173.5938 1052.9219,1175.4844 1055.8125,1175.4844 C1057.0313,1175.4844 1058.1875,1175.1875 1058.9375,1174.6406 C1059.5156,1174.2344 1059.8438,1173.7813 1059.8438,1173.3906 C1059.8438,1172.9375 1059.4531,1172.5469 1058.9844,1172.5469 C1058.7656,1172.5469 1058.5625,1172.625 1058.375,1172.8125 C1057.9219,1173.2969 1057.9219,1173.2969 1057.7344,1173.3906 C1057.3125,1173.6563 1056.625,1173.7813 1055.8594,1173.7813 C1053.8125,1173.7813 1052.5156,1172.6875 1052.5156,1170.9844 L1052.5156,1169.8906 C1052.5156,1168.1094 1053.7656,1166.7969 1055.5,1166.7969 C1056.0781,1166.7969 1056.6875,1166.9531 1057.1563,1167.2031 C1057.6406,1167.4844 1057.8125,1167.7031 1057.9063,1168.1094 C1057.9688,1168.5156 1058,1168.6406 1058.1406,1168.7656 C1058.2813,1168.9063 1058.5156,1169.0156 1058.7344,1169.0156 C1059,1169.0156 1059.2656,1168.875 1059.4375,1168.6563 C1059.5469,1168.5 1059.5781,1168.3125 1059.5781,1167.8906 L1059.5781,1166.4688 C1059.5781,1166.0313 1059.5625,1165.9063 1059.4688,1165.75 C1059.3125,1165.4844 1059.0313,1165.3438 1058.7344,1165.3438 C1058.4375,1165.3438 1058.2344,1165.4375 1058.0156,1165.75 L1057.8438,1165.6719 Z " fill="#000000"/><text fill="#000000" font-family="sans-serif" font-size="12" lengthAdjust="spacing" textLength="116" x="1075.5" y="1174.1543">ParameterCategory</text><line style="stroke:#A80036;stroke-width:1.5;" x1="1014.5" x2="1220.5" y1="1186" y2="1186"/><text fill="#000000" font-family="sans-serif" font-size="11" lengthAdjust="spacing" textLength="69" x="1019.5" y="1200.2104">-String code</text><text fill="#000000" font-family="sans-serif" font-size="11" lengthAdjust="spacing" textLength="74" x="1019.5" y="1213.0151">-String name</text><line style="stroke:#A80036;stroke-width:1.5;" x1="1014.5" x2="1220.5" y1="1219.6094" y2="1219.6094"/><text fill="#000000" font-family="sans-serif" font-size="11" lengthAdjust="spacing" textLength="196" x="1019.5" y="1233.8198">+ParameterCategory(code, name)</text><!--MD5=[0de185411ac6f39be4e6d8f4e4bd2bcc]
class TestUI--><rect codeLine="88" fill="#FEFECE" filter="url(#flyfw4a6h2hhv)" height="48" id="TestUI" style="stroke:#A80036;stroke-width:1.5;" width="70" x="1034.5" y="7"/><ellipse cx="1049.5" cy="23" fill="#ADD1B2" rx="11" ry="11" style="stroke:#A80036;stroke-width:1.0;"/><path d="M1051.8438,18.6719 C1050.9063,18.2344 1050.3125,18.0938 1049.4375,18.0938 C1046.8125,18.0938 1044.8125,20.1719 1044.8125,22.8906 L1044.8125,24.0156 C1044.8125,26.5938 1046.9219,28.4844 1049.8125,28.4844 C1051.0313,28.4844 1052.1875,28.1875 1052.9375,27.6406 C1053.5156,27.2344 1053.8438,26.7813 1053.8438,26.3906 C1053.8438,25.9375 1053.4531,25.5469 1052.9844,25.5469 C1052.7656,25.5469 1052.5625,25.625 1052.375,25.8125 C1051.9219,26.2969 1051.9219,26.2969 1051.7344,26.3906 C1051.3125,26.6563 1050.625,26.7813 1049.8594,26.7813 C1047.8125,26.7813 1046.5156,25.6875 1046.5156,23.9844 L1046.5156,22.8906 C1046.5156,21.1094 1047.7656,19.7969 1049.5,19.7969 C1050.0781,19.7969 1050.6875,19.9531 1051.1563,20.2031 C1051.6406,20.4844 1051.8125,20.7031 1051.9063,21.1094 C1051.9688,21.5156 1052,21.6406 1052.1406,21.7656 C1052.2813,21.9063 1052.5156,22.0156 1052.7344,22.0156 C1053,22.0156 1053.2656,21.875 1053.4375,21.6563 C1053.5469,21.5 1053.5781,21.3125 1053.5781,20.8906 L1053.5781,19.4688 C1053.5781,19.0313 1053.5625,18.9063 1053.4688,18.75 C1053.3125,18.4844 1053.0313,18.3438 1052.7344,18.3438 C1052.4375,18.3438 1052.2344,18.4375 1052.0156,18.75 L1051.8438,18.6719 Z " fill="#000000"/><text fill="#000000" font-family="sans-serif" font-size="12" lengthAdjust="spacing" textLength="38" x="1063.5" y="27.1543">TestUI</text><line style="stroke:#A80036;stroke-width:1.5;" x1="1035.5" x2="1103.5" y1="39" y2="39"/><line style="stroke:#A80036;stroke-width:1.5;" x1="1035.5" x2="1103.5" y1="47" y2="47"/><!--MD5=[f39222c906a5158620eb4ce0ead49545]
class TestController--><rect codeLine="91" fill="#FEFECE" filter="url(#flyfw4a6h2hhv)" height="137.6328" id="TestController" style="stroke:#A80036;stroke-width:1.5;" width="337" x="901" y="115"/><ellipse cx="1022.75" cy="131" fill="#ADD1B2" rx="11" ry="11" style="stroke:#A80036;stroke-width:1.0;"/><path d="M1025.0938,126.6719 C1024.1563,126.2344 1023.5625,126.0938 1022.6875,126.0938 C1020.0625,126.0938 1018.0625,128.1719 1018.0625,130.8906 L1018.0625,132.0156 C1018.0625,134.5938 1020.1719,136.4844 1023.0625,136.4844 C1024.2813,136.4844 1025.4375,136.1875 1026.1875,135.6406 C1026.7656,135.2344 1027.0938,134.7813 1027.0938,134.3906 C1027.0938,133.9375 1026.7031,133.5469 1026.2344,133.5469 C1026.0156,133.5469 1025.8125,133.625 1025.625,133.8125 C1025.1719,134.2969 1025.1719,134.2969 1024.9844,134.3906 C1024.5625,134.6563 1023.875,134.7813 1023.1094,134.7813 C1021.0625,134.7813 1019.7656,133.6875 1019.7656,131.9844 L1019.7656,130.8906 C1019.7656,129.1094 1021.0156,127.7969 1022.75,127.7969 C1023.3281,127.7969 1023.9375,127.9531 1024.4063,128.2031 C1024.8906,128.4844 1025.0625,128.7031 1025.1563,129.1094 C1025.2188,129.5156 1025.25,129.6406 1025.3906,129.7656 C1025.5313,129.9063 1025.7656,130.0156 1025.9844,130.0156 C1026.25,130.0156 1026.5156,129.875 1026.6875,129.6563 C1026.7969,129.5 1026.8281,129.3125 1026.8281,128.8906 L1026.8281,127.4688 C1026.8281,127.0313 1026.8125,126.9063 1026.7188,126.75 C1026.5625,126.4844 1026.2813,126.3438 1025.9844,126.3438 C1025.6875,126.3438 1025.4844,126.4375 1025.2656,126.75 L1025.0938,126.6719 Z " fill="#000000"/><text fill="#000000" font-family="sans-serif" font-size="12" lengthAdjust="spacing" textLength="85" x="1043.25" y="135.1543">TestController</text><line style="stroke:#A80036;stroke-width:1.5;" x1="902" x2="1237" y1="147" y2="147"/><line style="stroke:#A80036;stroke-width:1.5;" x1="902" x2="1237" y1="155" y2="155"/><text fill="#000000" font-family="sans-serif" font-size="11" lengthAdjust="spacing" textLength="325" x="907" y="169.2104">+createTest(nhsCode, testCode, client, tt, lcs, lps, rDate)</text><text fill="#000000" font-family="sans-serif" font-size="11" lengthAdjust="spacing" textLength="74" x="907" y="182.0151">+saveTest(t)</text><text fill="#000000" font-family="sans-serif" font-size="11" lengthAdjust="spacing" textLength="75" x="907" y="194.8198">+getClients()</text><text fill="#000000" font-family="sans-serif" font-size="11" lengthAdjust="spacing" textLength="96" x="907" y="207.6245">+getTestTypes()</text><text fill="#000000" font-family="sans-serif" font-size="11" lengthAdjust="spacing" textLength="149" x="907" y="220.4292">+getCategoriesByList(cat)</text><text fill="#000000" font-family="sans-serif" font-size="11" lengthAdjust="spacing" textLength="168" x="907" y="233.2339">+getParameterByCategory(c)</text><text fill="#000000" font-family="sans-serif" font-size="11" lengthAdjust="spacing" textLength="67" x="907" y="246.0386">+getTests()</text><!--MD5=[df38be88ccee13e832d6fafd6288a4ca]
class Test--><rect codeLine="102" fill="#FEFECE" filter="url(#flyfw4a6h2hhv)" height="150.4375" id="Test" style="stroke:#A80036;stroke-width:1.5;" width="300" x="561.5" y="670"/><ellipse cx="694.25" cy="686" fill="#ADD1B2" rx="11" ry="11" style="stroke:#A80036;stroke-width:1.0;"/><path d="M696.5938,681.6719 C695.6563,681.2344 695.0625,681.0938 694.1875,681.0938 C691.5625,681.0938 689.5625,683.1719 689.5625,685.8906 L689.5625,687.0156 C689.5625,689.5938 691.6719,691.4844 694.5625,691.4844 C695.7813,691.4844 696.9375,691.1875 697.6875,690.6406 C698.2656,690.2344 698.5938,689.7813 698.5938,689.3906 C698.5938,688.9375 698.2031,688.5469 697.7344,688.5469 C697.5156,688.5469 697.3125,688.625 697.125,688.8125 C696.6719,689.2969 696.6719,689.2969 696.4844,689.3906 C696.0625,689.6563 695.375,689.7813 694.6094,689.7813 C692.5625,689.7813 691.2656,688.6875 691.2656,686.9844 L691.2656,685.8906 C691.2656,684.1094 692.5156,682.7969 694.25,682.7969 C694.8281,682.7969 695.4375,682.9531 695.9063,683.2031 C696.3906,683.4844 696.5625,683.7031 696.6563,684.1094 C696.7188,684.5156 696.75,684.6406 696.8906,684.7656 C697.0313,684.9063 697.2656,685.0156 697.4844,685.0156 C697.75,685.0156 698.0156,684.875 698.1875,684.6563 C698.2969,684.5 698.3281,684.3125 698.3281,683.8906 L698.3281,682.4688 C698.3281,682.0313 698.3125,681.9063 698.2188,681.75 C698.0625,681.4844 697.7813,681.3438 697.4844,681.3438 C697.1875,681.3438 696.9844,681.4375 696.7656,681.75 L696.5938,681.6719 Z " fill="#000000"/><text fill="#000000" font-family="sans-serif" font-size="12" lengthAdjust="spacing" textLength="26" x="714.75" y="690.1543">Test</text><line style="stroke:#A80036;stroke-width:1.5;" x1="562.5" x2="860.5" y1="702" y2="702"/><text fill="#000000" font-family="sans-serif" font-size="11" lengthAdjust="spacing" textLength="94" x="567.5" y="716.2104">-String nhsCode;</text><text fill="#000000" font-family="sans-serif" font-size="11" lengthAdjust="spacing" textLength="117" x="567.5" y="729.0151">-String internalCode;</text><text fill="#000000" font-family="sans-serif" font-size="11" lengthAdjust="spacing" textLength="75" x="567.5" y="741.8198">-Client client;</text><text fill="#000000" font-family="sans-serif" font-size="11" lengthAdjust="spacing" textLength="116" x="567.5" y="754.6245">-TestType testType;</text><text fill="#000000" font-family="sans-serif" font-size="11" lengthAdjust="spacing" textLength="279" x="567.5" y="767.4292">-List &lt;ParameterCategory&gt;  parameterCategory;</text><text fill="#000000" font-family="sans-serif" font-size="11" lengthAdjust="spacing" textLength="171" x="567.5" y="780.2339">-List &lt;Parameter&gt; parameter;</text><text fill="#000000" font-family="sans-serif" font-size="11" lengthAdjust="spacing" textLength="131" x="567.5" y="793.0386">-Date registrationDate;</text><line style="stroke:#A80036;stroke-width:1.5;" x1="562.5" x2="860.5" y1="799.6328" y2="799.6328"/><text fill="#000000" font-family="sans-serif" font-size="11" lengthAdjust="spacing" textLength="288" x="567.5" y="813.8433">+Test(nhsCode, testCode, client, tt, lcs, lps, rDate)</text><!--MD5=[0f6f7964b844a64b0496af0dda7914bd]
class TestStore--><rect codeLine="113" fill="#FEFECE" filter="url(#flyfw4a6h2hhv)" height="112.0234" id="TestStore" style="stroke:#A80036;stroke-width:1.5;" width="300" x="560.5" y="498"/><ellipse cx="676.75" cy="514" fill="#ADD1B2" rx="11" ry="11" style="stroke:#A80036;stroke-width:1.0;"/><path d="M679.0938,509.6719 C678.1563,509.2344 677.5625,509.0938 676.6875,509.0938 C674.0625,509.0938 672.0625,511.1719 672.0625,513.8906 L672.0625,515.0156 C672.0625,517.5938 674.1719,519.4844 677.0625,519.4844 C678.2813,519.4844 679.4375,519.1875 680.1875,518.6406 C680.7656,518.2344 681.0938,517.7813 681.0938,517.3906 C681.0938,516.9375 680.7031,516.5469 680.2344,516.5469 C680.0156,516.5469 679.8125,516.625 679.625,516.8125 C679.1719,517.2969 679.1719,517.2969 678.9844,517.3906 C678.5625,517.6563 677.875,517.7813 677.1094,517.7813 C675.0625,517.7813 673.7656,516.6875 673.7656,514.9844 L673.7656,513.8906 C673.7656,512.1094 675.0156,510.7969 676.75,510.7969 C677.3281,510.7969 677.9375,510.9531 678.4063,511.2031 C678.8906,511.4844 679.0625,511.7031 679.1563,512.1094 C679.2188,512.5156 679.25,512.6406 679.3906,512.7656 C679.5313,512.9063 679.7656,513.0156 679.9844,513.0156 C680.25,513.0156 680.5156,512.875 680.6875,512.6563 C680.7969,512.5 680.8281,512.3125 680.8281,511.8906 L680.8281,510.4688 C680.8281,510.0313 680.8125,509.9063 680.7188,509.75 C680.5625,509.4844 680.2813,509.3438 679.9844,509.3438 C679.6875,509.3438 679.4844,509.4375 679.2656,509.75 L679.0938,509.6719 Z " fill="#000000"/><text fill="#000000" font-family="sans-serif" font-size="12" lengthAdjust="spacing" textLength="59" x="697.25" y="518.1543">TestStore</text><line style="stroke:#A80036;stroke-width:1.5;" x1="561.5" x2="859.5" y1="530" y2="530"/><line style="stroke:#A80036;stroke-width:1.5;" x1="561.5" x2="859.5" y1="538" y2="538"/><text fill="#000000" font-family="sans-serif" font-size="11" lengthAdjust="spacing" textLength="288" x="566.5" y="552.2104">+Test(nhsCode, testCode, client, tt, lcs, lps, rDate)</text><text fill="#000000" font-family="sans-serif" font-size="11" lengthAdjust="spacing" textLength="74" x="566.5" y="565.0151">+saveTest(t)</text><text fill="#000000" font-family="sans-serif" font-size="11" lengthAdjust="spacing" textLength="67" x="566.5" y="577.8198">+addTest(t)</text><text fill="#000000" font-family="sans-serif" font-size="11" lengthAdjust="spacing" textLength="92" x="566.5" y="590.6245">+validateTest(t)</text><text fill="#000000" font-family="sans-serif" font-size="11" lengthAdjust="spacing" textLength="67" x="566.5" y="603.4292">+getTests()</text><!--MD5=[74cd978ee99d39290863f0dd46ff2f89]
link TestUI to TestController--><path codeLine="121" d="M1069.5,55.26 C1069.5,70.06 1069.5,90.1 1069.5,109.92 " fill="none" id="TestUI-to-TestController" style="stroke:#A80036;stroke-width:1.0;stroke-dasharray:7.0,7.0;"/><polygon fill="#A80036" points="1069.5,114.96,1073.5,105.96,1069.5,109.96,1065.5,105.96,1069.5,114.96" style="stroke:#A80036;stroke-width:1.0;"/><!--MD5=[b3e932a0b9ddf5fd0fa9570af6d67299]
link TestController to Company--><path codeLine="122" d="M1069.5,253.146 C1069.5,270.84 1069.5,289.88 1069.5,307.514 " fill="none" id="TestController-to-Company" style="stroke:#A80036;stroke-width:1.0;stroke-dasharray:7.0,7.0;"/><polygon fill="#A80036" points="1069.5,312.938,1073.5,303.938,1069.5,307.938,1065.5,303.938,1069.5,312.938" style="stroke:#A80036;stroke-width:1.0;"/><!--MD5=[daf3d7412afa2c7651483be0b6e971d1]
link Company to ParameterStore--><path codeLine="123" d="M1069.5,438.231 C1069.5,455.799 1069.5,474.912 1069.5,492.411 " fill="none" id="Company-to-ParameterStore" style="stroke:#A80036;stroke-width:1.0;"/><polygon fill="#A80036" points="1069.5,497.786,1073.5,488.786,1069.5,492.786,1065.5,488.786,1069.5,497.786" style="stroke:#A80036;stroke-width:1.0;"/><text fill="#000000" font-family="sans-serif" font-size="13" lengthAdjust="spacing" textLength="8" x="1061.0625" y="457.9961">1</text><text fill="#000000" font-family="sans-serif" font-size="13" lengthAdjust="spacing" textLength="8" x="1061.0125" y="487.0944">1</text><!--MD5=[d53d7490e5836ca5709858d7326f212b]
link Company to ParameterCategoryStore--><path codeLine="124" d="M1164.54,414.798 C1243.69,446.693 1355.05,491.569 1429.16,521.433 " fill="none" id="Company-to-ParameterCategoryStore" style="stroke:#A80036;stroke-width:1.0;"/><polygon fill="#A80036" points="1433.99,523.378,1427.141,516.3005,1429.3534,521.5068,1424.1471,523.7191,1433.99,523.378" style="stroke:#A80036;stroke-width:1.0;"/><text fill="#000000" font-family="sans-serif" font-size="13" lengthAdjust="spacing" textLength="8" x="1172.4323" y="430.6063">1</text><text fill="#000000" font-family="sans-serif" font-size="13" lengthAdjust="spacing" textLength="8" x="1410.0036" y="512.6161">1</text><!--MD5=[141c3afa12b2b3c0a39ffce56dbd5f19]
link Company to TestTypeStore--><path codeLine="125" d="M1164.56,415.924 C1200.17,435.437 1237.53,462.541 1260.5,498 C1297.89,555.732 1302.68,636.914 1300.97,689.979 " fill="none" id="Company-to-TestTypeStore" style="stroke:#A80036;stroke-width:1.0;"/><polygon fill="#A80036" points="1300.78,695.025,1305.1088,686.1784,1300.9642,690.0284,1297.1142,685.8838,1300.78,695.025" style="stroke:#A80036;stroke-width:1.0;"/><text fill="#000000" font-family="sans-serif" font-size="13" lengthAdjust="spacing" textLength="8" x="1172.4538" y="415.6267">1</text><text fill="#000000" font-family="sans-serif" font-size="13" lengthAdjust="spacing" textLength="8" x="1292.8176" y="684.3629">1</text><!--MD5=[9dec42a3b1fb794d839b2c916f9b8879]
link Company to ClientList--><path codeLine="126" d="M974.367,384.475 C865.048,396.719 682.703,426.745 542.5,498 C450.034,544.994 362.867,628.516 310.09,685.059 " fill="none" id="Company-to-ClientList" style="stroke:#A80036;stroke-width:1.0;"/><polygon fill="#A80036" points="306.664,688.744,315.7225,684.8784,310.0694,685.0829,309.8648,679.4298,306.664,688.744" style="stroke:#A80036;stroke-width:1.0;"/><text fill="#000000" font-family="sans-serif" font-size="13" lengthAdjust="spacing" textLength="8" x="958.4673" y="381.6716">1</text><text fill="#000000" font-family="sans-serif" font-size="13" lengthAdjust="spacing" textLength="8" x="304.0465" y="678.0473">1</text><!--MD5=[ab179af0153bf609fe4891204b6ca111]
link ClientList to Client--><path codeLine="127" d="M250.011,801.061 C246.631,822.987 242.613,849.053 238.675,874.596 " fill="none" id="ClientList-to-Client" style="stroke:#A80036;stroke-width:1.0;"/><polygon fill="#A80036" points="237.888,879.697,243.2143,871.4127,238.6509,874.7555,235.308,870.1921,237.888,879.697" style="stroke:#A80036;stroke-width:1.0;"/><text fill="#000000" font-family="sans-serif" font-size="13" lengthAdjust="spacing" textLength="8" x="240.4108" y="821.2787">1</text><text fill="#000000" font-family="sans-serif" font-size="13" lengthAdjust="spacing" textLength="7" x="231.7539" y="869.0395">*</text><!--MD5=[7f6cf7f175eae0af66201860de5de971]
link Company to TestStore--><path codeLine="128" d="M974.237,423.335 C929.06,445.546 874.676,472.284 827.059,495.695 " fill="none" id="Company-to-TestStore" style="stroke:#A80036;stroke-width:1.0;"/><polygon fill="#A80036" points="822.472,497.95,832.3135,497.5694,826.9592,495.7443,828.7843,490.3899,822.472,497.95" style="stroke:#A80036;stroke-width:1.0;"/><text fill="#000000" font-family="sans-serif" font-size="13" lengthAdjust="spacing" textLength="8" x="958.6372" y="423.5017">1</text><text fill="#000000" font-family="sans-serif" font-size="13" lengthAdjust="spacing" textLength="8" x="828.3059" y="486.8816">1</text><!--MD5=[b0f4f6db8206580012ef9cd998ed01c5]
link TestStore to Test--><path codeLine="129" d="M710.792,610.175 C710.882,627.205 710.983,646.31 711.08,664.635 " fill="none" id="TestStore-to-Test" style="stroke:#A80036;stroke-width:1.0;"/><polygon fill="#A80036" points="711.107,669.78,715.0607,660.7595,711.0813,664.7801,707.0608,660.8007,711.107,669.78" style="stroke:#A80036;stroke-width:1.0;"/><text fill="#000000" font-family="sans-serif" font-size="13" lengthAdjust="spacing" textLength="8" x="702.3401" y="630.009">1</text><text fill="#000000" font-family="sans-serif" font-size="13" lengthAdjust="spacing" textLength="7" x="703.7359" y="658.9481">*</text><!--MD5=[3eebf0e5f359806b77b30e9524c37676]
link TestTypeStore to TestType--><path codeLine="130" d="M1300.34,794.568 C1303.33,832.32 1307.5,884.903 1310.7,925.408 " fill="none" id="TestTypeStore-to-TestType" style="stroke:#A80036;stroke-width:1.0;"/><polygon fill="#A80036" points="1311.13,930.789,1314.408,921.5017,1310.7358,925.8046,1306.4329,922.1324,1311.13,930.789" style="stroke:#A80036;stroke-width:1.0;"/><text fill="#000000" font-family="sans-serif" font-size="13" lengthAdjust="spacing" textLength="8" x="1292.3175" y="814.654">1</text><text fill="#000000" font-family="sans-serif" font-size="13" lengthAdjust="spacing" textLength="7" x="1303.1708" y="920.0978">*</text><!--MD5=[8aaf0efd5e2f3824be7ea3e488dcc283]
link TestType to ParameterCategory--><path codeLine="131" d="M1262.96,1043.194 C1231.25,1076.502 1191.32,1118.447 1161.33,1149.9613 " fill="none" id="TestType-to-ParameterCategory" style="stroke:#A80036;stroke-width:1.0;"/><polygon fill="#A80036" points="1157.72,1153.7515,1166.8263,1149.9998,1161.171,1150.1334,1161.0374,1144.4782,1157.72,1153.7515" style="stroke:#A80036;stroke-width:1.0;"/><text fill="#000000" font-family="sans-serif" font-size="13" lengthAdjust="spacing" textLength="7" x="1249.1301" y="1063.0303">*</text><text fill="#000000" font-family="sans-serif" font-size="13" lengthAdjust="spacing" textLength="23" x="1139.1178" y="1143.0254">1..*</text><!--MD5=[a0992dda039fed1bb57aff5aacace800]
link ParameterStore to Parameter--><path codeLine="132" d="M1050.35,610.024 C1022.12,691.128 969.55,842.191 940.37,926.034 " fill="none" id="ParameterStore-to-Parameter" style="stroke:#A80036;stroke-width:1.0;"/><polygon fill="#A80036" points="938.654,930.963,945.3888,923.7768,940.2967,926.2406,937.8329,921.1484,938.654,930.963" style="stroke:#A80036;stroke-width:1.0;"/><text fill="#000000" font-family="sans-serif" font-size="13" lengthAdjust="spacing" textLength="8" x="1039.3839" y="630.2369">1</text><text fill="#000000" font-family="sans-serif" font-size="13" lengthAdjust="spacing" textLength="7" x="933.6597" y="919.8962">*</text><!--MD5=[d6274e3b73b5bc8f467c6cfbf5bf003e]
link ParameterCategoryStore to ParameterCategory--><path codeLine="133" d="M1521.37,584.7 C1560.43,673.19 1660.78,938.559 1538.5,1094 C1500.4,1142.4386 1338.52,1170.6627 1226.97,1184.7015 " fill="none" id="ParameterCategoryStore-to-ParameterCategory" style="stroke:#A80036;stroke-width:1.0;"/><polygon fill="#A80036" points="1221.7,1185.3593,1231.1314,1188.1964,1226.6604,1184.7309,1230.1259,1180.2599,1221.7,1185.3593" style="stroke:#A80036;stroke-width:1.0;"/><text fill="#000000" font-family="sans-serif" font-size="13" lengthAdjust="spacing" textLength="8" x="1515.3132" y="604.3198">1</text><text fill="#000000" font-family="sans-serif" font-size="13" lengthAdjust="spacing" textLength="8" x="1229.6459" y="1181.0102">1</text><!--MD5=[6df8849671cb880f6936e94aa30db6f9]
link Parameter to ParameterCategory--><path codeLine="134" d="M972.041,1043.194 C1003.747,1076.502 1043.68,1118.447 1073.67,1149.9613 " fill="none" id="Parameter-to-ParameterCategory" style="stroke:#A80036;stroke-width:1.0;"/><polygon fill="#A80036" points="1077.28,1153.7515,1073.9626,1144.4782,1073.829,1150.1334,1068.1737,1149.9998,1077.28,1153.7515" style="stroke:#A80036;stroke-width:1.0;"/><text fill="#000000" font-family="sans-serif" font-size="13" lengthAdjust="spacing" textLength="7" x="971.0179" y="1063.0303">*</text><text fill="#000000" font-family="sans-serif" font-size="13" lengthAdjust="spacing" textLength="23" x="1046.3604" y="1143.0254">1..*</text><!--MD5=[e981d4f96c4342412d1e68160b30cf70]
link Test to TestType--><path codeLine="135" d="M861.729,794.991 C932.138,818.964 1016.79,849.244 1091.5,880 C1127.29,894.733 1165.59,912.201 1200.21,928.663 " fill="none" id="Test-to-TestType" style="stroke:#A80036;stroke-width:1.0;"/><polygon fill="#A80036" points="1204.85,930.874,1198.4348,923.401,1200.3331,928.7299,1195.0042,930.6281,1204.85,930.874" style="stroke:#A80036;stroke-width:1.0;"/><text fill="#000000" font-family="sans-serif" font-size="13" lengthAdjust="spacing" textLength="8" x="869.6814" y="794.241">1</text><text fill="#000000" font-family="sans-serif" font-size="13" lengthAdjust="spacing" textLength="8" x="1182.1605" y="919.7958">1</text><!--MD5=[3994f36c72829dbcddd1cf7021dddf61]
link Test to Client--><path codeLine="136" d="M561.488,819.475 C523.497,838.083 481.902,858.456 441.244,878.37 " fill="none" id="Test-to-Client" style="stroke:#A80036;stroke-width:1.0;"/><polygon fill="#A80036" points="436.291,880.796,446.133,880.4292,440.7813,878.5966,442.6139,873.2448,436.291,880.796" style="stroke:#A80036;stroke-width:1.0;"/><text fill="#000000" font-family="sans-serif" font-size="13" lengthAdjust="spacing" textLength="8" x="545.5468" y="819.9874">1</text><text fill="#000000" font-family="sans-serif" font-size="13" lengthAdjust="spacing" textLength="8" x="444.1538" y="873.7708">1</text><!--MD5=[c23963f6e403fc3ebec8dae22c30ade6]
link Test to Parameter--><path codeLine="137" d="M775.888,820.294 C805.583,854.557 840.343,894.665 868.227,926.839 " fill="none" id="Test-to-Parameter" style="stroke:#A80036;stroke-width:1.0;"/><polygon fill="#A80036" points="871.592,930.722,868.719,921.3015,868.3168,926.944,862.6743,926.5418,871.592,930.722" style="stroke:#A80036;stroke-width:1.0;"/><text fill="#000000" font-family="sans-serif" font-size="13" lengthAdjust="spacing" textLength="8" x="773.8324" y="840.4959">1</text><text fill="#000000" font-family="sans-serif" font-size="13" lengthAdjust="spacing" textLength="27" x="837.1079" y="920.0226">1...*</text><!--MD5=[8742b9b07f4ff1e96b776c10733812b1]
link Test to ParameterCategory--><path codeLine="138" d="M696.765,820.118 C685.919,897.609 682.537,1018.27 746.5,1094 C780.218,1133.92 911.287,1163.1428 1008.12,1179.8334 " fill="none" id="Test-to-ParameterCategory" style="stroke:#A80036;stroke-width:1.0;"/><polygon fill="#A80036" points="1013.29,1180.7173,1005.0931,1175.2574,1008.3616,1179.8744,1003.7445,1183.1429,1013.29,1180.7173" style="stroke:#A80036;stroke-width:1.0;"/><text fill="#000000" font-family="sans-serif" font-size="13" lengthAdjust="spacing" textLength="8" x="686.833" y="840.6892">1</text><text fill="#000000" font-family="sans-serif" font-size="13" lengthAdjust="spacing" textLength="27" x="978.3803" y="1176.1768">1...*</text><!--MD5=[ca29482912e344ebd5dc9db2d1c2ccab]
link Test to ClinicalAnalysisLaboratory--><path codeLine="139" d="M665.995,820.294 C646.546,852.048 624.022,888.821 605.141,919.648 " fill="none" id="Test-to-ClinicalAnalysisLaboratory" style="stroke:#A80036;stroke-width:1.0;"/><polygon fill="#A80036" points="602.382,924.151,610.4942,918.5661,604.9939,919.8874,603.6725,914.3871,602.382,924.151" style="stroke:#A80036;stroke-width:1.0;"/><text fill="#000000" font-family="sans-serif" font-size="13" lengthAdjust="spacing" textLength="8" x="653.1219" y="840.4959">1</text><text fill="#000000" font-family="sans-serif" font-size="13" lengthAdjust="spacing" textLength="28" x="576.9941" y="913.5401">1...1</text><!--MD5=[52bb1f63e8292083e062f20fc33ecd6b]
@startuml
skinparam classAttributeIconSize 0

class ClinicalAnalysisLaboratory{
String name;
String adress;
long phoneNumber;
long tin;
List<TestType> testTypes;
TestStore tStore;

}
class Company
{
  -String designation
  +getClientList()
  +getTestTypeStore()
  +getParameterCategoryStore()
  +getParameterStore()
  +getTestStore()
}

class Client {
-ccn: long
-NHSnumber: long
-birthDate: int
-sex: String
-tin: long
-phoneNumber: long
-email: String
-password: String
-client: User
+acessorMethods

+Client(ccn, nhsNumber, birthDate, sex, email, tin, phoneNumber, name)
+Client(ccn, nhsNumber, birthDate, email, tin, phoneNumber, name)
+...() 
}

class ClientList {
  -List <Client> clientList
  +createClient(ccn, nhsNumber, birthDate, sex, email,tin, phoneNumber, name)
  +createClient(ccn, nhsNumber, birthDate, email,tin, phoneNumber, name)
  +saveClient(client)
  +getClients()
}

class TestTypeStore {
+createTestType(code, description, collectingMethod, parameterCategories)
+validateTestType(tt)
+saveTestType(tt)
-addTestType(t)
}

class TestType{
-String code
-String description
-String collectingMethod
-List<ParameterCategory> parameterCategories
+TestType(code, description, collectingMethod, parameterCategories)
}


class ParameterStore {
  +createParameter(code, shortname, description, category)
  +validateParameter(p)
  +saveParameter(p)
  +addTestType(p)
  +getParameterByCategory(c)
}
class Parameter {
  -String code
  -String shortname
  -String description
  -List<ParameterCategory> category
  +Parameter(code, shortname, description, category)
}

class ParameterCategoryStore {
  +getCategoriesByList(cat);
}

class ParameterCategory {
  -String code
  -String name
  +ParameterCategory(code, name)
}

class TestUI {
}

class TestController {
  +createTest(nhsCode, testCode, client, tt, lcs, lps, rDate)
  +saveTest(t)
  +getClients()
  +getTestTypes()
  +getCategoriesByList(cat)
  +getParameterByCategory(c)
  +getTests()
  
}

class Test {
   -String nhsCode;
   -String internalCode;
   -Client client;
   -TestType testType;
   -List <ParameterCategory>  parameterCategory;
   -List <Parameter> parameter;
   -Date registrationDate;
  +Test(nhsCode, testCode, client, tt, lcs, lps, rDate)
}

class TestStore {
  +Test(nhsCode, testCode, client, tt, lcs, lps, rDate)
  +saveTest(t)
  +addTest(t)
  +validateTest(t)
  +getTests()
}

TestUI ..> TestController
TestController ..> Company
Company "1" - -> "1" ParameterStore
Company "1" - -> "1" ParameterCategoryStore
Company "1" - -> "1" TestTypeStore
Company "1" - -> "1" ClientList
ClientList "1" - -> "*" Client
Company "1" - -> "1" TestStore
TestStore"1" - -> "*" Test
TestTypeStore "1" - -> "*" TestType
TestType "*" - -> "1..*" ParameterCategory
ParameterStore "1" - -> "*" Parameter 
ParameterCategoryStore "1" - -> "1" ParameterCategory
Parameter "*" - -> "1..*" ParameterCategory
Test "1" - -> "1" TestType
Test "1" - -> "1" Client
Test "1" - -> "1...*" Parameter
Test "1" - -> "1...*" ParameterCategory
Test "1" - -> "1...1" ClinicalAnalysisLaboratory
@enduml

PlantUML version 1.2021.7(Sun May 23 12:40:07 UTC 2021)
(GPL source distribution)
Java Runtime: Java(TM) SE Runtime Environment
JVM: Java HotSpot(TM) 64-Bit Server VM
Default Encoding: UTF-8
Language: en
Country: US
--></g></svg>