<?xml version="1.0" encoding="UTF-8" standalone="no"?><svg xmlns="http://www.w3.org/2000/svg" xmlns:xlink="http://www.w3.org/1999/xlink" contentScriptType="application/ecmascript" contentStyleType="text/css" height="460px" preserveAspectRatio="none" style="width:918px;height:460px;background:#FFFFFF;" version="1.1" viewBox="0 0 918 460" width="918px" zoomAndPan="magnify"><defs><filter height="300%" id="f12e94a404yo6b" width="300%" x="-1" y="-1"><feGaussianBlur result="blurOut" stdDeviation="2.0"/><feColorMatrix in="blurOut" result="blurOut2" type="matrix" values="0 0 0 0 0 0 0 0 0 0 0 0 0 0 0 0 0 0 .4 0"/><feOffset dx="4.0" dy="4.0" in="blurOut2" result="blurOut3"/><feBlend in="SourceGraphic" in2="blurOut3" mode="normal"/></filter></defs><g><!--MD5=[aeb3272166074d8737a70b61b1e71682]
class TestType--><rect codeLine="5" fill="#FEFECE" filter="url(#f12e94a404yo6b)" height="78.4141" id="TestType" style="stroke:#A80036;stroke-width:1.5;" width="112" x="438" y="106"/><ellipse cx="463.8" cy="122" fill="#ADD1B2" rx="11" ry="11" style="stroke:#A80036;stroke-width:1.0;"/><path d="M466.1438,117.6719 C465.2063,117.2344 464.6125,117.0938 463.7375,117.0938 C461.1125,117.0938 459.1125,119.1719 459.1125,121.8906 L459.1125,123.0156 C459.1125,125.5938 461.2219,127.4844 464.1125,127.4844 C465.3313,127.4844 466.4875,127.1875 467.2375,126.6406 C467.8156,126.2344 468.1438,125.7813 468.1438,125.3906 C468.1438,124.9375 467.7531,124.5469 467.2844,124.5469 C467.0656,124.5469 466.8625,124.625 466.675,124.8125 C466.2219,125.2969 466.2219,125.2969 466.0344,125.3906 C465.6125,125.6563 464.925,125.7813 464.1594,125.7813 C462.1125,125.7813 460.8156,124.6875 460.8156,122.9844 L460.8156,121.8906 C460.8156,120.1094 462.0656,118.7969 463.8,118.7969 C464.3781,118.7969 464.9875,118.9531 465.4563,119.2031 C465.9406,119.4844 466.1125,119.7031 466.2063,120.1094 C466.2688,120.5156 466.3,120.6406 466.4406,120.7656 C466.5813,120.9063 466.8156,121.0156 467.0344,121.0156 C467.3,121.0156 467.5656,120.875 467.7375,120.6563 C467.8469,120.5 467.8781,120.3125 467.8781,119.8906 L467.8781,118.4688 C467.8781,118.0313 467.8625,117.9063 467.7688,117.75 C467.6125,117.4844 467.3313,117.3438 467.0344,117.3438 C466.7375,117.3438 466.5344,117.4375 466.3156,117.75 L466.1438,117.6719 Z " fill="#000000"/><text fill="#000000" font-family="sans-serif" font-size="12" lengthAdjust="spacing" textLength="56" x="480.2" y="126.1543">TestType</text><line style="stroke:#A80036;stroke-width:1.5;" x1="439" x2="549" y1="138" y2="138"/><text fill="#000000" font-family="sans-serif" font-size="11" lengthAdjust="spacing" textLength="32" x="444" y="152.2104">-code</text><text fill="#000000" font-family="sans-serif" font-size="11" lengthAdjust="spacing" textLength="66" x="444" y="165.0151">-description</text><text fill="#000000" font-family="sans-serif" font-size="11" lengthAdjust="spacing" textLength="100" x="444" y="177.8198">-collectingMethod</text><!--MD5=[02e4b9b7573f1156f41e60aa5b4e25a4]
class Company--><rect codeLine="11" fill="#FEFECE" filter="url(#f12e94a404yo6b)" height="52.8047" id="Company" style="stroke:#A80036;stroke-width:1.5;" width="88" x="7.5" y="118.5"/><ellipse cx="22.5" cy="134.5" fill="#ADD1B2" rx="11" ry="11" style="stroke:#A80036;stroke-width:1.0;"/><path d="M24.8438,130.1719 C23.9063,129.7344 23.3125,129.5938 22.4375,129.5938 C19.8125,129.5938 17.8125,131.6719 17.8125,134.3906 L17.8125,135.5156 C17.8125,138.0938 19.9219,139.9844 22.8125,139.9844 C24.0313,139.9844 25.1875,139.6875 25.9375,139.1406 C26.5156,138.7344 26.8438,138.2813 26.8438,137.8906 C26.8438,137.4375 26.4531,137.0469 25.9844,137.0469 C25.7656,137.0469 25.5625,137.125 25.375,137.3125 C24.9219,137.7969 24.9219,137.7969 24.7344,137.8906 C24.3125,138.1563 23.625,138.2813 22.8594,138.2813 C20.8125,138.2813 19.5156,137.1875 19.5156,135.4844 L19.5156,134.3906 C19.5156,132.6094 20.7656,131.2969 22.5,131.2969 C23.0781,131.2969 23.6875,131.4531 24.1563,131.7031 C24.6406,131.9844 24.8125,132.2031 24.9063,132.6094 C24.9688,133.0156 25,133.1406 25.1406,133.2656 C25.2813,133.4063 25.5156,133.5156 25.7344,133.5156 C26,133.5156 26.2656,133.375 26.4375,133.1563 C26.5469,133 26.5781,132.8125 26.5781,132.3906 L26.5781,130.9688 C26.5781,130.5313 26.5625,130.4063 26.4688,130.25 C26.3125,129.9844 26.0313,129.8438 25.7344,129.8438 C25.4375,129.8438 25.2344,129.9375 25.0156,130.25 L24.8438,130.1719 Z " fill="#000000"/><text fill="#000000" font-family="sans-serif" font-size="12" lengthAdjust="spacing" textLength="56" x="36.5" y="138.6543">Company</text><line style="stroke:#A80036;stroke-width:1.5;" x1="8.5" x2="94.5" y1="150.5" y2="150.5"/><text fill="#000000" font-family="sans-serif" font-size="11" lengthAdjust="spacing" textLength="70" x="13.5" y="164.7104">-designation</text><!--MD5=[df38be88ccee13e832d6fafd6288a4ca]
class Test--><rect codeLine="15" fill="#FEFECE" filter="url(#f12e94a404yo6b)" height="78.4141" id="Test" style="stroke:#A80036;stroke-width:1.5;" width="68" x="217" y="251"/><ellipse cx="236.5" cy="267" fill="#ADD1B2" rx="11" ry="11" style="stroke:#A80036;stroke-width:1.0;"/><path d="M238.8438,262.6719 C237.9063,262.2344 237.3125,262.0938 236.4375,262.0938 C233.8125,262.0938 231.8125,264.1719 231.8125,266.8906 L231.8125,268.0156 C231.8125,270.5938 233.9219,272.4844 236.8125,272.4844 C238.0313,272.4844 239.1875,272.1875 239.9375,271.6406 C240.5156,271.2344 240.8438,270.7813 240.8438,270.3906 C240.8438,269.9375 240.4531,269.5469 239.9844,269.5469 C239.7656,269.5469 239.5625,269.625 239.375,269.8125 C238.9219,270.2969 238.9219,270.2969 238.7344,270.3906 C238.3125,270.6563 237.625,270.7813 236.8594,270.7813 C234.8125,270.7813 233.5156,269.6875 233.5156,267.9844 L233.5156,266.8906 C233.5156,265.1094 234.7656,263.7969 236.5,263.7969 C237.0781,263.7969 237.6875,263.9531 238.1563,264.2031 C238.6406,264.4844 238.8125,264.7031 238.9063,265.1094 C238.9688,265.5156 239,265.6406 239.1406,265.7656 C239.2813,265.9063 239.5156,266.0156 239.7344,266.0156 C240,266.0156 240.2656,265.875 240.4375,265.6563 C240.5469,265.5 240.5781,265.3125 240.5781,264.8906 L240.5781,263.4688 C240.5781,263.0313 240.5625,262.9063 240.4688,262.75 C240.3125,262.4844 240.0313,262.3438 239.7344,262.3438 C239.4375,262.3438 239.2344,262.4375 239.0156,262.75 L238.8438,262.6719 Z " fill="#000000"/><text fill="#000000" font-family="sans-serif" font-size="12" lengthAdjust="spacing" textLength="26" x="251.5" y="271.1543">Test</text><line style="stroke:#A80036;stroke-width:1.5;" x1="218" x2="284" y1="283" y2="283"/><text fill="#000000" font-family="sans-serif" font-size="11" lengthAdjust="spacing" textLength="56" x="223" y="297.2104">-testCode</text><text fill="#000000" font-family="sans-serif" font-size="11" lengthAdjust="spacing" textLength="54" x="223" y="310.0151">-nhsCode</text><text fill="#000000" font-family="sans-serif" font-size="11" lengthAdjust="spacing" textLength="36" x="223" y="322.8198">-dates</text><!--MD5=[36afb6bbd95a8ac778c4537c55a683d5]
class ParameterCategory--><rect codeLine="21" fill="#FEFECE" filter="url(#f12e94a404yo6b)" height="65.6094" id="ParameterCategory" style="stroke:#A80036;stroke-width:1.5;" width="148" x="712" y="31"/><ellipse cx="727" cy="47" fill="#ADD1B2" rx="11" ry="11" style="stroke:#A80036;stroke-width:1.0;"/><path d="M729.3438,42.6719 C728.4063,42.2344 727.8125,42.0938 726.9375,42.0938 C724.3125,42.0938 722.3125,44.1719 722.3125,46.8906 L722.3125,48.0156 C722.3125,50.5938 724.4219,52.4844 727.3125,52.4844 C728.5313,52.4844 729.6875,52.1875 730.4375,51.6406 C731.0156,51.2344 731.3438,50.7813 731.3438,50.3906 C731.3438,49.9375 730.9531,49.5469 730.4844,49.5469 C730.2656,49.5469 730.0625,49.625 729.875,49.8125 C729.4219,50.2969 729.4219,50.2969 729.2344,50.3906 C728.8125,50.6563 728.125,50.7813 727.3594,50.7813 C725.3125,50.7813 724.0156,49.6875 724.0156,47.9844 L724.0156,46.8906 C724.0156,45.1094 725.2656,43.7969 727,43.7969 C727.5781,43.7969 728.1875,43.9531 728.6563,44.2031 C729.1406,44.4844 729.3125,44.7031 729.4063,45.1094 C729.4688,45.5156 729.5,45.6406 729.6406,45.7656 C729.7813,45.9063 730.0156,46.0156 730.2344,46.0156 C730.5,46.0156 730.7656,45.875 730.9375,45.6563 C731.0469,45.5 731.0781,45.3125 731.0781,44.8906 L731.0781,43.4688 C731.0781,43.0313 731.0625,42.9063 730.9688,42.75 C730.8125,42.4844 730.5313,42.3438 730.2344,42.3438 C729.9375,42.3438 729.7344,42.4375 729.5156,42.75 L729.3438,42.6719 Z " fill="#000000"/><text fill="#000000" font-family="sans-serif" font-size="12" lengthAdjust="spacing" textLength="116" x="741" y="51.1543">ParameterCategory</text><line style="stroke:#A80036;stroke-width:1.5;" x1="713" x2="859" y1="63" y2="63"/><text fill="#000000" font-family="sans-serif" font-size="11" lengthAdjust="spacing" textLength="37" x="718" y="77.2104">-name</text><text fill="#000000" font-family="sans-serif" font-size="11" lengthAdjust="spacing" textLength="32" x="718" y="90.0151">-code</text><!--MD5=[03960189e81aa2c066c762ffabbee709]
class Receptionist--><rect codeLine="26" fill="#FEFECE" filter="url(#f12e94a404yo6b)" height="129.6328" id="Receptionist" style="stroke:#A80036;stroke-width:1.5;" width="236" x="668" y="317"/><ellipse cx="744.75" cy="333" fill="#ADD1B2" rx="11" ry="11" style="stroke:#A80036;stroke-width:1.0;"/><path d="M747.0938,328.6719 C746.1563,328.2344 745.5625,328.0938 744.6875,328.0938 C742.0625,328.0938 740.0625,330.1719 740.0625,332.8906 L740.0625,334.0156 C740.0625,336.5938 742.1719,338.4844 745.0625,338.4844 C746.2813,338.4844 747.4375,338.1875 748.1875,337.6406 C748.7656,337.2344 749.0938,336.7813 749.0938,336.3906 C749.0938,335.9375 748.7031,335.5469 748.2344,335.5469 C748.0156,335.5469 747.8125,335.625 747.625,335.8125 C747.1719,336.2969 747.1719,336.2969 746.9844,336.3906 C746.5625,336.6563 745.875,336.7813 745.1094,336.7813 C743.0625,336.7813 741.7656,335.6875 741.7656,333.9844 L741.7656,332.8906 C741.7656,331.1094 743.0156,329.7969 744.75,329.7969 C745.3281,329.7969 745.9375,329.9531 746.4063,330.2031 C746.8906,330.4844 747.0625,330.7031 747.1563,331.1094 C747.2188,331.5156 747.25,331.6406 747.3906,331.7656 C747.5313,331.9063 747.7656,332.0156 747.9844,332.0156 C748.25,332.0156 748.5156,331.875 748.6875,331.6563 C748.7969,331.5 748.8281,331.3125 748.8281,330.8906 L748.8281,329.4688 C748.8281,329.0313 748.8125,328.9063 748.7188,328.75 C748.5625,328.4844 748.2813,328.3438 747.9844,328.3438 C747.6875,328.3438 747.4844,328.4375 747.2656,328.75 L747.0938,328.6719 Z " fill="#000000"/><text fill="#000000" font-family="sans-serif" font-size="12" lengthAdjust="spacing" textLength="74" x="765.25" y="337.1543">Receptionist</text><line style="stroke:#A80036;stroke-width:1.5;" x1="669" x2="903" y1="349" y2="349"/><text fill="#000000" font-family="sans-serif" font-size="11" lengthAdjust="spacing" textLength="75" x="674" y="363.2104">-employeeID</text><text fill="#000000" font-family="sans-serif" font-size="11" lengthAdjust="spacing" textLength="99" x="674" y="376.0151">-organizationRole</text><text fill="#000000" font-family="sans-serif" font-size="11" lengthAdjust="spacing" textLength="37" x="674" y="388.8198">-name</text><text fill="#000000" font-family="sans-serif" font-size="11" lengthAdjust="spacing" textLength="49" x="674" y="401.6245">-address</text><text fill="#000000" font-family="sans-serif" font-size="11" lengthAdjust="spacing" textLength="85" x="674" y="414.4292">-phoneNumber</text><text fill="#000000" font-family="sans-serif" font-size="11" lengthAdjust="spacing" textLength="34" x="674" y="427.2339">-eMail</text><text fill="#000000" font-family="sans-serif" font-size="11" lengthAdjust="spacing" textLength="224" x="674" y="440.0386">-standardOcupationalClassificationCode</text><!--MD5=[ed6624c6556d5e7b1bd23032162d20b7]
class Client--><rect codeLine="36" fill="#FEFECE" filter="url(#f12e94a404yo6b)" height="142.4375" id="Client" style="stroke:#A80036;stroke-width:1.5;" width="97" x="445.5" y="219"/><ellipse cx="474.9" cy="235" fill="#ADD1B2" rx="11" ry="11" style="stroke:#A80036;stroke-width:1.0;"/><path d="M477.2438,230.6719 C476.3063,230.2344 475.7125,230.0938 474.8375,230.0938 C472.2125,230.0938 470.2125,232.1719 470.2125,234.8906 L470.2125,236.0156 C470.2125,238.5938 472.3219,240.4844 475.2125,240.4844 C476.4313,240.4844 477.5875,240.1875 478.3375,239.6406 C478.9156,239.2344 479.2438,238.7813 479.2438,238.3906 C479.2438,237.9375 478.8531,237.5469 478.3844,237.5469 C478.1656,237.5469 477.9625,237.625 477.775,237.8125 C477.3219,238.2969 477.3219,238.2969 477.1344,238.3906 C476.7125,238.6563 476.025,238.7813 475.2594,238.7813 C473.2125,238.7813 471.9156,237.6875 471.9156,235.9844 L471.9156,234.8906 C471.9156,233.1094 473.1656,231.7969 474.9,231.7969 C475.4781,231.7969 476.0875,231.9531 476.5563,232.2031 C477.0406,232.4844 477.2125,232.7031 477.3063,233.1094 C477.3688,233.5156 477.4,233.6406 477.5406,233.7656 C477.6813,233.9063 477.9156,234.0156 478.1344,234.0156 C478.4,234.0156 478.6656,233.875 478.8375,233.6563 C478.9469,233.5 478.9781,233.3125 478.9781,232.8906 L478.9781,231.4688 C478.9781,231.0313 478.9625,230.9063 478.8688,230.75 C478.7125,230.4844 478.4313,230.3438 478.1344,230.3438 C477.8375,230.3438 477.6344,230.4375 477.4156,230.75 L477.2438,230.6719 Z " fill="#000000"/><text fill="#000000" font-family="sans-serif" font-size="12" lengthAdjust="spacing" textLength="33" x="492.1" y="239.1543">Client</text><line style="stroke:#A80036;stroke-width:1.5;" x1="446.5" x2="541.5" y1="251" y2="251"/><text fill="#000000" font-family="sans-serif" font-size="11" lengthAdjust="spacing" textLength="23" x="451.5" y="265.2104">-ccn</text><text fill="#000000" font-family="sans-serif" font-size="11" lengthAdjust="spacing" textLength="37" x="451.5" y="278.0151">-name</text><text fill="#000000" font-family="sans-serif" font-size="11" lengthAdjust="spacing" textLength="69" x="451.5" y="290.8198">-nhsNumber</text><text fill="#000000" font-family="sans-serif" font-size="11" lengthAdjust="spacing" textLength="57" x="451.5" y="303.6245">-birthDate</text><text fill="#000000" font-family="sans-serif" font-size="11" lengthAdjust="spacing" textLength="25" x="451.5" y="316.4292">-sex</text><text fill="#000000" font-family="sans-serif" font-size="11" lengthAdjust="spacing" textLength="15" x="451.5" y="329.2339">-tif</text><text fill="#000000" font-family="sans-serif" font-size="11" lengthAdjust="spacing" textLength="85" x="451.5" y="342.0386">-phoneNumber</text><text fill="#000000" font-family="sans-serif" font-size="11" lengthAdjust="spacing" textLength="34" x="451.5" y="354.8433">-eMail</text><!--MD5=[a999c1570c205a2156b04a15307bc1ff]
class LabOrder--><rect codeLine="46" fill="#FEFECE" filter="url(#f12e94a404yo6b)" height="65.6094" id="LabOrder" style="stroke:#A80036;stroke-width:1.5;" width="89" x="7" y="380"/><ellipse cx="22" cy="396" fill="#ADD1B2" rx="11" ry="11" style="stroke:#A80036;stroke-width:1.0;"/><path d="M24.3438,391.6719 C23.4063,391.2344 22.8125,391.0938 21.9375,391.0938 C19.3125,391.0938 17.3125,393.1719 17.3125,395.8906 L17.3125,397.0156 C17.3125,399.5938 19.4219,401.4844 22.3125,401.4844 C23.5313,401.4844 24.6875,401.1875 25.4375,400.6406 C26.0156,400.2344 26.3438,399.7813 26.3438,399.3906 C26.3438,398.9375 25.9531,398.5469 25.4844,398.5469 C25.2656,398.5469 25.0625,398.625 24.875,398.8125 C24.4219,399.2969 24.4219,399.2969 24.2344,399.3906 C23.8125,399.6563 23.125,399.7813 22.3594,399.7813 C20.3125,399.7813 19.0156,398.6875 19.0156,396.9844 L19.0156,395.8906 C19.0156,394.1094 20.2656,392.7969 22,392.7969 C22.5781,392.7969 23.1875,392.9531 23.6563,393.2031 C24.1406,393.4844 24.3125,393.7031 24.4063,394.1094 C24.4688,394.5156 24.5,394.6406 24.6406,394.7656 C24.7813,394.9063 25.0156,395.0156 25.2344,395.0156 C25.5,395.0156 25.7656,394.875 25.9375,394.6563 C26.0469,394.5 26.0781,394.3125 26.0781,393.8906 L26.0781,392.4688 C26.0781,392.0313 26.0625,391.9063 25.9688,391.75 C25.8125,391.4844 25.5313,391.3438 25.2344,391.3438 C24.9375,391.3438 24.7344,391.4375 24.5156,391.75 L24.3438,391.6719 Z " fill="#000000"/><text fill="#000000" font-family="sans-serif" font-size="12" lengthAdjust="spacing" textLength="57" x="36" y="400.1543">LabOrder</text><line style="stroke:#A80036;stroke-width:1.5;" x1="8" x2="95" y1="412" y2="412"/><text fill="#000000" font-family="sans-serif" font-size="11" lengthAdjust="spacing" textLength="55" x="13" y="426.2104">-testType</text><text fill="#000000" font-family="sans-serif" font-size="11" lengthAdjust="spacing" textLength="70" x="13" y="439.0151">-parameters</text><!--MD5=[1f6362a5c8f21d8d6a0fce68f3a92a4e]
class Parameter--><rect codeLine="51" fill="#FEFECE" filter="url(#f12e94a404yo6b)" height="78.4141" id="Parameter" style="stroke:#A80036;stroke-width:1.5;" width="93" x="315" y="7"/><ellipse cx="330" cy="23" fill="#ADD1B2" rx="11" ry="11" style="stroke:#A80036;stroke-width:1.0;"/><path d="M332.3438,18.6719 C331.4063,18.2344 330.8125,18.0938 329.9375,18.0938 C327.3125,18.0938 325.3125,20.1719 325.3125,22.8906 L325.3125,24.0156 C325.3125,26.5938 327.4219,28.4844 330.3125,28.4844 C331.5313,28.4844 332.6875,28.1875 333.4375,27.6406 C334.0156,27.2344 334.3438,26.7813 334.3438,26.3906 C334.3438,25.9375 333.9531,25.5469 333.4844,25.5469 C333.2656,25.5469 333.0625,25.625 332.875,25.8125 C332.4219,26.2969 332.4219,26.2969 332.2344,26.3906 C331.8125,26.6563 331.125,26.7813 330.3594,26.7813 C328.3125,26.7813 327.0156,25.6875 327.0156,23.9844 L327.0156,22.8906 C327.0156,21.1094 328.2656,19.7969 330,19.7969 C330.5781,19.7969 331.1875,19.9531 331.6563,20.2031 C332.1406,20.4844 332.3125,20.7031 332.4063,21.1094 C332.4688,21.5156 332.5,21.6406 332.6406,21.7656 C332.7813,21.9063 333.0156,22.0156 333.2344,22.0156 C333.5,22.0156 333.7656,21.875 333.9375,21.6563 C334.0469,21.5 334.0781,21.3125 334.0781,20.8906 L334.0781,19.4688 C334.0781,19.0313 334.0625,18.9063 333.9688,18.75 C333.8125,18.4844 333.5313,18.3438 333.2344,18.3438 C332.9375,18.3438 332.7344,18.4375 332.5156,18.75 L332.3438,18.6719 Z " fill="#000000"/><text fill="#000000" font-family="sans-serif" font-size="12" lengthAdjust="spacing" textLength="61" x="344" y="27.1543">Parameter</text><line style="stroke:#A80036;stroke-width:1.5;" x1="316" x2="407" y1="39" y2="39"/><text fill="#000000" font-family="sans-serif" font-size="11" lengthAdjust="spacing" textLength="32" x="321" y="53.2104">-code</text><text fill="#000000" font-family="sans-serif" font-size="11" lengthAdjust="spacing" textLength="65" x="321" y="66.0151">-shortname</text><text fill="#000000" font-family="sans-serif" font-size="11" lengthAdjust="spacing" textLength="66" x="321" y="78.8198">-description</text><!--MD5=[742a261f27a3dcd734c626287d811acd]
link Company to TestType--><path codeLine="56" d="M95.539,145 C174.472,145 342.545,145 432.772,145 " fill="none" id="Company-to-TestType" style="stroke:#A80036;stroke-width:1.0;"/><polygon fill="#A80036" points="437.805,145,428.805,141,432.805,145,428.805,149,437.805,145" style="stroke:#A80036;stroke-width:1.0;"/><text fill="#000000" font-family="sans-serif" font-size="13" lengthAdjust="spacing" textLength="58" x="222" y="141.0669">conducts</text><text fill="#000000" font-family="sans-serif" font-size="13" lengthAdjust="spacing" textLength="8" x="103.4955" y="158.3363">1</text><text fill="#000000" font-family="sans-serif" font-size="13" lengthAdjust="spacing" textLength="7" x="423.1566" y="158.0098">*</text><!--MD5=[e981d4f96c4342412d1e68160b30cf70]
link Test to TestType--><path codeLine="57" d="M285.005,270.142 C323.095,247.225 386.491,209.082 433.3,180.919 " fill="none" id="Test-to-TestType" style="stroke:#A80036;stroke-width:1.0;"/><polygon fill="#A80036" points="437.777,178.225,428.0032,179.4389,433.4931,180.8034,432.1286,186.2932,437.777,178.225" style="stroke:#A80036;stroke-width:1.0;"/><text fill="#000000" font-family="sans-serif" font-size="13" lengthAdjust="spacing" textLength="27" x="348" y="196.0669">is of</text><text fill="#000000" font-family="sans-serif" font-size="13" lengthAdjust="spacing" textLength="7" x="293.2092" y="279.4748">*</text><text fill="#000000" font-family="sans-serif" font-size="13" lengthAdjust="spacing" textLength="8" x="422.0609" y="195.4918">1</text><!--MD5=[7e4bc624457760b649895ff2ead938fa]
link Company to Test--><path codeLine="58" d="M88.7245,171.595 C123.931,197.443 177.15,236.515 212.713,262.625 " fill="none" id="Company-to-Test" style="stroke:#A80036;stroke-width:1.0;"/><polygon fill="#A80036" points="216.96,265.743,212.0728,257.1923,212.9297,262.7838,207.3381,263.6407,216.96,265.743" style="stroke:#A80036;stroke-width:1.0;"/><text fill="#000000" font-family="sans-serif" font-size="13" lengthAdjust="spacing" textLength="59" x="127" y="196.0669">performs</text><text fill="#000000" font-family="sans-serif" font-size="13" lengthAdjust="spacing" textLength="8" x="88.4077" y="191.5843">1</text><text fill="#000000" font-family="sans-serif" font-size="13" lengthAdjust="spacing" textLength="7" x="202.2174" y="274.3248">*</text><!--MD5=[8aaf0efd5e2f3824be7ea3e488dcc283]
link TestType to ParameterCategory--><path codeLine="59" d="M550.229,129.574 C594.557,117.193 657.339,99.657 706.827,85.834 " fill="none" id="TestType-to-ParameterCategory" style="stroke:#A80036;stroke-width:1.0;"/><polygon fill="#A80036" points="711.878,84.424,702.1335,82.9938,707.0625,85.7697,704.2866,90.6986,711.878,84.424" style="stroke:#A80036;stroke-width:1.0;"/><text fill="#000000" font-family="sans-serif" font-size="13" lengthAdjust="spacing" textLength="32" x="593" y="103.0669">have</text><text fill="#000000" font-family="sans-serif" font-size="13" lengthAdjust="spacing" textLength="7" x="557.8818" y="140.6074">*</text><text fill="#000000" font-family="sans-serif" font-size="13" lengthAdjust="spacing" textLength="23" x="680.9847" y="99.0893">1..*</text><!--MD5=[83999087262e3f95ecaa1d42f873aabe]
reverse link Client to Receptionist--><path codeLine="60" d="M547.44,306.636 C581.067,317.304 626.106,331.592 667.924,344.859 " fill="none" id="Client-backto-Receptionist" style="stroke:#A80036;stroke-width:1.0;"/><polygon fill="#A80036" points="542.563,305.089,549.9327,311.6226,547.3291,306.6005,552.3511,303.9969,542.563,305.089" style="stroke:#A80036;stroke-width:1.0;"/><text fill="#000000" font-family="sans-serif" font-size="13" lengthAdjust="spacing" textLength="56" x="581" y="313.0669">registers</text><text fill="#000000" font-family="sans-serif" font-size="13" lengthAdjust="spacing" textLength="7" x="550.5351" y="320.5915">*</text><text fill="#000000" font-family="sans-serif" font-size="13" lengthAdjust="spacing" textLength="8" x="652.1035" y="355.043">1</text><!--MD5=[84a279e28ad6c3248737114c29c49c27]
link LabOrder to Test--><path codeLine="62" d="M96.3317,385.7023 C131.135,364.0275 179.282,334.042 212.359,313.442 " fill="none" id="LabOrder-to-Test" style="stroke:#A80036;stroke-width:1.0;"/><polygon fill="#A80036" points="216.72,310.726,206.9657,312.0878,212.4756,313.3689,211.1944,318.8788,216.72,310.726" style="stroke:#A80036;stroke-width:1.0;"/><text fill="#000000" font-family="sans-serif" font-size="13" lengthAdjust="spacing" textLength="46" x="133.5" y="325.0669">used in</text><text fill="#000000" font-family="sans-serif" font-size="13" lengthAdjust="spacing" textLength="8" x="104.1143" y="394.6556">1</text><text fill="#000000" font-family="sans-serif" font-size="13" lengthAdjust="spacing" textLength="8" x="200.8248" y="328.5855">1</text><!--MD5=[6df8849671cb880f6936e94aa30db6f9]
link Parameter to ParameterCategory--><path codeLine="63" d="M408.116,47.943 C479.561,50.987 618.743,56.917 706.512,60.656 " fill="none" id="Parameter-to-ParameterCategory" style="stroke:#A80036;stroke-width:1.0;"/><polygon fill="#A80036" points="711.695,60.877,702.8735,56.4974,706.6995,60.6641,702.5328,64.4901,711.695,60.877" style="stroke:#A80036;stroke-width:1.0;"/><text fill="#000000" font-family="sans-serif" font-size="13" lengthAdjust="spacing" textLength="106" x="441" y="46.0669">presented under</text><text fill="#000000" font-family="sans-serif" font-size="13" lengthAdjust="spacing" textLength="7" x="416.1032" y="61.4925">*</text><text fill="#000000" font-family="sans-serif" font-size="13" lengthAdjust="spacing" textLength="8" x="695.9869" y="73.4005">1</text><!--MD5=[12d76240d3c3c66074d4ec2ea8bf469c]
link Company to Parameter--><path codeLine="65" d="M95.5455,129.463 C105.5198,125.949 116.11,122.287 126,119 C189.177,98.001 262.521,75.461 310.13,61.072 " fill="none" id="Company-to-Parameter" style="stroke:#A80036;stroke-width:1.0;"/><polygon fill="#A80036" points="314.942,59.619,305.1699,58.3917,310.1555,61.0645,307.4827,66.0501,314.942,59.619" style="stroke:#A80036;stroke-width:1.0;"/><text fill="#000000" font-family="sans-serif" font-size="13" lengthAdjust="spacing" textLength="56" x="128.5" y="96.0669">specifies</text><text fill="#000000" font-family="sans-serif" font-size="13" lengthAdjust="spacing" textLength="8" x="103.503" y="140.2259">1</text><text fill="#000000" font-family="sans-serif" font-size="13" lengthAdjust="spacing" textLength="7" x="299.964" y="75.0293">*</text><!--MD5=[65c5b509916ed9c0531bcd26c55dbd83]
reverse link LabOrder to Client--><path codeLine="66" d="M101.2731,404.6897 C148.638,396.1584 222.366,381.6557 285,364 C340.889,348.2454 403.475,325.221 445.257,309.049 " fill="none" id="LabOrder-backto-Client" style="stroke:#A80036;stroke-width:1.0;"/><polygon fill="#A80036" points="96.2023,405.5983,105.7668,407.948,101.1239,404.7163,104.3556,400.0734,96.2023,405.5983" style="stroke:#A80036;stroke-width:1.0;"/><text fill="#000000" font-family="sans-serif" font-size="13" lengthAdjust="spacing" textLength="39" x="231.5" y="360.0669">brings</text><text fill="#000000" font-family="sans-serif" font-size="13" lengthAdjust="spacing" textLength="24" x="104.1761" y="417.7158">1..2</text><text fill="#000000" font-family="sans-serif" font-size="13" lengthAdjust="spacing" textLength="8" x="429.5104" y="324.9929">1</text><!--MD5=[6dba24dc0f16d673b4663f61de2d8959]
reverse link Test to Client--><path codeLine="67" d="M290.26,290 C332.345,290 400.024,290 445.478,290 " fill="none" id="Test-backto-Client" style="stroke:#A80036;stroke-width:1.0;"/><polygon fill="#A80036" points="285.005,290,294.005,294,290.005,290,294.005,286,285.005,290" style="stroke:#A80036;stroke-width:1.0;"/><text fill="#000000" font-family="sans-serif" font-size="13" lengthAdjust="spacing" textLength="71" x="326" y="286.0669">performs a</text><text fill="#000000" font-family="sans-serif" font-size="13" lengthAdjust="spacing" textLength="8" x="292.8435" y="303.5848">1</text><text fill="#000000" font-family="sans-serif" font-size="13" lengthAdjust="spacing" textLength="8" x="429.4356" y="303.192">1</text><!--MD5=[e8b34c2e6517a986175307f5599f058a]
link Receptionist to Test--><path codeLine="68" d="M667.849,403.7741 C599.689,412.2511 512.746,415.8034 438,396 C382.071,381.1818 325.383,345.189 289.541,319.253 " fill="none" id="Receptionist-to-Test" style="stroke:#A80036;stroke-width:1.0;"/><polygon fill="#A80036" points="285.275,316.142,290.1905,324.6765,289.3151,319.0878,294.9038,318.2123,285.275,316.142" style="stroke:#A80036;stroke-width:1.0;"/><text fill="#000000" font-family="sans-serif" font-size="13" lengthAdjust="spacing" textLength="56" x="466" y="392.0669">registers</text><text fill="#000000" font-family="sans-serif" font-size="13" lengthAdjust="spacing" textLength="8" x="652.0237" y="417.7324">1</text><text fill="#000000" font-family="sans-serif" font-size="13" lengthAdjust="spacing" textLength="7" x="293.0661" y="335.1186">*</text><!--MD5=[5dcf65c3524989a5370b3ca7d78375de]
@startuml
skinparam classAttributeIconSize 0
hide methods
left to right direction

class TestType {
  -code
  -description
  -collectingMethod
}

class Company {
  -designation
}

class Test {
-testCode
-nhsCode
-dates
}

class ParameterCategory {
  -name
  -code
}

Class Receptionist{
-employeeID
-organizationRole
-name
-address
-phoneNumber
-eMail
-standardOcupationalClassificationCode
}

Class Client{
-ccn
-name
-nhsNumber
-birthDate
-sex
-tif
-phoneNumber
-eMail
}
Class LabOrder{
-testType
-parameters
}

class Parameter {
 -code
 -shortname
 -description
}
Company "1" - -> "*" TestType : conducts 
Test "*" - -> "1" TestType : is of 
Company "1" - -> "*" Test : performs 
TestType "*" - -> "1..*" ParameterCategory : have 
Client "*" <- - "1" Receptionist : registers

LabOrder "1" - -> "1" Test : used in
Parameter "*" - -> "1" ParameterCategory : presented under

Company "1" - -> "*" Parameter : specifies
LabOrder "1..2" <- - "1" Client: brings
Test "1" <- - "1" Client: performs a
Receptionist "1" - -> "*" Test : registers
@enduml

PlantUML version 1.2021.7beta2(Unknown compile time)
(GPL source distribution)
Java Runtime: Java(TM) SE Runtime Environment
JVM: Java HotSpot(TM) 64-Bit Server VM
Default Encoding: UTF-8
Language: en
Country: US
--></g></svg>