<?xml version="1.0" encoding="UTF-8" standalone="no"?>
<svg xmlns="http://www.w3.org/2000/svg" xmlns:xlink="http://www.w3.org/1999/xlink" contentScriptType="application/ecmascript" contentStyleType="text/css" height="1104px" preserveAspectRatio="none" style="width:2612px;height:1104px;" version="1.1" viewBox="0 0 2612 1104" width="2612px" zoomAndPan="magnify"><defs><filter height="300%" id="f1a0hfgi6dc2y1" width="300%" x="-1" y="-1"><feGaussianBlur result="blurOut" stdDeviation="2.0"/><feColorMatrix in="blurOut" result="blurOut2" type="matrix" values="0 0 0 0 0 0 0 0 0 0 0 0 0 0 0 0 0 0 .4 0"/><feOffset dx="4.0" dy="4.0" in="blurOut2" result="blurOut3"/><feBlend in="SourceGraphic" in2="blurOut3" mode="normal"/></filter></defs><g><rect fill="#FFFFFF" filter="url(#f1a0hfgi6dc2y1)" height="903.6484" style="stroke:#A80036;stroke-width:1.0;" width="10" x="68" y="98.2969"/><rect fill="#FFFFFF" filter="url(#f1a0hfgi6dc2y1)" height="29.1328" style="stroke:#A80036;stroke-width:1.0;" width="10" x="462" y="119.4297"/><rect fill="#FFFFFF" filter="url(#f1a0hfgi6dc2y1)" height="200.6641" style="stroke:#A80036;stroke-width:1.0;" width="10" x="462" y="177.6953"/><rect fill="#FFFFFF" filter="url(#f1a0hfgi6dc2y1)" height="393.6563" style="stroke:#A80036;stroke-width:1.0;" width="10" x="462" y="407.4922"/><rect fill="#FFFFFF" filter="url(#f1a0hfgi6dc2y1)" height="171.6641" style="stroke:#A80036;stroke-width:1.0;" width="10" x="462" y="830.2813"/><rect fill="#FFFFFF" filter="url(#f1a0hfgi6dc2y1)" height="118.2656" style="stroke:#A80036;stroke-width:1.0;" width="10" x="1014" y="206.8281"/><rect fill="#FFFFFF" filter="url(#f1a0hfgi6dc2y1)" height="328.3906" style="stroke:#A80036;stroke-width:1.0;" width="10" x="1014" y="443.625"/><rect fill="#FFFFFF" filter="url(#f1a0hfgi6dc2y1)" height="142.5313" style="stroke:#A80036;stroke-width:1.0;" width="10" x="1014" y="859.4141"/><rect fill="#FFFFFF" filter="url(#f1a0hfgi6dc2y1)" height="30" style="stroke:#A80036;stroke-width:1.0;" width="10" x="1272" y="235.9609"/><rect fill="#FFFFFF" filter="url(#f1a0hfgi6dc2y1)" height="30" style="stroke:#A80036;stroke-width:1.0;" width="10" x="1272" y="563.0234"/><rect fill="#FFFFFF" filter="url(#f1a0hfgi6dc2y1)" height="30" style="stroke:#A80036;stroke-width:1.0;" width="10" x="1476" y="295.0938"/><rect fill="#FFFFFF" filter="url(#f1a0hfgi6dc2y1)" height="30" style="stroke:#A80036;stroke-width:1.0;" width="10" x="1476" y="496.8906"/><rect fill="#FFFFFF" filter="url(#f1a0hfgi6dc2y1)" height="29.1328" style="stroke:#A80036;stroke-width:1.0;" width="10" x="1649" y="622.1563"/><rect fill="#FFFFFF" filter="url(#f1a0hfgi6dc2y1)" height="30" style="stroke:#A80036;stroke-width:1.0;" width="10" x="1649" y="712.8828"/><rect fill="#FFFFFF" filter="url(#f1a0hfgi6dc2y1)" height="113.3984" style="stroke:#A80036;stroke-width:1.0;" width="10" x="1649" y="888.5469"/><rect fill="#FFFFFF" filter="url(#f1a0hfgi6dc2y1)" height="75.3984" style="stroke:#000000;stroke-width:2.0;" width="543.5" x="10" y="340.0938"/><rect fill="#FFFFFF" filter="url(#f1a0hfgi6dc2y1)" height="76.2656" style="stroke:#000000;stroke-width:2.0;" width="688.5" x="902.5" y="458.625"/><line style="stroke:#A80036;stroke-width:1.0;stroke-dasharray:5.0,5.0;" x1="73" x2="73" y1="88.2969" y2="1019.9453"/><line style="stroke:#A80036;stroke-width:1.0;stroke-dasharray:5.0,5.0;" x1="466.5" x2="466.5" y1="88.2969" y2="1019.9453"/><line style="stroke:#A80036;stroke-width:1.0;stroke-dasharray:5.0,5.0;" x1="1018.5" x2="1018.5" y1="88.2969" y2="1019.9453"/><line style="stroke:#A80036;stroke-width:1.0;stroke-dasharray:5.0,5.0;" x1="1276.5" x2="1276.5" y1="88.2969" y2="1019.9453"/><line style="stroke:#A80036;stroke-width:1.0;stroke-dasharray:5.0,5.0;" x1="1481" x2="1481" y1="88.2969" y2="1019.9453"/><line style="stroke:#A80036;stroke-width:1.0;stroke-dasharray:5.0,5.0;" x1="1654" x2="1654" y1="88.2969" y2="1019.9453"/><line style="stroke:#A80036;stroke-width:1.0;stroke-dasharray:5.0,5.0;" x1="2169" x2="2169" y1="670.9531" y2="1019.9453"/><line style="stroke:#A80036;stroke-width:1.0;stroke-dasharray:5.0,5.0;" x1="2304" x2="2304" y1="88.2969" y2="1019.9453"/><line style="stroke:#A80036;stroke-width:1.0;stroke-dasharray:5.0,5.0;" x1="2498" x2="2498" y1="88.2969" y2="1019.9453"/><text fill="#000000" font-family="sans-serif" font-size="14" lengthAdjust="spacing" textLength="100" x="20" y="84.9951">Administrator</text><ellipse cx="73" cy="15" fill="#FEFECE" filter="url(#f1a0hfgi6dc2y1)" rx="8" ry="8" style="stroke:#A80036;stroke-width:2.0;"/><path d="M73,23 L73,50 M60,31 L86,31 M73,50 L60,65 M73,50 L86,65 " fill="none" filter="url(#f1a0hfgi6dc2y1)" style="stroke:#A80036;stroke-width:2.0;"/><text fill="#000000" font-family="sans-serif" font-size="14" lengthAdjust="spacing" textLength="100" x="20" y="1031.9404">Administrator</text><ellipse cx="73" cy="1045.2422" fill="#FEFECE" filter="url(#f1a0hfgi6dc2y1)" rx="8" ry="8" style="stroke:#A80036;stroke-width:2.0;"/><path d="M73,1053.2422 L73,1080.2422 M60,1061.2422 L86,1061.2422 M73,1080.2422 L60,1095.2422 M73,1080.2422 L86,1095.2422 " fill="none" filter="url(#f1a0hfgi6dc2y1)" style="stroke:#A80036;stroke-width:2.0;"/><rect fill="#FEFECE" filter="url(#f1a0hfgi6dc2y1)" height="30.2969" style="stroke:#A80036;stroke-width:1.5;" width="149" x="390.5" y="53"/><text fill="#000000" font-family="sans-serif" font-size="14" lengthAdjust="spacing" textLength="135" x="397.5" y="72.9951">:CreateTestTypeUI</text><rect fill="#FEFECE" filter="url(#f1a0hfgi6dc2y1)" height="30.2969" style="stroke:#A80036;stroke-width:1.5;" width="149" x="390.5" y="1018.9453"/><text fill="#000000" font-family="sans-serif" font-size="14" lengthAdjust="spacing" textLength="135" x="397.5" y="1038.9404">:CreateTestTypeUI</text><rect fill="#FEFECE" filter="url(#f1a0hfgi6dc2y1)" height="30.2969" style="stroke:#A80036;stroke-width:1.5;" width="209" x="912.5" y="53"/><text fill="#000000" font-family="sans-serif" font-size="14" lengthAdjust="spacing" textLength="195" x="919.5" y="72.9951">:CreateTestTypeController</text><rect fill="#FEFECE" filter="url(#f1a0hfgi6dc2y1)" height="30.2969" style="stroke:#A80036;stroke-width:1.5;" width="209" x="912.5" y="1018.9453"/><text fill="#000000" font-family="sans-serif" font-size="14" lengthAdjust="spacing" textLength="195" x="919.5" y="1038.9404">:CreateTestTypeController</text><rect fill="#FEFECE" filter="url(#f1a0hfgi6dc2y1)" height="30.2969" style="stroke:#A80036;stroke-width:1.5;" width="87" x="1231.5" y="53"/><text fill="#000000" font-family="sans-serif" font-size="14" lengthAdjust="spacing" textLength="73" x="1238.5" y="72.9951">:Company</text><rect fill="#FEFECE" filter="url(#f1a0hfgi6dc2y1)" height="30.2969" style="stroke:#A80036;stroke-width:1.5;" width="87" x="1231.5" y="1018.9453"/><text fill="#000000" font-family="sans-serif" font-size="14" lengthAdjust="spacing" textLength="73" x="1238.5" y="1038.9404">:Company</text><rect fill="#FEFECE" filter="url(#f1a0hfgi6dc2y1)" height="46.5938" style="stroke:#A80036;stroke-width:1.5;" width="196" x="1381" y="36.7031"/><text fill="#000000" font-family="sans-serif" font-size="14" lengthAdjust="spacing" textLength="63" x="1447.5" y="56.6982">pcStore:</text><text fill="#000000" font-family="sans-serif" font-size="14" lengthAdjust="spacing" textLength="182" x="1388" y="72.9951">ParameterCategoryStore</text><rect fill="#FEFECE" filter="url(#f1a0hfgi6dc2y1)" height="46.5938" style="stroke:#A80036;stroke-width:1.5;" width="196" x="1381" y="1018.9453"/><text fill="#000000" font-family="sans-serif" font-size="14" lengthAdjust="spacing" textLength="63" x="1447.5" y="1038.9404">pcStore:</text><text fill="#000000" font-family="sans-serif" font-size="14" lengthAdjust="spacing" textLength="182" x="1388" y="1055.2373">ParameterCategoryStore</text><rect fill="#FEFECE" filter="url(#f1a0hfgi6dc2y1)" height="46.5938" style="stroke:#A80036;stroke-width:1.5;" width="122" x="1591" y="36.7031"/><text fill="#000000" font-family="sans-serif" font-size="14" lengthAdjust="spacing" textLength="59" x="1622.5" y="56.6982">ttStore:</text><text fill="#000000" font-family="sans-serif" font-size="14" lengthAdjust="spacing" textLength="108" x="1598" y="72.9951">TestTypeStore</text><rect fill="#FEFECE" filter="url(#f1a0hfgi6dc2y1)" height="46.5938" style="stroke:#A80036;stroke-width:1.5;" width="122" x="1591" y="1018.9453"/><text fill="#000000" font-family="sans-serif" font-size="14" lengthAdjust="spacing" textLength="59" x="1622.5" y="1038.9404">ttStore:</text><text fill="#000000" font-family="sans-serif" font-size="14" lengthAdjust="spacing" textLength="108" x="1598" y="1055.2373">TestTypeStore</text><rect fill="#FEFECE" filter="url(#f1a0hfgi6dc2y1)" height="46.5938" style="stroke:#A80036;stroke-width:1.5;" width="86" x="2124" y="1018.9453"/><text fill="#000000" font-family="sans-serif" font-size="14" lengthAdjust="spacing" textLength="19" x="2157.5" y="1038.9404">tt:</text><text fill="#000000" font-family="sans-serif" font-size="14" lengthAdjust="spacing" textLength="72" x="2131" y="1055.2373">Test Type</text><rect fill="#FEFECE" filter="url(#f1a0hfgi6dc2y1)" height="46.5938" style="stroke:#A80036;stroke-width:1.5;" width="156" x="2224" y="36.7031"/><text fill="#000000" font-family="sans-serif" font-size="14" lengthAdjust="spacing" textLength="23" x="2290.5" y="56.6982">pc:</text><text fill="#000000" font-family="sans-serif" font-size="14" lengthAdjust="spacing" textLength="142" x="2231" y="72.9951">ParameterCategory</text><rect fill="#FEFECE" filter="url(#f1a0hfgi6dc2y1)" height="46.5938" style="stroke:#A80036;stroke-width:1.5;" width="156" x="2224" y="1018.9453"/><text fill="#000000" font-family="sans-serif" font-size="14" lengthAdjust="spacing" textLength="23" x="2290.5" y="1038.9404">pc:</text><text fill="#000000" font-family="sans-serif" font-size="14" lengthAdjust="spacing" textLength="142" x="2231" y="1055.2373">ParameterCategory</text><rect fill="#FEFECE" filter="url(#f1a0hfgi6dc2y1)" height="46.5938" style="stroke:#A80036;stroke-width:1.5;" width="204" x="2394" y="36.7031"/><text fill="#000000" font-family="sans-serif" font-size="14" lengthAdjust="spacing" textLength="17" x="2487.5" y="56.6982">lc:</text><text fill="#000000" font-family="sans-serif" font-size="14" lengthAdjust="spacing" textLength="190" x="2401" y="72.9951">List&lt;ParameterCategory&gt;</text><rect fill="#FEFECE" filter="url(#f1a0hfgi6dc2y1)" height="46.5938" style="stroke:#A80036;stroke-width:1.5;" width="204" x="2394" y="1018.9453"/><text fill="#000000" font-family="sans-serif" font-size="14" lengthAdjust="spacing" textLength="17" x="2487.5" y="1038.9404">lc:</text><text fill="#000000" font-family="sans-serif" font-size="14" lengthAdjust="spacing" textLength="190" x="2401" y="1055.2373">List&lt;ParameterCategory&gt;</text><rect fill="#FFFFFF" filter="url(#f1a0hfgi6dc2y1)" height="903.6484" style="stroke:#A80036;stroke-width:1.0;" width="10" x="68" y="98.2969"/><rect fill="#FFFFFF" filter="url(#f1a0hfgi6dc2y1)" height="29.1328" style="stroke:#A80036;stroke-width:1.0;" width="10" x="462" y="119.4297"/><rect fill="#FFFFFF" filter="url(#f1a0hfgi6dc2y1)" height="200.6641" style="stroke:#A80036;stroke-width:1.0;" width="10" x="462" y="177.6953"/><rect fill="#FFFFFF" filter="url(#f1a0hfgi6dc2y1)" height="393.6563" style="stroke:#A80036;stroke-width:1.0;" width="10" x="462" y="407.4922"/><rect fill="#FFFFFF" filter="url(#f1a0hfgi6dc2y1)" height="171.6641" style="stroke:#A80036;stroke-width:1.0;" width="10" x="462" y="830.2813"/><rect fill="#FFFFFF" filter="url(#f1a0hfgi6dc2y1)" height="118.2656" style="stroke:#A80036;stroke-width:1.0;" width="10" x="1014" y="206.8281"/><rect fill="#FFFFFF" filter="url(#f1a0hfgi6dc2y1)" height="328.3906" style="stroke:#A80036;stroke-width:1.0;" width="10" x="1014" y="443.625"/><rect fill="#FFFFFF" filter="url(#f1a0hfgi6dc2y1)" height="142.5313" style="stroke:#A80036;stroke-width:1.0;" width="10" x="1014" y="859.4141"/><rect fill="#FFFFFF" filter="url(#f1a0hfgi6dc2y1)" height="30" style="stroke:#A80036;stroke-width:1.0;" width="10" x="1272" y="235.9609"/><rect fill="#FFFFFF" filter="url(#f1a0hfgi6dc2y1)" height="30" style="stroke:#A80036;stroke-width:1.0;" width="10" x="1272" y="563.0234"/><rect fill="#FFFFFF" filter="url(#f1a0hfgi6dc2y1)" height="30" style="stroke:#A80036;stroke-width:1.0;" width="10" x="1476" y="295.0938"/><rect fill="#FFFFFF" filter="url(#f1a0hfgi6dc2y1)" height="30" style="stroke:#A80036;stroke-width:1.0;" width="10" x="1476" y="496.8906"/><rect fill="#FFFFFF" filter="url(#f1a0hfgi6dc2y1)" height="29.1328" style="stroke:#A80036;stroke-width:1.0;" width="10" x="1649" y="622.1563"/><rect fill="#FFFFFF" filter="url(#f1a0hfgi6dc2y1)" height="30" style="stroke:#A80036;stroke-width:1.0;" width="10" x="1649" y="712.8828"/><rect fill="#FFFFFF" filter="url(#f1a0hfgi6dc2y1)" height="113.3984" style="stroke:#A80036;stroke-width:1.0;" width="10" x="1649" y="888.5469"/><polygon fill="#A80036" points="450,115.4297,460,119.4297,450,123.4297,454,119.4297" style="stroke:#A80036;stroke-width:1.0;"/><line style="stroke:#A80036;stroke-width:1.0;" x1="78" x2="456" y1="119.4297" y2="119.4297"/><text fill="#000000" font-family="sans-serif" font-size="13" font-weight="bold" lengthAdjust="spacing" textLength="9" x="85" y="114.3638">1</text><text fill="#000000" font-family="sans-serif" font-size="13" lengthAdjust="spacing" textLength="147" x="98" y="114.3638">starts new type of test</text><polygon fill="#A80036" points="89,144.5625,79,148.5625,89,152.5625,85,148.5625" style="stroke:#A80036;stroke-width:1.0;"/><line style="stroke:#A80036;stroke-width:1.0;stroke-dasharray:2.0,2.0;" x1="83" x2="466" y1="148.5625" y2="148.5625"/><text fill="#000000" font-family="sans-serif" font-size="13" font-weight="bold" lengthAdjust="spacing" textLength="9" x="95" y="143.4966">2</text><text fill="#000000" font-family="sans-serif" font-size="13" lengthAdjust="spacing" textLength="343" x="108" y="143.4966">request data(i.e., code, description, collectingMethod)</text><polygon fill="#A80036" points="450,173.6953,460,177.6953,450,181.6953,454,177.6953" style="stroke:#A80036;stroke-width:1.0;"/><line style="stroke:#A80036;stroke-width:1.0;" x1="78" x2="456" y1="177.6953" y2="177.6953"/><text fill="#000000" font-family="sans-serif" font-size="13" font-weight="bold" lengthAdjust="spacing" textLength="8" x="85" y="172.6294">3</text><text fill="#000000" font-family="sans-serif" font-size="13" lengthAdjust="spacing" textLength="138" x="97" y="172.6294">types requested data</text><polygon fill="#A80036" points="1002,202.8281,1012,206.8281,1002,210.8281,1006,206.8281" style="stroke:#A80036;stroke-width:1.0;"/><line style="stroke:#A80036;stroke-width:1.0;" x1="472" x2="1008" y1="206.8281" y2="206.8281"/><text fill="#000000" font-family="sans-serif" font-size="13" font-weight="bold" lengthAdjust="spacing" textLength="9" x="479" y="201.7622">4</text><text fill="#000000" font-family="sans-serif" font-size="13" lengthAdjust="spacing" textLength="188" x="492" y="201.7622">lc=getParameterCategories()</text><polygon fill="#A80036" points="1260,231.9609,1270,235.9609,1260,239.9609,1264,235.9609" style="stroke:#A80036;stroke-width:1.0;"/><line style="stroke:#A80036;stroke-width:1.0;" x1="1024" x2="1266" y1="235.9609" y2="235.9609"/><text fill="#000000" font-family="sans-serif" font-size="13" font-weight="bold" lengthAdjust="spacing" textLength="9" x="1031" y="230.895">5</text><text fill="#000000" font-family="sans-serif" font-size="13" lengthAdjust="spacing" textLength="216" x="1044" y="230.895">cs=getParameterCategoryStore()</text><polygon fill="#A80036" points="1464,291.0938,1474,295.0938,1464,299.0938,1468,295.0938" style="stroke:#A80036;stroke-width:1.0;"/><line style="stroke:#A80036;stroke-width:1.0;" x1="1024" x2="1470" y1="295.0938" y2="295.0938"/><text fill="#000000" font-family="sans-serif" font-size="13" font-weight="bold" lengthAdjust="spacing" textLength="9" x="1031" y="290.0278">6</text><text fill="#000000" font-family="sans-serif" font-size="13" lengthAdjust="spacing" textLength="206" x="1044" y="290.0278">lc=cs.getParameterCategories()</text><path d="M10,340.0938 L88,340.0938 L88,347.0938 L78,357.0938 L10,357.0938 L10,340.0938 " fill="#EEEEEE" style="stroke:#000000;stroke-width:1.0;"/><rect fill="none" height="75.3984" style="stroke:#000000;stroke-width:2.0;" width="543.5" x="10" y="340.0938"/><text fill="#000000" font-family="sans-serif" font-size="13" font-weight="bold" lengthAdjust="spacing" textLength="33" x="25" y="353.1606">loop</text><text fill="#000000" font-family="sans-serif" font-size="11" font-weight="bold" lengthAdjust="spacing" textLength="264" x="103" y="352.3042">[until no more categories are selected]</text><polygon fill="#A80036" points="89,374.3594,79,378.3594,89,382.3594,85,378.3594" style="stroke:#A80036;stroke-width:1.0;"/><line style="stroke:#A80036;stroke-width:1.0;stroke-dasharray:2.0,2.0;" x1="83" x2="466" y1="378.3594" y2="378.3594"/><text fill="#000000" font-family="sans-serif" font-size="13" font-weight="bold" lengthAdjust="spacing" textLength="9" x="95" y="373.2935">7</text><text fill="#000000" font-family="sans-serif" font-size="13" lengthAdjust="spacing" textLength="347" x="108" y="373.2935">shows parameter categories list and ask to select one</text><polygon fill="#A80036" points="450,403.4922,460,407.4922,450,411.4922,454,407.4922" style="stroke:#A80036;stroke-width:1.0;"/><line style="stroke:#A80036;stroke-width:1.0;" x1="78" x2="456" y1="407.4922" y2="407.4922"/><text fill="#000000" font-family="sans-serif" font-size="13" font-weight="bold" lengthAdjust="spacing" textLength="9" x="85" y="402.4263">8</text><text fill="#000000" font-family="sans-serif" font-size="13" lengthAdjust="spacing" textLength="190" x="98" y="402.4263">selects a parameter category</text><polygon fill="#A80036" points="1002,439.625,1012,443.625,1002,447.625,1006,443.625" style="stroke:#A80036;stroke-width:1.0;"/><line style="stroke:#A80036;stroke-width:1.0;" x1="472" x2="1008" y1="443.625" y2="443.625"/><text fill="#000000" font-family="sans-serif" font-size="13" font-weight="bold" lengthAdjust="spacing" textLength="9" x="479" y="438.5591">9</text><text fill="#000000" font-family="sans-serif" font-size="13" lengthAdjust="spacing" textLength="510" x="492" y="438.5591">createTestType(code, description, collectingMethod, parameterCategoryCodes)</text><path d="M902.5,458.625 L980.5,458.625 L980.5,465.625 L970.5,475.625 L902.5,475.625 L902.5,458.625 " fill="#EEEEEE" style="stroke:#000000;stroke-width:1.0;"/><rect fill="none" height="76.2656" style="stroke:#000000;stroke-width:2.0;" width="688.5" x="902.5" y="458.625"/><text fill="#000000" font-family="sans-serif" font-size="13" font-weight="bold" lengthAdjust="spacing" textLength="33" x="917.5" y="471.6919">loop</text><text fill="#000000" font-family="sans-serif" font-size="11" font-weight="bold" lengthAdjust="spacing" textLength="294" x="995.5" y="470.8354">[until get all parameter categories by code]</text><polygon fill="#A80036" points="1464,492.8906,1474,496.8906,1464,500.8906,1468,496.8906" style="stroke:#A80036;stroke-width:1.0;"/><line style="stroke:#A80036;stroke-width:1.0;" x1="1024" x2="1470" y1="496.8906" y2="496.8906"/><text fill="#000000" font-family="sans-serif" font-size="13" font-weight="bold" lengthAdjust="spacing" textLength="19" x="1031" y="491.8247">10</text><text fill="#000000" font-family="sans-serif" font-size="13" lengthAdjust="spacing" textLength="410" x="1054" y="491.8247">pc=cs.getParameterCategoryByCode(parameterCategoryCode)</text><polygon fill="#A80036" points="1260,559.0234,1270,563.0234,1260,567.0234,1264,563.0234" style="stroke:#A80036;stroke-width:1.0;"/><line style="stroke:#A80036;stroke-width:1.0;" x1="1024" x2="1266" y1="563.0234" y2="563.0234"/><text fill="#000000" font-family="sans-serif" font-size="13" font-weight="bold" lengthAdjust="spacing" textLength="18" x="1031" y="557.9575">11</text><text fill="#000000" font-family="sans-serif" font-size="13" lengthAdjust="spacing" textLength="147" x="1053" y="557.9575">ts=getTestTypeStore()</text><polygon fill="#A80036" points="1637,618.1563,1647,622.1563,1637,626.1563,1641,622.1563" style="stroke:#A80036;stroke-width:1.0;"/><line style="stroke:#A80036;stroke-width:1.0;" x1="1024" x2="1643" y1="622.1563" y2="622.1563"/><text fill="#000000" font-family="sans-serif" font-size="13" font-weight="bold" lengthAdjust="spacing" textLength="18" x="1031" y="617.0903">12</text><text fill="#000000" font-family="sans-serif" font-size="13" lengthAdjust="spacing" textLength="516" x="1053" y="617.0903">tt=ts.createTestType(code, description, collectingMethod, parameterCategories)</text><polygon fill="#A80036" points="2112,647.2891,2122,651.2891,2112,655.2891,2116,651.2891" style="stroke:#A80036;stroke-width:1.0;"/><line style="stroke:#A80036;stroke-width:1.0;" x1="1654" x2="2118" y1="651.2891" y2="651.2891"/><text fill="#000000" font-family="sans-serif" font-size="13" font-weight="bold" lengthAdjust="spacing" textLength="17" x="1661" y="646.2231">13</text><text fill="#000000" font-family="sans-serif" font-size="13" lengthAdjust="spacing" textLength="420" x="1682" y="646.2231">create(code, description, collectingMethod, parameterCategories)</text><rect fill="#FEFECE" filter="url(#f1a0hfgi6dc2y1)" height="46.5938" style="stroke:#A80036;stroke-width:1.5;" width="86" x="2124" y="630.1563"/><text fill="#000000" font-family="sans-serif" font-size="14" lengthAdjust="spacing" textLength="19" x="2157.5" y="650.1514">tt:</text><text fill="#000000" font-family="sans-serif" font-size="14" lengthAdjust="spacing" textLength="72" x="2131" y="666.4482">Test Type</text><polygon fill="#A80036" points="1637,708.8828,1647,712.8828,1637,716.8828,1641,712.8828" style="stroke:#A80036;stroke-width:1.0;"/><line style="stroke:#A80036;stroke-width:1.0;" x1="1024" x2="1643" y1="712.8828" y2="712.8828"/><text fill="#000000" font-family="sans-serif" font-size="13" font-weight="bold" lengthAdjust="spacing" textLength="18" x="1031" y="707.8169">14</text><text fill="#000000" font-family="sans-serif" font-size="13" lengthAdjust="spacing" textLength="131" x="1053" y="707.8169">validateTestType(tt)</text><polygon fill="#A80036" points="483,768.0156,473,772.0156,483,776.0156,479,772.0156" style="stroke:#A80036;stroke-width:1.0;"/><line style="stroke:#A80036;stroke-width:1.0;stroke-dasharray:2.0,2.0;" x1="477" x2="1018" y1="772.0156" y2="772.0156"/><text fill="#000000" font-family="sans-serif" font-size="13" font-weight="bold" lengthAdjust="spacing" textLength="18" x="489" y="766.9497">15</text><text fill="#000000" font-family="sans-serif" font-size="13" lengthAdjust="spacing" textLength="36" x="511" y="766.9497">result</text><polygon fill="#A80036" points="89,797.1484,79,801.1484,89,805.1484,85,801.1484" style="stroke:#A80036;stroke-width:1.0;"/><line style="stroke:#A80036;stroke-width:1.0;stroke-dasharray:2.0,2.0;" x1="83" x2="466" y1="801.1484" y2="801.1484"/><text fill="#000000" font-family="sans-serif" font-size="13" font-weight="bold" lengthAdjust="spacing" textLength="18" x="95" y="796.0825">16</text><text fill="#000000" font-family="sans-serif" font-size="13" lengthAdjust="spacing" textLength="295" x="117" y="796.0825">shows all the data and request a confirmation</text><polygon fill="#A80036" points="450,826.2813,460,830.2813,450,834.2813,454,830.2813" style="stroke:#A80036;stroke-width:1.0;"/><line style="stroke:#A80036;stroke-width:1.0;" x1="78" x2="456" y1="830.2813" y2="830.2813"/><text fill="#000000" font-family="sans-serif" font-size="13" font-weight="bold" lengthAdjust="spacing" textLength="18" x="85" y="825.2153">17</text><text fill="#000000" font-family="sans-serif" font-size="13" lengthAdjust="spacing" textLength="114" x="107" y="825.2153">confirms the data</text><polygon fill="#A80036" points="1002,855.4141,1012,859.4141,1002,863.4141,1006,859.4141" style="stroke:#A80036;stroke-width:1.0;"/><line style="stroke:#A80036;stroke-width:1.0;" x1="472" x2="1008" y1="859.4141" y2="859.4141"/><text fill="#000000" font-family="sans-serif" font-size="13" font-weight="bold" lengthAdjust="spacing" textLength="18" x="479" y="854.3481">18</text><text fill="#000000" font-family="sans-serif" font-size="13" lengthAdjust="spacing" textLength="101" x="501" y="854.3481">saveTestType()</text><polygon fill="#A80036" points="1637,884.5469,1647,888.5469,1637,892.5469,1641,888.5469" style="stroke:#A80036;stroke-width:1.0;"/><line style="stroke:#A80036;stroke-width:1.0;" x1="1024" x2="1643" y1="888.5469" y2="888.5469"/><text fill="#000000" font-family="sans-serif" font-size="13" font-weight="bold" lengthAdjust="spacing" textLength="18" x="1031" y="883.481">19</text><text fill="#000000" font-family="sans-serif" font-size="13" lengthAdjust="spacing" textLength="127" x="1053" y="883.481">ts.saveTestType(tt)</text><line style="stroke:#A80036;stroke-width:1.0;" x1="1659" x2="1701" y1="917.6797" y2="917.6797"/><line style="stroke:#A80036;stroke-width:1.0;" x1="1701" x2="1701" y1="917.6797" y2="930.6797"/><line style="stroke:#A80036;stroke-width:1.0;" x1="1660" x2="1701" y1="930.6797" y2="930.6797"/><polygon fill="#A80036" points="1670,926.6797,1660,930.6797,1670,934.6797,1666,930.6797" style="stroke:#A80036;stroke-width:1.0;"/><text fill="#000000" font-family="sans-serif" font-size="13" font-weight="bold" lengthAdjust="spacing" textLength="19" x="1666" y="912.6138">20</text><text fill="#000000" font-family="sans-serif" font-size="13" lengthAdjust="spacing" textLength="131" x="1689" y="912.6138">validateTestType(tt)</text><line style="stroke:#A80036;stroke-width:1.0;" x1="1659" x2="1701" y1="959.8125" y2="959.8125"/><line style="stroke:#A80036;stroke-width:1.0;" x1="1701" x2="1701" y1="959.8125" y2="972.8125"/><line style="stroke:#A80036;stroke-width:1.0;" x1="1660" x2="1701" y1="972.8125" y2="972.8125"/><polygon fill="#A80036" points="1670,968.8125,1660,972.8125,1670,976.8125,1666,972.8125" style="stroke:#A80036;stroke-width:1.0;"/><text fill="#000000" font-family="sans-serif" font-size="13" font-weight="bold" lengthAdjust="spacing" textLength="18" x="1666" y="954.7466">21</text><text fill="#000000" font-family="sans-serif" font-size="13" lengthAdjust="spacing" textLength="104" x="1688" y="954.7466">addTestType(tt)</text><polygon fill="#A80036" points="84,997.9453,74,1001.9453,84,1005.9453,80,1001.9453" style="stroke:#A80036;stroke-width:1.0;"/><line style="stroke:#A80036;stroke-width:1.0;stroke-dasharray:2.0,2.0;" x1="78" x2="466" y1="1001.9453" y2="1001.9453"/><text fill="#000000" font-family="sans-serif" font-size="13" font-weight="bold" lengthAdjust="spacing" textLength="18" x="90" y="996.8794">22</text><text fill="#000000" font-family="sans-serif" font-size="13" lengthAdjust="spacing" textLength="169" x="112" y="996.8794">informs operation success</text><!--MD5=[cb820579a78e5b4689bb1186351d649a]
@startuml
autonumber
actor "Administrator" as ADMIN

participant ":CreateTestTypeUI" as UI
participant ":CreateTestTypeController" as CTRL
participant ":Company" as CMP
participant "pcStore:\nParameterCategoryStore" as pcStore
participant "ttStore:\nTestTypeStore" as ttStore
participant "tt:\nTest Type" as TET
participant "pc:\nParameterCategory" as pc
participant "lc:\nList<ParameterCategory>" as lc

activate ADMIN
ADMIN -> UI : starts new type of test
activate UI
UI - -> ADMIN : request data(i.e., code, description, collectingMethod)
deactivate UI

ADMIN -> UI : types requested data
activate UI
UI -> CTRL : lc=getParameterCategories()
activate CTRL
CTRL -> CMP : cs=getParameterCategoryStore()
activate CMP	
deactivate CMP
CTRL -> pcStore : lc=cs.getParameterCategories()
activate pcStore
deactivate pcStore
deactivate CTRL
loop until no more categories are selected
	UI - -> ADMIN : shows parameter categories list and ask to select one
	deactivate UI
	ADMIN -> UI : selects a parameter category
	activate UI
end
UI -> CTRL: createTestType(code, description, collectingMethod, parameterCategoryCodes)
activate CTRL
loop until get all parameter categories by code
        CTRL -> pcStore : pc=cs.getParameterCategoryByCode(parameterCategoryCode)
        activate pcStore
        deactivate pcStore
end
CTRL -> CMP : ts=getTestTypeStore()
activate CMP
deactivate CMP
CTRL -> ttStore: tt=ts.createTestType(code, description, collectingMethod, parameterCategories)
activate ttStore
ttStore -> TET** : create(code, description, collectingMethod, parameterCategories)
deactivate ttStore
CTRL -> ttStore : validateTestType(tt)
activate ttStore
deactivate ttStore
CTRL - ->  UI : result
deactivate ttStore
deactivate CMP
deactivate CTRL
UI - -> ADMIN : shows all the data and request a confirmation
deactivate UI

ADMIN -> UI : confirms the data
activate UI
UI -> CTRL : saveTestType()
activate CTRL
CTRL -> ttStore : ts.saveTestType(tt)
activate ttStore
ttStore -> ttStore : validateTestType(tt)
ttStore -> ttStore : addTestType(tt)
UI - -> ADMIN : informs operation success
deactivate ttStore
deactivate CTRL
deactivate UI

deactivate ADMIN
@enduml

PlantUML version 1.2021.6beta2(Unknown compile time)
(GPL source distribution)
Java Runtime: Java(TM) SE Runtime Environment
JVM: Java HotSpot(TM) 64-Bit Server VM
Default Encoding: UTF-8
Language: en
Country: US
--></g></svg>