<?xml version="1.0" encoding="UTF-8" standalone="no"?>
<svg xmlns="http://www.w3.org/2000/svg" xmlns:xlink="http://www.w3.org/1999/xlink" contentScriptType="application/ecmascript" contentStyleType="text/css" height="948px" preserveAspectRatio="none" style="width:695px;height:948px;" version="1.1" viewBox="0 0 695 948" width="695px" zoomAndPan="magnify"><defs><filter height="300%" id="f1is2z6h25as5w" width="300%" x="-1" y="-1"><feGaussianBlur result="blurOut" stdDeviation="2.0"/><feColorMatrix in="blurOut" result="blurOut2" type="matrix" values="0 0 0 0 0 0 0 0 0 0 0 0 0 0 0 0 0 0 .4 0"/><feOffset dx="4.0" dy="4.0" in="blurOut2" result="blurOut3"/><feBlend in="SourceGraphic" in2="blurOut3" mode="normal"/></filter></defs><g><!--MD5=[02e4b9b7573f1156f41e60aa5b4e25a4]
class Company--><rect codeLine="3" fill="#FEFECE" filter="url(#f1is2z6h25as5w)" height="86.4141" id="Company" style="stroke:#A80036;stroke-width:1.5;" width="190" x="344.5" y="263"/><ellipse cx="407.25" cy="279" fill="#ADD1B2" rx="11" ry="11" style="stroke:#A80036;stroke-width:1.0;"/><path d="M409.5938,274.6719 C408.6563,274.2344 408.0625,274.0938 407.1875,274.0938 C404.5625,274.0938 402.5625,276.1719 402.5625,278.8906 L402.5625,280.0156 C402.5625,282.5938 404.6719,284.4844 407.5625,284.4844 C408.7813,284.4844 409.9375,284.1875 410.6875,283.6406 C411.2656,283.2344 411.5938,282.7813 411.5938,282.3906 C411.5938,281.9375 411.2031,281.5469 410.7344,281.5469 C410.5156,281.5469 410.3125,281.625 410.125,281.8125 C409.6719,282.2969 409.6719,282.2969 409.4844,282.3906 C409.0625,282.6563 408.375,282.7813 407.6094,282.7813 C405.5625,282.7813 404.2656,281.6875 404.2656,279.9844 L404.2656,278.8906 C404.2656,277.1094 405.5156,275.7969 407.25,275.7969 C407.8281,275.7969 408.4375,275.9531 408.9063,276.2031 C409.3906,276.4844 409.5625,276.7031 409.6563,277.1094 C409.7188,277.5156 409.75,277.6406 409.8906,277.7656 C410.0313,277.9063 410.2656,278.0156 410.4844,278.0156 C410.75,278.0156 411.0156,277.875 411.1875,277.6563 C411.2969,277.5 411.3281,277.3125 411.3281,276.8906 L411.3281,275.4688 C411.3281,275.0313 411.3125,274.9063 411.2188,274.75 C411.0625,274.4844 410.7813,274.3438 410.4844,274.3438 C410.1875,274.3438 409.9844,274.4375 409.7656,274.75 L409.5938,274.6719 Z " fill="#000000"/><text fill="#000000" font-family="sans-serif" font-size="12" lengthAdjust="spacing" textLength="56" x="427.75" y="283.1543">Company</text><line style="stroke:#A80036;stroke-width:1.5;" x1="345.5" x2="533.5" y1="295" y2="295"/><text fill="#000000" font-family="sans-serif" font-size="11" lengthAdjust="spacing" textLength="107" x="350.5" y="309.2104">-String designation</text><line style="stroke:#A80036;stroke-width:1.5;" x1="345.5" x2="533.5" y1="315.8047" y2="315.8047"/><text fill="#000000" font-family="sans-serif" font-size="11" lengthAdjust="spacing" textLength="178" x="350.5" y="330.0151">+getParameterCategoryStore()</text><text fill="#000000" font-family="sans-serif" font-size="11" lengthAdjust="spacing" textLength="121" x="350.5" y="342.8198">+getTestTypeStore()</text><!--MD5=[6ba72ddf03822b91e8d41ca71de58ed3]
class TestTypeStore--><rect codeLine="10" fill="#FEFECE" filter="url(#f1is2z6h25as5w)" height="99.2188" id="TestTypeStore" style="stroke:#A80036;stroke-width:1.5;" width="449" x="7" y="426"/><ellipse cx="182.75" cy="442" fill="#ADD1B2" rx="11" ry="11" style="stroke:#A80036;stroke-width:1.0;"/><path d="M185.0938,437.6719 C184.1563,437.2344 183.5625,437.0938 182.6875,437.0938 C180.0625,437.0938 178.0625,439.1719 178.0625,441.8906 L178.0625,443.0156 C178.0625,445.5938 180.1719,447.4844 183.0625,447.4844 C184.2813,447.4844 185.4375,447.1875 186.1875,446.6406 C186.7656,446.2344 187.0938,445.7813 187.0938,445.3906 C187.0938,444.9375 186.7031,444.5469 186.2344,444.5469 C186.0156,444.5469 185.8125,444.625 185.625,444.8125 C185.1719,445.2969 185.1719,445.2969 184.9844,445.3906 C184.5625,445.6563 183.875,445.7813 183.1094,445.7813 C181.0625,445.7813 179.7656,444.6875 179.7656,442.9844 L179.7656,441.8906 C179.7656,440.1094 181.0156,438.7969 182.75,438.7969 C183.3281,438.7969 183.9375,438.9531 184.4063,439.2031 C184.8906,439.4844 185.0625,439.7031 185.1563,440.1094 C185.2188,440.5156 185.25,440.6406 185.3906,440.7656 C185.5313,440.9063 185.7656,441.0156 185.9844,441.0156 C186.25,441.0156 186.5156,440.875 186.6875,440.6563 C186.7969,440.5 186.8281,440.3125 186.8281,439.8906 L186.8281,438.4688 C186.8281,438.0313 186.8125,437.9063 186.7188,437.75 C186.5625,437.4844 186.2813,437.3438 185.9844,437.3438 C185.6875,437.3438 185.4844,437.4375 185.2656,437.75 L185.0938,437.6719 Z " fill="#000000"/><text fill="#000000" font-family="sans-serif" font-size="12" lengthAdjust="spacing" textLength="89" x="203.25" y="446.1543">TestTypeStore</text><line style="stroke:#A80036;stroke-width:1.5;" x1="8" x2="455" y1="458" y2="458"/><line style="stroke:#A80036;stroke-width:1.5;" x1="8" x2="455" y1="466" y2="466"/><text fill="#000000" font-family="sans-serif" font-size="11" lengthAdjust="spacing" textLength="437" x="13" y="480.2104">+createTestType(code, description, collectingMethod, parameterCategories)</text><text fill="#000000" font-family="sans-serif" font-size="11" lengthAdjust="spacing" textLength="125" x="13" y="493.0151">+validateTestType(tt)</text><text fill="#000000" font-family="sans-serif" font-size="11" lengthAdjust="spacing" textLength="107" x="13" y="505.8198">+saveTestType(tt)</text><text fill="#000000" font-family="sans-serif" font-size="11" lengthAdjust="spacing" textLength="95" x="13" y="518.6245">-addTestType(tt)</text><!--MD5=[d802db621b5b215a6f0466f93cefcb42]
class ParameterCategoryStore--><rect codeLine="17" fill="#FEFECE" filter="url(#f1is2z6h25as5w)" height="73.6094" id="ParameterCategoryStore" style="stroke:#A80036;stroke-width:1.5;" width="346" x="335.5" y="555"/><ellipse cx="429.75" cy="571" fill="#ADD1B2" rx="11" ry="11" style="stroke:#A80036;stroke-width:1.0;"/><path d="M432.0938,566.6719 C431.1563,566.2344 430.5625,566.0938 429.6875,566.0938 C427.0625,566.0938 425.0625,568.1719 425.0625,570.8906 L425.0625,572.0156 C425.0625,574.5938 427.1719,576.4844 430.0625,576.4844 C431.2813,576.4844 432.4375,576.1875 433.1875,575.6406 C433.7656,575.2344 434.0938,574.7813 434.0938,574.3906 C434.0938,573.9375 433.7031,573.5469 433.2344,573.5469 C433.0156,573.5469 432.8125,573.625 432.625,573.8125 C432.1719,574.2969 432.1719,574.2969 431.9844,574.3906 C431.5625,574.6563 430.875,574.7813 430.1094,574.7813 C428.0625,574.7813 426.7656,573.6875 426.7656,571.9844 L426.7656,570.8906 C426.7656,569.1094 428.0156,567.7969 429.75,567.7969 C430.3281,567.7969 430.9375,567.9531 431.4063,568.2031 C431.8906,568.4844 432.0625,568.7031 432.1563,569.1094 C432.2188,569.5156 432.25,569.6406 432.3906,569.7656 C432.5313,569.9063 432.7656,570.0156 432.9844,570.0156 C433.25,570.0156 433.5156,569.875 433.6875,569.6563 C433.7969,569.5 433.8281,569.3125 433.8281,568.8906 L433.8281,567.4688 C433.8281,567.0313 433.8125,566.9063 433.7188,566.75 C433.5625,566.4844 433.2813,566.3438 432.9844,566.3438 C432.6875,566.3438 432.4844,566.4375 432.2656,566.75 L432.0938,566.6719 Z " fill="#000000"/><text fill="#000000" font-family="sans-serif" font-size="12" lengthAdjust="spacing" textLength="149" x="450.25" y="575.1543">ParameterCategoryStore</text><line style="stroke:#A80036;stroke-width:1.5;" x1="336.5" x2="680.5" y1="587" y2="587"/><line style="stroke:#A80036;stroke-width:1.5;" x1="336.5" x2="680.5" y1="595" y2="595"/><text fill="#000000" font-family="sans-serif" font-size="11" lengthAdjust="spacing" textLength="157" x="341.5" y="609.2104">+getParameterCategories()</text><text fill="#000000" font-family="sans-serif" font-size="11" lengthAdjust="spacing" textLength="334" x="341.5" y="622.0151">+getParameterCategoryByCode(parameterCategoryCode)</text><!--MD5=[aeb3272166074d8737a70b61b1e71682]
class TestType--><rect codeLine="22" fill="#FEFECE" filter="url(#f1is2z6h25as5w)" height="112.0234" id="TestType" style="stroke:#A80036;stroke-width:1.5;" width="412" x="26.5" y="659"/><ellipse cx="200.25" cy="675" fill="#ADD1B2" rx="11" ry="11" style="stroke:#A80036;stroke-width:1.0;"/><path d="M202.5937,670.6719 C201.6562,670.2344 201.0625,670.0938 200.1875,670.0938 C197.5625,670.0938 195.5625,672.1719 195.5625,674.8906 L195.5625,676.0156 C195.5625,678.5938 197.6719,680.4844 200.5625,680.4844 C201.7812,680.4844 202.9375,680.1875 203.6875,679.6406 C204.2656,679.2344 204.5937,678.7813 204.5937,678.3906 C204.5937,677.9375 204.2031,677.5469 203.7344,677.5469 C203.5156,677.5469 203.3125,677.625 203.125,677.8125 C202.6719,678.2969 202.6719,678.2969 202.4844,678.3906 C202.0625,678.6563 201.375,678.7813 200.6094,678.7813 C198.5625,678.7813 197.2656,677.6875 197.2656,675.9844 L197.2656,674.8906 C197.2656,673.1094 198.5156,671.7969 200.25,671.7969 C200.8281,671.7969 201.4375,671.9531 201.9062,672.2031 C202.3906,672.4844 202.5625,672.7031 202.6562,673.1094 C202.7187,673.5156 202.75,673.6406 202.8906,673.7656 C203.0312,673.9063 203.2656,674.0156 203.4844,674.0156 C203.75,674.0156 204.0156,673.875 204.1875,673.6563 C204.2969,673.5 204.3281,673.3125 204.3281,672.8906 L204.3281,671.4688 C204.3281,671.0313 204.3125,670.9063 204.2187,670.75 C204.0625,670.4844 203.7812,670.3438 203.4844,670.3438 C203.1875,670.3438 202.9844,670.4375 202.7656,670.75 L202.5937,670.6719 Z " fill="#000000"/><text fill="#000000" font-family="sans-serif" font-size="12" lengthAdjust="spacing" textLength="56" x="220.75" y="679.1543">TestType</text><line style="stroke:#A80036;stroke-width:1.5;" x1="27.5" x2="437.5" y1="691" y2="691"/><text fill="#000000" font-family="sans-serif" font-size="11" lengthAdjust="spacing" textLength="69" x="32.5" y="705.2104">-String code</text><text fill="#000000" font-family="sans-serif" font-size="11" lengthAdjust="spacing" textLength="103" x="32.5" y="718.0151">-String description</text><text fill="#000000" font-family="sans-serif" font-size="11" lengthAdjust="spacing" textLength="137" x="32.5" y="730.8198">-String collectingMethod</text><text fill="#000000" font-family="sans-serif" font-size="11" lengthAdjust="spacing" textLength="278" x="32.5" y="743.6245">-List&lt;ParameterCategory&gt; parameterCategories</text><line style="stroke:#A80036;stroke-width:1.5;" x1="27.5" x2="437.5" y1="750.2188" y2="750.2188"/><text fill="#000000" font-family="sans-serif" font-size="11" lengthAdjust="spacing" textLength="400" x="32.5" y="764.4292">+TestType(code, description, collectingMethod, parameterCategories)</text><!--MD5=[36afb6bbd95a8ac778c4537c55a683d5]
class ParameterCategory--><rect codeLine="30" fill="#FEFECE" filter="url(#f1is2z6h25as5w)" height="86.4141" id="ParameterCategory" style="stroke:#A80036;stroke-width:1.5;" width="208" x="321.5" y="848"/><ellipse cx="363.5" cy="864" fill="#ADD1B2" rx="11" ry="11" style="stroke:#A80036;stroke-width:1.0;"/><path d="M365.8438,859.6719 C364.9063,859.2344 364.3125,859.0938 363.4375,859.0938 C360.8125,859.0938 358.8125,861.1719 358.8125,863.8906 L358.8125,865.0156 C358.8125,867.5938 360.9219,869.4844 363.8125,869.4844 C365.0313,869.4844 366.1875,869.1875 366.9375,868.6406 C367.5156,868.2344 367.8438,867.7813 367.8438,867.3906 C367.8438,866.9375 367.4531,866.5469 366.9844,866.5469 C366.7656,866.5469 366.5625,866.625 366.375,866.8125 C365.9219,867.2969 365.9219,867.2969 365.7344,867.3906 C365.3125,867.6563 364.625,867.7813 363.8594,867.7813 C361.8125,867.7813 360.5156,866.6875 360.5156,864.9844 L360.5156,863.8906 C360.5156,862.1094 361.7656,860.7969 363.5,860.7969 C364.0781,860.7969 364.6875,860.9531 365.1563,861.2031 C365.6406,861.4844 365.8125,861.7031 365.9063,862.1094 C365.9688,862.5156 366,862.6406 366.1406,862.7656 C366.2813,862.9063 366.5156,863.0156 366.7344,863.0156 C367,863.0156 367.2656,862.875 367.4375,862.6563 C367.5469,862.5 367.5781,862.3125 367.5781,861.8906 L367.5781,860.4688 C367.5781,860.0313 367.5625,859.9063 367.4688,859.75 C367.3125,859.4844 367.0313,859.3438 366.7344,859.3438 C366.4375,859.3438 366.2344,859.4375 366.0156,859.75 L365.8438,859.6719 Z " fill="#000000"/><text fill="#000000" font-family="sans-serif" font-size="12" lengthAdjust="spacing" textLength="116" x="383.5" y="868.1543">ParameterCategory</text><line style="stroke:#A80036;stroke-width:1.5;" x1="322.5" x2="528.5" y1="880" y2="880"/><text fill="#000000" font-family="sans-serif" font-size="11" lengthAdjust="spacing" textLength="69" x="327.5" y="894.2104">-String code</text><text fill="#000000" font-family="sans-serif" font-size="11" lengthAdjust="spacing" textLength="74" x="327.5" y="907.0151">-String name</text><line style="stroke:#A80036;stroke-width:1.5;" x1="322.5" x2="528.5" y1="913.6094" y2="913.6094"/><text fill="#000000" font-family="sans-serif" font-size="11" lengthAdjust="spacing" textLength="196" x="327.5" y="927.8198">+ParameterCategory(code, name)</text><!--MD5=[bebdcc43ebcb1534ee764d1f430c03ae]
class CreateTestTypeUI--><rect codeLine="36" fill="#FEFECE" filter="url(#f1is2z6h25as5w)" height="48" id="CreateTestTypeUI" style="stroke:#A80036;stroke-width:1.5;" width="140" x="369.5" y="7"/><ellipse cx="384.5" cy="23" fill="#ADD1B2" rx="11" ry="11" style="stroke:#A80036;stroke-width:1.0;"/><path d="M386.8438,18.6719 C385.9063,18.2344 385.3125,18.0938 384.4375,18.0938 C381.8125,18.0938 379.8125,20.1719 379.8125,22.8906 L379.8125,24.0156 C379.8125,26.5938 381.9219,28.4844 384.8125,28.4844 C386.0313,28.4844 387.1875,28.1875 387.9375,27.6406 C388.5156,27.2344 388.8438,26.7813 388.8438,26.3906 C388.8438,25.9375 388.4531,25.5469 387.9844,25.5469 C387.7656,25.5469 387.5625,25.625 387.375,25.8125 C386.9219,26.2969 386.9219,26.2969 386.7344,26.3906 C386.3125,26.6563 385.625,26.7813 384.8594,26.7813 C382.8125,26.7813 381.5156,25.6875 381.5156,23.9844 L381.5156,22.8906 C381.5156,21.1094 382.7656,19.7969 384.5,19.7969 C385.0781,19.7969 385.6875,19.9531 386.1563,20.2031 C386.6406,20.4844 386.8125,20.7031 386.9063,21.1094 C386.9688,21.5156 387,21.6406 387.1406,21.7656 C387.2813,21.9063 387.5156,22.0156 387.7344,22.0156 C388,22.0156 388.2656,21.875 388.4375,21.6563 C388.5469,21.5 388.5781,21.3125 388.5781,20.8906 L388.5781,19.4688 C388.5781,19.0313 388.5625,18.9063 388.4688,18.75 C388.3125,18.4844 388.0313,18.3438 387.7344,18.3438 C387.4375,18.3438 387.2344,18.4375 387.0156,18.75 L386.8438,18.6719 Z " fill="#000000"/><text fill="#000000" font-family="sans-serif" font-size="12" lengthAdjust="spacing" textLength="108" x="398.5" y="27.1543">CreateTestTypeUI</text><line style="stroke:#A80036;stroke-width:1.5;" x1="370.5" x2="508.5" y1="39" y2="39"/><line style="stroke:#A80036;stroke-width:1.5;" x1="370.5" x2="508.5" y1="47" y2="47"/><!--MD5=[2c845ebea24388d268f5a9acbeca4fd9]
class CreateTestTypeController--><rect codeLine="39" fill="#FEFECE" filter="url(#f1is2z6h25as5w)" height="86.4141" id="CreateTestTypeController" style="stroke:#A80036;stroke-width:1.5;" width="475" x="202" y="116"/><ellipse cx="357.75" cy="132" fill="#ADD1B2" rx="11" ry="11" style="stroke:#A80036;stroke-width:1.0;"/><path d="M360.0938,127.6719 C359.1563,127.2344 358.5625,127.0938 357.6875,127.0938 C355.0625,127.0938 353.0625,129.1719 353.0625,131.8906 L353.0625,133.0156 C353.0625,135.5938 355.1719,137.4844 358.0625,137.4844 C359.2813,137.4844 360.4375,137.1875 361.1875,136.6406 C361.7656,136.2344 362.0938,135.7813 362.0938,135.3906 C362.0938,134.9375 361.7031,134.5469 361.2344,134.5469 C361.0156,134.5469 360.8125,134.625 360.625,134.8125 C360.1719,135.2969 360.1719,135.2969 359.9844,135.3906 C359.5625,135.6563 358.875,135.7813 358.1094,135.7813 C356.0625,135.7813 354.7656,134.6875 354.7656,132.9844 L354.7656,131.8906 C354.7656,130.1094 356.0156,128.7969 357.75,128.7969 C358.3281,128.7969 358.9375,128.9531 359.4063,129.2031 C359.8906,129.4844 360.0625,129.7031 360.1563,130.1094 C360.2188,130.5156 360.25,130.6406 360.3906,130.7656 C360.5313,130.9063 360.7656,131.0156 360.9844,131.0156 C361.25,131.0156 361.5156,130.875 361.6875,130.6563 C361.7969,130.5 361.8281,130.3125 361.8281,129.8906 L361.8281,128.4688 C361.8281,128.0313 361.8125,127.9063 361.7188,127.75 C361.5625,127.4844 361.2813,127.3438 360.9844,127.3438 C360.6875,127.3438 360.4844,127.4375 360.2656,127.75 L360.0938,127.6719 Z " fill="#000000"/><text fill="#000000" font-family="sans-serif" font-size="12" lengthAdjust="spacing" textLength="155" x="378.25" y="136.1543">CreateTestTypeController</text><line style="stroke:#A80036;stroke-width:1.5;" x1="203" x2="676" y1="148" y2="148"/><line style="stroke:#A80036;stroke-width:1.5;" x1="203" x2="676" y1="156" y2="156"/><text fill="#000000" font-family="sans-serif" font-size="11" lengthAdjust="spacing" textLength="157" x="208" y="170.2104">+getParameterCategories()</text><text fill="#000000" font-family="sans-serif" font-size="11" lengthAdjust="spacing" textLength="463" x="208" y="183.0151">+createTestType(code, description, collectingMethod, parameterCategoryCodes)</text><text fill="#000000" font-family="sans-serif" font-size="11" lengthAdjust="spacing" textLength="99" x="208" y="195.8198">+saveTestType()</text><!--MD5=[69134a8957932d955e1f822b15ec4b1c]
link CreateTestTypeUI to CreateTestTypeController--><path codeLine="45" d="M439.5,55.11 C439.5,70.631 439.5,91.639 439.5,110.625 " fill="none" id="CreateTestTypeUI-to-CreateTestTypeController" style="stroke:#A80036;stroke-width:1.0;stroke-dasharray:7.0,7.0;"/><polygon fill="#A80036" points="439.5,115.921,443.5,106.921,439.5,110.921,435.5,106.921,439.5,115.921" style="stroke:#A80036;stroke-width:1.0;"/><!--MD5=[812ef8251b528d1a64980212cceda9f5]
link CreateTestTypeController to Company--><path codeLine="46" d="M439.5,202.33 C439.5,219.602 439.5,239.654 439.5,257.43 " fill="none" id="CreateTestTypeController-to-Company" style="stroke:#A80036;stroke-width:1.0;stroke-dasharray:7.0,7.0;"/><polygon fill="#A80036" points="439.5,262.868,443.5,253.868,439.5,257.868,435.5,253.868,439.5,262.868" style="stroke:#A80036;stroke-width:1.0;"/><!--MD5=[141c3afa12b2b3c0a39ffce56dbd5f19]
link Company to TestTypeStore--><path codeLine="47" d="M387.281,349.051 C359.526,371.402 325.164,399.073 295.78,422.736 " fill="none" id="Company-to-TestTypeStore" style="stroke:#A80036;stroke-width:1.0;"/><polygon fill="#A80036" points="291.854,425.898,301.3721,423.3669,295.7477,422.7613,296.3534,417.137,291.854,425.898" style="stroke:#A80036;stroke-width:1.0;"/><text fill="#000000" font-family="sans-serif" font-size="13" lengthAdjust="spacing" textLength="30" x="349.5" y="392.0669">uses</text><text fill="#000000" font-family="sans-serif" font-size="13" lengthAdjust="spacing" textLength="8" x="369.9697" y="369.4671">1</text><text fill="#000000" font-family="sans-serif" font-size="13" lengthAdjust="spacing" textLength="8" x="291.7788" y="414.9289">1</text><!--MD5=[d53d7490e5836ca5709858d7326f212b]
link Company to ParameterCategoryStore--><path codeLine="48" d="M452.333,349.217 C459.026,371.879 467.124,400.352 473.5,426 C483.894,467.811 493.902,516.063 500.534,549.542 " fill="none" id="Company-to-ParameterCategoryStore" style="stroke:#A80036;stroke-width:1.0;"/><polygon fill="#A80036" points="501.568,554.785,503.749,545.1807,500.5995,549.8797,495.9005,546.7302,501.568,554.785" style="stroke:#A80036;stroke-width:1.0;"/><text fill="#000000" font-family="sans-serif" font-size="13" lengthAdjust="spacing" textLength="30" x="467.5" y="392.0669">uses</text><text fill="#000000" font-family="sans-serif" font-size="13" lengthAdjust="spacing" textLength="8" x="445.7408" y="369.3445">1</text><text fill="#000000" font-family="sans-serif" font-size="13" lengthAdjust="spacing" textLength="8" x="491.6207" y="543.9337">1</text><!--MD5=[3eebf0e5f359806b77b30e9524c37676]
link TestTypeStore to TestType--><path codeLine="49" d="M231.705,525.135 C231.861,562.28 232.078,613.686 232.245,653.489 " fill="none" id="TestTypeStore-to-TestType" style="stroke:#A80036;stroke-width:1.0;"/><polygon fill="#A80036" points="232.267,658.778,236.231,649.7621,232.247,653.778,228.231,649.7941,232.267,658.778" style="stroke:#A80036;stroke-width:1.0;"/><text fill="#000000" font-family="sans-serif" font-size="13" lengthAdjust="spacing" textLength="58" x="233.5" y="596.5669">conducts</text><text fill="#000000" font-family="sans-serif" font-size="13" lengthAdjust="spacing" textLength="8" x="223.1713" y="545.2305">1</text><text fill="#000000" font-family="sans-serif" font-size="13" lengthAdjust="spacing" textLength="7" x="224.812" y="648.0854">*</text><!--MD5=[d6274e3b73b5bc8f467c6cfbf5bf003e]
link ParameterCategoryStore to ParameterCategory--><path codeLine="50" d="M498.406,629.121 C483.404,682.801 455.217,783.662 438.63,843.0175 " fill="none" id="ParameterCategoryStore-to-ParameterCategory" style="stroke:#A80036;stroke-width:1.0;"/><polygon fill="#A80036" points="437.259,847.923,443.5336,840.3316,438.6047,843.1075,435.8288,838.1785,437.259,847.923" style="stroke:#A80036;stroke-width:1.0;"/><text fill="#000000" font-family="sans-serif" font-size="13" lengthAdjust="spacing" textLength="44" x="490.5" y="719.5669">adopts</text><text fill="#000000" font-family="sans-serif" font-size="13" lengthAdjust="spacing" textLength="8" x="488.0717" y="648.6216">1</text><text fill="#000000" font-family="sans-serif" font-size="13" lengthAdjust="spacing" textLength="8" x="430.4956" y="836.9068">1</text><!--MD5=[8aaf0efd5e2f3824be7ea3e488dcc283]
link TestType to ParameterCategory--><path codeLine="51" d="M293.566,771.055 C319.773,794.682 350.029,821.959 374.951,844.427 " fill="none" id="TestType-to-ParameterCategory" style="stroke:#A80036;stroke-width:1.0;"/><polygon fill="#A80036" points="378.903,847.9904,374.8958,838.9936,375.189,844.6429,369.5397,844.936,378.903,847.9904" style="stroke:#A80036;stroke-width:1.0;"/><text fill="#000000" font-family="sans-serif" font-size="13" lengthAdjust="spacing" textLength="32" x="342.5" y="814.0669">have</text><text fill="#000000" font-family="sans-serif" font-size="13" lengthAdjust="spacing" textLength="7" x="293.9416" y="791.2719">*</text><text fill="#000000" font-family="sans-serif" font-size="13" lengthAdjust="spacing" textLength="23" x="346.6438" y="836.9845">1..*</text><!--MD5=[a4864676d440116b823293086b5881f4]
@startuml
skinparam classAttributeIconSize 0

class Company
{
  -String designation
  +getParameterCategoryStore()
  +getTestTypeStore()
}

class TestTypeStore {
  +createTestType(code, description, collectingMethod, parameterCategories)
  +validateTestType(tt)
  +saveTestType(tt)
  -addTestType(tt)
}

class ParameterCategoryStore {
  +getParameterCategories()
  +getParameterCategoryByCode(parameterCategoryCode)
}

class TestType {
  -String code
  -String description
  -String collectingMethod
  -List<ParameterCategory> parameterCategories
  +TestType(code, description, collectingMethod, parameterCategories)
}

class ParameterCategory {
  -String code
  -String name
  +ParameterCategory(code, name)
}

class CreateTestTypeUI {
}

class CreateTestTypeController {
  +getParameterCategories()
  +createTestType(code, description, collectingMethod, parameterCategoryCodes)
  +saveTestType()
}

CreateTestTypeUI ..> CreateTestTypeController
CreateTestTypeController ..> Company
Company "1" - -> "1" TestTypeStore : uses
Company "1" - -> "1" ParameterCategoryStore : uses
TestTypeStore "1" - -> "*" TestType : conducts
ParameterCategoryStore "1" - -> "1" ParameterCategory : adopts
TestType "*" - -> "1..*" ParameterCategory : have
@enduml

PlantUML version 1.2021.6beta2(Unknown compile time)
(GPL source distribution)
Java Runtime: Java(TM) SE Runtime Environment
JVM: Java HotSpot(TM) 64-Bit Server VM
Default Encoding: UTF-8
Language: en
Country: US
--></g></svg>