<?xml version="1.0" encoding="UTF-8" standalone="no"?>
<svg xmlns="http://www.w3.org/2000/svg" xmlns:xlink="http://www.w3.org/1999/xlink" contentScriptType="application/ecmascript" contentStyleType="text/css" height="936px" preserveAspectRatio="none" style="width:2990px;height:936px;" version="1.1" viewBox="0 0 2990 936" width="2990px" zoomAndPan="magnify"><defs><filter height="300%" id="fkqt21il2zyim" width="300%" x="-1" y="-1"><feGaussianBlur result="blurOut" stdDeviation="2.0"/><feColorMatrix in="blurOut" result="blurOut2" type="matrix" values="0 0 0 0 0 0 0 0 0 0 0 0 0 0 0 0 0 0 .4 0"/><feOffset dx="4.0" dy="4.0" in="blurOut2" result="blurOut3"/><feBlend in="SourceGraphic" in2="blurOut3" mode="normal"/></filter></defs><g><rect fill="#FFFFFF" filter="url(#fkqt21il2zyim)" height="736.3828" style="stroke:#A80036;stroke-width:1.0;" width="10" x="68" y="98.2969"/><rect fill="#FFFFFF" filter="url(#fkqt21il2zyim)" height="29.1328" style="stroke:#A80036;stroke-width:1.0;" width="10" x="462" y="119.4297"/><rect fill="#FFFFFF" filter="url(#fkqt21il2zyim)" height="427.0547" style="stroke:#A80036;stroke-width:1.0;" width="10" x="462" y="177.6953"/><rect fill="#FFFFFF" filter="url(#fkqt21il2zyim)" height="200.7969" style="stroke:#A80036;stroke-width:1.0;" width="10" x="462" y="633.8828"/><rect fill="#FFFFFF" filter="url(#fkqt21il2zyim)" height="59.1328" style="stroke:#A80036;stroke-width:1.0;" width="10" x="974" y="206.8281"/><rect fill="#FFFFFF" filter="url(#fkqt21il2zyim)" height="191.125" style="stroke:#A80036;stroke-width:1.0;" width="10" x="974" y="384.4922"/><rect fill="#FFFFFF" filter="url(#fkqt21il2zyim)" height="171.6641" style="stroke:#A80036;stroke-width:1.0;" width="10" x="974" y="663.0156"/><rect fill="#FFFFFF" filter="url(#fkqt21il2zyim)" height="161.9922" style="stroke:#A80036;stroke-width:1.0;" width="10" x="1486" y="413.625"/><rect fill="#FFFFFF" filter="url(#fkqt21il2zyim)" height="142.5313" style="stroke:#A80036;stroke-width:1.0;" width="10" x="1486" y="692.1484"/><rect fill="#FFFFFF" filter="url(#fkqt21il2zyim)" height="132.8594" style="stroke:#A80036;stroke-width:1.0;" width="10" x="2036" y="442.7578"/><rect fill="#FFFFFF" filter="url(#fkqt21il2zyim)" height="122.3984" style="stroke:#A80036;stroke-width:1.0;" width="10" x="2036" y="721.2813"/><rect fill="#FFFFFF" filter="url(#fkqt21il2zyim)" height="30" style="stroke:#A80036;stroke-width:1.0;" width="10" x="2213" y="235.9609"/><rect fill="#FFFFFF" filter="url(#fkqt21il2zyim)" height="75.3984" style="stroke:#000000;stroke-width:2.0;" width="543.5" x="10" y="280.9609"/><line style="stroke:#A80036;stroke-width:1.0;stroke-dasharray:5.0,5.0;" x1="73" x2="73" y1="88.2969" y2="852.6797"/><line style="stroke:#A80036;stroke-width:1.0;stroke-dasharray:5.0,5.0;" x1="466.5" x2="466.5" y1="88.2969" y2="852.6797"/><line style="stroke:#A80036;stroke-width:1.0;stroke-dasharray:5.0,5.0;" x1="978.5" x2="978.5" y1="88.2969" y2="852.6797"/><line style="stroke:#A80036;stroke-width:1.0;stroke-dasharray:5.0,5.0;" x1="1490.5" x2="1490.5" y1="88.2969" y2="852.6797"/><line style="stroke:#A80036;stroke-width:1.0;stroke-dasharray:5.0,5.0;" x1="2041" x2="2041" y1="88.2969" y2="852.6797"/><line style="stroke:#A80036;stroke-width:1.0;stroke-dasharray:5.0,5.0;" x1="2218" x2="2218" y1="88.2969" y2="852.6797"/><line style="stroke:#A80036;stroke-width:1.0;stroke-dasharray:5.0,5.0;" x1="2547" x2="2547" y1="491.5547" y2="852.6797"/><line style="stroke:#A80036;stroke-width:1.0;stroke-dasharray:5.0,5.0;" x1="2682" x2="2682" y1="88.2969" y2="852.6797"/><line style="stroke:#A80036;stroke-width:1.0;stroke-dasharray:5.0,5.0;" x1="2876" x2="2876" y1="88.2969" y2="852.6797"/><text fill="#000000" font-family="sans-serif" font-size="14" lengthAdjust="spacing" textLength="100" x="20" y="84.9951">Administrator</text><ellipse cx="73" cy="15" fill="#FEFECE" filter="url(#fkqt21il2zyim)" rx="8" ry="8" style="stroke:#A80036;stroke-width:2.0;"/><path d="M73,23 L73,50 M60,31 L86,31 M73,50 L60,65 M73,50 L86,65 " fill="none" filter="url(#fkqt21il2zyim)" style="stroke:#A80036;stroke-width:2.0;"/><text fill="#000000" font-family="sans-serif" font-size="14" lengthAdjust="spacing" textLength="100" x="20" y="864.6748">Administrator</text><ellipse cx="73" cy="877.9766" fill="#FEFECE" filter="url(#fkqt21il2zyim)" rx="8" ry="8" style="stroke:#A80036;stroke-width:2.0;"/><path d="M73,885.9766 L73,912.9766 M60,893.9766 L86,893.9766 M73,912.9766 L60,927.9766 M73,912.9766 L86,927.9766 " fill="none" filter="url(#fkqt21il2zyim)" style="stroke:#A80036;stroke-width:2.0;"/><rect fill="#FEFECE" filter="url(#fkqt21il2zyim)" height="30.2969" style="stroke:#A80036;stroke-width:1.5;" width="149" x="390.5" y="53"/><text fill="#000000" font-family="sans-serif" font-size="14" lengthAdjust="spacing" textLength="135" x="397.5" y="72.9951">:CreateTestTypeUI</text><rect fill="#FEFECE" filter="url(#fkqt21il2zyim)" height="30.2969" style="stroke:#A80036;stroke-width:1.5;" width="149" x="390.5" y="851.6797"/><text fill="#000000" font-family="sans-serif" font-size="14" lengthAdjust="spacing" textLength="135" x="397.5" y="871.6748">:CreateTestTypeUI</text><rect fill="#FEFECE" filter="url(#fkqt21il2zyim)" height="30.2969" style="stroke:#A80036;stroke-width:1.5;" width="209" x="872.5" y="53"/><text fill="#000000" font-family="sans-serif" font-size="14" lengthAdjust="spacing" textLength="195" x="879.5" y="72.9951">:CreateTestTypeController</text><rect fill="#FEFECE" filter="url(#fkqt21il2zyim)" height="30.2969" style="stroke:#A80036;stroke-width:1.5;" width="209" x="872.5" y="851.6797"/><text fill="#000000" font-family="sans-serif" font-size="14" lengthAdjust="spacing" textLength="195" x="879.5" y="871.6748">:CreateTestTypeController</text><rect fill="#FEFECE" filter="url(#fkqt21il2zyim)" height="30.2969" style="stroke:#A80036;stroke-width:1.5;" width="87" x="1445.5" y="53"/><text fill="#000000" font-family="sans-serif" font-size="14" lengthAdjust="spacing" textLength="73" x="1452.5" y="72.9951">:Company</text><rect fill="#FEFECE" filter="url(#fkqt21il2zyim)" height="30.2969" style="stroke:#A80036;stroke-width:1.5;" width="87" x="1445.5" y="851.6797"/><text fill="#000000" font-family="sans-serif" font-size="14" lengthAdjust="spacing" textLength="73" x="1452.5" y="871.6748">:Company</text><rect fill="#FEFECE" filter="url(#fkqt21il2zyim)" height="46.5938" style="stroke:#A80036;stroke-width:1.5;" width="122" x="1978" y="36.7031"/><text fill="#000000" font-family="sans-serif" font-size="14" lengthAdjust="spacing" textLength="59" x="2009.5" y="56.6982">ttStore:</text><text fill="#000000" font-family="sans-serif" font-size="14" lengthAdjust="spacing" textLength="108" x="1985" y="72.9951">TestTypeStore</text><rect fill="#FEFECE" filter="url(#fkqt21il2zyim)" height="46.5938" style="stroke:#A80036;stroke-width:1.5;" width="122" x="1978" y="851.6797"/><text fill="#000000" font-family="sans-serif" font-size="14" lengthAdjust="spacing" textLength="59" x="2009.5" y="871.6748">ttStore:</text><text fill="#000000" font-family="sans-serif" font-size="14" lengthAdjust="spacing" textLength="108" x="1985" y="887.9717">TestTypeStore</text><rect fill="#FEFECE" filter="url(#fkqt21il2zyim)" height="46.5938" style="stroke:#A80036;stroke-width:1.5;" width="196" x="2118" y="36.7031"/><text fill="#000000" font-family="sans-serif" font-size="14" lengthAdjust="spacing" textLength="63" x="2184.5" y="56.6982">pcStore:</text><text fill="#000000" font-family="sans-serif" font-size="14" lengthAdjust="spacing" textLength="182" x="2125" y="72.9951">ParameterCategoryStore</text><rect fill="#FEFECE" filter="url(#fkqt21il2zyim)" height="46.5938" style="stroke:#A80036;stroke-width:1.5;" width="196" x="2118" y="851.6797"/><text fill="#000000" font-family="sans-serif" font-size="14" lengthAdjust="spacing" textLength="63" x="2184.5" y="871.6748">pcStore:</text><text fill="#000000" font-family="sans-serif" font-size="14" lengthAdjust="spacing" textLength="182" x="2125" y="887.9717">ParameterCategoryStore</text><rect fill="#FEFECE" filter="url(#fkqt21il2zyim)" height="46.5938" style="stroke:#A80036;stroke-width:1.5;" width="86" x="2502" y="851.6797"/><text fill="#000000" font-family="sans-serif" font-size="14" lengthAdjust="spacing" textLength="19" x="2535.5" y="871.6748">tt:</text><text fill="#000000" font-family="sans-serif" font-size="14" lengthAdjust="spacing" textLength="72" x="2509" y="887.9717">Test Type</text><rect fill="#FEFECE" filter="url(#fkqt21il2zyim)" height="46.5938" style="stroke:#A80036;stroke-width:1.5;" width="156" x="2602" y="36.7031"/><text fill="#000000" font-family="sans-serif" font-size="14" lengthAdjust="spacing" textLength="23" x="2668.5" y="56.6982">pc:</text><text fill="#000000" font-family="sans-serif" font-size="14" lengthAdjust="spacing" textLength="142" x="2609" y="72.9951">ParameterCategory</text><rect fill="#FEFECE" filter="url(#fkqt21il2zyim)" height="46.5938" style="stroke:#A80036;stroke-width:1.5;" width="156" x="2602" y="851.6797"/><text fill="#000000" font-family="sans-serif" font-size="14" lengthAdjust="spacing" textLength="23" x="2668.5" y="871.6748">pc:</text><text fill="#000000" font-family="sans-serif" font-size="14" lengthAdjust="spacing" textLength="142" x="2609" y="887.9717">ParameterCategory</text><rect fill="#FEFECE" filter="url(#fkqt21il2zyim)" height="46.5938" style="stroke:#A80036;stroke-width:1.5;" width="204" x="2772" y="36.7031"/><text fill="#000000" font-family="sans-serif" font-size="14" lengthAdjust="spacing" textLength="19" x="2864.5" y="56.6982">lp:</text><text fill="#000000" font-family="sans-serif" font-size="14" lengthAdjust="spacing" textLength="190" x="2779" y="72.9951">List&lt;ParameterCategory&gt;</text><rect fill="#FEFECE" filter="url(#fkqt21il2zyim)" height="46.5938" style="stroke:#A80036;stroke-width:1.5;" width="204" x="2772" y="851.6797"/><text fill="#000000" font-family="sans-serif" font-size="14" lengthAdjust="spacing" textLength="19" x="2864.5" y="871.6748">lp:</text><text fill="#000000" font-family="sans-serif" font-size="14" lengthAdjust="spacing" textLength="190" x="2779" y="887.9717">List&lt;ParameterCategory&gt;</text><rect fill="#FFFFFF" filter="url(#fkqt21il2zyim)" height="736.3828" style="stroke:#A80036;stroke-width:1.0;" width="10" x="68" y="98.2969"/><rect fill="#FFFFFF" filter="url(#fkqt21il2zyim)" height="29.1328" style="stroke:#A80036;stroke-width:1.0;" width="10" x="462" y="119.4297"/><rect fill="#FFFFFF" filter="url(#fkqt21il2zyim)" height="427.0547" style="stroke:#A80036;stroke-width:1.0;" width="10" x="462" y="177.6953"/><rect fill="#FFFFFF" filter="url(#fkqt21il2zyim)" height="200.7969" style="stroke:#A80036;stroke-width:1.0;" width="10" x="462" y="633.8828"/><rect fill="#FFFFFF" filter="url(#fkqt21il2zyim)" height="59.1328" style="stroke:#A80036;stroke-width:1.0;" width="10" x="974" y="206.8281"/><rect fill="#FFFFFF" filter="url(#fkqt21il2zyim)" height="191.125" style="stroke:#A80036;stroke-width:1.0;" width="10" x="974" y="384.4922"/><rect fill="#FFFFFF" filter="url(#fkqt21il2zyim)" height="171.6641" style="stroke:#A80036;stroke-width:1.0;" width="10" x="974" y="663.0156"/><rect fill="#FFFFFF" filter="url(#fkqt21il2zyim)" height="161.9922" style="stroke:#A80036;stroke-width:1.0;" width="10" x="1486" y="413.625"/><rect fill="#FFFFFF" filter="url(#fkqt21il2zyim)" height="142.5313" style="stroke:#A80036;stroke-width:1.0;" width="10" x="1486" y="692.1484"/><rect fill="#FFFFFF" filter="url(#fkqt21il2zyim)" height="132.8594" style="stroke:#A80036;stroke-width:1.0;" width="10" x="2036" y="442.7578"/><rect fill="#FFFFFF" filter="url(#fkqt21il2zyim)" height="122.3984" style="stroke:#A80036;stroke-width:1.0;" width="10" x="2036" y="721.2813"/><rect fill="#FFFFFF" filter="url(#fkqt21il2zyim)" height="30" style="stroke:#A80036;stroke-width:1.0;" width="10" x="2213" y="235.9609"/><polygon fill="#A80036" points="450,115.4297,460,119.4297,450,123.4297,454,119.4297" style="stroke:#A80036;stroke-width:1.0;"/><line style="stroke:#A80036;stroke-width:1.0;" x1="78" x2="456" y1="119.4297" y2="119.4297"/><text fill="#000000" font-family="sans-serif" font-size="13" font-weight="bold" lengthAdjust="spacing" textLength="9" x="85" y="114.3638">1</text><text fill="#000000" font-family="sans-serif" font-size="13" lengthAdjust="spacing" textLength="147" x="98" y="114.3638">starts new type of test</text><polygon fill="#A80036" points="89,144.5625,79,148.5625,89,152.5625,85,148.5625" style="stroke:#A80036;stroke-width:1.0;"/><line style="stroke:#A80036;stroke-width:1.0;stroke-dasharray:2.0,2.0;" x1="83" x2="466" y1="148.5625" y2="148.5625"/><text fill="#000000" font-family="sans-serif" font-size="13" font-weight="bold" lengthAdjust="spacing" textLength="9" x="95" y="143.4966">2</text><text fill="#000000" font-family="sans-serif" font-size="13" lengthAdjust="spacing" textLength="343" x="108" y="143.4966">request data(i.e., code, description, collectingMethod)</text><polygon fill="#A80036" points="450,173.6953,460,177.6953,450,181.6953,454,177.6953" style="stroke:#A80036;stroke-width:1.0;"/><line style="stroke:#A80036;stroke-width:1.0;" x1="78" x2="456" y1="177.6953" y2="177.6953"/><text fill="#000000" font-family="sans-serif" font-size="13" font-weight="bold" lengthAdjust="spacing" textLength="8" x="85" y="172.6294">3</text><text fill="#000000" font-family="sans-serif" font-size="13" lengthAdjust="spacing" textLength="138" x="97" y="172.6294">types requested data</text><polygon fill="#A80036" points="962,202.8281,972,206.8281,962,210.8281,966,206.8281" style="stroke:#A80036;stroke-width:1.0;"/><line style="stroke:#A80036;stroke-width:1.0;" x1="472" x2="968" y1="206.8281" y2="206.8281"/><text fill="#000000" font-family="sans-serif" font-size="13" font-weight="bold" lengthAdjust="spacing" textLength="9" x="479" y="201.7622">4</text><text fill="#000000" font-family="sans-serif" font-size="13" lengthAdjust="spacing" textLength="179" x="492" y="201.7622">lp=getParameterCategory()</text><polygon fill="#A80036" points="2201,231.9609,2211,235.9609,2201,239.9609,2205,235.9609" style="stroke:#A80036;stroke-width:1.0;"/><line style="stroke:#A80036;stroke-width:1.0;" x1="984" x2="2207" y1="235.9609" y2="235.9609"/><text fill="#000000" font-family="sans-serif" font-size="13" font-weight="bold" lengthAdjust="spacing" textLength="9" x="991" y="230.895">5</text><text fill="#000000" font-family="sans-serif" font-size="13" lengthAdjust="spacing" textLength="179" x="1004" y="230.895">lp=getParameterCategory()</text><path d="M10,280.9609 L88,280.9609 L88,287.9609 L78,297.9609 L10,297.9609 L10,280.9609 " fill="#EEEEEE" style="stroke:#000000;stroke-width:1.0;"/><rect fill="none" height="75.3984" style="stroke:#000000;stroke-width:2.0;" width="543.5" x="10" y="280.9609"/><text fill="#000000" font-family="sans-serif" font-size="13" font-weight="bold" lengthAdjust="spacing" textLength="33" x="25" y="294.0278">loop</text><text fill="#000000" font-family="sans-serif" font-size="11" font-weight="bold" lengthAdjust="spacing" textLength="264" x="103" y="293.1714">[until no more categories are selected]</text><polygon fill="#A80036" points="89,315.2266,79,319.2266,89,323.2266,85,319.2266" style="stroke:#A80036;stroke-width:1.0;"/><line style="stroke:#A80036;stroke-width:1.0;stroke-dasharray:2.0,2.0;" x1="83" x2="461" y1="319.2266" y2="319.2266"/><text fill="#000000" font-family="sans-serif" font-size="13" font-weight="bold" lengthAdjust="spacing" textLength="9" x="95" y="314.1606">6</text><text fill="#000000" font-family="sans-serif" font-size="13" lengthAdjust="spacing" textLength="347" x="108" y="314.1606">shows parameter categories list and ask to select one</text><polygon fill="#A80036" points="450,344.3594,460,348.3594,450,352.3594,454,348.3594" style="stroke:#A80036;stroke-width:1.0;"/><line style="stroke:#A80036;stroke-width:1.0;" x1="78" x2="456" y1="348.3594" y2="348.3594"/><text fill="#000000" font-family="sans-serif" font-size="13" font-weight="bold" lengthAdjust="spacing" textLength="9" x="85" y="343.2935">7</text><text fill="#000000" font-family="sans-serif" font-size="13" lengthAdjust="spacing" textLength="190" x="98" y="343.2935">selects a parameter category</text><polygon fill="#A80036" points="962,380.4922,972,384.4922,962,388.4922,966,384.4922" style="stroke:#A80036;stroke-width:1.0;"/><line style="stroke:#A80036;stroke-width:1.0;" x1="472" x2="968" y1="384.4922" y2="384.4922"/><text fill="#000000" font-family="sans-serif" font-size="13" font-weight="bold" lengthAdjust="spacing" textLength="9" x="479" y="379.4263">8</text><text fill="#000000" font-family="sans-serif" font-size="13" lengthAdjust="spacing" textLength="470" x="492" y="379.4263">createTestType(code, description, collectingMethod, parameterCategory)</text><polygon fill="#A80036" points="1474,409.625,1484,413.625,1474,417.625,1478,413.625" style="stroke:#A80036;stroke-width:1.0;"/><line style="stroke:#A80036;stroke-width:1.0;" x1="984" x2="1480" y1="413.625" y2="413.625"/><text fill="#000000" font-family="sans-serif" font-size="13" font-weight="bold" lengthAdjust="spacing" textLength="9" x="991" y="408.5591">9</text><text fill="#000000" font-family="sans-serif" font-size="13" lengthAdjust="spacing" textLength="470" x="1004" y="408.5591">createTestType(code, description, collectingMethod, parameterCategory)</text><polygon fill="#A80036" points="2024,438.7578,2034,442.7578,2024,446.7578,2028,442.7578" style="stroke:#A80036;stroke-width:1.0;"/><line style="stroke:#A80036;stroke-width:1.0;" x1="1496" x2="2030" y1="442.7578" y2="442.7578"/><text fill="#000000" font-family="sans-serif" font-size="13" font-weight="bold" lengthAdjust="spacing" textLength="19" x="1503" y="437.6919">10</text><text fill="#000000" font-family="sans-serif" font-size="13" lengthAdjust="spacing" textLength="498" x="1526" y="437.6919">tt = createTestType(code, description, collectingMethod, parameterCategory)</text><polygon fill="#A80036" points="2490,467.8906,2500,471.8906,2490,475.8906,2494,471.8906" style="stroke:#A80036;stroke-width:1.0;"/><line style="stroke:#A80036;stroke-width:1.0;" x1="2046" x2="2496" y1="471.8906" y2="471.8906"/><text fill="#000000" font-family="sans-serif" font-size="13" font-weight="bold" lengthAdjust="spacing" textLength="18" x="2053" y="466.8247">11</text><text fill="#000000" font-family="sans-serif" font-size="13" lengthAdjust="spacing" textLength="410" x="2075" y="466.8247">create(code, description, collectingMethod, parameterCategory)</text><rect fill="#FEFECE" filter="url(#fkqt21il2zyim)" height="46.5938" style="stroke:#A80036;stroke-width:1.5;" width="86" x="2502" y="450.7578"/><text fill="#000000" font-family="sans-serif" font-size="14" lengthAdjust="spacing" textLength="19" x="2535.5" y="470.7529">tt:</text><text fill="#000000" font-family="sans-serif" font-size="14" lengthAdjust="spacing" textLength="72" x="2509" y="487.0498">Test Type</text><line style="stroke:#A80036;stroke-width:1.0;" x1="2046" x2="2088" y1="533.4844" y2="533.4844"/><line style="stroke:#A80036;stroke-width:1.0;" x1="2088" x2="2088" y1="533.4844" y2="546.4844"/><line style="stroke:#A80036;stroke-width:1.0;" x1="2047" x2="2088" y1="546.4844" y2="546.4844"/><polygon fill="#A80036" points="2057,542.4844,2047,546.4844,2057,550.4844,2053,546.4844" style="stroke:#A80036;stroke-width:1.0;"/><text fill="#000000" font-family="sans-serif" font-size="13" font-weight="bold" lengthAdjust="spacing" textLength="18" x="2053" y="528.4185">12</text><text fill="#000000" font-family="sans-serif" font-size="13" lengthAdjust="spacing" textLength="131" x="2075" y="528.4185">validateTestType(tt)</text><polygon fill="#A80036" points="483,571.6172,473,575.6172,483,579.6172,479,575.6172" style="stroke:#A80036;stroke-width:1.0;"/><line style="stroke:#A80036;stroke-width:1.0;stroke-dasharray:2.0,2.0;" x1="477" x2="978" y1="575.6172" y2="575.6172"/><text fill="#000000" font-family="sans-serif" font-size="13" font-weight="bold" lengthAdjust="spacing" textLength="17" x="489" y="570.5513">13</text><text fill="#000000" font-family="sans-serif" font-size="13" lengthAdjust="spacing" textLength="36" x="510" y="570.5513">result</text><polygon fill="#A80036" points="89,600.75,79,604.75,89,608.75,85,604.75" style="stroke:#A80036;stroke-width:1.0;"/><line style="stroke:#A80036;stroke-width:1.0;stroke-dasharray:2.0,2.0;" x1="83" x2="466" y1="604.75" y2="604.75"/><text fill="#000000" font-family="sans-serif" font-size="13" font-weight="bold" lengthAdjust="spacing" textLength="18" x="95" y="599.6841">14</text><text fill="#000000" font-family="sans-serif" font-size="13" lengthAdjust="spacing" textLength="295" x="117" y="599.6841">shows all the data and request a confirmation</text><polygon fill="#A80036" points="450,629.8828,460,633.8828,450,637.8828,454,633.8828" style="stroke:#A80036;stroke-width:1.0;"/><line style="stroke:#A80036;stroke-width:1.0;" x1="78" x2="456" y1="633.8828" y2="633.8828"/><text fill="#000000" font-family="sans-serif" font-size="13" font-weight="bold" lengthAdjust="spacing" textLength="18" x="85" y="628.8169">15</text><text fill="#000000" font-family="sans-serif" font-size="13" lengthAdjust="spacing" textLength="114" x="107" y="628.8169">confirms the data</text><polygon fill="#A80036" points="962,659.0156,972,663.0156,962,667.0156,966,663.0156" style="stroke:#A80036;stroke-width:1.0;"/><line style="stroke:#A80036;stroke-width:1.0;" x1="472" x2="968" y1="663.0156" y2="663.0156"/><text fill="#000000" font-family="sans-serif" font-size="13" font-weight="bold" lengthAdjust="spacing" textLength="18" x="479" y="657.9497">16</text><text fill="#000000" font-family="sans-serif" font-size="13" lengthAdjust="spacing" textLength="101" x="501" y="657.9497">saveTestType()</text><polygon fill="#A80036" points="1474,688.1484,1484,692.1484,1474,696.1484,1478,692.1484" style="stroke:#A80036;stroke-width:1.0;"/><line style="stroke:#A80036;stroke-width:1.0;" x1="984" x2="1480" y1="692.1484" y2="692.1484"/><text fill="#000000" font-family="sans-serif" font-size="13" font-weight="bold" lengthAdjust="spacing" textLength="18" x="991" y="687.0825">17</text><text fill="#000000" font-family="sans-serif" font-size="13" lengthAdjust="spacing" textLength="101" x="1013" y="687.0825">saveTestType()</text><polygon fill="#A80036" points="2024,717.2813,2034,721.2813,2024,725.2813,2028,721.2813" style="stroke:#A80036;stroke-width:1.0;"/><line style="stroke:#A80036;stroke-width:1.0;" x1="1496" x2="2030" y1="721.2813" y2="721.2813"/><text fill="#000000" font-family="sans-serif" font-size="13" font-weight="bold" lengthAdjust="spacing" textLength="18" x="1503" y="716.2153">18</text><text fill="#000000" font-family="sans-serif" font-size="13" lengthAdjust="spacing" textLength="111" x="1525" y="716.2153">saveTestType(tt)</text><line style="stroke:#A80036;stroke-width:1.0;" x1="2046" x2="2088" y1="750.4141" y2="750.4141"/><line style="stroke:#A80036;stroke-width:1.0;" x1="2088" x2="2088" y1="750.4141" y2="763.4141"/><line style="stroke:#A80036;stroke-width:1.0;" x1="2047" x2="2088" y1="763.4141" y2="763.4141"/><polygon fill="#A80036" points="2057,759.4141,2047,763.4141,2057,767.4141,2053,763.4141" style="stroke:#A80036;stroke-width:1.0;"/><text fill="#000000" font-family="sans-serif" font-size="13" font-weight="bold" lengthAdjust="spacing" textLength="18" x="2053" y="745.3481">19</text><text fill="#000000" font-family="sans-serif" font-size="13" lengthAdjust="spacing" textLength="131" x="2075" y="745.3481">validateTestType(tt)</text><line style="stroke:#A80036;stroke-width:1.0;" x1="2046" x2="2088" y1="792.5469" y2="792.5469"/><line style="stroke:#A80036;stroke-width:1.0;" x1="2088" x2="2088" y1="792.5469" y2="805.5469"/><line style="stroke:#A80036;stroke-width:1.0;" x1="2047" x2="2088" y1="805.5469" y2="805.5469"/><polygon fill="#A80036" points="2057,801.5469,2047,805.5469,2057,809.5469,2053,805.5469" style="stroke:#A80036;stroke-width:1.0;"/><text fill="#000000" font-family="sans-serif" font-size="13" font-weight="bold" lengthAdjust="spacing" textLength="19" x="2053" y="787.481">20</text><text fill="#000000" font-family="sans-serif" font-size="13" lengthAdjust="spacing" textLength="104" x="2076" y="787.481">addTestType(tt)</text><polygon fill="#A80036" points="84,830.6797,74,834.6797,84,838.6797,80,834.6797" style="stroke:#A80036;stroke-width:1.0;"/><line style="stroke:#A80036;stroke-width:1.0;stroke-dasharray:2.0,2.0;" x1="78" x2="466" y1="834.6797" y2="834.6797"/><text fill="#000000" font-family="sans-serif" font-size="13" font-weight="bold" lengthAdjust="spacing" textLength="18" x="90" y="829.6138">21</text><text fill="#000000" font-family="sans-serif" font-size="13" lengthAdjust="spacing" textLength="169" x="112" y="829.6138">informs operation succecs</text><!--MD5=[cd2c651e69022cf5eb38a94ae62f7747]
@startuml
autonumber
actor "Administrator" as ADMIN

participant ":CreateTestTypeUI" as UI
participant ":CreateTestTypeController" as CTRL
participant ":Company" as CMP
participant "ttStore:\nTestTypeStore" as ttStore
participant "pcStore:\nParameterCategoryStore" as pcStore
participant "tt:\nTest Type" as TET
participant "pc:\nParameterCategory" as pc
participant "lp:\nList<ParameterCategory>" as lp

activate ADMIN
ADMIN -> UI : starts new type of test
activate UI
UI - -> ADMIN : request data(i.e., code, description, collectingMethod)
deactivate UI

ADMIN -> UI : types requested data
activate UI
UI -> CTRL : lp=getParameterCategory()
activate CTRL
CTRL -> pcStore : lp=getParameterCategory()
activate pcStore
deactivate pcStore
deactivate CTRL
loop until no more categories are selected
	UI - -> ADMIN : shows parameter categories list and ask to select one
	ADMIN -> UI : selects a parameter category
end
UI -> CTRL: createTestType(code, description, collectingMethod, parameterCategory)
activate CTRL
CTRL -> CMP : createTestType(code, description, collectingMethod, parameterCategory)
activate CMP
CMP -> ttStore : tt = createTestType(code, description, collectingMethod, parameterCategory)
activate ttStore
ttStore -> TET** : create(code, description, collectingMethod, parameterCategory)
ttStore -> ttStore : validateTestType(tt)
CTRL - ->  UI : result
deactivate ttStore
deactivate CMP
deactivate CTRL
UI - -> ADMIN : shows all the data and request a confirmation
deactivate UI

ADMIN -> UI : confirms the data
activate UI
UI -> CTRL : saveTestType()
activate CTRL
CTRL -> CMP : saveTestType()
activate CMP
CMP -> ttStore : saveTestType(tt)
activate ttStore
ttStore -> ttStore : validateTestType(tt)
ttStore -> ttStore : addTestType(tt)
UI - -> ADMIN : informs operation succecs
deactivate CMP
deactivate CTRL
deactivate UI

deactivate ADMIN
@enduml

PlantUML version 1.2021.6beta2(Unknown compile time)
(GPL source distribution)
Java Runtime: Java(TM) SE Runtime Environment
JVM: Java HotSpot(TM) 64-Bit Server VM
Default Encoding: UTF-8
Language: en
Country: US
--></g></svg>