<?xml version="1.0" encoding="UTF-8" standalone="no"?>
<svg xmlns="http://www.w3.org/2000/svg" xmlns:xlink="http://www.w3.org/1999/xlink" contentScriptType="application/ecmascript" contentStyleType="text/css" height="973px" preserveAspectRatio="none" style="width:670px;height:973px;" version="1.1" viewBox="0 0 670 973" width="670px" zoomAndPan="magnify"><defs><filter height="300%" id="fpm639rreegzp" width="300%" x="-1" y="-1"><feGaussianBlur result="blurOut" stdDeviation="2.0"/><feColorMatrix in="blurOut" result="blurOut2" type="matrix" values="0 0 0 0 0 0 0 0 0 0 0 0 0 0 0 0 0 0 .4 0"/><feOffset dx="4.0" dy="4.0" in="blurOut2" result="blurOut3"/><feBlend in="SourceGraphic" in2="blurOut3" mode="normal"/></filter></defs><g><!--MD5=[02e4b9b7573f1156f41e60aa5b4e25a4]
class Company--><rect codeLine="3" fill="#FEFECE" filter="url(#fpm639rreegzp)" height="86.4141" id="Company" style="stroke:#A80036;stroke-width:1.5;" width="190" x="335.5" y="263"/><ellipse cx="398.25" cy="279" fill="#ADD1B2" rx="11" ry="11" style="stroke:#A80036;stroke-width:1.0;"/><path d="M400.5938,274.6719 C399.6563,274.2344 399.0625,274.0938 398.1875,274.0938 C395.5625,274.0938 393.5625,276.1719 393.5625,278.8906 L393.5625,280.0156 C393.5625,282.5938 395.6719,284.4844 398.5625,284.4844 C399.7813,284.4844 400.9375,284.1875 401.6875,283.6406 C402.2656,283.2344 402.5938,282.7813 402.5938,282.3906 C402.5938,281.9375 402.2031,281.5469 401.7344,281.5469 C401.5156,281.5469 401.3125,281.625 401.125,281.8125 C400.6719,282.2969 400.6719,282.2969 400.4844,282.3906 C400.0625,282.6563 399.375,282.7813 398.6094,282.7813 C396.5625,282.7813 395.2656,281.6875 395.2656,279.9844 L395.2656,278.8906 C395.2656,277.1094 396.5156,275.7969 398.25,275.7969 C398.8281,275.7969 399.4375,275.9531 399.9063,276.2031 C400.3906,276.4844 400.5625,276.7031 400.6563,277.1094 C400.7188,277.5156 400.75,277.6406 400.8906,277.7656 C401.0313,277.9063 401.2656,278.0156 401.4844,278.0156 C401.75,278.0156 402.0156,277.875 402.1875,277.6563 C402.2969,277.5 402.3281,277.3125 402.3281,276.8906 L402.3281,275.4688 C402.3281,275.0313 402.3125,274.9063 402.2188,274.75 C402.0625,274.4844 401.7813,274.3438 401.4844,274.3438 C401.1875,274.3438 400.9844,274.4375 400.7656,274.75 L400.5938,274.6719 Z " fill="#000000"/><text fill="#000000" font-family="sans-serif" font-size="12" lengthAdjust="spacing" textLength="56" x="418.75" y="283.1543">Company</text><line style="stroke:#A80036;stroke-width:1.5;" x1="336.5" x2="524.5" y1="295" y2="295"/><text fill="#000000" font-family="sans-serif" font-size="11" lengthAdjust="spacing" textLength="70" x="341.5" y="309.2104">-designation</text><line style="stroke:#A80036;stroke-width:1.5;" x1="336.5" x2="524.5" y1="315.8047" y2="315.8047"/><text fill="#000000" font-family="sans-serif" font-size="11" lengthAdjust="spacing" textLength="121" x="341.5" y="330.0151">+getTestTypeStore()</text><text fill="#000000" font-family="sans-serif" font-size="11" lengthAdjust="spacing" textLength="178" x="341.5" y="342.8198">+getParameterCategoryStore()</text><!--MD5=[6ba72ddf03822b91e8d41ca71de58ed3]
class TestTypeStore--><rect codeLine="10" fill="#FEFECE" filter="url(#fpm639rreegzp)" height="99.2188" id="TestTypeStore" style="stroke:#A80036;stroke-width:1.5;" width="439" x="7" y="426"/><ellipse cx="177.75" cy="442" fill="#ADD1B2" rx="11" ry="11" style="stroke:#A80036;stroke-width:1.0;"/><path d="M180.0938,437.6719 C179.1563,437.2344 178.5625,437.0938 177.6875,437.0938 C175.0625,437.0938 173.0625,439.1719 173.0625,441.8906 L173.0625,443.0156 C173.0625,445.5938 175.1719,447.4844 178.0625,447.4844 C179.2813,447.4844 180.4375,447.1875 181.1875,446.6406 C181.7656,446.2344 182.0938,445.7813 182.0938,445.3906 C182.0938,444.9375 181.7031,444.5469 181.2344,444.5469 C181.0156,444.5469 180.8125,444.625 180.625,444.8125 C180.1719,445.2969 180.1719,445.2969 179.9844,445.3906 C179.5625,445.6563 178.875,445.7813 178.1094,445.7813 C176.0625,445.7813 174.7656,444.6875 174.7656,442.9844 L174.7656,441.8906 C174.7656,440.1094 176.0156,438.7969 177.75,438.7969 C178.3281,438.7969 178.9375,438.9531 179.4063,439.2031 C179.8906,439.4844 180.0625,439.7031 180.1563,440.1094 C180.2188,440.5156 180.25,440.6406 180.3906,440.7656 C180.5313,440.9063 180.7656,441.0156 180.9844,441.0156 C181.25,441.0156 181.5156,440.875 181.6875,440.6563 C181.7969,440.5 181.8281,440.3125 181.8281,439.8906 L181.8281,438.4688 C181.8281,438.0313 181.8125,437.9063 181.7188,437.75 C181.5625,437.4844 181.2813,437.3438 180.9844,437.3438 C180.6875,437.3438 180.4844,437.4375 180.2656,437.75 L180.0938,437.6719 Z " fill="#000000"/><text fill="#000000" font-family="sans-serif" font-size="12" lengthAdjust="spacing" textLength="89" x="198.25" y="446.1543">TestTypeStore</text><line style="stroke:#A80036;stroke-width:1.5;" x1="8" x2="445" y1="458" y2="458"/><line style="stroke:#A80036;stroke-width:1.5;" x1="8" x2="445" y1="466" y2="466"/><text fill="#000000" font-family="sans-serif" font-size="11" lengthAdjust="spacing" textLength="427" x="13" y="480.2104">+createTestType(code, description, collectingMethod, parameterCategory)</text><text fill="#000000" font-family="sans-serif" font-size="11" lengthAdjust="spacing" textLength="125" x="13" y="493.0151">+validateTestType(tt)</text><text fill="#000000" font-family="sans-serif" font-size="11" lengthAdjust="spacing" textLength="107" x="13" y="505.8198">+saveTestType(tt)</text><text fill="#000000" font-family="sans-serif" font-size="11" lengthAdjust="spacing" textLength="98" x="13" y="518.6245">+getTestType(tt)</text><!--MD5=[d802db621b5b215a6f0466f93cefcb42]
class ParameterCategoryStore--><rect codeLine="17" fill="#FEFECE" filter="url(#fpm639rreegzp)" height="99.2188" id="ParameterCategoryStore" style="stroke:#A80036;stroke-width:1.5;" width="315" x="341" y="555"/><ellipse cx="419.75" cy="571" fill="#ADD1B2" rx="11" ry="11" style="stroke:#A80036;stroke-width:1.0;"/><path d="M422.0938,566.6719 C421.1563,566.2344 420.5625,566.0938 419.6875,566.0938 C417.0625,566.0938 415.0625,568.1719 415.0625,570.8906 L415.0625,572.0156 C415.0625,574.5938 417.1719,576.4844 420.0625,576.4844 C421.2813,576.4844 422.4375,576.1875 423.1875,575.6406 C423.7656,575.2344 424.0938,574.7813 424.0938,574.3906 C424.0938,573.9375 423.7031,573.5469 423.2344,573.5469 C423.0156,573.5469 422.8125,573.625 422.625,573.8125 C422.1719,574.2969 422.1719,574.2969 421.9844,574.3906 C421.5625,574.6563 420.875,574.7813 420.1094,574.7813 C418.0625,574.7813 416.7656,573.6875 416.7656,571.9844 L416.7656,570.8906 C416.7656,569.1094 418.0156,567.7969 419.75,567.7969 C420.3281,567.7969 420.9375,567.9531 421.4063,568.2031 C421.8906,568.4844 422.0625,568.7031 422.1563,569.1094 C422.2188,569.5156 422.25,569.6406 422.3906,569.7656 C422.5313,569.9063 422.7656,570.0156 422.9844,570.0156 C423.25,570.0156 423.5156,569.875 423.6875,569.6563 C423.7969,569.5 423.8281,569.3125 423.8281,568.8906 L423.8281,567.4688 C423.8281,567.0313 423.8125,566.9063 423.7188,566.75 C423.5625,566.4844 423.2813,566.3438 422.9844,566.3438 C422.6875,566.3438 422.4844,566.4375 422.2656,566.75 L422.0938,566.6719 Z " fill="#000000"/><text fill="#000000" font-family="sans-serif" font-size="12" lengthAdjust="spacing" textLength="149" x="440.25" y="575.1543">ParameterCategoryStore</text><line style="stroke:#A80036;stroke-width:1.5;" x1="342" x2="655" y1="587" y2="587"/><line style="stroke:#A80036;stroke-width:1.5;" x1="342" x2="655" y1="595" y2="595"/><text fill="#000000" font-family="sans-serif" font-size="11" lengthAdjust="spacing" textLength="303" x="347" y="609.2104">+createParameterCategory(code, designation, nshId)</text><text fill="#000000" font-family="sans-serif" font-size="11" lengthAdjust="spacing" textLength="187" x="347" y="622.0151">+validateParameterCategory(pc)</text><text fill="#000000" font-family="sans-serif" font-size="11" lengthAdjust="spacing" textLength="169" x="347" y="634.8198">+saveParameterCategory(pc)</text><text fill="#000000" font-family="sans-serif" font-size="11" lengthAdjust="spacing" textLength="160" x="347" y="647.6245">+getParameterCategory(pc)</text><!--MD5=[aeb3272166074d8737a70b61b1e71682]
class TestType--><rect codeLine="24" fill="#FEFECE" filter="url(#fpm639rreegzp)" height="112.0234" id="TestType" style="stroke:#A80036;stroke-width:1.5;" width="402" x="26.5" y="684"/><ellipse cx="195.25" cy="700" fill="#ADD1B2" rx="11" ry="11" style="stroke:#A80036;stroke-width:1.0;"/><path d="M197.5937,695.6719 C196.6562,695.2344 196.0625,695.0938 195.1875,695.0938 C192.5625,695.0938 190.5625,697.1719 190.5625,699.8906 L190.5625,701.0156 C190.5625,703.5938 192.6719,705.4844 195.5625,705.4844 C196.7812,705.4844 197.9375,705.1875 198.6875,704.6406 C199.2656,704.2344 199.5937,703.7813 199.5937,703.3906 C199.5937,702.9375 199.2031,702.5469 198.7344,702.5469 C198.5156,702.5469 198.3125,702.625 198.125,702.8125 C197.6719,703.2969 197.6719,703.2969 197.4844,703.3906 C197.0625,703.6563 196.375,703.7813 195.6094,703.7813 C193.5625,703.7813 192.2656,702.6875 192.2656,700.9844 L192.2656,699.8906 C192.2656,698.1094 193.5156,696.7969 195.25,696.7969 C195.8281,696.7969 196.4375,696.9531 196.9062,697.2031 C197.3906,697.4844 197.5625,697.7031 197.6562,698.1094 C197.7187,698.5156 197.75,698.6406 197.8906,698.7656 C198.0312,698.9063 198.2656,699.0156 198.4844,699.0156 C198.75,699.0156 199.0156,698.875 199.1875,698.6563 C199.2969,698.5 199.3281,698.3125 199.3281,697.8906 L199.3281,696.4688 C199.3281,696.0313 199.3125,695.9063 199.2187,695.75 C199.0625,695.4844 198.7812,695.3438 198.4844,695.3438 C198.1875,695.3438 197.9844,695.4375 197.7656,695.75 L197.5937,695.6719 Z " fill="#000000"/><text fill="#000000" font-family="sans-serif" font-size="12" lengthAdjust="spacing" textLength="56" x="215.75" y="704.1543">TestType</text><line style="stroke:#A80036;stroke-width:1.5;" x1="27.5" x2="427.5" y1="716" y2="716"/><text fill="#000000" font-family="sans-serif" font-size="11" lengthAdjust="spacing" textLength="32" x="32.5" y="730.2104">-code</text><text fill="#000000" font-family="sans-serif" font-size="11" lengthAdjust="spacing" textLength="66" x="32.5" y="743.0151">-description</text><text fill="#000000" font-family="sans-serif" font-size="11" lengthAdjust="spacing" textLength="100" x="32.5" y="755.8198">-collectingMethod</text><text fill="#000000" font-family="sans-serif" font-size="11" lengthAdjust="spacing" textLength="116" x="32.5" y="768.6245">-parameterCategory</text><line style="stroke:#A80036;stroke-width:1.5;" x1="27.5" x2="427.5" y1="775.2188" y2="775.2188"/><text fill="#000000" font-family="sans-serif" font-size="11" lengthAdjust="spacing" textLength="390" x="32.5" y="789.4292">+TestType(code, description, collectingMethod, parameterCategory)</text><!--MD5=[36afb6bbd95a8ac778c4537c55a683d5]
class ParameterCategory--><rect codeLine="32" fill="#FEFECE" filter="url(#fpm639rreegzp)" height="86.4141" id="ParameterCategory" style="stroke:#A80036;stroke-width:1.5;" width="208" x="312.5" y="873"/><ellipse cx="354.5" cy="889" fill="#ADD1B2" rx="11" ry="11" style="stroke:#A80036;stroke-width:1.0;"/><path d="M356.8438,884.6719 C355.9063,884.2344 355.3125,884.0938 354.4375,884.0938 C351.8125,884.0938 349.8125,886.1719 349.8125,888.8906 L349.8125,890.0156 C349.8125,892.5938 351.9219,894.4844 354.8125,894.4844 C356.0313,894.4844 357.1875,894.1875 357.9375,893.6406 C358.5156,893.2344 358.8438,892.7813 358.8438,892.3906 C358.8438,891.9375 358.4531,891.5469 357.9844,891.5469 C357.7656,891.5469 357.5625,891.625 357.375,891.8125 C356.9219,892.2969 356.9219,892.2969 356.7344,892.3906 C356.3125,892.6563 355.625,892.7813 354.8594,892.7813 C352.8125,892.7813 351.5156,891.6875 351.5156,889.9844 L351.5156,888.8906 C351.5156,887.1094 352.7656,885.7969 354.5,885.7969 C355.0781,885.7969 355.6875,885.9531 356.1563,886.2031 C356.6406,886.4844 356.8125,886.7031 356.9063,887.1094 C356.9688,887.5156 357,887.6406 357.1406,887.7656 C357.2813,887.9063 357.5156,888.0156 357.7344,888.0156 C358,888.0156 358.2656,887.875 358.4375,887.6563 C358.5469,887.5 358.5781,887.3125 358.5781,886.8906 L358.5781,885.4688 C358.5781,885.0313 358.5625,884.9063 358.4688,884.75 C358.3125,884.4844 358.0313,884.3438 357.7344,884.3438 C357.4375,884.3438 357.2344,884.4375 357.0156,884.75 L356.8438,884.6719 Z " fill="#000000"/><text fill="#000000" font-family="sans-serif" font-size="12" lengthAdjust="spacing" textLength="116" x="374.5" y="893.1543">ParameterCategory</text><line style="stroke:#A80036;stroke-width:1.5;" x1="313.5" x2="519.5" y1="905" y2="905"/><text fill="#000000" font-family="sans-serif" font-size="11" lengthAdjust="spacing" textLength="37" x="318.5" y="919.2104">-name</text><text fill="#000000" font-family="sans-serif" font-size="11" lengthAdjust="spacing" textLength="32" x="318.5" y="932.0151">-code</text><line style="stroke:#A80036;stroke-width:1.5;" x1="313.5" x2="519.5" y1="938.6094" y2="938.6094"/><text fill="#000000" font-family="sans-serif" font-size="11" lengthAdjust="spacing" textLength="196" x="318.5" y="952.8198">+ParameterCategory(name, code)</text><!--MD5=[bebdcc43ebcb1534ee764d1f430c03ae]
class CreateTestTypeUI--><rect codeLine="38" fill="#FEFECE" filter="url(#fpm639rreegzp)" height="48" id="CreateTestTypeUI" style="stroke:#A80036;stroke-width:1.5;" width="140" x="360.5" y="7"/><ellipse cx="375.5" cy="23" fill="#ADD1B2" rx="11" ry="11" style="stroke:#A80036;stroke-width:1.0;"/><path d="M377.8438,18.6719 C376.9063,18.2344 376.3125,18.0938 375.4375,18.0938 C372.8125,18.0938 370.8125,20.1719 370.8125,22.8906 L370.8125,24.0156 C370.8125,26.5938 372.9219,28.4844 375.8125,28.4844 C377.0313,28.4844 378.1875,28.1875 378.9375,27.6406 C379.5156,27.2344 379.8438,26.7813 379.8438,26.3906 C379.8438,25.9375 379.4531,25.5469 378.9844,25.5469 C378.7656,25.5469 378.5625,25.625 378.375,25.8125 C377.9219,26.2969 377.9219,26.2969 377.7344,26.3906 C377.3125,26.6563 376.625,26.7813 375.8594,26.7813 C373.8125,26.7813 372.5156,25.6875 372.5156,23.9844 L372.5156,22.8906 C372.5156,21.1094 373.7656,19.7969 375.5,19.7969 C376.0781,19.7969 376.6875,19.9531 377.1563,20.2031 C377.6406,20.4844 377.8125,20.7031 377.9063,21.1094 C377.9688,21.5156 378,21.6406 378.1406,21.7656 C378.2813,21.9063 378.5156,22.0156 378.7344,22.0156 C379,22.0156 379.2656,21.875 379.4375,21.6563 C379.5469,21.5 379.5781,21.3125 379.5781,20.8906 L379.5781,19.4688 C379.5781,19.0313 379.5625,18.9063 379.4688,18.75 C379.3125,18.4844 379.0313,18.3438 378.7344,18.3438 C378.4375,18.3438 378.2344,18.4375 378.0156,18.75 L377.8438,18.6719 Z " fill="#000000"/><text fill="#000000" font-family="sans-serif" font-size="12" lengthAdjust="spacing" textLength="108" x="389.5" y="27.1543">CreateTestTypeUI</text><line style="stroke:#A80036;stroke-width:1.5;" x1="361.5" x2="499.5" y1="39" y2="39"/><line style="stroke:#A80036;stroke-width:1.5;" x1="361.5" x2="499.5" y1="47" y2="47"/><!--MD5=[2c845ebea24388d268f5a9acbeca4fd9]
class CreateTestTypeController--><rect codeLine="41" fill="#FEFECE" filter="url(#fpm639rreegzp)" height="86.4141" id="CreateTestTypeController" style="stroke:#A80036;stroke-width:1.5;" width="439" x="211" y="116"/><ellipse cx="348.75" cy="132" fill="#ADD1B2" rx="11" ry="11" style="stroke:#A80036;stroke-width:1.0;"/><path d="M351.0938,127.6719 C350.1563,127.2344 349.5625,127.0938 348.6875,127.0938 C346.0625,127.0938 344.0625,129.1719 344.0625,131.8906 L344.0625,133.0156 C344.0625,135.5938 346.1719,137.4844 349.0625,137.4844 C350.2813,137.4844 351.4375,137.1875 352.1875,136.6406 C352.7656,136.2344 353.0938,135.7813 353.0938,135.3906 C353.0938,134.9375 352.7031,134.5469 352.2344,134.5469 C352.0156,134.5469 351.8125,134.625 351.625,134.8125 C351.1719,135.2969 351.1719,135.2969 350.9844,135.3906 C350.5625,135.6563 349.875,135.7813 349.1094,135.7813 C347.0625,135.7813 345.7656,134.6875 345.7656,132.9844 L345.7656,131.8906 C345.7656,130.1094 347.0156,128.7969 348.75,128.7969 C349.3281,128.7969 349.9375,128.9531 350.4063,129.2031 C350.8906,129.4844 351.0625,129.7031 351.1563,130.1094 C351.2188,130.5156 351.25,130.6406 351.3906,130.7656 C351.5313,130.9063 351.7656,131.0156 351.9844,131.0156 C352.25,131.0156 352.5156,130.875 352.6875,130.6563 C352.7969,130.5 352.8281,130.3125 352.8281,129.8906 L352.8281,128.4688 C352.8281,128.0313 352.8125,127.9063 352.7188,127.75 C352.5625,127.4844 352.2813,127.3438 351.9844,127.3438 C351.6875,127.3438 351.4844,127.4375 351.2656,127.75 L351.0938,127.6719 Z " fill="#000000"/><text fill="#000000" font-family="sans-serif" font-size="12" lengthAdjust="spacing" textLength="155" x="369.25" y="136.1543">CreateTestTypeController</text><line style="stroke:#A80036;stroke-width:1.5;" x1="212" x2="649" y1="148" y2="148"/><line style="stroke:#A80036;stroke-width:1.5;" x1="212" x2="649" y1="156" y2="156"/><text fill="#000000" font-family="sans-serif" font-size="11" lengthAdjust="spacing" textLength="90" x="217" y="170.2104">+getTestType()</text><text fill="#000000" font-family="sans-serif" font-size="11" lengthAdjust="spacing" textLength="427" x="217" y="183.0151">+createTestType(code, description, collectingMethod, parameterCategory)</text><text fill="#000000" font-family="sans-serif" font-size="11" lengthAdjust="spacing" textLength="99" x="217" y="195.8198">+saveTestType()</text><!--MD5=[69134a8957932d955e1f822b15ec4b1c]
link CreateTestTypeUI to CreateTestTypeController--><path codeLine="47" d="M430.5,55.11 C430.5,70.631 430.5,91.639 430.5,110.625 " fill="none" id="CreateTestTypeUI-to-CreateTestTypeController" style="stroke:#A80036;stroke-width:1.0;stroke-dasharray:7.0,7.0;"/><polygon fill="#A80036" points="430.5,115.921,434.5,106.921,430.5,110.921,426.5,106.921,430.5,115.921" style="stroke:#A80036;stroke-width:1.0;"/><!--MD5=[812ef8251b528d1a64980212cceda9f5]
link CreateTestTypeController to Company--><path codeLine="48" d="M430.5,202.33 C430.5,219.602 430.5,239.654 430.5,257.43 " fill="none" id="CreateTestTypeController-to-Company" style="stroke:#A80036;stroke-width:1.0;stroke-dasharray:7.0,7.0;"/><polygon fill="#A80036" points="430.5,262.868,434.5,253.868,430.5,257.868,426.5,253.868,430.5,262.868" style="stroke:#A80036;stroke-width:1.0;"/><!--MD5=[141c3afa12b2b3c0a39ffce56dbd5f19]
link Company to TestTypeStore--><path codeLine="49" d="M379.286,349.051 C352.175,371.311 318.638,398.848 289.897,422.446 " fill="none" id="Company-to-TestTypeStore" style="stroke:#A80036;stroke-width:1.0;"/><polygon fill="#A80036" points="285.693,425.898,295.1871,423.2783,289.5573,422.7251,290.1105,417.0954,285.693,425.898" style="stroke:#A80036;stroke-width:1.0;"/><text fill="#000000" font-family="sans-serif" font-size="13" lengthAdjust="spacing" textLength="30" x="342.5" y="392.0669">uses</text><text fill="#000000" font-family="sans-serif" font-size="13" lengthAdjust="spacing" textLength="8" x="362.1412" y="369.4671">1</text><text fill="#000000" font-family="sans-serif" font-size="13" lengthAdjust="spacing" textLength="8" x="285.4545" y="414.9289">1</text><!--MD5=[d53d7490e5836ca5709858d7326f212b]
link Company to ParameterCategoryStore--><path codeLine="50" d="M443.044,349.206 C449.566,371.866 457.421,400.34 463.5,426 C473.265,467.22 482.455,514.273 488.966,549.572 " fill="none" id="Company-to-ParameterCategoryStore" style="stroke:#A80036;stroke-width:1.0;"/><polygon fill="#A80036" points="489.907,554.693,492.2132,545.118,489.0026,549.7755,484.3451,546.5649,489.907,554.693" style="stroke:#A80036;stroke-width:1.0;"/><text fill="#000000" font-family="sans-serif" font-size="13" lengthAdjust="spacing" textLength="30" x="457.5" y="392.0669">uses</text><text fill="#000000" font-family="sans-serif" font-size="13" lengthAdjust="spacing" textLength="8" x="436.4057" y="369.3318">1</text><text fill="#000000" font-family="sans-serif" font-size="13" lengthAdjust="spacing" textLength="8" x="480.2148" y="544.0535">1</text><!--MD5=[3eebf0e5f359806b77b30e9524c37676]
link TestTypeStore to TestType--><path codeLine="51" d="M226.686,525.259 C226.851,568.605 227.093,632.137 227.27,678.67 " fill="none" id="TestTypeStore-to-TestType" style="stroke:#A80036;stroke-width:1.0;"/><polygon fill="#A80036" points="227.289,683.688,231.2555,674.6732,227.2704,678.688,223.2556,674.7029,227.289,683.688" style="stroke:#A80036;stroke-width:1.0;"/><text fill="#000000" font-family="sans-serif" font-size="13" lengthAdjust="spacing" textLength="58" x="228.5" y="609.0669">conducts</text><text fill="#000000" font-family="sans-serif" font-size="13" lengthAdjust="spacing" textLength="8" x="218.1497" y="545.3719">1</text><text fill="#000000" font-family="sans-serif" font-size="13" lengthAdjust="spacing" textLength="7" x="219.8367" y="672.9845">*</text><!--MD5=[d6274e3b73b5bc8f467c6cfbf5bf003e]
link ParameterCategoryStore to ParameterCategory--><path codeLine="52" d="M485.597,654.2 C470.143,712.532 444.425,809.599 429.104,867.4264 " fill="none" id="ParameterCategoryStore-to-ParameterCategory" style="stroke:#A80036;stroke-width:1.0;"/><polygon fill="#A80036" points="427.746,872.553,433.918,864.8779,429.0268,867.7198,426.1849,862.8287,427.746,872.553" style="stroke:#A80036;stroke-width:1.0;"/><text fill="#000000" font-family="sans-serif" font-size="13" lengthAdjust="spacing" textLength="44" x="477.5" y="744.5669">adopts</text><text fill="#000000" font-family="sans-serif" font-size="13" lengthAdjust="spacing" textLength="8" x="475.22" y="674.3046">1</text><text fill="#000000" font-family="sans-serif" font-size="13" lengthAdjust="spacing" textLength="8" x="420.8555" y="861.7971">1</text><!--MD5=[8aaf0efd5e2f3824be7ea3e488dcc283]
link TestType to ParameterCategory--><path codeLine="53" d="M287.301,796.055 C312.964,819.682 342.593,846.959 366.998,869.427 " fill="none" id="TestType-to-ParameterCategory" style="stroke:#A80036;stroke-width:1.0;"/><polygon fill="#A80036" points="370.869,872.9904,366.9576,863.9515,367.1908,869.6036,361.5387,869.8367,370.869,872.9904" style="stroke:#A80036;stroke-width:1.0;"/><text fill="#000000" font-family="sans-serif" font-size="13" lengthAdjust="spacing" textLength="32" x="334.5" y="839.0669">have</text><text fill="#000000" font-family="sans-serif" font-size="13" lengthAdjust="spacing" textLength="7" x="287.5146" y="816.2719">*</text><text fill="#000000" font-family="sans-serif" font-size="13" lengthAdjust="spacing" textLength="23" x="338.7637" y="861.9845">1..*</text><!--MD5=[a9983547c132db38d3bfe4f4f83eea2c]
@startuml
skinparam classAttributeIconSize 0

class Company
{
  -designation
  +getTestTypeStore()
  +getParameterCategoryStore()
}

class TestTypeStore {
  +createTestType(code, description, collectingMethod, parameterCategory)
  +validateTestType(tt)
  +saveTestType(tt)
  +getTestType(tt)
}

class ParameterCategoryStore {
  +createParameterCategory(code, designation, nshId)
  +validateParameterCategory(pc)
  +saveParameterCategory(pc)
  +getParameterCategory(pc)
}

class TestType {
  -code
  -description
  -collectingMethod
  -parameterCategory
  +TestType(code, description, collectingMethod, parameterCategory)
}

class ParameterCategory {
  -name
  -code
  +ParameterCategory(name, code)
}

class CreateTestTypeUI {
}

class CreateTestTypeController {
  +getTestType()
  +createTestType(code, description, collectingMethod, parameterCategory)
  +saveTestType()
}

CreateTestTypeUI ..> CreateTestTypeController
CreateTestTypeController ..> Company
Company "1" - -> "1" TestTypeStore : uses
Company "1" - -> "1" ParameterCategoryStore : uses
TestTypeStore "1" - -> "*" TestType : conducts
ParameterCategoryStore "1" - -> "1" ParameterCategory : adopts
TestType "*" - -> "1..*" ParameterCategory : have
@enduml

PlantUML version 1.2021.6beta2(Unknown compile time)
(GPL source distribution)
Java Runtime: Java(TM) SE Runtime Environment
JVM: Java HotSpot(TM) 64-Bit Server VM
Default Encoding: UTF-8
Language: en
Country: US
--></g></svg>