<?xml version="1.0" encoding="UTF-8" standalone="no"?>
<svg xmlns="http://www.w3.org/2000/svg" xmlns:xlink="http://www.w3.org/1999/xlink" contentScriptType="application/ecmascript" contentStyleType="text/css" height="264px" preserveAspectRatio="none" style="width:926px;height:264px;" version="1.1" viewBox="0 0 926 264" width="926px" zoomAndPan="magnify"><defs><filter height="300%" id="fato18nsuc2d5" width="300%" x="-1" y="-1"><feGaussianBlur result="blurOut" stdDeviation="2.0"/><feColorMatrix in="blurOut" result="blurOut2" type="matrix" values="0 0 0 0 0 0 0 0 0 0 0 0 0 0 0 0 0 0 .4 0"/><feOffset dx="4.0" dy="4.0" in="blurOut2" result="blurOut3"/><feBlend in="SourceGraphic" in2="blurOut3" mode="normal"/></filter></defs><g><!--MD5=[aeb3272166074d8737a70b61b1e71682]
class TestType--><rect codeLine="5" fill="#FEFECE" filter="url(#fato18nsuc2d5)" height="91.2188" id="TestType" style="stroke:#A80036;stroke-width:1.5;" width="128" x="404" y="96.5"/><ellipse cx="437" cy="112.5" fill="#ADD1B2" rx="11" ry="11" style="stroke:#A80036;stroke-width:1.0;"/><path d="M439.3438,108.1719 C438.4063,107.7344 437.8125,107.5938 436.9375,107.5938 C434.3125,107.5938 432.3125,109.6719 432.3125,112.3906 L432.3125,113.5156 C432.3125,116.0938 434.4219,117.9844 437.3125,117.9844 C438.5313,117.9844 439.6875,117.6875 440.4375,117.1406 C441.0156,116.7344 441.3438,116.2813 441.3438,115.8906 C441.3438,115.4375 440.9531,115.0469 440.4844,115.0469 C440.2656,115.0469 440.0625,115.125 439.875,115.3125 C439.4219,115.7969 439.4219,115.7969 439.2344,115.8906 C438.8125,116.1563 438.125,116.2813 437.3594,116.2813 C435.3125,116.2813 434.0156,115.1875 434.0156,113.4844 L434.0156,112.3906 C434.0156,110.6094 435.2656,109.2969 437,109.2969 C437.5781,109.2969 438.1875,109.4531 438.6563,109.7031 C439.1406,109.9844 439.3125,110.2031 439.4063,110.6094 C439.4688,111.0156 439.5,111.1406 439.6406,111.2656 C439.7813,111.4063 440.0156,111.5156 440.2344,111.5156 C440.5,111.5156 440.7656,111.375 440.9375,111.1563 C441.0469,111 441.0781,110.8125 441.0781,110.3906 L441.0781,108.9688 C441.0781,108.5313 441.0625,108.4063 440.9688,108.25 C440.8125,107.9844 440.5313,107.8438 440.2344,107.8438 C439.9375,107.8438 439.7344,107.9375 439.5156,108.25 L439.3438,108.1719 Z " fill="#000000"/><text fill="#000000" font-family="sans-serif" font-size="12" lengthAdjust="spacing" textLength="56" x="455" y="116.6543">TestType</text><line style="stroke:#A80036;stroke-width:1.5;" x1="405" x2="531" y1="128.5" y2="128.5"/><text fill="#000000" font-family="sans-serif" font-size="11" lengthAdjust="spacing" textLength="32" x="410" y="142.7104">-code</text><text fill="#000000" font-family="sans-serif" font-size="11" lengthAdjust="spacing" textLength="66" x="410" y="155.5151">-description</text><text fill="#000000" font-family="sans-serif" font-size="11" lengthAdjust="spacing" textLength="100" x="410" y="168.3198">-collectingMethod</text><text fill="#000000" font-family="sans-serif" font-size="11" lengthAdjust="spacing" textLength="116" x="410" y="181.1245">-parameterCategory</text><!--MD5=[02e4b9b7573f1156f41e60aa5b4e25a4]
class Company--><rect codeLine="12" fill="#FEFECE" filter="url(#fato18nsuc2d5)" height="52.8047" id="Company" style="stroke:#A80036;stroke-width:1.5;" width="88" x="7" y="115.5"/><ellipse cx="22" cy="131.5" fill="#ADD1B2" rx="11" ry="11" style="stroke:#A80036;stroke-width:1.0;"/><path d="M24.3438,127.1719 C23.4063,126.7344 22.8125,126.5938 21.9375,126.5938 C19.3125,126.5938 17.3125,128.6719 17.3125,131.3906 L17.3125,132.5156 C17.3125,135.0938 19.4219,136.9844 22.3125,136.9844 C23.5313,136.9844 24.6875,136.6875 25.4375,136.1406 C26.0156,135.7344 26.3438,135.2813 26.3438,134.8906 C26.3438,134.4375 25.9531,134.0469 25.4844,134.0469 C25.2656,134.0469 25.0625,134.125 24.875,134.3125 C24.4219,134.7969 24.4219,134.7969 24.2344,134.8906 C23.8125,135.1563 23.125,135.2813 22.3594,135.2813 C20.3125,135.2813 19.0156,134.1875 19.0156,132.4844 L19.0156,131.3906 C19.0156,129.6094 20.2656,128.2969 22,128.2969 C22.5781,128.2969 23.1875,128.4531 23.6563,128.7031 C24.1406,128.9844 24.3125,129.2031 24.4063,129.6094 C24.4688,130.0156 24.5,130.1406 24.6406,130.2656 C24.7813,130.4063 25.0156,130.5156 25.2344,130.5156 C25.5,130.5156 25.7656,130.375 25.9375,130.1563 C26.0469,130 26.0781,129.8125 26.0781,129.3906 L26.0781,127.9688 C26.0781,127.5313 26.0625,127.4063 25.9688,127.25 C25.8125,126.9844 25.5313,126.8438 25.2344,126.8438 C24.9375,126.8438 24.7344,126.9375 24.5156,127.25 L24.3438,127.1719 Z " fill="#000000"/><text fill="#000000" font-family="sans-serif" font-size="12" lengthAdjust="spacing" textLength="56" x="36" y="135.6543">Company</text><line style="stroke:#A80036;stroke-width:1.5;" x1="8" x2="94" y1="147.5" y2="147.5"/><text fill="#000000" font-family="sans-serif" font-size="11" lengthAdjust="spacing" textLength="70" x="13" y="161.7104">-designation</text><!--MD5=[df38be88ccee13e832d6fafd6288a4ca]
class Test--><rect codeLine="16" fill="#FEFECE" filter="url(#fato18nsuc2d5)" height="40" id="Test" style="stroke:#A80036;stroke-width:1.5;" width="58" x="236.5" y="179"/><ellipse cx="251.5" cy="195" fill="#ADD1B2" rx="11" ry="11" style="stroke:#A80036;stroke-width:1.0;"/><path d="M253.8438,190.6719 C252.9063,190.2344 252.3125,190.0938 251.4375,190.0938 C248.8125,190.0938 246.8125,192.1719 246.8125,194.8906 L246.8125,196.0156 C246.8125,198.5938 248.9219,200.4844 251.8125,200.4844 C253.0313,200.4844 254.1875,200.1875 254.9375,199.6406 C255.5156,199.2344 255.8438,198.7813 255.8438,198.3906 C255.8438,197.9375 255.4531,197.5469 254.9844,197.5469 C254.7656,197.5469 254.5625,197.625 254.375,197.8125 C253.9219,198.2969 253.9219,198.2969 253.7344,198.3906 C253.3125,198.6563 252.625,198.7813 251.8594,198.7813 C249.8125,198.7813 248.5156,197.6875 248.5156,195.9844 L248.5156,194.8906 C248.5156,193.1094 249.7656,191.7969 251.5,191.7969 C252.0781,191.7969 252.6875,191.9531 253.1563,192.2031 C253.6406,192.4844 253.8125,192.7031 253.9063,193.1094 C253.9688,193.5156 254,193.6406 254.1406,193.7656 C254.2813,193.9063 254.5156,194.0156 254.7344,194.0156 C255,194.0156 255.2656,193.875 255.4375,193.6563 C255.5469,193.5 255.5781,193.3125 255.5781,192.8906 L255.5781,191.4688 C255.5781,191.0313 255.5625,190.9063 255.4688,190.75 C255.3125,190.4844 255.0313,190.3438 254.7344,190.3438 C254.4375,190.3438 254.2344,190.4375 254.0156,190.75 L253.8438,190.6719 Z " fill="#000000"/><text fill="#000000" font-family="sans-serif" font-size="12" lengthAdjust="spacing" textLength="26" x="265.5" y="199.1543">Test</text><line style="stroke:#A80036;stroke-width:1.5;" x1="237.5" x2="293.5" y1="211" y2="211"/><!--MD5=[da547346deef918ea16944ba046651ef]
class Administrator--><rect codeLine="19" fill="#FEFECE" filter="url(#fato18nsuc2d5)" height="129.6328" id="Administrator" style="stroke:#A80036;stroke-width:1.5;" width="236" x="676" y="7"/><ellipse cx="749.75" cy="23" fill="#ADD1B2" rx="11" ry="11" style="stroke:#A80036;stroke-width:1.0;"/><path d="M752.0938,18.6719 C751.1563,18.2344 750.5625,18.0938 749.6875,18.0938 C747.0625,18.0938 745.0625,20.1719 745.0625,22.8906 L745.0625,24.0156 C745.0625,26.5938 747.1719,28.4844 750.0625,28.4844 C751.2813,28.4844 752.4375,28.1875 753.1875,27.6406 C753.7656,27.2344 754.0938,26.7813 754.0938,26.3906 C754.0938,25.9375 753.7031,25.5469 753.2344,25.5469 C753.0156,25.5469 752.8125,25.625 752.625,25.8125 C752.1719,26.2969 752.1719,26.2969 751.9844,26.3906 C751.5625,26.6563 750.875,26.7813 750.1094,26.7813 C748.0625,26.7813 746.7656,25.6875 746.7656,23.9844 L746.7656,22.8906 C746.7656,21.1094 748.0156,19.7969 749.75,19.7969 C750.3281,19.7969 750.9375,19.9531 751.4063,20.2031 C751.8906,20.4844 752.0625,20.7031 752.1563,21.1094 C752.2188,21.5156 752.25,21.6406 752.3906,21.7656 C752.5313,21.9063 752.7656,22.0156 752.9844,22.0156 C753.25,22.0156 753.5156,21.875 753.6875,21.6563 C753.7969,21.5 753.8281,21.3125 753.8281,20.8906 L753.8281,19.4688 C753.8281,19.0313 753.8125,18.9063 753.7188,18.75 C753.5625,18.4844 753.2813,18.3438 752.9844,18.3438 C752.6875,18.3438 752.4844,18.4375 752.2656,18.75 L752.0938,18.6719 Z " fill="#000000"/><text fill="#000000" font-family="sans-serif" font-size="12" lengthAdjust="spacing" textLength="80" x="770.25" y="27.1543">Administrator</text><line style="stroke:#A80036;stroke-width:1.5;" x1="677" x2="911" y1="39" y2="39"/><text fill="#000000" font-family="sans-serif" font-size="11" lengthAdjust="spacing" textLength="75" x="682" y="53.2104">-employeeID</text><text fill="#000000" font-family="sans-serif" font-size="11" lengthAdjust="spacing" textLength="99" x="682" y="66.0151">-organizationRole</text><text fill="#000000" font-family="sans-serif" font-size="11" lengthAdjust="spacing" textLength="37" x="682" y="78.8198">-name</text><text fill="#000000" font-family="sans-serif" font-size="11" lengthAdjust="spacing" textLength="49" x="682" y="91.6245">-address</text><text fill="#000000" font-family="sans-serif" font-size="11" lengthAdjust="spacing" textLength="85" x="682" y="104.4292">-phoneNumber</text><text fill="#000000" font-family="sans-serif" font-size="11" lengthAdjust="spacing" textLength="34" x="682" y="117.2339">-eMail</text><text fill="#000000" font-family="sans-serif" font-size="11" lengthAdjust="spacing" textLength="224" x="682" y="130.0386">-standardOcupationalClassificationCode</text><!--MD5=[36afb6bbd95a8ac778c4537c55a683d5]
class ParameterCategory--><rect codeLine="29" fill="#FEFECE" filter="url(#fato18nsuc2d5)" height="78.4141" id="ParameterCategory" style="stroke:#A80036;stroke-width:1.5;" width="148" x="720" y="172"/><ellipse cx="735" cy="188" fill="#ADD1B2" rx="11" ry="11" style="stroke:#A80036;stroke-width:1.0;"/><path d="M737.3438,183.6719 C736.4063,183.2344 735.8125,183.0938 734.9375,183.0938 C732.3125,183.0938 730.3125,185.1719 730.3125,187.8906 L730.3125,189.0156 C730.3125,191.5938 732.4219,193.4844 735.3125,193.4844 C736.5313,193.4844 737.6875,193.1875 738.4375,192.6406 C739.0156,192.2344 739.3438,191.7813 739.3438,191.3906 C739.3438,190.9375 738.9531,190.5469 738.4844,190.5469 C738.2656,190.5469 738.0625,190.625 737.875,190.8125 C737.4219,191.2969 737.4219,191.2969 737.2344,191.3906 C736.8125,191.6563 736.125,191.7813 735.3594,191.7813 C733.3125,191.7813 732.0156,190.6875 732.0156,188.9844 L732.0156,187.8906 C732.0156,186.1094 733.2656,184.7969 735,184.7969 C735.5781,184.7969 736.1875,184.9531 736.6563,185.2031 C737.1406,185.4844 737.3125,185.7031 737.4063,186.1094 C737.4688,186.5156 737.5,186.6406 737.6406,186.7656 C737.7813,186.9063 738.0156,187.0156 738.2344,187.0156 C738.5,187.0156 738.7656,186.875 738.9375,186.6563 C739.0469,186.5 739.0781,186.3125 739.0781,185.8906 L739.0781,184.4688 C739.0781,184.0313 739.0625,183.9063 738.9688,183.75 C738.8125,183.4844 738.5313,183.3438 738.2344,183.3438 C737.9375,183.3438 737.7344,183.4375 737.5156,183.75 L737.3438,183.6719 Z " fill="#000000"/><text fill="#000000" font-family="sans-serif" font-size="12" lengthAdjust="spacing" textLength="116" x="749" y="192.1543">ParameterCategory</text><line style="stroke:#A80036;stroke-width:1.5;" x1="721" x2="867" y1="204" y2="204"/><text fill="#000000" font-family="sans-serif" font-size="11" lengthAdjust="spacing" textLength="32" x="726" y="218.2104">-code</text><text fill="#000000" font-family="sans-serif" font-size="11" lengthAdjust="spacing" textLength="66" x="726" y="231.0151">-description</text><text fill="#000000" font-family="sans-serif" font-size="11" lengthAdjust="spacing" textLength="34" x="726" y="243.8198">-nshId</text><!--MD5=[742a261f27a3dcd734c626287d811acd]
link Company to TestType--><path codeLine="34" d="M95.2168,139.24 C105.006,138.724 115.357,138.264 125,138 C222.345,135.335 335.324,137.726 403.955,139.789 " fill="none" id="Company-TestType" style="stroke:#A80036;stroke-width:1.0;"/><polygon fill="#000000" points="239,128.5753,229.9601,125.6203,229.9497,131.4981,239,128.5753" style="stroke:#000000;stroke-width:1.0;"/><text fill="#000000" font-family="sans-serif" font-size="13" lengthAdjust="spacing" textLength="58" x="243" y="133.0669">conducts</text><text fill="#000000" font-family="sans-serif" font-size="13" lengthAdjust="spacing" textLength="8" x="102.9014" y="152.0885">1</text><text fill="#000000" font-family="sans-serif" font-size="13" lengthAdjust="spacing" textLength="7" x="389.1451" y="152.4625">*</text><!--MD5=[e981d4f96c4342412d1e68160b30cf70]
link Test to TestType--><path codeLine="35" d="M294.802,190.9542 C322.975,182.9447 367.173,170.3799 403.736,159.9853 " fill="none" id="Test-TestType" style="stroke:#A80036;stroke-width:1.0;"/><polygon fill="#000000" points="341.8094,159.1991,332.3054,158.8456,333.9128,164.4995,341.8094,159.1991" style="stroke:#000000;stroke-width:1.0;"/><text fill="#000000" font-family="sans-serif" font-size="13" lengthAdjust="spacing" textLength="27" x="346" y="165.0669">is of</text><text fill="#000000" font-family="sans-serif" font-size="13" lengthAdjust="spacing" textLength="7" x="302.3875" y="202.9102">*</text><text fill="#000000" font-family="sans-serif" font-size="13" lengthAdjust="spacing" textLength="8" x="387.843" y="174.994">1</text><!--MD5=[7e4bc624457760b649895ff2ead938fa]
link Company to Test--><path codeLine="36" d="M95.0025,153.5348 C137.206,164.8554 200.343,181.7908 236.46,191.4786 " fill="none" id="Company-Test" style="stroke:#A80036;stroke-width:1.0;"/><polygon fill="#000000" points="134.8293,155.8618,126.8544,150.6798,125.3316,156.357,134.8293,155.8618" style="stroke:#000000;stroke-width:1.0;"/><text fill="#000000" font-family="sans-serif" font-size="13" lengthAdjust="spacing" textLength="59" x="139" y="159.0669">performs</text><text fill="#000000" font-family="sans-serif" font-size="13" lengthAdjust="spacing" textLength="8" x="102.9529" y="168.7815">1</text><text fill="#000000" font-family="sans-serif" font-size="13" lengthAdjust="spacing" textLength="7" x="221.5284" y="203.5565">*</text><!--MD5=[0985ee834cc881275852ed47ce1e01f6]
link TestType to Administrator--><path codeLine="37" d="M532.24,128.337 C573.031,119.524 627.332,107.793 675.818,97.317 " fill="none" id="TestType-Administrator" style="stroke:#A80036;stroke-width:1.0;"/><polygon fill="#000000" points="571.8872,95.5105,562.4255,94.548,563.6668,100.2933,571.8872,95.5105" style="stroke:#000000;stroke-width:1.0;"/><text fill="#000000" font-family="sans-serif" font-size="13" lengthAdjust="spacing" textLength="69" x="576" y="101.0669">created by</text><text fill="#000000" font-family="sans-serif" font-size="13" lengthAdjust="spacing" textLength="7" x="540.0724" y="139.6863">*</text><text fill="#000000" font-family="sans-serif" font-size="13" lengthAdjust="spacing" textLength="8" x="659.9907" y="111.5022">1</text><!--MD5=[8aaf0efd5e2f3824be7ea3e488dcc283]
link TestType to ParameterCategory--><path codeLine="38" d="M532.24,155.4677 C586.014,166.9197 663.266,183.3715 719.726,195.3954 " fill="none" id="TestType-ParameterCategory" style="stroke:#A80036;stroke-width:1.0;"/><polygon fill="#000000" points="590.3903,155.6079,582.1558,150.8494,580.9315,156.5983,590.3903,155.6079" style="stroke:#000000;stroke-width:1.0;"/><text fill="#000000" font-family="sans-serif" font-size="13" lengthAdjust="spacing" textLength="32" x="594.5" y="159.0669">have</text><text fill="#000000" font-family="sans-serif" font-size="13" lengthAdjust="spacing" textLength="7" x="540.0724" y="169.954">*</text><text fill="#000000" font-family="sans-serif" font-size="13" lengthAdjust="spacing" textLength="23" x="689.0868" y="206.728">1..*</text><!--MD5=[80f25b329fa26558a97915d25a13acee]
@startuml
skinparam classAttributeIconSize 0
hide methods
left to right direction

class TestType {
  -code
  -description
  -collectingMethod
  -parameterCategory
}

class Company {
  -designation
}

class Test {
}

class Administrator {
  -employeeID
  -organizationRole
  -name
  -address
  -phoneNumber
  -eMail
  -standardOcupationalClassificationCode
}

class ParameterCategory {
  -code
  -description
  -nshId
}
Company "1" - - "*" TestType : conducts >
Test "*" - - "1" TestType : is of >
Company "1" - - "*" Test : performs >
TestType "*" - - "1" Administrator : created by >
TestType "*" - - "1..*" ParameterCategory : have >
@enduml

PlantUML version 1.2021.6beta2(Unknown compile time)
(GPL source distribution)
Java Runtime: Java(TM) SE Runtime Environment
JVM: Java HotSpot(TM) 64-Bit Server VM
Default Encoding: UTF-8
Language: en
Country: US
--></g></svg>