<?xml version="1.0" encoding="UTF-8" standalone="no"?>
<svg xmlns="http://www.w3.org/2000/svg" xmlns:xlink="http://www.w3.org/1999/xlink" contentScriptType="application/ecmascript" contentStyleType="text/css" height="501px" preserveAspectRatio="none" style="width:304px;height:501px;" version="1.1" viewBox="0 0 304 501" width="304px" zoomAndPan="magnify"><defs><filter height="300%" id="fk5ujcg7p4a56" width="300%" x="-1" y="-1"><feGaussianBlur result="blurOut" stdDeviation="2.0"/><feColorMatrix in="blurOut" result="blurOut2" type="matrix" values="0 0 0 0 0 0 0 0 0 0 0 0 0 0 0 0 0 0 .4 0"/><feOffset dx="4.0" dy="4.0" in="blurOut2" result="blurOut3"/><feBlend in="SourceGraphic" in2="blurOut3" mode="normal"/></filter></defs><g><!--MD5=[480cbedfbae7db94ac6eaf129ef11b00]
class CollectingMethod--><rect codeLine="3" fill="#FEFECE" filter="url(#fk5ujcg7p4a56)" height="78.4141" id="CollectingMethod" style="stroke:#A80036;stroke-width:1.5;" width="136" x="7" y="409"/><ellipse cx="22" cy="425" fill="#EB937F" rx="11" ry="11" style="stroke:#A80036;stroke-width:1.0;"/><path d="M20.7969,425.875 L22.25,425.875 L22.25,425.9844 C22.25,426.3906 22.2813,426.5469 22.3594,426.7031 C22.5156,426.9531 22.7969,427.1094 23.0938,427.1094 C23.3438,427.1094 23.6094,426.9688 23.7656,426.75 C23.8906,426.5938 23.9219,426.4375 23.9219,425.9844 L23.9219,424.0625 C23.9219,423.9063 23.9219,423.8594 23.9063,423.7031 C23.8438,423.2344 23.5313,422.9219 23.0781,422.9219 C22.8281,422.9219 22.5625,423.0625 22.3906,423.2813 C22.2813,423.4531 22.25,423.6094 22.25,424.0625 L22.25,424.1875 L20.7969,424.1875 L20.7969,421.7813 L24.7813,421.7813 L24.7813,422.6406 C24.7813,423.0469 24.8125,423.2188 24.8906,423.375 C25.0625,423.625 25.3438,423.7813 25.625,423.7813 C25.8906,423.7813 26.1563,423.6406 26.3281,423.4219 C26.4375,423.25 26.4688,423.1094 26.4688,422.6406 L26.4688,420.0938 L18.8438,420.0938 C18.4063,420.0938 18.2813,420.1094 18.125,420.2031 C17.875,420.3594 17.7188,420.6563 17.7188,420.9375 C17.7188,421.2188 17.8594,421.4688 18.0781,421.6406 C18.2344,421.75 18.4219,421.7813 18.8438,421.7813 L19.0938,421.7813 L19.0938,428.2969 L18.8438,428.2969 C18.4375,428.2969 18.2813,428.3125 18.125,428.4219 C17.875,428.5938 17.7188,428.8594 17.7188,429.1563 C17.7188,429.4219 17.8594,429.6719 18.0781,429.8281 C18.2188,429.9531 18.4531,430 18.8438,430 L26.8438,430 L26.8438,427.4219 C26.8438,426.9844 26.8125,426.8438 26.7344,426.6875 C26.5625,426.4375 26.2813,426.2813 26,426.2813 C25.7344,426.2813 25.4688,426.3906 25.2969,426.6406 C25.1875,426.7969 25.1563,426.9375 25.1563,427.4219 L25.1563,428.2969 L20.7969,428.2969 L20.7969,425.875 Z " fill="#000000"/><text fill="#000000" font-family="sans-serif" font-size="12" lengthAdjust="spacing" textLength="104" x="36" y="429.1543">CollectingMethod</text><line style="stroke:#A80036;stroke-width:1.5;" x1="8" x2="142" y1="441" y2="441"/><text fill="#000000" font-family="sans-serif" font-size="11" lengthAdjust="spacing" textLength="35" x="13" y="455.2104">-blood</text><text fill="#000000" font-family="sans-serif" font-size="11" lengthAdjust="spacing" textLength="33" x="13" y="468.0151">-urine</text><text fill="#000000" font-family="sans-serif" font-size="11" lengthAdjust="spacing" textLength="58" x="13" y="480.8198">-swabTest</text><!--MD5=[aeb3272166074d8737a70b61b1e71682]
class TestType--><rect codeLine="9" fill="#FEFECE" filter="url(#fk5ujcg7p4a56)" height="78.4141" id="TestType" style="stroke:#A80036;stroke-width:1.5;" width="214" x="47" y="254"/><ellipse cx="121.75" cy="270" fill="#ADD1B2" rx="11" ry="11" style="stroke:#A80036;stroke-width:1.0;"/><path d="M124.0938,265.6719 C123.1563,265.2344 122.5625,265.0938 121.6875,265.0938 C119.0625,265.0938 117.0625,267.1719 117.0625,269.8906 L117.0625,271.0156 C117.0625,273.5938 119.1719,275.4844 122.0625,275.4844 C123.2813,275.4844 124.4375,275.1875 125.1875,274.6406 C125.7656,274.2344 126.0938,273.7813 126.0938,273.3906 C126.0938,272.9375 125.7031,272.5469 125.2344,272.5469 C125.0156,272.5469 124.8125,272.625 124.625,272.8125 C124.1719,273.2969 124.1719,273.2969 123.9844,273.3906 C123.5625,273.6563 122.875,273.7813 122.1094,273.7813 C120.0625,273.7813 118.7656,272.6875 118.7656,270.9844 L118.7656,269.8906 C118.7656,268.1094 120.0156,266.7969 121.75,266.7969 C122.3281,266.7969 122.9375,266.9531 123.4063,267.2031 C123.8906,267.4844 124.0625,267.7031 124.1563,268.1094 C124.2188,268.5156 124.25,268.6406 124.3906,268.7656 C124.5313,268.9063 124.7656,269.0156 124.9844,269.0156 C125.25,269.0156 125.5156,268.875 125.6875,268.6563 C125.7969,268.5 125.8281,268.3125 125.8281,267.8906 L125.8281,266.4688 C125.8281,266.0313 125.8125,265.9063 125.7188,265.75 C125.5625,265.4844 125.2813,265.3438 124.9844,265.3438 C124.6875,265.3438 124.4844,265.4375 124.2656,265.75 L124.0938,265.6719 Z " fill="#000000"/><text fill="#000000" font-family="sans-serif" font-size="12" lengthAdjust="spacing" textLength="56" x="142.25" y="274.1543">TestType</text><line style="stroke:#A80036;stroke-width:1.5;" x1="48" x2="260" y1="286" y2="286"/><text fill="#000000" font-family="sans-serif" font-size="11" lengthAdjust="spacing" textLength="50" x="53" y="300.2104">-int code</text><text fill="#000000" font-family="sans-serif" font-size="11" lengthAdjust="spacing" textLength="103" x="53" y="313.0151">-String description</text><text fill="#000000" font-family="sans-serif" font-size="11" lengthAdjust="spacing" textLength="202" x="53" y="325.8198">-CollectingMethod collectingMethod</text><!--MD5=[02e4b9b7573f1156f41e60aa5b4e25a4]
class Company--><rect codeLine="15" fill="#FEFECE" filter="url(#fk5ujcg7p4a56)" height="52.8047" id="Company" style="stroke:#A80036;stroke-width:1.5;" width="88" x="126" y="7"/><ellipse cx="141" cy="23" fill="#ADD1B2" rx="11" ry="11" style="stroke:#A80036;stroke-width:1.0;"/><path d="M143.3438,18.6719 C142.4063,18.2344 141.8125,18.0938 140.9375,18.0938 C138.3125,18.0938 136.3125,20.1719 136.3125,22.8906 L136.3125,24.0156 C136.3125,26.5938 138.4219,28.4844 141.3125,28.4844 C142.5313,28.4844 143.6875,28.1875 144.4375,27.6406 C145.0156,27.2344 145.3438,26.7813 145.3438,26.3906 C145.3438,25.9375 144.9531,25.5469 144.4844,25.5469 C144.2656,25.5469 144.0625,25.625 143.875,25.8125 C143.4219,26.2969 143.4219,26.2969 143.2344,26.3906 C142.8125,26.6563 142.125,26.7813 141.3594,26.7813 C139.3125,26.7813 138.0156,25.6875 138.0156,23.9844 L138.0156,22.8906 C138.0156,21.1094 139.2656,19.7969 141,19.7969 C141.5781,19.7969 142.1875,19.9531 142.6563,20.2031 C143.1406,20.4844 143.3125,20.7031 143.4063,21.1094 C143.4688,21.5156 143.5,21.6406 143.6406,21.7656 C143.7813,21.9063 144.0156,22.0156 144.2344,22.0156 C144.5,22.0156 144.7656,21.875 144.9375,21.6563 C145.0469,21.5 145.0781,21.3125 145.0781,20.8906 L145.0781,19.4688 C145.0781,19.0313 145.0625,18.9063 144.9688,18.75 C144.8125,18.4844 144.5313,18.3438 144.2344,18.3438 C143.9375,18.3438 143.7344,18.4375 143.5156,18.75 L143.3438,18.6719 Z " fill="#000000"/><text fill="#000000" font-family="sans-serif" font-size="12" lengthAdjust="spacing" textLength="56" x="155" y="27.1543">Company</text><line style="stroke:#A80036;stroke-width:1.5;" x1="127" x2="213" y1="39" y2="39"/><text fill="#000000" font-family="sans-serif" font-size="11" lengthAdjust="spacing" textLength="70" x="132" y="53.2104">-designation</text><!--MD5=[df38be88ccee13e832d6fafd6288a4ca]
class Test--><rect codeLine="19" fill="#FEFECE" filter="url(#fk5ujcg7p4a56)" height="40" id="Test" style="stroke:#A80036;stroke-width:1.5;" width="58" x="220" y="137"/><ellipse cx="235" cy="153" fill="#ADD1B2" rx="11" ry="11" style="stroke:#A80036;stroke-width:1.0;"/><path d="M237.3438,148.6719 C236.4063,148.2344 235.8125,148.0938 234.9375,148.0938 C232.3125,148.0938 230.3125,150.1719 230.3125,152.8906 L230.3125,154.0156 C230.3125,156.5938 232.4219,158.4844 235.3125,158.4844 C236.5313,158.4844 237.6875,158.1875 238.4375,157.6406 C239.0156,157.2344 239.3438,156.7813 239.3438,156.3906 C239.3438,155.9375 238.9531,155.5469 238.4844,155.5469 C238.2656,155.5469 238.0625,155.625 237.875,155.8125 C237.4219,156.2969 237.4219,156.2969 237.2344,156.3906 C236.8125,156.6563 236.125,156.7813 235.3594,156.7813 C233.3125,156.7813 232.0156,155.6875 232.0156,153.9844 L232.0156,152.8906 C232.0156,151.1094 233.2656,149.7969 235,149.7969 C235.5781,149.7969 236.1875,149.9531 236.6563,150.2031 C237.1406,150.4844 237.3125,150.7031 237.4063,151.1094 C237.4688,151.5156 237.5,151.6406 237.6406,151.7656 C237.7813,151.9063 238.0156,152.0156 238.2344,152.0156 C238.5,152.0156 238.7656,151.875 238.9375,151.6563 C239.0469,151.5 239.0781,151.3125 239.0781,150.8906 L239.0781,149.4688 C239.0781,149.0313 239.0625,148.9063 238.9688,148.75 C238.8125,148.4844 238.5313,148.3438 238.2344,148.3438 C237.9375,148.3438 237.7344,148.4375 237.5156,148.75 L237.3438,148.6719 Z " fill="#000000"/><text fill="#000000" font-family="sans-serif" font-size="12" lengthAdjust="spacing" textLength="26" x="249" y="157.1543">Test</text><line style="stroke:#A80036;stroke-width:1.5;" x1="221" x2="277" y1="169" y2="169"/><!--MD5=[da547346deef918ea16944ba046651ef]
class Administrator--><rect codeLine="22" fill="#FEFECE" filter="url(#fk5ujcg7p4a56)" height="40" id="Administrator" style="stroke:#A80036;stroke-width:1.5;" width="112" x="178" y="428"/><ellipse cx="193" cy="444" fill="#ADD1B2" rx="11" ry="11" style="stroke:#A80036;stroke-width:1.0;"/><path d="M195.3438,439.6719 C194.4063,439.2344 193.8125,439.0938 192.9375,439.0938 C190.3125,439.0938 188.3125,441.1719 188.3125,443.8906 L188.3125,445.0156 C188.3125,447.5938 190.4219,449.4844 193.3125,449.4844 C194.5313,449.4844 195.6875,449.1875 196.4375,448.6406 C197.0156,448.2344 197.3438,447.7813 197.3438,447.3906 C197.3438,446.9375 196.9531,446.5469 196.4844,446.5469 C196.2656,446.5469 196.0625,446.625 195.875,446.8125 C195.4219,447.2969 195.4219,447.2969 195.2344,447.3906 C194.8125,447.6563 194.125,447.7813 193.3594,447.7813 C191.3125,447.7813 190.0156,446.6875 190.0156,444.9844 L190.0156,443.8906 C190.0156,442.1094 191.2656,440.7969 193,440.7969 C193.5781,440.7969 194.1875,440.9531 194.6563,441.2031 C195.1406,441.4844 195.3125,441.7031 195.4063,442.1094 C195.4688,442.5156 195.5,442.6406 195.6406,442.7656 C195.7813,442.9063 196.0156,443.0156 196.2344,443.0156 C196.5,443.0156 196.7656,442.875 196.9375,442.6563 C197.0469,442.5 197.0781,442.3125 197.0781,441.8906 L197.0781,440.4688 C197.0781,440.0313 197.0625,439.9063 196.9688,439.75 C196.8125,439.4844 196.5313,439.3438 196.2344,439.3438 C195.9375,439.3438 195.7344,439.4375 195.5156,439.75 L195.3438,439.6719 Z " fill="#000000"/><text fill="#000000" font-family="sans-serif" font-size="12" lengthAdjust="spacing" textLength="80" x="207" y="448.1543">Administrator</text><line style="stroke:#A80036;stroke-width:1.5;" x1="179" x2="289" y1="460" y2="460"/><!--MD5=[f82686d89c0d6694b448608866eb139d]
link TestType to CollectingMethod--><path codeLine="25" d="M134.269,332.214 C122.958,354.12 108.732,381.67 97.0537,404.2884 " fill="none" id="TestType-to-CollectingMethod" style="stroke:#A80036;stroke-width:1.0;"/><polygon fill="#A80036" points="94.7535,408.7432,102.4368,402.5815,97.0475,404.3005,95.3285,398.9111,94.7535,408.7432" style="stroke:#A80036;stroke-width:1.0;"/><text fill="#000000" font-family="sans-serif" font-size="13" lengthAdjust="spacing" textLength="32" x="118" y="375.0669">have</text><text fill="#000000" font-family="sans-serif" font-size="13" lengthAdjust="spacing" textLength="7" x="123.131" y="352.5768">*</text><text fill="#000000" font-family="sans-serif" font-size="13" lengthAdjust="spacing" textLength="8" x="89.3627" y="398.0427">1</text><!--MD5=[742a261f27a3dcd734c626287d811acd]
link Company to TestType--><path codeLine="26" d="M161.24,60.252 C154.747,80.763 146.45,110.355 143,137 C138.136,174.557 141.914,217.532 146.319,248.69 " fill="none" id="Company-to-TestType" style="stroke:#A80036;stroke-width:1.0;"/><polygon fill="#A80036" points="147.088,253.976,149.7505,244.4939,146.3681,249.0281,141.8339,245.6457,147.088,253.976" style="stroke:#A80036;stroke-width:1.0;"/><text fill="#000000" font-family="sans-serif" font-size="13" lengthAdjust="spacing" textLength="58" x="144" y="161.5669">conducts</text><text fill="#000000" font-family="sans-serif" font-size="13" lengthAdjust="spacing" textLength="8" x="150.4488" y="79.8474">1</text><text fill="#000000" font-family="sans-serif" font-size="13" lengthAdjust="spacing" textLength="7" x="138.2984" y="243.0224">*</text><!--MD5=[e981d4f96c4342412d1e68160b30cf70]
link Test to TestType--><path codeLine="27" d="M235.389,177.199 C222.051,196.012 201.276,225.316 184.054,249.608 " fill="none" id="Test-to-TestType" style="stroke:#A80036;stroke-width:1.0;"/><polygon fill="#A80036" points="181.103,253.771,189.5724,248.7442,183.9957,249.6927,183.0472,244.1159,181.103,253.771" style="stroke:#A80036;stroke-width:1.0;"/><text fill="#000000" font-family="sans-serif" font-size="13" lengthAdjust="spacing" textLength="27" x="213" y="220.0669">is of</text><text fill="#000000" font-family="sans-serif" font-size="13" lengthAdjust="spacing" textLength="7" x="223.5765" y="197.0749">*</text><text fill="#000000" font-family="sans-serif" font-size="13" lengthAdjust="spacing" textLength="8" x="176.9294" y="243.0751">1</text><!--MD5=[7e4bc624457760b649895ff2ead938fa]
link Company to Test--><path codeLine="28" d="M186.754,60.267 C200.623,81.598 220.168,111.657 233.639,132.375 " fill="none" id="Company-to-Test" style="stroke:#A80036;stroke-width:1.0;"/><polygon fill="#A80036" points="236.417,136.647,234.8638,126.9214,233.6912,132.4554,228.1572,131.2827,236.417,136.647" style="stroke:#A80036;stroke-width:1.0;"/><text fill="#000000" font-family="sans-serif" font-size="13" lengthAdjust="spacing" textLength="59" x="217" y="103.0669">performs</text><text fill="#000000" font-family="sans-serif" font-size="13" lengthAdjust="spacing" textLength="8" x="181.5439" y="79.8657">1</text><text fill="#000000" font-family="sans-serif" font-size="13" lengthAdjust="spacing" textLength="7" x="224.8937" y="125.8989">*</text><!--MD5=[0985ee834cc881275852ed47ce1e01f6]
link TestType to Administrator--><path codeLine="29" d="M173.981,332.214 C188.906,360.758 208.842,398.8852 221.554,423.1977 " fill="none" id="TestType-to-Administrator" style="stroke:#A80036;stroke-width:1.0;"/><polygon fill="#A80036" points="223.997,427.8691,223.3721,418.0401,221.6805,423.4381,216.2825,421.7465,223.997,427.8691" style="stroke:#A80036;stroke-width:1.0;"/><text fill="#000000" font-family="sans-serif" font-size="13" lengthAdjust="spacing" textLength="69" x="197" y="375.0669">created by</text><text fill="#000000" font-family="sans-serif" font-size="13" lengthAdjust="spacing" textLength="7" x="169.9167" y="352.5768">*</text><text fill="#000000" font-family="sans-serif" font-size="13" lengthAdjust="spacing" textLength="8" x="211.8836" y="416.8389">1</text><!--MD5=[1fef401e680a00f74f40d108d67c4dcf]
@startuml
skinparam classAttributeIconSize 0
hide methods
enum CollectingMethod {
  -blood
  -urine
  -swabTest
}

class TestType {
  -int code
  -String description
  -CollectingMethod collectingMethod
}

class Company {
  -designation
}

class Test {
}

class Administrator {
}

TestType "*" - -> "1" CollectingMethod : have 
Company "1" - -> "*" TestType : conducts
Test "*" - -> "1" TestType : is of
Company "1" - -> "*" Test : performs
TestType "*" - -> "1" Administrator : created by
@enduml

PlantUML version 1.2021.5(Sun Apr 25 11:20:28 UTC 2021)
(GPL source distribution)
Java Runtime: Java(TM) SE Runtime Environment
JVM: Java HotSpot(TM) 64-Bit Server VM
Default Encoding: UTF-8
Language: en
Country: US
--></g></svg>