<?xml version="1.0" encoding="UTF-8" standalone="no"?>
<svg xmlns="http://www.w3.org/2000/svg" xmlns:xlink="http://www.w3.org/1999/xlink" contentScriptType="application/ecmascript" contentStyleType="text/css" height="451px" preserveAspectRatio="none" style="width:219px;height:451px;" version="1.1" viewBox="0 0 219 451" width="219px" zoomAndPan="magnify"><defs><filter height="300%" id="fz4v709ml4z1e" width="300%" x="-1" y="-1"><feGaussianBlur result="blurOut" stdDeviation="2.0"/><feColorMatrix in="blurOut" result="blurOut2" type="matrix" values="0 0 0 0 0 0 0 0 0 0 0 0 0 0 0 0 0 0 .4 0"/><feOffset dx="4.0" dy="4.0" in="blurOut2" result="blurOut3"/><feBlend in="SourceGraphic" in2="blurOut3" mode="normal"/></filter></defs><g><!--MD5=[aeb3272166074d8737a70b61b1e71682]
class TestType--><rect codeLine="4" fill="#FEFECE" filter="url(#fz4v709ml4z1e)" height="65.6094" id="TestType" style="stroke:#A80036;stroke-width:1.5;" width="149" x="7" y="254"/><ellipse cx="49.45" cy="270" fill="#ADD1B2" rx="11" ry="11" style="stroke:#A80036;stroke-width:1.0;"/><path d="M51.7938,265.6719 C50.8563,265.2344 50.2625,265.0938 49.3875,265.0938 C46.7625,265.0938 44.7625,267.1719 44.7625,269.8906 L44.7625,271.0156 C44.7625,273.5938 46.8719,275.4844 49.7625,275.4844 C50.9813,275.4844 52.1375,275.1875 52.8875,274.6406 C53.4656,274.2344 53.7938,273.7813 53.7938,273.3906 C53.7938,272.9375 53.4031,272.5469 52.9344,272.5469 C52.7156,272.5469 52.5125,272.625 52.325,272.8125 C51.8719,273.2969 51.8719,273.2969 51.6844,273.3906 C51.2625,273.6563 50.575,273.7813 49.8094,273.7813 C47.7625,273.7813 46.4656,272.6875 46.4656,270.9844 L46.4656,269.8906 C46.4656,268.1094 47.7156,266.7969 49.45,266.7969 C50.0281,266.7969 50.6375,266.9531 51.1063,267.2031 C51.5906,267.4844 51.7625,267.7031 51.8563,268.1094 C51.9188,268.5156 51.95,268.6406 52.0906,268.7656 C52.2313,268.9063 52.4656,269.0156 52.6844,269.0156 C52.95,269.0156 53.2156,268.875 53.3875,268.6563 C53.4969,268.5 53.5281,268.3125 53.5281,267.8906 L53.5281,266.4688 C53.5281,266.0313 53.5125,265.9063 53.4188,265.75 C53.2625,265.4844 52.9813,265.3438 52.6844,265.3438 C52.3875,265.3438 52.1844,265.4375 51.9656,265.75 L51.7938,265.6719 Z " fill="#000000"/><text fill="#000000" font-family="sans-serif" font-size="12" lengthAdjust="spacing" textLength="56" x="69.55" y="274.1543">TestType</text><line style="stroke:#A80036;stroke-width:1.5;" x1="8" x2="155" y1="286" y2="286"/><text fill="#000000" font-family="sans-serif" font-size="11" lengthAdjust="spacing" textLength="107" x="13" y="300.2104">-String designation</text><text fill="#000000" font-family="sans-serif" font-size="11" lengthAdjust="spacing" textLength="137" x="13" y="313.0151">-String collectingMethod</text><!--MD5=[02e4b9b7573f1156f41e60aa5b4e25a4]
class Company--><rect codeLine="9" fill="#FEFECE" filter="url(#fz4v709ml4z1e)" height="52.8047" id="Company" style="stroke:#A80036;stroke-width:1.5;" width="88" x="53.5" y="7"/><ellipse cx="68.5" cy="23" fill="#ADD1B2" rx="11" ry="11" style="stroke:#A80036;stroke-width:1.0;"/><path d="M70.8438,18.6719 C69.9063,18.2344 69.3125,18.0938 68.4375,18.0938 C65.8125,18.0938 63.8125,20.1719 63.8125,22.8906 L63.8125,24.0156 C63.8125,26.5938 65.9219,28.4844 68.8125,28.4844 C70.0313,28.4844 71.1875,28.1875 71.9375,27.6406 C72.5156,27.2344 72.8438,26.7813 72.8438,26.3906 C72.8438,25.9375 72.4531,25.5469 71.9844,25.5469 C71.7656,25.5469 71.5625,25.625 71.375,25.8125 C70.9219,26.2969 70.9219,26.2969 70.7344,26.3906 C70.3125,26.6563 69.625,26.7813 68.8594,26.7813 C66.8125,26.7813 65.5156,25.6875 65.5156,23.9844 L65.5156,22.8906 C65.5156,21.1094 66.7656,19.7969 68.5,19.7969 C69.0781,19.7969 69.6875,19.9531 70.1563,20.2031 C70.6406,20.4844 70.8125,20.7031 70.9063,21.1094 C70.9688,21.5156 71,21.6406 71.1406,21.7656 C71.2813,21.9063 71.5156,22.0156 71.7344,22.0156 C72,22.0156 72.2656,21.875 72.4375,21.6563 C72.5469,21.5 72.5781,21.3125 72.5781,20.8906 L72.5781,19.4688 C72.5781,19.0313 72.5625,18.9063 72.4688,18.75 C72.3125,18.4844 72.0313,18.3438 71.7344,18.3438 C71.4375,18.3438 71.2344,18.4375 71.0156,18.75 L70.8438,18.6719 Z " fill="#000000"/><text fill="#000000" font-family="sans-serif" font-size="12" lengthAdjust="spacing" textLength="56" x="82.5" y="27.1543">Company</text><line style="stroke:#A80036;stroke-width:1.5;" x1="54.5" x2="140.5" y1="39" y2="39"/><text fill="#000000" font-family="sans-serif" font-size="11" lengthAdjust="spacing" textLength="70" x="59.5" y="53.2104">-designation</text><!--MD5=[df38be88ccee13e832d6fafd6288a4ca]
class Test--><rect codeLine="13" fill="#FEFECE" filter="url(#fz4v709ml4z1e)" height="40" id="Test" style="stroke:#A80036;stroke-width:1.5;" width="58" x="147.5" y="137"/><ellipse cx="162.5" cy="153" fill="#ADD1B2" rx="11" ry="11" style="stroke:#A80036;stroke-width:1.0;"/><path d="M164.8438,148.6719 C163.9063,148.2344 163.3125,148.0938 162.4375,148.0938 C159.8125,148.0938 157.8125,150.1719 157.8125,152.8906 L157.8125,154.0156 C157.8125,156.5938 159.9219,158.4844 162.8125,158.4844 C164.0313,158.4844 165.1875,158.1875 165.9375,157.6406 C166.5156,157.2344 166.8438,156.7813 166.8438,156.3906 C166.8438,155.9375 166.4531,155.5469 165.9844,155.5469 C165.7656,155.5469 165.5625,155.625 165.375,155.8125 C164.9219,156.2969 164.9219,156.2969 164.7344,156.3906 C164.3125,156.6563 163.625,156.7813 162.8594,156.7813 C160.8125,156.7813 159.5156,155.6875 159.5156,153.9844 L159.5156,152.8906 C159.5156,151.1094 160.7656,149.7969 162.5,149.7969 C163.0781,149.7969 163.6875,149.9531 164.1563,150.2031 C164.6406,150.4844 164.8125,150.7031 164.9063,151.1094 C164.9688,151.5156 165,151.6406 165.1406,151.7656 C165.2813,151.9063 165.5156,152.0156 165.7344,152.0156 C166,152.0156 166.2656,151.875 166.4375,151.6563 C166.5469,151.5 166.5781,151.3125 166.5781,150.8906 L166.5781,149.4688 C166.5781,149.0313 166.5625,148.9063 166.4688,148.75 C166.3125,148.4844 166.0313,148.3438 165.7344,148.3438 C165.4375,148.3438 165.2344,148.4375 165.0156,148.75 L164.8438,148.6719 Z " fill="#000000"/><text fill="#000000" font-family="sans-serif" font-size="12" lengthAdjust="spacing" textLength="26" x="176.5" y="157.1543">Test</text><line style="stroke:#A80036;stroke-width:1.5;" x1="148.5" x2="204.5" y1="169" y2="169"/><!--MD5=[da547346deef918ea16944ba046651ef]
class Administrator--><rect codeLine="16" fill="#FEFECE" filter="url(#fz4v709ml4z1e)" height="40" id="Administrator" style="stroke:#A80036;stroke-width:1.5;" width="112" x="25.5" y="397"/><ellipse cx="40.5" cy="413" fill="#ADD1B2" rx="11" ry="11" style="stroke:#A80036;stroke-width:1.0;"/><path d="M42.8438,408.6719 C41.9063,408.2344 41.3125,408.0938 40.4375,408.0938 C37.8125,408.0938 35.8125,410.1719 35.8125,412.8906 L35.8125,414.0156 C35.8125,416.5938 37.9219,418.4844 40.8125,418.4844 C42.0313,418.4844 43.1875,418.1875 43.9375,417.6406 C44.5156,417.2344 44.8438,416.7813 44.8438,416.3906 C44.8438,415.9375 44.4531,415.5469 43.9844,415.5469 C43.7656,415.5469 43.5625,415.625 43.375,415.8125 C42.9219,416.2969 42.9219,416.2969 42.7344,416.3906 C42.3125,416.6563 41.625,416.7813 40.8594,416.7813 C38.8125,416.7813 37.5156,415.6875 37.5156,413.9844 L37.5156,412.8906 C37.5156,411.1094 38.7656,409.7969 40.5,409.7969 C41.0781,409.7969 41.6875,409.9531 42.1563,410.2031 C42.6406,410.4844 42.8125,410.7031 42.9063,411.1094 C42.9688,411.5156 43,411.6406 43.1406,411.7656 C43.2813,411.9063 43.5156,412.0156 43.7344,412.0156 C44,412.0156 44.2656,411.875 44.4375,411.6563 C44.5469,411.5 44.5781,411.3125 44.5781,410.8906 L44.5781,409.4688 C44.5781,409.0313 44.5625,408.9063 44.4688,408.75 C44.3125,408.4844 44.0313,408.3438 43.7344,408.3438 C43.4375,408.3438 43.2344,408.4375 43.0156,408.75 L42.8438,408.6719 Z " fill="#000000"/><text fill="#000000" font-family="sans-serif" font-size="12" lengthAdjust="spacing" textLength="80" x="54.5" y="417.1543">Administrator</text><line style="stroke:#A80036;stroke-width:1.5;" x1="26.5" x2="136.5" y1="429" y2="429"/><!--MD5=[742a261f27a3dcd734c626287d811acd]
link Company to TestType--><path codeLine="19" d="M88.7401,60.252 C82.2472,80.763 73.9504,110.355 70.5,137 C65.5876,174.934 69.9849,218.608 74.5963,248.82 " fill="none" id="Company-to-TestType" style="stroke:#A80036;stroke-width:1.0;"/><polygon fill="#A80036" points="75.3971,253.925,77.9524,244.4134,74.6214,248.9855,70.0493,245.6545,75.3971,253.925" style="stroke:#A80036;stroke-width:1.0;"/><text fill="#000000" font-family="sans-serif" font-size="13" lengthAdjust="spacing" textLength="58" x="71.5" y="161.5669">conducts</text><text fill="#000000" font-family="sans-serif" font-size="13" lengthAdjust="spacing" textLength="8" x="77.9489" y="79.8474">1</text><text fill="#000000" font-family="sans-serif" font-size="13" lengthAdjust="spacing" textLength="7" x="66.5065" y="243.0552">*</text><!--MD5=[e981d4f96c4342412d1e68160b30cf70]
link Test to TestType--><path codeLine="20" d="M162.278,177.163 C148.088,196.282 125.935,226.129 108.415,249.735 " fill="none" id="Test-to-TestType" style="stroke:#A80036;stroke-width:1.0;"/><polygon fill="#A80036" points="105.4236,253.766,113.9993,248.9228,108.4034,249.7509,107.5752,244.155,105.4236,253.766" style="stroke:#A80036;stroke-width:1.0;"/><text fill="#000000" font-family="sans-serif" font-size="13" lengthAdjust="spacing" textLength="27" x="138.5" y="220.0669">is of</text><text fill="#000000" font-family="sans-serif" font-size="13" lengthAdjust="spacing" textLength="7" x="150.2937" y="197.0288">*</text><text fill="#000000" font-family="sans-serif" font-size="13" lengthAdjust="spacing" textLength="8" x="101.3461" y="242.8649">1</text><!--MD5=[7e4bc624457760b649895ff2ead938fa]
link Company to Test--><path codeLine="21" d="M114.254,60.267 C128.123,81.598 147.668,111.657 161.139,132.375 " fill="none" id="Company-to-Test" style="stroke:#A80036;stroke-width:1.0;"/><polygon fill="#A80036" points="163.917,136.647,162.3638,126.9214,161.1912,132.4554,155.6572,131.2827,163.917,136.647" style="stroke:#A80036;stroke-width:1.0;"/><text fill="#000000" font-family="sans-serif" font-size="13" lengthAdjust="spacing" textLength="59" x="144.5" y="103.0669">performs</text><text fill="#000000" font-family="sans-serif" font-size="13" lengthAdjust="spacing" textLength="8" x="109.0438" y="79.8657">1</text><text fill="#000000" font-family="sans-serif" font-size="13" lengthAdjust="spacing" textLength="7" x="152.3937" y="125.8989">*</text><!--MD5=[0985ee834cc881275852ed47ce1e01f6]
link TestType to Administrator--><path codeLine="22" d="M81.5,320.3 C81.5,342.463 81.5,371.4116 81.5,391.6422 " fill="none" id="TestType-to-Administrator" style="stroke:#A80036;stroke-width:1.0;"/><polygon fill="#A80036" points="81.5,396.8458,85.5,387.8458,81.5,391.8458,77.5,387.8458,81.5,396.8458" style="stroke:#A80036;stroke-width:1.0;"/><text fill="#000000" font-family="sans-serif" font-size="13" lengthAdjust="spacing" textLength="69" x="82.5" y="363.0669">created by</text><text fill="#000000" font-family="sans-serif" font-size="13" lengthAdjust="spacing" textLength="7" x="73.8766" y="339.681">*</text><text fill="#000000" font-family="sans-serif" font-size="13" lengthAdjust="spacing" textLength="8" x="72.325" y="385.8088">1</text><!--MD5=[71e20d1dd887341e37f325761ed48235]
@startuml
skinparam classAttributeIconSize 0
hide methods

class TestType {
  -String designation
  -String collectingMethod
}

class Company {
  -designation
}

class Test {
}

class Administrator {
}

Company "1" - -> "*" TestType : conducts
Test "*" - -> "1" TestType : is of
Company "1" - -> "*" Test : performs
TestType "*" - -> "1" Administrator : created by
@enduml

PlantUML version 1.2021.5(Sun Apr 25 11:20:28 UTC 2021)
(GPL source distribution)
Java Runtime: Java(TM) SE Runtime Environment
JVM: Java HotSpot(TM) 64-Bit Server VM
Default Encoding: UTF-8
Language: en
Country: US
--></g></svg>