<?xml version="1.0" encoding="UTF-8" standalone="no"?>
<svg xmlns="http://www.w3.org/2000/svg" xmlns:xlink="http://www.w3.org/1999/xlink" contentScriptType="application/ecmascript" contentStyleType="text/css" height="732px" preserveAspectRatio="none" style="width:1550px;height:732px;" version="1.1" viewBox="0 0 1550 732" width="1550px" zoomAndPan="magnify"><defs><filter height="300%" id="fb63rzjx081bb" width="300%" x="-1" y="-1"><feGaussianBlur result="blurOut" stdDeviation="2.0"/><feColorMatrix in="blurOut" result="blurOut2" type="matrix" values="0 0 0 0 0 0 0 0 0 0 0 0 0 0 0 0 0 0 .4 0"/><feOffset dx="4.0" dy="4.0" in="blurOut2" result="blurOut3"/><feBlend in="SourceGraphic" in2="blurOut3" mode="normal"/></filter></defs><g><rect fill="#FFFFFF" filter="url(#fb63rzjx081bb)" height="532.0234" style="stroke:#A80036;stroke-width:1.0;" width="10" x="53" y="98.2969"/><rect fill="#FFFFFF" filter="url(#fb63rzjx081bb)" height="29.1328" style="stroke:#A80036;stroke-width:1.0;" width="10" x="432" y="119.4297"/><rect fill="#FFFFFF" filter="url(#fb63rzjx081bb)" height="191.8281" style="stroke:#A80036;stroke-width:1.0;" width="10" x="432" y="177.6953"/><rect fill="#FFFFFF" filter="url(#fb63rzjx081bb)" height="231.6641" style="stroke:#A80036;stroke-width:1.0;" width="10" x="432" y="398.6563"/><rect fill="#FFFFFF" filter="url(#fb63rzjx081bb)" height="133.5625" style="stroke:#A80036;stroke-width:1.0;" width="10" x="774" y="206.8281"/><rect fill="#FFFFFF" filter="url(#fb63rzjx081bb)" height="166.3984" style="stroke:#A80036;stroke-width:1.0;" width="10" x="774" y="427.7891"/><rect fill="#FFFFFF" filter="url(#fb63rzjx081bb)" height="29.1328" style="stroke:#A80036;stroke-width:1.0;" width="10" x="1144" y="235.9609"/><rect fill="#FFFFFF" filter="url(#fb63rzjx081bb)" height="30" style="stroke:#A80036;stroke-width:1.0;" width="10" x="1144" y="310.3906"/><rect fill="#FFFFFF" filter="url(#fb63rzjx081bb)" height="137.2656" style="stroke:#A80036;stroke-width:1.0;" width="10" x="1144" y="456.9219"/><rect fill="#FFFFFF" filter="url(#fb63rzjx081bb)" height="28" style="stroke:#A80036;stroke-width:1.0;" width="10" x="1149" y="494.0547"/><rect fill="#FFFFFF" filter="url(#fb63rzjx081bb)" height="28" style="stroke:#A80036;stroke-width:1.0;" width="10" x="1149" y="566.1875"/><line style="stroke:#A80036;stroke-width:1.0;stroke-dasharray:5.0,5.0;" x1="58" x2="58" y1="88.2969" y2="648.3203"/><line style="stroke:#A80036;stroke-width:1.0;stroke-dasharray:5.0,5.0;" x1="436.5" x2="436.5" y1="88.2969" y2="648.3203"/><line style="stroke:#A80036;stroke-width:1.0;stroke-dasharray:5.0,5.0;" x1="778.5" x2="778.5" y1="88.2969" y2="648.3203"/><line style="stroke:#A80036;stroke-width:1.0;stroke-dasharray:5.0,5.0;" x1="1148.5" x2="1148.5" y1="88.2969" y2="648.3203"/><line style="stroke:#A80036;stroke-width:1.0;stroke-dasharray:5.0,5.0;" x1="1485" x2="1485" y1="276.6094" y2="648.3203"/><text fill="#000000" font-family="sans-serif" font-size="14" lengthAdjust="spacing" textLength="100" x="5" y="84.9951">Administrator</text><ellipse cx="58" cy="15" fill="#FEFECE" filter="url(#fb63rzjx081bb)" rx="8" ry="8" style="stroke:#A80036;stroke-width:2.0;"/><path d="M58,23 L58,50 M45,31 L71,31 M58,50 L45,65 M58,50 L71,65 " fill="none" filter="url(#fb63rzjx081bb)" style="stroke:#A80036;stroke-width:2.0;"/><text fill="#000000" font-family="sans-serif" font-size="14" lengthAdjust="spacing" textLength="100" x="5" y="660.3154">Administrator</text><ellipse cx="58" cy="673.6172" fill="#FEFECE" filter="url(#fb63rzjx081bb)" rx="8" ry="8" style="stroke:#A80036;stroke-width:2.0;"/><path d="M58,681.6172 L58,708.6172 M45,689.6172 L71,689.6172 M58,708.6172 L45,723.6172 M58,708.6172 L71,723.6172 " fill="none" filter="url(#fb63rzjx081bb)" style="stroke:#A80036;stroke-width:2.0;"/><rect fill="#FEFECE" filter="url(#fb63rzjx081bb)" height="30.2969" style="stroke:#A80036;stroke-width:1.5;" width="149" x="360.5" y="53"/><text fill="#000000" font-family="sans-serif" font-size="14" lengthAdjust="spacing" textLength="135" x="367.5" y="72.9951">:CreateTestTypeUI</text><rect fill="#FEFECE" filter="url(#fb63rzjx081bb)" height="30.2969" style="stroke:#A80036;stroke-width:1.5;" width="149" x="360.5" y="647.3203"/><text fill="#000000" font-family="sans-serif" font-size="14" lengthAdjust="spacing" textLength="135" x="367.5" y="667.3154">:CreateTestTypeUI</text><rect fill="#FEFECE" filter="url(#fb63rzjx081bb)" height="30.2969" style="stroke:#A80036;stroke-width:1.5;" width="209" x="672.5" y="53"/><text fill="#000000" font-family="sans-serif" font-size="14" lengthAdjust="spacing" textLength="195" x="679.5" y="72.9951">:CreateTestTypeController</text><rect fill="#FEFECE" filter="url(#fb63rzjx081bb)" height="30.2969" style="stroke:#A80036;stroke-width:1.5;" width="209" x="672.5" y="647.3203"/><text fill="#000000" font-family="sans-serif" font-size="14" lengthAdjust="spacing" textLength="195" x="679.5" y="667.3154">:CreateTestTypeController</text><rect fill="#FEFECE" filter="url(#fb63rzjx081bb)" height="30.2969" style="stroke:#A80036;stroke-width:1.5;" width="87" x="1103.5" y="53"/><text fill="#000000" font-family="sans-serif" font-size="14" lengthAdjust="spacing" textLength="73" x="1110.5" y="72.9951">:Company</text><rect fill="#FEFECE" filter="url(#fb63rzjx081bb)" height="30.2969" style="stroke:#A80036;stroke-width:1.5;" width="87" x="1103.5" y="647.3203"/><text fill="#000000" font-family="sans-serif" font-size="14" lengthAdjust="spacing" textLength="73" x="1110.5" y="667.3154">:Company</text><rect fill="#FEFECE" filter="url(#fb63rzjx081bb)" height="30.2969" style="stroke:#A80036;stroke-width:1.5;" width="105" x="1431" y="647.3203"/><text fill="#000000" font-family="sans-serif" font-size="14" lengthAdjust="spacing" textLength="91" x="1438" y="667.3154">tt:Test Type</text><rect fill="#FFFFFF" filter="url(#fb63rzjx081bb)" height="532.0234" style="stroke:#A80036;stroke-width:1.0;" width="10" x="53" y="98.2969"/><rect fill="#FFFFFF" filter="url(#fb63rzjx081bb)" height="29.1328" style="stroke:#A80036;stroke-width:1.0;" width="10" x="432" y="119.4297"/><rect fill="#FFFFFF" filter="url(#fb63rzjx081bb)" height="191.8281" style="stroke:#A80036;stroke-width:1.0;" width="10" x="432" y="177.6953"/><rect fill="#FFFFFF" filter="url(#fb63rzjx081bb)" height="231.6641" style="stroke:#A80036;stroke-width:1.0;" width="10" x="432" y="398.6563"/><rect fill="#FFFFFF" filter="url(#fb63rzjx081bb)" height="133.5625" style="stroke:#A80036;stroke-width:1.0;" width="10" x="774" y="206.8281"/><rect fill="#FFFFFF" filter="url(#fb63rzjx081bb)" height="166.3984" style="stroke:#A80036;stroke-width:1.0;" width="10" x="774" y="427.7891"/><rect fill="#FFFFFF" filter="url(#fb63rzjx081bb)" height="29.1328" style="stroke:#A80036;stroke-width:1.0;" width="10" x="1144" y="235.9609"/><rect fill="#FFFFFF" filter="url(#fb63rzjx081bb)" height="30" style="stroke:#A80036;stroke-width:1.0;" width="10" x="1144" y="310.3906"/><rect fill="#FFFFFF" filter="url(#fb63rzjx081bb)" height="137.2656" style="stroke:#A80036;stroke-width:1.0;" width="10" x="1144" y="456.9219"/><rect fill="#FFFFFF" filter="url(#fb63rzjx081bb)" height="28" style="stroke:#A80036;stroke-width:1.0;" width="10" x="1149" y="494.0547"/><rect fill="#FFFFFF" filter="url(#fb63rzjx081bb)" height="28" style="stroke:#A80036;stroke-width:1.0;" width="10" x="1149" y="566.1875"/><polygon fill="#A80036" points="420,115.4297,430,119.4297,420,123.4297,424,119.4297" style="stroke:#A80036;stroke-width:1.0;"/><line style="stroke:#A80036;stroke-width:1.0;" x1="63" x2="426" y1="119.4297" y2="119.4297"/><text fill="#000000" font-family="sans-serif" font-size="13" font-weight="bold" lengthAdjust="spacing" textLength="9" x="70" y="114.3638">1</text><text fill="#000000" font-family="sans-serif" font-size="13" lengthAdjust="spacing" textLength="147" x="83" y="114.3638">starts new type of test</text><polygon fill="#A80036" points="74,144.5625,64,148.5625,74,152.5625,70,148.5625" style="stroke:#A80036;stroke-width:1.0;"/><line style="stroke:#A80036;stroke-width:1.0;stroke-dasharray:2.0,2.0;" x1="68" x2="436" y1="148.5625" y2="148.5625"/><text fill="#000000" font-family="sans-serif" font-size="13" font-weight="bold" lengthAdjust="spacing" textLength="9" x="80" y="143.4966">2</text><text fill="#000000" font-family="sans-serif" font-size="13" lengthAdjust="spacing" textLength="332" x="93" y="143.4966">request data(i.e., designation and collectingMethod)</text><polygon fill="#A80036" points="420,173.6953,430,177.6953,420,181.6953,424,177.6953" style="stroke:#A80036;stroke-width:1.0;"/><line style="stroke:#A80036;stroke-width:1.0;" x1="63" x2="426" y1="177.6953" y2="177.6953"/><text fill="#000000" font-family="sans-serif" font-size="13" font-weight="bold" lengthAdjust="spacing" textLength="8" x="70" y="172.6294">3</text><text fill="#000000" font-family="sans-serif" font-size="13" lengthAdjust="spacing" textLength="138" x="82" y="172.6294">types requested data</text><polygon fill="#A80036" points="762,202.8281,772,206.8281,762,210.8281,766,206.8281" style="stroke:#A80036;stroke-width:1.0;"/><line style="stroke:#A80036;stroke-width:1.0;" x1="442" x2="768" y1="206.8281" y2="206.8281"/><text fill="#000000" font-family="sans-serif" font-size="13" font-weight="bold" lengthAdjust="spacing" textLength="9" x="449" y="201.7622">4</text><text fill="#000000" font-family="sans-serif" font-size="13" lengthAdjust="spacing" textLength="300" x="462" y="201.7622">createTestType(designation, collectingMethod)</text><polygon fill="#A80036" points="1132,231.9609,1142,235.9609,1132,239.9609,1136,235.9609" style="stroke:#A80036;stroke-width:1.0;"/><line style="stroke:#A80036;stroke-width:1.0;" x1="784" x2="1138" y1="235.9609" y2="235.9609"/><text fill="#000000" font-family="sans-serif" font-size="13" font-weight="bold" lengthAdjust="spacing" textLength="9" x="791" y="230.895">5</text><text fill="#000000" font-family="sans-serif" font-size="13" lengthAdjust="spacing" textLength="328" x="804" y="230.895">tt = createTestType(designation, collectingMethod)</text><polygon fill="#A80036" points="1419,261.0938,1429,265.0938,1419,269.0938,1423,265.0938" style="stroke:#A80036;stroke-width:1.0;"/><line style="stroke:#A80036;stroke-width:1.0;stroke-dasharray:2.0,2.0;" x1="1149" x2="1425" y1="265.0938" y2="265.0938"/><text fill="#000000" font-family="sans-serif" font-size="13" font-weight="bold" lengthAdjust="spacing" textLength="9" x="1156" y="260.0278">6</text><text fill="#000000" font-family="sans-serif" font-size="13" lengthAdjust="spacing" textLength="240" x="1169" y="260.0278">create(designation, collectingMethod)</text><rect fill="#FEFECE" filter="url(#fb63rzjx081bb)" height="30.2969" style="stroke:#A80036;stroke-width:1.5;" width="105" x="1431" y="243.9609"/><text fill="#000000" font-family="sans-serif" font-size="14" lengthAdjust="spacing" textLength="91" x="1438" y="263.9561">tt:Test Type</text><polygon fill="#A80036" points="1132,306.3906,1142,310.3906,1132,314.3906,1136,310.3906" style="stroke:#A80036;stroke-width:1.0;"/><line style="stroke:#A80036;stroke-width:1.0;" x1="784" x2="1138" y1="310.3906" y2="310.3906"/><text fill="#000000" font-family="sans-serif" font-size="13" font-weight="bold" lengthAdjust="spacing" textLength="9" x="791" y="305.3247">7</text><text fill="#000000" font-family="sans-serif" font-size="13" lengthAdjust="spacing" textLength="131" x="804" y="305.3247">validateTestType(tt)</text><polygon fill="#A80036" points="74,365.5234,64,369.5234,74,373.5234,70,369.5234" style="stroke:#A80036;stroke-width:1.0;"/><line style="stroke:#A80036;stroke-width:1.0;stroke-dasharray:2.0,2.0;" x1="68" x2="436" y1="369.5234" y2="369.5234"/><text fill="#000000" font-family="sans-serif" font-size="13" font-weight="bold" lengthAdjust="spacing" textLength="9" x="80" y="364.4575">8</text><text fill="#000000" font-family="sans-serif" font-size="13" lengthAdjust="spacing" textLength="277" x="93" y="364.4575">shows the data and request a confirmation</text><polygon fill="#A80036" points="420,394.6563,430,398.6563,420,402.6563,424,398.6563" style="stroke:#A80036;stroke-width:1.0;"/><line style="stroke:#A80036;stroke-width:1.0;" x1="63" x2="426" y1="398.6563" y2="398.6563"/><text fill="#000000" font-family="sans-serif" font-size="13" font-weight="bold" lengthAdjust="spacing" textLength="9" x="70" y="393.5903">9</text><text fill="#000000" font-family="sans-serif" font-size="13" lengthAdjust="spacing" textLength="114" x="83" y="393.5903">confirms the data</text><polygon fill="#A80036" points="762,423.7891,772,427.7891,762,431.7891,766,427.7891" style="stroke:#A80036;stroke-width:1.0;"/><line style="stroke:#A80036;stroke-width:1.0;" x1="442" x2="768" y1="427.7891" y2="427.7891"/><text fill="#000000" font-family="sans-serif" font-size="13" font-weight="bold" lengthAdjust="spacing" textLength="19" x="449" y="422.7231">10</text><text fill="#000000" font-family="sans-serif" font-size="13" lengthAdjust="spacing" textLength="101" x="472" y="422.7231">saveTestType()</text><polygon fill="#A80036" points="1132,452.9219,1142,456.9219,1132,460.9219,1136,456.9219" style="stroke:#A80036;stroke-width:1.0;"/><line style="stroke:#A80036;stroke-width:1.0;" x1="784" x2="1138" y1="456.9219" y2="456.9219"/><text fill="#000000" font-family="sans-serif" font-size="13" font-weight="bold" lengthAdjust="spacing" textLength="18" x="791" y="451.856">11</text><text fill="#000000" font-family="sans-serif" font-size="13" lengthAdjust="spacing" textLength="111" x="813" y="451.856">savaTestType(tt)</text><line style="stroke:#A80036;stroke-width:1.0;" x1="1159" x2="1201" y1="486.0547" y2="486.0547"/><line style="stroke:#A80036;stroke-width:1.0;" x1="1201" x2="1201" y1="486.0547" y2="499.0547"/><line style="stroke:#A80036;stroke-width:1.0;" x1="1160" x2="1201" y1="499.0547" y2="499.0547"/><polygon fill="#A80036" points="1170,495.0547,1160,499.0547,1170,503.0547,1166,499.0547" style="stroke:#A80036;stroke-width:1.0;"/><text fill="#000000" font-family="sans-serif" font-size="13" font-weight="bold" lengthAdjust="spacing" textLength="18" x="1166" y="480.9888">12</text><text fill="#000000" font-family="sans-serif" font-size="13" lengthAdjust="spacing" textLength="131" x="1188" y="480.9888">validateTestType(tt)</text><line style="stroke:#A80036;stroke-width:1.0;" x1="1159" x2="1201" y1="558.1875" y2="558.1875"/><line style="stroke:#A80036;stroke-width:1.0;" x1="1201" x2="1201" y1="558.1875" y2="571.1875"/><line style="stroke:#A80036;stroke-width:1.0;" x1="1160" x2="1201" y1="571.1875" y2="571.1875"/><polygon fill="#A80036" points="1170,567.1875,1160,571.1875,1170,575.1875,1166,571.1875" style="stroke:#A80036;stroke-width:1.0;"/><text fill="#000000" font-family="sans-serif" font-size="13" font-weight="bold" lengthAdjust="spacing" textLength="17" x="1166" y="553.1216">13</text><text fill="#000000" font-family="sans-serif" font-size="13" lengthAdjust="spacing" textLength="104" x="1187" y="553.1216">addTestType(tt)</text><polygon fill="#A80036" points="69,626.3203,59,630.3203,69,634.3203,65,630.3203" style="stroke:#A80036;stroke-width:1.0;"/><line style="stroke:#A80036;stroke-width:1.0;stroke-dasharray:2.0,2.0;" x1="63" x2="436" y1="630.3203" y2="630.3203"/><text fill="#000000" font-family="sans-serif" font-size="13" font-weight="bold" lengthAdjust="spacing" textLength="18" x="75" y="625.2544">14</text><text fill="#000000" font-family="sans-serif" font-size="13" lengthAdjust="spacing" textLength="169" x="97" y="625.2544">informs operation succecs</text><!--MD5=[974f37dba9b7bfac5f0b43679fb94d26]
@startuml
autonumber
actor "Administrator" as ADMIN

participant ":CreateTestTypeUI" as UI
participant ":CreateTestTypeController" as CTRL
participant ":Company" as CMP
participant "tt:Test Type" as TET

activate ADMIN
ADMIN -> UI : starts new type of test
activate UI
UI - -> ADMIN : request data(i.e., designation and collectingMethod)
deactivate UI

ADMIN -> UI : types requested data
activate UI
UI -> CTRL: createTestType(designation, collectingMethod)
activate CTRL
CTRL -> CMP : tt = createTestType(designation, collectingMethod)
activate CMP
CMP - -> TET** : create(designation, collectingMethod)
deactivate CMP
CTRL -> CMP : validateTestType(tt)
activate CMP
deactivate CMP
deactivate CTRL
UI - -> ADMIN : shows the data and request a confirmation
deactivate UI

ADMIN -> UI : confirms the data
activate UI
UI -> CTRL : saveTestType()
activate CTRL
CTRL -> CMP : savaTestType(tt)
activate CMP
CMP -> CMP++ : validateTestType(tt)
CMP- -
CMP -> CMP++ : addTestType(tt)
CMP- -
deactivate CMP
deactivate CTRL
UI - -> ADMIN : informs operation succecs
deactivate UI

deactivate ADMIN
@enduml

PlantUML version 1.2021.5(Sun Apr 25 11:20:28 UTC 2021)
(GPL source distribution)
Java Runtime: Java(TM) SE Runtime Environment
JVM: Java HotSpot(TM) 64-Bit Server VM
Default Encoding: UTF-8
Language: en
Country: US
--></g></svg>