<?xml version="1.0" encoding="UTF-8" standalone="no"?><svg xmlns="http://www.w3.org/2000/svg" xmlns:xlink="http://www.w3.org/1999/xlink" contentScriptType="application/ecmascript" contentStyleType="text/css" height="367px" preserveAspectRatio="none" style="width:574px;height:367px;" version="1.1" viewBox="0 0 574 367" width="574px" zoomAndPan="magnify"><defs><filter height="300%" id="f1fonqo2yaepjb" width="300%" x="-1" y="-1"><feGaussianBlur result="blurOut" stdDeviation="2.0"/><feColorMatrix in="blurOut" result="blurOut2" type="matrix" values="0 0 0 0 0 0 0 0 0 0 0 0 0 0 0 0 0 0 .4 0"/><feOffset dx="4.0" dy="4.0" in="blurOut2" result="blurOut3"/><feBlend in="SourceGraphic" in2="blurOut3" mode="normal"/></filter></defs><g><rect fill="#FFFFFF" filter="url(#f1fonqo2yaepjb)" height="166.7969" style="stroke:#A80036;stroke-width:1.0;" width="10" x="53" y="98.2969"/><rect fill="#FFFFFF" filter="url(#f1fonqo2yaepjb)" height="29.1328" style="stroke:#A80036;stroke-width:1.0;" width="10" x="521" y="119.4297"/><rect fill="#FFFFFF" filter="url(#f1fonqo2yaepjb)" height="29.1328" style="stroke:#A80036;stroke-width:1.0;" width="10" x="521" y="177.6953"/><rect fill="#FFFFFF" filter="url(#f1fonqo2yaepjb)" height="29.1328" style="stroke:#A80036;stroke-width:1.0;" width="10" x="521" y="235.9609"/><line style="stroke:#A80036;stroke-width:1.0;stroke-dasharray:5.0,5.0;" x1="58" x2="58" y1="88.2969" y2="283.0938"/><line style="stroke:#A80036;stroke-width:1.0;stroke-dasharray:5.0,5.0;" x1="525.5" x2="525.5" y1="88.2969" y2="283.0938"/><text fill="#000000" font-family="sans-serif" font-size="14" lengthAdjust="spacing" textLength="100" x="5" y="84.9951">Administrator</text><ellipse cx="58" cy="15" fill="#FEFECE" filter="url(#f1fonqo2yaepjb)" rx="8" ry="8" style="stroke:#A80036;stroke-width:2.0;"/><path d="M58,23 L58,50 M45,31 L71,31 M58,50 L45,65 M58,50 L71,65 " fill="none" filter="url(#f1fonqo2yaepjb)" style="stroke:#A80036;stroke-width:2.0;"/><text fill="#000000" font-family="sans-serif" font-size="14" lengthAdjust="spacing" textLength="100" x="5" y="295.0889">Administrator</text><ellipse cx="58" cy="308.3906" fill="#FEFECE" filter="url(#f1fonqo2yaepjb)" rx="8" ry="8" style="stroke:#A80036;stroke-width:2.0;"/><path d="M58,316.3906 L58,343.3906 M45,324.3906 L71,324.3906 M58,343.3906 L45,358.3906 M58,343.3906 L71,358.3906 " fill="none" filter="url(#f1fonqo2yaepjb)" style="stroke:#A80036;stroke-width:2.0;"/><rect fill="#FEFECE" filter="url(#f1fonqo2yaepjb)" height="30.2969" style="stroke:#A80036;stroke-width:1.5;" width="73" x="487.5" y="53"/><text fill="#000000" font-family="sans-serif" font-size="14" lengthAdjust="spacing" textLength="59" x="494.5" y="72.9951">:System</text><rect fill="#FEFECE" filter="url(#f1fonqo2yaepjb)" height="30.2969" style="stroke:#A80036;stroke-width:1.5;" width="73" x="487.5" y="282.0938"/><text fill="#000000" font-family="sans-serif" font-size="14" lengthAdjust="spacing" textLength="59" x="494.5" y="302.0889">:System</text><rect fill="#FFFFFF" filter="url(#f1fonqo2yaepjb)" height="166.7969" style="stroke:#A80036;stroke-width:1.0;" width="10" x="53" y="98.2969"/><rect fill="#FFFFFF" filter="url(#f1fonqo2yaepjb)" height="29.1328" style="stroke:#A80036;stroke-width:1.0;" width="10" x="521" y="119.4297"/><rect fill="#FFFFFF" filter="url(#f1fonqo2yaepjb)" height="29.1328" style="stroke:#A80036;stroke-width:1.0;" width="10" x="521" y="177.6953"/><rect fill="#FFFFFF" filter="url(#f1fonqo2yaepjb)" height="29.1328" style="stroke:#A80036;stroke-width:1.0;" width="10" x="521" y="235.9609"/><polygon fill="#A80036" points="509,115.4297,519,119.4297,509,123.4297,513,119.4297" style="stroke:#A80036;stroke-width:1.0;"/><line style="stroke:#A80036;stroke-width:1.0;" x1="63" x2="515" y1="119.4297" y2="119.4297"/><text fill="#000000" font-family="sans-serif" font-size="13" font-weight="bold" lengthAdjust="spacing" textLength="9" x="70" y="114.3638">1</text><text fill="#000000" font-family="sans-serif" font-size="13" lengthAdjust="spacing" textLength="302" x="83" y="114.3638">asks to register new clinical analysis laboratory</text><polygon fill="#A80036" points="74,144.5625,64,148.5625,74,152.5625,70,148.5625" style="stroke:#A80036;stroke-width:1.0;"/><line style="stroke:#A80036;stroke-width:1.0;stroke-dasharray:2.0,2.0;" x1="68" x2="525" y1="148.5625" y2="148.5625"/><text fill="#000000" font-family="sans-serif" font-size="13" font-weight="bold" lengthAdjust="spacing" textLength="9" x="80" y="143.4966">2</text><text fill="#000000" font-family="sans-serif" font-size="13" lengthAdjust="spacing" textLength="421" x="93" y="143.4966">requests data (Laboratory ID, name, adrress, phone number, TIN)</text><polygon fill="#A80036" points="509,173.6953,519,177.6953,509,181.6953,513,177.6953" style="stroke:#A80036;stroke-width:1.0;"/><line style="stroke:#A80036;stroke-width:1.0;" x1="63" x2="515" y1="177.6953" y2="177.6953"/><text fill="#000000" font-family="sans-serif" font-size="13" font-weight="bold" lengthAdjust="spacing" textLength="8" x="70" y="172.6294">3</text><text fill="#000000" font-family="sans-serif" font-size="13" lengthAdjust="spacing" textLength="168" x="82" y="172.6294">enters the requested data</text><polygon fill="#A80036" points="74,202.8281,64,206.8281,74,210.8281,70,206.8281" style="stroke:#A80036;stroke-width:1.0;"/><line style="stroke:#A80036;stroke-width:1.0;stroke-dasharray:2.0,2.0;" x1="68" x2="525" y1="206.8281" y2="206.8281"/><text fill="#000000" font-family="sans-serif" font-size="13" font-weight="bold" lengthAdjust="spacing" textLength="9" x="80" y="201.7622">4</text><text fill="#000000" font-family="sans-serif" font-size="13" lengthAdjust="spacing" textLength="167" x="93" y="201.7622">requests the types of test</text><polygon fill="#A80036" points="509,231.9609,519,235.9609,509,239.9609,513,235.9609" style="stroke:#A80036;stroke-width:1.0;"/><line style="stroke:#A80036;stroke-width:1.0;" x1="63" x2="515" y1="235.9609" y2="235.9609"/><text fill="#000000" font-family="sans-serif" font-size="13" font-weight="bold" lengthAdjust="spacing" textLength="9" x="70" y="230.895">5</text><text fill="#000000" font-family="sans-serif" font-size="13" lengthAdjust="spacing" textLength="168" x="83" y="230.895">enters the requested data</text><polygon fill="#A80036" points="69,261.0938,59,265.0938,69,269.0938,65,265.0938" style="stroke:#A80036;stroke-width:1.0;"/><line style="stroke:#A80036;stroke-width:1.0;stroke-dasharray:2.0,2.0;" x1="63" x2="525" y1="265.0938" y2="265.0938"/><text fill="#000000" font-family="sans-serif" font-size="13" font-weight="bold" lengthAdjust="spacing" textLength="9" x="75" y="260.0278">6</text><text fill="#000000" font-family="sans-serif" font-size="13" lengthAdjust="spacing" textLength="169" x="88" y="260.0278">informs operation success</text><!--MD5=[9ee89309013404c14bb7780a1bfe34c1]
@startuml
autonumber
actor "Administrator" as ADMIN

activate ADMIN
ADMIN-> ":System" : asks to register new clinical analysis laboratory
activate ":System"
":System" - -> ADMIN : requests data (Laboratory ID, name, adrress, phone number, TIN)
deactivate ":System"

ADMIN -> ":System" : enters the requested data
activate ":System"
":System" - -> ADMIN : requests the types of test
deactivate ":System"

ADMIN -> ":System" : enters the requested data 
activate ":System"
":System" - -> ADMIN : informs operation success
deactivate ":System"

deactivate ADMIN
@enduml

PlantUML version 1.2021.5(Sun Apr 25 11:20:28 UTC 2021)
(GPL source distribution)
Java Runtime: Java(TM) SE Runtime Environment
JVM: Java HotSpot(TM) 64-Bit Server VM
Default Encoding: UTF-8
Language: en
Country: US
--></g></svg>