<?xml version="1.0" encoding="UTF-8" standalone="no"?><svg xmlns="http://www.w3.org/2000/svg" xmlns:xlink="http://www.w3.org/1999/xlink" contentScriptType="application/ecmascript" contentStyleType="text/css" height="578px" preserveAspectRatio="none" style="width:863px;height:578px;" version="1.1" viewBox="0 0 863 578" width="863px" zoomAndPan="magnify"><defs><filter height="300%" id="fo0ep6p8w1r7a" width="300%" x="-1" y="-1"><feGaussianBlur result="blurOut" stdDeviation="2.0"/><feColorMatrix in="blurOut" result="blurOut2" type="matrix" values="0 0 0 0 0 0 0 0 0 0 0 0 0 0 0 0 0 0 .4 0"/><feOffset dx="4.0" dy="4.0" in="blurOut2" result="blurOut3"/><feBlend in="SourceGraphic" in2="blurOut3" mode="normal"/></filter></defs><g><!--MD5=[ca0899f9675cbde0ca144787fef7895c]
class RegisterClinicalAnalysisLaboratoryUI--><rect codeLine="3" fill="#FEFECE" filter="url(#fo0ep6p8w1r7a)" height="48" id="RegisterClinicalAnalysisLaboratoryUI" style="stroke:#A80036;stroke-width:1.5;" width="249" x="432.5" y="7"/><ellipse cx="447.5" cy="23" fill="#ADD1B2" rx="11" ry="11" style="stroke:#A80036;stroke-width:1.0;"/><path d="M449.8438,18.6719 C448.9063,18.2344 448.3125,18.0938 447.4375,18.0938 C444.8125,18.0938 442.8125,20.1719 442.8125,22.8906 L442.8125,24.0156 C442.8125,26.5938 444.9219,28.4844 447.8125,28.4844 C449.0313,28.4844 450.1875,28.1875 450.9375,27.6406 C451.5156,27.2344 451.8438,26.7813 451.8438,26.3906 C451.8438,25.9375 451.4531,25.5469 450.9844,25.5469 C450.7656,25.5469 450.5625,25.625 450.375,25.8125 C449.9219,26.2969 449.9219,26.2969 449.7344,26.3906 C449.3125,26.6563 448.625,26.7813 447.8594,26.7813 C445.8125,26.7813 444.5156,25.6875 444.5156,23.9844 L444.5156,22.8906 C444.5156,21.1094 445.7656,19.7969 447.5,19.7969 C448.0781,19.7969 448.6875,19.9531 449.1563,20.2031 C449.6406,20.4844 449.8125,20.7031 449.9063,21.1094 C449.9688,21.5156 450,21.6406 450.1406,21.7656 C450.2813,21.9063 450.5156,22.0156 450.7344,22.0156 C451,22.0156 451.2656,21.875 451.4375,21.6563 C451.5469,21.5 451.5781,21.3125 451.5781,20.8906 L451.5781,19.4688 C451.5781,19.0313 451.5625,18.9063 451.4688,18.75 C451.3125,18.4844 451.0313,18.3438 450.7344,18.3438 C450.4375,18.3438 450.2344,18.4375 450.0156,18.75 L449.8438,18.6719 Z " fill="#000000"/><text fill="#000000" font-family="sans-serif" font-size="12" lengthAdjust="spacing" textLength="217" x="461.5" y="27.1543">RegisterClinicalAnalysisLaboratoryUI</text><line style="stroke:#A80036;stroke-width:1.5;" x1="433.5" x2="680.5" y1="39" y2="39"/><line style="stroke:#A80036;stroke-width:1.5;" x1="433.5" x2="680.5" y1="47" y2="47"/><!--MD5=[3e01155a07e9a1f759be5f2352b515e8]
class RegisterClinicalAnalysisLaboratoryController--><rect codeLine="6" fill="#FEFECE" filter="url(#fo0ep6p8w1r7a)" height="73.6094" id="RegisterClinicalAnalysisLaboratoryController" style="stroke:#A80036;stroke-width:1.5;" width="584" x="265" y="116"/><ellipse cx="420.75" cy="132" fill="#ADD1B2" rx="11" ry="11" style="stroke:#A80036;stroke-width:1.0;"/><path d="M423.0938,127.6719 C422.1563,127.2344 421.5625,127.0938 420.6875,127.0938 C418.0625,127.0938 416.0625,129.1719 416.0625,131.8906 L416.0625,133.0156 C416.0625,135.5938 418.1719,137.4844 421.0625,137.4844 C422.2813,137.4844 423.4375,137.1875 424.1875,136.6406 C424.7656,136.2344 425.0938,135.7813 425.0938,135.3906 C425.0938,134.9375 424.7031,134.5469 424.2344,134.5469 C424.0156,134.5469 423.8125,134.625 423.625,134.8125 C423.1719,135.2969 423.1719,135.2969 422.9844,135.3906 C422.5625,135.6563 421.875,135.7813 421.1094,135.7813 C419.0625,135.7813 417.7656,134.6875 417.7656,132.9844 L417.7656,131.8906 C417.7656,130.1094 419.0156,128.7969 420.75,128.7969 C421.3281,128.7969 421.9375,128.9531 422.4063,129.2031 C422.8906,129.4844 423.0625,129.7031 423.1563,130.1094 C423.2188,130.5156 423.25,130.6406 423.3906,130.7656 C423.5313,130.9063 423.7656,131.0156 423.9844,131.0156 C424.25,131.0156 424.5156,130.875 424.6875,130.6563 C424.7969,130.5 424.8281,130.3125 424.8281,129.8906 L424.8281,128.4688 C424.8281,128.0313 424.8125,127.9063 424.7188,127.75 C424.5625,127.4844 424.2813,127.3438 423.9844,127.3438 C423.6875,127.3438 423.4844,127.4375 423.2656,127.75 L423.0938,127.6719 Z " fill="#000000"/><text fill="#000000" font-family="sans-serif" font-size="12" lengthAdjust="spacing" textLength="264" x="441.25" y="136.1543">RegisterClinicalAnalysisLaboratoryController</text><line style="stroke:#A80036;stroke-width:1.5;" x1="266" x2="848" y1="148" y2="148"/><line style="stroke:#A80036;stroke-width:1.5;" x1="266" x2="848" y1="156" y2="156"/><text fill="#000000" font-family="sans-serif" font-size="11" lengthAdjust="spacing" textLength="572" x="271" y="170.2104">+registerClinicalAnalysisLaboratory(Laboratory ID, name, adrress, phone number, TIN, Type of tests)</text><text fill="#000000" font-family="sans-serif" font-size="11" lengthAdjust="spacing" textLength="192" x="271" y="183.0151">+saveClinicalAnalysisLaboratory()</text><!--MD5=[02e4b9b7573f1156f41e60aa5b4e25a4]
class Company--><rect codeLine="11" fill="#FEFECE" filter="url(#fo0ep6p8w1r7a)" height="99.2188" id="Company" style="stroke:#A80036;stroke-width:1.5;" width="584" x="7" y="251"/><ellipse cx="266.75" cy="267" fill="#ADD1B2" rx="11" ry="11" style="stroke:#A80036;stroke-width:1.0;"/><path d="M269.0938,262.6719 C268.1563,262.2344 267.5625,262.0938 266.6875,262.0938 C264.0625,262.0938 262.0625,264.1719 262.0625,266.8906 L262.0625,268.0156 C262.0625,270.5938 264.1719,272.4844 267.0625,272.4844 C268.2813,272.4844 269.4375,272.1875 270.1875,271.6406 C270.7656,271.2344 271.0938,270.7813 271.0938,270.3906 C271.0938,269.9375 270.7031,269.5469 270.2344,269.5469 C270.0156,269.5469 269.8125,269.625 269.625,269.8125 C269.1719,270.2969 269.1719,270.2969 268.9844,270.3906 C268.5625,270.6563 267.875,270.7813 267.1094,270.7813 C265.0625,270.7813 263.7656,269.6875 263.7656,267.9844 L263.7656,266.8906 C263.7656,265.1094 265.0156,263.7969 266.75,263.7969 C267.3281,263.7969 267.9375,263.9531 268.4063,264.2031 C268.8906,264.4844 269.0625,264.7031 269.1563,265.1094 C269.2188,265.5156 269.25,265.6406 269.3906,265.7656 C269.5313,265.9063 269.7656,266.0156 269.9844,266.0156 C270.25,266.0156 270.5156,265.875 270.6875,265.6563 C270.7969,265.5 270.8281,265.3125 270.8281,264.8906 L270.8281,263.4688 C270.8281,263.0313 270.8125,262.9063 270.7188,262.75 C270.5625,262.4844 270.2813,262.3438 269.9844,262.3438 C269.6875,262.3438 269.4844,262.4375 269.2656,262.75 L269.0938,262.6719 Z " fill="#000000"/><text fill="#000000" font-family="sans-serif" font-size="12" lengthAdjust="spacing" textLength="56" x="287.25" y="271.1543">Company</text><line style="stroke:#A80036;stroke-width:1.5;" x1="8" x2="590" y1="283" y2="283"/><line style="stroke:#A80036;stroke-width:1.5;" x1="8" x2="590" y1="291" y2="291"/><text fill="#000000" font-family="sans-serif" font-size="11" lengthAdjust="spacing" textLength="572" x="13" y="305.2104">+registerClinicalAnalysisLaboratory(Laboratory ID, name, adrress, phone number, TIN, Type of tests)</text><text fill="#000000" font-family="sans-serif" font-size="11" lengthAdjust="spacing" textLength="226" x="13" y="318.0151">+validateClinicalAnalysisLaboratory(cal)</text><text fill="#000000" font-family="sans-serif" font-size="11" lengthAdjust="spacing" textLength="208" x="13" y="330.8198">+saveClinicalAnalysisLaboratory(cal)</text><text fill="#000000" font-family="sans-serif" font-size="11" lengthAdjust="spacing" textLength="196" x="13" y="343.6245">-addClinicalAnalysisLaboratory(cal)</text><!--MD5=[1934a092c0e7d4da7dc7075b6f4b6b03]
class ClinicalAnalysisLaboratory--><rect codeLine="19" fill="#FEFECE" filter="url(#fo0ep6p8w1r7a)" height="137.6328" id="ClinicalAnalysisLaboratory" style="stroke:#A80036;stroke-width:1.5;" width="510" x="285" y="427"/><ellipse cx="458.25" cy="443" fill="#ADD1B2" rx="11" ry="11" style="stroke:#A80036;stroke-width:1.0;"/><path d="M460.5938,438.6719 C459.6563,438.2344 459.0625,438.0938 458.1875,438.0938 C455.5625,438.0938 453.5625,440.1719 453.5625,442.8906 L453.5625,444.0156 C453.5625,446.5938 455.6719,448.4844 458.5625,448.4844 C459.7813,448.4844 460.9375,448.1875 461.6875,447.6406 C462.2656,447.2344 462.5938,446.7813 462.5938,446.3906 C462.5938,445.9375 462.2031,445.5469 461.7344,445.5469 C461.5156,445.5469 461.3125,445.625 461.125,445.8125 C460.6719,446.2969 460.6719,446.2969 460.4844,446.3906 C460.0625,446.6563 459.375,446.7813 458.6094,446.7813 C456.5625,446.7813 455.2656,445.6875 455.2656,443.9844 L455.2656,442.8906 C455.2656,441.1094 456.5156,439.7969 458.25,439.7969 C458.8281,439.7969 459.4375,439.9531 459.9063,440.2031 C460.3906,440.4844 460.5625,440.7031 460.6563,441.1094 C460.7188,441.5156 460.75,441.6406 460.8906,441.7656 C461.0313,441.9063 461.2656,442.0156 461.4844,442.0156 C461.75,442.0156 462.0156,441.875 462.1875,441.6563 C462.2969,441.5 462.3281,441.3125 462.3281,440.8906 L462.3281,439.4688 C462.3281,439.0313 462.3125,438.9063 462.2188,438.75 C462.0625,438.4844 461.7813,438.3438 461.4844,438.3438 C461.1875,438.3438 460.9844,438.4375 460.7656,438.75 L460.5938,438.6719 Z " fill="#000000"/><text fill="#000000" font-family="sans-serif" font-size="12" lengthAdjust="spacing" textLength="155" x="478.75" y="447.1543">ClinicalAnalysisLaboratory</text><line style="stroke:#A80036;stroke-width:1.5;" x1="286" x2="794" y1="459" y2="459"/><text fill="#000000" font-family="sans-serif" font-size="11" lengthAdjust="spacing" textLength="73" x="291" y="473.2104">-laboratoryID</text><text fill="#000000" font-family="sans-serif" font-size="11" lengthAdjust="spacing" textLength="37" x="291" y="486.0151">-name</text><text fill="#000000" font-family="sans-serif" font-size="11" lengthAdjust="spacing" textLength="42" x="291" y="498.8198">-adress</text><text fill="#000000" font-family="sans-serif" font-size="11" lengthAdjust="spacing" textLength="85" x="291" y="511.6245">-phoneNumber</text><text fill="#000000" font-family="sans-serif" font-size="11" lengthAdjust="spacing" textLength="18" x="291" y="524.4292">-tin</text><text fill="#000000" font-family="sans-serif" font-size="11" lengthAdjust="spacing" textLength="68" x="291" y="537.2339">-typeOfTest</text><line style="stroke:#A80036;stroke-width:1.5;" x1="286" x2="794" y1="543.8281" y2="543.8281"/><text fill="#000000" font-family="sans-serif" font-size="11" lengthAdjust="spacing" textLength="498" x="291" y="558.0386">+ClinicalAnalysisLaboratory(laboratoryID, name, adress, phoneNumber, tin, typeOfTest)</text><!--MD5=[8ee9cf4f678b85e75633146633dfa0d9]
link RegisterClinicalAnalysisLaboratoryUI to RegisterClinicalAnalysisLaboratoryController--><path codeLine="29" d="M557,55.137 C557,70.825 557,92.003 557,110.555 " fill="none" id="RegisterClinicalAnalysisLaboratoryUI-to-RegisterClinicalAnalysisLaboratoryController" style="stroke:#A80036;stroke-width:1.0;stroke-dasharray:7.0,7.0;"/><polygon fill="#A80036" points="557,115.711,561,106.711,557,110.711,553,106.711,557,115.711" style="stroke:#A80036;stroke-width:1.0;"/><!--MD5=[d3f5f524c9a4d018bf7e8a86fcb7b20f]
link RegisterClinicalAnalysisLaboratoryController to Company--><path codeLine="30" d="M492.893,190.153 C461.757,207.712 423.801,229.118 389.753,248.319 " fill="none" id="RegisterClinicalAnalysisLaboratoryController-to-Company" style="stroke:#A80036;stroke-width:1.0;stroke-dasharray:7.0,7.0;"/><polygon fill="#A80036" points="385.192,250.892,394.9961,249.9539,389.5469,248.4353,391.0654,242.9861,385.192,250.892" style="stroke:#A80036;stroke-width:1.0;"/><!--MD5=[3309be819d4ed2af11c667aec6476f63]
link RegisterClinicalAnalysisLaboratoryController to ClinicalAnalysisLaboratory--><path codeLine="31" d="M581.802,190.013 C592.418,207.571 603.601,229.503 609,251 C619.717,293.675 618.691,307.081 609,350 C603.468,374.499 593.284,399.713 582.408,422.104 " fill="none" id="RegisterClinicalAnalysisLaboratoryController-to-ClinicalAnalysisLaboratory" style="stroke:#A80036;stroke-width:1.0;stroke-dasharray:7.0,7.0;"/><polygon fill="#A80036" points="580.078,426.838,587.6421,420.5305,582.2866,422.3522,580.4649,416.9967,580.078,426.838" style="stroke:#A80036;stroke-width:1.0;"/><!--MD5=[aafc5d8a5829a6a8d6dc892cb1ff5d24]
link Company to ClinicalAnalysisLaboratory--><path codeLine="32" d="M359.503,350.078 C387.126,372.256 420.395,398.968 450.805,423.385 " fill="none" id="Company-to-ClinicalAnalysisLaboratory" style="stroke:#A80036;stroke-width:1.0;"/><polygon fill="#A80036" points="454.883,426.659,450.3676,417.9062,450.9835,423.5294,445.3603,424.1453,454.883,426.659" style="stroke:#A80036;stroke-width:1.0;"/><text fill="#000000" font-family="sans-serif" font-size="13" lengthAdjust="spacing" textLength="44" x="414" y="393.0669">adopts</text><text fill="#000000" font-family="sans-serif" font-size="13" lengthAdjust="spacing" textLength="8" x="359.4487" y="370.1654">1</text><text fill="#000000" font-family="sans-serif" font-size="13" lengthAdjust="spacing" textLength="7" x="438.7444" y="415.8274">*</text><!--MD5=[4110dcaac349288c7471d3da98ad14f7]
@startuml
skinparam classAttributeIconSize 0

class RegisterClinicalAnalysisLaboratoryUI {
}

class RegisterClinicalAnalysisLaboratoryController {
  +registerClinicalAnalysisLaboratory(Laboratory ID, name, adrress, phone number, TIN, Type of tests)
  +saveClinicalAnalysisLaboratory()
}

class Company
{
  +registerClinicalAnalysisLaboratory(Laboratory ID, name, adrress, phone number, TIN, Type of tests)
  +validateClinicalAnalysisLaboratory(cal)
  +saveClinicalAnalysisLaboratory(cal)
  -addClinicalAnalysisLaboratory(cal)
}

class ClinicalAnalysisLaboratory {
  -laboratoryID
  -name
  -adress
  -phoneNumber
  -tin
  -typeOfTest
  +ClinicalAnalysisLaboratory(laboratoryID, name, adress, phoneNumber, tin, typeOfTest)
}

RegisterClinicalAnalysisLaboratoryUI ..> RegisterClinicalAnalysisLaboratoryController
RegisterClinicalAnalysisLaboratoryController ..> Company
RegisterClinicalAnalysisLaboratoryController ..> ClinicalAnalysisLaboratory
Company "1" - -> "*" ClinicalAnalysisLaboratory : adopts
@enduml

PlantUML version 1.2021.6beta4(Unknown compile time)
(GPL source distribution)
Java Runtime: Java(TM) SE Runtime Environment
JVM: Java HotSpot(TM) 64-Bit Server VM
Default Encoding: UTF-8
Language: en
Country: US
--></g></svg>