<?xml version="1.0" encoding="UTF-8" standalone="no"?><svg xmlns="http://www.w3.org/2000/svg" xmlns:xlink="http://www.w3.org/1999/xlink" contentScriptType="application/ecmascript" contentStyleType="text/css" height="1057px" preserveAspectRatio="none" style="width:2811px;height:1057px;background:#FFFFFF;" version="1.1" viewBox="0 0 2811 1057" width="2811px" zoomAndPan="magnify"><defs><filter height="300%" id="f1gajnrw64o62o" width="300%" x="-1" y="-1"><feGaussianBlur result="blurOut" stdDeviation="2.0"/><feColorMatrix in="blurOut" result="blurOut2" type="matrix" values="0 0 0 0 0 0 0 0 0 0 0 0 0 0 0 0 0 0 .4 0"/><feOffset dx="4.0" dy="4.0" in="blurOut2" result="blurOut3"/><feBlend in="SourceGraphic" in2="blurOut3" mode="normal"/></filter></defs><g><rect fill="#FFFFFF" filter="url(#f1gajnrw64o62o)" height="857.0859" style="stroke:#A80036;stroke-width:1.0;" width="10" x="68" y="98.2969"/><rect fill="#FFFFFF" filter="url(#f1gajnrw64o62o)" height="29.1328" style="stroke:#A80036;stroke-width:1.0;" width="10" x="536" y="119.4297"/><rect fill="#FFFFFF" filter="url(#f1gajnrw64o62o)" height="200.6641" style="stroke:#A80036;stroke-width:1.0;" width="10" x="536" y="177.6953"/><rect fill="#FFFFFF" filter="url(#f1gajnrw64o62o)" height="287.0938" style="stroke:#A80036;stroke-width:1.0;" width="10" x="536" y="407.4922"/><rect fill="#FFFFFF" filter="url(#f1gajnrw64o62o)" height="231.6641" style="stroke:#A80036;stroke-width:1.0;" width="10" x="536" y="723.7188"/><rect fill="#FFFFFF" filter="url(#f1gajnrw64o62o)" height="118.2656" style="stroke:#A80036;stroke-width:1.0;" width="10" x="1190" y="206.8281"/><rect fill="#FFFFFF" filter="url(#f1gajnrw64o62o)" height="221.8281" style="stroke:#A80036;stroke-width:1.0;" width="10" x="1190" y="443.625"/><rect fill="#FFFFFF" filter="url(#f1gajnrw64o62o)" height="166.3984" style="stroke:#A80036;stroke-width:1.0;" width="10" x="1190" y="752.8516"/><rect fill="#FFFFFF" filter="url(#f1gajnrw64o62o)" height="30" style="stroke:#A80036;stroke-width:1.0;" width="10" x="1536" y="235.9609"/><rect fill="#FFFFFF" filter="url(#f1gajnrw64o62o)" height="30" style="stroke:#A80036;stroke-width:1.0;" width="10" x="1536" y="472.7578"/><rect fill="#FFFFFF" filter="url(#f1gajnrw64o62o)" height="30" style="stroke:#A80036;stroke-width:1.0;" width="10" x="1654.5" y="295.0938"/><rect fill="#FFFFFF" filter="url(#f1gajnrw64o62o)" height="29.1328" style="stroke:#A80036;stroke-width:1.0;" width="10" x="1830" y="531.8906"/><rect fill="#FFFFFF" filter="url(#f1gajnrw64o62o)" height="30" style="stroke:#A80036;stroke-width:1.0;" width="10" x="1830" y="606.3203"/><rect fill="#FFFFFF" filter="url(#f1gajnrw64o62o)" height="137.2656" style="stroke:#A80036;stroke-width:1.0;" width="10" x="1830" y="781.9844"/><rect fill="#FFFFFF" filter="url(#f1gajnrw64o62o)" height="28" style="stroke:#A80036;stroke-width:1.0;" width="10" x="1835" y="819.1172"/><rect fill="#FFFFFF" filter="url(#f1gajnrw64o62o)" height="28" style="stroke:#A80036;stroke-width:1.0;" width="10" x="1835" y="891.25"/><rect fill="#FFFFFF" filter="url(#f1gajnrw64o62o)" height="75.3984" style="stroke:#000000;stroke-width:2.0;" width="652.5" x="10" y="340.0938"/><line style="stroke:#A80036;stroke-width:1.0;stroke-dasharray:5.0,5.0;" x1="73" x2="73" y1="88.2969" y2="973.3828"/><line style="stroke:#A80036;stroke-width:1.0;stroke-dasharray:5.0,5.0;" x1="540.5" x2="540.5" y1="88.2969" y2="973.3828"/><line style="stroke:#A80036;stroke-width:1.0;stroke-dasharray:5.0,5.0;" x1="1194.5" x2="1194.5" y1="88.2969" y2="973.3828"/><line style="stroke:#A80036;stroke-width:1.0;stroke-dasharray:5.0,5.0;" x1="1540.5" x2="1540.5" y1="88.2969" y2="973.3828"/><line style="stroke:#A80036;stroke-width:1.0;stroke-dasharray:5.0,5.0;" x1="1659.5" x2="1659.5" y1="88.2969" y2="973.3828"/><line style="stroke:#A80036;stroke-width:1.0;stroke-dasharray:5.0,5.0;" x1="1834.5" x2="1834.5" y1="88.2969" y2="973.3828"/><line style="stroke:#A80036;stroke-width:1.0;stroke-dasharray:5.0,5.0;" x1="2446" x2="2446" y1="572.5391" y2="973.3828"/><line style="stroke:#A80036;stroke-width:1.0;stroke-dasharray:5.0,5.0;" x1="2638" x2="2638" y1="88.2969" y2="973.3828"/><line style="stroke:#A80036;stroke-width:1.0;stroke-dasharray:5.0,5.0;" x1="2758" x2="2758" y1="88.2969" y2="973.3828"/><text fill="#000000" font-family="sans-serif" font-size="14" lengthAdjust="spacing" textLength="100" x="20" y="84.9951">Administrator</text><ellipse cx="73" cy="15" fill="#FEFECE" filter="url(#f1gajnrw64o62o)" rx="8" ry="8" style="stroke:#A80036;stroke-width:2.0;"/><path d="M73,23 L73,50 M60,31 L86,31 M73,50 L60,65 M73,50 L86,65 " fill="none" filter="url(#f1gajnrw64o62o)" style="stroke:#A80036;stroke-width:2.0;"/><text fill="#000000" font-family="sans-serif" font-size="14" lengthAdjust="spacing" textLength="100" x="20" y="985.3779">Administrator</text><ellipse cx="73" cy="998.6797" fill="#FEFECE" filter="url(#f1gajnrw64o62o)" rx="8" ry="8" style="stroke:#A80036;stroke-width:2.0;"/><path d="M73,1006.6797 L73,1033.6797 M60,1014.6797 L86,1014.6797 M73,1033.6797 L60,1048.6797 M73,1033.6797 L86,1048.6797 " fill="none" filter="url(#f1gajnrw64o62o)" style="stroke:#A80036;stroke-width:2.0;"/><rect fill="#FEFECE" filter="url(#f1gajnrw64o62o)" height="30.2969" style="stroke:#A80036;stroke-width:1.5;" width="219" x="429.5" y="53"/><text fill="#000000" font-family="sans-serif" font-size="14" lengthAdjust="spacing" textLength="205" x="436.5" y="72.9951">:ClinicalAnalysisLaboratoryUI</text><rect fill="#FEFECE" filter="url(#f1gajnrw64o62o)" height="30.2969" style="stroke:#A80036;stroke-width:1.5;" width="219" x="429.5" y="972.3828"/><text fill="#000000" font-family="sans-serif" font-size="14" lengthAdjust="spacing" textLength="205" x="436.5" y="992.3779">:ClinicalAnalysisLaboratoryUI</text><rect fill="#FEFECE" filter="url(#f1gajnrw64o62o)" height="30.2969" style="stroke:#A80036;stroke-width:1.5;" width="279" x="1053.5" y="53"/><text fill="#000000" font-family="sans-serif" font-size="14" lengthAdjust="spacing" textLength="265" x="1060.5" y="72.9951">:ClinicalAnalysisLaboratoryController</text><rect fill="#FEFECE" filter="url(#f1gajnrw64o62o)" height="30.2969" style="stroke:#A80036;stroke-width:1.5;" width="279" x="1053.5" y="972.3828"/><text fill="#000000" font-family="sans-serif" font-size="14" lengthAdjust="spacing" textLength="265" x="1060.5" y="992.3779">:ClinicalAnalysisLaboratoryController</text><rect fill="#FEFECE" filter="url(#f1gajnrw64o62o)" height="30.2969" style="stroke:#A80036;stroke-width:1.5;" width="87" x="1495.5" y="53"/><text fill="#000000" font-family="sans-serif" font-size="14" lengthAdjust="spacing" textLength="73" x="1502.5" y="72.9951">:Company</text><rect fill="#FEFECE" filter="url(#f1gajnrw64o62o)" height="30.2969" style="stroke:#A80036;stroke-width:1.5;" width="87" x="1495.5" y="972.3828"/><text fill="#000000" font-family="sans-serif" font-size="14" lengthAdjust="spacing" textLength="73" x="1502.5" y="992.3779">:Company</text><rect fill="#FEFECE" filter="url(#f1gajnrw64o62o)" height="46.5938" style="stroke:#A80036;stroke-width:1.5;" width="122" x="1596.5" y="36.7031"/><text fill="#000000" font-family="sans-serif" font-size="14" lengthAdjust="spacing" textLength="19" x="1648" y="56.6982">ts:</text><text fill="#000000" font-family="sans-serif" font-size="14" lengthAdjust="spacing" textLength="108" x="1603.5" y="72.9951">TestTypeStore</text><rect fill="#FEFECE" filter="url(#f1gajnrw64o62o)" height="46.5938" style="stroke:#A80036;stroke-width:1.5;" width="122" x="1596.5" y="972.3828"/><text fill="#000000" font-family="sans-serif" font-size="14" lengthAdjust="spacing" textLength="19" x="1648" y="992.3779">ts:</text><text fill="#000000" font-family="sans-serif" font-size="14" lengthAdjust="spacing" textLength="108" x="1603.5" y="1008.6748">TestTypeStore</text><rect fill="#FEFECE" filter="url(#f1gajnrw64o62o)" height="46.5938" style="stroke:#A80036;stroke-width:1.5;" width="201" x="1732.5" y="36.7031"/><text fill="#000000" font-family="sans-serif" font-size="14" lengthAdjust="spacing" textLength="65" x="1800.5" y="56.6982">calStore:</text><text fill="#000000" font-family="sans-serif" font-size="14" lengthAdjust="spacing" textLength="187" x="1739.5" y="72.9951">ClinicalAnalysisLaboratory</text><rect fill="#FEFECE" filter="url(#f1gajnrw64o62o)" height="46.5938" style="stroke:#A80036;stroke-width:1.5;" width="201" x="1732.5" y="972.3828"/><text fill="#000000" font-family="sans-serif" font-size="14" lengthAdjust="spacing" textLength="65" x="1800.5" y="992.3779">calStore:</text><text fill="#000000" font-family="sans-serif" font-size="14" lengthAdjust="spacing" textLength="187" x="1739.5" y="1008.6748">ClinicalAnalysisLaboratory</text><rect fill="#FEFECE" filter="url(#f1gajnrw64o62o)" height="30.2969" style="stroke:#A80036;stroke-width:1.5;" width="226" x="2331" y="972.3828"/><text fill="#000000" font-family="sans-serif" font-size="14" lengthAdjust="spacing" textLength="212" x="2338" y="992.3779">cal:ClinicalAnalysisLaboratory</text><rect fill="#FEFECE" filter="url(#f1gajnrw64o62o)" height="46.5938" style="stroke:#A80036;stroke-width:1.5;" width="130" x="2571" y="36.7031"/><text fill="#000000" font-family="sans-serif" font-size="14" lengthAdjust="spacing" textLength="16" x="2628" y="56.6982">lt:</text><text fill="#000000" font-family="sans-serif" font-size="14" lengthAdjust="spacing" textLength="116" x="2578" y="72.9951">List&lt;TestType&gt;</text><rect fill="#FEFECE" filter="url(#f1gajnrw64o62o)" height="46.5938" style="stroke:#A80036;stroke-width:1.5;" width="130" x="2571" y="972.3828"/><text fill="#000000" font-family="sans-serif" font-size="14" lengthAdjust="spacing" textLength="16" x="2628" y="992.3779">lt:</text><text fill="#000000" font-family="sans-serif" font-size="14" lengthAdjust="spacing" textLength="116" x="2578" y="1008.6748">List&lt;TestType&gt;</text><rect fill="#FEFECE" filter="url(#f1gajnrw64o62o)" height="46.5938" style="stroke:#A80036;stroke-width:1.5;" width="82" x="2715" y="36.7031"/><text fill="#000000" font-family="sans-serif" font-size="14" lengthAdjust="spacing" textLength="19" x="2746.5" y="56.6982">tt:</text><text fill="#000000" font-family="sans-serif" font-size="14" lengthAdjust="spacing" textLength="68" x="2722" y="72.9951">TestType</text><rect fill="#FEFECE" filter="url(#f1gajnrw64o62o)" height="46.5938" style="stroke:#A80036;stroke-width:1.5;" width="82" x="2715" y="972.3828"/><text fill="#000000" font-family="sans-serif" font-size="14" lengthAdjust="spacing" textLength="19" x="2746.5" y="992.3779">tt:</text><text fill="#000000" font-family="sans-serif" font-size="14" lengthAdjust="spacing" textLength="68" x="2722" y="1008.6748">TestType</text><rect fill="#FFFFFF" filter="url(#f1gajnrw64o62o)" height="857.0859" style="stroke:#A80036;stroke-width:1.0;" width="10" x="68" y="98.2969"/><rect fill="#FFFFFF" filter="url(#f1gajnrw64o62o)" height="29.1328" style="stroke:#A80036;stroke-width:1.0;" width="10" x="536" y="119.4297"/><rect fill="#FFFFFF" filter="url(#f1gajnrw64o62o)" height="200.6641" style="stroke:#A80036;stroke-width:1.0;" width="10" x="536" y="177.6953"/><rect fill="#FFFFFF" filter="url(#f1gajnrw64o62o)" height="287.0938" style="stroke:#A80036;stroke-width:1.0;" width="10" x="536" y="407.4922"/><rect fill="#FFFFFF" filter="url(#f1gajnrw64o62o)" height="231.6641" style="stroke:#A80036;stroke-width:1.0;" width="10" x="536" y="723.7188"/><rect fill="#FFFFFF" filter="url(#f1gajnrw64o62o)" height="118.2656" style="stroke:#A80036;stroke-width:1.0;" width="10" x="1190" y="206.8281"/><rect fill="#FFFFFF" filter="url(#f1gajnrw64o62o)" height="221.8281" style="stroke:#A80036;stroke-width:1.0;" width="10" x="1190" y="443.625"/><rect fill="#FFFFFF" filter="url(#f1gajnrw64o62o)" height="166.3984" style="stroke:#A80036;stroke-width:1.0;" width="10" x="1190" y="752.8516"/><rect fill="#FFFFFF" filter="url(#f1gajnrw64o62o)" height="30" style="stroke:#A80036;stroke-width:1.0;" width="10" x="1536" y="235.9609"/><rect fill="#FFFFFF" filter="url(#f1gajnrw64o62o)" height="30" style="stroke:#A80036;stroke-width:1.0;" width="10" x="1536" y="472.7578"/><rect fill="#FFFFFF" filter="url(#f1gajnrw64o62o)" height="30" style="stroke:#A80036;stroke-width:1.0;" width="10" x="1654.5" y="295.0938"/><rect fill="#FFFFFF" filter="url(#f1gajnrw64o62o)" height="29.1328" style="stroke:#A80036;stroke-width:1.0;" width="10" x="1830" y="531.8906"/><rect fill="#FFFFFF" filter="url(#f1gajnrw64o62o)" height="30" style="stroke:#A80036;stroke-width:1.0;" width="10" x="1830" y="606.3203"/><rect fill="#FFFFFF" filter="url(#f1gajnrw64o62o)" height="137.2656" style="stroke:#A80036;stroke-width:1.0;" width="10" x="1830" y="781.9844"/><rect fill="#FFFFFF" filter="url(#f1gajnrw64o62o)" height="28" style="stroke:#A80036;stroke-width:1.0;" width="10" x="1835" y="819.1172"/><rect fill="#FFFFFF" filter="url(#f1gajnrw64o62o)" height="28" style="stroke:#A80036;stroke-width:1.0;" width="10" x="1835" y="891.25"/><polygon fill="#A80036" points="524,115.4297,534,119.4297,524,123.4297,528,119.4297" style="stroke:#A80036;stroke-width:1.0;"/><line style="stroke:#A80036;stroke-width:1.0;" x1="78" x2="530" y1="119.4297" y2="119.4297"/><text fill="#000000" font-family="sans-serif" font-size="13" font-weight="bold" lengthAdjust="spacing" textLength="9" x="85" y="114.3638">1</text><text fill="#000000" font-family="sans-serif" font-size="13" lengthAdjust="spacing" textLength="302" x="98" y="114.3638">asks to register new clinical analysis laboratory</text><polygon fill="#A80036" points="89,144.5625,79,148.5625,89,152.5625,85,148.5625" style="stroke:#A80036;stroke-width:1.0;"/><line style="stroke:#A80036;stroke-width:1.0;stroke-dasharray:2.0,2.0;" x1="83" x2="540" y1="148.5625" y2="148.5625"/><text fill="#000000" font-family="sans-serif" font-size="13" font-weight="bold" lengthAdjust="spacing" textLength="9" x="95" y="143.4966">2</text><text fill="#000000" font-family="sans-serif" font-size="13" lengthAdjust="spacing" textLength="421" x="108" y="143.4966">requests data (Laboratory ID, name, adrress, phone number, TIN)</text><polygon fill="#A80036" points="524,173.6953,534,177.6953,524,181.6953,528,177.6953" style="stroke:#A80036;stroke-width:1.0;"/><line style="stroke:#A80036;stroke-width:1.0;" x1="78" x2="530" y1="177.6953" y2="177.6953"/><text fill="#000000" font-family="sans-serif" font-size="13" font-weight="bold" lengthAdjust="spacing" textLength="8" x="85" y="172.6294">3</text><text fill="#000000" font-family="sans-serif" font-size="13" lengthAdjust="spacing" textLength="138" x="97" y="172.6294">types requested data</text><polygon fill="#A80036" points="1178,202.8281,1188,206.8281,1178,210.8281,1182,206.8281" style="stroke:#A80036;stroke-width:1.0;"/><line style="stroke:#A80036;stroke-width:1.0;" x1="546" x2="1184" y1="206.8281" y2="206.8281"/><text fill="#000000" font-family="sans-serif" font-size="13" font-weight="bold" lengthAdjust="spacing" textLength="9" x="553" y="201.7622">4</text><text fill="#000000" font-family="sans-serif" font-size="13" lengthAdjust="spacing" textLength="116" x="566" y="201.7622">lt=getTestTypes()</text><polygon fill="#A80036" points="1524,231.9609,1534,235.9609,1524,239.9609,1528,235.9609" style="stroke:#A80036;stroke-width:1.0;"/><line style="stroke:#A80036;stroke-width:1.0;" x1="1200" x2="1530" y1="235.9609" y2="235.9609"/><text fill="#000000" font-family="sans-serif" font-size="13" font-weight="bold" lengthAdjust="spacing" textLength="9" x="1207" y="230.895">5</text><text fill="#000000" font-family="sans-serif" font-size="13" lengthAdjust="spacing" textLength="147" x="1220" y="230.895">ts=getTestTypeStore()</text><polygon fill="#A80036" points="1642.5,291.0938,1652.5,295.0938,1642.5,299.0938,1646.5,295.0938" style="stroke:#A80036;stroke-width:1.0;"/><line style="stroke:#A80036;stroke-width:1.0;" x1="1200" x2="1648.5" y1="295.0938" y2="295.0938"/><text fill="#000000" font-family="sans-serif" font-size="13" font-weight="bold" lengthAdjust="spacing" textLength="9" x="1207" y="290.0278">6</text><text fill="#000000" font-family="sans-serif" font-size="13" lengthAdjust="spacing" textLength="132" x="1220" y="290.0278">lt=ts.getTestTypes()</text><path d="M10,340.0938 L88,340.0938 L88,347.0938 L78,357.0938 L10,357.0938 L10,340.0938 " fill="#EEEEEE" style="stroke:#000000;stroke-width:1.0;"/><rect fill="none" height="75.3984" style="stroke:#000000;stroke-width:2.0;" width="652.5" x="10" y="340.0938"/><text fill="#000000" font-family="sans-serif" font-size="13" font-weight="bold" lengthAdjust="spacing" textLength="33" x="25" y="353.1606">loop</text><text fill="#000000" font-family="sans-serif" font-size="11" font-weight="bold" lengthAdjust="spacing" textLength="262" x="103" y="352.3042">[until no more test types are selected]</text><polygon fill="#A80036" points="89,374.3594,79,378.3594,89,382.3594,85,378.3594" style="stroke:#A80036;stroke-width:1.0;"/><line style="stroke:#A80036;stroke-width:1.0;stroke-dasharray:2.0,2.0;" x1="83" x2="540" y1="378.3594" y2="378.3594"/><text fill="#000000" font-family="sans-serif" font-size="13" font-weight="bold" lengthAdjust="spacing" textLength="9" x="95" y="373.2935">7</text><text fill="#000000" font-family="sans-serif" font-size="13" lengthAdjust="spacing" textLength="273" x="108" y="373.2935">shows test types list and ask to select one</text><polygon fill="#A80036" points="524,403.4922,534,407.4922,524,411.4922,528,407.4922" style="stroke:#A80036;stroke-width:1.0;"/><line style="stroke:#A80036;stroke-width:1.0;" x1="78" x2="530" y1="407.4922" y2="407.4922"/><text fill="#000000" font-family="sans-serif" font-size="13" font-weight="bold" lengthAdjust="spacing" textLength="9" x="85" y="402.4263">8</text><text fill="#000000" font-family="sans-serif" font-size="13" lengthAdjust="spacing" textLength="119" x="98" y="402.4263">selects a test type</text><polygon fill="#A80036" points="1178,439.625,1188,443.625,1178,447.625,1182,443.625" style="stroke:#A80036;stroke-width:1.0;"/><line style="stroke:#A80036;stroke-width:1.0;" x1="546" x2="1184" y1="443.625" y2="443.625"/><text fill="#000000" font-family="sans-serif" font-size="13" font-weight="bold" lengthAdjust="spacing" textLength="9" x="553" y="438.5591">9</text><text fill="#000000" font-family="sans-serif" font-size="13" lengthAdjust="spacing" textLength="612" x="566" y="438.5591">registerClinicalAnalysisLaboratory(Laboratory ID, name, adrress, phone number, TIN, TestType)</text><polygon fill="#A80036" points="1524,468.7578,1534,472.7578,1524,476.7578,1528,472.7578" style="stroke:#A80036;stroke-width:1.0;"/><line style="stroke:#A80036;stroke-width:1.0;" x1="1200" x2="1530" y1="472.7578" y2="472.7578"/><text fill="#000000" font-family="sans-serif" font-size="13" font-weight="bold" lengthAdjust="spacing" textLength="19" x="1207" y="467.6919">10</text><text fill="#000000" font-family="sans-serif" font-size="13" lengthAdjust="spacing" textLength="294" x="1230" y="467.6919">calStore=getClinicalAnalysisLaboratoryStore()</text><polygon fill="#A80036" points="1818,527.8906,1828,531.8906,1818,535.8906,1822,531.8906" style="stroke:#A80036;stroke-width:1.0;"/><line style="stroke:#A80036;stroke-width:1.0;" x1="1200" x2="1824" y1="531.8906" y2="531.8906"/><text fill="#000000" font-family="sans-serif" font-size="13" font-weight="bold" lengthAdjust="spacing" textLength="18" x="1207" y="526.8247">11</text><text fill="#000000" font-family="sans-serif" font-size="13" lengthAdjust="spacing" textLength="529" x="1229" y="526.8247">cal=calStore.register(Laboratory ID, name, adrress, phone number, TIN, TestType)</text><polygon fill="#A80036" points="2319,557.0234,2329,561.0234,2319,565.0234,2323,561.0234" style="stroke:#A80036;stroke-width:1.0;"/><line style="stroke:#A80036;stroke-width:1.0;stroke-dasharray:2.0,2.0;" x1="1835" x2="2325" y1="561.0234" y2="561.0234"/><text fill="#000000" font-family="sans-serif" font-size="13" font-weight="bold" lengthAdjust="spacing" textLength="18" x="1842" y="555.9575">12</text><text fill="#000000" font-family="sans-serif" font-size="13" lengthAdjust="spacing" textLength="445" x="1864" y="555.9575">register(Laboratory ID, name, adrress, phone number, TIN, TestType)</text><rect fill="#FEFECE" filter="url(#f1gajnrw64o62o)" height="30.2969" style="stroke:#A80036;stroke-width:1.5;" width="226" x="2331" y="539.8906"/><text fill="#000000" font-family="sans-serif" font-size="14" lengthAdjust="spacing" textLength="212" x="2338" y="559.8857">cal:ClinicalAnalysisLaboratory</text><polygon fill="#A80036" points="1818,602.3203,1828,606.3203,1818,610.3203,1822,606.3203" style="stroke:#A80036;stroke-width:1.0;"/><line style="stroke:#A80036;stroke-width:1.0;" x1="1200" x2="1824" y1="606.3203" y2="606.3203"/><text fill="#000000" font-family="sans-serif" font-size="13" font-weight="bold" lengthAdjust="spacing" textLength="17" x="1207" y="601.2544">13</text><text fill="#000000" font-family="sans-serif" font-size="13" lengthAdjust="spacing" textLength="246" x="1228" y="601.2544">validateClinicalAnalysisLaboratory(cal)</text><polygon fill="#A80036" points="557,661.4531,547,665.4531,557,669.4531,553,665.4531" style="stroke:#A80036;stroke-width:1.0;"/><line style="stroke:#A80036;stroke-width:1.0;" x1="551" x2="1194" y1="665.4531" y2="665.4531"/><text fill="#000000" font-family="sans-serif" font-size="13" font-weight="bold" lengthAdjust="spacing" textLength="18" x="563" y="660.3872">14</text><text fill="#000000" font-family="sans-serif" font-size="13" lengthAdjust="spacing" textLength="36" x="585" y="660.3872">result</text><polygon fill="#A80036" points="89,690.5859,79,694.5859,89,698.5859,85,694.5859" style="stroke:#A80036;stroke-width:1.0;"/><line style="stroke:#A80036;stroke-width:1.0;stroke-dasharray:2.0,2.0;" x1="83" x2="540" y1="694.5859" y2="694.5859"/><text fill="#000000" font-family="sans-serif" font-size="13" font-weight="bold" lengthAdjust="spacing" textLength="18" x="95" y="689.52">15</text><text fill="#000000" font-family="sans-serif" font-size="13" lengthAdjust="spacing" textLength="277" x="117" y="689.52">shows the data and request a confirmation</text><polygon fill="#A80036" points="524,719.7188,534,723.7188,524,727.7188,528,723.7188" style="stroke:#A80036;stroke-width:1.0;"/><line style="stroke:#A80036;stroke-width:1.0;" x1="78" x2="530" y1="723.7188" y2="723.7188"/><text fill="#000000" font-family="sans-serif" font-size="13" font-weight="bold" lengthAdjust="spacing" textLength="18" x="85" y="718.6528">16</text><text fill="#000000" font-family="sans-serif" font-size="13" lengthAdjust="spacing" textLength="114" x="107" y="718.6528">confirms the data</text><polygon fill="#A80036" points="1178,748.8516,1188,752.8516,1178,756.8516,1182,752.8516" style="stroke:#A80036;stroke-width:1.0;"/><line style="stroke:#A80036;stroke-width:1.0;" x1="546" x2="1184" y1="752.8516" y2="752.8516"/><text fill="#000000" font-family="sans-serif" font-size="13" font-weight="bold" lengthAdjust="spacing" textLength="18" x="553" y="747.7856">17</text><text fill="#000000" font-family="sans-serif" font-size="13" lengthAdjust="spacing" textLength="208" x="575" y="747.7856">saveClinicalAnalysisLaboratory()</text><polygon fill="#A80036" points="1818,777.9844,1828,781.9844,1818,785.9844,1822,781.9844" style="stroke:#A80036;stroke-width:1.0;"/><line style="stroke:#A80036;stroke-width:1.0;" x1="1200" x2="1824" y1="781.9844" y2="781.9844"/><text fill="#000000" font-family="sans-serif" font-size="13" font-weight="bold" lengthAdjust="spacing" textLength="18" x="1207" y="776.9185">18</text><text fill="#000000" font-family="sans-serif" font-size="13" lengthAdjust="spacing" textLength="226" x="1229" y="776.9185">saveClinicalAnalysisLaboratory(cal)</text><line style="stroke:#A80036;stroke-width:1.0;" x1="1845" x2="1887" y1="811.1172" y2="811.1172"/><line style="stroke:#A80036;stroke-width:1.0;" x1="1887" x2="1887" y1="811.1172" y2="824.1172"/><line style="stroke:#A80036;stroke-width:1.0;" x1="1846" x2="1887" y1="824.1172" y2="824.1172"/><polygon fill="#A80036" points="1856,820.1172,1846,824.1172,1856,828.1172,1852,824.1172" style="stroke:#A80036;stroke-width:1.0;"/><text fill="#000000" font-family="sans-serif" font-size="13" font-weight="bold" lengthAdjust="spacing" textLength="18" x="1852" y="806.0513">19</text><text fill="#000000" font-family="sans-serif" font-size="13" lengthAdjust="spacing" textLength="246" x="1874" y="806.0513">validateClinicalAnalysisLaboratory(cal)</text><line style="stroke:#A80036;stroke-width:1.0;" x1="1845" x2="1887" y1="883.25" y2="883.25"/><line style="stroke:#A80036;stroke-width:1.0;" x1="1887" x2="1887" y1="883.25" y2="896.25"/><line style="stroke:#A80036;stroke-width:1.0;" x1="1846" x2="1887" y1="896.25" y2="896.25"/><polygon fill="#A80036" points="1856,892.25,1846,896.25,1856,900.25,1852,896.25" style="stroke:#A80036;stroke-width:1.0;"/><text fill="#000000" font-family="sans-serif" font-size="13" font-weight="bold" lengthAdjust="spacing" textLength="19" x="1852" y="878.1841">20</text><text fill="#000000" font-family="sans-serif" font-size="13" lengthAdjust="spacing" textLength="219" x="1875" y="878.1841">addClinicalAnalysisLaboratory(cal)</text><polygon fill="#A80036" points="84,951.3828,74,955.3828,84,959.3828,80,955.3828" style="stroke:#A80036;stroke-width:1.0;"/><line style="stroke:#A80036;stroke-width:1.0;stroke-dasharray:2.0,2.0;" x1="78" x2="540" y1="955.3828" y2="955.3828"/><text fill="#000000" font-family="sans-serif" font-size="13" font-weight="bold" lengthAdjust="spacing" textLength="18" x="90" y="950.3169">21</text><text fill="#000000" font-family="sans-serif" font-size="13" lengthAdjust="spacing" textLength="169" x="112" y="950.3169">informs operation succecs</text><!--MD5=[41c1069d5acdffdb9accc78b5de387df]
@startuml
autonumber
actor "Administrator" as ADMIN

participant ":ClinicalAnalysisLaboratoryUI" as UI
participant ":ClinicalAnalysisLaboratoryController" as CTRL
participant ":Company" as CMP
participant "ts:\nTestTypeStore" as TTSTORE
participant "calStore:\nClinicalAnalysisLaboratory" as STORE
participant "cal:ClinicalAnalysisLaboratory" as CAL
participant "lt:\nList<TestType>" as lc
participant "tt:\nTestType" as TT


activate ADMIN
ADMIN -> UI : asks to register new clinical analysis laboratory
activate UI
UI - -> ADMIN : requests data (Laboratory ID, name, adrress, phone number, TIN)
deactivate UI
ADMIN -> UI : types requested data
activate UI
UI -> CTRL : lt=getTestTypes()
activate CTRL
CTRL -> CMP : ts=getTestTypeStore()
activate CMP	
deactivate CMP
CTRL -> TTSTORE : lt=ts.getTestTypes()
activate TTSTORE
deactivate TTSTORE
deactivate CTRL
loop until no more test types are selected
	UI - -> ADMIN : shows test types list and ask to select one
	deactivate UI
	ADMIN -> UI : selects a test type
	activate UI
end
UI -> CTRL: registerClinicalAnalysisLaboratory(Laboratory ID, name, adrress, phone number, TIN, TestType)
activate CTRL

CTRL -> CMP : calStore=getClinicalAnalysisLaboratoryStore()
activate CMP
deactivate CMP
CTRL -> STORE : cal=calStore.register(Laboratory ID, name, adrress, phone number, TIN, TestType)
activate STORE
STORE - -> CAL** : register(Laboratory ID, name, adrress, phone number, TIN, TestType)
deactivate STORE
CTRL -> STORE : validateClinicalAnalysisLaboratory(cal)
activate STORE
deactivate STORE
CTRL -> UI : result
deactivate CTRL

UI - -> ADMIN : shows the data and request a confirmation
deactivate UI

ADMIN -> UI : confirms the data
activate UI

UI -> CTRL : saveClinicalAnalysisLaboratory()
activate CTRL

CTRL -> STORE : saveClinicalAnalysisLaboratory(cal)
activate STORE
STORE -> STORE : validateClinicalAnalysisLaboratory(cal)
activate STORE
STORE- -
STORE -> STORE : addClinicalAnalysisLaboratory(cal)
activate STORE
STORE- -
deactivate STORE
deactivate CTRL

UI - -> ADMIN : informs operation succecs
deactivate UI

deactivate ADMIN
@enduml

PlantUML version 1.2021.6beta6(Unknown compile time)
(GPL source distribution)
Java Runtime: Java(TM) SE Runtime Environment
JVM: Java HotSpot(TM) 64-Bit Server VM
Default Encoding: UTF-8
Language: en
Country: US
--></g></svg>