<?xml version="1.0" encoding="UTF-8" standalone="no"?><svg xmlns="http://www.w3.org/2000/svg" xmlns:xlink="http://www.w3.org/1999/xlink" contentScriptType="application/ecmascript" contentStyleType="text/css" height="1116px" preserveAspectRatio="none" style="width:2675px;height:1116px;" version="1.1" viewBox="0 0 2675 1116" width="2675px" zoomAndPan="magnify"><defs><filter height="300%" id="f1mzgf689tqsu4" width="300%" x="-1" y="-1"><feGaussianBlur result="blurOut" stdDeviation="2.0"/><feColorMatrix in="blurOut" result="blurOut2" type="matrix" values="0 0 0 0 0 0 0 0 0 0 0 0 0 0 0 0 0 0 .4 0"/><feOffset dx="4.0" dy="4.0" in="blurOut2" result="blurOut3"/><feBlend in="SourceGraphic" in2="blurOut3" mode="normal"/></filter></defs><g><rect fill="#FFFFFF" filter="url(#f1mzgf689tqsu4)" height="916.2188" style="stroke:#A80036;stroke-width:1.0;" width="10" x="68" y="98.2969"/><rect fill="#FFFFFF" filter="url(#f1mzgf689tqsu4)" height="29.1328" style="stroke:#A80036;stroke-width:1.0;" width="10" x="536" y="119.4297"/><rect fill="#FFFFFF" filter="url(#f1mzgf689tqsu4)" height="200.6641" style="stroke:#A80036;stroke-width:1.0;" width="10" x="536" y="177.6953"/><rect fill="#FFFFFF" filter="url(#f1mzgf689tqsu4)" height="346.2266" style="stroke:#A80036;stroke-width:1.0;" width="10" x="536" y="407.4922"/><rect fill="#FFFFFF" filter="url(#f1mzgf689tqsu4)" height="231.6641" style="stroke:#A80036;stroke-width:1.0;" width="10" x="536" y="782.8516"/><rect fill="#FFFFFF" filter="url(#f1mzgf689tqsu4)" height="118.2656" style="stroke:#A80036;stroke-width:1.0;" width="10" x="1190" y="206.8281"/><rect fill="#FFFFFF" filter="url(#f1mzgf689tqsu4)" height="280.9609" style="stroke:#A80036;stroke-width:1.0;" width="10" x="1190" y="443.625"/><rect fill="#FFFFFF" filter="url(#f1mzgf689tqsu4)" height="166.3984" style="stroke:#A80036;stroke-width:1.0;" width="10" x="1190" y="811.9844"/><rect fill="#FFFFFF" filter="url(#f1mzgf689tqsu4)" height="30" style="stroke:#A80036;stroke-width:1.0;" width="10" x="1497" y="235.9609"/><rect fill="#FFFFFF" filter="url(#f1mzgf689tqsu4)" height="30" style="stroke:#A80036;stroke-width:1.0;" width="10" x="1497" y="531.8906"/><rect fill="#FFFFFF" filter="url(#f1mzgf689tqsu4)" height="30" style="stroke:#A80036;stroke-width:1.0;" width="10" x="1615.5" y="295.0938"/><rect fill="#FFFFFF" filter="url(#f1mzgf689tqsu4)" height="30" style="stroke:#A80036;stroke-width:1.0;" width="10" x="1615.5" y="472.7578"/><rect fill="#FFFFFF" filter="url(#f1mzgf689tqsu4)" height="29.1328" style="stroke:#A80036;stroke-width:1.0;" width="10" x="1791" y="591.0234"/><rect fill="#FFFFFF" filter="url(#f1mzgf689tqsu4)" height="30" style="stroke:#A80036;stroke-width:1.0;" width="10" x="1791" y="665.4531"/><rect fill="#FFFFFF" filter="url(#f1mzgf689tqsu4)" height="137.2656" style="stroke:#A80036;stroke-width:1.0;" width="10" x="1791" y="841.1172"/><rect fill="#FFFFFF" filter="url(#f1mzgf689tqsu4)" height="28" style="stroke:#A80036;stroke-width:1.0;" width="10" x="1796" y="878.25"/><rect fill="#FFFFFF" filter="url(#f1mzgf689tqsu4)" height="28" style="stroke:#A80036;stroke-width:1.0;" width="10" x="1796" y="950.3828"/><rect fill="#FFFFFF" filter="url(#f1mzgf689tqsu4)" height="75.3984" style="stroke:#000000;stroke-width:2.0;" width="683" x="10" y="340.0938"/><line style="stroke:#A80036;stroke-width:1.0;stroke-dasharray:5.0,5.0;" x1="73" x2="73" y1="88.2969" y2="1032.5156"/><line style="stroke:#A80036;stroke-width:1.0;stroke-dasharray:5.0,5.0;" x1="541" x2="541" y1="88.2969" y2="1032.5156"/><line style="stroke:#A80036;stroke-width:1.0;stroke-dasharray:5.0,5.0;" x1="1195" x2="1195" y1="88.2969" y2="1032.5156"/><line style="stroke:#A80036;stroke-width:1.0;stroke-dasharray:5.0,5.0;" x1="1501.5" x2="1501.5" y1="88.2969" y2="1032.5156"/><line style="stroke:#A80036;stroke-width:1.0;stroke-dasharray:5.0,5.0;" x1="1620.5" x2="1620.5" y1="88.2969" y2="1032.5156"/><line style="stroke:#A80036;stroke-width:1.0;stroke-dasharray:5.0,5.0;" x1="1795.5" x2="1795.5" y1="88.2969" y2="1032.5156"/><line style="stroke:#A80036;stroke-width:1.0;stroke-dasharray:5.0,5.0;" x1="2406" x2="2406" y1="631.6719" y2="1032.5156"/><line style="stroke:#A80036;stroke-width:1.0;stroke-dasharray:5.0,5.0;" x1="2598" x2="2598" y1="88.2969" y2="1032.5156"/><text fill="#000000" font-family="sans-serif" font-size="14" lengthAdjust="spacing" textLength="100" x="20" y="84.9951">Administrator</text><ellipse cx="73" cy="15" fill="#FEFECE" filter="url(#f1mzgf689tqsu4)" rx="8" ry="8" style="stroke:#A80036;stroke-width:2.0;"/><path d="M73,23 L73,50 M60,31 L86,31 M73,50 L60,65 M73,50 L86,65 " fill="none" filter="url(#f1mzgf689tqsu4)" style="stroke:#A80036;stroke-width:2.0;"/><text fill="#000000" font-family="sans-serif" font-size="14" lengthAdjust="spacing" textLength="100" x="20" y="1044.5107">Administrator</text><ellipse cx="73" cy="1057.8125" fill="#FEFECE" filter="url(#f1mzgf689tqsu4)" rx="8" ry="8" style="stroke:#A80036;stroke-width:2.0;"/><path d="M73,1065.8125 L73,1092.8125 M60,1073.8125 L86,1073.8125 M73,1092.8125 L60,1107.8125 M73,1092.8125 L86,1107.8125 " fill="none" filter="url(#f1mzgf689tqsu4)" style="stroke:#A80036;stroke-width:2.0;"/><rect fill="#FEFECE" filter="url(#f1mzgf689tqsu4)" height="30.2969" style="stroke:#A80036;stroke-width:1.5;" width="280" x="399" y="53"/><text fill="#000000" font-family="sans-serif" font-size="14" lengthAdjust="spacing" textLength="266" x="406" y="72.9951">:RegisterClinicalAnalysisLaboratoryUI</text><rect fill="#FEFECE" filter="url(#f1mzgf689tqsu4)" height="30.2969" style="stroke:#A80036;stroke-width:1.5;" width="280" x="399" y="1031.5156"/><text fill="#000000" font-family="sans-serif" font-size="14" lengthAdjust="spacing" textLength="266" x="406" y="1051.5107">:RegisterClinicalAnalysisLaboratoryUI</text><rect fill="#FEFECE" filter="url(#f1mzgf689tqsu4)" height="30.2969" style="stroke:#A80036;stroke-width:1.5;" width="340" x="1023" y="53"/><text fill="#000000" font-family="sans-serif" font-size="14" lengthAdjust="spacing" textLength="326" x="1030" y="72.9951">:RegisterClinicalAnalysisLaboratoryController</text><rect fill="#FEFECE" filter="url(#f1mzgf689tqsu4)" height="30.2969" style="stroke:#A80036;stroke-width:1.5;" width="340" x="1023" y="1031.5156"/><text fill="#000000" font-family="sans-serif" font-size="14" lengthAdjust="spacing" textLength="326" x="1030" y="1051.5107">:RegisterClinicalAnalysisLaboratoryController</text><rect fill="#FEFECE" filter="url(#f1mzgf689tqsu4)" height="30.2969" style="stroke:#A80036;stroke-width:1.5;" width="87" x="1456.5" y="53"/><text fill="#000000" font-family="sans-serif" font-size="14" lengthAdjust="spacing" textLength="73" x="1463.5" y="72.9951">:Company</text><rect fill="#FEFECE" filter="url(#f1mzgf689tqsu4)" height="30.2969" style="stroke:#A80036;stroke-width:1.5;" width="87" x="1456.5" y="1031.5156"/><text fill="#000000" font-family="sans-serif" font-size="14" lengthAdjust="spacing" textLength="73" x="1463.5" y="1051.5107">:Company</text><rect fill="#FEFECE" filter="url(#f1mzgf689tqsu4)" height="46.5938" style="stroke:#A80036;stroke-width:1.5;" width="122" x="1557.5" y="36.7031"/><text fill="#000000" font-family="sans-serif" font-size="14" lengthAdjust="spacing" textLength="59" x="1589" y="56.6982">ttStore:</text><text fill="#000000" font-family="sans-serif" font-size="14" lengthAdjust="spacing" textLength="108" x="1564.5" y="72.9951">TestTypeStore</text><rect fill="#FEFECE" filter="url(#f1mzgf689tqsu4)" height="46.5938" style="stroke:#A80036;stroke-width:1.5;" width="122" x="1557.5" y="1031.5156"/><text fill="#000000" font-family="sans-serif" font-size="14" lengthAdjust="spacing" textLength="59" x="1589" y="1051.5107">ttStore:</text><text fill="#000000" font-family="sans-serif" font-size="14" lengthAdjust="spacing" textLength="108" x="1564.5" y="1067.8076">TestTypeStore</text><rect fill="#FEFECE" filter="url(#f1mzgf689tqsu4)" height="46.5938" style="stroke:#A80036;stroke-width:1.5;" width="201" x="1693.5" y="36.7031"/><text fill="#000000" font-family="sans-serif" font-size="14" lengthAdjust="spacing" textLength="65" x="1761.5" y="56.6982">calStore:</text><text fill="#000000" font-family="sans-serif" font-size="14" lengthAdjust="spacing" textLength="187" x="1700.5" y="72.9951">ClinicalAnalysisLaboratory</text><rect fill="#FEFECE" filter="url(#f1mzgf689tqsu4)" height="46.5938" style="stroke:#A80036;stroke-width:1.5;" width="201" x="1693.5" y="1031.5156"/><text fill="#000000" font-family="sans-serif" font-size="14" lengthAdjust="spacing" textLength="65" x="1761.5" y="1051.5107">calStore:</text><text fill="#000000" font-family="sans-serif" font-size="14" lengthAdjust="spacing" textLength="187" x="1700.5" y="1067.8076">ClinicalAnalysisLaboratory</text><rect fill="#FEFECE" filter="url(#f1mzgf689tqsu4)" height="30.2969" style="stroke:#A80036;stroke-width:1.5;" width="226" x="2291" y="1031.5156"/><text fill="#000000" font-family="sans-serif" font-size="14" lengthAdjust="spacing" textLength="212" x="2298" y="1051.5107">cal:ClinicalAnalysisLaboratory</text><rect fill="#FEFECE" filter="url(#f1mzgf689tqsu4)" height="46.5938" style="stroke:#A80036;stroke-width:1.5;" width="130" x="2531" y="36.7031"/><text fill="#000000" font-family="sans-serif" font-size="14" lengthAdjust="spacing" textLength="17" x="2587.5" y="56.6982">lc:</text><text fill="#000000" font-family="sans-serif" font-size="14" lengthAdjust="spacing" textLength="116" x="2538" y="72.9951">List&lt;TestType&gt;</text><rect fill="#FEFECE" filter="url(#f1mzgf689tqsu4)" height="46.5938" style="stroke:#A80036;stroke-width:1.5;" width="130" x="2531" y="1031.5156"/><text fill="#000000" font-family="sans-serif" font-size="14" lengthAdjust="spacing" textLength="17" x="2587.5" y="1051.5107">lc:</text><text fill="#000000" font-family="sans-serif" font-size="14" lengthAdjust="spacing" textLength="116" x="2538" y="1067.8076">List&lt;TestType&gt;</text><rect fill="#FFFFFF" filter="url(#f1mzgf689tqsu4)" height="916.2188" style="stroke:#A80036;stroke-width:1.0;" width="10" x="68" y="98.2969"/><rect fill="#FFFFFF" filter="url(#f1mzgf689tqsu4)" height="29.1328" style="stroke:#A80036;stroke-width:1.0;" width="10" x="536" y="119.4297"/><rect fill="#FFFFFF" filter="url(#f1mzgf689tqsu4)" height="200.6641" style="stroke:#A80036;stroke-width:1.0;" width="10" x="536" y="177.6953"/><rect fill="#FFFFFF" filter="url(#f1mzgf689tqsu4)" height="346.2266" style="stroke:#A80036;stroke-width:1.0;" width="10" x="536" y="407.4922"/><rect fill="#FFFFFF" filter="url(#f1mzgf689tqsu4)" height="231.6641" style="stroke:#A80036;stroke-width:1.0;" width="10" x="536" y="782.8516"/><rect fill="#FFFFFF" filter="url(#f1mzgf689tqsu4)" height="118.2656" style="stroke:#A80036;stroke-width:1.0;" width="10" x="1190" y="206.8281"/><rect fill="#FFFFFF" filter="url(#f1mzgf689tqsu4)" height="280.9609" style="stroke:#A80036;stroke-width:1.0;" width="10" x="1190" y="443.625"/><rect fill="#FFFFFF" filter="url(#f1mzgf689tqsu4)" height="166.3984" style="stroke:#A80036;stroke-width:1.0;" width="10" x="1190" y="811.9844"/><rect fill="#FFFFFF" filter="url(#f1mzgf689tqsu4)" height="30" style="stroke:#A80036;stroke-width:1.0;" width="10" x="1497" y="235.9609"/><rect fill="#FFFFFF" filter="url(#f1mzgf689tqsu4)" height="30" style="stroke:#A80036;stroke-width:1.0;" width="10" x="1497" y="531.8906"/><rect fill="#FFFFFF" filter="url(#f1mzgf689tqsu4)" height="30" style="stroke:#A80036;stroke-width:1.0;" width="10" x="1615.5" y="295.0938"/><rect fill="#FFFFFF" filter="url(#f1mzgf689tqsu4)" height="30" style="stroke:#A80036;stroke-width:1.0;" width="10" x="1615.5" y="472.7578"/><rect fill="#FFFFFF" filter="url(#f1mzgf689tqsu4)" height="29.1328" style="stroke:#A80036;stroke-width:1.0;" width="10" x="1791" y="591.0234"/><rect fill="#FFFFFF" filter="url(#f1mzgf689tqsu4)" height="30" style="stroke:#A80036;stroke-width:1.0;" width="10" x="1791" y="665.4531"/><rect fill="#FFFFFF" filter="url(#f1mzgf689tqsu4)" height="137.2656" style="stroke:#A80036;stroke-width:1.0;" width="10" x="1791" y="841.1172"/><rect fill="#FFFFFF" filter="url(#f1mzgf689tqsu4)" height="28" style="stroke:#A80036;stroke-width:1.0;" width="10" x="1796" y="878.25"/><rect fill="#FFFFFF" filter="url(#f1mzgf689tqsu4)" height="28" style="stroke:#A80036;stroke-width:1.0;" width="10" x="1796" y="950.3828"/><polygon fill="#A80036" points="524,115.4297,534,119.4297,524,123.4297,528,119.4297" style="stroke:#A80036;stroke-width:1.0;"/><line style="stroke:#A80036;stroke-width:1.0;" x1="78" x2="530" y1="119.4297" y2="119.4297"/><text fill="#000000" font-family="sans-serif" font-size="13" font-weight="bold" lengthAdjust="spacing" textLength="9" x="85" y="114.3638">1</text><text fill="#000000" font-family="sans-serif" font-size="13" lengthAdjust="spacing" textLength="302" x="98" y="114.3638">asks to register new clinical analysis laboratory</text><polygon fill="#A80036" points="89,144.5625,79,148.5625,89,152.5625,85,148.5625" style="stroke:#A80036;stroke-width:1.0;"/><line style="stroke:#A80036;stroke-width:1.0;stroke-dasharray:2.0,2.0;" x1="83" x2="540" y1="148.5625" y2="148.5625"/><text fill="#000000" font-family="sans-serif" font-size="13" font-weight="bold" lengthAdjust="spacing" textLength="9" x="95" y="143.4966">2</text><text fill="#000000" font-family="sans-serif" font-size="13" lengthAdjust="spacing" textLength="421" x="108" y="143.4966">requests data (Laboratory ID, name, adrress, phone number, TIN)</text><polygon fill="#A80036" points="524,173.6953,534,177.6953,524,181.6953,528,177.6953" style="stroke:#A80036;stroke-width:1.0;"/><line style="stroke:#A80036;stroke-width:1.0;" x1="78" x2="530" y1="177.6953" y2="177.6953"/><text fill="#000000" font-family="sans-serif" font-size="13" font-weight="bold" lengthAdjust="spacing" textLength="8" x="85" y="172.6294">3</text><text fill="#000000" font-family="sans-serif" font-size="13" lengthAdjust="spacing" textLength="138" x="97" y="172.6294">types requested data</text><polygon fill="#A80036" points="1178,202.8281,1188,206.8281,1178,210.8281,1182,206.8281" style="stroke:#A80036;stroke-width:1.0;"/><line style="stroke:#A80036;stroke-width:1.0;" x1="546" x2="1184" y1="206.8281" y2="206.8281"/><text fill="#000000" font-family="sans-serif" font-size="13" font-weight="bold" lengthAdjust="spacing" textLength="9" x="553" y="201.7622">4</text><text fill="#000000" font-family="sans-serif" font-size="13" lengthAdjust="spacing" textLength="116" x="566" y="201.7622">lt=getTestTypes()</text><polygon fill="#A80036" points="1485,231.9609,1495,235.9609,1485,239.9609,1489,235.9609" style="stroke:#A80036;stroke-width:1.0;"/><line style="stroke:#A80036;stroke-width:1.0;" x1="1200" x2="1491" y1="235.9609" y2="235.9609"/><text fill="#000000" font-family="sans-serif" font-size="13" font-weight="bold" lengthAdjust="spacing" textLength="9" x="1207" y="230.895">5</text><text fill="#000000" font-family="sans-serif" font-size="13" lengthAdjust="spacing" textLength="147" x="1220" y="230.895">ts=getTestTypeStore()</text><polygon fill="#A80036" points="1603.5,291.0938,1613.5,295.0938,1603.5,299.0938,1607.5,295.0938" style="stroke:#A80036;stroke-width:1.0;"/><line style="stroke:#A80036;stroke-width:1.0;" x1="1200" x2="1609.5" y1="295.0938" y2="295.0938"/><text fill="#000000" font-family="sans-serif" font-size="13" font-weight="bold" lengthAdjust="spacing" textLength="9" x="1207" y="290.0278">6</text><text fill="#000000" font-family="sans-serif" font-size="13" lengthAdjust="spacing" textLength="132" x="1220" y="290.0278">lt=ts.getTestTypes()</text><path d="M10,340.0938 L88,340.0938 L88,347.0938 L78,357.0938 L10,357.0938 L10,340.0938 " fill="#EEEEEE" style="stroke:#000000;stroke-width:1.0;"/><rect fill="none" height="75.3984" style="stroke:#000000;stroke-width:2.0;" width="683" x="10" y="340.0938"/><text fill="#000000" font-family="sans-serif" font-size="13" font-weight="bold" lengthAdjust="spacing" textLength="33" x="25" y="353.1606">loop</text><text fill="#000000" font-family="sans-serif" font-size="11" font-weight="bold" lengthAdjust="spacing" textLength="262" x="103" y="352.3042">[until no more test types are selected]</text><polygon fill="#A80036" points="89,374.3594,79,378.3594,89,382.3594,85,378.3594" style="stroke:#A80036;stroke-width:1.0;"/><line style="stroke:#A80036;stroke-width:1.0;stroke-dasharray:2.0,2.0;" x1="83" x2="540" y1="378.3594" y2="378.3594"/><text fill="#000000" font-family="sans-serif" font-size="13" font-weight="bold" lengthAdjust="spacing" textLength="9" x="95" y="373.2935">7</text><text fill="#000000" font-family="sans-serif" font-size="13" lengthAdjust="spacing" textLength="273" x="108" y="373.2935">shows test types list and ask to select one</text><polygon fill="#A80036" points="524,403.4922,534,407.4922,524,411.4922,528,407.4922" style="stroke:#A80036;stroke-width:1.0;"/><line style="stroke:#A80036;stroke-width:1.0;" x1="78" x2="530" y1="407.4922" y2="407.4922"/><text fill="#000000" font-family="sans-serif" font-size="13" font-weight="bold" lengthAdjust="spacing" textLength="9" x="85" y="402.4263">8</text><text fill="#000000" font-family="sans-serif" font-size="13" lengthAdjust="spacing" textLength="119" x="98" y="402.4263">selects a test type</text><polygon fill="#A80036" points="1178,439.625,1188,443.625,1178,447.625,1182,443.625" style="stroke:#A80036;stroke-width:1.0;"/><line style="stroke:#A80036;stroke-width:1.0;" x1="546" x2="1184" y1="443.625" y2="443.625"/><text fill="#000000" font-family="sans-serif" font-size="13" font-weight="bold" lengthAdjust="spacing" textLength="9" x="553" y="438.5591">9</text><text fill="#000000" font-family="sans-serif" font-size="13" lengthAdjust="spacing" textLength="612" x="566" y="438.5591">registerClinicalAnalysisLaboratory(Laboratory ID, name, adrress, phone number, TIN, TestType)</text><polygon fill="#A80036" points="1603.5,468.7578,1613.5,472.7578,1603.5,476.7578,1607.5,472.7578" style="stroke:#A80036;stroke-width:1.0;"/><line style="stroke:#A80036;stroke-width:1.0;" x1="1200" x2="1609.5" y1="472.7578" y2="472.7578"/><text fill="#000000" font-family="sans-serif" font-size="13" font-weight="bold" lengthAdjust="spacing" textLength="19" x="1207" y="467.6919">10</text><text fill="#000000" font-family="sans-serif" font-size="13" lengthAdjust="spacing" textLength="184" x="1230" y="467.6919">tt=ts.getTestType(testType)</text><polygon fill="#A80036" points="1485,527.8906,1495,531.8906,1485,535.8906,1489,531.8906" style="stroke:#A80036;stroke-width:1.0;"/><line style="stroke:#A80036;stroke-width:1.0;" x1="1200" x2="1491" y1="531.8906" y2="531.8906"/><text fill="#000000" font-family="sans-serif" font-size="13" font-weight="bold" lengthAdjust="spacing" textLength="18" x="1207" y="526.8247">11</text><text fill="#000000" font-family="sans-serif" font-size="13" lengthAdjust="spacing" textLength="256" x="1229" y="526.8247">cs=getClinicalAnalysisLaboratoryStore()</text><polygon fill="#A80036" points="1779,587.0234,1789,591.0234,1779,595.0234,1783,591.0234" style="stroke:#A80036;stroke-width:1.0;"/><line style="stroke:#A80036;stroke-width:1.0;" x1="1200" x2="1785" y1="591.0234" y2="591.0234"/><text fill="#000000" font-family="sans-serif" font-size="13" font-weight="bold" lengthAdjust="spacing" textLength="18" x="1207" y="585.9575">12</text><text fill="#000000" font-family="sans-serif" font-size="13" lengthAdjust="spacing" textLength="491" x="1229" y="585.9575">cal=cs.register(Laboratory ID, name, adrress, phone number, TIN, TestType)</text><polygon fill="#A80036" points="2279,616.1563,2289,620.1563,2279,624.1563,2283,620.1563" style="stroke:#A80036;stroke-width:1.0;"/><line style="stroke:#A80036;stroke-width:1.0;stroke-dasharray:2.0,2.0;" x1="1796" x2="2285" y1="620.1563" y2="620.1563"/><text fill="#000000" font-family="sans-serif" font-size="13" font-weight="bold" lengthAdjust="spacing" textLength="17" x="1803" y="615.0903">13</text><text fill="#000000" font-family="sans-serif" font-size="13" lengthAdjust="spacing" textLength="445" x="1824" y="615.0903">register(Laboratory ID, name, adrress, phone number, TIN, TestType)</text><rect fill="#FEFECE" filter="url(#f1mzgf689tqsu4)" height="30.2969" style="stroke:#A80036;stroke-width:1.5;" width="226" x="2291" y="599.0234"/><text fill="#000000" font-family="sans-serif" font-size="14" lengthAdjust="spacing" textLength="212" x="2298" y="619.0186">cal:ClinicalAnalysisLaboratory</text><polygon fill="#A80036" points="1779,661.4531,1789,665.4531,1779,669.4531,1783,665.4531" style="stroke:#A80036;stroke-width:1.0;"/><line style="stroke:#A80036;stroke-width:1.0;" x1="1200" x2="1785" y1="665.4531" y2="665.4531"/><text fill="#000000" font-family="sans-serif" font-size="13" font-weight="bold" lengthAdjust="spacing" textLength="18" x="1207" y="660.3872">14</text><text fill="#000000" font-family="sans-serif" font-size="13" lengthAdjust="spacing" textLength="246" x="1229" y="660.3872">validateClinicalAnalysisLaboratory(cal)</text><polygon fill="#A80036" points="557,720.5859,547,724.5859,557,728.5859,553,724.5859" style="stroke:#A80036;stroke-width:1.0;"/><line style="stroke:#A80036;stroke-width:1.0;" x1="551" x2="1194" y1="724.5859" y2="724.5859"/><text fill="#000000" font-family="sans-serif" font-size="13" font-weight="bold" lengthAdjust="spacing" textLength="18" x="563" y="719.52">15</text><text fill="#000000" font-family="sans-serif" font-size="13" lengthAdjust="spacing" textLength="36" x="585" y="719.52">result</text><polygon fill="#A80036" points="89,749.7188,79,753.7188,89,757.7188,85,753.7188" style="stroke:#A80036;stroke-width:1.0;"/><line style="stroke:#A80036;stroke-width:1.0;stroke-dasharray:2.0,2.0;" x1="83" x2="540" y1="753.7188" y2="753.7188"/><text fill="#000000" font-family="sans-serif" font-size="13" font-weight="bold" lengthAdjust="spacing" textLength="18" x="95" y="748.6528">16</text><text fill="#000000" font-family="sans-serif" font-size="13" lengthAdjust="spacing" textLength="277" x="117" y="748.6528">shows the data and request a confirmation</text><polygon fill="#A80036" points="524,778.8516,534,782.8516,524,786.8516,528,782.8516" style="stroke:#A80036;stroke-width:1.0;"/><line style="stroke:#A80036;stroke-width:1.0;" x1="78" x2="530" y1="782.8516" y2="782.8516"/><text fill="#000000" font-family="sans-serif" font-size="13" font-weight="bold" lengthAdjust="spacing" textLength="18" x="85" y="777.7856">17</text><text fill="#000000" font-family="sans-serif" font-size="13" lengthAdjust="spacing" textLength="114" x="107" y="777.7856">confirms the data</text><polygon fill="#A80036" points="1178,807.9844,1188,811.9844,1178,815.9844,1182,811.9844" style="stroke:#A80036;stroke-width:1.0;"/><line style="stroke:#A80036;stroke-width:1.0;" x1="546" x2="1184" y1="811.9844" y2="811.9844"/><text fill="#000000" font-family="sans-serif" font-size="13" font-weight="bold" lengthAdjust="spacing" textLength="18" x="553" y="806.9185">18</text><text fill="#000000" font-family="sans-serif" font-size="13" lengthAdjust="spacing" textLength="208" x="575" y="806.9185">saveClinicalAnalysisLaboratory()</text><polygon fill="#A80036" points="1779,837.1172,1789,841.1172,1779,845.1172,1783,841.1172" style="stroke:#A80036;stroke-width:1.0;"/><line style="stroke:#A80036;stroke-width:1.0;" x1="1200" x2="1785" y1="841.1172" y2="841.1172"/><text fill="#000000" font-family="sans-serif" font-size="13" font-weight="bold" lengthAdjust="spacing" textLength="18" x="1207" y="836.0513">19</text><text fill="#000000" font-family="sans-serif" font-size="13" lengthAdjust="spacing" textLength="226" x="1229" y="836.0513">saveClinicalAnalysisLaboratory(cal)</text><line style="stroke:#A80036;stroke-width:1.0;" x1="1806" x2="1848" y1="870.25" y2="870.25"/><line style="stroke:#A80036;stroke-width:1.0;" x1="1848" x2="1848" y1="870.25" y2="883.25"/><line style="stroke:#A80036;stroke-width:1.0;" x1="1807" x2="1848" y1="883.25" y2="883.25"/><polygon fill="#A80036" points="1817,879.25,1807,883.25,1817,887.25,1813,883.25" style="stroke:#A80036;stroke-width:1.0;"/><text fill="#000000" font-family="sans-serif" font-size="13" font-weight="bold" lengthAdjust="spacing" textLength="19" x="1813" y="865.1841">20</text><text fill="#000000" font-family="sans-serif" font-size="13" lengthAdjust="spacing" textLength="246" x="1836" y="865.1841">validateClinicalAnalysisLaboratory(cal)</text><line style="stroke:#A80036;stroke-width:1.0;" x1="1806" x2="1848" y1="942.3828" y2="942.3828"/><line style="stroke:#A80036;stroke-width:1.0;" x1="1848" x2="1848" y1="942.3828" y2="955.3828"/><line style="stroke:#A80036;stroke-width:1.0;" x1="1807" x2="1848" y1="955.3828" y2="955.3828"/><polygon fill="#A80036" points="1817,951.3828,1807,955.3828,1817,959.3828,1813,955.3828" style="stroke:#A80036;stroke-width:1.0;"/><text fill="#000000" font-family="sans-serif" font-size="13" font-weight="bold" lengthAdjust="spacing" textLength="18" x="1813" y="937.3169">21</text><text fill="#000000" font-family="sans-serif" font-size="13" lengthAdjust="spacing" textLength="219" x="1835" y="937.3169">addClinicalAnalysisLaboratory(cal)</text><polygon fill="#A80036" points="84,1010.5156,74,1014.5156,84,1018.5156,80,1014.5156" style="stroke:#A80036;stroke-width:1.0;"/><line style="stroke:#A80036;stroke-width:1.0;stroke-dasharray:2.0,2.0;" x1="78" x2="540" y1="1014.5156" y2="1014.5156"/><text fill="#000000" font-family="sans-serif" font-size="13" font-weight="bold" lengthAdjust="spacing" textLength="18" x="90" y="1009.4497">22</text><text fill="#000000" font-family="sans-serif" font-size="13" lengthAdjust="spacing" textLength="169" x="112" y="1009.4497">informs operation succecs</text><!--MD5=[9119692ae647728cce01815e50572c59]
@startuml
autonumber
actor "Administrator" as ADMIN

participant ":RegisterClinicalAnalysisLaboratoryUI" as UI
participant ":RegisterClinicalAnalysisLaboratoryController" as CTRL
participant ":Company" as CMP
participant "ttStore:\nTestTypeStore" as TTSTORE
participant "calStore:\nClinicalAnalysisLaboratory" as STORE
participant "cal:ClinicalAnalysisLaboratory" as CAL
participant "lc:\nList<TestType>" as lc


activate ADMIN
ADMIN -> UI : asks to register new clinical analysis laboratory
activate UI
UI - -> ADMIN : requests data (Laboratory ID, name, adrress, phone number, TIN)
deactivate UI
ADMIN -> UI : types requested data
activate UI
UI -> CTRL : lt=getTestTypes()
activate CTRL
CTRL -> CMP : ts=getTestTypeStore()
activate CMP	
deactivate CMP
CTRL -> TTSTORE : lt=ts.getTestTypes()
activate TTSTORE
deactivate TTSTORE
deactivate CTRL
loop until no more test types are selected
	UI - -> ADMIN : shows test types list and ask to select one
	deactivate UI
	ADMIN -> UI : selects a test type
	activate UI
end
UI -> CTRL: registerClinicalAnalysisLaboratory(Laboratory ID, name, adrress, phone number, TIN, TestType)
activate CTRL
CTRL -> TTSTORE : tt=ts.getTestType(testType)
activate TTSTORE
deactivate TTSTORE
CTRL -> CMP : cs=getClinicalAnalysisLaboratoryStore()
activate CMP
deactivate CMP
CTRL -> STORE : cal=cs.register(Laboratory ID, name, adrress, phone number, TIN, TestType)
activate STORE
STORE - -> CAL** : register(Laboratory ID, name, adrress, phone number, TIN, TestType)
deactivate STORE
CTRL -> STORE : validateClinicalAnalysisLaboratory(cal)
activate STORE
deactivate STORE
CTRL -> UI : result
deactivate CTRL

UI - -> ADMIN : shows the data and request a confirmation
deactivate UI

ADMIN -> UI : confirms the data
activate UI

UI -> CTRL : saveClinicalAnalysisLaboratory()
activate CTRL

CTRL -> STORE : saveClinicalAnalysisLaboratory(cal)
activate STORE
STORE -> STORE : validateClinicalAnalysisLaboratory(cal)
activate STORE
STORE- -
STORE -> STORE : addClinicalAnalysisLaboratory(cal)
activate STORE
STORE- -
deactivate STORE
deactivate CTRL

UI - -> ADMIN : informs operation succecs
deactivate UI

deactivate ADMIN
@enduml

PlantUML version 1.2021.6beta4(Unknown compile time)
(GPL source distribution)
Java Runtime: Java(TM) SE Runtime Environment
JVM: Java HotSpot(TM) 64-Bit Server VM
Default Encoding: UTF-8
Language: en
Country: US
--></g></svg>