<?xml version="1.0" encoding="UTF-8" standalone="no"?><svg xmlns="http://www.w3.org/2000/svg" xmlns:xlink="http://www.w3.org/1999/xlink" contentScriptType="application/ecmascript" contentStyleType="text/css" height="949px" preserveAspectRatio="none" style="width:781px;height:949px;background:#FFFFFF;" version="1.1" viewBox="0 0 781 949" width="781px" zoomAndPan="magnify"><defs><filter height="300%" id="feemsobqu9ejz" width="300%" x="-1" y="-1"><feGaussianBlur result="blurOut" stdDeviation="2.0"/><feColorMatrix in="blurOut" result="blurOut2" type="matrix" values="0 0 0 0 0 0 0 0 0 0 0 0 0 0 0 0 0 0 .4 0"/><feOffset dx="4.0" dy="4.0" in="blurOut2" result="blurOut3"/><feBlend in="SourceGraphic" in2="blurOut3" mode="normal"/></filter></defs><g><!--MD5=[f0f8a1af45dae1041261f051213596b5]
class ClinicalAnalysisLaboratoryUI--><rect codeLine="3" fill="#FEFECE" filter="url(#feemsobqu9ejz)" height="48" id="ClinicalAnalysisLaboratoryUI" style="stroke:#A80036;stroke-width:1.5;" width="199" x="191.5" y="7"/><ellipse cx="206.5" cy="23" fill="#ADD1B2" rx="11" ry="11" style="stroke:#A80036;stroke-width:1.0;"/><path d="M208.8438,18.6719 C207.9063,18.2344 207.3125,18.0938 206.4375,18.0938 C203.8125,18.0938 201.8125,20.1719 201.8125,22.8906 L201.8125,24.0156 C201.8125,26.5938 203.9219,28.4844 206.8125,28.4844 C208.0313,28.4844 209.1875,28.1875 209.9375,27.6406 C210.5156,27.2344 210.8438,26.7813 210.8438,26.3906 C210.8438,25.9375 210.4531,25.5469 209.9844,25.5469 C209.7656,25.5469 209.5625,25.625 209.375,25.8125 C208.9219,26.2969 208.9219,26.2969 208.7344,26.3906 C208.3125,26.6563 207.625,26.7813 206.8594,26.7813 C204.8125,26.7813 203.5156,25.6875 203.5156,23.9844 L203.5156,22.8906 C203.5156,21.1094 204.7656,19.7969 206.5,19.7969 C207.0781,19.7969 207.6875,19.9531 208.1563,20.2031 C208.6406,20.4844 208.8125,20.7031 208.9063,21.1094 C208.9688,21.5156 209,21.6406 209.1406,21.7656 C209.2813,21.9063 209.5156,22.0156 209.7344,22.0156 C210,22.0156 210.2656,21.875 210.4375,21.6563 C210.5469,21.5 210.5781,21.3125 210.5781,20.8906 L210.5781,19.4688 C210.5781,19.0313 210.5625,18.9063 210.4688,18.75 C210.3125,18.4844 210.0313,18.3438 209.7344,18.3438 C209.4375,18.3438 209.2344,18.4375 209.0156,18.75 L208.8438,18.6719 Z " fill="#000000"/><text fill="#000000" font-family="sans-serif" font-size="12" lengthAdjust="spacing" textLength="167" x="220.5" y="27.1543">ClinicalAnalysisLaboratoryUI</text><line style="stroke:#A80036;stroke-width:1.5;" x1="192.5" x2="389.5" y1="39" y2="39"/><line style="stroke:#A80036;stroke-width:1.5;" x1="192.5" x2="389.5" y1="47" y2="47"/><!--MD5=[3f9590349183eb3676f1b2ca1bdcb25d]
class ClinicalAnalysisLaboratoryController--><rect codeLine="6" fill="#FEFECE" filter="url(#feemsobqu9ejz)" height="86.4141" id="ClinicalAnalysisLaboratoryController" style="stroke:#A80036;stroke-width:1.5;" width="568" x="7" y="116"/><ellipse cx="179.75" cy="132" fill="#ADD1B2" rx="11" ry="11" style="stroke:#A80036;stroke-width:1.0;"/><path d="M182.0938,127.6719 C181.1563,127.2344 180.5625,127.0938 179.6875,127.0938 C177.0625,127.0938 175.0625,129.1719 175.0625,131.8906 L175.0625,133.0156 C175.0625,135.5938 177.1719,137.4844 180.0625,137.4844 C181.2813,137.4844 182.4375,137.1875 183.1875,136.6406 C183.7656,136.2344 184.0938,135.7813 184.0938,135.3906 C184.0938,134.9375 183.7031,134.5469 183.2344,134.5469 C183.0156,134.5469 182.8125,134.625 182.625,134.8125 C182.1719,135.2969 182.1719,135.2969 181.9844,135.3906 C181.5625,135.6563 180.875,135.7813 180.1094,135.7813 C178.0625,135.7813 176.7656,134.6875 176.7656,132.9844 L176.7656,131.8906 C176.7656,130.1094 178.0156,128.7969 179.75,128.7969 C180.3281,128.7969 180.9375,128.9531 181.4063,129.2031 C181.8906,129.4844 182.0625,129.7031 182.1563,130.1094 C182.2188,130.5156 182.25,130.6406 182.3906,130.7656 C182.5313,130.9063 182.7656,131.0156 182.9844,131.0156 C183.25,131.0156 183.5156,130.875 183.6875,130.6563 C183.7969,130.5 183.8281,130.3125 183.8281,129.8906 L183.8281,128.4688 C183.8281,128.0313 183.8125,127.9063 183.7188,127.75 C183.5625,127.4844 183.2813,127.3438 182.9844,127.3438 C182.6875,127.3438 182.4844,127.4375 182.2656,127.75 L182.0938,127.6719 Z " fill="#000000"/><text fill="#000000" font-family="sans-serif" font-size="12" lengthAdjust="spacing" textLength="214" x="200.25" y="136.1543">ClinicalAnalysisLaboratoryController</text><line style="stroke:#A80036;stroke-width:1.5;" x1="8" x2="574" y1="148" y2="148"/><line style="stroke:#A80036;stroke-width:1.5;" x1="8" x2="574" y1="156" y2="156"/><text fill="#000000" font-family="sans-serif" font-size="11" lengthAdjust="spacing" textLength="556" x="13" y="170.2104">+registerClinicalAnalysisLaboratory(Laboratory ID, name, adrress, phone number, TIN, TestTypes)</text><text fill="#000000" font-family="sans-serif" font-size="11" lengthAdjust="spacing" textLength="192" x="13" y="183.0151">+saveClinicalAnalysisLaboratory()</text><text fill="#000000" font-family="sans-serif" font-size="11" lengthAdjust="spacing" textLength="96" x="13" y="195.8198">+getTestTypes()</text><!--MD5=[02e4b9b7573f1156f41e60aa5b4e25a4]
class Company--><rect codeLine="12" fill="#FEFECE" filter="url(#feemsobqu9ejz)" height="73.6094" id="Company" style="stroke:#A80036;stroke-width:1.5;" width="226" x="178" y="263"/><ellipse cx="258.75" cy="279" fill="#ADD1B2" rx="11" ry="11" style="stroke:#A80036;stroke-width:1.0;"/><path d="M261.0938,274.6719 C260.1563,274.2344 259.5625,274.0938 258.6875,274.0938 C256.0625,274.0938 254.0625,276.1719 254.0625,278.8906 L254.0625,280.0156 C254.0625,282.5938 256.1719,284.4844 259.0625,284.4844 C260.2813,284.4844 261.4375,284.1875 262.1875,283.6406 C262.7656,283.2344 263.0938,282.7813 263.0938,282.3906 C263.0938,281.9375 262.7031,281.5469 262.2344,281.5469 C262.0156,281.5469 261.8125,281.625 261.625,281.8125 C261.1719,282.2969 261.1719,282.2969 260.9844,282.3906 C260.5625,282.6563 259.875,282.7813 259.1094,282.7813 C257.0625,282.7813 255.7656,281.6875 255.7656,279.9844 L255.7656,278.8906 C255.7656,277.1094 257.0156,275.7969 258.75,275.7969 C259.3281,275.7969 259.9375,275.9531 260.4063,276.2031 C260.8906,276.4844 261.0625,276.7031 261.1563,277.1094 C261.2188,277.5156 261.25,277.6406 261.3906,277.7656 C261.5313,277.9063 261.7656,278.0156 261.9844,278.0156 C262.25,278.0156 262.5156,277.875 262.6875,277.6563 C262.7969,277.5 262.8281,277.3125 262.8281,276.8906 L262.8281,275.4688 C262.8281,275.0313 262.8125,274.9063 262.7188,274.75 C262.5625,274.4844 262.2813,274.3438 261.9844,274.3438 C261.6875,274.3438 261.4844,274.4375 261.2656,274.75 L261.0938,274.6719 Z " fill="#000000"/><text fill="#000000" font-family="sans-serif" font-size="12" lengthAdjust="spacing" textLength="56" x="279.25" y="283.1543">Company</text><line style="stroke:#A80036;stroke-width:1.5;" x1="179" x2="403" y1="295" y2="295"/><text fill="#000000" font-family="sans-serif" font-size="11" lengthAdjust="spacing" textLength="107" x="184" y="309.2104">-String designation</text><line style="stroke:#A80036;stroke-width:1.5;" x1="179" x2="403" y1="315.8047" y2="315.8047"/><text fill="#000000" font-family="sans-serif" font-size="11" lengthAdjust="spacing" textLength="214" x="184" y="330.0151">+getClinicalAnalysisLaboratoryStore()</text><!--MD5=[6ba72ddf03822b91e8d41ca71de58ed3]
class TestTypeStore--><rect codeLine="18" fill="#FEFECE" filter="url(#feemsobqu9ejz)" height="60.8047" id="TestTypeStore" style="stroke:#A80036;stroke-width:1.5;" width="121" x="129.5" y="530"/><ellipse cx="144.5" cy="546" fill="#ADD1B2" rx="11" ry="11" style="stroke:#A80036;stroke-width:1.0;"/><path d="M146.8438,541.6719 C145.9063,541.2344 145.3125,541.0938 144.4375,541.0938 C141.8125,541.0938 139.8125,543.1719 139.8125,545.8906 L139.8125,547.0156 C139.8125,549.5938 141.9219,551.4844 144.8125,551.4844 C146.0313,551.4844 147.1875,551.1875 147.9375,550.6406 C148.5156,550.2344 148.8438,549.7813 148.8438,549.3906 C148.8438,548.9375 148.4531,548.5469 147.9844,548.5469 C147.7656,548.5469 147.5625,548.625 147.375,548.8125 C146.9219,549.2969 146.9219,549.2969 146.7344,549.3906 C146.3125,549.6563 145.625,549.7813 144.8594,549.7813 C142.8125,549.7813 141.5156,548.6875 141.5156,546.9844 L141.5156,545.8906 C141.5156,544.1094 142.7656,542.7969 144.5,542.7969 C145.0781,542.7969 145.6875,542.9531 146.1563,543.2031 C146.6406,543.4844 146.8125,543.7031 146.9063,544.1094 C146.9688,544.5156 147,544.6406 147.1406,544.7656 C147.2813,544.9063 147.5156,545.0156 147.7344,545.0156 C148,545.0156 148.2656,544.875 148.4375,544.6563 C148.5469,544.5 148.5781,544.3125 148.5781,543.8906 L148.5781,542.4688 C148.5781,542.0313 148.5625,541.9063 148.4688,541.75 C148.3125,541.4844 148.0313,541.3438 147.7344,541.3438 C147.4375,541.3438 147.2344,541.4375 147.0156,541.75 L146.8438,541.6719 Z " fill="#000000"/><text fill="#000000" font-family="sans-serif" font-size="12" lengthAdjust="spacing" textLength="89" x="158.5" y="550.1543">TestTypeStore</text><line style="stroke:#A80036;stroke-width:1.5;" x1="130.5" x2="249.5" y1="562" y2="562"/><line style="stroke:#A80036;stroke-width:1.5;" x1="130.5" x2="249.5" y1="570" y2="570"/><text fill="#000000" font-family="sans-serif" font-size="11" lengthAdjust="spacing" textLength="96" x="135.5" y="584.2104">+getTestTypes()</text><!--MD5=[aeb3272166074d8737a70b61b1e71682]
class TestType--><rect codeLine="22" fill="#FEFECE" filter="url(#feemsobqu9ejz)" height="99.2188" id="TestType" style="stroke:#A80036;stroke-width:1.5;" width="127" x="213.5" y="836"/><ellipse cx="246.05" cy="852" fill="#ADD1B2" rx="11" ry="11" style="stroke:#A80036;stroke-width:1.0;"/><path d="M248.3938,847.6719 C247.4563,847.2344 246.8625,847.0938 245.9875,847.0938 C243.3625,847.0938 241.3625,849.1719 241.3625,851.8906 L241.3625,853.0156 C241.3625,855.5938 243.4719,857.4844 246.3625,857.4844 C247.5813,857.4844 248.7375,857.1875 249.4875,856.6406 C250.0656,856.2344 250.3938,855.7813 250.3938,855.3906 C250.3938,854.9375 250.0031,854.5469 249.5344,854.5469 C249.3156,854.5469 249.1125,854.625 248.925,854.8125 C248.4719,855.2969 248.4719,855.2969 248.2844,855.3906 C247.8625,855.6563 247.175,855.7813 246.4094,855.7813 C244.3625,855.7813 243.0656,854.6875 243.0656,852.9844 L243.0656,851.8906 C243.0656,850.1094 244.3156,848.7969 246.05,848.7969 C246.6281,848.7969 247.2375,848.9531 247.7063,849.2031 C248.1906,849.4844 248.3625,849.7031 248.4563,850.1094 C248.5188,850.5156 248.55,850.6406 248.6906,850.7656 C248.8313,850.9063 249.0656,851.0156 249.2844,851.0156 C249.55,851.0156 249.8156,850.875 249.9875,850.6563 C250.0969,850.5 250.1281,850.3125 250.1281,849.8906 L250.1281,848.4688 C250.1281,848.0313 250.1125,847.9063 250.0188,847.75 C249.8625,847.4844 249.5813,847.3438 249.2844,847.3438 C248.9875,847.3438 248.7844,847.4375 248.5656,847.75 L248.3938,847.6719 Z " fill="#000000"/><text fill="#000000" font-family="sans-serif" font-size="12" lengthAdjust="spacing" textLength="56" x="263.95" y="856.1543">TestType</text><line style="stroke:#A80036;stroke-width:1.5;" x1="214.5" x2="339.5" y1="868" y2="868"/><text fill="#000000" font-family="sans-serif" font-size="11" lengthAdjust="spacing" textLength="32" x="219.5" y="882.2104">-code</text><text fill="#000000" font-family="sans-serif" font-size="11" lengthAdjust="spacing" textLength="76" x="219.5" y="895.0151">-desgisnation</text><text fill="#000000" font-family="sans-serif" font-size="11" lengthAdjust="spacing" textLength="102" x="219.5" y="907.8198">-CollectingMethod</text><text fill="#000000" font-family="sans-serif" font-size="11" lengthAdjust="spacing" textLength="115" x="219.5" y="920.6245">-ParameterCategory</text><line style="stroke:#A80036;stroke-width:1.5;" x1="214.5" x2="339.5" y1="927.2188" y2="927.2188"/><!--MD5=[1934a092c0e7d4da7dc7075b6f4b6b03]
class ClinicalAnalysisLaboratory--><rect codeLine="29" fill="#FEFECE" filter="url(#feemsobqu9ejz)" height="137.6328" id="ClinicalAnalysisLaboratory" style="stroke:#A80036;stroke-width:1.5;" width="507" x="260.5" y="621"/><ellipse cx="432.25" cy="637" fill="#ADD1B2" rx="11" ry="11" style="stroke:#A80036;stroke-width:1.0;"/><path d="M434.5938,632.6719 C433.6563,632.2344 433.0625,632.0938 432.1875,632.0938 C429.5625,632.0938 427.5625,634.1719 427.5625,636.8906 L427.5625,638.0156 C427.5625,640.5938 429.6719,642.4844 432.5625,642.4844 C433.7813,642.4844 434.9375,642.1875 435.6875,641.6406 C436.2656,641.2344 436.5938,640.7813 436.5938,640.3906 C436.5938,639.9375 436.2031,639.5469 435.7344,639.5469 C435.5156,639.5469 435.3125,639.625 435.125,639.8125 C434.6719,640.2969 434.6719,640.2969 434.4844,640.3906 C434.0625,640.6563 433.375,640.7813 432.6094,640.7813 C430.5625,640.7813 429.2656,639.6875 429.2656,637.9844 L429.2656,636.8906 C429.2656,635.1094 430.5156,633.7969 432.25,633.7969 C432.8281,633.7969 433.4375,633.9531 433.9063,634.2031 C434.3906,634.4844 434.5625,634.7031 434.6563,635.1094 C434.7188,635.5156 434.75,635.6406 434.8906,635.7656 C435.0313,635.9063 435.2656,636.0156 435.4844,636.0156 C435.75,636.0156 436.0156,635.875 436.1875,635.6563 C436.2969,635.5 436.3281,635.3125 436.3281,634.8906 L436.3281,633.4688 C436.3281,633.0313 436.3125,632.9063 436.2188,632.75 C436.0625,632.4844 435.7813,632.3438 435.4844,632.3438 C435.1875,632.3438 434.9844,632.4375 434.7656,632.75 L434.5938,632.6719 Z " fill="#000000"/><text fill="#000000" font-family="sans-serif" font-size="12" lengthAdjust="spacing" textLength="155" x="452.75" y="641.1543">ClinicalAnalysisLaboratory</text><line style="stroke:#A80036;stroke-width:1.5;" x1="261.5" x2="766.5" y1="653" y2="653"/><text fill="#000000" font-family="sans-serif" font-size="11" lengthAdjust="spacing" textLength="73" x="266.5" y="667.2104">-laboratoryID</text><text fill="#000000" font-family="sans-serif" font-size="11" lengthAdjust="spacing" textLength="37" x="266.5" y="680.0151">-name</text><text fill="#000000" font-family="sans-serif" font-size="11" lengthAdjust="spacing" textLength="42" x="266.5" y="692.8198">-adress</text><text fill="#000000" font-family="sans-serif" font-size="11" lengthAdjust="spacing" textLength="85" x="266.5" y="705.6245">-phoneNumber</text><text fill="#000000" font-family="sans-serif" font-size="11" lengthAdjust="spacing" textLength="18" x="266.5" y="718.4292">-tin</text><text fill="#000000" font-family="sans-serif" font-size="11" lengthAdjust="spacing" textLength="64" x="266.5" y="731.2339">-TestTypes</text><line style="stroke:#A80036;stroke-width:1.5;" x1="261.5" x2="766.5" y1="737.8281" y2="737.8281"/><text fill="#000000" font-family="sans-serif" font-size="11" lengthAdjust="spacing" textLength="495" x="266.5" y="752.0386">+ClinicalAnalysisLaboratory(laboratoryID, name, adress, phoneNumber, tin, testtTypes)</text><!--MD5=[438281daef332c5ccec4fb6cf3747e9a]
class ClinicalAnalysisLaboratoryStore--><rect codeLine="39" fill="#FEFECE" filter="url(#feemsobqu9ejz)" height="86.4141" id="ClinicalAnalysisLaboratoryStore" style="stroke:#A80036;stroke-width:1.5;" width="220" x="372" y="414"/><ellipse cx="387" cy="430" fill="#ADD1B2" rx="11" ry="11" style="stroke:#A80036;stroke-width:1.0;"/><path d="M389.3438,425.6719 C388.4063,425.2344 387.8125,425.0938 386.9375,425.0938 C384.3125,425.0938 382.3125,427.1719 382.3125,429.8906 L382.3125,431.0156 C382.3125,433.5938 384.4219,435.4844 387.3125,435.4844 C388.5313,435.4844 389.6875,435.1875 390.4375,434.6406 C391.0156,434.2344 391.3438,433.7813 391.3438,433.3906 C391.3438,432.9375 390.9531,432.5469 390.4844,432.5469 C390.2656,432.5469 390.0625,432.625 389.875,432.8125 C389.4219,433.2969 389.4219,433.2969 389.2344,433.3906 C388.8125,433.6563 388.125,433.7813 387.3594,433.7813 C385.3125,433.7813 384.0156,432.6875 384.0156,430.9844 L384.0156,429.8906 C384.0156,428.1094 385.2656,426.7969 387,426.7969 C387.5781,426.7969 388.1875,426.9531 388.6563,427.2031 C389.1406,427.4844 389.3125,427.7031 389.4063,428.1094 C389.4688,428.5156 389.5,428.6406 389.6406,428.7656 C389.7813,428.9063 390.0156,429.0156 390.2344,429.0156 C390.5,429.0156 390.7656,428.875 390.9375,428.6563 C391.0469,428.5 391.0781,428.3125 391.0781,427.8906 L391.0781,426.4688 C391.0781,426.0313 391.0625,425.9063 390.9688,425.75 C390.8125,425.4844 390.5313,425.3438 390.2344,425.3438 C389.9375,425.3438 389.7344,425.4375 389.5156,425.75 L389.3438,425.6719 Z " fill="#000000"/><text fill="#000000" font-family="sans-serif" font-size="12" lengthAdjust="spacing" textLength="188" x="401" y="434.1543">ClinicalAnalysisLaboratoryStore</text><line style="stroke:#A80036;stroke-width:1.5;" x1="373" x2="591" y1="446" y2="446"/><text fill="#000000" font-family="sans-serif" font-size="11" lengthAdjust="spacing" textLength="202" x="378" y="460.2104">+validateClinicalAnalysisLaboratory</text><text fill="#000000" font-family="sans-serif" font-size="11" lengthAdjust="spacing" textLength="184" x="378" y="473.0151">+saveClinicalAnalysisLaboratory</text><text fill="#000000" font-family="sans-serif" font-size="11" lengthAdjust="spacing" textLength="177" x="378" y="485.8198">+addClinicalAnalysisLaboratory</text><line style="stroke:#A80036;stroke-width:1.5;" x1="373" x2="591" y1="492.4141" y2="492.4141"/><!--MD5=[b948a9f591d9121be295266343e5030c]
link ClinicalAnalysisLaboratoryUI to ClinicalAnalysisLaboratoryController--><path codeLine="45" d="M291,55.11 C291,70.631 291,91.639 291,110.625 " fill="none" id="ClinicalAnalysisLaboratoryUI-to-ClinicalAnalysisLaboratoryController" style="stroke:#A80036;stroke-width:1.0;stroke-dasharray:7.0,7.0;"/><polygon fill="#A80036" points="291,115.921,295,106.921,291,110.921,287,106.921,291,115.921" style="stroke:#A80036;stroke-width:1.0;"/><!--MD5=[2fab6d4771de95c03e53f4748d98c864]
link ClinicalAnalysisLaboratoryController to Company--><path codeLine="46" d="M291,202.082 C291,219.606 291,239.9 291,257.375 " fill="none" id="ClinicalAnalysisLaboratoryController-to-Company" style="stroke:#A80036;stroke-width:1.0;stroke-dasharray:7.0,7.0;"/><polygon fill="#A80036" points="291,262.702,295,253.702,291,257.702,287,253.702,291,262.702" style="stroke:#A80036;stroke-width:1.0;"/><!--MD5=[f379172a0573607dd0ae1a4ea50b9294]
link Company to ClinicalAnalysisLaboratoryStore--><path codeLine="47" d="M335.781,337.341 C362.685,359.174 397.154,387.146 425.868,410.448 " fill="none" id="Company-to-ClinicalAnalysisLaboratoryStore" style="stroke:#A80036;stroke-width:1.0;"/><polygon fill="#A80036" points="430.061,413.85,425.5934,405.0727,426.1786,410.6992,420.5521,411.2845,430.061,413.85" style="stroke:#A80036;stroke-width:1.0;"/><text fill="#000000" font-family="sans-serif" font-size="13" lengthAdjust="spacing" textLength="30" x="393" y="380.0669">uses</text><text fill="#000000" font-family="sans-serif" font-size="13" lengthAdjust="spacing" textLength="8" x="334.2805" y="356.5961">1</text><text fill="#000000" font-family="sans-serif" font-size="13" lengthAdjust="spacing" textLength="8" x="413.1457" y="402.8221">1</text><!--MD5=[141c3afa12b2b3c0a39ffce56dbd5f19]
link Company to TestTypeStore--><path codeLine="48" d="M276.85,337.216 C257.377,387.055 222.564,476.155 203.461,525.048 " fill="none" id="Company-to-TestTypeStore" style="stroke:#A80036;stroke-width:1.0;"/><polygon fill="#A80036" points="201.55,529.94,208.5515,523.0133,203.3699,525.283,201.1003,520.1014,201.55,529.94" style="stroke:#A80036;stroke-width:1.0;"/><text fill="#000000" font-family="sans-serif" font-size="13" lengthAdjust="spacing" textLength="30" x="265" y="380.0669">uses</text><text fill="#000000" font-family="sans-serif" font-size="13" lengthAdjust="spacing" textLength="8" x="265.8439" y="356.7323">1</text><text fill="#000000" font-family="sans-serif" font-size="13" lengthAdjust="spacing" textLength="8" x="195.2016" y="518.7172">1</text><!--MD5=[2dad08ae384f93453eb1ba4eb26732f1]
link ClinicalAnalysisLaboratoryStore to ClinicalAnalysisLaboratory--><path codeLine="49" d="M487.832,500.1 C492.3,532.357 498.575,577.654 503.861,615.806 " fill="none" id="ClinicalAnalysisLaboratoryStore-to-ClinicalAnalysisLaboratory" style="stroke:#A80036;stroke-width:1.0;"/><polygon fill="#A80036" points="504.566,620.9,507.2936,611.4364,503.8801,615.9473,499.3692,612.5338,504.566,620.9" style="stroke:#A80036;stroke-width:1.0;"/><text fill="#000000" font-family="sans-serif" font-size="13" lengthAdjust="spacing" textLength="58" x="500" y="565.0669">conducts</text><text fill="#000000" font-family="sans-serif" font-size="13" lengthAdjust="spacing" textLength="8" x="480.1354" y="520.5242">1</text><text fill="#000000" font-family="sans-serif" font-size="13" lengthAdjust="spacing" textLength="7" x="496.2322" y="610.0933">*</text><!--MD5=[3eebf0e5f359806b77b30e9524c37676]
link TestTypeStore to TestType--><path codeLine="50" d="M186.305,591.085 C182.447,630.426 179.172,701.666 197,759 C205.02,784.791 219.828,810.445 234.545,831.773 " fill="none" id="TestTypeStore-to-TestType" style="stroke:#A80036;stroke-width:1.0;"/><polygon fill="#A80036" points="237.485,835.9792,235.6082,826.3108,234.6209,831.8808,229.0508,830.8934,237.485,835.9792" style="stroke:#A80036;stroke-width:1.0;"/><text fill="#000000" font-family="sans-serif" font-size="13" lengthAdjust="spacing" textLength="44" x="198" y="694.5669">adopts</text><text fill="#000000" font-family="sans-serif" font-size="13" lengthAdjust="spacing" textLength="8" x="176.7179" y="611.0408">1</text><text fill="#000000" font-family="sans-serif" font-size="13" lengthAdjust="spacing" textLength="8" x="223.3657" y="825.0213">1</text><!--MD5=[2eb961b30663a01bbfd8b4b9b8950031]
link ClinicalAnalysisLaboratory to TestType--><path codeLine="51" d="M430.443,759.221 C400.974,783.281 368.338,809.926 340.768,832.436 " fill="none" id="ClinicalAnalysisLaboratory-to-TestType" style="stroke:#A80036;stroke-width:1.0;"/><polygon fill="#A80036" points="336.738,835.7264,346.2389,833.1317,340.6106,832.5637,341.1786,826.9354,336.738,835.7264" style="stroke:#A80036;stroke-width:1.0;"/><text fill="#000000" font-family="sans-serif" font-size="13" lengthAdjust="spacing" textLength="32" x="389" y="802.0669">have</text><text fill="#000000" font-family="sans-serif" font-size="13" lengthAdjust="spacing" textLength="7" x="415.1454" y="778.6242">*</text><text fill="#000000" font-family="sans-serif" font-size="13" lengthAdjust="spacing" textLength="23" x="320.22" y="825.0909">1..*</text><!--MD5=[35be52698df4f46144ee86112270563e]
@startuml
skinparam classAttributeIconSize 0

class ClinicalAnalysisLaboratoryUI {
}

class ClinicalAnalysisLaboratoryController {
  +registerClinicalAnalysisLaboratory(Laboratory ID, name, adrress, phone number, TIN, TestTypes)
  +saveClinicalAnalysisLaboratory()
  +getTestTypes()
}

class Company
{
  -String designation
  +getClinicalAnalysisLaboratoryStore()
}

class TestTypeStore{
  +getTestTypes()
}

class TestType{
  -code
  -desgisnation
  -CollectingMethod
  -ParameterCategory
}

class ClinicalAnalysisLaboratory {
  -laboratoryID
  -name
  -adress
  -phoneNumber
  -tin
  -TestTypes
  +ClinicalAnalysisLaboratory(laboratoryID, name, adress, phoneNumber, tin, testtTypes)
}

class ClinicalAnalysisLaboratoryStore{
  +validateClinicalAnalysisLaboratory
  +saveClinicalAnalysisLaboratory
  +addClinicalAnalysisLaboratory
}

ClinicalAnalysisLaboratoryUI ..> ClinicalAnalysisLaboratoryController
ClinicalAnalysisLaboratoryController..> Company
Company "1" - -> "1" ClinicalAnalysisLaboratoryStore: uses
Company "1" - -> "1" TestTypeStore: uses
ClinicalAnalysisLaboratoryStore"1" - -> "*" ClinicalAnalysisLaboratory: conducts
TestTypeStore"1" - -> "1" TestType: adopts
ClinicalAnalysisLaboratory"*" - -> "1..*" TestType: have
@enduml

PlantUML version 1.2021.6beta6(Unknown compile time)
(GPL source distribution)
Java Runtime: Java(TM) SE Runtime Environment
JVM: Java HotSpot(TM) 64-Bit Server VM
Default Encoding: UTF-8
Language: en
Country: US
--></g></svg>