<?xml version="1.0" encoding="UTF-8" standalone="no"?><svg xmlns="http://www.w3.org/2000/svg" xmlns:xlink="http://www.w3.org/1999/xlink" contentScriptType="application/ecmascript" contentStyleType="text/css" height="474px" preserveAspectRatio="none" style="width:537px;height:474px;background:#FFFFFF;" version="1.1" viewBox="0 0 537 474" width="537px" zoomAndPan="magnify"><defs><filter height="300%" id="f1b8317bwn0g03" width="300%" x="-1" y="-1"><feGaussianBlur result="blurOut" stdDeviation="2.0"/><feColorMatrix in="blurOut" result="blurOut2" type="matrix" values="0 0 0 0 0 0 0 0 0 0 0 0 0 0 0 0 0 0 .4 0"/><feOffset dx="4.0" dy="4.0" in="blurOut2" result="blurOut3"/><feBlend in="SourceGraphic" in2="blurOut3" mode="normal"/></filter></defs><g><!--MD5=[da547346deef918ea16944ba046651ef]
class Administrator--><rect codeLine="5" fill="#FEFECE" filter="url(#f1b8317bwn0g03)" height="129.6328" id="Administrator" style="stroke:#A80036;stroke-width:1.5;" width="236" x="7" y="137"/><ellipse cx="80.75" cy="153" fill="#ADD1B2" rx="11" ry="11" style="stroke:#A80036;stroke-width:1.0;"/><path d="M83.0938,148.6719 C82.1563,148.2344 81.5625,148.0938 80.6875,148.0938 C78.0625,148.0938 76.0625,150.1719 76.0625,152.8906 L76.0625,154.0156 C76.0625,156.5938 78.1719,158.4844 81.0625,158.4844 C82.2813,158.4844 83.4375,158.1875 84.1875,157.6406 C84.7656,157.2344 85.0938,156.7813 85.0938,156.3906 C85.0938,155.9375 84.7031,155.5469 84.2344,155.5469 C84.0156,155.5469 83.8125,155.625 83.625,155.8125 C83.1719,156.2969 83.1719,156.2969 82.9844,156.3906 C82.5625,156.6563 81.875,156.7813 81.1094,156.7813 C79.0625,156.7813 77.7656,155.6875 77.7656,153.9844 L77.7656,152.8906 C77.7656,151.1094 79.0156,149.7969 80.75,149.7969 C81.3281,149.7969 81.9375,149.9531 82.4063,150.2031 C82.8906,150.4844 83.0625,150.7031 83.1563,151.1094 C83.2188,151.5156 83.25,151.6406 83.3906,151.7656 C83.5313,151.9063 83.7656,152.0156 83.9844,152.0156 C84.25,152.0156 84.5156,151.875 84.6875,151.6563 C84.7969,151.5 84.8281,151.3125 84.8281,150.8906 L84.8281,149.4688 C84.8281,149.0313 84.8125,148.9063 84.7188,148.75 C84.5625,148.4844 84.2813,148.3438 83.9844,148.3438 C83.6875,148.3438 83.4844,148.4375 83.2656,148.75 L83.0938,148.6719 Z " fill="#000000"/><text fill="#000000" font-family="sans-serif" font-size="12" lengthAdjust="spacing" textLength="80" x="101.25" y="157.1543">Administrator</text><line style="stroke:#A80036;stroke-width:1.5;" x1="8" x2="242" y1="169" y2="169"/><text fill="#000000" font-family="sans-serif" font-size="11" lengthAdjust="spacing" textLength="75" x="13" y="183.2104">-employeeID</text><text fill="#000000" font-family="sans-serif" font-size="11" lengthAdjust="spacing" textLength="99" x="13" y="196.0151">-organizationRole</text><text fill="#000000" font-family="sans-serif" font-size="11" lengthAdjust="spacing" textLength="37" x="13" y="208.8198">-name</text><text fill="#000000" font-family="sans-serif" font-size="11" lengthAdjust="spacing" textLength="49" x="13" y="221.6245">-address</text><text fill="#000000" font-family="sans-serif" font-size="11" lengthAdjust="spacing" textLength="85" x="13" y="234.4292">-phoneNumber</text><text fill="#000000" font-family="sans-serif" font-size="11" lengthAdjust="spacing" textLength="34" x="13" y="247.2339">-eMail</text><text fill="#000000" font-family="sans-serif" font-size="11" lengthAdjust="spacing" textLength="224" x="13" y="260.0386">-standardOcupationalClassificationCode</text><!--MD5=[1934a092c0e7d4da7dc7075b6f4b6b03]
class ClinicalAnalysisLaboratory--><rect codeLine="15" fill="#FEFECE" filter="url(#f1b8317bwn0g03)" height="116.8281" id="ClinicalAnalysisLaboratory" style="stroke:#A80036;stroke-width:1.5;" width="187" x="152.5" y="344"/><ellipse cx="167.5" cy="360" fill="#ADD1B2" rx="11" ry="11" style="stroke:#A80036;stroke-width:1.0;"/><path d="M169.8438,355.6719 C168.9063,355.2344 168.3125,355.0938 167.4375,355.0938 C164.8125,355.0938 162.8125,357.1719 162.8125,359.8906 L162.8125,361.0156 C162.8125,363.5938 164.9219,365.4844 167.8125,365.4844 C169.0313,365.4844 170.1875,365.1875 170.9375,364.6406 C171.5156,364.2344 171.8438,363.7813 171.8438,363.3906 C171.8438,362.9375 171.4531,362.5469 170.9844,362.5469 C170.7656,362.5469 170.5625,362.625 170.375,362.8125 C169.9219,363.2969 169.9219,363.2969 169.7344,363.3906 C169.3125,363.6563 168.625,363.7813 167.8594,363.7813 C165.8125,363.7813 164.5156,362.6875 164.5156,360.9844 L164.5156,359.8906 C164.5156,358.1094 165.7656,356.7969 167.5,356.7969 C168.0781,356.7969 168.6875,356.9531 169.1563,357.2031 C169.6406,357.4844 169.8125,357.7031 169.9063,358.1094 C169.9688,358.5156 170,358.6406 170.1406,358.7656 C170.2813,358.9063 170.5156,359.0156 170.7344,359.0156 C171,359.0156 171.2656,358.875 171.4375,358.6563 C171.5469,358.5 171.5781,358.3125 171.5781,357.8906 L171.5781,356.4688 C171.5781,356.0313 171.5625,355.9063 171.4688,355.75 C171.3125,355.4844 171.0313,355.3438 170.7344,355.3438 C170.4375,355.3438 170.2344,355.4375 170.0156,355.75 L169.8438,355.6719 Z " fill="#000000"/><text fill="#000000" font-family="sans-serif" font-size="12" lengthAdjust="spacing" textLength="155" x="181.5" y="364.1543">ClinicalAnalysisLaboratory</text><line style="stroke:#A80036;stroke-width:1.5;" x1="153.5" x2="338.5" y1="376" y2="376"/><text fill="#000000" font-family="sans-serif" font-size="11" lengthAdjust="spacing" textLength="73" x="158.5" y="390.2104">-laboratoryID</text><text fill="#000000" font-family="sans-serif" font-size="11" lengthAdjust="spacing" textLength="37" x="158.5" y="403.0151">-name</text><text fill="#000000" font-family="sans-serif" font-size="11" lengthAdjust="spacing" textLength="42" x="158.5" y="415.8198">-adress</text><text fill="#000000" font-family="sans-serif" font-size="11" lengthAdjust="spacing" textLength="85" x="158.5" y="428.6245">-phoneNumber</text><text fill="#000000" font-family="sans-serif" font-size="11" lengthAdjust="spacing" textLength="22" x="158.5" y="441.4292">-TIN</text><text fill="#000000" font-family="sans-serif" font-size="11" lengthAdjust="spacing" textLength="77" x="158.5" y="454.2339">-TypeOfTests</text><!--MD5=[02e4b9b7573f1156f41e60aa5b4e25a4]
class Company--><rect codeLine="24" fill="#FEFECE" filter="url(#f1b8317bwn0g03)" height="52.8047" id="Company" style="stroke:#A80036;stroke-width:1.5;" width="88" x="269" y="7"/><ellipse cx="284" cy="23" fill="#ADD1B2" rx="11" ry="11" style="stroke:#A80036;stroke-width:1.0;"/><path d="M286.3438,18.6719 C285.4063,18.2344 284.8125,18.0938 283.9375,18.0938 C281.3125,18.0938 279.3125,20.1719 279.3125,22.8906 L279.3125,24.0156 C279.3125,26.5938 281.4219,28.4844 284.3125,28.4844 C285.5313,28.4844 286.6875,28.1875 287.4375,27.6406 C288.0156,27.2344 288.3438,26.7813 288.3438,26.3906 C288.3438,25.9375 287.9531,25.5469 287.4844,25.5469 C287.2656,25.5469 287.0625,25.625 286.875,25.8125 C286.4219,26.2969 286.4219,26.2969 286.2344,26.3906 C285.8125,26.6563 285.125,26.7813 284.3594,26.7813 C282.3125,26.7813 281.0156,25.6875 281.0156,23.9844 L281.0156,22.8906 C281.0156,21.1094 282.2656,19.7969 284,19.7969 C284.5781,19.7969 285.1875,19.9531 285.6563,20.2031 C286.1406,20.4844 286.3125,20.7031 286.4063,21.1094 C286.4688,21.5156 286.5,21.6406 286.6406,21.7656 C286.7813,21.9063 287.0156,22.0156 287.2344,22.0156 C287.5,22.0156 287.7656,21.875 287.9375,21.6563 C288.0469,21.5 288.0781,21.3125 288.0781,20.8906 L288.0781,19.4688 C288.0781,19.0313 288.0625,18.9063 287.9688,18.75 C287.8125,18.4844 287.5313,18.3438 287.2344,18.3438 C286.9375,18.3438 286.7344,18.4375 286.5156,18.75 L286.3438,18.6719 Z " fill="#000000"/><text fill="#000000" font-family="sans-serif" font-size="12" lengthAdjust="spacing" textLength="56" x="298" y="27.1543">Company</text><line style="stroke:#A80036;stroke-width:1.5;" x1="270" x2="356" y1="39" y2="39"/><text fill="#000000" font-family="sans-serif" font-size="11" lengthAdjust="spacing" textLength="70" x="275" y="53.2104">-designation</text><!--MD5=[565f09405b268e45a65afab91b9a9b0d]
class TypeOfTests--><rect codeLine="28" fill="#FEFECE" filter="url(#f1b8317bwn0g03)" height="65.6094" id="TypeOfTests" style="stroke:#A80036;stroke-width:1.5;" width="139" x="384.5" y="169"/><ellipse cx="413" cy="185" fill="#ADD1B2" rx="11" ry="11" style="stroke:#A80036;stroke-width:1.0;"/><path d="M415.3438,180.6719 C414.4063,180.2344 413.8125,180.0938 412.9375,180.0938 C410.3125,180.0938 408.3125,182.1719 408.3125,184.8906 L408.3125,186.0156 C408.3125,188.5938 410.4219,190.4844 413.3125,190.4844 C414.5313,190.4844 415.6875,190.1875 416.4375,189.6406 C417.0156,189.2344 417.3438,188.7813 417.3438,188.3906 C417.3438,187.9375 416.9531,187.5469 416.4844,187.5469 C416.2656,187.5469 416.0625,187.625 415.875,187.8125 C415.4219,188.2969 415.4219,188.2969 415.2344,188.3906 C414.8125,188.6563 414.125,188.7813 413.3594,188.7813 C411.3125,188.7813 410.0156,187.6875 410.0156,185.9844 L410.0156,184.8906 C410.0156,183.1094 411.2656,181.7969 413,181.7969 C413.5781,181.7969 414.1875,181.9531 414.6563,182.2031 C415.1406,182.4844 415.3125,182.7031 415.4063,183.1094 C415.4688,183.5156 415.5,183.6406 415.6406,183.7656 C415.7813,183.9063 416.0156,184.0156 416.2344,184.0156 C416.5,184.0156 416.7656,183.875 416.9375,183.6563 C417.0469,183.5 417.0781,183.3125 417.0781,182.8906 L417.0781,181.4688 C417.0781,181.0313 417.0625,180.9063 416.9688,180.75 C416.8125,180.4844 416.5313,180.3438 416.2344,180.3438 C415.9375,180.3438 415.7344,180.4375 415.5156,180.75 L415.3438,180.6719 Z " fill="#000000"/><text fill="#000000" font-family="sans-serif" font-size="12" lengthAdjust="spacing" textLength="77" x="430" y="189.1543">TypeOfTests</text><line style="stroke:#A80036;stroke-width:1.5;" x1="385.5" x2="522.5" y1="201" y2="201"/><text fill="#000000" font-family="sans-serif" font-size="11" lengthAdjust="spacing" textLength="54" x="390.5" y="215.2104">-category</text><text fill="#000000" font-family="sans-serif" font-size="11" lengthAdjust="spacing" textLength="127" x="390.5" y="228.0151">-measuredParameters</text><!--MD5=[23b8a99c177c2cd6d714b2cbaa81b3c4]
link Administrator to ClinicalAnalysisLaboratory--><path codeLine="34" d="M164.118,267.173 C178.23,290.323 194.122,316.394 208.125,339.367 " fill="none" id="Administrator-to-ClinicalAnalysisLaboratory" style="stroke:#A80036;stroke-width:1.0;"/><polygon fill="#A80036" points="210.9,343.918,209.632,334.1511,208.298,339.6484,202.8006,338.3144,210.9,343.918" style="stroke:#A80036;stroke-width:1.0;"/><text fill="#000000" font-family="sans-serif" font-size="13" lengthAdjust="spacing" textLength="56" x="191" y="310.0669">registers</text><text fill="#000000" font-family="sans-serif" font-size="13" lengthAdjust="spacing" textLength="8" x="159.7395" y="286.7601">1</text><text fill="#000000" font-family="sans-serif" font-size="13" lengthAdjust="spacing" textLength="7" x="199.1956" y="332.9497">*</text><!--MD5=[eaea43e34e45c5b9d20b595fc78f1f20]
link Company to Administrator--><path codeLine="35" d="M279.954,60.273 C268.427,69.475 255.502,80.033 244,90 C228.253,103.645 211.703,118.64 196.119,133.075 " fill="none" id="Company-to-Administrator" style="stroke:#A80036;stroke-width:1.0;"/><polygon fill="#A80036" points="192.179,136.732,201.4971,133.5425,195.8442,133.3311,196.0556,127.6782,192.179,136.732" style="stroke:#A80036;stroke-width:1.0;"/><text fill="#000000" font-family="sans-serif" font-size="13" lengthAdjust="spacing" textLength="41" x="245" y="103.0669">knows</text><text fill="#000000" font-family="sans-serif" font-size="13" lengthAdjust="spacing" textLength="8" x="263.8502" y="79.873">1</text><text fill="#000000" font-family="sans-serif" font-size="13" lengthAdjust="spacing" textLength="7" x="192.1439" y="125.8672">*</text><!--MD5=[aafc5d8a5829a6a8d6dc892cb1ff5d24]
link Company to ClinicalAnalysisLaboratory--><path codeLine="36" d="M308.342,60.015 C297.917,117.118 272.45,256.615 257.49,338.563 " fill="none" id="Company-to-ClinicalAnalysisLaboratory" style="stroke:#A80036;stroke-width:1.0;"/><polygon fill="#A80036" points="256.52,343.876,262.0723,335.7414,257.4186,338.9574,254.2026,334.3037,256.52,343.876" style="stroke:#A80036;stroke-width:1.0;"/><text fill="#000000" font-family="sans-serif" font-size="13" lengthAdjust="spacing" textLength="34" x="295" y="206.5669">owns</text><text fill="#000000" font-family="sans-serif" font-size="13" lengthAdjust="spacing" textLength="8" x="298.3398" y="79.9858">1</text><text fill="#000000" font-family="sans-serif" font-size="13" lengthAdjust="spacing" textLength="7" x="250.3756" y="332.9026">*</text><!--MD5=[cd7c138f81223cb5679915a3b60a91e4]
link Company to TypeOfTests--><path codeLine="37" d="M334.722,60.151 C358.38,88.087 396.411,132.996 423.157,164.578 " fill="none" id="Company-to-TypeOfTests" style="stroke:#A80036;stroke-width:1.0;"/><polygon fill="#A80036" points="426.688,168.749,423.9241,159.2959,423.4567,164.9334,417.8192,164.466,426.688,168.749" style="stroke:#A80036;stroke-width:1.0;"/><text fill="#000000" font-family="sans-serif" font-size="13" lengthAdjust="spacing" textLength="56" x="372" y="103.0669">specifies</text><text fill="#000000" font-family="sans-serif" font-size="13" lengthAdjust="spacing" textLength="8" x="330.5987" y="79.7243">1</text><text fill="#000000" font-family="sans-serif" font-size="13" lengthAdjust="spacing" textLength="7" x="413.6219" y="157.8446">*</text><!--MD5=[6e783d5928aa77a8bcc0eb85902c0c2f]
@startuml
skinparam classAttributeIconSize 0
hide methods


class Administrator {
-employeeID
-organizationRole
-name
-address
-phoneNumber
-eMail
-standardOcupationalClassificationCode
}

class ClinicalAnalysisLaboratory{
-laboratoryID
-name
-adress
-phoneNumber
-TIN
-TypeOfTests
}

class Company{
-designation
}

class TypeOfTests{
-category
-measuredParameters
}


Administrator "1" - -> "*" ClinicalAnalysisLaboratory: registers
Company "1" - -> "*" Administrator: knows
Company "1" - -> "*" ClinicalAnalysisLaboratory: owns
Company "1" - -> "*" TypeOfTests: specifies
@enduml

PlantUML version 1.2021.6beta6(Unknown compile time)
(GPL source distribution)
Java Runtime: Java(TM) SE Runtime Environment
JVM: Java HotSpot(TM) 64-Bit Server VM
Default Encoding: UTF-8
Language: en
Country: US
--></g></svg>