<?xml version="1.0" encoding="UTF-8" standalone="no"?><svg xmlns="http://www.w3.org/2000/svg" xmlns:xlink="http://www.w3.org/1999/xlink" contentScriptType="application/ecmascript" contentStyleType="text/css" height="762px" preserveAspectRatio="none" style="width:2430px;height:762px;" version="1.1" viewBox="0 0 2430 762" width="2430px" zoomAndPan="magnify"><defs><filter height="300%" id="f12k59zxs3b3at" width="300%" x="-1" y="-1"><feGaussianBlur result="blurOut" stdDeviation="2.0"/><feColorMatrix in="blurOut" result="blurOut2" type="matrix" values="0 0 0 0 0 0 0 0 0 0 0 0 0 0 0 0 0 0 .4 0"/><feOffset dx="4.0" dy="4.0" in="blurOut2" result="blurOut3"/><feBlend in="SourceGraphic" in2="blurOut3" mode="normal"/></filter></defs><g><rect fill="#FFFFFF" filter="url(#f12k59zxs3b3at)" height="562.0234" style="stroke:#A80036;stroke-width:1.0;" width="10" x="53" y="98.2969"/><rect fill="#FFFFFF" filter="url(#f12k59zxs3b3at)" height="29.1328" style="stroke:#A80036;stroke-width:1.0;" width="10" x="614" y="119.4297"/><rect fill="#FFFFFF" filter="url(#f12k59zxs3b3at)" height="221.8281" style="stroke:#A80036;stroke-width:1.0;" width="10" x="614" y="177.6953"/><rect fill="#FFFFFF" filter="url(#f12k59zxs3b3at)" height="231.6641" style="stroke:#A80036;stroke-width:1.0;" width="10" x="614" y="428.6563"/><rect fill="#FFFFFF" filter="url(#f12k59zxs3b3at)" height="163.5625" style="stroke:#A80036;stroke-width:1.0;" width="10" x="1293" y="206.8281"/><rect fill="#FFFFFF" filter="url(#f12k59zxs3b3at)" height="166.3984" style="stroke:#A80036;stroke-width:1.0;" width="10" x="1293" y="457.7891"/><rect fill="#FFFFFF" filter="url(#f12k59zxs3b3at)" height="30" style="stroke:#A80036;stroke-width:1.0;" width="10" x="2008" y="235.9609"/><rect fill="#FFFFFF" filter="url(#f12k59zxs3b3at)" height="30" style="stroke:#A80036;stroke-width:1.0;" width="10" x="2008" y="340.3906"/><rect fill="#FFFFFF" filter="url(#f12k59zxs3b3at)" height="137.2656" style="stroke:#A80036;stroke-width:1.0;" width="10" x="2008" y="486.9219"/><rect fill="#FFFFFF" filter="url(#f12k59zxs3b3at)" height="28" style="stroke:#A80036;stroke-width:1.0;" width="10" x="2013" y="524.0547"/><rect fill="#FFFFFF" filter="url(#f12k59zxs3b3at)" height="28" style="stroke:#A80036;stroke-width:1.0;" width="10" x="2013" y="596.1875"/><line style="stroke:#A80036;stroke-width:1.0;stroke-dasharray:5.0,5.0;" x1="58" x2="58" y1="88.2969" y2="678.3203"/><line style="stroke:#A80036;stroke-width:1.0;stroke-dasharray:5.0,5.0;" x1="619" x2="619" y1="88.2969" y2="678.3203"/><line style="stroke:#A80036;stroke-width:1.0;stroke-dasharray:5.0,5.0;" x1="1298" x2="1298" y1="88.2969" y2="678.3203"/><line style="stroke:#A80036;stroke-width:1.0;stroke-dasharray:5.0,5.0;" x1="2012.5" x2="2012.5" y1="88.2969" y2="678.3203"/><line style="stroke:#A80036;stroke-width:1.0;stroke-dasharray:5.0,5.0;" x1="2305" x2="2305" y1="306.6094" y2="678.3203"/><text fill="#000000" font-family="sans-serif" font-size="14" lengthAdjust="spacing" textLength="100" x="5" y="84.9951">Administrator</text><ellipse cx="58" cy="15" fill="#FEFECE" filter="url(#f12k59zxs3b3at)" rx="8" ry="8" style="stroke:#A80036;stroke-width:2.0;"/><path d="M58,23 L58,50 M45,31 L71,31 M58,50 L45,65 M58,50 L71,65 " fill="none" filter="url(#f12k59zxs3b3at)" style="stroke:#A80036;stroke-width:2.0;"/><text fill="#000000" font-family="sans-serif" font-size="14" lengthAdjust="spacing" textLength="100" x="5" y="690.3154">Administrator</text><ellipse cx="58" cy="703.6172" fill="#FEFECE" filter="url(#f12k59zxs3b3at)" rx="8" ry="8" style="stroke:#A80036;stroke-width:2.0;"/><path d="M58,711.6172 L58,738.6172 M45,719.6172 L71,719.6172 M58,738.6172 L45,753.6172 M58,738.6172 L71,753.6172 " fill="none" filter="url(#f12k59zxs3b3at)" style="stroke:#A80036;stroke-width:2.0;"/><rect fill="#FEFECE" filter="url(#f12k59zxs3b3at)" height="30.2969" style="stroke:#A80036;stroke-width:1.5;" width="280" x="477" y="53"/><text fill="#000000" font-family="sans-serif" font-size="14" lengthAdjust="spacing" textLength="266" x="484" y="72.9951">:RegisterClinicalAnalysisLaboratoryUI</text><rect fill="#FEFECE" filter="url(#f12k59zxs3b3at)" height="30.2969" style="stroke:#A80036;stroke-width:1.5;" width="280" x="477" y="677.3203"/><text fill="#000000" font-family="sans-serif" font-size="14" lengthAdjust="spacing" textLength="266" x="484" y="697.3154">:RegisterClinicalAnalysisLaboratoryUI</text><rect fill="#FEFECE" filter="url(#f12k59zxs3b3at)" height="30.2969" style="stroke:#A80036;stroke-width:1.5;" width="340" x="1126" y="53"/><text fill="#000000" font-family="sans-serif" font-size="14" lengthAdjust="spacing" textLength="326" x="1133" y="72.9951">:RegisterClinicalAnalysisLaboratoryController</text><rect fill="#FEFECE" filter="url(#f12k59zxs3b3at)" height="30.2969" style="stroke:#A80036;stroke-width:1.5;" width="340" x="1126" y="677.3203"/><text fill="#000000" font-family="sans-serif" font-size="14" lengthAdjust="spacing" textLength="326" x="1133" y="697.3154">:RegisterClinicalAnalysisLaboratoryController</text><rect fill="#FEFECE" filter="url(#f12k59zxs3b3at)" height="30.2969" style="stroke:#A80036;stroke-width:1.5;" width="87" x="1967.5" y="53"/><text fill="#000000" font-family="sans-serif" font-size="14" lengthAdjust="spacing" textLength="73" x="1974.5" y="72.9951">:Company</text><rect fill="#FEFECE" filter="url(#f12k59zxs3b3at)" height="30.2969" style="stroke:#A80036;stroke-width:1.5;" width="87" x="1967.5" y="677.3203"/><text fill="#000000" font-family="sans-serif" font-size="14" lengthAdjust="spacing" textLength="73" x="1974.5" y="697.3154">:Company</text><rect fill="#FEFECE" filter="url(#f12k59zxs3b3at)" height="30.2969" style="stroke:#A80036;stroke-width:1.5;" width="226" x="2190" y="677.3203"/><text fill="#000000" font-family="sans-serif" font-size="14" lengthAdjust="spacing" textLength="212" x="2197" y="697.3154">cal:ClinicalAnalysisLaboratory</text><rect fill="#FFFFFF" filter="url(#f12k59zxs3b3at)" height="562.0234" style="stroke:#A80036;stroke-width:1.0;" width="10" x="53" y="98.2969"/><rect fill="#FFFFFF" filter="url(#f12k59zxs3b3at)" height="29.1328" style="stroke:#A80036;stroke-width:1.0;" width="10" x="614" y="119.4297"/><rect fill="#FFFFFF" filter="url(#f12k59zxs3b3at)" height="221.8281" style="stroke:#A80036;stroke-width:1.0;" width="10" x="614" y="177.6953"/><rect fill="#FFFFFF" filter="url(#f12k59zxs3b3at)" height="231.6641" style="stroke:#A80036;stroke-width:1.0;" width="10" x="614" y="428.6563"/><rect fill="#FFFFFF" filter="url(#f12k59zxs3b3at)" height="163.5625" style="stroke:#A80036;stroke-width:1.0;" width="10" x="1293" y="206.8281"/><rect fill="#FFFFFF" filter="url(#f12k59zxs3b3at)" height="166.3984" style="stroke:#A80036;stroke-width:1.0;" width="10" x="1293" y="457.7891"/><rect fill="#FFFFFF" filter="url(#f12k59zxs3b3at)" height="30" style="stroke:#A80036;stroke-width:1.0;" width="10" x="2008" y="235.9609"/><rect fill="#FFFFFF" filter="url(#f12k59zxs3b3at)" height="30" style="stroke:#A80036;stroke-width:1.0;" width="10" x="2008" y="340.3906"/><rect fill="#FFFFFF" filter="url(#f12k59zxs3b3at)" height="137.2656" style="stroke:#A80036;stroke-width:1.0;" width="10" x="2008" y="486.9219"/><rect fill="#FFFFFF" filter="url(#f12k59zxs3b3at)" height="28" style="stroke:#A80036;stroke-width:1.0;" width="10" x="2013" y="524.0547"/><rect fill="#FFFFFF" filter="url(#f12k59zxs3b3at)" height="28" style="stroke:#A80036;stroke-width:1.0;" width="10" x="2013" y="596.1875"/><polygon fill="#A80036" points="602,115.4297,612,119.4297,602,123.4297,606,119.4297" style="stroke:#A80036;stroke-width:1.0;"/><line style="stroke:#A80036;stroke-width:1.0;" x1="63" x2="608" y1="119.4297" y2="119.4297"/><text fill="#000000" font-family="sans-serif" font-size="13" font-weight="bold" lengthAdjust="spacing" textLength="9" x="70" y="114.3638">1</text><text fill="#000000" font-family="sans-serif" font-size="13" lengthAdjust="spacing" textLength="302" x="83" y="114.3638">asks to register new clinical analysis laboratory</text><polygon fill="#A80036" points="74,144.5625,64,148.5625,74,152.5625,70,148.5625" style="stroke:#A80036;stroke-width:1.0;"/><line style="stroke:#A80036;stroke-width:1.0;stroke-dasharray:2.0,2.0;" x1="68" x2="618" y1="148.5625" y2="148.5625"/><text fill="#000000" font-family="sans-serif" font-size="13" font-weight="bold" lengthAdjust="spacing" textLength="9" x="80" y="143.4966">2</text><text fill="#000000" font-family="sans-serif" font-size="13" lengthAdjust="spacing" textLength="514" x="93" y="143.4966">requests data (Laboratory ID, name, adrress, phone number, TIN, Type of tests)</text><polygon fill="#A80036" points="602,173.6953,612,177.6953,602,181.6953,606,177.6953" style="stroke:#A80036;stroke-width:1.0;"/><line style="stroke:#A80036;stroke-width:1.0;" x1="63" x2="608" y1="177.6953" y2="177.6953"/><text fill="#000000" font-family="sans-serif" font-size="13" font-weight="bold" lengthAdjust="spacing" textLength="8" x="70" y="172.6294">3</text><text fill="#000000" font-family="sans-serif" font-size="13" lengthAdjust="spacing" textLength="138" x="82" y="172.6294">types requested data</text><polygon fill="#A80036" points="1281,202.8281,1291,206.8281,1281,210.8281,1285,206.8281" style="stroke:#A80036;stroke-width:1.0;"/><line style="stroke:#A80036;stroke-width:1.0;" x1="624" x2="1287" y1="206.8281" y2="206.8281"/><text fill="#000000" font-family="sans-serif" font-size="13" font-weight="bold" lengthAdjust="spacing" textLength="9" x="631" y="201.7622">4</text><text fill="#000000" font-family="sans-serif" font-size="13" lengthAdjust="spacing" textLength="637" x="644" y="201.7622">registerClinicalAnalysisLaboratory(Laboratory ID, name, adrress, phone number, TIN, Type of tests)</text><polygon fill="#A80036" points="1996,231.9609,2006,235.9609,1996,239.9609,2000,235.9609" style="stroke:#A80036;stroke-width:1.0;"/><line style="stroke:#A80036;stroke-width:1.0;" x1="1303" x2="2002" y1="235.9609" y2="235.9609"/><text fill="#000000" font-family="sans-serif" font-size="13" font-weight="bold" lengthAdjust="spacing" textLength="9" x="1310" y="230.895">5</text><text fill="#000000" font-family="sans-serif" font-size="13" lengthAdjust="spacing" textLength="673" x="1323" y="230.895">cal = registerClinicalAnalysisLaboratory(Laboratory ID, name, adrress, phone number, TIN, Type of tests)</text><polygon fill="#A80036" points="2178,291.0938,2188,295.0938,2178,299.0938,2182,295.0938" style="stroke:#A80036;stroke-width:1.0;"/><line style="stroke:#A80036;stroke-width:1.0;stroke-dasharray:2.0,2.0;" x1="2013" x2="2184" y1="295.0938" y2="295.0938"/><text fill="#000000" font-family="sans-serif" font-size="13" font-weight="bold" lengthAdjust="spacing" textLength="9" x="2020" y="290.0278">6</text><text fill="#000000" font-family="sans-serif" font-size="13" lengthAdjust="spacing" textLength="77" x="2033" y="290.0278">register(cal)</text><rect fill="#FEFECE" filter="url(#f12k59zxs3b3at)" height="30.2969" style="stroke:#A80036;stroke-width:1.5;" width="226" x="2190" y="273.9609"/><text fill="#000000" font-family="sans-serif" font-size="14" lengthAdjust="spacing" textLength="212" x="2197" y="293.9561">cal:ClinicalAnalysisLaboratory</text><polygon fill="#A80036" points="1996,336.3906,2006,340.3906,1996,344.3906,2000,340.3906" style="stroke:#A80036;stroke-width:1.0;"/><line style="stroke:#A80036;stroke-width:1.0;" x1="1303" x2="2002" y1="340.3906" y2="340.3906"/><text fill="#000000" font-family="sans-serif" font-size="13" font-weight="bold" lengthAdjust="spacing" textLength="9" x="1310" y="335.3247">7</text><text fill="#000000" font-family="sans-serif" font-size="13" lengthAdjust="spacing" textLength="246" x="1323" y="335.3247">validateClinicalAnalysisLaboratory(cal)</text><polygon fill="#A80036" points="74,395.5234,64,399.5234,74,403.5234,70,399.5234" style="stroke:#A80036;stroke-width:1.0;"/><line style="stroke:#A80036;stroke-width:1.0;stroke-dasharray:2.0,2.0;" x1="68" x2="618" y1="399.5234" y2="399.5234"/><text fill="#000000" font-family="sans-serif" font-size="13" font-weight="bold" lengthAdjust="spacing" textLength="9" x="80" y="394.4575">8</text><text fill="#000000" font-family="sans-serif" font-size="13" lengthAdjust="spacing" textLength="277" x="93" y="394.4575">shows the data and request a confirmation</text><polygon fill="#A80036" points="602,424.6563,612,428.6563,602,432.6563,606,428.6563" style="stroke:#A80036;stroke-width:1.0;"/><line style="stroke:#A80036;stroke-width:1.0;" x1="63" x2="608" y1="428.6563" y2="428.6563"/><text fill="#000000" font-family="sans-serif" font-size="13" font-weight="bold" lengthAdjust="spacing" textLength="9" x="70" y="423.5903">9</text><text fill="#000000" font-family="sans-serif" font-size="13" lengthAdjust="spacing" textLength="114" x="83" y="423.5903">confirms the data</text><polygon fill="#A80036" points="1281,453.7891,1291,457.7891,1281,461.7891,1285,457.7891" style="stroke:#A80036;stroke-width:1.0;"/><line style="stroke:#A80036;stroke-width:1.0;" x1="624" x2="1287" y1="457.7891" y2="457.7891"/><text fill="#000000" font-family="sans-serif" font-size="13" font-weight="bold" lengthAdjust="spacing" textLength="19" x="631" y="452.7231">10</text><text fill="#000000" font-family="sans-serif" font-size="13" lengthAdjust="spacing" textLength="208" x="654" y="452.7231">saveClinicalAnalysisLaboratory()</text><polygon fill="#A80036" points="1996,482.9219,2006,486.9219,1996,490.9219,2000,486.9219" style="stroke:#A80036;stroke-width:1.0;"/><line style="stroke:#A80036;stroke-width:1.0;" x1="1303" x2="2002" y1="486.9219" y2="486.9219"/><text fill="#000000" font-family="sans-serif" font-size="13" font-weight="bold" lengthAdjust="spacing" textLength="18" x="1310" y="481.856">11</text><text fill="#000000" font-family="sans-serif" font-size="13" lengthAdjust="spacing" textLength="226" x="1332" y="481.856">saveClinicalAnalysisLaboratory(cal)</text><line style="stroke:#A80036;stroke-width:1.0;" x1="2023" x2="2065" y1="516.0547" y2="516.0547"/><line style="stroke:#A80036;stroke-width:1.0;" x1="2065" x2="2065" y1="516.0547" y2="529.0547"/><line style="stroke:#A80036;stroke-width:1.0;" x1="2024" x2="2065" y1="529.0547" y2="529.0547"/><polygon fill="#A80036" points="2034,525.0547,2024,529.0547,2034,533.0547,2030,529.0547" style="stroke:#A80036;stroke-width:1.0;"/><text fill="#000000" font-family="sans-serif" font-size="13" font-weight="bold" lengthAdjust="spacing" textLength="18" x="2030" y="510.9888">12</text><text fill="#000000" font-family="sans-serif" font-size="13" lengthAdjust="spacing" textLength="246" x="2052" y="510.9888">validateClinicalAnalysisLaboratory(cal)</text><line style="stroke:#A80036;stroke-width:1.0;" x1="2023" x2="2065" y1="588.1875" y2="588.1875"/><line style="stroke:#A80036;stroke-width:1.0;" x1="2065" x2="2065" y1="588.1875" y2="601.1875"/><line style="stroke:#A80036;stroke-width:1.0;" x1="2024" x2="2065" y1="601.1875" y2="601.1875"/><polygon fill="#A80036" points="2034,597.1875,2024,601.1875,2034,605.1875,2030,601.1875" style="stroke:#A80036;stroke-width:1.0;"/><text fill="#000000" font-family="sans-serif" font-size="13" font-weight="bold" lengthAdjust="spacing" textLength="17" x="2030" y="583.1216">13</text><text fill="#000000" font-family="sans-serif" font-size="13" lengthAdjust="spacing" textLength="219" x="2051" y="583.1216">addClinicalAnalysisLaboratory(cal)</text><polygon fill="#A80036" points="69,656.3203,59,660.3203,69,664.3203,65,660.3203" style="stroke:#A80036;stroke-width:1.0;"/><line style="stroke:#A80036;stroke-width:1.0;stroke-dasharray:2.0,2.0;" x1="63" x2="618" y1="660.3203" y2="660.3203"/><text fill="#000000" font-family="sans-serif" font-size="13" font-weight="bold" lengthAdjust="spacing" textLength="18" x="75" y="655.2544">14</text><text fill="#000000" font-family="sans-serif" font-size="13" lengthAdjust="spacing" textLength="169" x="97" y="655.2544">informs operation succecs</text><!--MD5=[a666de98c94f2bd16d3e401bc98a21d5]
@startuml
autonumber
actor "Administrator" as ADMIN

participant ":RegisterClinicalAnalysisLaboratoryUI" as UI
participant ":RegisterClinicalAnalysisLaboratoryController" as CTRL
participant ":Company" as CMP
participant "cal:ClinicalAnalysisLaboratory" as CAL

activate ADMIN
ADMIN -> UI : asks to register new clinical analysis laboratory
activate UI
UI - -> ADMIN : requests data (Laboratory ID, name, adrress, phone number, TIN, Type of tests)
deactivate UI

ADMIN -> UI : types requested data
activate UI
UI -> CTRL: registerClinicalAnalysisLaboratory(Laboratory ID, name, adrress, phone number, TIN, Type of tests)
activate CTRL
CTRL -> CMP : cal = registerClinicalAnalysisLaboratory(Laboratory ID, name, adrress, phone number, TIN, Type of tests)
activate CMP
deactivate CMP
CMP - -> CAL** : register(cal)
CTRL -> CMP : validateClinicalAnalysisLaboratory(cal)
activate CMP
deactivate CMP
deactivate CTRL

UI - -> ADMIN : shows the data and request a confirmation
deactivate UI

ADMIN -> UI : confirms the data
activate UI

UI -> CTRL : saveClinicalAnalysisLaboratory()
activate CTRL

CTRL -> CMP : saveClinicalAnalysisLaboratory(cal)
activate CMP
CMP -> CMP : validateClinicalAnalysisLaboratory(cal)
activate CMP
CMP- -
CMP -> CMP : addClinicalAnalysisLaboratory(cal)
activate CMP
CMP- -
deactivate CMP
deactivate CTRL

UI - -> ADMIN : informs operation succecs
deactivate UI

deactivate ADMIN
@enduml

PlantUML version 1.2021.6beta4(Unknown compile time)
(GPL source distribution)
Java Runtime: Java(TM) SE Runtime Environment
JVM: Java HotSpot(TM) 64-Bit Server VM
Default Encoding: UTF-8
Language: en
Country: US
--></g></svg>