<?xml version="1.0" encoding="UTF-8" standalone="no"?><svg xmlns="http://www.w3.org/2000/svg" xmlns:xlink="http://www.w3.org/1999/xlink" contentScriptType="application/ecmascript" contentStyleType="text/css" height="1359px" preserveAspectRatio="none" style="width:2286px;height:1359px;background:#FFFFFF;" version="1.1" viewBox="0 0 2286 1359" width="2286px" zoomAndPan="magnify"><defs><filter height="300%" id="f1wmib76jafymm" width="300%" x="-1" y="-1"><feGaussianBlur result="blurOut" stdDeviation="2.0"/><feColorMatrix in="blurOut" result="blurOut2" type="matrix" values="0 0 0 0 0 0 0 0 0 0 0 0 0 0 0 0 0 0 .4 0"/><feOffset dx="4.0" dy="4.0" in="blurOut2" result="blurOut3"/><feBlend in="SourceGraphic" in2="blurOut3" mode="normal"/></filter></defs><g><text fill="#000000" font-family="sans-serif" font-size="18" font-weight="bold" lengthAdjust="spacing" text-decoration="underline" textLength="557" x="862.5" y="28.708">SD_GENERATE_LINEAR_REGRESSION_REPORT_STRING</text><rect fill="#FFFFFF" filter="url(#f1wmib76jafymm)" height="1221.6484" style="stroke:#A80036;stroke-width:1.0;" width="10" x="153.5" y="85.25"/><rect fill="#FFFFFF" filter="url(#f1wmib76jafymm)" height="1121.1172" style="stroke:#A80036;stroke-width:1.0;" width="10" x="1323" y="185.7813"/><rect fill="#FFFFFF" filter="url(#f1wmib76jafymm)" height="28" style="stroke:#A80036;stroke-width:1.0;" width="10" x="1328" y="259.2422"/><rect fill="#FFFFFF" filter="url(#f1wmib76jafymm)" height="28" style="stroke:#A80036;stroke-width:1.0;" width="10" x="1328" y="360.5078"/><rect fill="#FFFFFF" filter="url(#f1wmib76jafymm)" height="28" style="stroke:#A80036;stroke-width:1.0;" width="10" x="1328" y="610.0391"/><rect fill="#FFFFFF" filter="url(#f1wmib76jafymm)" height="28" style="stroke:#A80036;stroke-width:1.0;" width="10" x="1328" y="980.9688"/><rect fill="#FFFFFF" filter="url(#f1wmib76jafymm)" height="28" style="stroke:#A80036;stroke-width:1.0;" width="10" x="1328" y="1113.5"/><rect fill="#FFFFFF" filter="url(#f1wmib76jafymm)" height="64.1328" style="stroke:#A80036;stroke-width:1.0;" width="10" x="2182" y="259.2422"/><rect fill="#FFFFFF" filter="url(#f1wmib76jafymm)" height="30" style="stroke:#A80036;stroke-width:1.0;" width="10" x="2182" y="424.6406"/><rect fill="#FFFFFF" filter="url(#f1wmib76jafymm)" height="30" style="stroke:#A80036;stroke-width:1.0;" width="10" x="2182" y="483.7734"/><rect fill="#FFFFFF" filter="url(#f1wmib76jafymm)" height="30" style="stroke:#A80036;stroke-width:1.0;" width="10" x="2182" y="542.9063"/><rect fill="#FFFFFF" filter="url(#f1wmib76jafymm)" height="30" style="stroke:#A80036;stroke-width:1.0;" width="10" x="2182" y="698.3047"/><rect fill="#FFFFFF" filter="url(#f1wmib76jafymm)" height="30" style="stroke:#A80036;stroke-width:1.0;" width="10" x="2182" y="757.4375"/><rect fill="#FFFFFF" filter="url(#f1wmib76jafymm)" height="30" style="stroke:#A80036;stroke-width:1.0;" width="10" x="2182" y="847.7031"/><rect fill="#FFFFFF" filter="url(#f1wmib76jafymm)" height="30" style="stroke:#A80036;stroke-width:1.0;" width="10" x="2182" y="906.8359"/><rect fill="#FFFFFF" filter="url(#f1wmib76jafymm)" height="30" style="stroke:#A80036;stroke-width:1.0;" width="10" x="2182" y="1201.7656"/><rect fill="#FFFFFF" filter="url(#f1wmib76jafymm)" height="30" style="stroke:#A80036;stroke-width:1.0;" width="10" x="2182" y="1260.8984"/><rect fill="#FFFFFF" filter="url(#f1wmib76jafymm)" height="135.3984" style="stroke:#000000;stroke-width:2.0;" width="1041.5" x="1230.5" y="660.0391"/><rect fill="#FFFFFF" filter="url(#f1wmib76jafymm)" height="135.3984" style="stroke:#000000;stroke-width:2.0;" width="1041.5" x="1230.5" y="809.4375"/><rect fill="#FFFFFF" filter="url(#f1wmib76jafymm)" height="135.3984" style="stroke:#000000;stroke-width:2.0;" width="1041.5" x="1230.5" y="1163.5"/><line style="stroke:#A80036;stroke-width:1.0;stroke-dasharray:5.0,5.0;" x1="158" x2="158" y1="75.25" y2="1315.8984"/><line style="stroke:#A80036;stroke-width:1.0;stroke-dasharray:5.0,5.0;" x1="1327.5" x2="1327.5" y1="172.1641" y2="1315.8984"/><line style="stroke:#A80036;stroke-width:1.0;stroke-dasharray:5.0,5.0;" x1="2187" x2="2187" y1="217.4609" y2="1315.8984"/><rect fill="#FEFECE" filter="url(#f1wmib76jafymm)" height="30.2969" style="stroke:#A80036;stroke-width:1.5;" width="91" x="111" y="39.9531"/><text fill="#000000" font-family="sans-serif" font-size="14" lengthAdjust="spacing" textLength="77" x="118" y="59.9482">: Company</text><rect fill="#FEFECE" filter="url(#f1wmib76jafymm)" height="30.2969" style="stroke:#A80036;stroke-width:1.5;" width="91" x="111" y="1314.8984"/><text fill="#000000" font-family="sans-serif" font-size="14" lengthAdjust="spacing" textLength="77" x="118" y="1334.8936">: Company</text><rect fill="#FEFECE" filter="url(#f1wmib76jafymm)" height="30.2969" style="stroke:#A80036;stroke-width:1.5;" width="171" x="1240.5" y="1314.8984"/><text fill="#000000" font-family="sans-serif" font-size="14" lengthAdjust="spacing" textLength="157" x="1247.5" y="1334.8936">: GenerateNHSReport</text><rect fill="#FEFECE" filter="url(#f1wmib76jafymm)" height="30.2969" style="stroke:#A80036;stroke-width:1.5;" width="146" x="2112" y="1314.8984"/><text fill="#000000" font-family="sans-serif" font-size="14" lengthAdjust="spacing" textLength="132" x="2119" y="1334.8936">: LinearRegression</text><rect fill="#FFFFFF" filter="url(#f1wmib76jafymm)" height="1221.6484" style="stroke:#A80036;stroke-width:1.0;" width="10" x="153.5" y="85.25"/><rect fill="#FFFFFF" filter="url(#f1wmib76jafymm)" height="1121.1172" style="stroke:#A80036;stroke-width:1.0;" width="10" x="1323" y="185.7813"/><rect fill="#FFFFFF" filter="url(#f1wmib76jafymm)" height="28" style="stroke:#A80036;stroke-width:1.0;" width="10" x="1328" y="259.2422"/><rect fill="#FFFFFF" filter="url(#f1wmib76jafymm)" height="28" style="stroke:#A80036;stroke-width:1.0;" width="10" x="1328" y="360.5078"/><rect fill="#FFFFFF" filter="url(#f1wmib76jafymm)" height="28" style="stroke:#A80036;stroke-width:1.0;" width="10" x="1328" y="610.0391"/><rect fill="#FFFFFF" filter="url(#f1wmib76jafymm)" height="28" style="stroke:#A80036;stroke-width:1.0;" width="10" x="1328" y="980.9688"/><rect fill="#FFFFFF" filter="url(#f1wmib76jafymm)" height="28" style="stroke:#A80036;stroke-width:1.0;" width="10" x="1328" y="1113.5"/><rect fill="#FFFFFF" filter="url(#f1wmib76jafymm)" height="64.1328" style="stroke:#A80036;stroke-width:1.0;" width="10" x="2182" y="259.2422"/><rect fill="#FFFFFF" filter="url(#f1wmib76jafymm)" height="30" style="stroke:#A80036;stroke-width:1.0;" width="10" x="2182" y="424.6406"/><rect fill="#FFFFFF" filter="url(#f1wmib76jafymm)" height="30" style="stroke:#A80036;stroke-width:1.0;" width="10" x="2182" y="483.7734"/><rect fill="#FFFFFF" filter="url(#f1wmib76jafymm)" height="30" style="stroke:#A80036;stroke-width:1.0;" width="10" x="2182" y="542.9063"/><rect fill="#FFFFFF" filter="url(#f1wmib76jafymm)" height="30" style="stroke:#A80036;stroke-width:1.0;" width="10" x="2182" y="698.3047"/><rect fill="#FFFFFF" filter="url(#f1wmib76jafymm)" height="30" style="stroke:#A80036;stroke-width:1.0;" width="10" x="2182" y="757.4375"/><rect fill="#FFFFFF" filter="url(#f1wmib76jafymm)" height="30" style="stroke:#A80036;stroke-width:1.0;" width="10" x="2182" y="847.7031"/><rect fill="#FFFFFF" filter="url(#f1wmib76jafymm)" height="30" style="stroke:#A80036;stroke-width:1.0;" width="10" x="2182" y="906.8359"/><rect fill="#FFFFFF" filter="url(#f1wmib76jafymm)" height="30" style="stroke:#A80036;stroke-width:1.0;" width="10" x="2182" y="1201.7656"/><rect fill="#FFFFFF" filter="url(#f1wmib76jafymm)" height="30" style="stroke:#A80036;stroke-width:1.0;" width="10" x="2182" y="1260.8984"/><path d="M5,90.25 L5,130.25 L309,130.25 L309,100.25 L299,90.25 L5,90.25 " fill="#FBFB77" filter="url(#f1wmib76jafymm)" style="stroke:#A80036;stroke-width:1.0;"/><path d="M299,90.25 L299,100.25 L309,100.25 L299,90.25 " fill="#FBFB77" style="stroke:#A80036;stroke-width:1.0;"/><text fill="#000000" font-family="sans-serif" font-size="13" lengthAdjust="spacing" textLength="279" x="11" y="107.3169">This sequence diagram takes place after all</text><text fill="#000000" font-family="sans-serif" font-size="13" lengthAdjust="spacing" textLength="224" x="15" y="122.4497">necessary data has been arranged</text><polygon fill="#A80036" points="1228.5,171.7813,1238.5,175.7813,1228.5,179.7813,1232.5,175.7813" style="stroke:#A80036;stroke-width:1.0;"/><line style="stroke:#A80036;stroke-width:1.0;" x1="163.5" x2="1234.5" y1="175.7813" y2="175.7813"/><text fill="#000000" font-family="sans-serif" font-size="13" font-weight="bold" lengthAdjust="spacing" textLength="9" x="170.5" y="163.1489">1</text><text fill="#000000" font-family="sans-serif" font-size="13" lengthAdjust="spacing" textLength="1040" x="183.5" y="155.5825">generateNHSReport(arrayY,arrayX,bHypothesisTestParameter,bHypothesisSignificance,aHypothesisTestParameter,aHypothesisSignificance,fDecisionSignificance,</text><text fill="#000000" font-family="sans-serif" font-size="13" lengthAdjust="spacing" textLength="529" x="183.5" y="170.7153">historicalPointsDependentVariables,historicalPoints,confidenceIntervalSignificance)</text><rect fill="#FEFECE" filter="url(#f1wmib76jafymm)" height="30.2969" style="stroke:#A80036;stroke-width:1.5;" width="171" x="1240.5" y="139.5156"/><text fill="#000000" font-family="sans-serif" font-size="14" lengthAdjust="spacing" textLength="157" x="1247.5" y="159.5107">: GenerateNHSReport</text><polygon fill="#A80036" points="2100,217.0781,2110,221.0781,2100,225.0781,2104,221.0781" style="stroke:#A80036;stroke-width:1.0;"/><line style="stroke:#A80036;stroke-width:1.0;" x1="1333" x2="2106" y1="221.0781" y2="221.0781"/><text fill="#000000" font-family="sans-serif" font-size="13" font-weight="bold" lengthAdjust="spacing" textLength="9" x="1340" y="208.4458">2</text><text fill="#000000" font-family="sans-serif" font-size="13" lengthAdjust="spacing" textLength="742" x="1353" y="200.8794">createLinearRegression(arrayY,arrayX,bHypothesisTestParameter,aHypothesisTestParameter,fDecisionSignificance</text><text fill="#000000" font-family="sans-serif" font-size="13" lengthAdjust="spacing" textLength="203" x="1353" y="216.0122">,confidenceIntervalSignificance)</text><rect fill="#FEFECE" filter="url(#f1wmib76jafymm)" height="30.2969" style="stroke:#A80036;stroke-width:1.5;" width="146" x="2112" y="184.8125"/><text fill="#000000" font-family="sans-serif" font-size="14" lengthAdjust="spacing" textLength="132" x="2119" y="204.8076">: LinearRegression</text><line style="stroke:#A80036;stroke-width:1.0;" x1="1338" x2="1380" y1="251.2422" y2="251.2422"/><line style="stroke:#A80036;stroke-width:1.0;" x1="1380" x2="1380" y1="251.2422" y2="264.2422"/><line style="stroke:#A80036;stroke-width:1.0;" x1="1339" x2="1380" y1="264.2422" y2="264.2422"/><polygon fill="#A80036" points="1349,260.2422,1339,264.2422,1349,268.2422,1345,264.2422" style="stroke:#A80036;stroke-width:1.0;"/><text fill="#000000" font-family="sans-serif" font-size="13" font-weight="bold" lengthAdjust="spacing" textLength="8" x="1345" y="246.1763">3</text><text fill="#000000" font-family="sans-serif" font-size="13" lengthAdjust="spacing" textLength="106" x="1357" y="246.1763">createFirstRow()</text><polygon fill="#A80036" points="2175,319.375,2185,323.375,2175,327.375,2179,323.375" style="stroke:#A80036;stroke-width:1.0;"/><line style="stroke:#A80036;stroke-width:1.0;" x1="1333" x2="2181" y1="323.375" y2="323.375"/><text fill="#000000" font-family="sans-serif" font-size="13" font-weight="bold" lengthAdjust="spacing" textLength="9" x="1340" y="318.3091">4</text><text fill="#000000" font-family="sans-serif" font-size="13" lengthAdjust="spacing" textLength="146" x="1353" y="318.3091">linearModel= toString()</text><line style="stroke:#A80036;stroke-width:1.0;" x1="1338" x2="1380" y1="352.5078" y2="352.5078"/><line style="stroke:#A80036;stroke-width:1.0;" x1="1380" x2="1380" y1="352.5078" y2="365.5078"/><line style="stroke:#A80036;stroke-width:1.0;" x1="1339" x2="1380" y1="365.5078" y2="365.5078"/><polygon fill="#A80036" points="1349,361.5078,1339,365.5078,1349,369.5078,1345,365.5078" style="stroke:#A80036;stroke-width:1.0;"/><text fill="#000000" font-family="sans-serif" font-size="13" font-weight="bold" lengthAdjust="spacing" textLength="9" x="1345" y="347.4419">5</text><text fill="#000000" font-family="sans-serif" font-size="13" lengthAdjust="spacing" textLength="126" x="1358" y="347.4419">createSecondRow()</text><polygon fill="#A80036" points="2170,420.6406,2180,424.6406,2170,428.6406,2174,424.6406" style="stroke:#A80036;stroke-width:1.0;"/><line style="stroke:#A80036;stroke-width:1.0;" x1="1333" x2="2176" y1="424.6406" y2="424.6406"/><text fill="#000000" font-family="sans-serif" font-size="13" font-weight="bold" lengthAdjust="spacing" textLength="9" x="1340" y="419.5747">6</text><text fill="#000000" font-family="sans-serif" font-size="13" lengthAdjust="spacing" textLength="71" x="1353" y="419.5747">r2=getR2()</text><polygon fill="#A80036" points="2170,479.7734,2180,483.7734,2170,487.7734,2174,483.7734" style="stroke:#A80036;stroke-width:1.0;"/><line style="stroke:#A80036;stroke-width:1.0;" x1="1333" x2="2176" y1="483.7734" y2="483.7734"/><text fill="#000000" font-family="sans-serif" font-size="13" font-weight="bold" lengthAdjust="spacing" textLength="9" x="1340" y="478.7075">7</text><text fill="#000000" font-family="sans-serif" font-size="13" lengthAdjust="spacing" textLength="183" x="1353" y="478.7075">r2Adjusted=getR2Adjusted()</text><polygon fill="#A80036" points="2170,538.9063,2180,542.9063,2170,546.9063,2174,542.9063" style="stroke:#A80036;stroke-width:1.0;"/><line style="stroke:#A80036;stroke-width:1.0;" x1="1333" x2="2176" y1="542.9063" y2="542.9063"/><text fill="#000000" font-family="sans-serif" font-size="13" font-weight="bold" lengthAdjust="spacing" textLength="9" x="1340" y="537.8403">8</text><text fill="#000000" font-family="sans-serif" font-size="13" lengthAdjust="spacing" textLength="55" x="1353" y="537.8403">r=getR()</text><line style="stroke:#A80036;stroke-width:1.0;" x1="1338" x2="1380" y1="602.0391" y2="602.0391"/><line style="stroke:#A80036;stroke-width:1.0;" x1="1380" x2="1380" y1="602.0391" y2="615.0391"/><line style="stroke:#A80036;stroke-width:1.0;" x1="1339" x2="1380" y1="615.0391" y2="615.0391"/><polygon fill="#A80036" points="1349,611.0391,1339,615.0391,1349,619.0391,1345,615.0391" style="stroke:#A80036;stroke-width:1.0;"/><text fill="#000000" font-family="sans-serif" font-size="13" font-weight="bold" lengthAdjust="spacing" textLength="9" x="1345" y="596.9731">9</text><text fill="#000000" font-family="sans-serif" font-size="13" lengthAdjust="spacing" textLength="111" x="1358" y="596.9731">createThirdRow()</text><path d="M1230.5,660.0391 L1302.5,660.0391 L1302.5,667.0391 L1292.5,677.0391 L1230.5,677.0391 L1230.5,660.0391 " fill="#EEEEEE" style="stroke:#000000;stroke-width:1.0;"/><rect fill="none" height="135.3984" style="stroke:#000000;stroke-width:2.0;" width="1041.5" x="1230.5" y="660.0391"/><text fill="#000000" font-family="sans-serif" font-size="13" font-weight="bold" lengthAdjust="spacing" textLength="27" x="1245.5" y="673.106">opt</text><text fill="#000000" font-family="sans-serif" font-size="11" font-weight="bold" lengthAdjust="spacing" textLength="234" x="1317.5" y="672.2495">[aHypothesisTestParameter!=null]</text><polygon fill="#A80036" points="2170,694.3047,2180,698.3047,2170,702.3047,2174,698.3047" style="stroke:#A80036;stroke-width:1.0;"/><line style="stroke:#A80036;stroke-width:1.0;" x1="1333" x2="2176" y1="698.3047" y2="698.3047"/><text fill="#000000" font-family="sans-serif" font-size="13" font-weight="bold" lengthAdjust="spacing" textLength="19" x="1340" y="693.2388">10</text><text fill="#000000" font-family="sans-serif" font-size="13" lengthAdjust="spacing" textLength="271" x="1363" y="693.2388">tObs=getTObs(aHypothesisTestParamter)</text><polygon fill="#A80036" points="2170,753.4375,2180,757.4375,2170,761.4375,2174,757.4375" style="stroke:#A80036;stroke-width:1.0;"/><line style="stroke:#A80036;stroke-width:1.0;" x1="1333" x2="2176" y1="757.4375" y2="757.4375"/><text fill="#000000" font-family="sans-serif" font-size="13" font-weight="bold" lengthAdjust="spacing" textLength="18" x="1340" y="752.3716">11</text><text fill="#000000" font-family="sans-serif" font-size="13" lengthAdjust="spacing" textLength="253" x="1362" y="752.3716">tCrit=getTCrit(aHypothesisSignificance)</text><path d="M1230.5,809.4375 L1302.5,809.4375 L1302.5,816.4375 L1292.5,826.4375 L1230.5,826.4375 L1230.5,809.4375 " fill="#EEEEEE" style="stroke:#000000;stroke-width:1.0;"/><rect fill="none" height="135.3984" style="stroke:#000000;stroke-width:2.0;" width="1041.5" x="1230.5" y="809.4375"/><text fill="#000000" font-family="sans-serif" font-size="13" font-weight="bold" lengthAdjust="spacing" textLength="27" x="1245.5" y="822.5044">opt</text><text fill="#000000" font-family="sans-serif" font-size="11" font-weight="bold" lengthAdjust="spacing" textLength="234" x="1317.5" y="821.6479">[bHypothesisTestParameter!=null]</text><polygon fill="#A80036" points="2170,843.7031,2180,847.7031,2170,851.7031,2174,847.7031" style="stroke:#A80036;stroke-width:1.0;"/><line style="stroke:#A80036;stroke-width:1.0;" x1="1333" x2="2176" y1="847.7031" y2="847.7031"/><text fill="#000000" font-family="sans-serif" font-size="13" font-weight="bold" lengthAdjust="spacing" textLength="18" x="1340" y="842.6372">12</text><text fill="#000000" font-family="sans-serif" font-size="13" lengthAdjust="spacing" textLength="271" x="1362" y="842.6372">tObs=getTObs(nHypothesisTestParamter)</text><polygon fill="#A80036" points="2170,902.8359,2180,906.8359,2170,910.8359,2174,906.8359" style="stroke:#A80036;stroke-width:1.0;"/><line style="stroke:#A80036;stroke-width:1.0;" x1="1333" x2="2176" y1="906.8359" y2="906.8359"/><text fill="#000000" font-family="sans-serif" font-size="13" font-weight="bold" lengthAdjust="spacing" textLength="17" x="1340" y="901.77">13</text><text fill="#000000" font-family="sans-serif" font-size="13" lengthAdjust="spacing" textLength="253" x="1361" y="901.77">tCrit=getTCrit(nHypothesisSignificance)</text><line style="stroke:#A80036;stroke-width:1.0;" x1="1338" x2="1380" y1="972.9688" y2="972.9688"/><line style="stroke:#A80036;stroke-width:1.0;" x1="1380" x2="1380" y1="972.9688" y2="985.9688"/><line style="stroke:#A80036;stroke-width:1.0;" x1="1339" x2="1380" y1="985.9688" y2="985.9688"/><polygon fill="#A80036" points="1349,981.9688,1339,985.9688,1349,989.9688,1345,985.9688" style="stroke:#A80036;stroke-width:1.0;"/><text fill="#000000" font-family="sans-serif" font-size="13" font-weight="bold" lengthAdjust="spacing" textLength="18" x="1345" y="967.9028">14</text><text fill="#000000" font-family="sans-serif" font-size="13" lengthAdjust="spacing" textLength="120" x="1367" y="967.9028">createFourthRow()</text><rect fill="#FFFFFF" filter="url(#f1wmib76jafymm)" height="55.3984" style="stroke:#000000;stroke-width:2.0;" width="663" x="1237.5" y="1023.9688"/><polygon fill="#EEEEEE" points="1237.5,1023.9688,1305.5,1023.9688,1305.5,1030.9688,1295.5,1040.9688,1237.5,1040.9688,1237.5,1023.9688" style="stroke:#000000;stroke-width:2.0;"/><text fill="#000000" font-family="sans-serif" font-size="13" font-weight="bold" lengthAdjust="spacing" textLength="23" x="1250.5" y="1038.0356">ref</text><text fill="#000000" font-family="sans-serif" font-size="13" lengthAdjust="spacing" textLength="174" x="1243.5" y="1057.0356">SD_CREATE_FOURTH_ROW</text><text fill="#000000" font-family="sans-serif" font-size="13" lengthAdjust="spacing" textLength="655" x="1243.5" y="1072.1685">(the fourth row has a big amount of get methods so I thought it best to have it in a separate diagram)</text><line style="stroke:#A80036;stroke-width:1.0;" x1="1338" x2="1380" y1="1105.5" y2="1105.5"/><line style="stroke:#A80036;stroke-width:1.0;" x1="1380" x2="1380" y1="1105.5" y2="1118.5"/><line style="stroke:#A80036;stroke-width:1.0;" x1="1339" x2="1380" y1="1118.5" y2="1118.5"/><polygon fill="#A80036" points="1349,1114.5,1339,1118.5,1349,1122.5,1345,1118.5" style="stroke:#A80036;stroke-width:1.0;"/><text fill="#000000" font-family="sans-serif" font-size="13" font-weight="bold" lengthAdjust="spacing" textLength="18" x="1345" y="1100.4341">15</text><text fill="#000000" font-family="sans-serif" font-size="13" lengthAdjust="spacing" textLength="115" x="1367" y="1100.4341">createFinalTable()</text><path d="M1230.5,1163.5 L1308.5,1163.5 L1308.5,1170.5 L1298.5,1180.5 L1230.5,1180.5 L1230.5,1163.5 " fill="#EEEEEE" style="stroke:#000000;stroke-width:1.0;"/><rect fill="none" height="135.3984" style="stroke:#000000;stroke-width:2.0;" width="1041.5" x="1230.5" y="1163.5"/><text fill="#000000" font-family="sans-serif" font-size="13" font-weight="bold" lengthAdjust="spacing" textLength="33" x="1245.5" y="1176.5669">loop</text><text fill="#000000" font-family="sans-serif" font-size="11" font-weight="bold" lengthAdjust="spacing" textLength="275" x="1323.5" y="1175.7104">[for all values in the historical point list]</text><polygon fill="#A80036" points="2170,1197.7656,2180,1201.7656,2170,1205.7656,2174,1201.7656" style="stroke:#A80036;stroke-width:1.0;"/><line style="stroke:#A80036;stroke-width:1.0;" x1="1333" x2="2176" y1="1201.7656" y2="1201.7656"/><text fill="#000000" font-family="sans-serif" font-size="13" font-weight="bold" lengthAdjust="spacing" textLength="18" x="1340" y="1196.6997">16</text><text fill="#000000" font-family="sans-serif" font-size="13" lengthAdjust="spacing" textLength="379" x="1362" y="1196.6997">predictedValue=predict(historicalPointsDependentVariable)</text><polygon fill="#A80036" points="2170,1256.8984,2180,1260.8984,2170,1264.8984,2174,1260.8984" style="stroke:#A80036;stroke-width:1.0;"/><line style="stroke:#A80036;stroke-width:1.0;" x1="1333" x2="2176" y1="1260.8984" y2="1260.8984"/><text fill="#000000" font-family="sans-serif" font-size="13" font-weight="bold" lengthAdjust="spacing" textLength="18" x="1340" y="1255.8325">17</text><text fill="#000000" font-family="sans-serif" font-size="13" lengthAdjust="spacing" textLength="401" x="1362" y="1255.8325">delta=getDelta(predictedValue,confidenceIntervalSignificance)</text><!--MD5=[2212213b02eeb2697023508b3b905d94]
@startuml
autonumber
title
__**SD_GENERATE_LINEAR_REGRESSION_REPORT_STRING**__
end title

participant ": Company" as COMP
participant ": GenerateNHSReport" as GNR
participant ": LinearRegression" as LR


activate COMP
note over  COMP : This sequence diagram takes place after all \n necessary data has been arranged
COMP -> GNR**:generateNHSReport(arrayY,arrayX,bHypothesisTestParameter,bHypothesisSignificance,aHypothesisTestParameter,aHypothesisSignificance,fDecisionSignificance,\nhistoricalPointsDependentVariables,historicalPoints,confidenceIntervalSignificance)
activate GNR
GNR -> LR**:createLinearRegression(arrayY,arrayX,bHypothesisTestParameter,aHypothesisTestParameter,fDecisionSignificance\n,confidenceIntervalSignificance)
GNR -> GNR: createFirstRow()
activate GNR
deactivate GNR
activate LR
GNR-> LR:linearModel= toString()


deactivate LR
GNR -> GNR:createSecondRow()
activate GNR
deactivate GNR
GNR -> LR: r2=getR2()
activate LR
deactivate LR
GNR -> LR: r2Adjusted=getR2Adjusted()
activate LR
deactivate LR
GNR -> LR: r=getR()
activate LR
deactivate LR
GNR -> GNR:createThirdRow()
activate GNR
deactivate GNR
opt aHypothesisTestParameter!=null
GNR -> LR: tObs=getTObs(aHypothesisTestParamter)
activate LR
deactivate LR
GNR -> LR: tCrit=getTCrit(aHypothesisSignificance)
activate LR
deactivate LR
end opt 
opt bHypothesisTestParameter!=null
GNR -> LR: tObs=getTObs(nHypothesisTestParamter)
activate LR
deactivate LR
GNR -> LR: tCrit=getTCrit(nHypothesisSignificance)
activate LR
deactivate LR
end opt
GNR -> GNR:createFourthRow()
activate GNR
deactivate GNR
ref over GNR
  SD_CREATE_FOURTH_ROW
  (the fourth row has a big amount of get methods so I thought it best to have it in a separate diagram)
end ref
GNR -> GNR:createFinalTable()
activate GNR
deactivate GNR
loop for all values in the historical point list
GNR -> LR: predictedValue=predict(historicalPointsDependentVariable)
activate LR
deactivate LR
GNR -> LR: delta=getDelta(predictedValue,confidenceIntervalSignificance)
activate LR
deactivate LR
end loop
deactivate LR
@enduml

PlantUML version 1.2021.7(Sun May 23 12:40:07 UTC 2021)
(GPL source distribution)
Java Runtime: Java(TM) SE Runtime Environment
JVM: Java HotSpot(TM) 64-Bit Server VM
Default Encoding: UTF-8
Language: en
Country: US
--></g></svg>