<?xml version="1.0" encoding="UTF-8" standalone="no"?><svg xmlns="http://www.w3.org/2000/svg" xmlns:xlink="http://www.w3.org/1999/xlink" contentScriptType="application/ecmascript" contentStyleType="text/css" height="1313px" preserveAspectRatio="none" style="width:2122px;height:1313px;background:#FFFFFF;" version="1.1" viewBox="0 0 2122 1313" width="2122px" zoomAndPan="magnify"><defs><filter height="300%" id="fsb1dg6zg2g2s" width="300%" x="-1" y="-1"><feGaussianBlur result="blurOut" stdDeviation="2.0"/><feColorMatrix in="blurOut" result="blurOut2" type="matrix" values="0 0 0 0 0 0 0 0 0 0 0 0 0 0 0 0 0 0 .4 0"/><feOffset dx="4.0" dy="4.0" in="blurOut2" result="blurOut3"/><feBlend in="SourceGraphic" in2="blurOut3" mode="normal"/></filter></defs><g><text fill="#000000" font-family="sans-serif" font-size="18" font-weight="bold" lengthAdjust="spacing" text-decoration="underline" textLength="632" x="743.25" y="28.708">SD_GENERATE_MULTI_LINEAR_REGRESSION_REPORT_STRING</text><rect fill="#FFFFFF" filter="url(#fsb1dg6zg2g2s)" height="1176.3516" style="stroke:#A80036;stroke-width:1.0;" width="10" x="153.5" y="85.25"/><rect fill="#FFFFFF" filter="url(#fsb1dg6zg2g2s)" height="1075.8203" style="stroke:#A80036;stroke-width:1.0;" width="10" x="1340" y="185.7813"/><rect fill="#FFFFFF" filter="url(#fsb1dg6zg2g2s)" height="28" style="stroke:#A80036;stroke-width:1.0;" width="10" x="1345" y="213.9453"/><rect fill="#FFFFFF" filter="url(#fsb1dg6zg2g2s)" height="28" style="stroke:#A80036;stroke-width:1.0;" width="10" x="1345" y="315.2109"/><rect fill="#FFFFFF" filter="url(#fsb1dg6zg2g2s)" height="28" style="stroke:#A80036;stroke-width:1.0;" width="10" x="1345" y="564.7422"/><rect fill="#FFFFFF" filter="url(#fsb1dg6zg2g2s)" height="28" style="stroke:#A80036;stroke-width:1.0;" width="10" x="1345" y="935.6719"/><rect fill="#FFFFFF" filter="url(#fsb1dg6zg2g2s)" height="28" style="stroke:#A80036;stroke-width:1.0;" width="10" x="1345" y="1068.2031"/><rect fill="#FFFFFF" filter="url(#fsb1dg6zg2g2s)" height="64.1328" style="stroke:#A80036;stroke-width:1.0;" width="10" x="2001" y="213.9453"/><rect fill="#FFFFFF" filter="url(#fsb1dg6zg2g2s)" height="30" style="stroke:#A80036;stroke-width:1.0;" width="10" x="2001" y="379.3438"/><rect fill="#FFFFFF" filter="url(#fsb1dg6zg2g2s)" height="30" style="stroke:#A80036;stroke-width:1.0;" width="10" x="2001" y="438.4766"/><rect fill="#FFFFFF" filter="url(#fsb1dg6zg2g2s)" height="30" style="stroke:#A80036;stroke-width:1.0;" width="10" x="2001" y="497.6094"/><rect fill="#FFFFFF" filter="url(#fsb1dg6zg2g2s)" height="30" style="stroke:#A80036;stroke-width:1.0;" width="10" x="2001" y="653.0078"/><rect fill="#FFFFFF" filter="url(#fsb1dg6zg2g2s)" height="30" style="stroke:#A80036;stroke-width:1.0;" width="10" x="2001" y="712.1406"/><rect fill="#FFFFFF" filter="url(#fsb1dg6zg2g2s)" height="30" style="stroke:#A80036;stroke-width:1.0;" width="10" x="2001" y="802.4063"/><rect fill="#FFFFFF" filter="url(#fsb1dg6zg2g2s)" height="30" style="stroke:#A80036;stroke-width:1.0;" width="10" x="2001" y="861.5391"/><rect fill="#FFFFFF" filter="url(#fsb1dg6zg2g2s)" height="30" style="stroke:#A80036;stroke-width:1.0;" width="10" x="2001" y="1156.4688"/><rect fill="#FFFFFF" filter="url(#fsb1dg6zg2g2s)" height="30" style="stroke:#A80036;stroke-width:1.0;" width="10" x="2001" y="1215.6016"/><rect fill="#FFFFFF" filter="url(#fsb1dg6zg2g2s)" height="135.3984" style="stroke:#000000;stroke-width:2.0;" width="861" x="1247.5" y="614.7422"/><rect fill="#FFFFFF" filter="url(#fsb1dg6zg2g2s)" height="135.3984" style="stroke:#000000;stroke-width:2.0;" width="861" x="1247.5" y="764.1406"/><rect fill="#FFFFFF" filter="url(#fsb1dg6zg2g2s)" height="135.3984" style="stroke:#000000;stroke-width:2.0;" width="861" x="1247.5" y="1118.2031"/><line style="stroke:#A80036;stroke-width:1.0;stroke-dasharray:5.0,5.0;" x1="158" x2="158" y1="75.25" y2="1270.6016"/><line style="stroke:#A80036;stroke-width:1.0;stroke-dasharray:5.0,5.0;" x1="1344.5" x2="1344.5" y1="172.1641" y2="1270.6016"/><line style="stroke:#A80036;stroke-width:1.0;stroke-dasharray:5.0,5.0;" x1="2005.5" x2="2005.5" y1="75.25" y2="1270.6016"/><rect fill="#FEFECE" filter="url(#fsb1dg6zg2g2s)" height="30.2969" style="stroke:#A80036;stroke-width:1.5;" width="91" x="111" y="39.9531"/><text fill="#000000" font-family="sans-serif" font-size="14" lengthAdjust="spacing" textLength="77" x="118" y="59.9482">: Company</text><rect fill="#FEFECE" filter="url(#fsb1dg6zg2g2s)" height="30.2969" style="stroke:#A80036;stroke-width:1.5;" width="91" x="111" y="1269.6016"/><text fill="#000000" font-family="sans-serif" font-size="14" lengthAdjust="spacing" textLength="77" x="118" y="1289.5967">: Company</text><rect fill="#FEFECE" filter="url(#fsb1dg6zg2g2s)" height="30.2969" style="stroke:#A80036;stroke-width:1.5;" width="171" x="1257.5" y="1269.6016"/><text fill="#000000" font-family="sans-serif" font-size="14" lengthAdjust="spacing" textLength="157" x="1264.5" y="1289.5967">: GenerateNHSReport</text><rect fill="#FEFECE" filter="url(#fsb1dg6zg2g2s)" height="30.2969" style="stroke:#A80036;stroke-width:1.5;" width="181" x="1913.5" y="39.9531"/><text fill="#000000" font-family="sans-serif" font-size="14" lengthAdjust="spacing" textLength="167" x="1920.5" y="59.9482">: MultiLinearRegression</text><rect fill="#FEFECE" filter="url(#fsb1dg6zg2g2s)" height="30.2969" style="stroke:#A80036;stroke-width:1.5;" width="181" x="1913.5" y="1269.6016"/><text fill="#000000" font-family="sans-serif" font-size="14" lengthAdjust="spacing" textLength="167" x="1920.5" y="1289.5967">: MultiLinearRegression</text><rect fill="#FFFFFF" filter="url(#fsb1dg6zg2g2s)" height="1176.3516" style="stroke:#A80036;stroke-width:1.0;" width="10" x="153.5" y="85.25"/><rect fill="#FFFFFF" filter="url(#fsb1dg6zg2g2s)" height="1075.8203" style="stroke:#A80036;stroke-width:1.0;" width="10" x="1340" y="185.7813"/><rect fill="#FFFFFF" filter="url(#fsb1dg6zg2g2s)" height="28" style="stroke:#A80036;stroke-width:1.0;" width="10" x="1345" y="213.9453"/><rect fill="#FFFFFF" filter="url(#fsb1dg6zg2g2s)" height="28" style="stroke:#A80036;stroke-width:1.0;" width="10" x="1345" y="315.2109"/><rect fill="#FFFFFF" filter="url(#fsb1dg6zg2g2s)" height="28" style="stroke:#A80036;stroke-width:1.0;" width="10" x="1345" y="564.7422"/><rect fill="#FFFFFF" filter="url(#fsb1dg6zg2g2s)" height="28" style="stroke:#A80036;stroke-width:1.0;" width="10" x="1345" y="935.6719"/><rect fill="#FFFFFF" filter="url(#fsb1dg6zg2g2s)" height="28" style="stroke:#A80036;stroke-width:1.0;" width="10" x="1345" y="1068.2031"/><rect fill="#FFFFFF" filter="url(#fsb1dg6zg2g2s)" height="64.1328" style="stroke:#A80036;stroke-width:1.0;" width="10" x="2001" y="213.9453"/><rect fill="#FFFFFF" filter="url(#fsb1dg6zg2g2s)" height="30" style="stroke:#A80036;stroke-width:1.0;" width="10" x="2001" y="379.3438"/><rect fill="#FFFFFF" filter="url(#fsb1dg6zg2g2s)" height="30" style="stroke:#A80036;stroke-width:1.0;" width="10" x="2001" y="438.4766"/><rect fill="#FFFFFF" filter="url(#fsb1dg6zg2g2s)" height="30" style="stroke:#A80036;stroke-width:1.0;" width="10" x="2001" y="497.6094"/><rect fill="#FFFFFF" filter="url(#fsb1dg6zg2g2s)" height="30" style="stroke:#A80036;stroke-width:1.0;" width="10" x="2001" y="653.0078"/><rect fill="#FFFFFF" filter="url(#fsb1dg6zg2g2s)" height="30" style="stroke:#A80036;stroke-width:1.0;" width="10" x="2001" y="712.1406"/><rect fill="#FFFFFF" filter="url(#fsb1dg6zg2g2s)" height="30" style="stroke:#A80036;stroke-width:1.0;" width="10" x="2001" y="802.4063"/><rect fill="#FFFFFF" filter="url(#fsb1dg6zg2g2s)" height="30" style="stroke:#A80036;stroke-width:1.0;" width="10" x="2001" y="861.5391"/><rect fill="#FFFFFF" filter="url(#fsb1dg6zg2g2s)" height="30" style="stroke:#A80036;stroke-width:1.0;" width="10" x="2001" y="1156.4688"/><rect fill="#FFFFFF" filter="url(#fsb1dg6zg2g2s)" height="30" style="stroke:#A80036;stroke-width:1.0;" width="10" x="2001" y="1215.6016"/><path d="M5,90.25 L5,130.25 L309,130.25 L309,100.25 L299,90.25 L5,90.25 " fill="#FBFB77" filter="url(#fsb1dg6zg2g2s)" style="stroke:#A80036;stroke-width:1.0;"/><path d="M299,90.25 L299,100.25 L309,100.25 L299,90.25 " fill="#FBFB77" style="stroke:#A80036;stroke-width:1.0;"/><text fill="#000000" font-family="sans-serif" font-size="13" lengthAdjust="spacing" textLength="279" x="11" y="107.3169">This sequence diagram takes place after all</text><text fill="#000000" font-family="sans-serif" font-size="13" lengthAdjust="spacing" textLength="224" x="15" y="122.4497">necessary data has been arranged</text><polygon fill="#A80036" points="1245.5,171.7813,1255.5,175.7813,1245.5,179.7813,1249.5,175.7813" style="stroke:#A80036;stroke-width:1.0;"/><line style="stroke:#A80036;stroke-width:1.0;" x1="163.5" x2="1251.5" y1="175.7813" y2="175.7813"/><text fill="#000000" font-family="sans-serif" font-size="13" font-weight="bold" lengthAdjust="spacing" textLength="9" x="170.5" y="163.1489">1</text><text fill="#000000" font-family="sans-serif" font-size="13" lengthAdjust="spacing" textLength="1057" x="183.5" y="155.5825">generateNHSReport(linearRegression,bHypothesisTestParameter,bHypothesisSignificance,aHypothesisTestParameter,aHypothesisSignificance,fDecisionSignificance,</text><text fill="#000000" font-family="sans-serif" font-size="13" lengthAdjust="spacing" textLength="767" x="183.5" y="170.7153">historicalPointsDependentVariables,historicalPointsDependentVariables2,historicalPoints,confidenceIntervalSignificance)</text><rect fill="#FEFECE" filter="url(#fsb1dg6zg2g2s)" height="30.2969" style="stroke:#A80036;stroke-width:1.5;" width="171" x="1257.5" y="139.5156"/><text fill="#000000" font-family="sans-serif" font-size="14" lengthAdjust="spacing" textLength="157" x="1264.5" y="159.5107">: GenerateNHSReport</text><line style="stroke:#A80036;stroke-width:1.0;" x1="1355" x2="1397" y1="205.9453" y2="205.9453"/><line style="stroke:#A80036;stroke-width:1.0;" x1="1397" x2="1397" y1="205.9453" y2="218.9453"/><line style="stroke:#A80036;stroke-width:1.0;" x1="1356" x2="1397" y1="218.9453" y2="218.9453"/><polygon fill="#A80036" points="1366,214.9453,1356,218.9453,1366,222.9453,1362,218.9453" style="stroke:#A80036;stroke-width:1.0;"/><text fill="#000000" font-family="sans-serif" font-size="13" font-weight="bold" lengthAdjust="spacing" textLength="9" x="1362" y="200.8794">2</text><text fill="#000000" font-family="sans-serif" font-size="13" lengthAdjust="spacing" textLength="106" x="1375" y="200.8794">createFirstRow()</text><polygon fill="#A80036" points="1994,274.0781,2004,278.0781,1994,282.0781,1998,278.0781" style="stroke:#A80036;stroke-width:1.0;"/><line style="stroke:#A80036;stroke-width:1.0;" x1="1350" x2="2000" y1="278.0781" y2="278.0781"/><text fill="#000000" font-family="sans-serif" font-size="13" font-weight="bold" lengthAdjust="spacing" textLength="8" x="1357" y="273.0122">3</text><text fill="#000000" font-family="sans-serif" font-size="13" lengthAdjust="spacing" textLength="146" x="1369" y="273.0122">linearModel= toString()</text><line style="stroke:#A80036;stroke-width:1.0;" x1="1355" x2="1397" y1="307.2109" y2="307.2109"/><line style="stroke:#A80036;stroke-width:1.0;" x1="1397" x2="1397" y1="307.2109" y2="320.2109"/><line style="stroke:#A80036;stroke-width:1.0;" x1="1356" x2="1397" y1="320.2109" y2="320.2109"/><polygon fill="#A80036" points="1366,316.2109,1356,320.2109,1366,324.2109,1362,320.2109" style="stroke:#A80036;stroke-width:1.0;"/><text fill="#000000" font-family="sans-serif" font-size="13" font-weight="bold" lengthAdjust="spacing" textLength="9" x="1362" y="302.145">4</text><text fill="#000000" font-family="sans-serif" font-size="13" lengthAdjust="spacing" textLength="126" x="1375" y="302.145">createSecondRow()</text><polygon fill="#A80036" points="1989,375.3438,1999,379.3438,1989,383.3438,1993,379.3438" style="stroke:#A80036;stroke-width:1.0;"/><line style="stroke:#A80036;stroke-width:1.0;" x1="1350" x2="1995" y1="379.3438" y2="379.3438"/><text fill="#000000" font-family="sans-serif" font-size="13" font-weight="bold" lengthAdjust="spacing" textLength="9" x="1357" y="374.2778">5</text><text fill="#000000" font-family="sans-serif" font-size="13" lengthAdjust="spacing" textLength="71" x="1370" y="374.2778">r2=getR2()</text><polygon fill="#A80036" points="1989,434.4766,1999,438.4766,1989,442.4766,1993,438.4766" style="stroke:#A80036;stroke-width:1.0;"/><line style="stroke:#A80036;stroke-width:1.0;" x1="1350" x2="1995" y1="438.4766" y2="438.4766"/><text fill="#000000" font-family="sans-serif" font-size="13" font-weight="bold" lengthAdjust="spacing" textLength="9" x="1357" y="433.4106">6</text><text fill="#000000" font-family="sans-serif" font-size="13" lengthAdjust="spacing" textLength="183" x="1370" y="433.4106">r2Adjusted=getR2Adjusted()</text><polygon fill="#A80036" points="1989,493.6094,1999,497.6094,1989,501.6094,1993,497.6094" style="stroke:#A80036;stroke-width:1.0;"/><line style="stroke:#A80036;stroke-width:1.0;" x1="1350" x2="1995" y1="497.6094" y2="497.6094"/><text fill="#000000" font-family="sans-serif" font-size="13" font-weight="bold" lengthAdjust="spacing" textLength="9" x="1357" y="492.5435">7</text><text fill="#000000" font-family="sans-serif" font-size="13" lengthAdjust="spacing" textLength="55" x="1370" y="492.5435">r=getR()</text><line style="stroke:#A80036;stroke-width:1.0;" x1="1355" x2="1397" y1="556.7422" y2="556.7422"/><line style="stroke:#A80036;stroke-width:1.0;" x1="1397" x2="1397" y1="556.7422" y2="569.7422"/><line style="stroke:#A80036;stroke-width:1.0;" x1="1356" x2="1397" y1="569.7422" y2="569.7422"/><polygon fill="#A80036" points="1366,565.7422,1356,569.7422,1366,573.7422,1362,569.7422" style="stroke:#A80036;stroke-width:1.0;"/><text fill="#000000" font-family="sans-serif" font-size="13" font-weight="bold" lengthAdjust="spacing" textLength="9" x="1362" y="551.6763">8</text><text fill="#000000" font-family="sans-serif" font-size="13" lengthAdjust="spacing" textLength="111" x="1375" y="551.6763">createThirdRow()</text><path d="M1247.5,614.7422 L1319.5,614.7422 L1319.5,621.7422 L1309.5,631.7422 L1247.5,631.7422 L1247.5,614.7422 " fill="#EEEEEE" style="stroke:#000000;stroke-width:1.0;"/><rect fill="none" height="135.3984" style="stroke:#000000;stroke-width:2.0;" width="861" x="1247.5" y="614.7422"/><text fill="#000000" font-family="sans-serif" font-size="13" font-weight="bold" lengthAdjust="spacing" textLength="27" x="1262.5" y="627.8091">opt</text><text fill="#000000" font-family="sans-serif" font-size="11" font-weight="bold" lengthAdjust="spacing" textLength="234" x="1334.5" y="626.9526">[aHypothesisTestParameter!=null]</text><polygon fill="#A80036" points="1989,649.0078,1999,653.0078,1989,657.0078,1993,653.0078" style="stroke:#A80036;stroke-width:1.0;"/><line style="stroke:#A80036;stroke-width:1.0;" x1="1350" x2="1995" y1="653.0078" y2="653.0078"/><text fill="#000000" font-family="sans-serif" font-size="13" font-weight="bold" lengthAdjust="spacing" textLength="9" x="1357" y="647.9419">9</text><text fill="#000000" font-family="sans-serif" font-size="13" lengthAdjust="spacing" textLength="271" x="1370" y="647.9419">tObs=getTObs(aHypothesisTestParamter)</text><polygon fill="#A80036" points="1989,708.1406,1999,712.1406,1989,716.1406,1993,712.1406" style="stroke:#A80036;stroke-width:1.0;"/><line style="stroke:#A80036;stroke-width:1.0;" x1="1350" x2="1995" y1="712.1406" y2="712.1406"/><text fill="#000000" font-family="sans-serif" font-size="13" font-weight="bold" lengthAdjust="spacing" textLength="19" x="1357" y="707.0747">10</text><text fill="#000000" font-family="sans-serif" font-size="13" lengthAdjust="spacing" textLength="253" x="1380" y="707.0747">tCrit=getTCrit(aHypothesisSignificance)</text><path d="M1247.5,764.1406 L1319.5,764.1406 L1319.5,771.1406 L1309.5,781.1406 L1247.5,781.1406 L1247.5,764.1406 " fill="#EEEEEE" style="stroke:#000000;stroke-width:1.0;"/><rect fill="none" height="135.3984" style="stroke:#000000;stroke-width:2.0;" width="861" x="1247.5" y="764.1406"/><text fill="#000000" font-family="sans-serif" font-size="13" font-weight="bold" lengthAdjust="spacing" textLength="27" x="1262.5" y="777.2075">opt</text><text fill="#000000" font-family="sans-serif" font-size="11" font-weight="bold" lengthAdjust="spacing" textLength="234" x="1334.5" y="776.3511">[bHypothesisTestParameter!=null]</text><polygon fill="#A80036" points="1989,798.4063,1999,802.4063,1989,806.4063,1993,802.4063" style="stroke:#A80036;stroke-width:1.0;"/><line style="stroke:#A80036;stroke-width:1.0;" x1="1350" x2="1995" y1="802.4063" y2="802.4063"/><text fill="#000000" font-family="sans-serif" font-size="13" font-weight="bold" lengthAdjust="spacing" textLength="18" x="1357" y="797.3403">11</text><text fill="#000000" font-family="sans-serif" font-size="13" lengthAdjust="spacing" textLength="271" x="1379" y="797.3403">tObs=getTObs(nHypothesisTestParamter)</text><polygon fill="#A80036" points="1989,857.5391,1999,861.5391,1989,865.5391,1993,861.5391" style="stroke:#A80036;stroke-width:1.0;"/><line style="stroke:#A80036;stroke-width:1.0;" x1="1350" x2="1995" y1="861.5391" y2="861.5391"/><text fill="#000000" font-family="sans-serif" font-size="13" font-weight="bold" lengthAdjust="spacing" textLength="18" x="1357" y="856.4731">12</text><text fill="#000000" font-family="sans-serif" font-size="13" lengthAdjust="spacing" textLength="253" x="1379" y="856.4731">tCrit=getTCrit(nHypothesisSignificance)</text><line style="stroke:#A80036;stroke-width:1.0;" x1="1355" x2="1397" y1="927.6719" y2="927.6719"/><line style="stroke:#A80036;stroke-width:1.0;" x1="1397" x2="1397" y1="927.6719" y2="940.6719"/><line style="stroke:#A80036;stroke-width:1.0;" x1="1356" x2="1397" y1="940.6719" y2="940.6719"/><polygon fill="#A80036" points="1366,936.6719,1356,940.6719,1366,944.6719,1362,940.6719" style="stroke:#A80036;stroke-width:1.0;"/><text fill="#000000" font-family="sans-serif" font-size="13" font-weight="bold" lengthAdjust="spacing" textLength="17" x="1362" y="922.606">13</text><text fill="#000000" font-family="sans-serif" font-size="13" lengthAdjust="spacing" textLength="120" x="1383" y="922.606">createFourthRow()</text><rect fill="#FFFFFF" filter="url(#fsb1dg6zg2g2s)" height="55.3984" style="stroke:#000000;stroke-width:2.0;" width="663" x="1254.5" y="978.6719"/><polygon fill="#EEEEEE" points="1254.5,978.6719,1322.5,978.6719,1322.5,985.6719,1312.5,995.6719,1254.5,995.6719,1254.5,978.6719" style="stroke:#000000;stroke-width:2.0;"/><text fill="#000000" font-family="sans-serif" font-size="13" font-weight="bold" lengthAdjust="spacing" textLength="23" x="1267.5" y="992.7388">ref</text><text fill="#000000" font-family="sans-serif" font-size="13" lengthAdjust="spacing" textLength="174" x="1260.5" y="1011.7388">SD_CREATE_FOURTH_ROW</text><text fill="#000000" font-family="sans-serif" font-size="13" lengthAdjust="spacing" textLength="655" x="1260.5" y="1026.8716">(the fourth row has a big amount of get methods so I thought it best to have it in a separate diagram)</text><line style="stroke:#A80036;stroke-width:1.0;" x1="1355" x2="1397" y1="1060.2031" y2="1060.2031"/><line style="stroke:#A80036;stroke-width:1.0;" x1="1397" x2="1397" y1="1060.2031" y2="1073.2031"/><line style="stroke:#A80036;stroke-width:1.0;" x1="1356" x2="1397" y1="1073.2031" y2="1073.2031"/><polygon fill="#A80036" points="1366,1069.2031,1356,1073.2031,1366,1077.2031,1362,1073.2031" style="stroke:#A80036;stroke-width:1.0;"/><text fill="#000000" font-family="sans-serif" font-size="13" font-weight="bold" lengthAdjust="spacing" textLength="18" x="1362" y="1055.1372">14</text><text fill="#000000" font-family="sans-serif" font-size="13" lengthAdjust="spacing" textLength="115" x="1384" y="1055.1372">createFinalTable()</text><path d="M1247.5,1118.2031 L1325.5,1118.2031 L1325.5,1125.2031 L1315.5,1135.2031 L1247.5,1135.2031 L1247.5,1118.2031 " fill="#EEEEEE" style="stroke:#000000;stroke-width:1.0;"/><rect fill="none" height="135.3984" style="stroke:#000000;stroke-width:2.0;" width="861" x="1247.5" y="1118.2031"/><text fill="#000000" font-family="sans-serif" font-size="13" font-weight="bold" lengthAdjust="spacing" textLength="33" x="1262.5" y="1131.27">loop</text><text fill="#000000" font-family="sans-serif" font-size="11" font-weight="bold" lengthAdjust="spacing" textLength="275" x="1340.5" y="1130.4136">[for all values in the historical point list]</text><polygon fill="#A80036" points="1989,1152.4688,1999,1156.4688,1989,1160.4688,1993,1156.4688" style="stroke:#A80036;stroke-width:1.0;"/><line style="stroke:#A80036;stroke-width:1.0;" x1="1350" x2="1995" y1="1156.4688" y2="1156.4688"/><text fill="#000000" font-family="sans-serif" font-size="13" font-weight="bold" lengthAdjust="spacing" textLength="18" x="1357" y="1151.4028">15</text><text fill="#000000" font-family="sans-serif" font-size="13" lengthAdjust="spacing" textLength="610" x="1379" y="1151.4028">predictedValue=predict(historicalPointsDependentVariable,historicalPointsDependentVariable2)</text><polygon fill="#A80036" points="1989,1211.6016,1999,1215.6016,1989,1219.6016,1993,1215.6016" style="stroke:#A80036;stroke-width:1.0;"/><line style="stroke:#A80036;stroke-width:1.0;" x1="1350" x2="1995" y1="1215.6016" y2="1215.6016"/><text fill="#000000" font-family="sans-serif" font-size="13" font-weight="bold" lengthAdjust="spacing" textLength="18" x="1357" y="1210.5356">16</text><text fill="#000000" font-family="sans-serif" font-size="13" lengthAdjust="spacing" textLength="401" x="1379" y="1210.5356">delta=getDelta(predictedValue,confidenceIntervalSignificance)</text><!--MD5=[34175b9078e6dc5648057f21feeb46ce]
@startuml
autonumber
title
__**SD_GENERATE_MULTI_LINEAR_REGRESSION_REPORT_STRING**__
end title

participant ": Company" as COMP
participant ": GenerateNHSReport" as GNR
participant ": MultiLinearRegression" as LR


activate COMP
note over  COMP : This sequence diagram takes place after all \n necessary data has been arranged
COMP -> GNR**:generateNHSReport(linearRegression,bHypothesisTestParameter,bHypothesisSignificance,aHypothesisTestParameter,aHypothesisSignificance,fDecisionSignificance,\nhistoricalPointsDependentVariables,historicalPointsDependentVariables2,historicalPoints,confidenceIntervalSignificance)
activate GNR
GNR -> GNR: createFirstRow()
activate GNR
deactivate GNR
activate LR
GNR-> LR:linearModel= toString()


deactivate LR
GNR -> GNR:createSecondRow()
activate GNR
deactivate GNR
GNR -> LR: r2=getR2()
activate LR
deactivate LR
GNR -> LR: r2Adjusted=getR2Adjusted()
activate LR
deactivate LR
GNR -> LR: r=getR()
activate LR
deactivate LR
GNR -> GNR:createThirdRow()
activate GNR
deactivate GNR
opt aHypothesisTestParameter!=null
GNR -> LR: tObs=getTObs(aHypothesisTestParamter)
activate LR
deactivate LR
GNR -> LR: tCrit=getTCrit(aHypothesisSignificance)
activate LR
deactivate LR
end opt 
opt bHypothesisTestParameter!=null
GNR -> LR: tObs=getTObs(nHypothesisTestParamter)
activate LR
deactivate LR
GNR -> LR: tCrit=getTCrit(nHypothesisSignificance)
activate LR
deactivate LR
end opt
GNR -> GNR:createFourthRow()
activate GNR
deactivate GNR
ref over GNR
  SD_CREATE_FOURTH_ROW
  (the fourth row has a big amount of get methods so I thought it best to have it in a separate diagram)
end ref
GNR -> GNR:createFinalTable()
activate GNR
deactivate GNR
loop for all values in the historical point list
GNR -> LR: predictedValue=predict(historicalPointsDependentVariable,historicalPointsDependentVariable2)
activate LR
deactivate LR
GNR -> LR: delta=getDelta(predictedValue,confidenceIntervalSignificance)
activate LR
deactivate LR
end loop
deactivate LR
@enduml

PlantUML version 1.2021.7(Sun May 23 12:40:07 UTC 2021)
(GPL source distribution)
Java Runtime: Java(TM) SE Runtime Environment
JVM: Java HotSpot(TM) 64-Bit Server VM
Default Encoding: UTF-8
Language: en
Country: US
--></g></svg>