<?xml version="1.0" encoding="UTF-8" standalone="no"?><svg xmlns="http://www.w3.org/2000/svg" xmlns:xlink="http://www.w3.org/1999/xlink" contentScriptType="application/ecmascript" contentStyleType="text/css" height="549px" preserveAspectRatio="none" style="width:2077px;height:549px;background:#FFFFFF;" version="1.1" viewBox="0 0 2077 549" width="2077px" zoomAndPan="magnify"><defs><filter height="300%" id="f1jisv1u3bp4s8" width="300%" x="-1" y="-1"><feGaussianBlur result="blurOut" stdDeviation="2.0"/><feColorMatrix in="blurOut" result="blurOut2" type="matrix" values="0 0 0 0 0 0 0 0 0 0 0 0 0 0 0 0 0 0 .4 0"/><feOffset dx="4.0" dy="4.0" in="blurOut2" result="blurOut3"/><feBlend in="SourceGraphic" in2="blurOut3" mode="normal"/></filter></defs><g><rect fill="#FFFFFF" filter="url(#f1jisv1u3bp4s8)" height="358.0234" style="stroke:#A80036;stroke-width:1.0;" width="10" x="37" y="98.2969"/><rect fill="#FFFFFF" filter="url(#f1jisv1u3bp4s8)" height="224.3594" style="stroke:#A80036;stroke-width:1.0;" width="10" x="592" y="119.4297"/><rect fill="#FFFFFF" filter="url(#f1jisv1u3bp4s8)" height="29.1328" style="stroke:#A80036;stroke-width:1.0;" width="10" x="592" y="372.9219"/><rect fill="#FFFFFF" filter="url(#f1jisv1u3bp4s8)" height="54.2656" style="stroke:#A80036;stroke-width:1.0;" width="10" x="1811" y="402.0547"/><line style="stroke:#A80036;stroke-width:1.0;stroke-dasharray:5.0,5.0;" x1="42" x2="42" y1="88.2969" y2="465.3203"/><line style="stroke:#A80036;stroke-width:1.0;stroke-dasharray:5.0,5.0;" x1="596.5" x2="596.5" y1="88.2969" y2="465.3203"/><line style="stroke:#A80036;stroke-width:1.0;stroke-dasharray:5.0,5.0;" x1="839.5" x2="839.5" y1="88.2969" y2="465.3203"/><line style="stroke:#A80036;stroke-width:1.0;stroke-dasharray:5.0,5.0;" x1="1552" x2="1552" y1="234.4766" y2="465.3203"/><line style="stroke:#A80036;stroke-width:1.0;stroke-dasharray:5.0,5.0;" x1="1815.5" x2="1815.5" y1="88.2969" y2="465.3203"/><line style="stroke:#A80036;stroke-width:1.0;stroke-dasharray:5.0,5.0;" x1="1936" x2="1936" y1="88.2969" y2="465.3203"/><line style="stroke:#A80036;stroke-width:1.0;stroke-dasharray:5.0,5.0;" x1="2031" x2="2031" y1="88.2969" y2="465.3203"/><text fill="#000000" font-family="sans-serif" font-size="14" lengthAdjust="spacing" textLength="68" x="5" y="84.9951">Company</text><ellipse cx="42" cy="15" fill="#FEFECE" filter="url(#f1jisv1u3bp4s8)" rx="8" ry="8" style="stroke:#A80036;stroke-width:2.0;"/><path d="M42,23 L42,50 M29,31 L55,31 M42,50 L29,65 M42,50 L55,65 " fill="none" filter="url(#f1jisv1u3bp4s8)" style="stroke:#A80036;stroke-width:2.0;"/><text fill="#000000" font-family="sans-serif" font-size="14" lengthAdjust="spacing" textLength="68" x="5" y="477.3154">Company</text><ellipse cx="42" cy="490.6172" fill="#FEFECE" filter="url(#f1jisv1u3bp4s8)" rx="8" ry="8" style="stroke:#A80036;stroke-width:2.0;"/><path d="M42,498.6172 L42,525.6172 M29,506.6172 L55,506.6172 M42,525.6172 L29,540.6172 M42,525.6172 L55,540.6172 " fill="none" filter="url(#f1jisv1u3bp4s8)" style="stroke:#A80036;stroke-width:2.0;"/><rect fill="#FEFECE" filter="url(#f1jisv1u3bp4s8)" height="30.2969" style="stroke:#A80036;stroke-width:1.5;" width="181" x="504.5" y="53"/><text fill="#000000" font-family="sans-serif" font-size="14" lengthAdjust="spacing" textLength="167" x="511.5" y="72.9951">SendReportToNHSTask</text><rect fill="#FEFECE" filter="url(#f1jisv1u3bp4s8)" height="30.2969" style="stroke:#A80036;stroke-width:1.5;" width="181" x="504.5" y="464.3203"/><text fill="#000000" font-family="sans-serif" font-size="14" lengthAdjust="spacing" textLength="167" x="511.5" y="484.3154">SendReportToNHSTask</text><rect fill="#FEFECE" filter="url(#f1jisv1u3bp4s8)" height="30.2969" style="stroke:#A80036;stroke-width:1.5;" width="117" x="779.5" y="53"/><text fill="#000000" font-family="sans-serif" font-size="14" lengthAdjust="spacing" textLength="103" x="786.5" y="72.9951">:Configuration</text><rect fill="#FEFECE" filter="url(#f1jisv1u3bp4s8)" height="30.2969" style="stroke:#A80036;stroke-width:1.5;" width="117" x="779.5" y="464.3203"/><text fill="#000000" font-family="sans-serif" font-size="14" lengthAdjust="spacing" textLength="103" x="786.5" y="484.3154">:Configuration</text><rect fill="#FEFECE" filter="url(#f1jisv1u3bp4s8)" height="30.2969" style="stroke:#A80036;stroke-width:1.5;" width="96" x="1502" y="464.3203"/><text fill="#000000" font-family="sans-serif" font-size="14" lengthAdjust="spacing" textLength="82" x="1509" y="484.3154">:NhsReport</text><rect fill="#FEFECE" filter="url(#f1jisv1u3bp4s8)" height="30.2969" style="stroke:#A80036;stroke-width:1.5;" width="87" x="1770.5" y="53"/><text fill="#000000" font-family="sans-serif" font-size="14" lengthAdjust="spacing" textLength="73" x="1777.5" y="72.9951">:Company</text><rect fill="#FEFECE" filter="url(#f1jisv1u3bp4s8)" height="30.2969" style="stroke:#A80036;stroke-width:1.5;" width="87" x="1770.5" y="464.3203"/><text fill="#000000" font-family="sans-serif" font-size="14" lengthAdjust="spacing" textLength="73" x="1777.5" y="484.3154">:Company</text><rect fill="#FEFECE" filter="url(#f1jisv1u3bp4s8)" height="30.2969" style="stroke:#A80036;stroke-width:1.5;" width="94" x="1887" y="53"/><text fill="#000000" font-family="sans-serif" font-size="14" lengthAdjust="spacing" textLength="80" x="1894" y="72.9951">:TimerTask</text><rect fill="#FEFECE" filter="url(#f1jisv1u3bp4s8)" height="30.2969" style="stroke:#A80036;stroke-width:1.5;" width="94" x="1887" y="464.3203"/><text fill="#000000" font-family="sans-serif" font-size="14" lengthAdjust="spacing" textLength="80" x="1894" y="484.3154">:TimerTask</text><rect fill="#FEFECE" filter="url(#f1jisv1u3bp4s8)" height="30.2969" style="stroke:#A80036;stroke-width:1.5;" width="68" x="1995" y="53"/><text fill="#000000" font-family="sans-serif" font-size="14" lengthAdjust="spacing" textLength="54" x="2002" y="72.9951">:NhsAPI</text><rect fill="#FEFECE" filter="url(#f1jisv1u3bp4s8)" height="30.2969" style="stroke:#A80036;stroke-width:1.5;" width="68" x="1995" y="464.3203"/><text fill="#000000" font-family="sans-serif" font-size="14" lengthAdjust="spacing" textLength="54" x="2002" y="484.3154">:NhsAPI</text><rect fill="#FFFFFF" filter="url(#f1jisv1u3bp4s8)" height="358.0234" style="stroke:#A80036;stroke-width:1.0;" width="10" x="37" y="98.2969"/><rect fill="#FFFFFF" filter="url(#f1jisv1u3bp4s8)" height="224.3594" style="stroke:#A80036;stroke-width:1.0;" width="10" x="592" y="119.4297"/><rect fill="#FFFFFF" filter="url(#f1jisv1u3bp4s8)" height="29.1328" style="stroke:#A80036;stroke-width:1.0;" width="10" x="592" y="372.9219"/><rect fill="#FFFFFF" filter="url(#f1jisv1u3bp4s8)" height="54.2656" style="stroke:#A80036;stroke-width:1.0;" width="10" x="1811" y="402.0547"/><polygon fill="#A80036" points="580,115.4297,590,119.4297,580,123.4297,584,119.4297" style="stroke:#A80036;stroke-width:1.0;"/><line style="stroke:#A80036;stroke-width:1.0;" x1="47" x2="586" y1="119.4297" y2="119.4297"/><text fill="#000000" font-family="sans-serif" font-size="13" font-weight="bold" lengthAdjust="spacing" textLength="9" x="54" y="114.3638">1</text><text fill="#000000" font-family="sans-serif" font-size="13" lengthAdjust="spacing" textLength="513" x="67" y="114.3638">asks to get report containg all the parameters contained in the configuration file</text><polygon fill="#A80036" points="828,144.5625,838,148.5625,828,152.5625,832,148.5625" style="stroke:#A80036;stroke-width:1.0;"/><line style="stroke:#A80036;stroke-width:1.0;" x1="602" x2="834" y1="148.5625" y2="148.5625"/><text fill="#000000" font-family="sans-serif" font-size="13" font-weight="bold" lengthAdjust="spacing" textLength="9" x="609" y="143.4966">2</text><text fill="#000000" font-family="sans-serif" font-size="13" lengthAdjust="spacing" textLength="201" x="622" y="143.4966">getParametersFromConfigFile()</text><rect fill="#FFFFFF" filter="url(#f1jisv1u3bp4s8)" height="40.2656" style="stroke:#000000;stroke-width:2.0;" width="226" x="776.5" y="156.5625"/><polygon fill="#EEEEEE" points="776.5,156.5625,844.5,156.5625,844.5,163.5625,834.5,173.5625,776.5,173.5625,776.5,156.5625" style="stroke:#000000;stroke-width:2.0;"/><text fill="#000000" font-family="sans-serif" font-size="13" font-weight="bold" lengthAdjust="spacing" textLength="23" x="789.5" y="170.6294">ref</text><text fill="#000000" font-family="sans-serif" font-size="13" lengthAdjust="spacing" textLength="218" x="782.5" y="189.6294">SD_GetParametersFromConfigFile</text><polygon fill="#A80036" points="1490,218.9609,1500,222.9609,1490,226.9609,1494,222.9609" style="stroke:#A80036;stroke-width:1.0;"/><line style="stroke:#A80036;stroke-width:1.0;" x1="602" x2="1496" y1="222.9609" y2="222.9609"/><text fill="#000000" font-family="sans-serif" font-size="13" font-weight="bold" lengthAdjust="spacing" textLength="8" x="609" y="217.895">3</text><text fill="#000000" font-family="sans-serif" font-size="13" lengthAdjust="spacing" textLength="864" x="621" y="217.895">createReport(currentDate, typeOfData, historicalPoints, dateInterval, typeOfLinearRegression, independentVariable, significanceValue)</text><rect fill="#FEFECE" filter="url(#f1jisv1u3bp4s8)" height="30.2969" style="stroke:#A80036;stroke-width:1.5;" width="96" x="1502" y="201.8281"/><text fill="#000000" font-family="sans-serif" font-size="14" lengthAdjust="spacing" textLength="82" x="1509" y="221.8232">:NhsReport</text><rect fill="#FFFFFF" filter="url(#f1jisv1u3bp4s8)" height="70.5313" style="stroke:#000000;stroke-width:2.0;" width="356" x="1499" y="247.125"/><polygon fill="#EEEEEE" points="1499,247.125,1567,247.125,1567,254.125,1557,264.125,1499,264.125,1499,247.125" style="stroke:#000000;stroke-width:2.0;"/><text fill="#000000" font-family="sans-serif" font-size="13" font-weight="bold" lengthAdjust="spacing" textLength="23" x="1512" y="261.1919">ref</text><text fill="#000000" font-family="sans-serif" font-size="13" lengthAdjust="spacing" textLength="0" x="1509" y="280.1919"/><text fill="#000000" font-family="sans-serif" font-size="13" lengthAdjust="spacing" textLength="348" x="1505" y="295.3247">SD_GENERATE_LINEAR_REGRESSION_REPORT_STRING</text><text fill="#000000" font-family="sans-serif" font-size="13" lengthAdjust="spacing" textLength="0" x="1509" y="310.4575"/><polygon fill="#A80036" points="58,339.7891,48,343.7891,58,347.7891,54,343.7891" style="stroke:#A80036;stroke-width:1.0;"/><line style="stroke:#A80036;stroke-width:1.0;stroke-dasharray:2.0,2.0;" x1="52" x2="596" y1="343.7891" y2="343.7891"/><text fill="#000000" font-family="sans-serif" font-size="13" font-weight="bold" lengthAdjust="spacing" textLength="9" x="64" y="338.7231">4</text><text fill="#000000" font-family="sans-serif" font-size="13" lengthAdjust="spacing" textLength="156" x="77" y="338.7231">returns the report asked</text><polygon fill="#A80036" points="580,368.9219,590,372.9219,580,376.9219,584,372.9219" style="stroke:#A80036;stroke-width:1.0;"/><line style="stroke:#A80036;stroke-width:1.0;" x1="47" x2="586" y1="372.9219" y2="372.9219"/><text fill="#000000" font-family="sans-serif" font-size="13" font-weight="bold" lengthAdjust="spacing" textLength="9" x="54" y="367.856">5</text><text fill="#000000" font-family="sans-serif" font-size="13" lengthAdjust="spacing" textLength="305" x="67" y="367.856">sends the report to the NHS whenever it is 6am</text><polygon fill="#A80036" points="1799,398.0547,1809,402.0547,1799,406.0547,1803,402.0547" style="stroke:#A80036;stroke-width:1.0;"/><line style="stroke:#A80036;stroke-width:1.0;" x1="597" x2="1805" y1="402.0547" y2="402.0547"/><text fill="#000000" font-family="sans-serif" font-size="13" font-weight="bold" lengthAdjust="spacing" textLength="9" x="604" y="396.9888">6</text><text fill="#000000" font-family="sans-serif" font-size="13" lengthAdjust="spacing" textLength="106" x="617" y="396.9888">schedule(report)</text><rect fill="#FFFFFF" filter="url(#f1jisv1u3bp4s8)" height="40.2656" style="stroke:#000000;stroke-width:2.0;" width="203" x="1767.5" y="410.0547"/><polygon fill="#EEEEEE" points="1767.5,410.0547,1835.5,410.0547,1835.5,417.0547,1825.5,427.0547,1767.5,427.0547,1767.5,410.0547" style="stroke:#000000;stroke-width:2.0;"/><text fill="#000000" font-family="sans-serif" font-size="13" font-weight="bold" lengthAdjust="spacing" textLength="23" x="1780.5" y="424.1216">ref</text><text fill="#000000" font-family="sans-serif" font-size="13" lengthAdjust="spacing" textLength="195" x="1773.5" y="443.1216">SD_ScheduleOperation(report)</text><!--MD5=[e56de13ad8bf9b1a20cb5561f38f4c76]
@startuml
autonumber
actor "Company" as APP
participant "SendReportToNHSTask" as TASK
participant ":Configuration" as CF
participant ":NhsReport" as NHS

participant ":Company" as CMP
participant ":TimerTask" as TIMER
participant ":NhsAPI" as API

activate APP
APP-> TASK: asks to get report containg all the parameters contained in the configuration file


activate TASK


TASK-> CF: getParametersFromConfigFile()

ref over CF
SD_GetParametersFromConfigFile
end ref








TASK-> NHS**: createReport(currentDate, typeOfData, historicalPoints, dateInterval, typeOfLinearRegression, independentVariable, significanceValue)

ref over NHS

SD_GENERATE_LINEAR_REGRESSION_REPORT_STRING

end ref
TASK- -> APP: returns the report asked
deactivate TASK

APP-> TASK: sends the report to the NHS whenever it is 6am
activate TASK



TASK-> CMP: schedule(report)
deactivate NHS
deactivate TASK

ref over CMP
SD_ScheduleOperation(report)
end ref
activate CMP
@enduml

PlantUML version 1.2021.7(Sun May 23 12:40:07 UTC 2021)
(GPL source distribution)
Java Runtime: Java(TM) SE Runtime Environment
JVM: Java HotSpot(TM) 64-Bit Server VM
Default Encoding: UTF-8
Language: en
Country: US
--></g></svg>