<?xml version="1.0" encoding="UTF-8" standalone="no"?><svg xmlns="http://www.w3.org/2000/svg" xmlns:xlink="http://www.w3.org/1999/xlink" contentScriptType="application/ecmascript" contentStyleType="text/css" height="805px" preserveAspectRatio="none" style="width:1260px;height:805px;background:#FFFFFF;" version="1.1" viewBox="0 0 1260 805" width="1260px" zoomAndPan="magnify"><defs><filter height="300%" id="f2qeu3o9os3ov" width="300%" x="-1" y="-1"><feGaussianBlur result="blurOut" stdDeviation="2.0"/><feColorMatrix in="blurOut" result="blurOut2" type="matrix" values="0 0 0 0 0 0 0 0 0 0 0 0 0 0 0 0 0 0 .4 0"/><feOffset dx="4.0" dy="4.0" in="blurOut2" result="blurOut3"/><feBlend in="SourceGraphic" in2="blurOut3" mode="normal"/></filter></defs><g><!--MD5=[02e4b9b7573f1156f41e60aa5b4e25a4]
class Company--><rect codeLine="5" fill="#FEFECE" filter="url(#f2qeu3o9os3ov)" height="150.4375" id="Company" style="stroke:#A80036;stroke-width:1.5;" width="583" x="340" y="7"/><ellipse cx="599.25" cy="23" fill="#ADD1B2" rx="11" ry="11" style="stroke:#A80036;stroke-width:1.0;"/><path d="M601.5938,18.6719 C600.6563,18.2344 600.0625,18.0938 599.1875,18.0938 C596.5625,18.0938 594.5625,20.1719 594.5625,22.8906 L594.5625,24.0156 C594.5625,26.5938 596.6719,28.4844 599.5625,28.4844 C600.7813,28.4844 601.9375,28.1875 602.6875,27.6406 C603.2656,27.2344 603.5938,26.7813 603.5938,26.3906 C603.5938,25.9375 603.2031,25.5469 602.7344,25.5469 C602.5156,25.5469 602.3125,25.625 602.125,25.8125 C601.6719,26.2969 601.6719,26.2969 601.4844,26.3906 C601.0625,26.6563 600.375,26.7813 599.6094,26.7813 C597.5625,26.7813 596.2656,25.6875 596.2656,23.9844 L596.2656,22.8906 C596.2656,21.1094 597.5156,19.7969 599.25,19.7969 C599.8281,19.7969 600.4375,19.9531 600.9063,20.2031 C601.3906,20.4844 601.5625,20.7031 601.6563,21.1094 C601.7188,21.5156 601.75,21.6406 601.8906,21.7656 C602.0313,21.9063 602.2656,22.0156 602.4844,22.0156 C602.75,22.0156 603.0156,21.875 603.1875,21.6563 C603.2969,21.5 603.3281,21.3125 603.3281,20.8906 L603.3281,19.4688 C603.3281,19.0313 603.3125,18.9063 603.2188,18.75 C603.0625,18.4844 602.7813,18.3438 602.4844,18.3438 C602.1875,18.3438 601.9844,18.4375 601.7656,18.75 L601.5938,18.6719 Z " fill="#000000"/><text fill="#000000" font-family="sans-serif" font-size="12" lengthAdjust="spacing" textLength="56" x="619.75" y="27.1543">Company</text><line style="stroke:#A80036;stroke-width:1.5;" x1="341" x2="922" y1="39" y2="39"/><line style="stroke:#A80036;stroke-width:1.5;" x1="341" x2="922" y1="47" y2="47"/><text fill="#000000" font-family="sans-serif" font-size="11" lengthAdjust="spacing" textLength="453" x="346" y="61.2104">+generateSimpleNHSReportTestsPerformedWeeks(currentDate,historicalPoints,</text><text fill="#000000" font-family="sans-serif" font-size="11" lengthAdjust="spacing" textLength="571" x="346" y="74.0151">newerRegressionIntervalDate,olderRegressionIntervalDate,aParameterSignificance,aTestParameter,</text><text fill="#000000" font-family="sans-serif" font-size="11" lengthAdjust="spacing" textLength="511" x="346" y="86.8198">bParamaterSignificance,bTestParameter,fTestSignificance,confidenceIntervalSignificance)</text><text fill="#000000" font-family="sans-serif" font-size="11" lengthAdjust="spacing" textLength="348" x="346" y="99.6245">+generateSimpleNHSReportMeanAgeWeeks(currentDate, ...)</text><text fill="#000000" font-family="sans-serif" font-size="11" lengthAdjust="spacing" textLength="306" x="346" y="112.4292">+generateSimpleNhsReportMeanAge(currentDate, ...)</text><text fill="#000000" font-family="sans-serif" font-size="11" lengthAdjust="spacing" textLength="342" x="346" y="125.2339">+generateSimpleNhsReportTestsPerformed(currentDate, ...)</text><text fill="#000000" font-family="sans-serif" font-size="11" lengthAdjust="spacing" textLength="302" x="346" y="138.0386">+generateMultilinearNHSReportDays(currentDate, ...)</text><text fill="#000000" font-family="sans-serif" font-size="11" lengthAdjust="spacing" textLength="312" x="346" y="150.8433">+generateMultilinearNHSReportWeeks(currentDate, ...)</text><!--MD5=[0f6f7964b844a64b0496af0dda7914bd]
class TestStore--><rect codeLine="14" fill="#FEFECE" filter="url(#f2qeu3o9os3ov)" height="124.8281" id="TestStore" style="stroke:#A80036;stroke-width:1.5;" width="313" x="933" y="246.5"/><ellipse cx="1055.75" cy="262.5" fill="#ADD1B2" rx="11" ry="11" style="stroke:#A80036;stroke-width:1.0;"/><path d="M1058.0938,258.1719 C1057.1563,257.7344 1056.5625,257.5938 1055.6875,257.5938 C1053.0625,257.5938 1051.0625,259.6719 1051.0625,262.3906 L1051.0625,263.5156 C1051.0625,266.0938 1053.1719,267.9844 1056.0625,267.9844 C1057.2813,267.9844 1058.4375,267.6875 1059.1875,267.1406 C1059.7656,266.7344 1060.0938,266.2813 1060.0938,265.8906 C1060.0938,265.4375 1059.7031,265.0469 1059.2344,265.0469 C1059.0156,265.0469 1058.8125,265.125 1058.625,265.3125 C1058.1719,265.7969 1058.1719,265.7969 1057.9844,265.8906 C1057.5625,266.1563 1056.875,266.2813 1056.1094,266.2813 C1054.0625,266.2813 1052.7656,265.1875 1052.7656,263.4844 L1052.7656,262.3906 C1052.7656,260.6094 1054.0156,259.2969 1055.75,259.2969 C1056.3281,259.2969 1056.9375,259.4531 1057.4063,259.7031 C1057.8906,259.9844 1058.0625,260.2031 1058.1563,260.6094 C1058.2188,261.0156 1058.25,261.1406 1058.3906,261.2656 C1058.5313,261.4063 1058.7656,261.5156 1058.9844,261.5156 C1059.25,261.5156 1059.5156,261.375 1059.6875,261.1563 C1059.7969,261 1059.8281,260.8125 1059.8281,260.3906 L1059.8281,258.9688 C1059.8281,258.5313 1059.8125,258.4063 1059.7188,258.25 C1059.5625,257.9844 1059.2813,257.8438 1058.9844,257.8438 C1058.6875,257.8438 1058.4844,257.9375 1058.2656,258.25 L1058.0938,258.1719 Z " fill="#000000"/><text fill="#000000" font-family="sans-serif" font-size="12" lengthAdjust="spacing" textLength="59" x="1076.25" y="266.6543">TestStore</text><line style="stroke:#A80036;stroke-width:1.5;" x1="934" x2="1245" y1="278.5" y2="278.5"/><line style="stroke:#A80036;stroke-width:1.5;" x1="934" x2="1245" y1="286.5" y2="286.5"/><text fill="#000000" font-family="sans-serif" font-size="11" lengthAdjust="spacing" textLength="291" x="939" y="300.7104">+getTestsPerformedPerDay(olderDate,newerDate)</text><text fill="#000000" font-family="sans-serif" font-size="11" lengthAdjust="spacing" textLength="301" x="939" y="313.5151">+getTestsPerformedPerWeek(olderDate,newerDate)</text><text fill="#000000" font-family="sans-serif" font-size="11" lengthAdjust="spacing" textLength="276" x="939" y="326.3198">+getTestsPositivePerDay(olderDate,newerDate)</text><text fill="#000000" font-family="sans-serif" font-size="11" lengthAdjust="spacing" textLength="286" x="939" y="339.1245">+getTestsPositivePerWeek(olderDate,newerDate)</text><text fill="#000000" font-family="sans-serif" font-size="11" lengthAdjust="spacing" textLength="255" x="939" y="351.9292">+getMeanAgePerDay(olderDate,newerDate)</text><text fill="#000000" font-family="sans-serif" font-size="11" lengthAdjust="spacing" textLength="265" x="939" y="364.7339">+getMeanAgePerWeek(olderDate,newerDate)</text><!--MD5=[74783ec010d186752c4ffd5c6de5633a]
class NHSReport--><rect codeLine="23" fill="#FEFECE" filter="url(#f2qeu3o9os3ov)" height="99.2188" id="NHSReport" style="stroke:#A80036;stroke-width:1.5;" width="547" x="432" y="461"/><ellipse cx="668.75" cy="477" fill="#ADD1B2" rx="11" ry="11" style="stroke:#A80036;stroke-width:1.0;"/><path d="M671.0938,472.6719 C670.1563,472.2344 669.5625,472.0938 668.6875,472.0938 C666.0625,472.0938 664.0625,474.1719 664.0625,476.8906 L664.0625,478.0156 C664.0625,480.5938 666.1719,482.4844 669.0625,482.4844 C670.2813,482.4844 671.4375,482.1875 672.1875,481.6406 C672.7656,481.2344 673.0938,480.7813 673.0938,480.3906 C673.0938,479.9375 672.7031,479.5469 672.2344,479.5469 C672.0156,479.5469 671.8125,479.625 671.625,479.8125 C671.1719,480.2969 671.1719,480.2969 670.9844,480.3906 C670.5625,480.6563 669.875,480.7813 669.1094,480.7813 C667.0625,480.7813 665.7656,479.6875 665.7656,477.9844 L665.7656,476.8906 C665.7656,475.1094 667.0156,473.7969 668.75,473.7969 C669.3281,473.7969 669.9375,473.9531 670.4063,474.2031 C670.8906,474.4844 671.0625,474.7031 671.1563,475.1094 C671.2188,475.5156 671.25,475.6406 671.3906,475.7656 C671.5313,475.9063 671.7656,476.0156 671.9844,476.0156 C672.25,476.0156 672.5156,475.875 672.6875,475.6563 C672.7969,475.5 672.8281,475.3125 672.8281,474.8906 L672.8281,473.4688 C672.8281,473.0313 672.8125,472.9063 672.7188,472.75 C672.5625,472.4844 672.2813,472.3438 671.9844,472.3438 C671.6875,472.3438 671.4844,472.4375 671.2656,472.75 L671.0938,472.6719 Z " fill="#000000"/><text fill="#000000" font-family="sans-serif" font-size="12" lengthAdjust="spacing" textLength="65" x="689.25" y="481.1543">NHSReport</text><line style="stroke:#A80036;stroke-width:1.5;" x1="433" x2="978" y1="493" y2="493"/><text fill="#000000" font-family="sans-serif" font-size="11" lengthAdjust="spacing" textLength="99" x="438" y="507.2104">-linearRegression</text><text fill="#000000" font-family="sans-serif" font-size="11" lengthAdjust="spacing" textLength="130" x="438" y="520.0151">-multiLinearRegression</text><line style="stroke:#A80036;stroke-width:1.5;" x1="433" x2="978" y1="526.6094" y2="526.6094"/><text fill="#000000" font-family="sans-serif" font-size="11" lengthAdjust="spacing" textLength="458" x="438" y="540.8198">+getReportString(olderDate,newerDate,aParameterSignificance,aTestParameter</text><text fill="#000000" font-family="sans-serif" font-size="11" lengthAdjust="spacing" textLength="535" x="438" y="553.6245">,bTestSignificance,bTestParameter,fTestSignificance,confidenceIntervalSignificance,identifier)</text><!--MD5=[fde5bf5e32ebd91aaa37566c2946746b]
class Report2NHS--><rect codeLine="29" fill="#FEFECE" filter="url(#f2qeu3o9os3ov)" height="60.8047" id="Report2NHS" style="stroke:#A80036;stroke-width:1.5;" width="213" x="272" y="621"/><ellipse cx="337.75" cy="637" fill="#ADD1B2" rx="11" ry="11" style="stroke:#A80036;stroke-width:1.0;"/><path d="M340.0938,632.6719 C339.1563,632.2344 338.5625,632.0938 337.6875,632.0938 C335.0625,632.0938 333.0625,634.1719 333.0625,636.8906 L333.0625,638.0156 C333.0625,640.5938 335.1719,642.4844 338.0625,642.4844 C339.2813,642.4844 340.4375,642.1875 341.1875,641.6406 C341.7656,641.2344 342.0938,640.7813 342.0938,640.3906 C342.0938,639.9375 341.7031,639.5469 341.2344,639.5469 C341.0156,639.5469 340.8125,639.625 340.625,639.8125 C340.1719,640.2969 340.1719,640.2969 339.9844,640.3906 C339.5625,640.6563 338.875,640.7813 338.1094,640.7813 C336.0625,640.7813 334.7656,639.6875 334.7656,637.9844 L334.7656,636.8906 C334.7656,635.1094 336.0156,633.7969 337.75,633.7969 C338.3281,633.7969 338.9375,633.9531 339.4063,634.2031 C339.8906,634.4844 340.0625,634.7031 340.1563,635.1094 C340.2188,635.5156 340.25,635.6406 340.3906,635.7656 C340.5313,635.9063 340.7656,636.0156 340.9844,636.0156 C341.25,636.0156 341.5156,635.875 341.6875,635.6563 C341.7969,635.5 341.8281,635.3125 341.8281,634.8906 L341.8281,633.4688 C341.8281,633.0313 341.8125,632.9063 341.7188,632.75 C341.5625,632.4844 341.2813,632.3438 340.9844,632.3438 C340.6875,632.3438 340.4844,632.4375 340.2656,632.75 L340.0938,632.6719 Z " fill="#000000"/><text fill="#000000" font-family="sans-serif" font-size="12" lengthAdjust="spacing" textLength="73" x="358.25" y="641.1543">Report2NHS</text><line style="stroke:#A80036;stroke-width:1.5;" x1="273" x2="484" y1="653" y2="653"/><line style="stroke:#A80036;stroke-width:1.5;" x1="273" x2="484" y1="661" y2="661"/><text fill="#000000" font-family="sans-serif" font-size="11" lengthAdjust="spacing" textLength="201" x="278" y="675.2104">+writeUsingFileWriter(String report)</text><!--MD5=[ef340af6512c03d5eeac92509be9c66b]
class LinearRegression--><rect codeLine="32" fill="#FEFECE" filter="url(#f2qeu3o9os3ov)" height="48" id="LinearRegression" style="stroke:#A80036;stroke-width:1.5;" width="136" x="563.5" y="285"/><ellipse cx="578.5" cy="301" fill="#ADD1B2" rx="11" ry="11" style="stroke:#A80036;stroke-width:1.0;"/><path d="M580.8438,296.6719 C579.9063,296.2344 579.3125,296.0938 578.4375,296.0938 C575.8125,296.0938 573.8125,298.1719 573.8125,300.8906 L573.8125,302.0156 C573.8125,304.5938 575.9219,306.4844 578.8125,306.4844 C580.0313,306.4844 581.1875,306.1875 581.9375,305.6406 C582.5156,305.2344 582.8438,304.7813 582.8438,304.3906 C582.8438,303.9375 582.4531,303.5469 581.9844,303.5469 C581.7656,303.5469 581.5625,303.625 581.375,303.8125 C580.9219,304.2969 580.9219,304.2969 580.7344,304.3906 C580.3125,304.6563 579.625,304.7813 578.8594,304.7813 C576.8125,304.7813 575.5156,303.6875 575.5156,301.9844 L575.5156,300.8906 C575.5156,299.1094 576.7656,297.7969 578.5,297.7969 C579.0781,297.7969 579.6875,297.9531 580.1563,298.2031 C580.6406,298.4844 580.8125,298.7031 580.9063,299.1094 C580.9688,299.5156 581,299.6406 581.1406,299.7656 C581.2813,299.9063 581.5156,300.0156 581.7344,300.0156 C582,300.0156 582.2656,299.875 582.4375,299.6563 C582.5469,299.5 582.5781,299.3125 582.5781,298.8906 L582.5781,297.4688 C582.5781,297.0313 582.5625,296.9063 582.4688,296.75 C582.3125,296.4844 582.0313,296.3438 581.7344,296.3438 C581.4375,296.3438 581.2344,296.4375 581.0156,296.75 L580.8438,296.6719 Z " fill="#000000"/><text fill="#000000" font-family="sans-serif" font-size="12" lengthAdjust="spacing" textLength="104" x="592.5" y="305.1543">LinearRegression</text><line style="stroke:#A80036;stroke-width:1.5;" x1="564.5" x2="698.5" y1="317" y2="317"/><line style="stroke:#A80036;stroke-width:1.5;" x1="564.5" x2="698.5" y1="325" y2="325"/><!--MD5=[6f57bde7dde74de5002c105391146556]
class MultiLinearRegression--><rect codeLine="33" fill="#FEFECE" filter="url(#f2qeu3o9os3ov)" height="48" id="MultiLinearRegression" style="stroke:#A80036;stroke-width:1.5;" width="163" x="735" y="285"/><ellipse cx="750" cy="301" fill="#ADD1B2" rx="11" ry="11" style="stroke:#A80036;stroke-width:1.0;"/><path d="M752.3438,296.6719 C751.4063,296.2344 750.8125,296.0938 749.9375,296.0938 C747.3125,296.0938 745.3125,298.1719 745.3125,300.8906 L745.3125,302.0156 C745.3125,304.5938 747.4219,306.4844 750.3125,306.4844 C751.5313,306.4844 752.6875,306.1875 753.4375,305.6406 C754.0156,305.2344 754.3438,304.7813 754.3438,304.3906 C754.3438,303.9375 753.9531,303.5469 753.4844,303.5469 C753.2656,303.5469 753.0625,303.625 752.875,303.8125 C752.4219,304.2969 752.4219,304.2969 752.2344,304.3906 C751.8125,304.6563 751.125,304.7813 750.3594,304.7813 C748.3125,304.7813 747.0156,303.6875 747.0156,301.9844 L747.0156,300.8906 C747.0156,299.1094 748.2656,297.7969 750,297.7969 C750.5781,297.7969 751.1875,297.9531 751.6563,298.2031 C752.1406,298.4844 752.3125,298.7031 752.4063,299.1094 C752.4688,299.5156 752.5,299.6406 752.6406,299.7656 C752.7813,299.9063 753.0156,300.0156 753.2344,300.0156 C753.5,300.0156 753.7656,299.875 753.9375,299.6563 C754.0469,299.5 754.0781,299.3125 754.0781,298.8906 L754.0781,297.4688 C754.0781,297.0313 754.0625,296.9063 753.9688,296.75 C753.8125,296.4844 753.5313,296.3438 753.2344,296.3438 C752.9375,296.3438 752.7344,296.4375 752.5156,296.75 L752.3438,296.6719 Z " fill="#000000"/><text fill="#000000" font-family="sans-serif" font-size="12" lengthAdjust="spacing" textLength="131" x="764" y="305.1543">MultiLinearRegression</text><line style="stroke:#A80036;stroke-width:1.5;" x1="736" x2="897" y1="317" y2="317"/><line style="stroke:#A80036;stroke-width:1.5;" x1="736" x2="897" y1="325" y2="325"/><!--MD5=[df38be88ccee13e832d6fafd6288a4ca]
class Test--><rect codeLine="35" fill="#FEFECE" filter="url(#f2qeu3o9os3ov)" height="86.4141" id="Test" style="stroke:#A80036;stroke-width:1.5;" width="103" x="1038" y="467.5"/><ellipse cx="1073.25" cy="483.5" fill="#ADD1B2" rx="11" ry="11" style="stroke:#A80036;stroke-width:1.0;"/><path d="M1075.5938,479.1719 C1074.6563,478.7344 1074.0625,478.5938 1073.1875,478.5938 C1070.5625,478.5938 1068.5625,480.6719 1068.5625,483.3906 L1068.5625,484.5156 C1068.5625,487.0938 1070.6719,488.9844 1073.5625,488.9844 C1074.7813,488.9844 1075.9375,488.6875 1076.6875,488.1406 C1077.2656,487.7344 1077.5938,487.2813 1077.5938,486.8906 C1077.5938,486.4375 1077.2031,486.0469 1076.7344,486.0469 C1076.5156,486.0469 1076.3125,486.125 1076.125,486.3125 C1075.6719,486.7969 1075.6719,486.7969 1075.4844,486.8906 C1075.0625,487.1563 1074.375,487.2813 1073.6094,487.2813 C1071.5625,487.2813 1070.2656,486.1875 1070.2656,484.4844 L1070.2656,483.3906 C1070.2656,481.6094 1071.5156,480.2969 1073.25,480.2969 C1073.8281,480.2969 1074.4375,480.4531 1074.9063,480.7031 C1075.3906,480.9844 1075.5625,481.2031 1075.6563,481.6094 C1075.7188,482.0156 1075.75,482.1406 1075.8906,482.2656 C1076.0313,482.4063 1076.2656,482.5156 1076.4844,482.5156 C1076.75,482.5156 1077.0156,482.375 1077.1875,482.1563 C1077.2969,482 1077.3281,481.8125 1077.3281,481.3906 L1077.3281,479.9688 C1077.3281,479.5313 1077.3125,479.4063 1077.2188,479.25 C1077.0625,478.9844 1076.7813,478.8438 1076.4844,478.8438 C1076.1875,478.8438 1075.9844,478.9375 1075.7656,479.25 L1075.5938,479.1719 Z " fill="#000000"/><text fill="#000000" font-family="sans-serif" font-size="12" lengthAdjust="spacing" textLength="26" x="1091.75" y="487.6543">Test</text><line style="stroke:#A80036;stroke-width:1.5;" x1="1039" x2="1140" y1="499.5" y2="499.5"/><text fill="#000000" font-family="sans-serif" font-size="11" lengthAdjust="spacing" textLength="35" x="1044" y="513.7104">-client</text><text fill="#000000" font-family="sans-serif" font-size="11" lengthAdjust="spacing" textLength="55" x="1044" y="526.5151">-testType</text><line style="stroke:#A80036;stroke-width:1.5;" x1="1039" x2="1140" y1="533.1094" y2="533.1094"/><text fill="#000000" font-family="sans-serif" font-size="11" lengthAdjust="spacing" textLength="91" x="1044" y="547.3198">+calculateAge()</text><!--MD5=[9b7eb76f801c309757ef5968cb2349d9]
class Configuration--><rect codeLine="41" fill="#FEFECE" filter="url(#f2qeu3o9os3ov)" height="150.4375" id="Configuration" style="stroke:#A80036;stroke-width:1.5;" width="188" x="16.5" y="234"/><ellipse cx="66.75" cy="250" fill="#ADD1B2" rx="11" ry="11" style="stroke:#A80036;stroke-width:1.0;"/><path d="M69.0938,245.6719 C68.1563,245.2344 67.5625,245.0938 66.6875,245.0938 C64.0625,245.0938 62.0625,247.1719 62.0625,249.8906 L62.0625,251.0156 C62.0625,253.5938 64.1719,255.4844 67.0625,255.4844 C68.2813,255.4844 69.4375,255.1875 70.1875,254.6406 C70.7656,254.2344 71.0938,253.7813 71.0938,253.3906 C71.0938,252.9375 70.7031,252.5469 70.2344,252.5469 C70.0156,252.5469 69.8125,252.625 69.625,252.8125 C69.1719,253.2969 69.1719,253.2969 68.9844,253.3906 C68.5625,253.6563 67.875,253.7813 67.1094,253.7813 C65.0625,253.7813 63.7656,252.6875 63.7656,250.9844 L63.7656,249.8906 C63.7656,248.1094 65.0156,246.7969 66.75,246.7969 C67.3281,246.7969 67.9375,246.9531 68.4063,247.2031 C68.8906,247.4844 69.0625,247.7031 69.1563,248.1094 C69.2188,248.5156 69.25,248.6406 69.3906,248.7656 C69.5313,248.9063 69.7656,249.0156 69.9844,249.0156 C70.25,249.0156 70.5156,248.875 70.6875,248.6563 C70.7969,248.5 70.8281,248.3125 70.8281,247.8906 L70.8281,246.4688 C70.8281,246.0313 70.8125,245.9063 70.7188,245.75 C70.5625,245.4844 70.2813,245.3438 69.9844,245.3438 C69.6875,245.3438 69.4844,245.4375 69.2656,245.75 L69.0938,245.6719 Z " fill="#000000"/><text fill="#000000" font-family="sans-serif" font-size="12" lengthAdjust="spacing" textLength="79" x="87.25" y="254.1543">Configuration</text><line style="stroke:#A80036;stroke-width:1.5;" x1="17.5" x2="203.5" y1="266" y2="266"/><line style="stroke:#A80036;stroke-width:1.5;" x1="17.5" x2="203.5" y1="274" y2="274"/><text fill="#000000" font-family="sans-serif" font-size="11" lengthAdjust="spacing" textLength="106" x="22.5" y="288.2104">+getTypeOfDate()</text><text fill="#000000" font-family="sans-serif" font-size="11" lengthAdjust="spacing" textLength="120" x="22.5" y="301.0151">+getHistoricalPoints()</text><text fill="#000000" font-family="sans-serif" font-size="11" lengthAdjust="spacing" textLength="176" x="22.5" y="313.8198">+getTypeOfLinearRegression()</text><text fill="#000000" font-family="sans-serif" font-size="11" lengthAdjust="spacing" textLength="138" x="22.5" y="326.6245">+getSignificanceValue()</text><text fill="#000000" font-family="sans-serif" font-size="11" lengthAdjust="spacing" textLength="85" x="22.5" y="339.4292">-getDate(date)</text><text fill="#000000" font-family="sans-serif" font-size="11" lengthAdjust="spacing" textLength="106" x="22.5" y="352.2339">+getCurrentDate()</text><text fill="#000000" font-family="sans-serif" font-size="11" lengthAdjust="spacing" textLength="141" x="22.5" y="365.0386">+getDateIntervalLower()</text><text fill="#000000" font-family="sans-serif" font-size="11" lengthAdjust="spacing" textLength="141" x="22.5" y="377.8433">+getDateIntervalUpper()</text><!--MD5=[6d2dd164f972fbb93fd868a223847692]
class SendReportToNHSTask--><rect codeLine="51" fill="#FEFECE" filter="url(#f2qeu3o9os3ov)" height="60.8047" id="SendReportToNHSTask" style="stroke:#A80036;stroke-width:1.5;" width="171" x="25" y="480"/><ellipse cx="40" cy="496" fill="#ADD1B2" rx="11" ry="11" style="stroke:#A80036;stroke-width:1.0;"/><path d="M42.3438,491.6719 C41.4063,491.2344 40.8125,491.0938 39.9375,491.0938 C37.3125,491.0938 35.3125,493.1719 35.3125,495.8906 L35.3125,497.0156 C35.3125,499.5938 37.4219,501.4844 40.3125,501.4844 C41.5313,501.4844 42.6875,501.1875 43.4375,500.6406 C44.0156,500.2344 44.3438,499.7813 44.3438,499.3906 C44.3438,498.9375 43.9531,498.5469 43.4844,498.5469 C43.2656,498.5469 43.0625,498.625 42.875,498.8125 C42.4219,499.2969 42.4219,499.2969 42.2344,499.3906 C41.8125,499.6563 41.125,499.7813 40.3594,499.7813 C38.3125,499.7813 37.0156,498.6875 37.0156,496.9844 L37.0156,495.8906 C37.0156,494.1094 38.2656,492.7969 40,492.7969 C40.5781,492.7969 41.1875,492.9531 41.6563,493.2031 C42.1406,493.4844 42.3125,493.7031 42.4063,494.1094 C42.4688,494.5156 42.5,494.6406 42.6406,494.7656 C42.7813,494.9063 43.0156,495.0156 43.2344,495.0156 C43.5,495.0156 43.7656,494.875 43.9375,494.6563 C44.0469,494.5 44.0781,494.3125 44.0781,493.8906 L44.0781,492.4688 C44.0781,492.0313 44.0625,491.9063 43.9688,491.75 C43.8125,491.4844 43.5313,491.3438 43.2344,491.3438 C42.9375,491.3438 42.7344,491.4375 42.5156,491.75 L42.3438,491.6719 Z " fill="#000000"/><text fill="#000000" font-family="sans-serif" font-size="12" lengthAdjust="spacing" textLength="139" x="54" y="500.1543">SendReportToNHSTask</text><line style="stroke:#A80036;stroke-width:1.5;" x1="26" x2="195" y1="512" y2="512"/><line style="stroke:#A80036;stroke-width:1.5;" x1="26" x2="195" y1="520" y2="520"/><text fill="#000000" font-family="sans-serif" font-size="11" lengthAdjust="spacing" textLength="35" x="31" y="534.2104">+run()</text><!--MD5=[1b844c90688aafb95cd8c95626c3b83a]
class Timer--><rect codeLine="54" fill="#FEFECE" filter="url(#f2qeu3o9os3ov)" height="60.8047" id="Timer" style="stroke:#A80036;stroke-width:1.5;" width="207" x="7" y="621"/><ellipse cx="89.25" cy="637" fill="#ADD1B2" rx="11" ry="11" style="stroke:#A80036;stroke-width:1.0;"/><path d="M91.5938,632.6719 C90.6563,632.2344 90.0625,632.0938 89.1875,632.0938 C86.5625,632.0938 84.5625,634.1719 84.5625,636.8906 L84.5625,638.0156 C84.5625,640.5938 86.6719,642.4844 89.5625,642.4844 C90.7813,642.4844 91.9375,642.1875 92.6875,641.6406 C93.2656,641.2344 93.5938,640.7813 93.5938,640.3906 C93.5938,639.9375 93.2031,639.5469 92.7344,639.5469 C92.5156,639.5469 92.3125,639.625 92.125,639.8125 C91.6719,640.2969 91.6719,640.2969 91.4844,640.3906 C91.0625,640.6563 90.375,640.7813 89.6094,640.7813 C87.5625,640.7813 86.2656,639.6875 86.2656,637.9844 L86.2656,636.8906 C86.2656,635.1094 87.5156,633.7969 89.25,633.7969 C89.8281,633.7969 90.4375,633.9531 90.9063,634.2031 C91.3906,634.4844 91.5625,634.7031 91.6563,635.1094 C91.7188,635.5156 91.75,635.6406 91.8906,635.7656 C92.0313,635.9063 92.2656,636.0156 92.4844,636.0156 C92.75,636.0156 93.0156,635.875 93.1875,635.6563 C93.2969,635.5 93.3281,635.3125 93.3281,634.8906 L93.3281,633.4688 C93.3281,633.0313 93.3125,632.9063 93.2188,632.75 C93.0625,632.4844 92.7813,632.3438 92.4844,632.3438 C92.1875,632.3438 91.9844,632.4375 91.7656,632.75 L91.5938,632.6719 Z " fill="#000000"/><text fill="#000000" font-family="sans-serif" font-size="12" lengthAdjust="spacing" textLength="34" x="109.75" y="641.1543">Timer</text><line style="stroke:#A80036;stroke-width:1.5;" x1="8" x2="213" y1="653" y2="653"/><line style="stroke:#A80036;stroke-width:1.5;" x1="8" x2="213" y1="661" y2="661"/><text fill="#000000" font-family="sans-serif" font-size="11" lengthAdjust="spacing" textLength="195" x="13" y="675.2104">+timer(sendNHSReportTask, time)</text><!--MD5=[74054751ba3b9eca75fda5044dcc84d9]
class TimerTask--><rect codeLine="57" fill="#FEFECE" filter="url(#f2qeu3o9os3ov)" height="60.8047" id="TimerTask" style="stroke:#A80036;stroke-width:1.5;" width="94" x="231.5" y="480"/><ellipse cx="246.5" cy="496" fill="#ADD1B2" rx="11" ry="11" style="stroke:#A80036;stroke-width:1.0;"/><path d="M248.8438,491.6719 C247.9063,491.2344 247.3125,491.0938 246.4375,491.0938 C243.8125,491.0938 241.8125,493.1719 241.8125,495.8906 L241.8125,497.0156 C241.8125,499.5938 243.9219,501.4844 246.8125,501.4844 C248.0313,501.4844 249.1875,501.1875 249.9375,500.6406 C250.5156,500.2344 250.8438,499.7813 250.8438,499.3906 C250.8438,498.9375 250.4531,498.5469 249.9844,498.5469 C249.7656,498.5469 249.5625,498.625 249.375,498.8125 C248.9219,499.2969 248.9219,499.2969 248.7344,499.3906 C248.3125,499.6563 247.625,499.7813 246.8594,499.7813 C244.8125,499.7813 243.5156,498.6875 243.5156,496.9844 L243.5156,495.8906 C243.5156,494.1094 244.7656,492.7969 246.5,492.7969 C247.0781,492.7969 247.6875,492.9531 248.1563,493.2031 C248.6406,493.4844 248.8125,493.7031 248.9063,494.1094 C248.9688,494.5156 249,494.6406 249.1406,494.7656 C249.2813,494.9063 249.5156,495.0156 249.7344,495.0156 C250,495.0156 250.2656,494.875 250.4375,494.6563 C250.5469,494.5 250.5781,494.3125 250.5781,493.8906 L250.5781,492.4688 C250.5781,492.0313 250.5625,491.9063 250.4688,491.75 C250.3125,491.4844 250.0313,491.3438 249.7344,491.3438 C249.4375,491.3438 249.2344,491.4375 249.0156,491.75 L248.8438,491.6719 Z " fill="#000000"/><text fill="#000000" font-family="sans-serif" font-size="12" lengthAdjust="spacing" textLength="62" x="260.5" y="500.1543">TimerTask</text><line style="stroke:#A80036;stroke-width:1.5;" x1="232.5" x2="324.5" y1="512" y2="512"/><line style="stroke:#A80036;stroke-width:1.5;" x1="232.5" x2="324.5" y1="520" y2="520"/><text fill="#000000" font-family="sans-serif" font-size="11" lengthAdjust="spacing" textLength="35" x="237.5" y="534.2104">+run()</text><!--MD5=[335f4d9be48430461c68bf6d6fdba145]
class App--><rect fill="#FEFECE" filter="url(#f2qeu3o9os3ov)" height="48" id="App" style="stroke:#A80036;stroke-width:1.5;" width="56" x="82.5" y="743"/><ellipse cx="97.5" cy="759" fill="#ADD1B2" rx="11" ry="11" style="stroke:#A80036;stroke-width:1.0;"/><path d="M99.8438,754.6719 C98.9063,754.2344 98.3125,754.0938 97.4375,754.0938 C94.8125,754.0938 92.8125,756.1719 92.8125,758.8906 L92.8125,760.0156 C92.8125,762.5938 94.9219,764.4844 97.8125,764.4844 C99.0313,764.4844 100.1875,764.1875 100.9375,763.6406 C101.5156,763.2344 101.8438,762.7813 101.8438,762.3906 C101.8438,761.9375 101.4531,761.5469 100.9844,761.5469 C100.7656,761.5469 100.5625,761.625 100.375,761.8125 C99.9219,762.2969 99.9219,762.2969 99.7344,762.3906 C99.3125,762.6563 98.625,762.7813 97.8594,762.7813 C95.8125,762.7813 94.5156,761.6875 94.5156,759.9844 L94.5156,758.8906 C94.5156,757.1094 95.7656,755.7969 97.5,755.7969 C98.0781,755.7969 98.6875,755.9531 99.1563,756.2031 C99.6406,756.4844 99.8125,756.7031 99.9063,757.1094 C99.9688,757.5156 100,757.6406 100.1406,757.7656 C100.2813,757.9063 100.5156,758.0156 100.7344,758.0156 C101,758.0156 101.2656,757.875 101.4375,757.6563 C101.5469,757.5 101.5781,757.3125 101.5781,756.8906 L101.5781,755.4688 C101.5781,755.0313 101.5625,754.9063 101.4688,754.75 C101.3125,754.4844 101.0313,754.3438 100.7344,754.3438 C100.4375,754.3438 100.2344,754.4375 100.0156,754.75 L99.8438,754.6719 Z " fill="#000000"/><text fill="#000000" font-family="sans-serif" font-size="12" lengthAdjust="spacing" textLength="24" x="111.5" y="763.1543">App</text><line style="stroke:#A80036;stroke-width:1.5;" x1="83.5" x2="137.5" y1="775" y2="775"/><line style="stroke:#A80036;stroke-width:1.5;" x1="83.5" x2="137.5" y1="783" y2="783"/><!--MD5=[9c2fa21166b68a92b3a01cce85814a16]
link Company to MultiLinearRegression--><path codeLine="61" d="M692.589,157.297 C727.54,199.805 769.281,250.571 794.3,281 " fill="none" id="Company-to-MultiLinearRegression" style="stroke:#A80036;stroke-width:1.0;stroke-dasharray:7.0,7.0;"/><polygon fill="#A80036" points="797.566,284.973,794.9404,275.4806,794.3907,281.1107,788.7606,280.561,797.566,284.973" style="stroke:#A80036;stroke-width:1.0;"/><!--MD5=[4c29a3f31288984ead6b3ca29bc41e03]
link Company to LinearRegression--><path codeLine="62" d="M631.5,157.297 C631.5,199.285 631.5,249.329 631.5,279.873 " fill="none" id="Company-to-LinearRegression" style="stroke:#A80036;stroke-width:1.0;stroke-dasharray:7.0,7.0;"/><polygon fill="#A80036" points="631.5,284.973,635.5,275.973,631.5,279.973,627.5,275.973,631.5,284.973" style="stroke:#A80036;stroke-width:1.0;"/><!--MD5=[1a29efac474ed00332939ff55dd5f4e3]
link Company to NHSReport--><path codeLine="63" d="M579.736,157.322 C566.188,180.784 553.441,207.519 546.5,234 C529.596,298.488 517.424,324.008 546.5,384 C560.84,413.588 585.915,438.304 611.97,457.76 " fill="none" id="Company-to-NHSReport" style="stroke:#A80036;stroke-width:1.0;stroke-dasharray:7.0,7.0;"/><polygon fill="#A80036" points="616.159,460.837,611.2747,452.2846,612.1297,457.8765,606.5378,458.7315,616.159,460.837" style="stroke:#A80036;stroke-width:1.0;"/><!--MD5=[7f6cf7f175eae0af66201860de5de971]
link Company to TestStore--><path codeLine="64" d="M782.418,157.141 C839.712,185.288 904.414,217.073 959.601,244.185 " fill="none" id="Company-to-TestStore" style="stroke:#A80036;stroke-width:1.0;"/><polygon fill="#A80036" points="964.232,246.46,957.9177,238.9016,959.7443,244.2554,954.3904,246.0819,964.232,246.46" style="stroke:#A80036;stroke-width:1.0;"/><polygon fill="#000000" points="882.9877,197.7711,876.1652,191.145,873.5735,196.4206,882.9877,197.7711" style="stroke:#000000;stroke-width:1.0;"/><text fill="#000000" font-family="sans-serif" font-size="13" lengthAdjust="spacing" textLength="34" x="887.5" y="200.0669">owns</text><text fill="#000000" font-family="sans-serif" font-size="13" lengthAdjust="spacing" textLength="8" x="789.5689" y="177.7145">1</text><text fill="#000000" font-family="sans-serif" font-size="13" lengthAdjust="spacing" textLength="8" x="941.2854" y="235.4461">1</text><!--MD5=[b0f4f6db8206580012ef9cd998ed01c5]
link TestStore to Test--><path codeLine="65" d="M1089.5,371.757 C1089.5,400.831 1089.5,434.967 1089.5,461.983 " fill="none" id="TestStore-to-Test" style="stroke:#A80036;stroke-width:1.0;"/><polygon fill="#A80036" points="1089.5,467.288,1093.5,458.288,1089.5,462.288,1085.5,458.288,1089.5,467.288" style="stroke:#A80036;stroke-width:1.0;"/><polygon fill="#000000" points="1094.5,427.5664,1097.4389,418.5213,1091.5611,418.5213,1094.5,427.5664" style="stroke:#000000;stroke-width:1.0;"/><text fill="#000000" font-family="sans-serif" font-size="13" lengthAdjust="spacing" textLength="41" x="1103.5" y="427.0669">knows</text><text fill="#000000" font-family="sans-serif" font-size="13" lengthAdjust="spacing" textLength="8" x="1081.0625" y="391.5249">1</text><text fill="#000000" font-family="sans-serif" font-size="13" lengthAdjust="spacing" textLength="7" x="1081.9641" y="456.5681">*</text><!--MD5=[255db2bf65bd998769cbc7c7bbe52655]
link LinearRegression to NHSReport--><path codeLine="66" d="M640.134,333.276 C651.234,363.203 670.849,416.083 685.704,456.131 " fill="none" id="LinearRegression-to-NHSReport" style="stroke:#A80036;stroke-width:1.0;stroke-dasharray:7.0,7.0;"/><polygon fill="#A80036" points="687.491,460.949,688.1097,451.1196,685.7514,456.2614,680.6096,453.903,687.491,460.949" style="stroke:#A80036;stroke-width:1.0;"/><!--MD5=[1c762c208c1155ffa0e0a08433c0485c]
link Configuration to SendReportToNHSTask--><path codeLine="67" d="M110.5,384.003 C110.5,415.061 110.5,449.693 110.5,474.696 " fill="none" id="Configuration-to-SendReportToNHSTask" style="stroke:#A80036;stroke-width:1.0;stroke-dasharray:7.0,7.0;"/><polygon fill="#A80036" points="110.5,479.88,114.5,470.88,110.5,474.88,106.5,470.88,110.5,479.88" style="stroke:#A80036;stroke-width:1.0;"/><!--MD5=[4dd2fc61184c47cf023f693a2c47765d]
link SendReportToNHSTask to TimerTask--><path codeLine="68" d="M196.141,510.5 C201.072,510.5 206.003,510.5 210.935,510.5 " fill="none" id="SendReportToNHSTask-to-TimerTask" style="stroke:#A80036;stroke-width:1.0;"/><polygon fill="none" points="211.208,503.5,231.208,510.5,211.208,517.5,211.208,503.5" style="stroke:#A80036;stroke-width:1.0;"/><!--MD5=[62b6dc05f0824895af8773234f3a501e]
link MultiLinearRegression to NHSReport--><path codeLine="69" d="M803.55,333.276 C786.898,363.203 757.477,416.083 735.194,456.131 " fill="none" id="MultiLinearRegression-to-NHSReport" style="stroke:#A80036;stroke-width:1.0;stroke-dasharray:7.0,7.0;"/><polygon fill="#A80036" points="732.513,460.949,740.3842,455.0292,734.944,456.5798,733.3934,451.1396,732.513,460.949" style="stroke:#A80036;stroke-width:1.0;"/><!--MD5=[85cdbbe63cc34aae8e92936050ff8139]
link Company to Report2NHS--><path codeLine="70" d="M571.328,157.204 C563.803,167.093 556.352,177.202 549.5,187 C471.701,298.253 456.211,331.81 414.5,461 C397.514,513.61 387.465,577.172 382.469,615.683 " fill="none" id="Company-to-Report2NHS" style="stroke:#A80036;stroke-width:1.0;stroke-dasharray:7.0,7.0;"/><polygon fill="#A80036" points="381.827,620.715,386.9339,612.2936,382.4598,615.7552,378.9983,611.2811,381.827,620.715" style="stroke:#A80036;stroke-width:1.0;"/><!--MD5=[dc9f1f22e62da1359ca450d43aa7c07a]
link NHSReport to Report2NHS--><path codeLine="71" d="M591.131,560.115 C545.293,579.6 493.776,601.499 452.932,618.861 " fill="none" id="NHSReport-to-Report2NHS" style="stroke:#A80036;stroke-width:1.0;stroke-dasharray:7.0,7.0;"/><polygon fill="#A80036" points="448.005,620.955,457.8526,621.1133,452.6061,618.998,454.7214,613.7515,448.005,620.955" style="stroke:#A80036;stroke-width:1.0;"/><!--MD5=[56afa1e73eef657851a21960b03907d2]
link SendReportToNHSTask to Report2NHS--><path codeLine="72" d="M167.664,541.148 C211.508,563.888 271.927,595.225 316.851,618.526 " fill="none" id="SendReportToNHSTask-to-Report2NHS" style="stroke:#A80036;stroke-width:1.0;stroke-dasharray:7.0,7.0;"/><polygon fill="#A80036" points="321.424,620.897,315.2754,613.2032,316.9852,618.5955,311.5929,620.3053,321.424,620.897" style="stroke:#A80036;stroke-width:1.0;"/><!--MD5=[02621b4aca5e59aec6150be165ef30af]
link SendReportToNHSTask to Timer--><path codeLine="73" d="M110.5,541.319 C110.5,563.123 110.5,592.762 110.5,615.658 " fill="none" id="SendReportToNHSTask-to-Timer" style="stroke:#A80036;stroke-width:1.0;stroke-dasharray:7.0,7.0;"/><polygon fill="#A80036" points="110.5,620.73,114.5,611.73,110.5,615.73,106.5,611.73,110.5,620.73" style="stroke:#A80036;stroke-width:1.0;"/><!--MD5=[5e1b125f35ecee5987c577293be98e5a]
link Timer to App--><path codeLine="74" d="M110.5,682.024 C110.5,699.1677 110.5,720.6548 110.5,737.6023 " fill="none" id="Timer-to-App" style="stroke:#A80036;stroke-width:1.0;stroke-dasharray:7.0,7.0;"/><polygon fill="#A80036" points="110.5,742.7062,114.5,733.7062,110.5,737.7062,106.5,733.7062,110.5,742.7062" style="stroke:#A80036;stroke-width:1.0;"/><!--MD5=[92dd8112ee550a7cb73877172ce96f0a]
@startuml
skinparam classAttributeIconSize 0
'left to right direction


class Company {
+generateSimpleNHSReportTestsPerformedWeeks(currentDate,historicalPoints,\nnewerRegressionIntervalDate,olderRegressionIntervalDate,aParameterSignificance,aTestParameter,\nbParamaterSignificance,bTestParameter,fTestSignificance,confidenceIntervalSignificance)
+generateSimpleNHSReportMeanAgeWeeks(currentDate, ...)
+generateSimpleNhsReportMeanAge(currentDate, ...)
+generateSimpleNhsReportTestsPerformed(currentDate, ...)
+generateMultilinearNHSReportDays(currentDate, ...)
+generateMultilinearNHSReportWeeks(currentDate, ...)
}

class TestStore {
+getTestsPerformedPerDay(olderDate,newerDate)
+getTestsPerformedPerWeek(olderDate,newerDate)
+getTestsPositivePerDay(olderDate,newerDate)
+getTestsPositivePerWeek(olderDate,newerDate)
+getMeanAgePerDay(olderDate,newerDate)
+getMeanAgePerWeek(olderDate,newerDate)
}

class NHSReport {
-linearRegression
-multiLinearRegression
+getReportString(olderDate,newerDate,aParameterSignificance,aTestParameter\n,bTestSignificance,bTestParameter,fTestSignificance,confidenceIntervalSignificance,identifier)
}

class Report2NHS {
+writeUsingFileWriter(String report)
}
class LinearRegression
class MultiLinearRegression{
}
class Test{
-client
-testType
+calculateAge()
}

class Configuration{
+getTypeOfDate()
+getHistoricalPoints()
+getTypeOfLinearRegression()
+getSignificanceValue()
-getDate(date)
+getCurrentDate()
+getDateIntervalLower()
+getDateIntervalUpper()
}
class SendReportToNHSTask{
+run()
}
class Timer{
+timer(sendNHSReportTask, time)
}
class TimerTask{
+run()
}

Company ..> MultiLinearRegression
Company ..> LinearRegression
Company ..> NHSReport
Company "1" - -> "1" TestStore : owns >
TestStore "1" - -> "*" Test : knows >
LinearRegression ..> NHSReport
Configuration..>SendReportToNHSTask
SendReportToNHSTask-|>TimerTask
MultiLinearRegression ..> NHSReport
Company ..> Report2NHS
NHSReport ..> Report2NHS
SendReportToNHSTask..>Report2NHS
Timer<.u.SendReportToNHSTask
App<.u.Timer
@enduml

@startuml
skinparam classAttributeIconSize 0


class Company {
+generateSimpleNHSReportTestsPerformedWeeks(currentDate,historicalPoints,\nnewerRegressionIntervalDate,olderRegressionIntervalDate,aParameterSignificance,aTestParameter,\nbParamaterSignificance,bTestParameter,fTestSignificance,confidenceIntervalSignificance)
+generateSimpleNHSReportMeanAgeWeeks(currentDate, ...)
+generateSimpleNhsReportMeanAge(currentDate, ...)
+generateSimpleNhsReportTestsPerformed(currentDate, ...)
+generateMultilinearNHSReportDays(currentDate, ...)
+generateMultilinearNHSReportWeeks(currentDate, ...)
}

class TestStore {
+getTestsPerformedPerDay(olderDate,newerDate)
+getTestsPerformedPerWeek(olderDate,newerDate)
+getTestsPositivePerDay(olderDate,newerDate)
+getTestsPositivePerWeek(olderDate,newerDate)
+getMeanAgePerDay(olderDate,newerDate)
+getMeanAgePerWeek(olderDate,newerDate)
}

class NHSReport {
-linearRegression
-multiLinearRegression
+getReportString(olderDate,newerDate,aParameterSignificance,aTestParameter\n,bTestSignificance,bTestParameter,fTestSignificance,confidenceIntervalSignificance,identifier)
}

class Report2NHS {
+writeUsingFileWriter(String report)
}
class LinearRegression
class MultiLinearRegression{
}
class Test{
-client
-testType
+calculateAge()
}

class Configuration{
+getTypeOfDate()
+getHistoricalPoints()
+getTypeOfLinearRegression()
+getSignificanceValue()
-getDate(date)
+getCurrentDate()
+getDateIntervalLower()
+getDateIntervalUpper()
}
class SendReportToNHSTask{
+run()
}
class Timer{
+timer(sendNHSReportTask, time)
}
class TimerTask{
+run()
}

Company ..> MultiLinearRegression
Company ..> LinearRegression
Company ..> NHSReport
Company "1" - -> "1" TestStore : owns >
TestStore "1" - -> "*" Test : knows >
LinearRegression ..> NHSReport
Configuration..>SendReportToNHSTask
SendReportToNHSTask-|>TimerTask
MultiLinearRegression ..> NHSReport
Company ..> Report2NHS
NHSReport ..> Report2NHS
SendReportToNHSTask..>Report2NHS
Timer<.u.SendReportToNHSTask
App<.u.Timer
@enduml

PlantUML version 1.2021.7(Sun May 23 12:40:07 UTC 2021)
(GPL source distribution)
Java Runtime: Java(TM) SE Runtime Environment
JVM: Java HotSpot(TM) 64-Bit Server VM
Default Encoding: UTF-8
Language: en
Country: US
--></g></svg>