<?xml version="1.0" encoding="UTF-8" standalone="no"?><svg xmlns="http://www.w3.org/2000/svg" xmlns:xlink="http://www.w3.org/1999/xlink" contentScriptType="application/ecmascript" contentStyleType="text/css" height="309px" preserveAspectRatio="none" style="width:634px;height:309px;background:#FFFFFF;" version="1.1" viewBox="0 0 634 309" width="634px" zoomAndPan="magnify"><defs><filter height="300%" id="f174jg62q467ea" width="300%" x="-1" y="-1"><feGaussianBlur result="blurOut" stdDeviation="2.0"/><feColorMatrix in="blurOut" result="blurOut2" type="matrix" values="0 0 0 0 0 0 0 0 0 0 0 0 0 0 0 0 0 0 .4 0"/><feOffset dx="4.0" dy="4.0" in="blurOut2" result="blurOut3"/><feBlend in="SourceGraphic" in2="blurOut3" mode="normal"/></filter></defs><g><rect fill="#FFFFFF" filter="url(#f174jg62q467ea)" height="109.3984" style="stroke:#A80036;stroke-width:1.0;" width="10" x="18" y="98.2969"/><rect fill="#FFFFFF" filter="url(#f174jg62q467ea)" height="29.1328" style="stroke:#A80036;stroke-width:1.0;" width="10" x="596" y="119.4297"/><rect fill="#FFFFFF" filter="url(#f174jg62q467ea)" height="30" style="stroke:#A80036;stroke-width:1.0;" width="10" x="596" y="177.6953"/><line style="stroke:#A80036;stroke-width:1.0;stroke-dasharray:5.0,5.0;" x1="23" x2="23" y1="88.2969" y2="225.6953"/><line style="stroke:#A80036;stroke-width:1.0;stroke-dasharray:5.0,5.0;" x1="600.5" x2="600.5" y1="88.2969" y2="225.6953"/><text fill="#000000" font-family="sans-serif" font-size="14" lengthAdjust="spacing" textLength="30" x="5" y="84.9951">App</text><ellipse cx="23" cy="15" fill="#FEFECE" filter="url(#f174jg62q467ea)" rx="8" ry="8" style="stroke:#A80036;stroke-width:2.0;"/><path d="M23,23 L23,50 M10,31 L36,31 M23,50 L10,65 M23,50 L36,65 " fill="none" filter="url(#f174jg62q467ea)" style="stroke:#A80036;stroke-width:2.0;"/><text fill="#000000" font-family="sans-serif" font-size="14" lengthAdjust="spacing" textLength="30" x="5" y="237.6904">App</text><ellipse cx="23" cy="250.9922" fill="#FEFECE" filter="url(#f174jg62q467ea)" rx="8" ry="8" style="stroke:#A80036;stroke-width:2.0;"/><path d="M23,258.9922 L23,285.9922 M10,266.9922 L36,266.9922 M23,285.9922 L10,300.9922 M23,285.9922 L36,300.9922 " fill="none" filter="url(#f174jg62q467ea)" style="stroke:#A80036;stroke-width:2.0;"/><text fill="#000000" font-family="sans-serif" font-size="14" lengthAdjust="spacing" textLength="59" x="568.5" y="84.9951">:System</text><ellipse cx="601" cy="15" fill="#FEFECE" filter="url(#f174jg62q467ea)" rx="8" ry="8" style="stroke:#A80036;stroke-width:2.0;"/><path d="M601,23 L601,50 M588,31 L614,31 M601,50 L588,65 M601,50 L614,65 " fill="none" filter="url(#f174jg62q467ea)" style="stroke:#A80036;stroke-width:2.0;"/><text fill="#000000" font-family="sans-serif" font-size="14" lengthAdjust="spacing" textLength="59" x="568.5" y="237.6904">:System</text><ellipse cx="601" cy="250.9922" fill="#FEFECE" filter="url(#f174jg62q467ea)" rx="8" ry="8" style="stroke:#A80036;stroke-width:2.0;"/><path d="M601,258.9922 L601,285.9922 M588,266.9922 L614,266.9922 M601,285.9922 L588,300.9922 M601,285.9922 L614,300.9922 " fill="none" filter="url(#f174jg62q467ea)" style="stroke:#A80036;stroke-width:2.0;"/><rect fill="#FFFFFF" filter="url(#f174jg62q467ea)" height="109.3984" style="stroke:#A80036;stroke-width:1.0;" width="10" x="18" y="98.2969"/><rect fill="#FFFFFF" filter="url(#f174jg62q467ea)" height="29.1328" style="stroke:#A80036;stroke-width:1.0;" width="10" x="596" y="119.4297"/><rect fill="#FFFFFF" filter="url(#f174jg62q467ea)" height="30" style="stroke:#A80036;stroke-width:1.0;" width="10" x="596" y="177.6953"/><polygon fill="#A80036" points="584,115.4297,594,119.4297,584,123.4297,588,119.4297" style="stroke:#A80036;stroke-width:1.0;"/><line style="stroke:#A80036;stroke-width:1.0;" x1="28" x2="590" y1="119.4297" y2="119.4297"/><text fill="#000000" font-family="sans-serif" font-size="13" font-weight="bold" lengthAdjust="spacing" textLength="9" x="35" y="114.3638">1</text><text fill="#000000" font-family="sans-serif" font-size="13" lengthAdjust="spacing" textLength="536" x="48" y="114.3638">asks to get a report containing all the parameters contained in the configuration file</text><polygon fill="#A80036" points="39,144.5625,29,148.5625,39,152.5625,35,148.5625" style="stroke:#A80036;stroke-width:1.0;"/><line style="stroke:#A80036;stroke-width:1.0;stroke-dasharray:2.0,2.0;" x1="33" x2="600" y1="148.5625" y2="148.5625"/><text fill="#000000" font-family="sans-serif" font-size="13" font-weight="bold" lengthAdjust="spacing" textLength="9" x="45" y="143.4966">2</text><text fill="#000000" font-family="sans-serif" font-size="13" lengthAdjust="spacing" textLength="222" x="58" y="143.4966">create and return the report asked</text><polygon fill="#A80036" points="584,173.6953,594,177.6953,584,181.6953,588,177.6953" style="stroke:#A80036;stroke-width:1.0;"/><line style="stroke:#A80036;stroke-width:1.0;" x1="28" x2="590" y1="177.6953" y2="177.6953"/><text fill="#000000" font-family="sans-serif" font-size="13" font-weight="bold" lengthAdjust="spacing" textLength="8" x="35" y="172.6294">3</text><text fill="#000000" font-family="sans-serif" font-size="13" lengthAdjust="spacing" textLength="298" x="47" y="172.6294">send the report to the NHS whenever it is 6am</text><!--MD5=[b9671e417449e069693cf97734e1a2f1]
@startuml
autonumber
actor "App" as APP
actor ":System" as SYS

activate APP

APP-> SYS : asks to get a report containing all the parameters contained in the configuration file
activate SYS
SYS - -> APP : create and return the report asked
deactivate SYS
APP-> SYS : send the report to the NHS whenever it is 6am
activate SYS

deactivate SYS
deactivate APP
@enduml

PlantUML version 1.2021.7(Sun May 23 12:40:07 UTC 2021)
(GPL source distribution)
Java Runtime: Java(TM) SE Runtime Environment
JVM: Java HotSpot(TM) 64-Bit Server VM
Default Encoding: UTF-8
Language: en
Country: US
--></g></svg>