<?xml version="1.0" encoding="UTF-8" standalone="no"?><svg xmlns="http://www.w3.org/2000/svg" xmlns:xlink="http://www.w3.org/1999/xlink" contentScriptType="application/ecmascript" contentStyleType="text/css" height="339px" preserveAspectRatio="none" style="width:1154px;height:339px;background:#FFFFFF;" version="1.1" viewBox="0 0 1154 339" width="1154px" zoomAndPan="magnify"><defs><filter height="300%" id="fbafbm2l757ja" width="300%" x="-1" y="-1"><feGaussianBlur result="blurOut" stdDeviation="2.0"/><feColorMatrix in="blurOut" result="blurOut2" type="matrix" values="0 0 0 0 0 0 0 0 0 0 0 0 0 0 0 0 0 0 .4 0"/><feOffset dx="4.0" dy="4.0" in="blurOut2" result="blurOut3"/><feBlend in="SourceGraphic" in2="blurOut3" mode="normal"/></filter></defs><g><!--MD5=[02e4b9b7573f1156f41e60aa5b4e25a4]
class Company--><rect codeLine="8" fill="#FEFECE" filter="url(#fbafbm2l757ja)" height="52.8047" id="Company" style="stroke:#A80036;stroke-width:1.5;" width="88" x="7" y="159"/><ellipse cx="22" cy="175" fill="#ADD1B2" rx="11" ry="11" style="stroke:#A80036;stroke-width:1.0;"/><path d="M24.3438,170.6719 C23.4063,170.2344 22.8125,170.0938 21.9375,170.0938 C19.3125,170.0938 17.3125,172.1719 17.3125,174.8906 L17.3125,176.0156 C17.3125,178.5938 19.4219,180.4844 22.3125,180.4844 C23.5313,180.4844 24.6875,180.1875 25.4375,179.6406 C26.0156,179.2344 26.3438,178.7813 26.3438,178.3906 C26.3438,177.9375 25.9531,177.5469 25.4844,177.5469 C25.2656,177.5469 25.0625,177.625 24.875,177.8125 C24.4219,178.2969 24.4219,178.2969 24.2344,178.3906 C23.8125,178.6563 23.125,178.7813 22.3594,178.7813 C20.3125,178.7813 19.0156,177.6875 19.0156,175.9844 L19.0156,174.8906 C19.0156,173.1094 20.2656,171.7969 22,171.7969 C22.5781,171.7969 23.1875,171.9531 23.6563,172.2031 C24.1406,172.4844 24.3125,172.7031 24.4063,173.1094 C24.4688,173.5156 24.5,173.6406 24.6406,173.7656 C24.7813,173.9063 25.0156,174.0156 25.2344,174.0156 C25.5,174.0156 25.7656,173.875 25.9375,173.6563 C26.0469,173.5 26.0781,173.3125 26.0781,172.8906 L26.0781,171.4688 C26.0781,171.0313 26.0625,170.9063 25.9688,170.75 C25.8125,170.4844 25.5313,170.3438 25.2344,170.3438 C24.9375,170.3438 24.7344,170.4375 24.5156,170.75 L24.3438,170.6719 Z " fill="#000000"/><text fill="#000000" font-family="sans-serif" font-size="12" lengthAdjust="spacing" textLength="56" x="36" y="179.1543">Company</text><line style="stroke:#A80036;stroke-width:1.5;" x1="8" x2="94" y1="191" y2="191"/><text fill="#000000" font-family="sans-serif" font-size="11" lengthAdjust="spacing" textLength="37" x="13" y="205.2104">-name</text><!--MD5=[df38be88ccee13e832d6fafd6288a4ca]
class Test--><rect codeLine="11" fill="#FEFECE" filter="url(#fbafbm2l757ja)" height="78.4141" id="Test" style="stroke:#A80036;stroke-width:1.5;" width="99" x="372" y="146.5"/><ellipse cx="405.45" cy="162.5" fill="#ADD1B2" rx="11" ry="11" style="stroke:#A80036;stroke-width:1.0;"/><path d="M407.7938,158.1719 C406.8563,157.7344 406.2625,157.5938 405.3875,157.5938 C402.7625,157.5938 400.7625,159.6719 400.7625,162.3906 L400.7625,163.5156 C400.7625,166.0938 402.8719,167.9844 405.7625,167.9844 C406.9813,167.9844 408.1375,167.6875 408.8875,167.1406 C409.4656,166.7344 409.7938,166.2813 409.7938,165.8906 C409.7938,165.4375 409.4031,165.0469 408.9344,165.0469 C408.7156,165.0469 408.5125,165.125 408.325,165.3125 C407.8719,165.7969 407.8719,165.7969 407.6844,165.8906 C407.2625,166.1563 406.575,166.2813 405.8094,166.2813 C403.7625,166.2813 402.4656,165.1875 402.4656,163.4844 L402.4656,162.3906 C402.4656,160.6094 403.7156,159.2969 405.45,159.2969 C406.0281,159.2969 406.6375,159.4531 407.1063,159.7031 C407.5906,159.9844 407.7625,160.2031 407.8563,160.6094 C407.9188,161.0156 407.95,161.1406 408.0906,161.2656 C408.2313,161.4063 408.4656,161.5156 408.6844,161.5156 C408.95,161.5156 409.2156,161.375 409.3875,161.1563 C409.4969,161 409.5281,160.8125 409.5281,160.3906 L409.5281,158.9688 C409.5281,158.5313 409.5125,158.4063 409.4188,158.25 C409.2625,157.9844 408.9813,157.8438 408.6844,157.8438 C408.3875,157.8438 408.1844,157.9375 407.9656,158.25 L407.7938,158.1719 Z " fill="#000000"/><text fill="#000000" font-family="sans-serif" font-size="12" lengthAdjust="spacing" textLength="26" x="423.55" y="166.6543">Test</text><line style="stroke:#A80036;stroke-width:1.5;" x1="373" x2="470" y1="178.5" y2="178.5"/><text fill="#000000" font-family="sans-serif" font-size="11" lengthAdjust="spacing" textLength="87" x="378" y="192.7104">-validationDate</text><text fill="#000000" font-family="sans-serif" font-size="11" lengthAdjust="spacing" textLength="55" x="378" y="205.5151">-testType</text><text fill="#000000" font-family="sans-serif" font-size="11" lengthAdjust="spacing" textLength="61" x="378" y="218.3198">-testResult</text><!--MD5=[e27cb01a39563223b22d42504ec96d07]
class TestResult--><rect codeLine="17" fill="#FEFECE" filter="url(#fbafbm2l757ja)" height="91.2188" id="TestResult" style="stroke:#A80036;stroke-width:1.5;" width="94" x="1036" y="140"/><ellipse cx="1051" cy="156" fill="#ADD1B2" rx="11" ry="11" style="stroke:#A80036;stroke-width:1.0;"/><path d="M1053.3438,151.6719 C1052.4063,151.2344 1051.8125,151.0938 1050.9375,151.0938 C1048.3125,151.0938 1046.3125,153.1719 1046.3125,155.8906 L1046.3125,157.0156 C1046.3125,159.5938 1048.4219,161.4844 1051.3125,161.4844 C1052.5313,161.4844 1053.6875,161.1875 1054.4375,160.6406 C1055.0156,160.2344 1055.3438,159.7813 1055.3438,159.3906 C1055.3438,158.9375 1054.9531,158.5469 1054.4844,158.5469 C1054.2656,158.5469 1054.0625,158.625 1053.875,158.8125 C1053.4219,159.2969 1053.4219,159.2969 1053.2344,159.3906 C1052.8125,159.6563 1052.125,159.7813 1051.3594,159.7813 C1049.3125,159.7813 1048.0156,158.6875 1048.0156,156.9844 L1048.0156,155.8906 C1048.0156,154.1094 1049.2656,152.7969 1051,152.7969 C1051.5781,152.7969 1052.1875,152.9531 1052.6563,153.2031 C1053.1406,153.4844 1053.3125,153.7031 1053.4063,154.1094 C1053.4688,154.5156 1053.5,154.6406 1053.6406,154.7656 C1053.7813,154.9063 1054.0156,155.0156 1054.2344,155.0156 C1054.5,155.0156 1054.7656,154.875 1054.9375,154.6563 C1055.0469,154.5 1055.0781,154.3125 1055.0781,153.8906 L1055.0781,152.4688 C1055.0781,152.0313 1055.0625,151.9063 1054.9688,151.75 C1054.8125,151.4844 1054.5313,151.3438 1054.2344,151.3438 C1053.9375,151.3438 1053.7344,151.4375 1053.5156,151.75 L1053.3438,151.6719 Z " fill="#000000"/><text fill="#000000" font-family="sans-serif" font-size="12" lengthAdjust="spacing" textLength="62" x="1065" y="160.1543">TestResult</text><line style="stroke:#A80036;stroke-width:1.5;" x1="1037" x2="1129" y1="172" y2="172"/><text fill="#000000" font-family="sans-serif" font-size="11" lengthAdjust="spacing" textLength="36" x="1042" y="186.2104">-result</text><text fill="#000000" font-family="sans-serif" font-size="11" lengthAdjust="spacing" textLength="72" x="1042" y="199.0151">-usedMetrics</text><text fill="#000000" font-family="sans-serif" font-size="11" lengthAdjust="spacing" textLength="62" x="1042" y="211.8198">-maxValue</text><text fill="#000000" font-family="sans-serif" font-size="11" lengthAdjust="spacing" textLength="58" x="1042" y="224.6245">-minValue</text><!--MD5=[aeb3272166074d8737a70b61b1e71682]
class TestType--><rect codeLine="24" fill="#FEFECE" filter="url(#fbafbm2l757ja)" height="91.2188" id="TestType" style="stroke:#A80036;stroke-width:1.5;" width="138" x="650" y="7"/><ellipse cx="687.5" cy="23" fill="#ADD1B2" rx="11" ry="11" style="stroke:#A80036;stroke-width:1.0;"/><path d="M689.8438,18.6719 C688.9063,18.2344 688.3125,18.0938 687.4375,18.0938 C684.8125,18.0938 682.8125,20.1719 682.8125,22.8906 L682.8125,24.0156 C682.8125,26.5938 684.9219,28.4844 687.8125,28.4844 C689.0313,28.4844 690.1875,28.1875 690.9375,27.6406 C691.5156,27.2344 691.8438,26.7813 691.8438,26.3906 C691.8438,25.9375 691.4531,25.5469 690.9844,25.5469 C690.7656,25.5469 690.5625,25.625 690.375,25.8125 C689.9219,26.2969 689.9219,26.2969 689.7344,26.3906 C689.3125,26.6563 688.625,26.7813 687.8594,26.7813 C685.8125,26.7813 684.5156,25.6875 684.5156,23.9844 L684.5156,22.8906 C684.5156,21.1094 685.7656,19.7969 687.5,19.7969 C688.0781,19.7969 688.6875,19.9531 689.1563,20.2031 C689.6406,20.4844 689.8125,20.7031 689.9063,21.1094 C689.9688,21.5156 690,21.6406 690.1406,21.7656 C690.2813,21.9063 690.5156,22.0156 690.7344,22.0156 C691,22.0156 691.2656,21.875 691.4375,21.6563 C691.5469,21.5 691.5781,21.3125 691.5781,20.8906 L691.5781,19.4688 C691.5781,19.0313 691.5625,18.9063 691.4688,18.75 C691.3125,18.4844 691.0313,18.3438 690.7344,18.3438 C690.4375,18.3438 690.2344,18.4375 690.0156,18.75 L689.8438,18.6719 Z " fill="#000000"/><text fill="#000000" font-family="sans-serif" font-size="12" lengthAdjust="spacing" textLength="56" x="706.5" y="27.1543">TestType</text><line style="stroke:#A80036;stroke-width:1.5;" x1="651" x2="787" y1="39" y2="39"/><text fill="#000000" font-family="sans-serif" font-size="11" lengthAdjust="spacing" textLength="32" x="656" y="53.2104">-code</text><text fill="#000000" font-family="sans-serif" font-size="11" lengthAdjust="spacing" textLength="66" x="656" y="66.0151">-description</text><text fill="#000000" font-family="sans-serif" font-size="11" lengthAdjust="spacing" textLength="106" x="656" y="78.8198">-collectingMethods</text><text fill="#000000" font-family="sans-serif" font-size="11" lengthAdjust="spacing" textLength="126" x="656" y="91.6245">-parameterCategories</text><!--MD5=[1f6362a5c8f21d8d6a0fce68f3a92a4e]
class Parameter--><rect codeLine="31" fill="#FEFECE" filter="url(#fbafbm2l757ja)" height="104.0234" id="Parameter" style="stroke:#A80036;stroke-width:1.5;" width="93" x="672.5" y="133.5"/><ellipse cx="687.5" cy="149.5" fill="#ADD1B2" rx="11" ry="11" style="stroke:#A80036;stroke-width:1.0;"/><path d="M689.8438,145.1719 C688.9063,144.7344 688.3125,144.5938 687.4375,144.5938 C684.8125,144.5938 682.8125,146.6719 682.8125,149.3906 L682.8125,150.5156 C682.8125,153.0938 684.9219,154.9844 687.8125,154.9844 C689.0313,154.9844 690.1875,154.6875 690.9375,154.1406 C691.5156,153.7344 691.8438,153.2813 691.8438,152.8906 C691.8438,152.4375 691.4531,152.0469 690.9844,152.0469 C690.7656,152.0469 690.5625,152.125 690.375,152.3125 C689.9219,152.7969 689.9219,152.7969 689.7344,152.8906 C689.3125,153.1563 688.625,153.2813 687.8594,153.2813 C685.8125,153.2813 684.5156,152.1875 684.5156,150.4844 L684.5156,149.3906 C684.5156,147.6094 685.7656,146.2969 687.5,146.2969 C688.0781,146.2969 688.6875,146.4531 689.1563,146.7031 C689.6406,146.9844 689.8125,147.2031 689.9063,147.6094 C689.9688,148.0156 690,148.1406 690.1406,148.2656 C690.2813,148.4063 690.5156,148.5156 690.7344,148.5156 C691,148.5156 691.2656,148.375 691.4375,148.1563 C691.5469,148 691.5781,147.8125 691.5781,147.3906 L691.5781,145.9688 C691.5781,145.5313 691.5625,145.4063 691.4688,145.25 C691.3125,144.9844 691.0313,144.8438 690.7344,144.8438 C690.4375,144.8438 690.2344,144.9375 690.0156,145.25 L689.8438,145.1719 Z " fill="#000000"/><text fill="#000000" font-family="sans-serif" font-size="12" lengthAdjust="spacing" textLength="61" x="701.5" y="153.6543">Parameter</text><line style="stroke:#A80036;stroke-width:1.5;" x1="673.5" x2="764.5" y1="165.5" y2="165.5"/><text fill="#000000" font-family="sans-serif" font-size="11" lengthAdjust="spacing" textLength="32" x="678.5" y="179.7104">-code</text><text fill="#000000" font-family="sans-serif" font-size="11" lengthAdjust="spacing" textLength="66" x="678.5" y="192.5151">-shortName</text><text fill="#000000" font-family="sans-serif" font-size="11" lengthAdjust="spacing" textLength="66" x="678.5" y="205.3198">-description</text><text fill="#000000" font-family="sans-serif" font-size="11" lengthAdjust="spacing" textLength="17" x="678.5" y="218.1245">-pc</text><text fill="#000000" font-family="sans-serif" font-size="11" lengthAdjust="spacing" textLength="61" x="678.5" y="230.9292">-testResult</text><!--MD5=[74783ec010d186752c4ffd5c6de5633a]
class NHSReport--><rect codeLine="39" fill="#FEFECE" filter="url(#fbafbm2l757ja)" height="52.8047" id="NHSReport" style="stroke:#A80036;stroke-width:1.5;" width="118" x="660" y="273"/><ellipse cx="684.45" cy="289" fill="#ADD1B2" rx="11" ry="11" style="stroke:#A80036;stroke-width:1.0;"/><path d="M686.7938,284.6719 C685.8563,284.2344 685.2625,284.0938 684.3875,284.0938 C681.7625,284.0938 679.7625,286.1719 679.7625,288.8906 L679.7625,290.0156 C679.7625,292.5938 681.8719,294.4844 684.7625,294.4844 C685.9813,294.4844 687.1375,294.1875 687.8875,293.6406 C688.4656,293.2344 688.7938,292.7813 688.7938,292.3906 C688.7938,291.9375 688.4031,291.5469 687.9344,291.5469 C687.7156,291.5469 687.5125,291.625 687.325,291.8125 C686.8719,292.2969 686.8719,292.2969 686.6844,292.3906 C686.2625,292.6563 685.575,292.7813 684.8094,292.7813 C682.7625,292.7813 681.4656,291.6875 681.4656,289.9844 L681.4656,288.8906 C681.4656,287.1094 682.7156,285.7969 684.45,285.7969 C685.0281,285.7969 685.6375,285.9531 686.1063,286.2031 C686.5906,286.4844 686.7625,286.7031 686.8563,287.1094 C686.9188,287.5156 686.95,287.6406 687.0906,287.7656 C687.2313,287.9063 687.4656,288.0156 687.6844,288.0156 C687.95,288.0156 688.2156,287.875 688.3875,287.6563 C688.4969,287.5 688.5281,287.3125 688.5281,286.8906 L688.5281,285.4688 C688.5281,285.0313 688.5125,284.9063 688.4188,284.75 C688.2625,284.4844 687.9813,284.3438 687.6844,284.3438 C687.3875,284.3438 687.1844,284.4375 686.9656,284.75 L686.7938,284.6719 Z " fill="#000000"/><text fill="#000000" font-family="sans-serif" font-size="12" lengthAdjust="spacing" textLength="65" x="700.55" y="293.1543">NHSReport</text><line style="stroke:#A80036;stroke-width:1.5;" x1="661" x2="777" y1="305" y2="305"/><text fill="#000000" font-family="sans-serif" font-size="11" lengthAdjust="spacing" textLength="106" x="666" y="319.2104">-nhsReportContent</text><!--MD5=[9c64c6fd7df3fbd5382787c5df2d256e]
class NHSReportAPI--><rect codeLine="43" fill="#FEFECE" filter="url(#fbafbm2l757ja)" height="40" id="NHSReportAPI" style="stroke:#A80036;stroke-width:1.5;" width="114" x="1026" y="279.5"/><ellipse cx="1041" cy="295.5" fill="#ADD1B2" rx="11" ry="11" style="stroke:#A80036;stroke-width:1.0;"/><path d="M1043.3438,291.1719 C1042.4063,290.7344 1041.8125,290.5938 1040.9375,290.5938 C1038.3125,290.5938 1036.3125,292.6719 1036.3125,295.3906 L1036.3125,296.5156 C1036.3125,299.0938 1038.4219,300.9844 1041.3125,300.9844 C1042.5313,300.9844 1043.6875,300.6875 1044.4375,300.1406 C1045.0156,299.7344 1045.3438,299.2813 1045.3438,298.8906 C1045.3438,298.4375 1044.9531,298.0469 1044.4844,298.0469 C1044.2656,298.0469 1044.0625,298.125 1043.875,298.3125 C1043.4219,298.7969 1043.4219,298.7969 1043.2344,298.8906 C1042.8125,299.1563 1042.125,299.2813 1041.3594,299.2813 C1039.3125,299.2813 1038.0156,298.1875 1038.0156,296.4844 L1038.0156,295.3906 C1038.0156,293.6094 1039.2656,292.2969 1041,292.2969 C1041.5781,292.2969 1042.1875,292.4531 1042.6563,292.7031 C1043.1406,292.9844 1043.3125,293.2031 1043.4063,293.6094 C1043.4688,294.0156 1043.5,294.1406 1043.6406,294.2656 C1043.7813,294.4063 1044.0156,294.5156 1044.2344,294.5156 C1044.5,294.5156 1044.7656,294.375 1044.9375,294.1563 C1045.0469,294 1045.0781,293.8125 1045.0781,293.3906 L1045.0781,291.9688 C1045.0781,291.5313 1045.0625,291.4063 1044.9688,291.25 C1044.8125,290.9844 1044.5313,290.8438 1044.2344,290.8438 C1043.9375,290.8438 1043.7344,290.9375 1043.5156,291.25 L1043.3438,291.1719 Z " fill="#000000"/><text fill="#000000" font-family="sans-serif" font-size="12" lengthAdjust="spacing" textLength="82" x="1055" y="299.6543">NHSReportAPI</text><line style="stroke:#A80036;stroke-width:1.5;" x1="1027" x2="1139" y1="311.5" y2="311.5"/><!--MD5=[ed6624c6556d5e7b1bd23032162d20b7]
class Client--><rect codeLine="47" fill="#FEFECE" filter="url(#fbafbm2l757ja)" height="52.8047" id="Client" style="stroke:#A80036;stroke-width:1.5;" width="65" x="198" y="159"/><ellipse cx="213" cy="175" fill="#ADD1B2" rx="11" ry="11" style="stroke:#A80036;stroke-width:1.0;"/><path d="M215.3438,170.6719 C214.4063,170.2344 213.8125,170.0938 212.9375,170.0938 C210.3125,170.0938 208.3125,172.1719 208.3125,174.8906 L208.3125,176.0156 C208.3125,178.5938 210.4219,180.4844 213.3125,180.4844 C214.5313,180.4844 215.6875,180.1875 216.4375,179.6406 C217.0156,179.2344 217.3438,178.7813 217.3438,178.3906 C217.3438,177.9375 216.9531,177.5469 216.4844,177.5469 C216.2656,177.5469 216.0625,177.625 215.875,177.8125 C215.4219,178.2969 215.4219,178.2969 215.2344,178.3906 C214.8125,178.6563 214.125,178.7813 213.3594,178.7813 C211.3125,178.7813 210.0156,177.6875 210.0156,175.9844 L210.0156,174.8906 C210.0156,173.1094 211.2656,171.7969 213,171.7969 C213.5781,171.7969 214.1875,171.9531 214.6563,172.2031 C215.1406,172.4844 215.3125,172.7031 215.4063,173.1094 C215.4688,173.5156 215.5,173.6406 215.6406,173.7656 C215.7813,173.9063 216.0156,174.0156 216.2344,174.0156 C216.5,174.0156 216.7656,173.875 216.9375,173.6563 C217.0469,173.5 217.0781,173.3125 217.0781,172.8906 L217.0781,171.4688 C217.0781,171.0313 217.0625,170.9063 216.9688,170.75 C216.8125,170.4844 216.5313,170.3438 216.2344,170.3438 C215.9375,170.3438 215.7344,170.4375 215.5156,170.75 L215.3438,170.6719 Z " fill="#000000"/><text fill="#000000" font-family="sans-serif" font-size="12" lengthAdjust="spacing" textLength="33" x="227" y="179.1543">Client</text><line style="stroke:#A80036;stroke-width:1.5;" x1="199" x2="262" y1="191" y2="191"/><text fill="#000000" font-family="sans-serif" font-size="11" lengthAdjust="spacing" textLength="37" x="204" y="205.2104">-name</text><!--MD5=[502b51bc079239060389dab43b7d3470]
link Client to Test--><path codeLine="51" d="M263.134,185.5 C292.768,185.5 337.497,185.5 371.703,185.5 " fill="none" id="Client-Test" style="stroke:#A80036;stroke-width:1.0;"/><polygon fill="#000000" points="303,177.0664,293.9549,174.1275,293.9549,180.0053,303,177.0664" style="stroke:#000000;stroke-width:1.0;"/><text fill="#000000" font-family="sans-serif" font-size="13" lengthAdjust="spacing" textLength="34" x="307" y="181.5669">owns</text><text fill="#000000" font-family="sans-serif" font-size="13" lengthAdjust="spacing" textLength="8" x="271.1477" y="199.2434">1</text><text fill="#000000" font-family="sans-serif" font-size="13" lengthAdjust="spacing" textLength="8" x="356.1378" y="198.6018">1</text><!--MD5=[e981d4f96c4342412d1e68160b30cf70]
link Test to TestType--><path codeLine="52" d="M471.296,163.538 C519.982,141.625 595.198,107.771 649.783,83.203 " fill="none" id="Test-TestType" style="stroke:#A80036;stroke-width:1.0;"/><polygon fill="#000000" points="525.0595,89.0142,515.6051,90.0467,518.0176,95.4066,525.0595,89.0142" style="stroke:#000000;stroke-width:1.0;"/><text fill="#000000" font-family="sans-serif" font-size="13" lengthAdjust="spacing" textLength="75" x="529.5" y="95.5669">has defined</text><text fill="#000000" font-family="sans-serif" font-size="13" lengthAdjust="spacing" textLength="8" x="478.8611" y="173.5514">1</text><text fill="#000000" font-family="sans-serif" font-size="13" lengthAdjust="spacing" textLength="8" x="633.7749" y="99.4436">1</text><!--MD5=[c23963f6e403fc3ebec8dae22c30ade6]
link Test to Parameter--><path codeLine="53" d="M471.296,185.5 C527.031,185.5 617.534,185.5 672.051,185.5 " fill="none" id="Test-Parameter" style="stroke:#A80036;stroke-width:1.0;"/><polygon fill="#000000" points="536,177.0664,526.9549,174.1275,526.9549,180.0053,536,177.0664" style="stroke:#000000;stroke-width:1.0;"/><text fill="#000000" font-family="sans-serif" font-size="13" lengthAdjust="spacing" textLength="54" x="540" y="181.5669">contains</text><text fill="#000000" font-family="sans-serif" font-size="13" lengthAdjust="spacing" textLength="8" x="478.8611" y="198.6018">1</text><text fill="#000000" font-family="sans-serif" font-size="13" lengthAdjust="spacing" textLength="23" x="641.5622" y="198.5348">1..*</text><!--MD5=[a70ea501a779cc410cf3bc39a4398e2e]
link Parameter to TestResult--><path codeLine="54" d="M765.848,185.5 C835.29,185.5 966.395,185.5 1035.95,185.5 " fill="none" id="Parameter-TestResult" style="stroke:#A80036;stroke-width:1.0;"/><polygon fill="#000000" points="898,177.0664,888.9549,174.1275,888.9549,180.0053,898,177.0664" style="stroke:#000000;stroke-width:1.0;"/><text fill="#000000" font-family="sans-serif" font-size="13" lengthAdjust="spacing" textLength="23" x="902" y="181.5669">has</text><text fill="#000000" font-family="sans-serif" font-size="13" lengthAdjust="spacing" textLength="8" x="773.6341" y="198.7237">1</text><text fill="#000000" font-family="sans-serif" font-size="13" lengthAdjust="spacing" textLength="8" x="1020.133" y="198.7088">1</text><!--MD5=[6eee883fdf517d3604e8bd0f2058e9aa]
link Company to Client--><path codeLine="56" d="M95.4214,185.5 C127.135,185.5 169.405,185.5 197.938,185.5 " fill="none" id="Company-Client" style="stroke:#A80036;stroke-width:1.0;"/><text fill="#000000" font-family="sans-serif" font-size="13" lengthAdjust="spacing" textLength="41" x="126" y="181.5669">knows</text><text fill="#000000" font-family="sans-serif" font-size="13" lengthAdjust="spacing" textLength="8" x="103.1386" y="198.7884">1</text><text fill="#000000" font-family="sans-serif" font-size="13" lengthAdjust="spacing" textLength="7" x="183.0494" y="199.2434">*</text><!--MD5=[cbdc139709b50dbcce8075ec01de81a0]
link NHSReport to NHSReportAPI--><path codeLine="57" d="M778.162,299.5 C846.314,299.5 958.461,299.5 1025.77,299.5 " fill="none" id="NHSReport-NHSReportAPI" style="stroke:#A80036;stroke-width:1.0;"/><polygon fill="#000000" points="828,291.0664,818.9549,288.1275,818.9549,294.0053,828,291.0664" style="stroke:#000000;stroke-width:1.0;"/><text fill="#000000" font-family="sans-serif" font-size="13" lengthAdjust="spacing" textLength="163" x="832" y="295.5669">are sent to the NHS using</text><text fill="#000000" font-family="sans-serif" font-size="13" lengthAdjust="spacing" textLength="7" x="786.1906" y="312.5489">*</text><text fill="#000000" font-family="sans-serif" font-size="13" lengthAdjust="spacing" textLength="8" x="1009.9249" y="312.5363">1</text><!--MD5=[da61729d7618e67e49ddfa5122106f2f]
link Test to NHSReport--><path codeLine="58" d="M471.296,204.325 C523.097,224.309 604.93,255.8792 659.993,277.1218 " fill="none" id="Test-NHSReport" style="stroke:#A80036;stroke-width:1.0;"/><text fill="#000000" font-family="sans-serif" font-size="13" lengthAdjust="spacing" textLength="117" x="502" y="211.5669">are used to define</text><text fill="#000000" font-family="sans-serif" font-size="13" lengthAdjust="spacing" textLength="7" x="479.1239" y="220.2377">*</text><text fill="#000000" font-family="sans-serif" font-size="13" lengthAdjust="spacing" textLength="8" x="643.9202" y="287.3034">1</text><!--MD5=[ec5cd37b05d16ec2154e2beec5586d76]
@startuml
hide methods
left to right direction
skinparam classAttributeIconSize 0




class Company{
  -name
}
class Test{
  -validationDate
  -testType
  -testResult
}

class TestResult{
  -result
  -usedMetrics
  -maxValue
  -minValue
}

class TestType{
  -code
  -description
  -collectingMethods
  -parameterCategories
}

class Parameter{
  -code
  -shortName
  -description
  -pc
  -testResult
}

class NHSReport {
  -nhsReportContent
}

class NHSReportAPI {
+writeUsingFileWriter(report)
}

class Client{
-name
}

Client "1" - -  "1" Test : owns >
Test "1" - -  "1" TestType : has defined >
Test "1" - -  "1..*" Parameter: contains >
Parameter "1" - - "1" TestResult : has >

Company "1" - - "*" Client : knows 
NHSReport "*" - - "1" NHSReportAPI : are sent to the NHS using >
Test "*" - - "1" NHSReport : are used to define
@enduml

PlantUML version 1.2021.7(Sun May 23 12:40:07 UTC 2021)
(GPL source distribution)
Java Runtime: Java(TM) SE Runtime Environment
JVM: Java HotSpot(TM) 64-Bit Server VM
Default Encoding: UTF-8
Language: en
Country: US
--></g></svg>