<?xml version="1.0" encoding="UTF-8" standalone="no"?><svg xmlns="http://www.w3.org/2000/svg" xmlns:xlink="http://www.w3.org/1999/xlink" contentScriptType="application/ecmascript" contentStyleType="text/css" height="1167px" preserveAspectRatio="none" style="width:424px;height:1167px;background:#FFFFFF;" version="1.1" viewBox="0 0 424 1167" width="424px" zoomAndPan="magnify"><defs><filter height="300%" id="f1wy9kg14t0wo8" width="300%" x="-1" y="-1"><feGaussianBlur result="blurOut" stdDeviation="2.0"/><feColorMatrix in="blurOut" result="blurOut2" type="matrix" values="0 0 0 0 0 0 0 0 0 0 0 0 0 0 0 0 0 0 .4 0"/><feOffset dx="4.0" dy="4.0" in="blurOut2" result="blurOut3"/><feBlend in="SourceGraphic" in2="blurOut3" mode="normal"/></filter></defs><g><!--MD5=[df38be88ccee13e832d6fafd6288a4ca]
class Test--><rect codeLine="2" fill="#FEFECE" filter="url(#f1wy9kg14t0wo8)" height="240.0703" id="Test" style="stroke:#A80036;stroke-width:1.5;" width="208" x="23.5" y="629"/><ellipse cx="110.25" cy="645" fill="#ADD1B2" rx="11" ry="11" style="stroke:#A80036;stroke-width:1.0;"/><path d="M112.5938,640.6719 C111.6563,640.2344 111.0625,640.0938 110.1875,640.0938 C107.5625,640.0938 105.5625,642.1719 105.5625,644.8906 L105.5625,646.0156 C105.5625,648.5938 107.6719,650.4844 110.5625,650.4844 C111.7813,650.4844 112.9375,650.1875 113.6875,649.6406 C114.2656,649.2344 114.5938,648.7813 114.5938,648.3906 C114.5938,647.9375 114.2031,647.5469 113.7344,647.5469 C113.5156,647.5469 113.3125,647.625 113.125,647.8125 C112.6719,648.2969 112.6719,648.2969 112.4844,648.3906 C112.0625,648.6563 111.375,648.7813 110.6094,648.7813 C108.5625,648.7813 107.2656,647.6875 107.2656,645.9844 L107.2656,644.8906 C107.2656,643.1094 108.5156,641.7969 110.25,641.7969 C110.8281,641.7969 111.4375,641.9531 111.9063,642.2031 C112.3906,642.4844 112.5625,642.7031 112.6563,643.1094 C112.7188,643.5156 112.75,643.6406 112.8906,643.7656 C113.0313,643.9063 113.2656,644.0156 113.4844,644.0156 C113.75,644.0156 114.0156,643.875 114.1875,643.6563 C114.2969,643.5 114.3281,643.3125 114.3281,642.8906 L114.3281,641.4688 C114.3281,641.0313 114.3125,640.9063 114.2188,640.75 C114.0625,640.4844 113.7813,640.3438 113.4844,640.3438 C113.1875,640.3438 112.9844,640.4375 112.7656,640.75 L112.5938,640.6719 Z " fill="#000000"/><text fill="#000000" font-family="sans-serif" font-size="12" lengthAdjust="spacing" textLength="26" x="130.75" y="649.1543">Test</text><line style="stroke:#A80036;stroke-width:1.5;" x1="24.5" x2="230.5" y1="661" y2="661"/><text fill="#000000" font-family="sans-serif" font-size="11" lengthAdjust="spacing" textLength="9" x="29.5" y="675.2104">...</text><text fill="#000000" font-family="sans-serif" font-size="11" lengthAdjust="spacing" textLength="35" x="29.5" y="688.0151">-client</text><text fill="#000000" font-family="sans-serif" font-size="11" lengthAdjust="spacing" textLength="38" x="29.5" y="700.8198">-status</text><text fill="#000000" font-family="sans-serif" font-size="11" lengthAdjust="spacing" textLength="96" x="29.5" y="713.6245">-registrationDate</text><text fill="#000000" font-family="sans-serif" font-size="11" lengthAdjust="spacing" textLength="130" x="29.5" y="726.4292">-sampleCollectionDate</text><text fill="#000000" font-family="sans-serif" font-size="11" lengthAdjust="spacing" textLength="130" x="29.5" y="739.2339">-chemicalAnalysisDate</text><text fill="#000000" font-family="sans-serif" font-size="11" lengthAdjust="spacing" textLength="87" x="29.5" y="752.0386">-DiagnosisDate</text><line style="stroke:#A80036;stroke-width:1.5;" x1="24.5" x2="230.5" y1="758.6328" y2="758.6328"/><text fill="#000000" font-family="sans-serif" font-size="11" lengthAdjust="spacing" textLength="131" x="29.5" y="772.8433">+getRegistrationDate()</text><text fill="#000000" font-family="sans-serif" font-size="11" lengthAdjust="spacing" textLength="164" x="29.5" y="785.6479">+getSampleCollectionDate()</text><text fill="#000000" font-family="sans-serif" font-size="11" lengthAdjust="spacing" textLength="164" x="29.5" y="798.4526">+getChemicalAnalysisDate()</text><text fill="#000000" font-family="sans-serif" font-size="11" lengthAdjust="spacing" textLength="119" x="29.5" y="811.2573">+getDiagnosisDate()</text><text fill="#000000" font-family="sans-serif" font-size="11" lengthAdjust="spacing" textLength="69" x="29.5" y="824.062">+getClient()</text><text fill="#000000" font-family="sans-serif" font-size="11" lengthAdjust="spacing" textLength="61" x="29.5" y="836.8667">+toString()</text><text fill="#000000" font-family="sans-serif" font-size="11" lengthAdjust="spacing" textLength="119" x="29.5" y="849.6714">+setValidationDate()</text><text fill="#000000" font-family="sans-serif" font-size="11" lengthAdjust="spacing" textLength="196" x="29.5" y="862.4761">+sendTestCompletedNotification()</text><!--MD5=[0f6f7964b844a64b0496af0dda7914bd]
class TestStore--><rect codeLine="19" fill="#FEFECE" filter="url(#f1wy9kg14t0wo8)" height="99.2188" id="TestStore" style="stroke:#A80036;stroke-width:1.5;" width="294" x="116.5" y="453"/><ellipse cx="229.75" cy="469" fill="#ADD1B2" rx="11" ry="11" style="stroke:#A80036;stroke-width:1.0;"/><path d="M232.0938,464.6719 C231.1563,464.2344 230.5625,464.0938 229.6875,464.0938 C227.0625,464.0938 225.0625,466.1719 225.0625,468.8906 L225.0625,470.0156 C225.0625,472.5938 227.1719,474.4844 230.0625,474.4844 C231.2813,474.4844 232.4375,474.1875 233.1875,473.6406 C233.7656,473.2344 234.0938,472.7813 234.0938,472.3906 C234.0938,471.9375 233.7031,471.5469 233.2344,471.5469 C233.0156,471.5469 232.8125,471.625 232.625,471.8125 C232.1719,472.2969 232.1719,472.2969 231.9844,472.3906 C231.5625,472.6563 230.875,472.7813 230.1094,472.7813 C228.0625,472.7813 226.7656,471.6875 226.7656,469.9844 L226.7656,468.8906 C226.7656,467.1094 228.0156,465.7969 229.75,465.7969 C230.3281,465.7969 230.9375,465.9531 231.4063,466.2031 C231.8906,466.4844 232.0625,466.7031 232.1563,467.1094 C232.2188,467.5156 232.25,467.6406 232.3906,467.7656 C232.5313,467.9063 232.7656,468.0156 232.9844,468.0156 C233.25,468.0156 233.5156,467.875 233.6875,467.6563 C233.7969,467.5 233.8281,467.3125 233.8281,466.8906 L233.8281,465.4688 C233.8281,465.0313 233.8125,464.9063 233.7188,464.75 C233.5625,464.4844 233.2813,464.3438 232.9844,464.3438 C232.6875,464.3438 232.4844,464.4375 232.2656,464.75 L232.0938,464.6719 Z " fill="#000000"/><text fill="#000000" font-family="sans-serif" font-size="12" lengthAdjust="spacing" textLength="59" x="250.25" y="473.1543">TestStore</text><line style="stroke:#A80036;stroke-width:1.5;" x1="117.5" x2="409.5" y1="485" y2="485"/><text fill="#000000" font-family="sans-serif" font-size="11" lengthAdjust="spacing" textLength="45" x="122.5" y="499.2104">-testList</text><line style="stroke:#A80036;stroke-width:1.5;" x1="117.5" x2="409.5" y1="505.8047" y2="505.8047"/><text fill="#000000" font-family="sans-serif" font-size="11" lengthAdjust="spacing" textLength="171" x="122.5" y="520.0151">+isTestReadyToBeValidated()</text><text fill="#000000" font-family="sans-serif" font-size="11" lengthAdjust="spacing" textLength="135" x="122.5" y="532.8198">+getUnvalidatedTests()</text><text fill="#000000" font-family="sans-serif" font-size="11" lengthAdjust="spacing" textLength="282" x="122.5" y="545.6245">+validateTests(lUnvalidatedTests,validationDate)</text><!--MD5=[02e4b9b7573f1156f41e60aa5b4e25a4]
class Company--><rect codeLine="25" fill="#FEFECE" filter="url(#f1wy9kg14t0wo8)" height="73.6094" id="Company" style="stroke:#A80036;stroke-width:1.5;" width="107" x="210" y="302"/><ellipse cx="233.55" cy="318" fill="#ADD1B2" rx="11" ry="11" style="stroke:#A80036;stroke-width:1.0;"/><path d="M235.8938,313.6719 C234.9563,313.2344 234.3625,313.0938 233.4875,313.0938 C230.8625,313.0938 228.8625,315.1719 228.8625,317.8906 L228.8625,319.0156 C228.8625,321.5938 230.9719,323.4844 233.8625,323.4844 C235.0813,323.4844 236.2375,323.1875 236.9875,322.6406 C237.5656,322.2344 237.8938,321.7813 237.8938,321.3906 C237.8938,320.9375 237.5031,320.5469 237.0344,320.5469 C236.8156,320.5469 236.6125,320.625 236.425,320.8125 C235.9719,321.2969 235.9719,321.2969 235.7844,321.3906 C235.3625,321.6563 234.675,321.7813 233.9094,321.7813 C231.8625,321.7813 230.5656,320.6875 230.5656,318.9844 L230.5656,317.8906 C230.5656,316.1094 231.8156,314.7969 233.55,314.7969 C234.1281,314.7969 234.7375,314.9531 235.2063,315.2031 C235.6906,315.4844 235.8625,315.7031 235.9563,316.1094 C236.0188,316.5156 236.05,316.6406 236.1906,316.7656 C236.3313,316.9063 236.5656,317.0156 236.7844,317.0156 C237.05,317.0156 237.3156,316.875 237.4875,316.6563 C237.5969,316.5 237.6281,316.3125 237.6281,315.8906 L237.6281,314.4688 C237.6281,314.0313 237.6125,313.9063 237.5188,313.75 C237.3625,313.4844 237.0813,313.3438 236.7844,313.3438 C236.4875,313.3438 236.2844,313.4375 236.0656,313.75 L235.8938,313.6719 Z " fill="#000000"/><text fill="#000000" font-family="sans-serif" font-size="12" lengthAdjust="spacing" textLength="56" x="249.45" y="322.1543">Company</text><line style="stroke:#A80036;stroke-width:1.5;" x1="211" x2="316" y1="334" y2="334"/><text fill="#000000" font-family="sans-serif" font-size="11" lengthAdjust="spacing" textLength="70" x="216" y="348.2104">-designation</text><line style="stroke:#A80036;stroke-width:1.5;" x1="211" x2="316" y1="354.8047" y2="354.8047"/><text fill="#000000" font-family="sans-serif" font-size="11" lengthAdjust="spacing" textLength="95" x="216" y="369.0151">+getTestStore();</text><!--MD5=[aac44b466456b05e2cd81996831d2f6a]
class ValidateWorkUI--><rect codeLine="29" fill="#FEFECE" filter="url(#f1wy9kg14t0wo8)" height="48" id="ValidateWorkUI" style="stroke:#A80036;stroke-width:1.5;" width="124" x="94.5" y="7"/><ellipse cx="109.5" cy="23" fill="#ADD1B2" rx="11" ry="11" style="stroke:#A80036;stroke-width:1.0;"/><path d="M111.8438,18.6719 C110.9063,18.2344 110.3125,18.0938 109.4375,18.0938 C106.8125,18.0938 104.8125,20.1719 104.8125,22.8906 L104.8125,24.0156 C104.8125,26.5938 106.9219,28.4844 109.8125,28.4844 C111.0313,28.4844 112.1875,28.1875 112.9375,27.6406 C113.5156,27.2344 113.8438,26.7813 113.8438,26.3906 C113.8438,25.9375 113.4531,25.5469 112.9844,25.5469 C112.7656,25.5469 112.5625,25.625 112.375,25.8125 C111.9219,26.2969 111.9219,26.2969 111.7344,26.3906 C111.3125,26.6563 110.625,26.7813 109.8594,26.7813 C107.8125,26.7813 106.5156,25.6875 106.5156,23.9844 L106.5156,22.8906 C106.5156,21.1094 107.7656,19.7969 109.5,19.7969 C110.0781,19.7969 110.6875,19.9531 111.1563,20.2031 C111.6406,20.4844 111.8125,20.7031 111.9063,21.1094 C111.9688,21.5156 112,21.6406 112.1406,21.7656 C112.2813,21.9063 112.5156,22.0156 112.7344,22.0156 C113,22.0156 113.2656,21.875 113.4375,21.6563 C113.5469,21.5 113.5781,21.3125 113.5781,20.8906 L113.5781,19.4688 C113.5781,19.0313 113.5625,18.9063 113.4688,18.75 C113.3125,18.4844 113.0313,18.3438 112.7344,18.3438 C112.4375,18.3438 112.2344,18.4375 112.0156,18.75 L111.8438,18.6719 Z " fill="#000000"/><text fill="#000000" font-family="sans-serif" font-size="12" lengthAdjust="spacing" textLength="92" x="123.5" y="27.1543">ValidateWorkUI</text><line style="stroke:#A80036;stroke-width:1.5;" x1="95.5" x2="217.5" y1="39" y2="39"/><line style="stroke:#A80036;stroke-width:1.5;" x1="95.5" x2="217.5" y1="47" y2="47"/><!--MD5=[b5416685e7a8a51f2eeb2ec2a6d13f1a]
class ValidateWorkController--><rect codeLine="31" fill="#FEFECE" filter="url(#f1wy9kg14t0wo8)" height="124.8281" id="ValidateWorkController" style="stroke:#A80036;stroke-width:1.5;" width="271" x="21" y="116"/><ellipse cx="82.75" cy="132" fill="#ADD1B2" rx="11" ry="11" style="stroke:#A80036;stroke-width:1.0;"/><path d="M85.0938,127.6719 C84.1563,127.2344 83.5625,127.0938 82.6875,127.0938 C80.0625,127.0938 78.0625,129.1719 78.0625,131.8906 L78.0625,133.0156 C78.0625,135.5938 80.1719,137.4844 83.0625,137.4844 C84.2813,137.4844 85.4375,137.1875 86.1875,136.6406 C86.7656,136.2344 87.0938,135.7813 87.0938,135.3906 C87.0938,134.9375 86.7031,134.5469 86.2344,134.5469 C86.0156,134.5469 85.8125,134.625 85.625,134.8125 C85.1719,135.2969 85.1719,135.2969 84.9844,135.3906 C84.5625,135.6563 83.875,135.7813 83.1094,135.7813 C81.0625,135.7813 79.7656,134.6875 79.7656,132.9844 L79.7656,131.8906 C79.7656,130.1094 81.0156,128.7969 82.75,128.7969 C83.3281,128.7969 83.9375,128.9531 84.4063,129.2031 C84.8906,129.4844 85.0625,129.7031 85.1563,130.1094 C85.2188,130.5156 85.25,130.6406 85.3906,130.7656 C85.5313,130.9063 85.7656,131.0156 85.9844,131.0156 C86.25,131.0156 86.5156,130.875 86.6875,130.6563 C86.7969,130.5 86.8281,130.3125 86.8281,129.8906 L86.8281,128.4688 C86.8281,128.0313 86.8125,127.9063 86.7188,127.75 C86.5625,127.4844 86.2813,127.3438 85.9844,127.3438 C85.6875,127.3438 85.4844,127.4375 85.2656,127.75 L85.0938,127.6719 Z " fill="#000000"/><text fill="#000000" font-family="sans-serif" font-size="12" lengthAdjust="spacing" textLength="139" x="103.25" y="136.1543">ValidateWorkController</text><line style="stroke:#A80036;stroke-width:1.5;" x1="22" x2="291" y1="148" y2="148"/><line style="stroke:#A80036;stroke-width:1.5;" x1="22" x2="291" y1="156" y2="156"/><text fill="#000000" font-family="sans-serif" font-size="11" lengthAdjust="spacing" textLength="135" x="27" y="170.2104">+getUnvalidatedTests()</text><text fill="#000000" font-family="sans-serif" font-size="11" lengthAdjust="spacing" textLength="145" x="27" y="183.0151">+showUnvalidatedTests()</text><text fill="#000000" font-family="sans-serif" font-size="11" lengthAdjust="spacing" textLength="216" x="27" y="195.8198">+askConfirmation(selectedTestString)</text><text fill="#000000" font-family="sans-serif" font-size="11" lengthAdjust="spacing" textLength="259" x="27" y="208.6245">+getTestsToBeValidated(selectedTestString)</text><text fill="#000000" font-family="sans-serif" font-size="11" lengthAdjust="spacing" textLength="237" x="27" y="221.4292">+showSelectedTests(selectedTestString)</text><text fill="#000000" font-family="sans-serif" font-size="11" lengthAdjust="spacing" textLength="202" x="27" y="234.2339">+validateTests(selectedTestString)</text><!--MD5=[6b9c87d147b597fd90aaec39e153c56a]
class EmailNotificationSender--><rect codeLine="39" fill="#FEFECE" filter="url(#f1wy9kg14t0wo8)" height="60.8047" id="EmailNotificationSender" style="stroke:#A80036;stroke-width:1.5;" width="241" x="7" y="1093"/><ellipse cx="52.75" cy="1109" fill="#ADD1B2" rx="11" ry="11" style="stroke:#A80036;stroke-width:1.0;"/><path d="M55.0938,1104.6719 C54.1563,1104.2344 53.5625,1104.0938 52.6875,1104.0938 C50.0625,1104.0938 48.0625,1106.1719 48.0625,1108.8906 L48.0625,1110.0156 C48.0625,1112.5938 50.1719,1114.4844 53.0625,1114.4844 C54.2813,1114.4844 55.4375,1114.1875 56.1875,1113.6406 C56.7656,1113.2344 57.0938,1112.7813 57.0938,1112.3906 C57.0938,1111.9375 56.7031,1111.5469 56.2344,1111.5469 C56.0156,1111.5469 55.8125,1111.625 55.625,1111.8125 C55.1719,1112.2969 55.1719,1112.2969 54.9844,1112.3906 C54.5625,1112.6563 53.875,1112.7813 53.1094,1112.7813 C51.0625,1112.7813 49.7656,1111.6875 49.7656,1109.9844 L49.7656,1108.8906 C49.7656,1107.1094 51.0156,1105.7969 52.75,1105.7969 C53.3281,1105.7969 53.9375,1105.9531 54.4063,1106.2031 C54.8906,1106.4844 55.0625,1106.7031 55.1563,1107.1094 C55.2188,1107.5156 55.25,1107.6406 55.3906,1107.7656 C55.5313,1107.9063 55.7656,1108.0156 55.9844,1108.0156 C56.25,1108.0156 56.5156,1107.875 56.6875,1107.6563 C56.7969,1107.5 56.8281,1107.3125 56.8281,1106.8906 L56.8281,1105.4688 C56.8281,1105.0313 56.8125,1104.9063 56.7188,1104.75 C56.5625,1104.4844 56.2813,1104.3438 55.9844,1104.3438 C55.6875,1104.3438 55.4844,1104.4375 55.2656,1104.75 L55.0938,1104.6719 Z " fill="#000000"/><text fill="#000000" font-family="sans-serif" font-size="12" lengthAdjust="spacing" textLength="141" x="73.25" y="1113.1543">EmailNotificationSender</text><line style="stroke:#A80036;stroke-width:1.5;" x1="8" x2="247" y1="1125" y2="1125"/><line style="stroke:#A80036;stroke-width:1.5;" x1="8" x2="247" y1="1133" y2="1133"/><text fill="#000000" font-family="sans-serif" font-size="11" lengthAdjust="spacing" textLength="229" x="13" y="1147.2104">+sendTestCompletedNotification(Client)</text><!--MD5=[ed6624c6556d5e7b1bd23032162d20b7]
class Client--><rect codeLine="42" fill="#FEFECE" filter="url(#f1wy9kg14t0wo8)" height="86.4141" id="Client" style="stroke:#A80036;stroke-width:1.5;" width="65" x="95" y="946"/><ellipse cx="110" cy="962" fill="#ADD1B2" rx="11" ry="11" style="stroke:#A80036;stroke-width:1.0;"/><path d="M112.3438,957.6719 C111.4063,957.2344 110.8125,957.0938 109.9375,957.0938 C107.3125,957.0938 105.3125,959.1719 105.3125,961.8906 L105.3125,963.0156 C105.3125,965.5938 107.4219,967.4844 110.3125,967.4844 C111.5313,967.4844 112.6875,967.1875 113.4375,966.6406 C114.0156,966.2344 114.3438,965.7813 114.3438,965.3906 C114.3438,964.9375 113.9531,964.5469 113.4844,964.5469 C113.2656,964.5469 113.0625,964.625 112.875,964.8125 C112.4219,965.2969 112.4219,965.2969 112.2344,965.3906 C111.8125,965.6563 111.125,965.7813 110.3594,965.7813 C108.3125,965.7813 107.0156,964.6875 107.0156,962.9844 L107.0156,961.8906 C107.0156,960.1094 108.2656,958.7969 110,958.7969 C110.5781,958.7969 111.1875,958.9531 111.6563,959.2031 C112.1406,959.4844 112.3125,959.7031 112.4063,960.1094 C112.4688,960.5156 112.5,960.6406 112.6406,960.7656 C112.7813,960.9063 113.0156,961.0156 113.2344,961.0156 C113.5,961.0156 113.7656,960.875 113.9375,960.6563 C114.0469,960.5 114.0781,960.3125 114.0781,959.8906 L114.0781,958.4688 C114.0781,958.0313 114.0625,957.9063 113.9688,957.75 C113.8125,957.4844 113.5313,957.3438 113.2344,957.3438 C112.9375,957.3438 112.7344,957.4375 112.5156,957.75 L112.3438,957.6719 Z " fill="#000000"/><text fill="#000000" font-family="sans-serif" font-size="12" lengthAdjust="spacing" textLength="33" x="124" y="966.1543">Client</text><line style="stroke:#A80036;stroke-width:1.5;" x1="96" x2="159" y1="978" y2="978"/><text fill="#000000" font-family="sans-serif" font-size="11" lengthAdjust="spacing" textLength="9" x="101" y="992.2104">...</text><text fill="#000000" font-family="sans-serif" font-size="11" lengthAdjust="spacing" textLength="37" x="101" y="1005.0151">-name</text><text fill="#000000" font-family="sans-serif" font-size="11" lengthAdjust="spacing" textLength="36" x="101" y="1017.8198">-email</text><line style="stroke:#A80036;stroke-width:1.5;" x1="96" x2="159" y1="1024.4141" y2="1024.4141"/><!--MD5=[b8bd95e3f6740b08f0bb61da85ab4767]
link ValidateWorkUI to ValidateWorkController--><path codeLine="47" d="M156.5,55.05 C156.5,70.2 156.5,90.84 156.5,110.87 " fill="none" id="ValidateWorkUI-to-ValidateWorkController" style="stroke:#A80036;stroke-width:1.0;stroke-dasharray:7.0,7.0;"/><polygon fill="#A80036" points="156.5,115.94,160.5,106.94,156.5,110.94,152.5,106.94,156.5,115.94" style="stroke:#A80036;stroke-width:1.0;"/><!--MD5=[50d8ceb658c65cdc3fa2f95f4fab6e4c]
link ValidateWorkController to Company--><path codeLine="48" d="M198.175,241.234 C210.942,260.145 224.654,280.457 236.203,297.564 " fill="none" id="ValidateWorkController-to-Company" style="stroke:#A80036;stroke-width:1.0;stroke-dasharray:7.0,7.0;"/><polygon fill="#A80036" points="239.09,301.842,237.3682,292.1448,236.2918,297.6983,230.7383,296.6219,239.09,301.842" style="stroke:#A80036;stroke-width:1.0;"/><!--MD5=[7f6cf7f175eae0af66201860de5de971]
link Company to TestStore--><path codeLine="49" d="M263.5,376.244 C263.5,397.254 263.5,424.109 263.5,447.561 " fill="none" id="Company-to-TestStore" style="stroke:#A80036;stroke-width:1.0;"/><polygon fill="#A80036" points="263.5,452.82,267.5,443.82,263.5,447.82,259.5,443.82,263.5,452.82" style="stroke:#A80036;stroke-width:1.0;"/><text fill="#000000" font-family="sans-serif" font-size="13" lengthAdjust="spacing" textLength="30" x="264.5" y="419.0669">uses</text><text fill="#000000" font-family="sans-serif" font-size="13" lengthAdjust="spacing" textLength="8" x="254.8375" y="395.765">1</text><text fill="#000000" font-family="sans-serif" font-size="13" lengthAdjust="spacing" textLength="8" x="254.9375" y="441.8399">1</text><!--MD5=[b0f4f6db8206580012ef9cd998ed01c5]
link TestStore to Test--><path codeLine="50" d="M236.468,552.098 C224.788,573.096 210.538,598.716 196.243,624.414 " fill="none" id="TestStore-to-Test" style="stroke:#A80036;stroke-width:1.0;"/><polygon fill="#A80036" points="193.762,628.874,201.6317,622.9522,196.1919,624.5042,194.64,619.0644,193.762,628.874" style="stroke:#A80036;stroke-width:1.0;"/><text fill="#000000" font-family="sans-serif" font-size="13" lengthAdjust="spacing" textLength="54" x="221.5" y="595.0669">contains</text><text fill="#000000" font-family="sans-serif" font-size="13" lengthAdjust="spacing" textLength="8" x="224.1041" y="572.1883">1</text><text fill="#000000" font-family="sans-serif" font-size="13" lengthAdjust="spacing" textLength="7" x="190.7827" y="617.7669">*</text><!--MD5=[d87421f406902a4d5ef5a680b014dd1f]
link ValidateWorkController to TestStore--><path codeLine="51" d="M162.436,241.081 C167.53,280.521 176.65,332.312 192.5,376 C201.584,401.04 215.383,426.946 228.408,448.673 " fill="none" id="ValidateWorkController-to-TestStore" style="stroke:#A80036;stroke-width:1.0;stroke-dasharray:7.0,7.0;"/><polygon fill="#A80036" points="231.001,452.961,229.767,443.1898,228.4138,448.6824,222.9212,447.3292,231.001,452.961" style="stroke:#A80036;stroke-width:1.0;"/><!--MD5=[19c2fef5f1991f130f01593fb67b1f56]
link ValidateWorkController to Test--><path codeLine="52" d="M139.58,241.097 C125.387,296.146 106.2327,379.262 98.5,453 C93.911,496.76 95.2712,508.119 98.5,552 C100.2144,575.3 103.0604,600.033 106.3168,623.798 " fill="none" id="ValidateWorkController-to-Test" style="stroke:#A80036;stroke-width:1.0;stroke-dasharray:7.0,7.0;"/><polygon fill="#A80036" points="107.018,628.854,109.7457,619.3904,106.3322,623.9013,101.8213,620.4877,107.018,628.854" style="stroke:#A80036;stroke-width:1.0;"/><!--MD5=[3994f36c72829dbcddd1cf7021dddf61]
link Test to Client--><path codeLine="53" d="M127.5,869 C127.5,894.497 127.5,919.995 127.5,940.81 " fill="none" id="Test-to-Client" style="stroke:#A80036;stroke-width:1.0;"/><polygon fill="#A80036" points="127.5,945.998,131.5,936.998,127.5,940.998,123.5,936.998,127.5,945.998" style="stroke:#A80036;stroke-width:1.0;"/><text fill="#000000" font-family="sans-serif" font-size="13" lengthAdjust="spacing" textLength="41" x="128.5" y="912.0669">knows</text><text fill="#000000" font-family="sans-serif" font-size="13" lengthAdjust="spacing" textLength="8" x="119.2438" y="889.2369">1</text><text fill="#000000" font-family="sans-serif" font-size="13" lengthAdjust="spacing" textLength="8" x="118.8625" y="934.9937">1</text><!--MD5=[91506dcfcad906cd2d5ec1489e38a79a]
link Client to EmailNotificationSender--><path codeLine="54" d="M127.5,1032.288 C127.5,1050.134 127.5,1070.6597 127.5,1087.6198 " fill="none" id="Client-to-EmailNotificationSender" style="stroke:#A80036;stroke-width:1.0;stroke-dasharray:7.0,7.0;"/><polygon fill="#A80036" points="127.5,1092.7618,131.5,1083.7618,127.5,1087.7618,123.5,1083.7618,127.5,1092.7618" style="stroke:#A80036;stroke-width:1.0;"/><!--MD5=[569b35c36c3be377f25645a372908ad4]
@startuml
skinparam classAttributeIconSize 0
Class Test{
...
-client
-status
-registrationDate
-sampleCollectionDate
-chemicalAnalysisDate
-DiagnosisDate
+getRegistrationDate()
+getSampleCollectionDate()
+getChemicalAnalysisDate()
+getDiagnosisDate()
+getClient()
+toString()
+setValidationDate()
+sendTestCompletedNotification()
}
Class TestStore{
-testList
+isTestReadyToBeValidated()
+getUnvalidatedTests()
+validateTests(lUnvalidatedTests,validationDate)
}
Class Company{
-designation
+getTestStore();
}
Class ValidateWorkUI{
}
Class ValidateWorkController{
+getUnvalidatedTests()
+showUnvalidatedTests()
+askConfirmation(selectedTestString)
+getTestsToBeValidated(selectedTestString)
+showSelectedTests(selectedTestString)
+validateTests(selectedTestString)
}
Class EmailNotificationSender{
+sendTestCompletedNotification(Client)
}
Class Client{
...
-name
-email
}
ValidateWorkUI ..> ValidateWorkController
ValidateWorkController..> Company
Company "1" - -> "1" TestStore : uses
TestStore "1" - ->"*" Test : contains
ValidateWorkController ..> TestStore
ValidateWorkController ..> Test
Test"1" - ->"1"Client :knows
Client ..> EmailNotificationSender
@enduml

PlantUML version 1.2021.7(Sun May 23 12:40:07 UTC 2021)
(GPL source distribution)
Java Runtime: Java(TM) SE Runtime Environment
JVM: Java HotSpot(TM) 64-Bit Server VM
Default Encoding: UTF-8
Language: en
Country: US
--></g></svg>