<?xml version="1.0" encoding="UTF-8" standalone="no"?><svg xmlns="http://www.w3.org/2000/svg" xmlns:xlink="http://www.w3.org/1999/xlink" contentScriptType="application/ecmascript" contentStyleType="text/css" height="439px" preserveAspectRatio="none" style="width:958px;height:439px;background:#FFFFFF;" version="1.1" viewBox="0 0 958 439" width="958px" zoomAndPan="magnify"><defs><filter height="300%" id="fsxnu1n6v6cae" width="300%" x="-1" y="-1"><feGaussianBlur result="blurOut" stdDeviation="2.0"/><feColorMatrix in="blurOut" result="blurOut2" type="matrix" values="0 0 0 0 0 0 0 0 0 0 0 0 0 0 0 0 0 0 .4 0"/><feOffset dx="4.0" dy="4.0" in="blurOut2" result="blurOut3"/><feBlend in="SourceGraphic" in2="blurOut3" mode="normal"/></filter></defs><g><!--MD5=[02e4b9b7573f1156f41e60aa5b4e25a4]
class Company--><rect codeLine="8" fill="#FEFECE" filter="url(#fsxnu1n6v6cae)" height="52.8047" id="Company" style="stroke:#A80036;stroke-width:1.5;" width="88" x="7" y="139"/><ellipse cx="22" cy="155" fill="#ADD1B2" rx="11" ry="11" style="stroke:#A80036;stroke-width:1.0;"/><path d="M24.3438,150.6719 C23.4063,150.2344 22.8125,150.0938 21.9375,150.0938 C19.3125,150.0938 17.3125,152.1719 17.3125,154.8906 L17.3125,156.0156 C17.3125,158.5938 19.4219,160.4844 22.3125,160.4844 C23.5313,160.4844 24.6875,160.1875 25.4375,159.6406 C26.0156,159.2344 26.3438,158.7813 26.3438,158.3906 C26.3438,157.9375 25.9531,157.5469 25.4844,157.5469 C25.2656,157.5469 25.0625,157.625 24.875,157.8125 C24.4219,158.2969 24.4219,158.2969 24.2344,158.3906 C23.8125,158.6563 23.125,158.7813 22.3594,158.7813 C20.3125,158.7813 19.0156,157.6875 19.0156,155.9844 L19.0156,154.8906 C19.0156,153.1094 20.2656,151.7969 22,151.7969 C22.5781,151.7969 23.1875,151.9531 23.6563,152.2031 C24.1406,152.4844 24.3125,152.7031 24.4063,153.1094 C24.4688,153.5156 24.5,153.6406 24.6406,153.7656 C24.7813,153.9063 25.0156,154.0156 25.2344,154.0156 C25.5,154.0156 25.7656,153.875 25.9375,153.6563 C26.0469,153.5 26.0781,153.3125 26.0781,152.8906 L26.0781,151.4688 C26.0781,151.0313 26.0625,150.9063 25.9688,150.75 C25.8125,150.4844 25.5313,150.3438 25.2344,150.3438 C24.9375,150.3438 24.7344,150.4375 24.5156,150.75 L24.3438,150.6719 Z " fill="#000000"/><text fill="#000000" font-family="sans-serif" font-size="12" lengthAdjust="spacing" textLength="56" x="36" y="159.1543">Company</text><line style="stroke:#A80036;stroke-width:1.5;" x1="8" x2="94" y1="171" y2="171"/><text fill="#000000" font-family="sans-serif" font-size="11" lengthAdjust="spacing" textLength="37" x="13" y="185.2104">-name</text><!--MD5=[df38be88ccee13e832d6fafd6288a4ca]
class Test--><rect codeLine="11" fill="#FEFECE" filter="url(#fsxnu1n6v6cae)" height="78.4141" id="Test" style="stroke:#A80036;stroke-width:1.5;" width="142" x="802" y="170.5"/><ellipse cx="855.75" cy="186.5" fill="#ADD1B2" rx="11" ry="11" style="stroke:#A80036;stroke-width:1.0;"/><path d="M858.0938,182.1719 C857.1563,181.7344 856.5625,181.5938 855.6875,181.5938 C853.0625,181.5938 851.0625,183.6719 851.0625,186.3906 L851.0625,187.5156 C851.0625,190.0938 853.1719,191.9844 856.0625,191.9844 C857.2813,191.9844 858.4375,191.6875 859.1875,191.1406 C859.7656,190.7344 860.0938,190.2813 860.0938,189.8906 C860.0938,189.4375 859.7031,189.0469 859.2344,189.0469 C859.0156,189.0469 858.8125,189.125 858.625,189.3125 C858.1719,189.7969 858.1719,189.7969 857.9844,189.8906 C857.5625,190.1563 856.875,190.2813 856.1094,190.2813 C854.0625,190.2813 852.7656,189.1875 852.7656,187.4844 L852.7656,186.3906 C852.7656,184.6094 854.0156,183.2969 855.75,183.2969 C856.3281,183.2969 856.9375,183.4531 857.4063,183.7031 C857.8906,183.9844 858.0625,184.2031 858.1563,184.6094 C858.2188,185.0156 858.25,185.1406 858.3906,185.2656 C858.5313,185.4063 858.7656,185.5156 858.9844,185.5156 C859.25,185.5156 859.5156,185.375 859.6875,185.1563 C859.7969,185 859.8281,184.8125 859.8281,184.3906 L859.8281,182.9688 C859.8281,182.5313 859.8125,182.4063 859.7188,182.25 C859.5625,181.9844 859.2813,181.8438 858.9844,181.8438 C858.6875,181.8438 858.4844,181.9375 858.2656,182.25 L858.0938,182.1719 Z " fill="#000000"/><text fill="#000000" font-family="sans-serif" font-size="12" lengthAdjust="spacing" textLength="26" x="876.25" y="190.6543">Test</text><line style="stroke:#A80036;stroke-width:1.5;" x1="803" x2="943" y1="202.5" y2="202.5"/><text fill="#000000" font-family="sans-serif" font-size="11" lengthAdjust="spacing" textLength="121" x="808" y="216.7104">-testRegistrationDate</text><text fill="#000000" font-family="sans-serif" font-size="11" lengthAdjust="spacing" textLength="130" x="808" y="229.5151">-chemicalAnalysisDate</text><text fill="#000000" font-family="sans-serif" font-size="11" lengthAdjust="spacing" textLength="85" x="808" y="242.3198">-diagnosisDate</text><!--MD5=[03960189e81aa2c066c762ffabbee709]
class Receptionist--><rect codeLine="16" fill="#FEFECE" filter="url(#fsxnu1n6v6cae)" height="52.8047" id="Receptionist" style="stroke:#A80036;stroke-width:1.5;" width="106" x="277" y="7"/><ellipse cx="292" cy="23" fill="#ADD1B2" rx="11" ry="11" style="stroke:#A80036;stroke-width:1.0;"/><path d="M294.3438,18.6719 C293.4063,18.2344 292.8125,18.0938 291.9375,18.0938 C289.3125,18.0938 287.3125,20.1719 287.3125,22.8906 L287.3125,24.0156 C287.3125,26.5938 289.4219,28.4844 292.3125,28.4844 C293.5313,28.4844 294.6875,28.1875 295.4375,27.6406 C296.0156,27.2344 296.3438,26.7813 296.3438,26.3906 C296.3438,25.9375 295.9531,25.5469 295.4844,25.5469 C295.2656,25.5469 295.0625,25.625 294.875,25.8125 C294.4219,26.2969 294.4219,26.2969 294.2344,26.3906 C293.8125,26.6563 293.125,26.7813 292.3594,26.7813 C290.3125,26.7813 289.0156,25.6875 289.0156,23.9844 L289.0156,22.8906 C289.0156,21.1094 290.2656,19.7969 292,19.7969 C292.5781,19.7969 293.1875,19.9531 293.6563,20.2031 C294.1406,20.4844 294.3125,20.7031 294.4063,21.1094 C294.4688,21.5156 294.5,21.6406 294.6406,21.7656 C294.7813,21.9063 295.0156,22.0156 295.2344,22.0156 C295.5,22.0156 295.7656,21.875 295.9375,21.6563 C296.0469,21.5 296.0781,21.3125 296.0781,20.8906 L296.0781,19.4688 C296.0781,19.0313 296.0625,18.9063 295.9688,18.75 C295.8125,18.4844 295.5313,18.3438 295.2344,18.3438 C294.9375,18.3438 294.7344,18.4375 294.5156,18.75 L294.3438,18.6719 Z " fill="#000000"/><text fill="#000000" font-family="sans-serif" font-size="12" lengthAdjust="spacing" textLength="74" x="306" y="27.1543">Receptionist</text><line style="stroke:#A80036;stroke-width:1.5;" x1="278" x2="382" y1="39" y2="39"/><text fill="#000000" font-family="sans-serif" font-size="11" lengthAdjust="spacing" textLength="16" x="283" y="53.2104">-ID</text><!--MD5=[012ee2a8bf3ae2b319009b06f951c2e5]
class ClinicalChemistryTechnologist--><rect codeLine="20" fill="#FEFECE" filter="url(#fsxnu1n6v6cae)" height="52.8047" id="ClinicalChemistryTechnologist" style="stroke:#A80036;stroke-width:1.5;" width="210" x="225" y="95"/><ellipse cx="240" cy="111" fill="#ADD1B2" rx="11" ry="11" style="stroke:#A80036;stroke-width:1.0;"/><path d="M242.3438,106.6719 C241.4063,106.2344 240.8125,106.0938 239.9375,106.0938 C237.3125,106.0938 235.3125,108.1719 235.3125,110.8906 L235.3125,112.0156 C235.3125,114.5938 237.4219,116.4844 240.3125,116.4844 C241.5313,116.4844 242.6875,116.1875 243.4375,115.6406 C244.0156,115.2344 244.3438,114.7813 244.3438,114.3906 C244.3438,113.9375 243.9531,113.5469 243.4844,113.5469 C243.2656,113.5469 243.0625,113.625 242.875,113.8125 C242.4219,114.2969 242.4219,114.2969 242.2344,114.3906 C241.8125,114.6563 241.125,114.7813 240.3594,114.7813 C238.3125,114.7813 237.0156,113.6875 237.0156,111.9844 L237.0156,110.8906 C237.0156,109.1094 238.2656,107.7969 240,107.7969 C240.5781,107.7969 241.1875,107.9531 241.6563,108.2031 C242.1406,108.4844 242.3125,108.7031 242.4063,109.1094 C242.4688,109.5156 242.5,109.6406 242.6406,109.7656 C242.7813,109.9063 243.0156,110.0156 243.2344,110.0156 C243.5,110.0156 243.7656,109.875 243.9375,109.6563 C244.0469,109.5 244.0781,109.3125 244.0781,108.8906 L244.0781,107.4688 C244.0781,107.0313 244.0625,106.9063 243.9688,106.75 C243.8125,106.4844 243.5313,106.3438 243.2344,106.3438 C242.9375,106.3438 242.7344,106.4375 242.5156,106.75 L242.3438,106.6719 Z " fill="#000000"/><text fill="#000000" font-family="sans-serif" font-size="12" lengthAdjust="spacing" textLength="178" x="254" y="115.1543">ClinicalChemistryTechnologist</text><line style="stroke:#A80036;stroke-width:1.5;" x1="226" x2="434" y1="127" y2="127"/><text fill="#000000" font-family="sans-serif" font-size="11" lengthAdjust="spacing" textLength="16" x="231" y="141.2104">-ID</text><!--MD5=[7d96fd15f3014691d2fcaf89c5791e2a]
class SpecialistDoctor--><rect codeLine="24" fill="#FEFECE" filter="url(#fsxnu1n6v6cae)" height="52.8047" id="SpecialistDoctor" style="stroke:#A80036;stroke-width:1.5;" width="131" x="264.5" y="183"/><ellipse cx="279.5" cy="199" fill="#ADD1B2" rx="11" ry="11" style="stroke:#A80036;stroke-width:1.0;"/><path d="M281.8438,194.6719 C280.9063,194.2344 280.3125,194.0938 279.4375,194.0938 C276.8125,194.0938 274.8125,196.1719 274.8125,198.8906 L274.8125,200.0156 C274.8125,202.5938 276.9219,204.4844 279.8125,204.4844 C281.0313,204.4844 282.1875,204.1875 282.9375,203.6406 C283.5156,203.2344 283.8438,202.7813 283.8438,202.3906 C283.8438,201.9375 283.4531,201.5469 282.9844,201.5469 C282.7656,201.5469 282.5625,201.625 282.375,201.8125 C281.9219,202.2969 281.9219,202.2969 281.7344,202.3906 C281.3125,202.6563 280.625,202.7813 279.8594,202.7813 C277.8125,202.7813 276.5156,201.6875 276.5156,199.9844 L276.5156,198.8906 C276.5156,197.1094 277.7656,195.7969 279.5,195.7969 C280.0781,195.7969 280.6875,195.9531 281.1563,196.2031 C281.6406,196.4844 281.8125,196.7031 281.9063,197.1094 C281.9688,197.5156 282,197.6406 282.1406,197.7656 C282.2813,197.9063 282.5156,198.0156 282.7344,198.0156 C283,198.0156 283.2656,197.875 283.4375,197.6563 C283.5469,197.5 283.5781,197.3125 283.5781,196.8906 L283.5781,195.4688 C283.5781,195.0313 283.5625,194.9063 283.4688,194.75 C283.3125,194.4844 283.0313,194.3438 282.7344,194.3438 C282.4375,194.3438 282.2344,194.4375 282.0156,194.75 L281.8438,194.6719 Z " fill="#000000"/><text fill="#000000" font-family="sans-serif" font-size="12" lengthAdjust="spacing" textLength="99" x="293.5" y="203.1543">SpecialistDoctor</text><line style="stroke:#A80036;stroke-width:1.5;" x1="265.5" x2="394.5" y1="215" y2="215"/><text fill="#000000" font-family="sans-serif" font-size="11" lengthAdjust="spacing" textLength="16" x="270.5" y="229.2104">-ID</text><!--MD5=[052425de1c0eb6cc1c1b48342b0bb88f]
class LaboratoryCoordinator--><rect codeLine="27" fill="#FEFECE" filter="url(#fsxnu1n6v6cae)" height="52.8047" id="LaboratoryCoordinator" style="stroke:#A80036;stroke-width:1.5;" width="168" x="246" y="271"/><ellipse cx="261" cy="287" fill="#ADD1B2" rx="11" ry="11" style="stroke:#A80036;stroke-width:1.0;"/><path d="M263.3438,282.6719 C262.4063,282.2344 261.8125,282.0938 260.9375,282.0938 C258.3125,282.0938 256.3125,284.1719 256.3125,286.8906 L256.3125,288.0156 C256.3125,290.5938 258.4219,292.4844 261.3125,292.4844 C262.5313,292.4844 263.6875,292.1875 264.4375,291.6406 C265.0156,291.2344 265.3438,290.7813 265.3438,290.3906 C265.3438,289.9375 264.9531,289.5469 264.4844,289.5469 C264.2656,289.5469 264.0625,289.625 263.875,289.8125 C263.4219,290.2969 263.4219,290.2969 263.2344,290.3906 C262.8125,290.6563 262.125,290.7813 261.3594,290.7813 C259.3125,290.7813 258.0156,289.6875 258.0156,287.9844 L258.0156,286.8906 C258.0156,285.1094 259.2656,283.7969 261,283.7969 C261.5781,283.7969 262.1875,283.9531 262.6563,284.2031 C263.1406,284.4844 263.3125,284.7031 263.4063,285.1094 C263.4688,285.5156 263.5,285.6406 263.6406,285.7656 C263.7813,285.9063 264.0156,286.0156 264.2344,286.0156 C264.5,286.0156 264.7656,285.875 264.9375,285.6563 C265.0469,285.5 265.0781,285.3125 265.0781,284.8906 L265.0781,283.4688 C265.0781,283.0313 265.0625,282.9063 264.9688,282.75 C264.8125,282.4844 264.5313,282.3438 264.2344,282.3438 C263.9375,282.3438 263.7344,282.4375 263.5156,282.75 L263.3438,282.6719 Z " fill="#000000"/><text fill="#000000" font-family="sans-serif" font-size="12" lengthAdjust="spacing" textLength="136" x="275" y="291.1543">LaboratoryCoordinator</text><line style="stroke:#A80036;stroke-width:1.5;" x1="247" x2="413" y1="303" y2="303"/><text fill="#000000" font-family="sans-serif" font-size="11" lengthAdjust="spacing" textLength="16" x="252" y="317.2104">-ID</text><!--MD5=[ed6624c6556d5e7b1bd23032162d20b7]
class Client--><rect codeLine="30" fill="#FEFECE" filter="url(#fsxnu1n6v6cae)" height="65.6094" id="Client" style="stroke:#A80036;stroke-width:1.5;" width="65" x="297.5" y="359.5"/><ellipse cx="312.5" cy="375.5" fill="#ADD1B2" rx="11" ry="11" style="stroke:#A80036;stroke-width:1.0;"/><path d="M314.8438,371.1719 C313.9063,370.7344 313.3125,370.5938 312.4375,370.5938 C309.8125,370.5938 307.8125,372.6719 307.8125,375.3906 L307.8125,376.5156 C307.8125,379.0938 309.9219,380.9844 312.8125,380.9844 C314.0313,380.9844 315.1875,380.6875 315.9375,380.1406 C316.5156,379.7344 316.8438,379.2813 316.8438,378.8906 C316.8438,378.4375 316.4531,378.0469 315.9844,378.0469 C315.7656,378.0469 315.5625,378.125 315.375,378.3125 C314.9219,378.7969 314.9219,378.7969 314.7344,378.8906 C314.3125,379.1563 313.625,379.2813 312.8594,379.2813 C310.8125,379.2813 309.5156,378.1875 309.5156,376.4844 L309.5156,375.3906 C309.5156,373.6094 310.7656,372.2969 312.5,372.2969 C313.0781,372.2969 313.6875,372.4531 314.1563,372.7031 C314.6406,372.9844 314.8125,373.2031 314.9063,373.6094 C314.9688,374.0156 315,374.1406 315.1406,374.2656 C315.2813,374.4063 315.5156,374.5156 315.7344,374.5156 C316,374.5156 316.2656,374.375 316.4375,374.1563 C316.5469,374 316.5781,373.8125 316.5781,373.3906 L316.5781,371.9688 C316.5781,371.5313 316.5625,371.4063 316.4688,371.25 C316.3125,370.9844 316.0313,370.8438 315.7344,370.8438 C315.4375,370.8438 315.2344,370.9375 315.0156,371.25 L314.8438,371.1719 Z " fill="#000000"/><text fill="#000000" font-family="sans-serif" font-size="12" lengthAdjust="spacing" textLength="33" x="326.5" y="379.6543">Client</text><line style="stroke:#A80036;stroke-width:1.5;" x1="298.5" x2="361.5" y1="391.5" y2="391.5"/><text fill="#000000" font-family="sans-serif" font-size="11" lengthAdjust="spacing" textLength="37" x="303.5" y="405.7104">-name</text><text fill="#000000" font-family="sans-serif" font-size="11" lengthAdjust="spacing" textLength="36" x="303.5" y="418.5151">-email</text><!--MD5=[502b51bc079239060389dab43b7d3470]
link Client to Test--><path codeLine="34" d="M362.666,392.3788 C438.025,390.8514 632.164,379.5458 772,306.5 C798.798,292.502 823.268,269.047 841.294,248.708 " fill="none" id="Client-Test" style="stroke:#A80036;stroke-width:1.0;"/><polygon fill="#000000" points="465.2111,299.5039,474.7192,299.7183,473.0294,294.0886,465.2111,299.5039" style="stroke:#000000;stroke-width:1.0;"/><text fill="#000000" font-family="sans-serif" font-size="13" lengthAdjust="spacing" textLength="292" x="479" y="302.5669">gets email after work has been completed on</text><text fill="#000000" font-family="sans-serif" font-size="13" lengthAdjust="spacing" textLength="8" x="370.6867" y="406.1171">1</text><text fill="#000000" font-family="sans-serif" font-size="13" lengthAdjust="spacing" textLength="8" x="826.9339" y="269.0697">1</text><!--MD5=[e8b34c2e6517a986175307f5599f058a]
link Receptionist to Test--><path codeLine="35" d="M383.042,32.966 C468.874,34.142 643.405,45.338 772,111.5 C799.235,125.512 823.885,149.472 841.898,170.192 " fill="none" id="Receptionist-Test" style="stroke:#A80036;stroke-width:1.0;"/><polygon fill="#000000" points="592.7904,30.499,584.9666,25.0917,583.2824,30.7231,592.7904,30.499" style="stroke:#000000;stroke-width:1.0;"/><text fill="#000000" font-family="sans-serif" font-size="13" lengthAdjust="spacing" textLength="56" x="597" y="33.5669">registers</text><text fill="#000000" font-family="sans-serif" font-size="13" lengthAdjust="spacing" textLength="8" x="391.0635" y="46.0356">1</text><text fill="#000000" font-family="sans-serif" font-size="13" lengthAdjust="spacing" textLength="8" x="828.0842" y="159.483">1</text><!--MD5=[c2cdc35a6c3e9c49df1db829c2169a58]
link ClinicalChemistryTechnologist to Test--><path codeLine="36" d="M435.314,133.325 C524.997,144.225 657.585,162.088 772,184.5 C781.747,186.409 791.967,188.666 801.998,191.029 " fill="none" id="ClinicalChemistryTechnologist-Test" style="stroke:#A80036;stroke-width:1.0;"/><polygon fill="#000000" points="521.9392,128.8437,513.461,124.5344,512.5472,130.3408,521.9392,128.8437" style="stroke:#000000;stroke-width:1.0;"/><text fill="#000000" font-family="sans-serif" font-size="13" lengthAdjust="spacing" textLength="198" x="526" y="132.5669">performs chemical analysis for</text><text fill="#000000" font-family="sans-serif" font-size="13" lengthAdjust="spacing" textLength="8" x="443.0001" y="146.7622">1</text><text fill="#000000" font-family="sans-serif" font-size="13" lengthAdjust="spacing" textLength="8" x="785.7947" y="201.8806">1</text><!--MD5=[314a253aad72a26024b6c8da1dd928d1]
link SpecialistDoctor to Test--><path codeLine="37" d="M395.72,209.5 C497.95,209.5 696.011,209.5 801.644,209.5 " fill="none" id="SpecialistDoctor-Test" style="stroke:#A80036;stroke-width:1.0;"/><polygon fill="#000000" points="489.5,201.0664,480.4549,198.1275,480.4549,204.0053,489.5,201.0664" style="stroke:#000000;stroke-width:1.0;"/><text fill="#000000" font-family="sans-serif" font-size="13" lengthAdjust="spacing" textLength="263" x="493.5" y="205.5669">gives a diagnosis about the result for the</text><text fill="#000000" font-family="sans-serif" font-size="13" lengthAdjust="spacing" textLength="8" x="403.3456" y="222.4052">1</text><text fill="#000000" font-family="sans-serif" font-size="13" lengthAdjust="spacing" textLength="8" x="785.8729" y="222.3258">1</text><!--MD5=[5448e79142bdfcbfebd9929e0faf45a6]
link Company to Receptionist--><path codeLine="38" d="M90.636,138.82 C101.518,131.806 113.522,124.525 125,118.5 C174.938,92.285 234.79,68.149 276.704,52.349 " fill="none" id="Company-Receptionist" style="stroke:#A80036;stroke-width:1.0;"/><polygon fill="#000000" points="134.5343,76.9592,125.0931,78.106,127.5703,83.4364,134.5343,76.9592" style="stroke:#000000;stroke-width:1.0;"/><text fill="#000000" font-family="sans-serif" font-size="13" lengthAdjust="spacing" textLength="55" x="139" y="83.5669">employs</text><text fill="#000000" font-family="sans-serif" font-size="13" lengthAdjust="spacing" textLength="8" x="90.8768" y="128.0207">1</text><text fill="#000000" font-family="sans-serif" font-size="13" lengthAdjust="spacing" textLength="7" x="262.072" y="67.9786">*</text><!--MD5=[1ca3dfffd6d11e2dcc22d81a95bb4023]
link Company to ClinicalChemistryTechnologist--><path codeLine="39" d="M95.2812,158.625 C129.898,153.126 179.896,145.184 224.772,138.056 " fill="none" id="Company-ClinicalChemistryTechnologist" style="stroke:#A80036;stroke-width:1.0;"/><polygon fill="#000000" points="134.9381,134.282,125.5439,132.7985,126.4661,138.6035,134.9381,134.282" style="stroke:#000000;stroke-width:1.0;"/><text fill="#000000" font-family="sans-serif" font-size="13" lengthAdjust="spacing" textLength="55" x="139" y="139.5669">employs</text><text fill="#000000" font-family="sans-serif" font-size="13" lengthAdjust="spacing" textLength="8" x="102.976" y="170.8177">1</text><text fill="#000000" font-family="sans-serif" font-size="13" lengthAdjust="spacing" textLength="7" x="210.1271" y="151.8259">*</text><!--MD5=[137816425ceb0c0d2300eee5a01b984a]
link Company to SpecialistDoctor--><path codeLine="40" d="M95.2017,173.381 C104.9917,175.115 115.347,176.907 125,178.5 C171.479,186.169 224.035,194.139 264.162,200.077 " fill="none" id="Company-SpecialistDoctor" style="stroke:#A80036;stroke-width:1.0;"/><polygon fill="#000000" points="134.9387,170.8467,126.4631,166.5322,125.5458,172.338,134.9387,170.8467" style="stroke:#000000;stroke-width:1.0;"/><text fill="#000000" font-family="sans-serif" font-size="13" lengthAdjust="spacing" textLength="55" x="139" y="174.5669">employs</text><text fill="#000000" font-family="sans-serif" font-size="13" lengthAdjust="spacing" textLength="8" x="102.8838" y="187.9254">1</text><text fill="#000000" font-family="sans-serif" font-size="13" lengthAdjust="spacing" textLength="7" x="249.5782" y="211.9515">*</text><!--MD5=[baa6ff38ec20def42e063e01f85f91ae]
link Company to LaboratoryCoordinator--><path codeLine="41" d="M89.4279,192.077 C100.6048,199.47 113.065,207.193 125,213.5 C166.653,235.511 215.374,255.762 254.755,270.863 " fill="none" id="Company-LaboratoryCoordinator" style="stroke:#A80036;stroke-width:1.0;"/><polygon fill="#000000" points="134.5137,207.2174,127.6127,200.6732,125.084,205.9793,134.5137,207.2174" style="stroke:#000000;stroke-width:1.0;"/><text fill="#000000" font-family="sans-serif" font-size="13" lengthAdjust="spacing" textLength="55" x="139" y="209.5669">employs</text><text fill="#000000" font-family="sans-serif" font-size="13" lengthAdjust="spacing" textLength="8" x="89.3894" y="212.0621">1</text><text fill="#000000" font-family="sans-serif" font-size="13" lengthAdjust="spacing" textLength="7" x="230.5295" y="260.4983">*</text><!--MD5=[fe28b095a1a99c1f24c8c2245ad2ba4f]
link LaboratoryCoordinator to Test--><path codeLine="42" d="M414.334,288.193 C503.329,277.648 648.287,258.734 772,234.5 C781.747,232.591 791.967,230.334 801.998,227.971 " fill="none" id="LaboratoryCoordinator-Test" style="stroke:#A80036;stroke-width:1.0;"/><polygon fill="#000000" points="533.9407,225.2989,524.5517,223.7833,525.454,229.5914,533.9407,225.2989" style="stroke:#000000;stroke-width:1.0;"/><text fill="#000000" font-family="sans-serif" font-size="13" lengthAdjust="spacing" textLength="174" x="538" y="230.5669">validates the work done on</text><text fill="#000000" font-family="sans-serif" font-size="13" lengthAdjust="spacing" textLength="8" x="421.9252" y="300.1187">1</text><text fill="#000000" font-family="sans-serif" font-size="13" lengthAdjust="spacing" textLength="8" x="785.7947" y="242.8631">1</text><!--MD5=[065979999ffb6e4e05b1b7f802a49047]
@startuml
hide methods
left to right direction
skinparam classAttributeIconSize 0




class Company{
  -name
}
class Test{
  -testRegistrationDate
  -chemicalAnalysisDate
  -diagnosisDate
}
class Receptionist{
  -ID
}

class ClinicalChemistryTechnologist {
  -ID
}

class SpecialistDoctor {
  -ID
}
class LaboratoryCoordinator{
  -ID
}
class Client{
 -name
 -email
}
Client "1" - -  "1" Test : gets email after work has been completed on <
Receptionist "1" - - "1" Test : registers >
ClinicalChemistryTechnologist "1" - - "1" Test : performs chemical analysis for >
SpecialistDoctor "1" - - "1" Test : gives a diagnosis about the result for the >
Company "1" - - "*" Receptionist : employs >
Company "1" - - "*" ClinicalChemistryTechnologist : employs >
Company "1" - - "*" SpecialistDoctor : employs >
Company "1" - - "*" LaboratoryCoordinator : employs >
LaboratoryCoordinator "1" - - "1" Test : validates the work done on >
@enduml

PlantUML version 1.2021.7(Sun May 23 12:40:07 UTC 2021)
(GPL source distribution)
Java Runtime: Java(TM) SE Runtime Environment
JVM: Java HotSpot(TM) 64-Bit Server VM
Default Encoding: UTF-8
Language: en
Country: US
--></g></svg>