<?xml version="1.0" encoding="UTF-8" standalone="no"?><svg xmlns="http://www.w3.org/2000/svg" xmlns:xlink="http://www.w3.org/1999/xlink" contentScriptType="application/ecmascript" contentStyleType="text/css" height="382px" preserveAspectRatio="none" style="width:415px;height:382px;" version="1.1" viewBox="0 0 415 382" width="415px" zoomAndPan="magnify"><defs><filter height="300%" id="fbrnh54vjo3cf" width="300%" x="-1" y="-1"><feGaussianBlur result="blurOut" stdDeviation="2.0"/><feColorMatrix in="blurOut" result="blurOut2" type="matrix" values="0 0 0 0 0 0 0 0 0 0 0 0 0 0 0 0 0 0 .4 0"/><feOffset dx="4.0" dy="4.0" in="blurOut2" result="blurOut3"/><feBlend in="SourceGraphic" in2="blurOut3" mode="normal"/></filter></defs><g><rect fill="#FFFFFF" filter="url(#fbrnh54vjo3cf)" height="181.9297" style="stroke:#A80036;stroke-width:1.0;" width="10" x="49.5" y="98.2969"/><rect fill="#FFFFFF" filter="url(#fbrnh54vjo3cf)" height="44.2656" style="stroke:#A80036;stroke-width:1.0;" width="10" x="361.5" y="119.4297"/><rect fill="#FFFFFF" filter="url(#fbrnh54vjo3cf)" height="87.3984" style="stroke:#A80036;stroke-width:1.0;" width="10" x="361.5" y="192.8281"/><line style="stroke:#A80036;stroke-width:1.0;stroke-dasharray:5.0,5.0;" x1="54" x2="54" y1="88.2969" y2="298.2266"/><line style="stroke:#A80036;stroke-width:1.0;stroke-dasharray:5.0,5.0;" x1="366" x2="366" y1="88.2969" y2="298.2266"/><text fill="#000000" font-family="sans-serif" font-size="14" lengthAdjust="spacing" textLength="93" x="5" y="84.9951">Receptionist</text><ellipse cx="54.5" cy="15" fill="#FEFECE" filter="url(#fbrnh54vjo3cf)" rx="8" ry="8" style="stroke:#A80036;stroke-width:2.0;"/><path d="M54.5,23 L54.5,50 M41.5,31 L67.5,31 M54.5,50 L41.5,65 M54.5,50 L67.5,65 " fill="none" filter="url(#fbrnh54vjo3cf)" style="stroke:#A80036;stroke-width:2.0;"/><text fill="#000000" font-family="sans-serif" font-size="14" lengthAdjust="spacing" textLength="93" x="5" y="310.2217">Receptionist</text><ellipse cx="54.5" cy="323.5234" fill="#FEFECE" filter="url(#fbrnh54vjo3cf)" rx="8" ry="8" style="stroke:#A80036;stroke-width:2.0;"/><path d="M54.5,331.5234 L54.5,358.5234 M41.5,339.5234 L67.5,339.5234 M54.5,358.5234 L41.5,373.5234 M54.5,358.5234 L67.5,373.5234 " fill="none" filter="url(#fbrnh54vjo3cf)" style="stroke:#A80036;stroke-width:2.0;"/><rect fill="#FEFECE" filter="url(#fbrnh54vjo3cf)" height="30.2969" style="stroke:#A80036;stroke-width:1.5;" width="73" x="328" y="53"/><text fill="#000000" font-family="sans-serif" font-size="14" lengthAdjust="spacing" textLength="59" x="335" y="72.9951">:System</text><rect fill="#FEFECE" filter="url(#fbrnh54vjo3cf)" height="30.2969" style="stroke:#A80036;stroke-width:1.5;" width="73" x="328" y="297.2266"/><text fill="#000000" font-family="sans-serif" font-size="14" lengthAdjust="spacing" textLength="59" x="335" y="317.2217">:System</text><rect fill="#FFFFFF" filter="url(#fbrnh54vjo3cf)" height="181.9297" style="stroke:#A80036;stroke-width:1.0;" width="10" x="49.5" y="98.2969"/><rect fill="#FFFFFF" filter="url(#fbrnh54vjo3cf)" height="44.2656" style="stroke:#A80036;stroke-width:1.0;" width="10" x="361.5" y="119.4297"/><rect fill="#FFFFFF" filter="url(#fbrnh54vjo3cf)" height="87.3984" style="stroke:#A80036;stroke-width:1.0;" width="10" x="361.5" y="192.8281"/><polygon fill="#A80036" points="349.5,115.4297,359.5,119.4297,349.5,123.4297,353.5,119.4297" style="stroke:#A80036;stroke-width:1.0;"/><line style="stroke:#A80036;stroke-width:1.0;" x1="59.5" x2="355.5" y1="119.4297" y2="119.4297"/><text fill="#000000" font-family="sans-serif" font-size="13" font-weight="bold" lengthAdjust="spacing" textLength="9" x="66.5" y="114.3638">1</text><text fill="#000000" font-family="sans-serif" font-size="13" lengthAdjust="spacing" textLength="170" x="79.5" y="114.3638">asks to register new Client</text><polygon fill="#A80036" points="70.5,159.6953,60.5,163.6953,70.5,167.6953,66.5,163.6953" style="stroke:#A80036;stroke-width:1.0;"/><line style="stroke:#A80036;stroke-width:1.0;stroke-dasharray:2.0,2.0;" x1="64.5" x2="365.5" y1="163.6953" y2="163.6953"/><text fill="#000000" font-family="sans-serif" font-size="13" font-weight="bold" lengthAdjust="spacing" textLength="9" x="76.5" y="151.063">2</text><text fill="#000000" font-family="sans-serif" font-size="13" lengthAdjust="spacing" textLength="251" x="89.5" y="143.4966">requests data (ccn, name,  nhsNumber</text><text fill="#000000" font-family="sans-serif" font-size="13" lengthAdjust="spacing" textLength="257" x="93.5" y="158.6294">birthdate, sex, tif, phoneNumber, email)</text><polygon fill="#A80036" points="349.5,188.8281,359.5,192.8281,349.5,196.8281,353.5,192.8281" style="stroke:#A80036;stroke-width:1.0;"/><line style="stroke:#A80036;stroke-width:1.0;" x1="59.5" x2="355.5" y1="192.8281" y2="192.8281"/><text fill="#000000" font-family="sans-serif" font-size="13" font-weight="bold" lengthAdjust="spacing" textLength="8" x="66.5" y="187.7622">3</text><text fill="#000000" font-family="sans-serif" font-size="13" lengthAdjust="spacing" textLength="138" x="78.5" y="187.7622">types requested data</text><polygon fill="#A80036" points="70.5,217.9609,60.5,221.9609,70.5,225.9609,66.5,221.9609" style="stroke:#A80036;stroke-width:1.0;"/><line style="stroke:#A80036;stroke-width:1.0;stroke-dasharray:2.0,2.0;" x1="64.5" x2="360.5" y1="221.9609" y2="221.9609"/><text fill="#000000" font-family="sans-serif" font-size="13" font-weight="bold" lengthAdjust="spacing" textLength="9" x="76.5" y="216.895">4</text><text fill="#000000" font-family="sans-serif" font-size="13" lengthAdjust="spacing" textLength="265" x="89.5" y="216.895">shows all data and requests confirmation</text><polygon fill="#A80036" points="349.5,247.0938,359.5,251.0938,349.5,255.0938,353.5,251.0938" style="stroke:#A80036;stroke-width:1.0;"/><line style="stroke:#A80036;stroke-width:1.0;" x1="59.5" x2="355.5" y1="251.0938" y2="251.0938"/><text fill="#000000" font-family="sans-serif" font-size="13" font-weight="bold" lengthAdjust="spacing" textLength="9" x="66.5" y="246.0278">5</text><text fill="#000000" font-family="sans-serif" font-size="13" lengthAdjust="spacing" textLength="89" x="79.5" y="246.0278">confirms data</text><polygon fill="#A80036" points="65.5,276.2266,55.5,280.2266,65.5,284.2266,61.5,280.2266" style="stroke:#A80036;stroke-width:1.0;"/><line style="stroke:#A80036;stroke-width:1.0;stroke-dasharray:2.0,2.0;" x1="59.5" x2="365.5" y1="280.2266" y2="280.2266"/><text fill="#000000" font-family="sans-serif" font-size="13" font-weight="bold" lengthAdjust="spacing" textLength="9" x="71.5" y="275.1606">6</text><text fill="#000000" font-family="sans-serif" font-size="13" lengthAdjust="spacing" textLength="169" x="84.5" y="275.1606">informs operation success</text><!--MD5=[da543f0e0d6ff255710c350864b698ae]
@startuml
autonumber
actor "Receptionist" as RC

activate RC
RC -> ":System" : asks to register new Client
activate ":System"
":System" - -> RC : requests data (ccn, name,  nhsNumber \n birthdate, sex, tif, phoneNumber, email)
deactivate ":System"

RC -> ":System" : types requested data
activate ":System"
":System" - -> RC : shows all data and requests confirmation
RC -> ":System" : confirms data
":System" - -> RC : informs operation success
deactivate ":System"

deactivate RC
@enduml

PlantUML version 1.2021.5(Sun Apr 25 11:20:28 UTC 2021)
(GPL source distribution)
Java Runtime: Java(TM) SE Runtime Environment
JVM: Java HotSpot(TM) 64-Bit Server VM
Default Encoding: UTF-8
Language: en
Country: US
--></g></svg>