<?xml version="1.0" encoding="UTF-8" standalone="no"?>
<svg xmlns="http://www.w3.org/2000/svg" xmlns:xlink="http://www.w3.org/1999/xlink" contentScriptType="application/ecmascript" contentStyleType="text/css" height="227px" preserveAspectRatio="none" style="width:1236px;height:227px;background:#FFFFFF;" version="1.1" viewBox="0 0 1236 227" width="1236px" zoomAndPan="magnify"><defs><filter height="300%" id="fuvpx47wi3var" width="300%" x="-1" y="-1"><feGaussianBlur result="blurOut" stdDeviation="2.0"/><feColorMatrix in="blurOut" result="blurOut2" type="matrix" values="0 0 0 0 0 0 0 0 0 0 0 0 0 0 0 0 0 0 .4 0"/><feOffset dx="4.0" dy="4.0" in="blurOut2" result="blurOut3"/><feBlend in="SourceGraphic" in2="blurOut3" mode="normal"/></filter></defs><g><!--MD5=[9681492165142af2a4a3a169d90ee8d4]
class Sample--><rect codeLine="5" fill="#FEFECE" filter="url(#fuvpx47wi3var)" height="52.8047" id="Sample" style="stroke:#A80036;stroke-width:1.5;" width="107" x="735" y="83.5"/><ellipse cx="763.5" cy="99.5" fill="#ADD1B2" rx="11" ry="11" style="stroke:#A80036;stroke-width:1.0;"/><path d="M765.8438,95.1719 C764.9063,94.7344 764.3125,94.5938 763.4375,94.5938 C760.8125,94.5938 758.8125,96.6719 758.8125,99.3906 L758.8125,100.5156 C758.8125,103.0938 760.9219,104.9844 763.8125,104.9844 C765.0313,104.9844 766.1875,104.6875 766.9375,104.1406 C767.5156,103.7344 767.8438,103.2813 767.8438,102.8906 C767.8438,102.4375 767.4531,102.0469 766.9844,102.0469 C766.7656,102.0469 766.5625,102.125 766.375,102.3125 C765.9219,102.7969 765.9219,102.7969 765.7344,102.8906 C765.3125,103.1563 764.625,103.2813 763.8594,103.2813 C761.8125,103.2813 760.5156,102.1875 760.5156,100.4844 L760.5156,99.3906 C760.5156,97.6094 761.7656,96.2969 763.5,96.2969 C764.0781,96.2969 764.6875,96.4531 765.1563,96.7031 C765.6406,96.9844 765.8125,97.2031 765.9063,97.6094 C765.9688,98.0156 766,98.1406 766.1406,98.2656 C766.2813,98.4063 766.5156,98.5156 766.7344,98.5156 C767,98.5156 767.2656,98.375 767.4375,98.1563 C767.5469,98 767.5781,97.8125 767.5781,97.3906 L767.5781,95.9688 C767.5781,95.5313 767.5625,95.4063 767.4688,95.25 C767.3125,94.9844 767.0313,94.8438 766.7344,94.8438 C766.4375,94.8438 766.2344,94.9375 766.0156,95.25 L765.8438,95.1719 Z " fill="#000000"/><text fill="#000000" font-family="sans-serif" font-size="12" lengthAdjust="spacing" textLength="45" x="780.5" y="103.6543">Sample</text><line style="stroke:#A80036;stroke-width:1.5;" x1="736" x2="841" y1="115.5" y2="115.5"/><text fill="#000000" font-family="sans-serif" font-size="11" lengthAdjust="spacing" textLength="95" x="741" y="129.7104">-barcodeNumber</text><!--MD5=[02e4b9b7573f1156f41e60aa5b4e25a4]
class Company--><rect codeLine="9" fill="#FEFECE" filter="url(#fuvpx47wi3var)" height="52.8047" id="Company" style="stroke:#A80036;stroke-width:1.5;" width="88" x="7" y="83.5"/><ellipse cx="22" cy="99.5" fill="#ADD1B2" rx="11" ry="11" style="stroke:#A80036;stroke-width:1.0;"/><path d="M24.3438,95.1719 C23.4063,94.7344 22.8125,94.5938 21.9375,94.5938 C19.3125,94.5938 17.3125,96.6719 17.3125,99.3906 L17.3125,100.5156 C17.3125,103.0938 19.4219,104.9844 22.3125,104.9844 C23.5313,104.9844 24.6875,104.6875 25.4375,104.1406 C26.0156,103.7344 26.3438,103.2813 26.3438,102.8906 C26.3438,102.4375 25.9531,102.0469 25.4844,102.0469 C25.2656,102.0469 25.0625,102.125 24.875,102.3125 C24.4219,102.7969 24.4219,102.7969 24.2344,102.8906 C23.8125,103.1563 23.125,103.2813 22.3594,103.2813 C20.3125,103.2813 19.0156,102.1875 19.0156,100.4844 L19.0156,99.3906 C19.0156,97.6094 20.2656,96.2969 22,96.2969 C22.5781,96.2969 23.1875,96.4531 23.6563,96.7031 C24.1406,96.9844 24.3125,97.2031 24.4063,97.6094 C24.4688,98.0156 24.5,98.1406 24.6406,98.2656 C24.7813,98.4063 25.0156,98.5156 25.2344,98.5156 C25.5,98.5156 25.7656,98.375 25.9375,98.1563 C26.0469,98 26.0781,97.8125 26.0781,97.3906 L26.0781,95.9688 C26.0781,95.5313 26.0625,95.4063 25.9688,95.25 C25.8125,94.9844 25.5313,94.8438 25.2344,94.8438 C24.9375,94.8438 24.7344,94.9375 24.5156,95.25 L24.3438,95.1719 Z " fill="#000000"/><text fill="#000000" font-family="sans-serif" font-size="12" lengthAdjust="spacing" textLength="56" x="36" y="103.6543">Company</text><line style="stroke:#A80036;stroke-width:1.5;" x1="8" x2="94" y1="115.5" y2="115.5"/><text fill="#000000" font-family="sans-serif" font-size="11" lengthAdjust="spacing" textLength="70" x="13" y="129.7104">-designation</text><!--MD5=[1934a092c0e7d4da7dc7075b6f4b6b03]
class ClinicalAnalysisLaboratory--><rect codeLine="13" fill="#FEFECE" filter="url(#fuvpx47wi3var)" height="104.0234" id="ClinicalAnalysisLaboratory" style="stroke:#A80036;stroke-width:1.5;" width="187" x="193" y="58"/><ellipse cx="208" cy="74" fill="#ADD1B2" rx="11" ry="11" style="stroke:#A80036;stroke-width:1.0;"/><path d="M210.3438,69.6719 C209.4063,69.2344 208.8125,69.0938 207.9375,69.0938 C205.3125,69.0938 203.3125,71.1719 203.3125,73.8906 L203.3125,75.0156 C203.3125,77.5938 205.4219,79.4844 208.3125,79.4844 C209.5313,79.4844 210.6875,79.1875 211.4375,78.6406 C212.0156,78.2344 212.3438,77.7813 212.3438,77.3906 C212.3438,76.9375 211.9531,76.5469 211.4844,76.5469 C211.2656,76.5469 211.0625,76.625 210.875,76.8125 C210.4219,77.2969 210.4219,77.2969 210.2344,77.3906 C209.8125,77.6563 209.125,77.7813 208.3594,77.7813 C206.3125,77.7813 205.0156,76.6875 205.0156,74.9844 L205.0156,73.8906 C205.0156,72.1094 206.2656,70.7969 208,70.7969 C208.5781,70.7969 209.1875,70.9531 209.6563,71.2031 C210.1406,71.4844 210.3125,71.7031 210.4063,72.1094 C210.4688,72.5156 210.5,72.6406 210.6406,72.7656 C210.7813,72.9063 211.0156,73.0156 211.2344,73.0156 C211.5,73.0156 211.7656,72.875 211.9375,72.6563 C212.0469,72.5 212.0781,72.3125 212.0781,71.8906 L212.0781,70.4688 C212.0781,70.0313 212.0625,69.9063 211.9688,69.75 C211.8125,69.4844 211.5313,69.3438 211.2344,69.3438 C210.9375,69.3438 210.7344,69.4375 210.5156,69.75 L210.3438,69.6719 Z " fill="#000000"/><text fill="#000000" font-family="sans-serif" font-size="12" lengthAdjust="spacing" textLength="155" x="222" y="78.1543">ClinicalAnalysisLaboratory</text><line style="stroke:#A80036;stroke-width:1.5;" x1="194" x2="379" y1="90" y2="90"/><text fill="#000000" font-family="sans-serif" font-size="11" lengthAdjust="spacing" textLength="74" x="199" y="104.2104">-String name</text><text fill="#000000" font-family="sans-serif" font-size="11" lengthAdjust="spacing" textLength="79" x="199" y="117.0151">-String adress</text><text fill="#000000" font-family="sans-serif" font-size="11" lengthAdjust="spacing" textLength="113" x="199" y="129.8198">-long phoneNumber</text><text fill="#000000" font-family="sans-serif" font-size="11" lengthAdjust="spacing" textLength="46" x="199" y="142.6245">-long tin</text><text fill="#000000" font-family="sans-serif" font-size="11" lengthAdjust="spacing" textLength="117" x="199" y="155.4292">-TestStore testStore</text><!--MD5=[df38be88ccee13e832d6fafd6288a4ca]
class Test--><rect codeLine="21" fill="#FEFECE" filter="url(#fuvpx47wi3var)" height="206.4609" id="Test" style="stroke:#A80036;stroke-width:1.5;" width="159" x="478" y="7"/><ellipse cx="540.25" cy="23" fill="#ADD1B2" rx="11" ry="11" style="stroke:#A80036;stroke-width:1.0;"/><path d="M542.5938,18.6719 C541.6563,18.2344 541.0625,18.0938 540.1875,18.0938 C537.5625,18.0938 535.5625,20.1719 535.5625,22.8906 L535.5625,24.0156 C535.5625,26.5938 537.6719,28.4844 540.5625,28.4844 C541.7813,28.4844 542.9375,28.1875 543.6875,27.6406 C544.2656,27.2344 544.5938,26.7813 544.5938,26.3906 C544.5938,25.9375 544.2031,25.5469 543.7344,25.5469 C543.5156,25.5469 543.3125,25.625 543.125,25.8125 C542.6719,26.2969 542.6719,26.2969 542.4844,26.3906 C542.0625,26.6563 541.375,26.7813 540.6094,26.7813 C538.5625,26.7813 537.2656,25.6875 537.2656,23.9844 L537.2656,22.8906 C537.2656,21.1094 538.5156,19.7969 540.25,19.7969 C540.8281,19.7969 541.4375,19.9531 541.9063,20.2031 C542.3906,20.4844 542.5625,20.7031 542.6563,21.1094 C542.7188,21.5156 542.75,21.6406 542.8906,21.7656 C543.0313,21.9063 543.2656,22.0156 543.4844,22.0156 C543.75,22.0156 544.0156,21.875 544.1875,21.6563 C544.2969,21.5 544.3281,21.3125 544.3281,20.8906 L544.3281,19.4688 C544.3281,19.0313 544.3125,18.9063 544.2188,18.75 C544.0625,18.4844 543.7813,18.3438 543.4844,18.3438 C543.1875,18.3438 542.9844,18.4375 542.7656,18.75 L542.5938,18.6719 Z " fill="#000000"/><text fill="#000000" font-family="sans-serif" font-size="12" lengthAdjust="spacing" textLength="26" x="560.75" y="27.1543">Test</text><line style="stroke:#A80036;stroke-width:1.5;" x1="479" x2="636" y1="39" y2="39"/><text fill="#000000" font-family="sans-serif" font-size="11" lengthAdjust="spacing" textLength="57" x="484" y="53.2104">-nhsCode;</text><text fill="#000000" font-family="sans-serif" font-size="11" lengthAdjust="spacing" textLength="80" x="484" y="66.0151">-internalCode;</text><text fill="#000000" font-family="sans-serif" font-size="11" lengthAdjust="spacing" textLength="38" x="484" y="78.8198">-client;</text><text fill="#000000" font-family="sans-serif" font-size="11" lengthAdjust="spacing" textLength="58" x="484" y="91.6245">-testType;</text><text fill="#000000" font-family="sans-serif" font-size="11" lengthAdjust="spacing" textLength="147" x="484" y="104.4292">-sampleCollectionMethod;</text><text fill="#000000" font-family="sans-serif" font-size="11" lengthAdjust="spacing" textLength="119" x="484" y="117.2339">-parameterCategory;</text><text fill="#000000" font-family="sans-serif" font-size="11" lengthAdjust="spacing" textLength="67" x="484" y="130.0386">-parameter;</text><text fill="#000000" font-family="sans-serif" font-size="11" lengthAdjust="spacing" textLength="52" x="484" y="142.8433">-samples</text><text fill="#000000" font-family="sans-serif" font-size="11" lengthAdjust="spacing" textLength="99" x="484" y="155.6479">-registrationDate;</text><text fill="#000000" font-family="sans-serif" font-size="11" lengthAdjust="spacing" textLength="139" x="484" y="168.4526">-samplesCollectionDate;</text><text fill="#000000" font-family="sans-serif" font-size="11" lengthAdjust="spacing" textLength="133" x="484" y="181.2573">-chemicalAnalysisDate;</text><text fill="#000000" font-family="sans-serif" font-size="11" lengthAdjust="spacing" textLength="88" x="484" y="194.062">-diagnosisDate;</text><text fill="#000000" font-family="sans-serif" font-size="11" lengthAdjust="spacing" textLength="90" x="484" y="206.8667">-validationDate;</text><!--MD5=[01931d41e78f8996acd44f6f0fd8de28]
class MedicalLabTechnician--><rect codeLine="37" fill="#FEFECE" filter="url(#fuvpx47wi3var)" height="129.6328" id="MedicalLabTechnician" style="stroke:#A80036;stroke-width:1.5;" width="236" x="986" y="45"/><ellipse cx="1034.75" cy="61" fill="#ADD1B2" rx="11" ry="11" style="stroke:#A80036;stroke-width:1.0;"/><path d="M1037.0938,56.6719 C1036.1563,56.2344 1035.5625,56.0938 1034.6875,56.0938 C1032.0625,56.0938 1030.0625,58.1719 1030.0625,60.8906 L1030.0625,62.0156 C1030.0625,64.5938 1032.1719,66.4844 1035.0625,66.4844 C1036.2813,66.4844 1037.4375,66.1875 1038.1875,65.6406 C1038.7656,65.2344 1039.0938,64.7813 1039.0938,64.3906 C1039.0938,63.9375 1038.7031,63.5469 1038.2344,63.5469 C1038.0156,63.5469 1037.8125,63.625 1037.625,63.8125 C1037.1719,64.2969 1037.1719,64.2969 1036.9844,64.3906 C1036.5625,64.6563 1035.875,64.7813 1035.1094,64.7813 C1033.0625,64.7813 1031.7656,63.6875 1031.7656,61.9844 L1031.7656,60.8906 C1031.7656,59.1094 1033.0156,57.7969 1034.75,57.7969 C1035.3281,57.7969 1035.9375,57.9531 1036.4063,58.2031 C1036.8906,58.4844 1037.0625,58.7031 1037.1563,59.1094 C1037.2188,59.5156 1037.25,59.6406 1037.3906,59.7656 C1037.5313,59.9063 1037.7656,60.0156 1037.9844,60.0156 C1038.25,60.0156 1038.5156,59.875 1038.6875,59.6563 C1038.7969,59.5 1038.8281,59.3125 1038.8281,58.8906 L1038.8281,57.4688 C1038.8281,57.0313 1038.8125,56.9063 1038.7188,56.75 C1038.5625,56.4844 1038.2813,56.3438 1037.9844,56.3438 C1037.6875,56.3438 1037.4844,56.4375 1037.2656,56.75 L1037.0938,56.6719 Z " fill="#000000"/><text fill="#000000" font-family="sans-serif" font-size="12" lengthAdjust="spacing" textLength="130" x="1055.25" y="65.1543">MedicalLabTechnician</text><line style="stroke:#A80036;stroke-width:1.5;" x1="987" x2="1221" y1="77" y2="77"/><text fill="#000000" font-family="sans-serif" font-size="11" lengthAdjust="spacing" textLength="75" x="992" y="91.2104">-employeeID</text><text fill="#000000" font-family="sans-serif" font-size="11" lengthAdjust="spacing" textLength="99" x="992" y="104.0151">-organizationRole</text><text fill="#000000" font-family="sans-serif" font-size="11" lengthAdjust="spacing" textLength="37" x="992" y="116.8198">-name</text><text fill="#000000" font-family="sans-serif" font-size="11" lengthAdjust="spacing" textLength="49" x="992" y="129.6245">-address</text><text fill="#000000" font-family="sans-serif" font-size="11" lengthAdjust="spacing" textLength="85" x="992" y="142.4292">-phoneNumber</text><text fill="#000000" font-family="sans-serif" font-size="11" lengthAdjust="spacing" textLength="34" x="992" y="155.2339">-eMail</text><text fill="#000000" font-family="sans-serif" font-size="11" lengthAdjust="spacing" textLength="224" x="992" y="168.0386">-standardOcupationalClassificationCode</text><!--MD5=[aafc5d8a5829a6a8d6dc892cb1ff5d24]
link Company to ClinicalAnalysisLaboratory--><path codeLine="47" d="M95.0996,110 C122.509,110 159.071,110 192.827,110 " fill="none" id="Company-ClinicalAnalysisLaboratory" style="stroke:#A80036;stroke-width:1.0;"/><polygon fill="#000000" points="135,101.5664,125.9549,98.6275,125.9549,104.5053,135,101.5664" style="stroke:#000000;stroke-width:1.0;"/><text fill="#000000" font-family="sans-serif" font-size="13" lengthAdjust="spacing" textLength="23" x="139" y="106.0669">has</text><text fill="#000000" font-family="sans-serif" font-size="13" lengthAdjust="spacing" textLength="8" x="103.0661" y="123.3363">1</text><text fill="#000000" font-family="sans-serif" font-size="13" lengthAdjust="spacing" textLength="23" x="162.1034" y="122.6217">1..*</text><!--MD5=[d480452e7d21fe720ba0207568bc7434]
link ClinicalAnalysisLaboratory to Test--><path codeLine="48" d="M380.075,110 C411.838,110 447.067,110 477.64,110 " fill="none" id="ClinicalAnalysisLaboratory-Test" style="stroke:#A80036;stroke-width:1.0;"/><polygon fill="#000000" points="420,101.5664,410.9549,98.6275,410.9549,104.5053,420,101.5664" style="stroke:#000000;stroke-width:1.0;"/><text fill="#000000" font-family="sans-serif" font-size="13" lengthAdjust="spacing" textLength="23" x="424" y="106.0669">has</text><text fill="#000000" font-family="sans-serif" font-size="13" lengthAdjust="spacing" textLength="8" x="387.8505" y="122.6689">1</text><text fill="#000000" font-family="sans-serif" font-size="13" lengthAdjust="spacing" textLength="7" x="462.9553" y="122.7432">*</text><!--MD5=[b72ac8ab7fb5921fceb5036a3902baea]
link Test to Sample--><path codeLine="49" d="M637.309,110 C669.524,110 705.927,110 734.826,110 " fill="none" id="Test-Sample" style="stroke:#A80036;stroke-width:1.0;"/><polygon fill="#000000" points="677,101.5664,667.9549,98.6275,667.9549,104.5053,677,101.5664" style="stroke:#000000;stroke-width:1.0;"/><text fill="#000000" font-family="sans-serif" font-size="13" lengthAdjust="spacing" textLength="23" x="681" y="106.0669">has</text><text fill="#000000" font-family="sans-serif" font-size="13" lengthAdjust="spacing" textLength="8" x="645.0351" y="122.7432">1</text><text fill="#000000" font-family="sans-serif" font-size="13" lengthAdjust="spacing" textLength="7" x="720.1432" y="123.0968">*</text><!--MD5=[cb5e86f6614a99551e1d9ce6f0ae5849]
link Sample to MedicalLabTechnician--><path codeLine="50" d="M842.326,110 C881.502,110 936.44,110 985.786,110 " fill="none" id="Sample-MedicalLabTechnician" style="stroke:#A80036;stroke-width:1.0;"/><polygon fill="#000000" points="882,101.5664,872.9549,98.6275,872.9549,104.5053,882,101.5664" style="stroke:#000000;stroke-width:1.0;"/><text fill="#000000" font-family="sans-serif" font-size="13" lengthAdjust="spacing" textLength="69" x="886" y="106.0669">created by</text><text fill="#000000" font-family="sans-serif" font-size="13" lengthAdjust="spacing" textLength="8" x="850.0964" y="123.0968">1</text><text fill="#000000" font-family="sans-serif" font-size="13" lengthAdjust="spacing" textLength="8" x="969.9567" y="122.5634">1</text><!--MD5=[27d3ea4c6aaaa4f5e8004e8aac502fad]
@startuml
skinparam classAttributeIconSize 0
hide methods
left to right direction

class Sample {
  -barcodeNumber
}

class Company {
  -designation
}

class ClinicalAnalysisLaboratory {
  -String name
  -String adress
  -long phoneNumber
  -long tin
  -TestStore testStore
  +getTestStore()
}
class Test {
  -nhsCode;
  -internalCode;
  -client;
  -testType;
  -sampleCollectionMethod;
  -parameterCategory;
  -parameter;
  -samples
  -registrationDate;
  -samplesCollectionDate;
  -chemicalAnalysisDate;
  -diagnosisDate;
  -validationDate;
}

class MedicalLabTechnician {
  -employeeID
  -organizationRole
  -name
  -address
  -phoneNumber
  -eMail
  -standardOcupationalClassificationCode
}

Company "1" - - "1..*" ClinicalAnalysisLaboratory : has >
ClinicalAnalysisLaboratory "1" - - "*" Test : has >
Test "1" - - "*" Sample : has >
Sample "1" - - "1" MedicalLabTechnician : created by >
@enduml

PlantUML version 1.2021.7(Sun May 23 12:40:07 UTC 2021)
(GPL source distribution)
Java Runtime: Java(TM) SE Runtime Environment
JVM: Java HotSpot(TM) 64-Bit Server VM
Default Encoding: UTF-8
Language: en
Country: US
--></g></svg>