<?xml version="1.0" encoding="UTF-8" standalone="no"?>
<svg xmlns="http://www.w3.org/2000/svg" xmlns:xlink="http://www.w3.org/1999/xlink" contentScriptType="application/ecmascript" contentStyleType="text/css" height="227px" preserveAspectRatio="none" style="width:987px;height:227px;background:#FFFFFF;" version="1.1" viewBox="0 0 987 227" width="987px" zoomAndPan="magnify"><defs><filter height="300%" id="f1e8d6j16a2k44" width="300%" x="-1" y="-1"><feGaussianBlur result="blurOut" stdDeviation="2.0"/><feColorMatrix in="blurOut" result="blurOut2" type="matrix" values="0 0 0 0 0 0 0 0 0 0 0 0 0 0 0 0 0 0 .4 0"/><feOffset dx="4.0" dy="4.0" in="blurOut2" result="blurOut3"/><feBlend in="SourceGraphic" in2="blurOut3" mode="normal"/></filter></defs><g><!--MD5=[9681492165142af2a4a3a169d90ee8d4]
class Sample--><rect codeLine="5" fill="#FEFECE" filter="url(#f1e8d6j16a2k44)" height="52.8047" id="Sample" style="stroke:#A80036;stroke-width:1.5;" width="107" x="486" y="83.5"/><ellipse cx="514.5" cy="99.5" fill="#ADD1B2" rx="11" ry="11" style="stroke:#A80036;stroke-width:1.0;"/><path d="M516.8438,95.1719 C515.9063,94.7344 515.3125,94.5938 514.4375,94.5938 C511.8125,94.5938 509.8125,96.6719 509.8125,99.3906 L509.8125,100.5156 C509.8125,103.0938 511.9219,104.9844 514.8125,104.9844 C516.0313,104.9844 517.1875,104.6875 517.9375,104.1406 C518.5156,103.7344 518.8438,103.2813 518.8438,102.8906 C518.8438,102.4375 518.4531,102.0469 517.9844,102.0469 C517.7656,102.0469 517.5625,102.125 517.375,102.3125 C516.9219,102.7969 516.9219,102.7969 516.7344,102.8906 C516.3125,103.1563 515.625,103.2813 514.8594,103.2813 C512.8125,103.2813 511.5156,102.1875 511.5156,100.4844 L511.5156,99.3906 C511.5156,97.6094 512.7656,96.2969 514.5,96.2969 C515.0781,96.2969 515.6875,96.4531 516.1563,96.7031 C516.6406,96.9844 516.8125,97.2031 516.9063,97.6094 C516.9688,98.0156 517,98.1406 517.1406,98.2656 C517.2813,98.4063 517.5156,98.5156 517.7344,98.5156 C518,98.5156 518.2656,98.375 518.4375,98.1563 C518.5469,98 518.5781,97.8125 518.5781,97.3906 L518.5781,95.9688 C518.5781,95.5313 518.5625,95.4063 518.4688,95.25 C518.3125,94.9844 518.0313,94.8438 517.7344,94.8438 C517.4375,94.8438 517.2344,94.9375 517.0156,95.25 L516.8438,95.1719 Z " fill="#000000"/><text fill="#000000" font-family="sans-serif" font-size="12" lengthAdjust="spacing" textLength="45" x="531.5" y="103.6543">Sample</text><line style="stroke:#A80036;stroke-width:1.5;" x1="487" x2="592" y1="115.5" y2="115.5"/><text fill="#000000" font-family="sans-serif" font-size="11" lengthAdjust="spacing" textLength="95" x="492" y="129.7104">-barcodeNumber</text><!--MD5=[02e4b9b7573f1156f41e60aa5b4e25a4]
class Company--><rect codeLine="9" fill="#FEFECE" filter="url(#f1e8d6j16a2k44)" height="52.8047" id="Company" style="stroke:#A80036;stroke-width:1.5;" width="88" x="7" y="83.5"/><ellipse cx="22" cy="99.5" fill="#ADD1B2" rx="11" ry="11" style="stroke:#A80036;stroke-width:1.0;"/><path d="M24.3438,95.1719 C23.4063,94.7344 22.8125,94.5938 21.9375,94.5938 C19.3125,94.5938 17.3125,96.6719 17.3125,99.3906 L17.3125,100.5156 C17.3125,103.0938 19.4219,104.9844 22.3125,104.9844 C23.5313,104.9844 24.6875,104.6875 25.4375,104.1406 C26.0156,103.7344 26.3438,103.2813 26.3438,102.8906 C26.3438,102.4375 25.9531,102.0469 25.4844,102.0469 C25.2656,102.0469 25.0625,102.125 24.875,102.3125 C24.4219,102.7969 24.4219,102.7969 24.2344,102.8906 C23.8125,103.1563 23.125,103.2813 22.3594,103.2813 C20.3125,103.2813 19.0156,102.1875 19.0156,100.4844 L19.0156,99.3906 C19.0156,97.6094 20.2656,96.2969 22,96.2969 C22.5781,96.2969 23.1875,96.4531 23.6563,96.7031 C24.1406,96.9844 24.3125,97.2031 24.4063,97.6094 C24.4688,98.0156 24.5,98.1406 24.6406,98.2656 C24.7813,98.4063 25.0156,98.5156 25.2344,98.5156 C25.5,98.5156 25.7656,98.375 25.9375,98.1563 C26.0469,98 26.0781,97.8125 26.0781,97.3906 L26.0781,95.9688 C26.0781,95.5313 26.0625,95.4063 25.9688,95.25 C25.8125,94.9844 25.5313,94.8438 25.2344,94.8438 C24.9375,94.8438 24.7344,94.9375 24.5156,95.25 L24.3438,95.1719 Z " fill="#000000"/><text fill="#000000" font-family="sans-serif" font-size="12" lengthAdjust="spacing" textLength="56" x="36" y="103.6543">Company</text><line style="stroke:#A80036;stroke-width:1.5;" x1="8" x2="94" y1="115.5" y2="115.5"/><text fill="#000000" font-family="sans-serif" font-size="11" lengthAdjust="spacing" textLength="70" x="13" y="129.7104">-designation</text><!--MD5=[df38be88ccee13e832d6fafd6288a4ca]
class Test--><rect codeLine="13" fill="#FEFECE" filter="url(#f1e8d6j16a2k44)" height="206.4609" id="Test" style="stroke:#A80036;stroke-width:1.5;" width="159" x="229" y="7"/><ellipse cx="291.25" cy="23" fill="#ADD1B2" rx="11" ry="11" style="stroke:#A80036;stroke-width:1.0;"/><path d="M293.5938,18.6719 C292.6563,18.2344 292.0625,18.0938 291.1875,18.0938 C288.5625,18.0938 286.5625,20.1719 286.5625,22.8906 L286.5625,24.0156 C286.5625,26.5938 288.6719,28.4844 291.5625,28.4844 C292.7813,28.4844 293.9375,28.1875 294.6875,27.6406 C295.2656,27.2344 295.5938,26.7813 295.5938,26.3906 C295.5938,25.9375 295.2031,25.5469 294.7344,25.5469 C294.5156,25.5469 294.3125,25.625 294.125,25.8125 C293.6719,26.2969 293.6719,26.2969 293.4844,26.3906 C293.0625,26.6563 292.375,26.7813 291.6094,26.7813 C289.5625,26.7813 288.2656,25.6875 288.2656,23.9844 L288.2656,22.8906 C288.2656,21.1094 289.5156,19.7969 291.25,19.7969 C291.8281,19.7969 292.4375,19.9531 292.9063,20.2031 C293.3906,20.4844 293.5625,20.7031 293.6563,21.1094 C293.7188,21.5156 293.75,21.6406 293.8906,21.7656 C294.0313,21.9063 294.2656,22.0156 294.4844,22.0156 C294.75,22.0156 295.0156,21.875 295.1875,21.6563 C295.2969,21.5 295.3281,21.3125 295.3281,20.8906 L295.3281,19.4688 C295.3281,19.0313 295.3125,18.9063 295.2188,18.75 C295.0625,18.4844 294.7813,18.3438 294.4844,18.3438 C294.1875,18.3438 293.9844,18.4375 293.7656,18.75 L293.5938,18.6719 Z " fill="#000000"/><text fill="#000000" font-family="sans-serif" font-size="12" lengthAdjust="spacing" textLength="26" x="311.75" y="27.1543">Test</text><line style="stroke:#A80036;stroke-width:1.5;" x1="230" x2="387" y1="39" y2="39"/><text fill="#000000" font-family="sans-serif" font-size="11" lengthAdjust="spacing" textLength="134" x="235" y="53.2104">private String nhsCode;</text><text fill="#000000" font-family="sans-serif" font-size="11" lengthAdjust="spacing" textLength="80" x="235" y="66.0151">-internalCode;</text><text fill="#000000" font-family="sans-serif" font-size="11" lengthAdjust="spacing" textLength="38" x="235" y="78.8198">-client;</text><text fill="#000000" font-family="sans-serif" font-size="11" lengthAdjust="spacing" textLength="58" x="235" y="91.6245">-testType;</text><text fill="#000000" font-family="sans-serif" font-size="11" lengthAdjust="spacing" textLength="147" x="235" y="104.4292">-sampleCollectionMethod;</text><text fill="#000000" font-family="sans-serif" font-size="11" lengthAdjust="spacing" textLength="119" x="235" y="117.2339">-parameterCategory;</text><text fill="#000000" font-family="sans-serif" font-size="11" lengthAdjust="spacing" textLength="67" x="235" y="130.0386">-parameter;</text><text fill="#000000" font-family="sans-serif" font-size="11" lengthAdjust="spacing" textLength="52" x="235" y="142.8433">-samples</text><text fill="#000000" font-family="sans-serif" font-size="11" lengthAdjust="spacing" textLength="99" x="235" y="155.6479">-registrationDate;</text><text fill="#000000" font-family="sans-serif" font-size="11" lengthAdjust="spacing" textLength="139" x="235" y="168.4526">-samplesCollectionDate;</text><text fill="#000000" font-family="sans-serif" font-size="11" lengthAdjust="spacing" textLength="133" x="235" y="181.2573">-chemicalAnalysisDate;</text><text fill="#000000" font-family="sans-serif" font-size="11" lengthAdjust="spacing" textLength="88" x="235" y="194.062">-diagnosisDate;</text><text fill="#000000" font-family="sans-serif" font-size="11" lengthAdjust="spacing" textLength="90" x="235" y="206.8667">-validationDate;</text><!--MD5=[01931d41e78f8996acd44f6f0fd8de28]
class MedicalLabTechnician--><rect codeLine="29" fill="#FEFECE" filter="url(#f1e8d6j16a2k44)" height="129.6328" id="MedicalLabTechnician" style="stroke:#A80036;stroke-width:1.5;" width="236" x="737" y="45"/><ellipse cx="785.75" cy="61" fill="#ADD1B2" rx="11" ry="11" style="stroke:#A80036;stroke-width:1.0;"/><path d="M788.0938,56.6719 C787.1563,56.2344 786.5625,56.0938 785.6875,56.0938 C783.0625,56.0938 781.0625,58.1719 781.0625,60.8906 L781.0625,62.0156 C781.0625,64.5938 783.1719,66.4844 786.0625,66.4844 C787.2813,66.4844 788.4375,66.1875 789.1875,65.6406 C789.7656,65.2344 790.0938,64.7813 790.0938,64.3906 C790.0938,63.9375 789.7031,63.5469 789.2344,63.5469 C789.0156,63.5469 788.8125,63.625 788.625,63.8125 C788.1719,64.2969 788.1719,64.2969 787.9844,64.3906 C787.5625,64.6563 786.875,64.7813 786.1094,64.7813 C784.0625,64.7813 782.7656,63.6875 782.7656,61.9844 L782.7656,60.8906 C782.7656,59.1094 784.0156,57.7969 785.75,57.7969 C786.3281,57.7969 786.9375,57.9531 787.4063,58.2031 C787.8906,58.4844 788.0625,58.7031 788.1563,59.1094 C788.2188,59.5156 788.25,59.6406 788.3906,59.7656 C788.5313,59.9063 788.7656,60.0156 788.9844,60.0156 C789.25,60.0156 789.5156,59.875 789.6875,59.6563 C789.7969,59.5 789.8281,59.3125 789.8281,58.8906 L789.8281,57.4688 C789.8281,57.0313 789.8125,56.9063 789.7188,56.75 C789.5625,56.4844 789.2813,56.3438 788.9844,56.3438 C788.6875,56.3438 788.4844,56.4375 788.2656,56.75 L788.0938,56.6719 Z " fill="#000000"/><text fill="#000000" font-family="sans-serif" font-size="12" lengthAdjust="spacing" textLength="130" x="806.25" y="65.1543">MedicalLabTechnician</text><line style="stroke:#A80036;stroke-width:1.5;" x1="738" x2="972" y1="77" y2="77"/><text fill="#000000" font-family="sans-serif" font-size="11" lengthAdjust="spacing" textLength="75" x="743" y="91.2104">-employeeID</text><text fill="#000000" font-family="sans-serif" font-size="11" lengthAdjust="spacing" textLength="99" x="743" y="104.0151">-organizationRole</text><text fill="#000000" font-family="sans-serif" font-size="11" lengthAdjust="spacing" textLength="37" x="743" y="116.8198">-name</text><text fill="#000000" font-family="sans-serif" font-size="11" lengthAdjust="spacing" textLength="49" x="743" y="129.6245">-address</text><text fill="#000000" font-family="sans-serif" font-size="11" lengthAdjust="spacing" textLength="85" x="743" y="142.4292">-phoneNumber</text><text fill="#000000" font-family="sans-serif" font-size="11" lengthAdjust="spacing" textLength="34" x="743" y="155.2339">-eMail</text><text fill="#000000" font-family="sans-serif" font-size="11" lengthAdjust="spacing" textLength="224" x="743" y="168.0386">-standardOcupationalClassificationCode</text><!--MD5=[7e4bc624457760b649895ff2ead938fa]
link Company to Test--><path codeLine="39" d="M95.0532,110 C131.532,110 184.78,110 228.84,110 " fill="none" id="Company-Test" style="stroke:#A80036;stroke-width:1.0;"/><polygon fill="#000000" points="135,101.5664,125.9549,98.6275,125.9549,104.5053,135,101.5664" style="stroke:#000000;stroke-width:1.0;"/><text fill="#000000" font-family="sans-serif" font-size="13" lengthAdjust="spacing" textLength="59" x="139" y="106.0669">performs</text><text fill="#000000" font-family="sans-serif" font-size="13" lengthAdjust="spacing" textLength="8" x="103.012" y="123.3363">1</text><text fill="#000000" font-family="sans-serif" font-size="13" lengthAdjust="spacing" textLength="7" x="213.9138" y="122.7661">*</text><!--MD5=[b72ac8ab7fb5921fceb5036a3902baea]
link Test to Sample--><path codeLine="40" d="M388.309,110 C420.524,110 456.927,110 485.826,110 " fill="none" id="Test-Sample" style="stroke:#A80036;stroke-width:1.0;"/><polygon fill="#000000" points="428,101.5664,418.9549,98.6275,418.9549,104.5053,428,101.5664" style="stroke:#000000;stroke-width:1.0;"/><text fill="#000000" font-family="sans-serif" font-size="13" lengthAdjust="spacing" textLength="23" x="432" y="106.0669">has</text><text fill="#000000" font-family="sans-serif" font-size="13" lengthAdjust="spacing" textLength="8" x="396.0351" y="122.7432">1</text><text fill="#000000" font-family="sans-serif" font-size="13" lengthAdjust="spacing" textLength="7" x="471.1432" y="123.0968">*</text><!--MD5=[cb5e86f6614a99551e1d9ce6f0ae5849]
link Sample to MedicalLabTechnician--><path codeLine="41" d="M593.326,110 C632.502,110 687.44,110 736.786,110 " fill="none" id="Sample-MedicalLabTechnician" style="stroke:#A80036;stroke-width:1.0;"/><polygon fill="#000000" points="633,101.5664,623.9549,98.6275,623.9549,104.5053,633,101.5664" style="stroke:#000000;stroke-width:1.0;"/><text fill="#000000" font-family="sans-serif" font-size="13" lengthAdjust="spacing" textLength="69" x="637" y="106.0669">created by</text><text fill="#000000" font-family="sans-serif" font-size="13" lengthAdjust="spacing" textLength="8" x="601.0964" y="123.0968">1</text><text fill="#000000" font-family="sans-serif" font-size="13" lengthAdjust="spacing" textLength="8" x="720.9567" y="122.5634">1</text><!--MD5=[f3bbba6735d651c4a4574ff5d4639e1a]
@startuml
skinparam classAttributeIconSize 0
hide methods
left to right direction

class Sample {
  -barcodeNumber
}

class Company {
  -designation
}

class Test {
private String nhsCode;
  -internalCode;
  -client;
  -testType;
  -sampleCollectionMethod;
  -parameterCategory;
  -parameter;
  -samples
  -registrationDate;
  -samplesCollectionDate;
  -chemicalAnalysisDate;
  -diagnosisDate;
  -validationDate;
}

class MedicalLabTechnician {
  -employeeID
  -organizationRole
  -name
  -address
  -phoneNumber
  -eMail
  -standardOcupationalClassificationCode
}

Company "1" - - "*" Test : performs >
Test "1" - - "*" Sample : has >
Sample "1" - - "1" MedicalLabTechnician : created by >
@enduml

PlantUML version 1.2021.7(Sun May 23 12:40:07 UTC 2021)
(GPL source distribution)
Java Runtime: Java(TM) SE Runtime Environment
JVM: Java HotSpot(TM) 64-Bit Server VM
Default Encoding: UTF-8
Language: en
Country: US
--></g></svg>