<?xml version="1.0" encoding="UTF-8" standalone="no"?>
<svg xmlns="http://www.w3.org/2000/svg" xmlns:xlink="http://www.w3.org/1999/xlink" contentScriptType="application/ecmascript" contentStyleType="text/css" height="456px" preserveAspectRatio="none" style="width:536px;height:456px;" version="1.1" viewBox="0 0 536 456" width="536px" zoomAndPan="magnify"><defs><filter height="300%" id="feg9qotxr1sqg" width="300%" x="-1" y="-1"><feGaussianBlur result="blurOut" stdDeviation="2.0"/><feColorMatrix in="blurOut" result="blurOut2" type="matrix" values="0 0 0 0 0 0 0 0 0 0 0 0 0 0 0 0 0 0 .4 0"/><feOffset dx="4.0" dy="4.0" in="blurOut2" result="blurOut3"/><feBlend in="SourceGraphic" in2="blurOut3" mode="normal"/></filter></defs><g><rect fill="#FFFFFF" filter="url(#feg9qotxr1sqg)" height="256.1953" style="stroke:#A80036;stroke-width:1.0;" width="10" x="68" y="98.2969"/><rect fill="#FFFFFF" filter="url(#feg9qotxr1sqg)" height="29.1328" style="stroke:#A80036;stroke-width:1.0;" width="10" x="469" y="119.4297"/><rect fill="#FFFFFF" filter="url(#feg9qotxr1sqg)" height="53.2656" style="stroke:#A80036;stroke-width:1.0;" width="10" x="469" y="177.6953"/><rect fill="#FFFFFF" filter="url(#feg9qotxr1sqg)" height="36.1328" style="stroke:#A80036;stroke-width:1.0;" width="10" x="469" y="260.0938"/><rect fill="#FFFFFF" filter="url(#feg9qotxr1sqg)" height="29.1328" style="stroke:#A80036;stroke-width:1.0;" width="10" x="469" y="325.3594"/><rect fill="#FFFFFF" filter="url(#feg9qotxr1sqg)" height="75.3984" style="stroke:#000000;stroke-width:2.0;" width="512.5" x="10" y="192.6953"/><line style="stroke:#A80036;stroke-width:1.0;stroke-dasharray:5.0,5.0;" x1="73" x2="73" y1="88.2969" y2="372.4922"/><line style="stroke:#A80036;stroke-width:1.0;stroke-dasharray:5.0,5.0;" x1="473.5" x2="473.5" y1="88.2969" y2="372.4922"/><text fill="#000000" font-family="sans-serif" font-size="14" lengthAdjust="spacing" textLength="100" x="20" y="84.9951">Administrator</text><ellipse cx="73" cy="15" fill="#FEFECE" filter="url(#feg9qotxr1sqg)" rx="8" ry="8" style="stroke:#A80036;stroke-width:2.0;"/><path d="M73,23 L73,50 M60,31 L86,31 M73,50 L60,65 M73,50 L86,65 " fill="none" filter="url(#feg9qotxr1sqg)" style="stroke:#A80036;stroke-width:2.0;"/><text fill="#000000" font-family="sans-serif" font-size="14" lengthAdjust="spacing" textLength="100" x="20" y="384.4873">Administrator</text><ellipse cx="73" cy="397.7891" fill="#FEFECE" filter="url(#feg9qotxr1sqg)" rx="8" ry="8" style="stroke:#A80036;stroke-width:2.0;"/><path d="M73,405.7891 L73,432.7891 M60,413.7891 L86,413.7891 M73,432.7891 L60,447.7891 M73,432.7891 L86,447.7891 " fill="none" filter="url(#feg9qotxr1sqg)" style="stroke:#A80036;stroke-width:2.0;"/><rect fill="#FEFECE" filter="url(#feg9qotxr1sqg)" height="30.2969" style="stroke:#A80036;stroke-width:1.5;" width="73" x="435.5" y="53"/><text fill="#000000" font-family="sans-serif" font-size="14" lengthAdjust="spacing" textLength="59" x="442.5" y="72.9951">:System</text><rect fill="#FEFECE" filter="url(#feg9qotxr1sqg)" height="30.2969" style="stroke:#A80036;stroke-width:1.5;" width="73" x="435.5" y="371.4922"/><text fill="#000000" font-family="sans-serif" font-size="14" lengthAdjust="spacing" textLength="59" x="442.5" y="391.4873">:System</text><rect fill="#FFFFFF" filter="url(#feg9qotxr1sqg)" height="256.1953" style="stroke:#A80036;stroke-width:1.0;" width="10" x="68" y="98.2969"/><rect fill="#FFFFFF" filter="url(#feg9qotxr1sqg)" height="29.1328" style="stroke:#A80036;stroke-width:1.0;" width="10" x="469" y="119.4297"/><rect fill="#FFFFFF" filter="url(#feg9qotxr1sqg)" height="53.2656" style="stroke:#A80036;stroke-width:1.0;" width="10" x="469" y="177.6953"/><rect fill="#FFFFFF" filter="url(#feg9qotxr1sqg)" height="36.1328" style="stroke:#A80036;stroke-width:1.0;" width="10" x="469" y="260.0938"/><rect fill="#FFFFFF" filter="url(#feg9qotxr1sqg)" height="29.1328" style="stroke:#A80036;stroke-width:1.0;" width="10" x="469" y="325.3594"/><polygon fill="#A80036" points="457,115.4297,467,119.4297,457,123.4297,461,119.4297" style="stroke:#A80036;stroke-width:1.0;"/><line style="stroke:#A80036;stroke-width:1.0;" x1="78" x2="463" y1="119.4297" y2="119.4297"/><text fill="#000000" font-family="sans-serif" font-size="13" font-weight="bold" lengthAdjust="spacing" textLength="9" x="85" y="114.3638">1</text><text fill="#000000" font-family="sans-serif" font-size="13" lengthAdjust="spacing" textLength="147" x="98" y="114.3638">starts new type of test</text><polygon fill="#A80036" points="89,144.5625,79,148.5625,89,152.5625,85,148.5625" style="stroke:#A80036;stroke-width:1.0;"/><line style="stroke:#A80036;stroke-width:1.0;stroke-dasharray:2.0,2.0;" x1="83" x2="473" y1="148.5625" y2="148.5625"/><text fill="#000000" font-family="sans-serif" font-size="13" font-weight="bold" lengthAdjust="spacing" textLength="9" x="95" y="143.4966">2</text><text fill="#000000" font-family="sans-serif" font-size="13" lengthAdjust="spacing" textLength="354" x="108" y="143.4966">resquest data (i.e., code, description, collectingMethod)</text><polygon fill="#A80036" points="457,173.6953,467,177.6953,457,181.6953,461,177.6953" style="stroke:#A80036;stroke-width:1.0;"/><line style="stroke:#A80036;stroke-width:1.0;" x1="78" x2="463" y1="177.6953" y2="177.6953"/><text fill="#000000" font-family="sans-serif" font-size="13" font-weight="bold" lengthAdjust="spacing" textLength="8" x="85" y="172.6294">3</text><text fill="#000000" font-family="sans-serif" font-size="13" lengthAdjust="spacing" textLength="138" x="97" y="172.6294">types requested data</text><path d="M10,192.6953 L88,192.6953 L88,199.6953 L78,209.6953 L10,209.6953 L10,192.6953 " fill="#EEEEEE" style="stroke:#000000;stroke-width:1.0;"/><rect fill="none" height="75.3984" style="stroke:#000000;stroke-width:2.0;" width="512.5" x="10" y="192.6953"/><text fill="#000000" font-family="sans-serif" font-size="13" font-weight="bold" lengthAdjust="spacing" textLength="33" x="25" y="205.7622">loop</text><text fill="#000000" font-family="sans-serif" font-size="11" font-weight="bold" lengthAdjust="spacing" textLength="264" x="103" y="204.9058">[until no more categories are selected]</text><polygon fill="#A80036" points="89,226.9609,79,230.9609,89,234.9609,85,230.9609" style="stroke:#A80036;stroke-width:1.0;"/><line style="stroke:#A80036;stroke-width:1.0;stroke-dasharray:2.0,2.0;" x1="83" x2="473" y1="230.9609" y2="230.9609"/><text fill="#000000" font-family="sans-serif" font-size="13" font-weight="bold" lengthAdjust="spacing" textLength="9" x="95" y="225.895">4</text><text fill="#000000" font-family="sans-serif" font-size="13" lengthAdjust="spacing" textLength="337" x="108" y="225.895">shows parameter category list and ask to select one</text><polygon fill="#A80036" points="457,256.0938,467,260.0938,457,264.0938,461,260.0938" style="stroke:#A80036;stroke-width:1.0;"/><line style="stroke:#A80036;stroke-width:1.0;" x1="78" x2="463" y1="260.0938" y2="260.0938"/><text fill="#000000" font-family="sans-serif" font-size="13" font-weight="bold" lengthAdjust="spacing" textLength="9" x="85" y="255.0278">5</text><text fill="#000000" font-family="sans-serif" font-size="13" lengthAdjust="spacing" textLength="203" x="98" y="255.0278">selects the parameter category</text><polygon fill="#A80036" points="89,292.2266,79,296.2266,89,300.2266,85,296.2266" style="stroke:#A80036;stroke-width:1.0;"/><line style="stroke:#A80036;stroke-width:1.0;stroke-dasharray:2.0,2.0;" x1="83" x2="473" y1="296.2266" y2="296.2266"/><text fill="#000000" font-family="sans-serif" font-size="13" font-weight="bold" lengthAdjust="spacing" textLength="9" x="95" y="291.1606">6</text><text fill="#000000" font-family="sans-serif" font-size="13" lengthAdjust="spacing" textLength="258" x="108" y="291.1606">shows all data and request confirmation</text><polygon fill="#A80036" points="457,321.3594,467,325.3594,457,329.3594,461,325.3594" style="stroke:#A80036;stroke-width:1.0;"/><line style="stroke:#A80036;stroke-width:1.0;" x1="78" x2="463" y1="325.3594" y2="325.3594"/><text fill="#000000" font-family="sans-serif" font-size="13" font-weight="bold" lengthAdjust="spacing" textLength="9" x="85" y="320.2935">7</text><text fill="#000000" font-family="sans-serif" font-size="13" lengthAdjust="spacing" textLength="114" x="98" y="320.2935">confirms the data</text><polygon fill="#A80036" points="84,350.4922,74,354.4922,84,358.4922,80,354.4922" style="stroke:#A80036;stroke-width:1.0;"/><line style="stroke:#A80036;stroke-width:1.0;stroke-dasharray:2.0,2.0;" x1="78" x2="473" y1="354.4922" y2="354.4922"/><text fill="#000000" font-family="sans-serif" font-size="13" font-weight="bold" lengthAdjust="spacing" textLength="9" x="90" y="349.4263">8</text><text fill="#000000" font-family="sans-serif" font-size="13" lengthAdjust="spacing" textLength="169" x="103" y="349.4263">informs operation success</text><!--MD5=[63a1dd037e50699a2930ce47b739c071]
@startuml
autonumber
actor "Administrator" as ADMIN

activate ADMIN
ADMIN-> ":System" : starts new type of test 
activate ":System"
":System" - -> ADMIN : resquest data (i.e., code, description, collectingMethod)
deactivate ":System"

ADMIN -> ":System" : types requested data
activate ":System"
loop until no more categories are selected
	":System" - -> ADMIN : shows parameter category list and ask to select one
	deactivate ":System"

	ADMIN -> ":System" : selects the parameter category
	activate ":System"
end
":System" - -> ADMIN : shows all data and request confirmation 
deactivate ":System"

ADMIN -> ":System" : confirms the data
activate ":System"
":System" - -> ADMIN : informs operation success 
deactivate ":System"

deactivate ADMIN
@enduml

PlantUML version 1.2021.6beta2(Unknown compile time)
(GPL source distribution)
Java Runtime: Java(TM) SE Runtime Environment
JVM: Java HotSpot(TM) 64-Bit Server VM
Default Encoding: UTF-8
Language: en
Country: US
--></g></svg>