<?xml version="1.0" encoding="UTF-8" standalone="no"?>
<svg xmlns="http://www.w3.org/2000/svg" xmlns:xlink="http://www.w3.org/1999/xlink" contentScriptType="application/ecmascript" contentStyleType="text/css" height="678px" preserveAspectRatio="none" style="width:1364px;height:678px;background:#FFFFFF;" version="1.1" viewBox="0 0 1364 678" width="1364px" zoomAndPan="magnify"><defs><filter height="300%" id="fc0g66jwf8fq" width="300%" x="-1" y="-1"><feGaussianBlur result="blurOut" stdDeviation="2.0"/><feColorMatrix in="blurOut" result="blurOut2" type="matrix" values="0 0 0 0 0 0 0 0 0 0 0 0 0 0 0 0 0 0 .4 0"/><feOffset dx="4.0" dy="4.0" in="blurOut2" result="blurOut3"/><feBlend in="SourceGraphic" in2="blurOut3" mode="normal"/></filter></defs><g><rect fill="#FFFFFF" filter="url(#fc0g66jwf8fq)" height="477.9922" style="stroke:#A80036;stroke-width:1.0;" width="10" x="85.5" y="98.2969"/><rect fill="#FFFFFF" filter="url(#fc0g66jwf8fq)" height="205.6641" style="stroke:#A80036;stroke-width:1.0;" width="10" x="379.5" y="119.4297"/><rect fill="#FFFFFF" filter="url(#fc0g66jwf8fq)" height="29.1328" style="stroke:#A80036;stroke-width:1.0;" width="10" x="379.5" y="354.2266"/><rect fill="#FFFFFF" filter="url(#fc0g66jwf8fq)" height="163.7969" style="stroke:#A80036;stroke-width:1.0;" width="10" x="379.5" y="412.4922"/><rect fill="#FFFFFF" filter="url(#fc0g66jwf8fq)" height="147.3984" style="stroke:#A80036;stroke-width:1.0;" width="10" x="723.5" y="148.5625"/><rect fill="#FFFFFF" filter="url(#fc0g66jwf8fq)" height="134.6641" style="stroke:#A80036;stroke-width:1.0;" width="10" x="723.5" y="441.625"/><rect fill="#FFFFFF" filter="url(#fc0g66jwf8fq)" height="59.1328" style="stroke:#A80036;stroke-width:1.0;" width="10" x="888" y="177.6953"/><rect fill="#FFFFFF" filter="url(#fc0g66jwf8fq)" height="30" style="stroke:#A80036;stroke-width:1.0;" width="10" x="1048.5" y="206.8281"/><rect fill="#FFFFFF" filter="url(#fc0g66jwf8fq)" height="30" style="stroke:#A80036;stroke-width:1.0;" width="10" x="1208.5" y="265.9609"/><rect fill="#FFFFFF" filter="url(#fc0g66jwf8fq)" height="105.5313" style="stroke:#A80036;stroke-width:1.0;" width="10" x="1208.5" y="470.7578"/><rect fill="#FFFFFF" filter="url(#fc0g66jwf8fq)" height="62.3984" style="stroke:#000000;stroke-width:2.0;" width="741" x="609.5" y="485.7578"/><line style="stroke:#A80036;stroke-width:1.0;stroke-dasharray:5.0,5.0;" x1="90" x2="90" y1="88.2969" y2="594.2891"/><line style="stroke:#A80036;stroke-width:1.0;stroke-dasharray:5.0,5.0;" x1="384.5" x2="384.5" y1="88.2969" y2="594.2891"/><line style="stroke:#A80036;stroke-width:1.0;stroke-dasharray:5.0,5.0;" x1="728.5" x2="728.5" y1="88.2969" y2="594.2891"/><line style="stroke:#A80036;stroke-width:1.0;stroke-dasharray:5.0,5.0;" x1="892.5" x2="892.5" y1="88.2969" y2="594.2891"/><line style="stroke:#A80036;stroke-width:1.0;stroke-dasharray:5.0,5.0;" x1="1053.5" x2="1053.5" y1="88.2969" y2="594.2891"/><line style="stroke:#A80036;stroke-width:1.0;stroke-dasharray:5.0,5.0;" x1="1213.5" x2="1213.5" y1="88.2969" y2="594.2891"/><line style="stroke:#A80036;stroke-width:1.0;stroke-dasharray:5.0,5.0;" x1="1304.5" x2="1304.5" y1="88.2969" y2="594.2891"/><text fill="#000000" font-family="sans-serif" font-size="14" lengthAdjust="spacing" textLength="165" x="5" y="84.9951">Medical Lab Technician</text><ellipse cx="90.5" cy="15" fill="#FEFECE" filter="url(#fc0g66jwf8fq)" rx="8" ry="8" style="stroke:#A80036;stroke-width:2.0;"/><path d="M90.5,23 L90.5,50 M77.5,31 L103.5,31 M90.5,50 L77.5,65 M90.5,50 L103.5,65 " fill="none" filter="url(#fc0g66jwf8fq)" style="stroke:#A80036;stroke-width:2.0;"/><text fill="#000000" font-family="sans-serif" font-size="14" lengthAdjust="spacing" textLength="165" x="5" y="606.2842">Medical Lab Technician</text><ellipse cx="90.5" cy="619.5859" fill="#FEFECE" filter="url(#fc0g66jwf8fq)" rx="8" ry="8" style="stroke:#A80036;stroke-width:2.0;"/><path d="M90.5,627.5859 L90.5,654.5859 M77.5,635.5859 L103.5,635.5859 M90.5,654.5859 L77.5,669.5859 M90.5,654.5859 L103.5,669.5859 " fill="none" filter="url(#fc0g66jwf8fq)" style="stroke:#A80036;stroke-width:2.0;"/><rect fill="#FEFECE" filter="url(#fc0g66jwf8fq)" height="30.2969" style="stroke:#A80036;stroke-width:1.5;" width="154" x="305.5" y="53"/><text fill="#000000" font-family="sans-serif" font-size="14" lengthAdjust="spacing" textLength="140" x="312.5" y="72.9951">:GenerateSampleUI</text><rect fill="#FEFECE" filter="url(#fc0g66jwf8fq)" height="30.2969" style="stroke:#A80036;stroke-width:1.5;" width="154" x="305.5" y="593.2891"/><text fill="#000000" font-family="sans-serif" font-size="14" lengthAdjust="spacing" textLength="140" x="312.5" y="613.2842">:GenerateSampleUI</text><rect fill="#FEFECE" filter="url(#fc0g66jwf8fq)" height="30.2969" style="stroke:#A80036;stroke-width:1.5;" width="214" x="619.5" y="53"/><text fill="#000000" font-family="sans-serif" font-size="14" lengthAdjust="spacing" textLength="200" x="626.5" y="72.9951">:GenerateSampleController</text><rect fill="#FEFECE" filter="url(#fc0g66jwf8fq)" height="30.2969" style="stroke:#A80036;stroke-width:1.5;" width="214" x="619.5" y="593.2891"/><text fill="#000000" font-family="sans-serif" font-size="14" lengthAdjust="spacing" textLength="200" x="626.5" y="613.2842">:GenerateSampleController</text><rect fill="#FEFECE" filter="url(#fc0g66jwf8fq)" height="30.2969" style="stroke:#A80036;stroke-width:1.5;" width="87" x="847.5" y="53"/><text fill="#000000" font-family="sans-serif" font-size="14" lengthAdjust="spacing" textLength="73" x="854.5" y="72.9951">:Company</text><rect fill="#FEFECE" filter="url(#fc0g66jwf8fq)" height="30.2969" style="stroke:#A80036;stroke-width:1.5;" width="87" x="847.5" y="593.2891"/><text fill="#000000" font-family="sans-serif" font-size="14" lengthAdjust="spacing" textLength="73" x="854.5" y="613.2842">:Company</text><rect fill="#FEFECE" filter="url(#fc0g66jwf8fq)" height="30.2969" style="stroke:#A80036;stroke-width:1.5;" width="206" x="948.5" y="53"/><text fill="#000000" font-family="sans-serif" font-size="14" lengthAdjust="spacing" textLength="192" x="955.5" y="72.9951">:ClinicalAnalysisLaboratory</text><rect fill="#FEFECE" filter="url(#fc0g66jwf8fq)" height="30.2969" style="stroke:#A80036;stroke-width:1.5;" width="206" x="948.5" y="593.2891"/><text fill="#000000" font-family="sans-serif" font-size="14" lengthAdjust="spacing" textLength="192" x="955.5" y="613.2842">:ClinicalAnalysisLaboratory</text><rect fill="#FEFECE" filter="url(#fc0g66jwf8fq)" height="46.5938" style="stroke:#A80036;stroke-width:1.5;" width="86" x="1168.5" y="36.7031"/><text fill="#000000" font-family="sans-serif" font-size="14" lengthAdjust="spacing" textLength="19" x="1202" y="56.6982">ts:</text><text fill="#000000" font-family="sans-serif" font-size="14" lengthAdjust="spacing" textLength="72" x="1175.5" y="72.9951">TestStore</text><rect fill="#FEFECE" filter="url(#fc0g66jwf8fq)" height="46.5938" style="stroke:#A80036;stroke-width:1.5;" width="86" x="1168.5" y="593.2891"/><text fill="#000000" font-family="sans-serif" font-size="14" lengthAdjust="spacing" textLength="19" x="1202" y="613.2842">ts:</text><text fill="#000000" font-family="sans-serif" font-size="14" lengthAdjust="spacing" textLength="72" x="1175.5" y="629.5811">TestStore</text><rect fill="#FEFECE" filter="url(#fc0g66jwf8fq)" height="46.5938" style="stroke:#A80036;stroke-width:1.5;" width="68" x="1268.5" y="36.7031"/><text fill="#000000" font-family="sans-serif" font-size="14" lengthAdjust="spacing" textLength="12" x="1296.5" y="56.6982">s:</text><text fill="#000000" font-family="sans-serif" font-size="14" lengthAdjust="spacing" textLength="54" x="1275.5" y="72.9951">Sample</text><rect fill="#FEFECE" filter="url(#fc0g66jwf8fq)" height="46.5938" style="stroke:#A80036;stroke-width:1.5;" width="68" x="1268.5" y="593.2891"/><text fill="#000000" font-family="sans-serif" font-size="14" lengthAdjust="spacing" textLength="12" x="1296.5" y="613.2842">s:</text><text fill="#000000" font-family="sans-serif" font-size="14" lengthAdjust="spacing" textLength="54" x="1275.5" y="629.5811">Sample</text><rect fill="#FFFFFF" filter="url(#fc0g66jwf8fq)" height="477.9922" style="stroke:#A80036;stroke-width:1.0;" width="10" x="85.5" y="98.2969"/><rect fill="#FFFFFF" filter="url(#fc0g66jwf8fq)" height="205.6641" style="stroke:#A80036;stroke-width:1.0;" width="10" x="379.5" y="119.4297"/><rect fill="#FFFFFF" filter="url(#fc0g66jwf8fq)" height="29.1328" style="stroke:#A80036;stroke-width:1.0;" width="10" x="379.5" y="354.2266"/><rect fill="#FFFFFF" filter="url(#fc0g66jwf8fq)" height="163.7969" style="stroke:#A80036;stroke-width:1.0;" width="10" x="379.5" y="412.4922"/><rect fill="#FFFFFF" filter="url(#fc0g66jwf8fq)" height="147.3984" style="stroke:#A80036;stroke-width:1.0;" width="10" x="723.5" y="148.5625"/><rect fill="#FFFFFF" filter="url(#fc0g66jwf8fq)" height="134.6641" style="stroke:#A80036;stroke-width:1.0;" width="10" x="723.5" y="441.625"/><rect fill="#FFFFFF" filter="url(#fc0g66jwf8fq)" height="59.1328" style="stroke:#A80036;stroke-width:1.0;" width="10" x="888" y="177.6953"/><rect fill="#FFFFFF" filter="url(#fc0g66jwf8fq)" height="30" style="stroke:#A80036;stroke-width:1.0;" width="10" x="1048.5" y="206.8281"/><rect fill="#FFFFFF" filter="url(#fc0g66jwf8fq)" height="30" style="stroke:#A80036;stroke-width:1.0;" width="10" x="1208.5" y="265.9609"/><rect fill="#FFFFFF" filter="url(#fc0g66jwf8fq)" height="105.5313" style="stroke:#A80036;stroke-width:1.0;" width="10" x="1208.5" y="470.7578"/><polygon fill="#A80036" points="367.5,115.4297,377.5,119.4297,367.5,123.4297,371.5,119.4297" style="stroke:#A80036;stroke-width:1.0;"/><line style="stroke:#A80036;stroke-width:1.0;" x1="95.5" x2="373.5" y1="119.4297" y2="119.4297"/><text fill="#000000" font-family="sans-serif" font-size="13" font-weight="bold" lengthAdjust="spacing" textLength="9" x="102.5" y="114.3638">1</text><text fill="#000000" font-family="sans-serif" font-size="13" lengthAdjust="spacing" textLength="138" x="115.5" y="114.3638">register new samples</text><polygon fill="#A80036" points="711.5,144.5625,721.5,148.5625,711.5,152.5625,715.5,148.5625" style="stroke:#A80036;stroke-width:1.0;"/><line style="stroke:#A80036;stroke-width:1.0;" x1="389.5" x2="717.5" y1="148.5625" y2="148.5625"/><text fill="#000000" font-family="sans-serif" font-size="13" font-weight="bold" lengthAdjust="spacing" textLength="9" x="396.5" y="143.4966">2</text><text fill="#000000" font-family="sans-serif" font-size="13" lengthAdjust="spacing" textLength="189" x="409.5" y="143.4966">lt=getTestsWithoutSamples()</text><polygon fill="#A80036" points="876,173.6953,886,177.6953,876,181.6953,880,177.6953" style="stroke:#A80036;stroke-width:1.0;"/><line style="stroke:#A80036;stroke-width:1.0;" x1="733.5" x2="882" y1="177.6953" y2="177.6953"/><text fill="#000000" font-family="sans-serif" font-size="13" font-weight="bold" lengthAdjust="spacing" textLength="8" x="740.5" y="172.6294">3</text><text fill="#000000" font-family="sans-serif" font-size="13" lengthAdjust="spacing" textLength="115" x="752.5" y="172.6294">ts=getTestStore()</text><polygon fill="#A80036" points="1036.5,202.8281,1046.5,206.8281,1036.5,210.8281,1040.5,206.8281" style="stroke:#A80036;stroke-width:1.0;"/><line style="stroke:#A80036;stroke-width:1.0;" x1="898" x2="1042.5" y1="206.8281" y2="206.8281"/><text fill="#000000" font-family="sans-serif" font-size="13" font-weight="bold" lengthAdjust="spacing" textLength="9" x="905" y="201.7622">4</text><text fill="#000000" font-family="sans-serif" font-size="13" lengthAdjust="spacing" textLength="115" x="918" y="201.7622">ts=getTestStore()</text><polygon fill="#A80036" points="1196.5,261.9609,1206.5,265.9609,1196.5,269.9609,1200.5,265.9609" style="stroke:#A80036;stroke-width:1.0;"/><line style="stroke:#A80036;stroke-width:1.0;" x1="733.5" x2="1202.5" y1="265.9609" y2="265.9609"/><text fill="#000000" font-family="sans-serif" font-size="13" font-weight="bold" lengthAdjust="spacing" textLength="9" x="740.5" y="260.895">5</text><text fill="#000000" font-family="sans-serif" font-size="13" lengthAdjust="spacing" textLength="189" x="753.5" y="260.895">lt=getTestsWithoutSamples()</text><polygon fill="#A80036" points="106.5,321.0938,96.5,325.0938,106.5,329.0938,102.5,325.0938" style="stroke:#A80036;stroke-width:1.0;"/><line style="stroke:#A80036;stroke-width:1.0;stroke-dasharray:2.0,2.0;" x1="100.5" x2="383.5" y1="325.0938" y2="325.0938"/><text fill="#000000" font-family="sans-serif" font-size="13" font-weight="bold" lengthAdjust="spacing" textLength="9" x="112.5" y="320.0278">6</text><text fill="#000000" font-family="sans-serif" font-size="13" lengthAdjust="spacing" textLength="240" x="125.5" y="320.0278">shows tests list and ask to select one</text><polygon fill="#A80036" points="367.5,350.2266,377.5,354.2266,367.5,358.2266,371.5,354.2266" style="stroke:#A80036;stroke-width:1.0;"/><line style="stroke:#A80036;stroke-width:1.0;" x1="95.5" x2="373.5" y1="354.2266" y2="354.2266"/><text fill="#000000" font-family="sans-serif" font-size="13" font-weight="bold" lengthAdjust="spacing" textLength="9" x="102.5" y="349.1606">7</text><text fill="#000000" font-family="sans-serif" font-size="13" lengthAdjust="spacing" textLength="86" x="115.5" y="349.1606">selects a test</text><polygon fill="#A80036" points="106.5,379.3594,96.5,383.3594,106.5,387.3594,102.5,383.3594" style="stroke:#A80036;stroke-width:1.0;"/><line style="stroke:#A80036;stroke-width:1.0;stroke-dasharray:2.0,2.0;" x1="100.5" x2="383.5" y1="383.3594" y2="383.3594"/><text fill="#000000" font-family="sans-serif" font-size="13" font-weight="bold" lengthAdjust="spacing" textLength="9" x="112.5" y="378.2935">8</text><text fill="#000000" font-family="sans-serif" font-size="13" lengthAdjust="spacing" textLength="241" x="125.5" y="378.2935">request how many samples to create</text><polygon fill="#A80036" points="367.5,408.4922,377.5,412.4922,367.5,416.4922,371.5,412.4922" style="stroke:#A80036;stroke-width:1.0;"/><line style="stroke:#A80036;stroke-width:1.0;" x1="95.5" x2="373.5" y1="412.4922" y2="412.4922"/><text fill="#000000" font-family="sans-serif" font-size="13" font-weight="bold" lengthAdjust="spacing" textLength="9" x="102.5" y="407.4263">9</text><text fill="#000000" font-family="sans-serif" font-size="13" lengthAdjust="spacing" textLength="252" x="115.5" y="407.4263">types the number of samples to create</text><polygon fill="#A80036" points="711.5,437.625,721.5,441.625,711.5,445.625,715.5,441.625" style="stroke:#A80036;stroke-width:1.0;"/><line style="stroke:#A80036;stroke-width:1.0;" x1="389.5" x2="717.5" y1="441.625" y2="441.625"/><text fill="#000000" font-family="sans-serif" font-size="13" font-weight="bold" lengthAdjust="spacing" textLength="19" x="396.5" y="436.5591">10</text><text fill="#000000" font-family="sans-serif" font-size="13" lengthAdjust="spacing" textLength="292" x="419.5" y="436.5591">createSamples(testCode, numberOfSamples)</text><polygon fill="#A80036" points="1196.5,466.7578,1206.5,470.7578,1196.5,474.7578,1200.5,470.7578" style="stroke:#A80036;stroke-width:1.0;"/><line style="stroke:#A80036;stroke-width:1.0;" x1="733.5" x2="1202.5" y1="470.7578" y2="470.7578"/><text fill="#000000" font-family="sans-serif" font-size="13" font-weight="bold" lengthAdjust="spacing" textLength="18" x="740.5" y="465.6919">11</text><text fill="#000000" font-family="sans-serif" font-size="13" lengthAdjust="spacing" textLength="229" x="762.5" y="465.6919">t=getTestByInternalCode(testCode)</text><path d="M609.5,485.7578 L687.5,485.7578 L687.5,492.7578 L677.5,502.7578 L609.5,502.7578 L609.5,485.7578 " fill="#EEEEEE" style="stroke:#000000;stroke-width:1.0;"/><rect fill="none" height="62.3984" style="stroke:#000000;stroke-width:2.0;" width="741" x="609.5" y="485.7578"/><text fill="#000000" font-family="sans-serif" font-size="13" font-weight="bold" lengthAdjust="spacing" textLength="33" x="624.5" y="498.8247">loop</text><text fill="#000000" font-family="sans-serif" font-size="11" font-weight="bold" lengthAdjust="spacing" textLength="228" x="702.5" y="497.9683">[until all the samples are created]</text><rect fill="#FFFFFF" filter="url(#fc0g66jwf8fq)" height="40.2656" style="stroke:#000000;stroke-width:2.0;" width="723" x="616.5" y="502.8906"/><polygon fill="#EEEEEE" points="616.5,502.8906,684.5,502.8906,684.5,509.8906,674.5,519.8906,616.5,519.8906,616.5,502.8906" style="stroke:#000000;stroke-width:2.0;"/><text fill="#000000" font-family="sans-serif" font-size="13" font-weight="bold" lengthAdjust="spacing" textLength="23" x="629.5" y="516.9575">ref</text><text fill="#000000" font-family="sans-serif" font-size="13" lengthAdjust="spacing" textLength="202" x="879" y="535.9575">UC5_SSD_CreatingSamples.svg</text><polygon fill="#A80036" points="101.5,572.2891,91.5,576.2891,101.5,580.2891,97.5,576.2891" style="stroke:#A80036;stroke-width:1.0;"/><line style="stroke:#A80036;stroke-width:1.0;stroke-dasharray:2.0,2.0;" x1="95.5" x2="383.5" y1="576.2891" y2="576.2891"/><text fill="#000000" font-family="sans-serif" font-size="13" font-weight="bold" lengthAdjust="spacing" textLength="18" x="107.5" y="571.2231">12</text><text fill="#000000" font-family="sans-serif" font-size="13" lengthAdjust="spacing" textLength="169" x="129.5" y="571.2231">informs operation success</text><!--MD5=[b8820eee214fc4e15f39140121ccbe8a]
@startuml
autonumber
actor "Medical Lab Technician" as MEDLT

participant ":GenerateSampleUI" as UI
participant ":GenerateSampleController" as CTRL
participant ":Company" as CMP
participant ":ClinicalAnalysisLaboratory" as LAB
participant "ts:\nTestStore" as TS
participant "s:\nSample" as S

activate MEDLT
MEDLT -> UI : register new samples
activate UI
UI -> CTRL : lt=getTestsWithoutSamples()
activate CTRL
CTRL -> CMP : ts=getTestStore()
activate CMP
CMP -> LAB : ts=getTestStore()
activate LAB
deactivate LAB
deactivate CMP
CTRL -> TS : lt=getTestsWithoutSamples()
activate TS
deactivate TS
deactivate CTRL
UI - -> MEDLT : shows tests list and ask to select one
deactivate UI

MEDLT -> UI : selects a test
activate UI
UI - -> MEDLT : request how many samples to create
deactivate UI

MEDLT -> UI : types the number of samples to create
activate UI
UI -> CTRL : createSamples(testCode, numberOfSamples)
activate CTRL
CTRL -> TS : t=getTestByInternalCode(testCode)
activate TS
loop until all the samples are created
    ref over CTRL, TS , S: UC5_SSD_CreatingSamples.svg
end loop
UI - -> MEDLT : informs operation success
deactivate TS
deactivate CTRL
deactivate UI
deactivate MEDLT
@enduml

PlantUML version 1.2021.7(Sun May 23 12:40:07 UTC 2021)
(GPL source distribution)
Java Runtime: Java(TM) SE Runtime Environment
JVM: Java HotSpot(TM) 64-Bit Server VM
Default Encoding: UTF-8
Language: en
Country: US
--></g></svg>