<?xml version="1.0" encoding="UTF-8" standalone="no"?>
<svg xmlns="http://www.w3.org/2000/svg" xmlns:xlink="http://www.w3.org/1999/xlink" contentScriptType="application/ecmascript" contentStyleType="text/css" height="351px" preserveAspectRatio="none" style="width:1087px;height:351px;background:#FFFFFF;" version="1.1" viewBox="0 0 1087 351" width="1087px" zoomAndPan="magnify"><defs><filter height="300%" id="fcrvglpp4p2fz" width="300%" x="-1" y="-1"><feGaussianBlur result="blurOut" stdDeviation="2.0"/><feColorMatrix in="blurOut" result="blurOut2" type="matrix" values="0 0 0 0 0 0 0 0 0 0 0 0 0 0 0 0 0 0 .4 0"/><feOffset dx="4.0" dy="4.0" in="blurOut2" result="blurOut3"/><feBlend in="SourceGraphic" in2="blurOut3" mode="normal"/></filter></defs><g><!--MD5=[9681492165142af2a4a3a169d90ee8d4]
class Sample--><rect codeLine="5" fill="#FEFECE" filter="url(#fcrvglpp4p2fz)" height="52.8047" id="Sample" style="stroke:#A80036;stroke-width:1.5;" width="107" x="7" y="208"/><ellipse cx="35.5" cy="224" fill="#ADD1B2" rx="11" ry="11" style="stroke:#A80036;stroke-width:1.0;"/><path d="M37.8438,219.6719 C36.9063,219.2344 36.3125,219.0938 35.4375,219.0938 C32.8125,219.0938 30.8125,221.1719 30.8125,223.8906 L30.8125,225.0156 C30.8125,227.5938 32.9219,229.4844 35.8125,229.4844 C37.0313,229.4844 38.1875,229.1875 38.9375,228.6406 C39.5156,228.2344 39.8438,227.7813 39.8438,227.3906 C39.8438,226.9375 39.4531,226.5469 38.9844,226.5469 C38.7656,226.5469 38.5625,226.625 38.375,226.8125 C37.9219,227.2969 37.9219,227.2969 37.7344,227.3906 C37.3125,227.6563 36.625,227.7813 35.8594,227.7813 C33.8125,227.7813 32.5156,226.6875 32.5156,224.9844 L32.5156,223.8906 C32.5156,222.1094 33.7656,220.7969 35.5,220.7969 C36.0781,220.7969 36.6875,220.9531 37.1563,221.2031 C37.6406,221.4844 37.8125,221.7031 37.9063,222.1094 C37.9688,222.5156 38,222.6406 38.1406,222.7656 C38.2813,222.9063 38.5156,223.0156 38.7344,223.0156 C39,223.0156 39.2656,222.875 39.4375,222.6563 C39.5469,222.5 39.5781,222.3125 39.5781,221.8906 L39.5781,220.4688 C39.5781,220.0313 39.5625,219.9063 39.4688,219.75 C39.3125,219.4844 39.0313,219.3438 38.7344,219.3438 C38.4375,219.3438 38.2344,219.4375 38.0156,219.75 L37.8438,219.6719 Z " fill="#000000"/><text fill="#000000" font-family="sans-serif" font-size="12" lengthAdjust="spacing" textLength="45" x="52.5" y="228.1543">Sample</text><line style="stroke:#A80036;stroke-width:1.5;" x1="8" x2="113" y1="240" y2="240"/><text fill="#000000" font-family="sans-serif" font-size="11" lengthAdjust="spacing" textLength="95" x="13" y="254.2104">-barcodeNumber</text><!--MD5=[02e4b9b7573f1156f41e60aa5b4e25a4]
class Company--><rect codeLine="9" fill="#FEFECE" filter="url(#fcrvglpp4p2fz)" height="52.8047" id="Company" style="stroke:#A80036;stroke-width:1.5;" width="88" x="332" y="7"/><ellipse cx="347" cy="23" fill="#ADD1B2" rx="11" ry="11" style="stroke:#A80036;stroke-width:1.0;"/><path d="M349.3438,18.6719 C348.4063,18.2344 347.8125,18.0938 346.9375,18.0938 C344.3125,18.0938 342.3125,20.1719 342.3125,22.8906 L342.3125,24.0156 C342.3125,26.5938 344.4219,28.4844 347.3125,28.4844 C348.5313,28.4844 349.6875,28.1875 350.4375,27.6406 C351.0156,27.2344 351.3438,26.7813 351.3438,26.3906 C351.3438,25.9375 350.9531,25.5469 350.4844,25.5469 C350.2656,25.5469 350.0625,25.625 349.875,25.8125 C349.4219,26.2969 349.4219,26.2969 349.2344,26.3906 C348.8125,26.6563 348.125,26.7813 347.3594,26.7813 C345.3125,26.7813 344.0156,25.6875 344.0156,23.9844 L344.0156,22.8906 C344.0156,21.1094 345.2656,19.7969 347,19.7969 C347.5781,19.7969 348.1875,19.9531 348.6563,20.2031 C349.1406,20.4844 349.3125,20.7031 349.4063,21.1094 C349.4688,21.5156 349.5,21.6406 349.6406,21.7656 C349.7813,21.9063 350.0156,22.0156 350.2344,22.0156 C350.5,22.0156 350.7656,21.875 350.9375,21.6563 C351.0469,21.5 351.0781,21.3125 351.0781,20.8906 L351.0781,19.4688 C351.0781,19.0313 351.0625,18.9063 350.9688,18.75 C350.8125,18.4844 350.5313,18.3438 350.2344,18.3438 C349.9375,18.3438 349.7344,18.4375 349.5156,18.75 L349.3438,18.6719 Z " fill="#000000"/><text fill="#000000" font-family="sans-serif" font-size="12" lengthAdjust="spacing" textLength="56" x="361" y="27.1543">Company</text><line style="stroke:#A80036;stroke-width:1.5;" x1="333" x2="419" y1="39" y2="39"/><text fill="#000000" font-family="sans-serif" font-size="11" lengthAdjust="spacing" textLength="70" x="338" y="53.2104">-designation</text><!--MD5=[1934a092c0e7d4da7dc7075b6f4b6b03]
class ClinicalAnalysisLaboratory--><rect codeLine="13" fill="#FEFECE" filter="url(#fcrvglpp4p2fz)" height="104.0234" id="ClinicalAnalysisLaboratory" style="stroke:#A80036;stroke-width:1.5;" width="187" x="629" y="108.5"/><ellipse cx="644" cy="124.5" fill="#ADD1B2" rx="11" ry="11" style="stroke:#A80036;stroke-width:1.0;"/><path d="M646.3438,120.1719 C645.4063,119.7344 644.8125,119.5938 643.9375,119.5938 C641.3125,119.5938 639.3125,121.6719 639.3125,124.3906 L639.3125,125.5156 C639.3125,128.0938 641.4219,129.9844 644.3125,129.9844 C645.5313,129.9844 646.6875,129.6875 647.4375,129.1406 C648.0156,128.7344 648.3438,128.2813 648.3438,127.8906 C648.3438,127.4375 647.9531,127.0469 647.4844,127.0469 C647.2656,127.0469 647.0625,127.125 646.875,127.3125 C646.4219,127.7969 646.4219,127.7969 646.2344,127.8906 C645.8125,128.1563 645.125,128.2813 644.3594,128.2813 C642.3125,128.2813 641.0156,127.1875 641.0156,125.4844 L641.0156,124.3906 C641.0156,122.6094 642.2656,121.2969 644,121.2969 C644.5781,121.2969 645.1875,121.4531 645.6563,121.7031 C646.1406,121.9844 646.3125,122.2031 646.4063,122.6094 C646.4688,123.0156 646.5,123.1406 646.6406,123.2656 C646.7813,123.4063 647.0156,123.5156 647.2344,123.5156 C647.5,123.5156 647.7656,123.375 647.9375,123.1563 C648.0469,123 648.0781,122.8125 648.0781,122.3906 L648.0781,120.9688 C648.0781,120.5313 648.0625,120.4063 647.9688,120.25 C647.8125,119.9844 647.5313,119.8438 647.2344,119.8438 C646.9375,119.8438 646.7344,119.9375 646.5156,120.25 L646.3438,120.1719 Z " fill="#000000"/><text fill="#000000" font-family="sans-serif" font-size="12" lengthAdjust="spacing" textLength="155" x="658" y="128.6543">ClinicalAnalysisLaboratory</text><line style="stroke:#A80036;stroke-width:1.5;" x1="630" x2="815" y1="140.5" y2="140.5"/><text fill="#000000" font-family="sans-serif" font-size="11" lengthAdjust="spacing" textLength="74" x="635" y="154.7104">-String name</text><text fill="#000000" font-family="sans-serif" font-size="11" lengthAdjust="spacing" textLength="79" x="635" y="167.5151">-String adress</text><text fill="#000000" font-family="sans-serif" font-size="11" lengthAdjust="spacing" textLength="113" x="635" y="180.3198">-long phoneNumber</text><text fill="#000000" font-family="sans-serif" font-size="11" lengthAdjust="spacing" textLength="46" x="635" y="193.1245">-long tin</text><text fill="#000000" font-family="sans-serif" font-size="11" lengthAdjust="spacing" textLength="117" x="635" y="205.9292">-TestStore testStore</text><!--MD5=[df38be88ccee13e832d6fafd6288a4ca]
class Test--><rect codeLine="21" fill="#FEFECE" filter="url(#fcrvglpp4p2fz)" height="206.4609" id="Test" style="stroke:#A80036;stroke-width:1.5;" width="159" x="914" y="131.5"/><ellipse cx="976.25" cy="147.5" fill="#ADD1B2" rx="11" ry="11" style="stroke:#A80036;stroke-width:1.0;"/><path d="M978.5938,143.1719 C977.6563,142.7344 977.0625,142.5938 976.1875,142.5938 C973.5625,142.5938 971.5625,144.6719 971.5625,147.3906 L971.5625,148.5156 C971.5625,151.0938 973.6719,152.9844 976.5625,152.9844 C977.7813,152.9844 978.9375,152.6875 979.6875,152.1406 C980.2656,151.7344 980.5938,151.2813 980.5938,150.8906 C980.5938,150.4375 980.2031,150.0469 979.7344,150.0469 C979.5156,150.0469 979.3125,150.125 979.125,150.3125 C978.6719,150.7969 978.6719,150.7969 978.4844,150.8906 C978.0625,151.1563 977.375,151.2813 976.6094,151.2813 C974.5625,151.2813 973.2656,150.1875 973.2656,148.4844 L973.2656,147.3906 C973.2656,145.6094 974.5156,144.2969 976.25,144.2969 C976.8281,144.2969 977.4375,144.4531 977.9063,144.7031 C978.3906,144.9844 978.5625,145.2031 978.6563,145.6094 C978.7188,146.0156 978.75,146.1406 978.8906,146.2656 C979.0313,146.4063 979.2656,146.5156 979.4844,146.5156 C979.75,146.5156 980.0156,146.375 980.1875,146.1563 C980.2969,146 980.3281,145.8125 980.3281,145.3906 L980.3281,143.9688 C980.3281,143.5313 980.3125,143.4063 980.2188,143.25 C980.0625,142.9844 979.7813,142.8438 979.4844,142.8438 C979.1875,142.8438 978.9844,142.9375 978.7656,143.25 L978.5938,143.1719 Z " fill="#000000"/><text fill="#000000" font-family="sans-serif" font-size="12" lengthAdjust="spacing" textLength="26" x="996.75" y="151.6543">Test</text><line style="stroke:#A80036;stroke-width:1.5;" x1="915" x2="1072" y1="163.5" y2="163.5"/><text fill="#000000" font-family="sans-serif" font-size="11" lengthAdjust="spacing" textLength="57" x="920" y="177.7104">-nhsCode;</text><text fill="#000000" font-family="sans-serif" font-size="11" lengthAdjust="spacing" textLength="80" x="920" y="190.5151">-internalCode;</text><text fill="#000000" font-family="sans-serif" font-size="11" lengthAdjust="spacing" textLength="38" x="920" y="203.3198">-client;</text><text fill="#000000" font-family="sans-serif" font-size="11" lengthAdjust="spacing" textLength="58" x="920" y="216.1245">-testType;</text><text fill="#000000" font-family="sans-serif" font-size="11" lengthAdjust="spacing" textLength="147" x="920" y="228.9292">-sampleCollectionMethod;</text><text fill="#000000" font-family="sans-serif" font-size="11" lengthAdjust="spacing" textLength="119" x="920" y="241.7339">-parameterCategory;</text><text fill="#000000" font-family="sans-serif" font-size="11" lengthAdjust="spacing" textLength="67" x="920" y="254.5386">-parameter;</text><text fill="#000000" font-family="sans-serif" font-size="11" lengthAdjust="spacing" textLength="52" x="920" y="267.3433">-samples</text><text fill="#000000" font-family="sans-serif" font-size="11" lengthAdjust="spacing" textLength="99" x="920" y="280.1479">-registrationDate;</text><text fill="#000000" font-family="sans-serif" font-size="11" lengthAdjust="spacing" textLength="139" x="920" y="292.9526">-samplesCollectionDate;</text><text fill="#000000" font-family="sans-serif" font-size="11" lengthAdjust="spacing" textLength="133" x="920" y="305.7573">-chemicalAnalysisDate;</text><text fill="#000000" font-family="sans-serif" font-size="11" lengthAdjust="spacing" textLength="88" x="920" y="318.562">-diagnosisDate;</text><text fill="#000000" font-family="sans-serif" font-size="11" lengthAdjust="spacing" textLength="90" x="920" y="331.3667">-validationDate;</text><!--MD5=[01931d41e78f8996acd44f6f0fd8de28]
class MedicalLabTechnician--><rect codeLine="37" fill="#FEFECE" filter="url(#fcrvglpp4p2fz)" height="129.6328" id="MedicalLabTechnician" style="stroke:#A80036;stroke-width:1.5;" width="236" x="258" y="95.5"/><ellipse cx="306.75" cy="111.5" fill="#ADD1B2" rx="11" ry="11" style="stroke:#A80036;stroke-width:1.0;"/><path d="M309.0938,107.1719 C308.1563,106.7344 307.5625,106.5938 306.6875,106.5938 C304.0625,106.5938 302.0625,108.6719 302.0625,111.3906 L302.0625,112.5156 C302.0625,115.0938 304.1719,116.9844 307.0625,116.9844 C308.2813,116.9844 309.4375,116.6875 310.1875,116.1406 C310.7656,115.7344 311.0938,115.2813 311.0938,114.8906 C311.0938,114.4375 310.7031,114.0469 310.2344,114.0469 C310.0156,114.0469 309.8125,114.125 309.625,114.3125 C309.1719,114.7969 309.1719,114.7969 308.9844,114.8906 C308.5625,115.1563 307.875,115.2813 307.1094,115.2813 C305.0625,115.2813 303.7656,114.1875 303.7656,112.4844 L303.7656,111.3906 C303.7656,109.6094 305.0156,108.2969 306.75,108.2969 C307.3281,108.2969 307.9375,108.4531 308.4063,108.7031 C308.8906,108.9844 309.0625,109.2031 309.1563,109.6094 C309.2188,110.0156 309.25,110.1406 309.3906,110.2656 C309.5313,110.4063 309.7656,110.5156 309.9844,110.5156 C310.25,110.5156 310.5156,110.375 310.6875,110.1563 C310.7969,110 310.8281,109.8125 310.8281,109.3906 L310.8281,107.9688 C310.8281,107.5313 310.8125,107.4063 310.7188,107.25 C310.5625,106.9844 310.2813,106.8438 309.9844,106.8438 C309.6875,106.8438 309.4844,106.9375 309.2656,107.25 L309.0938,107.1719 Z " fill="#000000"/><text fill="#000000" font-family="sans-serif" font-size="12" lengthAdjust="spacing" textLength="130" x="327.25" y="115.6543">MedicalLabTechnician</text><line style="stroke:#A80036;stroke-width:1.5;" x1="259" x2="493" y1="127.5" y2="127.5"/><text fill="#000000" font-family="sans-serif" font-size="11" lengthAdjust="spacing" textLength="75" x="264" y="141.7104">-employeeID</text><text fill="#000000" font-family="sans-serif" font-size="11" lengthAdjust="spacing" textLength="99" x="264" y="154.5151">-organizationRole</text><text fill="#000000" font-family="sans-serif" font-size="11" lengthAdjust="spacing" textLength="37" x="264" y="167.3198">-name</text><text fill="#000000" font-family="sans-serif" font-size="11" lengthAdjust="spacing" textLength="49" x="264" y="180.1245">-address</text><text fill="#000000" font-family="sans-serif" font-size="11" lengthAdjust="spacing" textLength="85" x="264" y="192.9292">-phoneNumber</text><text fill="#000000" font-family="sans-serif" font-size="11" lengthAdjust="spacing" textLength="34" x="264" y="205.7339">-eMail</text><text fill="#000000" font-family="sans-serif" font-size="11" lengthAdjust="spacing" textLength="224" x="264" y="218.5386">-standardOcupationalClassificationCode</text><!--MD5=[aafc5d8a5829a6a8d6dc892cb1ff5d24]
link Company to ClinicalAnalysisLaboratory--><path codeLine="47" d="M420.282,49.456 C472.328,68.643 561.129,101.379 628.869,126.351 " fill="none" id="Company-ClinicalAnalysisLaboratory" style="stroke:#A80036;stroke-width:1.0;"/><polygon fill="#000000" points="552.1914,81.7959,544.7212,75.9097,542.688,81.4248,552.1914,81.7959" style="stroke:#000000;stroke-width:1.0;"/><text fill="#000000" font-family="sans-serif" font-size="13" lengthAdjust="spacing" textLength="23" x="556.5" y="84.5669">has</text><text fill="#000000" font-family="sans-serif" font-size="13" lengthAdjust="spacing" textLength="8" x="427.9769" y="65.2873">1</text><text fill="#000000" font-family="sans-serif" font-size="13" lengthAdjust="spacing" textLength="23" x="598.1484" y="136.4649">1..*</text><!--MD5=[d480452e7d21fe720ba0207568bc7434]
link ClinicalAnalysisLaboratory to Test--><path codeLine="48" d="M816.075,185.967 C847.838,194.704 883.067,204.396 913.64,212.806 " fill="none" id="ClinicalAnalysisLaboratory-Test" style="stroke:#A80036;stroke-width:1.0;"/><polygon fill="#000000" points="855.8209,187.3926,847.8793,182.1598,846.3203,187.8272,855.8209,187.3926" style="stroke:#000000;stroke-width:1.0;"/><text fill="#000000" font-family="sans-serif" font-size="13" lengthAdjust="spacing" textLength="23" x="860" y="190.5669">has</text><text fill="#000000" font-family="sans-serif" font-size="13" lengthAdjust="spacing" textLength="8" x="823.8505" y="200.6653">1</text><text fill="#000000" font-family="sans-serif" font-size="13" lengthAdjust="spacing" textLength="7" x="898.9553" y="223.5493">*</text><!--MD5=[738f0445d4a0804ca0738b44323ae22b]
link MedicalLabTechnician to ClinicalAnalysisLaboratory--><path codeLine="49" d="M494.113,160.5 C538.099,160.5 587.448,160.5 628.903,160.5 " fill="none" id="MedicalLabTechnician-ClinicalAnalysisLaboratory" style="stroke:#A80036;stroke-width:1.0;"/><polygon fill="#000000" points="534,152.0664,524.9549,149.1275,524.9549,155.0053,534,152.0664" style="stroke:#000000;stroke-width:1.0;"/><text fill="#000000" font-family="sans-serif" font-size="13" lengthAdjust="spacing" textLength="60" x="538" y="156.5669">works for</text><text fill="#000000" font-family="sans-serif" font-size="13" lengthAdjust="spacing" textLength="23" x="502.0113" y="173.0392">1..*</text><text fill="#000000" font-family="sans-serif" font-size="13" lengthAdjust="spacing" textLength="23" x="597.8565" y="173.1453">1..*</text><!--MD5=[b72ac8ab7fb5921fceb5036a3902baea]
link Test to Sample--><path codeLine="50" d="M913.955,237.272 C779.569,241.61 496.891,248.9679 258,243.5 C209.178,242.3825 153.586,239.7052 114.021,237.5594 " fill="none" id="Test-Sample" style="stroke:#A80036;stroke-width:1.0;"/><polygon fill="#000000" points="542.5,235.0682,551.5461,238.0039,551.544,232.126,542.5,235.0682" style="stroke:#000000;stroke-width:1.0;"/><text fill="#000000" font-family="sans-serif" font-size="13" lengthAdjust="spacing" textLength="23" x="556.5" y="239.5669">has</text><text fill="#000000" font-family="sans-serif" font-size="13" lengthAdjust="spacing" textLength="8" x="897.9921" y="250.3023">1</text><text fill="#000000" font-family="sans-serif" font-size="13" lengthAdjust="spacing" textLength="7" x="122.0396" y="251.1343">*</text><!--MD5=[cb5e86f6614a99551e1d9ce6f0ae5849]
link Sample to MedicalLabTechnician--><path codeLine="51" d="M114.326,222.031 C153.502,212.783 208.44,199.816 257.786,188.168 " fill="none" id="Sample-MedicalLabTechnician" style="stroke:#A80036;stroke-width:1.0;"/><polygon fill="#000000" points="153.8663,184.9177,144.3879,184.1354,145.7383,189.856,153.8663,184.9177" style="stroke:#000000;stroke-width:1.0;"/><text fill="#000000" font-family="sans-serif" font-size="13" lengthAdjust="spacing" textLength="69" x="158" y="190.5669">created by</text><text fill="#000000" font-family="sans-serif" font-size="13" lengthAdjust="spacing" textLength="8" x="122.0964" y="233.4522">1</text><text fill="#000000" font-family="sans-serif" font-size="13" lengthAdjust="spacing" textLength="8" x="241.9567" y="202.5039">1</text><!--MD5=[766a503ff9e6298773ba05131b9bf7e1]
@startuml
skinparam classAttributeIconSize 0
hide methods
left to right direction

class Sample {
  -barcodeNumber
}

class Company {
  -designation
}

class ClinicalAnalysisLaboratory {
  -String name
  -String adress
  -long phoneNumber
  -long tin
  -TestStore testStore
  +getTestStore()
}
class Test {
  -nhsCode;
  -internalCode;
  -client;
  -testType;
  -sampleCollectionMethod;
  -parameterCategory;
  -parameter;
  -samples
  -registrationDate;
  -samplesCollectionDate;
  -chemicalAnalysisDate;
  -diagnosisDate;
  -validationDate;
}

class MedicalLabTechnician {
  -employeeID
  -organizationRole
  -name
  -address
  -phoneNumber
  -eMail
  -standardOcupationalClassificationCode
}

Company "1" - - "1..*" ClinicalAnalysisLaboratory : has >
ClinicalAnalysisLaboratory "1" - - "*" Test : has >
MedicalLabTechnician "1..*" - - "1..*" ClinicalAnalysisLaboratory : works for >
Test "1" - - "*" Sample : has >
Sample "1" - - "1" MedicalLabTechnician : created by >
@enduml

PlantUML version 1.2021.7(Sun May 23 12:40:07 UTC 2021)
(GPL source distribution)
Java Runtime: Java(TM) SE Runtime Environment
JVM: Java HotSpot(TM) 64-Bit Server VM
Default Encoding: UTF-8
Language: en
Country: US
--></g></svg>