<?xml version="1.0" encoding="UTF-8" standalone="no"?>
<svg xmlns="http://www.w3.org/2000/svg" xmlns:xlink="http://www.w3.org/1999/xlink" contentScriptType="application/ecmascript" contentStyleType="text/css" height="398px" preserveAspectRatio="none" style="width:746px;height:398px;background:#FFFFFF;" version="1.1" viewBox="0 0 746 398" width="746px" zoomAndPan="magnify"><defs><filter height="300%" id="f1amthxxe8zq74" width="300%" x="-1" y="-1"><feGaussianBlur result="blurOut" stdDeviation="2.0"/><feColorMatrix in="blurOut" result="blurOut2" type="matrix" values="0 0 0 0 0 0 0 0 0 0 0 0 0 0 0 0 0 0 .4 0"/><feOffset dx="4.0" dy="4.0" in="blurOut2" result="blurOut3"/><feBlend in="SourceGraphic" in2="blurOut3" mode="normal"/></filter></defs><g><rect fill="#FFFFFF" filter="url(#f1amthxxe8zq74)" height="205.9297" style="stroke:#A80036;stroke-width:1.0;" width="10" x="100.5" y="98.2969"/><rect fill="#FFFFFF" filter="url(#f1amthxxe8zq74)" height="29.1328" style="stroke:#A80036;stroke-width:1.0;" width="10" x="678.5" y="119.4297"/><rect fill="#FFFFFF" filter="url(#f1amthxxe8zq74)" height="29.1328" style="stroke:#A80036;stroke-width:1.0;" width="10" x="678.5" y="177.6953"/><rect fill="#FFFFFF" filter="url(#f1amthxxe8zq74)" height="68.2656" style="stroke:#A80036;stroke-width:1.0;" width="10" x="678.5" y="235.9609"/><rect fill="#FFFFFF" filter="url(#f1amthxxe8zq74)" height="46.2656" style="stroke:#000000;stroke-width:2.0;" width="722" x="10" y="250.9609"/><line style="stroke:#A80036;stroke-width:1.0;stroke-dasharray:5.0,5.0;" x1="105" x2="105" y1="88.2969" y2="314.2266"/><line style="stroke:#A80036;stroke-width:1.0;stroke-dasharray:5.0,5.0;" x1="683" x2="683" y1="88.2969" y2="314.2266"/><text fill="#000000" font-family="sans-serif" font-size="14" lengthAdjust="spacing" textLength="165" x="20" y="84.9951">Medical Lab Technician</text><ellipse cx="105.5" cy="15" fill="#FEFECE" filter="url(#f1amthxxe8zq74)" rx="8" ry="8" style="stroke:#A80036;stroke-width:2.0;"/><path d="M105.5,23 L105.5,50 M92.5,31 L118.5,31 M105.5,50 L92.5,65 M105.5,50 L118.5,65 " fill="none" filter="url(#f1amthxxe8zq74)" style="stroke:#A80036;stroke-width:2.0;"/><text fill="#000000" font-family="sans-serif" font-size="14" lengthAdjust="spacing" textLength="165" x="20" y="326.2217">Medical Lab Technician</text><ellipse cx="105.5" cy="339.5234" fill="#FEFECE" filter="url(#f1amthxxe8zq74)" rx="8" ry="8" style="stroke:#A80036;stroke-width:2.0;"/><path d="M105.5,347.5234 L105.5,374.5234 M92.5,355.5234 L118.5,355.5234 M105.5,374.5234 L92.5,389.5234 M105.5,374.5234 L118.5,389.5234 " fill="none" filter="url(#f1amthxxe8zq74)" style="stroke:#A80036;stroke-width:2.0;"/><rect fill="#FEFECE" filter="url(#f1amthxxe8zq74)" height="30.2969" style="stroke:#A80036;stroke-width:1.5;" width="73" x="645" y="53"/><text fill="#000000" font-family="sans-serif" font-size="14" lengthAdjust="spacing" textLength="59" x="652" y="72.9951">:System</text><rect fill="#FEFECE" filter="url(#f1amthxxe8zq74)" height="30.2969" style="stroke:#A80036;stroke-width:1.5;" width="73" x="645" y="313.2266"/><text fill="#000000" font-family="sans-serif" font-size="14" lengthAdjust="spacing" textLength="59" x="652" y="333.2217">:System</text><rect fill="#FFFFFF" filter="url(#f1amthxxe8zq74)" height="205.9297" style="stroke:#A80036;stroke-width:1.0;" width="10" x="100.5" y="98.2969"/><rect fill="#FFFFFF" filter="url(#f1amthxxe8zq74)" height="29.1328" style="stroke:#A80036;stroke-width:1.0;" width="10" x="678.5" y="119.4297"/><rect fill="#FFFFFF" filter="url(#f1amthxxe8zq74)" height="29.1328" style="stroke:#A80036;stroke-width:1.0;" width="10" x="678.5" y="177.6953"/><rect fill="#FFFFFF" filter="url(#f1amthxxe8zq74)" height="68.2656" style="stroke:#A80036;stroke-width:1.0;" width="10" x="678.5" y="235.9609"/><polygon fill="#A80036" points="666.5,115.4297,676.5,119.4297,666.5,123.4297,670.5,119.4297" style="stroke:#A80036;stroke-width:1.0;"/><line style="stroke:#A80036;stroke-width:1.0;" x1="110.5" x2="672.5" y1="119.4297" y2="119.4297"/><text fill="#000000" font-family="sans-serif" font-size="13" font-weight="bold" lengthAdjust="spacing" textLength="9" x="117.5" y="114.3638">1</text><text fill="#000000" font-family="sans-serif" font-size="13" lengthAdjust="spacing" textLength="149" x="130.5" y="114.3638">starts record a sample.</text><polygon fill="#A80036" points="121.5,144.5625,111.5,148.5625,121.5,152.5625,117.5,148.5625" style="stroke:#A80036;stroke-width:1.0;"/><line style="stroke:#A80036;stroke-width:1.0;stroke-dasharray:2.0,2.0;" x1="115.5" x2="682.5" y1="148.5625" y2="148.5625"/><text fill="#000000" font-family="sans-serif" font-size="13" font-weight="bold" lengthAdjust="spacing" textLength="9" x="127.5" y="143.4966">2</text><text fill="#000000" font-family="sans-serif" font-size="13" lengthAdjust="spacing" textLength="385" x="140.5" y="143.4966">shows list of tests for which there are no samples collected.</text><polygon fill="#A80036" points="666.5,173.6953,676.5,177.6953,666.5,181.6953,670.5,177.6953" style="stroke:#A80036;stroke-width:1.0;"/><line style="stroke:#A80036;stroke-width:1.0;" x1="110.5" x2="672.5" y1="177.6953" y2="177.6953"/><text fill="#000000" font-family="sans-serif" font-size="13" font-weight="bold" lengthAdjust="spacing" textLength="8" x="117.5" y="172.6294">3</text><text fill="#000000" font-family="sans-serif" font-size="13" lengthAdjust="spacing" textLength="78" x="129.5" y="172.6294">selects test.</text><polygon fill="#A80036" points="121.5,202.8281,111.5,206.8281,121.5,210.8281,117.5,206.8281" style="stroke:#A80036;stroke-width:1.0;"/><line style="stroke:#A80036;stroke-width:1.0;stroke-dasharray:2.0,2.0;" x1="115.5" x2="682.5" y1="206.8281" y2="206.8281"/><text fill="#000000" font-family="sans-serif" font-size="13" font-weight="bold" lengthAdjust="spacing" textLength="9" x="127.5" y="201.7622">4</text><text fill="#000000" font-family="sans-serif" font-size="13" lengthAdjust="spacing" textLength="264" x="140.5" y="201.7622">ask for the number of samples to collect.</text><polygon fill="#A80036" points="666.5,231.9609,676.5,235.9609,666.5,239.9609,670.5,235.9609" style="stroke:#A80036;stroke-width:1.0;"/><line style="stroke:#A80036;stroke-width:1.0;" x1="110.5" x2="672.5" y1="235.9609" y2="235.9609"/><text fill="#000000" font-family="sans-serif" font-size="13" font-weight="bold" lengthAdjust="spacing" textLength="9" x="117.5" y="230.895">5</text><text fill="#000000" font-family="sans-serif" font-size="13" lengthAdjust="spacing" textLength="265" x="130.5" y="230.895">selects the number of samples to collect.</text><path d="M10,250.9609 L88,250.9609 L88,257.9609 L78,267.9609 L10,267.9609 L10,250.9609 " fill="#EEEEEE" style="stroke:#000000;stroke-width:1.0;"/><rect fill="none" height="46.2656" style="stroke:#000000;stroke-width:2.0;" width="722" x="10" y="250.9609"/><text fill="#000000" font-family="sans-serif" font-size="13" font-weight="bold" lengthAdjust="spacing" textLength="33" x="25" y="264.0278">loop</text><text fill="#000000" font-family="sans-serif" font-size="11" font-weight="bold" lengthAdjust="spacing" textLength="323" x="103" y="263.1714">[until all the samples have barcodes associated]</text><polygon fill="#A80036" points="121.5,285.2266,111.5,289.2266,121.5,293.2266,117.5,289.2266" style="stroke:#A80036;stroke-width:1.0;"/><line style="stroke:#A80036;stroke-width:1.0;stroke-dasharray:2.0,2.0;" x1="115.5" x2="677.5" y1="289.2266" y2="289.2266"/><text fill="#000000" font-family="sans-serif" font-size="13" font-weight="bold" lengthAdjust="spacing" textLength="9" x="127.5" y="284.1606">6</text><text fill="#000000" font-family="sans-serif" font-size="13" lengthAdjust="spacing" textLength="531" x="140.5" y="284.1606">shows the barcodes that have been generated and informs the operation success.</text><!--MD5=[40c07449a1e444e444f5356aa78c9f1e]
@startuml
autonumber
actor "Medical Lab Technician" as MEDLT

activate MEDLT
MEDLT-> ":System" : starts record a sample. 
activate ":System"
":System" - -> MEDLT : shows list of tests for which there are no samples collected.
deactivate ":System"

MEDLT -> ":System" : selects test.
activate ":System"
":System" - -> MEDLT : ask for the number of samples to collect.
deactivate ":System"

MEDLT -> ":System" : selects the number of samples to collect.
activate ":System"
loop until all the samples have barcodes associated
	":System" - -> MEDLT : shows the barcodes that have been generated and informs the operation success.
end
deactivate ":System"

deactivate MEDLT
@enduml

PlantUML version 1.2021.7beta2(Unknown compile time)
(GPL source distribution)
Java Runtime: Java(TM) SE Runtime Environment
JVM: Java HotSpot(TM) 64-Bit Server VM
Default Encoding: UTF-8
Language: en
Country: US
--></g></svg>