<?xml version="1.0" encoding="UTF-8" standalone="no"?><svg xmlns="http://www.w3.org/2000/svg" xmlns:xlink="http://www.w3.org/1999/xlink" contentScriptType="application/ecmascript" contentStyleType="text/css" height="325px" preserveAspectRatio="none" style="width:929px;height:325px;background:#FFFFFF;" version="1.1" viewBox="0 0 929 325" width="929px" zoomAndPan="magnify"><defs><filter height="300%" id="fm8cas8ec95ac" width="300%" x="-1" y="-1"><feGaussianBlur result="blurOut" stdDeviation="2.0"/><feColorMatrix in="blurOut" result="blurOut2" type="matrix" values="0 0 0 0 0 0 0 0 0 0 0 0 0 0 0 0 0 0 .4 0"/><feOffset dx="4.0" dy="4.0" in="blurOut2" result="blurOut3"/><feBlend in="SourceGraphic" in2="blurOut3" mode="normal"/></filter></defs><g><!--MD5=[02e4b9b7573f1156f41e60aa5b4e25a4]
class Company--><rect codeLine="8" fill="#FEFECE" filter="url(#fm8cas8ec95ac)" height="52.8047" id="Company" style="stroke:#A80036;stroke-width:1.5;" width="88" x="7" y="139"/><ellipse cx="22" cy="155" fill="#ADD1B2" rx="11" ry="11" style="stroke:#A80036;stroke-width:1.0;"/><path d="M24.3438,150.6719 C23.4063,150.2344 22.8125,150.0938 21.9375,150.0938 C19.3125,150.0938 17.3125,152.1719 17.3125,154.8906 L17.3125,156.0156 C17.3125,158.5938 19.4219,160.4844 22.3125,160.4844 C23.5313,160.4844 24.6875,160.1875 25.4375,159.6406 C26.0156,159.2344 26.3438,158.7813 26.3438,158.3906 C26.3438,157.9375 25.9531,157.5469 25.4844,157.5469 C25.2656,157.5469 25.0625,157.625 24.875,157.8125 C24.4219,158.2969 24.4219,158.2969 24.2344,158.3906 C23.8125,158.6563 23.125,158.7813 22.3594,158.7813 C20.3125,158.7813 19.0156,157.6875 19.0156,155.9844 L19.0156,154.8906 C19.0156,153.1094 20.2656,151.7969 22,151.7969 C22.5781,151.7969 23.1875,151.9531 23.6563,152.2031 C24.1406,152.4844 24.3125,152.7031 24.4063,153.1094 C24.4688,153.5156 24.5,153.6406 24.6406,153.7656 C24.7813,153.9063 25.0156,154.0156 25.2344,154.0156 C25.5,154.0156 25.7656,153.875 25.9375,153.6563 C26.0469,153.5 26.0781,153.3125 26.0781,152.8906 L26.0781,151.4688 C26.0781,151.0313 26.0625,150.9063 25.9688,150.75 C25.8125,150.4844 25.5313,150.3438 25.2344,150.3438 C24.9375,150.3438 24.7344,150.4375 24.5156,150.75 L24.3438,150.6719 Z " fill="#000000"/><text fill="#000000" font-family="sans-serif" font-size="12" lengthAdjust="spacing" textLength="56" x="36" y="159.1543">Company</text><line style="stroke:#A80036;stroke-width:1.5;" x1="8" x2="94" y1="171" y2="171"/><text fill="#000000" font-family="sans-serif" font-size="11" lengthAdjust="spacing" textLength="37" x="13" y="185.2104">-name</text><!--MD5=[df38be88ccee13e832d6fafd6288a4ca]
class Test--><rect codeLine="11" fill="#FEFECE" filter="url(#fm8cas8ec95ac)" height="116.8281" id="Test" style="stroke:#A80036;stroke-width:1.5;" width="142" x="773" y="107"/><ellipse cx="826.75" cy="123" fill="#ADD1B2" rx="11" ry="11" style="stroke:#A80036;stroke-width:1.0;"/><path d="M829.0938,118.6719 C828.1563,118.2344 827.5625,118.0938 826.6875,118.0938 C824.0625,118.0938 822.0625,120.1719 822.0625,122.8906 L822.0625,124.0156 C822.0625,126.5938 824.1719,128.4844 827.0625,128.4844 C828.2813,128.4844 829.4375,128.1875 830.1875,127.6406 C830.7656,127.2344 831.0938,126.7813 831.0938,126.3906 C831.0938,125.9375 830.7031,125.5469 830.2344,125.5469 C830.0156,125.5469 829.8125,125.625 829.625,125.8125 C829.1719,126.2969 829.1719,126.2969 828.9844,126.3906 C828.5625,126.6563 827.875,126.7813 827.1094,126.7813 C825.0625,126.7813 823.7656,125.6875 823.7656,123.9844 L823.7656,122.8906 C823.7656,121.1094 825.0156,119.7969 826.75,119.7969 C827.3281,119.7969 827.9375,119.9531 828.4063,120.2031 C828.8906,120.4844 829.0625,120.7031 829.1563,121.1094 C829.2188,121.5156 829.25,121.6406 829.3906,121.7656 C829.5313,121.9063 829.7656,122.0156 829.9844,122.0156 C830.25,122.0156 830.5156,121.875 830.6875,121.6563 C830.7969,121.5 830.8281,121.3125 830.8281,120.8906 L830.8281,119.4688 C830.8281,119.0313 830.8125,118.9063 830.7188,118.75 C830.5625,118.4844 830.2813,118.3438 829.9844,118.3438 C829.6875,118.3438 829.4844,118.4375 829.2656,118.75 L829.0938,118.6719 Z " fill="#000000"/><text fill="#000000" font-family="sans-serif" font-size="12" lengthAdjust="spacing" textLength="26" x="847.25" y="127.1543">Test</text><line style="stroke:#A80036;stroke-width:1.5;" x1="774" x2="914" y1="139" y2="139"/><text fill="#000000" font-family="sans-serif" font-size="11" lengthAdjust="spacing" textLength="121" x="779" y="153.2104">-testRegistrationDate</text><text fill="#000000" font-family="sans-serif" font-size="11" lengthAdjust="spacing" textLength="130" x="779" y="166.0151">-chemicalAnalysisDate</text><text fill="#000000" font-family="sans-serif" font-size="11" lengthAdjust="spacing" textLength="85" x="779" y="178.8198">-diagnosisDate</text><text fill="#000000" font-family="sans-serif" font-size="11" lengthAdjust="spacing" textLength="0" x="783" y="191.6245"/><text fill="#000000" font-family="sans-serif" font-size="11" lengthAdjust="spacing" textLength="109" x="779" y="204.4292">class Receptionist{</text><text fill="#000000" font-family="sans-serif" font-size="11" lengthAdjust="spacing" textLength="16" x="779" y="217.2339">-ID</text><!--MD5=[012ee2a8bf3ae2b319009b06f951c2e5]
class ClinicalChemistryTechnologist--><rect codeLine="20" fill="#FEFECE" filter="url(#fm8cas8ec95ac)" height="52.8047" id="ClinicalChemistryTechnologist" style="stroke:#A80036;stroke-width:1.5;" width="210" x="225" y="7"/><ellipse cx="240" cy="23" fill="#ADD1B2" rx="11" ry="11" style="stroke:#A80036;stroke-width:1.0;"/><path d="M242.3438,18.6719 C241.4063,18.2344 240.8125,18.0938 239.9375,18.0938 C237.3125,18.0938 235.3125,20.1719 235.3125,22.8906 L235.3125,24.0156 C235.3125,26.5938 237.4219,28.4844 240.3125,28.4844 C241.5313,28.4844 242.6875,28.1875 243.4375,27.6406 C244.0156,27.2344 244.3438,26.7813 244.3438,26.3906 C244.3438,25.9375 243.9531,25.5469 243.4844,25.5469 C243.2656,25.5469 243.0625,25.625 242.875,25.8125 C242.4219,26.2969 242.4219,26.2969 242.2344,26.3906 C241.8125,26.6563 241.125,26.7813 240.3594,26.7813 C238.3125,26.7813 237.0156,25.6875 237.0156,23.9844 L237.0156,22.8906 C237.0156,21.1094 238.2656,19.7969 240,19.7969 C240.5781,19.7969 241.1875,19.9531 241.6563,20.2031 C242.1406,20.4844 242.3125,20.7031 242.4063,21.1094 C242.4688,21.5156 242.5,21.6406 242.6406,21.7656 C242.7813,21.9063 243.0156,22.0156 243.2344,22.0156 C243.5,22.0156 243.7656,21.875 243.9375,21.6563 C244.0469,21.5 244.0781,21.3125 244.0781,20.8906 L244.0781,19.4688 C244.0781,19.0313 244.0625,18.9063 243.9688,18.75 C243.8125,18.4844 243.5313,18.3438 243.2344,18.3438 C242.9375,18.3438 242.7344,18.4375 242.5156,18.75 L242.3438,18.6719 Z " fill="#000000"/><text fill="#000000" font-family="sans-serif" font-size="12" lengthAdjust="spacing" textLength="178" x="254" y="27.1543">ClinicalChemistryTechnologist</text><line style="stroke:#A80036;stroke-width:1.5;" x1="226" x2="434" y1="39" y2="39"/><text fill="#000000" font-family="sans-serif" font-size="11" lengthAdjust="spacing" textLength="16" x="231" y="53.2104">-ID</text><!--MD5=[7d96fd15f3014691d2fcaf89c5791e2a]
class SpecialistDoctor--><rect codeLine="24" fill="#FEFECE" filter="url(#fm8cas8ec95ac)" height="52.8047" id="SpecialistDoctor" style="stroke:#A80036;stroke-width:1.5;" width="131" x="264.5" y="95"/><ellipse cx="279.5" cy="111" fill="#ADD1B2" rx="11" ry="11" style="stroke:#A80036;stroke-width:1.0;"/><path d="M281.8438,106.6719 C280.9063,106.2344 280.3125,106.0938 279.4375,106.0938 C276.8125,106.0938 274.8125,108.1719 274.8125,110.8906 L274.8125,112.0156 C274.8125,114.5938 276.9219,116.4844 279.8125,116.4844 C281.0313,116.4844 282.1875,116.1875 282.9375,115.6406 C283.5156,115.2344 283.8438,114.7813 283.8438,114.3906 C283.8438,113.9375 283.4531,113.5469 282.9844,113.5469 C282.7656,113.5469 282.5625,113.625 282.375,113.8125 C281.9219,114.2969 281.9219,114.2969 281.7344,114.3906 C281.3125,114.6563 280.625,114.7813 279.8594,114.7813 C277.8125,114.7813 276.5156,113.6875 276.5156,111.9844 L276.5156,110.8906 C276.5156,109.1094 277.7656,107.7969 279.5,107.7969 C280.0781,107.7969 280.6875,107.9531 281.1563,108.2031 C281.6406,108.4844 281.8125,108.7031 281.9063,109.1094 C281.9688,109.5156 282,109.6406 282.1406,109.7656 C282.2813,109.9063 282.5156,110.0156 282.7344,110.0156 C283,110.0156 283.2656,109.875 283.4375,109.6563 C283.5469,109.5 283.5781,109.3125 283.5781,108.8906 L283.5781,107.4688 C283.5781,107.0313 283.5625,106.9063 283.4688,106.75 C283.3125,106.4844 283.0313,106.3438 282.7344,106.3438 C282.4375,106.3438 282.2344,106.4375 282.0156,106.75 L281.8438,106.6719 Z " fill="#000000"/><text fill="#000000" font-family="sans-serif" font-size="12" lengthAdjust="spacing" textLength="99" x="293.5" y="115.1543">SpecialistDoctor</text><line style="stroke:#A80036;stroke-width:1.5;" x1="265.5" x2="394.5" y1="127" y2="127"/><text fill="#000000" font-family="sans-serif" font-size="11" lengthAdjust="spacing" textLength="16" x="270.5" y="141.2104">-ID</text><!--MD5=[052425de1c0eb6cc1c1b48342b0bb88f]
class LaboratoryCoordinator--><rect codeLine="27" fill="#FEFECE" filter="url(#fm8cas8ec95ac)" height="52.8047" id="LaboratoryCoordinator" style="stroke:#A80036;stroke-width:1.5;" width="168" x="246" y="183"/><ellipse cx="261" cy="199" fill="#ADD1B2" rx="11" ry="11" style="stroke:#A80036;stroke-width:1.0;"/><path d="M263.3438,194.6719 C262.4063,194.2344 261.8125,194.0938 260.9375,194.0938 C258.3125,194.0938 256.3125,196.1719 256.3125,198.8906 L256.3125,200.0156 C256.3125,202.5938 258.4219,204.4844 261.3125,204.4844 C262.5313,204.4844 263.6875,204.1875 264.4375,203.6406 C265.0156,203.2344 265.3438,202.7813 265.3438,202.3906 C265.3438,201.9375 264.9531,201.5469 264.4844,201.5469 C264.2656,201.5469 264.0625,201.625 263.875,201.8125 C263.4219,202.2969 263.4219,202.2969 263.2344,202.3906 C262.8125,202.6563 262.125,202.7813 261.3594,202.7813 C259.3125,202.7813 258.0156,201.6875 258.0156,199.9844 L258.0156,198.8906 C258.0156,197.1094 259.2656,195.7969 261,195.7969 C261.5781,195.7969 262.1875,195.9531 262.6563,196.2031 C263.1406,196.4844 263.3125,196.7031 263.4063,197.1094 C263.4688,197.5156 263.5,197.6406 263.6406,197.7656 C263.7813,197.9063 264.0156,198.0156 264.2344,198.0156 C264.5,198.0156 264.7656,197.875 264.9375,197.6563 C265.0469,197.5 265.0781,197.3125 265.0781,196.8906 L265.0781,195.4688 C265.0781,195.0313 265.0625,194.9063 264.9688,194.75 C264.8125,194.4844 264.5313,194.3438 264.2344,194.3438 C263.9375,194.3438 263.7344,194.4375 263.5156,194.75 L263.3438,194.6719 Z " fill="#000000"/><text fill="#000000" font-family="sans-serif" font-size="12" lengthAdjust="spacing" textLength="136" x="275" y="203.1543">LaboratoryCoordinator</text><line style="stroke:#A80036;stroke-width:1.5;" x1="247" x2="413" y1="215" y2="215"/><text fill="#000000" font-family="sans-serif" font-size="11" lengthAdjust="spacing" textLength="16" x="252" y="229.2104">-ID</text><!--MD5=[03960189e81aa2c066c762ffabbee709]
class Receptionist--><rect fill="#FEFECE" filter="url(#fm8cas8ec95ac)" height="40" id="Receptionist" style="stroke:#A80036;stroke-width:1.5;" width="106" x="277" y="271.5"/><ellipse cx="292" cy="287.5" fill="#ADD1B2" rx="11" ry="11" style="stroke:#A80036;stroke-width:1.0;"/><path d="M294.3438,283.1719 C293.4063,282.7344 292.8125,282.5938 291.9375,282.5938 C289.3125,282.5938 287.3125,284.6719 287.3125,287.3906 L287.3125,288.5156 C287.3125,291.0938 289.4219,292.9844 292.3125,292.9844 C293.5313,292.9844 294.6875,292.6875 295.4375,292.1406 C296.0156,291.7344 296.3438,291.2813 296.3438,290.8906 C296.3438,290.4375 295.9531,290.0469 295.4844,290.0469 C295.2656,290.0469 295.0625,290.125 294.875,290.3125 C294.4219,290.7969 294.4219,290.7969 294.2344,290.8906 C293.8125,291.1563 293.125,291.2813 292.3594,291.2813 C290.3125,291.2813 289.0156,290.1875 289.0156,288.4844 L289.0156,287.3906 C289.0156,285.6094 290.2656,284.2969 292,284.2969 C292.5781,284.2969 293.1875,284.4531 293.6563,284.7031 C294.1406,284.9844 294.3125,285.2031 294.4063,285.6094 C294.4688,286.0156 294.5,286.1406 294.6406,286.2656 C294.7813,286.4063 295.0156,286.5156 295.2344,286.5156 C295.5,286.5156 295.7656,286.375 295.9375,286.1563 C296.0469,286 296.0781,285.8125 296.0781,285.3906 L296.0781,283.9688 C296.0781,283.5313 296.0625,283.4063 295.9688,283.25 C295.8125,282.9844 295.5313,282.8438 295.2344,282.8438 C294.9375,282.8438 294.7344,282.9375 294.5156,283.25 L294.3438,283.1719 Z " fill="#000000"/><text fill="#000000" font-family="sans-serif" font-size="12" lengthAdjust="spacing" textLength="74" x="306" y="291.6543">Receptionist</text><line style="stroke:#A80036;stroke-width:1.5;" x1="278" x2="382" y1="303.5" y2="303.5"/><!--MD5=[e8b34c2e6517a986175307f5599f058a]
link Receptionist to Test--><path codeLine="31" d="M383.075,290.0289 C462.907,286.3251 619.283,273.2997 743,227.5 C753.057,223.7769 763.195,218.9732 772.958,213.6889 " fill="none" id="Receptionist-Test" style="stroke:#A80036;stroke-width:1.0;"/><polygon fill="#000000" points="578.4068,218.1056,568.9656,216.9595,570.095,222.7278,578.4068,218.1056" style="stroke:#000000;stroke-width:1.0;"/><text fill="#000000" font-family="sans-serif" font-size="13" lengthAdjust="spacing" textLength="56" x="582.5" y="223.5669">registers</text><text fill="#000000" font-family="sans-serif" font-size="13" lengthAdjust="spacing" textLength="8" x="391.1012" y="302.9529">1</text><text fill="#000000" font-family="sans-serif" font-size="13" lengthAdjust="spacing" textLength="8" x="757.2193" y="231.5144">1</text><!--MD5=[c2cdc35a6c3e9c49df1db829c2169a58]
link ClinicalChemistryTechnologist to Test--><path codeLine="32" d="M435.198,42.118 C520.102,51.509 642.027,70.453 743,107.5 C752.986,111.164 763.124,115.797 772.922,120.84 " fill="none" id="ClinicalChemistryTechnologist-Test" style="stroke:#A80036;stroke-width:1.0;"/><polygon fill="#000000" points="507.3695,39.2015,499.2277,34.2859,497.8934,40.0103,507.3695,39.2015" style="stroke:#000000;stroke-width:1.0;"/><text fill="#000000" font-family="sans-serif" font-size="13" lengthAdjust="spacing" textLength="198" x="511.5" y="42.5669">performs chemical analysis for</text><text fill="#000000" font-family="sans-serif" font-size="13" lengthAdjust="spacing" textLength="8" x="442.876" y="55.3297">1</text><text fill="#000000" font-family="sans-serif" font-size="13" lengthAdjust="spacing" textLength="8" x="757.1796" y="129.0905">1</text><!--MD5=[314a253aad72a26024b6c8da1dd928d1]
link SpecialistDoctor to Test--><path codeLine="33" d="M395.586,127.05 C492.097,135.344 673.234,150.911 772.873,159.473 " fill="none" id="SpecialistDoctor-Test" style="stroke:#A80036;stroke-width:1.0;"/><polygon fill="#000000" points="474.9816,124.4945,466.2214,120.7919,465.7181,126.6482,474.9816,124.4945" style="stroke:#000000;stroke-width:1.0;"/><text fill="#000000" font-family="sans-serif" font-size="13" lengthAdjust="spacing" textLength="263" x="479" y="128.5669">gives a diagnosis about the result for the</text><text fill="#000000" font-family="sans-serif" font-size="13" lengthAdjust="spacing" textLength="8" x="403.6319" y="140.6448">1</text><text fill="#000000" font-family="sans-serif" font-size="13" lengthAdjust="spacing" textLength="8" x="757.1255" y="171.7075">1</text><!--MD5=[5448e79142bdfcbfebd9929e0faf45a6]
link Company to Receptionist--><path codeLine="34" d="M89.3874,192.154 C100.5634,199.549 113.033,207.253 125,213.5 C174.58,239.3799 234.749,261.3312 276.846,275.2896 " fill="none" id="Company-Receptionist" style="stroke:#A80036;stroke-width:1.0;"/><polygon fill="#000000" points="134.5707,207.0934,127.4937,200.7399,125.1108,206.1131,134.5707,207.0934" style="stroke:#000000;stroke-width:1.0;"/><text fill="#000000" font-family="sans-serif" font-size="13" lengthAdjust="spacing" textLength="55" x="139" y="209.5669">employs</text><text fill="#000000" font-family="sans-serif" font-size="13" lengthAdjust="spacing" textLength="8" x="88.9096" y="211.728">1</text><text fill="#000000" font-family="sans-serif" font-size="13" lengthAdjust="spacing" textLength="7" x="261.879" y="286.1409">*</text><!--MD5=[1ca3dfffd6d11e2dcc22d81a95bb4023]
link Company to ClinicalChemistryTechnologist--><path codeLine="35" d="M90.636,138.82 C101.518,131.806 113.522,124.525 125,118.5 C167.295,96.297 216.7,75.586 256.297,60.168 " fill="none" id="Company-ClinicalChemistryTechnologist" style="stroke:#A80036;stroke-width:1.0;"/><polygon fill="#000000" points="134.5168,76.9219,125.0854,78.1464,127.6063,83.4562,134.5168,76.9219" style="stroke:#000000;stroke-width:1.0;"/><text fill="#000000" font-family="sans-serif" font-size="13" lengthAdjust="spacing" textLength="55" x="139" y="83.5669">employs</text><text fill="#000000" font-family="sans-serif" font-size="13" lengthAdjust="spacing" textLength="8" x="90.8768" y="128.0207">1</text><text fill="#000000" font-family="sans-serif" font-size="13" lengthAdjust="spacing" textLength="7" x="232.4088" y="79.745">*</text><!--MD5=[137816425ceb0c0d2300eee5a01b984a]
link Company to SpecialistDoctor--><path codeLine="36" d="M95.2812,158.625 C140.625,151.422 212.361,140.028 264.405,131.761 " fill="none" id="Company-SpecialistDoctor" style="stroke:#A80036;stroke-width:1.0;"/><polygon fill="#000000" points="134.9381,134.282,125.544,132.7984,126.466,138.6035,134.9381,134.282" style="stroke:#000000;stroke-width:1.0;"/><text fill="#000000" font-family="sans-serif" font-size="13" lengthAdjust="spacing" textLength="55" x="139" y="139.5669">employs</text><text fill="#000000" font-family="sans-serif" font-size="13" lengthAdjust="spacing" textLength="8" x="102.976" y="170.8177">1</text><text fill="#000000" font-family="sans-serif" font-size="13" lengthAdjust="spacing" textLength="7" x="249.4159" y="145.9005">*</text><!--MD5=[baa6ff38ec20def42e063e01f85f91ae]
link Company to LaboratoryCoordinator--><path codeLine="37" d="M95.2017,173.381 C104.9917,175.115 115.347,176.907 125,178.5 C164.587,185.032 208.582,191.782 245.551,197.309 " fill="none" id="Company-LaboratoryCoordinator" style="stroke:#A80036;stroke-width:1.0;"/><polygon fill="#000000" points="134.9379,170.8523,126.4671,166.5282,125.5433,172.333,134.9379,170.8523" style="stroke:#000000;stroke-width:1.0;"/><text fill="#000000" font-family="sans-serif" font-size="13" lengthAdjust="spacing" textLength="55" x="139" y="174.5669">employs</text><text fill="#000000" font-family="sans-serif" font-size="13" lengthAdjust="spacing" textLength="8" x="102.8838" y="187.9254">1</text><text fill="#000000" font-family="sans-serif" font-size="13" lengthAdjust="spacing" textLength="7" x="230.9929" y="208.9869">*</text><!--MD5=[fe28b095a1a99c1f24c8c2245ad2ba4f]
link LaboratoryCoordinator to Test--><path codeLine="38" d="M414.031,205.576 C497.36,201.187 629.317,193.008 743,180.5 C752.685,179.434 762.87,178.126 772.884,176.73 " fill="none" id="LaboratoryCoordinator-Test" style="stroke:#A80036;stroke-width:1.0;"/><polygon fill="#000000" points="519.4839,171.6658,510.2324,169.461,510.7034,175.32,519.4839,171.6658" style="stroke:#000000;stroke-width:1.0;"/><text fill="#000000" font-family="sans-serif" font-size="13" lengthAdjust="spacing" textLength="174" x="523.5" y="176.5669">validates the work done on</text><text fill="#000000" font-family="sans-serif" font-size="13" lengthAdjust="spacing" textLength="8" x="421.8713" y="217.976">1</text><text fill="#000000" font-family="sans-serif" font-size="13" lengthAdjust="spacing" textLength="8" x="757.1377" y="190.7441">1</text><!--MD5=[46b47700dc31299adc7e76ffbcbbf314]
@startuml
hide methods
left to right direction
skinparam classAttributeIconSize 0




class Company{
  -name
}
class Test{
  -testRegistrationDate
  -chemicalAnalysisDate
  -diagnosisDate

class Receptionist{
  -ID
}

class ClinicalChemistryTechnologist {
  -ID
}

class SpecialistDoctor {
  -ID
}
class LaboratoryCoordinator{
  -ID
}

Receptionist "1" - - "1" Test : registers >
ClinicalChemistryTechnologist "1" - - "1" Test : performs chemical analysis for >
SpecialistDoctor "1" - - "1" Test : gives a diagnosis about the result for the >
Company "1" - - "*" Receptionist : employs >
Company "1" - - "*" ClinicalChemistryTechnologist : employs >
Company "1" - - "*" SpecialistDoctor : employs >
Company "1" - - "*" LaboratoryCoordinator : employs >
LaboratoryCoordinator "1" - - "1" Test : validates the work done on >
@enduml

PlantUML version 1.2021.7beta2(Unknown compile time)
(GPL source distribution)
Java Runtime: Java(TM) SE Runtime Environment
JVM: Java HotSpot(TM) 64-Bit Server VM
Default Encoding: UTF-8
Language: en
Country: US
--></g></svg>