<?xml version="1.0" encoding="UTF-8" standalone="no"?><svg xmlns="http://www.w3.org/2000/svg" xmlns:xlink="http://www.w3.org/1999/xlink" contentScriptType="application/ecmascript" contentStyleType="text/css" height="1128px" preserveAspectRatio="none" style="width:454px;height:1128px;background:#FFFFFF;" version="1.1" viewBox="0 0 454 1128" width="454px" zoomAndPan="magnify"><defs><filter height="300%" id="f1a56cpaeecmz9" width="300%" x="-1" y="-1"><feGaussianBlur result="blurOut" stdDeviation="2.0"/><feColorMatrix in="blurOut" result="blurOut2" type="matrix" values="0 0 0 0 0 0 0 0 0 0 0 0 0 0 0 0 0 0 .4 0"/><feOffset dx="4.0" dy="4.0" in="blurOut2" result="blurOut3"/><feBlend in="SourceGraphic" in2="blurOut3" mode="normal"/></filter></defs><g><!--MD5=[df38be88ccee13e832d6fafd6288a4ca]
class Test--><rect codeLine="3" fill="#FEFECE" filter="url(#f1a56cpaeecmz9)" height="227.2656" id="Test" style="stroke:#A80036;stroke-width:1.5;" width="176" x="39.5" y="603"/><ellipse cx="110.25" cy="619" fill="#ADD1B2" rx="11" ry="11" style="stroke:#A80036;stroke-width:1.0;"/><path d="M112.5938,614.6719 C111.6563,614.2344 111.0625,614.0938 110.1875,614.0938 C107.5625,614.0938 105.5625,616.1719 105.5625,618.8906 L105.5625,620.0156 C105.5625,622.5938 107.6719,624.4844 110.5625,624.4844 C111.7813,624.4844 112.9375,624.1875 113.6875,623.6406 C114.2656,623.2344 114.5938,622.7813 114.5938,622.3906 C114.5938,621.9375 114.2031,621.5469 113.7344,621.5469 C113.5156,621.5469 113.3125,621.625 113.125,621.8125 C112.6719,622.2969 112.6719,622.2969 112.4844,622.3906 C112.0625,622.6563 111.375,622.7813 110.6094,622.7813 C108.5625,622.7813 107.2656,621.6875 107.2656,619.9844 L107.2656,618.8906 C107.2656,617.1094 108.5156,615.7969 110.25,615.7969 C110.8281,615.7969 111.4375,615.9531 111.9063,616.2031 C112.3906,616.4844 112.5625,616.7031 112.6563,617.1094 C112.7188,617.5156 112.75,617.6406 112.8906,617.7656 C113.0313,617.9063 113.2656,618.0156 113.4844,618.0156 C113.75,618.0156 114.0156,617.875 114.1875,617.6563 C114.2969,617.5 114.3281,617.3125 114.3281,616.8906 L114.3281,615.4688 C114.3281,615.0313 114.3125,614.9063 114.2188,614.75 C114.0625,614.4844 113.7813,614.3438 113.4844,614.3438 C113.1875,614.3438 112.9844,614.4375 112.7656,614.75 L112.5938,614.6719 Z " fill="#000000"/><text fill="#000000" font-family="sans-serif" font-size="12" lengthAdjust="spacing" textLength="26" x="130.75" y="623.1543">Test</text><line style="stroke:#A80036;stroke-width:1.5;" x1="40.5" x2="214.5" y1="635" y2="635"/><text fill="#000000" font-family="sans-serif" font-size="11" lengthAdjust="spacing" textLength="9" x="45.5" y="649.2104">...</text><text fill="#000000" font-family="sans-serif" font-size="11" lengthAdjust="spacing" textLength="35" x="45.5" y="662.0151">-client</text><text fill="#000000" font-family="sans-serif" font-size="11" lengthAdjust="spacing" textLength="38" x="45.5" y="674.8198">-status</text><text fill="#000000" font-family="sans-serif" font-size="11" lengthAdjust="spacing" textLength="96" x="45.5" y="687.6245">-registrationDate</text><text fill="#000000" font-family="sans-serif" font-size="11" lengthAdjust="spacing" textLength="130" x="45.5" y="700.4292">-sampleCollectionDate</text><text fill="#000000" font-family="sans-serif" font-size="11" lengthAdjust="spacing" textLength="130" x="45.5" y="713.2339">-chemicalAnalysisDate</text><text fill="#000000" font-family="sans-serif" font-size="11" lengthAdjust="spacing" textLength="87" x="45.5" y="726.0386">-DiagnosisDate</text><line style="stroke:#A80036;stroke-width:1.5;" x1="40.5" x2="214.5" y1="732.6328" y2="732.6328"/><text fill="#000000" font-family="sans-serif" font-size="11" lengthAdjust="spacing" textLength="131" x="45.5" y="746.8433">+getRegistrationDate()</text><text fill="#000000" font-family="sans-serif" font-size="11" lengthAdjust="spacing" textLength="164" x="45.5" y="759.6479">+getSampleCollectionDate()</text><text fill="#000000" font-family="sans-serif" font-size="11" lengthAdjust="spacing" textLength="164" x="45.5" y="772.4526">+getChemicalAnalysisDate()</text><text fill="#000000" font-family="sans-serif" font-size="11" lengthAdjust="spacing" textLength="119" x="45.5" y="785.2573">+getDiagnosisDate()</text><text fill="#000000" font-family="sans-serif" font-size="11" lengthAdjust="spacing" textLength="69" x="45.5" y="798.062">+getClient()</text><text fill="#000000" font-family="sans-serif" font-size="11" lengthAdjust="spacing" textLength="61" x="45.5" y="810.8667">+toString()</text><text fill="#000000" font-family="sans-serif" font-size="11" lengthAdjust="spacing" textLength="119" x="45.5" y="823.6714">+setValidationDate()</text><!--MD5=[0f6f7964b844a64b0496af0dda7914bd]
class TestStore--><rect codeLine="19" fill="#FEFECE" filter="url(#f1a56cpaeecmz9)" height="86.4141" id="TestStore" style="stroke:#A80036;stroke-width:1.5;" width="327" x="113" y="440"/><ellipse cx="242.75" cy="456" fill="#ADD1B2" rx="11" ry="11" style="stroke:#A80036;stroke-width:1.0;"/><path d="M245.0938,451.6719 C244.1563,451.2344 243.5625,451.0938 242.6875,451.0938 C240.0625,451.0938 238.0625,453.1719 238.0625,455.8906 L238.0625,457.0156 C238.0625,459.5938 240.1719,461.4844 243.0625,461.4844 C244.2813,461.4844 245.4375,461.1875 246.1875,460.6406 C246.7656,460.2344 247.0938,459.7813 247.0938,459.3906 C247.0938,458.9375 246.7031,458.5469 246.2344,458.5469 C246.0156,458.5469 245.8125,458.625 245.625,458.8125 C245.1719,459.2969 245.1719,459.2969 244.9844,459.3906 C244.5625,459.6563 243.875,459.7813 243.1094,459.7813 C241.0625,459.7813 239.7656,458.6875 239.7656,456.9844 L239.7656,455.8906 C239.7656,454.1094 241.0156,452.7969 242.75,452.7969 C243.3281,452.7969 243.9375,452.9531 244.4063,453.2031 C244.8906,453.4844 245.0625,453.7031 245.1563,454.1094 C245.2188,454.5156 245.25,454.6406 245.3906,454.7656 C245.5313,454.9063 245.7656,455.0156 245.9844,455.0156 C246.25,455.0156 246.5156,454.875 246.6875,454.6563 C246.7969,454.5 246.8281,454.3125 246.8281,453.8906 L246.8281,452.4688 C246.8281,452.0313 246.8125,451.9063 246.7188,451.75 C246.5625,451.4844 246.2813,451.3438 245.9844,451.3438 C245.6875,451.3438 245.4844,451.4375 245.2656,451.75 L245.0938,451.6719 Z " fill="#000000"/><text fill="#000000" font-family="sans-serif" font-size="12" lengthAdjust="spacing" textLength="59" x="263.25" y="460.1543">TestStore</text><line style="stroke:#A80036;stroke-width:1.5;" x1="114" x2="439" y1="472" y2="472"/><text fill="#000000" font-family="sans-serif" font-size="11" lengthAdjust="spacing" textLength="45" x="119" y="486.2104">-testList</text><line style="stroke:#A80036;stroke-width:1.5;" x1="114" x2="439" y1="492.8047" y2="492.8047"/><text fill="#000000" font-family="sans-serif" font-size="11" lengthAdjust="spacing" textLength="135" x="119" y="507.0151">+getUnvalidatedTests()</text><text fill="#000000" font-family="sans-serif" font-size="11" lengthAdjust="spacing" textLength="315" x="119" y="519.8198">+validateTestList(testListToBeChanged,validationDate)</text><!--MD5=[02e4b9b7573f1156f41e60aa5b4e25a4]
class Company--><rect codeLine="24" fill="#FEFECE" filter="url(#f1a56cpaeecmz9)" height="73.6094" id="Company" style="stroke:#A80036;stroke-width:1.5;" width="107" x="223" y="289"/><ellipse cx="246.55" cy="305" fill="#ADD1B2" rx="11" ry="11" style="stroke:#A80036;stroke-width:1.0;"/><path d="M248.8938,300.6719 C247.9563,300.2344 247.3625,300.0938 246.4875,300.0938 C243.8625,300.0938 241.8625,302.1719 241.8625,304.8906 L241.8625,306.0156 C241.8625,308.5938 243.9719,310.4844 246.8625,310.4844 C248.0813,310.4844 249.2375,310.1875 249.9875,309.6406 C250.5656,309.2344 250.8938,308.7813 250.8938,308.3906 C250.8938,307.9375 250.5031,307.5469 250.0344,307.5469 C249.8156,307.5469 249.6125,307.625 249.425,307.8125 C248.9719,308.2969 248.9719,308.2969 248.7844,308.3906 C248.3625,308.6563 247.675,308.7813 246.9094,308.7813 C244.8625,308.7813 243.5656,307.6875 243.5656,305.9844 L243.5656,304.8906 C243.5656,303.1094 244.8156,301.7969 246.55,301.7969 C247.1281,301.7969 247.7375,301.9531 248.2063,302.2031 C248.6906,302.4844 248.8625,302.7031 248.9563,303.1094 C249.0188,303.5156 249.05,303.6406 249.1906,303.7656 C249.3313,303.9063 249.5656,304.0156 249.7844,304.0156 C250.05,304.0156 250.3156,303.875 250.4875,303.6563 C250.5969,303.5 250.6281,303.3125 250.6281,302.8906 L250.6281,301.4688 C250.6281,301.0313 250.6125,300.9063 250.5188,300.75 C250.3625,300.4844 250.0813,300.3438 249.7844,300.3438 C249.4875,300.3438 249.2844,300.4375 249.0656,300.75 L248.8938,300.6719 Z " fill="#000000"/><text fill="#000000" font-family="sans-serif" font-size="12" lengthAdjust="spacing" textLength="56" x="262.45" y="309.1543">Company</text><line style="stroke:#A80036;stroke-width:1.5;" x1="224" x2="329" y1="321" y2="321"/><text fill="#000000" font-family="sans-serif" font-size="11" lengthAdjust="spacing" textLength="70" x="229" y="335.2104">-designation</text><line style="stroke:#A80036;stroke-width:1.5;" x1="224" x2="329" y1="341.8047" y2="341.8047"/><text fill="#000000" font-family="sans-serif" font-size="11" lengthAdjust="spacing" textLength="95" x="229" y="356.0151">+getTestStore();</text><!--MD5=[aac44b466456b05e2cd81996831d2f6a]
class ValidateWorkUI--><rect codeLine="28" fill="#FEFECE" filter="url(#f1a56cpaeecmz9)" height="48" id="ValidateWorkUI" style="stroke:#A80036;stroke-width:1.5;" width="124" x="107.5" y="7"/><ellipse cx="122.5" cy="23" fill="#ADD1B2" rx="11" ry="11" style="stroke:#A80036;stroke-width:1.0;"/><path d="M124.8438,18.6719 C123.9063,18.2344 123.3125,18.0938 122.4375,18.0938 C119.8125,18.0938 117.8125,20.1719 117.8125,22.8906 L117.8125,24.0156 C117.8125,26.5938 119.9219,28.4844 122.8125,28.4844 C124.0313,28.4844 125.1875,28.1875 125.9375,27.6406 C126.5156,27.2344 126.8438,26.7813 126.8438,26.3906 C126.8438,25.9375 126.4531,25.5469 125.9844,25.5469 C125.7656,25.5469 125.5625,25.625 125.375,25.8125 C124.9219,26.2969 124.9219,26.2969 124.7344,26.3906 C124.3125,26.6563 123.625,26.7813 122.8594,26.7813 C120.8125,26.7813 119.5156,25.6875 119.5156,23.9844 L119.5156,22.8906 C119.5156,21.1094 120.7656,19.7969 122.5,19.7969 C123.0781,19.7969 123.6875,19.9531 124.1563,20.2031 C124.6406,20.4844 124.8125,20.7031 124.9063,21.1094 C124.9688,21.5156 125,21.6406 125.1406,21.7656 C125.2813,21.9063 125.5156,22.0156 125.7344,22.0156 C126,22.0156 126.2656,21.875 126.4375,21.6563 C126.5469,21.5 126.5781,21.3125 126.5781,20.8906 L126.5781,19.4688 C126.5781,19.0313 126.5625,18.9063 126.4688,18.75 C126.3125,18.4844 126.0313,18.3438 125.7344,18.3438 C125.4375,18.3438 125.2344,18.4375 125.0156,18.75 L124.8438,18.6719 Z " fill="#000000"/><text fill="#000000" font-family="sans-serif" font-size="12" lengthAdjust="spacing" textLength="92" x="136.5" y="27.1543">ValidateWorkUI</text><line style="stroke:#A80036;stroke-width:1.5;" x1="108.5" x2="230.5" y1="39" y2="39"/><line style="stroke:#A80036;stroke-width:1.5;" x1="108.5" x2="230.5" y1="47" y2="47"/><!--MD5=[b5416685e7a8a51f2eeb2ec2a6d13f1a]
class ValidateWorkController--><rect codeLine="30" fill="#FEFECE" filter="url(#f1a56cpaeecmz9)" height="112.0234" id="ValidateWorkController" style="stroke:#A80036;stroke-width:1.5;" width="318" x="10.5" y="116"/><ellipse cx="95.75" cy="132" fill="#ADD1B2" rx="11" ry="11" style="stroke:#A80036;stroke-width:1.0;"/><path d="M98.0938,127.6719 C97.1563,127.2344 96.5625,127.0938 95.6875,127.0938 C93.0625,127.0938 91.0625,129.1719 91.0625,131.8906 L91.0625,133.0156 C91.0625,135.5938 93.1719,137.4844 96.0625,137.4844 C97.2813,137.4844 98.4375,137.1875 99.1875,136.6406 C99.7656,136.2344 100.0938,135.7813 100.0938,135.3906 C100.0938,134.9375 99.7031,134.5469 99.2344,134.5469 C99.0156,134.5469 98.8125,134.625 98.625,134.8125 C98.1719,135.2969 98.1719,135.2969 97.9844,135.3906 C97.5625,135.6563 96.875,135.7813 96.1094,135.7813 C94.0625,135.7813 92.7656,134.6875 92.7656,132.9844 L92.7656,131.8906 C92.7656,130.1094 94.0156,128.7969 95.75,128.7969 C96.3281,128.7969 96.9375,128.9531 97.4063,129.2031 C97.8906,129.4844 98.0625,129.7031 98.1563,130.1094 C98.2188,130.5156 98.25,130.6406 98.3906,130.7656 C98.5313,130.9063 98.7656,131.0156 98.9844,131.0156 C99.25,131.0156 99.5156,130.875 99.6875,130.6563 C99.7969,130.5 99.8281,130.3125 99.8281,129.8906 L99.8281,128.4688 C99.8281,128.0313 99.8125,127.9063 99.7188,127.75 C99.5625,127.4844 99.2813,127.3438 98.9844,127.3438 C98.6875,127.3438 98.4844,127.4375 98.2656,127.75 L98.0938,127.6719 Z " fill="#000000"/><text fill="#000000" font-family="sans-serif" font-size="12" lengthAdjust="spacing" textLength="139" x="116.25" y="136.1543">ValidateWorkController</text><line style="stroke:#A80036;stroke-width:1.5;" x1="11.5" x2="327.5" y1="148" y2="148"/><line style="stroke:#A80036;stroke-width:1.5;" x1="11.5" x2="327.5" y1="156" y2="156"/><text fill="#000000" font-family="sans-serif" font-size="11" lengthAdjust="spacing" textLength="135" x="16.5" y="170.2104">+getUnvalidatedTests()</text><text fill="#000000" font-family="sans-serif" font-size="11" lengthAdjust="spacing" textLength="145" x="16.5" y="183.0151">+showUnvalidatedTests()</text><text fill="#000000" font-family="sans-serif" font-size="11" lengthAdjust="spacing" textLength="221" x="16.5" y="195.8198">+getSelectedTest(selectedTestString)</text><text fill="#000000" font-family="sans-serif" font-size="11" lengthAdjust="spacing" textLength="237" x="16.5" y="208.6245">+showSelectedTests(selectedTestString)</text><text fill="#000000" font-family="sans-serif" font-size="11" lengthAdjust="spacing" textLength="306" x="16.5" y="221.4292">+validateTests(selectedTestList,Date validationDate)</text><!--MD5=[6b9c87d147b597fd90aaec39e153c56a]
class EmailNotificationSender--><rect codeLine="37" fill="#FEFECE" filter="url(#f1a56cpaeecmz9)" height="60.8047" id="EmailNotificationSender" style="stroke:#A80036;stroke-width:1.5;" width="241" x="7" y="1054"/><ellipse cx="52.75" cy="1070" fill="#ADD1B2" rx="11" ry="11" style="stroke:#A80036;stroke-width:1.0;"/><path d="M55.0938,1065.6719 C54.1563,1065.2344 53.5625,1065.0938 52.6875,1065.0938 C50.0625,1065.0938 48.0625,1067.1719 48.0625,1069.8906 L48.0625,1071.0156 C48.0625,1073.5938 50.1719,1075.4844 53.0625,1075.4844 C54.2813,1075.4844 55.4375,1075.1875 56.1875,1074.6406 C56.7656,1074.2344 57.0938,1073.7813 57.0938,1073.3906 C57.0938,1072.9375 56.7031,1072.5469 56.2344,1072.5469 C56.0156,1072.5469 55.8125,1072.625 55.625,1072.8125 C55.1719,1073.2969 55.1719,1073.2969 54.9844,1073.3906 C54.5625,1073.6563 53.875,1073.7813 53.1094,1073.7813 C51.0625,1073.7813 49.7656,1072.6875 49.7656,1070.9844 L49.7656,1069.8906 C49.7656,1068.1094 51.0156,1066.7969 52.75,1066.7969 C53.3281,1066.7969 53.9375,1066.9531 54.4063,1067.2031 C54.8906,1067.4844 55.0625,1067.7031 55.1563,1068.1094 C55.2188,1068.5156 55.25,1068.6406 55.3906,1068.7656 C55.5313,1068.9063 55.7656,1069.0156 55.9844,1069.0156 C56.25,1069.0156 56.5156,1068.875 56.6875,1068.6563 C56.7969,1068.5 56.8281,1068.3125 56.8281,1067.8906 L56.8281,1066.4688 C56.8281,1066.0313 56.8125,1065.9063 56.7188,1065.75 C56.5625,1065.4844 56.2813,1065.3438 55.9844,1065.3438 C55.6875,1065.3438 55.4844,1065.4375 55.2656,1065.75 L55.0938,1065.6719 Z " fill="#000000"/><text fill="#000000" font-family="sans-serif" font-size="12" lengthAdjust="spacing" textLength="141" x="73.25" y="1074.1543">EmailNotificationSender</text><line style="stroke:#A80036;stroke-width:1.5;" x1="8" x2="247" y1="1086" y2="1086"/><line style="stroke:#A80036;stroke-width:1.5;" x1="8" x2="247" y1="1094" y2="1094"/><text fill="#000000" font-family="sans-serif" font-size="11" lengthAdjust="spacing" textLength="229" x="13" y="1108.2104">+sendTestCompletedNotification(Client)</text><!--MD5=[ed6624c6556d5e7b1bd23032162d20b7]
class Client--><rect codeLine="40" fill="#FEFECE" filter="url(#f1a56cpaeecmz9)" height="86.4141" id="Client" style="stroke:#A80036;stroke-width:1.5;" width="65" x="95" y="907"/><ellipse cx="110" cy="923" fill="#ADD1B2" rx="11" ry="11" style="stroke:#A80036;stroke-width:1.0;"/><path d="M112.3438,918.6719 C111.4063,918.2344 110.8125,918.0938 109.9375,918.0938 C107.3125,918.0938 105.3125,920.1719 105.3125,922.8906 L105.3125,924.0156 C105.3125,926.5938 107.4219,928.4844 110.3125,928.4844 C111.5313,928.4844 112.6875,928.1875 113.4375,927.6406 C114.0156,927.2344 114.3438,926.7813 114.3438,926.3906 C114.3438,925.9375 113.9531,925.5469 113.4844,925.5469 C113.2656,925.5469 113.0625,925.625 112.875,925.8125 C112.4219,926.2969 112.4219,926.2969 112.2344,926.3906 C111.8125,926.6563 111.125,926.7813 110.3594,926.7813 C108.3125,926.7813 107.0156,925.6875 107.0156,923.9844 L107.0156,922.8906 C107.0156,921.1094 108.2656,919.7969 110,919.7969 C110.5781,919.7969 111.1875,919.9531 111.6563,920.2031 C112.1406,920.4844 112.3125,920.7031 112.4063,921.1094 C112.4688,921.5156 112.5,921.6406 112.6406,921.7656 C112.7813,921.9063 113.0156,922.0156 113.2344,922.0156 C113.5,922.0156 113.7656,921.875 113.9375,921.6563 C114.0469,921.5 114.0781,921.3125 114.0781,920.8906 L114.0781,919.4688 C114.0781,919.0313 114.0625,918.9063 113.9688,918.75 C113.8125,918.4844 113.5313,918.3438 113.2344,918.3438 C112.9375,918.3438 112.7344,918.4375 112.5156,918.75 L112.3438,918.6719 Z " fill="#000000"/><text fill="#000000" font-family="sans-serif" font-size="12" lengthAdjust="spacing" textLength="33" x="124" y="927.1543">Client</text><line style="stroke:#A80036;stroke-width:1.5;" x1="96" x2="159" y1="939" y2="939"/><text fill="#000000" font-family="sans-serif" font-size="11" lengthAdjust="spacing" textLength="9" x="101" y="953.2104">...</text><text fill="#000000" font-family="sans-serif" font-size="11" lengthAdjust="spacing" textLength="37" x="101" y="966.0151">-name</text><text fill="#000000" font-family="sans-serif" font-size="11" lengthAdjust="spacing" textLength="36" x="101" y="978.8198">-email</text><line style="stroke:#A80036;stroke-width:1.5;" x1="96" x2="159" y1="985.4141" y2="985.4141"/><!--MD5=[b8bd95e3f6740b08f0bb61da85ab4767]
link ValidateWorkUI to ValidateWorkController--><path codeLine="45" d="M169.5,55.27 C169.5,70.45 169.5,91.02 169.5,110.6 " fill="none" id="ValidateWorkUI-to-ValidateWorkController" style="stroke:#A80036;stroke-width:1.0;stroke-dasharray:7.0,7.0;"/><polygon fill="#A80036" points="169.5,115.828,173.5,106.828,169.5,110.828,165.5,106.828,169.5,115.828" style="stroke:#A80036;stroke-width:1.0;"/><!--MD5=[50d8ceb658c65cdc3fa2f95f4fab6e4c]
link ValidateWorkController to Company--><path codeLine="46" d="M208.432,228.305 C221.542,246.93 235.916,267.348 248.063,284.604 " fill="none" id="ValidateWorkController-to-Company" style="stroke:#A80036;stroke-width:1.0;stroke-dasharray:7.0,7.0;"/><polygon fill="#A80036" points="251.101,288.919,249.1905,279.2572,248.2226,284.8306,242.6492,283.8627,251.101,288.919" style="stroke:#A80036;stroke-width:1.0;"/><!--MD5=[7f6cf7f175eae0af66201860de5de971]
link Company to TestStore--><path codeLine="47" d="M276.5,363.341 C276.5,384.637 276.5,411.774 276.5,434.72 " fill="none" id="Company-to-TestStore" style="stroke:#A80036;stroke-width:1.0;"/><polygon fill="#A80036" points="276.5,439.85,280.5,430.85,276.5,434.85,272.5,430.85,276.5,439.85" style="stroke:#A80036;stroke-width:1.0;"/><text fill="#000000" font-family="sans-serif" font-size="13" lengthAdjust="spacing" textLength="30" x="277.5" y="406.0669">uses</text><text fill="#000000" font-family="sans-serif" font-size="13" lengthAdjust="spacing" textLength="8" x="267.8625" y="382.5961">1</text><text fill="#000000" font-family="sans-serif" font-size="13" lengthAdjust="spacing" textLength="8" x="267.8625" y="428.8221">1</text><!--MD5=[b0f4f6db8206580012ef9cd998ed01c5]
link TestStore to Test--><path codeLine="48" d="M249.344,526.191 C236.173,546.656 219.629,572.36 203.018,598.168 " fill="none" id="TestStore-to-Test" style="stroke:#A80036;stroke-width:1.0;"/><polygon fill="#A80036" points="200.136,602.647,208.3702,597.2435,202.8419,598.4425,201.643,592.9141,200.136,602.647" style="stroke:#A80036;stroke-width:1.0;"/><text fill="#000000" font-family="sans-serif" font-size="13" lengthAdjust="spacing" textLength="54" x="229.5" y="569.0669">contains</text><text fill="#000000" font-family="sans-serif" font-size="13" lengthAdjust="spacing" textLength="8" x="236.1838" y="546.6303">1</text><text fill="#000000" font-family="sans-serif" font-size="13" lengthAdjust="spacing" textLength="7" x="197.565" y="591.9355">*</text><!--MD5=[d87421f406902a4d5ef5a680b014dd1f]
link ValidateWorkController to TestStore--><path codeLine="49" d="M174.76,228.026 C179.69,266.727 188.888,319.211 205.5,363 C215.06,388.199 229.85,414.133 243.462,435.333 " fill="none" id="ValidateWorkController-to-TestStore" style="stroke:#A80036;stroke-width:1.0;stroke-dasharray:7.0,7.0;"/><polygon fill="#A80036" points="246.346,439.783,244.8066,430.0552,243.6261,435.5875,238.0938,434.407,246.346,439.783" style="stroke:#A80036;stroke-width:1.0;"/><!--MD5=[19c2fef5f1991f130f01593fb67b1f56]
link ValidateWorkController to Test--><path codeLine="50" d="M149.512,228.079 C131.286,281.435 105.6941,365.05 95.5,440 C90.3487,477.874 92.3067,487.911 95.5,526 C97.4583,549.358 100.7517,574.167 104.4999,597.872 " fill="none" id="ValidateWorkController-to-Test" style="stroke:#A80036;stroke-width:1.0;stroke-dasharray:7.0,7.0;"/><polygon fill="#A80036" points="105.3064,602.912,107.8341,593.393,104.5164,597.9748,99.9346,594.6571,105.3064,602.912" style="stroke:#A80036;stroke-width:1.0;"/><!--MD5=[3994f36c72829dbcddd1cf7021dddf61]
link Test to Client--><path codeLine="51" d="M127.5,830.198 C127.5,855.428 127.5,880.85 127.5,901.667 " fill="none" id="Test-to-Client" style="stroke:#A80036;stroke-width:1.0;"/><polygon fill="#A80036" points="127.5,906.858,131.5,897.858,127.5,901.858,123.5,897.858,127.5,906.858" style="stroke:#A80036;stroke-width:1.0;"/><text fill="#000000" font-family="sans-serif" font-size="13" lengthAdjust="spacing" textLength="41" x="128.5" y="873.0669">knows</text><text fill="#000000" font-family="sans-serif" font-size="13" lengthAdjust="spacing" textLength="8" x="119.2313" y="850.4034">1</text><text fill="#000000" font-family="sans-serif" font-size="13" lengthAdjust="spacing" textLength="8" x="118.8625" y="895.8314">1</text><!--MD5=[91506dcfcad906cd2d5ec1489e38a79a]
link Client to EmailNotificationSender--><path codeLine="52" d="M127.5,993.288 C127.5,1011.134 127.5,1031.6597 127.5,1048.6198 " fill="none" id="Client-to-EmailNotificationSender" style="stroke:#A80036;stroke-width:1.0;stroke-dasharray:7.0,7.0;"/><polygon fill="#A80036" points="127.5,1053.7618,131.5,1044.7618,127.5,1048.7618,123.5,1044.7618,127.5,1053.7618" style="stroke:#A80036;stroke-width:1.0;"/><!--MD5=[7c9e33e0d1e4b4e0a46732a8dc0bec55]
@startuml
skinparam classAttributeIconSize 0
'left to right direction
Class Test{
...
-client
-status
-registrationDate
-sampleCollectionDate
-chemicalAnalysisDate
-DiagnosisDate
+getRegistrationDate()
+getSampleCollectionDate()
+getChemicalAnalysisDate()
+getDiagnosisDate()
+getClient()
+toString()
+setValidationDate()
}
Class TestStore{
-testList
+getUnvalidatedTests()
+validateTestList(testListToBeChanged,validationDate)
}
Class Company{
-designation
+getTestStore();
}
Class ValidateWorkUI{
}
Class ValidateWorkController{
+getUnvalidatedTests()
+showUnvalidatedTests()
+getSelectedTest(selectedTestString)
+showSelectedTests(selectedTestString)
+validateTests(selectedTestList,Date validationDate)
}
Class EmailNotificationSender{
+sendTestCompletedNotification(Client)
}
Class Client{
...
-name
-email
}
ValidateWorkUI ..> ValidateWorkController
ValidateWorkController..> Company
Company "1" - -> "1" TestStore : uses
TestStore "1" - ->"*" Test : contains
ValidateWorkController ..> TestStore
ValidateWorkController ..> Test
Test"1" - ->"1"Client :knows
Client ..> EmailNotificationSender
@enduml

@startuml
skinparam classAttributeIconSize 0
Class Test{
...
-client
-status
-registrationDate
-sampleCollectionDate
-chemicalAnalysisDate
-DiagnosisDate
+getRegistrationDate()
+getSampleCollectionDate()
+getChemicalAnalysisDate()
+getDiagnosisDate()
+getClient()
+toString()
+setValidationDate()
}
Class TestStore{
-testList
+getUnvalidatedTests()
+validateTestList(testListToBeChanged,validationDate)
}
Class Company{
-designation
+getTestStore();
}
Class ValidateWorkUI{
}
Class ValidateWorkController{
+getUnvalidatedTests()
+showUnvalidatedTests()
+getSelectedTest(selectedTestString)
+showSelectedTests(selectedTestString)
+validateTests(selectedTestList,Date validationDate)
}
Class EmailNotificationSender{
+sendTestCompletedNotification(Client)
}
Class Client{
...
-name
-email
}
ValidateWorkUI ..> ValidateWorkController
ValidateWorkController..> Company
Company "1" - -> "1" TestStore : uses
TestStore "1" - ->"*" Test : contains
ValidateWorkController ..> TestStore
ValidateWorkController ..> Test
Test"1" - ->"1"Client :knows
Client ..> EmailNotificationSender
@enduml

PlantUML version 1.2021.7(Sun May 23 12:40:07 UTC 2021)
(GPL source distribution)
Java Runtime: Java(TM) SE Runtime Environment
JVM: Java HotSpot(TM) 64-Bit Server VM
Default Encoding: UTF-8
Language: en
Country: US
--></g></svg>