<?xml version="1.0" encoding="UTF-8" standalone="no"?><svg xmlns="http://www.w3.org/2000/svg" xmlns:xlink="http://www.w3.org/1999/xlink" contentScriptType="application/ecmascript" contentStyleType="text/css" height="934px" preserveAspectRatio="none" style="width:2124px;height:934px;background:#FFFFFF;" version="1.1" viewBox="0 0 2124 934" width="2124px" zoomAndPan="magnify"><defs><filter height="300%" id="fhpyxgz29aeio" width="300%" x="-1" y="-1"><feGaussianBlur result="blurOut" stdDeviation="2.0"/><feColorMatrix in="blurOut" result="blurOut2" type="matrix" values="0 0 0 0 0 0 0 0 0 0 0 0 0 0 0 0 0 0 .4 0"/><feOffset dx="4.0" dy="4.0" in="blurOut2" result="blurOut3"/><feBlend in="SourceGraphic" in2="blurOut3" mode="normal"/></filter></defs><g><rect fill="#FFFFFF" filter="url(#fhpyxgz29aeio)" height="734.0547" style="stroke:#A80036;stroke-width:1.0;" width="10" x="87.5" y="98.2969"/><rect fill="#FFFFFF" filter="url(#fhpyxgz29aeio)" height="320.3281" style="stroke:#A80036;stroke-width:1.0;" width="10" x="667.5" y="119.4297"/><rect fill="#FFFFFF" filter="url(#fhpyxgz29aeio)" height="87.3984" style="stroke:#A80036;stroke-width:1.0;" width="10" x="667.5" y="468.8906"/><rect fill="#FFFFFF" filter="url(#fhpyxgz29aeio)" height="246.9297" style="stroke:#A80036;stroke-width:1.0;" width="10" x="667.5" y="585.4219"/><rect fill="#FFFFFF" filter="url(#fhpyxgz29aeio)" height="246.9297" style="stroke:#A80036;stroke-width:1.0;" width="10" x="1098.5" y="148.5625"/><rect fill="#FFFFFF" filter="url(#fhpyxgz29aeio)" height="29.1328" style="stroke:#A80036;stroke-width:1.0;" width="10" x="1098.5" y="498.0234"/><rect fill="#FFFFFF" filter="url(#fhpyxgz29aeio)" height="58.2656" style="stroke:#A80036;stroke-width:1.0;" width="10" x="1098.5" y="614.5547"/><rect fill="#FFFFFF" filter="url(#fhpyxgz29aeio)" height="30" style="stroke:#A80036;stroke-width:1.0;" width="10" x="1304.5" y="177.6953"/><rect fill="#FFFFFF" filter="url(#fhpyxgz29aeio)" height="202.9297" style="stroke:#A80036;stroke-width:1.0;" width="10" x="1461.5" y="236.8281"/><rect fill="#FFFFFF" filter="url(#fhpyxgz29aeio)" height="35.1328" style="stroke:#A80036;stroke-width:1.0;" width="10" x="1461.5" y="236.8281"/><rect fill="#FFFFFF" filter="url(#fhpyxgz29aeio)" height="123.3984" style="stroke:#A80036;stroke-width:1.0;" width="10" x="1456.5" y="672.8203"/><rect fill="#FFFFFF" filter="url(#fhpyxgz29aeio)" height="121.5313" style="stroke:#A80036;stroke-width:1.0;" width="10" x="1725.5" y="273.9609"/><rect fill="#FFFFFF" filter="url(#fhpyxgz29aeio)" height="65.1328" style="stroke:#A80036;stroke-width:1.0;" width="10" x="1725.5" y="731.0859"/><rect fill="#FFFFFF" filter="url(#fhpyxgz29aeio)" height="28" style="stroke:#A80036;stroke-width:1.0;" width="10" x="1730.5" y="768.2188"/><line style="stroke:#A80036;stroke-width:1.0;stroke-dasharray:5.0,5.0;" x1="92" x2="92" y1="88.2969" y2="850.3516"/><line style="stroke:#A80036;stroke-width:1.0;stroke-dasharray:5.0,5.0;" x1="672" x2="672" y1="88.2969" y2="850.3516"/><line style="stroke:#A80036;stroke-width:1.0;stroke-dasharray:5.0,5.0;" x1="1103" x2="1103" y1="88.2969" y2="850.3516"/><line style="stroke:#A80036;stroke-width:1.0;stroke-dasharray:5.0,5.0;" x1="1309" x2="1309" y1="88.2969" y2="850.3516"/><line style="stroke:#A80036;stroke-width:1.0;stroke-dasharray:5.0,5.0;" x1="1461" x2="1461" y1="88.2969" y2="850.3516"/><line style="stroke:#A80036;stroke-width:1.0;stroke-dasharray:5.0,5.0;" x1="1730" x2="1730" y1="88.2969" y2="850.3516"/><line style="stroke:#A80036;stroke-width:1.0;stroke-dasharray:5.0,5.0;" x1="2015.5" x2="2015.5" y1="88.2969" y2="850.3516"/><text fill="#000000" font-family="sans-serif" font-size="14" lengthAdjust="spacing" textLength="169" x="5" y="84.9951">Laboratory Coordinator</text><ellipse cx="92.5" cy="15" fill="#FEFECE" filter="url(#fhpyxgz29aeio)" rx="8" ry="8" style="stroke:#A80036;stroke-width:2.0;"/><path d="M92.5,23 L92.5,50 M79.5,31 L105.5,31 M92.5,50 L79.5,65 M92.5,50 L105.5,65 " fill="none" filter="url(#fhpyxgz29aeio)" style="stroke:#A80036;stroke-width:2.0;"/><text fill="#000000" font-family="sans-serif" font-size="14" lengthAdjust="spacing" textLength="169" x="5" y="862.3467">Laboratory Coordinator</text><ellipse cx="92.5" cy="875.6484" fill="#FEFECE" filter="url(#fhpyxgz29aeio)" rx="8" ry="8" style="stroke:#A80036;stroke-width:2.0;"/><path d="M92.5,883.6484 L92.5,910.6484 M79.5,891.6484 L105.5,891.6484 M92.5,910.6484 L79.5,925.6484 M92.5,910.6484 L105.5,925.6484 " fill="none" filter="url(#fhpyxgz29aeio)" style="stroke:#A80036;stroke-width:2.0;"/><rect fill="#FEFECE" filter="url(#fhpyxgz29aeio)" height="30.2969" style="stroke:#A80036;stroke-width:1.5;" width="129" x="606" y="53"/><text fill="#000000" font-family="sans-serif" font-size="14" lengthAdjust="spacing" textLength="115" x="613" y="72.9951">:ValidateWorkUI</text><rect fill="#FEFECE" filter="url(#fhpyxgz29aeio)" height="30.2969" style="stroke:#A80036;stroke-width:1.5;" width="129" x="606" y="849.3516"/><text fill="#000000" font-family="sans-serif" font-size="14" lengthAdjust="spacing" textLength="115" x="613" y="869.3467">:ValidateWorkUI</text><rect fill="#FEFECE" filter="url(#fhpyxgz29aeio)" height="30.2969" style="stroke:#A80036;stroke-width:1.5;" width="189" x="1007" y="53"/><text fill="#000000" font-family="sans-serif" font-size="14" lengthAdjust="spacing" textLength="175" x="1014" y="72.9951">:ValidateWorkController</text><rect fill="#FEFECE" filter="url(#fhpyxgz29aeio)" height="30.2969" style="stroke:#A80036;stroke-width:1.5;" width="189" x="1007" y="849.3516"/><text fill="#000000" font-family="sans-serif" font-size="14" lengthAdjust="spacing" textLength="175" x="1014" y="869.3467">:ValidateWorkController</text><rect fill="#FEFECE" filter="url(#fhpyxgz29aeio)" height="46.5938" style="stroke:#A80036;stroke-width:1.5;" width="87" x="1264" y="36.7031"/><text fill="#000000" font-family="sans-serif" font-size="14" lengthAdjust="spacing" textLength="8" x="1303.5" y="56.6982">c</text><text fill="#000000" font-family="sans-serif" font-size="14" lengthAdjust="spacing" textLength="73" x="1271" y="72.9951">:Company</text><rect fill="#FEFECE" filter="url(#fhpyxgz29aeio)" height="46.5938" style="stroke:#A80036;stroke-width:1.5;" width="87" x="1264" y="849.3516"/><text fill="#000000" font-family="sans-serif" font-size="14" lengthAdjust="spacing" textLength="8" x="1303.5" y="869.3467">c</text><text fill="#000000" font-family="sans-serif" font-size="14" lengthAdjust="spacing" textLength="73" x="1271" y="885.6436">:Company</text><rect fill="#FEFECE" filter="url(#fhpyxgz29aeio)" height="46.5938" style="stroke:#A80036;stroke-width:1.5;" width="91" x="1414" y="36.7031"/><text fill="#000000" font-family="sans-serif" font-size="14" lengthAdjust="spacing" textLength="14" x="1452.5" y="56.6982">ts</text><text fill="#000000" font-family="sans-serif" font-size="14" lengthAdjust="spacing" textLength="77" x="1421" y="72.9951">:TestStore</text><rect fill="#FEFECE" filter="url(#fhpyxgz29aeio)" height="46.5938" style="stroke:#A80036;stroke-width:1.5;" width="91" x="1414" y="849.3516"/><text fill="#000000" font-family="sans-serif" font-size="14" lengthAdjust="spacing" textLength="14" x="1452.5" y="869.3467">ts</text><text fill="#000000" font-family="sans-serif" font-size="14" lengthAdjust="spacing" textLength="77" x="1421" y="885.6436">:TestStore</text><rect fill="#FEFECE" filter="url(#fhpyxgz29aeio)" height="46.5938" style="stroke:#A80036;stroke-width:1.5;" width="51" x="1703" y="36.7031"/><text fill="#000000" font-family="sans-serif" font-size="14" lengthAdjust="spacing" textLength="7" x="1725" y="56.6982">t</text><text fill="#000000" font-family="sans-serif" font-size="14" lengthAdjust="spacing" textLength="37" x="1710" y="72.9951">:Test</text><rect fill="#FEFECE" filter="url(#fhpyxgz29aeio)" height="46.5938" style="stroke:#A80036;stroke-width:1.5;" width="51" x="1703" y="849.3516"/><text fill="#000000" font-family="sans-serif" font-size="14" lengthAdjust="spacing" textLength="7" x="1725" y="869.3467">t</text><text fill="#000000" font-family="sans-serif" font-size="14" lengthAdjust="spacing" textLength="37" x="1710" y="885.6436">:Test</text><rect fill="#FEFECE" filter="url(#fhpyxgz29aeio)" height="46.5938" style="stroke:#A80036;stroke-width:1.5;" width="194" x="1916.5" y="36.7031"/><text fill="#000000" font-family="sans-serif" font-size="14" lengthAdjust="spacing" textLength="25" x="2001" y="56.6982">ens</text><text fill="#000000" font-family="sans-serif" font-size="14" lengthAdjust="spacing" textLength="180" x="1923.5" y="72.9951">:EmailNotificationSender</text><rect fill="#FEFECE" filter="url(#fhpyxgz29aeio)" height="46.5938" style="stroke:#A80036;stroke-width:1.5;" width="194" x="1916.5" y="849.3516"/><text fill="#000000" font-family="sans-serif" font-size="14" lengthAdjust="spacing" textLength="25" x="2001" y="869.3467">ens</text><text fill="#000000" font-family="sans-serif" font-size="14" lengthAdjust="spacing" textLength="180" x="1923.5" y="885.6436">:EmailNotificationSender</text><rect fill="#FFFFFF" filter="url(#fhpyxgz29aeio)" height="734.0547" style="stroke:#A80036;stroke-width:1.0;" width="10" x="87.5" y="98.2969"/><rect fill="#FFFFFF" filter="url(#fhpyxgz29aeio)" height="320.3281" style="stroke:#A80036;stroke-width:1.0;" width="10" x="667.5" y="119.4297"/><rect fill="#FFFFFF" filter="url(#fhpyxgz29aeio)" height="87.3984" style="stroke:#A80036;stroke-width:1.0;" width="10" x="667.5" y="468.8906"/><rect fill="#FFFFFF" filter="url(#fhpyxgz29aeio)" height="246.9297" style="stroke:#A80036;stroke-width:1.0;" width="10" x="667.5" y="585.4219"/><rect fill="#FFFFFF" filter="url(#fhpyxgz29aeio)" height="246.9297" style="stroke:#A80036;stroke-width:1.0;" width="10" x="1098.5" y="148.5625"/><rect fill="#FFFFFF" filter="url(#fhpyxgz29aeio)" height="29.1328" style="stroke:#A80036;stroke-width:1.0;" width="10" x="1098.5" y="498.0234"/><rect fill="#FFFFFF" filter="url(#fhpyxgz29aeio)" height="58.2656" style="stroke:#A80036;stroke-width:1.0;" width="10" x="1098.5" y="614.5547"/><rect fill="#FFFFFF" filter="url(#fhpyxgz29aeio)" height="30" style="stroke:#A80036;stroke-width:1.0;" width="10" x="1304.5" y="177.6953"/><rect fill="#FFFFFF" filter="url(#fhpyxgz29aeio)" height="202.9297" style="stroke:#A80036;stroke-width:1.0;" width="10" x="1461.5" y="236.8281"/><rect fill="#FFFFFF" filter="url(#fhpyxgz29aeio)" height="35.1328" style="stroke:#A80036;stroke-width:1.0;" width="10" x="1461.5" y="236.8281"/><rect fill="#FFFFFF" filter="url(#fhpyxgz29aeio)" height="123.3984" style="stroke:#A80036;stroke-width:1.0;" width="10" x="1456.5" y="672.8203"/><rect fill="#FFFFFF" filter="url(#fhpyxgz29aeio)" height="121.5313" style="stroke:#A80036;stroke-width:1.0;" width="10" x="1725.5" y="273.9609"/><rect fill="#FFFFFF" filter="url(#fhpyxgz29aeio)" height="65.1328" style="stroke:#A80036;stroke-width:1.0;" width="10" x="1725.5" y="731.0859"/><rect fill="#FFFFFF" filter="url(#fhpyxgz29aeio)" height="28" style="stroke:#A80036;stroke-width:1.0;" width="10" x="1730.5" y="768.2188"/><polygon fill="#A80036" points="655.5,115.4297,665.5,119.4297,655.5,123.4297,659.5,119.4297" style="stroke:#A80036;stroke-width:1.0;"/><line style="stroke:#A80036;stroke-width:1.0;" x1="97.5" x2="661.5" y1="119.4297" y2="119.4297"/><text fill="#000000" font-family="sans-serif" font-size="13" font-weight="bold" lengthAdjust="spacing" textLength="9" x="104.5" y="114.3638">1</text><text fill="#000000" font-family="sans-serif" font-size="13" lengthAdjust="spacing" textLength="138" x="117.5" y="114.3638">starts validating work</text><polygon fill="#A80036" points="1086.5,144.5625,1096.5,148.5625,1086.5,152.5625,1090.5,148.5625" style="stroke:#A80036;stroke-width:1.0;"/><line style="stroke:#A80036;stroke-width:1.0;" x1="677.5" x2="1092.5" y1="148.5625" y2="148.5625"/><text fill="#000000" font-family="sans-serif" font-size="13" font-weight="bold" lengthAdjust="spacing" textLength="9" x="684.5" y="143.4966">2</text><text fill="#000000" font-family="sans-serif" font-size="13" lengthAdjust="spacing" textLength="155" x="697.5" y="143.4966">showUnvalidatedTests()</text><polygon fill="#A80036" points="1292.5,173.6953,1302.5,177.6953,1292.5,181.6953,1296.5,177.6953" style="stroke:#A80036;stroke-width:1.0;"/><line style="stroke:#A80036;stroke-width:1.0;" x1="1108.5" x2="1298.5" y1="177.6953" y2="177.6953"/><text fill="#000000" font-family="sans-serif" font-size="13" font-weight="bold" lengthAdjust="spacing" textLength="8" x="1115.5" y="172.6294">3</text><text fill="#000000" font-family="sans-serif" font-size="13" lengthAdjust="spacing" textLength="165" x="1127.5" y="172.6294">TestStore=getTestStore()</text><polygon fill="#A80036" points="1449.5,232.8281,1459.5,236.8281,1449.5,240.8281,1453.5,236.8281" style="stroke:#A80036;stroke-width:1.0;"/><line style="stroke:#A80036;stroke-width:1.0;" x1="1108.5" x2="1455.5" y1="236.8281" y2="236.8281"/><text fill="#000000" font-family="sans-serif" font-size="13" font-weight="bold" lengthAdjust="spacing" textLength="9" x="1115.5" y="231.7622">4</text><text fill="#000000" font-family="sans-serif" font-size="13" lengthAdjust="spacing" textLength="142" x="1128.5" y="231.7622">getUnvalidatedTests()</text><line style="stroke:#A80036;stroke-width:1.0;" x1="1476.5" x2="1518.5" y1="265.9609" y2="265.9609"/><line style="stroke:#A80036;stroke-width:1.0;" x1="1518.5" x2="1518.5" y1="265.9609" y2="278.9609"/><line style="stroke:#A80036;stroke-width:1.0;" x1="1477.5" x2="1518.5" y1="278.9609" y2="278.9609"/><polygon fill="#A80036" points="1487.5,274.9609,1477.5,278.9609,1487.5,282.9609,1483.5,278.9609" style="stroke:#A80036;stroke-width:1.0;"/><text fill="#000000" font-family="sans-serif" font-size="13" font-weight="bold" lengthAdjust="spacing" textLength="9" x="1483.5" y="260.895">5</text><text fill="#000000" font-family="sans-serif" font-size="13" lengthAdjust="spacing" textLength="209" x="1496.5" y="260.895">isTestReadyToBeValidated(Test)</text><polygon fill="#A80036" points="1713.5,304.0938,1723.5,308.0938,1713.5,312.0938,1717.5,308.0938" style="stroke:#A80036;stroke-width:1.0;"/><line style="stroke:#A80036;stroke-width:1.0;" x1="1466.5" x2="1719.5" y1="308.0938" y2="308.0938"/><text fill="#000000" font-family="sans-serif" font-size="13" font-weight="bold" lengthAdjust="spacing" textLength="9" x="1473.5" y="303.0278">6</text><text fill="#000000" font-family="sans-serif" font-size="13" lengthAdjust="spacing" textLength="139" x="1486.5" y="303.0278">getRegistrationDate()</text><polygon fill="#A80036" points="1713.5,333.2266,1723.5,337.2266,1713.5,341.2266,1717.5,337.2266" style="stroke:#A80036;stroke-width:1.0;"/><line style="stroke:#A80036;stroke-width:1.0;" x1="1466.5" x2="1719.5" y1="337.2266" y2="337.2266"/><text fill="#000000" font-family="sans-serif" font-size="13" font-weight="bold" lengthAdjust="spacing" textLength="9" x="1473.5" y="332.1606">7</text><text fill="#000000" font-family="sans-serif" font-size="13" lengthAdjust="spacing" textLength="172" x="1486.5" y="332.1606">getSampleCollectionDate()</text><polygon fill="#A80036" points="1713.5,362.3594,1723.5,366.3594,1713.5,370.3594,1717.5,366.3594" style="stroke:#A80036;stroke-width:1.0;"/><line style="stroke:#A80036;stroke-width:1.0;" x1="1466.5" x2="1719.5" y1="366.3594" y2="366.3594"/><text fill="#000000" font-family="sans-serif" font-size="13" font-weight="bold" lengthAdjust="spacing" textLength="9" x="1473.5" y="361.2935">8</text><text fill="#000000" font-family="sans-serif" font-size="13" lengthAdjust="spacing" textLength="174" x="1486.5" y="361.2935">getChemicalAnalysisDate()</text><polygon fill="#A80036" points="1718.5,391.4922,1728.5,395.4922,1718.5,399.4922,1722.5,395.4922" style="stroke:#A80036;stroke-width:1.0;"/><line style="stroke:#A80036;stroke-width:1.0;" x1="1466.5" x2="1724.5" y1="395.4922" y2="395.4922"/><text fill="#000000" font-family="sans-serif" font-size="13" font-weight="bold" lengthAdjust="spacing" textLength="9" x="1473.5" y="390.4263">9</text><text fill="#000000" font-family="sans-serif" font-size="13" lengthAdjust="spacing" textLength="124" x="1486.5" y="390.4263">getDiagnosisDate()</text><polygon fill="#A80036" points="108.5,435.7578,98.5,439.7578,108.5,443.7578,104.5,439.7578" style="stroke:#A80036;stroke-width:1.0;"/><line style="stroke:#A80036;stroke-width:1.0;stroke-dasharray:2.0,2.0;" x1="102.5" x2="671.5" y1="439.7578" y2="439.7578"/><text fill="#000000" font-family="sans-serif" font-size="13" font-weight="bold" lengthAdjust="spacing" textLength="19" x="114.5" y="427.1255">10</text><text fill="#000000" font-family="sans-serif" font-size="13" lengthAdjust="spacing" textLength="242" x="137.5" y="419.5591">shows the tests that can be validated</text><text fill="#000000" font-family="sans-serif" font-size="13" lengthAdjust="spacing" textLength="194" x="141.5" y="434.6919">(multiple tests can be chosen)</text><polygon fill="#A80036" points="655.5,464.8906,665.5,468.8906,655.5,472.8906,659.5,468.8906" style="stroke:#A80036;stroke-width:1.0;"/><line style="stroke:#A80036;stroke-width:1.0;" x1="97.5" x2="661.5" y1="468.8906" y2="468.8906"/><text fill="#000000" font-family="sans-serif" font-size="13" font-weight="bold" lengthAdjust="spacing" textLength="18" x="104.5" y="463.8247">11</text><text fill="#000000" font-family="sans-serif" font-size="13" lengthAdjust="spacing" textLength="205" x="126.5" y="463.8247">selects the work to be validated</text><polygon fill="#A80036" points="1086.5,494.0234,1096.5,498.0234,1086.5,502.0234,1090.5,498.0234" style="stroke:#A80036;stroke-width:1.0;"/><line style="stroke:#A80036;stroke-width:1.0;" x1="677.5" x2="1092.5" y1="498.0234" y2="498.0234"/><text fill="#000000" font-family="sans-serif" font-size="13" font-weight="bold" lengthAdjust="spacing" textLength="18" x="684.5" y="492.9575">12</text><text fill="#000000" font-family="sans-serif" font-size="13" lengthAdjust="spacing" textLength="373" x="706.5" y="492.9575">lTestsChosen=getTestsToBeValidated(selectedTestString)</text><polygon fill="#A80036" points="1091.5,523.1563,1101.5,527.1563,1091.5,531.1563,1095.5,527.1563" style="stroke:#A80036;stroke-width:1.0;"/><line style="stroke:#A80036;stroke-width:1.0;" x1="677.5" x2="1097.5" y1="527.1563" y2="527.1563"/><text fill="#000000" font-family="sans-serif" font-size="13" font-weight="bold" lengthAdjust="spacing" textLength="17" x="684.5" y="522.0903">13</text><text fill="#000000" font-family="sans-serif" font-size="13" lengthAdjust="spacing" textLength="234" x="705.5" y="522.0903">askConfirmation(selectedTestString)</text><polygon fill="#A80036" points="108.5,552.2891,98.5,556.2891,108.5,560.2891,104.5,556.2891" style="stroke:#A80036;stroke-width:1.0;"/><line style="stroke:#A80036;stroke-width:1.0;stroke-dasharray:2.0,2.0;" x1="102.5" x2="671.5" y1="556.2891" y2="556.2891"/><text fill="#000000" font-family="sans-serif" font-size="13" font-weight="bold" lengthAdjust="spacing" textLength="18" x="114.5" y="551.2231">14</text><text fill="#000000" font-family="sans-serif" font-size="13" lengthAdjust="spacing" textLength="524" x="136.5" y="551.2231">shows the tests that the Laboratory Coordinator chose and asks for confirmation.</text><polygon fill="#A80036" points="655.5,581.4219,665.5,585.4219,655.5,589.4219,659.5,585.4219" style="stroke:#A80036;stroke-width:1.0;"/><line style="stroke:#A80036;stroke-width:1.0;" x1="97.5" x2="661.5" y1="585.4219" y2="585.4219"/><text fill="#000000" font-family="sans-serif" font-size="13" font-weight="bold" lengthAdjust="spacing" textLength="18" x="104.5" y="580.356">15</text><text fill="#000000" font-family="sans-serif" font-size="13" lengthAdjust="spacing" textLength="150" x="126.5" y="580.356">confirms the procedure</text><polygon fill="#A80036" points="1086.5,610.5547,1096.5,614.5547,1086.5,618.5547,1090.5,614.5547" style="stroke:#A80036;stroke-width:1.0;"/><line style="stroke:#A80036;stroke-width:1.0;" x1="677.5" x2="1092.5" y1="614.5547" y2="614.5547"/><text fill="#000000" font-family="sans-serif" font-size="13" font-weight="bold" lengthAdjust="spacing" textLength="18" x="684.5" y="609.4888">16</text><text fill="#000000" font-family="sans-serif" font-size="13" lengthAdjust="spacing" textLength="380" x="706.5" y="609.4888">lTestsChosen=getTestsToBeValidated(selectedTestsString)</text><polygon fill="#A80036" points="1086.5,639.6875,1096.5,643.6875,1086.5,647.6875,1090.5,643.6875" style="stroke:#A80036;stroke-width:1.0;"/><line style="stroke:#A80036;stroke-width:1.0;" x1="677.5" x2="1092.5" y1="643.6875" y2="643.6875"/><text fill="#000000" font-family="sans-serif" font-size="13" font-weight="bold" lengthAdjust="spacing" textLength="18" x="684.5" y="638.6216">17</text><text fill="#000000" font-family="sans-serif" font-size="13" lengthAdjust="spacing" textLength="215" x="706.5" y="638.6216">validateTests(selectedTestString)</text><polygon fill="#A80036" points="1444.5,668.8203,1454.5,672.8203,1444.5,676.8203,1448.5,672.8203" style="stroke:#A80036;stroke-width:1.0;"/><line style="stroke:#A80036;stroke-width:1.0;" x1="1103.5" x2="1450.5" y1="672.8203" y2="672.8203"/><text fill="#000000" font-family="sans-serif" font-size="13" font-weight="bold" lengthAdjust="spacing" textLength="18" x="1110.5" y="667.7544">18</text><text fill="#000000" font-family="sans-serif" font-size="13" lengthAdjust="spacing" textLength="307" x="1132.5" y="667.7544">validateTests(lUnvalidatedTests,validationDate)</text><polygon fill="#A80036" points="1718.5,697.9531,1728.5,701.9531,1718.5,705.9531,1722.5,701.9531" style="stroke:#A80036;stroke-width:1.0;"/><line style="stroke:#A80036;stroke-width:1.0;" x1="1466.5" x2="1724.5" y1="701.9531" y2="701.9531"/><text fill="#000000" font-family="sans-serif" font-size="13" font-weight="bold" lengthAdjust="spacing" textLength="18" x="1473.5" y="696.8872">19</text><text fill="#000000" font-family="sans-serif" font-size="13" lengthAdjust="spacing" textLength="218" x="1495.5" y="696.8872">setValidationDate(ValidationDate)</text><polygon fill="#A80036" points="1713.5,727.0859,1723.5,731.0859,1713.5,735.0859,1717.5,731.0859" style="stroke:#A80036;stroke-width:1.0;"/><line style="stroke:#A80036;stroke-width:1.0;" x1="1466.5" x2="1719.5" y1="731.0859" y2="731.0859"/><text fill="#000000" font-family="sans-serif" font-size="13" font-weight="bold" lengthAdjust="spacing" textLength="19" x="1473.5" y="726.02">20</text><text fill="#000000" font-family="sans-serif" font-size="13" lengthAdjust="spacing" textLength="211" x="1496.5" y="726.02">sendTestCompletedNotification()</text><line style="stroke:#A80036;stroke-width:1.0;" x1="1740.5" x2="1782.5" y1="760.2188" y2="760.2188"/><line style="stroke:#A80036;stroke-width:1.0;" x1="1782.5" x2="1782.5" y1="760.2188" y2="773.2188"/><line style="stroke:#A80036;stroke-width:1.0;" x1="1741.5" x2="1782.5" y1="773.2188" y2="773.2188"/><polygon fill="#A80036" points="1751.5,769.2188,1741.5,773.2188,1751.5,777.2188,1747.5,773.2188" style="stroke:#A80036;stroke-width:1.0;"/><text fill="#000000" font-family="sans-serif" font-size="13" font-weight="bold" lengthAdjust="spacing" textLength="18" x="1747.5" y="755.1528">21</text><text fill="#000000" font-family="sans-serif" font-size="13" lengthAdjust="spacing" textLength="239" x="1769.5" y="755.1528">sendTestCompleteNotification(Client)</text><polygon fill="#A80036" points="103.5,828.3516,93.5,832.3516,103.5,836.3516,99.5,832.3516" style="stroke:#A80036;stroke-width:1.0;"/><line style="stroke:#A80036;stroke-width:1.0;stroke-dasharray:2.0,2.0;" x1="97.5" x2="671.5" y1="832.3516" y2="832.3516"/><text fill="#000000" font-family="sans-serif" font-size="13" font-weight="bold" lengthAdjust="spacing" textLength="18" x="109.5" y="827.2856">22</text><text fill="#000000" font-family="sans-serif" font-size="13" lengthAdjust="spacing" textLength="283" x="131.5" y="827.2856">validates the tests and sends email to client</text><!--MD5=[794cfc6d7979e5f040e4f1079aa974ac]
@startuml
autonumber
actor "Laboratory Coordinator" as LC
participant ":ValidateWorkUI" as UI
participant ":ValidateWorkController" as VWC
participant "c\n:Company" as COMP
participant "ts\n:TestStore" as TS
participant "t\n:Test" as T
participant "ens\n:EmailNotificationSender" as ENS


activate LC
LC -> UI : starts validating work
activate UI
UI -> VWC : showUnvalidatedTests()
activate VWC
VWC -> COMP : TestStore=getTestStore()

activate COMP
deactivate COMP
VWC -> TS :getUnvalidatedTests()
activate TS
activate TS
TS -> TS: isTestReadyToBeValidated(Test)
deactivate TS
activate T
TS -> T : getRegistrationDate()
TS -> T : getSampleCollectionDate()
TS -> T : getChemicalAnalysisDate()
TS -> T : getDiagnosisDate()
deactivate T
deactivate VWC
UI - -> LC : shows the tests that can be validated\n (multiple tests can be chosen)
deactivate TS
deactivate UI
LC -> UI : selects the work to be validated
activate UI
UI -> VWC : lTestsChosen=getTestsToBeValidated(selectedTestString)
activate VWC
UI -> VWC : askConfirmation(selectedTestString)
deactivate VWC

UI - -> LC : shows the tests that the Laboratory Coordinator chose and asks for confirmation.
deactivate UI
LC -> UI : confirms the procedure
activate UI
UI -> VWC : lTestsChosen=getTestsToBeValidated(selectedTestsString)
activate VWC
UI -> VWC : validateTests(selectedTestString)
VWC -> TS : validateTests(lUnvalidatedTests,validationDate)
deactivate VWC
activate TS
TS -> T: setValidationDate(ValidationDate)
TS -> T: sendTestCompletedNotification()
activate T
T -> T :sendTestCompleteNotification(Client)
activate T
deactivate T
deactivate T
deactivate TS
UI - -> LC : validates the tests and sends email to client
deactivate UI
deactivate LC
@enduml

PlantUML version 1.2021.7(Sun May 23 12:40:07 UTC 2021)
(GPL source distribution)
Java Runtime: Java(TM) SE Runtime Environment
JVM: Java HotSpot(TM) 64-Bit Server VM
Default Encoding: UTF-8
Language: en
Country: US
--></g></svg>