<?xml version="1.0" encoding="UTF-8" standalone="no"?><svg xmlns="http://www.w3.org/2000/svg" xmlns:xlink="http://www.w3.org/1999/xlink" contentScriptType="application/ecmascript" contentStyleType="text/css" height="176px" preserveAspectRatio="none" style="width:545px;height:176px;" version="1.1" viewBox="0 0 545 176" width="545px" zoomAndPan="magnify"><defs><filter height="300%" id="f36p7af995dle" width="300%" x="-1" y="-1"><feGaussianBlur result="blurOut" stdDeviation="2.0"/><feColorMatrix in="blurOut" result="blurOut2" type="matrix" values="0 0 0 0 0 0 0 0 0 0 0 0 0 0 0 0 0 0 .4 0"/><feOffset dx="4.0" dy="4.0" in="blurOut2" result="blurOut3"/><feBlend in="SourceGraphic" in2="blurOut3" mode="normal"/></filter></defs><g><!--MD5=[3fd616f346a44cd59a91eb10b19e157c]
class User--><rect codeLine="8" fill="#FEFECE" filter="url(#f36p7af995dle)" height="78.4141" id="User" style="stroke:#A80036;stroke-width:1.5;" width="69" x="462" y="45.5"/><ellipse cx="480.6" cy="61.5" fill="#ADD1B2" rx="11" ry="11" style="stroke:#A80036;stroke-width:1.0;"/><path d="M482.9438,57.1719 C482.0063,56.7344 481.4125,56.5938 480.5375,56.5938 C477.9125,56.5938 475.9125,58.6719 475.9125,61.3906 L475.9125,62.5156 C475.9125,65.0938 478.0219,66.9844 480.9125,66.9844 C482.1313,66.9844 483.2875,66.6875 484.0375,66.1406 C484.6156,65.7344 484.9438,65.2813 484.9438,64.8906 C484.9438,64.4375 484.5531,64.0469 484.0844,64.0469 C483.8656,64.0469 483.6625,64.125 483.475,64.3125 C483.0219,64.7969 483.0219,64.7969 482.8344,64.8906 C482.4125,65.1563 481.725,65.2813 480.9594,65.2813 C478.9125,65.2813 477.6156,64.1875 477.6156,62.4844 L477.6156,61.3906 C477.6156,59.6094 478.8656,58.2969 480.6,58.2969 C481.1781,58.2969 481.7875,58.4531 482.2563,58.7031 C482.7406,58.9844 482.9125,59.2031 483.0063,59.6094 C483.0688,60.0156 483.1,60.1406 483.2406,60.2656 C483.3813,60.4063 483.6156,60.5156 483.8344,60.5156 C484.1,60.5156 484.3656,60.375 484.5375,60.1563 C484.6469,60 484.6781,59.8125 484.6781,59.3906 L484.6781,57.9688 C484.6781,57.5313 484.6625,57.4063 484.5688,57.25 C484.4125,56.9844 484.1313,56.8438 483.8344,56.8438 C483.5375,56.8438 483.3344,56.9375 483.1156,57.25 L482.9438,57.1719 Z " fill="#000000"/><text fill="#000000" font-family="sans-serif" font-size="12" lengthAdjust="spacing" textLength="29" x="495.4" y="65.6543">User</text><line style="stroke:#A80036;stroke-width:1.5;" x1="463" x2="530" y1="77.5" y2="77.5"/><text fill="#000000" font-family="sans-serif" font-size="11" lengthAdjust="spacing" textLength="37" x="468" y="91.7104">-name</text><text fill="#000000" font-family="sans-serif" font-size="11" lengthAdjust="spacing" textLength="36" x="468" y="104.5151">-email</text><text fill="#000000" font-family="sans-serif" font-size="11" lengthAdjust="spacing" textLength="57" x="468" y="117.3198">-password</text><!--MD5=[ed6624c6556d5e7b1bd23032162d20b7]
class Client--><rect codeLine="15" fill="#FEFECE" filter="url(#f36p7af995dle)" height="155.2422" id="Client" style="stroke:#A80036;stroke-width:1.5;" width="97" x="7" y="7"/><ellipse cx="36.4" cy="23" fill="#ADD1B2" rx="11" ry="11" style="stroke:#A80036;stroke-width:1.0;"/><path d="M38.7438,18.6719 C37.8063,18.2344 37.2125,18.0938 36.3375,18.0938 C33.7125,18.0938 31.7125,20.1719 31.7125,22.8906 L31.7125,24.0156 C31.7125,26.5938 33.8219,28.4844 36.7125,28.4844 C37.9313,28.4844 39.0875,28.1875 39.8375,27.6406 C40.4156,27.2344 40.7438,26.7813 40.7438,26.3906 C40.7438,25.9375 40.3531,25.5469 39.8844,25.5469 C39.6656,25.5469 39.4625,25.625 39.275,25.8125 C38.8219,26.2969 38.8219,26.2969 38.6344,26.3906 C38.2125,26.6563 37.525,26.7813 36.7594,26.7813 C34.7125,26.7813 33.4156,25.6875 33.4156,23.9844 L33.4156,22.8906 C33.4156,21.1094 34.6656,19.7969 36.4,19.7969 C36.9781,19.7969 37.5875,19.9531 38.0563,20.2031 C38.5406,20.4844 38.7125,20.7031 38.8063,21.1094 C38.8688,21.5156 38.9,21.6406 39.0406,21.7656 C39.1813,21.9063 39.4156,22.0156 39.6344,22.0156 C39.9,22.0156 40.1656,21.875 40.3375,21.6563 C40.4469,21.5 40.4781,21.3125 40.4781,20.8906 L40.4781,19.4688 C40.4781,19.0313 40.4625,18.9063 40.3688,18.75 C40.2125,18.4844 39.9313,18.3438 39.6344,18.3438 C39.3375,18.3438 39.1344,18.4375 38.9156,18.75 L38.7438,18.6719 Z " fill="#000000"/><text fill="#000000" font-family="sans-serif" font-size="12" lengthAdjust="spacing" textLength="33" x="53.6" y="27.1543">Client</text><line style="stroke:#A80036;stroke-width:1.5;" x1="8" x2="103" y1="39" y2="39"/><text fill="#000000" font-family="sans-serif" font-size="11" lengthAdjust="spacing" textLength="23" x="13" y="53.2104">-ccn</text><text fill="#000000" font-family="sans-serif" font-size="11" lengthAdjust="spacing" textLength="72" x="13" y="66.0151">-nHSNumber</text><text fill="#000000" font-family="sans-serif" font-size="11" lengthAdjust="spacing" textLength="57" x="13" y="78.8198">-birthDate</text><text fill="#000000" font-family="sans-serif" font-size="11" lengthAdjust="spacing" textLength="18" x="13" y="91.6245">-tin</text><text fill="#000000" font-family="sans-serif" font-size="11" lengthAdjust="spacing" textLength="85" x="13" y="104.4292">-phoneNumber</text><text fill="#000000" font-family="sans-serif" font-size="11" lengthAdjust="spacing" textLength="25" x="13" y="117.2339">-sex</text><text fill="#000000" font-family="sans-serif" font-size="11" lengthAdjust="spacing" textLength="36" x="13" y="130.0386">-email</text><text fill="#000000" font-family="sans-serif" font-size="11" lengthAdjust="spacing" textLength="37" x="13" y="142.8433">-name</text><text fill="#000000" font-family="sans-serif" font-size="11" lengthAdjust="spacing" textLength="57" x="13" y="155.6479">-password</text><!--MD5=[03960189e81aa2c066c762ffabbee709]
class Receptionist--><rect fill="#FEFECE" filter="url(#f36p7af995dle)" height="40" id="Receptionist" style="stroke:#A80036;stroke-width:1.5;" width="106" x="235" y="121.5"/><ellipse cx="250" cy="137.5" fill="#ADD1B2" rx="11" ry="11" style="stroke:#A80036;stroke-width:1.0;"/><path d="M252.3438,133.1719 C251.4063,132.7344 250.8125,132.5938 249.9375,132.5938 C247.3125,132.5938 245.3125,134.6719 245.3125,137.3906 L245.3125,138.5156 C245.3125,141.0938 247.4219,142.9844 250.3125,142.9844 C251.5313,142.9844 252.6875,142.6875 253.4375,142.1406 C254.0156,141.7344 254.3438,141.2813 254.3438,140.8906 C254.3438,140.4375 253.9531,140.0469 253.4844,140.0469 C253.2656,140.0469 253.0625,140.125 252.875,140.3125 C252.4219,140.7969 252.4219,140.7969 252.2344,140.8906 C251.8125,141.1563 251.125,141.2813 250.3594,141.2813 C248.3125,141.2813 247.0156,140.1875 247.0156,138.4844 L247.0156,137.3906 C247.0156,135.6094 248.2656,134.2969 250,134.2969 C250.5781,134.2969 251.1875,134.4531 251.6563,134.7031 C252.1406,134.9844 252.3125,135.2031 252.4063,135.6094 C252.4688,136.0156 252.5,136.1406 252.6406,136.2656 C252.7813,136.4063 253.0156,136.5156 253.2344,136.5156 C253.5,136.5156 253.7656,136.375 253.9375,136.1563 C254.0469,136 254.0781,135.8125 254.0781,135.3906 L254.0781,133.9688 C254.0781,133.5313 254.0625,133.4063 253.9688,133.25 C253.8125,132.9844 253.5313,132.8438 253.2344,132.8438 C252.9375,132.8438 252.7344,132.9375 252.5156,133.25 L252.3438,133.1719 Z " fill="#000000"/><text fill="#000000" font-family="sans-serif" font-size="12" lengthAdjust="spacing" textLength="74" x="264" y="141.6543">Receptionist</text><line style="stroke:#A80036;stroke-width:1.5;" x1="236" x2="340" y1="153.5" y2="153.5"/><!--MD5=[7048eb257bae2750d747ca61a113ed73]
link Client to Receptionist--><path codeLine="27" d="M104.2597,96.3104 C142.369,105.7343 195.679,118.9173 234.887,128.6131 " fill="none" id="Client-Receptionist" style="stroke:#A80036;stroke-width:1.0;"/><polygon fill="#000000" points="134.1462,95.8661,142.2213,100.8904,143.6323,95.1845,134.1462,95.8661" style="stroke:#000000;stroke-width:1.0;"/><text fill="#000000" font-family="sans-serif" font-size="13" lengthAdjust="spacing" textLength="56" x="148" y="101.5669">registers</text><text fill="#000000" font-family="sans-serif" font-size="13" lengthAdjust="spacing" textLength="7" x="111.9353" y="111.2055">*</text><text fill="#000000" font-family="sans-serif" font-size="13" lengthAdjust="spacing" textLength="23" x="204.0123" y="140.0316">1..*</text><!--MD5=[9a8dc34b38f85b9f3fcdb440f4bffc6a]
link Client to User--><path codeLine="28" d="M104.0303,81.7222 C113.932,81.2347 124.304,80.791 134,80.5 C266.388,76.5268 299.699,72.2635 432,78.5 C441.734,78.9588 452.279,79.8112 461.928,80.7323 " fill="none" id="Client-User" style="stroke:#A80036;stroke-width:1.0;"/><polygon fill="#000000" points="267.5,67.0526,258.4468,64.1387,258.4631,70.0165,267.5,67.0526" style="stroke:#000000;stroke-width:1.0;"/><text fill="#000000" font-family="sans-serif" font-size="13" lengthAdjust="spacing" textLength="46" x="271.5" y="71.5669">acts as</text><text fill="#000000" font-family="sans-serif" font-size="13" lengthAdjust="spacing" textLength="23" x="112.0969" y="77.4007">1..*</text><text fill="#000000" font-family="sans-serif" font-size="13" lengthAdjust="spacing" textLength="8" x="445.9725" y="75.4462">1</text><!--MD5=[48f96e9c089f040dd80ac101b182393e]
link Receptionist to User--><path codeLine="29" d="M341.109,127.1165 C378.984,116.6618 429.143,102.8166 461.855,93.7869 " fill="none" id="Receptionist-User" style="stroke:#A80036;stroke-width:1.0;"/><polygon fill="#000000" points="380.8198,93.736,371.3187,93.3097,372.8827,98.9757,380.8198,93.736" style="stroke:#000000;stroke-width:1.0;"/><text fill="#000000" font-family="sans-serif" font-size="13" lengthAdjust="spacing" textLength="46" x="385" y="99.5669">acts as</text><text fill="#000000" font-family="sans-serif" font-size="13" lengthAdjust="spacing" textLength="24" x="349.0442" y="138.3526">1..2</text><text fill="#000000" font-family="sans-serif" font-size="13" lengthAdjust="spacing" textLength="8" x="445.8845" y="109.2871">1</text><!--MD5=[bb9c28c83a217bd90f22d74f757c52e6]
@startuml
hide methods
left to right direction
skinparam classAttributeIconSize 0




class User {
  -name
  -email
  -password
}


class Client {
  -ccn
  -nHSNumber
  -birthDate
  -tin
  -phoneNumber
  -sex
  -email
  -name
  -password
}

Client "*" - - "1..*" Receptionist: registers <
Client "1..*" - - "1" User: acts as >
Receptionist "1..2" - - "1" User: acts as >
@enduml

PlantUML version 1.2021.6beta4(Unknown compile time)
(GPL source distribution)
Java Runtime: Java(TM) SE Runtime Environment
JVM: Java HotSpot(TM) 64-Bit Server VM
Default Encoding: UTF-8
Language: en
Country: US
--></g></svg>