<?xml version="1.0" encoding="UTF-8" standalone="no"?><svg xmlns="http://www.w3.org/2000/svg" xmlns:xlink="http://www.w3.org/1999/xlink" contentScriptType="application/ecmascript" contentStyleType="text/css" height="969px" preserveAspectRatio="none" style="width:1720px;height:969px;background:#FFFFFF;" version="1.1" viewBox="0 0 1720 969" width="1720px" zoomAndPan="magnify"><defs><filter height="300%" id="f1ac4iu4wgpr4" width="300%" x="-1" y="-1"><feGaussianBlur result="blurOut" stdDeviation="2.0"/><feColorMatrix in="blurOut" result="blurOut2" type="matrix" values="0 0 0 0 0 0 0 0 0 0 0 0 0 0 0 0 0 0 .4 0"/><feOffset dx="4.0" dy="4.0" in="blurOut2" result="blurOut3"/><feBlend in="SourceGraphic" in2="blurOut3" mode="normal"/></filter></defs><g><rect fill="#FFFFFF" filter="url(#f1ac4iu4wgpr4)" height="778.1563" style="stroke:#A80036;stroke-width:1.0;" width="10" x="49.5" y="98.2969"/><rect fill="#FFFFFF" filter="url(#f1ac4iu4wgpr4)" height="29.1328" style="stroke:#A80036;stroke-width:1.0;" width="10" x="382.5" y="119.4297"/><rect fill="#FFFFFF" filter="url(#f1ac4iu4wgpr4)" height="370.6953" style="stroke:#A80036;stroke-width:1.0;" width="10" x="382.5" y="177.6953"/><rect fill="#FFFFFF" filter="url(#f1ac4iu4wgpr4)" height="289.9297" style="stroke:#A80036;stroke-width:1.0;" width="10" x="382.5" y="577.5234"/><rect fill="#FFFFFF" filter="url(#f1ac4iu4wgpr4)" height="341.5625" style="stroke:#A80036;stroke-width:1.0;" width="10" x="956.5" y="177.6953"/><rect fill="#FFFFFF" filter="url(#f1ac4iu4wgpr4)" height="224.6641" style="stroke:#A80036;stroke-width:1.0;" width="10" x="956.5" y="606.6563"/><rect fill="#FFFFFF" filter="url(#f1ac4iu4wgpr4)" height="195.5313" style="stroke:#A80036;stroke-width:1.0;" width="10" x="1112" y="635.7891"/><rect fill="#FFFFFF" filter="url(#f1ac4iu4wgpr4)" height="28" style="stroke:#A80036;stroke-width:1.0;" width="10" x="1117" y="672.9219"/><rect fill="#FFFFFF" filter="url(#f1ac4iu4wgpr4)" height="341.5625" style="stroke:#A80036;stroke-width:1.0;" width="10" x="1530.5" y="177.6953"/><rect fill="#FFFFFF" filter="url(#f1ac4iu4wgpr4)" height="195.5313" style="stroke:#A80036;stroke-width:1.0;" width="10" x="1530.5" y="635.7891"/><rect fill="#FFFFFF" filter="url(#f1ac4iu4wgpr4)" height="28" style="stroke:#A80036;stroke-width:1.0;" width="10" x="1535.5" y="803.3203"/><rect fill="#FFFFFF" filter="url(#f1ac4iu4wgpr4)" height="222.8984" style="stroke:#000000;stroke-width:2.0;" width="1399" x="307.5" y="268.2266"/><rect fill="#FFFFFF" height="102.2031" style="stroke:none;stroke-width:1.0;" width="1399" x="307.5" y="388.9219"/><line style="stroke:#A80036;stroke-width:1.0;stroke-dasharray:5.0,5.0;" x1="54" x2="54" y1="88.2969" y2="885.4531"/><line style="stroke:#A80036;stroke-width:1.0;stroke-dasharray:5.0,5.0;" x1="387.5" x2="387.5" y1="88.2969" y2="885.4531"/><line style="stroke:#A80036;stroke-width:1.0;stroke-dasharray:5.0,5.0;" x1="961.5" x2="961.5" y1="88.2969" y2="885.4531"/><line style="stroke:#A80036;stroke-width:1.0;stroke-dasharray:5.0,5.0;" x1="1116.5" x2="1116.5" y1="88.2969" y2="885.4531"/><line style="stroke:#A80036;stroke-width:1.0;stroke-dasharray:5.0,5.0;" x1="1310" x2="1310" y1="88.2969" y2="885.4531"/><line style="stroke:#A80036;stroke-width:1.0;stroke-dasharray:5.0,5.0;" x1="1535.5" x2="1535.5" y1="88.2969" y2="885.4531"/><line style="stroke:#A80036;stroke-width:1.0;stroke-dasharray:5.0,5.0;" x1="1665.5" x2="1665.5" y1="376.2734" y2="885.4531"/><text fill="#000000" font-family="sans-serif" font-size="14" lengthAdjust="spacing" textLength="93" x="5" y="84.9951">Receptionist</text><ellipse cx="54.5" cy="15" fill="#FEFECE" filter="url(#f1ac4iu4wgpr4)" rx="8" ry="8" style="stroke:#A80036;stroke-width:2.0;"/><path d="M54.5,23 L54.5,50 M41.5,31 L67.5,31 M54.5,50 L41.5,65 M54.5,50 L67.5,65 " fill="none" filter="url(#f1ac4iu4wgpr4)" style="stroke:#A80036;stroke-width:2.0;"/><text fill="#000000" font-family="sans-serif" font-size="14" lengthAdjust="spacing" textLength="93" x="5" y="897.4482">Receptionist</text><ellipse cx="54.5" cy="910.75" fill="#FEFECE" filter="url(#f1ac4iu4wgpr4)" rx="8" ry="8" style="stroke:#A80036;stroke-width:2.0;"/><path d="M54.5,918.75 L54.5,945.75 M41.5,926.75 L67.5,926.75 M54.5,945.75 L41.5,960.75 M54.5,945.75 L67.5,960.75 " fill="none" filter="url(#f1ac4iu4wgpr4)" style="stroke:#A80036;stroke-width:2.0;"/><rect fill="#FEFECE" filter="url(#f1ac4iu4wgpr4)" height="30.2969" style="stroke:#A80036;stroke-width:1.5;" width="136" x="317.5" y="53"/><text fill="#000000" font-family="sans-serif" font-size="14" lengthAdjust="spacing" textLength="122" x="324.5" y="72.9951">:RegisterClientUI</text><rect fill="#FEFECE" filter="url(#f1ac4iu4wgpr4)" height="30.2969" style="stroke:#A80036;stroke-width:1.5;" width="136" x="317.5" y="884.4531"/><text fill="#000000" font-family="sans-serif" font-size="14" lengthAdjust="spacing" textLength="122" x="324.5" y="904.4482">:RegisterClientUI</text><rect fill="#FEFECE" filter="url(#f1ac4iu4wgpr4)" height="30.2969" style="stroke:#A80036;stroke-width:1.5;" width="196" x="861.5" y="53"/><text fill="#000000" font-family="sans-serif" font-size="14" lengthAdjust="spacing" textLength="182" x="868.5" y="72.9951">:RegisterClientController</text><rect fill="#FEFECE" filter="url(#f1ac4iu4wgpr4)" height="30.2969" style="stroke:#A80036;stroke-width:1.5;" width="196" x="861.5" y="884.4531"/><text fill="#000000" font-family="sans-serif" font-size="14" lengthAdjust="spacing" textLength="182" x="868.5" y="904.4482">:RegisterClientController</text><rect fill="#FEFECE" filter="url(#f1ac4iu4wgpr4)" height="30.2969" style="stroke:#A80036;stroke-width:1.5;" width="87" x="1071.5" y="53"/><text fill="#000000" font-family="sans-serif" font-size="14" lengthAdjust="spacing" textLength="73" x="1078.5" y="72.9951">:Company</text><rect fill="#FEFECE" filter="url(#f1ac4iu4wgpr4)" height="30.2969" style="stroke:#A80036;stroke-width:1.5;" width="87" x="1071.5" y="884.4531"/><text fill="#000000" font-family="sans-serif" font-size="14" lengthAdjust="spacing" textLength="73" x="1078.5" y="904.4482">:Company</text><rect fill="#FEFECE" filter="url(#f1ac4iu4wgpr4)" height="30.2969" style="stroke:#A80036;stroke-width:1.5;" width="50" x="1283" y="53"/><text fill="#000000" font-family="sans-serif" font-size="14" lengthAdjust="spacing" textLength="36" x="1290" y="72.9951">:User</text><rect fill="#FEFECE" filter="url(#f1ac4iu4wgpr4)" height="30.2969" style="stroke:#A80036;stroke-width:1.5;" width="50" x="1283" y="884.4531"/><text fill="#000000" font-family="sans-serif" font-size="14" lengthAdjust="spacing" textLength="36" x="1290" y="904.4482">:User</text><rect fill="#FEFECE" filter="url(#f1ac4iu4wgpr4)" height="30.2969" style="stroke:#A80036;stroke-width:1.5;" width="88" x="1489.5" y="53"/><text fill="#000000" font-family="sans-serif" font-size="14" lengthAdjust="spacing" textLength="74" x="1496.5" y="72.9951">:ClientList</text><rect fill="#FEFECE" filter="url(#f1ac4iu4wgpr4)" height="30.2969" style="stroke:#A80036;stroke-width:1.5;" width="88" x="1489.5" y="884.4531"/><text fill="#000000" font-family="sans-serif" font-size="14" lengthAdjust="spacing" textLength="74" x="1496.5" y="904.4482">:ClientList</text><rect fill="#FEFECE" filter="url(#f1ac4iu4wgpr4)" height="30.2969" style="stroke:#A80036;stroke-width:1.5;" width="57" x="1635.5" y="884.4531"/><text fill="#000000" font-family="sans-serif" font-size="14" lengthAdjust="spacing" textLength="43" x="1642.5" y="904.4482">Client</text><rect fill="#FFFFFF" filter="url(#f1ac4iu4wgpr4)" height="778.1563" style="stroke:#A80036;stroke-width:1.0;" width="10" x="49.5" y="98.2969"/><rect fill="#FFFFFF" filter="url(#f1ac4iu4wgpr4)" height="29.1328" style="stroke:#A80036;stroke-width:1.0;" width="10" x="382.5" y="119.4297"/><rect fill="#FFFFFF" filter="url(#f1ac4iu4wgpr4)" height="370.6953" style="stroke:#A80036;stroke-width:1.0;" width="10" x="382.5" y="177.6953"/><rect fill="#FFFFFF" filter="url(#f1ac4iu4wgpr4)" height="289.9297" style="stroke:#A80036;stroke-width:1.0;" width="10" x="382.5" y="577.5234"/><rect fill="#FFFFFF" filter="url(#f1ac4iu4wgpr4)" height="341.5625" style="stroke:#A80036;stroke-width:1.0;" width="10" x="956.5" y="177.6953"/><rect fill="#FFFFFF" filter="url(#f1ac4iu4wgpr4)" height="224.6641" style="stroke:#A80036;stroke-width:1.0;" width="10" x="956.5" y="606.6563"/><rect fill="#FFFFFF" filter="url(#f1ac4iu4wgpr4)" height="195.5313" style="stroke:#A80036;stroke-width:1.0;" width="10" x="1112" y="635.7891"/><rect fill="#FFFFFF" filter="url(#f1ac4iu4wgpr4)" height="28" style="stroke:#A80036;stroke-width:1.0;" width="10" x="1117" y="672.9219"/><rect fill="#FFFFFF" filter="url(#f1ac4iu4wgpr4)" height="341.5625" style="stroke:#A80036;stroke-width:1.0;" width="10" x="1530.5" y="177.6953"/><rect fill="#FFFFFF" filter="url(#f1ac4iu4wgpr4)" height="195.5313" style="stroke:#A80036;stroke-width:1.0;" width="10" x="1530.5" y="635.7891"/><rect fill="#FFFFFF" filter="url(#f1ac4iu4wgpr4)" height="28" style="stroke:#A80036;stroke-width:1.0;" width="10" x="1535.5" y="803.3203"/><polygon fill="#A80036" points="370.5,115.4297,380.5,119.4297,370.5,123.4297,374.5,119.4297" style="stroke:#A80036;stroke-width:1.0;"/><line style="stroke:#A80036;stroke-width:1.0;" x1="59.5" x2="376.5" y1="119.4297" y2="119.4297"/><text fill="#000000" font-family="sans-serif" font-size="13" font-weight="bold" lengthAdjust="spacing" textLength="9" x="66.5" y="114.3638">1</text><text fill="#000000" font-family="sans-serif" font-size="13" lengthAdjust="spacing" textLength="170" x="79.5" y="114.3638">asks to register new Client</text><polygon fill="#A80036" points="70.5,144.5625,60.5,148.5625,70.5,152.5625,66.5,148.5625" style="stroke:#A80036;stroke-width:1.0;"/><line style="stroke:#A80036;stroke-width:1.0;stroke-dasharray:2.0,2.0;" x1="64.5" x2="386.5" y1="148.5625" y2="148.5625"/><text fill="#000000" font-family="sans-serif" font-size="13" font-weight="bold" lengthAdjust="spacing" textLength="9" x="76.5" y="143.4966">2</text><text fill="#000000" font-family="sans-serif" font-size="13" lengthAdjust="spacing" textLength="223" x="89.5" y="143.4966">request data(i.e., ccn, nhsNumber)</text><polygon fill="#A80036" points="370.5,173.6953,380.5,177.6953,370.5,181.6953,374.5,177.6953" style="stroke:#A80036;stroke-width:1.0;"/><line style="stroke:#A80036;stroke-width:1.0;" x1="59.5" x2="376.5" y1="177.6953" y2="177.6953"/><text fill="#000000" font-family="sans-serif" font-size="13" font-weight="bold" lengthAdjust="spacing" textLength="8" x="66.5" y="172.6294">3</text><text fill="#000000" font-family="sans-serif" font-size="13" lengthAdjust="spacing" textLength="138" x="78.5" y="172.6294">types requested data</text><rect fill="#FFFFFF" filter="url(#f1ac4iu4wgpr4)" height="70.5313" style="stroke:#000000;stroke-width:2.0;" width="179" x="314.5" y="185.6953"/><polygon fill="#EEEEEE" points="314.5,185.6953,382.5,185.6953,382.5,192.6953,372.5,202.6953,314.5,202.6953,314.5,185.6953" style="stroke:#000000;stroke-width:2.0;"/><text fill="#000000" font-family="sans-serif" font-size="13" font-weight="bold" lengthAdjust="spacing" textLength="23" x="327.5" y="199.7622">ref</text><text fill="#000000" font-family="sans-serif" font-size="13" lengthAdjust="spacing" textLength="0" x="324.5" y="218.7622"/><text fill="#000000" font-family="sans-serif" font-size="13" lengthAdjust="spacing" textLength="171" x="320.5" y="233.895">SD_Client_Local_Validation</text><text fill="#000000" font-family="sans-serif" font-size="13" lengthAdjust="spacing" textLength="0" x="324.5" y="249.0278"/><path d="M307.5,268.2266 L373.5,268.2266 L373.5,275.2266 L363.5,285.2266 L307.5,285.2266 L307.5,268.2266 " fill="#EEEEEE" style="stroke:#000000;stroke-width:1.0;"/><rect fill="none" height="222.8984" style="stroke:#000000;stroke-width:2.0;" width="1399" x="307.5" y="268.2266"/><text fill="#000000" font-family="sans-serif" font-size="13" font-weight="bold" lengthAdjust="spacing" textLength="21" x="322.5" y="281.2935">alt</text><text fill="#000000" font-family="sans-serif" font-size="11" font-weight="bold" lengthAdjust="spacing" textLength="198" x="388.5" y="280.437">[Create Client specifying sex]</text><polygon fill="#A80036" points="944.5,302.4922,954.5,306.4922,944.5,310.4922,948.5,306.4922" style="stroke:#A80036;stroke-width:1.0;"/><line style="stroke:#A80036;stroke-width:1.0;" x1="392.5" x2="950.5" y1="306.4922" y2="306.4922"/><text fill="#000000" font-family="sans-serif" font-size="13" font-weight="bold" lengthAdjust="spacing" textLength="9" x="399.5" y="301.4263">4</text><text fill="#000000" font-family="sans-serif" font-size="13" lengthAdjust="spacing" textLength="527" x="412.5" y="301.4263">c = createClient(ccn, birthDate, name, tif, nhsNumber, sex, phoneNumber, email )</text><polygon fill="#A80036" points="1518.5,331.625,1528.5,335.625,1518.5,339.625,1522.5,335.625" style="stroke:#A80036;stroke-width:1.0;"/><line style="stroke:#A80036;stroke-width:1.0;" x1="966.5" x2="1524.5" y1="335.625" y2="335.625"/><text fill="#000000" font-family="sans-serif" font-size="13" font-weight="bold" lengthAdjust="spacing" textLength="9" x="973.5" y="330.5591">5</text><text fill="#000000" font-family="sans-serif" font-size="13" lengthAdjust="spacing" textLength="527" x="986.5" y="330.5591">c = createClient(ccn, birthDate, name, tif, nhsNumber, sex, phoneNumber, email )</text><polygon fill="#A80036" points="1623.5,360.7578,1633.5,364.7578,1623.5,368.7578,1627.5,364.7578" style="stroke:#A80036;stroke-width:1.0;"/><line style="stroke:#A80036;stroke-width:1.0;stroke-dasharray:2.0,2.0;" x1="1540.5" x2="1629.5" y1="364.7578" y2="364.7578"/><text fill="#000000" font-family="sans-serif" font-size="13" font-weight="bold" lengthAdjust="spacing" textLength="9" x="1547.5" y="359.6919">6</text><text fill="#000000" font-family="sans-serif" font-size="13" lengthAdjust="spacing" textLength="58" x="1560.5" y="359.6919">create(c)</text><rect fill="#FEFECE" filter="url(#f1ac4iu4wgpr4)" height="30.2969" style="stroke:#A80036;stroke-width:1.5;" width="57" x="1635.5" y="343.625"/><text fill="#000000" font-family="sans-serif" font-size="14" lengthAdjust="spacing" textLength="43" x="1642.5" y="363.6201">Client</text><line style="stroke:#000000;stroke-width:1.0;stroke-dasharray:2.0,2.0;" x1="307.5" x2="1706.5" y1="389.9219" y2="389.9219"/><text fill="#000000" font-family="sans-serif" font-size="11" font-weight="bold" lengthAdjust="spacing" textLength="255" x="312.5" y="400.1323">[Create Client without specifying sex]</text><polygon fill="#A80036" points="944.5,420.8594,954.5,424.8594,944.5,428.8594,948.5,424.8594" style="stroke:#A80036;stroke-width:1.0;"/><line style="stroke:#A80036;stroke-width:1.0;" x1="392.5" x2="950.5" y1="424.8594" y2="424.8594"/><text fill="#000000" font-family="sans-serif" font-size="13" font-weight="bold" lengthAdjust="spacing" textLength="9" x="399.5" y="419.7935">7</text><text fill="#000000" font-family="sans-serif" font-size="13" lengthAdjust="spacing" textLength="496" x="412.5" y="419.7935">c = createClient(ccn, birthDate, name, tif, nhsNumber, phoneNumber, email )</text><polygon fill="#A80036" points="1518.5,449.9922,1528.5,453.9922,1518.5,457.9922,1522.5,453.9922" style="stroke:#A80036;stroke-width:1.0;"/><line style="stroke:#A80036;stroke-width:1.0;" x1="966.5" x2="1524.5" y1="453.9922" y2="453.9922"/><text fill="#000000" font-family="sans-serif" font-size="13" font-weight="bold" lengthAdjust="spacing" textLength="9" x="973.5" y="448.9263">8</text><text fill="#000000" font-family="sans-serif" font-size="13" lengthAdjust="spacing" textLength="496" x="986.5" y="448.9263">c = createClient(ccn, birthDate, name, tif, nhsNumber, phoneNumber, email )</text><polygon fill="#A80036" points="1654,479.125,1664,483.125,1654,487.125,1658,483.125" style="stroke:#A80036;stroke-width:1.0;"/><line style="stroke:#A80036;stroke-width:1.0;stroke-dasharray:2.0,2.0;" x1="1540.5" x2="1660" y1="483.125" y2="483.125"/><text fill="#000000" font-family="sans-serif" font-size="13" font-weight="bold" lengthAdjust="spacing" textLength="9" x="1547.5" y="478.0591">9</text><text fill="#000000" font-family="sans-serif" font-size="13" lengthAdjust="spacing" textLength="58" x="1560.5" y="478.0591">create(c)</text><polygon fill="#A80036" points="403.5,515.2578,393.5,519.2578,403.5,523.2578,399.5,519.2578" style="stroke:#A80036;stroke-width:1.0;"/><line style="stroke:#A80036;stroke-width:1.0;" x1="397.5" x2="960.5" y1="519.2578" y2="519.2578"/><text fill="#000000" font-family="sans-serif" font-size="13" font-weight="bold" lengthAdjust="spacing" textLength="19" x="409.5" y="514.1919">10</text><text fill="#000000" font-family="sans-serif" font-size="13" lengthAdjust="spacing" textLength="87" x="432.5" y="514.1919">showClient(c)</text><polygon fill="#A80036" points="70.5,544.3906,60.5,548.3906,70.5,552.3906,66.5,548.3906" style="stroke:#A80036;stroke-width:1.0;"/><line style="stroke:#A80036;stroke-width:1.0;stroke-dasharray:2.0,2.0;" x1="64.5" x2="386.5" y1="548.3906" y2="548.3906"/><text fill="#000000" font-family="sans-serif" font-size="13" font-weight="bold" lengthAdjust="spacing" textLength="18" x="76.5" y="543.3247">11</text><text fill="#000000" font-family="sans-serif" font-size="13" lengthAdjust="spacing" textLength="277" x="98.5" y="543.3247">shows the data and request a confirmation</text><polygon fill="#A80036" points="370.5,573.5234,380.5,577.5234,370.5,581.5234,374.5,577.5234" style="stroke:#A80036;stroke-width:1.0;"/><line style="stroke:#A80036;stroke-width:1.0;" x1="59.5" x2="376.5" y1="577.5234" y2="577.5234"/><text fill="#000000" font-family="sans-serif" font-size="13" font-weight="bold" lengthAdjust="spacing" textLength="18" x="66.5" y="572.4575">12</text><text fill="#000000" font-family="sans-serif" font-size="13" lengthAdjust="spacing" textLength="114" x="88.5" y="572.4575">confirms the data</text><polygon fill="#A80036" points="944.5,602.6563,954.5,606.6563,944.5,610.6563,948.5,606.6563" style="stroke:#A80036;stroke-width:1.0;"/><line style="stroke:#A80036;stroke-width:1.0;" x1="392.5" x2="950.5" y1="606.6563" y2="606.6563"/><text fill="#000000" font-family="sans-serif" font-size="13" font-weight="bold" lengthAdjust="spacing" textLength="17" x="399.5" y="601.5903">13</text><text fill="#000000" font-family="sans-serif" font-size="13" lengthAdjust="spacing" textLength="84" x="420.5" y="601.5903">saveClient(c)</text><polygon fill="#A80036" points="1100,631.7891,1110,635.7891,1100,639.7891,1104,635.7891" style="stroke:#A80036;stroke-width:1.0;"/><line style="stroke:#A80036;stroke-width:1.0;" x1="966.5" x2="1106" y1="635.7891" y2="635.7891"/><text fill="#000000" font-family="sans-serif" font-size="13" font-weight="bold" lengthAdjust="spacing" textLength="18" x="973.5" y="630.7231">14</text><text fill="#000000" font-family="sans-serif" font-size="13" lengthAdjust="spacing" textLength="84" x="995.5" y="630.7231">saveClient(c)</text><line style="stroke:#A80036;stroke-width:1.0;" x1="1127" x2="1169" y1="664.9219" y2="664.9219"/><line style="stroke:#A80036;stroke-width:1.0;" x1="1169" x2="1169" y1="664.9219" y2="677.9219"/><line style="stroke:#A80036;stroke-width:1.0;" x1="1128" x2="1169" y1="677.9219" y2="677.9219"/><polygon fill="#A80036" points="1138,673.9219,1128,677.9219,1138,681.9219,1134,677.9219" style="stroke:#A80036;stroke-width:1.0;"/><text fill="#000000" font-family="sans-serif" font-size="13" font-weight="bold" lengthAdjust="spacing" textLength="18" x="1134" y="659.856">15</text><text fill="#000000" font-family="sans-serif" font-size="13" lengthAdjust="spacing" textLength="104" x="1156" y="659.856">validateClient(c)</text><polygon fill="#A80036" points="1298,733.0547,1308,737.0547,1298,741.0547,1302,737.0547" style="stroke:#A80036;stroke-width:1.0;"/><line style="stroke:#A80036;stroke-width:1.0;" x1="1122" x2="1304" y1="737.0547" y2="737.0547"/><text fill="#000000" font-family="sans-serif" font-size="13" font-weight="bold" lengthAdjust="spacing" textLength="18" x="1129" y="731.9888">16</text><text fill="#000000" font-family="sans-serif" font-size="13" lengthAdjust="spacing" textLength="142" x="1151" y="731.9888">addClientToSystem(c)</text><polygon fill="#A80036" points="1518.5,762.1875,1528.5,766.1875,1518.5,770.1875,1522.5,766.1875" style="stroke:#A80036;stroke-width:1.0;"/><line style="stroke:#A80036;stroke-width:1.0;" x1="1122" x2="1524.5" y1="766.1875" y2="766.1875"/><text fill="#000000" font-family="sans-serif" font-size="13" font-weight="bold" lengthAdjust="spacing" textLength="18" x="1129" y="761.1216">17</text><text fill="#000000" font-family="sans-serif" font-size="13" lengthAdjust="spacing" textLength="84" x="1151" y="761.1216">saveClient(c)</text><line style="stroke:#A80036;stroke-width:1.0;" x1="1545.5" x2="1587.5" y1="795.3203" y2="795.3203"/><line style="stroke:#A80036;stroke-width:1.0;" x1="1587.5" x2="1587.5" y1="795.3203" y2="808.3203"/><line style="stroke:#A80036;stroke-width:1.0;" x1="1546.5" x2="1587.5" y1="808.3203" y2="808.3203"/><polygon fill="#A80036" points="1556.5,804.3203,1546.5,808.3203,1556.5,812.3203,1552.5,808.3203" style="stroke:#A80036;stroke-width:1.0;"/><text fill="#000000" font-family="sans-serif" font-size="13" font-weight="bold" lengthAdjust="spacing" textLength="18" x="1552.5" y="790.2544">18</text><text fill="#000000" font-family="sans-serif" font-size="13" lengthAdjust="spacing" textLength="77" x="1574.5" y="790.2544">addClient(c)</text><polygon fill="#A80036" points="70.5,863.4531,60.5,867.4531,70.5,871.4531,66.5,867.4531" style="stroke:#A80036;stroke-width:1.0;"/><line style="stroke:#A80036;stroke-width:1.0;stroke-dasharray:2.0,2.0;" x1="64.5" x2="386.5" y1="867.4531" y2="867.4531"/><text fill="#000000" font-family="sans-serif" font-size="13" font-weight="bold" lengthAdjust="spacing" textLength="18" x="76.5" y="862.3872">19</text><text fill="#000000" font-family="sans-serif" font-size="13" lengthAdjust="spacing" textLength="183" x="98.5" y="862.3872">informs operation in(sucess)</text><!--MD5=[43ded8d75f2284de5c18c4f75606acbe]
@startuml
autonumber
actor "Receptionist" as RECEPT

participant ":RegisterClientUI" as UI
participant ":RegisterClientController" as CTRL
participant ":Company" as CMP
participant ":User" as USER
participant ":ClientList" as CLL
participant "Client" as CLT



activate RECEPT
RECEPT -> UI : asks to register new Client
activate UI
UI - -> RECEPT : request data(i.e., ccn, nhsNumber)
deactivate UI

RECEPT -> UI : types requested data
activate UI

ref over UI

SD_Client_Local_Validation

end ref
activate CTRL
activate CLL
alt Create Client specifying sex

UI -> CTRL: c = createClient(ccn, birthDate, name, tif, nhsNumber, sex, phoneNumber, email )
CTRL-> CLL: c = createClient(ccn, birthDate, name, tif, nhsNumber, sex, phoneNumber, email )
CLL - -> CLT** : create(c)
else Create Client without specifying sex
UI-> CTRL: c = createClient(ccn, birthDate, name, tif, nhsNumber, phoneNumber, email )
CTRL-> CLL: c = createClient(ccn, birthDate, name, tif, nhsNumber, phoneNumber, email )

CLL - -> CLT : create(c)
end

CTRL->UI:showClient(c)


deactivate CLL
deactivate CTRL

UI - -> RECEPT : shows the data and request a confirmation
deactivate UI

RECEPT -> UI : confirms the data
activate UI
UI -> CTRL : saveClient(c)
activate CTRL
CTRL -> CMP : saveClient(c)


activate CLL

activate CMP


CMP -> CMP++ : validateClient(c)
CMP- -
CMP -> USER : addClientToSystem(c)
CMP -> CLL : saveClient(c)
CLL -> CLL++ : addClient(c)

CLL- -

deactivate CMP

deactivate CLL
deactivate CTRL
UI - -> RECEPT : informs operation in(sucess)
deactivate UI
@enduml

PlantUML version 1.2021.6beta6(Unknown compile time)
(GPL source distribution)
Java Runtime: Java(TM) SE Runtime Environment
JVM: Java HotSpot(TM) 64-Bit Server VM
Default Encoding: UTF-8
Language: en
Country: US
--></g></svg>