<?xml version="1.0" encoding="UTF-8" standalone="no"?><svg xmlns="http://www.w3.org/2000/svg" xmlns:xlink="http://www.w3.org/1999/xlink" contentScriptType="application/ecmascript" contentStyleType="text/css" height="1151px" preserveAspectRatio="none" style="width:516px;height:1151px;background:#FFFFFF;" version="1.1" viewBox="0 0 516 1151" width="516px" zoomAndPan="magnify"><defs><filter height="300%" id="fqckbob2ia291" width="300%" x="-1" y="-1"><feGaussianBlur result="blurOut" stdDeviation="2.0"/><feColorMatrix in="blurOut" result="blurOut2" type="matrix" values="0 0 0 0 0 0 0 0 0 0 0 0 0 0 0 0 0 0 .4 0"/><feOffset dx="4.0" dy="4.0" in="blurOut2" result="blurOut3"/><feBlend in="SourceGraphic" in2="blurOut3" mode="normal"/></filter></defs><g><!--MD5=[ed6624c6556d5e7b1bd23032162d20b7]
class Client--><rect codeLine="3" fill="#FEFECE" filter="url(#fqckbob2ia291)" height="329.7031" id="Client" style="stroke:#A80036;stroke-width:1.5;" width="429" x="55" y="808"/><ellipse cx="248.75" cy="824" fill="#ADD1B2" rx="11" ry="11" style="stroke:#A80036;stroke-width:1.0;"/><path d="M251.0937,819.6719 C250.1562,819.2344 249.5625,819.0938 248.6875,819.0938 C246.0625,819.0938 244.0625,821.1719 244.0625,823.8906 L244.0625,825.0156 C244.0625,827.5938 246.1719,829.4844 249.0625,829.4844 C250.2812,829.4844 251.4375,829.1875 252.1875,828.6406 C252.7656,828.2344 253.0937,827.7813 253.0937,827.3906 C253.0937,826.9375 252.7031,826.5469 252.2344,826.5469 C252.0156,826.5469 251.8125,826.625 251.625,826.8125 C251.1719,827.2969 251.1719,827.2969 250.9844,827.3906 C250.5625,827.6563 249.875,827.7813 249.1094,827.7813 C247.0625,827.7813 245.7656,826.6875 245.7656,824.9844 L245.7656,823.8906 C245.7656,822.1094 247.0156,820.7969 248.75,820.7969 C249.3281,820.7969 249.9375,820.9531 250.4062,821.2031 C250.8906,821.4844 251.0625,821.7031 251.1562,822.1094 C251.2187,822.5156 251.25,822.6406 251.3906,822.7656 C251.5312,822.9063 251.7656,823.0156 251.9844,823.0156 C252.25,823.0156 252.5156,822.875 252.6875,822.6563 C252.7969,822.5 252.8281,822.3125 252.8281,821.8906 L252.8281,820.4688 C252.8281,820.0313 252.8125,819.9063 252.7187,819.75 C252.5625,819.4844 252.2812,819.3438 251.9844,819.3438 C251.6875,819.3438 251.4844,819.4375 251.2656,819.75 L251.0937,819.6719 Z " fill="#000000"/><text fill="#000000" font-family="sans-serif" font-size="12" lengthAdjust="spacing" textLength="33" x="269.25" y="828.1543">Client</text><line style="stroke:#A80036;stroke-width:1.5;" x1="56" x2="483" y1="840" y2="840"/><text fill="#000000" font-family="sans-serif" font-size="11" lengthAdjust="spacing" textLength="54" x="61" y="854.2104">-ccn: long</text><text fill="#000000" font-family="sans-serif" font-size="11" lengthAdjust="spacing" textLength="103" x="61" y="867.0151">-NHSnumber: long</text><text fill="#000000" font-family="sans-serif" font-size="11" lengthAdjust="spacing" textLength="78" x="61" y="879.8198">-birthDate: int</text><text fill="#000000" font-family="sans-serif" font-size="11" lengthAdjust="spacing" textLength="65" x="61" y="892.6245">-sex: String</text><text fill="#000000" font-family="sans-serif" font-size="11" lengthAdjust="spacing" textLength="49" x="61" y="905.4292">-tin: long</text><text fill="#000000" font-family="sans-serif" font-size="11" lengthAdjust="spacing" textLength="116" x="61" y="918.2339">-phoneNumber: long</text><text fill="#000000" font-family="sans-serif" font-size="11" lengthAdjust="spacing" textLength="76" x="61" y="931.0386">-email: String</text><text fill="#000000" font-family="sans-serif" font-size="11" lengthAdjust="spacing" textLength="97" x="61" y="943.8433">-password: String</text><text fill="#000000" font-family="sans-serif" font-size="11" lengthAdjust="spacing" textLength="68" x="61" y="956.6479">-client: User</text><text fill="#000000" font-family="sans-serif" font-size="11" lengthAdjust="spacing" textLength="101" x="61" y="969.4526">+acessorMethods</text><line style="stroke:#A80036;stroke-width:1.5;" x1="56" x2="483" y1="976.0469" y2="976.0469"/><text fill="#000000" font-family="sans-serif" font-size="11" lengthAdjust="spacing" textLength="417" x="61" y="990.2573">+Client(ccn, nhsNumber, birthDate, sex, email, tin, phoneNumber, name)</text><text fill="#000000" font-family="sans-serif" font-size="11" lengthAdjust="spacing" textLength="389" x="61" y="1003.062">+Client(ccn, nhsNumber, birthDate, email, tin, phoneNumber, name)</text><text fill="#000000" font-family="sans-serif" font-size="11" lengthAdjust="spacing" textLength="125" x="61" y="1015.8667">+generatePassword();</text><text fill="#000000" font-family="sans-serif" font-size="11" lengthAdjust="spacing" textLength="61" x="61" y="1028.6714">+toString()</text><text fill="#000000" font-family="sans-serif" font-size="11" lengthAdjust="spacing" textLength="86" x="61" y="1041.4761">+equals(client)</text><text fill="#000000" font-family="sans-serif" font-size="11" lengthAdjust="spacing" textLength="84" x="61" y="1054.2808">+validateCcn()</text><text fill="#000000" font-family="sans-serif" font-size="11" lengthAdjust="spacing" textLength="129" x="61" y="1067.0854">+validateNhsNumber()</text><text fill="#000000" font-family="sans-serif" font-size="11" lengthAdjust="spacing" textLength="117" x="61" y="1079.8901">+validateBirthDate()</text><text fill="#000000" font-family="sans-serif" font-size="11" lengthAdjust="spacing" textLength="80" x="61" y="1092.6948">+validateTin()</text><text fill="#000000" font-family="sans-serif" font-size="11" lengthAdjust="spacing" textLength="86" x="61" y="1105.4995">+validateSex()</text><text fill="#000000" font-family="sans-serif" font-size="11" lengthAdjust="spacing" textLength="143" x="61" y="1118.3042">+validatePhoneNumber()</text><text fill="#000000" font-family="sans-serif" font-size="11" lengthAdjust="spacing" textLength="97" x="61" y="1131.1089">+validateName()</text><!--MD5=[594612147f950995a18c1e6474349bc0]
class ClientList--><rect codeLine="28" fill="#FEFECE" filter="url(#fqckbob2ia291)" height="137.6328" id="ClientList" style="stroke:#A80036;stroke-width:1.5;" width="466" x="36.5" y="593"/><ellipse cx="238.75" cy="609" fill="#ADD1B2" rx="11" ry="11" style="stroke:#A80036;stroke-width:1.0;"/><path d="M241.0937,604.6719 C240.1562,604.2344 239.5625,604.0938 238.6875,604.0938 C236.0625,604.0938 234.0625,606.1719 234.0625,608.8906 L234.0625,610.0156 C234.0625,612.5938 236.1719,614.4844 239.0625,614.4844 C240.2812,614.4844 241.4375,614.1875 242.1875,613.6406 C242.7656,613.2344 243.0937,612.7813 243.0937,612.3906 C243.0937,611.9375 242.7031,611.5469 242.2344,611.5469 C242.0156,611.5469 241.8125,611.625 241.625,611.8125 C241.1719,612.2969 241.1719,612.2969 240.9844,612.3906 C240.5625,612.6563 239.875,612.7813 239.1094,612.7813 C237.0625,612.7813 235.7656,611.6875 235.7656,609.9844 L235.7656,608.8906 C235.7656,607.1094 237.0156,605.7969 238.75,605.7969 C239.3281,605.7969 239.9375,605.9531 240.4062,606.2031 C240.8906,606.4844 241.0625,606.7031 241.1562,607.1094 C241.2187,607.5156 241.25,607.6406 241.3906,607.7656 C241.5312,607.9063 241.7656,608.0156 241.9844,608.0156 C242.25,608.0156 242.5156,607.875 242.6875,607.6563 C242.7969,607.5 242.8281,607.3125 242.8281,606.8906 L242.8281,605.4688 C242.8281,605.0313 242.8125,604.9063 242.7187,604.75 C242.5625,604.4844 242.2812,604.3438 241.9844,604.3438 C241.6875,604.3438 241.4844,604.4375 241.2656,604.75 L241.0937,604.6719 Z " fill="#000000"/><text fill="#000000" font-family="sans-serif" font-size="12" lengthAdjust="spacing" textLength="53" x="259.25" y="613.1543">ClientList</text><line style="stroke:#A80036;stroke-width:1.5;" x1="37.5" x2="501.5" y1="625" y2="625"/><text fill="#000000" font-family="sans-serif" font-size="11" lengthAdjust="spacing" textLength="128" x="42.5" y="639.2104">-List&lt;Client&gt; clientList</text><line style="stroke:#A80036;stroke-width:1.5;" x1="37.5" x2="501.5" y1="645.8047" y2="645.8047"/><text fill="#000000" font-family="sans-serif" font-size="11" lengthAdjust="spacing" textLength="454" x="42.5" y="660.0151">+createClient(ccn, nhsNumber, birthDate, sex, email, tin, phoneNumber, name)</text><text fill="#000000" font-family="sans-serif" font-size="11" lengthAdjust="spacing" textLength="426" x="42.5" y="672.8198">+createClient(ccn, nhsNumber, birthDate, email, tin, phoneNumber, name)</text><text fill="#000000" font-family="sans-serif" font-size="11" lengthAdjust="spacing" textLength="64" x="42.5" y="685.6245">-add(client)</text><text fill="#000000" font-family="sans-serif" font-size="11" lengthAdjust="spacing" textLength="109" x="42.5" y="698.4292">+saveClient(client)</text><text fill="#000000" font-family="sans-serif" font-size="11" lengthAdjust="spacing" textLength="75" x="42.5" y="711.2339">+getClients()</text><text fill="#000000" font-family="sans-serif" font-size="11" lengthAdjust="spacing" textLength="119" x="42.5" y="724.0386">+isClientInList(client)</text><!--MD5=[02e4b9b7573f1156f41e60aa5b4e25a4]
class Company--><rect codeLine="38" fill="#FEFECE" filter="url(#fqckbob2ia291)" height="99.2188" id="Company" style="stroke:#A80036;stroke-width:1.5;" width="167" x="275" y="417"/><ellipse cx="326.25" cy="433" fill="#ADD1B2" rx="11" ry="11" style="stroke:#A80036;stroke-width:1.0;"/><path d="M328.5938,428.6719 C327.6563,428.2344 327.0625,428.0938 326.1875,428.0938 C323.5625,428.0938 321.5625,430.1719 321.5625,432.8906 L321.5625,434.0156 C321.5625,436.5938 323.6719,438.4844 326.5625,438.4844 C327.7813,438.4844 328.9375,438.1875 329.6875,437.6406 C330.2656,437.2344 330.5938,436.7813 330.5938,436.3906 C330.5938,435.9375 330.2031,435.5469 329.7344,435.5469 C329.5156,435.5469 329.3125,435.625 329.125,435.8125 C328.6719,436.2969 328.6719,436.2969 328.4844,436.3906 C328.0625,436.6563 327.375,436.7813 326.6094,436.7813 C324.5625,436.7813 323.2656,435.6875 323.2656,433.9844 L323.2656,432.8906 C323.2656,431.1094 324.5156,429.7969 326.25,429.7969 C326.8281,429.7969 327.4375,429.9531 327.9063,430.2031 C328.3906,430.4844 328.5625,430.7031 328.6563,431.1094 C328.7188,431.5156 328.75,431.6406 328.8906,431.7656 C329.0313,431.9063 329.2656,432.0156 329.4844,432.0156 C329.75,432.0156 330.0156,431.875 330.1875,431.6563 C330.2969,431.5 330.3281,431.3125 330.3281,430.8906 L330.3281,429.4688 C330.3281,429.0313 330.3125,428.9063 330.2188,428.75 C330.0625,428.4844 329.7813,428.3438 329.4844,428.3438 C329.1875,428.3438 328.9844,428.4375 328.7656,428.75 L328.5938,428.6719 Z " fill="#000000"/><text fill="#000000" font-family="sans-serif" font-size="12" lengthAdjust="spacing" textLength="56" x="346.75" y="437.1543">Company</text><line style="stroke:#A80036;stroke-width:1.5;" x1="276" x2="441" y1="449" y2="449"/><line style="stroke:#A80036;stroke-width:1.5;" x1="276" x2="441" y1="457" y2="457"/><text fill="#000000" font-family="sans-serif" font-size="11" lengthAdjust="spacing" textLength="154" x="281" y="471.2104">+sendEmailToClient(client)</text><text fill="#000000" font-family="sans-serif" font-size="11" lengthAdjust="spacing" textLength="127" x="281" y="484.0151">+validateClient(client)</text><text fill="#000000" font-family="sans-serif" font-size="11" lengthAdjust="spacing" textLength="112" x="281" y="496.8198">+saveClient(client);</text><text fill="#000000" font-family="sans-serif" font-size="11" lengthAdjust="spacing" textLength="155" x="281" y="509.6245">-addClientToSystem(client)</text><!--MD5=[1a7fda4a36185bcd740bdf14b2b3a45e]
class RegisterClientController--><rect codeLine="45" fill="#FEFECE" filter="url(#fqckbob2ia291)" height="240.0703" id="RegisterClientController" style="stroke:#A80036;stroke-width:1.5;" width="469" x="7" y="116"/><ellipse cx="166.25" cy="132" fill="#ADD1B2" rx="11" ry="11" style="stroke:#A80036;stroke-width:1.0;"/><path d="M168.5938,127.6719 C167.6563,127.2344 167.0625,127.0938 166.1875,127.0938 C163.5625,127.0938 161.5625,129.1719 161.5625,131.8906 L161.5625,133.0156 C161.5625,135.5938 163.6719,137.4844 166.5625,137.4844 C167.7813,137.4844 168.9375,137.1875 169.6875,136.6406 C170.2656,136.2344 170.5938,135.7813 170.5938,135.3906 C170.5938,134.9375 170.2031,134.5469 169.7344,134.5469 C169.5156,134.5469 169.3125,134.625 169.125,134.8125 C168.6719,135.2969 168.6719,135.2969 168.4844,135.3906 C168.0625,135.6563 167.375,135.7813 166.6094,135.7813 C164.5625,135.7813 163.2656,134.6875 163.2656,132.9844 L163.2656,131.8906 C163.2656,130.1094 164.5156,128.7969 166.25,128.7969 C166.8281,128.7969 167.4375,128.9531 167.9063,129.2031 C168.3906,129.4844 168.5625,129.7031 168.6563,130.1094 C168.7188,130.5156 168.75,130.6406 168.8906,130.7656 C169.0313,130.9063 169.2656,131.0156 169.4844,131.0156 C169.75,131.0156 170.0156,130.875 170.1875,130.6563 C170.2969,130.5 170.3281,130.3125 170.3281,129.8906 L170.3281,128.4688 C170.3281,128.0313 170.3125,127.9063 170.2188,127.75 C170.0625,127.4844 169.7813,127.3438 169.4844,127.3438 C169.1875,127.3438 168.9844,127.4375 168.7656,127.75 L168.5938,127.6719 Z " fill="#000000"/><text fill="#000000" font-family="sans-serif" font-size="12" lengthAdjust="spacing" textLength="142" x="186.75" y="136.1543">RegisterClientController</text><line style="stroke:#A80036;stroke-width:1.5;" x1="8" x2="475" y1="148" y2="148"/><line style="stroke:#A80036;stroke-width:1.5;" x1="8" x2="475" y1="156" y2="156"/><text fill="#000000" font-family="sans-serif" font-size="11" lengthAdjust="spacing" textLength="457" x="13" y="170.2104">+createClient(ccn, NHSnumber, birthDate, sex, tin, phoneNumber, email, name)</text><text fill="#000000" font-family="sans-serif" font-size="11" lengthAdjust="spacing" textLength="169" x="13" y="183.0151">-isUserLoggedInReceptionist()</text><text fill="#000000" font-family="sans-serif" font-size="11" lengthAdjust="spacing" textLength="426" x="13" y="195.8198">+createClient(ccn, nhsNumber, birthDate, email, tin, phoneNumber, name)</text><text fill="#000000" font-family="sans-serif" font-size="11" lengthAdjust="spacing" textLength="78" x="13" y="208.6245">+saveClient()</text><text fill="#000000" font-family="sans-serif" font-size="11" lengthAdjust="spacing" textLength="79" x="13" y="221.4292">+showClient()</text><text fill="#000000" font-family="sans-serif" font-size="11" lengthAdjust="spacing" textLength="84" x="13" y="234.2339">+validateCcn()</text><text fill="#000000" font-family="sans-serif" font-size="11" lengthAdjust="spacing" textLength="129" x="13" y="247.0386">+validateNhsNumber()</text><text fill="#000000" font-family="sans-serif" font-size="11" lengthAdjust="spacing" textLength="117" x="13" y="259.8433">+validateBirthDate()</text><text fill="#000000" font-family="sans-serif" font-size="11" lengthAdjust="spacing" textLength="80" x="13" y="272.6479">+validateTin()</text><text fill="#000000" font-family="sans-serif" font-size="11" lengthAdjust="spacing" textLength="86" x="13" y="285.4526">+validateSex()</text><text fill="#000000" font-family="sans-serif" font-size="11" lengthAdjust="spacing" textLength="143" x="13" y="298.2573">+validatePhoneNumber()</text><text fill="#000000" font-family="sans-serif" font-size="11" lengthAdjust="spacing" textLength="97" x="13" y="311.062">+validateName()</text><text fill="#000000" font-family="sans-serif" font-size="11" lengthAdjust="spacing" textLength="119" x="13" y="323.8667">+isClientInList(client)</text><text fill="#000000" font-family="sans-serif" font-size="11" lengthAdjust="spacing" textLength="154" x="13" y="336.6714">+sendEmailToClient(client)</text><text fill="#000000" font-family="sans-serif" font-size="11" lengthAdjust="spacing" textLength="88" x="13" y="349.4761">+getClientList()</text><!--MD5=[71152100d89f377ebd8dc97f1c2b0d02]
class RegisterClientUI--><rect codeLine="63" fill="#FEFECE" filter="url(#fqckbob2ia291)" height="48" id="RegisterClientUI" style="stroke:#A80036;stroke-width:1.5;" width="127" x="178" y="7"/><ellipse cx="193" cy="23" fill="#ADD1B2" rx="11" ry="11" style="stroke:#A80036;stroke-width:1.0;"/><path d="M195.3437,18.6719 C194.4062,18.2344 193.8125,18.0938 192.9375,18.0938 C190.3125,18.0938 188.3125,20.1719 188.3125,22.8906 L188.3125,24.0156 C188.3125,26.5938 190.4219,28.4844 193.3125,28.4844 C194.5312,28.4844 195.6875,28.1875 196.4375,27.6406 C197.0156,27.2344 197.3437,26.7813 197.3437,26.3906 C197.3437,25.9375 196.9531,25.5469 196.4844,25.5469 C196.2656,25.5469 196.0625,25.625 195.875,25.8125 C195.4219,26.2969 195.4219,26.2969 195.2344,26.3906 C194.8125,26.6563 194.125,26.7813 193.3594,26.7813 C191.3125,26.7813 190.0156,25.6875 190.0156,23.9844 L190.0156,22.8906 C190.0156,21.1094 191.2656,19.7969 193,19.7969 C193.5781,19.7969 194.1875,19.9531 194.6562,20.2031 C195.1406,20.4844 195.3125,20.7031 195.4062,21.1094 C195.4687,21.5156 195.5,21.6406 195.6406,21.7656 C195.7812,21.9063 196.0156,22.0156 196.2344,22.0156 C196.5,22.0156 196.7656,21.875 196.9375,21.6563 C197.0469,21.5 197.0781,21.3125 197.0781,20.8906 L197.0781,19.4688 C197.0781,19.0313 197.0625,18.9063 196.9687,18.75 C196.8125,18.4844 196.5312,18.3438 196.2344,18.3438 C195.9375,18.3438 195.7344,18.4375 195.5156,18.75 L195.3437,18.6719 Z " fill="#000000"/><text fill="#000000" font-family="sans-serif" font-size="12" lengthAdjust="spacing" textLength="95" x="207" y="27.1543">RegisterClientUI</text><line style="stroke:#A80036;stroke-width:1.5;" x1="179" x2="304" y1="39" y2="39"/><line style="stroke:#A80036;stroke-width:1.5;" x1="179" x2="304" y1="47" y2="47"/><!--MD5=[ab179af0153bf609fe4891204b6ca111]
link ClientList to Client--><path codeLine="64" d="M269.5,731.194 C269.5,752.688 269.5,777.463 269.5,802.771 " fill="none" id="ClientList-to-Client" style="stroke:#A80036;stroke-width:1.0;"/><polygon fill="#A80036" points="269.5,807.838,273.5,798.838,269.5,802.838,265.5,798.838,269.5,807.838" style="stroke:#A80036;stroke-width:1.0;"/><text fill="#000000" font-family="sans-serif" font-size="13" lengthAdjust="spacing" textLength="54" x="270.5" y="774.0669">contains</text><text fill="#000000" font-family="sans-serif" font-size="13" lengthAdjust="spacing" textLength="8" x="261.1188" y="750.5946">1</text><text fill="#000000" font-family="sans-serif" font-size="13" lengthAdjust="spacing" textLength="7" x="262.3414" y="797.0909">*</text><!--MD5=[198be3749d42ca56b2a20022cdc44bdd]
link RegisterClientController to Company--><path codeLine="65" d="M302.57,356.269 C312.598,375.854 322.525,395.241 331.169,412.124 " fill="none" id="RegisterClientController-to-Company" style="stroke:#A80036;stroke-width:1.0;stroke-dasharray:7.0,7.0;"/><polygon fill="#A80036" points="333.573,416.817,333.0315,406.983,331.2942,412.3665,325.9107,410.6292,333.573,416.817" style="stroke:#A80036;stroke-width:1.0;"/><!--MD5=[433bae7a5dfcd6b08dea0666b8136b9d]
link RegisterClientController to ClientList--><path codeLine="66" d="M247.67,356.176 C250.403,405.639 253.83,463.609 257.5,516 C259.133,539.309 261.152,564.706 263.066,587.637 " fill="none" id="RegisterClientController-to-ClientList" style="stroke:#A80036;stroke-width:1.0;stroke-dasharray:7.0,7.0;"/><polygon fill="#A80036" points="263.498,592.796,266.7304,583.4927,263.0793,587.8136,258.7585,584.1625,263.498,592.796" style="stroke:#A80036;stroke-width:1.0;"/><!--MD5=[9dec42a3b1fb794d839b2c916f9b8879]
link Company to ClientList--><path codeLine="67" d="M336.042,516.328 C326.048,538.055 314.071,564.096 303.049,588.059 " fill="none" id="Company-to-ClientList" style="stroke:#A80036;stroke-width:1.0;"/><polygon fill="#A80036" points="300.859,592.822,308.2528,586.3157,302.9476,588.2791,300.9841,582.9739,300.859,592.822" style="stroke:#A80036;stroke-width:1.0;"/><text fill="#000000" font-family="sans-serif" font-size="13" lengthAdjust="spacing" textLength="30" x="322.5" y="559.0669">uses</text><text fill="#000000" font-family="sans-serif" font-size="13" lengthAdjust="spacing" textLength="8" x="324.3213" y="536.4506">1</text><text fill="#000000" font-family="sans-serif" font-size="13" lengthAdjust="spacing" textLength="8" x="295.6804" y="582.0073">1</text><!--MD5=[98d2d934d445daef8d5bcbeea20c1f70]
link RegisterClientUI to RegisterClientController--><path codeLine="68" d="M241.5,55.29 C241.5,69.75 241.5,89.59 241.5,110.82 " fill="none" id="RegisterClientUI-to-RegisterClientController" style="stroke:#A80036;stroke-width:1.0;stroke-dasharray:7.0,7.0;"/><polygon fill="#A80036" points="241.5,115.95,245.5,106.95,241.5,110.95,237.5,106.95,241.5,115.95" style="stroke:#A80036;stroke-width:1.0;"/><!--MD5=[d8d102f8d446a2be964ae55ef464b09e]
@startuml
skinparam classAttributeIconSize 0

Class "Client"{
-ccn: long
-NHSnumber: long
-birthDate: int
-sex: String
-tin: long
-phoneNumber: long
-email: String
-password: String
-client: User
+Client(ccn, nhsNumber, birthDate, sex, email, tin, phoneNumber, name)
+Client(ccn, nhsNumber, birthDate, email, tin, phoneNumber, name)
+generatePassword();
+toString()
+equals(client)
+validateCcn()
+validateNhsNumber()
+validateBirthDate()
+validateTin()
+validateSex()
+validatePhoneNumber()
+validateName()
+acessorMethods

}
Class "ClientList"{
-List<Client> clientList
+createClient(ccn, nhsNumber, birthDate, sex, email, tin, phoneNumber, name)
+createClient(ccn, nhsNumber, birthDate, email, tin, phoneNumber, name)
-add(client)
+saveClient(client)
+getClients()
+isClientInList(client)
}

Class "Company"{
+sendEmailToClient(client)
+validateClient(client)
+saveClient(client);
-addClientToSystem(client)
}

Class "RegisterClientController"{
+createClient(ccn, NHSnumber, birthDate, sex, tin, phoneNumber, email, name)
-isUserLoggedInReceptionist()
+createClient(ccn, nhsNumber, birthDate, email, tin, phoneNumber, name)
+saveClient()
+showClient()
+validateCcn()
+validateNhsNumber()
+validateBirthDate()
+validateTin()
+validateSex()
+validatePhoneNumber()
+validateName()
+isClientInList(client)
+sendEmailToClient(client)
+getClientList()
}

Class "RegisterClientUI"
ClientList"1"  - -> "*" Client : contains
RegisterClientController ..> Company
RegisterClientController ..> ClientList
Company "1" - -> "1" ClientList : uses
RegisterClientUI ..> RegisterClientController
@enduml

PlantUML version 1.2021.6beta6(Unknown compile time)
(GPL source distribution)
Java Runtime: Java(TM) SE Runtime Environment
JVM: Java HotSpot(TM) 64-Bit Server VM
Default Encoding: UTF-8
Language: en
Country: US
--></g></svg>