<?xml version="1.0" encoding="UTF-8" standalone="no"?><svg xmlns="http://www.w3.org/2000/svg" xmlns:xlink="http://www.w3.org/1999/xlink" contentScriptType="application/ecmascript" contentStyleType="text/css" height="623px" preserveAspectRatio="none" style="width:495px;height:623px;" version="1.1" viewBox="0 0 495 623" width="495px" zoomAndPan="magnify"><defs><filter height="300%" id="feeqvna7xfhqe" width="300%" x="-1" y="-1"><feGaussianBlur result="blurOut" stdDeviation="2.0"/><feColorMatrix in="blurOut" result="blurOut2" type="matrix" values="0 0 0 0 0 0 0 0 0 0 0 0 0 0 0 0 0 0 .4 0"/><feOffset dx="4.0" dy="4.0" in="blurOut2" result="blurOut3"/><feBlend in="SourceGraphic" in2="blurOut3" mode="normal"/></filter></defs><g><!--MD5=[ed6624c6556d5e7b1bd23032162d20b7]
class Client--><rect codeLine="1" fill="#FEFECE" filter="url(#feeqvna7xfhqe)" height="201.6563" id="Client" style="stroke:#A80036;stroke-width:1.5;" width="138" x="175" y="408"/><ellipse cx="223.25" cy="424" fill="#ADD1B2" rx="11" ry="11" style="stroke:#A80036;stroke-width:1.0;"/><path d="M225.5938,419.6719 C224.6563,419.2344 224.0625,419.0938 223.1875,419.0938 C220.5625,419.0938 218.5625,421.1719 218.5625,423.8906 L218.5625,425.0156 C218.5625,427.5938 220.6719,429.4844 223.5625,429.4844 C224.7813,429.4844 225.9375,429.1875 226.6875,428.6406 C227.2656,428.2344 227.5938,427.7813 227.5938,427.3906 C227.5938,426.9375 227.2031,426.5469 226.7344,426.5469 C226.5156,426.5469 226.3125,426.625 226.125,426.8125 C225.6719,427.2969 225.6719,427.2969 225.4844,427.3906 C225.0625,427.6563 224.375,427.7813 223.6094,427.7813 C221.5625,427.7813 220.2656,426.6875 220.2656,424.9844 L220.2656,423.8906 C220.2656,422.1094 221.5156,420.7969 223.25,420.7969 C223.8281,420.7969 224.4375,420.9531 224.9063,421.2031 C225.3906,421.4844 225.5625,421.7031 225.6563,422.1094 C225.7188,422.5156 225.75,422.6406 225.8906,422.7656 C226.0313,422.9063 226.2656,423.0156 226.4844,423.0156 C226.75,423.0156 227.0156,422.875 227.1875,422.6563 C227.2969,422.5 227.3281,422.3125 227.3281,421.8906 L227.3281,420.4688 C227.3281,420.0313 227.3125,419.9063 227.2188,419.75 C227.0625,419.4844 226.7813,419.3438 226.4844,419.3438 C226.1875,419.3438 225.9844,419.4375 225.7656,419.75 L225.5938,419.6719 Z " fill="#000000"/><text fill="#000000" font-family="sans-serif" font-size="12" lengthAdjust="spacing" textLength="33" x="243.75" y="428.1543">Client</text><line style="stroke:#A80036;stroke-width:1.5;" x1="176" x2="312" y1="440" y2="440"/><rect fill="none" height="6" style="stroke:#C82930;stroke-width:1.0;" width="6" x="183" y="448"/><text fill="#000000" font-family="sans-serif" font-size="11" lengthAdjust="spacing" textLength="50" x="195" y="454.2104">ccn: long</text><rect fill="none" height="6" style="stroke:#C82930;stroke-width:1.0;" width="6" x="183" y="460.8047"/><text fill="#000000" font-family="sans-serif" font-size="11" lengthAdjust="spacing" textLength="99" x="195" y="467.0151">NHSnumber: long</text><rect fill="none" height="6" style="stroke:#C82930;stroke-width:1.0;" width="6" x="183" y="473.6094"/><text fill="#000000" font-family="sans-serif" font-size="11" lengthAdjust="spacing" textLength="74" x="195" y="479.8198">birthDate: int</text><rect fill="none" height="6" style="stroke:#C82930;stroke-width:1.0;" width="6" x="183" y="486.4141"/><text fill="#000000" font-family="sans-serif" font-size="11" lengthAdjust="spacing" textLength="61" x="195" y="492.6245">sex: String</text><rect fill="none" height="6" style="stroke:#C82930;stroke-width:1.0;" width="6" x="183" y="499.2188"/><text fill="#000000" font-family="sans-serif" font-size="11" lengthAdjust="spacing" textLength="45" x="195" y="505.4292">tin: long</text><rect fill="none" height="6" style="stroke:#C82930;stroke-width:1.0;" width="6" x="183" y="512.0234"/><text fill="#000000" font-family="sans-serif" font-size="11" lengthAdjust="spacing" textLength="112" x="195" y="518.2339">phoneNumber: long</text><rect fill="none" height="6" style="stroke:#C82930;stroke-width:1.0;" width="6" x="183" y="524.8281"/><text fill="#000000" font-family="sans-serif" font-size="11" lengthAdjust="spacing" textLength="72" x="195" y="531.0386">email: String</text><rect fill="none" height="6" style="stroke:#C82930;stroke-width:1.0;" width="6" x="183" y="537.6328"/><text fill="#000000" font-family="sans-serif" font-size="11" lengthAdjust="spacing" textLength="73" x="195" y="543.8433">name: String</text><rect fill="none" height="6" style="stroke:#C82930;stroke-width:1.0;" width="6" x="183" y="550.4375"/><text fill="#000000" font-family="sans-serif" font-size="11" lengthAdjust="spacing" textLength="64" x="195" y="556.6479">client: User</text><line style="stroke:#A80036;stroke-width:1.5;" x1="176" x2="312" y1="563.2422" y2="563.2422"/><ellipse cx="186" cy="574.2422" fill="#84BE84" rx="3" ry="3" style="stroke:#038048;stroke-width:1.0;"/><text fill="#000000" font-family="sans-serif" font-size="11" lengthAdjust="spacing" textLength="87" x="195" y="577.4526">validateClient()</text><ellipse cx="186" cy="587.0469" fill="#84BE84" rx="3" ry="3" style="stroke:#038048;stroke-width:1.0;"/><text fill="#000000" font-family="sans-serif" font-size="11" lengthAdjust="spacing" textLength="41" x="195" y="590.2573">Client()</text><ellipse cx="186" cy="599.8516" fill="#84BE84" rx="3" ry="3" style="stroke:#038048;stroke-width:1.0;"/><text fill="#000000" font-family="sans-serif" font-size="11" lengthAdjust="spacing" textLength="52" x="195" y="603.062">toString()</text><!--MD5=[55cb992be19579b505cea3c5691093cb]
class ClientList--><rect codeLine="15" fill="#FEFECE" filter="url(#feeqvna7xfhqe)" height="99.2188" id="ClientList" style="stroke:#A80036;stroke-width:1.5;" width="146" x="234" y="249"/><ellipse cx="270.6" cy="265" fill="#ADD1B2" rx="11" ry="11" style="stroke:#A80036;stroke-width:1.0;"/><path d="M272.9438,260.6719 C272.0063,260.2344 271.4125,260.0938 270.5375,260.0938 C267.9125,260.0938 265.9125,262.1719 265.9125,264.8906 L265.9125,266.0156 C265.9125,268.5938 268.0219,270.4844 270.9125,270.4844 C272.1313,270.4844 273.2875,270.1875 274.0375,269.6406 C274.6156,269.2344 274.9438,268.7813 274.9438,268.3906 C274.9438,267.9375 274.5531,267.5469 274.0844,267.5469 C273.8656,267.5469 273.6625,267.625 273.475,267.8125 C273.0219,268.2969 273.0219,268.2969 272.8344,268.3906 C272.4125,268.6563 271.725,268.7813 270.9594,268.7813 C268.9125,268.7813 267.6156,267.6875 267.6156,265.9844 L267.6156,264.8906 C267.6156,263.1094 268.8656,261.7969 270.6,261.7969 C271.1781,261.7969 271.7875,261.9531 272.2563,262.2031 C272.7406,262.4844 272.9125,262.7031 273.0063,263.1094 C273.0688,263.5156 273.1,263.6406 273.2406,263.7656 C273.3813,263.9063 273.6156,264.0156 273.8344,264.0156 C274.1,264.0156 274.3656,263.875 274.5375,263.6563 C274.6469,263.5 274.6781,263.3125 274.6781,262.8906 L274.6781,261.4688 C274.6781,261.0313 274.6625,260.9063 274.5688,260.75 C274.4125,260.4844 274.1313,260.3438 273.8344,260.3438 C273.5375,260.3438 273.3344,260.4375 273.1156,260.75 L272.9438,260.6719 Z " fill="#000000"/><text fill="#000000" font-family="sans-serif" font-size="12" lengthAdjust="spacing" textLength="66" x="289.4" y="269.1543">ClientList</text><line style="stroke:#A80036;stroke-width:1.5;" x1="235" x2="379" y1="281" y2="281"/><line style="stroke:#A80036;stroke-width:1.5;" x1="235" x2="379" y1="289" y2="289"/><ellipse cx="245" cy="300" fill="#84BE84" rx="3" ry="3" style="stroke:#038048;stroke-width:1.0;"/><text fill="#000000" font-family="sans-serif" font-size="11" lengthAdjust="spacing" textLength="95" x="254" y="303.2104">addClient(Client)</text><ellipse cx="245" cy="312.8047" fill="#84BE84" rx="3" ry="3" style="stroke:#038048;stroke-width:1.0;"/><text fill="#000000" font-family="sans-serif" font-size="11" lengthAdjust="spacing" textLength="92" x="254" y="316.0151">getClient(email)</text><ellipse cx="245" cy="325.6094" fill="#84BE84" rx="3" ry="3" style="stroke:#038048;stroke-width:1.0;"/><text fill="#000000" font-family="sans-serif" font-size="11" lengthAdjust="spacing" textLength="120" x="254" y="328.8198">validateClient(Client)</text><ellipse cx="245" cy="338.4141" fill="#84BE84" rx="3" ry="3" style="stroke:#038048;stroke-width:1.0;"/><text fill="#000000" font-family="sans-serif" font-size="11" lengthAdjust="spacing" textLength="102" x="254" y="341.6245">saveClient(Client)</text><!--MD5=[1a7fda4a36185bcd740bdf14b2b3a45e]
class RegisterClientController--><rect codeLine="22" fill="#FEFECE" filter="url(#feeqvna7xfhqe)" height="73.6094" id="RegisterClientController" style="stroke:#A80036;stroke-width:1.5;" width="474" x="7" y="115"/><ellipse cx="168.75" cy="131" fill="#ADD1B2" rx="11" ry="11" style="stroke:#A80036;stroke-width:1.0;"/><path d="M171.0938,126.6719 C170.1563,126.2344 169.5625,126.0938 168.6875,126.0938 C166.0625,126.0938 164.0625,128.1719 164.0625,130.8906 L164.0625,132.0156 C164.0625,134.5938 166.1719,136.4844 169.0625,136.4844 C170.2813,136.4844 171.4375,136.1875 172.1875,135.6406 C172.7656,135.2344 173.0938,134.7813 173.0938,134.3906 C173.0938,133.9375 172.7031,133.5469 172.2344,133.5469 C172.0156,133.5469 171.8125,133.625 171.625,133.8125 C171.1719,134.2969 171.1719,134.2969 170.9844,134.3906 C170.5625,134.6563 169.875,134.7813 169.1094,134.7813 C167.0625,134.7813 165.7656,133.6875 165.7656,131.9844 L165.7656,130.8906 C165.7656,129.1094 167.0156,127.7969 168.75,127.7969 C169.3281,127.7969 169.9375,127.9531 170.4063,128.2031 C170.8906,128.4844 171.0625,128.7031 171.1563,129.1094 C171.2188,129.5156 171.25,129.6406 171.3906,129.7656 C171.5313,129.9063 171.7656,130.0156 171.9844,130.0156 C172.25,130.0156 172.5156,129.875 172.6875,129.6563 C172.7969,129.5 172.8281,129.3125 172.8281,128.8906 L172.8281,127.4688 C172.8281,127.0313 172.8125,126.9063 172.7188,126.75 C172.5625,126.4844 172.2813,126.3438 171.9844,126.3438 C171.6875,126.3438 171.4844,126.4375 171.2656,126.75 L171.0938,126.6719 Z " fill="#000000"/><text fill="#000000" font-family="sans-serif" font-size="12" lengthAdjust="spacing" textLength="142" x="189.25" y="135.1543">RegisterClientController</text><line style="stroke:#A80036;stroke-width:1.5;" x1="8" x2="480" y1="147" y2="147"/><line style="stroke:#A80036;stroke-width:1.5;" x1="8" x2="480" y1="155" y2="155"/><ellipse cx="18" cy="166" fill="#84BE84" rx="3" ry="3" style="stroke:#038048;stroke-width:1.0;"/><text fill="#000000" font-family="sans-serif" font-size="11" lengthAdjust="spacing" textLength="448" x="27" y="169.2104">createClient(ccn, NHSnumber, birthDate, sex, tin, phoneNumber, email, name)</text><ellipse cx="18" cy="178.8047" fill="#84BE84" rx="3" ry="3" style="stroke:#038048;stroke-width:1.0;"/><text fill="#000000" font-family="sans-serif" font-size="11" lengthAdjust="spacing" textLength="69" x="27" y="182.0151">saveClient()</text><!--MD5=[71152100d89f377ebd8dc97f1c2b0d02]
class RegisterClientUI--><rect codeLine="26" fill="#FEFECE" filter="url(#feeqvna7xfhqe)" height="48" id="RegisterClientUI" style="stroke:#A80036;stroke-width:1.5;" width="127" x="180.5" y="7"/><ellipse cx="195.5" cy="23" fill="#ADD1B2" rx="11" ry="11" style="stroke:#A80036;stroke-width:1.0;"/><path d="M197.8438,18.6719 C196.9063,18.2344 196.3125,18.0938 195.4375,18.0938 C192.8125,18.0938 190.8125,20.1719 190.8125,22.8906 L190.8125,24.0156 C190.8125,26.5938 192.9219,28.4844 195.8125,28.4844 C197.0313,28.4844 198.1875,28.1875 198.9375,27.6406 C199.5156,27.2344 199.8438,26.7813 199.8438,26.3906 C199.8438,25.9375 199.4531,25.5469 198.9844,25.5469 C198.7656,25.5469 198.5625,25.625 198.375,25.8125 C197.9219,26.2969 197.9219,26.2969 197.7344,26.3906 C197.3125,26.6563 196.625,26.7813 195.8594,26.7813 C193.8125,26.7813 192.5156,25.6875 192.5156,23.9844 L192.5156,22.8906 C192.5156,21.1094 193.7656,19.7969 195.5,19.7969 C196.0781,19.7969 196.6875,19.9531 197.1563,20.2031 C197.6406,20.4844 197.8125,20.7031 197.9063,21.1094 C197.9688,21.5156 198,21.6406 198.1406,21.7656 C198.2813,21.9063 198.5156,22.0156 198.7344,22.0156 C199,22.0156 199.2656,21.875 199.4375,21.6563 C199.5469,21.5 199.5781,21.3125 199.5781,20.8906 L199.5781,19.4688 C199.5781,19.0313 199.5625,18.9063 199.4688,18.75 C199.3125,18.4844 199.0313,18.3438 198.7344,18.3438 C198.4375,18.3438 198.2344,18.4375 198.0156,18.75 L197.8438,18.6719 Z " fill="#000000"/><text fill="#000000" font-family="sans-serif" font-size="12" lengthAdjust="spacing" textLength="95" x="209.5" y="27.1543">RegisterClientUI</text><line style="stroke:#A80036;stroke-width:1.5;" x1="181.5" x2="306.5" y1="39" y2="39"/><line style="stroke:#A80036;stroke-width:1.5;" x1="181.5" x2="306.5" y1="47" y2="47"/><!--MD5=[1d934105a045dbf126514c6917bd5072]
link ClientList to Client--><path codeLine="27" d="M292.309,348.121 C287.992,362.408 283.079,378.667 278.079,395.215 " fill="none" id="ClientList-to-Client" style="stroke:#A80036;stroke-width:1.0;"/><polygon fill="#FFFFFF" points="274.247,407.898,279.8119,403.312,277.719,396.4113,272.1541,400.9973,274.247,407.898" style="stroke:#A80036;stroke-width:1.0;"/><text fill="#000000" font-family="sans-serif" font-size="13" lengthAdjust="spacing" textLength="8" x="281.6806" y="368.2145">1</text><text fill="#000000" font-family="sans-serif" font-size="13" lengthAdjust="spacing" textLength="7" x="269.2112" y="397.0069">*</text><!--MD5=[ed103a8ea2b4d350bb3452ad82ebe4da]
link RegisterClientController to Client--><path codeLine="28" d="M230.74,189.388 C224.968,207.111 218.873,228.892 216,249 C209.539,294.228 212.537,344.09 218.534,387.886 " fill="none" id="RegisterClientController-to-Client" style="stroke:#A80036;stroke-width:1.0;stroke-dasharray:7.0,7.0;"/><polygon fill="none" points="225.487,387.053,221.531,407.87,211.642,389.129,225.487,387.053" style="stroke:#A80036;stroke-width:1.0;"/><!--MD5=[d17ba2de69bcbdc84560ba08c091bb6c]
link RegisterClientController to ClientList--><path codeLine="29" d="M259.735,189.091 C265.209,201.645 271.538,216.163 277.75,230.411 " fill="none" id="RegisterClientController-to-ClientList" style="stroke:#A80036;stroke-width:1.0;stroke-dasharray:7.0,7.0;"/><polygon fill="none" points="284.191,227.668,285.767,248.799,271.357,233.263,284.191,227.668" style="stroke:#A80036;stroke-width:1.0;"/><!--MD5=[98d2d934d445daef8d5bcbeea20c1f70]
link RegisterClientUI to RegisterClientController--><path codeLine="30" d="M244,55.227 C244,66.456 244,80.472 244,94.288 " fill="none" id="RegisterClientUI-to-RegisterClientController" style="stroke:#A80036;stroke-width:1.0;stroke-dasharray:7.0,7.0;"/><polygon fill="none" points="251,94.714,244,114.714,237,94.714,251,94.714" style="stroke:#A80036;stroke-width:1.0;"/><!--MD5=[3facc7d9cf1147fcacf4a1313262e1aa]
@startuml
Class "Client"{
-ccn: long
-NHSnumber: long
-birthDate: int
-sex: String
-tin: long
-phoneNumber: long
-email: String
-name: String
-client: User
+validateClient()
+Client()
+toString()
}
Class "ClientList"{
+addClient(Client)
+getClient(email)
+validateClient(Client)
+saveClient(Client)
}

Class "RegisterClientController"{
+createClient(ccn, NHSnumber, birthDate, sex, tin, phoneNumber, email, name)
+saveClient()
}
Class "RegisterClientUI"
ClientList"1"  - -o "*" Client
RegisterClientController ..|> Client
RegisterClientController ..|> ClientList
RegisterClientUI ..|> RegisterClientController
@enduml

PlantUML version 1.2021.5(Sun Apr 25 11:20:28 UTC 2021)
(GPL source distribution)
Java Runtime: Java(TM) SE Runtime Environment
JVM: Java HotSpot(TM) 64-Bit Server VM
Default Encoding: UTF-8
Language: en
Country: US
--></g></svg>