<?xml version="1.0" encoding="UTF-8" standalone="no"?><svg xmlns="http://www.w3.org/2000/svg" xmlns:xlink="http://www.w3.org/1999/xlink" contentScriptType="application/ecmascript" contentStyleType="text/css" height="789px" preserveAspectRatio="none" style="width:512px;height:789px;" version="1.1" viewBox="0 0 512 789" width="512px" zoomAndPan="magnify"><defs><filter height="300%" id="f1g76e7c5jmnl4" width="300%" x="-1" y="-1"><feGaussianBlur result="blurOut" stdDeviation="2.0"/><feColorMatrix in="blurOut" result="blurOut2" type="matrix" values="0 0 0 0 0 0 0 0 0 0 0 0 0 0 0 0 0 0 .4 0"/><feOffset dx="4.0" dy="4.0" in="blurOut2" result="blurOut3"/><feBlend in="SourceGraphic" in2="blurOut3" mode="normal"/></filter></defs><g><!--MD5=[ed6624c6556d5e7b1bd23032162d20b7]
class Client--><rect codeLine="3" fill="#FEFECE" filter="url(#f1g76e7c5jmnl4)" height="188.8516" id="Client" style="stroke:#A80036;stroke-width:1.5;" width="394" x="68.5" y="587"/><ellipse cx="244.75" cy="603" fill="#ADD1B2" rx="11" ry="11" style="stroke:#A80036;stroke-width:1.0;"/><path d="M247.0937,598.6719 C246.1562,598.2344 245.5625,598.0938 244.6875,598.0938 C242.0625,598.0938 240.0625,600.1719 240.0625,602.8906 L240.0625,604.0156 C240.0625,606.5938 242.1719,608.4844 245.0625,608.4844 C246.2812,608.4844 247.4375,608.1875 248.1875,607.6406 C248.7656,607.2344 249.0937,606.7813 249.0937,606.3906 C249.0937,605.9375 248.7031,605.5469 248.2344,605.5469 C248.0156,605.5469 247.8125,605.625 247.625,605.8125 C247.1719,606.2969 247.1719,606.2969 246.9844,606.3906 C246.5625,606.6563 245.875,606.7813 245.1094,606.7813 C243.0625,606.7813 241.7656,605.6875 241.7656,603.9844 L241.7656,602.8906 C241.7656,601.1094 243.0156,599.7969 244.75,599.7969 C245.3281,599.7969 245.9375,599.9531 246.4062,600.2031 C246.8906,600.4844 247.0625,600.7031 247.1562,601.1094 C247.2187,601.5156 247.25,601.6406 247.3906,601.7656 C247.5312,601.9063 247.7656,602.0156 247.9844,602.0156 C248.25,602.0156 248.5156,601.875 248.6875,601.6563 C248.7969,601.5 248.8281,601.3125 248.8281,600.8906 L248.8281,599.4688 C248.8281,599.0313 248.8125,598.9063 248.7187,598.75 C248.5625,598.4844 248.2812,598.3438 247.9844,598.3438 C247.6875,598.3438 247.4844,598.4375 247.2656,598.75 L247.0937,598.6719 Z " fill="#000000"/><text fill="#000000" font-family="sans-serif" font-size="12" lengthAdjust="spacing" textLength="33" x="265.25" y="607.1543">Client</text><line style="stroke:#A80036;stroke-width:1.5;" x1="69.5" x2="461.5" y1="619" y2="619"/><text fill="#000000" font-family="sans-serif" font-size="11" lengthAdjust="spacing" textLength="54" x="74.5" y="633.2104">-ccn: long</text><text fill="#000000" font-family="sans-serif" font-size="11" lengthAdjust="spacing" textLength="103" x="74.5" y="646.0151">-NHSnumber: long</text><text fill="#000000" font-family="sans-serif" font-size="11" lengthAdjust="spacing" textLength="78" x="74.5" y="658.8198">-birthDate: int</text><text fill="#000000" font-family="sans-serif" font-size="11" lengthAdjust="spacing" textLength="65" x="74.5" y="671.6245">-sex: String</text><text fill="#000000" font-family="sans-serif" font-size="11" lengthAdjust="spacing" textLength="49" x="74.5" y="684.4292">-tin: long</text><text fill="#000000" font-family="sans-serif" font-size="11" lengthAdjust="spacing" textLength="116" x="74.5" y="697.2339">-phoneNumber: long</text><text fill="#000000" font-family="sans-serif" font-size="11" lengthAdjust="spacing" textLength="76" x="74.5" y="710.0386">-email: String</text><text fill="#000000" font-family="sans-serif" font-size="11" lengthAdjust="spacing" textLength="77" x="74.5" y="722.8433">-name: String</text><text fill="#000000" font-family="sans-serif" font-size="11" lengthAdjust="spacing" textLength="68" x="74.5" y="735.6479">-client: User</text><line style="stroke:#A80036;stroke-width:1.5;" x1="69.5" x2="461.5" y1="742.2422" y2="742.2422"/><text fill="#000000" font-family="sans-serif" font-size="11" lengthAdjust="spacing" textLength="382" x="74.5" y="756.4526">+Client(ccn, nhsNumber, birthday, email, tin, phoneNumber, name)</text><text fill="#000000" font-family="sans-serif" font-size="11" lengthAdjust="spacing" textLength="61" x="74.5" y="769.2573">+toString()</text><!--MD5=[594612147f950995a18c1e6474349bc0]
class ClientList--><rect codeLine="16" fill="#FEFECE" filter="url(#f1g76e7c5jmnl4)" height="112.0234" id="ClientList" style="stroke:#A80036;stroke-width:1.5;" width="466" x="32.5" y="398"/><ellipse cx="234.75" cy="414" fill="#ADD1B2" rx="11" ry="11" style="stroke:#A80036;stroke-width:1.0;"/><path d="M237.0937,409.6719 C236.1562,409.2344 235.5625,409.0938 234.6875,409.0938 C232.0625,409.0938 230.0625,411.1719 230.0625,413.8906 L230.0625,415.0156 C230.0625,417.5938 232.1719,419.4844 235.0625,419.4844 C236.2812,419.4844 237.4375,419.1875 238.1875,418.6406 C238.7656,418.2344 239.0937,417.7813 239.0937,417.3906 C239.0937,416.9375 238.7031,416.5469 238.2344,416.5469 C238.0156,416.5469 237.8125,416.625 237.625,416.8125 C237.1719,417.2969 237.1719,417.2969 236.9844,417.3906 C236.5625,417.6563 235.875,417.7813 235.1094,417.7813 C233.0625,417.7813 231.7656,416.6875 231.7656,414.9844 L231.7656,413.8906 C231.7656,412.1094 233.0156,410.7969 234.75,410.7969 C235.3281,410.7969 235.9375,410.9531 236.4062,411.2031 C236.8906,411.4844 237.0625,411.7031 237.1562,412.1094 C237.2187,412.5156 237.25,412.6406 237.3906,412.7656 C237.5312,412.9063 237.7656,413.0156 237.9844,413.0156 C238.25,413.0156 238.5156,412.875 238.6875,412.6563 C238.7969,412.5 238.8281,412.3125 238.8281,411.8906 L238.8281,410.4688 C238.8281,410.0313 238.8125,409.9063 238.7187,409.75 C238.5625,409.4844 238.2812,409.3438 237.9844,409.3438 C237.6875,409.3438 237.4844,409.4375 237.2656,409.75 L237.0937,409.6719 Z " fill="#000000"/><text fill="#000000" font-family="sans-serif" font-size="12" lengthAdjust="spacing" textLength="53" x="255.25" y="418.1543">ClientList</text><line style="stroke:#A80036;stroke-width:1.5;" x1="33.5" x2="497.5" y1="430" y2="430"/><text fill="#000000" font-family="sans-serif" font-size="11" lengthAdjust="spacing" textLength="128" x="38.5" y="444.2104">-List&lt;Client&gt; clientList</text><line style="stroke:#A80036;stroke-width:1.5;" x1="33.5" x2="497.5" y1="450.8047" y2="450.8047"/><text fill="#000000" font-family="sans-serif" font-size="11" lengthAdjust="spacing" textLength="99" x="38.5" y="465.0151">-addClient(Client)</text><text fill="#000000" font-family="sans-serif" font-size="11" lengthAdjust="spacing" textLength="454" x="38.5" y="477.8198">+createClient(ccn, nhsNumber, birthDate, sex, email, tin, phoneNumber, name)</text><text fill="#000000" font-family="sans-serif" font-size="11" lengthAdjust="spacing" textLength="111" x="38.5" y="490.6245">+saveClient(Client)</text><text fill="#000000" font-family="sans-serif" font-size="11" lengthAdjust="spacing" textLength="94" x="38.5" y="503.4292">+printClientList()</text><!--MD5=[02e4b9b7573f1156f41e60aa5b4e25a4]
class Company--><rect codeLine="24" fill="#FEFECE" filter="url(#f1g76e7c5jmnl4)" height="73.6094" id="Company" style="stroke:#A80036;stroke-width:1.5;" width="170" x="274.5" y="263"/><ellipse cx="327.25" cy="279" fill="#ADD1B2" rx="11" ry="11" style="stroke:#A80036;stroke-width:1.0;"/><path d="M329.5938,274.6719 C328.6563,274.2344 328.0625,274.0938 327.1875,274.0938 C324.5625,274.0938 322.5625,276.1719 322.5625,278.8906 L322.5625,280.0156 C322.5625,282.5938 324.6719,284.4844 327.5625,284.4844 C328.7813,284.4844 329.9375,284.1875 330.6875,283.6406 C331.2656,283.2344 331.5938,282.7813 331.5938,282.3906 C331.5938,281.9375 331.2031,281.5469 330.7344,281.5469 C330.5156,281.5469 330.3125,281.625 330.125,281.8125 C329.6719,282.2969 329.6719,282.2969 329.4844,282.3906 C329.0625,282.6563 328.375,282.7813 327.6094,282.7813 C325.5625,282.7813 324.2656,281.6875 324.2656,279.9844 L324.2656,278.8906 C324.2656,277.1094 325.5156,275.7969 327.25,275.7969 C327.8281,275.7969 328.4375,275.9531 328.9063,276.2031 C329.3906,276.4844 329.5625,276.7031 329.6563,277.1094 C329.7188,277.5156 329.75,277.6406 329.8906,277.7656 C330.0313,277.9063 330.2656,278.0156 330.4844,278.0156 C330.75,278.0156 331.0156,277.875 331.1875,277.6563 C331.2969,277.5 331.3281,277.3125 331.3281,276.8906 L331.3281,275.4688 C331.3281,275.0313 331.3125,274.9063 331.2188,274.75 C331.0625,274.4844 330.7813,274.3438 330.4844,274.3438 C330.1875,274.3438 329.9844,274.4375 329.7656,274.75 L329.5938,274.6719 Z " fill="#000000"/><text fill="#000000" font-family="sans-serif" font-size="12" lengthAdjust="spacing" textLength="56" x="347.75" y="283.1543">Company</text><line style="stroke:#A80036;stroke-width:1.5;" x1="275.5" x2="443.5" y1="295" y2="295"/><line style="stroke:#A80036;stroke-width:1.5;" x1="275.5" x2="443.5" y1="303" y2="303"/><text fill="#000000" font-family="sans-serif" font-size="11" lengthAdjust="spacing" textLength="129" x="280.5" y="317.2104">+validateClient(Client)</text><text fill="#000000" font-family="sans-serif" font-size="11" lengthAdjust="spacing" textLength="158" x="280.5" y="330.0151">+assignClientToRole(Client)</text><!--MD5=[1a7fda4a36185bcd740bdf14b2b3a45e]
class RegisterClientController--><rect codeLine="29" fill="#FEFECE" filter="url(#f1g76e7c5jmnl4)" height="86.4141" id="RegisterClientController" style="stroke:#A80036;stroke-width:1.5;" width="469" x="7" y="116"/><ellipse cx="166.25" cy="132" fill="#ADD1B2" rx="11" ry="11" style="stroke:#A80036;stroke-width:1.0;"/><path d="M168.5938,127.6719 C167.6563,127.2344 167.0625,127.0938 166.1875,127.0938 C163.5625,127.0938 161.5625,129.1719 161.5625,131.8906 L161.5625,133.0156 C161.5625,135.5938 163.6719,137.4844 166.5625,137.4844 C167.7813,137.4844 168.9375,137.1875 169.6875,136.6406 C170.2656,136.2344 170.5938,135.7813 170.5938,135.3906 C170.5938,134.9375 170.2031,134.5469 169.7344,134.5469 C169.5156,134.5469 169.3125,134.625 169.125,134.8125 C168.6719,135.2969 168.6719,135.2969 168.4844,135.3906 C168.0625,135.6563 167.375,135.7813 166.6094,135.7813 C164.5625,135.7813 163.2656,134.6875 163.2656,132.9844 L163.2656,131.8906 C163.2656,130.1094 164.5156,128.7969 166.25,128.7969 C166.8281,128.7969 167.4375,128.9531 167.9063,129.2031 C168.3906,129.4844 168.5625,129.7031 168.6563,130.1094 C168.7188,130.5156 168.75,130.6406 168.8906,130.7656 C169.0313,130.9063 169.2656,131.0156 169.4844,131.0156 C169.75,131.0156 170.0156,130.875 170.1875,130.6563 C170.2969,130.5 170.3281,130.3125 170.3281,129.8906 L170.3281,128.4688 C170.3281,128.0313 170.3125,127.9063 170.2188,127.75 C170.0625,127.4844 169.7813,127.3438 169.4844,127.3438 C169.1875,127.3438 168.9844,127.4375 168.7656,127.75 L168.5938,127.6719 Z " fill="#000000"/><text fill="#000000" font-family="sans-serif" font-size="12" lengthAdjust="spacing" textLength="142" x="186.75" y="136.1543">RegisterClientController</text><line style="stroke:#A80036;stroke-width:1.5;" x1="8" x2="475" y1="148" y2="148"/><line style="stroke:#A80036;stroke-width:1.5;" x1="8" x2="475" y1="156" y2="156"/><text fill="#000000" font-family="sans-serif" font-size="11" lengthAdjust="spacing" textLength="457" x="13" y="170.2104">+createClient(ccn, NHSnumber, birthDate, sex, tin, phoneNumber, email, name)</text><text fill="#000000" font-family="sans-serif" font-size="11" lengthAdjust="spacing" textLength="78" x="13" y="183.0151">+saveClient()</text><text fill="#000000" font-family="sans-serif" font-size="11" lengthAdjust="spacing" textLength="94" x="13" y="195.8198">+printClientList()</text><!--MD5=[71152100d89f377ebd8dc97f1c2b0d02]
class RegisterClientUI--><rect codeLine="35" fill="#FEFECE" filter="url(#f1g76e7c5jmnl4)" height="48" id="RegisterClientUI" style="stroke:#A80036;stroke-width:1.5;" width="127" x="178" y="7"/><ellipse cx="193" cy="23" fill="#ADD1B2" rx="11" ry="11" style="stroke:#A80036;stroke-width:1.0;"/><path d="M195.3437,18.6719 C194.4062,18.2344 193.8125,18.0938 192.9375,18.0938 C190.3125,18.0938 188.3125,20.1719 188.3125,22.8906 L188.3125,24.0156 C188.3125,26.5938 190.4219,28.4844 193.3125,28.4844 C194.5312,28.4844 195.6875,28.1875 196.4375,27.6406 C197.0156,27.2344 197.3437,26.7813 197.3437,26.3906 C197.3437,25.9375 196.9531,25.5469 196.4844,25.5469 C196.2656,25.5469 196.0625,25.625 195.875,25.8125 C195.4219,26.2969 195.4219,26.2969 195.2344,26.3906 C194.8125,26.6563 194.125,26.7813 193.3594,26.7813 C191.3125,26.7813 190.0156,25.6875 190.0156,23.9844 L190.0156,22.8906 C190.0156,21.1094 191.2656,19.7969 193,19.7969 C193.5781,19.7969 194.1875,19.9531 194.6562,20.2031 C195.1406,20.4844 195.3125,20.7031 195.4062,21.1094 C195.4687,21.5156 195.5,21.6406 195.6406,21.7656 C195.7812,21.9063 196.0156,22.0156 196.2344,22.0156 C196.5,22.0156 196.7656,21.875 196.9375,21.6563 C197.0469,21.5 197.0781,21.3125 197.0781,20.8906 L197.0781,19.4688 C197.0781,19.0313 197.0625,18.9063 196.9687,18.75 C196.8125,18.4844 196.5312,18.3438 196.2344,18.3438 C195.9375,18.3438 195.7344,18.4375 195.5156,18.75 L195.3437,18.6719 Z " fill="#000000"/><text fill="#000000" font-family="sans-serif" font-size="12" lengthAdjust="spacing" textLength="95" x="207" y="27.1543">RegisterClientUI</text><line style="stroke:#A80036;stroke-width:1.5;" x1="179" x2="304" y1="39" y2="39"/><line style="stroke:#A80036;stroke-width:1.5;" x1="179" x2="304" y1="47" y2="47"/><!--MD5=[ab179af0153bf609fe4891204b6ca111]
link ClientList to Client--><path codeLine="36" d="M265.5,510.164 C265.5,531.71 265.5,557.091 265.5,581.588 " fill="none" id="ClientList-to-Client" style="stroke:#A80036;stroke-width:1.0;"/><polygon fill="#A80036" points="265.5,586.8,269.5,577.8,265.5,581.8,261.5,577.8,265.5,586.8" style="stroke:#A80036;stroke-width:1.0;"/><text fill="#000000" font-family="sans-serif" font-size="13" lengthAdjust="spacing" textLength="54" x="266.5" y="553.0669">contains</text><text fill="#000000" font-family="sans-serif" font-size="13" lengthAdjust="spacing" textLength="8" x="257.0125" y="529.9966">1</text><text fill="#000000" font-family="sans-serif" font-size="13" lengthAdjust="spacing" textLength="7" x="258.232" y="576.053">*</text><!--MD5=[198be3749d42ca56b2a20022cdc44bdd]
link RegisterClientController to Company--><path codeLine="37" d="M277.224,202.082 C292.485,220.059 310.221,240.951 325.31,258.725 " fill="none" id="RegisterClientController-to-Company" style="stroke:#A80036;stroke-width:1.0;stroke-dasharray:7.0,7.0;"/><polygon fill="#A80036" points="328.686,262.702,325.9107,253.2523,325.4501,258.8903,319.812,258.4297,328.686,262.702" style="stroke:#A80036;stroke-width:1.0;"/><!--MD5=[433bae7a5dfcd6b08dea0666b8136b9d]
link RegisterClientController to ClientList--><path codeLine="38" d="M244.964,202.292 C249.066,252.365 255.926,336.114 260.578,392.906 " fill="none" id="RegisterClientController-to-ClientList" style="stroke:#A80036;stroke-width:1.0;stroke-dasharray:7.0,7.0;"/><polygon fill="#A80036" points="260.993,397.973,264.2443,388.6763,260.5845,392.9897,256.2711,389.3299,260.993,397.973" style="stroke:#A80036;stroke-width:1.0;"/><!--MD5=[9dec42a3b1fb794d839b2c916f9b8879]
link Company to ClientList--><path codeLine="39" d="M337.223,337.022 C326.775,353.917 314.048,374.496 302.232,393.603 " fill="none" id="Company-to-ClientList" style="stroke:#A80036;stroke-width:1.0;stroke-dasharray:7.0,7.0;"/><polygon fill="#A80036" points="299.568,397.911,307.7045,392.3615,302.1984,393.6589,300.9011,388.1528,299.568,397.911" style="stroke:#A80036;stroke-width:1.0;"/><!--MD5=[98d2d934d445daef8d5bcbeea20c1f70]
link RegisterClientUI to RegisterClientController--><path codeLine="40" d="M241.5,55.11 C241.5,70.631 241.5,91.639 241.5,110.625 " fill="none" id="RegisterClientUI-to-RegisterClientController" style="stroke:#A80036;stroke-width:1.0;stroke-dasharray:7.0,7.0;"/><polygon fill="#A80036" points="241.5,115.921,245.5,106.921,241.5,110.921,237.5,106.921,241.5,115.921" style="stroke:#A80036;stroke-width:1.0;"/><!--MD5=[d81e24800e37e81ba0dfc4937b7e1321]
@startuml
skinparam classAttributeIconSize 0

Class "Client"{
-ccn: long
-NHSnumber: long
-birthDate: int
-sex: String
-tin: long
-phoneNumber: long
-email: String
-name: String
-client: User
+Client(ccn, nhsNumber, birthday, email, tin, phoneNumber, name)
+toString()
}
Class "ClientList"{
-List<Client> clientList
-addClient(Client)
+createClient(ccn, nhsNumber, birthDate, sex, email, tin, phoneNumber, name)
+saveClient(Client)
+printClientList()
}

Class "Company"{
+validateClient(Client)
+assignClientToRole(Client)
}

Class "RegisterClientController"{
+createClient(ccn, NHSnumber, birthDate, sex, tin, phoneNumber, email, name)
+saveClient()
+printClientList()
}

Class "RegisterClientUI"
ClientList"1"  - -> "*" Client : contains
RegisterClientController ..> Company
RegisterClientController ..> ClientList
Company ..> ClientList
RegisterClientUI ..> RegisterClientController
@enduml

PlantUML version 1.2021.6beta2(Unknown compile time)
(GPL source distribution)
Java Runtime: Java(TM) SE Runtime Environment
JVM: Java HotSpot(TM) 64-Bit Server VM
Default Encoding: UTF-8
Language: en
Country: US
--></g></svg>