<?xml version="1.0" encoding="UTF-8" standalone="no"?><svg xmlns="http://www.w3.org/2000/svg" xmlns:xlink="http://www.w3.org/1999/xlink" contentScriptType="application/ecmascript" contentStyleType="text/css" height="1050px" preserveAspectRatio="none" style="width:517px;height:1050px;" version="1.1" viewBox="0 0 517 1050" width="517px" zoomAndPan="magnify"><defs><filter height="300%" id="f2njcfx6nqrcu" width="300%" x="-1" y="-1"><feGaussianBlur result="blurOut" stdDeviation="2.0"/><feColorMatrix in="blurOut" result="blurOut2" type="matrix" values="0 0 0 0 0 0 0 0 0 0 0 0 0 0 0 0 0 0 .4 0"/><feOffset dx="4.0" dy="4.0" in="blurOut2" result="blurOut3"/><feBlend in="SourceGraphic" in2="blurOut3" mode="normal"/></filter></defs><g><!--MD5=[ed6624c6556d5e7b1bd23032162d20b7]
class Client--><rect codeLine="3" fill="#FEFECE" filter="url(#f2njcfx6nqrcu)" height="304.0938" id="Client" style="stroke:#A80036;stroke-width:1.5;" width="429" x="56" y="732"/><ellipse cx="249.75" cy="748" fill="#ADD1B2" rx="11" ry="11" style="stroke:#A80036;stroke-width:1.0;"/><path d="M252.0937,743.6719 C251.1562,743.2344 250.5625,743.0938 249.6875,743.0938 C247.0625,743.0938 245.0625,745.1719 245.0625,747.8906 L245.0625,749.0156 C245.0625,751.5938 247.1719,753.4844 250.0625,753.4844 C251.2812,753.4844 252.4375,753.1875 253.1875,752.6406 C253.7656,752.2344 254.0937,751.7813 254.0937,751.3906 C254.0937,750.9375 253.7031,750.5469 253.2344,750.5469 C253.0156,750.5469 252.8125,750.625 252.625,750.8125 C252.1719,751.2969 252.1719,751.2969 251.9844,751.3906 C251.5625,751.6563 250.875,751.7813 250.1094,751.7813 C248.0625,751.7813 246.7656,750.6875 246.7656,748.9844 L246.7656,747.8906 C246.7656,746.1094 248.0156,744.7969 249.75,744.7969 C250.3281,744.7969 250.9375,744.9531 251.4062,745.2031 C251.8906,745.4844 252.0625,745.7031 252.1562,746.1094 C252.2187,746.5156 252.25,746.6406 252.3906,746.7656 C252.5312,746.9063 252.7656,747.0156 252.9844,747.0156 C253.25,747.0156 253.5156,746.875 253.6875,746.6563 C253.7969,746.5 253.8281,746.3125 253.8281,745.8906 L253.8281,744.4688 C253.8281,744.0313 253.8125,743.9063 253.7187,743.75 C253.5625,743.4844 253.2812,743.3438 252.9844,743.3438 C252.6875,743.3438 252.4844,743.4375 252.2656,743.75 L252.0937,743.6719 Z " fill="#000000"/><text fill="#000000" font-family="sans-serif" font-size="12" lengthAdjust="spacing" textLength="33" x="270.25" y="752.1543">Client</text><line style="stroke:#A80036;stroke-width:1.5;" x1="57" x2="484" y1="764" y2="764"/><text fill="#000000" font-family="sans-serif" font-size="11" lengthAdjust="spacing" textLength="54" x="62" y="778.2104">-ccn: long</text><text fill="#000000" font-family="sans-serif" font-size="11" lengthAdjust="spacing" textLength="103" x="62" y="791.0151">-NHSnumber: long</text><text fill="#000000" font-family="sans-serif" font-size="11" lengthAdjust="spacing" textLength="78" x="62" y="803.8198">-birthDate: int</text><text fill="#000000" font-family="sans-serif" font-size="11" lengthAdjust="spacing" textLength="65" x="62" y="816.6245">-sex: String</text><text fill="#000000" font-family="sans-serif" font-size="11" lengthAdjust="spacing" textLength="49" x="62" y="829.4292">-tin: long</text><text fill="#000000" font-family="sans-serif" font-size="11" lengthAdjust="spacing" textLength="116" x="62" y="842.2339">-phoneNumber: long</text><text fill="#000000" font-family="sans-serif" font-size="11" lengthAdjust="spacing" textLength="76" x="62" y="855.0386">-email: String</text><text fill="#000000" font-family="sans-serif" font-size="11" lengthAdjust="spacing" textLength="77" x="62" y="867.8433">-name: String</text><text fill="#000000" font-family="sans-serif" font-size="11" lengthAdjust="spacing" textLength="68" x="62" y="880.6479">-client: User</text><line style="stroke:#A80036;stroke-width:1.5;" x1="57" x2="484" y1="887.2422" y2="887.2422"/><text fill="#000000" font-family="sans-serif" font-size="11" lengthAdjust="spacing" textLength="417" x="62" y="901.4526">+Client(ccn, nhsNumber, birthDate, sex, email, tin, phoneNumber, name)</text><text fill="#000000" font-family="sans-serif" font-size="11" lengthAdjust="spacing" textLength="389" x="62" y="914.2573">+Client(ccn, nhsNumber, birthDate, email, tin, phoneNumber, name)</text><text fill="#000000" font-family="sans-serif" font-size="11" lengthAdjust="spacing" textLength="61" x="62" y="927.062">+toString()</text><text fill="#000000" font-family="sans-serif" font-size="11" lengthAdjust="spacing" textLength="86" x="62" y="939.8667">+equals(client)</text><text fill="#000000" font-family="sans-serif" font-size="11" lengthAdjust="spacing" textLength="84" x="62" y="952.6714">+validateCcn()</text><text fill="#000000" font-family="sans-serif" font-size="11" lengthAdjust="spacing" textLength="129" x="62" y="965.4761">+validateNhsNumber()</text><text fill="#000000" font-family="sans-serif" font-size="11" lengthAdjust="spacing" textLength="117" x="62" y="978.2808">+validateBirthDate()</text><text fill="#000000" font-family="sans-serif" font-size="11" lengthAdjust="spacing" textLength="80" x="62" y="991.0854">+validateTin()</text><text fill="#000000" font-family="sans-serif" font-size="11" lengthAdjust="spacing" textLength="86" x="62" y="1003.8901">+validateSex()</text><text fill="#000000" font-family="sans-serif" font-size="11" lengthAdjust="spacing" textLength="143" x="62" y="1016.6948">+validatePhoneNumber()</text><text fill="#000000" font-family="sans-serif" font-size="11" lengthAdjust="spacing" textLength="97" x="62" y="1029.4995">+validateName()</text><!--MD5=[594612147f950995a18c1e6474349bc0]
class ClientList--><rect codeLine="26" fill="#FEFECE" filter="url(#f2njcfx6nqrcu)" height="124.8281" id="ClientList" style="stroke:#A80036;stroke-width:1.5;" width="466" x="37.5" y="530"/><ellipse cx="239.75" cy="546" fill="#ADD1B2" rx="11" ry="11" style="stroke:#A80036;stroke-width:1.0;"/><path d="M242.0937,541.6719 C241.1562,541.2344 240.5625,541.0938 239.6875,541.0938 C237.0625,541.0938 235.0625,543.1719 235.0625,545.8906 L235.0625,547.0156 C235.0625,549.5938 237.1719,551.4844 240.0625,551.4844 C241.2812,551.4844 242.4375,551.1875 243.1875,550.6406 C243.7656,550.2344 244.0937,549.7813 244.0937,549.3906 C244.0937,548.9375 243.7031,548.5469 243.2344,548.5469 C243.0156,548.5469 242.8125,548.625 242.625,548.8125 C242.1719,549.2969 242.1719,549.2969 241.9844,549.3906 C241.5625,549.6563 240.875,549.7813 240.1094,549.7813 C238.0625,549.7813 236.7656,548.6875 236.7656,546.9844 L236.7656,545.8906 C236.7656,544.1094 238.0156,542.7969 239.75,542.7969 C240.3281,542.7969 240.9375,542.9531 241.4062,543.2031 C241.8906,543.4844 242.0625,543.7031 242.1562,544.1094 C242.2187,544.5156 242.25,544.6406 242.3906,544.7656 C242.5312,544.9063 242.7656,545.0156 242.9844,545.0156 C243.25,545.0156 243.5156,544.875 243.6875,544.6563 C243.7969,544.5 243.8281,544.3125 243.8281,543.8906 L243.8281,542.4688 C243.8281,542.0313 243.8125,541.9063 243.7187,541.75 C243.5625,541.4844 243.2812,541.3438 242.9844,541.3438 C242.6875,541.3438 242.4844,541.4375 242.2656,541.75 L242.0937,541.6719 Z " fill="#000000"/><text fill="#000000" font-family="sans-serif" font-size="12" lengthAdjust="spacing" textLength="53" x="260.25" y="550.1543">ClientList</text><line style="stroke:#A80036;stroke-width:1.5;" x1="38.5" x2="502.5" y1="562" y2="562"/><text fill="#000000" font-family="sans-serif" font-size="11" lengthAdjust="spacing" textLength="128" x="43.5" y="576.2104">-List&lt;Client&gt; clientList</text><line style="stroke:#A80036;stroke-width:1.5;" x1="38.5" x2="502.5" y1="582.8047" y2="582.8047"/><text fill="#000000" font-family="sans-serif" font-size="11" lengthAdjust="spacing" textLength="454" x="43.5" y="597.0151">+createClient(ccn, nhsNumber, birthDate, sex, email, tin, phoneNumber, name)</text><text fill="#000000" font-family="sans-serif" font-size="11" lengthAdjust="spacing" textLength="426" x="43.5" y="609.8198">+createClient(ccn, nhsNumber, birthDate, email, tin, phoneNumber, name)</text><text fill="#000000" font-family="sans-serif" font-size="11" lengthAdjust="spacing" textLength="66" x="43.5" y="622.6245">-add(Client)</text><text fill="#000000" font-family="sans-serif" font-size="11" lengthAdjust="spacing" textLength="109" x="43.5" y="635.4292">+saveClient(client)</text><text fill="#000000" font-family="sans-serif" font-size="11" lengthAdjust="spacing" textLength="119" x="43.5" y="648.2339">+isClientInList(client)</text><!--MD5=[02e4b9b7573f1156f41e60aa5b4e25a4]
class Company--><rect codeLine="35" fill="#FEFECE" filter="url(#f2njcfx6nqrcu)" height="73.6094" id="Company" style="stroke:#A80036;stroke-width:1.5;" width="170" x="274.5" y="379"/><ellipse cx="327.25" cy="395" fill="#ADD1B2" rx="11" ry="11" style="stroke:#A80036;stroke-width:1.0;"/><path d="M329.5938,390.6719 C328.6563,390.2344 328.0625,390.0938 327.1875,390.0938 C324.5625,390.0938 322.5625,392.1719 322.5625,394.8906 L322.5625,396.0156 C322.5625,398.5938 324.6719,400.4844 327.5625,400.4844 C328.7813,400.4844 329.9375,400.1875 330.6875,399.6406 C331.2656,399.2344 331.5938,398.7813 331.5938,398.3906 C331.5938,397.9375 331.2031,397.5469 330.7344,397.5469 C330.5156,397.5469 330.3125,397.625 330.125,397.8125 C329.6719,398.2969 329.6719,398.2969 329.4844,398.3906 C329.0625,398.6563 328.375,398.7813 327.6094,398.7813 C325.5625,398.7813 324.2656,397.6875 324.2656,395.9844 L324.2656,394.8906 C324.2656,393.1094 325.5156,391.7969 327.25,391.7969 C327.8281,391.7969 328.4375,391.9531 328.9063,392.2031 C329.3906,392.4844 329.5625,392.7031 329.6563,393.1094 C329.7188,393.5156 329.75,393.6406 329.8906,393.7656 C330.0313,393.9063 330.2656,394.0156 330.4844,394.0156 C330.75,394.0156 331.0156,393.875 331.1875,393.6563 C331.2969,393.5 331.3281,393.3125 331.3281,392.8906 L331.3281,391.4688 C331.3281,391.0313 331.3125,390.9063 331.2188,390.75 C331.0625,390.4844 330.7813,390.3438 330.4844,390.3438 C330.1875,390.3438 329.9844,390.4375 329.7656,390.75 L329.5938,390.6719 Z " fill="#000000"/><text fill="#000000" font-family="sans-serif" font-size="12" lengthAdjust="spacing" textLength="56" x="347.75" y="399.1543">Company</text><line style="stroke:#A80036;stroke-width:1.5;" x1="275.5" x2="443.5" y1="411" y2="411"/><line style="stroke:#A80036;stroke-width:1.5;" x1="275.5" x2="443.5" y1="419" y2="419"/><text fill="#000000" font-family="sans-serif" font-size="11" lengthAdjust="spacing" textLength="129" x="280.5" y="433.2104">+validateClient(Client)</text><text fill="#000000" font-family="sans-serif" font-size="11" lengthAdjust="spacing" textLength="158" x="280.5" y="446.0151">+assignClientToRole(Client)</text><!--MD5=[1a7fda4a36185bcd740bdf14b2b3a45e]
class RegisterClientController--><rect codeLine="40" fill="#FEFECE" filter="url(#f2njcfx6nqrcu)" height="201.6563" id="RegisterClientController" style="stroke:#A80036;stroke-width:1.5;" width="469" x="7" y="116"/><ellipse cx="166.25" cy="132" fill="#ADD1B2" rx="11" ry="11" style="stroke:#A80036;stroke-width:1.0;"/><path d="M168.5938,127.6719 C167.6563,127.2344 167.0625,127.0938 166.1875,127.0938 C163.5625,127.0938 161.5625,129.1719 161.5625,131.8906 L161.5625,133.0156 C161.5625,135.5938 163.6719,137.4844 166.5625,137.4844 C167.7813,137.4844 168.9375,137.1875 169.6875,136.6406 C170.2656,136.2344 170.5938,135.7813 170.5938,135.3906 C170.5938,134.9375 170.2031,134.5469 169.7344,134.5469 C169.5156,134.5469 169.3125,134.625 169.125,134.8125 C168.6719,135.2969 168.6719,135.2969 168.4844,135.3906 C168.0625,135.6563 167.375,135.7813 166.6094,135.7813 C164.5625,135.7813 163.2656,134.6875 163.2656,132.9844 L163.2656,131.8906 C163.2656,130.1094 164.5156,128.7969 166.25,128.7969 C166.8281,128.7969 167.4375,128.9531 167.9063,129.2031 C168.3906,129.4844 168.5625,129.7031 168.6563,130.1094 C168.7188,130.5156 168.75,130.6406 168.8906,130.7656 C169.0313,130.9063 169.2656,131.0156 169.4844,131.0156 C169.75,131.0156 170.0156,130.875 170.1875,130.6563 C170.2969,130.5 170.3281,130.3125 170.3281,129.8906 L170.3281,128.4688 C170.3281,128.0313 170.3125,127.9063 170.2188,127.75 C170.0625,127.4844 169.7813,127.3438 169.4844,127.3438 C169.1875,127.3438 168.9844,127.4375 168.7656,127.75 L168.5938,127.6719 Z " fill="#000000"/><text fill="#000000" font-family="sans-serif" font-size="12" lengthAdjust="spacing" textLength="142" x="186.75" y="136.1543">RegisterClientController</text><line style="stroke:#A80036;stroke-width:1.5;" x1="8" x2="475" y1="148" y2="148"/><line style="stroke:#A80036;stroke-width:1.5;" x1="8" x2="475" y1="156" y2="156"/><text fill="#000000" font-family="sans-serif" font-size="11" lengthAdjust="spacing" textLength="457" x="13" y="170.2104">+createClient(ccn, NHSnumber, birthDate, sex, tin, phoneNumber, email, name)</text><text fill="#000000" font-family="sans-serif" font-size="11" lengthAdjust="spacing" textLength="426" x="13" y="183.0151">+createClient(ccn, nhsNumber, birthDate, email, tin, phoneNumber, name)</text><text fill="#000000" font-family="sans-serif" font-size="11" lengthAdjust="spacing" textLength="78" x="13" y="195.8198">+saveClient()</text><text fill="#000000" font-family="sans-serif" font-size="11" lengthAdjust="spacing" textLength="79" x="13" y="208.6245">+showClient()</text><text fill="#000000" font-family="sans-serif" font-size="11" lengthAdjust="spacing" textLength="84" x="13" y="221.4292">+validateCcn()</text><text fill="#000000" font-family="sans-serif" font-size="11" lengthAdjust="spacing" textLength="129" x="13" y="234.2339">+validateNhsNumber()</text><text fill="#000000" font-family="sans-serif" font-size="11" lengthAdjust="spacing" textLength="117" x="13" y="247.0386">+validateBirthDate()</text><text fill="#000000" font-family="sans-serif" font-size="11" lengthAdjust="spacing" textLength="80" x="13" y="259.8433">+validateTin()</text><text fill="#000000" font-family="sans-serif" font-size="11" lengthAdjust="spacing" textLength="86" x="13" y="272.6479">+validateSex()</text><text fill="#000000" font-family="sans-serif" font-size="11" lengthAdjust="spacing" textLength="143" x="13" y="285.4526">+validatePhoneNumber()</text><text fill="#000000" font-family="sans-serif" font-size="11" lengthAdjust="spacing" textLength="97" x="13" y="298.2573">+validateName()</text><text fill="#000000" font-family="sans-serif" font-size="11" lengthAdjust="spacing" textLength="119" x="13" y="311.062">+isClientInList(client)</text><!--MD5=[71152100d89f377ebd8dc97f1c2b0d02]
class RegisterClientUI--><rect codeLine="55" fill="#FEFECE" filter="url(#f2njcfx6nqrcu)" height="48" id="RegisterClientUI" style="stroke:#A80036;stroke-width:1.5;" width="127" x="178" y="7"/><ellipse cx="193" cy="23" fill="#ADD1B2" rx="11" ry="11" style="stroke:#A80036;stroke-width:1.0;"/><path d="M195.3437,18.6719 C194.4062,18.2344 193.8125,18.0938 192.9375,18.0938 C190.3125,18.0938 188.3125,20.1719 188.3125,22.8906 L188.3125,24.0156 C188.3125,26.5938 190.4219,28.4844 193.3125,28.4844 C194.5312,28.4844 195.6875,28.1875 196.4375,27.6406 C197.0156,27.2344 197.3437,26.7813 197.3437,26.3906 C197.3437,25.9375 196.9531,25.5469 196.4844,25.5469 C196.2656,25.5469 196.0625,25.625 195.875,25.8125 C195.4219,26.2969 195.4219,26.2969 195.2344,26.3906 C194.8125,26.6563 194.125,26.7813 193.3594,26.7813 C191.3125,26.7813 190.0156,25.6875 190.0156,23.9844 L190.0156,22.8906 C190.0156,21.1094 191.2656,19.7969 193,19.7969 C193.5781,19.7969 194.1875,19.9531 194.6562,20.2031 C195.1406,20.4844 195.3125,20.7031 195.4062,21.1094 C195.4687,21.5156 195.5,21.6406 195.6406,21.7656 C195.7812,21.9063 196.0156,22.0156 196.2344,22.0156 C196.5,22.0156 196.7656,21.875 196.9375,21.6563 C197.0469,21.5 197.0781,21.3125 197.0781,20.8906 L197.0781,19.4688 C197.0781,19.0313 197.0625,18.9063 196.9687,18.75 C196.8125,18.4844 196.5312,18.3438 196.2344,18.3438 C195.9375,18.3438 195.7344,18.4375 195.5156,18.75 L195.3437,18.6719 Z " fill="#000000"/><text fill="#000000" font-family="sans-serif" font-size="12" lengthAdjust="spacing" textLength="95" x="207" y="27.1543">RegisterClientUI</text><line style="stroke:#A80036;stroke-width:1.5;" x1="179" x2="304" y1="39" y2="39"/><line style="stroke:#A80036;stroke-width:1.5;" x1="179" x2="304" y1="47" y2="47"/><!--MD5=[ab179af0153bf609fe4891204b6ca111]
link ClientList to Client--><path codeLine="56" d="M270.5,655.25 C270.5,676.5 270.5,701.356 270.5,726.686 " fill="none" id="ClientList-to-Client" style="stroke:#A80036;stroke-width:1.0;"/><polygon fill="#A80036" points="270.5,731.758,274.5,722.758,270.5,726.758,266.5,722.758,270.5,731.758" style="stroke:#A80036;stroke-width:1.0;"/><text fill="#000000" font-family="sans-serif" font-size="13" lengthAdjust="spacing" textLength="54" x="271.5" y="698.0669">contains</text><text fill="#000000" font-family="sans-serif" font-size="13" lengthAdjust="spacing" textLength="8" x="262.0625" y="675.0172">1</text><text fill="#000000" font-family="sans-serif" font-size="13" lengthAdjust="spacing" textLength="7" x="263.3305" y="721.0883">*</text><!--MD5=[198be3749d42ca56b2a20022cdc44bdd]
link RegisterClientController to Company--><path codeLine="57" d="M301.537,318.231 C313.402,338.041 325.212,357.756 335.045,374.173 " fill="none" id="RegisterClientController-to-Company" style="stroke:#A80036;stroke-width:1.0;stroke-dasharray:7.0,7.0;"/><polygon fill="#A80036" points="337.765,378.713,336.5712,368.9368,335.1955,374.4238,329.7085,373.048,337.765,378.713" style="stroke:#A80036;stroke-width:1.0;"/><!--MD5=[433bae7a5dfcd6b08dea0666b8136b9d]
link RegisterClientController to ClientList--><path codeLine="58" d="M247.748,318.099 C250.5,359.825 253.92,408.776 257.5,453 C259.393,476.387 261.722,501.97 263.883,524.714 " fill="none" id="RegisterClientController-to-ClientList" style="stroke:#A80036;stroke-width:1.0;stroke-dasharray:7.0,7.0;"/><polygon fill="#A80036" points="264.37,529.823,267.4982,520.4841,263.8957,524.8455,259.5343,521.243,264.37,529.823" style="stroke:#A80036;stroke-width:1.0;"/><!--MD5=[9dec42a3b1fb794d839b2c916f9b8879]
link Company to ClientList--><path codeLine="59" d="M341.059,453.157 C330.418,474.02 316.708,500.901 304.207,525.412 " fill="none" id="Company-to-ClientList" style="stroke:#A80036;stroke-width:1.0;"/><polygon fill="#A80036" points="301.888,529.959,309.5416,523.7604,304.1606,525.5053,302.4156,520.1243,301.888,529.959" style="stroke:#A80036;stroke-width:1.0;"/><text fill="#000000" font-family="sans-serif" font-size="13" lengthAdjust="spacing" textLength="30" x="326.5" y="496.0669">uses</text><text fill="#000000" font-family="sans-serif" font-size="13" lengthAdjust="spacing" textLength="8" x="329.3422" y="472.6636">1</text><text fill="#000000" font-family="sans-serif" font-size="13" lengthAdjust="spacing" textLength="8" x="297.0547" y="518.945">1</text><!--MD5=[98d2d934d445daef8d5bcbeea20c1f70]
link RegisterClientUI to RegisterClientController--><path codeLine="60" d="M241.5,55.304 C241.5,69.896 241.5,89.846 241.5,110.728 " fill="none" id="RegisterClientUI-to-RegisterClientController" style="stroke:#A80036;stroke-width:1.0;stroke-dasharray:7.0,7.0;"/><polygon fill="#A80036" points="241.5,115.766,245.5,106.766,241.5,110.766,237.5,106.766,241.5,115.766" style="stroke:#A80036;stroke-width:1.0;"/><!--MD5=[06d3bf013f9dfc99573d1b4278fe0ec2]
@startuml
skinparam classAttributeIconSize 0

Class "Client"{
-ccn: long
-NHSnumber: long
-birthDate: int
-sex: String
-tin: long
-phoneNumber: long
-email: String
-name: String
-client: User
+Client(ccn, nhsNumber, birthDate, sex, email, tin, phoneNumber, name)
+Client(ccn, nhsNumber, birthDate, email, tin, phoneNumber, name)
+toString()
+equals(client)
+validateCcn()
+validateNhsNumber()
+validateBirthDate()
+validateTin()
+validateSex()
+validatePhoneNumber()
+validateName()

}
Class "ClientList"{
-List<Client> clientList
+createClient(ccn, nhsNumber, birthDate, sex, email, tin, phoneNumber, name)
+createClient(ccn, nhsNumber, birthDate, email, tin, phoneNumber, name)
-add(Client)
+saveClient(client)
+isClientInList(client)
}

Class "Company"{
+validateClient(Client)
+assignClientToRole(Client)
}

Class "RegisterClientController"{
+createClient(ccn, NHSnumber, birthDate, sex, tin, phoneNumber, email, name)
+createClient(ccn, nhsNumber, birthDate, email, tin, phoneNumber, name)
+saveClient()
+showClient()
+validateCcn()
+validateNhsNumber()
+validateBirthDate()
+validateTin()
+validateSex()
+validatePhoneNumber()
+validateName()
+isClientInList(client)
}

Class "RegisterClientUI"
ClientList"1"  - -> "*" Client : contains
RegisterClientController ..> Company
RegisterClientController ..> ClientList
Company "1" - -> "1" ClientList : uses
RegisterClientUI ..> RegisterClientController
@enduml

PlantUML version 1.2021.6beta4(Unknown compile time)
(GPL source distribution)
Java Runtime: Java(TM) SE Runtime Environment
JVM: Java HotSpot(TM) 64-Bit Server VM
Default Encoding: UTF-8
Language: en
Country: US
--></g></svg>