<?xml version="1.0" encoding="UTF-8" standalone="no"?><svg xmlns="http://www.w3.org/2000/svg" xmlns:xlink="http://www.w3.org/1999/xlink" contentScriptType="application/ecmascript" contentStyleType="text/css" height="732px" preserveAspectRatio="none" style="width:1690px;height:732px;" version="1.1" viewBox="0 0 1690 732" width="1690px" zoomAndPan="magnify"><defs><filter height="300%" id="frbe2n853eq8k" width="300%" x="-1" y="-1"><feGaussianBlur result="blurOut" stdDeviation="2.0"/><feColorMatrix in="blurOut" result="blurOut2" type="matrix" values="0 0 0 0 0 0 0 0 0 0 0 0 0 0 0 0 0 0 .4 0"/><feOffset dx="4.0" dy="4.0" in="blurOut2" result="blurOut3"/><feBlend in="SourceGraphic" in2="blurOut3" mode="normal"/></filter></defs><g><rect fill="#FFFFFF" filter="url(#frbe2n853eq8k)" height="541.0234" style="stroke:#A80036;stroke-width:1.0;" width="10" x="49.5" y="98.2969"/><rect fill="#FFFFFF" filter="url(#frbe2n853eq8k)" height="29.1328" style="stroke:#A80036;stroke-width:1.0;" width="10" x="373.5" y="119.4297"/><rect fill="#FFFFFF" filter="url(#frbe2n853eq8k)" height="191.8281" style="stroke:#A80036;stroke-width:1.0;" width="10" x="373.5" y="177.6953"/><rect fill="#FFFFFF" filter="url(#frbe2n853eq8k)" height="231.6641" style="stroke:#A80036;stroke-width:1.0;" width="10" x="373.5" y="398.6563"/><rect fill="#FFFFFF" filter="url(#frbe2n853eq8k)" height="133.5625" style="stroke:#A80036;stroke-width:1.0;" width="10" x="925.5" y="206.8281"/><rect fill="#FFFFFF" filter="url(#frbe2n853eq8k)" height="166.3984" style="stroke:#A80036;stroke-width:1.0;" width="10" x="925.5" y="427.7891"/><rect fill="#FFFFFF" filter="url(#frbe2n853eq8k)" height="29.1328" style="stroke:#A80036;stroke-width:1.0;" width="10" x="1494.5" y="235.9609"/><rect fill="#FFFFFF" filter="url(#frbe2n853eq8k)" height="30" style="stroke:#A80036;stroke-width:1.0;" width="10" x="1494.5" y="310.3906"/><rect fill="#FFFFFF" filter="url(#frbe2n853eq8k)" height="137.2656" style="stroke:#A80036;stroke-width:1.0;" width="10" x="1494.5" y="456.9219"/><rect fill="#FFFFFF" filter="url(#frbe2n853eq8k)" height="28" style="stroke:#A80036;stroke-width:1.0;" width="10" x="1499.5" y="494.0547"/><rect fill="#FFFFFF" filter="url(#frbe2n853eq8k)" height="28" style="stroke:#A80036;stroke-width:1.0;" width="10" x="1499.5" y="566.1875"/><line style="stroke:#A80036;stroke-width:1.0;stroke-dasharray:5.0,5.0;" x1="54" x2="54" y1="88.2969" y2="648.3203"/><line style="stroke:#A80036;stroke-width:1.0;stroke-dasharray:5.0,5.0;" x1="378.5" x2="378.5" y1="88.2969" y2="648.3203"/><line style="stroke:#A80036;stroke-width:1.0;stroke-dasharray:5.0,5.0;" x1="930.5" x2="930.5" y1="88.2969" y2="648.3203"/><line style="stroke:#A80036;stroke-width:1.0;stroke-dasharray:5.0,5.0;" x1="1499.5" x2="1499.5" y1="88.2969" y2="648.3203"/><line style="stroke:#A80036;stroke-width:1.0;stroke-dasharray:5.0,5.0;" x1="1649" x2="1649" y1="276.6094" y2="648.3203"/><text fill="#000000" font-family="sans-serif" font-size="14" lengthAdjust="spacing" textLength="93" x="5" y="84.9951">Receptionist</text><ellipse cx="54.5" cy="15" fill="#FEFECE" filter="url(#frbe2n853eq8k)" rx="8" ry="8" style="stroke:#A80036;stroke-width:2.0;"/><path d="M54.5,23 L54.5,50 M41.5,31 L67.5,31 M54.5,50 L41.5,65 M54.5,50 L67.5,65 " fill="none" filter="url(#frbe2n853eq8k)" style="stroke:#A80036;stroke-width:2.0;"/><text fill="#000000" font-family="sans-serif" font-size="14" lengthAdjust="spacing" textLength="93" x="5" y="660.3154">Receptionist</text><ellipse cx="54.5" cy="673.6172" fill="#FEFECE" filter="url(#frbe2n853eq8k)" rx="8" ry="8" style="stroke:#A80036;stroke-width:2.0;"/><path d="M54.5,681.6172 L54.5,708.6172 M41.5,689.6172 L67.5,689.6172 M54.5,708.6172 L41.5,723.6172 M54.5,708.6172 L67.5,723.6172 " fill="none" filter="url(#frbe2n853eq8k)" style="stroke:#A80036;stroke-width:2.0;"/><rect fill="#FEFECE" filter="url(#frbe2n853eq8k)" height="30.2969" style="stroke:#A80036;stroke-width:1.5;" width="136" x="308.5" y="53"/><text fill="#000000" font-family="sans-serif" font-size="14" lengthAdjust="spacing" textLength="122" x="315.5" y="72.9951">:RegisterClientUI</text><rect fill="#FEFECE" filter="url(#frbe2n853eq8k)" height="30.2969" style="stroke:#A80036;stroke-width:1.5;" width="136" x="308.5" y="647.3203"/><text fill="#000000" font-family="sans-serif" font-size="14" lengthAdjust="spacing" textLength="122" x="315.5" y="667.3154">:RegisterClientUI</text><rect fill="#FEFECE" filter="url(#frbe2n853eq8k)" height="30.2969" style="stroke:#A80036;stroke-width:1.5;" width="196" x="830.5" y="53"/><text fill="#000000" font-family="sans-serif" font-size="14" lengthAdjust="spacing" textLength="182" x="837.5" y="72.9951">:RegisterClientController</text><rect fill="#FEFECE" filter="url(#frbe2n853eq8k)" height="30.2969" style="stroke:#A80036;stroke-width:1.5;" width="196" x="830.5" y="647.3203"/><text fill="#000000" font-family="sans-serif" font-size="14" lengthAdjust="spacing" textLength="182" x="837.5" y="667.3154">:RegisterClientController</text><rect fill="#FEFECE" filter="url(#frbe2n853eq8k)" height="30.2969" style="stroke:#A80036;stroke-width:1.5;" width="88" x="1453.5" y="53"/><text fill="#000000" font-family="sans-serif" font-size="14" lengthAdjust="spacing" textLength="74" x="1460.5" y="72.9951">:ClientList</text><rect fill="#FEFECE" filter="url(#frbe2n853eq8k)" height="30.2969" style="stroke:#A80036;stroke-width:1.5;" width="88" x="1453.5" y="647.3203"/><text fill="#000000" font-family="sans-serif" font-size="14" lengthAdjust="spacing" textLength="74" x="1460.5" y="667.3154">:ClientList</text><rect fill="#FEFECE" filter="url(#frbe2n853eq8k)" height="30.2969" style="stroke:#A80036;stroke-width:1.5;" width="57" x="1619" y="647.3203"/><text fill="#000000" font-family="sans-serif" font-size="14" lengthAdjust="spacing" textLength="43" x="1626" y="667.3154">Client</text><rect fill="#FFFFFF" filter="url(#frbe2n853eq8k)" height="541.0234" style="stroke:#A80036;stroke-width:1.0;" width="10" x="49.5" y="98.2969"/><rect fill="#FFFFFF" filter="url(#frbe2n853eq8k)" height="29.1328" style="stroke:#A80036;stroke-width:1.0;" width="10" x="373.5" y="119.4297"/><rect fill="#FFFFFF" filter="url(#frbe2n853eq8k)" height="191.8281" style="stroke:#A80036;stroke-width:1.0;" width="10" x="373.5" y="177.6953"/><rect fill="#FFFFFF" filter="url(#frbe2n853eq8k)" height="231.6641" style="stroke:#A80036;stroke-width:1.0;" width="10" x="373.5" y="398.6563"/><rect fill="#FFFFFF" filter="url(#frbe2n853eq8k)" height="133.5625" style="stroke:#A80036;stroke-width:1.0;" width="10" x="925.5" y="206.8281"/><rect fill="#FFFFFF" filter="url(#frbe2n853eq8k)" height="166.3984" style="stroke:#A80036;stroke-width:1.0;" width="10" x="925.5" y="427.7891"/><rect fill="#FFFFFF" filter="url(#frbe2n853eq8k)" height="29.1328" style="stroke:#A80036;stroke-width:1.0;" width="10" x="1494.5" y="235.9609"/><rect fill="#FFFFFF" filter="url(#frbe2n853eq8k)" height="30" style="stroke:#A80036;stroke-width:1.0;" width="10" x="1494.5" y="310.3906"/><rect fill="#FFFFFF" filter="url(#frbe2n853eq8k)" height="137.2656" style="stroke:#A80036;stroke-width:1.0;" width="10" x="1494.5" y="456.9219"/><rect fill="#FFFFFF" filter="url(#frbe2n853eq8k)" height="28" style="stroke:#A80036;stroke-width:1.0;" width="10" x="1499.5" y="494.0547"/><rect fill="#FFFFFF" filter="url(#frbe2n853eq8k)" height="28" style="stroke:#A80036;stroke-width:1.0;" width="10" x="1499.5" y="566.1875"/><polygon fill="#A80036" points="361.5,115.4297,371.5,119.4297,361.5,123.4297,365.5,119.4297" style="stroke:#A80036;stroke-width:1.0;"/><line style="stroke:#A80036;stroke-width:1.0;" x1="59.5" x2="367.5" y1="119.4297" y2="119.4297"/><text fill="#000000" font-family="sans-serif" font-size="13" font-weight="bold" lengthAdjust="spacing" textLength="9" x="66.5" y="114.3638">1</text><text fill="#000000" font-family="sans-serif" font-size="13" lengthAdjust="spacing" textLength="170" x="79.5" y="114.3638">asks to register new Client</text><polygon fill="#A80036" points="70.5,144.5625,60.5,148.5625,70.5,152.5625,66.5,148.5625" style="stroke:#A80036;stroke-width:1.0;"/><line style="stroke:#A80036;stroke-width:1.0;stroke-dasharray:2.0,2.0;" x1="64.5" x2="377.5" y1="148.5625" y2="148.5625"/><text fill="#000000" font-family="sans-serif" font-size="13" font-weight="bold" lengthAdjust="spacing" textLength="9" x="76.5" y="143.4966">2</text><text fill="#000000" font-family="sans-serif" font-size="13" lengthAdjust="spacing" textLength="223" x="89.5" y="143.4966">request data(i.e., ccn, nhsNumber)</text><polygon fill="#A80036" points="361.5,173.6953,371.5,177.6953,361.5,181.6953,365.5,177.6953" style="stroke:#A80036;stroke-width:1.0;"/><line style="stroke:#A80036;stroke-width:1.0;" x1="59.5" x2="367.5" y1="177.6953" y2="177.6953"/><text fill="#000000" font-family="sans-serif" font-size="13" font-weight="bold" lengthAdjust="spacing" textLength="8" x="66.5" y="172.6294">3</text><text fill="#000000" font-family="sans-serif" font-size="13" lengthAdjust="spacing" textLength="138" x="78.5" y="172.6294">types requested data</text><polygon fill="#A80036" points="913.5,202.8281,923.5,206.8281,913.5,210.8281,917.5,206.8281" style="stroke:#A80036;stroke-width:1.0;"/><line style="stroke:#A80036;stroke-width:1.0;" x1="383.5" x2="919.5" y1="206.8281" y2="206.8281"/><text fill="#000000" font-family="sans-serif" font-size="13" font-weight="bold" lengthAdjust="spacing" textLength="9" x="390.5" y="201.7622">4</text><text fill="#000000" font-family="sans-serif" font-size="13" lengthAdjust="spacing" textLength="510" x="403.5" y="201.7622">registerClient(ccn, birthDate, name, tif, nhsNumber, sex, phoneNumber, email )</text><polygon fill="#A80036" points="1482.5,231.9609,1492.5,235.9609,1482.5,239.9609,1486.5,235.9609" style="stroke:#A80036;stroke-width:1.0;"/><line style="stroke:#A80036;stroke-width:1.0;" x1="935.5" x2="1488.5" y1="235.9609" y2="235.9609"/><text fill="#000000" font-family="sans-serif" font-size="13" font-weight="bold" lengthAdjust="spacing" textLength="9" x="942.5" y="230.895">5</text><text fill="#000000" font-family="sans-serif" font-size="13" lengthAdjust="spacing" textLength="527" x="955.5" y="230.895">c = createClient(ccn, birthDate, name, tif, nhsNumber, sex, phoneNumber, email )</text><polygon fill="#A80036" points="1607,261.0938,1617,265.0938,1607,269.0938,1611,265.0938" style="stroke:#A80036;stroke-width:1.0;"/><line style="stroke:#A80036;stroke-width:1.0;stroke-dasharray:2.0,2.0;" x1="1499.5" x2="1613" y1="265.0938" y2="265.0938"/><text fill="#000000" font-family="sans-serif" font-size="13" font-weight="bold" lengthAdjust="spacing" textLength="9" x="1506.5" y="260.0278">6</text><text fill="#000000" font-family="sans-serif" font-size="13" lengthAdjust="spacing" textLength="58" x="1519.5" y="260.0278">create(c)</text><rect fill="#FEFECE" filter="url(#frbe2n853eq8k)" height="30.2969" style="stroke:#A80036;stroke-width:1.5;" width="57" x="1619" y="243.9609"/><text fill="#000000" font-family="sans-serif" font-size="14" lengthAdjust="spacing" textLength="43" x="1626" y="263.9561">Client</text><polygon fill="#A80036" points="1482.5,306.3906,1492.5,310.3906,1482.5,314.3906,1486.5,310.3906" style="stroke:#A80036;stroke-width:1.0;"/><line style="stroke:#A80036;stroke-width:1.0;" x1="935.5" x2="1488.5" y1="310.3906" y2="310.3906"/><text fill="#000000" font-family="sans-serif" font-size="13" font-weight="bold" lengthAdjust="spacing" textLength="9" x="942.5" y="305.3247">7</text><text fill="#000000" font-family="sans-serif" font-size="13" lengthAdjust="spacing" textLength="104" x="955.5" y="305.3247">validateClient(c)</text><polygon fill="#A80036" points="70.5,365.5234,60.5,369.5234,70.5,373.5234,66.5,369.5234" style="stroke:#A80036;stroke-width:1.0;"/><line style="stroke:#A80036;stroke-width:1.0;stroke-dasharray:2.0,2.0;" x1="64.5" x2="377.5" y1="369.5234" y2="369.5234"/><text fill="#000000" font-family="sans-serif" font-size="13" font-weight="bold" lengthAdjust="spacing" textLength="9" x="76.5" y="364.4575">8</text><text fill="#000000" font-family="sans-serif" font-size="13" lengthAdjust="spacing" textLength="277" x="89.5" y="364.4575">shows the data and request a confirmation</text><polygon fill="#A80036" points="361.5,394.6563,371.5,398.6563,361.5,402.6563,365.5,398.6563" style="stroke:#A80036;stroke-width:1.0;"/><line style="stroke:#A80036;stroke-width:1.0;" x1="59.5" x2="367.5" y1="398.6563" y2="398.6563"/><text fill="#000000" font-family="sans-serif" font-size="13" font-weight="bold" lengthAdjust="spacing" textLength="9" x="66.5" y="393.5903">9</text><text fill="#000000" font-family="sans-serif" font-size="13" lengthAdjust="spacing" textLength="114" x="79.5" y="393.5903">confirms the data</text><polygon fill="#A80036" points="913.5,423.7891,923.5,427.7891,913.5,431.7891,917.5,427.7891" style="stroke:#A80036;stroke-width:1.0;"/><line style="stroke:#A80036;stroke-width:1.0;" x1="383.5" x2="919.5" y1="427.7891" y2="427.7891"/><text fill="#000000" font-family="sans-serif" font-size="13" font-weight="bold" lengthAdjust="spacing" textLength="19" x="390.5" y="422.7231">10</text><text fill="#000000" font-family="sans-serif" font-size="13" lengthAdjust="spacing" textLength="84" x="413.5" y="422.7231">saveClient(c)</text><polygon fill="#A80036" points="1482.5,452.9219,1492.5,456.9219,1482.5,460.9219,1486.5,456.9219" style="stroke:#A80036;stroke-width:1.0;"/><line style="stroke:#A80036;stroke-width:1.0;" x1="935.5" x2="1488.5" y1="456.9219" y2="456.9219"/><text fill="#000000" font-family="sans-serif" font-size="13" font-weight="bold" lengthAdjust="spacing" textLength="18" x="942.5" y="451.856">11</text><text fill="#000000" font-family="sans-serif" font-size="13" lengthAdjust="spacing" textLength="84" x="964.5" y="451.856">saveClient(c)</text><line style="stroke:#A80036;stroke-width:1.0;" x1="1509.5" x2="1551.5" y1="486.0547" y2="486.0547"/><line style="stroke:#A80036;stroke-width:1.0;" x1="1551.5" x2="1551.5" y1="486.0547" y2="499.0547"/><line style="stroke:#A80036;stroke-width:1.0;" x1="1510.5" x2="1551.5" y1="499.0547" y2="499.0547"/><polygon fill="#A80036" points="1520.5,495.0547,1510.5,499.0547,1520.5,503.0547,1516.5,499.0547" style="stroke:#A80036;stroke-width:1.0;"/><text fill="#000000" font-family="sans-serif" font-size="13" font-weight="bold" lengthAdjust="spacing" textLength="18" x="1516.5" y="480.9888">12</text><text fill="#000000" font-family="sans-serif" font-size="13" lengthAdjust="spacing" textLength="104" x="1538.5" y="480.9888">validateClient(c)</text><line style="stroke:#A80036;stroke-width:1.0;" x1="1509.5" x2="1551.5" y1="558.1875" y2="558.1875"/><line style="stroke:#A80036;stroke-width:1.0;" x1="1551.5" x2="1551.5" y1="558.1875" y2="571.1875"/><line style="stroke:#A80036;stroke-width:1.0;" x1="1510.5" x2="1551.5" y1="571.1875" y2="571.1875"/><polygon fill="#A80036" points="1520.5,567.1875,1510.5,571.1875,1520.5,575.1875,1516.5,571.1875" style="stroke:#A80036;stroke-width:1.0;"/><text fill="#000000" font-family="sans-serif" font-size="13" font-weight="bold" lengthAdjust="spacing" textLength="17" x="1516.5" y="553.1216">13</text><text fill="#000000" font-family="sans-serif" font-size="13" lengthAdjust="spacing" textLength="77" x="1537.5" y="553.1216">addClient(c)</text><polygon fill="#A80036" points="70.5,626.3203,60.5,630.3203,70.5,634.3203,66.5,630.3203" style="stroke:#A80036;stroke-width:1.0;"/><line style="stroke:#A80036;stroke-width:1.0;stroke-dasharray:2.0,2.0;" x1="64.5" x2="377.5" y1="630.3203" y2="630.3203"/><text fill="#000000" font-family="sans-serif" font-size="13" font-weight="bold" lengthAdjust="spacing" textLength="18" x="76.5" y="625.2544">14</text><text fill="#000000" font-family="sans-serif" font-size="13" lengthAdjust="spacing" textLength="183" x="98.5" y="625.2544">informs operation in(sucess)</text><!--MD5=[6a0750deddf40f9b9ec1b106f41cd9e5]
@startuml
autonumber
actor "Receptionist" as RECEPT

participant ":RegisterClientUI" as UI
participant ":RegisterClientController" as CTRL
participant ":ClientList" as CLL
participant "Client" as CLT

activate RECEPT
RECEPT -> UI : asks to register new Client
activate UI
UI - -> RECEPT : request data(i.e., ccn, nhsNumber)
deactivate UI

RECEPT -> UI : types requested data
activate UI
UI -> CTRL: registerClient(ccn, birthDate, name, tif, nhsNumber, sex, phoneNumber, email )
activate CTRL
CTRL -> CLL: c = createClient(ccn, birthDate, name, tif, nhsNumber, sex, phoneNumber, email )
activate CLL
CLL - -> CLT** : create(c)
deactivate CLL
CTRL -> CLL : validateClient(c)
activate CLL
deactivate CLL
deactivate CTRL
UI - -> RECEPT : shows the data and request a confirmation
deactivate UI

RECEPT -> UI : confirms the data
activate UI
UI -> CTRL : saveClient(c)
activate CTRL
CTRL -> CLL : saveClient(c)
activate CLL
CLL -> CLL++ : validateClient(c)
CLL- -
CLL -> CLL++ : addClient(c)
CLL- -
deactivate CLL
deactivate CTRL
UI - -> RECEPT : informs operation in(sucess)
deactivate UI
@enduml

PlantUML version 1.2021.5(Sun Apr 25 11:20:28 UTC 2021)
(GPL source distribution)
Java Runtime: Java(TM) SE Runtime Environment
JVM: Java HotSpot(TM) 64-Bit Server VM
Default Encoding: UTF-8
Language: en
Country: US
--></g></svg>